<svg width="580" height="507" viewBox="0 0 580 507" fill="none" xmlns="http://www.w3.org/2000/svg">
<g clip-path="url(#clip0_312_456)">
<path d="M178.1 25.168H0.881836V240.933H178.1V25.168Z" fill="#01654D" stroke="#101727" stroke-width="2" stroke-miterlimit="10"/>
<path d="M153.071 45.0679H25.9102V221.034H153.071V45.0679Z" fill="#E9E1CE" stroke="#101727" stroke-width="2" stroke-miterlimit="10"/>
<path d="M107.898 18.1259C107.255 8.49809 99.2674 0.882324 89.4906 0.882324C79.7137 0.882324 71.7265 8.49809 71.0829 18.1259H39.7158V55.3664H139.256V18.1259H107.889H107.898Z" fill="#E8BD51" stroke="#101727" stroke-width="2" stroke-miterlimit="10"/>
<path d="M428.093 506.117H311.458V372.837L369.775 307.516L428.093 372.837V506.117Z" fill="#E9E1CE" stroke="#101727" stroke-width="2" stroke-linejoin="round"/>
<path d="M544.736 506.117H428.093V372.837L369.775 307.516H486.419L544.736 372.837V506.117Z" fill="#01654D" stroke="#101727" stroke-width="2" stroke-linejoin="round"/>
<path d="M544.736 372.837H428.093L369.775 307.516H486.419L544.736 372.837Z" fill="#01654D" stroke="#101727" stroke-width="2" stroke-linejoin="round"/>
<path d="M432.042 364.012L389.479 316.341V310.958L482.469 316.341L525.041 358.629V364.012H432.042Z" fill="#01654D" stroke="#101727" stroke-width="2" stroke-linejoin="round"/>
<path d="M432.042 358.629L389.479 310.958H482.469L525.041 358.629H432.042Z" fill="#E9E1CE" stroke="#101727" stroke-width="2" stroke-linejoin="round"/>
<path d="M428.093 372.837H544.736" stroke="#101727" stroke-width="2" stroke-linejoin="round"/>
<path d="M386.552 356.961H352.99V388.722H386.552V356.961Z" fill="#E9E1CE" stroke="#101727" stroke-width="2" stroke-miterlimit="10"/>
<path d="M386.552 411.401H352.99V443.162H386.552V411.401Z" fill="#E9E1CE" stroke="#101727" stroke-width="2" stroke-miterlimit="10"/>
<path d="M474.976 411.401H458.852V443.162H474.976V411.401Z" fill="#E8BD51" stroke="#101727" stroke-width="2" stroke-miterlimit="10"/>
<path d="M518.862 411.401H502.737V443.162H518.862V411.401Z" fill="#E8BD51" stroke="#101727" stroke-width="2" stroke-miterlimit="10"/>
<path d="M139.256 81.6289H39.7158V103.152H139.256V81.6289Z" fill="#E9E1CE" stroke="#101727" stroke-width="2" stroke-miterlimit="10"/>
<path d="M139.256 111.951H39.7158V133.474H139.256V111.951Z" fill="#E9E1CE" stroke="#101727" stroke-width="2" stroke-miterlimit="10"/>
<path d="M139.256 142.282H39.7158V163.805H139.256V142.282Z" fill="#E9E1CE" stroke="#101727" stroke-width="2" stroke-miterlimit="10"/>
<path d="M139.256 172.612H39.7158V194.136H139.256V172.612Z" fill="#E9E1CE" stroke="#101727" stroke-width="2" stroke-miterlimit="10"/>
<path d="M62.6104 92.3862H404.36C433.576 92.3862 457.255 116.09 457.255 145.335V330.593" stroke="#101727" stroke-width="2" stroke-miterlimit="10"/>
<path d="M432.042 364.012V358.629" stroke="#101727" stroke-width="2" stroke-linejoin="round"/>
<path d="M534.307 464.624H500.339V506.118H534.307V464.624Z" stroke="#101727" stroke-width="2" stroke-miterlimit="10"/>
<path d="M540.91 464.624H506.942V506.118H540.91V464.624Z" fill="#E9E1CE" stroke="#101727" stroke-width="2" stroke-linejoin="round"/>
<path d="M523.922 497.266C530.485 497.266 535.806 491.94 535.806 485.37C535.806 478.801 530.485 473.475 523.922 473.475C517.359 473.475 512.038 478.801 512.038 485.37C512.038 491.94 517.359 497.266 523.922 497.266Z" fill="#01654D" stroke="#101727" stroke-width="2" stroke-linejoin="round"/>
<path d="M88.8994 153.048H195.528C224.744 153.048 248.424 176.751 248.424 205.996V432.422C248.424 461.667 272.103 485.371 301.319 485.371H523.921" stroke="#101727" stroke-width="2" stroke-miterlimit="10"/>
<path d="M457.256 339.153C461.978 339.153 465.807 335.321 465.807 330.593C465.807 325.866 461.978 322.033 457.256 322.033C452.533 322.033 448.704 325.866 448.704 330.593C448.704 335.321 452.533 339.153 457.256 339.153Z" fill="#E8BD51" stroke="#101727" stroke-width="2" stroke-miterlimit="10"/>
<path d="M523.922 493.931C528.644 493.931 532.473 490.098 532.473 485.371C532.473 480.643 528.644 476.811 523.922 476.811C519.199 476.811 515.37 480.643 515.37 485.371C515.37 490.098 519.199 493.931 523.922 493.931Z" fill="#E8BD51" stroke="#101727" stroke-width="2" stroke-miterlimit="10"/>
<path d="M102.679 183.378V374.329C102.679 403.574 126.358 427.277 155.574 427.277H369.766" stroke="#101727" stroke-width="2" stroke-miterlimit="10"/>
<path d="M369.643 435.837C374.366 435.837 378.195 432.005 378.195 427.277C378.195 422.55 374.366 418.717 369.643 418.717C364.92 418.717 361.092 422.55 361.092 427.277C361.092 432.005 364.92 435.837 369.643 435.837Z" fill="#E8BD51" stroke="#101727" stroke-width="2" stroke-miterlimit="10"/>
<path d="M102.679 191.938C107.402 191.938 111.231 188.106 111.231 183.378C111.231 178.651 107.402 174.818 102.679 174.818C97.9565 174.818 94.1279 178.651 94.1279 183.378C94.1279 188.106 97.9565 191.938 102.679 191.938Z" fill="#E8BD51" stroke="#101727" stroke-width="2" stroke-miterlimit="10"/>
<path d="M89.4909 161.608C94.2137 161.608 98.0424 157.775 98.0424 153.048C98.0424 148.32 94.2137 144.488 89.4909 144.488C84.7681 144.488 80.9395 148.32 80.9395 153.048C80.9395 157.775 84.7681 161.608 89.4909 161.608Z" fill="#E8BD51" stroke="#101727" stroke-width="2" stroke-miterlimit="10"/>
<path d="M62.611 100.946C67.3339 100.946 71.1625 97.1138 71.1625 92.3862C71.1625 87.6586 67.3339 83.8262 62.611 83.8262C57.8882 83.8262 54.0596 87.6586 54.0596 92.3862C54.0596 97.1138 57.8882 100.946 62.611 100.946Z" fill="#E8BD51" stroke="#101727" stroke-width="2" stroke-miterlimit="10"/>
<path d="M274.176 506.118H580" stroke="#101727" stroke-width="2" stroke-miterlimit="10"/>
</g>
<defs>
<clipPath id="clip0_312_456">
<rect width="580" height="507" fill="white"/>
</clipPath>
</defs>
</svg>
