<svg width="678" height="471" viewBox="0 0 678 471" fill="none" xmlns="http://www.w3.org/2000/svg">
<g clip-path="url(#clip0_3122_183)">
<mask id="mask0_3122_183" style="mask-type:luminance" maskUnits="userSpaceOnUse" x="22" y="0" width="495" height="471">
<path d="M516.668 0H22.5078V470.18H516.668V0Z" fill="white"/>
</mask>
<g mask="url(#mask0_3122_183)">
<mask id="mask1_3122_183" style="mask-type:luminance" maskUnits="userSpaceOnUse" x="22" y="0" width="495" height="471">
<path d="M516.668 0H22.5078V470.18H516.668V0Z" fill="white"/>
</mask>
<g mask="url(#mask1_3122_183)">
<mask id="mask2_3122_183" style="mask-type:luminance" maskUnits="userSpaceOnUse" x="22" y="0" width="495" height="471">
<path d="M516.668 0H22.5078V470.18H516.668V0Z" fill="white"/>
</mask>
<g mask="url(#mask2_3122_183)">
<g opacity="0.12">
<mask id="mask3_3122_183" style="mask-type:luminance" maskUnits="userSpaceOnUse" x="22" y="0" width="495" height="471">
<path d="M516.668 0H22.5078V470.18H516.668V0Z" fill="white"/>
</mask>
<g mask="url(#mask3_3122_183)">
<path d="M22.5078 470.18V293.11C22.6478 293.08 23.1578 292.48 23.2978 292.22L68.8378 203.88L78.1078 186.24L78.6778 185.54C78.7578 185.44 79.0178 185.9 79.1078 186.05L92.0578 205.83L111.448 242.87L140.788 299.01L140.658 386.89H154.448L154.548 332.11V195.72L154.138 112.56L154.078 84.7698L163.658 82.8098L213.748 72.4098V17.5498L225.158 17.4298V0.339766L231.198 0.109766L303.638 0.00976562L303.608 22.9698L303.658 33.5898L306.868 33.7098L306.898 152.13C307.338 152.91 308.878 153.59 309.848 153.85V342.77L325.968 342.74V240.47L333.268 240.18L354.938 240.24L354.878 181.96L391.658 181.72L422.258 74.8898L434.628 116.46L453.748 181.66L489.498 181.68L489.188 228.55L489.088 239.6H516.328L516.658 243.14L516.688 470.16L22.5378 470.18H22.5078Z" fill="#01654D"/>
</g>
</g>
</g>
</g>
</g>
<path d="M371.009 248.01H334.789V266.59H371.009V248.01Z" fill="#E8BD51" stroke="#101727" stroke-miterlimit="10"/>
<path d="M268.757 240.03H232.547V258.61H268.757V240.03Z" fill="#E8BD51" stroke="#101727" stroke-miterlimit="10"/>
<path d="M0 470.18H678" stroke="#0F1728" stroke-miterlimit="10"/>
<path d="M365.572 124.61H246.305V272.578H365.572V124.61Z" fill="#01654D"/>
<path d="M365.997 273H245.875V124.178H365.997V273ZM246.729 272.157H365.143V125.032H246.729V272.157Z" fill="#101727"/>
<path d="M350.699 136.997L251.188 146.386L262.551 266.827L362.063 257.438L350.699 136.997Z" fill="#EAE2CF"/>
<path d="M262.152 267.291L262.109 266.869L250.711 146.001L351.065 136.528L351.108 136.95L362.506 257.807L262.152 267.28V267.291ZM251.641 146.769L262.92 266.361L361.587 257.05L350.308 137.458L251.641 146.769Z" fill="#101727"/>
<path d="M355.407 138.928H255.453V259.904H355.407V138.928Z" fill="#EAE2CF"/>
<path d="M355.824 260.327H255.016V138.507H355.824V260.327ZM255.87 259.472H354.969V139.35H255.87V259.472Z" fill="#101727"/>
<path d="M318.028 121.723C317.606 115.407 312.361 110.422 305.938 110.422C299.514 110.422 294.28 115.418 293.848 121.723H273.258V146.141H338.607V121.723H318.017H318.028ZM305.938 127.054C303.342 127.054 301.234 124.956 301.234 122.35C301.234 119.744 303.332 117.646 305.938 117.646C308.544 117.646 310.642 119.744 310.642 122.35C310.642 124.956 308.544 127.054 305.938 127.054Z" fill="#E8BD51"/>
<path d="M339.036 146.573H272.844V121.301H293.466C294.093 114.931 299.5 110 305.945 110C312.391 110 317.798 114.931 318.425 121.301H339.047V146.573H339.036ZM273.687 145.719H338.182V122.144H317.625L317.603 121.744C317.192 115.623 312.066 110.833 305.945 110.833C299.825 110.833 294.699 115.623 294.288 121.744L294.266 122.144H273.709V145.719H273.687ZM305.935 127.475C303.112 127.475 300.809 125.172 300.809 122.35C300.809 119.527 303.112 117.224 305.935 117.224C308.757 117.224 311.06 119.527 311.06 122.35C311.06 125.172 308.757 127.475 305.935 127.475ZM305.935 118.089C303.577 118.089 301.663 120.003 301.663 122.36C301.663 124.718 303.577 126.632 305.935 126.632C308.292 126.632 310.206 124.718 310.206 122.36C310.206 120.003 308.292 118.089 305.935 118.089Z" fill="#101727"/>
<path d="M334.392 135.651H277.5V136.506H334.392V135.651Z" fill="#101727"/>
<path d="M334.392 138.57H277.5V139.425H334.392V138.57Z" fill="#101727"/>
<path d="M334.392 141.492H277.5V142.347H334.392V141.492Z" fill="#101727"/>
<path d="M286.67 156.48C287.557 156.642 288.108 157.204 288.108 158.069C288.108 159.054 287.254 159.832 285.978 159.832H283.102V153.484H285.827C286.811 153.484 287.589 154.133 287.589 155.085C287.589 155.723 287.211 156.231 286.67 156.48ZM284.269 156.101H285.524C286.086 156.101 286.443 155.723 286.443 155.236C286.443 154.75 286.054 154.425 285.47 154.425H284.269V156.112V156.101ZM285.805 158.881C286.497 158.881 286.93 158.491 286.93 157.951C286.93 157.41 286.476 157.031 285.816 157.031H284.269V158.881H285.805Z" fill="#101727"/>
<path d="M293.426 153.473H294.605V157.322C294.605 158.912 293.458 159.95 291.869 159.95C290.279 159.95 289.133 158.912 289.133 157.322V153.473H290.312V157.344C290.312 158.35 290.95 158.912 291.869 158.912C292.788 158.912 293.426 158.35 293.426 157.344V153.473Z" fill="#101727"/>
<path d="M296.047 153.473H297.226V159.82H296.047V153.473Z" fill="#101727"/>
<path d="M298.703 153.473H299.882V158.782H302.78V159.82H298.703V153.473Z" fill="#101727"/>
<path d="M303.836 159.82V153.473H305.707C308.205 153.473 309.513 154.922 309.513 156.652C309.513 158.382 308.194 159.831 305.707 159.831H303.836V159.82ZM305.015 158.826H305.609C307.383 158.826 308.335 158.004 308.335 156.652C308.335 155.3 307.383 154.478 305.609 154.478H305.015V158.836V158.826Z" fill="#101727"/>
<path d="M310.664 153.473H311.843V159.82H310.664V153.473Z" fill="#101727"/>
<path d="M313.32 153.473H314.304L317.959 157.982V153.473H319.106V159.82H318.122L314.467 155.322V159.82H313.32V153.473Z" fill="#101727"/>
<path d="M325.569 155.495C325.233 154.857 324.595 154.359 323.633 154.359C322.281 154.359 321.405 155.322 321.405 156.641C321.405 158.047 322.303 158.955 323.622 158.955C324.747 158.955 325.428 158.371 325.666 157.582H323.265V156.609H326.942V156.63C326.942 158.501 325.644 159.939 323.633 159.939C321.622 159.939 320.227 158.469 320.227 156.641C320.227 154.813 321.589 153.343 323.633 153.343C325.147 153.343 326.272 154.154 326.737 155.495H325.569Z" fill="#101727"/>
<path d="M284.28 166.103V167.887H283.102V161.539H285.783C287.135 161.539 288.087 162.566 288.087 163.81C288.087 165.054 287.135 166.092 285.783 166.092H284.28V166.103ZM285.632 165.086C286.411 165.086 286.908 164.513 286.908 163.821C286.908 163.129 286.411 162.556 285.632 162.556H284.28V165.086H285.632Z" fill="#101727"/>
<path d="M289.008 161.539H293.258V162.577H290.187V164.156H293.171V165.183H290.187V166.86H293.29V167.898H289.008V161.55V161.539Z" fill="#101727"/>
<path d="M296.566 166.072H295.593V167.9H294.414V161.552H297.204C298.556 161.552 299.507 162.557 299.507 163.812C299.507 164.807 298.902 165.65 297.972 165.964L299.789 167.91H298.231L296.566 166.083V166.072ZM297.064 165.055C297.842 165.055 298.34 164.504 298.34 163.801C298.34 163.098 297.842 162.557 297.064 162.557H295.604V165.055H297.064Z" fill="#101727"/>
<path d="M304.121 167.986L301.872 164.125V167.9H300.758V161.552H301.58L304.121 166.05L306.662 161.552H307.484V167.9H306.37V164.125L304.121 167.986Z" fill="#101727"/>
<path d="M308.977 161.539H310.155V167.887H308.977V161.539Z" fill="#101727"/>
<path d="M316.179 162.566H314.265V167.887H313.086V162.566H311.172V161.539H316.179V162.566Z" fill="#101727"/>
<path d="M261.73 175.513V176.292H261.211V173.513H262.39C262.984 173.513 263.395 173.956 263.395 174.508C263.395 175.059 262.974 175.513 262.39 175.513H261.73ZM262.325 175.07C262.671 175.07 262.887 174.821 262.887 174.518C262.887 174.216 262.671 173.967 262.325 173.967H261.73V175.07H262.325Z" fill="#101727"/>
<path d="M264.099 175.468C264.131 175.771 264.315 175.965 264.672 175.965C264.91 175.965 265.105 175.857 265.191 175.706H265.656C265.516 176.063 265.137 176.333 264.672 176.333C264.002 176.333 263.602 175.89 263.602 175.295C263.602 174.7 264.034 174.257 264.64 174.257C265.245 174.257 265.678 174.689 265.678 175.295V175.457H264.088L264.099 175.468ZM264.099 175.144H265.224C265.191 174.841 264.986 174.625 264.672 174.625C264.359 174.625 264.153 174.819 264.11 175.144H264.099Z" fill="#101727"/>
<path d="M267.307 174.787H267.199C266.798 174.787 266.615 175.025 266.615 175.404V176.291H266.117V174.312H266.604V174.744C266.701 174.431 266.961 174.301 267.318 174.301V174.798L267.307 174.787Z" fill="#101727"/>
<path d="M268.154 176.29H267.656V174.311H268.143V174.646C268.229 174.419 268.478 174.257 268.781 174.257C269.084 174.257 269.3 174.408 269.408 174.646C269.56 174.397 269.808 174.257 270.133 174.257C270.608 174.257 270.857 174.603 270.857 175.1V176.29H270.36V175.187C270.36 174.906 270.252 174.7 269.96 174.7C269.689 174.7 269.516 174.895 269.516 175.165V176.29H269.019V175.187C269.019 174.906 268.911 174.7 268.619 174.7C268.348 174.7 268.175 174.895 268.175 175.187V176.29H268.154Z" fill="#101727"/>
<path d="M271.631 173.393C271.804 173.393 271.934 173.522 271.934 173.685C271.934 173.847 271.804 173.977 271.631 173.977C271.458 173.977 271.328 173.847 271.328 173.685C271.328 173.522 271.458 173.393 271.631 173.393ZM271.382 176.291V174.312H271.88V176.291H271.382Z" fill="#101727"/>
<path d="M272.594 173.716H273.092V174.311H273.6V174.722H273.092V175.619C273.092 175.825 273.167 175.922 273.362 175.922C273.449 175.922 273.513 175.9 273.578 175.889V176.29C273.513 176.311 273.362 176.344 273.232 176.344C272.767 176.344 272.594 176.062 272.594 175.608V174.732H272.227V174.321H272.594V173.727V173.716Z" fill="#101727"/>
<path d="M277.296 174.551H276.874L276.755 175.254H277.187V175.611H276.69L276.571 176.292H276.171L276.29 175.611H275.619L275.5 176.292H275.1L275.219 175.611H274.852V175.254H275.273L275.392 174.551H274.971V174.194H275.457L275.576 173.513H275.976L275.857 174.194H276.528L276.647 173.513H277.047L276.928 174.194H277.285V174.551H277.296ZM275.673 175.254H276.344L276.463 174.551H275.792L275.673 175.254Z" fill="#101727"/>
<path d="M269.676 168.57C274.52 168.57 278.447 164.643 278.447 159.799C278.447 154.956 274.52 151.029 269.676 151.029C264.833 151.029 260.906 154.956 260.906 159.799C260.906 164.643 264.833 168.57 269.676 168.57Z" fill="#01654D"/>
<path d="M269.671 169.001C264.6 169.001 260.469 164.87 260.469 159.798C260.469 154.727 264.6 150.596 269.671 150.596C274.743 150.596 278.874 154.727 278.874 159.798C278.874 164.87 274.743 169.001 269.671 169.001ZM269.671 151.45C265.065 151.45 261.323 155.192 261.323 159.798C261.323 164.405 265.065 168.147 269.671 168.147C274.278 168.147 278.02 164.405 278.02 159.798C278.02 155.192 274.278 151.45 269.671 151.45Z" fill="#101727"/>
<path d="M269.675 165.692C272.93 165.692 275.569 163.053 275.569 159.798C275.569 156.543 272.93 153.904 269.675 153.904C266.42 153.904 263.781 156.543 263.781 159.798C263.781 163.053 266.42 165.692 269.675 165.692Z" fill="#E8BD51"/>
<path d="M269.67 166.125C266.188 166.125 263.344 163.292 263.344 159.799C263.344 156.306 266.177 153.473 269.67 153.473C273.163 153.473 275.996 156.306 275.996 159.799C275.996 163.292 273.163 166.125 269.67 166.125ZM269.67 154.327C266.653 154.327 264.198 156.782 264.198 159.799C264.198 162.816 266.653 165.271 269.67 165.271C272.687 165.271 275.142 162.816 275.142 159.799C275.142 156.782 272.687 154.327 269.67 154.327Z" fill="#101727"/>
<path d="M269.672 158.998C267.487 158.998 265.454 159.387 263.789 160.047C263.919 163.183 266.503 165.692 269.672 165.692C272.84 165.692 275.425 163.183 275.555 160.047C273.889 159.387 271.856 158.998 269.672 158.998Z" fill="#01654D"/>
<path d="M269.68 166.125C266.284 166.125 263.516 163.465 263.375 160.069V159.767L263.645 159.659C265.43 158.945 267.517 158.577 269.69 158.577C271.864 158.577 273.951 158.956 275.735 159.659L276.017 159.767V160.069C275.865 163.465 273.097 166.125 269.701 166.125H269.68ZM264.24 160.34C264.51 163.13 266.846 165.282 269.68 165.282C272.513 165.282 274.849 163.141 275.119 160.34C273.497 159.745 271.626 159.431 269.68 159.431C267.733 159.431 265.862 159.745 264.24 160.34Z" fill="#101727"/>
<path d="M272.856 162.351H266.508V157.441L269.676 155.819L272.856 157.441V162.351Z" fill="#E8BD51"/>
<path d="M273.28 162.773H266.078V157.182L269.679 155.344L273.28 157.182V162.773ZM266.932 161.919H272.437V157.69L269.69 156.285L266.943 157.69V161.919H266.932Z" fill="#101727"/>
<path d="M350.014 180.659H260.906V187.212H350.014V180.659Z" fill="#01654D"/>
<path d="M350.446 187.646H260.484V180.238H350.446V187.646ZM261.328 186.792H349.592V181.082H261.328V186.792Z" fill="#101727"/>
<path d="M350.014 187.212H260.906V193.765H350.014V187.212Z" fill="#EAE2CF"/>
<path d="M350.446 194.198H260.484V186.79H350.446V194.198ZM261.328 193.343H349.592V187.634H261.328V193.343Z" fill="#101727"/>
<path d="M350.014 193.766H260.906V200.319H350.014V193.766Z" fill="#EAE2CF"/>
<path d="M350.446 200.752H260.484V193.345H350.446V200.752ZM261.328 199.898H349.592V194.188H261.328V199.898Z" fill="#101727"/>
<path d="M350.025 230.544H294.062V235.691H350.025V230.544Z" fill="#01654D"/>
<path d="M350.454 236.114H293.648V230.112H350.454V236.114ZM294.492 235.271H349.6V230.967H294.492V235.271Z" fill="#101727"/>
<path d="M350.025 235.691H294.062V240.839H350.025V235.691Z" fill="#EAE2CF"/>
<path d="M350.454 241.271H293.648V235.27H350.454V241.271ZM294.492 240.417H349.6V236.113H294.492V240.417Z" fill="#101727"/>
<path d="M350.025 240.839H294.062V245.986H350.025V240.839Z" fill="#EAE2CF"/>
<path d="M350.454 246.419H293.648V240.417H350.454V246.419ZM294.492 245.564H349.6V241.26H294.492V245.564Z" fill="#101727"/>
<path d="M311.365 235.691H294.062V240.839H311.365V235.691Z" fill="#EAE2CF"/>
<path d="M311.794 241.271H293.648V235.27H311.794V241.271ZM294.492 240.417H310.94V236.113H294.492V240.417Z" fill="#101727"/>
<path d="M311.365 240.839H294.062V245.986H311.365V240.839Z" fill="#EAE2CF"/>
<path d="M311.794 246.419H293.648V240.417H311.794V246.419ZM294.492 245.564H310.94V241.26H294.492V245.564Z" fill="#101727"/>
<path d="M350.014 206.883H260.906V213.436H350.014V206.883Z" fill="#EAE2CF"/>
<path d="M350.446 213.859H260.484V206.451H350.446V213.859ZM261.328 213.004H349.592V207.295H261.328V213.004Z" fill="#101727"/>
<path d="M350.014 213.437H260.906V219.99H350.014V213.437Z" fill="#EAE2CF"/>
<path d="M350.446 220.411H260.484V213.003H350.446V220.411ZM261.328 219.556H349.592V213.846H261.328V219.556Z" fill="#101727"/>
<path d="M350.014 219.99H260.906V226.544H350.014V219.99Z" fill="#EAE2CF"/>
<path d="M350.446 226.963H260.484V219.556H350.446V226.963ZM261.328 226.109H349.592V220.399H261.328V226.109Z" fill="#101727"/>
<path d="M312.882 206.883H305.453V213.436H312.882V206.883Z" fill="#EAE2CF"/>
<path d="M313.312 213.859H305.039V206.451H313.312V213.859ZM305.883 213.004H312.457V207.295H305.883V213.004Z" fill="#101727"/>
<path d="M312.882 213.437H305.453V219.99H312.882V213.437Z" fill="#EAE2CF"/>
<path d="M313.312 220.411H305.039V213.003H313.312V220.411ZM305.883 219.556H312.457V213.846H305.883V219.556Z" fill="#101727"/>
<path d="M312.882 219.99H305.453V226.544H312.882V219.99Z" fill="#EAE2CF"/>
<path d="M313.312 226.963H305.039V219.556H313.312V226.963ZM305.883 226.109H312.457V220.399H305.883V226.109Z" fill="#101727"/>
<path d="M320.32 206.883H312.891V213.436H320.32V206.883Z" fill="#EAE2CF"/>
<path d="M320.741 213.859H312.469V206.451H320.741V213.859ZM313.312 213.004H319.887V207.295H313.312V213.004Z" fill="#101727"/>
<path d="M320.32 213.437H312.891V219.99H320.32V213.437Z" fill="#EAE2CF"/>
<path d="M320.741 220.411H312.469V213.003H320.741V220.411ZM313.312 219.556H319.887V213.846H313.312V219.556Z" fill="#101727"/>
<path d="M320.32 219.99H312.891V226.544H320.32V219.99Z" fill="#EAE2CF"/>
<path d="M320.741 226.963H312.469V219.556H320.741V226.963ZM313.312 226.109H319.887V220.399H313.312V226.109Z" fill="#101727"/>
<path d="M327.75 206.883H320.32V213.436H327.75V206.883Z" fill="#EAE2CF"/>
<path d="M328.163 213.859H319.891V206.451H328.163V213.859ZM320.734 213.004H327.309V207.295H320.734V213.004Z" fill="#101727"/>
<path d="M327.75 213.437H320.32V219.99H327.75V213.437Z" fill="#EAE2CF"/>
<path d="M328.163 220.411H319.891V213.003H328.163V220.411ZM320.734 219.556H327.309V213.846H320.734V219.556Z" fill="#101727"/>
<path d="M327.75 219.99H320.32V226.544H327.75V219.99Z" fill="#EAE2CF"/>
<path d="M328.163 226.963H319.891V219.556H328.163V226.963ZM320.734 226.109H327.309V220.399H320.734V226.109Z" fill="#101727"/>
<path d="M335.171 206.883H327.742V213.436H335.171V206.883Z" fill="#EAE2CF"/>
<path d="M335.585 213.859H327.312V206.451H335.585V213.859ZM328.167 213.004H334.742V207.295H328.167V213.004Z" fill="#101727"/>
<path d="M335.171 213.437H327.742V219.99H335.171V213.437Z" fill="#EAE2CF"/>
<path d="M335.585 220.411H327.312V213.003H335.585V220.411ZM328.167 219.556H334.742V213.846H328.167V219.556Z" fill="#101727"/>
<path d="M335.171 219.99H327.742V226.544H335.171V219.99Z" fill="#EAE2CF"/>
<path d="M335.585 226.963H327.312V219.556H335.585V226.963ZM328.167 226.109H334.742V220.399H328.167V226.109Z" fill="#101727"/>
<path d="M342.601 206.883H335.172V213.436H342.601V206.883Z" fill="#EAE2CF"/>
<path d="M343.015 213.859H334.742V206.451H343.015V213.859ZM335.586 213.004H342.161V207.295H335.586V213.004Z" fill="#101727"/>
<path d="M342.601 213.437H335.172V219.99H342.601V213.437Z" fill="#EAE2CF"/>
<path d="M343.015 220.411H334.742V213.003H343.015V220.411ZM335.586 219.556H342.161V213.846H335.586V219.556Z" fill="#101727"/>
<path d="M342.601 219.99H335.172V226.544H342.601V219.99Z" fill="#EAE2CF"/>
<path d="M343.015 226.963H334.742V219.556H343.015V226.963ZM335.586 226.109H342.161V220.399H335.586V226.109Z" fill="#101727"/>
<path d="M350.023 206.883H342.594V213.436H350.023V206.883Z" fill="#EAE2CF"/>
<path d="M350.452 213.859H342.18V206.451H350.452V213.859ZM343.023 213.004H349.598V207.295H343.023V213.004Z" fill="#101727"/>
<path d="M350.023 213.437H342.594V219.99H350.023V213.437Z" fill="#EAE2CF"/>
<path d="M350.452 220.411H342.18V213.003H350.452V220.411ZM343.023 219.556H349.598V213.846H343.023V219.556Z" fill="#101727"/>
<path d="M350.023 219.99H342.594V226.544H350.023V219.99Z" fill="#EAE2CF"/>
<path d="M350.452 226.963H342.18V219.556H350.452V226.963ZM343.023 226.109H349.598V220.399H343.023V226.109Z" fill="#101727"/>
<path d="M305.46 206.883H260.906V213.436H305.46V206.883Z" fill="#EAE2CF"/>
<path d="M305.877 213.859H260.469V206.451H305.877V213.859ZM261.323 213.004H305.033V207.295H261.323V213.004Z" fill="#101727"/>
<path d="M305.46 213.437H260.906V219.99H305.46V213.437Z" fill="#EAE2CF"/>
<path d="M305.877 220.411H260.469V213.003H305.877V220.411ZM261.323 219.556H305.033V213.846H261.323V219.556Z" fill="#101727"/>
<path d="M305.46 219.99H260.906V226.544H305.46V219.99Z" fill="#EAE2CF"/>
<path d="M305.877 226.963H260.469V219.556H305.877V226.963ZM261.323 226.109H305.033V220.399H261.323V226.109Z" fill="#101727"/>
<path d="M350.014 200.317H260.906V206.871H350.014V200.317Z" fill="#01654D"/>
<path d="M350.446 207.304H260.484V199.896H350.446V207.304ZM261.328 206.45H349.592V200.74H261.328V206.45Z" fill="#101727"/>
<path d="M310.81 177.167H281.461V178.021H310.81V177.167Z" fill="#101727"/>
<path d="M350.229 177.167H335.555V178.021H350.229V177.167Z" fill="#101727"/>
<path d="M303.177 253.307H273.828V254.161H303.177V253.307Z" fill="#101727"/>
<path d="M270.955 231.538L268.944 230.651L267.062 231.062L264.954 231.408L262.91 231.149L260.92 231.224L260.898 230.37L262.942 230.294L264.943 230.554L266.9 230.23L269.031 229.754L271.064 230.651L272.956 230.316L275 230.078L277.098 229.905L279.066 230.348L281.131 229.635L283.154 230.576L285.079 229.938L287.231 229.916L289.318 230.543L289.069 231.354L287.112 230.77L285.219 230.781L283.1 231.495L281.077 230.554L279.109 231.224L277.033 230.77L275.086 230.932L273.075 231.16L270.955 231.538Z" fill="#101727"/>
<path d="M272.624 237.475L270.277 236.145L268.093 236.761L265.638 237.28L263.237 236.891L260.934 236.999L260.891 236.145L263.291 236.037L265.616 236.415L267.887 235.939L270.396 235.237L272.754 236.567L274.992 236.058L277.35 235.712L279.804 235.464L282.097 236.113L284.508 235.053L286.866 236.459L289.029 235.529L289.364 236.307L286.801 237.41L284.444 236.004L282.151 237.021L279.729 236.318L277.447 236.556L275.133 236.902L272.624 237.475Z" fill="#101727"/>
<path d="M273.724 234.349L271.15 233.463L268.695 233.895L266.057 234.23L263.461 233.971L260.92 234.047L260.898 233.192L263.494 233.127L266.046 233.376L268.566 233.052L271.226 232.597L273.8 233.484L276.276 233.138L278.871 232.911L281.499 232.738L284.03 233.181L286.636 232.479L289.339 233.463L289.047 234.263L286.603 233.365L284.062 234.047L281.456 233.592L278.936 233.755L276.373 233.982L273.724 234.349Z" fill="#101727"/>
<path d="M270.955 240.46L268.944 239.573L267.062 239.984L264.954 240.341L262.91 240.081L260.92 240.146L260.898 239.303L262.942 239.227L264.943 239.476L266.9 239.151L269.031 238.686L271.064 239.584L272.956 239.249L275 239.011L277.098 238.838L279.066 239.281L281.131 238.567L283.154 239.508L285.079 238.859L287.231 238.849L289.318 239.465L289.069 240.287L287.112 239.692L285.219 239.714L283.1 240.427L281.077 239.487L279.109 240.157L277.033 239.692L275.086 239.854L273.075 240.081L270.955 240.46Z" fill="#101727"/>
<path d="M272.624 246.397L270.277 245.078L268.093 245.683L265.638 246.213L263.237 245.824L260.934 245.932L260.891 245.078L263.291 244.969L265.616 245.348L267.887 244.861L270.396 244.158L272.754 245.499L274.992 244.991L277.35 244.645L279.804 244.386L282.097 245.045L284.508 243.975L286.866 245.391L289.029 244.45L289.364 245.24L286.801 246.343L284.444 244.926L282.151 245.943L279.729 245.251L277.447 245.489L275.133 245.835L272.624 246.397Z" fill="#101727"/>
<path d="M267.466 251.988L266.146 251.241L265 251.566L263.562 251.879L262.21 251.652L260.934 251.706L260.891 250.863L262.253 250.798L263.551 251.014L264.794 250.744L266.254 250.333L267.595 251.079L268.796 250.82L270.115 250.614L271.542 250.474L272.937 250.874L272.71 251.696L271.467 251.339L270.223 251.468L268.925 251.652L267.466 251.988Z" fill="#101727"/>
<path d="M350.013 253.307H320.664V254.161H350.013V253.307Z" fill="#101727"/>
<path d="M312.25 251.88L311.341 251.317L310.584 251.555L309.579 251.782L308.627 251.609L307.762 251.653L307.719 250.809L308.681 250.766L309.557 250.917L310.379 250.723L311.46 250.398L312.39 250.96L313.169 250.777L314.088 250.625L315.105 250.517L315.948 250.777L316.932 250.301L317.851 250.896L318.641 250.528L319.647 250.517L319.657 251.371L318.836 251.382L317.787 251.869L316.867 251.274L316.013 251.685L315.029 251.371L314.196 251.469L313.32 251.609L312.25 251.88Z" fill="#101727"/>
<path d="M273.724 243.282L271.15 242.395L268.695 242.817L266.057 243.163L263.461 242.904L260.92 242.979L260.898 242.125L263.494 242.049L266.046 242.309L268.566 241.974L271.226 241.519L273.8 242.406L276.276 242.071L278.871 241.833L281.499 241.671L284.03 242.103L286.636 241.4L289.339 242.395L289.047 243.196L286.603 242.298L284.062 242.979L281.456 242.514L278.936 242.687L276.373 242.914L273.724 243.282Z" fill="#101727"/>
<path d="M503.872 249.77L478.312 430.19L543.972 430.29L567.253 284.58L602.523 249.76H503.883L503.872 249.77Z" fill="#01654D"/>
<path d="M624.171 249.77L649.741 430.19L584.081 430.29L560.801 284.58L525.531 249.76H624.171V249.77Z" fill="#01654D"/>
<path d="M510.449 93.7696C506.959 85.2296 505.729 73.9296 505.129 65.4496L505.059 59.8096L569.029 61.2896L570.269 60.7996C573.309 59.5996 576.699 59.7096 579.639 61.0996C581.389 61.9296 583.239 64.0496 583.719 65.9296C585.729 73.8496 575.549 79.4496 569.399 81.2196L566.779 81.9796L567.569 82.8096L568.079 85.4096L579.409 111.42L585.549 112.13L587.539 112.3C594.359 112.89 601.029 114.58 607.309 117.31C609.329 118.19 611.249 119.3 613.019 120.61C616.619 123.28 619.559 126.74 621.599 130.73L622.089 131.69C622.969 133.41 623.689 135.22 624.199 137.08C625.819 142.9 626.679 148.91 626.769 154.95C626.839 159.33 626.669 163.72 626.259 168.08L625.909 171.89C625.879 186.05 620.309 168.14 624.229 179.06L628.939 249.78L595.789 249.82L579.679 291.93L576.169 298.11L569.839 300.44L564.599 300L562.199 297.99L558.939 297.44L555.479 296.77L552.519 294.53L550.179 304.1L545.519 304.98L541.509 298.4L541.349 294.98L549.579 295.09L554.329 279.69L535.869 280.88L536.769 277.33L544.369 274.29L550.039 273.23L558.259 249.31L503.839 249.9L501.839 263.2L459.789 263.3C461.489 254.33 466.299 246.78 472.849 245.46C473.039 245.42 473.199 245.28 473.249 245.08L501.569 146.05C501.989 144.49 502.519 142.97 503.159 141.48L503.949 139.62C506.219 134.28 509.759 129.59 514.269 125.94C516.819 123.87 519.649 122.17 522.669 120.88L526.609 119.2" fill="#EAE2CF"/>
<path d="M510.449 93.7696C506.959 85.2296 505.729 73.9296 505.129 65.4496L505.059 59.8096L569.029 61.2896L570.269 60.7996C573.309 59.5996 576.699 59.7096 579.639 61.0996C581.389 61.9296 583.239 64.0496 583.719 65.9296C585.729 73.8496 575.549 79.4496 569.399 81.2196L566.779 81.9796L567.569 82.8096L568.079 85.4096L579.409 111.42L585.549 112.13L587.539 112.3C594.359 112.89 601.029 114.58 607.309 117.31C609.329 118.19 611.249 119.3 613.019 120.61C616.619 123.28 619.559 126.74 621.599 130.73L622.089 131.69C622.969 133.41 623.689 135.22 624.199 137.08C625.819 142.9 626.679 148.91 626.769 154.95C626.839 159.33 626.669 163.72 626.259 168.08L625.909 171.89C625.879 186.05 620.309 168.14 624.229 179.06L628.939 249.78L595.789 249.82L579.679 291.93L576.169 298.11L569.839 300.44L564.599 300L562.199 297.99L558.939 297.44L555.479 296.77L552.519 294.53L550.179 304.1L545.519 304.98L541.509 298.4L541.349 294.98L549.579 295.09L554.329 279.69L535.869 280.88L536.769 277.33L544.369 274.29L550.039 273.23L558.259 249.31L503.839 249.9L501.839 263.2L459.789 263.3C461.489 254.33 466.299 246.78 472.849 245.46C473.039 245.42 473.199 245.28 473.249 245.08L501.569 146.05C501.989 144.49 502.519 142.97 503.159 141.48L503.949 139.62C506.219 134.28 509.759 129.59 514.269 125.94C516.819 123.87 519.649 122.17 522.669 120.88L526.609 119.2" stroke="#101727" stroke-miterlimit="10"/>
<path d="M547.47 10.7502L535.005 9.78783C520.241 8.64566 507.335 19.7168 506.199 34.4943L504.534 56.2161L570.507 61.301L572.173 39.5792C573.309 24.8016 562.245 11.8905 547.47 10.7502Z" fill="#E9BE51"/>
<path d="M642.101 434.76L649.741 470.18H571.231C571.231 470.18 560.081 446.35 598.641 446.35C597.371 440.6 596.371 435.19 596.371 435.19L642.091 434.76H642.101Z" fill="#EAE2CF" stroke="#101727" stroke-miterlimit="10"/>
<path d="M536.087 434.76L533.077 470.18H454.567C454.567 470.18 443.417 446.35 481.977 446.35C484.507 439.13 484.727 434.32 484.727 434.32L536.087 434.76Z" fill="#EAE2CF" stroke="#101727" stroke-miterlimit="10"/>
<path d="M543.672 91.3199C556.272 84.1499 557.642 73.4999 558.732 60.8799L570.542 61.1199C569.752 99.1999 551.212 115.19 544.232 121.22L543.942 121.47C542.602 122.63 541.062 123.41 539.442 123.81C535.992 124.66 532.212 123.78 529.432 121.2L529.082 120.88C524.512 116.62 514.832 107.59 509.242 90.4599C519.782 96.1399 532.802 97.5099 543.672 91.3399V91.3199Z" fill="#101727" stroke="#101727" stroke-miterlimit="10"/>
<path fill-rule="evenodd" clip-rule="evenodd" d="M534.663 104.59C537.903 103.97 540.923 102.39 542.543 100.52L543.613 101.45C541.723 103.61 538.383 105.32 534.923 105.98C531.463 106.64 527.693 106.29 525.023 104.08L525.933 102.99C528.143 104.82 531.413 105.2 534.653 104.59H534.663Z" fill="#EAE2CF"/>
<path d="M581.454 439.51H653.564L655.934 420H579.094L581.454 439.51Z" fill="#01654D"/>
<path d="M546.603 439.51H474.493L472.133 420H548.973L546.603 439.51Z" fill="#01654D"/>
<path d="M472.117 420.23L548.957 419.59" stroke="#0F1728" stroke-width="0.73" stroke-miterlimit="10"/>
<path d="M474.477 439.94H546.597" stroke="#0F1728" stroke-width="0.73" stroke-miterlimit="10"/>
<path d="M579.039 420.23L655.879 419.59" stroke="#0F1728" stroke-width="0.73" stroke-miterlimit="10"/>
<path d="M581.391 439.94H653.511" stroke="#0F1728" stroke-width="0.73" stroke-miterlimit="10"/>
<path d="M553.981 148.621C555.649 148.593 556.978 147.223 556.95 145.561C556.921 143.898 555.547 142.574 553.879 142.602C552.211 142.63 550.882 144.001 550.91 145.663C550.938 147.325 552.313 148.65 553.981 148.621Z" stroke="#0F1728" stroke-miterlimit="10"/>
<path d="M551.137 162.767C552.805 162.739 554.134 161.368 554.106 159.706C554.078 158.044 552.703 156.719 551.035 156.748C549.368 156.776 548.038 158.146 548.067 159.808C548.095 161.471 549.469 162.795 551.137 162.767Z" stroke="#0F1728" stroke-miterlimit="10"/>
<path d="M578.866 111.59L548.186 131.16L531.586 111.3" stroke="#0F1728" stroke-miterlimit="10"/>
<path d="M541.617 166.93C541.697 166.67 548.197 131.16 548.197 131.16" stroke="#0F1728" stroke-miterlimit="10"/>
<path d="M578.888 111.7L570.278 151.46C570.278 151.46 562.408 130.91 548.188 131.15C533.968 131.39 523.578 146.08 523.578 146.08L528.348 120.51" stroke="#0F1728" stroke-miterlimit="10"/>
<path d="M531.377 66.4805C530.957 74.5905 527.177 82.8005 520.467 88.4005C516.377 91.8305 524.077 94.5005 530.247 87.2605" stroke="#0F1728" stroke-miterlimit="10"/>
<path d="M538.902 78.1098C540.586 78.1098 541.952 76.7442 541.952 75.0598C541.952 73.3753 540.586 72.0098 538.902 72.0098C537.217 72.0098 535.852 73.3753 535.852 75.0598C535.852 76.7442 537.217 78.1098 538.902 78.1098Z" stroke="#0F1728" stroke-miterlimit="10"/>
<path d="M537.812 66.1205C541.122 65.9605 543.922 67.1805 545.682 69.1405" stroke="#0F1728" stroke-miterlimit="10"/>
<path d="M531.377 66.4805C530.957 74.5905 527.177 82.8005 520.467 88.4005C516.377 91.8305 524.077 94.5005 530.247 87.2605" stroke="#0F1728" stroke-miterlimit="10"/>
<path d="M538.902 78.1098C540.586 78.1098 541.952 76.7442 541.952 75.0598C541.952 73.3753 540.586 72.0098 538.902 72.0098C537.217 72.0098 535.852 73.3753 535.852 75.0598C535.852 76.7442 537.217 78.1098 538.902 78.1098Z" stroke="#0F1728" stroke-miterlimit="10"/>
<path d="M537.812 66.1205C541.122 65.9605 543.922 67.1805 545.682 69.1405" stroke="#0F1728" stroke-miterlimit="10"/>
<path d="M519.29 65.25C515.98 65.25 513.25 66.61 511.57 68.66" stroke="#0F1728" stroke-miterlimit="10"/>
<path d="M521.048 78.2895C519.398 78.6295 517.778 77.5695 517.438 75.9195C517.098 74.2695 518.158 72.6595 519.808 72.3095C521.458 71.9595 523.078 73.0295 523.418 74.6795C523.758 76.3295 522.698 77.9495 521.048 78.2895Z" stroke="#0F1728" stroke-miterlimit="10"/>
<path fill-rule="evenodd" clip-rule="evenodd" d="M561.992 310.08C561.992 310.08 565.542 313.79 570.382 313.34C573.742 313.03 576.542 310.63 577.702 307.47L619.082 195.25L623.582 183.66" fill="#EAE2CF"/>
<path d="M561.992 310.08C561.992 310.08 565.542 313.79 570.382 313.34C573.742 313.03 576.542 310.63 577.702 307.47L619.082 195.25L623.582 183.66" stroke="#101727" stroke-miterlimit="10"/>
<path fill-rule="evenodd" clip-rule="evenodd" d="M586.78 170.32L548.73 273.95L545.18 274.17C534.87 275.06 535.22 280.45 535.22 280.45L553.08 284.14" fill="#EAE2CF"/>
<path d="M586.78 170.32L548.73 273.95L545.18 274.17C534.87 275.06 535.22 280.45 535.22 280.45L553.08 284.14" stroke="#101727" stroke-miterlimit="10"/>
<path d="M288.063 235.5H243.023V258.6H288.063V235.5Z" fill="#E8BD51" stroke="#101727" stroke-miterlimit="10"/>
<path d="M522.617 256.62H445.227C443.747 256.68 442.267 257.16 440.987 258.1L342.977 329.8C339.557 332.3 338.817 337.1 341.317 340.52C343.817 343.94 348.607 344.68 352.027 342.18L449.297 271.02H522.627C526.597 271.02 529.827 267.8 529.827 263.81C529.827 259.82 526.607 256.6 522.627 256.6L522.617 256.62Z" fill="#EAE2CF" stroke="#101727" stroke-miterlimit="10"/>
<path d="M225.201 264.62H195.031V299.61H225.201V264.62Z" fill="#E8BD51" stroke="#101727" stroke-miterlimit="10"/>
<path d="M257.173 257.62H220.953V299.63H257.173V257.62Z" fill="#E8BD51" stroke="#101727" stroke-miterlimit="10"/>
<path d="M278.038 257.62H241.828V299.63H278.038V257.62Z" fill="#E8BD51" stroke="#101727" stroke-miterlimit="10"/>
<path d="M314.257 257.62H278.047V299.63H314.257V257.62Z" fill="#E8BD51" stroke="#101727" stroke-miterlimit="10"/>
<path d="M346.368 257.62H310.148V299.63H346.368V257.62Z" fill="#E8BD51" stroke="#101727" stroke-miterlimit="10"/>
<path d="M375.661 264.62H346.531V299.61H375.661V264.62Z" fill="#E8BD51" stroke="#101727" stroke-miterlimit="10"/>
<path d="M554.228 280.65H476.468C474.988 280.71 473.508 281.19 472.228 282.13L415.828 323.39C412.408 325.89 411.668 330.69 414.168 334.11C416.668 337.53 421.458 338.27 424.878 335.77L480.538 295.05H549.198" fill="#EAE2CF"/>
<path d="M554.228 280.65H476.468C474.988 280.71 473.508 281.19 472.228 282.13L415.828 323.39C412.408 325.89 411.668 330.69 414.168 334.11C416.668 337.53 421.458 338.27 424.878 335.77L480.538 295.05H549.198" stroke="#101727" stroke-miterlimit="10"/>
<path d="M378.122 327.55C374.232 325.86 369.732 327.65 368.042 331.53L323.382 434.61L295.972 371.33C294.282 367.44 289.782 365.66 285.892 367.35C282.002 369.04 280.222 373.55 281.912 377.44L316.342 456.93C316.822 458.03 317.522 458.95 318.382 459.68C318.572 459.84 318.752 460 318.952 460.13C318.972 460.13 318.982 460.15 318.992 460.16C319.192 460.3 319.382 460.42 319.592 460.54C319.622 460.54 319.632 460.57 319.662 460.57C319.862 460.68 320.072 460.78 320.282 460.88C320.302 460.88 320.312 460.9 320.332 460.91H320.362C320.562 461 320.762 461.07 320.972 461.14C321.012 461.16 321.062 461.17 321.112 461.18C321.292 461.24 321.482 461.28 321.662 461.33C321.732 461.35 321.802 461.36 321.862 461.38C322.012 461.41 322.182 461.43 322.342 461.46C322.432 461.48 322.532 461.49 322.622 461.5C322.762 461.52 322.892 461.52 323.032 461.53C323.152 461.53 323.262 461.55 323.382 461.55C323.502 461.55 323.612 461.55 323.732 461.53C323.872 461.53 324.002 461.53 324.142 461.5C324.232 461.5 324.332 461.47 324.422 461.46C324.582 461.43 324.732 461.42 324.902 461.38C324.972 461.36 325.042 461.35 325.102 461.33C325.292 461.29 325.472 461.24 325.652 461.18C325.692 461.16 325.742 461.15 325.792 461.14C325.992 461.07 326.202 461 326.402 460.91C326.402 460.91 326.422 460.91 326.432 460.91C326.432 460.91 326.462 460.89 326.482 460.88C326.692 460.79 326.902 460.68 327.102 460.57C327.132 460.57 327.142 460.54 327.172 460.54C327.372 460.42 327.572 460.3 327.772 460.16C327.792 460.16 327.802 460.14 327.812 460.13C328.012 459.99 328.202 459.84 328.382 459.69C329.232 458.95 329.942 458.03 330.422 456.93L382.102 337.63C383.792 333.74 382.002 329.23 378.122 327.54V327.55Z" fill="#101727" stroke="#101727" stroke-miterlimit="10"/>
<path d="M260.143 364.32C256.263 362.63 251.753 364.42 250.063 368.3L222.273 432.46C220.593 436.34 222.373 440.86 226.253 442.54C230.133 444.23 234.643 442.44 236.333 438.56L264.123 374.4C265.803 370.52 264.023 366 260.143 364.32Z" fill="#101727" stroke="#101727" stroke-miterlimit="10"/>
<path d="M271.826 439.51C271.826 428.7 253.876 409.44 253.876 409.44C253.876 409.44 247.566 409.4 241.746 409.4C225.126 409.4 211.656 422.88 211.656 439.52C211.656 456.16 225.126 469.64 241.746 469.64C241.966 469.64 242.186 469.64 242.406 469.62V469.64H252.336L258.356 464.63C266.476 459.24 271.836 450.01 271.836 439.52L271.826 439.51Z" fill="#101727" stroke="#101727" stroke-miterlimit="10"/>
<path d="M252.34 469.63C268.96 469.63 282.43 456.15 282.43 439.51C282.43 422.87 268.96 409.39 252.34 409.39C235.72 409.39 222.25 422.87 222.25 439.51C222.25 456.15 235.72 469.63 252.34 469.63Z" fill="#01654D" stroke="#101727" stroke-miterlimit="10"/>
<path d="M252.342 456.18C260.822 456.18 267.692 449.3 267.692 440.82C267.692 432.34 260.822 425.46 252.342 425.46C243.862 425.46 236.992 432.34 236.992 440.82C236.992 449.3 243.862 456.18 252.342 456.18Z" fill="#EAE2CF" stroke="#101727" stroke-miterlimit="10"/>
<path d="M284.714 367.28C280.834 365.59 276.324 367.38 274.634 371.26L246.844 435.42C245.164 439.31 246.944 443.82 250.824 445.5C254.704 447.19 259.214 445.4 260.904 441.52L288.694 377.36C290.374 373.47 288.594 368.96 284.714 367.28Z" fill="#EAE2CF" stroke="#101727" stroke-miterlimit="10"/>
<path d="M412.294 327.55C408.404 325.86 403.904 327.65 402.214 331.53L357.554 434.61L330.144 371.33C328.454 367.44 323.944 365.66 320.064 367.35C316.174 369.04 314.394 373.55 316.084 377.44L350.514 456.93C350.994 458.03 351.694 458.95 352.554 459.68C352.744 459.84 352.924 460 353.124 460.13C353.144 460.13 353.154 460.15 353.164 460.16C353.364 460.3 353.554 460.42 353.764 460.54C353.794 460.54 353.804 460.57 353.834 460.57C354.034 460.68 354.244 460.78 354.454 460.88C354.474 460.88 354.484 460.9 354.504 460.91H354.534C354.734 461 354.934 461.07 355.134 461.14C355.174 461.16 355.224 461.17 355.274 461.18C355.454 461.24 355.644 461.28 355.824 461.33C355.894 461.35 355.964 461.36 356.024 461.38C356.174 461.41 356.344 461.43 356.504 461.46C356.594 461.48 356.694 461.49 356.784 461.5C356.924 461.52 357.054 461.52 357.194 461.53C357.314 461.53 357.424 461.55 357.544 461.55C357.664 461.55 357.774 461.55 357.894 461.53C358.034 461.53 358.164 461.53 358.304 461.5C358.394 461.5 358.494 461.47 358.584 461.46C358.744 461.43 358.904 461.42 359.064 461.38C359.134 461.36 359.204 461.35 359.264 461.33C359.454 461.29 359.634 461.24 359.814 461.18C359.854 461.16 359.904 461.15 359.954 461.14C360.154 461.07 360.364 461 360.564 460.91C360.564 460.91 360.584 460.91 360.594 460.91C360.594 460.91 360.624 460.89 360.644 460.88C360.854 460.79 361.064 460.68 361.264 460.57C361.294 460.57 361.304 460.54 361.334 460.54C361.534 460.42 361.734 460.3 361.934 460.16C361.954 460.16 361.964 460.14 361.974 460.13C362.174 459.99 362.364 459.84 362.544 459.69C363.394 458.95 364.104 458.03 364.584 456.93L416.264 337.63C417.954 333.74 416.164 329.23 412.284 327.54L412.294 327.55Z" fill="#EAE2CF" stroke="#101727" stroke-miterlimit="10"/>
<path d="M215.921 298.94H179.711V316.52H215.921V298.94Z" fill="#E8BD51" stroke="#101727" stroke-miterlimit="10"/>
<path d="M247.868 298.94H211.648V316.52H247.868V298.94Z" fill="#E8BD51" stroke="#101727" stroke-miterlimit="10"/>
<path d="M268.757 298.94H232.547V316.52H268.757V298.94Z" fill="#E8BD51" stroke="#101727" stroke-miterlimit="10"/>
<path d="M304.968 298.94H268.758V316.52H304.968V298.94Z" fill="#E8BD51" stroke="#101727" stroke-miterlimit="10"/>
<path d="M337.087 298.94H300.867V316.52H337.087V298.94Z" fill="#E8BD51" stroke="#101727" stroke-miterlimit="10"/>
<path d="M371.718 298.94H335.508V316.52H371.718V298.94Z" fill="#E8BD51" stroke="#101727" stroke-miterlimit="10"/>
<path d="M404.812 298.94H368.602V316.52H404.812V298.94Z" fill="#E8BD51" stroke="#101727" stroke-miterlimit="10"/>
<path d="M312.628 391H191.908L168.578 316.29H289.298L312.628 391Z" fill="#01654D" stroke="#101727" stroke-miterlimit="10"/>
<path d="M289.297 316.3H425.027V345.07L312.627 391.01L289.297 316.3Z" fill="#EAE2CF" stroke="#101727" stroke-miterlimit="10"/>
<path d="M597.647 140.07C601.527 129.83 612.977 124.68 623.217 128.56C633.457 132.44 638.607 143.89 634.727 154.13L623.137 184.68L623.067 184.65C624.307 178.91 617.977 171.63 608.277 167.95C598.577 164.27 589.417 165.69 586.547 170.81L597.647 140.06V140.07Z" fill="#EAE2CF" stroke="#101727" stroke-linejoin="round"/>
<path d="M480.986 267.467C481.931 264.878 480.597 262.014 478.008 261.069C475.419 260.125 472.555 261.458 471.61 264.047L468.876 271.544C467.931 274.133 469.265 276.998 471.854 277.942C474.443 278.886 477.307 277.553 478.252 274.964L480.986 267.467Z" fill="#EAE2CF" stroke="#101727" stroke-miterlimit="10"/>
<path d="M491.619 267.463C492.563 264.874 491.23 262.01 488.641 261.065C486.052 260.121 483.188 261.454 482.243 264.043L479.509 271.54C478.564 274.129 479.897 276.994 482.487 277.938C485.076 278.882 487.94 277.549 488.884 274.96L491.619 267.463Z" fill="#EAE2CF" stroke="#101727" stroke-miterlimit="10"/>
<path d="M502.26 267.473C503.204 264.884 501.871 262.02 499.282 261.075C496.693 260.131 493.828 261.464 492.884 264.053L490.149 271.55C489.205 274.139 490.538 277.003 493.127 277.948C495.716 278.892 498.581 277.559 499.525 274.97L502.26 267.473Z" fill="#EAE2CF" stroke="#101727" stroke-miterlimit="10"/>
<path d="M579.686 291.93L561.376 292.13L551.896 289.08L547.906 299.06L553.836 307.48L560.606 308.2L569.576 308.64L579.686 291.93Z" fill="#EAE2CF"/>
<path fill-rule="evenodd" clip-rule="evenodd" d="M567.568 306.87C567.568 306.87 565.388 308.97 562.168 309.83C559.398 310.56 555.628 310.53 552.078 306.95" fill="#EAE2CF"/>
<path d="M567.568 306.87C567.568 306.87 565.388 308.97 562.168 309.83C559.398 310.56 555.628 310.53 552.078 306.95" stroke="#101727" stroke-miterlimit="10"/>
<path fill-rule="evenodd" clip-rule="evenodd" d="M541.758 295.45C541.758 295.45 540.128 301.05 544.508 304.87C550.778 310.34 559.698 303.71 559.698 303.71" fill="#EAE2CF"/>
<path d="M541.758 295.45C541.758 295.45 540.128 301.05 544.508 304.87C550.778 310.34 559.698 303.71 559.698 303.71" stroke="#101727" stroke-miterlimit="10"/>
<path d="M547.906 299.06L556.086 276.02" stroke="#101727" stroke-miterlimit="10"/>
<path d="M509.388 249.89H493.648L515.598 156.78" fill="#EAE2CF"/>
<path d="M509.388 249.89H493.648L515.598 156.78" stroke="#101727" stroke-miterlimit="10"/>
<path d="M494.977 169.86C494.977 169.86 502.297 165.87 511.827 170.75L494.977 169.86Z" fill="#EAE2CF"/>
<path d="M494.977 169.86C494.977 169.86 502.297 165.87 511.827 170.75" stroke="#101727" stroke-miterlimit="10"/>
<path d="M485.773 253.15C485.773 253.15 478.793 260.97 470.273 256.21L485.773 253.15Z" fill="#EAE2CF"/>
<path d="M485.773 253.15C485.773 253.15 478.793 260.97 470.273 256.21" stroke="#101727" stroke-miterlimit="10"/>
<path d="M521.311 26.3496L517.961 27.5796L521.091 36.1096L524.441 34.8796L521.311 26.3496Z" fill="#01654D"/>
<path d="M526.501 34.1498C528.021 39.2598 526.871 42.5298 526.011 44.3198C524.181 43.5098 521.191 41.7298 519.041 36.7698C518.891 36.7898 518.731 36.7998 518.581 36.8198C517.411 36.9198 516.291 36.9198 515.211 36.8198C518.251 45.0798 523.511 47.1698 525.491 47.9598L525.581 47.9898C525.961 48.1398 526.361 48.1898 526.741 48.1598C527.561 48.0798 528.321 47.6098 528.731 46.8298L528.781 46.7398C529.791 44.8598 532.441 39.8398 529.431 31.5898C528.591 32.5498 527.621 33.4098 526.511 34.1398L526.501 34.1498Z" fill="white"/>
<path d="M570.538 61.0795L487.798 59.4695C486.228 59.4395 484.988 58.1395 485.008 56.5695C485.038 54.9995 486.338 53.7595 487.908 53.7795L523.198 54.4695" fill="#E8BD51"/>
<path d="M570.538 61.0795L487.798 59.4695C486.228 59.4395 484.988 58.1395 485.008 56.5695C485.038 54.9995 486.338 53.7595 487.908 53.7795L523.198 54.4695" stroke="#101727" stroke-miterlimit="10"/>
</g>
<path d="M543.558 10.3918C536.621 12.1932 534.861 16.454 534.861 16.454" stroke="#101727"/>
<defs>
<clipPath id="clip0_3122_183">
<rect width="678" height="470.68" fill="white"/>
</clipPath>
</defs>
</svg>
