<svg width="94" height="99" viewBox="0 0 94 99" fill="none" xmlns="http://www.w3.org/2000/svg">
<g clip-path="url(#clip0_3147_650)">
<path d="M46.67 98.8302C72.4451 98.8302 93.34 77.9354 93.34 52.1602C93.34 26.3851 72.4451 5.49023 46.67 5.49023C20.8949 5.49023 0 26.3851 0 52.1602C0 77.9354 20.8949 98.8302 46.67 98.8302Z" fill="#01654D"/>
<path d="M75.8822 48.6502L75.7222 48.5602L74.0222 45.6502C73.6322 45.1502 73.1522 44.6302 72.5922 44.0902C70.2922 41.8802 66.3922 39.7202 60.1222 38.7702L58.3922 38.5602L58.1722 38.4302L55.6122 32.2102L57.4922 27.5602L58.0222 28.0402C58.0222 28.0402 60.2422 28.3402 61.4822 27.0402C62.7122 25.7602 63.1922 24.8602 63.0522 23.3302C62.9022 21.7502 61.8222 21.1302 61.8222 21.1302C61.8222 21.1302 60.7422 20.4102 59.4922 20.8002L58.9122 20.5302L34.6622 17.7402C34.6622 17.7402 34.1322 22.8102 34.4922 25.7102C34.8522 28.6102 37.9322 33.8002 37.9322 33.8002L42.3622 39.8002C42.3622 39.8002 42.2322 39.8202 42.0122 39.8902H39.7822L38.4322 40.3102C32.5322 42.0902 28.1822 47.0402 27.1222 53.0602C25.4922 58.4502 20.2722 75.6402 18.7422 80.1002C20.4422 82.0502 22.8922 83.8902 24.4922 85.0002C24.4922 85.0002 24.6122 85.0902 24.8322 85.2402C25.6122 85.7702 26.1322 86.0902 26.1322 86.0902C28.0722 87.2802 31.4722 89.2002 34.8622 90.1702C40.0322 91.6602 43.1022 91.8202 43.1022 91.8202C43.1022 91.8202 48.3122 92.1202 50.0522 91.8302C51.7922 91.5402 56.6022 91.2202 61.5822 89.0202C66.5622 86.8202 69.1222 84.8502 69.1222 84.8502C69.1222 84.8502 73.2622 81.7902 75.1422 79.6502C77.0222 77.5102 79.4422 74.5002 80.6722 72.1502C81.9022 69.8002 82.8122 67.8802 83.2422 66.6702C83.6722 65.4602 84.4022 62.9002 84.4022 62.9002L75.8422 48.6802L75.8822 48.6502Z" fill="#EAE2CF"/>
<path d="M69.5391 84.9102L53.5391 86.9802" stroke="#101727" stroke-miterlimit="10"/>
<path d="M37.8984 21.4803C38.8784 20.7903 39.9784 20.6103 40.8984 20.8703" stroke="#101727" stroke-miterlimit="10"/>
<path d="M58.1797 38.4209C58.1797 38.4209 69.8297 39.3709 74.4497 46.2509L84.4397 63.0309" stroke="#101727" stroke-miterlimit="10"/>
<path d="M34.6622 17.7207C32.8622 32.0907 38.9922 39.1607 41.3022 41.8307L41.4222 41.9707C42.3722 43.0607 43.7722 43.5507 45.1122 43.3607C45.7422 43.2707 46.3622 43.0407 46.9122 42.6607L47.0322 42.5807C49.9222 40.5807 57.6022 35.2707 59.4422 20.8807L34.6622 17.7307V17.7207Z" stroke="#101727" stroke-miterlimit="10"/>
<path d="M57.7109 28.0002C59.2509 28.0602 61.1909 28.1502 62.5809 25.5902C63.9709 23.0302 62.2909 19.8802 59.4409 20.8702" stroke="#101727" stroke-miterlimit="10"/>
<path d="M45.5492 21.4707C45.1992 24.4007 43.6192 27.2807 41.0492 29.1507C39.4792 30.2907 42.2092 31.4507 44.6192 28.9807" stroke="#101727" stroke-miterlimit="10"/>
<path d="M44.2038 52.8304C44.8168 52.8304 45.3138 52.3334 45.3138 51.7204C45.3138 51.1073 44.8168 50.6104 44.2038 50.6104C43.5907 50.6104 43.0938 51.1073 43.0938 51.7204C43.0938 52.3334 43.5907 52.8304 44.2038 52.8304Z" stroke="#101727" stroke-miterlimit="10"/>
<path d="M43.7663 58.2405C44.3793 58.2405 44.8763 57.7435 44.8763 57.1305C44.8763 56.5175 44.3793 56.0205 43.7663 56.0205C43.1532 56.0205 42.6562 56.5175 42.6562 57.1305C42.6562 57.7435 43.1532 58.2405 43.7663 58.2405Z" stroke="#101727" stroke-miterlimit="10"/>
<path d="M39.9772 25.01C40.5902 25.01 41.0872 24.5131 41.0872 23.9C41.0872 23.287 40.5902 22.79 39.9772 22.79C39.3642 22.79 38.8672 23.287 38.8672 23.9C38.8672 24.5131 39.3642 25.01 39.9772 25.01Z" stroke="#101727" stroke-miterlimit="10"/>
<path d="M48.4766 21.4609C49.6766 21.4909 50.6666 22.0009 51.2566 22.7509" stroke="#101727" stroke-miterlimit="10"/>
<path d="M54.3106 28.8906L58.1806 38.4206L47.3706 46.8706L43.6406 41.6106L54.3106 28.8906Z" stroke="#101727" stroke-miterlimit="10"/>
<path d="M46.3984 59.5201C46.4284 59.4301 47.3684 46.8701 47.3684 46.8701" stroke="#101727" stroke-miterlimit="10"/>
<path d="M58.1778 38.4209L55.5778 53.3409C55.5778 53.3409 52.5978 46.8409 47.3678 46.8609C42.1378 46.8809 39.5078 53.1609 39.5078 53.1609L40.2678 40.6009" stroke="#101727" stroke-miterlimit="10"/>
<path d="M71.1725 68.6303L68.0625 63.0703" stroke="#101727" stroke-miterlimit="10"/>
<path d="M67.1016 61.3606C69.2316 56.8906 72.3116 53.9406 78.5016 53.3506" stroke="#101727" stroke-miterlimit="10"/>
<path d="M60.0027 16.04C74.9927 21.47 85.7327 35.82 85.7927 52.7C85.8627 74.3 68.4127 91.87 46.8027 91.94C25.2027 92.01 7.6327 74.56 7.5627 52.95C7.5127 37.07 16.9327 23.37 30.5127 17.19" stroke="#101727" stroke-miterlimit="10"/>
<path d="M48.0988 76.9703L43.6488 77.5503C42.1888 77.7403 40.8588 76.7103 40.6788 75.2603C40.4888 73.8003 41.5188 72.4703 42.9688 72.2903L46.7188 71.8103C48.0488 71.6403 48.8888 70.3003 48.4688 69.0303L46.8088 64.0003C46.3488 62.6103 47.1088 61.1103 48.4988 60.6503C49.8888 60.1903 51.3888 60.9503 51.8488 62.3403L53.3588 66.9503C53.3588 66.9503 55.2688 70.6903 58.9388 70.2203L71.1688 68.6403L62.7288 53.5703" stroke="#101727" stroke-miterlimit="10"/>
<path d="M49.4682 82.1505L43.7582 82.8905C42.2982 83.0805 40.9682 82.0505 40.7882 80.6005C40.5982 79.1405 41.6282 77.8105 43.0782 77.6305L48.0982 76.9805" stroke="#101727" stroke-miterlimit="10"/>
<path d="M69.5401 84.9106L45.9301 87.9606C44.4701 88.1506 43.1401 87.1206 42.9601 85.6706C42.7701 84.2106 43.8001 82.8806 45.2501 82.7006L49.9201 82.1006" stroke="#101727" stroke-miterlimit="10"/>
<path d="M49.8231 24.6009C48.0931 23.2809 46.7031 24.7009 46.7031 24.7009C46.7031 24.7009 47.8431 24.1709 49.2131 25.9509" stroke="#101727" stroke-linejoin="round"/>
<path d="M59.4519 20.8705L34.6719 17.7304L35.7019 9.58045C36.4019 4.03045 41.4719 0.100451 47.0219 0.800451L51.7019 1.39045C57.2519 2.09045 61.1819 7.16045 60.4819 12.7105L59.4519 20.8605V20.8705Z" fill="#E9BE51"/>
<path d="M59.4529 20.8608L28.1429 16.9008C27.5529 16.8308 27.1329 16.2808 27.2029 15.6908C27.2729 15.1008 27.8229 14.6808 28.4129 14.7508L41.6829 16.4308" fill="#E9BE51"/>
<path d="M59.4529 20.8608L28.1429 16.9008C27.5529 16.8308 27.1329 16.2808 27.2029 15.6908C27.2729 15.1008 27.8229 14.6808 28.4129 14.7508L41.6829 16.4308" stroke="#111727" stroke-miterlimit="10"/>
<path d="M42.1765 4.87088L40.7109 5.19043L41.5226 8.91297L42.9882 8.59343L42.1765 4.87088Z" fill="#01654D"/>
<path d="M40.6334 9.14078C41.2434 11.2908 42.3834 12.1908 43.0934 12.6308C43.5534 11.9308 44.2234 10.6308 43.8634 8.39078C43.9234 8.36078 43.9834 8.34078 44.0334 8.31078C44.4734 8.08078 44.8634 7.83078 45.2234 7.55078C46.0034 11.1608 44.6134 13.0808 44.0934 13.8108L44.0734 13.8408C43.9734 13.9808 43.8434 14.0908 43.7034 14.1608C43.3934 14.3208 43.0234 14.3208 42.7034 14.1408L42.6634 14.1208C41.8834 13.6808 39.8134 12.5008 39.0234 8.90078C39.5334 9.05078 40.0734 9.13078 40.6334 9.14078Z" fill="#EAE2CF"/>
<path d="M23.5938 84.3909L27.1138 53.9709C27.8638 47.5409 32.3638 42.1609 38.5638 40.2909L39.9137 39.8809" stroke="#101727" stroke-miterlimit="10"/>
<path d="M27.6122 51.4307C27.6122 51.4307 20.5522 74.7907 18.7422 80.1007" stroke="#101727" stroke-miterlimit="10"/>
<path d="M54.9697 20.3C54.0497 25.04 53.1397 28.33 48.0697 30.53C45.6697 31.57 43.1097 31.93 40.6597 31.62C40.5897 31.62 40.5097 31.59 40.4397 31.57C37.0697 30.59 35.3197 28.77 34.4297 24.89C34.5697 26.88 34.8097 28.44 35.0197 29.49C35.0497 29.65 35.0897 29.81 35.1297 29.97C35.2797 30.66 35.3897 31.02 35.3897 31.02C36.9497 36.79 39.8697 40.15 41.3097 41.81L41.4297 41.95C42.3797 43.04 43.7797 43.53 45.1197 43.34C45.7497 43.25 46.3697 43.02 46.9197 42.64L47.0397 42.56C49.9297 40.56 57.6097 35.25 59.4497 20.86L54.9797 20.29L54.9697 20.3Z" fill="#101727"/>
<path d="M47.4206 34.8604C45.9306 36.2404 42.3306 36.8404 40.6406 35.1104" stroke="#EAE2CF" stroke-miterlimit="10"/>
<path d="M46.5 2.07C48.09 0.63 49.74 0.5 49.74 0.5" stroke="#101727"/>
</g>
<defs>
<clipPath id="clip0_3147_650">
<rect width="93.34" height="98.83" fill="white"/>
</clipPath>
</defs>
</svg>
