<svg width="420" height="417" viewBox="0 0 420 417" fill="none" xmlns="http://www.w3.org/2000/svg">
<line x1="323" y1="205.5" x2="251" y2="205.5" stroke="#E9BE51" stroke-width="2"/>
<line x1="156" y1="205.5" x2="85" y2="205.5" stroke="#E9BE51" stroke-width="2"/>
<line x1="205" y1="261.5" x2="205" y2="303.5" stroke="#E9BE51" stroke-width="2"/>
<line x1="205" y1="126.5" x2="205" y2="162.5" stroke="#E9BE51" stroke-width="2"/>
<path d="M249.163 53.0904C249.163 78.0118 228.975 98.2052 204.082 98.2052C179.188 98.2052 159 78.0021 159 53.0904C159 28.1787 179.188 7.97559 204.082 7.97559C228.975 7.97559 249.163 28.1787 249.163 53.0904Z" fill="#EAE2CF"/>
<path d="M204.082 98.2052C228.98 98.2052 249.163 78.0066 249.163 53.0904C249.163 28.1742 228.98 7.97559 204.082 7.97559C179.184 7.97559 159 28.1742 159 53.0904C159 78.0066 179.184 98.2052 204.082 98.2052Z" stroke="#101727" stroke-miterlimit="10"/>
<mask id="mask0_3166_293" style="mask-type:luminance" maskUnits="userSpaceOnUse" x="170" y="19" width="69" height="69">
<path d="M204.089 87.1182C185.336 87.1182 170.086 71.8567 170.086 53.0904C170.086 34.3241 185.336 19.0625 204.089 19.0625C222.841 19.0625 238.092 34.3241 238.092 53.0904C238.092 71.8567 222.841 87.1182 204.089 87.1182Z" fill="white"/>
</mask>
<g mask="url(#mask0_3166_293)">
<path d="M177.039 73.2158H231.133" stroke="#101727" stroke-miterlimit="10"/>
<path d="M184.531 83.9248H223.647" stroke="#101727" stroke-miterlimit="10"/>
<path d="M171.5 62.498H236.673" stroke="#101727" stroke-miterlimit="10"/>
<path d="M168.242 51.79H239.934" stroke="#101727" stroke-miterlimit="10"/>
</g>
<path d="M204.089 87.1182C185.336 87.1182 170.086 71.8567 170.086 53.0904C170.086 34.3241 185.336 19.0625 204.089 19.0625C222.841 19.0625 238.092 34.3241 238.092 53.0904C238.092 71.8567 222.841 87.1182 204.089 87.1182Z" stroke="#101727" stroke-miterlimit="10"/>
<path d="M210.446 7.11141C210.446 7.03374 210.456 6.95607 210.456 6.8784C210.456 3.35426 207.604 0.5 204.082 0.5C200.561 0.5 197.709 3.35426 197.709 6.8784C197.709 6.95607 197.709 7.03374 197.718 7.11141H185.883V20.6449H222.282V7.11141H210.446Z" fill="#E9BE51"/>
<path d="M210.446 7.11141C210.446 7.03374 210.456 6.95607 210.456 6.8784C210.456 3.35426 207.604 0.5 204.082 0.5C200.561 0.5 197.709 3.35426 197.709 6.8784C197.709 6.95607 197.709 7.03374 197.718 7.11141H185.883V20.6449H222.282V7.11141H210.446Z" stroke="#101727" stroke-miterlimit="10"/>
<path d="M216.592 36.2368C216.592 43.1492 210.994 48.7412 204.097 48.7412C197.199 48.7412 191.602 43.1395 191.602 36.2368C191.602 29.3342 197.199 23.7324 204.097 23.7324C210.994 23.7324 216.592 29.3342 216.592 36.2368Z" fill="#01654D"/>
<path d="M197.008 34.9166L204.536 41.1979L211.172 30.5381" stroke="white" stroke-miterlimit="10"/>
<mask id="mask1_3166_293" style="mask-type:luminance" maskUnits="userSpaceOnUse" x="0" y="176" width="79" height="54">
<path d="M78.5705 176.711H0V229.748H78.5705V176.711Z" fill="white"/>
</mask>
<g mask="url(#mask1_3166_293)">
<mask id="mask2_3166_293" style="mask-type:luminance" maskUnits="userSpaceOnUse" x="0" y="176" width="79" height="54">
<path d="M78.5705 176.711H0V229.748H78.5705V176.711Z" fill="white"/>
</mask>
<g mask="url(#mask2_3166_293)">
<path d="M14.4987 182.721C19.9702 182.721 24.4037 187.157 24.4037 192.633C24.4037 198.108 19.9702 202.545 14.4987 202.545C9.02722 202.545 4.59375 198.108 4.59375 192.633C4.59375 187.157 9.02722 182.721 14.4987 182.721Z" fill="#849465"/>
<path d="M14.4987 202.545C19.9691 202.545 24.4037 198.107 24.4037 192.633C24.4037 187.159 19.9691 182.721 14.4987 182.721C9.02836 182.721 4.59375 187.159 4.59375 192.633C4.59375 198.107 9.02836 202.545 14.4987 202.545Z" stroke="#101727" stroke-miterlimit="10"/>
<path d="M0.3125 220.894C0.3125 212.03 6.68622 206.769 14.4957 206.769C22.3052 206.769 28.679 211.972 28.679 220.894V224.554H0.3125V220.894Z" fill="#849465"/>
<path d="M0.3125 220.894C0.3125 212.03 6.68622 206.769 14.4957 206.769C22.3052 206.769 28.679 211.972 28.679 220.894V224.554H0.3125V220.894Z" stroke="#101727" stroke-miterlimit="10"/>
<path d="M39.2608 177.021C45.5181 177.021 50.5918 182.099 50.5918 188.361C50.5918 194.623 45.5181 199.7 39.2608 199.7C33.0034 199.7 27.9297 194.623 27.9297 188.361C27.9297 182.099 33.0034 177.021 39.2608 177.021Z" fill="#E9BE51"/>
<path d="M39.2608 199.7C45.5187 199.7 50.5918 194.623 50.5918 188.361C50.5918 182.098 45.5187 177.021 39.2608 177.021C33.0028 177.021 27.9297 182.098 27.9297 188.361C27.9297 194.623 33.0028 199.7 39.2608 199.7Z" stroke="#101727" stroke-miterlimit="10"/>
<path d="M64.0847 182.721C69.5562 182.721 73.9896 187.157 73.9896 192.633C73.9896 198.108 69.5562 202.545 64.0847 202.545C58.6132 202.545 54.1797 198.108 54.1797 192.633C54.1797 187.157 58.6132 182.721 64.0847 182.721Z" fill="#849465"/>
<path d="M64.0847 202.545C69.555 202.545 73.9896 198.107 73.9896 192.633C73.9896 187.159 69.555 182.721 64.0847 182.721C58.6143 182.721 54.1797 187.159 54.1797 192.633C54.1797 198.107 58.6143 202.545 64.0847 202.545Z" stroke="#101727" stroke-miterlimit="10"/>
<path d="M49.9062 220.894C49.9062 212.03 56.28 206.769 64.0895 206.769C71.899 206.769 78.2727 211.972 78.2727 220.894V224.554H49.916V220.894H49.9062Z" fill="#849465"/>
<path d="M49.9062 220.894C49.9062 212.03 56.28 206.769 64.0895 206.769C71.899 206.769 78.2727 211.972 78.2727 220.894V224.554H49.916V220.894H49.9062Z" stroke="#101727" stroke-miterlimit="10"/>
<path d="M19.1363 224.728C19.1363 211.777 28.304 204.651 39.2567 204.651C50.2095 204.651 59.3771 211.719 59.3771 224.728V229.437H19.0781V224.728H19.1363Z" fill="#E9BE51"/>
<path d="M19.1363 224.728C19.1363 211.777 28.304 204.651 39.2567 204.651C50.2095 204.651 59.3771 211.719 59.3771 224.728V229.437H19.0781V224.728H19.1363Z" stroke="#101727" stroke-miterlimit="10"/>
</g>
</g>
<mask id="mask3_3166_293" style="mask-type:luminance" maskUnits="userSpaceOnUse" x="323" y="176" width="97" height="56">
<path d="M420.002 176.713H323.445V231.769H420.002V176.713Z" fill="white"/>
</mask>
<g mask="url(#mask3_3166_293)">
<mask id="mask4_3166_293" style="mask-type:luminance" maskUnits="userSpaceOnUse" x="323" y="176" width="97" height="56">
<path d="M420.002 176.713H323.445V231.769H420.002V176.713Z" fill="white"/>
</mask>
<g mask="url(#mask4_3166_293)">
<path d="M359.538 176.927H375.802C390.955 176.927 403.263 189.486 403.263 204.95V223.028H332.086V204.95C332.086 189.486 344.394 176.927 359.547 176.927" fill="#E9BE51"/>
<path d="M359.538 176.927H375.802C390.955 176.927 403.263 189.486 403.263 204.95V223.028H332.086V204.95C332.086 189.486 344.394 176.927 359.547 176.927H359.538Z" stroke="#101727" stroke-miterlimit="10"/>
<path d="M383.209 218.677H412.303C414.962 218.677 417.118 220.88 417.118 223.588C417.118 226.296 414.962 228.5 412.303 228.5H329.471C326.812 228.5 324.656 226.296 324.656 223.588C324.656 220.88 326.812 218.677 329.471 218.677H335.508" fill="#E9BE51"/>
<path d="M383.209 218.677H412.303C414.962 218.677 417.118 220.88 417.118 223.588C417.118 226.296 414.962 228.5 412.303 228.5H329.471C326.812 228.5 324.656 226.296 324.656 223.588C324.656 220.88 326.812 218.677 329.471 218.677H335.508" stroke="#101727" stroke-miterlimit="10"/>
<path d="M371.418 176.927C382.065 176.927 394.951 185.265 394.951 205.622H386.739C386.739 189.776 374.152 176.927 358.625 176.927" stroke="#101727" stroke-miterlimit="10"/>
</g>
</g>
<mask id="mask5_3166_293" style="mask-type:luminance" maskUnits="userSpaceOnUse" x="160" y="317" width="88" height="76">
<path d="M247.932 317.5H160V392.507H247.932V317.5Z" fill="white"/>
</mask>
<g mask="url(#mask5_3166_293)">
<path d="M160.289 342.277V392.226H203.964V342.277L182.127 317.792L160.289 342.277Z" fill="#EAE2CF"/>
<mask id="mask6_3166_293" style="mask-type:luminance" maskUnits="userSpaceOnUse" x="160" y="317" width="88" height="76">
<path d="M247.932 317.5H160V392.507H247.932V317.5Z" fill="white"/>
</mask>
<g mask="url(#mask6_3166_293)">
<path d="M203.964 392.226H160.289V342.277L182.127 317.792L203.964 342.277V392.226Z" stroke="#101727" stroke-linejoin="round"/>
</g>
<path d="M182.125 317.792L203.963 342.277V392.226H247.638V342.277L225.81 317.792H182.125Z" fill="#01654D"/>
<mask id="mask7_3166_293" style="mask-type:luminance" maskUnits="userSpaceOnUse" x="160" y="317" width="88" height="76">
<path d="M247.932 317.5H160V392.507H247.932V317.5Z" fill="white"/>
</mask>
<g mask="url(#mask7_3166_293)">
<path d="M247.638 392.226H203.963V342.277L182.125 317.792H225.81L247.638 342.277V392.226Z" stroke="#101727" stroke-linejoin="round"/>
<path d="M203.961 342.276H247.636" stroke="#101727" stroke-linejoin="round"/>
</g>
<path d="M185.144 336.325H179.109V348.228H185.144V336.325Z" fill="#EAE2CF"/>
<path d="M185.144 336.325H179.109V348.228H185.144V336.325Z" stroke="#101727" stroke-miterlimit="10"/>
<path d="M185.144 356.722H179.109V368.624H185.144V356.722Z" fill="#EAE2CF"/>
<path d="M185.144 356.722H179.109V368.624H185.144V356.722Z" stroke="#101727" stroke-miterlimit="10"/>
<path d="M221.526 356.722H215.492V368.624H221.526V356.722Z" fill="#E9BE51"/>
<path d="M221.526 356.722H215.492V368.624H221.526V356.722Z" stroke="#101727" stroke-miterlimit="10"/>
<path d="M237.948 356.722H231.914V368.624H237.948V356.722Z" fill="#E9BE51"/>
<path d="M237.948 356.722H231.914V368.624H237.948V356.722Z" stroke="#101727" stroke-miterlimit="10"/>
</g>
<path d="M287.398 203.664L287.466 203.732" stroke="#01654D" stroke-miterlimit="10"/>
<path d="M387.702 300.113L387.43 300.395" stroke="#01654D" stroke-miterlimit="10"/>
<path d="M145.784 242.727H144.255C144.196 242.401 144.086 242.113 143.926 241.865C143.766 241.617 143.57 241.406 143.338 241.233C143.106 241.06 142.847 240.929 142.559 240.841C142.275 240.752 141.973 240.708 141.652 240.708C141.074 240.708 140.556 240.854 140.099 241.145C139.645 241.435 139.285 241.862 139.021 242.424C138.759 242.986 138.629 243.672 138.629 244.482C138.629 245.299 138.759 245.988 139.021 246.55C139.285 247.112 139.646 247.537 140.104 247.824C140.561 248.112 141.076 248.255 141.648 248.255C141.964 248.255 142.265 248.213 142.549 248.128C142.837 248.04 143.096 247.911 143.328 247.741C143.56 247.571 143.756 247.363 143.917 247.118C144.08 246.87 144.193 246.586 144.255 246.266L145.784 246.271C145.702 246.764 145.543 247.218 145.308 247.633C145.076 248.045 144.777 248.401 144.411 248.701C144.049 248.999 143.634 249.229 143.167 249.392C142.7 249.556 142.19 249.637 141.638 249.637C140.769 249.637 139.994 249.431 139.315 249.02C138.635 248.605 138.1 248.012 137.707 247.241C137.319 246.47 137.124 245.55 137.124 244.482C137.124 243.41 137.32 242.491 137.712 241.723C138.104 240.952 138.64 240.36 139.32 239.949C139.999 239.534 140.772 239.326 141.638 239.326C142.17 239.326 142.667 239.403 143.128 239.557C143.591 239.707 144.008 239.929 144.377 240.223C144.746 240.514 145.052 240.87 145.294 241.292C145.535 241.71 145.699 242.188 145.784 242.727ZM150.649 249.652C149.943 249.652 149.327 249.49 148.801 249.167C148.275 248.843 147.867 248.391 147.576 247.809C147.285 247.228 147.14 246.548 147.14 245.771C147.14 244.99 147.285 244.307 147.576 243.722C147.867 243.137 148.275 242.683 148.801 242.36C149.327 242.036 149.943 241.875 150.649 241.875C151.354 241.875 151.97 242.036 152.496 242.36C153.022 242.683 153.431 243.137 153.721 243.722C154.012 244.307 154.157 244.99 154.157 245.771C154.157 246.548 154.012 247.228 153.721 247.809C153.431 248.391 153.022 248.843 152.496 249.167C151.97 249.49 151.354 249.652 150.649 249.652ZM150.654 248.422C151.111 248.422 151.49 248.301 151.79 248.059C152.091 247.817 152.313 247.496 152.457 247.094C152.604 246.692 152.678 246.249 152.678 245.766C152.678 245.286 152.604 244.844 152.457 244.443C152.313 244.037 152.091 243.712 151.79 243.467C151.49 243.222 151.111 243.1 150.654 243.1C150.193 243.1 149.811 243.222 149.507 243.467C149.206 243.712 148.982 244.037 148.835 244.443C148.692 244.844 148.62 245.286 148.62 245.766C148.62 246.249 148.692 246.692 148.835 247.094C148.982 247.496 149.206 247.817 149.507 248.059C149.811 248.301 150.193 248.422 150.654 248.422ZM157.258 245.031V249.5H155.793V241.973H157.199V243.198H157.293C157.466 242.799 157.737 242.479 158.106 242.237C158.479 241.996 158.947 241.875 159.513 241.875C160.025 241.875 160.475 241.983 160.86 242.198C161.246 242.411 161.545 242.727 161.757 243.149C161.969 243.57 162.076 244.091 162.076 244.712V249.5H160.61V244.889C160.61 244.343 160.468 243.917 160.184 243.61C159.9 243.299 159.509 243.144 159.013 243.144C158.673 243.144 158.371 243.217 158.106 243.364C157.845 243.512 157.637 243.727 157.484 244.011C157.333 244.292 157.258 244.632 157.258 245.031ZM165.506 245.031V249.5H164.041V241.973H165.447V243.198H165.54C165.713 242.799 165.985 242.479 166.354 242.237C166.726 241.996 167.195 241.875 167.76 241.875C168.273 241.875 168.722 241.983 169.108 242.198C169.493 242.411 169.792 242.727 170.005 243.149C170.217 243.57 170.323 244.091 170.323 244.712V249.5H168.858V244.889C168.858 244.343 168.716 243.917 168.432 243.61C168.147 243.299 167.757 243.144 167.26 243.144C166.921 243.144 166.618 243.217 166.354 243.364C166.092 243.512 165.885 243.727 165.731 244.011C165.581 244.292 165.506 244.632 165.506 245.031ZM175.533 249.652C174.791 249.652 174.152 249.493 173.616 249.177C173.084 248.856 172.672 248.407 172.381 247.829C172.094 247.247 171.95 246.566 171.95 245.785C171.95 245.014 172.094 244.335 172.381 243.747C172.672 243.159 173.077 242.7 173.597 242.37C174.12 242.04 174.73 241.875 175.43 241.875C175.854 241.875 176.266 241.945 176.665 242.085C177.063 242.226 177.421 242.446 177.738 242.747C178.055 243.048 178.305 243.438 178.488 243.918C178.671 244.395 178.762 244.975 178.762 245.658V246.177H172.778V245.08H177.326C177.326 244.694 177.248 244.353 177.091 244.055C176.934 243.755 176.714 243.518 176.429 243.345C176.148 243.172 175.818 243.085 175.439 243.085C175.028 243.085 174.668 243.186 174.361 243.389C174.057 243.588 173.822 243.85 173.656 244.173C173.492 244.493 173.411 244.841 173.411 245.217V246.075C173.411 246.578 173.499 247.006 173.675 247.358C173.855 247.711 174.105 247.981 174.425 248.167C174.745 248.35 175.119 248.441 175.547 248.441C175.825 248.441 176.078 248.402 176.307 248.324C176.536 248.242 176.733 248.121 176.9 247.961C177.066 247.801 177.194 247.603 177.282 247.368L178.669 247.618C178.558 248.027 178.359 248.384 178.071 248.691C177.787 248.995 177.429 249.232 176.998 249.402C176.57 249.569 176.081 249.652 175.533 249.652ZM183.558 249.652C182.83 249.652 182.203 249.487 181.677 249.157C181.154 248.824 180.752 248.365 180.471 247.78C180.19 247.195 180.05 246.525 180.05 245.771C180.05 245.006 180.193 244.332 180.481 243.747C180.768 243.159 181.173 242.7 181.696 242.37C182.219 242.04 182.835 241.875 183.544 241.875C184.115 241.875 184.625 241.981 185.073 242.193C185.52 242.402 185.881 242.696 186.156 243.075C186.433 243.454 186.598 243.897 186.651 244.403H185.225C185.146 244.051 184.967 243.747 184.686 243.492C184.408 243.237 184.035 243.11 183.568 243.11C183.16 243.11 182.802 243.217 182.495 243.433C182.191 243.645 181.954 243.949 181.784 244.345C181.615 244.737 181.53 245.201 181.53 245.736C181.53 246.285 181.613 246.759 181.78 247.158C181.946 247.556 182.181 247.865 182.485 248.084C182.792 248.303 183.153 248.412 183.568 248.412C183.846 248.412 184.097 248.361 184.323 248.26C184.552 248.156 184.743 248.007 184.896 247.814C185.053 247.621 185.163 247.389 185.225 247.118H186.651C186.598 247.605 186.44 248.04 186.175 248.422C185.911 248.804 185.556 249.105 185.112 249.324C184.671 249.542 184.153 249.652 183.558 249.652ZM191.731 241.973V243.149H187.62V241.973H191.731ZM188.722 240.169H190.188V247.29C190.188 247.574 190.23 247.788 190.315 247.932C190.4 248.072 190.509 248.169 190.643 248.221C190.781 248.27 190.929 248.294 191.089 248.294C191.207 248.294 191.31 248.286 191.398 248.27C191.486 248.254 191.555 248.241 191.604 248.231L191.869 249.441C191.784 249.474 191.663 249.507 191.506 249.539C191.349 249.575 191.153 249.595 190.918 249.598C190.532 249.605 190.173 249.536 189.84 249.392C189.506 249.248 189.237 249.026 189.031 248.726C188.825 248.425 188.722 248.048 188.722 247.594V240.169ZM196.516 249.652C195.774 249.652 195.135 249.493 194.599 249.177C194.067 248.856 193.655 248.407 193.364 247.829C193.077 247.247 192.933 246.566 192.933 245.785C192.933 245.014 193.077 244.335 193.364 243.747C193.655 243.159 194.06 242.7 194.58 242.37C195.103 242.04 195.713 241.875 196.413 241.875C196.837 241.875 197.249 241.945 197.648 242.085C198.046 242.226 198.404 242.446 198.721 242.747C199.038 243.048 199.288 243.438 199.471 243.918C199.654 244.395 199.745 244.975 199.745 245.658V246.177H193.761V245.08H198.309C198.309 244.694 198.231 244.353 198.074 244.055C197.917 243.755 197.697 243.518 197.412 243.345C197.131 243.172 196.801 243.085 196.422 243.085C196.011 243.085 195.651 243.186 195.344 243.389C195.04 243.588 194.805 243.85 194.639 244.173C194.475 244.493 194.394 244.841 194.394 245.217V246.075C194.394 246.578 194.482 247.006 194.658 247.358C194.838 247.711 195.088 247.981 195.408 248.167C195.728 248.35 196.102 248.441 196.53 248.441C196.808 248.441 197.061 248.402 197.29 248.324C197.519 248.242 197.716 248.121 197.883 247.961C198.049 247.801 198.177 247.603 198.265 247.368L199.652 247.618C199.541 248.027 199.342 248.384 199.054 248.691C198.77 248.995 198.412 249.232 197.981 249.402C197.553 249.569 197.064 249.652 196.516 249.652ZM204.189 249.647C203.581 249.647 203.039 249.492 202.562 249.181C202.088 248.868 201.715 248.422 201.444 247.844C201.176 247.262 201.042 246.565 201.042 245.751C201.042 244.938 201.178 244.242 201.449 243.663C201.724 243.085 202.099 242.642 202.576 242.335C203.053 242.028 203.594 241.875 204.198 241.875C204.666 241.875 205.041 241.953 205.326 242.11C205.613 242.263 205.835 242.443 205.992 242.649C206.152 242.855 206.276 243.036 206.364 243.193H206.453V239.464H207.918V249.5H206.487V248.329H206.364C206.276 248.489 206.149 248.672 205.982 248.878C205.819 249.083 205.593 249.263 205.306 249.417C205.018 249.57 204.646 249.647 204.189 249.647ZM204.512 248.397C204.933 248.397 205.29 248.286 205.58 248.064C205.874 247.839 206.097 247.527 206.247 247.128C206.4 246.73 206.477 246.266 206.477 245.736C206.477 245.214 206.402 244.756 206.252 244.364C206.101 243.972 205.881 243.667 205.59 243.448C205.299 243.229 204.94 243.119 204.512 243.119C204.071 243.119 203.703 243.234 203.409 243.462C203.115 243.691 202.893 244.003 202.743 244.399C202.596 244.794 202.522 245.24 202.522 245.736C202.522 246.239 202.598 246.692 202.748 247.094C202.898 247.496 203.12 247.814 203.414 248.049C203.712 248.281 204.078 248.397 204.512 248.397ZM217.028 249.5H213.779V239.464H217.131C218.114 239.464 218.959 239.665 219.665 240.066C220.37 240.465 220.911 241.038 221.287 241.787C221.666 242.531 221.855 243.425 221.855 244.467C221.855 245.513 221.664 246.411 221.282 247.162C220.903 247.914 220.354 248.492 219.635 248.897C218.916 249.299 218.047 249.5 217.028 249.5ZM215.293 248.177H216.945C217.709 248.177 218.345 248.033 218.851 247.746C219.357 247.455 219.736 247.035 219.988 246.486C220.24 245.934 220.365 245.261 220.365 244.467C220.365 243.68 220.24 243.012 219.988 242.463C219.74 241.914 219.369 241.497 218.876 241.213C218.382 240.929 217.77 240.787 217.038 240.787H215.293V248.177ZM225.811 249.667C225.334 249.667 224.903 249.578 224.517 249.402C224.132 249.222 223.826 248.963 223.601 248.623C223.379 248.283 223.268 247.866 223.268 247.373C223.268 246.948 223.349 246.599 223.513 246.324C223.676 246.05 223.897 245.833 224.174 245.673C224.452 245.513 224.762 245.392 225.105 245.31C225.448 245.228 225.798 245.166 226.154 245.124C226.605 245.072 226.971 245.029 227.252 244.996C227.533 244.96 227.737 244.903 227.864 244.825C227.992 244.746 228.056 244.619 228.056 244.443V244.408C228.056 243.98 227.935 243.649 227.693 243.413C227.454 243.178 227.098 243.061 226.625 243.061C226.131 243.061 225.743 243.17 225.458 243.389C225.177 243.605 224.983 243.845 224.875 244.109L223.498 243.796C223.661 243.338 223.9 242.969 224.214 242.688C224.53 242.404 224.895 242.198 225.306 242.071C225.718 241.94 226.151 241.875 226.605 241.875C226.906 241.875 227.224 241.911 227.561 241.983C227.9 242.051 228.217 242.179 228.511 242.365C228.809 242.551 229.052 242.817 229.242 243.164C229.431 243.507 229.526 243.953 229.526 244.501V249.5H228.095V248.471H228.036C227.941 248.66 227.799 248.847 227.61 249.03C227.42 249.212 227.177 249.364 226.879 249.485C226.582 249.606 226.226 249.667 225.811 249.667ZM226.13 248.49C226.535 248.49 226.881 248.41 227.169 248.25C227.459 248.09 227.68 247.881 227.83 247.623C227.984 247.362 228.06 247.082 228.06 246.785V245.815C228.008 245.867 227.907 245.916 227.757 245.962C227.61 246.004 227.441 246.042 227.252 246.075C227.062 246.104 226.878 246.132 226.698 246.158C226.518 246.181 226.368 246.2 226.247 246.217C225.963 246.253 225.703 246.313 225.468 246.398C225.236 246.483 225.05 246.605 224.909 246.765C224.772 246.922 224.704 247.131 224.704 247.393C224.704 247.755 224.838 248.03 225.105 248.216C225.373 248.399 225.715 248.49 226.13 248.49ZM234.991 241.973V243.149H230.88V241.973H234.991ZM231.982 240.169H233.447V247.29C233.447 247.574 233.49 247.788 233.575 247.932C233.66 248.072 233.769 248.169 233.903 248.221C234.04 248.27 234.189 248.294 234.349 248.294C234.467 248.294 234.57 248.286 234.658 248.27C234.746 248.254 234.815 248.241 234.864 248.231L235.128 249.441C235.043 249.474 234.923 249.507 234.766 249.539C234.609 249.575 234.413 249.595 234.178 249.598C233.792 249.605 233.433 249.536 233.1 249.392C232.766 249.248 232.497 249.026 232.291 248.726C232.085 248.425 231.982 248.048 231.982 247.594V240.169ZM238.803 249.667C238.326 249.667 237.894 249.578 237.509 249.402C237.123 249.222 236.818 248.963 236.592 248.623C236.37 248.283 236.259 247.866 236.259 247.373C236.259 246.948 236.341 246.599 236.504 246.324C236.668 246.05 236.888 245.833 237.166 245.673C237.443 245.513 237.754 245.392 238.097 245.31C238.44 245.228 238.789 245.166 239.146 245.124C239.596 245.072 239.962 245.029 240.243 244.996C240.524 244.96 240.728 244.903 240.856 244.825C240.983 244.746 241.047 244.619 241.047 244.443V244.408C241.047 243.98 240.926 243.649 240.684 243.413C240.446 243.178 240.09 243.061 239.616 243.061C239.123 243.061 238.734 243.17 238.45 243.389C238.169 243.605 237.974 243.845 237.867 244.109L236.489 243.796C236.653 243.338 236.891 242.969 237.205 242.688C237.522 242.404 237.886 242.198 238.298 242.071C238.709 241.94 239.142 241.875 239.596 241.875C239.897 241.875 240.216 241.911 240.552 241.983C240.892 242.051 241.209 242.179 241.503 242.365C241.8 242.551 242.043 242.817 242.233 243.164C242.422 243.507 242.517 243.953 242.517 244.501V249.5H241.086V248.471H241.027C240.933 248.66 240.791 248.847 240.601 249.03C240.412 249.212 240.168 249.364 239.871 249.485C239.574 249.606 239.217 249.667 238.803 249.667ZM239.121 248.49C239.526 248.49 239.872 248.41 240.16 248.25C240.451 248.09 240.671 247.881 240.822 247.623C240.975 247.362 241.052 247.082 241.052 246.785V245.815C241 245.867 240.898 245.916 240.748 245.962C240.601 246.004 240.433 246.042 240.243 246.075C240.054 246.104 239.869 246.132 239.69 246.158C239.51 246.181 239.36 246.2 239.239 246.217C238.954 246.253 238.695 246.313 238.459 246.398C238.228 246.483 238.041 246.605 237.901 246.765C237.764 246.922 237.695 247.131 237.695 247.393C237.695 247.755 237.829 248.03 238.097 248.216C238.365 248.399 238.706 248.49 239.121 248.49ZM250.109 243.81L248.781 244.046C248.726 243.876 248.638 243.714 248.517 243.561C248.399 243.407 248.239 243.281 248.036 243.183C247.834 243.085 247.581 243.036 247.277 243.036C246.862 243.036 246.516 243.129 246.238 243.315C245.96 243.498 245.821 243.735 245.821 244.026C245.821 244.278 245.914 244.48 246.101 244.634C246.287 244.787 246.587 244.913 247.002 245.011L248.198 245.286C248.891 245.446 249.407 245.692 249.747 246.025C250.087 246.359 250.256 246.792 250.256 247.324C250.256 247.775 250.126 248.177 249.864 248.53C249.606 248.879 249.245 249.154 248.781 249.353C248.321 249.552 247.787 249.652 247.179 249.652C246.336 249.652 245.648 249.472 245.116 249.113C244.583 248.75 244.256 248.236 244.136 247.569L245.552 247.354C245.64 247.723 245.821 248.002 246.096 248.192C246.37 248.378 246.728 248.471 247.169 248.471C247.649 248.471 248.033 248.371 248.321 248.172C248.608 247.969 248.752 247.723 248.752 247.432C248.752 247.197 248.664 246.999 248.487 246.839C248.314 246.679 248.048 246.558 247.688 246.476L246.414 246.197C245.712 246.037 245.192 245.782 244.856 245.433C244.523 245.083 244.356 244.64 244.356 244.104C244.356 243.66 244.48 243.271 244.729 242.938C244.977 242.605 245.32 242.345 245.758 242.159C246.195 241.969 246.697 241.875 247.262 241.875C248.076 241.875 248.716 242.051 249.183 242.404C249.65 242.754 249.959 243.222 250.109 243.81ZM255.112 249.652C254.37 249.652 253.731 249.493 253.196 249.177C252.663 248.856 252.251 248.407 251.961 247.829C251.673 247.247 251.529 246.566 251.529 245.785C251.529 245.014 251.673 244.335 251.961 243.747C252.251 243.159 252.656 242.7 253.176 242.37C253.699 242.04 254.31 241.875 255.009 241.875C255.433 241.875 255.845 241.945 256.244 242.085C256.642 242.226 257 242.446 257.317 242.747C257.634 243.048 257.884 243.438 258.067 243.918C258.25 244.395 258.341 244.975 258.341 245.658V246.177H252.358V245.08H256.905C256.905 244.694 256.827 244.353 256.67 244.055C256.513 243.755 256.293 243.518 256.008 243.345C255.727 243.172 255.397 243.085 255.019 243.085C254.607 243.085 254.247 243.186 253.94 243.389C253.637 243.588 253.401 243.85 253.235 244.173C253.071 244.493 252.99 244.841 252.99 245.217V246.075C252.99 246.578 253.078 247.006 253.254 247.358C253.434 247.711 253.684 247.981 254.004 248.167C254.324 248.35 254.698 248.441 255.126 248.441C255.404 248.441 255.657 248.402 255.886 248.324C256.115 248.242 256.312 248.121 256.479 247.961C256.646 247.801 256.773 247.603 256.861 247.368L258.248 247.618C258.137 248.027 257.938 248.384 257.65 248.691C257.366 248.995 257.008 249.232 256.577 249.402C256.149 249.569 255.66 249.652 255.112 249.652ZM263.481 241.973V243.149H259.369V241.973H263.481ZM260.472 240.169H261.937V247.29C261.937 247.574 261.979 247.788 262.064 247.932C262.149 248.072 262.259 248.169 262.393 248.221C262.53 248.27 262.679 248.294 262.839 248.294C262.956 248.294 263.059 248.286 263.147 248.27C263.236 248.254 263.304 248.241 263.353 248.231L263.618 249.441C263.533 249.474 263.412 249.507 263.255 249.539C263.098 249.575 262.902 249.595 262.667 249.598C262.282 249.605 261.922 249.536 261.589 249.392C261.256 249.248 260.986 249.026 260.78 248.726C260.575 248.425 260.472 248.048 260.472 247.594V240.169ZM270.621 243.81L269.293 244.046C269.237 243.876 269.149 243.714 269.028 243.561C268.91 243.407 268.75 243.281 268.548 243.183C268.345 243.085 268.092 243.036 267.788 243.036C267.373 243.036 267.027 243.129 266.749 243.315C266.472 243.498 266.333 243.735 266.333 244.026C266.333 244.278 266.426 244.48 266.612 244.634C266.798 244.787 267.099 244.913 267.514 245.011L268.709 245.286C269.402 245.446 269.918 245.692 270.258 246.025C270.598 246.359 270.768 246.792 270.768 247.324C270.768 247.775 270.637 248.177 270.376 248.53C270.118 248.879 269.757 249.154 269.293 249.353C268.832 249.552 268.298 249.652 267.69 249.652C266.847 249.652 266.16 249.472 265.627 249.113C265.094 248.75 264.768 248.236 264.647 247.569L266.063 247.354C266.151 247.723 266.333 248.002 266.607 248.192C266.882 248.378 267.239 248.471 267.68 248.471C268.161 248.471 268.544 248.371 268.832 248.172C269.119 247.969 269.263 247.723 269.263 247.432C269.263 247.197 269.175 246.999 268.999 246.839C268.825 246.679 268.559 246.558 268.2 246.476L266.926 246.197C266.223 246.037 265.704 245.782 265.367 245.433C265.034 245.083 264.867 244.64 264.867 244.104C264.867 243.66 264.992 243.271 265.24 242.938C265.488 242.605 265.831 242.345 266.269 242.159C266.707 241.969 267.208 241.875 267.773 241.875C268.587 241.875 269.227 242.051 269.694 242.404C270.162 242.754 270.47 243.222 270.621 243.81Z" fill="#01654D"/>
<path d="M341.526 242.727H339.997C339.939 242.401 339.829 242.113 339.669 241.865C339.509 241.617 339.313 241.406 339.081 241.233C338.849 241.06 338.589 240.929 338.302 240.841C338.017 240.752 337.715 240.708 337.395 240.708C336.817 240.708 336.299 240.854 335.842 241.145C335.388 241.435 335.028 241.862 334.764 242.424C334.502 242.986 334.371 243.672 334.371 244.482C334.371 245.299 334.502 245.988 334.764 246.55C335.028 247.112 335.389 247.537 335.847 247.824C336.304 248.112 336.818 248.255 337.39 248.255C337.707 248.255 338.008 248.213 338.292 248.128C338.579 248.04 338.839 247.911 339.071 247.741C339.303 247.571 339.499 247.363 339.659 247.118C339.823 246.87 339.935 246.586 339.997 246.266L341.526 246.271C341.445 246.764 341.286 247.218 341.051 247.633C340.819 248.045 340.52 248.401 340.154 248.701C339.791 248.999 339.377 249.229 338.909 249.392C338.442 249.556 337.933 249.637 337.38 249.637C336.511 249.637 335.737 249.431 335.058 249.02C334.378 248.605 333.842 248.012 333.45 247.241C333.061 246.47 332.867 245.55 332.867 244.482C332.867 243.41 333.063 242.491 333.455 241.723C333.847 240.952 334.383 240.36 335.062 239.949C335.742 239.534 336.515 239.326 337.38 239.326C337.913 239.326 338.41 239.403 338.87 239.557C339.334 239.707 339.751 239.929 340.12 240.223C340.489 240.514 340.794 240.87 341.036 241.292C341.278 241.71 341.441 242.188 341.526 242.727ZM346.391 249.652C345.686 249.652 345.07 249.49 344.544 249.167C344.018 248.843 343.609 248.391 343.319 247.809C343.028 247.228 342.883 246.548 342.883 245.771C342.883 244.99 343.028 244.307 343.319 243.722C343.609 243.137 344.018 242.683 344.544 242.36C345.07 242.036 345.686 241.875 346.391 241.875C347.097 241.875 347.713 242.036 348.239 242.36C348.765 242.683 349.173 243.137 349.464 243.722C349.755 244.307 349.9 244.99 349.9 245.771C349.9 246.548 349.755 247.228 349.464 247.809C349.173 248.391 348.765 248.843 348.239 249.167C347.713 249.49 347.097 249.652 346.391 249.652ZM346.396 248.422C346.854 248.422 347.233 248.301 347.533 248.059C347.834 247.817 348.056 247.496 348.2 247.094C348.347 246.692 348.42 246.249 348.42 245.766C348.42 245.286 348.347 244.844 348.2 244.443C348.056 244.037 347.834 243.712 347.533 243.467C347.233 243.222 346.854 243.1 346.396 243.1C345.936 243.1 345.553 243.222 345.249 243.467C344.949 243.712 344.725 244.037 344.578 244.443C344.434 244.844 344.362 245.286 344.362 245.766C344.362 246.249 344.434 246.692 344.578 247.094C344.725 247.496 344.949 247.817 345.249 248.059C345.553 248.301 345.936 248.422 346.396 248.422ZM353.001 245.031V249.5H351.536V241.973H352.942V243.198H353.035C353.208 242.799 353.48 242.479 353.849 242.237C354.221 241.996 354.69 241.875 355.255 241.875C355.768 241.875 356.217 241.983 356.603 242.198C356.988 242.411 357.287 242.727 357.5 243.149C357.712 243.57 357.818 244.091 357.818 244.712V249.5H356.353V244.889C356.353 244.343 356.211 243.917 355.927 243.61C355.642 243.299 355.252 243.144 354.755 243.144C354.416 243.144 354.113 243.217 353.849 243.364C353.587 243.512 353.38 243.727 353.226 244.011C353.076 244.292 353.001 244.632 353.001 245.031ZM363.297 241.973V243.149H359.185V241.973H363.297ZM360.288 240.169H361.753V247.29C361.753 247.574 361.796 247.788 361.881 247.932C361.966 248.072 362.075 248.169 362.209 248.221C362.346 248.27 362.495 248.294 362.655 248.294C362.773 248.294 362.876 248.286 362.964 248.27C363.052 248.254 363.121 248.241 363.17 248.231L363.434 249.441C363.349 249.474 363.228 249.507 363.072 249.539C362.915 249.575 362.719 249.595 362.484 249.598C362.098 249.605 361.739 249.536 361.405 249.392C361.072 249.248 360.803 249.026 360.597 248.726C360.391 248.425 360.288 248.048 360.288 247.594V240.169ZM364.918 249.5V241.973H366.334V243.168H366.413C366.55 242.763 366.792 242.445 367.138 242.213C367.487 241.978 367.883 241.86 368.324 241.86C368.415 241.86 368.523 241.863 368.647 241.87C368.775 241.876 368.874 241.885 368.946 241.894V243.296C368.887 243.28 368.783 243.262 368.633 243.242C368.482 243.219 368.332 243.208 368.182 243.208C367.835 243.208 367.527 243.281 367.255 243.428C366.988 243.572 366.775 243.773 366.618 244.031C366.462 244.286 366.383 244.577 366.383 244.903V249.5H364.918ZM372.337 249.667C371.86 249.667 371.429 249.578 371.044 249.402C370.658 249.222 370.353 248.963 370.127 248.623C369.905 248.283 369.794 247.866 369.794 247.373C369.794 246.948 369.876 246.599 370.039 246.324C370.202 246.05 370.423 245.833 370.701 245.673C370.978 245.513 371.289 245.392 371.632 245.31C371.975 245.228 372.324 245.166 372.68 245.124C373.131 245.072 373.497 245.029 373.778 244.996C374.059 244.96 374.263 244.903 374.391 244.825C374.518 244.746 374.582 244.619 374.582 244.443V244.408C374.582 243.98 374.461 243.649 374.219 243.413C373.981 243.178 373.625 243.061 373.151 243.061C372.658 243.061 372.269 243.17 371.985 243.389C371.704 243.605 371.509 243.845 371.401 244.109L370.024 243.796C370.188 243.338 370.426 242.969 370.74 242.688C371.057 242.404 371.421 242.198 371.833 242.071C372.244 241.94 372.677 241.875 373.131 241.875C373.432 241.875 373.75 241.911 374.087 241.983C374.427 242.051 374.744 242.179 375.038 242.365C375.335 242.551 375.578 242.817 375.768 243.164C375.957 243.507 376.052 243.953 376.052 244.501V249.5H374.621V248.471H374.562C374.467 248.66 374.325 248.847 374.136 249.03C373.946 249.212 373.703 249.364 373.406 249.485C373.108 249.606 372.752 249.667 372.337 249.667ZM372.656 248.49C373.061 248.49 373.407 248.41 373.695 248.25C373.986 248.09 374.206 247.881 374.356 247.623C374.51 247.362 374.587 247.082 374.587 246.785V245.815C374.534 245.867 374.433 245.916 374.283 245.962C374.136 246.004 373.968 246.042 373.778 246.075C373.589 246.104 373.404 246.132 373.224 246.158C373.045 246.181 372.894 246.2 372.774 246.217C372.489 246.253 372.23 246.313 371.994 246.398C371.762 246.483 371.576 246.605 371.436 246.765C371.298 246.922 371.23 247.131 371.23 247.393C371.23 247.755 371.364 248.03 371.632 248.216C371.9 248.399 372.241 248.49 372.656 248.49ZM381.174 249.652C380.446 249.652 379.819 249.487 379.293 249.157C378.77 248.824 378.368 248.365 378.087 247.78C377.806 247.195 377.666 246.525 377.666 245.771C377.666 245.006 377.809 244.332 378.097 243.747C378.384 243.159 378.789 242.7 379.312 242.37C379.835 242.04 380.451 241.875 381.16 241.875C381.731 241.875 382.241 241.981 382.689 242.193C383.136 242.402 383.497 242.696 383.772 243.075C384.049 243.454 384.214 243.897 384.267 244.403H382.841C382.762 244.051 382.582 243.747 382.301 243.492C382.024 243.237 381.651 243.11 381.184 243.11C380.776 243.11 380.418 243.217 380.111 243.433C379.807 243.645 379.57 243.949 379.4 244.345C379.23 244.737 379.146 245.201 379.146 245.736C379.146 246.285 379.229 246.759 379.395 247.158C379.562 247.556 379.797 247.865 380.101 248.084C380.408 248.303 380.769 248.412 381.184 248.412C381.462 248.412 381.713 248.361 381.939 248.26C382.168 248.156 382.359 248.007 382.512 247.814C382.669 247.621 382.778 247.389 382.841 247.118H384.267C384.214 247.605 384.056 248.04 383.791 248.422C383.527 248.804 383.172 249.105 382.728 249.324C382.287 249.542 381.769 249.652 381.174 249.652ZM389.347 241.973V243.149H385.236V241.973H389.347ZM386.338 240.169H387.804V247.29C387.804 247.574 387.846 247.788 387.931 247.932C388.016 248.072 388.125 248.169 388.259 248.221C388.397 248.27 388.545 248.294 388.705 248.294C388.823 248.294 388.926 248.286 389.014 248.27C389.102 248.254 389.171 248.241 389.22 248.231L389.484 249.441C389.4 249.474 389.279 249.507 389.122 249.539C388.965 249.575 388.769 249.595 388.534 249.598C388.148 249.605 387.789 249.536 387.456 249.392C387.122 249.248 386.853 249.026 386.647 248.726C386.441 248.425 386.338 248.048 386.338 247.594V240.169ZM394.058 249.652C393.352 249.652 392.736 249.49 392.21 249.167C391.684 248.843 391.276 248.391 390.985 247.809C390.695 247.228 390.549 246.548 390.549 245.771C390.549 244.99 390.695 244.307 390.985 243.722C391.276 243.137 391.684 242.683 392.21 242.36C392.736 242.036 393.352 241.875 394.058 241.875C394.764 241.875 395.379 242.036 395.905 242.36C396.431 242.683 396.84 243.137 397.131 243.722C397.421 244.307 397.567 244.99 397.567 245.771C397.567 246.548 397.421 247.228 397.131 247.809C396.84 248.391 396.431 248.843 395.905 249.167C395.379 249.49 394.764 249.652 394.058 249.652ZM394.063 248.422C394.52 248.422 394.899 248.301 395.2 248.059C395.5 247.817 395.722 247.496 395.866 247.094C396.013 246.692 396.087 246.249 396.087 245.766C396.087 245.286 396.013 244.844 395.866 244.443C395.722 244.037 395.5 243.712 395.2 243.467C394.899 243.222 394.52 243.1 394.063 243.1C393.602 243.1 393.22 243.222 392.916 243.467C392.616 243.712 392.392 244.037 392.245 244.443C392.101 244.844 392.029 245.286 392.029 245.766C392.029 246.249 392.101 246.692 392.245 247.094C392.392 247.496 392.616 247.817 392.916 248.059C393.22 248.301 393.602 248.422 394.063 248.422ZM399.202 249.5V241.973H400.619V243.168H400.697C400.834 242.763 401.076 242.445 401.422 242.213C401.772 241.978 402.167 241.86 402.608 241.86C402.7 241.86 402.807 241.863 402.932 241.87C403.059 241.876 403.159 241.885 403.231 241.894V243.296C403.172 243.28 403.067 243.262 402.917 243.242C402.767 243.219 402.616 243.208 402.466 243.208C402.12 243.208 401.811 243.281 401.54 243.428C401.272 243.572 401.06 243.773 400.903 244.031C400.746 244.286 400.668 244.577 400.668 244.903V249.5H399.202ZM410.139 243.81L408.811 244.046C408.756 243.876 408.667 243.714 408.546 243.561C408.429 243.407 408.269 243.281 408.066 243.183C407.864 243.085 407.61 243.036 407.307 243.036C406.892 243.036 406.545 243.129 406.268 243.315C405.99 243.498 405.851 243.735 405.851 244.026C405.851 244.278 405.944 244.48 406.13 244.634C406.317 244.787 406.617 244.913 407.032 245.011L408.228 245.286C408.921 245.446 409.437 245.692 409.776 246.025C410.116 246.359 410.286 246.792 410.286 247.324C410.286 247.775 410.155 248.177 409.894 248.53C409.636 248.879 409.275 249.154 408.811 249.353C408.35 249.552 407.816 249.652 407.209 249.652C406.366 249.652 405.678 249.472 405.145 249.113C404.613 248.75 404.286 248.236 404.165 247.569L405.582 247.354C405.67 247.723 405.851 248.002 406.126 248.192C406.4 248.378 406.758 248.471 407.199 248.471C407.679 248.471 408.063 248.371 408.35 248.172C408.638 247.969 408.782 247.723 408.782 247.432C408.782 247.197 408.693 246.999 408.517 246.839C408.344 246.679 408.078 246.558 407.718 246.476L406.444 246.197C405.742 246.037 405.222 245.782 404.886 245.433C404.552 245.083 404.386 244.64 404.386 244.104C404.386 243.66 404.51 243.271 404.758 242.938C405.007 242.605 405.35 242.345 405.787 242.159C406.225 241.969 406.727 241.875 407.292 241.875C408.105 241.875 408.746 242.051 409.213 242.404C409.68 242.754 409.989 243.222 410.139 243.81Z" fill="#01654D"/>
<path d="M7.53652 249.5V239.464H11.1139C11.8915 239.464 12.5367 239.598 13.0497 239.865C13.5658 240.133 13.9514 240.504 14.2062 240.978C14.461 241.448 14.5884 241.992 14.5884 242.61C14.5884 243.224 14.4594 243.765 14.2013 244.232C13.9465 244.696 13.5609 245.057 13.0448 245.315C12.5318 245.573 11.8866 245.702 11.109 245.702H8.39902V244.399H10.9718C11.4619 244.399 11.8605 244.328 12.1676 244.188C12.4779 244.047 12.705 243.843 12.8487 243.575C12.9925 243.307 13.0644 242.986 13.0644 242.61C13.0644 242.231 12.9908 241.902 12.8438 241.625C12.7001 241.347 12.473 241.135 12.1627 240.988C11.8555 240.837 11.4521 240.762 10.9522 240.762H9.05079V249.5H7.53652ZM12.491 244.972L14.9707 249.5H13.2457L10.815 244.972H12.491ZM19.4633 249.652C18.7217 249.652 18.0829 249.493 17.5472 249.177C17.0146 248.856 16.603 248.407 16.3122 247.829C16.0247 247.247 15.881 246.566 15.881 245.785C15.881 245.014 16.0247 244.335 16.3122 243.747C16.603 243.159 17.0081 242.7 17.5275 242.37C18.0503 242.04 18.6612 241.875 19.3604 241.875C19.7851 241.875 20.1967 241.945 20.5953 242.085C20.9939 242.226 21.3516 242.446 21.6685 242.747C21.9854 243.048 22.2354 243.438 22.4183 243.918C22.6013 244.395 22.6927 244.975 22.6927 245.658V246.177H16.7092V245.08H21.2569C21.2569 244.694 21.1785 244.353 21.0217 244.055C20.8648 243.755 20.6443 243.518 20.3601 243.345C20.0791 243.172 19.7491 243.085 19.3702 243.085C18.9585 243.085 18.5991 243.186 18.292 243.389C17.9882 243.588 17.753 243.85 17.5864 244.173C17.423 244.493 17.3413 244.841 17.3413 245.217V246.075C17.3413 246.578 17.4295 247.006 17.606 247.358C17.7856 247.711 18.0356 247.981 18.3557 248.167C18.6759 248.35 19.05 248.441 19.478 248.441C19.7557 248.441 20.0089 248.402 20.2376 248.324C20.4663 248.242 20.6639 248.121 20.8305 247.961C20.9972 247.801 21.1246 247.603 21.2128 247.368L22.5996 247.618C22.4886 248.027 22.2893 248.384 22.0018 248.691C21.7175 248.995 21.3598 249.232 20.9285 249.402C20.5006 249.569 20.0121 249.652 19.4633 249.652ZM29.9591 243.81L28.631 244.046C28.5755 243.876 28.4873 243.714 28.3664 243.561C28.2488 243.407 28.0887 243.281 27.8861 243.183C27.6836 243.085 27.4304 243.036 27.1265 243.036C26.7116 243.036 26.3653 243.129 26.0876 243.315C25.8099 243.498 25.6711 243.735 25.6711 244.026C25.6711 244.278 25.7642 244.48 25.9504 244.634C26.1366 244.787 26.4372 244.913 26.8521 245.011L28.0478 245.286C28.7405 245.446 29.2566 245.692 29.5964 246.025C29.9362 246.359 30.1061 246.792 30.1061 247.324C30.1061 247.775 29.9754 248.177 29.714 248.53C29.4559 248.879 29.0949 249.154 28.631 249.353C28.1704 249.552 27.6362 249.652 27.0285 249.652C26.1856 249.652 25.4979 249.472 24.9654 249.113C24.4329 248.75 24.1062 248.236 23.9853 247.569L25.4015 247.354C25.4897 247.723 25.6711 248.002 25.9455 248.192C26.2199 248.378 26.5777 248.471 27.0187 248.471C27.499 248.471 27.8829 248.371 28.1704 248.172C28.4579 247.969 28.6016 247.723 28.6016 247.432C28.6016 247.197 28.5134 246.999 28.337 246.839C28.1638 246.679 27.8976 246.558 27.5382 246.476L26.264 246.197C25.5616 246.037 25.0422 245.782 24.7057 245.433C24.3724 245.083 24.2058 244.64 24.2058 244.104C24.2058 243.66 24.3299 243.271 24.5782 242.938C24.8265 242.605 25.1696 242.345 25.6074 242.159C26.0451 241.969 26.5466 241.875 27.1118 241.875C27.9253 241.875 28.5657 242.051 29.0329 242.404C29.5 242.754 29.8088 243.222 29.9591 243.81ZM31.7171 249.5V241.973H33.1824V249.5H31.7171ZM32.4571 240.811C32.2023 240.811 31.9834 240.726 31.8005 240.556C31.6208 240.383 31.5309 240.177 31.5309 239.939C31.5309 239.697 31.6208 239.491 31.8005 239.322C31.9834 239.148 32.2023 239.062 32.4571 239.062C32.712 239.062 32.9292 239.148 33.1089 239.322C33.2919 239.491 33.3833 239.697 33.3833 239.939C33.3833 240.177 33.2919 240.383 33.1089 240.556C32.9292 240.726 32.712 240.811 32.4571 240.811ZM37.9715 249.647C37.3638 249.647 36.8215 249.492 36.3445 249.181C35.8708 248.868 35.4983 248.422 35.2272 247.844C34.9593 247.262 34.8253 246.565 34.8253 245.751C34.8253 244.938 34.9609 244.242 35.2321 243.663C35.5065 243.085 35.8822 242.642 36.3592 242.335C36.8362 242.028 37.3769 241.875 37.9813 241.875C38.4485 241.875 38.8242 241.953 39.1084 242.11C39.3959 242.263 39.6181 242.443 39.7749 242.649C39.935 242.855 40.0591 243.036 40.1473 243.193H40.2356V239.464H41.7008V249.5H40.2699V248.329H40.1473C40.0591 248.489 39.9317 248.672 39.7651 248.878C39.6018 249.083 39.3763 249.263 39.0888 249.417C38.8013 249.57 38.4289 249.647 37.9715 249.647ZM38.2949 248.397C38.7164 248.397 39.0725 248.286 39.3633 248.064C39.6573 247.839 39.8795 247.527 40.0297 247.128C40.1833 246.73 40.2601 246.266 40.2601 245.736C40.2601 245.214 40.1849 244.756 40.0346 244.364C39.8844 243.972 39.6638 243.667 39.3731 243.448C39.0823 243.229 38.7229 243.119 38.2949 243.119C37.8539 243.119 37.4863 243.234 37.1923 243.462C36.8983 243.691 36.6761 244.003 36.5258 244.399C36.3788 244.794 36.3053 245.24 36.3053 245.736C36.3053 246.239 36.3804 246.692 36.5307 247.094C36.681 247.496 36.9032 247.814 37.1972 248.049C37.4945 248.281 37.8604 248.397 38.2949 248.397ZM47.0363 249.652C46.2947 249.652 45.656 249.493 45.1202 249.177C44.5877 248.856 44.176 248.407 43.8853 247.829C43.5978 247.247 43.454 246.566 43.454 245.785C43.454 245.014 43.5978 244.335 43.8853 243.747C44.176 243.159 44.5811 242.7 45.1006 242.37C45.6233 242.04 46.2343 241.875 46.9334 241.875C47.3581 241.875 47.7698 241.945 48.1684 242.085C48.5669 242.226 48.9247 242.446 49.2416 242.747C49.5585 243.048 49.8084 243.438 49.9914 243.918C50.1743 244.395 50.2658 244.975 50.2658 245.658V246.177H44.2822V245.08H48.8299C48.8299 244.694 48.7515 244.353 48.5947 244.055C48.4379 243.755 48.2174 243.518 47.9331 243.345C47.6522 243.172 47.3222 243.085 46.9432 243.085C46.5316 243.085 46.1722 243.186 45.8651 243.389C45.5612 243.588 45.326 243.85 45.1594 244.173C44.996 244.493 44.9144 244.841 44.9144 245.217V246.075C44.9144 246.578 45.0026 247.006 45.179 247.358C45.3587 247.711 45.6086 247.981 45.9288 248.167C46.249 248.35 46.623 248.441 47.051 248.441C47.3287 248.441 47.5819 248.402 47.8106 248.324C48.0393 248.242 48.237 248.121 48.4036 247.961C48.5702 247.801 48.6976 247.603 48.7858 247.368L50.1727 247.618C50.0616 248.027 49.8623 248.384 49.5748 248.691C49.2906 248.995 48.9328 249.232 48.5016 249.402C48.0736 249.569 47.5852 249.652 47.0363 249.652ZM53.3568 245.031V249.5H51.8916V241.973H53.298V243.198H53.3911C53.5643 242.799 53.8355 242.479 54.2046 242.237C54.5771 241.996 55.0459 241.875 55.6111 241.875C56.124 241.875 56.5732 241.983 56.9587 242.198C57.3443 242.411 57.6432 242.727 57.8555 243.149C58.0679 243.57 58.1741 244.091 58.1741 244.712V249.5H56.7088V244.889C56.7088 244.343 56.5667 243.917 56.2825 243.61C55.9982 243.299 55.6078 243.144 55.1112 243.144C54.7715 243.144 54.4693 243.217 54.2046 243.364C53.9433 243.512 53.7358 243.727 53.5823 244.011C53.432 244.292 53.3568 244.632 53.3568 245.031ZM63.6529 241.973V243.149H59.5413V241.973H63.6529ZM60.644 240.169H62.1092V247.29C62.1092 247.574 62.1517 247.788 62.2367 247.932C62.3216 248.072 62.431 248.169 62.565 248.221C62.7022 248.27 62.8509 248.294 63.0109 248.294C63.1286 248.294 63.2315 248.286 63.3197 248.27C63.4079 248.254 63.4765 248.241 63.5255 248.231L63.7901 249.441C63.7052 249.474 63.5843 249.507 63.4275 249.539C63.2707 249.575 63.0747 249.595 62.8394 249.598C62.4539 249.605 62.0945 249.536 61.7613 249.392C61.4281 249.248 61.1585 249.026 60.9527 248.726C60.7469 248.425 60.644 248.048 60.644 247.594V240.169ZM70.793 243.81L69.465 244.046C69.4095 243.876 69.3212 243.714 69.2004 243.561C69.0828 243.407 68.9227 243.281 68.7201 243.183C68.5176 243.085 68.2644 243.036 67.9605 243.036C67.5456 243.036 67.1993 243.129 66.9216 243.315C66.6439 243.498 66.5051 243.735 66.5051 244.026C66.5051 244.278 66.5982 244.48 66.7844 244.634C66.9706 244.787 67.2712 244.913 67.6861 245.011L68.8818 245.286C69.5744 245.446 70.0906 245.692 70.4304 246.025C70.7702 246.359 70.9401 246.792 70.9401 247.324C70.9401 247.775 70.8094 248.177 70.548 248.53C70.2899 248.879 69.9289 249.154 69.465 249.353C69.0043 249.552 68.4702 249.652 67.8625 249.652C67.0196 249.652 66.3319 249.472 65.7994 249.113C65.2668 248.75 64.9401 248.236 64.8193 247.569L66.2355 247.354C66.3237 247.723 66.5051 248.002 66.7795 248.192C67.0539 248.378 67.4117 248.471 67.8527 248.471C68.333 248.471 68.7168 248.371 69.0043 248.172C69.2918 247.969 69.4356 247.723 69.4356 247.432C69.4356 247.197 69.3474 246.999 69.171 246.839C68.9978 246.679 68.7315 246.558 68.3722 246.476L67.098 246.197C66.3956 246.037 65.8761 245.782 65.5396 245.433C65.2064 245.083 65.0398 244.64 65.0398 244.104C65.0398 243.66 65.1639 243.271 65.4122 242.938C65.6605 242.605 66.0036 242.345 66.4413 242.159C66.8791 241.969 67.3806 241.875 67.9458 241.875C68.7593 241.875 69.3997 242.051 69.8668 242.404C70.334 242.754 70.6428 243.222 70.793 243.81Z" fill="#01654D"/>
<path d="M180.016 120.5V110.464H183.593C184.374 110.464 185.021 110.606 185.534 110.89C186.047 111.174 186.431 111.563 186.686 112.056C186.941 112.546 187.068 113.099 187.068 113.713C187.068 114.33 186.939 114.886 186.681 115.379C186.426 115.869 186.04 116.258 185.524 116.545C185.011 116.829 184.366 116.972 183.589 116.972H181.128V115.688H183.451C183.945 115.688 184.345 115.603 184.652 115.433C184.959 115.26 185.184 115.024 185.328 114.727C185.472 114.43 185.544 114.092 185.544 113.713C185.544 113.334 185.472 112.997 185.328 112.703C185.184 112.409 184.957 112.179 184.647 112.012C184.34 111.846 183.935 111.762 183.432 111.762H181.53V120.5H180.016ZM191.875 120.652C191.134 120.652 190.495 120.493 189.959 120.177C189.427 119.856 189.015 119.407 188.724 118.829C188.437 118.247 188.293 117.566 188.293 116.785C188.293 116.014 188.437 115.335 188.724 114.747C189.015 114.159 189.42 113.7 189.94 113.37C190.462 113.04 191.073 112.875 191.772 112.875C192.197 112.875 192.609 112.945 193.007 113.085C193.406 113.226 193.764 113.446 194.081 113.747C194.398 114.048 194.647 114.438 194.83 114.918C195.013 115.395 195.105 115.975 195.105 116.658V117.177H189.121V116.08H193.669C193.669 115.694 193.591 115.353 193.434 115.055C193.277 114.755 193.056 114.518 192.772 114.345C192.491 114.172 192.161 114.085 191.782 114.085C191.371 114.085 191.011 114.186 190.704 114.389C190.4 114.588 190.165 114.85 189.998 115.173C189.835 115.493 189.753 115.841 189.753 116.217V117.075C189.753 117.578 189.842 118.006 190.018 118.358C190.198 118.711 190.448 118.981 190.768 119.167C191.088 119.35 191.462 119.441 191.89 119.441C192.168 119.441 192.421 119.402 192.65 119.324C192.878 119.242 193.076 119.121 193.243 118.961C193.409 118.801 193.537 118.603 193.625 118.368L195.012 118.618C194.901 119.027 194.701 119.384 194.414 119.691C194.13 119.995 193.772 120.232 193.341 120.402C192.913 120.569 192.424 120.652 191.875 120.652ZM196.731 120.5V112.973H198.147V114.168H198.225C198.363 113.763 198.604 113.445 198.951 113.213C199.3 112.978 199.695 112.86 200.137 112.86C200.228 112.86 200.336 112.863 200.46 112.87C200.587 112.876 200.687 112.885 200.759 112.894V114.296C200.7 114.28 200.596 114.262 200.445 114.242C200.295 114.219 200.145 114.208 199.994 114.208C199.648 114.208 199.339 114.281 199.068 114.428C198.8 114.572 198.588 114.773 198.431 115.031C198.274 115.286 198.196 115.577 198.196 115.903V120.5H196.731ZM202.027 120.5V112.973H203.433V114.198H203.526C203.683 113.783 203.94 113.46 204.296 113.228C204.652 112.992 205.078 112.875 205.575 112.875C206.078 112.875 206.499 112.992 206.839 113.228C207.182 113.463 207.436 113.786 207.599 114.198H207.677C207.857 113.796 208.143 113.476 208.535 113.237C208.927 112.996 209.394 112.875 209.936 112.875C210.619 112.875 211.176 113.089 211.608 113.517C212.042 113.945 212.259 114.59 212.259 115.452V120.5H210.794V115.59C210.794 115.08 210.655 114.711 210.377 114.482C210.1 114.253 209.768 114.139 209.383 114.139C208.906 114.139 208.535 114.286 208.27 114.58C208.006 114.871 207.873 115.245 207.873 115.702V120.5H206.413V115.497C206.413 115.088 206.286 114.76 206.031 114.512C205.776 114.263 205.444 114.139 205.036 114.139C204.758 114.139 204.502 114.213 204.266 114.36C204.035 114.503 203.847 114.704 203.703 114.962C203.562 115.22 203.492 115.519 203.492 115.859V120.5H202.027ZM214.223 120.5V112.973H215.688V120.5H214.223ZM214.963 111.811C214.708 111.811 214.489 111.726 214.307 111.556C214.127 111.383 214.037 111.177 214.037 110.939C214.037 110.697 214.127 110.491 214.307 110.322C214.489 110.148 214.708 110.062 214.963 110.062C215.218 110.062 215.435 110.148 215.615 110.322C215.798 110.491 215.889 110.697 215.889 110.939C215.889 111.177 215.798 111.383 215.615 111.556C215.435 111.726 215.218 111.811 214.963 111.811ZM221.173 112.973V114.149H217.062V112.973H221.173ZM218.164 111.169H219.63V118.29C219.63 118.574 219.672 118.788 219.757 118.932C219.842 119.072 219.952 119.169 220.086 119.221C220.223 119.27 220.371 119.294 220.531 119.294C220.649 119.294 220.752 119.286 220.84 119.27C220.928 119.254 220.997 119.241 221.046 119.231L221.311 120.441C221.226 120.474 221.105 120.507 220.948 120.539C220.791 120.575 220.595 120.595 220.36 120.598C219.974 120.605 219.615 120.536 219.282 120.392C218.949 120.248 218.679 120.026 218.473 119.726C218.267 119.425 218.164 119.048 218.164 118.594V111.169ZM228.314 114.81L226.986 115.046C226.93 114.876 226.842 114.714 226.721 114.561C226.603 114.407 226.443 114.281 226.241 114.183C226.038 114.085 225.785 114.036 225.481 114.036C225.066 114.036 224.72 114.129 224.442 114.315C224.164 114.498 224.026 114.735 224.026 115.026C224.026 115.278 224.119 115.48 224.305 115.634C224.491 115.787 224.792 115.913 225.207 116.011L226.402 116.286C227.095 116.446 227.611 116.692 227.951 117.025C228.291 117.359 228.461 117.792 228.461 118.324C228.461 118.775 228.33 119.177 228.069 119.53C227.81 119.879 227.449 120.154 226.986 120.353C226.525 120.552 225.991 120.652 225.383 120.652C224.54 120.652 223.852 120.472 223.32 120.113C222.787 119.75 222.461 119.236 222.34 118.569L223.756 118.354C223.844 118.723 224.026 119.002 224.3 119.192C224.574 119.378 224.932 119.471 225.373 119.471C225.853 119.471 226.237 119.371 226.525 119.172C226.812 118.969 226.956 118.723 226.956 118.432C226.956 118.197 226.868 117.999 226.691 117.839C226.518 117.679 226.252 117.558 225.893 117.476L224.619 117.197C223.916 117.037 223.397 116.782 223.06 116.433C222.727 116.083 222.56 115.64 222.56 115.104C222.56 114.66 222.684 114.271 222.933 113.938C223.181 113.605 223.524 113.345 223.962 113.159C224.4 112.969 224.901 112.875 225.466 112.875C226.28 112.875 226.92 113.051 227.387 113.404C227.855 113.754 228.163 114.222 228.314 114.81Z" fill="#01654D"/>
<path d="M170.305 414.125V404.089H173.882C174.663 404.089 175.31 404.231 175.823 404.515C176.336 404.799 176.72 405.188 176.974 405.681C177.229 406.171 177.357 406.724 177.357 407.338C177.357 407.955 177.228 408.511 176.97 409.004C176.715 409.494 176.329 409.883 175.813 410.17C175.3 410.454 174.655 410.597 173.877 410.597H171.417V409.313H173.74C174.233 409.313 174.634 409.228 174.941 409.058C175.248 408.885 175.473 408.649 175.617 408.352C175.761 408.055 175.833 407.717 175.833 407.338C175.833 406.959 175.761 406.622 175.617 406.328C175.473 406.034 175.246 405.804 174.936 405.637C174.629 405.471 174.224 405.387 173.72 405.387H171.819V414.125H170.305ZM179.014 414.125V406.598H180.431V407.793H180.509C180.646 407.388 180.888 407.07 181.234 406.838C181.584 406.603 181.979 406.485 182.42 406.485C182.512 406.485 182.619 406.488 182.744 406.495C182.871 406.501 182.971 406.51 183.043 406.519V407.921C182.984 407.905 182.879 407.887 182.729 407.867C182.579 407.844 182.428 407.833 182.278 407.833C181.932 407.833 181.623 407.906 181.352 408.053C181.084 408.197 180.872 408.398 180.715 408.656C180.558 408.911 180.48 409.202 180.48 409.528V414.125H179.014ZM187.212 414.277C186.506 414.277 185.89 414.115 185.364 413.792C184.838 413.468 184.43 413.016 184.139 412.434C183.848 411.853 183.703 411.173 183.703 410.396C183.703 409.615 183.848 408.932 184.139 408.347C184.43 407.762 184.838 407.308 185.364 406.985C185.89 406.661 186.506 406.5 187.212 406.5C187.917 406.5 188.533 406.661 189.059 406.985C189.585 407.308 189.994 407.762 190.284 408.347C190.575 408.932 190.721 409.615 190.721 410.396C190.721 411.173 190.575 411.853 190.284 412.434C189.994 413.016 189.585 413.468 189.059 413.792C188.533 414.115 187.917 414.277 187.212 414.277ZM187.217 413.047C187.674 413.047 188.053 412.926 188.354 412.684C188.654 412.442 188.876 412.121 189.02 411.719C189.167 411.317 189.241 410.874 189.241 410.391C189.241 409.911 189.167 409.469 189.02 409.068C188.876 408.662 188.654 408.337 188.354 408.092C188.053 407.847 187.674 407.725 187.217 407.725C186.756 407.725 186.374 407.847 186.07 408.092C185.769 408.337 185.546 408.662 185.399 409.068C185.255 409.469 185.183 409.911 185.183 410.391C185.183 410.874 185.255 411.317 185.399 411.719C185.546 412.121 185.769 412.442 186.07 412.684C186.374 412.926 186.756 413.047 187.217 413.047ZM192.356 416.948V406.598H193.787V407.818H193.91C193.995 407.661 194.117 407.48 194.277 407.274C194.437 407.068 194.659 406.888 194.944 406.735C195.228 406.578 195.604 406.5 196.071 406.5C196.678 406.5 197.221 406.653 197.698 406.96C198.175 407.267 198.549 407.71 198.82 408.288C199.094 408.867 199.232 409.563 199.232 410.376C199.232 411.19 199.096 411.887 198.825 412.469C198.554 413.047 198.181 413.493 197.708 413.806C197.234 414.117 196.693 414.272 196.085 414.272C195.628 414.272 195.254 414.195 194.963 414.042C194.676 413.888 194.45 413.708 194.287 413.503C194.124 413.297 193.998 413.114 193.91 412.954H193.821V416.948H192.356ZM193.792 410.361C193.792 410.891 193.869 411.355 194.022 411.753C194.176 412.152 194.398 412.464 194.689 412.689C194.98 412.911 195.336 413.022 195.757 413.022C196.195 413.022 196.561 412.906 196.855 412.674C197.149 412.439 197.371 412.121 197.521 411.719C197.675 411.317 197.752 410.864 197.752 410.361C197.752 409.865 197.676 409.419 197.526 409.024C197.379 408.628 197.157 408.316 196.86 408.087C196.566 407.859 196.198 407.744 195.757 407.744C195.332 407.744 194.973 407.854 194.679 408.073C194.388 408.292 194.168 408.597 194.017 408.989C193.867 409.381 193.792 409.839 193.792 410.361ZM204.117 414.277C203.376 414.277 202.737 414.118 202.201 413.802C201.669 413.481 201.257 413.032 200.966 412.454C200.679 411.872 200.535 411.191 200.535 410.41C200.535 409.639 200.679 408.96 200.966 408.372C201.257 407.784 201.662 407.325 202.182 406.995C202.704 406.665 203.315 406.5 204.015 406.5C204.439 406.5 204.851 406.57 205.25 406.71C205.648 406.851 206.006 407.071 206.323 407.372C206.64 407.673 206.89 408.063 207.073 408.543C207.255 409.02 207.347 409.6 207.347 410.283V410.802H201.363V409.705H205.911C205.911 409.319 205.833 408.978 205.676 408.68C205.519 408.38 205.299 408.143 205.014 407.97C204.733 407.797 204.403 407.71 204.024 407.71C203.613 407.71 203.253 407.811 202.946 408.014C202.642 408.213 202.407 408.475 202.241 408.798C202.077 409.118 201.996 409.466 201.996 409.842V410.7C201.996 411.203 202.084 411.631 202.26 411.983C202.44 412.336 202.69 412.606 203.01 412.792C203.33 412.975 203.704 413.066 204.132 413.066C204.41 413.066 204.663 413.027 204.892 412.949C205.12 412.867 205.318 412.746 205.485 412.586C205.651 412.426 205.779 412.228 205.867 411.993L207.254 412.243C207.143 412.652 206.943 413.009 206.656 413.316C206.372 413.62 206.014 413.857 205.583 414.027C205.155 414.194 204.666 414.277 204.117 414.277ZM208.973 414.125V406.598H210.389V407.793H210.467C210.605 407.388 210.846 407.07 211.193 406.838C211.542 406.603 211.938 406.485 212.379 406.485C212.47 406.485 212.578 406.488 212.702 406.495C212.829 406.501 212.929 406.51 213.001 406.519V407.921C212.942 407.905 212.838 407.887 212.687 407.867C212.537 407.844 212.387 407.833 212.236 407.833C211.89 407.833 211.581 407.906 211.31 408.053C211.042 408.197 210.83 408.398 210.673 408.656C210.516 408.911 210.438 409.202 210.438 409.528V414.125H208.973ZM218.227 406.598V407.774H214.116V406.598H218.227ZM215.218 404.794H216.684V411.915C216.684 412.199 216.726 412.413 216.811 412.557C216.896 412.697 217.006 412.794 217.14 412.846C217.277 412.895 217.425 412.919 217.585 412.919C217.703 412.919 217.806 412.911 217.894 412.895C217.982 412.879 218.051 412.866 218.1 412.856L218.365 414.066C218.28 414.099 218.159 414.132 218.002 414.164C217.845 414.2 217.649 414.22 217.414 414.223C217.028 414.23 216.669 414.161 216.336 414.017C216.003 413.873 215.733 413.651 215.527 413.351C215.321 413.05 215.218 412.673 215.218 412.219V404.794ZM219.848 414.125V406.598H221.314V414.125H219.848ZM220.588 405.436C220.333 405.436 220.115 405.351 219.932 405.181C219.752 405.008 219.662 404.802 219.662 404.564C219.662 404.322 219.752 404.116 219.932 403.947C220.115 403.773 220.333 403.687 220.588 403.687C220.843 403.687 221.06 403.773 221.24 403.947C221.423 404.116 221.514 404.322 221.514 404.564C221.514 404.802 221.423 405.008 221.24 405.181C221.06 405.351 220.843 405.436 220.588 405.436ZM226.529 414.277C225.787 414.277 225.149 414.118 224.613 413.802C224.08 413.481 223.669 413.032 223.378 412.454C223.09 411.872 222.947 411.191 222.947 410.41C222.947 409.639 223.09 408.96 223.378 408.372C223.669 407.784 224.074 407.325 224.593 406.995C225.116 406.665 225.727 406.5 226.426 406.5C226.851 406.5 227.262 406.57 227.661 406.71C228.06 406.851 228.417 407.071 228.734 407.372C229.051 407.673 229.301 408.063 229.484 408.543C229.667 409.02 229.758 409.6 229.758 410.283V410.802H223.775V409.705H228.323C228.323 409.319 228.244 408.978 228.087 408.68C227.931 408.38 227.71 408.143 227.426 407.97C227.145 407.797 226.815 407.71 226.436 407.71C226.024 407.71 225.665 407.811 225.358 408.014C225.054 408.213 224.819 408.475 224.652 408.798C224.489 409.118 224.407 409.466 224.407 409.842V410.7C224.407 411.203 224.495 411.631 224.672 411.983C224.851 412.336 225.101 412.606 225.421 412.792C225.742 412.975 226.116 413.066 226.544 413.066C226.821 413.066 227.075 413.027 227.303 412.949C227.532 412.867 227.73 412.746 227.896 412.586C228.063 412.426 228.19 412.228 228.278 411.993L229.665 412.243C229.554 412.652 229.355 413.009 229.067 413.316C228.783 413.62 228.426 413.857 227.994 414.027C227.566 414.194 227.078 414.277 226.529 414.277ZM237.025 408.435L235.697 408.671C235.641 408.501 235.553 408.339 235.432 408.186C235.314 408.032 235.154 407.906 234.952 407.808C234.749 407.71 234.496 407.661 234.192 407.661C233.777 407.661 233.431 407.754 233.153 407.94C232.876 408.123 232.737 408.36 232.737 408.651C232.737 408.903 232.83 409.105 233.016 409.259C233.202 409.412 233.503 409.538 233.918 409.636L235.114 409.911C235.806 410.071 236.322 410.317 236.662 410.65C237.002 410.984 237.172 411.417 237.172 411.949C237.172 412.4 237.041 412.802 236.78 413.155C236.522 413.504 236.161 413.779 235.697 413.978C235.236 414.177 234.702 414.277 234.094 414.277C233.251 414.277 232.564 414.097 232.031 413.738C231.499 413.375 231.172 412.861 231.051 412.194L232.467 411.979C232.555 412.348 232.737 412.627 233.011 412.817C233.286 413.003 233.643 413.096 234.084 413.096C234.565 413.096 234.949 412.996 235.236 412.797C235.524 412.594 235.667 412.348 235.667 412.057C235.667 411.822 235.579 411.624 235.403 411.464C235.23 411.304 234.963 411.183 234.604 411.101L233.33 410.822C232.627 410.662 232.108 410.407 231.771 410.058C231.438 409.708 231.272 409.265 231.272 408.729C231.272 408.285 231.396 407.896 231.644 407.563C231.892 407.23 232.235 406.97 232.673 406.784C233.111 406.594 233.612 406.5 234.178 406.5C234.991 406.5 235.631 406.676 236.099 407.029C236.566 407.379 236.875 407.847 237.025 408.435Z" fill="#01654D"/>
<path d="M236.113 213.295V222.761C236.113 223.625 233.717 225.032 226.985 226.188C220.863 227.217 212.714 227.799 204.041 227.799C195.368 227.799 187.229 227.217 181.098 226.188C174.365 225.032 171.969 223.625 171.969 222.761V213.295C173.405 214.382 176.402 215.324 180.933 216.101C187.103 217.139 195.31 217.722 204.031 217.722C212.753 217.722 220.96 217.139 227.13 216.101C231.661 215.324 234.668 214.382 236.094 213.295H236.113Z" fill="#EAE2CF"/>
<path d="M236.113 202.228V211.703C236.113 212.567 233.717 213.975 226.985 215.12C220.863 216.159 212.714 216.732 204.041 216.732C195.368 216.732 187.229 216.159 181.098 215.12C174.365 213.975 171.969 212.567 171.969 211.703V202.228C173.405 203.325 176.402 204.266 180.933 205.043C187.103 206.082 195.31 206.664 204.031 206.664C212.753 206.664 220.96 206.082 227.13 205.043C231.661 204.266 234.668 203.325 236.094 202.228H236.113Z" fill="#EAE2CF"/>
<path d="M236.113 191.169V200.635C236.113 201.508 233.717 202.916 226.985 204.062C220.863 205.1 212.714 205.673 204.041 205.673C195.368 205.673 187.229 205.1 181.098 204.062C174.365 202.916 171.969 201.508 171.969 200.635V191.169C173.405 192.266 176.402 193.208 180.933 193.975C187.103 195.023 195.31 195.606 204.031 195.606C212.753 195.606 220.96 195.023 227.13 193.975C231.661 193.217 234.668 192.276 236.094 191.169H236.113Z" fill="#EAE2CF"/>
<path d="M236.113 180.111V189.577C236.113 190.441 233.717 191.858 226.985 193.004C220.863 194.043 212.714 194.616 204.041 194.616C195.368 194.616 187.229 194.043 181.098 193.004C174.365 191.858 171.969 190.441 171.969 189.577V180.111C173.405 181.208 176.402 182.14 180.933 182.917C187.103 183.966 195.31 184.538 204.031 184.538C212.753 184.538 220.96 183.966 227.13 182.917C231.661 182.14 234.668 181.218 236.094 180.111H236.113Z" fill="#EAE2CF"/>
<path d="M236.113 178.52C236.113 179.384 233.717 180.792 226.985 181.947C220.863 182.976 212.714 183.559 204.041 183.559C195.368 183.559 187.229 182.976 181.098 181.947C174.365 180.792 171.969 179.384 171.969 178.52C171.969 177.656 174.365 176.239 181.098 175.093C187.219 174.054 195.368 173.481 204.041 173.481C212.714 173.481 220.853 174.054 226.985 175.093C233.717 176.239 236.113 177.656 236.113 178.52Z" fill="#EAE2CF"/>
<path d="M227.151 174.121C220.981 173.083 212.774 172.5 204.052 172.5C195.331 172.5 187.123 173.083 180.953 174.121C174.347 175.257 171 176.733 171 178.529V222.77C171 224.566 174.347 226.042 180.953 227.158C187.123 228.207 195.331 228.779 204.052 228.779C212.774 228.779 220.981 228.207 227.151 227.158C233.757 226.042 237.104 224.556 237.104 222.77V178.529C237.104 176.733 233.757 175.257 227.151 174.121ZM236.115 222.77C236.115 223.634 233.719 225.042 226.986 226.197C220.864 227.226 212.715 227.809 204.042 227.809C195.37 227.809 187.23 227.226 181.099 226.197C174.366 225.042 171.97 223.634 171.97 222.77V213.304C173.406 214.392 176.404 215.333 180.934 216.11C187.104 217.149 195.311 217.731 204.033 217.731C212.754 217.731 220.961 217.149 227.131 216.11C231.662 215.333 234.669 214.392 236.095 213.304V222.77H236.115ZM236.115 211.702C236.115 212.566 233.719 213.974 226.986 215.12C220.864 216.159 212.715 216.731 204.042 216.731C195.37 216.731 187.23 216.159 181.099 215.12C174.366 213.974 171.97 212.566 171.97 211.702V202.227C173.406 203.324 176.404 204.266 180.934 205.042C187.104 206.081 195.311 206.664 204.033 206.664C212.754 206.664 220.961 206.081 227.131 205.042C231.662 204.266 234.669 203.324 236.095 202.227V211.702H236.115ZM236.115 200.635C236.115 201.509 233.719 202.916 226.986 204.062C220.864 205.101 212.715 205.674 204.042 205.674C195.37 205.674 187.23 205.101 181.099 204.062C174.366 202.916 171.97 201.509 171.97 200.635V191.169C173.406 192.266 176.404 193.208 180.934 193.975C187.104 195.023 195.311 195.606 204.033 195.606C212.754 195.606 220.961 195.023 227.131 193.975C231.662 193.218 234.669 192.276 236.095 191.169V200.635H236.115ZM236.115 189.577C236.115 190.441 233.719 191.859 226.986 193.004C220.864 194.043 212.715 194.616 204.042 194.616C195.37 194.616 187.23 194.043 181.099 193.004C174.366 191.859 171.97 190.441 171.97 189.577V180.111C173.406 181.208 176.404 182.14 180.934 182.917C187.104 183.966 195.311 184.538 204.033 184.538C212.754 184.538 220.961 183.966 227.131 182.917C231.662 182.14 234.669 181.218 236.095 180.111V189.577H236.115ZM226.986 181.946C220.864 182.975 212.715 183.558 204.042 183.558C195.37 183.558 187.23 182.975 181.099 181.946C174.366 180.791 171.97 179.383 171.97 178.519C171.97 177.655 174.366 176.238 181.099 175.092C187.221 174.053 195.37 173.481 204.042 173.481C212.715 173.481 220.855 174.053 226.986 175.092C233.719 176.238 236.115 177.655 236.115 178.519C236.115 179.383 233.719 180.791 226.986 181.946Z" fill="#101727"/>
<mask id="mask8_3166_293" style="mask-type:luminance" maskUnits="userSpaceOnUse" x="188" y="188" width="32" height="32">
<path d="M219.345 188.5H188V219.868H219.345V188.5Z" fill="white"/>
</mask>
<g mask="url(#mask8_3166_293)">
<path d="M219.347 204.179C219.347 212.839 212.333 219.868 203.669 219.868C195.006 219.868 187.992 212.849 187.992 204.179C187.992 195.509 195.006 188.49 203.669 188.49C212.333 188.49 219.347 195.509 219.347 204.179Z" fill="#01654D"/>
<path d="M203.103 194.891L200.227 195.663L202.186 202.977L205.063 202.205L203.103 194.891Z" fill="#E9BE51"/>
<path d="M206.819 201.79C207.692 206.14 206.499 208.78 205.645 210.198C204.19 209.382 201.833 207.683 200.416 203.402C200.29 203.402 200.164 203.402 200.028 203.402C199.048 203.402 198.117 203.315 197.234 203.15C199.136 210.237 203.346 212.373 204.937 213.169L205.005 213.198C205.306 213.353 205.636 213.431 205.956 213.431C206.645 213.431 207.304 213.091 207.712 212.479L207.76 212.402C208.73 210.907 211.321 206.946 209.439 199.868C208.672 200.596 207.799 201.237 206.819 201.761" fill="#EAE2CF"/>
</g>
<line x1="325.707" y1="260.207" x2="257.707" y2="328.207" stroke="#849465" stroke-width="2"/>
<line x1="158.707" y1="83.2071" x2="73.7071" y2="168.207" stroke="#849465" stroke-width="2"/>
<line x1="250.207" y1="81.7929" x2="337.207" y2="168.793" stroke="#849465" stroke-width="2"/>
<line x1="80.2071" y1="258.793" x2="151.207" y2="329.793" stroke="#849465" stroke-width="2"/>
</svg>
