<svg width="678" height="471" viewBox="0 0 678 471" fill="none" xmlns="http://www.w3.org/2000/svg">
<path opacity="0.12" d="M353.859 80.4432L351.358 59.8466C351.155 58.1793 349.396 57.488 347.891 57.488L326.308 57.5389C326.136 57.5389 325.973 57.5084 325.821 57.4474L301.645 47.8607L232.892 20.5849L188.14 3.31256C187.754 3.16007 187.459 2.83475 187.347 2.43827C186.92 0.862513 185.924 0.171214 184.308 0.0187221C182.63 -0.143937 181.268 0.760852 180.668 2.43827C180.536 2.79408 180.241 3.06857 179.885 3.19056L159.583 10.3679L84.4453 37.6742L34.8345 55.7293C33.6959 56.1461 32.8724 57.8032 32.8724 58.9418V82.2528C32.8622 83.5744 33.6349 84.5097 35.1293 84.5097L161.881 84.4894C162.613 84.4894 163.203 85.079 163.203 85.811V112.314C163.203 113.097 163.782 113.91 164.423 114.175C164.545 114.225 164.687 114.236 164.829 114.236L170.329 114.276C171.061 114.276 171.651 114.876 171.651 115.598L171.681 223.237H171.702V309.812V327.715H170.065V359.525H161.647V284.417H140.827V312.618H118.441V321.219L100.803 334.018V348.332L80.328 338.511L54.7093 351.178V386.384H23.123V469.309H278.721V400.474L258.785 389.84L242.854 398.085V386.069L227.87 374.337L221.15 379.44V343.218H198.388V335.878C198.296 335.807 198.215 335.736 198.103 335.705C198.103 335.705 198.103 335.705 198.093 335.705C197.696 335.573 197.422 335.207 197.422 334.78V310.615H197.686V115.638C197.686 114.927 198.256 114.347 198.957 114.317L203.694 114.114C204.406 114.083 204.965 113.504 204.965 112.792L205.006 85.8923C205.006 85.1603 205.595 84.5707 206.327 84.5707L223.813 84.5402L250.957 84.5199H278.09L298.799 84.5402C299.531 84.5402 300.12 85.1298 300.12 85.8618V120.122C300.12 121.169 301.605 122.48 302.682 122.48L340.968 122.46C342.351 122.46 343.662 121.006 343.662 119.756V85.9228C343.662 85.201 344.242 84.6012 344.974 84.6012L351.856 84.5199C352.497 84.5199 353.747 83.8489 353.981 83.2999C354.276 82.6086 354.021 81.3988 353.899 80.4636L353.859 80.4432ZM318.176 63.4149L313.916 67.7355C313.397 68.2642 312.544 68.2642 312.025 67.7355L307.735 63.3946C306.901 62.5508 307.501 61.1377 308.68 61.1377L317.23 61.158C318.409 61.158 318.999 62.5813 318.176 63.4149ZM182.742 17.7282C183.016 16.3151 185.029 16.2846 185.334 17.6977L193.793 55.8513C193.976 56.6747 193.345 57.4677 192.501 57.4677L176.439 57.4982C175.595 57.4982 174.965 56.7256 175.138 55.9123L179.204 35.9663L182.742 17.7383V17.7282ZM181.786 127.533L177.578 132.413C176.774 133.338 175.249 132.779 175.249 131.559L175.188 121.321C175.188 120.061 176.764 119.502 177.557 120.488L181.817 125.845C182.213 126.343 182.203 127.055 181.786 127.533ZM183.443 129.902C183.972 129.281 184.938 129.292 185.466 129.912L190.743 136.174C191.475 137.038 190.855 138.35 189.736 138.36L179.041 138.39C177.903 138.39 177.293 137.059 178.035 136.194L183.454 129.912L183.443 129.902ZM175.27 182.461L175.219 172.671C175.219 171.441 176.744 170.861 177.547 171.796L181.766 176.646C182.193 177.144 182.203 177.876 181.776 178.374L177.608 183.315C176.815 184.26 175.28 183.701 175.27 182.471V182.461ZM177.527 197.73L181.634 201.97C182.122 202.478 182.132 203.281 181.644 203.799L177.567 208.14C176.744 209.015 175.28 208.435 175.27 207.236L175.239 198.655C175.239 197.466 176.683 196.866 177.517 197.73H177.527ZM175.249 156.964V147.896C175.249 146.696 176.724 146.106 177.547 146.991L181.786 151.535C182.264 152.043 182.264 152.836 181.786 153.345L177.547 157.869C176.724 158.743 175.249 158.164 175.249 156.964ZM177.517 222.383L181.837 227.131C182.295 227.629 182.295 228.402 181.847 228.91L177.537 233.759C176.724 234.674 175.219 234.095 175.219 232.875V223.278C175.209 222.068 176.703 221.489 177.517 222.383ZM181.705 274.688C182.183 275.186 182.203 275.969 181.736 276.487L177.578 281.154C176.764 282.069 175.26 281.489 175.26 280.269V271.313C175.28 270.123 176.724 269.534 177.557 270.398L181.695 274.698L181.705 274.688ZM180.414 266.362H188.516C189.675 266.352 190.275 267.734 189.482 268.588L185.487 272.848C184.968 273.397 184.094 273.407 183.565 272.858L179.468 268.619C178.655 267.775 179.255 266.372 180.424 266.372L180.414 266.362ZM175.29 256.501V248.032C175.28 246.853 176.703 246.253 177.547 247.097L181.654 251.214C182.162 251.723 182.173 252.536 181.685 253.065L177.588 257.416C176.764 258.29 175.3 257.711 175.3 256.511L175.29 256.501ZM177.537 295.498L181.583 300.022C182.051 300.541 182.03 301.334 181.553 301.832L177.537 305.98C176.713 306.833 175.26 306.254 175.26 305.065L175.229 296.393C175.229 295.173 176.734 294.593 177.547 295.498H177.537ZM176.764 310.666L176.866 310.564L181.329 310.605L176.764 310.666H189.279C190.438 310.686 191.027 312.079 190.234 312.913L185.263 318.179C184.745 318.728 183.86 318.728 183.342 318.179L176.175 310.666H176.774H176.764ZM188.313 309.853H180.719C179.54 309.853 178.95 308.44 179.773 307.596L183.464 303.834C183.972 303.316 184.806 303.306 185.334 303.814L189.228 307.576C190.082 308.409 189.502 309.853 188.303 309.853H188.313ZM183.464 297.928L178.249 292.133C177.476 291.279 178.086 289.917 179.235 289.917H189.767C190.926 289.917 191.526 291.289 190.743 292.143L185.426 297.938C184.897 298.518 183.982 298.507 183.464 297.938V297.928ZM190.001 286.745L179.143 286.776C177.994 286.776 177.384 285.424 178.157 284.559L183.484 278.622C184.003 278.043 184.907 278.033 185.436 278.602L190.966 284.509C191.759 285.352 191.16 286.735 190.001 286.745ZM187.256 276.701C186.758 276.193 186.758 275.379 187.256 274.861L191.749 270.174C192.573 269.31 194.026 269.89 194.037 271.089L194.077 280.473C194.077 281.672 192.623 282.262 191.8 281.398L187.266 276.711L187.256 276.701ZM189.868 263.109L178.899 263.19C177.73 263.19 177.12 261.808 177.923 260.954L183.403 255.128C183.921 254.579 184.806 254.569 185.324 255.128L190.814 260.872C191.617 261.716 191.027 263.109 189.858 263.119L189.868 263.109ZM183.454 249.364L179.031 244.728C178.228 243.885 178.818 242.492 179.987 242.482L189.147 242.441C190.336 242.441 190.926 243.874 190.082 244.708L185.345 249.374C184.816 249.893 183.962 249.883 183.454 249.344V249.364ZM189.96 239.32L179.052 239.371C177.913 239.371 177.293 238.039 178.045 237.175L183.403 231.004C183.921 230.404 184.857 230.394 185.385 230.984L190.936 237.104C191.709 237.958 191.109 239.32 189.96 239.32ZM187.225 229.001C186.747 228.493 186.737 227.7 187.215 227.192L191.77 222.241C192.593 221.346 194.077 221.936 194.067 223.146V232.895C194.057 234.095 192.593 234.674 191.77 233.8L187.225 228.991V229.001ZM190.987 218.988L185.497 225.037C184.968 225.616 184.064 225.616 183.535 225.037L177.984 218.957C177.201 218.103 177.811 216.731 178.97 216.741L190.011 216.771C191.16 216.771 191.759 218.134 190.987 218.988ZM189.391 213.498L179.306 213.518C178.147 213.518 177.547 212.146 178.33 211.292L183.423 205.782C183.952 205.213 184.857 205.213 185.375 205.782L190.377 211.272C191.149 212.125 190.55 213.488 189.401 213.488L189.391 213.498ZM185.284 200.079C184.755 200.617 183.881 200.597 183.372 200.048L178.401 194.691C177.608 193.837 178.218 192.464 179.377 192.464L189.635 192.484C190.814 192.484 191.404 193.908 190.57 194.741L185.284 200.079ZM190.102 189.302L178.848 189.353C177.71 189.353 177.09 188.022 177.842 187.157L183.443 180.671C183.972 180.061 184.918 180.061 185.446 180.671L191.099 187.096C191.851 187.95 191.251 189.292 190.112 189.302H190.102ZM183.474 174.572L177.7 168.025C176.947 167.171 177.557 165.819 178.696 165.819L190.346 165.839C191.495 165.839 192.095 167.201 191.332 168.055L185.446 174.582C184.918 175.172 183.992 175.161 183.464 174.572H183.474ZM189.421 162.687L179.712 162.718C178.553 162.718 177.954 161.346 178.736 160.492L183.535 155.256C184.053 154.687 184.948 154.687 185.477 155.246L190.387 160.451C191.18 161.295 190.59 162.687 189.431 162.687H189.421ZM183.606 149.675L178.045 143.626C177.262 142.772 177.862 141.4 179.021 141.4H190.407C191.576 141.41 192.176 142.813 191.363 143.656L185.548 149.685C185.019 150.234 184.135 150.224 183.616 149.665L183.606 149.675ZM191.708 132.89L187.022 127.441C186.595 126.943 186.595 126.211 187.022 125.713L191.78 120.162C192.583 119.227 194.118 119.796 194.108 121.037L194.037 132.036C194.037 133.267 192.501 133.826 191.708 132.89ZM191.383 116.503L185.436 123.355C184.897 123.975 183.931 123.965 183.413 123.324L177.781 116.462C177.069 115.598 177.689 114.297 178.808 114.297H190.377C191.515 114.297 192.125 115.638 191.373 116.503H191.383ZM188.933 80.1077L179.926 80.1484C178.726 80.1484 178.137 78.6845 179.001 77.861L183.525 73.5506C184.033 73.0626 184.846 73.0626 185.355 73.5506L189.828 77.8204C190.692 78.6438 190.112 80.0976 188.923 80.1077H188.933ZM183.84 67.9287L179.092 63.4047C178.228 62.5813 178.808 61.1173 180.007 61.1173L189.462 61.1479C190.651 61.1479 191.241 62.6118 190.377 63.4352L185.67 67.9389C185.161 68.4268 184.348 68.4268 183.84 67.9389V67.9287ZM46.6679 54.7228L85.279 40.7139L156.706 14.7292C158.211 14.1802 159.217 16.2744 157.845 17.108L124.053 37.664L91.338 57.2745C91.1347 57.3965 90.8907 57.4677 90.6467 57.4677L47.0949 57.2949C45.6106 57.2949 45.2548 55.2311 46.6475 54.7228H46.6679ZM97.0005 61.1479L106.608 61.1783C107.817 61.1783 108.387 62.6829 107.492 63.4861L102.683 67.8169C102.175 68.2743 101.413 68.2743 100.904 67.8169L96.1059 63.4556C95.2113 62.6423 95.7908 61.1479 97.0005 61.1479ZM81.5886 63.5267L75.7431 68.0913C75.245 68.4878 74.5333 68.4675 74.0555 68.0405L68.8708 63.4759C67.9558 62.6728 68.5251 61.158 69.7451 61.158H80.7754C82.036 61.158 82.5849 62.7541 81.5886 63.5267ZM42.7132 61.1275L52.9811 61.1987C54.1908 61.1987 54.75 62.6931 53.8655 63.5064C52.1779 65.0517 50.47 66.5156 48.6604 68.0608C48.1521 68.498 47.3998 68.4878 46.9017 68.0405L41.8186 63.4352C40.9138 62.6219 41.5035 61.1173 42.7132 61.1275ZM36.3492 76.0413L36.3086 65.2855C36.3086 64.1367 37.6505 63.5267 38.5146 64.2892L44.5431 69.6061C45.1328 70.1246 45.143 71.0497 44.5533 71.5783L38.5756 77.0071C37.7217 77.7797 36.3594 77.1799 36.3594 76.0311L36.3492 76.0413ZM52.4321 80.0772L42.7336 80.0976C41.5238 80.0976 40.9443 78.6133 41.8288 77.8L46.5967 73.4082C47.0949 72.9508 47.8675 72.9406 48.3758 73.3879L53.3064 77.7492C54.2213 78.5625 53.652 80.0671 52.4321 80.0671V80.0772ZM59.1824 75.9904C59.1824 77.1291 57.8507 77.739 56.9865 76.9969L50.8767 71.7207C50.2667 71.192 50.2667 70.2567 50.8665 69.7281L56.9865 64.2994C57.8405 63.5369 59.1926 64.1469 59.1926 65.2956V76.0108L59.1824 75.9904ZM62.5983 76.0718L62.5576 64.7162C62.5576 63.5776 63.8894 62.9676 64.7433 63.7097L71.4631 69.4739C72.0833 70.0026 72.0833 70.9684 71.453 71.497L64.7738 77.0782C63.9097 77.8 62.5983 77.1901 62.5983 76.0616V76.0718ZM80.2874 80.1281L69.3486 80.0772C68.1185 80.0772 67.5593 78.532 68.4946 77.739L73.9844 73.1033C74.4825 72.6864 75.2145 72.6864 75.7024 73.1033L81.1515 77.7899C82.0868 78.593 81.5175 80.1281 80.2772 80.1179L80.2874 80.1281ZM87.241 76.3971C87.241 77.5154 85.9296 78.1253 85.0756 77.4137L78.1931 71.7512C77.5425 71.2225 77.5527 70.2262 78.1931 69.6976L85.1468 64.0249C86.0211 63.3132 87.3224 63.9435 87.3122 65.0618L87.241 76.4073V76.3971ZM90.3824 75.7261L90.301 65.0415C90.301 63.9029 91.6328 63.2827 92.4969 64.035L98.6373 69.3723C99.2371 69.9009 99.2473 70.8362 98.6373 71.3648L92.5783 76.7122C91.7243 77.4645 90.3824 76.8647 90.3722 75.7261H90.3824ZM106.76 80.1077H96.3601C95.1401 80.1077 94.5708 78.6133 95.4756 77.8L100.813 72.9813C101.331 72.5136 102.114 72.5238 102.612 73.0016L107.665 77.8102C108.529 78.6337 107.95 80.0976 106.75 80.0976L106.76 80.1077ZM112.982 76.0006C112.982 77.1596 111.599 77.7594 110.755 76.9664L104.798 71.4258C104.219 70.887 104.239 69.9721 104.828 69.4536L110.796 64.2485C111.65 63.4962 112.992 64.1062 112.992 65.2448V75.9904L112.982 76.0006ZM116.032 76.4683V63.9435C116.042 62.8354 117.323 62.2153 118.197 62.9066L126.188 69.2808C126.859 69.8196 126.848 70.8464 126.167 71.3648L118.166 77.5154C117.292 78.1863 116.032 77.5662 116.032 76.4683ZM124.663 61.219H135.022C136.252 61.2088 136.821 62.7338 135.886 63.5369L130.762 67.9185C130.274 68.3353 129.553 68.3455 129.054 67.9287L123.809 63.5572C122.853 62.7643 123.412 61.219 124.653 61.2088L124.663 61.219ZM135.449 80.1077H123.778C122.528 80.1179 121.969 78.5523 122.934 77.7695L128.861 72.9304C129.359 72.5238 130.061 72.534 130.549 72.9406L136.283 77.7695C137.228 78.5625 136.669 80.1077 135.429 80.1077H135.449ZM139.719 76.9562L133.324 71.436C132.704 70.8972 132.714 69.9314 133.345 69.4129L139.709 64.1367C140.573 63.4251 141.874 64.035 141.884 65.1533L141.915 75.9498C141.915 77.0884 140.583 77.6984 139.719 76.9562ZM145.208 76.4581L145.229 64.1265C145.229 63.0083 146.54 62.3881 147.404 63.1099L155.019 69.4231C155.669 69.9619 155.659 70.9582 154.999 71.4868L147.364 77.5052C146.489 78.1863 145.219 77.5662 145.219 76.4581H145.208ZM153.148 61.1275L164.463 61.1479C165.724 61.1479 166.273 62.7541 165.276 63.5267L159.39 68.0913C158.892 68.4777 158.201 68.4573 157.723 68.0507L152.304 63.4759C151.359 62.6829 151.928 61.1377 153.158 61.1377L153.148 61.1275ZM163.874 80.1077L152.67 80.0874C151.42 80.0874 150.871 78.5117 151.837 77.7289L157.591 73.0931C158.089 72.6966 158.801 72.7068 159.278 73.1134L164.728 77.7594C165.663 78.5625 165.104 80.0976 163.863 80.0976L163.874 80.1077ZM170.817 76.5191C170.797 77.6374 169.485 78.2372 168.631 77.5052L161.8 71.68C161.149 71.131 161.18 70.1246 161.861 69.6163L168.885 64.3197C169.77 63.6589 171.031 64.2994 171.01 65.3973L170.817 76.5191ZM171.508 56.3901C171.386 57.0102 170.837 57.4677 170.207 57.4677L101.585 57.3965C100.244 57.3965 99.7556 55.6175 100.904 54.9363L127.509 39.0263L154.378 22.7909L178.482 8.41597C179.468 7.82633 180.678 8.68029 180.465 9.80873L171.519 56.4206L171.508 56.3901ZM174.233 75.7261L174.335 66.1496C174.345 65.0008 175.717 64.4112 176.561 65.194L181.502 69.7891C182.051 70.3076 182.071 71.1717 181.532 71.7003L176.49 76.6817C175.646 77.5154 174.223 76.9054 174.233 75.7261ZM174.975 325.702L174.995 316.695C174.995 315.495 176.469 314.916 177.293 315.79L181.431 320.202C181.908 320.71 181.908 321.483 181.451 322.001L177.293 326.596C176.48 327.501 174.985 326.922 174.985 325.702H174.975ZM179.834 327.755L183.281 323.984C183.799 323.414 184.704 323.404 185.233 323.974L188.76 327.755H179.834ZM193.843 325.743C193.843 326.932 192.39 327.522 191.566 326.657L187.042 321.981C186.544 321.473 186.544 320.649 187.042 320.141L191.576 315.424C192.4 314.56 193.864 315.149 193.854 316.349V325.743H193.843ZM194.077 305.075C194.077 306.244 192.674 306.833 191.841 306.03L187.439 301.822C186.92 301.323 186.89 300.5 187.378 299.971L191.79 295.112C192.603 294.217 194.098 294.797 194.098 296.007V305.065L194.077 305.075ZM194.067 256.745C194.067 257.924 192.634 258.514 191.8 257.67L187.347 253.156C186.839 252.638 186.839 251.804 187.347 251.296L191.831 246.772C192.664 245.928 194.098 246.518 194.098 247.707L194.077 256.745H194.067ZM194.057 207.835C194.057 209.035 192.573 209.614 191.759 208.73L187.083 203.667C186.595 203.139 186.615 202.325 187.124 201.827L191.841 197.151C192.684 196.317 194.108 196.917 194.098 198.096L194.057 207.835ZM194.057 182.867C194.057 184.077 192.552 184.646 191.749 183.752L187.073 178.557C186.615 178.049 186.615 177.276 187.083 176.768L191.8 171.634C192.623 170.739 194.108 171.329 194.098 172.538L194.057 182.867ZM194.098 157.106C194.098 158.286 192.664 158.875 191.831 158.031L187.307 153.457C186.798 152.938 186.798 152.115 187.307 151.596L191.881 146.91C192.715 146.056 194.159 146.645 194.159 147.845L194.108 157.106H194.098ZM194.83 75.5126C194.83 76.6817 193.416 77.2612 192.583 76.4581L187.601 71.6597C187.052 71.131 187.063 70.2466 187.622 69.7281L192.674 65.0517C193.528 64.2587 194.911 64.8687 194.901 66.0378L194.83 75.5126ZM200.594 77.3832C199.73 78.105 198.418 77.5052 198.408 76.3768L198.327 65.0517C198.327 63.9435 199.597 63.3132 200.472 63.9944L207.476 69.4841C208.137 70.0026 208.157 70.9989 207.517 71.5478L200.594 77.3832ZM205.291 61.1479H216.351C217.592 61.158 218.151 62.7134 217.195 63.5064L211.665 68.0812C211.177 68.4878 210.465 68.4878 209.977 68.0812L204.437 63.4962C203.481 62.7033 204.04 61.1479 205.28 61.1479H205.291ZM216.392 80.0772L205.545 80.1077C204.315 80.1077 203.745 78.5727 204.681 77.7695L210.048 73.1744C210.536 72.7576 211.268 72.7474 211.756 73.1643L217.226 77.7289C218.171 78.5218 217.622 80.0671 216.382 80.0772H216.392ZM222.98 75.8685C222.98 76.9766 221.689 77.5967 220.824 76.8952L214.277 71.6393C213.627 71.1107 213.617 70.1144 214.267 69.5858L220.845 64.1672C221.709 63.4556 223.02 64.0757 223.01 65.194L222.98 75.8685ZM226.477 76.2243L226.416 64.6552C226.416 63.5267 227.717 62.9066 228.581 63.6284L235.403 69.2503C236.033 69.7688 236.043 70.7345 235.433 71.2734L228.673 77.2104C227.819 77.9627 226.477 77.3629 226.467 76.2243H226.477ZM233.695 61.1479L243.963 61.2088C245.203 61.2088 245.752 62.7643 244.806 63.5572L239.642 67.8677C239.144 68.2845 238.422 68.2743 237.934 67.8575L232.831 63.4861C231.895 62.6829 232.465 61.1479 233.705 61.1479H233.695ZM244.095 80.0061L233.308 80.0671C232.089 80.0671 231.509 78.5625 232.414 77.7492L237.843 72.9101C238.341 72.4628 239.103 72.4628 239.601 72.9101L244.959 77.678C245.864 78.4812 245.305 79.9857 244.085 79.9959L244.095 80.0061ZM250.388 75.7261C250.388 76.8546 249.056 77.4645 248.202 76.7224L242.102 71.4767C241.472 70.9379 241.492 69.9517 242.143 69.4333L248.314 64.523C249.188 63.8317 250.469 64.4519 250.469 65.5701L250.398 75.7261H250.388ZM253.478 74.923V66.6579C253.478 65.5091 254.84 64.8992 255.694 65.682L260.066 69.6671C260.625 70.1754 260.645 71.0599 260.106 71.5987L255.735 75.8888C254.891 76.7122 253.478 76.1124 253.478 74.9433V74.923ZM258.388 61.1479H268.971C270.212 61.158 270.771 62.7134 269.825 63.5064L265.545 67.0849C265.139 67.4305 264.569 67.461 264.081 67.2374C263.461 66.9527 262.851 66.8816 262.191 67.0341C261.764 67.1357 261.306 67.0239 260.981 66.7189L257.494 63.4454C256.619 62.6219 257.199 61.1479 258.399 61.1479H258.388ZM268.605 80.0163L259.11 80.0569C257.89 80.0569 257.311 78.5625 258.216 77.7492L261.753 74.5367C262.038 74.2724 262.435 74.1504 262.821 74.2012C263.482 74.2927 264.031 74.2927 264.752 74.191C265.129 74.13 265.525 74.252 265.81 74.5062L269.48 77.6984C270.405 78.5015 269.835 80.0163 268.616 80.0264L268.605 80.0163ZM275.579 76.3869C275.579 77.5255 274.237 78.1355 273.383 77.3832L266.836 71.6495C266.226 71.1208 266.237 70.1652 266.857 69.6468L273.414 64.0757C274.278 63.3437 275.6 63.9537 275.6 65.0822V76.3869H275.579ZM278.69 75.6448L278.67 65.3058C278.67 64.1367 280.063 63.5369 280.906 64.34L286.427 69.5451C286.986 70.0737 286.986 70.9582 286.427 71.4767L280.927 76.6207C280.083 77.4137 278.7 76.8139 278.69 75.655V75.6448ZM284.983 61.1275H294.122C295.312 61.1275 295.902 62.5813 295.037 63.4047L290.442 67.827C289.924 68.3252 289.111 68.315 288.602 67.827L284.068 63.4149C283.214 62.5813 283.804 61.1377 284.993 61.1377L284.983 61.1275ZM293.604 80.0976H284.515C283.336 80.1179 282.736 78.6845 283.58 77.8509L288.257 73.1948C288.785 72.6661 289.639 72.6864 290.158 73.2253L294.56 77.861C295.363 78.7048 294.763 80.0976 293.604 80.0976ZM297.223 76.4683L292.272 71.3445C291.754 70.8057 291.784 69.9517 292.333 69.4434L297.172 65.0212C298.016 64.2485 299.378 64.8382 299.389 65.9869L299.5 75.533C299.51 76.7326 298.057 77.3324 297.223 76.4683ZM198.713 57.4575C198.093 57.4575 197.554 57.0204 197.412 56.4206L194.616 43.6926L186.941 8.38547C186.717 7.34852 187.734 6.4844 188.72 6.87071L232.16 23.8685L310.012 54.8042C311.374 55.343 310.988 57.366 309.524 57.366L198.723 57.4677L198.713 57.4575ZM302.703 75.5736L302.642 65.4583C302.642 64.279 304.055 63.6792 304.888 64.5027L310.053 69.5248C310.581 70.0432 310.592 70.887 310.063 71.4157L304.96 76.5089C304.126 77.3425 302.703 76.7529 302.693 75.5736H302.703ZM316.996 80.0264L308.528 80.1179C307.359 80.1281 306.749 78.7455 307.542 77.8915L311.781 73.3167C312.3 72.7576 313.194 72.7474 313.723 73.3167L317.952 77.8C318.745 78.6438 318.155 80.0264 317.006 80.0366L316.996 80.0264ZM322.71 75.4415C322.71 76.6309 321.256 77.2104 320.422 76.3463L315.675 71.4055C315.166 70.8769 315.187 70.0331 315.715 69.5248L320.544 64.9602C321.398 64.157 322.791 64.767 322.781 65.9361L322.7 75.4415H322.71ZM332.632 61.1377L343.56 61.158C344.74 61.158 345.329 62.6016 344.496 63.4352C342.788 65.1228 341.019 66.6172 339.057 68.2337C338.559 68.6403 337.847 68.6403 337.359 68.2235L331.778 63.4759C330.832 62.6728 331.402 61.1377 332.642 61.1377H332.632ZM326.024 76.6004L325.983 65.3465C325.983 64.2282 327.284 63.6081 328.149 64.3197L334.757 69.7586C335.387 70.2771 335.407 71.2327 334.787 71.7715L328.22 77.5865C327.366 78.3388 326.014 77.739 326.014 76.6004H326.024ZM343.621 80.0772L333.333 80.1484C332.113 80.1484 331.534 78.6438 332.439 77.8305L337.461 73.3472C337.949 72.9101 338.691 72.8999 339.199 73.3167L344.465 77.7289C345.411 78.5218 344.852 80.0671 343.621 80.0671V80.0772ZM346.885 75.9396L341.588 71.7207C340.938 71.2022 340.917 70.2262 341.548 69.6874L345.797 65.9971C346.59 65.3058 347.84 65.7735 347.983 66.8206L349.03 74.74C349.182 75.9193 347.82 76.6919 346.885 75.9498V75.9396Z" fill="#00634C"/>
<path d="M660.791 469.998H186.551V172.331L361.001 45.6001H486.351L660.791 172.331V469.998Z" fill="#01654D" stroke="#00654A" stroke-miterlimit="10"/>
<path d="M535.43 172.333H660.78" stroke="#041023" stroke-linejoin="round"/>
<path d="M399.051 45.6001L573.491 172.331" stroke="#041023" stroke-miterlimit="10"/>
<path d="M444.369 45.6001L618.809 172.331" stroke="#041023" stroke-miterlimit="10"/>
<path d="M432.651 449.928C432.651 438.855 423.671 429.868 412.601 429.868C401.531 429.868 392.551 438.845 392.551 449.928C392.551 461.012 401.531 469.988 412.601 469.988C412.751 469.988 412.901 469.988 413.041 469.978L423.661 469.988V466.653C429.071 463.059 432.641 456.908 432.641 449.928H432.651Z" fill="#041023" stroke="#041023" stroke-miterlimit="10"/>
<path d="M519.289 449.928C519.289 438.855 510.309 429.868 499.239 429.868C488.169 429.868 479.189 438.845 479.189 449.928C479.189 461.012 488.169 469.988 499.239 469.988C499.389 469.988 499.539 469.988 499.679 469.978L510.299 469.988V466.653C515.709 463.059 519.279 456.908 519.279 449.928H519.289Z" fill="#041023" stroke="#041023" stroke-miterlimit="10"/>
<path d="M364.731 449.928C364.731 438.855 355.751 429.868 344.681 429.868C333.611 429.868 324.631 438.845 324.631 449.928C324.631 461.012 333.611 469.988 344.681 469.988C344.831 469.988 344.981 469.988 345.121 469.978L355.741 469.988V466.653C361.151 463.059 364.721 456.908 364.721 449.928H364.731Z" fill="#041023" stroke="#041023" stroke-miterlimit="10"/>
<path d="M505.111 426.034H366.891V449.918H505.111V426.034Z" fill="#041023" stroke="#041023" stroke-miterlimit="10"/>
<path d="M354.79 470C365.86 470 374.84 461.014 374.84 449.94C374.84 438.867 365.86 429.88 354.79 429.88C343.72 429.88 334.74 438.867 334.74 449.94C334.74 461.014 343.72 470 354.79 470Z" fill="#041023" stroke="#041023" stroke-miterlimit="10"/>
<path d="M509.7 470C520.77 470 529.75 461.014 529.75 449.94C529.75 438.867 520.77 429.88 509.7 429.88C498.63 429.88 489.65 438.867 489.65 449.94C489.65 461.014 498.63 470 509.7 470Z" fill="#041023" stroke="#041023" stroke-miterlimit="10"/>
<path d="M491.051 304.504H403.221V331.993H491.051V304.504Z" fill="#01654D" stroke="#00654A" stroke-miterlimit="10"/>
<path d="M316.299 331.992H423.369L392.289 449.927H304.449L286.189 393.201L316.289 331.982L316.299 331.992Z" fill="#01654D" stroke="#041023" stroke-miterlimit="10"/>
<path d="M362.13 353.86H332.15V392.902H362.13V353.86Z" fill="#E9BE51" stroke="#041023" stroke-miterlimit="10"/>
<path d="M337.29 360.292H312.25V392.903H337.29V360.292Z" fill="#E9BE51" stroke="#041023" stroke-miterlimit="10"/>
<path d="M381.88 353.86H351.9V392.902H381.88V353.86Z" fill="#E9BE51" stroke="#041023" stroke-miterlimit="10"/>
<path d="M404.019 353.86H374.039V392.902H404.019V353.86Z" fill="#E9BE51" stroke="#041023" stroke-miterlimit="10"/>
<path d="M351.94 334.958H337.42V353.86H351.94V334.958Z" fill="#E9BE51" stroke="#041023" stroke-miterlimit="10"/>
<path d="M374.799 321.518H349.949V353.869H374.799V321.518Z" fill="#E9BE51" stroke="#041023" stroke-miterlimit="10"/>
<path d="M394.55 314.828H364.57V353.87H394.55V314.828Z" fill="#E9BE51" stroke="#041023" stroke-miterlimit="10"/>
<path d="M416.691 314.828H386.711V353.87H416.691V314.828Z" fill="#E9BE51" stroke="#041023" stroke-miterlimit="10"/>
<path d="M435.769 314.828H405.789V353.87H435.769V314.828Z" fill="#E9BE51" stroke="#041023" stroke-miterlimit="10"/>
<path d="M403.06 299.913H373.08V314.831H403.06V299.913Z" fill="#E9BE51" stroke="#041023" stroke-miterlimit="10"/>
<path d="M425.21 299.913H395.23V314.831H425.21V299.913Z" fill="#E9BE51" stroke="#041023" stroke-miterlimit="10"/>
<path d="M444.281 299.913H414.301V314.831H444.281V299.913Z" fill="#E9BE51" stroke="#041023" stroke-miterlimit="10"/>
<path d="M408.679 284.982H378.699V299.9H408.679V284.982Z" fill="#E9BE51" stroke="#041023" stroke-miterlimit="10"/>
<path d="M430.83 284.982H400.85V299.9H430.83V284.982Z" fill="#E9BE51" stroke="#041023" stroke-miterlimit="10"/>
<path d="M440.51 289.667H419.93V299.911H440.51V289.667Z" fill="#E9BE51" stroke="#041023" stroke-miterlimit="10"/>
<path d="M466.781 299.913H436.801V314.831H466.781V299.913Z" fill="#E9BE51" stroke="#041023" stroke-miterlimit="10"/>
<path d="M456.58 314.828H426.6V353.87H456.58V314.828Z" fill="#E9BE51" stroke="#041023" stroke-miterlimit="10"/>
<path d="M482.281 314.828H452.301V353.87H482.281V314.828Z" fill="#E9BE51" stroke="#041023" stroke-miterlimit="10"/>
<path d="M424.31 470C435.38 470 444.36 461.014 444.36 449.94C444.36 438.867 435.38 429.88 424.31 429.88C413.24 429.88 404.26 438.867 404.26 449.94C404.26 461.014 413.24 470 424.31 470Z" fill="#01654D" stroke="#041023" stroke-miterlimit="10"/>
<path d="M523.229 304.504H490.979V331.993H404.139L374.039 393.212L392.299 449.927H400.259C400.259 436.637 411.029 425.863 424.309 425.863C437.589 425.863 448.359 436.637 448.359 449.927H511.209V316.686H523.229V304.504Z" fill="#EAE2CF" stroke="#041023" stroke-miterlimit="10"/>
<path d="M374.039 393.211H286.199" stroke="#041023" stroke-miterlimit="10"/>
<path d="M424.32 460.163C429.97 460.163 434.55 455.58 434.55 449.928C434.55 444.277 429.97 439.693 424.32 439.693C418.67 439.693 414.09 444.277 414.09 449.928C414.09 455.58 418.67 460.163 424.32 460.163Z" fill="#EAE2CF" stroke="#041023" stroke-miterlimit="10"/>
<path d="M422.1 356.949C422.1 354.303 419.96 352.156 417.31 352.156C414.66 352.156 412.52 354.303 412.52 356.949V396.25C412.52 398.896 414.66 401.043 417.31 401.043C419.96 401.043 422.1 398.896 422.1 396.25V356.949Z" fill="#EAE2CF" stroke="#041023" stroke-miterlimit="10"/>
<path d="M456.58 356.949C456.58 354.303 454.44 352.156 451.79 352.156C449.14 352.156 447 354.303 447 356.949V396.25C447 398.896 449.14 401.043 451.79 401.043C454.44 401.043 456.58 398.896 456.58 396.25V356.949Z" fill="#EAE2CF" stroke="#041023" stroke-miterlimit="10"/>
<path d="M491.06 356.949C491.06 354.303 488.92 352.156 486.27 352.156C483.62 352.156 481.48 354.303 481.48 356.949V396.25C481.48 398.896 483.62 401.043 486.27 401.043C488.92 401.043 491.06 398.896 491.06 396.25V356.949Z" fill="#EAE2CF" stroke="#041023" stroke-miterlimit="10"/>
<path d="M295.221 421.232H511.221" stroke="#041023" stroke-miterlimit="10"/>
<path d="M304.459 449.928H293.449" stroke="#041023" stroke-miterlimit="10"/>
<path d="M352.959 426.225H317.439V444.558H352.959V426.225Z" fill="#EAE2CF" stroke="#041023" stroke-miterlimit="10"/>
<path d="M346.229 432.195C345.999 432.145 345.769 432.055 345.569 431.946C345.569 431.916 345.579 431.866 345.579 431.836C345.579 431.746 345.529 431.626 345.439 431.586C345.259 431.506 345.069 431.426 344.889 431.336C344.769 431.287 344.639 431.286 344.539 431.386C344.459 431.466 344.419 431.636 344.489 431.736C344.599 431.876 344.719 432.015 344.849 432.135C344.819 432.165 344.779 432.195 344.749 432.215C344.699 432.245 344.679 432.255 344.649 432.265C344.619 432.265 344.599 432.275 344.579 432.285C344.579 432.285 344.549 432.285 344.539 432.285H344.419C344.419 432.285 344.369 432.275 344.349 432.275C344.349 432.275 344.319 432.265 344.309 432.265C344.169 432.195 344.089 432.075 344.059 431.926C344.059 431.906 344.059 431.886 344.049 431.866V431.706C344.049 431.706 344.069 431.636 344.079 431.606C344.079 431.606 344.099 431.556 344.109 431.556C344.109 431.556 344.159 431.486 344.139 431.516C344.149 431.496 344.169 431.476 344.189 431.456C344.379 431.187 343.949 430.847 343.729 431.107C343.719 431.127 343.699 431.147 343.689 431.167C343.379 431.586 342.999 431.926 342.559 432.195C342.559 431.846 342.559 431.496 342.549 431.147C342.549 430.897 342.229 430.757 342.059 430.947C341.649 431.386 341.149 431.746 340.599 432.005C340.479 431.636 340.169 431.326 339.759 431.287C339.549 431.267 339.349 431.316 339.169 431.426C339.049 431.306 338.909 431.217 338.729 431.197C338.399 431.147 338.069 431.257 337.809 431.476C337.759 431.516 337.709 431.566 337.669 431.616C337.649 431.586 337.629 431.566 337.609 431.536C337.509 431.436 337.389 431.356 337.259 431.306C336.999 431.087 336.549 431.127 336.419 431.516C336.359 431.706 336.569 431.956 336.769 431.876C336.809 431.866 336.849 431.846 336.889 431.846C336.859 432.025 336.749 432.215 336.609 432.305C336.489 432.375 336.319 432.395 336.219 432.295C336.189 432.265 336.179 432.225 336.189 432.175C336.189 432.135 336.199 432.105 336.239 432.075C336.519 431.906 336.339 431.466 336.019 431.556C335.619 431.656 335.229 431.826 334.889 432.045C335.049 431.716 335.219 431.396 335.389 431.077C335.589 430.787 335.749 430.468 335.869 430.128C335.979 429.819 335.499 429.619 335.349 429.909C335.189 430.208 335.039 430.508 334.889 430.807C334.529 431.316 334.029 431.726 333.449 431.985C333.509 431.786 333.569 431.596 333.629 431.396C333.719 431.107 333.349 430.927 333.149 431.117C332.869 431.376 332.559 431.596 332.229 431.776C331.919 431.946 331.539 432.125 331.189 432.165H331.119C331.119 432.165 331.129 432.155 331.139 432.145C331.529 431.796 331.869 431.416 332.179 431.007C332.339 430.797 332.519 430.568 332.549 430.298C332.579 430.008 332.399 429.749 332.109 429.669C331.849 429.599 331.589 429.689 331.379 429.829C331.179 429.968 330.989 430.118 330.799 430.268C330.429 430.578 330.129 430.967 330.069 431.456C330.039 431.686 330.079 431.926 330.179 432.135C330.169 432.135 330.149 432.145 330.139 432.155C329.839 432.315 329.449 432.375 329.169 432.185C329.049 432.095 328.989 431.995 328.969 431.846V431.726C329.019 431.646 329.079 431.566 329.129 431.476C329.259 431.237 329.039 431.017 328.819 431.057C328.819 431.027 328.809 430.987 328.789 430.957C328.729 430.857 328.589 430.777 328.459 430.827C328.019 430.987 327.619 431.227 327.289 431.546C327.189 431.646 327.079 431.766 326.989 431.886C326.809 431.965 326.619 432.025 326.429 432.075C326.229 432.125 325.989 432.185 325.799 432.075C325.649 431.995 325.589 431.816 325.579 431.646C325.579 431.426 325.689 431.187 325.819 430.977C325.949 430.767 326.099 430.558 326.269 430.378C326.409 430.218 326.589 430.068 326.789 430.028C326.959 429.998 327.149 430.098 327.209 430.278C327.259 430.438 327.179 430.647 326.999 430.717C326.859 430.767 326.759 430.917 326.799 431.067C326.839 431.207 327.009 431.326 327.149 431.267C327.479 431.147 327.729 430.867 327.779 430.518C327.829 430.168 327.679 429.819 327.389 429.609C326.759 429.16 326.059 429.689 325.669 430.178C325.269 430.687 324.809 431.356 325.059 432.025C325.179 432.365 325.449 432.615 325.809 432.664C326.149 432.714 326.499 432.634 326.829 432.525C326.849 432.525 326.869 432.515 326.889 432.505C326.929 432.595 326.999 432.674 327.089 432.724C327.459 432.944 327.899 432.694 328.199 432.475C328.299 432.405 328.379 432.325 328.469 432.255C328.489 432.285 328.499 432.325 328.529 432.355C328.809 432.774 329.329 432.914 329.809 432.844C330.069 432.804 330.309 432.704 330.529 432.565C331.009 432.874 331.639 432.634 332.119 432.425C332.349 432.325 332.579 432.205 332.789 432.065C332.759 432.165 332.739 432.245 332.699 432.345C332.629 432.555 332.849 432.754 333.049 432.694C333.419 432.595 333.769 432.445 334.099 432.245C333.899 432.625 333.709 433.004 333.519 433.383C333.349 433.713 333.829 433.992 334.019 433.673C334.389 433.044 334.959 432.555 335.619 432.265C335.639 432.405 335.689 432.535 335.789 432.644C336.099 433.004 336.659 432.974 337.009 432.694C337.089 432.644 337.149 432.565 337.209 432.485C337.229 432.555 337.269 432.615 337.339 432.654C337.469 432.724 337.659 432.684 337.729 432.555C337.889 432.245 338.099 431.796 338.489 431.756C338.629 431.736 338.709 431.776 338.769 431.856C338.699 431.995 338.659 432.145 338.669 432.305C338.669 432.575 338.969 432.654 339.159 432.505C339.319 432.375 339.389 432.175 339.389 431.965C339.479 431.886 339.589 431.826 339.719 431.846C339.919 431.876 340.109 432.135 340.069 432.335C340.029 432.535 340.199 432.774 340.419 432.684C340.979 432.475 341.509 432.175 341.969 431.796C341.969 432.085 341.969 432.375 341.969 432.664C341.969 432.894 342.209 433.004 342.399 432.914C342.809 432.724 343.199 432.475 343.529 432.165C343.619 432.425 343.809 432.664 344.059 432.784C344.519 432.994 345.029 432.824 345.319 432.475C345.549 432.615 345.799 432.714 346.079 432.764C346.229 432.794 346.389 432.714 346.429 432.555C346.469 432.415 346.379 432.235 346.229 432.205H346.239L346.229 432.195ZM330.619 431.736C330.589 431.636 330.589 431.496 330.619 431.396C330.649 431.237 330.729 431.107 330.819 430.977C331.029 430.707 331.329 430.488 331.609 430.298C331.679 430.248 331.749 430.198 331.819 430.178C331.859 430.168 331.889 430.158 331.929 430.178C331.929 430.198 331.919 430.228 331.909 430.258C331.879 430.338 331.809 430.418 331.769 430.488C331.539 430.817 331.279 431.117 330.999 431.396C330.879 431.516 330.759 431.636 330.629 431.746L330.619 431.736Z" fill="#FF6552"/>
<path d="M321.08 438.395L321.91 438.295C322.01 438.944 322.31 439.274 322.83 439.274C323.09 439.274 323.29 439.204 323.44 439.074C323.59 438.934 323.66 438.775 323.66 438.575C323.66 438.455 323.63 438.355 323.59 438.275C323.54 438.195 323.46 438.125 323.36 438.076C323.26 438.026 323 437.936 322.6 437.806C322.24 437.696 321.97 437.586 321.8 437.456C321.63 437.327 321.5 437.157 321.4 436.957C321.3 436.758 321.25 436.518 321.25 436.288C321.25 436.009 321.31 435.759 321.44 435.529C321.57 435.31 321.74 435.14 321.96 435.03C322.18 434.91 322.46 434.86 322.79 434.86C323.29 434.86 323.67 435 323.95 435.26C324.23 435.529 324.37 435.909 324.39 436.408L323.54 436.458C323.51 436.188 323.42 435.989 323.3 435.879C323.18 435.769 323 435.719 322.77 435.719C322.54 435.719 322.37 435.769 322.24 435.859C322.12 435.959 322.06 436.069 322.06 436.208C322.06 436.348 322.11 436.468 322.23 436.558C322.34 436.658 322.6 436.758 323.01 436.867C323.44 436.987 323.74 437.117 323.93 437.257C324.12 437.397 324.26 437.566 324.36 437.786C324.46 438.006 324.51 438.265 324.51 438.565C324.51 439.004 324.37 439.384 324.1 439.683C323.83 439.993 323.4 440.142 322.82 440.142C321.79 440.142 321.22 439.553 321.1 438.385L321.08 438.395Z" fill="#01654D"/>
<path d="M325.199 440.065V434.942H326.039V436.959H327.709V434.942H328.549V440.065H327.709V437.828H326.039V440.065H325.199Z" fill="#01654D"/>
<path d="M329.26 437.527C329.26 436.918 329.35 436.409 329.53 436.02C329.71 435.63 329.94 435.331 330.24 435.131C330.53 434.931 330.89 434.841 331.3 434.841C331.9 434.841 332.39 435.071 332.77 435.53C333.15 435.99 333.34 436.649 333.34 437.487C333.34 438.326 333.14 439.015 332.74 439.504C332.39 439.934 331.91 440.143 331.3 440.143C330.69 440.143 330.21 439.934 329.86 439.514C329.46 439.035 329.26 438.376 329.26 437.527ZM330.13 437.497C330.13 438.086 330.25 438.536 330.46 438.825C330.68 439.115 330.96 439.265 331.3 439.265C331.64 439.265 331.91 439.125 332.13 438.825C332.35 438.536 332.46 438.086 332.46 437.477C332.46 436.868 332.35 436.439 332.14 436.159C331.93 435.87 331.65 435.73 331.3 435.73C330.95 435.73 330.67 435.87 330.46 436.159C330.24 436.449 330.13 436.888 330.13 437.497Z" fill="#01654D"/>
<path d="M335.08 440.065L333.58 434.942H334.5L335.56 438.737L336.59 434.942H337.49L335.98 440.065H335.08Z" fill="#01654D"/>
<path d="M337.92 440.065V434.942H341.03V435.811H338.76V436.949H340.87V437.818H338.76V439.206H341.11V440.075H337.91L337.92 440.065Z" fill="#01654D"/>
<path d="M341.86 440.064V434.981H342.7V439.195H344.81V440.064H341.85H341.86Z" fill="#01654D"/>
<path d="M345.199 438.395L346.029 438.295C346.129 438.944 346.429 439.274 346.949 439.274C347.209 439.274 347.409 439.204 347.559 439.074C347.709 438.934 347.779 438.775 347.779 438.575C347.779 438.455 347.749 438.355 347.709 438.275C347.659 438.195 347.579 438.125 347.479 438.076C347.379 438.026 347.119 437.936 346.719 437.806C346.359 437.696 346.089 437.586 345.919 437.456C345.749 437.327 345.619 437.157 345.519 436.957C345.419 436.758 345.369 436.518 345.369 436.288C345.369 436.009 345.429 435.759 345.559 435.529C345.689 435.31 345.859 435.14 346.079 435.03C346.299 434.91 346.579 434.86 346.909 434.86C347.409 434.86 347.789 435 348.069 435.26C348.349 435.519 348.489 435.909 348.509 436.408L347.659 436.458C347.629 436.188 347.539 435.989 347.419 435.879C347.299 435.769 347.119 435.719 346.889 435.719C346.659 435.719 346.489 435.769 346.359 435.859C346.239 435.959 346.179 436.069 346.179 436.208C346.179 436.348 346.229 436.468 346.349 436.558C346.459 436.658 346.719 436.758 347.129 436.867C347.559 436.987 347.859 437.117 348.049 437.257C348.239 437.397 348.379 437.566 348.479 437.786C348.579 438.006 348.629 438.265 348.629 438.565C348.629 439.004 348.489 439.384 348.219 439.683C347.949 439.983 347.519 440.142 346.939 440.142C345.909 440.142 345.339 439.553 345.219 438.385L345.199 438.395Z" fill="#01654D"/>
<path d="M380.721 413.953C381.471 413.703 382.261 413.583 383.091 413.583C387.311 413.583 390.731 417.008 390.731 421.232C390.731 424.517 388.661 427.313 385.761 428.401" stroke="#041023" stroke-miterlimit="10"/>
<path d="M582.47 234.896H551.18V268.776H582.47V234.896Z" fill="#E9BE51" stroke="#041023" stroke-miterlimit="10"/>
<path d="M613.761 234.896H582.471V268.776H613.761V234.896Z" fill="#E9BE51" stroke="#041023" stroke-miterlimit="10"/>
<path d="M645.04 234.896H613.75V268.776H645.04V234.896Z" fill="#E9BE51" stroke="#041023" stroke-miterlimit="10"/>
<path d="M360.989 45.6001L186.539 172.331V469.998H243.199V235.637H478.759V469.998H535.419V172.331L360.979 45.6001H360.989Z" fill="#EAE2CF" stroke="#041023" stroke-linejoin="round"/>
<path d="M367.87 169.244L362.43 170.702L366.14 184.531L371.58 183.074L367.87 169.244Z" fill="#E9BE51"/>
<path d="M286.47 196.764C286.79 198.871 288.16 200.099 290.68 200.099C292.88 200.099 294.43 199.001 294.43 197.164C294.43 195.706 293.65 194.917 291.96 194.468L288.57 193.559C284.64 192.551 282.43 190.623 282.43 186.969C282.43 182.795 286 180.189 290.53 180.189C295.43 180.189 298.18 183.025 298.63 187.009H293.73C293.64 185.591 292.68 184.223 290.67 184.223C288.89 184.223 287.7 185.182 287.7 186.699C287.7 188.117 288.52 188.666 290.17 189.126L294.25 190.274C297.91 191.282 299.7 193.389 299.7 196.684C299.7 201.218 295.4 204.143 290.73 204.143C286.06 204.143 282.17 201.947 281.58 196.774H286.48H286.46L286.47 196.764Z" fill="#01654D" stroke="#00654A" stroke-miterlimit="10"/>
<path d="M309.43 203.576H303.66V169.287H309.43V184.445C310.67 181.749 313.32 180.181 316.84 180.181C322.33 180.181 325.4 184.205 325.4 189.886V203.576H319.63V190.855C319.63 187.61 318.17 185.223 314.73 185.223C311.62 185.223 309.43 187.47 309.43 190.805V203.576Z" fill="#01654D" stroke="#00654A" stroke-miterlimit="10"/>
<path d="M329.359 192.181C329.359 185.95 334.029 180.189 341.889 180.189C349.749 180.189 354.419 185.96 354.419 192.181C354.419 198.402 349.759 204.133 341.889 204.133C334.019 204.133 329.359 198.362 329.359 192.181ZM334.979 192.181C334.979 195.896 337.449 199.32 341.889 199.32C346.329 199.32 348.799 195.896 348.799 192.181C348.799 188.467 346.329 184.992 341.889 184.992C337.449 184.992 334.979 188.477 334.979 192.181Z" fill="#01654D" stroke="#00654A" stroke-miterlimit="10"/>
<path d="M390.53 194.098C390.9 197.533 393.1 199.87 397.16 199.87C399.95 199.87 402.1 198.632 403.2 196.894H408.55C407 200.968 402.6 204.133 397.16 204.133C389.38 204.133 384.85 198.961 384.85 192.141C384.85 185.321 389.84 180.189 396.89 180.189C403.94 180.189 408.88 185.182 408.88 192.231V194.108H390.53V194.098ZM390.48 190.304H403.38C403.01 186.779 400.68 184.303 396.97 184.303C393.26 184.303 390.93 186.599 390.47 190.304H390.48Z" fill="#01654D" stroke="#00654A" stroke-miterlimit="10"/>
<path d="M412.811 203.576V169.287H418.581V203.576H412.811Z" fill="#01654D" stroke="#00654A" stroke-miterlimit="10"/>
<path d="M427.37 196.764C427.69 198.871 429.06 200.099 431.58 200.099C433.78 200.099 435.33 199.001 435.33 197.164C435.33 195.706 434.55 194.917 432.86 194.468L429.47 193.559C425.54 192.551 423.34 190.623 423.34 186.969C423.34 182.795 426.91 180.189 431.44 180.189C436.34 180.189 439.08 183.025 439.54 187.009H434.64C434.55 185.591 433.58 184.223 431.58 184.223C429.8 184.223 428.61 185.182 428.61 186.699C428.61 188.117 429.43 188.666 431.08 189.126L435.16 190.274C438.82 191.282 440.61 193.389 440.61 196.684C440.61 201.218 436.31 204.143 431.64 204.143C426.97 204.143 423.08 201.947 422.49 196.774H427.39H427.37V196.764Z" fill="#01654D" stroke="#00654A" stroke-miterlimit="10"/>
<path d="M374.919 182.267C376.569 190.495 374.319 195.478 372.699 198.174C369.939 196.636 365.489 193.421 362.809 185.333C362.569 185.333 362.329 185.353 362.079 185.353C360.229 185.353 358.469 185.183 356.789 184.883C360.399 198.283 368.349 202.317 371.349 203.835L371.469 203.905C372.039 204.195 372.659 204.334 373.259 204.334C374.559 204.334 375.819 203.695 376.569 202.537L376.659 202.397C378.499 199.572 383.389 192.083 379.819 178.703C378.369 180.081 376.709 181.299 374.869 182.287L374.899 182.267H374.919Z" fill="#01654D" stroke="#00654A" stroke-miterlimit="10"/>
<path d="M0 470H678" stroke="#041023" stroke-linejoin="round"/>
</svg>
