<svg width="32" height="32" viewBox="0 0 32 32" fill="none" xmlns="http://www.w3.org/2000/svg">
<path d="M16.0003 2.6665C12.5822 2.67625 9.29831 3.99839 6.82699 6.35984V3.99984C6.82699 3.64622 6.68652 3.30708 6.43647 3.05703C6.18642 2.80698 5.84728 2.6665 5.49366 2.6665C5.14004 2.6665 4.8009 2.80698 4.55085 3.05703C4.3008 3.30708 4.16033 3.64622 4.16033 3.99984V9.99984C4.16033 10.3535 4.3008 10.6926 4.55085 10.9426C4.8009 11.1927 5.14004 11.3332 5.49366 11.3332H11.4937C11.8473 11.3332 12.1864 11.1927 12.4365 10.9426C12.6865 10.6926 12.827 10.3535 12.827 9.99984C12.827 9.64622 12.6865 9.30708 12.4365 9.05703C12.1864 8.80698 11.8473 8.6665 11.4937 8.6665H8.29366C10.008 6.87498 12.293 5.73671 14.7557 5.4474C17.2184 5.15808 19.705 5.7358 21.7879 7.08123C23.8708 8.42666 25.4198 10.4557 26.1688 12.8196C26.9177 15.1834 26.8197 17.7343 25.8915 20.0337C24.9634 22.3331 23.2632 24.2373 21.0832 25.4189C18.9032 26.6005 16.3796 26.9857 13.9464 26.5083C11.5132 26.0308 9.32228 24.7206 7.75045 22.8028C6.17861 20.885 5.32404 18.4795 5.33366 15.9998C5.33366 15.6462 5.19318 15.3071 4.94313 15.057C4.69309 14.807 4.35395 14.6665 4.00033 14.6665C3.6467 14.6665 3.30756 14.807 3.05752 15.057C2.80747 15.3071 2.66699 15.6462 2.66699 15.9998C2.66699 18.6369 3.44898 21.2148 4.91406 23.4074C6.37915 25.6001 8.46153 27.3091 10.8979 28.3182C13.3342 29.3274 16.0151 29.5914 18.6015 29.077C21.1879 28.5625 23.5637 27.2926 25.4284 25.4279C27.2931 23.5632 28.563 21.1875 29.0775 18.601C29.5919 16.0146 29.3279 13.3337 28.3187 10.8974C27.3096 8.46104 25.6006 6.37866 23.4079 4.91358C21.2153 3.44849 18.6374 2.6665 16.0003 2.6665ZM16.0003 10.6665C15.6467 10.6665 15.3076 10.807 15.0575 11.057C14.8075 11.3071 14.667 11.6462 14.667 11.9998V15.9998C14.667 16.3535 14.8075 16.6926 15.0575 16.9426C15.3076 17.1927 15.6467 17.3332 16.0003 17.3332H18.667C19.0206 17.3332 19.3598 17.1927 19.6098 16.9426C19.8598 16.6926 20.0003 16.3535 20.0003 15.9998C20.0003 15.6462 19.8598 15.3071 19.6098 15.057C19.3598 14.807 19.0206 14.6665 18.667 14.6665H17.3337V11.9998C17.3337 11.6462 17.1932 11.3071 16.9431 11.057C16.6931 10.807 16.3539 10.6665 16.0003 10.6665Z" fill="#01654D"/>
</svg>
