<svg width="32" height="32" viewBox="0 0 32 32" fill="none" xmlns="http://www.w3.org/2000/svg">
<path d="M28.8798 13.6668L16.8798 3.0001C16.6365 2.78634 16.3237 2.66846 15.9998 2.66846C15.676 2.66846 15.3632 2.78634 15.1198 3.0001L3.11983 13.6668C2.91588 13.8472 2.77206 14.0857 2.7077 14.3503C2.64334 14.6149 2.66153 14.8928 2.75983 15.1468C2.85652 15.3974 3.02664 15.6129 3.2479 15.7652C3.46916 15.9174 3.73125 15.9993 3.99983 16.0001H5.33317V28.0001C5.33317 28.3537 5.47364 28.6929 5.72369 28.9429C5.97374 29.193 6.31288 29.3334 6.6665 29.3334H25.3332C25.6868 29.3334 26.0259 29.193 26.276 28.9429C26.526 28.6929 26.6665 28.3537 26.6665 28.0001V16.0001H27.9998C28.2684 15.9993 28.5305 15.9174 28.7518 15.7652C28.973 15.6129 29.1431 15.3974 29.2398 15.1468C29.3381 14.8928 29.3563 14.6149 29.292 14.3503C29.2276 14.0857 29.0838 13.8472 28.8798 13.6668ZM17.3332 26.6668H14.6665V22.6668C14.6665 22.3131 14.807 21.974 15.057 21.724C15.3071 21.4739 15.6462 21.3334 15.9998 21.3334C16.3535 21.3334 16.6926 21.4739 16.9426 21.724C17.1927 21.974 17.3332 22.3131 17.3332 22.6668V26.6668ZM23.9998 26.6668H19.9998V22.6668C19.9998 21.6059 19.5784 20.5885 18.8283 19.8383C18.0781 19.0882 17.0607 18.6668 15.9998 18.6668C14.939 18.6668 13.9216 19.0882 13.1714 19.8383C12.4213 20.5885 11.9998 21.6059 11.9998 22.6668V26.6668H7.99983V16.0001H23.9998V26.6668ZM7.5065 13.3334L15.9998 5.78677L24.4932 13.3334H7.5065Z" fill="#01654D"/>
</svg>
