<svg width="737" height="675" viewBox="0 0 737 675" fill="none" xmlns="http://www.w3.org/2000/svg">
<g clip-path="url(#clip0_2463_442)">
<path opacity="0.12" d="M719.121 591.19H684.191V581.57H684.401L684.371 559.7H684.221L684.251 545.23H647.551V536.69H684.401V515.69L647.541 515.72V493.9L684.411 493.87V475.11H646.631L621.751 401.92C621.011 401.4 619.141 401.44 618.621 402.01L593.471 475.09L554.741 475.12V493.87L591.531 493.85L591.551 515.71H554.731L554.711 536.66L591.531 536.72V545.22H554.401V589.91L547.721 589.9L547.651 598.04L546.351 598.06V568.3L539.091 568.19L538.181 567.51L538.131 553.35L531.541 553.38L531.521 562.53L531.301 562.37C531.061 560.91 530.981 557.82 529.701 557.08C526.131 555 519.301 555.64 519.161 557.04L518.851 560.15C516.971 560.39 513.541 560.96 512.591 562.3C511.641 563.64 511.681 567.55 510.931 569.01L509.621 571.55C509.391 571.99 510.181 572.86 510.551 573.39L509.251 576.66C508.991 577.32 510.141 578.71 510.141 579.42L510.231 592.72C511.291 592.53 507.941 593.16 506.901 593.36C504.391 593.83 507.251 585.67 504.341 577.5C503.871 577.33 503.391 577.17 502.921 577.03V546.25H503.251V303.34L512.251 302.95L512.311 266.45L535.591 266.4L569.181 266.37H602.751L630.011 266.4V310.43C630.011 311.72 631.851 313.35 633.181 313.35L680.561 313.33C682.271 313.33 683.891 311.53 683.891 309.99V266.5L694.031 266.38C694.821 266.38 696.371 265.55 696.651 264.87C697.021 264.01 696.701 262.52 696.551 261.35L693.451 235.87C693.201 233.8 691.021 232.95 689.161 232.96L662.131 233.03L631.921 221.05L546.831 187.3L490.631 165.61C490.231 163.11 488.951 162.07 486.711 161.85C484.421 161.63 482.621 163.01 482.011 165.51L456.121 174.67L363.141 208.46L301.751 230.8C300.341 231.31 299.321 233.37 299.321 234.78V263.62C299.311 265.25 300.261 266.42 302.121 266.42L460.621 266.4V300.84C460.621 301.91 461.501 303.03 462.371 303.22L471.061 303.28L471.141 545.25H470.891L470.931 593.09L465.311 594.42V572.88L465.291 571.51C465.291 571.43 465.171 571.37 465.011 571.33V545.25H452.121V469.92L447.481 469.79L447.091 438.25L442.551 437.9L442.011 421.34L441.531 414.55L435.231 414.38L433.841 387.73C433.801 387.02 433.561 385.66 433.081 385.39C432.501 385.06 431.171 384.99 429.811 384.97L416.471 337.93C415.831 335.66 416.171 332.04 416.131 329.68L415.801 310.22C414.291 309.66 412.281 309.68 410.851 310.36C410.821 319.95 410.751 328.62 410.141 337.96L397.481 384.93C395.911 384.92 393.991 385.25 393.191 386.2L391.931 414.37L386.281 414.44L385.491 438.17L377.611 438.23L377.701 500.77L361.201 500.86V537.56L329.351 540.81L328.611 545.26H310.901V568.11L297.971 568.31V618.76C297.361 618.7 296.751 618.65 296.131 618.63C296.811 614.49 296.641 611.08 293.741 609.07C291.191 607.3 288.151 606.61 285.511 607.53L282.941 600.94L282.621 574.26L275.621 573.85L269.901 566.68C267.031 570.07 262.841 570.67 261.691 568.71L254.701 556.69C253.421 554.49 252.531 550.21 248.841 550.9V550.32H242.591L242.491 555.56C241.831 556.38 241.201 557.22 240.591 557.99C238.321 560.87 237.721 561.57 236.771 566.37C235.651 566.4 231.391 565.27 229.861 564.22C228.541 563.31 228.031 559.53 227.891 558.54L209.211 559.67L208.891 569.5C208.091 568.63 206.631 566.87 206.321 567.37L204.611 570.11L204.581 616.99L192.341 617.54L191.971 659.89C187.661 661.55 184.551 660.62 183.191 658.23C183.761 657.35 184.751 656.11 184.671 655.54L184.331 653.27V641.96L184.401 597.15L184.081 594.97C184.001 594.42 184.871 593.16 185.721 591.35L175.501 589.18C172.021 585.52 164.531 585.32 163.541 586.53L160.701 590.04C158.231 587.82 155.881 586.34 153.041 586.2C150.391 586.07 148.051 588.12 146.181 590.36L138.071 592.8L124.021 596.3C125.011 598.76 125.331 599.8 125.311 601.52L125.101 622.43L125.791 625.22L125.161 627.95L106.571 576.92L105.691 561.14L96.9006 566.45L94.5006 564.79C91.7506 568.63 88.7406 572.35 84.6306 575.01L84.5506 673.78L68.8906 673.69V673.9H607.691V672.67H684.151V671.72H719.161V591.22L719.121 591.19ZM504.081 238.9L517.021 249.03L504.231 259.8L504.081 238.9ZM508.151 237.46L530.951 237.48L519.561 246.91L508.151 237.46ZM508.571 260.94L519.661 251.45L530.961 260.88L508.571 260.94ZM534.601 259.08L522.261 249.17L534.661 238.96L534.601 259.08ZM538.841 238.31L551.471 248.73L538.961 259.73L538.851 238.31H538.841ZM543.381 237.43L565.051 237.55L554.151 246.65L543.381 237.43ZM543.041 260.9L554.101 251.05L565.021 260.77L543.051 260.9H543.041ZM568.501 259.05L556.761 248.95L568.631 239.49L568.501 259.04V259.05ZM572.351 240.57L581.791 249.17L572.351 258.43V240.58V240.57ZM574.261 237.45L596.021 237.47L586.361 245.54C585.021 244.56 583.801 244.37 582.301 245L574.251 237.45H574.261ZM575.051 260.87L583.161 253.49C584.581 253.74 585.441 253.77 587.011 253.46L595.421 260.78L575.051 260.86V260.87ZM599.691 259.94L587.431 249.2L599.701 238.78V259.94H599.691ZM603.511 238.79L614.381 249.05L603.541 259.18L603.501 238.8L603.511 238.79ZM607.291 237.44H626.711L616.931 246.83L607.281 237.44H607.291ZM606.761 260.93L616.571 251.18L625.811 260.9L606.761 260.93ZM619.181 248.87L629.121 239.79L629.351 259.39L619.181 248.87ZM633.161 238.87L643.551 248.98L633.281 259.23L633.161 238.87ZM636.661 260.98L645.691 251.23L654.701 260.78L636.661 260.98ZM666.811 261L677.321 251.61L688.351 260.86L666.811 261.01V261ZM691.121 258.3L679.841 249.31L688.891 241.44L691.111 258.3H691.121ZM687.631 237.48C684.391 241.18 681.111 243.89 677.191 247.1L665.831 237.44L687.631 237.48ZM674.411 249.34L662.131 260.22L662.051 239.17L674.411 249.35V249.34ZM657.981 259.18L648.171 248.97L658.141 239.53L657.981 259.18ZM645.971 246.81L636.721 237.45L655.141 237.49L645.961 246.81H645.971ZM545.961 191.32L650.241 232.76L503.251 232.9L499.501 215.86L489.351 169.17L545.961 191.31V191.32ZM486.321 175.98L498.941 232.9L475.011 232.94L480.441 206.28L486.321 175.98ZM475.571 328.97L475.451 307.18L484.521 318.58L475.571 328.97ZM486.941 321.08L496.991 332.98L476.641 333.03L486.941 321.07V321.08ZM484.681 350.43L475.541 360.18V340.64L484.681 350.44V350.43ZM484.531 381.45L475.591 392.04L475.481 371.05L484.531 381.45ZM484.581 502.81L475.561 512.94L475.591 493.48L484.581 502.81ZM478.071 491.41L495.751 491.38L487.021 500.67L478.071 491.4V491.41ZM475.571 464.75L484.591 473.79L475.601 483.33L475.571 464.75ZM475.511 454.27L475.491 433.84L484.691 443.95L475.511 454.27ZM475.521 403.55L484.521 412.85L475.581 422.38L475.511 403.56L475.521 403.55ZM484.391 534.21L475.561 543.33L475.481 524.25L484.391 534.21ZM477.421 546.23L477.541 546.1L483.061 546.15L477.421 546.22H491.071L496.671 546.27L486.751 556.77L476.681 546.22H477.421V546.23ZM478.401 545.23L486.851 536.62L495.771 545.23H478.411H478.401ZM476.781 520.57H497.241L486.911 531.82L476.781 520.57ZM476.671 516.69L486.921 505.26L497.571 516.62L476.671 516.68V516.69ZM489.301 503.07L498.771 493.19L498.851 512.94L489.301 503.06V503.07ZM476.221 487.5L486.821 476.24L497.431 487.35L476.221 487.5ZM477.591 461.88L496.771 461.8L486.841 471.57L477.591 461.88ZM476.631 458.01L486.851 446.25L497.431 457.92L476.631 458.01ZM489.311 444.06L498.841 433.71L498.811 454.11L489.311 444.06ZM487.011 441.61L476.411 430L497.491 430.05L487.011 441.61ZM476.801 426.03L486.861 415.13L496.751 425.99L476.801 426.03ZM486.751 410.6L476.871 399.96L497.261 399.99L486.741 410.6H486.751ZM476.381 396.13L486.901 383.95L497.521 396.03L476.381 396.13ZM476.171 366.98L497.911 367.02L486.941 379.2L476.171 366.98ZM477.321 363.17L486.991 352.63L496.881 363.11L477.331 363.17H477.321ZM476.451 336.78L498.141 336.8L487.051 348.29L476.451 336.77V336.78ZM489.191 318.43L498.911 307.1L498.761 329.57L489.191 318.43ZM486.881 315.91L476.481 303.23H497.871L486.881 315.91ZM477.191 260.99L486.921 251.73L496.531 260.9L477.191 260.99ZM477.321 237.42L497.211 237.47L487.311 246.94L477.321 237.42ZM364.211 212.18L468.161 174.36L412.201 208.4L371.331 232.9L307.751 232.65L364.211 212.17V212.18ZM363.401 237.47L351.331 246.89L340.631 237.47H363.391H363.401ZM328.321 237.55C324.891 240.92 321.521 243.76 317.791 246.97L307.251 237.41L328.331 237.55H328.321ZM303.591 238.92L315.161 249.14L303.671 259.57L303.591 238.92ZM307.341 260.92L317.431 251.63L327.881 260.87L307.351 260.92H307.341ZM331.911 259.41L320.221 249.31L331.921 238.91L331.901 259.4L331.911 259.41ZM336.071 238.29L348.581 249.03L336.151 259.43L336.071 238.3V238.29ZM340.031 260.87L351.301 251.36L362.491 260.98L340.041 260.87H340.031ZM366.611 259.78L353.891 249.31L366.741 238.81L366.601 259.78H366.611ZM370.381 238.64L382.141 248.86L370.541 259.11L370.381 238.64ZM374.431 237.45L394.851 237.52L384.631 246.71L374.431 237.45ZM373.641 260.93L384.551 251.09L394.881 260.92H373.641V260.93ZM398.481 259.6L387.011 248.95L398.501 238.93L398.481 259.6ZM416.471 248.83L402.261 259.75L402.281 237.51L416.471 248.83ZM408.421 237.55L430.221 237.52L419.451 246.74L408.431 237.55H408.421ZM407.241 260.94L419.211 251.18L430.791 260.92L407.251 260.95L407.241 260.94ZM422.191 248.93L434.241 238.93L434.291 259.37L422.191 248.92V248.93ZM452.071 249L438.361 259.8L438.391 237.67L452.061 249H452.071ZM443.691 237.43L466.981 237.47L454.861 246.86L443.701 237.44L443.691 237.43ZM442.951 260.9L454.751 251.4L465.931 260.93L442.961 260.9H442.951ZM469.991 259.96L457.341 249.17L470.351 239.36L470.001 259.96H469.991ZM470.661 232.91L378.461 232.81L416.471 210.07L449.721 189.97L482.691 170.3L470.671 232.9L470.661 232.91ZM474.451 239.94L484.531 249.32L474.231 259.49L474.451 239.94ZM475.241 549.56L484.231 559.13L475.201 569.11L475.251 549.56H475.241ZM477.441 584.07L475.231 584.22L475.201 579.01L477.441 581.33V584.07ZM477.451 576.35L477.231 576.11H477.451V576.35ZM480.411 572.42L480.181 571.83C480.021 571.4 477.871 571.91 477.461 572.06V572.42H476.621L486.681 561.41L497.001 572.47L480.401 572.43L480.411 572.42ZM498.541 568.94L489.031 559.1L498.571 549.18L498.541 568.94ZM498.841 543.14L489.461 534.18L498.861 523.84L498.841 543.13V543.14ZM498.821 483.49L489.361 473.93L498.871 464.33L498.821 483.5V483.49ZM498.801 423.14L489.101 412.66L498.881 402.96L498.801 423.13V423.14ZM498.791 392.34L489.161 381.64L498.881 371.08L498.791 392.34ZM498.841 360.17L489.321 350.55L498.951 340.68L498.851 360.17H498.841ZM499.741 259.06L489.581 249.27L499.891 239.73L499.731 259.07L499.741 259.06Z" fill="#01654D"/>
<path d="M460.18 176.45V293.99L526.78 322.3" stroke="#738452" stroke-width="16" stroke-miterlimit="10"/>
<path d="M458.479 546.25C429.309 546.25 400.719 541.28 373.289 531.42C342.489 520.35 314.459 503.62 289.979 481.7C265.489 459.78 245.779 433.76 231.389 404.37C216.489 373.94 207.979 341.21 206.099 307.1C204.219 272.99 209.069 239.52 220.529 207.64C231.599 176.84 248.329 148.81 270.249 124.33C292.169 99.84 318.189 80.13 347.579 65.74C378.009 50.84 410.739 42.33 444.849 40.45C477.179 38.67 508.999 42.95 539.429 53.18L533.219 71.63C505.139 62.19 475.769 58.23 445.919 59.88C414.429 61.62 384.219 69.47 356.139 83.22C329.009 96.5 304.989 114.7 284.749 137.31C264.509 159.92 249.059 185.79 238.849 214.22C228.279 243.64 223.799 274.53 225.529 306.03C227.269 337.53 235.119 367.73 248.869 395.81C262.149 422.94 280.349 446.96 302.959 467.2C325.569 487.44 351.439 502.89 379.869 513.1C409.289 523.67 440.179 528.15 471.679 526.42C503.179 524.68 533.379 516.83 561.459 503.08L570.019 520.56C539.589 535.46 506.859 543.97 472.749 545.85C467.979 546.11 463.219 546.24 458.479 546.24V546.25Z" fill="#738452" stroke="#101727" stroke-miterlimit="10"/>
<path d="M573.009 515.77L566.909 503.9C568.319 503.18 569.739 502.43 571.139 501.67L577.479 513.41C575.999 514.21 574.499 515 573.009 515.76V515.77ZM581.899 510.97L575.319 499.36C576.709 498.58 578.099 497.77 579.459 496.96L586.269 508.43C584.829 509.28 583.359 510.13 581.899 510.96V510.97ZM590.589 505.82L583.549 494.48C584.889 493.65 586.249 492.78 587.579 491.92L594.849 503.11C593.439 504.03 592.009 504.94 590.589 505.82ZM599.059 500.31L591.569 489.27C592.879 488.38 594.199 487.47 595.499 486.55L603.209 497.44C601.839 498.41 600.439 499.38 599.059 500.32V500.31ZM607.299 494.48L599.369 483.75C600.639 482.81 601.929 481.84 603.179 480.87L611.329 491.44C609.999 492.47 608.639 493.49 607.299 494.48ZM615.299 488.31L606.939 477.91C608.179 476.92 609.419 475.9 610.639 474.88L619.209 485.11C617.919 486.19 616.609 487.26 615.309 488.31H615.299ZM623.039 481.82L614.269 471.76C615.459 470.72 616.659 469.65 617.839 468.58L626.809 478.46C625.569 479.59 624.299 480.72 623.039 481.82ZM630.519 475.03L621.349 465.34C622.509 464.24 623.669 463.12 624.789 462.02L634.149 471.53C632.959 472.7 631.739 473.88 630.519 475.04V475.03ZM637.709 467.95L628.159 458.63C629.269 457.5 630.379 456.33 631.469 455.17L641.199 464.3C640.049 465.52 638.879 466.75 637.709 467.95ZM644.619 460.58L634.709 451.65L635.149 451.16C636.069 450.13 636.979 449.1 637.879 448.06L647.969 456.79C647.019 457.89 646.059 458.98 645.089 460.06L644.619 460.58ZM651.229 452.94L640.959 444.42C641.969 443.2 642.989 441.95 643.979 440.71L654.419 449.03C653.379 450.34 652.309 451.66 651.229 452.95V452.94ZM657.519 445.04L646.919 436.94C647.889 435.68 648.849 434.39 649.789 433.11L660.549 441C659.559 442.35 658.539 443.71 657.519 445.04ZM663.489 436.9L652.569 429.23C653.479 427.93 654.399 426.6 655.279 425.29L666.349 432.74C665.419 434.13 664.449 435.53 663.489 436.9ZM669.129 428.52L657.909 421.29C658.769 419.96 659.629 418.6 660.459 417.24L671.819 424.24C670.939 425.67 670.029 427.11 669.129 428.51V428.52ZM674.429 419.92L662.929 413.15C663.729 411.79 664.529 410.39 665.309 409L676.939 415.54C676.119 417 675.269 418.48 674.419 419.92H674.429ZM679.369 411.11L667.609 404.81C668.359 403.41 669.099 401.99 669.819 400.57L681.709 406.63C680.949 408.12 680.159 409.63 679.369 411.11ZM683.959 402.11L671.949 396.29C672.639 394.86 673.329 393.4 673.989 391.96L686.109 397.53C685.409 399.05 684.689 400.59 683.949 402.1L683.959 402.11ZM688.179 392.93L675.939 387.61C676.569 386.15 677.199 384.67 677.799 383.21L690.139 388.29C689.499 389.84 688.839 391.4 688.169 392.94L688.179 392.93ZM692.029 383.58L679.589 378.76C680.159 377.28 680.729 375.77 681.269 374.28L693.809 378.85C693.239 380.42 692.639 382.01 692.029 383.58ZM695.489 374.09L682.859 369.77C683.369 368.27 683.879 366.74 684.359 365.23L697.069 369.29C696.559 370.88 696.029 372.5 695.479 374.09H695.489ZM698.559 364.47L685.769 360.67C686.219 359.15 686.659 357.6 687.079 356.07L699.949 359.61C699.499 361.23 699.039 362.86 698.559 364.47ZM701.239 354.72L688.299 351.44C688.689 349.91 689.069 348.34 689.429 346.79L702.429 349.8C702.049 351.44 701.649 353.09 701.239 354.71V354.72ZM703.519 344.88L690.459 342.14C690.789 340.58 691.099 339 691.399 337.45L704.509 339.93C704.199 341.57 703.869 343.24 703.519 344.88ZM705.399 334.95L692.239 332.74C692.499 331.17 692.749 329.59 692.979 328.02L706.179 329.96C705.939 331.62 705.669 333.3 705.389 334.95H705.399ZM706.869 324.95L693.629 323.27C693.829 321.7 694.009 320.1 694.179 318.52L707.449 319.93C707.269 321.6 707.079 323.29 706.869 324.95ZM707.929 314.9L694.629 313.76C694.769 312.18 694.889 310.57 694.989 308.99L708.309 309.86C708.199 311.53 708.069 313.22 707.929 314.9ZM708.589 304.82L695.259 304.22C695.329 302.64 695.389 301.04 695.429 299.44L708.769 299.77C708.729 301.46 708.669 303.15 708.589 304.82ZM708.839 294.72L695.499 294.66C695.499 293.08 695.499 291.47 695.479 289.87L708.819 289.67C708.849 291.35 708.849 293.05 708.849 294.72H708.839ZM708.689 284.62L695.349 285.08C695.289 283.5 695.219 281.89 695.139 280.3L708.459 279.57C708.549 281.25 708.629 282.95 708.689 284.62ZM694.829 275.52C694.709 273.94 694.579 272.34 694.429 270.76L707.709 269.5C707.869 271.17 708.009 272.86 708.139 274.53L694.829 275.52ZM693.929 266.01C693.749 264.42 693.549 262.83 693.339 261.27L706.559 259.48C706.779 261.13 706.989 262.81 707.189 264.49L693.929 266.02V266.01ZM692.639 256.54C692.389 254.96 692.129 253.38 691.859 251.82L704.999 249.5C705.289 251.14 705.569 252.82 705.829 254.48L692.649 256.54H692.639ZM690.979 247.12C690.669 245.57 690.349 243.99 690.009 242.44L703.049 239.59C703.409 241.23 703.749 242.89 704.079 244.53L690.989 247.12H690.979ZM688.939 237.79C688.569 236.24 688.179 234.68 687.779 233.15L700.689 229.78C701.109 231.39 701.519 233.04 701.919 234.68L688.939 237.8V237.79ZM686.519 228.54C686.089 227.01 685.629 225.47 685.169 223.96L697.929 220.06C698.419 221.66 698.899 223.29 699.359 224.91L686.519 228.55V228.54ZM683.729 219.4C683.239 217.89 682.719 216.37 682.199 214.87L694.789 210.46C695.339 212.04 695.889 213.65 696.409 215.24L683.729 219.4ZM680.569 210.38C680.019 208.9 679.439 207.4 678.849 205.92L691.249 201C691.869 202.57 692.479 204.15 693.069 205.71L680.569 210.38ZM677.049 201.5C676.439 200.04 675.799 198.57 675.149 197.11L687.339 191.69C688.019 193.23 688.699 194.79 689.349 196.33L677.049 201.5ZM673.159 192.77C672.609 191.6 672.049 190.44 671.489 189.28L671.089 188.46L683.059 182.55L683.479 183.4C684.079 184.63 684.669 185.86 685.249 187.09L673.169 192.76L673.159 192.77ZM668.929 184.2C668.199 182.8 667.439 181.38 666.679 179.98L678.389 173.59C679.189 175.06 679.989 176.56 680.769 178.05L668.929 184.2ZM664.349 175.81C663.559 174.43 662.749 173.04 661.929 171.69L673.369 164.83C674.229 166.27 675.089 167.73 675.919 169.19L664.339 175.82L664.349 175.81ZM659.429 167.61C658.589 166.27 657.719 164.92 656.849 163.59L668.009 156.27C668.929 157.68 669.849 159.11 670.739 160.52L659.439 167.61H659.429ZM654.179 159.61C653.289 158.31 652.369 156.99 651.439 155.7L662.289 147.93C663.269 149.3 664.249 150.69 665.189 152.07L654.179 159.61ZM648.619 151.84C647.679 150.58 646.699 149.3 645.719 148.04L656.249 139.84C657.289 141.17 658.319 142.52 659.309 143.86L648.619 151.84ZM642.739 144.29C641.749 143.06 640.719 141.83 639.689 140.61L649.879 132C650.969 133.29 652.049 134.6 653.099 135.89L642.739 144.3V144.29ZM636.569 136.99C635.529 135.8 634.449 134.61 633.379 133.43L643.219 124.41C644.359 125.65 645.489 126.91 646.589 128.17L636.569 136.99ZM630.109 129.94C629.009 128.79 627.889 127.64 626.769 126.51L636.239 117.1C637.419 118.29 638.609 119.51 639.759 120.72L630.109 129.93V129.94ZM623.369 123.16C622.229 122.06 621.059 120.95 619.899 119.87L628.979 110.09C630.209 111.23 631.439 112.4 632.649 113.56L623.369 123.15V123.16ZM616.359 116.65C615.179 115.6 613.969 114.54 612.759 113.5L621.439 103.37C622.719 104.46 623.989 105.58 625.239 106.69L616.359 116.65ZM609.099 110.43C607.879 109.42 606.619 108.41 605.379 107.43L613.649 96.95C614.969 97.99 616.289 99.06 617.579 100.12L609.099 110.42V110.43ZM601.589 104.5C600.319 103.54 599.029 102.58 597.749 101.65L605.589 90.85C606.939 91.83 608.309 92.84 609.649 93.86L601.599 104.5H601.589ZM593.849 98.89C592.549 97.98 591.219 97.08 589.899 96.2L597.299 85.1C598.689 86.03 600.099 86.99 601.479 87.94L593.859 98.89H593.849ZM585.889 93.58C584.549 92.73 583.179 91.87 581.829 91.05L588.769 79.66C590.199 80.53 591.639 81.43 593.059 82.33L585.889 93.58ZM577.729 88.61C576.359 87.81 574.969 87.02 573.579 86.25L580.059 74.59C581.529 75.41 583.009 76.25 584.449 77.09L577.729 88.62V88.61ZM569.369 83.96C567.969 83.22 566.539 82.48 565.119 81.77L571.119 69.85C572.619 70.61 574.129 71.39 575.609 72.17L569.369 83.96ZM560.829 79.66C559.399 78.98 557.949 78.3 556.499 77.64L562.019 65.49C563.549 66.18 565.089 66.9 566.599 67.63L560.839 79.67L560.829 79.66ZM552.119 75.71C550.669 75.08 549.179 74.47 547.709 73.87L552.729 61.51C554.289 62.14 555.859 62.8 557.389 63.46L552.119 75.72V75.71ZM543.259 72.11C541.779 71.54 540.269 70.98 538.779 70.45L543.289 57.89C544.869 58.46 546.459 59.05 548.029 59.65L543.259 72.11Z" fill="#A99E53"/>
<path d="M460.179 311.3C469.739 311.3 477.489 303.55 477.489 293.99C477.489 284.43 469.739 276.68 460.179 276.68C450.619 276.68 442.869 284.43 442.869 293.99C442.869 303.55 450.619 311.3 460.179 311.3Z" fill="#EBBB47"/>
<path d="M533.601 0.5H393.691C389.057 0.5 385.301 4.25633 385.301 8.89V148.8C385.301 153.434 389.057 157.19 393.691 157.19H533.601C538.234 157.19 541.991 153.434 541.991 148.8V8.89C541.991 4.25633 538.234 0.5 533.601 0.5Z" fill="white"/>
<path d="M705.511 265.92H565.601C560.967 265.92 557.211 269.676 557.211 274.31V414.22C557.211 418.854 560.967 422.61 565.601 422.61H705.511C710.145 422.61 713.901 418.854 713.901 414.22V274.31C713.901 269.676 710.145 265.92 705.511 265.92Z" fill="white"/>
<path d="M541.989 132.32V148.81C541.989 153.44 538.239 157.2 533.599 157.2H393.679C389.049 157.2 385.289 153.45 385.289 148.81V8.89C385.289 4.26 389.039 0.5 393.679 0.5H508.869" stroke="#101727" stroke-miterlimit="10"/>
<path d="M522.27 0.5H533.599C538.229 0.5 541.99 4.25 541.99 8.89V114.73" stroke="#101727" stroke-miterlimit="10"/>
<path d="M381.82 157.19C377.19 157.19 373.43 153.44 373.43 148.8V8.89001" stroke="#101727" stroke-miterlimit="10"/>
<path d="M427.669 16.42C415.989 16.42 406.529 25.88 406.529 37.56V43.25H448.809V37.56C448.809 25.88 439.349 16.42 427.669 16.42Z" fill="#E9BE51" stroke="#101727" stroke-miterlimit="10"/>
<path d="M436.899 41.29H454.179C455.759 41.29 457.039 42.57 457.039 44.15C457.039 45.73 455.759 47.01 454.179 47.01H404.979C403.399 47.01 402.119 45.73 402.119 44.15C402.119 42.57 403.399 41.29 404.979 41.29H408.569" fill="#E9BE51"/>
<path d="M430.09 16.56C430.09 16.56 444.92 17.72 444.92 32.66H439.48C439.5 16.95 424.51 16.66 424.51 16.66" stroke="#101727" stroke-miterlimit="10"/>
<path d="M436.899 41.29H454.179C455.759 41.29 457.039 42.57 457.039 44.15C457.039 45.73 455.759 47.01 454.179 47.01H404.979C403.399 47.01 402.119 45.73 402.119 44.15C402.119 42.57 403.399 41.29 404.979 41.29H408.569" stroke="#101727" stroke-miterlimit="10"/>
<path d="M494.361 16.42C482.681 16.42 473.221 25.88 473.221 37.56V43.25H515.501V37.56C515.501 25.88 506.041 16.42 494.361 16.42Z" fill="#E9BE51" stroke="#101727" stroke-miterlimit="10"/>
<path d="M503.591 41.29H520.871C522.451 41.29 523.731 42.57 523.731 44.15C523.731 45.73 522.451 47.01 520.871 47.01H471.671C470.091 47.01 468.811 45.73 468.811 44.15C468.811 42.57 470.091 41.29 471.671 41.29H475.261" fill="#E9BE51"/>
<path d="M496.769 16.56C496.769 16.56 511.599 17.72 511.599 32.66H506.159C506.179 16.95 491.189 16.66 491.189 16.66" stroke="#101727" stroke-miterlimit="10"/>
<path d="M503.591 41.29H520.871C522.451 41.29 523.731 42.57 523.731 44.15C523.731 45.73 522.451 47.01 520.871 47.01H471.671C470.091 47.01 468.811 45.73 468.811 44.15C468.811 42.57 470.091 41.29 471.671 41.29H475.261" stroke="#101727" stroke-miterlimit="10"/>
<path d="M427.669 63.49C415.989 63.49 406.529 72.95 406.529 84.63V90.32H448.809V84.63C448.809 72.95 439.349 63.49 427.669 63.49Z" fill="#E9BE51" stroke="#101727" stroke-miterlimit="10"/>
<path d="M436.899 88.35H454.179C455.759 88.35 457.039 89.63 457.039 91.21C457.039 92.79 455.759 94.07 454.179 94.07H404.979C403.399 94.07 402.119 92.79 402.119 91.21C402.119 89.63 403.399 88.35 404.979 88.35H408.569" fill="#E9BE51"/>
<path d="M430.09 63.62C430.09 63.62 444.92 64.78 444.92 79.72H439.48C439.5 64.01 424.51 63.72 424.51 63.72" stroke="#101727" stroke-miterlimit="10"/>
<path d="M436.899 88.35H454.179C455.759 88.35 457.039 89.63 457.039 91.21C457.039 92.79 455.759 94.07 454.179 94.07H404.979C403.399 94.07 402.119 92.79 402.119 91.21C402.119 89.63 403.399 88.35 404.979 88.35H408.569" stroke="#101727" stroke-miterlimit="10"/>
<path d="M494.361 63.49C482.681 63.49 473.221 72.95 473.221 84.63V90.32H515.501V84.63C515.501 72.95 506.041 63.49 494.361 63.49Z" fill="#E9BE51" stroke="#101727" stroke-miterlimit="10"/>
<path d="M503.591 88.35H520.871C522.451 88.35 523.731 89.63 523.731 91.21C523.731 92.79 522.451 94.07 520.871 94.07H471.671C470.091 94.07 468.811 92.79 468.811 91.21C468.811 89.63 470.091 88.35 471.671 88.35H475.261" fill="#E9BE51"/>
<path d="M496.769 63.62C496.769 63.62 511.599 64.78 511.599 79.72H506.159C506.179 64.01 491.189 63.72 491.189 63.72" stroke="#101727" stroke-miterlimit="10"/>
<path d="M503.591 88.35H520.871C522.451 88.35 523.731 89.63 523.731 91.21C523.731 92.79 522.451 94.07 520.871 94.07H471.671C470.091 94.07 468.811 92.79 468.811 91.21C468.811 89.63 470.091 88.35 471.671 88.35H475.261" stroke="#101727" stroke-miterlimit="10"/>
<path d="M427.669 110.55C415.989 110.55 406.529 120.01 406.529 131.69V137.38H448.809V131.69C448.809 120.01 439.349 110.55 427.669 110.55Z" fill="#E9BE51" stroke="#101727" stroke-miterlimit="10"/>
<path d="M436.899 135.41H454.179C455.759 135.41 457.039 136.69 457.039 138.27C457.039 139.85 455.759 141.13 454.179 141.13H404.979C403.399 141.13 402.119 139.85 402.119 138.27C402.119 136.69 403.399 135.41 404.979 135.41H408.569" fill="#E9BE51"/>
<path d="M430.09 110.69C430.09 110.69 444.92 111.85 444.92 126.79H439.48C439.5 111.08 424.51 110.79 424.51 110.79" stroke="#101727" stroke-miterlimit="10"/>
<path d="M436.899 135.41H454.179C455.759 135.41 457.039 136.69 457.039 138.27C457.039 139.85 455.759 141.13 454.179 141.13H404.979C403.399 141.13 402.119 139.85 402.119 138.27C402.119 136.69 403.399 135.41 404.979 135.41H408.569" stroke="#101727" stroke-miterlimit="10"/>
<path d="M494.359 110.55V141.03" stroke="#01654D" stroke-miterlimit="10"/>
<path d="M509.599 125.79H479.119" stroke="#01654D" stroke-miterlimit="10"/>
<path d="M705.511 265.94H565.601C560.967 265.94 557.211 269.696 557.211 274.33V414.24C557.211 418.874 560.967 422.63 565.601 422.63H705.511C710.145 422.63 713.901 418.874 713.901 414.24V274.33C713.901 269.696 710.145 265.94 705.511 265.94Z" fill="white"/>
<path d="M713.899 397.76V414.25C713.899 418.88 710.149 422.64 705.509 422.64H565.589C560.959 422.64 557.199 418.89 557.199 414.25V274.33C557.199 269.7 560.949 265.94 565.589 265.94H680.779" stroke="#101727" stroke-miterlimit="10"/>
<path d="M694.189 265.94H705.519C710.149 265.94 713.909 269.69 713.909 274.33V380.17" stroke="#101727" stroke-miterlimit="10"/>
<path d="M553.74 422.63C549.11 422.63 545.35 418.88 545.35 414.24V274.32" stroke="#101727" stroke-miterlimit="10"/>
<path d="M637.85 412.48V393.81H643.36L647.81 401.14C648.19 401.77 648.55 402.41 648.89 403.04C649.23 403.67 649.55 404.37 649.86 405.14C650.17 405.91 650.49 406.8 650.82 407.82H650.38C650.34 407.14 650.29 406.36 650.22 405.47C650.15 404.58 650.1 403.7 650.05 402.84C650 401.98 649.97 401.25 649.97 400.65V393.81H655.18V412.48H649.67L645.52 405.66C645.05 404.88 644.64 404.16 644.29 403.49C643.94 402.82 643.59 402.11 643.26 401.35C642.93 400.59 642.55 399.73 642.13 398.74H642.66C642.73 399.62 642.79 400.49 642.85 401.36C642.91 402.23 642.96 403.04 643 403.78C643.04 404.52 643.06 405.15 643.06 405.66V412.48H637.85Z" fill="#01654D"/>
<path d="M657.6 412.48V393.81H671.06V397.9H662.66V401.06H670.35V405.05H662.66V408.41H671.01V412.5H657.6V412.48Z" fill="#01654D"/>
<path d="M677.661 412.48L672.711 393.81H678.371L679.861 401.05C680.051 401.96 680.221 402.96 680.371 404.04C680.521 405.12 680.671 406.2 680.811 407.28C680.951 408.36 681.101 409.36 681.251 410.28H680.251C680.431 409.36 680.591 408.36 680.751 407.28C680.911 406.2 681.071 405.12 681.251 404.04C681.431 402.96 681.611 401.96 681.821 401.05L683.471 393.81H688.531L690.181 401.05C690.391 401.96 690.581 402.96 690.751 404.04C690.921 405.12 691.091 406.2 691.251 407.28C691.411 408.36 691.581 409.36 691.751 410.28H690.731C690.891 409.36 691.041 408.36 691.181 407.28C691.321 406.2 691.471 405.12 691.621 404.04C691.771 402.96 691.941 401.96 692.131 401.05L693.631 393.81H699.291L694.341 412.48H688.611L686.761 404.87C686.441 403.56 686.191 402.14 686.001 400.62C685.811 399.1 685.581 397.64 685.321 396.23H686.651C686.331 397.63 686.101 399.09 685.941 400.6C685.781 402.11 685.551 403.53 685.221 404.86L683.351 412.47H677.621L677.661 412.48Z" fill="#01654D"/>
<path d="M609.47 297.04H592.01V403.92H609.47V297.04Z" stroke="#101727" stroke-miterlimit="10"/>
<path d="M569.289 307.34V297.04H675.039L685.249 307.34H569.289Z" stroke="#101727" stroke-miterlimit="10"/>
<path d="M592.01 403.38L600.81 393.77L592.01 384.17L600.81 374.57L592.01 364.96L600.81 355.36L592.01 345.75L600.81 336.15L592.01 326.55L600.81 316.94L592.01 307.34" stroke="#101727" stroke-linejoin="bevel"/>
<path d="M609.47 403.58L600.68 393.98L609.47 384.38L600.68 374.77L609.47 365.17L600.68 355.56L609.47 345.96L600.68 336.36L609.47 326.75L600.68 317.15L609.47 307.55" stroke="#101727" stroke-linejoin="bevel"/>
<path d="M571.85 297.04L581.61 306.79L591.21 297.19L600.82 306.79L610.42 297.19L620.02 306.79L629.63 297.19L639.23 306.79L648.83 297.19L658.44 306.79L668.04 297.19L678.19 307.34" stroke="#101727" stroke-miterlimit="10"/>
<path d="M571.85 297.04L600.34 275.94L648.83 297.19" stroke="#101727" stroke-miterlimit="10"/>
<path d="M594.631 297.19L600.341 275.94L606.001 297.04" stroke="#101727" stroke-linejoin="bevel"/>
<path d="M620.879 403.92H580.539V413.24H620.879V403.92Z" fill="#01654D" stroke="#101727" stroke-miterlimit="10"/>
<path d="M668.381 307.34V322.3" stroke="#101727" stroke-miterlimit="10"/>
<path d="M678.12 333.19C678.12 338.56 673.75 342.92 668.39 342.92C663.03 342.92 658.66 338.55 658.66 333.19" stroke="#101727" stroke-miterlimit="10"/>
<path d="M668.38 332.23C670.855 332.23 672.86 330.224 672.86 327.75C672.86 325.276 670.855 323.27 668.38 323.27C665.906 323.27 663.9 325.276 663.9 327.75C663.9 330.224 665.906 332.23 668.38 332.23Z" fill="#EBBB47" stroke="#101727" stroke-miterlimit="10"/>
<path d="M668.381 332.23V342.92" stroke="#101727" stroke-miterlimit="10"/>
<path d="M0 673.58H736.05" stroke="#101727" stroke-miterlimit="10"/>
<path d="M231.941 428.33L234.011 628.92L163.541 629.03L163.941 467.03L140.391 428.32H231.941V428.33Z" fill="#01654D"/>
<path d="M140.39 428.33H101.76L50.0195 628.92L120.49 629.03L170.84 467.03L208.69 428.32H140.38L140.39 428.33Z" fill="#01654D"/>
<path d="M171.92 633.99L173.06 673.39H257.32C257.32 673.39 269.28 646.89 227.9 646.89C226.94 638.81 228.54 633.49 228.54 633.49L171.92 633.99Z" fill="#EAE2CF"/>
<path d="M171.92 633.99L173.06 673.39H257.32C257.32 673.39 269.28 646.89 227.9 646.89C226.84 640.37 228.54 633.49 228.54 633.49L171.92 633.99Z" stroke="#101727" stroke-miterlimit="10"/>
<path d="M115.77 634.04L108.81 673.38H24.5501C24.5501 673.38 12.5901 646.88 53.9701 646.88C55.4201 639.28 56.9201 633.51 56.9201 633.51L115.76 634.03L115.77 634.04Z" fill="#EAE2CF" stroke="#111727" stroke-miterlimit="10"/>
<path d="M160.71 639.29H238.1L240.64 617.59H158.18L160.71 639.29Z" fill="#01654D"/>
<path d="M123.311 639.29H45.9206L43.3906 617.59H125.851L123.311 639.29Z" fill="#01654D"/>
<path d="M240.64 617.59H158.18" stroke="#101727" stroke-miterlimit="10"/>
<path d="M238.101 639.29H160.711" stroke="#101727" stroke-miterlimit="10"/>
<path d="M125.851 617.59H43.3906" stroke="#101727" stroke-miterlimit="10"/>
<path d="M123.31 639.29H45.9199" stroke="#101727" stroke-miterlimit="10"/>
<path d="M207.49 282.32H152.38L114.51 287.55L94.0703 431.44H248.65L247.31 313.09" fill="#EAE2CF"/>
<path d="M207.49 282.32H152.38L114.51 287.55L94.0703 431.44H248.52L247.31 313.09" stroke="#101727" stroke-miterlimit="10"/>
<path d="M149.24 290.9L163.92 253.86L158.97 254.22L152.34 253.24L147.48 250.68L144.47 246.62L143.85 242.02L145.71 237.6L151.11 234.16H154.91L158.53 234.34L224.94 216.22L226.8 220.64L228.84 231.07L229.82 241.68L229.2 251.85L215.75 274.22L191.41 282.47L164.64 295.26L149.25 290.93L149.24 290.9Z" fill="#EAE2CF"/>
<path d="M225.491 216.06C236.061 255.65 221.571 277.83 216.121 286.19L215.841 286.62C213.601 290.05 209.871 291.95 206.031 291.95C204.241 291.95 202.421 291.54 200.711 290.67L200.341 290.49C191.461 285.99 167.891 274.06 157.211 234.4L225.501 216.07L225.491 216.06Z" stroke="#101727" stroke-miterlimit="10"/>
<path d="M171.461 176.82L184.371 173.36C199.661 169.27 215.391 178.35 219.481 193.63L225.501 216.1L157.211 234.39L151.191 211.92C147.091 196.64 156.181 180.91 171.461 176.82Z" fill="#E9BE51"/>
<path d="M157.189 234.35L243.479 211.24C245.109 210.8 246.079 209.12 245.649 207.49C245.209 205.86 243.529 204.89 241.899 205.32L205.329 215.12" fill="#E9BE51"/>
<path d="M157.189 234.35L243.479 211.24C245.109 210.8 246.079 209.12 245.649 207.49C245.209 205.86 243.529 204.89 241.899 205.32L205.329 215.12" stroke="#101727" stroke-miterlimit="10"/>
<path d="M157.19 234.35C148.9 231.13 140.98 240.36 145.61 248.02C149.96 255.22 159.3 254.47 164.8 253.72" stroke="#101727" stroke-miterlimit="10"/>
<path d="M201.029 230.1C203.149 238.18 208.659 245.65 216.589 249.9C221.429 252.5 214.229 256.8 206.509 250.79" stroke="#101727" stroke-miterlimit="10"/>
<path d="M193.181 259.04C178.111 254.8 173.931 244.02 169.531 231.08L157.211 234.38C167.891 274.03 191.461 285.97 200.341 290.47L200.711 290.66C202.411 291.53 204.231 291.94 206.031 291.94C209.871 291.94 213.601 290.04 215.841 286.61L216.121 286.18C219.811 280.53 227.611 268.58 229.031 249.2C219.451 257.87 206.161 262.69 193.181 259.03V259.04Z" fill="#111727" stroke="#111727" stroke-width="2" stroke-miterlimit="10"/>
<path d="M195.249 243.45C196.979 243.45 198.389 242.04 198.389 240.31C198.389 238.58 196.979 237.17 195.249 237.17C193.519 237.17 192.109 238.58 192.109 240.31C192.109 242.04 193.519 243.45 195.249 243.45Z" stroke="#101727" stroke-miterlimit="10"/>
<path d="M178.9 320.45C180.63 320.45 182.04 319.04 182.04 317.31C182.04 315.58 180.63 314.17 178.9 314.17C177.17 314.17 175.76 315.58 175.76 317.31C175.76 319.04 177.17 320.45 178.9 320.45Z" stroke="#101727" stroke-miterlimit="10"/>
<path d="M182.111 335.15C183.841 335.15 185.251 333.74 185.251 332.01C185.251 330.28 183.841 328.87 182.111 328.87C180.381 328.87 178.971 330.28 178.971 332.01C178.971 333.74 180.381 335.15 182.111 335.15Z" stroke="#101727" stroke-miterlimit="10"/>
<path d="M217.96 240.31C219.69 240.31 221.1 238.9 221.1 237.17C221.1 235.44 219.69 234.03 217.96 234.03C216.23 234.03 214.82 235.44 214.82 237.17C214.82 238.9 216.23 240.31 217.96 240.31Z" stroke="#101727" stroke-miterlimit="10"/>
<path d="M194.479 231.08C191.119 231.61 188.549 233.42 187.189 235.76" stroke="#101727" stroke-miterlimit="10"/>
<path d="M217.01 226.8C220.34 226.12 223.38 226.91 225.49 228.62" stroke="#101727" stroke-miterlimit="10"/>
<path d="M196.301 269C201.021 272.3 211.331 272.6 215.401 267.11" stroke="#101727" stroke-miterlimit="10"/>
<path d="M164.841 251.38L152.381 282.33L184.621 302.19L201.541 281.21L164.831 251.39L164.841 251.38Z" stroke="#101727" stroke-miterlimit="10"/>
<path d="M192.091 339.34C192.001 339.07 184.631 302.18 184.631 302.18" stroke="#101727" stroke-miterlimit="10"/>
<path d="M152.359 282.44L161.999 323.73C161.999 323.73 169.819 302.18 184.619 302.18C199.419 302.18 210.469 317.31 210.469 317.31L205.059 290.75" stroke="#101727" stroke-miterlimit="10"/>
<path d="M193.11 184.75L190.01 187.65L197.38 195.52L200.48 192.62L193.11 184.75Z" fill="#01654D"/>
<path d="M202.389 190.92C206.409 195.8 206.679 199.91 206.559 202.27C204.179 202.23 200.079 201.67 195.439 197.24C195.279 197.33 195.129 197.43 194.959 197.51C193.729 198.17 192.499 198.68 191.279 199.07C198.429 206.69 205.149 206.55 207.679 206.5H207.789C208.269 206.49 208.729 206.37 209.139 206.15C209.999 205.69 210.609 204.82 210.699 203.78V203.65C210.939 201.12 211.529 194.41 204.409 186.79C203.929 188.22 203.269 189.61 202.389 190.92Z" fill="white"/>
<path d="M277.5 414.67H201.58L210.96 312.98H286.88L277.5 414.67Z" fill="#01654D" stroke="#101727" stroke-miterlimit="10"/>
<path d="M220.94 356.4H207.23L207.72 348.12H199.83C195.74 348.12 192.42 351.44 192.42 355.53C192.42 355.83 192.44 356.12 192.48 356.41H149.83C145.71 356.41 142.36 353.07 142.36 348.94V315.96H97.9004V365.64C97.9004 384.96 113.46 400.64 132.73 400.86H133.12H220.93" fill="#EAE2CF"/>
<path d="M220.94 356.4H207.23L207.72 348.12H199.83C195.74 348.12 192.42 351.44 192.42 355.53C192.42 355.83 192.44 356.12 192.48 356.41H149.83C145.71 356.41 142.36 353.07 142.36 348.94V315.96H97.9004V365.64C97.9004 384.96 113.46 400.64 132.73 400.86H133.12H220.93" stroke="#101727" stroke-miterlimit="10"/>
<path d="M220.939 356.42H260.109C264.199 356.42 267.519 359.74 267.519 363.83C267.519 367.92 264.199 371.24 260.109 371.24H220.939" fill="#EAE2CF"/>
<path d="M220.939 356.42H260.109C264.199 356.42 267.519 359.74 267.519 363.83C267.519 367.92 264.199 371.24 260.109 371.24H220.939" stroke="#101727" stroke-miterlimit="10"/>
<path d="M220.939 371.23H260.109C264.199 371.23 267.519 374.55 267.519 378.64C267.519 382.73 264.199 386.05 260.109 386.05H220.939" fill="#EAE2CF"/>
<path d="M220.939 371.23H260.109C264.199 371.23 267.519 374.55 267.519 378.64C267.519 382.73 264.199 386.05 260.109 386.05H220.939" stroke="#101727" stroke-miterlimit="10"/>
<path d="M220.939 386.04H260.109C264.199 386.04 267.519 389.36 267.519 393.45C267.519 397.54 264.199 400.86 260.109 400.86H220.939" fill="#EAE2CF"/>
<path d="M220.939 386.04H260.109C264.199 386.04 267.519 389.36 267.519 393.45C267.519 397.54 264.199 400.86 260.109 400.86H220.939" stroke="#101727" stroke-miterlimit="10"/>
<path d="M142.36 308.42C142.36 296.14 132.41 286.19 120.13 286.19C107.85 286.19 97.9004 296.14 97.9004 308.42V345.05H97.9904C98.9704 338.54 108.5 333.42 120.13 333.42C131.76 333.42 141.29 338.53 142.27 345.05H142.36V308.42Z" fill="#EAE2CF" stroke="#101727" stroke-miterlimit="10"/>
<path d="M334.22 295.61L282.26 336.29L238.59 292.62C230.1 284.13 216.33 284.13 207.83 292.62C199.33 301.12 199.33 314.89 207.83 323.38L263.24 378.79C271.69 387.24 284.99 388.44 294.82 381.62L363.04 327.34" fill="#EAE2CF"/>
<path d="M334.22 295.61L282.26 336.29L238.59 292.62C230.1 284.13 216.33 284.13 207.83 292.62C199.33 301.12 199.33 314.89 207.83 323.38L263.24 378.79C271.69 387.24 284.99 388.44 294.82 381.62L363.04 327.34" stroke="#101727" stroke-miterlimit="10"/>
<path d="M262.64 316.68C244.3 319.27 232.34 334.98 232.5 348.07" stroke="#101727" stroke-miterlimit="10"/>
<path d="M231.941 428.33L234.011 628.92L163.541 629.03L163.941 467.03L140.391 428.32H231.941V428.33Z" fill="#01654D"/>
<path d="M140.39 428.33H101.76L50.0195 628.92L120.49 629.03L170.84 467.03L208.69 428.32H140.38L140.39 428.33Z" fill="#01654D"/>
<path d="M171.92 633.99L173.06 673.39H257.32C257.32 673.39 269.28 646.89 227.9 646.89C226.94 638.81 228.54 633.49 228.54 633.49L171.92 633.99Z" fill="#EAE2CF"/>
<path d="M171.92 633.99L173.06 673.39H257.32C257.32 673.39 269.28 646.89 227.9 646.89C226.84 640.37 228.54 633.49 228.54 633.49L171.92 633.99Z" stroke="#101727" stroke-miterlimit="10"/>
<path d="M115.77 634.04L108.81 673.38H24.5501C24.5501 673.38 12.5901 646.88 53.9701 646.88C55.4201 639.28 56.9201 633.51 56.9201 633.51L115.76 634.03L115.77 634.04Z" fill="#EAE2CF" stroke="#111727" stroke-miterlimit="10"/>
<path d="M160.71 639.29H238.1L240.64 617.59H158.18L160.71 639.29Z" fill="#01654D"/>
<path d="M123.311 639.29H45.9206L43.3906 617.59H125.851L123.311 639.29Z" fill="#01654D"/>
<path d="M240.64 617.59H158.18" stroke="#101727" stroke-miterlimit="10"/>
<path d="M238.101 639.29H160.711" stroke="#101727" stroke-miterlimit="10"/>
<path d="M125.851 617.59H43.3906" stroke="#101727" stroke-miterlimit="10"/>
<path d="M123.31 639.29H45.9199" stroke="#101727" stroke-miterlimit="10"/>
<path d="M207.49 282.32H152.38L114.51 287.55L94.0703 431.44H248.65L247.31 313.09" fill="#EAE2CF"/>
<path d="M207.49 282.32H152.38L114.51 287.55L94.0703 431.44H248.52L247.31 313.09" stroke="#101727" stroke-miterlimit="10"/>
<path d="M149.24 290.9L163.92 253.86L158.97 254.22L152.34 253.24L147.48 250.68L144.47 246.62L143.85 242.02L145.71 237.6L151.11 234.16H154.91L158.53 234.34L224.94 216.22L226.8 220.64L228.84 231.07L229.82 241.68L229.2 251.85L215.75 274.22L191.41 282.47L164.64 295.26L149.25 290.93L149.24 290.9Z" fill="#EAE2CF"/>
<path d="M225.491 216.06C236.061 255.65 221.571 277.83 216.121 286.19L215.841 286.62C213.601 290.05 209.871 291.95 206.031 291.95C204.241 291.95 202.421 291.54 200.711 290.67L200.341 290.49C191.461 285.99 167.891 274.06 157.211 234.4L225.501 216.07L225.491 216.06Z" stroke="#101727" stroke-miterlimit="10"/>
<path d="M171.461 176.82L184.371 173.36C199.661 169.27 215.391 178.35 219.481 193.63L225.501 216.1L157.211 234.39L151.191 211.92C147.091 196.64 156.181 180.91 171.461 176.82Z" fill="#E9BE51"/>
<path d="M157.189 234.35L243.479 211.24C245.109 210.8 246.079 209.12 245.649 207.49C245.209 205.86 243.529 204.89 241.899 205.32L205.329 215.12" fill="#E9BE51"/>
<path d="M157.189 234.35L243.479 211.24C245.109 210.8 246.079 209.12 245.649 207.49C245.209 205.86 243.529 204.89 241.899 205.32L205.329 215.12" stroke="#101727" stroke-miterlimit="10"/>
<path d="M157.19 234.35C148.9 231.13 140.98 240.36 145.61 248.02C149.96 255.22 159.3 254.47 164.8 253.72" stroke="#101727" stroke-miterlimit="10"/>
<path d="M201.029 230.1C203.149 238.18 208.659 245.65 216.589 249.9C221.429 252.5 214.229 256.8 206.509 250.79" stroke="#101727" stroke-miterlimit="10"/>
<path d="M193.181 259.04C178.111 254.8 173.931 244.02 169.531 231.08L157.211 234.38C167.891 274.03 191.461 285.97 200.341 290.47L200.711 290.66C202.411 291.53 204.231 291.94 206.031 291.94C209.871 291.94 213.601 290.04 215.841 286.61L216.121 286.18C219.811 280.53 227.611 268.58 229.031 249.2C219.451 257.87 206.161 262.69 193.181 259.03V259.04Z" fill="#111727" stroke="#111727" stroke-width="2" stroke-miterlimit="10"/>
<path d="M195.249 243.45C196.979 243.45 198.389 242.04 198.389 240.31C198.389 238.58 196.979 237.17 195.249 237.17C193.519 237.17 192.109 238.58 192.109 240.31C192.109 242.04 193.519 243.45 195.249 243.45Z" stroke="#101727" stroke-miterlimit="10"/>
<path d="M178.9 320.45C180.63 320.45 182.04 319.04 182.04 317.31C182.04 315.58 180.63 314.17 178.9 314.17C177.17 314.17 175.76 315.58 175.76 317.31C175.76 319.04 177.17 320.45 178.9 320.45Z" stroke="#101727" stroke-miterlimit="10"/>
<path d="M182.111 335.15C183.841 335.15 185.251 333.74 185.251 332.01C185.251 330.28 183.841 328.87 182.111 328.87C180.381 328.87 178.971 330.28 178.971 332.01C178.971 333.74 180.381 335.15 182.111 335.15Z" stroke="#101727" stroke-miterlimit="10"/>
<path d="M217.96 240.31C219.69 240.31 221.1 238.9 221.1 237.17C221.1 235.44 219.69 234.03 217.96 234.03C216.23 234.03 214.82 235.44 214.82 237.17C214.82 238.9 216.23 240.31 217.96 240.31Z" stroke="#101727" stroke-miterlimit="10"/>
<path d="M194.479 231.08C191.119 231.61 188.549 233.42 187.189 235.76" stroke="#101727" stroke-miterlimit="10"/>
<path d="M217.01 226.8C220.34 226.12 223.38 226.91 225.49 228.62" stroke="#101727" stroke-miterlimit="10"/>
<path d="M196.301 269C201.021 272.3 211.331 272.6 215.401 267.11" stroke="#101727" stroke-miterlimit="10"/>
<path d="M164.841 251.38L152.381 282.33L184.621 302.19L201.541 281.21L164.831 251.39L164.841 251.38Z" stroke="#101727" stroke-miterlimit="10"/>
<path d="M192.091 339.34C192.001 339.07 184.631 302.18 184.631 302.18" stroke="#101727" stroke-miterlimit="10"/>
<path d="M152.359 282.44L161.999 323.73C161.999 323.73 169.819 302.18 184.619 302.18C199.419 302.18 210.469 317.31 210.469 317.31L205.059 290.75" stroke="#101727" stroke-miterlimit="10"/>
<path d="M193.11 184.75L190.01 187.65L197.38 195.52L200.48 192.62L193.11 184.75Z" fill="#01654D"/>
<path d="M202.389 190.92C206.409 195.8 206.679 199.91 206.559 202.27C204.179 202.23 200.079 201.67 195.439 197.24C195.279 197.33 195.129 197.43 194.959 197.51C193.729 198.17 192.499 198.68 191.279 199.07C198.429 206.69 205.149 206.55 207.679 206.5H207.789C208.269 206.49 208.729 206.37 209.139 206.15C209.999 205.69 210.609 204.82 210.699 203.78V203.65C210.939 201.12 211.529 194.41 204.409 186.79C203.929 188.22 203.269 189.61 202.389 190.92Z" fill="white"/>
<path d="M277.5 414.67H201.58L210.96 312.98H286.88L277.5 414.67Z" fill="#01654D" stroke="#101727" stroke-miterlimit="10"/>
<path d="M220.94 356.4H207.23L207.72 348.12H199.83C195.74 348.12 192.42 351.44 192.42 355.53C192.42 355.83 192.44 356.12 192.48 356.41H149.83C145.71 356.41 142.36 353.07 142.36 348.94V315.96H97.9004V365.64C97.9004 384.96 113.46 400.64 132.73 400.86H133.12H220.93" fill="#EAE2CF"/>
<path d="M220.94 356.4H207.23L207.72 348.12H199.83C195.74 348.12 192.42 351.44 192.42 355.53C192.42 355.83 192.44 356.12 192.48 356.41H149.83C145.71 356.41 142.36 353.07 142.36 348.94V315.96H97.9004V365.64C97.9004 384.96 113.46 400.64 132.73 400.86H133.12H220.93" stroke="#101727" stroke-miterlimit="10"/>
<path d="M220.939 356.42H260.109C264.199 356.42 267.519 359.74 267.519 363.83C267.519 367.92 264.199 371.24 260.109 371.24H220.939" fill="#EAE2CF"/>
<path d="M220.939 356.42H260.109C264.199 356.42 267.519 359.74 267.519 363.83C267.519 367.92 264.199 371.24 260.109 371.24H220.939" stroke="#101727" stroke-miterlimit="10"/>
<path d="M220.939 371.23H260.109C264.199 371.23 267.519 374.55 267.519 378.64C267.519 382.73 264.199 386.05 260.109 386.05H220.939" fill="#EAE2CF"/>
<path d="M220.939 371.23H260.109C264.199 371.23 267.519 374.55 267.519 378.64C267.519 382.73 264.199 386.05 260.109 386.05H220.939" stroke="#101727" stroke-miterlimit="10"/>
<path d="M220.939 386.04H260.109C264.199 386.04 267.519 389.36 267.519 393.45C267.519 397.54 264.199 400.86 260.109 400.86H220.939" fill="#EAE2CF"/>
<path d="M220.939 386.04H260.109C264.199 386.04 267.519 389.36 267.519 393.45C267.519 397.54 264.199 400.86 260.109 400.86H220.939" stroke="#101727" stroke-miterlimit="10"/>
<path d="M142.36 308.42C142.36 296.14 132.41 286.19 120.13 286.19C107.85 286.19 97.9004 296.14 97.9004 308.42V345.05H97.9904C98.9704 338.54 108.5 333.42 120.13 333.42C131.76 333.42 141.29 338.53 142.27 345.05H142.36V308.42Z" fill="#EAE2CF" stroke="#101727" stroke-miterlimit="10"/>
<path d="M364.509 326.17L363.029 327.35L364.519 326.18L364.509 326.17Z" fill="#EAE2CF"/>
<path d="M199.15 271.13C203.87 274.43 214.18 274.73 218.25 269.24" stroke="#EAE2CF" stroke-miterlimit="10"/>
<path d="M363.419 319.03C360.939 315.86 356.359 315.31 353.199 317.79L350.409 320.21L339.399 328.84C336.229 331.32 335.679 335.9 338.159 339.07C340.639 342.24 345.219 342.79 348.379 340.31L359.389 331.68L362.179 329.26C365.349 326.78 365.899 322.2 363.419 319.04V319.03Z" fill="#EAE2CF" stroke="#101727" stroke-miterlimit="10"/>
<path d="M354.48 307.49C352 304.32 347.42 303.77 344.26 306.25L341.47 308.67L330.46 317.3C327.29 319.78 326.74 324.36 329.22 327.53C331.7 330.69 336.28 331.25 339.44 328.77L350.45 320.14L353.24 317.72C356.41 315.24 356.96 310.66 354.48 307.5V307.49Z" fill="#EAE2CF" stroke="#101727" stroke-miterlimit="10"/>
<path d="M329.594 299.251L359.199 276.038C362.362 273.558 366.939 274.112 369.419 277.275C371.9 280.439 371.346 285.016 368.183 287.496L338.578 310.709L329.588 299.243L329.594 299.251Z" fill="#EAE2CF" stroke="#101727" stroke-miterlimit="10"/>
<path d="M321.621 301.22C319.471 304.62 320.491 309.12 323.891 311.27L331.981 315.11C335.381 317.26 339.881 316.24 342.031 312.84C344.181 309.44 343.161 304.94 339.761 302.79L331.671 298.95C328.271 296.8 323.771 297.82 321.621 301.22Z" fill="#EAE2CF" stroke="#101727" stroke-miterlimit="10"/>
</g>
<defs>
<clipPath id="clip0_2463_442">
<rect width="736.05" height="674.08" fill="white"/>
</clipPath>
</defs>
</svg>
