<svg width="678" height="470" viewBox="0 0 678 470" fill="none" xmlns="http://www.w3.org/2000/svg">
<g clip-path="url(#clip0_2680_786)">
<path opacity="0.12" d="M636.799 446.07C636.119 446.07 635.569 445.52 635.569 444.84V426.9C635.569 426.22 635.029 426.09 634.529 426L621.419 423.64L601.129 420.06C600.969 420.03 600.609 420.13 600.499 420.21C600.369 420.31 600.269 420.64 600.269 420.88V429.81C600.269 430.49 599.719 431.04 599.039 431.04H582.619C581.939 431.04 581.389 430.49 581.389 429.81L581.349 423.87C581.359 423.38 581.129 423.01 580.649 422.89L572.289 418.23C571.899 418.01 571.659 417.6 571.659 417.15V404.19C571.659 403.72 571.429 403.4 570.999 403.19L553.259 392.46C552.819 392.2 552.389 392.48 551.999 392.71L536.009 402.47C535.859 402.61 535.689 402.91 535.689 403.12V418.54C535.689 419.36 534.889 419.96 534.099 419.72L503.959 410.65L499.819 409.39C499.659 409.34 499.299 409.42 499.199 409.51C499.079 409.62 498.989 409.93 498.989 410.18V426.96C498.989 427.84 498.079 428.44 497.269 428.09L485.269 422.95L481.269 421.28C480.809 421.09 480.509 420.64 480.509 420.14V407.32C480.509 406.93 480.239 406.46 479.909 406.26L466.859 398.55C466.479 398.32 465.999 398.32 465.609 398.55L453.649 405.56C453.319 405.75 452.979 405.98 452.979 406.39V417.61C452.979 418.07 452.709 418.5 452.299 418.71L449.559 420.09C449.409 420.17 449.269 420.25 449.129 420.34C448.799 420.56 448.609 420.95 448.609 421.35V430.81L448.449 431.04H442.459C441.779 431.04 441.229 430.49 441.229 429.81V415.33C441.229 414.65 440.679 414.1 439.999 414.1H416.259C415.579 414.1 415.029 413.55 415.029 412.87V406.89H415.189L415.169 390.49H415.059L415.079 380.87C415.079 380.19 414.529 379.64 413.849 379.64H388.789C388.109 379.64 387.559 379.09 387.559 378.41V374.47C387.559 373.79 388.109 373.24 388.789 373.24H413.959C414.639 373.24 415.189 372.69 415.189 372.01V358.73C415.189 358.05 414.639 357.5 413.959 357.5L388.779 357.52C388.099 357.52 387.549 356.97 387.549 356.29V342.39C387.549 341.71 388.099 341.16 388.779 341.16L413.969 341.14C414.649 341.14 415.199 340.59 415.199 339.91V328.3C415.199 327.62 414.649 327.07 413.969 327.07H387.749C387.219 327.07 386.749 326.74 386.579 326.24L368.399 272.75C368.249 272.3 367.839 271.97 367.369 271.92C367.129 271.9 366.879 271.9 366.639 271.93C366.189 271.99 365.829 272.32 365.679 272.74L347.269 326.22C347.099 326.72 346.629 327.05 346.109 327.05L319.169 327.07C318.489 327.07 317.939 327.62 317.939 328.3V339.9C317.939 340.58 318.489 341.13 319.169 341.13L344.309 341.11C344.989 341.11 345.539 341.66 345.539 342.34L345.559 356.27C345.559 356.95 345.009 357.5 344.329 357.5H319.179C318.499 357.5 317.949 358.05 317.949 358.73V371.99C317.939 372.67 318.489 373.22 319.169 373.22L344.319 373.26C344.999 373.26 345.549 373.81 345.549 374.49V378.41C345.549 379.09 344.989 379.64 344.309 379.64H318.929C318.249 379.64 317.699 380.19 317.699 380.87V411.92C317.699 412.6 317.149 413.15 316.469 413.15H313.909C313.229 413.15 312.679 413.69 312.679 414.36L312.639 419.24H311.659V398.14C311.659 397.47 311.119 396.92 310.449 396.91L306.229 396.84L305.549 396.33L305.519 386.94C305.519 386.26 304.959 385.71 304.279 385.71H301.789C301.109 385.73 300.569 386.27 300.569 386.95V392.59L300.399 392.47C300.219 391.37 300.159 389.05 299.199 388.5C296.519 386.94 291.399 387.42 291.289 388.47L291.149 389.85C291.089 390.4 290.679 390.85 290.129 390.94C288.719 391.17 286.929 391.61 286.359 392.42C285.649 393.43 285.679 396.35 285.109 397.45L284.129 399.35C284.019 399.56 284.209 399.89 284.439 400.2C284.679 400.54 284.729 400.98 284.579 401.37L283.859 403.19C283.659 403.68 284.519 404.72 284.529 405.26L284.599 415.23C285.399 415.09 282.879 415.56 282.099 415.71C280.259 416.06 282.269 410.23 280.329 404.25C280.239 403.98 280.019 403.76 279.749 403.66C279.749 403.66 279.749 403.66 279.739 403.66C279.369 403.54 279.119 403.2 279.119 402.8V380.37H279.359V199.37C279.359 198.71 279.879 198.17 280.539 198.14L284.929 197.95C285.589 197.92 286.109 197.38 286.109 196.72L286.149 171.75C286.149 171.07 286.699 170.52 287.379 170.52L303.609 170.49L328.799 170.47H353.979L373.199 170.49C373.879 170.49 374.429 171.04 374.429 171.72V203.51C374.429 204.48 375.809 205.7 376.809 205.7H412.349C413.639 205.68 414.849 204.34 414.849 203.18V171.77C414.849 171.1 415.389 170.55 416.069 170.54L422.459 170.46C423.049 170.46 424.209 169.84 424.429 169.33C424.699 168.69 424.459 167.57 424.359 166.69L422.039 147.58C421.849 146.03 420.219 145.39 418.819 145.39L398.789 145.44C398.629 145.44 398.479 145.41 398.329 145.35L375.889 136.45L312.069 111.14L270.529 95.11C270.169 94.97 269.889 94.67 269.789 94.3C269.399 92.84 268.459 92.2 266.969 92.06C265.409 91.91 264.149 92.75 263.589 94.31C263.469 94.64 263.189 94.89 262.859 95.01L244.019 101.67L174.279 127.01L128.239 143.77C127.179 144.15 126.419 145.7 126.419 146.76V168.39C126.409 169.61 127.119 170.49 128.519 170.49H246.159C246.839 170.48 247.389 171.03 247.389 171.71V196.31C247.389 197.04 247.929 197.8 248.519 198.04C248.639 198.09 248.769 198.1 248.889 198.1L253.989 198.13C254.669 198.13 255.209 198.68 255.209 199.36L255.269 379.62H255.079L255.109 414.53C255.109 415.1 254.719 415.6 254.159 415.73L252.409 416.14C251.639 416.32 250.899 415.74 250.899 414.94V400.34L250.889 399.32C250.889 399.26 250.799 399.21 250.679 399.18V380.85C250.679 380.17 250.129 379.62 249.449 379.62H242.249C241.569 379.62 241.019 379.07 241.019 378.39V324.32C241.019 323.65 240.489 323.11 239.829 323.09L238.729 323.06C238.069 323.04 237.539 322.51 237.529 321.84L237.269 300.49C237.269 299.85 236.769 299.33 236.129 299.28L234.949 299.19C234.319 299.14 233.829 298.63 233.809 298L233.439 286.69L233.159 282.71C233.109 282.08 232.599 281.58 231.969 281.57L229.489 281.5C228.849 281.48 228.329 280.98 228.289 280.33L227.309 261.48C227.279 260.95 227.099 259.93 226.739 259.72C226.429 259.54 225.839 259.47 225.159 259.43C224.639 259.4 224.189 259.04 224.049 258.54L214.289 224.12C213.809 222.42 214.069 219.7 214.039 217.93L213.819 211.45C213.799 210.84 213.329 210.34 212.729 210.26C212.189 210.19 211.629 210.2 211.109 210.3C210.519 210.41 210.079 210.92 210.079 211.52C210.059 217.73 209.989 217.44 209.559 224.01C209.559 224.09 209.539 224.17 209.519 224.25L200.289 258.49C200.159 258.98 199.739 259.34 199.229 259.39C198.599 259.45 197.959 259.59 197.469 259.83C197.079 260.03 196.829 260.43 196.809 260.87L195.939 280.27C195.909 280.92 195.379 281.44 194.729 281.45L192.829 281.47C192.169 281.47 191.639 282 191.619 282.66L191.109 298.1C191.089 298.76 190.549 299.28 189.889 299.29L186.389 299.32C185.709 299.32 185.169 299.88 185.169 300.55L185.229 345.01C185.229 345.69 184.679 346.24 184.009 346.24L174.089 346.29C173.409 346.29 172.869 346.84 172.869 347.52V372.71C172.869 373.34 172.389 373.87 171.769 373.93L149.919 376.16C149.369 376.22 148.919 376.64 148.829 377.18L148.599 378.56C148.499 379.15 147.989 379.59 147.389 379.59H136.379C135.699 379.59 135.149 380.14 135.149 380.82V395.51C135.149 396.18 134.609 396.73 133.939 396.74L130.889 396.79C130.219 396.8 129.679 397.35 129.679 398.02V409.37C129.679 410.19 128.879 410.79 128.089 410.55L121.569 408.59L117.289 407.28C117.129 407.23 116.749 407.31 116.649 407.4C116.529 407.51 116.439 407.84 116.439 408.09V425.51C116.429 426.39 115.529 426.99 114.719 426.64L102.249 421.3L98.0891 419.56C97.6291 419.37 97.3291 418.92 97.3291 418.42V405.11C97.3291 404.67 97.1091 404.27 96.7291 404.05L83.1891 396.05C82.8091 395.82 82.3291 395.82 81.9391 396.05L69.5491 403.31C69.2091 403.51 68.8591 403.75 68.8591 404.17V415.8C68.8591 416.26 68.5891 416.69 68.1791 416.9L65.3191 418.34C65.1791 418.41 65.0291 418.49 64.8991 418.58C64.5491 418.81 64.3291 419.2 64.3391 419.62V437.09L64.2091 431.38C64.1891 430.54 63.3491 429.97 62.5591 430.25L42.9491 437.33C42.4791 437.33 42.1691 437.59 42.1691 437.92L42.0991 438.53V457.5C42.0991 458.18 41.5491 458.73 40.8691 458.73H23.0991C22.4191 458.73 21.8691 459.28 21.8691 459.96V468.73C21.8691 469.41 22.4191 469.96 23.0991 469.96H48.8391V469.94H107.049L129.679 469.95H441.329V469.93H490.009L629.349 469.95H655.089C655.769 469.95 656.319 469.4 656.319 468.72V447.25C656.319 446.57 655.769 446.02 655.089 446.02H636.889L636.799 446.07ZM281.959 151.44L288.459 156.53C289.079 157.01 289.089 157.94 288.489 158.44L282.059 163.85C281.259 164.52 280.039 163.96 280.039 162.92L279.959 152.41C279.959 151.38 281.139 150.8 281.949 151.43L281.959 151.44ZM286.419 148.79H296.689C297.839 148.79 298.359 150.24 297.469 150.98L292.339 155.23C291.879 155.61 291.229 155.61 290.769 155.23L285.629 150.97C284.739 150.23 285.259 148.79 286.419 148.79ZM285.859 164.22L290.849 159.95C291.309 159.56 291.979 159.56 292.439 159.95L297.519 164.19C298.399 164.93 297.879 166.36 296.729 166.37L286.669 166.4C285.529 166.4 284.999 164.98 285.869 164.23L285.859 164.22ZM300.849 163.4L294.769 158.52C294.159 158.03 294.159 157.11 294.759 156.61L300.869 151.58C301.669 150.92 302.889 151.49 302.879 152.53L302.849 162.44C302.849 163.47 301.649 164.04 300.849 163.4ZM308.049 151.09L314.379 156.31C314.959 156.79 314.979 157.68 314.409 158.18L308.139 163.69C307.349 164.39 306.099 163.83 306.099 162.77L306.039 152.04C306.039 151 307.249 150.42 308.049 151.08V151.09ZM312.789 148.79L322.319 148.84C323.469 148.84 323.979 150.28 323.099 151.02L318.309 155.02C317.849 155.41 317.179 155.4 316.719 155.02L311.979 150.96C311.109 150.21 311.639 148.79 312.789 148.79ZM311.609 164.2L316.649 159.71C317.119 159.29 317.819 159.29 318.289 159.71L323.259 164.14C324.099 164.89 323.579 166.28 322.449 166.29L312.439 166.35C311.309 166.35 310.769 164.95 311.609 164.2ZM326.249 163.24L320.589 158.37C319.999 157.87 320.019 156.96 320.629 156.47L326.349 151.91C327.159 151.27 328.349 151.85 328.349 152.88L328.289 162.31C328.289 163.36 327.049 163.92 326.259 163.23L326.249 163.24ZM333.209 152.99L337.269 156.68C337.789 157.16 337.809 157.97 337.299 158.47L333.239 162.45C332.459 163.21 331.149 162.66 331.149 161.57V153.9C331.149 152.83 332.419 152.27 333.209 152.99ZM335.709 148.78H345.529C346.679 148.79 347.199 150.23 346.319 150.97L342.349 154.29C341.969 154.61 341.439 154.64 340.989 154.43C340.419 154.16 339.849 154.1 339.229 154.25C338.829 154.35 338.409 154.24 338.109 153.96L334.869 150.92C334.059 150.16 334.599 148.79 335.709 148.79V148.78ZM335.549 164.19L338.829 161.21C339.099 160.97 339.459 160.85 339.819 160.9C340.429 160.98 340.939 160.98 341.609 160.89C341.959 160.84 342.319 160.94 342.589 161.18L345.989 164.14C346.849 164.89 346.319 166.29 345.189 166.3L336.379 166.34C335.249 166.34 334.709 164.96 335.549 164.2V164.19ZM349.619 163.85L343.539 158.52C342.969 158.02 342.979 157.14 343.549 156.66L349.629 151.49C350.429 150.81 351.659 151.38 351.659 152.43V162.93C351.659 163.99 350.409 164.55 349.609 163.86L349.619 163.85ZM356.609 151.74L361.729 156.57C362.249 157.06 362.239 157.88 361.729 158.36L356.629 163.13C355.839 163.86 354.559 163.31 354.559 162.23L354.539 152.63C354.539 151.55 355.829 150.99 356.619 151.73L356.609 151.74ZM360.389 148.77H368.869C369.979 148.77 370.519 150.12 369.719 150.88L365.449 154.98C364.969 155.44 364.209 155.44 363.739 154.98L359.529 150.88C358.739 150.11 359.279 148.77 360.389 148.77ZM359.089 164.28L363.429 159.96C363.919 159.47 364.709 159.48 365.189 159.99L369.279 164.29C370.019 165.07 369.469 166.37 368.389 166.37H359.959C358.859 166.39 358.309 165.06 359.089 164.28ZM367.209 156.49L371.699 152.39C372.479 151.67 373.749 152.22 373.759 153.28L373.869 162.14C373.879 163.25 372.529 163.81 371.749 163.01L367.149 158.26C366.669 157.76 366.689 156.96 367.199 156.5L367.209 156.49ZM378.869 151.9L383.659 156.56C384.149 157.04 384.159 157.83 383.669 158.31L378.939 163.04C378.169 163.81 376.849 163.27 376.839 162.18L376.789 152.79C376.789 151.7 378.099 151.14 378.879 151.9H378.869ZM381.329 164.32L385.269 160.07C385.749 159.55 386.579 159.54 387.069 160.07L390.989 164.23C391.729 165.01 391.179 166.29 390.109 166.31L382.249 166.4C381.169 166.41 380.599 165.12 381.329 164.33V164.32ZM404.429 164.27L409.089 160.11C409.549 159.7 410.229 159.69 410.699 160.08L415.589 164.18C416.469 164.92 415.949 166.35 414.809 166.35L405.259 166.41C404.129 166.41 403.589 165.02 404.429 164.26V164.27ZM417.849 162.51L412.939 158.59C412.339 158.11 412.319 157.2 412.899 156.7L416.849 153.27C417.589 152.63 418.749 153.07 418.879 154.04L419.849 161.39C419.989 162.49 418.729 163.2 417.859 162.51H417.849ZM415.629 150.9C414.049 152.47 412.399 153.86 410.579 155.35C410.119 155.73 409.449 155.72 408.999 155.34L403.819 150.94C402.949 150.2 403.469 148.77 404.619 148.77L414.769 148.79C415.869 148.79 416.419 150.13 415.629 150.9ZM406.629 158.65L400.539 164.05C399.749 164.75 398.499 164.19 398.489 163.13L398.449 152.68C398.449 151.64 399.659 151.06 400.459 151.73L406.589 156.78C407.169 157.26 407.189 158.15 406.619 158.65H406.629ZM393.289 162.9L388.879 158.31C388.409 157.82 388.429 157.03 388.919 156.56L393.399 152.32C394.189 151.57 395.489 152.14 395.479 153.22L395.409 162.04C395.409 163.14 394.059 163.68 393.289 162.88V162.9ZM385.489 154.91L381.509 150.88C380.739 150.1 381.289 148.78 382.389 148.78L390.319 148.8C391.409 148.8 391.959 150.12 391.189 150.89L387.239 154.9C386.759 155.39 385.969 155.39 385.489 154.9V154.91ZM311.359 114.18L383.609 142.89C384.869 143.39 384.509 145.26 383.159 145.26L280.319 145.36C279.739 145.36 279.239 144.96 279.119 144.39L276.519 132.58L269.389 99.81C269.179 98.85 270.129 98.04 271.039 98.4L311.359 114.17V114.18ZM267.909 108.46L275.759 143.87C275.929 144.64 275.349 145.37 274.559 145.37L259.649 145.4C258.869 145.4 258.289 144.69 258.439 143.92L262.209 125.41L265.489 108.5C265.739 107.19 267.609 107.16 267.899 108.47L267.909 108.46ZM258.549 214.13L258.499 204.63C258.499 203.46 259.969 202.94 260.689 203.86L264.649 208.83C265.019 209.29 265.009 209.95 264.619 210.4L260.719 214.93C259.979 215.79 258.559 215.27 258.559 214.13H258.549ZM268.029 212.61L272.929 218.42C273.599 219.22 273.039 220.44 271.989 220.44L262.059 220.47C261.009 220.47 260.439 219.23 261.119 218.44L266.149 212.61C266.639 212.04 267.529 212.04 268.019 212.61H268.029ZM264.609 234.36L260.669 238.56C259.909 239.37 258.539 238.83 258.539 237.72V229.3C258.539 228.18 259.909 227.64 260.669 228.46L264.609 232.68C265.049 233.15 265.049 233.89 264.609 234.36ZM264.609 257.59L260.739 262.17C259.999 263.04 258.569 262.53 258.569 261.38L258.519 252.29C258.519 251.15 259.929 250.61 260.679 251.48L264.599 255.98C264.999 256.44 264.999 257.12 264.609 257.58V257.59ZM264.569 348.65L260.709 352.98C259.959 353.83 258.559 353.29 258.559 352.16V343.85C258.569 342.74 259.919 342.2 260.689 343L264.529 346.99C264.979 347.45 264.989 348.18 264.559 348.66L264.569 348.65ZM263.339 339.25H270.859C271.939 339.24 272.499 340.53 271.759 341.31L268.049 345.26C267.569 345.77 266.759 345.78 266.269 345.27L262.469 341.33C261.719 340.55 262.269 339.25 263.349 339.24L263.339 339.25ZM260.669 321.37L264.489 325.19C264.959 325.66 264.969 326.42 264.509 326.9L260.709 330.94C259.949 331.75 258.589 331.21 258.579 330.1V322.24C258.569 321.14 259.899 320.59 260.669 321.37ZM258.519 308.17V299.26C258.509 298.13 259.889 297.6 260.649 298.43L264.659 302.84C265.079 303.31 265.089 304.02 264.659 304.49L260.659 308.99C259.909 309.84 258.509 309.3 258.509 308.17H258.519ZM260.659 275.55L264.469 279.48C264.929 279.95 264.929 280.7 264.479 281.18L260.699 285.21C259.939 286.02 258.579 285.49 258.569 284.37L258.539 276.4C258.539 275.29 259.879 274.74 260.659 275.54V275.55ZM264.389 372.17L260.669 376.02C259.899 376.81 258.559 376.27 258.549 375.17L258.519 367.12C258.519 365.99 259.909 365.45 260.669 366.29L264.429 370.49C264.859 370.97 264.849 371.7 264.399 372.17H264.389ZM259.959 380.37L260.049 380.28L264.189 380.32L259.959 380.38H271.579C272.649 380.4 273.199 381.69 272.459 382.47L267.839 387.35C267.359 387.86 266.539 387.86 266.049 387.35L259.389 380.37H259.949H259.959ZM262.749 377.52L266.179 374.03C266.649 373.55 267.429 373.54 267.909 374.01L271.529 377.5C272.329 378.27 271.779 379.62 270.669 379.62H263.629C262.539 379.62 261.989 378.31 262.749 377.53V377.52ZM262.239 361.12H272.019C273.089 361.12 273.649 362.4 272.929 363.19L267.989 368.57C267.499 369.1 266.649 369.1 266.169 368.57L261.329 363.19C260.619 362.4 261.179 361.14 262.239 361.14V361.12ZM261.239 356.15L266.179 350.64C266.659 350.1 267.499 350.09 267.989 350.62L273.119 356.1C273.859 356.88 273.299 358.17 272.229 358.17L262.149 358.2C261.079 358.2 260.519 356.94 261.229 356.15H261.239ZM269.689 347.14L273.859 342.79C274.629 341.99 275.969 342.53 275.979 343.64L276.019 352.35C276.019 353.46 274.679 354.01 273.899 353.21L269.689 348.86C269.229 348.38 269.229 347.63 269.689 347.15V347.14ZM261.029 334.22L266.119 328.82C266.599 328.31 267.419 328.3 267.909 328.82L272.999 334.15C273.749 334.93 273.199 336.22 272.119 336.23L261.939 336.3C260.859 336.3 260.289 335.01 261.039 334.23L261.029 334.22ZM262.939 317.09L271.439 317.06C272.539 317.06 273.089 318.39 272.309 319.17L267.909 323.5C267.419 323.98 266.629 323.97 266.159 323.47L262.059 319.17C261.309 318.39 261.869 317.09 262.949 317.09H262.939ZM261.139 312.15L266.119 306.43C266.599 305.87 267.469 305.86 267.959 306.41L273.109 312.09C273.829 312.88 273.269 314.14 272.199 314.15L262.069 314.19C261.009 314.19 260.439 312.95 261.139 312.15ZM269.649 302.89L273.879 298.3C274.639 297.47 276.019 298.01 276.019 299.14V308.19C276.009 309.3 274.649 309.84 273.879 309.03L269.659 304.57C269.219 304.1 269.209 303.37 269.649 302.89ZM266.239 300.9L261.089 295.26C260.369 294.47 260.929 293.2 261.999 293.2L272.249 293.23C273.319 293.23 273.869 294.5 273.159 295.29L268.069 300.91C267.579 301.45 266.739 301.45 266.249 300.91L266.239 300.9ZM261.399 288.14L266.119 283.02C266.609 282.49 267.449 282.49 267.929 283.02L272.569 288.12C273.289 288.91 272.729 290.18 271.659 290.18L262.299 290.2C261.229 290.2 260.659 288.92 261.389 288.13L261.399 288.14ZM266.079 277.7L261.469 272.73C260.739 271.94 261.299 270.66 262.369 270.66H271.889C272.979 270.68 273.529 272 272.759 272.77L267.849 277.73C267.359 278.23 266.549 278.21 266.069 277.7H266.079ZM260.949 265.74L266.149 259.72C266.639 259.15 267.509 259.15 268.009 259.72L273.259 265.69C273.959 266.48 273.399 267.73 272.339 267.73L261.899 267.78C260.839 267.78 260.269 266.54 260.959 265.74H260.949ZM261.749 245.93L272.569 245.95C273.629 245.95 274.189 247.21 273.479 248L268.019 254.06C267.529 254.61 266.669 254.6 266.179 254.05L260.819 247.97C260.119 247.17 260.689 245.92 261.749 245.93ZM261.779 241L266.239 236.14C266.719 235.61 267.549 235.61 268.039 236.13L272.599 240.96C273.339 241.74 272.789 243.03 271.709 243.04L262.699 243.07C261.629 243.07 261.059 241.8 261.789 241.01L261.779 241ZM262.039 223.28H272.599C273.689 223.29 274.239 224.6 273.479 225.38L268.079 230.98C267.589 231.49 266.769 231.48 266.289 230.96L261.129 225.35C260.399 224.56 260.959 223.28 262.039 223.29V223.28ZM269.469 208.71L273.889 203.56C274.639 202.69 276.059 203.22 276.049 204.37L275.979 214.58C275.979 215.72 274.559 216.24 273.819 215.37L269.469 210.31C269.069 209.85 269.069 209.17 269.469 208.71ZM266.119 206.5L260.899 200.13C260.239 199.33 260.809 198.12 261.849 198.12H272.589C273.639 198.12 274.209 199.37 273.519 200.16L267.999 206.52C267.499 207.1 266.599 207.08 266.119 206.49V206.5ZM262.029 164.3L266.229 160.3C266.709 159.85 267.449 159.85 267.929 160.3L272.079 164.26C272.879 165.02 272.339 166.38 271.239 166.38L262.879 166.42C261.769 166.42 261.219 165.07 262.029 164.3ZM262.969 148.76L271.739 148.78C272.849 148.78 273.389 150.13 272.589 150.9L268.219 155.08C267.739 155.53 266.999 155.54 266.519 155.08L262.109 150.88C261.299 150.11 261.849 148.76 262.959 148.76H262.969ZM175.049 129.83L241.339 105.71C242.739 105.2 243.669 107.15 242.399 107.92L211.039 127L180.679 145.2C180.489 145.32 180.269 145.38 180.039 145.38L139.619 145.22C138.239 145.22 137.909 143.3 139.209 142.83L175.049 129.83ZM171.619 151L166.189 155.23C165.719 155.59 165.059 155.57 164.619 155.18L159.809 150.95C158.959 150.2 159.489 148.8 160.619 148.8H170.849C172.019 148.8 172.529 150.28 171.609 151H171.619ZM145.879 150.98C144.309 152.41 142.729 153.77 141.049 155.21C140.579 155.61 139.879 155.61 139.419 155.19L134.699 150.91C133.859 150.15 134.399 148.76 135.529 148.77L145.059 148.83C146.179 148.83 146.709 150.22 145.879 150.97V150.98ZM131.639 151.7L137.229 156.64C137.779 157.13 137.789 157.98 137.239 158.47L131.689 163.51C130.899 164.23 129.639 163.67 129.629 162.6L129.589 152.62C129.589 151.56 130.839 150.99 131.639 151.69V151.7ZM134.719 164.24L139.139 160.17C139.599 159.74 140.319 159.74 140.789 160.15L145.369 164.2C146.219 164.95 145.689 166.35 144.559 166.35L135.559 166.37C134.439 166.37 133.899 164.99 134.719 164.23V164.24ZM148.789 163.49L143.119 158.59C142.559 158.1 142.549 157.23 143.109 156.74L148.789 151.7C149.579 150.99 150.839 151.56 150.839 152.62V162.56C150.839 163.61 149.589 164.18 148.799 163.49H148.789ZM155.979 151.16L162.219 156.51C162.799 157.01 162.789 157.9 162.209 158.39L156.009 163.57C155.209 164.24 153.989 163.67 153.989 162.63L153.949 152.09C153.949 151.04 155.179 150.46 155.979 151.15V151.16ZM159.469 164.19L164.559 159.89C165.019 159.5 165.699 159.5 166.159 159.89L171.219 164.24C172.089 164.99 171.559 166.41 170.409 166.4L160.259 166.35C159.119 166.35 158.599 164.92 159.469 164.18V164.19ZM174.849 163.88L168.469 158.62C167.869 158.13 167.869 157.21 168.469 156.72L174.919 151.45C175.729 150.79 176.939 151.37 176.929 152.41L176.859 162.94C176.859 163.98 175.649 164.54 174.849 163.88ZM181.739 151.46L187.439 156.41C187.999 156.9 188.009 157.77 187.439 158.26L181.819 163.23C181.029 163.93 179.779 163.37 179.769 162.32L179.689 152.4C179.689 151.34 180.929 150.77 181.729 151.46H181.739ZM185.919 148.79L194.839 148.82C195.969 148.82 196.499 150.21 195.659 150.97L191.199 154.99C190.729 155.41 190.019 155.41 189.549 154.99L185.089 150.94C184.259 150.18 184.789 148.79 185.919 148.8V148.79ZM184.499 164.24L189.459 159.77C189.939 159.34 190.669 159.35 191.129 159.79L195.819 164.26C196.619 165.03 196.079 166.38 194.969 166.38H185.319C184.189 166.38 183.659 165 184.489 164.24H184.499ZM198.689 163.47L193.159 158.33C192.619 157.83 192.639 156.98 193.189 156.5L198.729 151.67C199.529 150.98 200.769 151.54 200.769 152.6V162.57C200.769 163.64 199.479 164.2 198.689 163.47ZM212.999 158.27L205.569 163.98C204.759 164.6 203.589 164.02 203.589 163V151.37C203.599 150.34 204.789 149.77 205.599 150.41L213.019 156.33C213.639 156.83 213.639 157.78 212.999 158.27ZM211.599 148.85H221.219C222.359 148.84 222.889 150.26 222.019 151L217.269 155.07C216.809 155.46 216.139 155.46 215.679 155.08L210.819 151.02C209.939 150.28 210.459 148.85 211.609 148.84L211.599 148.85ZM209.999 164.21L215.499 159.72C215.959 159.35 216.619 159.35 217.069 159.73L222.389 164.21C223.269 164.95 222.749 166.38 221.599 166.38H210.769C209.609 166.39 209.089 164.94 209.989 164.21H209.999ZM219.649 156.46L225.559 151.56C226.359 150.9 227.569 151.46 227.579 152.5L227.609 162.52C227.609 163.58 226.369 164.14 225.569 163.45L219.639 158.33C219.059 157.83 219.069 156.94 219.659 156.45L219.649 156.46ZM239.749 158.39L232.659 163.97C231.849 164.61 230.669 164.03 230.669 163L230.689 151.56C230.689 150.52 231.899 149.95 232.709 150.61L239.779 156.47C240.379 156.97 240.369 157.9 239.759 158.38L239.749 158.39ZM238.029 148.77L248.529 148.79C249.699 148.79 250.209 150.28 249.279 150.99L243.809 155.22C243.349 155.58 242.709 155.56 242.259 155.19L237.229 150.94C236.349 150.2 236.879 148.77 238.029 148.77ZM236.819 164.18L242.159 159.88C242.619 159.51 243.279 159.52 243.729 159.9L248.789 164.21C249.659 164.95 249.129 166.38 247.989 166.38L237.589 166.36C236.429 166.36 235.919 164.9 236.819 164.17V164.18ZM252.399 163.97L246.059 158.57C245.459 158.06 245.489 157.12 246.119 156.65L252.639 151.73C253.459 151.11 254.629 151.71 254.609 152.73L254.429 163.05C254.409 164.09 253.189 164.64 252.399 163.97ZM253.869 145.37L190.179 145.3C188.929 145.3 188.479 143.65 189.549 143.01L214.239 128.24L239.169 113.17L261.539 99.83C262.449 99.29 263.579 100.08 263.379 101.12L255.079 144.38C254.969 144.96 254.459 145.38 253.869 145.38V145.37ZM259.769 152.54L264.349 156.81C264.859 157.29 264.869 158.1 264.379 158.59L259.699 163.21C258.919 163.98 257.589 163.42 257.599 162.32L257.699 153.43C257.709 152.36 258.989 151.81 259.769 152.54ZM260.439 385.12L264.279 389.21C264.719 389.68 264.729 390.4 264.299 390.88L260.439 395.15C259.679 395.99 258.289 395.45 258.299 394.32L258.319 385.96C258.319 384.85 259.689 384.31 260.449 385.12H260.439ZM259.979 402.96L259.809 402.78H259.979V402.96ZM262.199 400.01L262.029 399.57C261.909 399.25 260.299 399.63 259.989 399.74V400.01H259.359L266.009 392.73C266.489 392.2 267.329 392.2 267.819 392.73L272.709 397.97C273.449 398.76 272.889 400.04 271.809 400.04L262.199 400.02V400.01ZM273.689 395.21L269.489 390.87C269.029 390.39 269.029 389.64 269.489 389.16L273.699 384.78C274.469 383.98 275.819 384.53 275.819 385.64V394.36C275.799 395.47 274.459 396.01 273.689 395.21ZM273.939 376.06L269.849 372.16C269.369 371.7 269.339 370.94 269.789 370.44L273.889 365.93C274.649 365.1 276.029 365.63 276.029 366.76V375.17C276.029 376.25 274.719 376.81 273.939 376.06ZM273.909 331.19L269.769 327.01C269.299 326.53 269.299 325.76 269.769 325.28L273.929 321.08C274.699 320.3 276.039 320.85 276.039 321.95L276.019 330.34C276.019 331.44 274.689 331.98 273.909 331.2V331.19ZM273.869 285.76L269.529 281.07C269.079 280.58 269.099 279.83 269.569 279.36L273.949 275.02C274.729 274.25 276.049 274.8 276.049 275.9L276.009 284.94C276.009 286.06 274.629 286.59 273.879 285.77L273.869 285.76ZM273.859 262.58L269.519 257.76C269.099 257.29 269.099 256.57 269.519 256.1L273.899 251.34C274.659 250.51 276.039 251.05 276.039 252.18L275.999 261.76C275.999 262.89 274.609 263.41 273.849 262.58H273.859ZM273.929 238.71L269.729 234.47C269.259 233.99 269.249 233.23 269.729 232.74L273.979 228.39C274.749 227.6 276.099 228.15 276.089 229.26L276.039 237.86C276.039 238.96 274.709 239.5 273.929 238.72V238.71ZM274.639 163L270.019 158.55C269.509 158.06 269.519 157.24 270.039 156.76L274.729 152.42C275.519 151.69 276.809 152.25 276.799 153.33L276.729 162.12C276.729 163.2 275.419 163.75 274.639 163Z" fill="#01654D"/>
<path d="M0 469.5H678" stroke="#101727" stroke-miterlimit="10"/>
<path d="M445.41 123.37V205.22L491.79 224.94" stroke="#101727" stroke-width="16" stroke-miterlimit="10"/>
<path d="M444.23 380.88C423.92 380.88 404.01 377.42 384.91 370.55C363.47 362.84 343.95 351.2 326.9 335.93C309.85 320.66 296.12 302.55 286.1 282.08C275.72 260.89 269.8 238.1 268.49 214.35C267.18 190.6 270.56 167.29 278.54 145.09C286.25 123.65 297.9 104.13 313.16 87.08C328.43 70.03 346.54 56.3 367.01 46.28C388.2 35.9 410.99 29.98 434.74 28.67C457.25 27.43 479.41 30.41 500.6 37.54L496.28 50.39C476.73 43.81 456.28 41.06 435.49 42.21C413.56 43.42 392.52 48.89 372.97 58.46C354.08 67.71 337.35 80.38 323.26 96.12C309.16 111.86 298.41 129.88 291.3 149.68C283.94 170.17 280.82 191.68 282.03 213.61C283.24 235.54 288.71 256.58 298.28 276.13C307.53 295.02 320.2 311.75 335.94 325.84C351.68 339.94 369.7 350.69 389.5 357.8C409.99 365.16 431.49 368.28 453.43 367.07C475.36 365.86 496.4 360.39 515.95 350.82L521.91 362.99C500.719 373.37 477.93 379.29 454.18 380.6C450.86 380.78 447.54 380.88 444.24 380.88H444.23Z" fill="#849465" stroke="#101727" stroke-miterlimit="10"/>
<path d="M523.981 359.65L519.731 351.39C520.711 350.89 521.701 350.36 522.671 349.84L527.081 358.02C526.051 358.58 525.001 359.13 523.971 359.66L523.981 359.65ZM530.171 356.31L525.591 348.23C526.551 347.68 527.521 347.12 528.471 346.56L533.211 354.55C532.211 355.14 531.191 355.74 530.171 356.31ZM536.221 352.72L531.321 344.83C532.261 344.25 533.201 343.65 534.131 343.05L539.191 350.84C538.211 351.48 537.211 352.11 536.221 352.73V352.72ZM542.121 348.89L536.901 341.2C537.811 340.58 538.731 339.95 539.641 339.3L545.011 346.88C544.051 347.56 543.081 348.23 542.121 348.88V348.89ZM547.861 344.83L542.341 337.36C543.231 336.71 544.121 336.03 545.001 335.35L550.671 342.71C549.741 343.42 548.801 344.14 547.861 344.83ZM553.431 340.53L547.611 333.29C548.471 332.6 549.341 331.89 550.181 331.18L556.151 338.3C555.251 339.05 554.341 339.8 553.431 340.53ZM558.821 336.02L552.711 329.02C553.541 328.3 554.381 327.55 555.201 326.81L561.451 333.69C560.581 334.48 559.701 335.26 558.821 336.03V336.02ZM564.021 331.29L557.641 324.54C558.451 323.78 559.251 323 560.041 322.23L566.561 328.85C565.731 329.66 564.881 330.48 564.031 331.29H564.021ZM569.041 326.35L562.391 319.86C563.161 319.07 563.941 318.26 564.691 317.45L571.471 323.8C570.671 324.65 569.851 325.51 569.041 326.34V326.35ZM573.841 321.22L566.941 315L567.241 314.66C567.881 313.94 568.511 313.23 569.141 312.5L576.171 318.58C575.511 319.34 574.841 320.1 574.171 320.86L573.851 321.22H573.841ZM578.451 315.9L571.301 309.97C572.011 309.12 572.711 308.25 573.401 307.39L580.671 313.18C579.941 314.09 579.201 315.01 578.451 315.91V315.9ZM582.831 310.4L575.451 304.76C576.121 303.88 576.791 302.98 577.451 302.09L584.941 307.58C584.251 308.52 583.541 309.47 582.831 310.39V310.4ZM586.991 304.73L579.391 299.39C580.031 298.48 580.661 297.56 581.281 296.65L588.991 301.84C588.341 302.81 587.671 303.78 587.001 304.74L586.991 304.73ZM590.911 298.9L583.101 293.87C583.701 292.94 584.291 291.99 584.881 291.05L592.791 295.92C592.181 296.91 591.551 297.92 590.921 298.9H590.911ZM594.601 292.91L586.591 288.2C587.151 287.25 587.711 286.28 588.251 285.31L596.351 289.86C595.781 290.88 595.191 291.91 594.601 292.91ZM598.051 286.77L589.861 282.38C590.381 281.41 590.901 280.41 591.401 279.43L599.681 283.65C599.151 284.69 598.601 285.74 598.051 286.77ZM601.241 280.51L592.881 276.46C593.361 275.46 593.841 274.45 594.301 273.45L602.741 277.33C602.251 278.39 601.751 279.46 601.241 280.51ZM604.181 274.11L595.661 270.4C596.101 269.39 596.541 268.35 596.961 267.33L605.551 270.87C605.111 271.95 604.651 273.04 604.181 274.11ZM606.861 267.61L598.201 264.25C598.601 263.22 598.991 262.17 599.371 261.13L608.101 264.31C607.701 265.41 607.281 266.51 606.861 267.6V267.61ZM609.271 261L600.481 257.99C600.841 256.94 601.191 255.88 601.521 254.83L610.371 257.66C610.021 258.77 609.641 259.89 609.271 261ZM611.411 254.29L602.501 251.65C602.811 250.59 603.121 249.51 603.421 248.45L612.381 250.91C612.071 252.04 611.741 253.17 611.411 254.29ZM613.271 247.51L604.261 245.23C604.531 244.16 604.791 243.07 605.041 241.99L614.091 244.09C613.831 245.23 613.551 246.38 613.261 247.51H613.271ZM614.861 240.65L605.771 238.74C606.001 237.65 606.221 236.55 606.421 235.47L615.551 237.2C615.331 238.34 615.101 239.5 614.861 240.65ZM616.171 233.74L607.011 232.2C607.191 231.11 607.371 230 607.531 228.91L616.721 230.26C616.551 231.41 616.371 232.58 616.171 233.74ZM617.191 226.78L607.971 225.61C608.111 224.52 608.241 223.4 608.351 222.3L617.591 223.28C617.471 224.44 617.331 225.62 617.181 226.78H617.191ZM617.931 219.78L608.671 218.99C608.761 217.89 608.851 216.77 608.921 215.67L618.191 216.28C618.111 217.44 618.031 218.62 617.931 219.79V219.78ZM618.391 212.76L609.111 212.34C609.161 211.24 609.201 210.12 609.231 209.01L618.521 209.24C618.491 210.41 618.451 211.6 618.401 212.76H618.391ZM618.571 205.72L609.281 205.68C609.281 204.58 609.281 203.46 609.261 202.35L618.551 202.21C618.571 203.38 618.571 204.56 618.571 205.73V205.72ZM618.461 198.69L609.171 199.01C609.131 197.91 609.081 196.79 609.021 195.68L618.301 195.17C618.361 196.34 618.421 197.52 618.461 198.69ZM608.811 192.36C608.731 191.26 608.631 190.14 608.531 189.04L617.781 188.16C617.891 189.32 617.991 190.5 618.081 191.66L608.811 192.35V192.36ZM608.181 185.74C608.051 184.64 607.911 183.52 607.771 182.44L616.981 181.19C617.141 182.34 617.281 183.51 617.421 184.68L608.191 185.74H608.181ZM607.291 179.14C607.121 178.04 606.941 176.94 606.741 175.86L615.891 174.24C616.091 175.38 616.291 176.55 616.471 177.71L607.291 179.14ZM606.131 172.58C605.921 171.5 605.691 170.4 605.451 169.32L614.531 167.34C614.781 168.48 615.021 169.64 615.251 170.78L606.131 172.58ZM604.711 166.08C604.451 165 604.181 163.91 603.901 162.85L612.891 160.5C613.181 161.62 613.471 162.77 613.741 163.91L604.701 166.08H604.711ZM603.031 159.64C602.731 158.58 602.411 157.5 602.091 156.45L610.981 153.74C611.321 154.85 611.651 155.99 611.971 157.11L603.031 159.64ZM601.081 153.28C600.741 152.23 600.381 151.17 600.011 150.13L608.781 147.06C609.171 148.16 609.551 149.28 609.911 150.39L601.081 153.28ZM598.881 147C598.501 145.97 598.091 144.93 597.681 143.9L606.321 140.47C606.751 141.56 607.181 142.66 607.581 143.75L598.871 147H598.881ZM596.431 140.81C596.001 139.8 595.561 138.77 595.111 137.76L603.601 133.98C604.081 135.05 604.551 136.14 605.001 137.21L596.431 140.81ZM593.721 134.73C593.341 133.92 592.951 133.11 592.551 132.3L592.271 131.73L600.601 127.62L600.891 128.21C601.311 129.06 601.721 129.92 602.121 130.78L593.711 134.73H593.721ZM590.771 128.77C590.261 127.79 589.741 126.8 589.211 125.83L597.371 121.38C597.931 122.41 598.491 123.45 599.021 124.48L590.781 128.77H590.771ZM587.581 122.92C587.031 121.96 586.461 120.99 585.901 120.05L593.871 115.27C594.471 116.27 595.071 117.29 595.651 118.3L587.591 122.92H587.581ZM584.161 117.21C583.581 116.28 582.971 115.34 582.361 114.41L590.131 109.31C590.771 110.29 591.411 111.29 592.031 112.27L584.161 117.21ZM580.501 111.65C579.881 110.74 579.241 109.83 578.591 108.92L586.151 103.51C586.831 104.46 587.511 105.43 588.171 106.39L580.511 111.64L580.501 111.65ZM576.631 106.23C575.971 105.35 575.291 104.46 574.611 103.58L581.941 97.87C582.661 98.8 583.381 99.74 584.071 100.67L576.621 106.23H576.631ZM572.541 100.98C571.851 100.13 571.131 99.26 570.421 98.42L577.521 92.42C578.281 93.32 579.031 94.23 579.761 95.13L572.541 100.98ZM568.241 95.9C567.511 95.07 566.761 94.24 566.021 93.42L572.871 87.14C573.661 88 574.451 88.88 575.221 89.76L568.251 95.9H568.241ZM563.741 90.99C562.981 90.19 562.201 89.39 561.421 88.6L568.011 82.05C568.831 82.88 569.661 83.73 570.461 84.57L563.741 90.99ZM559.051 86.26C558.251 85.49 557.441 84.72 556.631 83.97L562.951 77.16C563.801 77.95 564.661 78.77 565.501 79.58L559.041 86.26H559.051ZM554.171 81.73C553.351 81 552.501 80.26 551.661 79.54L557.711 72.48C558.601 73.24 559.491 74.02 560.361 74.79L554.171 81.72V81.73ZM549.111 77.4C548.261 76.7 547.391 76 546.521 75.31L552.281 68.02C553.201 68.74 554.121 69.49 555.021 70.23L549.121 77.41L549.111 77.4ZM543.881 73.27C543.001 72.6 542.101 71.93 541.201 71.29L546.661 63.77C547.601 64.45 548.551 65.16 549.481 65.86L543.871 73.27H543.881ZM538.491 69.36C537.581 68.73 536.661 68.1 535.741 67.49L540.891 59.76C541.861 60.41 542.841 61.07 543.801 61.74L538.491 69.37V69.36ZM532.951 65.67C532.021 65.07 531.071 64.48 530.121 63.91L534.961 55.98C535.951 56.59 536.961 57.21 537.941 57.84L532.941 65.67H532.951ZM527.261 62.2C526.311 61.65 525.341 61.09 524.371 60.55L528.881 52.43C529.901 53 530.931 53.58 531.941 54.17L527.261 62.2ZM521.441 58.97C520.471 58.45 519.471 57.94 518.481 57.44L522.661 49.14C523.701 49.67 524.761 50.21 525.791 50.75L521.441 58.96V58.97ZM515.501 55.97C514.511 55.49 513.491 55.02 512.481 54.56L516.321 46.1C517.391 46.58 518.461 47.08 519.511 47.59L515.501 55.97ZM509.431 53.22C508.421 52.78 507.381 52.35 506.361 51.94L509.851 43.33C510.931 43.77 512.031 44.23 513.101 44.69L509.431 53.23V53.22ZM503.261 50.71C502.231 50.32 501.181 49.93 500.141 49.55L503.281 40.81C504.381 41.21 505.491 41.62 506.581 42.03L503.261 50.71Z" fill="#B7AB65"/>
<path d="M445.409 217.27C452.064 217.27 457.459 211.875 457.459 205.22C457.459 198.565 452.064 193.17 445.409 193.17C438.754 193.17 433.359 198.565 433.359 205.22C433.359 211.875 438.754 217.27 445.409 217.27Z" fill="#E9BE51"/>
<path d="M496.54 0.850006H399.11C395.884 0.850006 393.27 3.46466 393.27 6.69001V104.12C393.27 107.345 395.884 109.96 399.11 109.96H496.54C499.765 109.96 502.38 107.345 502.38 104.12V6.69001C502.38 3.46466 499.765 0.850006 496.54 0.850006Z" fill="white"/>
<path d="M616.331 185.82H518.901C515.675 185.82 513.061 188.435 513.061 191.66V289.09C513.061 292.315 515.675 294.93 518.901 294.93H616.331C619.556 294.93 622.171 292.315 622.171 289.09V191.66C622.171 188.435 619.556 185.82 616.331 185.82Z" fill="white"/>
<path d="M616.25 185.67H518.82C515.595 185.67 512.98 188.285 512.98 191.51V288.94C512.98 292.165 515.595 294.78 518.82 294.78H616.25C619.476 294.78 622.091 292.165 622.091 288.94V191.51C622.091 188.285 619.476 185.67 616.25 185.67Z" fill="white"/>
<path d="M502.38 92.64V104.12C502.38 107.35 499.77 109.96 496.54 109.96H399.11C395.88 109.96 393.27 107.35 393.27 104.12V6.69001C393.27 3.46001 395.88 0.850006 399.11 0.850006H479.32" stroke="#101727" stroke-miterlimit="10"/>
<path d="M488.65 0.850006H496.54C499.77 0.850006 502.38 3.46001 502.38 6.69001V80.39" stroke="#101727" stroke-miterlimit="10"/>
<path d="M390.85 109.96C387.62 109.96 385.01 107.35 385.01 104.12V6.69" stroke="#101727" stroke-miterlimit="10"/>
<path d="M422.781 11.94C414.651 11.94 408.061 18.53 408.061 26.66V30.62H437.501V26.66C437.501 18.53 430.911 11.94 422.781 11.94Z" fill="#E9BE51" stroke="#101727" stroke-miterlimit="10"/>
<path d="M429.2 29.25H441.24C442.34 29.25 443.23 30.14 443.23 31.24C443.23 32.34 442.34 33.23 441.24 33.23H406.98C405.88 33.23 404.99 32.34 404.99 31.24C404.99 30.14 405.88 29.25 406.98 29.25H409.48" fill="#E9BE51"/>
<path d="M424.46 12.03C424.46 12.03 434.79 12.84 434.79 23.24H431C431.02 12.3 420.58 12.1 420.58 12.1" stroke="#101727" stroke-miterlimit="10"/>
<path d="M429.2 29.25H441.24C442.34 29.25 443.23 30.14 443.23 31.24C443.23 32.34 442.34 33.23 441.24 33.23H406.98C405.88 33.23 404.99 32.34 404.99 31.24C404.99 30.14 405.88 29.25 406.98 29.25H409.48" stroke="#101727" stroke-miterlimit="10"/>
<path d="M469.22 11.94C461.09 11.94 454.5 18.53 454.5 26.66V30.62H483.94V26.66C483.94 18.53 477.35 11.94 469.22 11.94Z" fill="#E9BE51" stroke="#101727" stroke-miterlimit="10"/>
<path d="M475.64 29.25H487.68C488.78 29.25 489.67 30.14 489.67 31.24C489.67 32.34 488.78 33.23 487.68 33.23H453.42C452.32 33.23 451.43 32.34 451.43 31.24C451.43 30.14 452.32 29.25 453.42 29.25H455.92" fill="#E9BE51"/>
<path d="M470.9 12.03C470.9 12.03 481.23 12.84 481.23 23.24H477.44C477.46 12.3 467.02 12.1 467.02 12.1" stroke="#101727" stroke-miterlimit="10"/>
<path d="M475.64 29.25H487.68C488.78 29.25 489.67 30.14 489.67 31.24C489.67 32.34 488.78 33.23 487.68 33.23H453.42C452.32 33.23 451.43 32.34 451.43 31.24C451.43 30.14 452.32 29.25 453.42 29.25H455.92" stroke="#101727" stroke-miterlimit="10"/>
<path d="M422.781 44.71C414.651 44.71 408.061 51.3 408.061 59.43V63.39H437.501V59.43C437.501 51.3 430.911 44.71 422.781 44.71Z" fill="#E9BE51" stroke="#101727" stroke-miterlimit="10"/>
<path d="M429.2 62.02H441.24C442.34 62.02 443.23 62.91 443.23 64.01C443.23 65.11 442.34 66 441.24 66H406.98C405.88 66 404.99 65.11 404.99 64.01C404.99 62.91 405.88 62.02 406.98 62.02H409.48" fill="#E9BE51"/>
<path d="M424.46 44.81C424.46 44.81 434.79 45.62 434.79 56.02H431C431.02 45.08 420.58 44.88 420.58 44.88" stroke="#101727" stroke-miterlimit="10"/>
<path d="M429.2 62.02H441.24C442.34 62.02 443.23 62.91 443.23 64.01C443.23 65.11 442.34 66 441.24 66H406.98C405.88 66 404.99 65.11 404.99 64.01C404.99 62.91 405.88 62.02 406.98 62.02H409.48" stroke="#101727" stroke-miterlimit="10"/>
<path d="M469.22 44.71C461.09 44.71 454.5 51.3 454.5 59.43V63.39H483.94V59.43C483.94 51.3 477.35 44.71 469.22 44.71Z" fill="#E9BE51" stroke="#101727" stroke-miterlimit="10"/>
<path d="M475.64 62.02H487.68C488.78 62.02 489.67 62.91 489.67 64.01C489.67 65.11 488.78 66 487.68 66H453.42C452.32 66 451.43 65.11 451.43 64.01C451.43 62.91 452.32 62.02 453.42 62.02H455.92" fill="#E9BE51"/>
<path d="M470.9 44.81C470.9 44.81 481.23 45.62 481.23 56.02H477.44C477.46 45.08 467.02 44.88 467.02 44.88" stroke="#101727" stroke-miterlimit="10"/>
<path d="M475.64 62.02H487.68C488.78 62.02 489.67 62.91 489.67 64.01C489.67 65.11 488.78 66 487.68 66H453.42C452.32 66 451.43 65.11 451.43 64.01C451.43 62.91 452.32 62.02 453.42 62.02H455.92" stroke="#101727" stroke-miterlimit="10"/>
<path d="M422.781 77.48C414.651 77.48 408.061 84.07 408.061 92.2V96.16H437.501V92.2C437.501 84.07 430.911 77.48 422.781 77.48Z" fill="#E9BE51" stroke="#101727" stroke-miterlimit="10"/>
<path d="M429.2 94.8H441.24C442.34 94.8 443.23 95.69 443.23 96.79C443.23 97.89 442.34 98.78 441.24 98.78H406.98C405.88 98.78 404.99 97.89 404.99 96.79C404.99 95.69 405.88 94.8 406.98 94.8H409.48" fill="#E9BE51"/>
<path d="M424.46 77.58C424.46 77.58 434.79 78.39 434.79 88.79H431C431.02 77.85 420.58 77.65 420.58 77.65" stroke="#101727" stroke-miterlimit="10"/>
<path d="M429.2 94.8H441.24C442.34 94.8 443.23 95.69 443.23 96.79C443.23 97.89 442.34 98.78 441.24 98.78H406.98C405.88 98.78 404.99 97.89 404.99 96.79C404.99 95.69 405.88 94.8 406.98 94.8H409.48" stroke="#101727" stroke-miterlimit="10"/>
<path d="M469.211 77.48V98.71" stroke="#101727" stroke-miterlimit="10"/>
<path d="M479.83 88.09H458.6" stroke="#101727" stroke-miterlimit="10"/>
<path d="M616.25 185.69H518.82C515.595 185.69 512.98 188.305 512.98 191.53V288.96C512.98 292.185 515.595 294.8 518.82 294.8H616.25C619.476 294.8 622.091 292.185 622.091 288.96V191.53C622.091 188.305 619.476 185.69 616.25 185.69Z" fill="white"/>
<path d="M622.091 277.48V288.96C622.091 292.19 619.48 294.8 616.25 294.8H518.82C515.59 294.8 512.98 292.19 512.98 288.96V191.53C512.98 188.3 515.59 185.69 518.82 185.69H599.031" stroke="#101727" stroke-miterlimit="10"/>
<path d="M608.359 185.69H616.249C619.479 185.69 622.089 188.3 622.089 191.53V265.23" stroke="#101727" stroke-miterlimit="10"/>
<path d="M510.561 294.8C507.331 294.8 504.721 292.19 504.721 288.96V191.53" stroke="#101727" stroke-miterlimit="10"/>
<path d="M569.131 287.73V274.73H572.971L576.071 279.84C576.341 280.28 576.591 280.72 576.821 281.17C577.051 281.62 577.281 282.1 577.501 282.63C577.721 283.16 577.941 283.78 578.171 284.49H577.861C577.831 284.02 577.791 283.47 577.751 282.85C577.711 282.23 577.671 281.62 577.631 281.02C577.591 280.42 577.581 279.91 577.581 279.5V274.74H581.211V287.74H577.371L574.481 282.99C574.151 282.45 573.871 281.94 573.621 281.48C573.371 281.01 573.131 280.52 572.901 279.99C572.671 279.47 572.411 278.86 572.111 278.17H572.481C572.531 278.78 572.571 279.39 572.621 279.99C572.671 280.59 572.701 281.16 572.721 281.67C572.741 282.18 572.761 282.62 572.761 282.98V287.73H569.131Z" fill="#01654D"/>
<path d="M582.891 287.73V274.73H592.261V277.57H586.411V279.77H591.771V282.55H586.411V284.89H592.221V287.73H582.881H582.891Z" fill="#01654D"/>
<path d="M596.85 287.73L593.4 274.73H597.34L598.38 279.77C598.51 280.4 598.63 281.1 598.74 281.85C598.85 282.6 598.95 283.36 599.05 284.11C599.15 284.86 599.26 285.56 599.36 286.2H598.66C598.78 285.56 598.9 284.86 599.01 284.11C599.12 283.36 599.24 282.61 599.35 281.85C599.46 281.09 599.6 280.4 599.75 279.77L600.9 274.73H604.43L605.58 279.77C605.73 280.4 605.86 281.1 605.98 281.85C606.1 282.6 606.21 283.36 606.32 284.11C606.43 284.86 606.55 285.56 606.67 286.2H605.96C606.07 285.56 606.18 284.86 606.27 284.11C606.36 283.36 606.47 282.61 606.58 281.85C606.69 281.09 606.81 280.4 606.93 279.77L607.98 274.73H611.92L608.47 287.73H604.48L603.19 282.43C602.97 281.52 602.79 280.53 602.66 279.47C602.53 278.41 602.37 277.39 602.18 276.42H603.11C602.89 277.4 602.72 278.41 602.62 279.47C602.52 280.53 602.35 281.51 602.12 282.44L600.82 287.74H596.83L596.85 287.73Z" fill="#01654D"/>
<path d="M549.371 207.34H537.211V281.76H549.371V207.34Z" stroke="#101727" stroke-miterlimit="10"/>
<path d="M521.391 214.51V207.34H595.031L602.141 214.51H521.391Z" stroke="#101727" stroke-miterlimit="10"/>
<path d="M537.211 281.39L543.341 274.7L537.211 268.02L543.341 261.33L537.211 254.64L543.341 247.95L537.211 241.26L543.341 234.58L537.211 227.89L543.341 221.2L537.211 214.51" stroke="#101727" stroke-linejoin="bevel"/>
<path d="M549.37 281.53L543.25 274.85L549.37 268.16L543.25 261.47L549.37 254.78L543.25 248.1L549.37 241.41L543.25 234.72L549.37 228.03L543.25 221.35L549.37 214.66" stroke="#101727" stroke-linejoin="bevel"/>
<path d="M523.17 207.34L529.97 214.14L536.66 207.45L543.34 214.14L550.03 207.45L556.72 214.14L563.41 207.45L570.09 214.14L576.78 207.45L583.47 214.14L590.16 207.45L597.22 214.51" stroke="#101727" stroke-miterlimit="10"/>
<path d="M523.17 207.34L543.01 192.65L576.78 207.45" stroke="#101727" stroke-miterlimit="10"/>
<path d="M539.039 207.45L543.009 192.65L546.949 207.34" stroke="#101727" stroke-linejoin="bevel"/>
<path d="M557.32 281.77H529.23V288.26H557.32V281.77Z" fill="#01654D" stroke="#101727" stroke-miterlimit="10"/>
<path d="M590.391 214.51V224.94" stroke="#101727" stroke-miterlimit="10"/>
<path d="M597.169 232.52C597.169 236.26 594.129 239.3 590.389 239.3C586.649 239.3 583.609 236.26 583.609 232.52" stroke="#101727" stroke-miterlimit="10"/>
<path d="M590.39 231.85C592.113 231.85 593.51 230.453 593.51 228.73C593.51 227.007 592.113 225.61 590.39 225.61C588.666 225.61 587.27 227.007 587.27 228.73C587.27 230.453 588.666 231.85 590.39 231.85Z" fill="#E9BE51" stroke="#101727" stroke-miterlimit="10"/>
<path d="M590.391 231.85V239.29" stroke="#101727" stroke-miterlimit="10"/>
<path d="M219.09 278.06L220.71 434.76L165.66 434.85L165.97 308.3L147.58 278.06H219.1H219.09Z" fill="#01654D"/>
<path d="M147.57 278.06H117.4L76.9805 434.76L132.03 434.85L171.37 308.3L200.94 278.06H147.58H147.57Z" fill="#01654D"/>
<path d="M172.199 438.72L173.089 469.5H238.909C238.909 469.5 248.249 448.8 215.919 448.8C215.169 442.49 216.419 438.33 216.419 438.33L172.189 438.72H172.199Z" fill="#EAE2CF"/>
<path d="M172.199 438.72L173.089 469.5H238.909C238.909 469.5 248.249 448.8 215.919 448.8C215.089 443.71 216.419 438.33 216.419 438.33L172.189 438.72H172.199Z" stroke="#101727" stroke-miterlimit="10"/>
<path d="M128.34 438.76L122.91 469.49H57.0904C57.0904 469.49 47.7504 448.79 80.0804 448.79C81.2204 442.85 82.3804 438.34 82.3804 438.34L128.35 438.75L128.34 438.76Z" fill="#EAE2CF" stroke="#101727" stroke-miterlimit="10"/>
<path d="M163.451 442.86H223.911L225.891 425.91H161.471L163.451 442.86Z" fill="#01654D"/>
<path d="M134.229 442.86H73.7691L71.7891 425.91H136.209L134.229 442.86Z" fill="#01654D"/>
<path d="M225.891 425.91H161.471" stroke="#101727" stroke-miterlimit="10"/>
<path d="M223.909 442.86H163.449" stroke="#101727" stroke-miterlimit="10"/>
<path d="M136.221 425.91H71.8008" stroke="#101727" stroke-miterlimit="10"/>
<path d="M134.23 442.86H73.7695" stroke="#101727" stroke-miterlimit="10"/>
<path d="M199.991 164H156.941L127.351 168.09L111.381 280.5H232.141L231.091 188.05" fill="#EAE2CF"/>
<path d="M199.991 164H156.941L127.351 168.09L111.381 280.5H232.031L231.081 188.05" stroke="#101727" stroke-miterlimit="10"/>
<path d="M154.489 170.7L165.959 141.76L162.089 142.04L156.909 141.28L153.109 139.28L150.759 136.11L150.279 132.52L151.729 129.07L155.949 126.38H158.919L161.749 126.52L213.629 112.36L215.079 115.81L216.669 123.96L217.429 132.25L216.949 140.19L206.449 157.66L187.429 164.1L166.519 174.09L154.499 170.71L154.489 170.7Z" fill="#EAE2CF"/>
<path d="M214.061 112.24C222.311 143.17 211.001 160.5 206.741 167.02L206.521 167.35C204.771 170.03 201.851 171.51 198.851 171.51C197.451 171.51 196.031 171.19 194.701 170.51L194.411 170.37C187.471 166.86 169.061 157.53 160.721 126.55L214.061 112.23V112.24Z" stroke="#101727" stroke-miterlimit="10"/>
<path d="M171.84 81.58L181.92 78.88C193.86 75.68 206.15 82.77 209.35 94.71L214.05 112.26L160.7 126.55L156 109C152.8 97.06 159.9 84.78 171.84 81.58Z" fill="#E9BE51"/>
<path d="M160.699 126.53L228.109 108.47C229.389 108.13 230.139 106.82 229.799 105.54C229.459 104.26 228.139 103.51 226.869 103.85L198.299 111.5" fill="#E9BE51"/>
<path d="M160.699 126.53L228.109 108.47C229.389 108.13 230.139 106.82 229.799 105.54C229.459 104.26 228.139 103.51 226.869 103.85L198.299 111.5" stroke="#101727" stroke-miterlimit="10"/>
<path d="M160.7 126.53C154.22 124.02 148.041 131.22 151.661 137.21C155.061 142.83 162.35 142.25 166.65 141.66" stroke="#101727" stroke-miterlimit="10"/>
<path d="M194.939 123.21C196.599 129.52 200.899 135.36 207.089 138.68C210.869 140.71 205.249 144.07 199.209 139.37" stroke="#101727" stroke-miterlimit="10"/>
<path d="M188.809 145.81C177.039 142.5 173.769 134.07 170.329 123.97L160.699 126.55C169.039 157.53 187.449 166.85 194.389 170.36L194.679 170.5C196.009 171.18 197.429 171.5 198.829 171.5C201.829 171.5 204.749 170.02 206.499 167.34L206.719 167.01C209.599 162.6 215.699 153.26 216.799 138.12C209.319 144.89 198.929 148.66 188.789 145.8L188.809 145.81Z" fill="#101727"/>
<path d="M190.43 133.63C191.78 133.63 192.88 132.53 192.88 131.18C192.88 129.83 191.78 128.73 190.43 128.73C189.08 128.73 187.98 129.83 187.98 131.18C187.98 132.53 189.08 133.63 190.43 133.63Z" stroke="#101727" stroke-miterlimit="10"/>
<path d="M177.661 193.79C179.011 193.79 180.111 192.69 180.111 191.34C180.111 189.99 179.011 188.89 177.661 188.89C176.311 188.89 175.211 189.99 175.211 191.34C175.211 192.69 176.311 193.79 177.661 193.79Z" stroke="#101727" stroke-miterlimit="10"/>
<path d="M180.161 205.27C181.511 205.27 182.611 204.17 182.611 202.82C182.611 201.47 181.511 200.37 180.161 200.37C178.811 200.37 177.711 201.47 177.711 202.82C177.711 204.17 178.811 205.27 180.161 205.27Z" stroke="#101727" stroke-miterlimit="10"/>
<path d="M208.171 131.18C209.521 131.18 210.621 130.08 210.621 128.73C210.621 127.38 209.521 126.28 208.171 126.28C206.821 126.28 205.721 127.38 205.721 128.73C205.721 130.08 206.821 131.18 208.171 131.18Z" stroke="#101727" stroke-miterlimit="10"/>
<path d="M189.831 123.97C187.201 124.38 185.201 125.8 184.131 127.63" stroke="#101727" stroke-miterlimit="10"/>
<path d="M207.43 120.63C210.03 120.1 212.4 120.71 214.05 122.06" stroke="#101727" stroke-miterlimit="10"/>
<path d="M191.25 153.6C194.94 156.18 202.99 156.41 206.17 152.12" stroke="#101727" stroke-miterlimit="10"/>
<path d="M166.669 139.83L156.939 164.01L182.129 179.52L195.349 163.13L166.669 139.83Z" stroke="#101727" stroke-miterlimit="10"/>
<path d="M187.961 208.54C187.891 208.33 182.131 179.51 182.131 179.51" stroke="#101727" stroke-miterlimit="10"/>
<path d="M156.93 164.09L164.46 196.35C164.46 196.35 170.57 179.52 182.13 179.52C193.69 179.52 202.32 191.34 202.32 191.34L198.1 170.59" stroke="#101727" stroke-miterlimit="10"/>
<path d="M188.76 87.77L186.34 90.03L192.1 96.18L194.52 93.92L188.76 87.77Z" fill="#01654D"/>
<path d="M196.01 92.6C199.15 96.41 199.36 99.62 199.27 101.47C197.41 101.44 194.21 101 190.58 97.54C190.46 97.61 190.34 97.68 190.21 97.75C189.25 98.26 188.29 98.67 187.33 98.97C192.91 104.93 198.16 104.81 200.14 104.77H200.23C200.61 104.77 200.97 104.67 201.28 104.5C201.95 104.14 202.43 103.46 202.5 102.65V102.55C202.68 100.58 203.15 95.33 197.59 89.38C197.22 90.5 196.7 91.58 196.01 92.61V92.6Z" fill="white"/>
<path d="M254.681 267.39H195.381L202.711 187.95H262.011L254.681 267.39Z" fill="#01654D" stroke="#101727" stroke-miterlimit="10"/>
<path d="M210.501 221.87H199.791L200.171 215.4H194.011C190.811 215.4 188.221 217.99 188.221 221.19C188.221 221.42 188.241 221.65 188.261 221.87H154.941C151.721 221.87 149.111 219.26 149.111 216.04V190.28H114.381V229.09C114.381 244.19 126.541 256.44 141.591 256.6H141.901H210.501" fill="#EAE2CF"/>
<path d="M210.501 221.87H199.791L200.171 215.4H194.011C190.811 215.4 188.221 217.99 188.221 221.19C188.221 221.42 188.241 221.65 188.261 221.87H154.941C151.721 221.87 149.111 219.26 149.111 216.04V190.28H114.381V229.09C114.381 244.19 126.541 256.44 141.591 256.6H141.901H210.501" stroke="#101727" stroke-miterlimit="10"/>
<path d="M210.5 221.88H241.1C244.3 221.88 246.89 224.47 246.89 227.67C246.89 230.87 244.3 233.46 241.1 233.46H210.5" fill="#EAE2CF"/>
<path d="M210.5 221.88H241.1C244.3 221.88 246.89 224.47 246.89 227.67C246.89 230.87 244.3 233.46 241.1 233.46H210.5" stroke="#101727" stroke-miterlimit="10"/>
<path d="M210.5 233.45H241.1C244.3 233.45 246.89 236.04 246.89 239.24C246.89 242.44 244.3 245.03 241.1 245.03H210.5" fill="#EAE2CF"/>
<path d="M210.5 233.45H241.1C244.3 233.45 246.89 236.04 246.89 239.24C246.89 242.44 244.3 245.03 241.1 245.03H210.5" stroke="#101727" stroke-miterlimit="10"/>
<path d="M210.5 245.02H241.1C244.3 245.02 246.89 247.61 246.89 250.81C246.89 254.01 244.3 256.6 241.1 256.6H210.5" fill="#EAE2CF"/>
<path d="M210.5 245.02H241.1C244.3 245.02 246.89 247.61 246.89 250.81C246.89 254.01 244.3 256.6 241.1 256.6H210.5" stroke="#101727" stroke-miterlimit="10"/>
<path d="M149.12 184.39C149.12 174.8 141.35 167.03 131.76 167.03C122.17 167.03 114.4 174.8 114.4 184.39V213.01H114.47C115.23 207.92 122.68 203.93 131.77 203.93C140.86 203.93 148.3 207.92 149.07 213.01H149.14V184.39H149.12Z" fill="#EAE2CF" stroke="#101727" stroke-miterlimit="10"/>
<path d="M298.99 174.38L258.4 206.16L224.28 172.04C217.64 165.4 206.89 165.41 200.25 172.04C193.61 178.67 193.61 189.43 200.25 196.07L243.54 239.36C250.14 245.96 260.53 246.9 268.21 241.57L321.5 199.17" fill="#EAE2CF"/>
<path d="M298.99 174.38L258.4 206.16L224.28 172.04C217.64 165.4 206.89 165.41 200.25 172.04C193.61 178.67 193.61 189.43 200.25 196.07L243.54 239.36C250.14 245.96 260.53 246.9 268.21 241.57L321.5 199.17" stroke="#101727" stroke-miterlimit="10"/>
<path d="M243.071 190.84C228.741 192.87 219.401 205.13 219.531 215.36" stroke="#101727" stroke-miterlimit="10"/>
<path d="M219.09 278.06L220.71 434.76L165.66 434.85L165.97 308.3L147.58 278.06H219.1H219.09Z" fill="#01654D"/>
<path d="M147.57 278.06H117.4L76.9805 434.76L132.03 434.85L171.37 308.3L200.94 278.06H147.58H147.57Z" fill="#01654D"/>
<path d="M172.199 438.72L173.089 469.5H238.909C238.909 469.5 248.249 448.8 215.919 448.8C215.169 442.49 216.419 438.33 216.419 438.33L172.189 438.72H172.199Z" fill="#EAE2CF"/>
<path d="M172.199 438.72L173.089 469.5H238.909C238.909 469.5 248.249 448.8 215.919 448.8C215.089 443.71 216.419 438.33 216.419 438.33L172.189 438.72H172.199Z" stroke="#101727" stroke-miterlimit="10"/>
<path d="M128.34 438.76L122.91 469.49H57.0904C57.0904 469.49 47.7504 448.79 80.0804 448.79C81.2204 442.85 82.3804 438.34 82.3804 438.34L128.35 438.75L128.34 438.76Z" fill="#EAE2CF" stroke="#101727" stroke-miterlimit="10"/>
<path d="M163.451 442.86H223.911L225.891 425.91H161.471L163.451 442.86Z" fill="#01654D"/>
<path d="M134.229 442.86H73.7691L71.7891 425.91H136.209L134.229 442.86Z" fill="#01654D"/>
<path d="M225.891 425.91H161.471" stroke="#101727" stroke-miterlimit="10"/>
<path d="M223.909 442.86H163.449" stroke="#101727" stroke-miterlimit="10"/>
<path d="M136.221 425.91H71.8008" stroke="#101727" stroke-miterlimit="10"/>
<path d="M134.23 442.86H73.7695" stroke="#101727" stroke-miterlimit="10"/>
<path d="M199.991 164H156.941L127.351 168.09L111.381 280.5H232.141L231.091 188.05" fill="#EAE2CF"/>
<path d="M199.991 164H156.941L127.351 168.09L111.381 280.5H232.031L231.081 188.05" stroke="#101727" stroke-miterlimit="10"/>
<path d="M154.489 170.7L165.959 141.76L162.089 142.04L156.909 141.28L153.109 139.28L150.759 136.11L150.279 132.52L151.729 129.07L155.949 126.38H158.919L161.749 126.52L213.629 112.36L215.079 115.81L216.669 123.96L217.429 132.25L216.949 140.19L206.449 157.66L187.429 164.1L166.519 174.09L154.499 170.71L154.489 170.7Z" fill="#EAE2CF"/>
<path d="M214.061 112.24C222.311 143.17 211.001 160.5 206.741 167.02L206.521 167.35C204.771 170.03 201.851 171.51 198.851 171.51C197.451 171.51 196.031 171.19 194.701 170.51L194.411 170.37C187.471 166.86 169.061 157.53 160.721 126.55L214.061 112.23V112.24Z" stroke="#101727" stroke-miterlimit="10"/>
<path d="M171.84 81.58L181.92 78.88C193.86 75.68 206.15 82.77 209.35 94.71L214.05 112.26L160.7 126.55L156 109C152.8 97.06 159.9 84.78 171.84 81.58Z" fill="#E9BE51"/>
<path d="M160.699 126.53L228.109 108.47C229.389 108.13 230.139 106.82 229.799 105.54C229.459 104.26 228.139 103.51 226.869 103.85L198.299 111.5" fill="#E9BE51"/>
<path d="M160.699 126.53L228.109 108.47C229.389 108.13 230.139 106.82 229.799 105.54C229.459 104.26 228.139 103.51 226.869 103.85L198.299 111.5" stroke="#101727" stroke-miterlimit="10"/>
<path d="M160.7 126.53C154.22 124.02 148.041 131.22 151.661 137.21C155.061 142.83 162.35 142.25 166.65 141.66" stroke="#101727" stroke-miterlimit="10"/>
<path d="M194.939 123.21C196.599 129.52 200.899 135.36 207.089 138.68C210.869 140.71 205.249 144.07 199.209 139.37" stroke="#101727" stroke-miterlimit="10"/>
<path d="M188.911 145.81C177.141 142.5 173.871 134.07 170.431 123.97L160.801 126.55C169.141 157.53 187.551 166.85 194.491 170.36L194.781 170.5C196.111 171.18 197.531 171.5 198.931 171.5C201.931 171.5 204.851 170.02 206.601 167.34L206.821 167.01C209.701 162.6 215.801 153.26 216.901 138.12C209.421 144.89 199.031 148.66 188.891 145.8L188.911 145.81Z" fill="#101727"/>
<path d="M190.43 133.63C191.78 133.63 192.88 132.53 192.88 131.18C192.88 129.83 191.78 128.73 190.43 128.73C189.08 128.73 187.98 129.83 187.98 131.18C187.98 132.53 189.08 133.63 190.43 133.63Z" stroke="#101727" stroke-miterlimit="10"/>
<path d="M177.661 193.79C179.011 193.79 180.111 192.69 180.111 191.34C180.111 189.99 179.011 188.89 177.661 188.89C176.311 188.89 175.211 189.99 175.211 191.34C175.211 192.69 176.311 193.79 177.661 193.79Z" stroke="#101727" stroke-miterlimit="10"/>
<path d="M180.161 205.27C181.511 205.27 182.611 204.17 182.611 202.82C182.611 201.47 181.511 200.37 180.161 200.37C178.811 200.37 177.711 201.47 177.711 202.82C177.711 204.17 178.811 205.27 180.161 205.27Z" stroke="#101727" stroke-miterlimit="10"/>
<path d="M208.171 131.18C209.521 131.18 210.621 130.08 210.621 128.73C210.621 127.38 209.521 126.28 208.171 126.28C206.821 126.28 205.721 127.38 205.721 128.73C205.721 130.08 206.821 131.18 208.171 131.18Z" stroke="#101727" stroke-miterlimit="10"/>
<path d="M189.831 123.97C187.201 124.38 185.201 125.8 184.131 127.63" stroke="#101727" stroke-miterlimit="10"/>
<path d="M207.43 120.63C210.03 120.1 212.4 120.71 214.05 122.06" stroke="#101727" stroke-miterlimit="10"/>
<path d="M191.25 153.6C194.94 156.18 202.99 156.41 206.17 152.12" stroke="#101727" stroke-miterlimit="10"/>
<path d="M166.669 139.83L156.939 164.01L182.129 179.52L195.349 163.13L166.669 139.83Z" stroke="#101727" stroke-miterlimit="10"/>
<path d="M187.961 208.54C187.891 208.33 182.131 179.51 182.131 179.51" stroke="#101727" stroke-miterlimit="10"/>
<path d="M156.93 164.09L164.46 196.35C164.46 196.35 170.57 179.52 182.13 179.52C193.69 179.52 202.32 191.34 202.32 191.34L198.1 170.59" stroke="#101727" stroke-miterlimit="10"/>
<path d="M188.76 87.77L186.34 90.03L192.1 96.18L194.52 93.92L188.76 87.77Z" fill="#01654D"/>
<path d="M196.01 92.6C199.15 96.41 199.36 99.62 199.27 101.47C197.41 101.44 194.21 101 190.58 97.54C190.46 97.61 190.34 97.68 190.21 97.75C189.25 98.26 188.29 98.67 187.33 98.97C192.91 104.93 198.16 104.81 200.14 104.77H200.23C200.61 104.77 200.97 104.67 201.28 104.5C201.95 104.14 202.43 103.46 202.5 102.65V102.55C202.68 100.58 203.15 95.33 197.59 89.38C197.22 90.5 196.7 91.58 196.01 92.61V92.6Z" fill="white"/>
<path d="M254.681 267.39H195.381L202.711 187.95H262.011L254.681 267.39Z" fill="#01654D" stroke="#101727" stroke-miterlimit="10"/>
<path d="M210.501 221.87H199.791L200.171 215.4H194.011C190.811 215.4 188.221 217.99 188.221 221.19C188.221 221.42 188.241 221.65 188.261 221.87H154.941C151.721 221.87 149.111 219.26 149.111 216.04V190.28H114.381V229.09C114.381 244.19 126.541 256.44 141.591 256.6H141.901H210.501" fill="#EAE2CF"/>
<path d="M210.501 221.87H199.791L200.171 215.4H194.011C190.811 215.4 188.221 217.99 188.221 221.19C188.221 221.42 188.241 221.65 188.261 221.87H154.941C151.721 221.87 149.111 219.26 149.111 216.04V190.28H114.381V229.09C114.381 244.19 126.541 256.44 141.591 256.6H141.901H210.501" stroke="#101727" stroke-miterlimit="10"/>
<path d="M210.5 221.88H241.1C244.3 221.88 246.89 224.47 246.89 227.67C246.89 230.87 244.3 233.46 241.1 233.46H210.5" fill="#EAE2CF"/>
<path d="M210.5 221.88H241.1C244.3 221.88 246.89 224.47 246.89 227.67C246.89 230.87 244.3 233.46 241.1 233.46H210.5" stroke="#101727" stroke-miterlimit="10"/>
<path d="M210.5 233.45H241.1C244.3 233.45 246.89 236.04 246.89 239.24C246.89 242.44 244.3 245.03 241.1 245.03H210.5" fill="#EAE2CF"/>
<path d="M210.5 233.45H241.1C244.3 233.45 246.89 236.04 246.89 239.24C246.89 242.44 244.3 245.03 241.1 245.03H210.5" stroke="#101727" stroke-miterlimit="10"/>
<path d="M210.5 245.02H241.1C244.3 245.02 246.89 247.61 246.89 250.81C246.89 254.01 244.3 256.6 241.1 256.6H210.5" fill="#EAE2CF"/>
<path d="M210.5 245.02H241.1C244.3 245.02 246.89 247.61 246.89 250.81C246.89 254.01 244.3 256.6 241.1 256.6H210.5" stroke="#101727" stroke-miterlimit="10"/>
<path d="M149.12 184.39C149.12 174.8 141.35 167.03 131.76 167.03C122.17 167.03 114.4 174.8 114.4 184.39V213.01H114.47C115.23 207.92 122.68 203.93 131.77 203.93C140.86 203.93 148.3 207.92 149.07 213.01H149.14V184.39H149.12Z" fill="#EAE2CF" stroke="#101727" stroke-miterlimit="10"/>
<path d="M322.66 198.26L321.5 199.18L322.66 198.26Z" fill="#EAE2CF"/>
<path d="M193.48 155.26C197.17 157.84 205.22 158.07 208.4 153.78" stroke="#EAE2CF" stroke-miterlimit="10"/>
<path d="M321.81 192.67C319.87 190.2 316.3 189.76 313.82 191.7L311.64 193.59L303.04 200.33C300.57 202.27 300.13 205.84 302.07 208.32C304.01 210.79 307.58 211.23 310.06 209.29L318.66 202.55L320.84 200.66C323.31 198.72 323.75 195.15 321.81 192.67Z" fill="#EAE2CF" stroke="#101727" stroke-miterlimit="10"/>
<path d="M314.82 183.67C312.88 181.2 309.31 180.76 306.83 182.7L304.65 184.59L296.05 191.33C293.58 193.27 293.14 196.84 295.08 199.32C297.02 201.8 300.59 202.23 303.07 200.29L311.67 193.55L313.85 191.66C316.32 189.72 316.76 186.15 314.82 183.67Z" fill="#EAE2CF" stroke="#101727" stroke-miterlimit="10"/>
<path d="M295.375 177.231L318.503 159.097C320.974 157.159 324.554 157.592 326.492 160.063C328.429 162.534 327.996 166.115 325.525 168.052L302.397 186.187L295.375 177.231Z" fill="#EAE2CF" stroke="#101727" stroke-miterlimit="10"/>
<path d="M289.149 178.77C287.469 181.43 288.269 184.94 290.919 186.62L297.239 189.62C299.899 191.3 303.409 190.5 305.089 187.85C306.769 185.19 305.969 181.68 303.319 180L296.999 177C294.339 175.32 290.829 176.12 289.149 178.77Z" fill="#EAE2CF" stroke="#101727" stroke-miterlimit="10"/>
<path d="M182.3 83.81C178.41 80.3 174.41 79.98 174.41 79.98" stroke="#101727"/>
</g>
<defs>
<clipPath id="clip0_2680_786">
<rect width="678" height="470" fill="white"/>
</clipPath>
</defs>
</svg>
