<?xml version="1.0" encoding="UTF-8" standalone="no"?>
<svg
   xmlns:dc="http://purl.org/dc/elements/1.1/"
   xmlns:cc="http://creativecommons.org/ns#"
   xmlns:rdf="http://www.w3.org/1999/02/22-rdf-syntax-ns#"
   xmlns:svg="http://www.w3.org/2000/svg"
   xmlns="http://www.w3.org/2000/svg"
   xmlns:sodipodi="http://sodipodi.sourceforge.net/DTD/sodipodi-0.dtd"
   xmlns:inkscape="http://www.inkscape.org/namespaces/inkscape"
   width="1000"
   height="594.44135"
   viewBox="0 0 1000 594.44135"
   version="1.1"
   id="svg6"
   sodipodi:docname="Angi.svg"
   style="fill:none"
   inkscape:version="0.92.4 (5da689c313, 2019-01-14)">
  <metadata
     id="metadata12">
    <rdf:RDF>
      <cc:Work
         rdf:about="">
        <dc:format>image/svg+xml</dc:format>
        <dc:type
           rdf:resource="http://purl.org/dc/dcmitype/StillImage" />
        <dc:title></dc:title>
      </cc:Work>
    </rdf:RDF>
  </metadata>
  <defs
     id="defs10" />
  <sodipodi:namedview
     pagecolor="#ffffff"
     bordercolor="#666666"
     borderopacity="1"
     objecttolerance="10"
     gridtolerance="10"
     guidetolerance="10"
     inkscape:pageopacity="0"
     inkscape:pageshadow="2"
     inkscape:window-width="1920"
     inkscape:window-height="1017"
     id="namedview8"
     showgrid="false"
     fit-margin-top="0"
     fit-margin-left="0"
     fit-margin-right="0"
     fit-margin-bottom="0"
     inkscape:zoom="0.37033599"
     inkscape:cx="360.17087"
     inkscape:cy="99.630485"
     inkscape:window-x="1912"
     inkscape:window-y="-8"
     inkscape:window-maximized="1"
     inkscape:current-layer="svg6" />
  <path
     d="m 311.11567,0 h -56.91695 -58.33261 l -39.41626,245.74899 c -0.83312,0.11108 -1.66624,0.16662 -2.52778,0.27771 C 66.839069,257.609 -0.74380711,330.91452 0.00618173,412.88578 0.33952019,447.16383 12.033852,473.94121 33.006001,495.8852 c 18.944374,19.83342 44.749782,30.5839 70.805129,30.5839 10.19442,0 20.41699,-1.63912 30.27752,-5.02843 46.94405,-16.1664 62.52791,-55.55425 69.83354,-91.60962 0,0.0271 -0.0284,0.0827 -0.0284,0.13821 2.11057,-40.24938 -19.38909,-79.99889 -60.38893,-103.52646 l -12.97213,81.91572 c -4.1656,23.24986 -9.58282,37.13907 -21.1938,41.13933 -6.94447,2.38828 -15.499907,-0.084 -21.277755,-6.13925 -7.444347,-7.8055 -11.805375,-16.49965 -11.944358,-31.19486 -0.388789,-40.97142 31.833193,-73.1376 67.388043,-85.72094 11.16768,-4.02869 22.77841,-5.91709 35.75054,-5.91709 13.16588,0 27.02796,2.52778 39.69397,6.77733 48.02775,11.33431 77.13787,62.27734 84.33241,117.44409 l 4.22243,30.91715 h 79.91623 z M 229.14312,251.02671 252.05973,75.16618 h 0.69491 2.13899 l 25.5826,196.24936 c -16.24907,-8.86207 -33.52759,-15.77761 -51.33311,-20.38883 z M 995.83311,132.66554 V 475.63586 H 916.0835 V 132.66554 Z M 763.0568,594.44136 c 104.72124,0 112.80574,-59.69402 112.80574,-144.05484 l 0.69362,-317.69256 h -41.27755 c -14.86053,0 -33.08326,11.13797 -34.33229,25.49993 l -0.97262,11.08243 -3.86077,-10.44435 c -7.69441,-20.74921 -27.05638,-31.72185 -55.99987,-31.72185 -29.08299,0 -50.55553,11.16639 -63.83379,33.16722 -12.91659,21.38858 -15.61099,49.05462 -15.61099,68.49925 V 362.1365 c 0,33.08326 4.83339,57.44395 14.77787,74.44476 12.08347,20.66655 31.63919,30.72211 59.83352,30.72211 26.6663,0 46.83297,-11.33431 56.77745,-31.91689 l 4.74943,-9.80628 v 10.88998 38.19306 c 0,33.58314 -2.08344,57.36129 -28.88795,57.36129 -6.13925,0 -26.11089,-2.08345 -26.11089,-28.88925 v -0.97133 H 661.3632 v 1.66624 c 0,26.05535 7.05504,47.02801 20.97266,62.30576 17.05507,18.77684 44.22124,28.30541 80.72094,28.30541 z m 32.36122,-246.16565 c 0,32.69447 -4.61122,50.41603 -28.88925,50.41603 -22.99927,0 -26.11088,-21.97241 -26.11088,-43.47207 v -119.4707 c 0,-26.91688 9.66678,-40.0001 29.58416,-40.0001 22.38832,0 25.41597,21.97241 25.41597,43.47208 z M 1000,57.24971 c 0,24.30541 -19.33355,43.33296 -44.02748,43.33296 -24.30515,0 -43.33258,-19.02755 -43.33258,-43.33296 0,-24.69432 19.02743,-44.02761 43.33258,-44.02761 24.27802,0 44.02748,19.74998 44.02748,44.02761 z M 492.61442,243.38784 V 475.66428 H 412.1699 l -0.69362,-342.97032 h 44.7211 c 15.3617,0 33.08326,10.83314 35.0285,26.97113 l 0.88866,7.38958 3.74969,-6.41696 c 12.97213,-22.2217 33.97192,-33.49918 62.44396,-33.49918 45.80481,0 69.05467,29.52733 69.05467,87.80439 v 260.74849 h -79.74832 v -242.7208 c 0,-24.69394 -8.55594,-37.22174 -25.41726,-37.22174 -21.83291,0 -29.58286,12.47226 -29.58286,47.63897 z"
     id="path2"
     inkscape:connector-curvature="0"
     style="fill:#ff6153;stroke-width:12.91658974" />
  <path
     d="m 203.89377,429.96926 c 4.02868,-17.19456 13.36092,-83.22158 15.02845,-102.66492 -12.63888,-4.22244 -26.52809,-6.77863 -39.69397,-6.77863 -12.97213,0 -24.58414,1.91682 -35.75053,5.91709 41.02825,23.52757 62.52791,63.27708 60.41605,103.52646 z"
     id="path4"
     inkscape:connector-curvature="0"
     style="fill:#a03027;stroke-width:12.91658974" />
</svg>
