<?xml version="1.0" encoding="UTF-8"?>
<svg width="105px" height="156px" viewBox="0 0 105 156" version="1.1" xmlns="http://www.w3.org/2000/svg" xmlns:xlink="http://www.w3.org/1999/xlink">
    <title>Tree</title>
    <g id="Tree" stroke="none" stroke-width="1" fill="none" fill-rule="evenodd">
        <path d="M67.6271259,2.37544529 C69.0942785,2.83931075 70.7577533,3.36572684 71.9654137,3.36572684 C72.3871659,3.36572684 72.7234529,3.30255691 72.9940927,3.17312048 L73.9044829,2.73960135 L72.9080082,2.58786966 C72.252775,2.48816026 71.5356105,2.16797542 70.776952,1.82859187 C69.7340289,1.36348778 68.6551856,0.882281549 67.5509504,0.882281549 C66.9495974,0.882281549 66.4076985,1.02348492 65.896146,1.31394274 L65.2210948,1.69605888 L65.9735601,1.88371073 C66.4324711,1.99766433 67.0127674,2.1816003 67.6271259,2.37544529" id="Fill-2184" fill="#ABB52A"></path>
        <path d="M30.7910057,11.5146478 C31.1917012,11.5765791 31.6431804,11.6075448 32.1336763,11.6075448 C35.2017531,11.6075448 39.294793,10.4203217 41.3707303,9.30989338 C44.3161831,8.9736064 47.4102711,8.80205669 50.565671,8.80205669 C62.3778286,8.80205669 74.1292935,11.1585428 85.4943071,13.4376148 C86.6326044,13.665522 87.7684246,13.8934292 88.9030061,14.1182398 L89.8666571,14.3096075 L89.1872707,13.6004941 C86.9496927,11.2650646 82.1171931,10.7875743 77.4450955,10.3261861 C73.8084894,9.96698452 70.0604068,9.59601601 67.6457053,8.35986718 C67.8630842,8.34933886 68.082321,8.34314573 68.3009385,8.34314573 C70.0443047,8.34314573 71.6223143,8.67509752 73.1495403,8.99590167 C74.4513363,9.26901872 75.6806727,9.52727226 76.8387881,9.52727226 C77.4550045,9.52727226 78.0049545,9.45543195 78.5208423,9.30741613 L79.820161,8.93397037 L78.4873994,8.70420523 C72.0446858,7.59563489 65.0229146,7.00976476 58.1813634,7.00976476 C42.7400314,7.00976476 29.2043257,9.79605412 20.0694583,14.854603 L17.4832071,16.2864548 L20.3103711,15.4218938 C24.1055214,14.2600625 27.6306512,12.9452609 30.7910057,11.5146478" id="Fill-2185" fill="#ABB52A"></path>
        <path d="M57.3347625,11.0656458 C61.7981516,12.2931243 66.6727645,12.8387391 71.388214,13.3663938 C75.78224,13.8587477 80.3261398,14.3672037 84.5529513,15.4256096 L84.7306941,14.8329271 C75.8280692,11.7202597 64.9975227,10.0060012 54.2332428,10.0060012 C37.4808251,10.0060012 22.6061645,14.1170012 14.4460959,21.0043815 L12.8408365,22.3594384 L14.7693774,21.5252238 C27.7055881,15.9297305 40.6832928,10.9306356 57.3347625,11.0656458" id="Fill-2186" fill="#ABB52A"></path>
        <path d="M22.6835787,21.9389249 C32.0779382,18.1549222 41.7912439,14.2414831 53.058406,13.6871979 C53.6950598,13.6562323 54.348435,13.6401302 55.001191,13.6401302 C59.8559859,13.6401302 64.3472441,14.4830152 69.1017103,15.3754453 C74.2005145,16.3329032 79.4826354,17.3231848 85.2546329,17.1819814 L87.1187652,17.1361523 L85.3407175,16.5775319 C76.9013387,13.9225369 67.7955791,12.5767697 58.2761183,12.5767697 C40.1866038,12.5767697 22.4197513,17.5176491 10.750655,25.7941485 L9.08532228,26.9757978 L11.0262493,26.341002 C14.8994331,25.0757454 18.6803392,23.5522353 22.6835787,21.9389249" id="Fill-2187" fill="#ABB52A"></path>
        <path d="M72.3227574,34.9215841 L72.1351055,35.5111701 C84.0339669,39.8742305 90.459959,50.4211315 96.6753847,60.6212173 C98.30232,63.2910758 99.9849936,66.0532119 101.712258,68.5948727 L102.249821,68.288932 L101.698013,67.1153338 C95.5928255,54.1066634 88.6732409,39.36082 72.3227574,34.9215841" id="Fill-2188" fill="#ABB52A"></path>
        <path d="M102.850555,61.6783846 C102.763851,60.9444987 102.674051,60.1858402 101.436663,59.8235421 L101.077462,59.7182589 L101.066314,59.835309 L101.036587,59.6371289 C100.492211,56.0469712 99.6363203,54.8795661 97.9325902,52.554665 C97.7232624,52.2691616 97.5021676,51.9663176 97.2662093,51.6393203 C96.0455433,49.9461184 94.580868,47.9835154 93.0982326,46.0859403 C94.7586108,47.5679564 96.1136678,49.2908852 97.4272307,50.9723201 C98.903673,52.8606056 100.429041,54.8132996 102.391025,56.4272294 L103.387499,57.2478192 L102.872231,56.0649313 C100.796913,51.3048912 96.8865704,45.7750451 92.1382974,44.5320838 L91.7939593,44.4416641 C90.135439,42.3836869 88.5376114,40.5307023 87.3194226,39.3651552 C82.8355962,35.0751737 67.1087609,29.9367335 58.6421323,29.2325745 C57.4629603,29.1347231 56.2701634,29.0845587 55.0990424,29.0845587 C35.500262,29.0845587 19.8025344,43.2971736 17.4373779,56.5715293 C15.502644,67.4311835 19.2079939,77.3309024 26.876328,81.7942915 C30.1952265,83.7246902 34.7193083,84.7874314 39.6180744,84.7874314 C49.0663141,84.7874314 57.6252203,80.9916618 59.525892,75.9566468 L59.8095374,75.2060394 L59.0954695,75.571434 C57.3576771,76.4601483 55.8533657,77.4535264 54.3967415,78.4134616 C51.2970797,80.4584332 48.369587,82.3900706 43.7154495,82.9660317 C42.6440379,83.0985647 41.5751036,83.1654505 40.5377543,83.1654505 C28.6141203,83.1654505 20.6893907,74.1922239 19.2866467,65.7485099 C18.1489686,58.9044815 20.3202801,51.5383723 25.4017436,45.0083356 C31.5459483,37.111475 40.7322186,31.9346373 49.9723691,31.160496 C51.4209423,31.0391107 52.9122481,30.9777987 54.4029346,30.9777987 C65.8020104,30.9777987 77.5485208,34.5388486 85.0601686,40.2718295 C89.0795103,43.3399062 91.1040446,46.5789134 93.4487638,50.3288539 C95.3283788,53.336238 97.2724025,56.4458088 100.503978,59.8953824 L101.024201,60.4509062 C100.930685,62.3435268 101.611929,63.4843015 103.123053,63.9128661 L104.001239,64.1618299 L103.455624,63.4298019 C102.982469,62.7950061 102.912486,62.2017042 102.850555,61.6783846" id="Fill-2189" fill="#ABB52A"></path>
        <path d="M95.9743223,62.0673132 L94.9679386,61.2244282 L95.4912582,62.4283727 C96.1625935,63.9686043 96.6642371,65.6741924 97.1497785,67.3228037 C97.8533181,69.7158293 98.5810109,72.1893655 99.8468868,74.2609677 L100.650755,75.5763885 L100.255014,72.9721772 C99.64561,68.8630352 99.016388,64.6133091 95.9743223,62.0673132" id="Fill-2190" fill="#ABB52A"></path>
        <path d="M2.38621314,65.5168869 L2.02886952,65.3571041 L1.95517126,65.7410782 C1.65418513,67.3085595 1.67028727,68.3075114 2.00347768,68.7113035 C2.11928922,68.8500296 2.27473679,68.9268244 2.44257063,68.9268244 C2.93306655,68.9268244 3.3343814,68.2901706 3.46195989,67.6912949 C3.62174265,66.9444034 3.42294317,65.9807523 2.38621314,65.5168869" id="Fill-2191" fill="#ABB52A"></path>
        <path d="M43.9229193,97.2727822 C48.7058739,97.2727822 53.2633986,96.6305546 57.4679148,95.3652981 L57.3260921,94.7627065 C53.5210328,95.4074114 49.7097804,95.735028 45.997618,95.735028 C31.8295936,95.735028 18.5707208,90.8313073 10.5320375,82.6198357 L10.1208137,82.1999415 L9.97837168,81.8469331 C9.64394264,81.0170536 9.04382831,80.0143858 8.40903244,78.9541219 C6.45571912,75.6909615 4.04597208,71.666046 6.94497642,69.0376815 C7.48873327,76.0309643 10.7184508,82.0835106 16.3102282,86.5722916 C16.6657139,86.8577949 17.0602163,86.8689425 17.4082702,86.8782322 C17.690677,86.8862833 17.9576009,86.893715 18.2078033,87.036157 C18.9732743,87.4746307 19.552332,88.0443986 20.1660712,88.6469902 C20.8497928,89.3208028 21.5576676,90.0162914 22.5529036,90.5377529 C26.7951979,92.7573709 34.566338,94.8376434 40.6287933,95.377065 C40.6715259,95.3807809 40.7148778,95.3820195 40.7576104,95.3820195 C41.2097089,95.3820195 41.6729551,95.1826007 42.163451,94.969557 C42.6793388,94.745985 43.2131866,94.5149813 43.7594207,94.5038336 C44.8673717,94.4809191 46.0279644,94.5137427 47.2089943,94.5459469 C48.1478729,94.5725774 49.0985184,94.5979692 50.045448,94.5979692 C53.4770616,94.5979692 57.3502453,94.2666367 60.0634558,91.8030095 L61.0871802,90.8740399 L59.7649469,91.277832 C54.7565623,92.8069159 49.6212186,93.5822958 44.5013577,93.5822958 C44.5007384,93.5822958 44.4982612,93.5822958 44.4976418,93.5822958 C31.8946215,93.5822958 19.8972893,88.7052057 13.1882712,80.8554129 C9.01781716,75.9758455 7.27073508,70.4843967 8.13963127,64.9737493 C8.51493497,62.5900134 10.1276261,60.1629256 11.8356915,57.5921572 C12.9597447,55.9020519 14.1215759,54.1543505 14.9273022,52.3855925 C15.2128055,51.759467 15.2301463,51.0330128 15.2456291,50.3294732 C15.2617312,49.6333653 15.277214,48.9750356 15.5398028,48.4684375 C18.9695584,41.861606 29.5672431,34.2137093 35.8538898,30.6854829 C35.9300653,30.6427503 36.1945119,30.5795804 36.406317,30.5287967 C37.1018055,30.3634401 37.8895717,30.175169 38.042542,29.654946 C38.1063313,29.4381865 38.042542,29.2158531 37.8666571,28.994139 C38.9461198,28.7941009 40.0837978,28.6076877 41.308799,28.4076496 C41.9126292,28.3091788 42.5381354,28.2076115 43.1846982,28.0992317 C44.5242723,27.8750404 45.8365966,27.427277 47.1043304,26.9943772 C48.5423753,26.503262 49.9017674,26.0393965 51.2134724,25.9180111 C52.2607308,25.8213983 53.3011767,25.7724726 54.3081797,25.7724726 C60.2771188,25.7724726 64.7101615,27.4718676 68.9976657,29.1142857 C70.420847,29.6599005 71.8923348,30.2240947 73.3848792,30.7096361 C74.1992759,30.9747021 75.2186651,31.0638832 76.2052308,31.150587 C77.1806488,31.2366715 78.1895098,31.324614 78.9556,31.5816289 C89.892049,35.2547745 97.2550617,42.8574614 103.171359,48.9669845 L104.327617,50.1604007 L104.130675,49.1403922 C104.056977,48.7588953 103.913915,48.4374719 103.775809,48.1265767 C103.518174,47.549377 103.29708,47.0520686 103.507646,46.2166153 L103.549759,46.0494008 L103.428993,45.9249189 C93.7726645,36.0326317 81.7889572,29.7212125 66.7947692,26.6296018 C64.5838216,25.0707909 61.0388738,24.2793088 56.253442,24.2793088 C49.9259206,24.2793088 42.9320185,25.628792 38.51322,26.6593289 C42.907246,24.234099 51.0666953,23.8433125 55.8601782,23.8433125 C60.7806203,23.8433125 65.255157,24.2328604 67.8209709,24.600113 C70.3793531,25.7285014 73.0423991,26.8308786 75.6181221,27.896097 C85.9210138,32.1582093 96.575056,36.5652409 102.976276,43.7269769 L103.456862,43.3368097 C98.8987185,37.1560656 92.8436949,32.7143524 87.2444857,31.4398062 C86.9156305,31.1728823 86.5768663,30.8917142 86.2257158,30.6012563 C83.0201515,27.9425455 78.997094,24.5933006 74.0834643,24.8639404 L72.8070602,24.9308262 L73.9726073,25.4553843 C74.6055452,25.739649 75.4893049,26.0226751 76.4244676,26.3218032 C78.1300557,26.867418 80.2443905,27.5437079 80.6147397,28.2367192 C79.8697061,27.9883746 79.0596446,27.7598481 78.2724977,27.5387534 C75.3202325,26.7088739 72.2670192,25.850506 72.5481873,23.9064824 L72.6020676,23.5367525 L72.2286218,23.5528547 C68.9543138,23.694058 66.3823067,23.1540171 63.9007194,22.6344134 C62.1474441,22.2677801 60.4907818,21.9215841 58.6365585,21.8057726 C57.6549474,21.7450799 56.6659044,21.7141142 55.6979182,21.7141142 C42.2972226,21.7141142 32.2736411,27.4477144 21.6610928,33.5188401 L20.6850555,34.0774604 C14.707446,37.4929718 10.2595398,42.2598243 6.33433376,46.4655792 C5.04678195,47.8447893 3.83107046,49.1484432 2.66242675,50.2873599 L0.658949073,52.2425312 L3.04144633,50.7735207 C4.25282264,50.0266291 5.38244962,49.2134711 6.45881568,48.3650122 L6.32256681,48.6139761 C6.01043304,49.18746 5.27035396,49.8036764 4.55380878,50.3994556 C3.09161069,51.6164057 1.434329,52.9949965 2.62898385,54.6244091 L3.06745748,55.2226655 L3.18512696,54.4906375 C3.34057453,53.5133615 4.34881616,52.5243186 5.23753037,51.6510872 C6.30522605,50.6025903 7.31346768,49.612928 6.8774713,48.635652 L6.6780525,48.190366 C8.47467962,46.7554177 10.1208137,45.2238565 11.7316469,43.7214031 C14.6665714,40.9846588 17.6869611,38.1674037 21.5712925,36.0165296 C20.3394788,37.1709291 19.083512,38.312323 17.8572722,39.4277058 C11.0578343,45.6103078 4.02677338,52.0022377 0.730789386,60.8869026 L1.42108547e-14,62.856318 L1.26773379,61.1810763 C10.5264637,48.9502631 19.0513077,39.7094932 26.6050688,33.7157816 C29.4235625,31.4794422 32.0178648,30.3659174 34.9911867,29.6122134 C27.8350245,32.9546459 22.2915535,38.7545125 17.3587252,43.9251571 L16.2798819,45.0535454 C15.5843933,45.7793803 14.8548426,46.5200787 14.1135248,47.2719247 C8.82149493,52.6426074 2.82344814,58.7292159 3.81125244,64.9737493 L3.9660807,65.9491674 L4.39650326,65.0604531 C4.89133438,64.037348 5.37315993,62.9318742 5.88347387,61.7607533 C7.65842504,57.6844349 9.65261302,53.1058536 12.7380306,51.209517 C12.0468772,52.6407495 11.2008956,54.1877934 10.3140394,55.8097743 C5.61159545,64.4083165 -0.241532085,75.1106651 9.50831309,82.2129471 L9.66685722,82.3281393 L10.0409223,82.9889463 C14.6529465,91.1329128 29.2191892,97.2727822 43.9229193,97.2727822" id="Fill-2192" fill="#ABB52A"></path>
        <path d="M81.1987518,95.185078 C81.7220714,93.8962876 84.0030013,93.6689997 86.2077557,93.4503822 C88.0452575,93.2676848 89.9465485,93.0775557 91.0105283,92.255108 L91.4644848,91.9058154 L90.9219666,91.7181636 C90.1416321,91.4481431 89.1402029,91.3057011 88.0260588,91.3057011 C85.1388214,91.3057011 81.4854938,92.2637784 80.6172169,93.812061 C80.3552475,94.2777844 80.3663951,94.7688996 80.6481826,95.2296685 L80.9677481,95.7542267 L81.1987518,95.185078" id="Fill-2193" fill="#ABB52A"></path>
        <path d="M50.0045734,101.754131 C46.8931447,101.161449 43.486923,100.734742 40.1921776,100.32166 C35.2203325,99.6992507 30.0787957,99.0545459 25.9275404,97.8468854 C25.0202468,97.4102697 24.0417322,96.8906661 23.0056215,96.3400968 C19.8700395,94.6729061 16.3176599,92.7840013 13.4291839,92.5746735 L12.2357677,92.488589 L13.2378162,93.1432029 C23.1288648,99.6032572 34.1068077,102.361058 49.946358,102.367251 L50.0045734,101.754131" id="Fill-2194" fill="#ABB52A"></path>
        <path d="M86.5335144,94.7348374 C84.1466819,94.9162961 81.8917631,95.0866072 80.7051594,96.1474904 L80.1657377,96.6305546 L80.8878567,96.6869121 C81.3511029,96.7246902 81.9239674,96.7438889 82.5432805,96.7438889 C83.8432185,96.7438889 90.3918346,96.6280774 91.7091134,94.3490054 L92.2014673,93.49745 L91.3096565,93.9136283 C90.1397742,94.4604817 88.3066076,94.5992079 86.5335144,94.7348374" id="Fill-2195" fill="#ABB52A"></path>
        <path d="M57.4450002,101.049972 C63.6232671,99.6942962 73.0523081,98.1881269 78.1170502,97.3793041 L80.1768853,97.0473523 L79.9384498,96.6547078 C79.4405221,95.8353567 78.6360345,95.4365191 77.4779191,95.4365191 C76.0603116,95.4365191 74.3262351,96.0316789 72.4899719,96.6602816 C71.1293411,97.126005 69.7222619,97.6090692 68.4737268,97.820255 C67.2258111,98.0332987 65.8193512,98.1026617 64.4593397,98.1689282 C61.1379639,98.3324268 58.000524,98.4860165 57.0926111,100.626982 L56.8597494,101.17817 L57.4450002,101.049972" id="Fill-2196" fill="#ABB52A"></path>
        <path d="M27.2101377,97.2108509 L29.0036682,97.5929671 C33.8497928,98.6259812 40.4869706,100.041112 46.4082226,100.041112 C50.5402792,100.041112 53.8666095,99.3412878 56.2936973,97.9583618 L58.8954314,96.476965 L56.0447335,97.3947869 C54.0746987,98.0295828 51.7163546,98.3380007 48.8359297,98.3380007 C45.3547711,98.3380007 41.6283645,97.8784704 38.339193,97.4734397 C34.7323138,97.0281536 31.3793531,96.6615203 29.2476776,96.9011944 L28.3942642,96.5308452 C26.5493307,95.7313121 24.6418465,94.6258383 22.7975323,93.556904 C19.3622028,91.5658126 15.8092039,89.5059774 12.2048021,89.0823673 L10.9197275,88.9300163 L11.9967129,89.6471808 C16.4526702,92.6105937 22.9703206,96.0942295 28.0208184,97.0789373 L27.2101377,97.2108509" id="Fill-2197" fill="#ABB52A"></path>
        <path d="M78.2266686,98.8607009 C70.7602306,99.5611439 63.708113,100.223809 57.8791387,102.645323 L57.1006622,102.968604 C57.0820828,102.914105 57.0678386,102.860844 57.0405888,102.803867 L56.8975275,102.487398 L56.5996379,102.666379 C56.3711114,102.802628 55.4669144,102.878804 54.7416988,102.940735 C53.1469677,103.075126 52.3102758,103.168023 52.2068506,103.678337 C52.1201467,104.106902 52.6657615,104.393644 52.8992425,104.515648 L53.3494831,104.752845 L53.3525797,104.245008 C53.3538183,104.082748 53.7774284,104.058595 54.0301081,104.058595 C54.3069411,104.058595 54.6196942,104.082748 54.9318279,104.10814 C55.2613025,104.133532 55.590777,104.160163 55.8830928,104.160163 C56.3110381,104.160163 56.833119,104.113095 57.0684579,103.746461 C57.1384403,103.638701 57.1694059,103.51298 57.1731218,103.376112 L58.0457339,103.236767 C61.3057977,102.718402 64.8439331,102.344337 68.2656377,101.981419 C75.2750226,101.24134 82.5228431,100.474631 87.836549,98.4141762 L90.3639655,97.4356616 L87.6811014,97.8196357 C84.5832976,98.2630638 81.3517222,98.5671465 78.2266686,98.8607009" id="Fill-2198" fill="#ABB52A"></path>
        <path d="M51.6321281,101.363345 L51.2246201,101.637081 L51.6463723,101.887284 C51.9628412,102.074936 52.3728264,102.17031 52.864561,102.17031 C54.1787433,102.17031 55.9636034,101.458719 56.4225144,100.436853 L56.5606212,100.000237 L56.0825116,100.000237 C54.0790339,100.000237 52.854652,100.545852 51.6321281,101.363345" id="Fill-2199" fill="#ABB52A"></path>
        <path d="M74.5826307,102.723976 C68.6929637,103.08937 62.0173884,103.503071 57.9032919,104.82035 L55.9066266,105.460101 L59.5853461,105.401266 C66.42442,105.304034 75.7909104,105.170262 81.6489924,102.780952 L83.7924349,101.907721 L81.4941642,102.187031 C79.6932018,102.407507 77.2109952,102.561096 74.5826307,102.723976" id="Fill-2200" fill="#ABB52A"></path>
        <path d="M38.370778,104.832737 C37.2423896,104.575102 36.0737459,104.313752 34.4523844,104.36949 L34.0684103,104.383735 L34.1637845,104.755322 C34.4492878,105.868228 36.9098185,106.270781 38.4940212,106.270781 C39.1133343,106.270781 40.240484,106.211327 40.8313087,105.808774 L41.5447573,105.322613 L40.6845315,105.24396 C39.8354533,105.166546 39.1244819,105.004286 38.370778,104.832737" id="Fill-2201" fill="#ABB52A"></path>
        <path d="M51.4655328,108.216044 C49.5097423,108.216044 47.7477967,108.416701 46.7507027,108.754227 L44.8624172,109.392738 L46.8553666,109.356199 C51.1317231,109.277546 54.5311324,109.686912 58.5758658,110.227572 L59.69001,110.377446 L58.8093469,109.678242 C57.4499547,108.599398 54.124863,108.216044 51.4655328,108.216044" id="Fill-2202" fill="#ABB52A"></path>
        <path d="M53.4591015,1.58829841 C56.4119861,1.26811357 59.2007527,0.965888809 61.7597542,0.57881816 L61.6965843,-0.0361596875 C60.3966462,0.0332033729 58.7926254,-0.00395540946 57.3106093,-0.0510232004 C56.4318041,-0.0788922872 55.5232719,-0.108 54.6203135,-0.108 C53.8096327,-0.108 53.0837978,-0.0838467915 52.4019342,-0.0361596875 C43.1648802,0.616596256 31.1725025,3.62150312 28.0418751,7.05373598 L26.4465247,8.802676 L28.4382354,7.52317527 C34.4684865,3.64751427 44.5577152,2.55318813 53.4591015,1.58829841" id="Fill-2203" fill="#ABB52A"></path>
        <path d="M57.1923205,2.90062274 C57.2629222,2.90371931 57.3335239,2.90681587 57.4047449,2.90991244 C57.3465295,3.03811024 57.319899,3.18179086 57.3997904,3.33042599 C57.5391358,3.59115678 57.8921443,3.64070182 58.4947358,3.64070182 L58.6675242,3.63574732 C59.3066552,3.5304641 59.9656043,3.4778225 60.6276499,3.4778225 C62.8906198,3.4778225 64.9646992,4.09713553 66.7947692,4.64275032 C67.5045019,4.85517469 68.195036,5.059548 68.865752,5.2211887 C65.7258349,4.85455538 62.3412891,4.65699452 58.8167786,4.65699452 C50.8202087,4.65699452 43.0385403,5.65780439 37.4678195,7.40302854 C37.1767424,7.49468687 36.6992521,7.50335725 36.2372445,7.51140832 C35.3361441,7.52751046 34.4858273,7.54237397 34.1507789,8.07250593 C33.9761326,8.34871955 33.9866609,8.7073018 34.1817446,9.13772436 L34.2926016,9.3817337 L34.5502358,9.30741613 C40.871564,7.47053366 49.7884331,6.41770149 59.0137202,6.41770149 C68.9084846,6.41770149 77.7528941,7.62721986 83.2796437,9.73536144 L83.5409938,9.17612177 C80.6289839,7.55290229 76.3427183,6.30684446 71.2550617,5.53827698 C72.4243247,5.51722033 73.4214187,5.16111534 74.2958887,4.44395084 L74.9158211,3.93611414 L74.1156686,3.89523948 C73.6146444,3.86922834 73.1049497,3.85126826 72.5940165,3.83268887 C69.2701634,3.71254214 65.8335954,3.58867953 64.451908,1.4167487 L64.3813063,1.30589167 L64.2512505,1.27988052 C63.9174408,1.2123754 63.6257444,1.18017112 63.361917,1.18017112 C62.3734934,1.18017112 61.9796103,1.65951941 61.662522,2.04473212 C61.4792054,2.26892344 61.318184,2.46462636 61.053118,2.57734134 C60.6734791,2.53460874 60.2901243,2.49621133 59.9061503,2.46091049 L60.2343862,2.40764956 L58.348578,2.32899681 L58.4111286,2.07755571 L57.1551617,2.27945177 C56.384117,2.24724749 55.5988281,2.23176466 54.8215902,2.23176466 C41.6940117,2.23176466 30.3649183,6.71868763 23.1722167,10.482253 L23.4217998,11.0476858 C35.1094755,6.7979597 47.0498309,4.54366024 57.1923205,2.90062274" id="Fill-2204" fill="#ABB52A"></path>
        <path d="M7.00195322,35.8084404 L7.41503502,35.4554319 C18.6679529,25.8517447 39.0458292,16.1613535 59.2069458,16.1613535 C62.974227,16.1613535 66.677719,16.4957826 70.217093,17.1559703 C70.2325759,17.1770269 70.2511553,17.2005608 70.270354,17.226572 C70.8072984,17.9313502 71.206136,18.3871646 71.5380878,18.4806809 C74.4370921,19.3062251 77.542947,19.7329318 80.5459959,20.144775 C84.5981611,20.7015374 88.7878138,21.2768792 92.5606689,22.8375481 L92.6510886,22.8598434 C93.2220952,22.9118657 93.8123005,23.4314693 94.3331428,23.8897609 C94.8738031,24.366632 95.3853556,24.8174919 95.9223,24.8174919 C96.1762184,24.8174919 96.4072221,24.7177825 96.6097375,24.5226989 L96.7980087,24.3412402 L96.6512315,24.1250999 C96.1495879,23.3881174 95.4212758,22.778094 94.5338002,22.2510586 L94.2154733,21.1542553 C93.8451241,19.8828056 92.5606689,19.3235659 91.3183269,18.7829056 C90.5163165,18.4342324 89.686437,18.0731729 89.1909866,17.5368478 L88.9649374,17.2922191 L88.7376495,17.5343705 C88.2706874,18.0316789 88.1022343,18.4726298 88.2217617,18.884473 C88.4552427,19.6883413 89.7366014,20.0159579 91.0935163,20.3633925 C92.1407746,20.6321744 93.3298557,20.9362571 93.6636654,21.4174633 L94.0544519,21.9804188 C91.7493688,20.7671846 88.5208899,20.0382532 85.1629746,19.2826912 C81.9419275,18.558095 78.611262,17.8087262 76.0918965,16.593634 L75.9946644,16.5651456 C75.2031823,16.4691521 74.8037254,16.6698095 74.4519556,16.8419786 C74.1881282,16.9701764 73.9608404,17.0804141 73.5632414,17.0804141 C73.3749702,17.0804141 73.1662617,17.0562609 72.9495022,17.012909 C67.8853794,15.5116942 62.528941,14.7511777 57.0288219,14.7511777 C48.9703206,14.7511777 40.3011767,16.3954539 31.2629222,19.6387962 C24.462865,22.0801282 14.6907246,26.0685042 9.5281311,29.2784037 L8.62641132,29.8506489 L9.71082845,29.8506489 C10.6466105,29.8506489 11.5600972,29.3762552 12.3652041,28.9569802 C13.0012386,28.6262671 13.5945405,28.3345706 14.0460197,28.3271389 C13.377781,28.853555 12.5398504,29.3904994 11.6610452,29.9534549 C9.14973084,31.5624302 6.55357058,33.225905 6.90905626,35.2733539 L7.00195322,35.8084404" id="Fill-2205" fill="#ABB52A"></path>
        <path d="M7.62993664,38.241102 C7.54694869,38.3897371 7.23729217,38.6622349 7.07998666,38.800961 C6.71644991,39.1199072 6.45386118,39.3502916 6.56471821,39.6444653 C6.63036539,39.8191116 6.79510266,39.9076734 7.0533562,39.9076734 C7.10723643,39.9076734 7.17040636,39.9045768 7.24472393,39.8965257 L7.33204707,39.8884747 L7.40141013,39.8345944 C8.62207613,38.9068635 9.42780239,38.0243424 10.2062789,37.1709291 C11.1439188,36.144108 12.0289172,35.1736445 13.5759611,34.1691188 C21.5514744,28.9910424 32.7232624,23.5621443 41.3750655,20.6612821 C45.0878472,19.4164629 49.9630794,18.7581331 55.4749655,18.7581331 C67.0400172,18.7581331 80.0313468,21.6261718 85.6937259,25.4299925 L86.2250965,25.7860975 L86.1897956,25.3352376 L86.2969368,25.4176062 C88.2459149,26.9231562 90.5206517,28.2342419 92.7204516,29.502595 C94.988376,30.8093455 97.3324758,32.1613059 99.299414,33.7164009 L100.280406,34.4917809 L99.7744271,33.3479097 C99.2424372,32.1439651 97.2377209,28.2169011 93.7850507,28.2169011 C93.5404221,28.2169011 93.2926969,28.2367192 93.0431137,28.2763552 C93.0926588,27.5455658 92.8709447,26.9324459 92.3984088,26.4078878 C94.1293888,27.0408257 96.1118098,27.4353281 97.5863942,27.6632353 L99.4201801,27.9468807 L97.7777619,27.0835583 C94.3535801,25.282596 92.6455147,24.5084547 89.0745558,23.1366763 L88.7543709,23.013433 L88.9414035,22.8233039 L88.4211805,22.688913 C88.1455862,22.6183113 87.7715211,22.4133187 87.3745415,22.1959398 C86.6604735,21.8045339 85.8497928,21.3617251 85.0657425,21.3617251 C84.5690534,21.3617251 84.1380115,21.5419452 83.788719,21.8980502 L83.410938,22.2807857 L83.931161,22.4151766 C84.2073746,22.4857783 84.582059,22.6907709 84.9790386,22.9075305 C85.6937259,23.2989363 86.503168,23.7417451 87.2872183,23.7417451 C87.7845267,23.7417451 88.21433,23.561525 88.5642418,23.2060394 L88.5766281,23.1930338 L88.6651898,23.5088834 C88.9909485,24.6738113 90.2760231,25.545804 91.8589872,26.196702 C91.6186937,26.2295256 91.3895479,26.2505822 91.1864132,26.2505822 C90.2890286,26.2505822 89.8753275,25.9440223 89.3965985,25.5891559 C88.9011481,25.221284 88.3400505,24.8051056 87.2376733,24.8051056 C86.9942833,24.8051056 86.7255014,24.8255429 86.4424753,24.8664176 L86.1315802,24.9110081 C85.8943833,23.5088834 84.6371778,22.8846159 83.4066028,22.2894561 C82.465247,21.834261 81.5765328,21.4044577 81.1869849,20.6606628 L81.1188605,20.532465 L80.9776571,20.5021186 C63.3941213,16.6902469 49.0793197,16.22762 39.3282359,19.197226 C28.9522653,22.3581998 17.8739936,28.5494723 6.40307751,37.5982551 L5.67166881,38.1748355 L6.81244343,38.148205 C7.33514363,38.148205 7.54880663,38.2076591 7.62993664,38.241102" id="Fill-2206" fill="#ABB52A"></path>
        <path d="M26.5542852,30.2532024 C35.4934496,25.6597576 44.341575,21.5047864 54.2939355,21.1139999 C55.1275308,21.080557 55.9679386,21.0644549 56.791625,21.0644549 C75.711019,21.0644549 88.8708018,29.5317027 101.785956,38.9644596 L102.631937,39.582534 L102.257872,38.6040194 C101.067553,35.4901135 97.8712782,33.6965829 95.0509266,32.1154767 C93.2189986,31.0867978 91.4880187,30.1163342 90.4358058,28.9018614 L90.3614883,28.8163962 L90.2493926,28.7984361 C87.510171,28.3723487 85.6838169,27.0600244 83.7515602,25.6696666 C82.2243342,24.5710053 80.6444667,23.4345659 78.5375637,22.696964 C73.8642275,21.058881 65.8986232,20.0165772 60.4982135,19.6214555 C59.2354342,19.5291778 57.9478824,19.48211 56.6720976,19.48211 C31.5279882,19.48211 10.3332381,37.3641547 2.63889286,46.8198262 L3.08665619,47.2440556 C10.6032585,40.4217032 17.4702015,34.9215841 26.5542852,30.2532024" id="Fill-2207" fill="#ABB52A"></path>
        <path d="M104.496948,53.4288569 C96.1876387,42.481017 87.5197121,34.4788121 72.2232257,31.0054434 L71.2702043,30.7890167 L71.2955112,30.7090195 L71.0547869,30.5911941 C66.1575904,28.2086405 61.0048559,27 55.7410177,27 C44.2282236,27 31.5908149,33.1095569 21.9340668,43.3423827 C17.3238878,48.2271756 10.8397626,59.5867843 10.1243794,65.3887549 C9.09975797,73.7022669 14.580248,83.5140219 20.1391277,87.1213395 C24.949293,90.2418521 36.668246,93.7177014 45.796635,93.7177014 C50.8808558,93.7177014 54.4256755,92.6591332 56.3341871,90.5699028 L57.0915428,89.740164 L56.0187766,90.0626335 C51.8894289,91.3029008 47.6903329,91.9310963 43.5362955,91.9310963 C36.3732044,91.9310963 29.602679,90.0663543 24.1234235,86.6816647 C29.9594448,89.3854475 38.1014814,91.0461655 45.6596073,91.0461655 C50.1827553,91.0461655 54.3516064,90.473162 58.0982642,89.3234342 C64.5064686,86.0466478 68.7265508,81.1172053 72.8071364,76.3496176 C74.2829616,74.6250258 75.8001419,72.8533039 77.4123775,71.1702611 C74.8656378,76.9437056 71.7368391,81.1835596 67.6426742,84.4299593 C66.6458287,85.2212499 65.3144381,85.8637084 64.027489,86.4857025 C61.5727183,87.6720182 59.0340028,88.8998829 58.8846303,91.215462 L58.8519164,91.7289327 L59.3191685,91.5180872 C70.9659041,86.2612141 83.008909,75.1050093 78.6221715,60.9603803 L78.485761,60.5207056 C78.753644,60.481017 78.9616544,60.3793151 79.1073235,60.2062978 C79.4431031,59.8087921 79.3424926,59.2060222 79.2462029,58.6224764 C79.1758374,58.2038862 79.0968304,57.7288638 79.2424995,57.5465445 C79.2727443,57.5093365 79.3184202,57.4801902 79.3789099,57.4597258 C83.5520818,66.7964583 78.1246746,79.8657755 72.5478949,85.7725487 L71.4627838,86.9216564 C71.4368596,86.6748432 71.3387182,86.4367119 71.1541629,86.2209054 L70.914673,85.9399848 L70.6819729,86.2271067 C69.753024,87.3706332 68.073509,88.0689037 66.4489286,88.7423689 C64.3521582,89.6130366 62.1825532,90.5140908 61.3770527,92.4265831 L61.0770731,93.1403569 L61.7850495,92.8321505 C62.2683498,92.6219252 62.8541123,92.3819334 63.4948093,92.1189968 C67.6186018,90.4328533 71.0628111,88.9073245 71.443032,87.3253635 C71.4671045,87.2249018 71.4775976,87.1244402 71.4763631,87.0258389 L72.9170055,86.2593537 C76.8975979,84.1409771 79.9455379,79.3758699 81.7164046,74.0371391 L81.7219598,74.1878316 C82.1089704,83.7577344 74.5959032,87.5473713 66.6427425,91.5608765 C64.0441545,92.8712189 61.3579182,94.2268311 59.0216579,95.7889478 L59.3111443,96.3328051 C60.4394624,95.863984 61.5813597,95.4050851 62.7238743,94.9461862 C73.0552676,90.7925308 83.739106,86.4981051 83.5736852,74.6089024 L83.5514645,74.4972783 C83.417523,74.1630263 83.0385366,73.7649004 82.0009531,73.8666024 L81.7645495,73.8901674 C82.6354777,71.2229725 83.1872918,68.4199683 83.3774023,65.732309 C83.4576438,66.3853097 83.5403542,67.0364501 83.6230646,67.6795287 C84.6507722,75.6532075 85.6223108,83.1853511 79.3653306,88.371529 C77.5629845,89.8648109 75.0434035,90.7937711 72.6071501,91.6917247 C69.8332654,92.713705 67.2130739,93.6792531 65.7477419,95.4088059 L65.2175312,96.0339006 C65.0656897,96.0419624 64.913231,96.049404 64.762624,96.0580859 C61.995529,96.1994763 59.6061859,96.3222628 58.6710646,97.3963343 C58.3624437,97.7498105 58.2266505,98.1870048 58.2680057,98.6973748 L58.2920781,99 L58.5951438,98.9807759 C65.3199933,98.5504031 70.631359,96.5548129 75.7680453,94.6237167 C80.9664558,92.6702956 85.8766144,90.8241577 91.9144737,90.6703645 L92.3477775,90.6598222 L92.195936,90.2511541 C90.9429351,86.89189 89.9800379,84.5924344 89.0498545,82.3673947 C88.4838438,81.0148832 87.8980813,79.6164818 87.2555326,77.9973128 L86.6710046,78.193275 C88.1042401,83.5196031 84.5742342,86.8001102 81.9960152,89.1963068 C81.462101,89.6930338 80.95658,90.1618549 80.5683349,90.589127 L79.8572723,91.3717357 L80.8757213,91.0982567 C83.2508678,90.4595191 84.6341066,89.1070075 85.9716696,87.7985255 C86.7888978,86.998553 87.5666225,86.2382691 88.5591473,85.6224764 C88.6949405,86.2345483 89.0930614,86.7722042 89.4535307,87.258389 C90.0355897,88.0447185 90.2423657,88.4019155 89.9176965,88.7504306 C89.3948927,88.7969407 89.1294787,88.6710535 88.823944,88.5203611 C88.5350748,88.3802108 88.2067022,88.2189761 87.6690846,88.2189761 C87.4388534,88.2189761 87.1894877,88.2481224 86.9061737,88.3076552 L86.7759357,88.334321 L86.7061874,88.4478054 C85.5568831,90.3193688 83.044709,90.7844691 80.3850141,91.2787156 C79.0252304,91.5304899 77.6185363,91.7921863 76.3686216,92.2572866 C76.1451801,92.3397643 75.9316144,92.4365052 75.7217522,92.5382071 C79.3838478,90.4415352 82.2083463,87.5647351 84.0643925,83.9847034 C87.4061396,77.5371736 87.2172636,69.2912561 83.5452921,61.3597464 L83.2885195,60.8059671 C83.2064263,60.1120375 83.0959401,59.4379522 82.9490365,58.7961138 C82.5817776,57.196169 80.6985729,54.8086543 78.5758783,54.6294357 C77.676557,50.8875491 73.8150923,43.8887205 68.4636058,43.6834562 L67.6266259,43.6512093 C67.1760394,42.9665817 66.7236012,42.346448 66.1477146,41.9811893 C62.3553809,39.576931 56.7384805,38.1407014 51.1215801,38.1407014 C44.8479344,38.1407014 39.6087859,39.8776959 36.7478702,42.9045683 C33.9134958,45.9041549 32.2450912,51.4506305 32.8660364,55.8070695 C33.2814402,58.7192173 34.6480135,60.9281334 36.8170012,62.1956866 C38.6847749,63.2865018 41.1093007,63.8874113 43.6467818,63.8874113 C47.5625638,63.8874113 50.863573,62.4902501 52.0560842,60.327844 L52.481981,59.5551574 L51.6690736,59.8906498 C48.8729682,61.0453387 46.3194388,61.6307448 44.0800856,61.6307448 C37.8595226,61.6307448 35.5714073,57.1564804 35.5016589,53.3246744 C35.3831485,46.7897058 40.752535,39.8287053 49.9451172,39.4913526 C53.6053611,39.3481017 56.0323559,40.351478 59.1537477,41.6314339 C60.8554833,42.3290843 62.7806605,43.1191346 65.1897553,43.8267071 C65.515659,44.2130504 65.8483523,44.6037346 66.1853663,45 C71.4504389,51.1808723 77.4173155,58.1871426 73.7218888,67.0562944 C73.0132952,68.7567009 70.674566,70.8924413 68.412992,72.9568663 C66.7606357,74.4644112 65.0527276,76.0240474 63.8898441,77.4813615 C63.256554,78.2738924 62.5924018,79.0397575 61.9103496,79.7615931 C61.6776494,79.5960174 61.3276733,79.5798939 60.9604144,79.5798939 L60.6845074,79.5811342 C60.3740347,79.5811342 60.2197243,79.5612899 60.1524449,79.5315235 C60.8844937,78.8673603 61.653577,78.1988562 62.4356224,77.5185696 C68.4352127,72.3026252 75.2353657,66.3915111 72.4516051,56.593399 L71.6238839,53.6781506 L71.6936322,54.626335 C70.2955795,52.9017433 69.1586201,50.7374767 68.1247401,47.825329 L68.0895573,47.7254875 L68.0006745,47.6684352 C67.1976429,47.1518638 66.3983147,46.6018053 65.5526935,46.0194998 C61.5714838,43.2809895 57.0575945,40.1772204 51.277125,40.1772204 C50.0068414,40.1772204 48.7007577,40.3291532 47.3965258,40.6286777 C42.2092256,41.8187143 37.8582882,45.9767105 36.8157668,50.7393371 C35.9911317,54.5085096 37.2953636,57.947771 40.487121,60.4233446 L40.5587211,60.4791566 L40.6494556,60.4865982 C41.4401424,60.5541928 42.2042877,60.5883001 42.9227572,60.5883001 C50.0321483,60.5883001 52.617157,57.3121339 55.1182208,54.1444911 C55.2095725,54.0272859 55.3021588,53.9107008 55.3941278,53.7941156 C55.9391524,55.4325088 55.6860832,57.1211328 54.6503515,58.7074347 C52.5004983,62.0046855 47.1625911,64.4901812 42.2345326,64.4901812 C38.6588508,64.4901812 35.7837385,63.2058844 34.1381718,60.8729415 L33.7437543,60.3142011 L33.5857404,60.9802246 C33.2061367,62.58265 33.9122613,63.4663405 34.5356755,64.2458485 C34.9455241,64.758079 35.3325347,65.2417832 35.4325279,65.9109075 L35.4948693,66.3270172 L35.872004,66.1434576 C36.3016043,65.9350927 36.7083667,65.8333908 37.1138945,65.8333908 C37.7675536,65.8333908 38.3613402,66.0981878 38.9903096,66.3797285 C39.6785342,66.6866947 40.390214,67.0048233 41.2778078,67.0482326 C47.8057571,67.3818645 54.9565034,63.4043272 57.3328844,58.2832633 C58.6297094,55.4864604 58.2784988,52.6710535 56.3428285,50.3548543 L56.2736974,50.2723765 L56.1681491,50.2506718 C56.0311214,50.2227658 55.8749592,50.2078826 55.718797,50.1942396 C55.5496728,50.1781162 55.233645,50.1502102 55.1805622,50.1049404 L55.1676001,49.7818508 L54.8466344,49.8085165 C46.8477978,50.4714394 42.6425294,52.7702749 41.6098839,57.0429959 L41.5364321,57.3468614 L41.840115,57.4181768 C42.4876017,57.5701096 43.1640987,57.6470061 43.8486199,57.6470061 C47.0885221,57.6470061 50.0957242,55.9565217 50.8444385,53.7147385 L50.9851696,53.2911872 L50.5407555,53.3060704 C49.2686202,53.35072 48.3137471,54.0737959 47.471212,54.7125336 C46.7021287,55.2948391 45.9762524,55.8455178 45.1077932,55.8455178 C44.821393,55.8455178 44.5300548,55.7872252 44.2226684,55.67002 C45.7040487,53.5795494 48.5390404,52.2729277 52.6597466,51.7817819 C51.9505358,56.1934128 48.4865748,58.2665197 42.011091,58.1201681 C39.3279409,56.1934128 38.2755436,53.564046 39.0470959,50.7070902 C40.2322001,46.322125 45.2966692,42.5486116 50.5765556,42.114518 C55.4873314,41.7176325 60.5647624,43.7119824 63.8633027,47.3099979 C66.0341421,49.6782884 67.116167,52.3746296 66.909391,54.9035348 L66.8828496,55.224764 L67.2038153,55.2384069 C67.3217085,55.243368 67.4433051,55.2464687 67.5642845,55.2495694 C68.0247469,55.2607318 68.6561853,55.2762351 68.7833371,55.4535933 C68.8259268,55.5143664 68.7956819,55.6414938 68.7635853,55.7562186 C68.6469266,56.5115414 68.5494024,57.2991111 68.4481748,58.1046648 C67.9728986,61.919107 67.4334293,66.242679 64.5157272,69.596982 C62.860902,71.498932 60.0382552,72.6647833 57.0495704,73.8988493 C55.4256072,74.5692138 53.7460922,75.2637635 52.2536015,76.0910218 C51.3462561,76.5951905 50.5950728,77.1210639 49.9284517,77.6177909 C50.4777969,76.6082133 51.1073835,75.7133604 52.499881,75.3443809 C60.7622798,72.5996693 65.6082452,68.1068008 66.9019841,61.9916626 C67.8593261,57.4615862 66.6248425,52.5147799 63.5991232,48.7598705 C60.7153694,45.1829394 56.5335562,43.1315372 52.124598,43.1315372 C50.7685178,43.1315372 49.3815754,43.320678 48.0026572,43.6939985 C45.5904763,44.3469992 41.1852215,47.4241025 40.0402379,50.5743816 C39.5495307,51.9268931 39.677917,53.1566182 40.4223106,54.2313099 L40.862404,54.8669469 L40.9809145,54.1017019 C41.9567737,47.7657962 47.0650669,45.5078895 51.5209355,45.5078895 C55.5879418,45.5078895 59.6327273,47.2269 62.0763876,49.9920761 C63.9558889,52.1197547 64.7737343,54.7218356 64.4416582,57.5161579 C63.9336682,61.7888789 57.0890738,70.3950941 51.0462766,73.0163991 C49.0396235,73.8864466 46.6397873,74.240543 44.0992201,74.6157238 C42.3382292,74.87618 40.5179831,75.1446979 38.8248888,75.6029766 C33.932013,74.2206987 29.5607066,70.7857783 27.6737984,66.8330462 C26.5658493,64.512506 26.3529009,62.1355337 27.0429772,59.9030524 C28.9372923,67.2615586 31.1809663,74.546889 40.413052,74.546889 C40.9025247,74.546889 41.4148354,74.5258045 41.9339358,74.4842555 C52.1708911,73.6644388 60.9486868,64.832495 62.4251292,57.4181768 C63.3151919,52.9426721 61.5597562,49.3198512 57.4822569,47.2163577 C56.0984007,46.503204 54.5873928,46.141046 52.99244,46.141046 C47.6749018,46.141046 42.7875812,50.172535 41.6246977,53.062978 L41.4284148,53.5485427 L41.9462806,53.4865293 C43.6356715,53.285606 44.8170723,52.3212981 46.0682214,51.3011783 C47.7897088,49.8965755 49.582179,48.4343003 52.9986124,48.6767725 C55.2324105,48.831806 57.1569704,49.8984359 58.4173782,51.6800799 C59.7506205,53.5634259 60.1493587,55.9931096 59.5123652,58.3465169 C58.0815987,63.6331565 49.2173891,66.3952319 42.7456088,68.4125267 C41.561739,68.7808861 40.4408279,69.1306415 39.4662031,69.4648935 C33.2086056,66.1788052 30.2865829,59.1942396 32.0185634,51.6304692 C33.541299,44.9776752 39.300165,37.1243023 50.5191521,36.867567 C59.9938138,39.1304348 66.7445874,40.931303 73.8045992,45.1079033 C81.8139288,54.6530008 86.2926354,62.6483842 87.8925261,70.2623854 C87.5376121,77.2475711 90.6954212,85.2404741 95.4099141,89.2837456 L97.1449808,90.7708262 L95.8654385,88.8744574 C91.9502738,83.0650451 90.0948449,74.9803624 88.3017574,67.1617171 C87.3820672,63.1525529 86.5129907,59.3666368 85.4087451,56.1400813 L85.3686244,56.0210156 L85.2569036,55.9645835 C83.2385229,54.9339213 82.0879842,53.35072 81.745415,51.1275408 C82.3392016,51.7768208 82.9447158,52.4136981 83.5452921,53.044374 C84.2045063,53.7383036 84.8643378,54.431613 85.5062693,55.1373252 L85.8161247,55.4777785 L86.0130248,55.0616688 C86.0383317,55.0083374 86.0562318,54.955626 86.0679594,54.9035348 C87.0604842,58.0166058 88.6918543,62.5051333 90.9892283,66.8330462 C90.9966352,66.9930407 90.8713351,67.0680769 90.2670554,67.1933439 C89.8386895,67.2826431 89.352303,67.3837249 89.1449098,67.7675877 C89.0220786,67.9945566 89.0239304,68.274857 89.1541684,68.6103493 C89.8837482,70.3281196 90.48309,72.18542 91.06268,73.980707 C92.4514741,78.2850548 93.888413,82.735134 97.2554671,85.7793702 L98.0838056,86.5284917 L97.7572847,85.4575208 C97.2048532,83.6516916 96.2364009,81.7125336 95.2111622,79.659271 C92.8761365,74.9834631 90.462721,70.148901 92.7841674,66.4677875 L92.8600882,66.3481017 L92.8193502,66.2129126 C91.2509388,60.9703025 88.5628507,56.4365052 85.9636455,52.0521601 C84.8384137,50.1564115 83.685406,48.1998898 82.628688,46.2067801 C89.9306586,54.4657204 93.8828578,62.3885482 94.6457687,70.2617653 C94.3723306,70.1042514 94.3050512,69.7830221 94.225427,69.2869152 C94.133458,68.7114311 94.018651,67.9957969 93.2310505,67.7545649 L92.7360226,67.6032523 L92.8384847,68.1130021 C93.5483128,71.6322607 95.1747449,75.5267002 97.8134537,80.0189485 L97.9646779,80.276304 C97.7437053,80.7302419 97.6702536,81.2871219 97.8097502,81.7602839 C98.0029469,82.4145249 98.5504404,82.7921863 99.3121168,82.7965273 L99.6836963,82.7983877 L99.6176515,82.4306484 C99.5441997,82.030042 99.7151757,81.6641632 99.8799792,81.3100668 C100.051572,80.9429477 100.228721,80.5628058 100.041697,80.2000276 C99.8762758,79.8806587 99.4898824,79.687177 98.7498095,79.5563288 L98.6288301,79.5346241 L98.5263679,79.6028388 C98.4714334,79.6388066 98.4214368,79.6853166 98.370823,79.7305864 C95.9765421,64.3140633 91.5848666,47.5320058 77.2389326,39.7834355 L75.6384246,38.9189692 C70.2054622,34.4105974 63.3559299,32.0354854 55.7354626,32.0354854 C43.7134439,32.0354854 31.3593492,38.1754289 24.9912655,47.3143389 C20.8298212,53.2874664 18.5299783,63.3838627 21.883453,69.9423965 C22.7963536,71.7252808 24.558579,72.9531455 26.2646353,74.1400813 C27.7410777,75.1682629 29.1360442,76.1400124 29.9211758,77.4013643 L30.0088241,77.5421346 L30.1742449,77.5470957 C31.200718,77.5756219 31.843884,77.8670847 32.5234672,78.1759113 C33.2302091,78.4959002 33.9610234,78.8276717 35.1121794,78.8592986 L36.7670046,78.9051885 L35.2399484,78.2633501 C29.2817133,75.7611107 25.1949553,71.1237511 23.731475,65.2045752 C22.3537913,59.6301936 23.5191438,53.5969131 26.8479288,48.7270034 C25.3085278,53.7965962 22.8673364,64.5304899 27.121367,71.3742851 C29.1496235,74.634948 32.4506327,76.5635637 36.9348944,77.1074209 C37.587319,77.186798 38.2224608,77.2252463 38.8755027,77.2252463 C40.673528,77.2252463 42.217867,76.9288224 43.710975,76.6417005 C45.0831035,76.3781437 46.3799285,76.1294701 47.7718088,76.1294701 C48.1588194,76.1294701 48.5322507,76.1480741 48.9044475,76.1871426 C48.341523,77.3064838 46.138587,77.4218287 44.0023131,77.5340729 C41.6425977,77.6568594 39.2020236,77.7846069 38.5409576,79.3002136 L38.3860299,79.6561703 L38.7662509,79.7293461 C39.5266928,79.8738372 40.2717036,79.9439124 41.0457248,79.9439124 C43.0233676,79.9439124 44.913362,79.4868738 47.3064085,78.907669 C47.7353915,78.8034865 48.1865953,78.6955833 48.6501439,78.5864397 C47.0953118,79.7467098 45.6355349,80.6074554 42.6807984,80.6074554 C41.9110979,80.6074554 41.0420214,80.5473024 40.0970242,80.429477 C31.9500496,79.4093571 28.400292,76.8996762 24.2894616,73.9943499 L23.6037059,73.5087852 L23.7043163,74.2188383 C24.1339166,77.2500517 26.9010116,78.5858196 29.5761376,79.8781782 C30.8093867,80.4741266 32.0846083,81.0892992 33.0808366,81.8570247 L33.1913229,81.9426032 L33.3289678,81.9153173 C33.9091751,81.7993523 34.5140721,81.7429201 35.1763725,81.7429201 C36.4694941,81.7429201 37.7589122,81.9568663 39.1242511,82.1838352 C40.5383521,82.4188658 42.0005979,82.6613381 43.51963,82.6613381 C44.5065996,82.6613381 45.4157968,82.5596362 46.3015388,82.3506511 C48.5359541,81.8241577 49.9296861,80.7420244 51.4048941,79.5972576 C52.2949567,78.907669 53.214647,78.193275 54.4083927,77.5061669 C55.667566,76.7812306 57.2026463,76.2572177 58.5562576,75.7952181 C59.8308619,75.3605044 61.0351007,74.9499759 61.8288737,74.4358851 C67.5969983,70.7033005 69.0024579,65.3763522 70.4900107,59.7362365 C70.8720834,58.2888445 71.2695871,56.7949425 71.7436288,55.3041411 L71.8473254,56.7013023 C72.4262982,64.5385516 68.3062092,68.8794874 63.9441613,73.475298 C61.6554287,75.8869979 59.2889236,78.3805554 57.7211294,81.398746 C53.4146334,84.321436 47.2903602,85.996417 40.9037592,85.996417 C33.8202923,85.996417 27.3515982,83.9443947 23.6006197,80.508234 C16.0597766,73.5993247 13.9988062,63.7671054 17.9454503,53.5336595 C22.521681,41.6674016 36.2417319,28.8963688 55.5509073,28.8963688 C58.5698369,28.8963688 61.6424666,29.2206987 64.6459653,29.8507545 C64.9471793,29.9567974 65.3952968,30.1682629 65.9150144,30.4132157 C67.2093705,31.0246675 68.8203716,31.7849514 69.9295551,31.7849514 C70.7603626,31.7849514 71.0819456,31.3564391 71.2060112,30.9868394 L71.971391,31.5567422 C74.0885304,33.1337422 76.9494462,34.2065734 79.7153067,35.2434369 C84.6520067,37.0951561 89.3152685,38.8433129 90.3719865,43.1916902 L90.4238348,43.4043961 L90.6404866,43.4267209 C94.9050103,43.8738372 96.8561116,46.6111073 98.7436371,49.2584579 C100.258348,51.383656 101.689115,53.3904086 104.18771,53.9200028 L105,54.0917798 L104.496948,53.4288569 Z M55,72 C58.7218045,69.0144536 61.7415414,65.3242787 64,61 C63.7051557,65.704741 60.0999597,70.0976885 55,72 Z M78.5948072,46.3884096 C78.1284028,45.3859265 77.6468922,44.3487227 76.6813533,43.4706031 C72.4490952,39.6147048 63.1801731,37.2997769 55.7334382,35.4393754 C55.1442958,35.2922857 54.5658537,35.1477211 54,35.0056816 C54.1831629,35.0018939 54.3650669,35 54.5469709,35 C62.9472856,35 69.140834,38.62611 74.6042486,41.824839 C75.5830055,42.3980472 76.5403619,42.9586297 77.4857592,43.4844914 C78.6004721,45.933252 80.2369788,48.0341736 82,50 C79.9103068,49.2165734 79.2708104,47.841 78.5948072,46.3884096 Z M85.6173556,53.7410714 C85.4393556,53.5647321 85.1113556,53.2373512 85.1293556,53.1376488 C85.1313556,53.1361607 85.1843556,53.0729167 85.4673556,53 C85.5903556,53.3110119 85.7243556,53.6458333 85.8713556,54 C85.7873556,53.9099702 85.7003556,53.8236607 85.6173556,53.7410714 Z M80.6792386,45.2492863 C80.5129802,45.6546825 80.8727931,46.0321844 81.2536985,46.4326216 C81.4261605,46.6130043 81.7834919,46.9880267 81.7617791,47.1089017 C81.7617791,47.1101414 81.6761684,47.2607703 80.9856999,47.3525113 C80.0824455,46.2900511 79.92115,45.4470254 79.7344196,44.4750665 C79.6314386,43.940737 79.5253559,43.3878114 79.288996,42.7605011 L79.2474314,42.6489242 L79.141969,42.5937556 C77.5290147,41.7606479 75.9954674,40.8481967 74.3713465,39.8818166 C68.6273681,36.4638435 62.6681223,32.9138378 53.5481064,33.3781218 C42.2338523,33.9465442 33.319178,39.7677601 30.2818609,48.5705594 C27.6670139,56.1503515 30.0324734,64.0778918 36.6102251,69.7751334 L36.6722618,69.8284423 L36.7522892,69.844559 C37.9967455,70.0974667 39.2349981,70.2257801 40.4316861,70.2257801 C44.9442359,70.2257801 48.4424857,68.4256725 51.5288117,66.837561 C53.0114889,66.0738789 54.4253054,65.3461495 55.8440848,64.8645091 C52.9227764,68.3097565 46.3475062,71 40.5749909,71 C35.983034,71 32.5406173,69.341843 30.8829966,66.3323655 C27.1899516,59.5181149 27.038582,51.9606381 30.4654896,45.5970344 C34.2801265,38.5149993 42.0303719,33.9682397 51.7291903,33.1221147 C52.6727685,33.0396718 53.5530694,33 54.4203425,33 C57.2727901,33 59.4223619,33.4382494 61.9106541,33.9446846 C63.4752198,34.2639186 65.0925167,34.5930705 67.0770708,34.8571359 C69.6788902,37.1655384 72.742883,38.7406326 76.4415113,39.67168 L77.2002202,39.8632204 C78.9316646,41.5071204 80.5266283,43.1349037 82,44.7502895 C81.2003469,44.7825229 80.8119971,44.9288126 80.6792386,45.2492863 Z M14.4024758,61 C13.5830214,70.9407341 14.8555571,77.9343593 18.1852774,81.790378 C18.8197133,82.5255989 19.7411415,83.0030878 20.6326492,83.4650132 C21.948539,84.1466956 23.0836848,84.7349968 22.9951447,85.9526869 L22.9920916,86 C21.3531829,84.8794263 19.8443366,83.6131779 18.4918095,82.2105932 C14.2144043,77.7737437 11.9093073,72.2511828 12.0027324,66.6601424 C12.0387591,64.5590667 12.3550612,62.064545 14.4024758,61 Z M40.3461771,89 C35.8503937,89 31.1011701,87.9657368 26.228317,85.9281687 C25.2429907,84.7530132 23.8428876,83.6966369 22.3599529,82.5789755 C19.7618809,80.6197512 17.084068,78.6005054 17,76 C22.2814482,84.0681376 31.3416293,88.3264969 43.2712488,88.3264969 C43.9079402,88.3264969 44.5576128,88.3138608 45.2147031,88.2892205 L45.2833174,88.2791116 C49.4378836,87.149446 52.7060269,85.3266913 55.8666127,83.563958 C56.8859372,82.9959662 57.9268968,82.4153383 59,81.8568235 C53.6406652,86.5372278 47.232335,89 40.3461771,89 Z M73.7354973,92.7720408 C72.7577891,93.3977551 71.8335289,93.9885714 70.7046017,94.2983673 C69.0112111,94.7630612 66.9951766,94.8995918 65,95 L65.6387694,94.8934694 C69.142224,94.31 72.2728458,93.3340816 75,92 C74.5632903,92.2461224 74.145483,92.5106122 73.7354973,92.7720408 Z M68.1783617,43.3185283 C73.9204987,47.2358018 77.3271752,53.2322531 77.2926398,59.3573649 L77.2920231,59.6171841 L77.5436386,59.6665247 C77.7095321,59.6983775 77.860008,59.7158654 78,59.7227356 L77.9142781,60.1830402 C75.7064754,72.1222303 66.4380212,82.8503882 55,87 C61.7208473,82.465656 69.8724494,76.042002 74.1610135,69.2186262 C79.7156723,60.3810274 73.3395629,49.5441951 69.1928409,45.0479496 C68.6384234,44.4471178 68.2073468,43.7725873 67.7898378,43.1199165 C67.7639362,43.0793198 67.7374179,43.0405967 67.712133,43 L68.1783617,43.3185283 L68.1783617,43.3185283 Z" id="Fill-2208" fill="#ABB52A"></path>
        <path d="M44.0424468,104.49645 C45.8204945,104.49645 47.4096518,104.365774 48.765328,104.109379 L48.7021581,103.49564 C42.1869849,103.625695 36.2056596,102.408745 30.9594588,101.337953 C28.2270497,100.780571 25.6457529,100.254155 23.3499595,100.002714 L20.8299748,99.7258812 L23.2093754,100.60159 C28.3106569,102.477489 37.0064313,104.49645 44.0424468,104.49645" id="Fill-2209" fill="#ABB52A"></path>
        <path d="M27.3693011,102.807583 C25.7219284,102.438472 24.0188176,102.057595 22.8569863,101.355913 L21.4300891,100.493829 L22.4525749,101.811108 C23.7190701,103.444237 26.4298032,104.010908 29.0513553,104.559 C30.2336239,104.807345 31.4555286,105.062502 32.50898,105.409317 L33.872088,105.859558 L32.8149207,104.888475 C31.575056,103.7477 29.4365681,103.26959 27.3693011,102.807583" id="Fill-2210" fill="#ABB52A"></path>
        <path d="M49.1907961,107.217711 L48.2593492,106.604591 C46.5816302,105.500356 45.2148063,105.414271 44.8364061,105.414271 C43.9117717,105.414271 43.8040112,105.803819 43.8009147,105.972272 C43.7823353,106.863464 46.4713925,107.106854 48.0760326,107.17312 L49.1907961,107.217711" id="Fill-2211" fill="#ABB52A"></path>
        <path d="M58.3089419,106.350673 C55.0302987,106.316611 51.9337335,106.283787 50.0386356,105.693582 L49.8280692,106.275736 C53.9898528,107.996807 59.6392263,108.014767 66.7922919,108.036443 L70.9584107,108.056261 L69.2491068,107.444999 C66.4250393,106.43428 62.2991758,106.391547 58.3089419,106.350673" id="Fill-2212" fill="#ABB52A"></path>
        <path d="M45.3126578,155.892 C45.3126578,155.892 54.1378686,155.892 59.3246153,155.737172 C59.4633414,155.732837 57.9850412,149.958362 57.2598256,143.350911 C56.5798199,137.151587 56.344481,113.522318 56.0211996,92.051354 C55.9183936,85.1868883 59.6875328,76.5412783 65.6205517,71.2009419 C71.8136821,65.6271246 72.6194083,65.6896752 72.4850174,65.4208933 C72.3815921,65.2140428 69.4441904,65.8129185 65.2594922,69.2915998 C59.91544,73.7339323 60.3291411,73.2985552 55.6087371,78.7875267 C54.7670907,79.7660413 55.3684436,51.8833296 52.7184031,44.9835631 C52.0371588,43.2098505 53.3655853,71.1303402 52.9246344,72.2333368 C52.4830642,73.3350947 49.1486828,65.8767077 48.9152018,66.2371479 C48.6823401,66.5975881 50.4994045,70.7364571 51.1187175,73.2137093 C51.7888143,75.8934768 51.6197418,81.3731586 51.6197418,81.3731586 C51.6197418,81.3731586 47.8289267,78.6079259 44.2028488,74.5557607 C40.5482826,70.4713912 37.1148111,64.9979025 35.4680577,64.0323935 C34.139012,63.2532977 38.5980658,69.7356473 43.2478681,75.7423644 C45.865085,79.1231943 48.1057596,82.0866072 48.7188795,83.0069064 C48.8749464,83.241626 49.9828974,84.7756644 49.3047497,84.8326412 C48.917679,84.8648455 48.3262351,84.4474285 48.0010957,84.2839299 C46.1673098,83.3617728 44.3644895,82.3844968 42.4923062,81.5397538 C39.9419751,80.3884509 37.2919346,79.4148908 34.5452813,78.8562704 C31.8809966,78.3143715 29.09223,78.1682136 26.4298032,78.8023902 C26.0935163,78.8829009 31.7936735,79.5245092 34.5260826,80.3872122 C37.4678195,81.3161818 48.2915535,85.9858021 48.8216855,91.483444 C49.6732409,100.308655 49.3121814,104.669857 49.4409985,116.875279 C49.590253,130.967747 49.0582631,140.309465 48.512029,143.092657 C47.5496165,147.996997 45.3126578,155.892 45.3126578,155.892" id="Fill-2570" fill="#50351F"></path>
    </g>
</svg>