<svg width="38" height="34" viewBox="0 0 38 34" fill="none" xmlns="http://www.w3.org/2000/svg">
<g id="Vector">
<path d="M34.5356 3.60185C32.521 1.56466 29.8505 0.321282 27.0065 0.0963044C24.1625 -0.128673 21.3325 0.679586 19.0276 2.37508C16.6096 0.561072 13.5998 -0.261487 10.6045 0.0730482C7.60924 0.407584 4.85086 1.87436 2.88487 4.17802C0.918885 6.48167 -0.108676 9.45107 0.00911359 12.4883C0.126903 15.5255 1.38129 18.4048 3.51968 20.5466L15.3217 32.4692C16.31 33.4502 17.641 34 19.0276 34C20.4142 34 21.7453 33.4502 22.7336 32.4692L34.5356 20.5466C36.7545 18.2948 38 15.249 38 12.0742C38 8.89942 36.7545 5.8536 34.5356 3.60185ZM31.8559 17.9013L20.0539 29.8048C19.9196 29.9416 19.7597 30.0502 19.5836 30.1243C19.4074 30.1984 19.2185 30.2365 19.0276 30.2365C18.8368 30.2365 18.6478 30.1984 18.4717 30.1243C18.2955 30.0502 18.1357 29.9416 18.0014 29.8048L6.19937 17.8438C4.70893 16.3072 3.87433 14.243 3.87433 12.0934C3.87433 9.94372 4.70893 7.87953 6.19937 6.3429C7.71815 4.83051 9.76652 3.98247 11.9008 3.98247C14.0351 3.98247 16.0835 4.83051 17.6023 6.3429C17.7789 6.52256 17.9891 6.66517 18.2207 6.76248C18.4523 6.8598 18.7007 6.9099 18.9516 6.9099C19.2025 6.9099 19.4509 6.8598 19.6825 6.76248C19.9141 6.66517 20.1243 6.52256 20.301 6.3429C21.8197 4.83051 23.8681 3.98247 26.0024 3.98247C28.1367 3.98247 30.1851 4.83051 31.7038 6.3429C33.2148 7.8594 34.0768 9.91239 34.1052 12.0621C34.1336 14.2118 33.3262 16.2873 31.8559 17.8438V17.9013Z" fill="#E8BD51"/>
<path d="M31.8559 17.9013L20.0539 29.8048C19.9196 29.9416 19.7597 30.0502 19.5836 30.1243C19.4074 30.1984 19.2185 30.2365 19.0276 30.2365C18.8368 30.2365 18.6478 30.1984 18.4717 30.1243C18.2955 30.0502 18.1357 29.9416 18.0014 29.8048L6.19937 17.8438C4.70893 16.3072 3.87433 14.243 3.87433 12.0934C3.87433 9.94372 4.70893 7.87953 6.19937 6.3429C7.71815 4.83051 9.76652 3.98247 11.9008 3.98247C14.0351 3.98247 16.0835 4.83051 17.6023 6.3429C17.7789 6.52256 17.9891 6.66517 18.2207 6.76248C18.4523 6.8598 18.7007 6.9099 18.9516 6.9099C19.2025 6.9099 19.4509 6.8598 19.6825 6.76248C19.9141 6.66517 20.1243 6.52256 20.301 6.3429C21.8197 4.83051 23.8681 3.98247 26.0024 3.98247C28.1367 3.98247 30.1851 4.83051 31.7038 6.3429C33.2148 7.8594 34.0768 9.91239 34.1052 12.0621C34.1336 14.2118 33.3262 16.2873 31.8559 17.8438V17.9013Z" fill="#E8BD51"/>
</g>
</svg>
