<?xml version="1.0" encoding="UTF-8"?><svg xmlns="http://www.w3.org/2000/svg" viewBox="0 0 362.3 522"><rect x="109.88" y="7.22" width="83.83" height="213.14" transform="translate(-24.29 43.2) rotate(-15.01)" fill="#E9BE51"/><path fill="#01654D" d="M269.66,193.79c24.63,122.55-8.94,196.65-32.98,236.68-41.04-22.81-107.44-70.76-147.18-191.2-3.63.07-7.19.22-10.82.22-27.61,0-53.83-2.47-78.67-6.97,53.68,199.48,172.24,259.49,216.92,282.08l1.89.94c8.57,4.36,17.73,6.47,26.73,6.47,19.32,0,38.07-9.52,49.33-26.81l1.38-2.18c27.46-41.99,100.25-153.57,47.15-352.76-21.58,20.49-46.2,38.57-73.66,53.39l-.07.15Z"/></svg>
