<?xml version="1.0" encoding="UTF-8"?>
<svg width="416px" height="155px" viewBox="0 0 416 155" version="1.1" xmlns="http://www.w3.org/2000/svg" xmlns:xlink="http://www.w3.org/1999/xlink">
    <title>Artboard</title>
    <defs>
        <polygon id="path-1" points="-2.84217094e-14 0.58532599 95 0.58532599 95 12.585326 -2.84217094e-14 12.585326"></polygon>
        <path d="M14.4347424,7.36755657 C14.3937908,7.36755657 14.3640521,7.36357902 14.3547892,7.35221457 C9.02327598,1.14268265 1.26294057,-0.376743449 -0.314672535,-0.450612332 C-0.356599212,-0.452316998 -0.393650694,-0.453453443 -0.42680202,-0.453453443 C-0.429727137,-0.453453443 -0.433139773,-0.453453443 -0.43606489,-0.453453443 L-0.496029789,-0.632443428 C9.37136491,0.604008025 14.3031122,7.09537815 14.5039702,7.36471546 C14.4786192,7.36698835 14.4552183,7.36755657 14.4347424,7.36755657" id="path-3"></path>
        <linearGradient x1="0.0780031201%" y1="31.6780927%" x2="105.021451%" y2="61.3115104%" id="linearGradient-5">
            <stop stop-color="#A42E31" offset="0%"></stop>
            <stop stop-color="#9E2E30" offset="100%"></stop>
        </linearGradient>
        <path d="M15.7113402,7.90464344 C8.68637915,0.586673548 0.290487462,0.13269726 -0.21346523,0.111916655 L-0.288659752,-0.0953565568 C-0.288659752,-0.0953565568 4.47797579,0.262709248 8.75310807,2.45905932 C12.8280536,4.55363772 14.4673938,6.25445029 15.7113402,7.90464344" id="path-6"></path>
        <linearGradient x1="1.3600996%" y1="35.8911682%" x2="101.854964%" y2="60.3142067%" id="linearGradient-8">
            <stop stop-color="#A42E31" offset="0%"></stop>
            <stop stop-color="#9E2E30" offset="100%"></stop>
        </linearGradient>
        <path d="M15.1607106,7.70809895 C14.9545753,7.45097934 9.89325378,1.25407129 -0.233391828,0.0737078494 L-0.251903976,0.0210905453 L-0.364477853,-0.291901047 C0.141854428,-0.270745636 8.57739025,0.191418725 15.6355221,7.64137804 L15.3393278,7.68911333 C15.28179,7.69670758 15.2232516,7.70321694 15.1717178,7.70755651 C15.1677151,7.70755651 15.1642129,7.70809895 15.1607106,7.70809895" id="path-9"></path>
        <linearGradient x1="0.894336909%" y1="35.2027394%" x2="101.863723%" y2="60.0662802%" id="linearGradient-11">
            <stop stop-color="#7D2D27" offset="0%"></stop>
            <stop stop-color="#782B27" offset="100%"></stop>
        </linearGradient>
        <polygon id="path-12" points="0.223032856 0.35760523 63.2230329 0.35760523 63.2230329 20.3576052 0.223032856 20.3576052"></polygon>
        <path d="M0.182331227,0.0931301143 L0.774331227,0.00513011434 C0.774331227,0.00513011434 0.484331227,0.0551301143 0.182331227,0.0931301143" id="path-14"></path>
        <linearGradient x1="-3089.7%" y1="-1552.42%" x2="139.2%" y2="-85.67%" id="linearGradient-16">
            <stop stop-color="#A42E31" offset="0%"></stop>
            <stop stop-color="#9E2E30" offset="100%"></stop>
        </linearGradient>
        <polygon id="path-17" points="0.444478348 -0.488818987 21.4444783 -0.488818987 21.4444783 10.511181 0.444478348 10.511181"></polygon>
    </defs>
    <g id="Artboard" stroke="none" stroke-width="1" fill="none" fill-rule="evenodd">
        <text id="Shovels.ai" fill="#565555" fill-rule="nonzero" font-family="SignPainter-HouseScript, SignPainter" font-size="83" font-style="condensed" font-weight="normal">
            <tspan x="134.271028" y="131.662636">Shovels.ai</tspan>
        </text>
        <g id="Group" transform="translate(13.000000, 9.129000)">
            <polyline id="Fill-1" fill="#6A7475" points="75.2517243 89.5004998 71.5843375 87.8265874 96.6208802 32.3656734 100.287263 34.0431225 75.2517243 89.5004998"></polyline>
            <path d="M75.2517243,89.5004998 L75.3034412,89.3853015 L71.7505348,87.7634305 L96.6831414,32.532913 L100.121065,34.1057742 L75.1377461,89.4484584 L75.2517243,89.5004998 L75.3034412,89.3853015 L75.2517243,89.5004998 L75.3662046,89.5530464 L100.401743,34.0951638 C100.430363,34.0320069 100.402747,33.9567237 100.339482,33.9279242 L96.6725971,32.2504751 L96.5766948,32.2474435 L96.5063998,32.3131268 L71.4703593,87.7740408 L71.4668445,87.8710499 L71.5326205,87.9412805 L75.2000073,89.6156981 C75.2632727,89.6444977 75.3375845,89.6162033 75.3662046,89.5530464 L75.2517243,89.5004998" id="Fill-2" fill="#4D5554"></path>
            <path d="M76.8745329,85.6004306 C76.6480828,85.4377382 76.385481,85.2831299 76.0817065,85.1441846 L76.0822086,85.1441846 C75.942623,85.0800171 75.4093857,84.8369891 75.2708043,84.7723164 L75.2698001,84.7718111 C75.160843,84.7217908 75.0533921,84.6773283 74.9484519,84.6379183 L97.6692788,35.1562009 C97.7129621,35.1764111 97.7506201,35.1935898 97.7697001,35.2026844 L97.7712064,35.2031897 C98.2989205,35.444702 98.8090608,35.5710159 99.27602,35.6260888 C99.2755179,35.6260888 99.2755179,35.626594 99.2755179,35.626594 C99.2780284,35.626594 99.2800368,35.626594 99.2825474,35.626594 C99.3317538,35.6321518 99.3799561,35.6372044 99.4281583,35.6412464 L76.8745329,85.6004306" id="Fill-3" fill="#4F5958"></path>
            <path d="M76.9779668,85.6767242 C76.9443257,85.6509561 76.9101824,85.6256934 76.8745329,85.6004306 L99.4281583,35.6412464 C99.4728458,35.6452885 99.5175333,35.64832 99.5617187,35.6508463 L76.9779668,85.6767242" id="Fill-4" fill="#3B4241"></path>
            <path d="M70.9597168,129.115077 C71.7620832,128.540602 72.6282171,127.65792 73.5189543,126.563536 C78.9939249,119.852729 85.534868,105.222038 85.496874,104.643015 C85.4520204,103.967488 77.5558916,97.2869963 77.2214886,96.4790923 C76.884575,95.6711883 78.1880438,87.9064178 78.1132299,87.5204024 C78.0364076,87.1348923 77.6071064,85.9798776 76.0299895,85.2593829 C75.890906,85.1952154 75.3581709,84.9521874 75.2180831,84.8865042 C73.6394599,84.1660095 72.4931505,84.6010347 72.1562369,84.7960634 C71.8158086,84.9941237 66.8625268,91.0895291 66.0375656,91.3669145 C65.6388929,91.5008073 63.0555543,91.1996749 60.4300388,90.8990477 C57.6192459,90.5766945 54.7597486,90.2543414 54.4840921,90.4660435 L54.4559741,90.4948431 C53.6586288,91.5230386 45.0555339,110.666674 45.7353862,117.585646 C45.9005793,119.252485 46.3007583,121.063827 46.8495609,122.872643 C48.3845008,127.926211 51.0903534,132.969168 53.1304126,134.910361 L53.1399527,134.919456 C55.9381929,135.182189 61.4789395,133.915512 66.2635135,131.75807 L66.2700409,131.754534 L66.2700409,131.749481 C67.9837308,130.974924 69.6035268,130.089716 70.9597168,129.115077" id="Fill-5" fill="#ABB2B6"></path>
            <path d="M70.9597168,129.115077 L71.0325223,129.21815 C71.8494498,128.632558 72.7206048,127.743308 73.6158609,126.643366 C76.357363,123.28291 79.3524291,117.965093 81.6671406,113.400613 C82.8239943,111.118878 83.8101317,109.025603 84.5075578,107.460826 C84.8565219,106.678185 85.1331827,106.027921 85.322979,105.551465 C85.4178771,105.312984 85.4911847,105.117955 85.5413953,104.970421 C85.5911039,104.818339 85.619724,104.730929 85.6227366,104.648067 L85.6222345,104.635941 L85.6222345,104.634425 C85.6116903,104.538427 85.5665007,104.471733 85.5027331,104.37624 C85.2612198,104.032666 84.6576877,103.424338 83.8703845,102.672517 C82.6914381,101.547818 81.1093002,100.11845 79.7932787,98.8997726 C79.1350169,98.2904342 78.5435353,97.7336423 78.1031878,97.2950803 C77.8832651,97.0763046 77.7010004,96.8863284 77.5684442,96.7362675 C77.4358881,96.5882275 77.3515342,96.4694924 77.3374752,96.4305877 C77.3123699,96.3770306 77.2897751,96.194128 77.2912814,95.9475632 C77.2907793,95.0143559 77.5277736,93.0857946 77.76527,91.3158837 C77.8842693,90.4296651 78.0032686,89.5818459 78.0921414,88.9128873 C78.1815164,88.2408972 78.2412671,87.7588832 78.2417692,87.5699175 L78.2367482,87.4966554 L78.236246,87.4956449 C78.1533985,87.0757774 77.6994941,85.883879 76.0817065,85.1441846 L76.0822086,85.1441846 C75.942623,85.0800171 75.4093857,84.8369891 75.2708043,84.7723164 L75.2698001,84.7718111 C74.5964751,84.4641104 73.9949514,84.3605329 73.4978658,84.3605329 C72.7999376,84.3605329 72.3098815,84.5616247 72.0939757,84.6864229 L72.0934736,84.6864229 C72.0462756,84.7157277 72.0111281,84.7510956 71.9518795,84.8102106 C71.5281015,85.2371517 70.2256369,86.7842448 68.9246787,88.2646442 C68.2749527,89.0038334 67.6272351,89.7253386 67.0955042,90.2760674 C66.8293877,90.5509265 66.5923934,90.7838494 66.4005887,90.9536153 C66.2112945,91.1233813 66.0551393,91.2304955 65.997397,91.2471689 C65.9627517,91.2603056 65.8352166,91.2744527 65.6614877,91.2734422 C64.786818,91.2739475 62.6267553,91.0238459 60.4440978,90.773239 C58.2584276,90.5231374 56.0486563,90.2720253 55.0248609,90.2720253 C54.8772416,90.2720253 54.7537234,90.2770779 54.6538041,90.2886987 C54.5533828,90.3033512 54.4810795,90.3139615 54.4077719,90.3654976 L54.394215,90.3776238 L54.366097,90.4064233 L54.3570591,90.4170337 C54.2450893,90.5635579 54.0417362,90.9435102 53.7469996,91.5427435 C52.7221999,93.6309656 50.6811365,98.2767923 48.894139,103.227793 C47.1076437,108.18031 45.5732058,113.426886 45.5716995,116.746417 C45.5716995,117.046538 45.5842522,117.330492 45.6103617,117.598278 C45.7770611,119.275727 46.1787464,121.094648 46.7295574,122.909526 C48.2730331,127.981789 50.9738647,133.027778 53.0445524,135.002318 L53.0535903,135.010907 L53.1284042,135.045264 C53.3779512,135.068506 53.6475825,135.080127 53.9357917,135.080127 C56.9338703,135.078611 61.933346,133.847808 66.3147284,131.873269 L66.3197495,131.871248 L66.3262769,131.867711 C66.3689559,131.845985 66.3955676,131.802533 66.3955676,131.754534 L66.3955676,131.749481 L66.2700409,131.749481 L66.3217579,131.864679 C68.0404689,131.087596 69.6672944,130.199356 71.0330244,129.21815 L70.9597168,129.115077 L70.8869114,129.012511 C69.5397593,129.980581 67.9264907,130.862252 66.2188261,131.634283 C66.1736365,131.654998 66.1445143,131.699461 66.1445143,131.749481 L66.1445143,131.754534 L66.2700409,131.754534 L66.2143071,131.641356 L66.2072776,131.644893 L66.2635135,131.75807 L66.2122987,131.642872 C61.8630511,133.605285 56.8721112,134.82851 53.9357917,134.827499 C53.654612,134.827499 53.3920102,134.815878 53.1515011,134.793647 L53.1399527,134.919456 L53.226315,134.827499 L53.216775,134.81891 C51.2068422,132.911064 48.4964706,127.870633 46.9695643,122.835759 C46.4227702,121.033006 46.0245997,119.228738 45.8604108,117.573015 C45.8348034,117.315335 45.8227528,117.039465 45.8227528,116.746417 C45.8202423,113.032281 47.8136056,106.714563 49.906386,101.221423 C50.9522741,98.473842 52.0222633,95.9288688 52.8783551,94.0099074 C53.3066521,93.0504267 53.6812236,92.2475753 53.9719433,91.6549103 C54.2611568,91.0642663 54.4750542,90.6731984 54.5548891,90.5726525 L54.4559741,90.4948431 L54.5458512,90.5827576 L54.5739692,90.553958 L54.4840921,90.4660435 L54.5599102,90.5665894 L54.5518765,90.555979 L54.5584039,90.5675999 L54.5599102,90.5665894 L54.5518765,90.555979 L54.5584039,90.5675999 C54.5629228,90.5630526 54.6186567,90.5458739 54.6999979,90.5377898 C54.7818413,90.5292005 54.8918027,90.5241479 55.0248609,90.5246532 C56.0165215,90.5241479 58.2333223,90.7737443 60.4159798,91.0243511 C62.602152,91.2744527 64.7521726,91.5255648 65.6614877,91.5260701 C65.8482714,91.5250596 65.978317,91.517986 66.077232,91.4866601 C66.2213366,91.4351241 66.3850233,91.3047681 66.6069545,91.1072131 C67.3711608,90.4185495 68.7027475,88.9088453 69.8872171,87.5441495 C70.4786987,86.8625594 71.0325223,86.2178531 71.4563003,85.7333128 C71.6681893,85.4912953 71.8479434,85.289193 71.982508,85.1431741 C72.0497903,85.0704173 72.1060262,85.0113024 72.1482032,84.9693661 L72.2004223,84.9203563 L72.2159876,84.9077249 L72.2195023,84.9046934 L72.2154855,84.8986303 L72.2190002,84.9051986 L72.2195023,84.9046934 L72.2154855,84.8986303 L72.2190002,84.9051986 C72.3957418,84.8026317 72.8501483,84.6126556 73.4978658,84.6131608 C73.9608081,84.6131608 74.5246739,84.7086542 75.165864,85.0017025 L75.1648598,85.0011972 C75.306956,85.0673857 75.8386869,85.3099085 75.9777704,85.374076 L75.9782725,85.374076 C77.5142167,86.0758762 77.9194168,87.193502 77.9902138,87.54516 L77.9902138,87.5441495 L77.9902138,87.5486968 L77.9907159,87.5699175 C77.9917201,87.7174522 77.9324715,88.2136133 77.8435987,88.8790352 C77.5764779,90.8859111 77.0412323,94.5000055 77.0402281,95.9475632 C77.0417344,96.209791 77.0532828,96.3957251 77.1055019,96.5281021 C77.1682653,96.670079 77.3289394,96.8529816 77.5804948,97.1212724 C78.4561687,98.0433641 80.4008277,99.7960964 82.1356061,101.395736 C83.0022421,102.195051 83.8156549,102.955966 84.4131618,103.551662 C84.7119152,103.849258 84.9564411,104.105928 85.125149,104.303483 C85.2095029,104.402008 85.2747767,104.486386 85.3169537,104.550048 L85.3621433,104.627857 L85.3706791,104.649078 L85.3716833,104.65312 L85.3852402,104.650594 L85.3716833,104.651604 L85.3716833,104.65312 L85.3852402,104.650594 L85.3716833,104.651604 L85.4967079,104.643015 L85.3716833,104.650088 L85.4028139,104.648067 L85.3716833,104.648067 L85.3716833,104.650088 L85.4028139,104.648067 L85.3716833,104.648067 L85.3691728,104.666257 C85.3500927,104.773876 85.2280808,105.119471 85.0252297,105.618664 C83.5992469,109.135244 78.1062004,120.744505 73.4220477,126.4832 C72.5353274,127.572532 71.6747167,128.44814 70.8869114,129.012511 L70.9597168,129.115077" id="Fill-6" fill="#757E81"></path>
            <path d="M78.1162426,87.5694123 C78.1162426,87.5476863 78.1152383,87.5310128 78.1132299,87.5204024 C78.1062004,87.4835188 78.0956562,87.4400668 78.0810951,87.3900465 C78.0956562,87.4395615 78.1062004,87.4835188 78.1132299,87.5204024 C78.1152383,87.5310128 78.1162426,87.5476863 78.1162426,87.5694123" id="Fill-7" fill="#566161"></path>
            <path d="M69.0631101,105.871 C69.0419051,105.84384 69.021205,105.816681 69,105.789521 C70.271794,103.615176 71.3007405,101.890534 71.7182767,101.271084 C71.8152137,101.127973 71.9091215,100.994263 72,100.871 C71.9424436,100.960836 71.8813531,101.05694 71.8157186,101.158789 C71.6556715,101.426207 71.471895,101.731754 71.2638842,102.074907 C70.8519017,102.764346 70.3576237,103.607342 69.80276,104.575168 C69.5684955,104.985698 69.3216089,105.418164 69.0631101,105.871 M63,103.871 C63.2081426,103.279495 63.4095399,102.707421 63.6017827,102.157489 C63.8036618,101.586319 63.9944592,101.038646 64.1780294,100.518989 C64.3615996,100.000688 64.5389063,99.5099516 64.6757408,99.0409051 C64.8019754,98.6296986 64.9113467,98.2388265 65,97.871 C64.974464,98.2248183 64.8935196,98.6220167 64.7586124,99.0693732 C64.4989159,99.932455 63.9086967,101.737245 63.2177788,103.817227 C63.1450253,103.833946 63.0727536,103.852021 63,103.871" id="Fill-8" fill="#98A0A5"></path>
            <path d="M47.302461,109.595027 C47.2467272,109.548543 47.1899891,109.50307 47.1322469,109.459618 C47.8859089,106.783278 48.8840969,103.904331 49.906386,101.221423 C50.9522741,98.473842 52.0222633,95.9288688 52.8783551,94.0099074 C53.3066521,93.0504267 53.6812236,92.2475753 53.9719433,91.6549103 C54.0437446,91.5083861 54.1105248,91.3744934 54.1722839,91.2537372 C54.3962234,91.1390442 54.7346433,91.0890239 55.2482984,91.0890239 C55.7584387,91.0890239 56.4413037,91.1380337 57.3566441,91.2214009 C59.7863381,91.4401766 65.0268249,92.1050932 65.7609048,92.2127127 C65.8593177,92.2273651 65.9582327,92.2364597 66.0576498,92.2364597 C66.7048653,92.2364597 67.4073124,91.8600442 68.5827441,90.1674374 C69.4498822,88.9179399 70.8648187,86.8393177 71.8163107,85.3260767 C71.8775677,85.2578672 71.9327995,85.1967312 71.982508,85.1431741 C72.0497903,85.0704173 72.1060262,85.0113024 72.1482032,84.9693661 L72.2004223,84.9203563 L72.2159876,84.9077249 L72.2195023,84.9046934 C72.3068689,84.8546731 72.4605135,84.783432 72.6703941,84.7238118 C71.8183192,85.6322617 71.3624063,86.8660962 71.0224801,87.616401 C70.1945063,89.4540162 68.6570558,92.1839131 66.6797599,97.2379864 C66.0722109,98.7906374 65.1814738,101.129972 64.2385175,103.62644 C64.033658,103.658777 63.8282964,103.699702 63.6229348,103.747702 C63.802689,103.155542 63.9774221,102.581571 64.1471341,102.028316 C64.5337562,100.743956 64.9098341,99.5687313 65.1689211,98.5021364 C65.4345355,97.4390782 65.6127834,96.4952605 65.6484329,95.7045352 C65.6639982,95.5095065 65.6494371,95.3205408 65.6519477,95.1452171 C65.6449182,94.9693881 65.6147918,94.80518 65.5967159,94.6515822 C65.5208978,94.3534813 65.4270039,94.1008534 65.2653256,93.951803 C65.1061578,93.8047736 64.9364457,93.7754687 64.8299991,93.7754687 C64.7747674,93.7754687 64.735101,93.7810265 64.7054767,93.7886054 L64.6663124,93.7971947 L64.706983,93.7901212 C64.7270673,93.7860791 64.7566916,93.7830476 64.7948517,93.7830476 C64.805898,93.7830476 64.8179486,93.7830476 64.8299991,93.7840581 C64.932931,93.7886054 65.0991283,93.823468 65.2447392,93.9704975 C65.3903501,94.12359 65.4742019,94.372681 65.5334505,94.6632031 C65.5424884,94.8168009 65.564079,94.9754512 65.564079,95.1487539 C65.5550411,95.3205408 65.5625727,95.5049592 65.5409821,95.6974616 C65.5068389,96.1329921 65.4259997,96.6160166 65.3090089,97.1409773 C65.4475903,95.0749865 64.0251222,94.3186187 60.9226054,93.6895753 C59.2450671,93.3505486 58.0043617,93.070637 56.9976379,93.070637 C55.124278,93.070637 54.059812,94.0392122 52.4957499,97.3981525 C51.1912768,100.193227 49.1215933,105.146755 47.302461,109.595027" id="Fill-9" fill="#98A0A5"></path>
            <path d="M47.1052336,109.871 C47.0708114,109.843053 47.0354057,109.815634 47,109.789269 C48.9094485,102.579573 52.3978925,94.0099837 53.7649456,91.0776994 C53.823955,90.9938596 53.9001756,90.9253113 54,90.871 C53.9395153,90.9970234 53.8741131,91.1367564 53.8037935,91.2896718 C53.5190727,91.9081881 53.1522304,92.746059 52.7327713,93.7473911 C51.8943449,95.7500553 50.8464348,98.4060373 49.8221286,101.273464 C48.8209343,104.073398 47.8433439,107.077921 47.1052336,109.871 M65.6121505,90.871 C64.6907488,90.871 62.4652811,90.6207477 60.2092209,90.371 C57.9536793,90.1207477 55.6680638,89.871 54.6274035,89.871 C54.3287387,89.871 54.1322214,89.8911816 54.0689625,89.9386085 L54.0399257,89.9673673 C54.0279998,89.981999 54.0150369,90.0001625 54,90.0223623 C54.0150369,90.0001625 54.0279998,89.981999 54.0399257,89.9673673 L54.0689625,89.9386085 C54.1322214,89.8911816 54.3287387,89.871 54.6274035,89.871 C55.6680638,89.871 57.9536793,90.1207477 60.2092209,90.371 C62.4652811,90.6207477 64.6907488,90.871 65.6121505,90.871 C65.797779,90.871 65.9305189,90.8604046 66,90.8382048 C65.9305189,90.8604046 65.797779,90.871 65.6121505,90.871 M66,90.871 C66.8944934,90.3827371 71.0970004,85.2555294 71.3924787,85.0847268 C71.5021639,85.0207876 71.7130279,84.9291265 72,84.871 C71.9489628,84.9197369 71.8992688,84.9698151 71.8509178,85.0207876 C71.6637815,85.0735486 71.526787,85.1365936 71.4488882,85.1808592 L71.4457544,85.1835419 L71.4318758,85.1947201 L71.3853156,85.2380914 C71.3477093,85.275203 71.2975675,85.3275169 71.2375765,85.3919032 C71.1932547,85.4392987 71.1440084,85.4934011 71.0893896,85.5537632 C71.1901209,85.3950331 71.2850321,85.2430098 71.3723325,85.1003763 C70.9626921,85.4218607 66.8806148,90.3907854 66,90.871" id="Fill-10" fill="#7F878A"></path>
            <path d="M63.4517164,103.789638 C64.1717373,101.463946 64.786818,99.4459541 65.0574534,98.4809156 C65.1980433,97.9807124 65.2823972,97.5365926 65.3090089,97.1409773 C65.4259997,96.6160166 65.5068389,96.1329921 65.5409821,95.6974616 C65.5625727,95.5049592 65.5550411,95.3205408 65.564079,95.1487539 C65.564079,94.9754512 65.5424884,94.8168009 65.5334505,94.6632031 C65.4742019,94.372681 65.3903501,94.12359 65.2447392,93.9704975 C65.0991283,93.823468 64.932931,93.7886054 64.8299991,93.7840581 C64.8179486,93.7830476 64.805898,93.7830476 64.7948517,93.7830476 C64.7566916,93.7830476 64.7270673,93.7860791 64.706983,93.7901212 L64.6663124,93.7971947 L64.7054767,93.7886054 C64.735101,93.7810265 64.7747674,93.7754687 64.8299991,93.7754687 C64.9364457,93.7754687 65.1061578,93.8047736 65.2653256,93.951803 C65.4270039,94.1008534 65.5208978,94.3534813 65.5967159,94.6515822 C65.6147918,94.80518 65.6449182,94.9693881 65.6519477,95.1452171 C65.6494371,95.3205408 65.6639982,95.5095065 65.6484329,95.7045352 C65.6127834,96.4952605 65.4345355,97.4390782 65.1689211,98.5021364 C64.9098341,99.5687313 64.5337562,100.743956 64.1471341,102.028316 C63.9774221,102.581571 63.802689,103.155542 63.6229348,103.747702 C63.5661968,103.761344 63.5089566,103.774985 63.4517164,103.789638" id="Fill-11" fill="#90989C"></path>
            <path d="M68.6118662,104.788023 C68.1895946,104.378766 67.7271544,104.083191 67.2360941,103.8821 C69.2379932,99.4727327 71.2639934,95.0254715 72.3314721,92.6628956 C74.5071001,87.8397241 75.5861273,85.4488538 74.7139681,84.8223367 C74.8600811,84.8713465 75.0107131,84.9309667 75.165864,85.0017025 L75.1648598,85.0011972 C75.306956,85.0673857 75.8386869,85.3099085 75.9777704,85.374076 L75.9782725,85.374076 C76.2564396,85.5014004 76.4979529,85.6423668 76.7073314,85.7899015 C76.5667415,86.8160759 76.225309,88.0307108 75.575583,89.4701844 C73.5209627,94.0225388 71.8755593,98.2409191 68.6118662,104.788023" id="Fill-12" fill="#98A0A5"></path>
            <path d="M78.0810951,87.3900465 C77.9686232,87.0035258 77.6216675,86.2638314 76.7254072,85.6494404 C76.7193819,85.6959239 76.7133566,85.7429127 76.7073314,85.7899015 C76.4979529,85.6423668 76.2564396,85.5014004 75.9782725,85.374076 L75.9777704,85.374076 C75.8386869,85.3099085 75.306956,85.0673857 75.1648598,85.0011972 L75.165864,85.0017025 C75.0107131,84.9309667 74.8600811,84.8713465 74.7139681,84.8223367 C74.6682764,84.7894951 74.6175636,84.7612008 74.5608255,84.737959 C74.393624,84.6712652 74.2811522,84.6126556 74.2013172,84.5590984 C74.5156359,84.6187186 74.8525495,84.7217908 75.2180831,84.8865042 C75.3581709,84.9521874 75.890906,85.1952154 76.0299895,85.2593829 C77.4564745,85.9111629 77.94402,86.9186428 78.0810951,87.3900465" id="Fill-13" fill="#7F878A"></path>
            <path d="M82.6121053,110.929407 C82.380132,110.725789 82.1416314,110.52975 81.8966033,110.344826 C82.5563715,108.82249 82.8596439,107.707896 82.860146,106.831278 C82.8606481,105.229112 81.847899,104.422723 80.1507786,103.370276 C79.2183666,102.793779 78.499852,102.209703 76.4075737,100.794987 C75.4264574,100.132091 74.751124,99.7536549 74.1606466,99.7536549 C73.5751902,99.7536549 73.0730836,100.126028 72.4399272,100.962227 C72.5298042,100.825302 72.6096392,100.702525 72.6799341,100.595411 C72.7964229,100.419077 72.9003589,100.298321 72.9616159,100.209396 C73.0268898,100.125018 73.0630415,100.080555 73.0630415,100.080555 C73.0630415,100.080555 73.0258856,100.123502 72.9565949,100.203838 C72.8903168,100.289226 72.7778449,100.407456 72.6533225,100.577727 C72.5348253,100.747998 72.3811807,100.956164 72.203937,101.202728 C72.0332208,101.455862 71.8348887,101.745373 71.6179786,102.068737 C71.0144464,102.982239 70.2396959,104.173127 69.3484567,105.587338 C69.1295382,105.323594 68.8995733,105.071977 68.6590643,104.835012 C68.643499,104.819349 68.6274315,104.803686 68.6118662,104.788023 C71.8755593,98.2409191 73.5209627,94.0225388 75.575583,89.4701844 C76.225309,88.0307108 76.5667415,86.8160759 76.7073314,85.7899015 C77.6492834,86.4558286 77.9319694,87.2556484 77.9902138,87.5446547 L77.9902138,87.5486968 L77.9907159,87.5699175 C77.991218,87.5896225 77.9902138,87.616401 77.9882054,87.6487374 C77.4504492,89.8476105 76.488915,92.551234 75.9019523,95.3826873 C75.5489714,97.0924728 78.2964988,98.9967817 83.7157357,103.880079 C84.6913288,104.758718 84.8118344,105.67121 84.7003667,106.394737 C84.2153317,107.526004 83.4933024,109.111497 82.6121053,110.929407" id="Fill-14" fill="#838B8F"></path>
            <path d="M77.1066545,110.871 C77.071103,110.841338 77.0355515,110.812186 77,110.783035 C77.9598906,108.94294 78.7463993,107.338099 79.2747493,106.193025 C79.2145852,106.5546 79.0931632,106.869636 78.9914312,107.111027 C79.471103,106.107618 79.8189608,105.330257 80,104.871 C79.6313582,105.809459 78.5686418,108.069943 77.1066545,110.871 M72.9091233,87.871 C72.9105488,87.8386523 72.9112616,87.8118643 72.9109052,87.7921524 L72.9105488,87.7709242 L72.9105488,87.7668807 C72.8692088,87.4777728 72.6685674,86.6776717 72,86.0115105 C72.0042766,85.9645052 72.0085531,85.9174999 72.0128297,85.871 C72.6489665,86.485607 72.8952245,87.2255615 72.9750535,87.6122181 C72.9853885,87.662256 72.9928724,87.7057233 72.9978617,87.7426199 C72.9992872,87.753234 73,87.7699133 73,87.791647 C73,87.7699133 72.9992872,87.753234 72.9978617,87.7426199 C72.9907341,87.6946037 72.9786172,87.6288974 72.9618674,87.5576313 C72.9447612,87.6607397 72.9272986,87.7653644 72.9091233,87.871" id="Fill-15" fill="#70797A"></path>
            <path d="M69.4564096,105.72022 C69.42076,105.675758 69.3846083,105.631295 69.3484567,105.587338 C70.2396959,104.173127 71.0144464,102.982239 71.6179786,102.068737 C71.8348887,101.745373 72.0332208,101.455862 72.203937,101.202728 C72.3811807,100.956164 72.5348253,100.747998 72.6533225,100.577727 C72.7778449,100.407456 72.8903168,100.289226 72.9565949,100.203838 C73.0258856,100.123502 73.0630415,100.080555 73.0630415,100.080555 C73.0630415,100.080555 73.0268898,100.125018 72.9616159,100.209396 C72.9003589,100.298321 72.7964229,100.419077 72.6799341,100.595411 C72.6096392,100.702525 72.5298042,100.825302 72.4399272,100.962227 C72.349548,101.081467 72.2561561,101.210812 72.1597517,101.349253 C71.7445095,101.948486 70.7212162,103.61684 69.4564096,105.72022" id="Fill-16" fill="#858E91"></path>
            <path d="M85.3661601,105.08865 C85.4520204,104.854212 85.49721,104.70314 85.49721,104.648573 C85.49721,104.646552 85.49721,104.644531 85.4967079,104.643015 C85.5007247,104.69253 85.4555351,104.845622 85.3661601,105.08865" id="Fill-17" fill="#7F878A"></path>
            <path d="M84.7003667,106.394737 C84.8118344,105.67121 84.6913288,104.758718 83.7157357,103.880079 C78.2964988,98.9967817 75.5489714,97.0924728 75.9019523,95.3826873 C76.488915,92.551234 77.4504492,89.8476105 77.9882054,87.6487374 C77.9751506,87.855387 77.920421,88.3040541 77.8435987,88.8790352 C77.5764779,90.8859111 77.0412323,94.5000055 77.0402281,95.9475632 C77.0417344,96.209791 77.0532828,96.3957251 77.1055019,96.5281021 C77.1682653,96.670079 77.3289394,96.8529816 77.5804948,97.1212724 C78.4561687,98.0433641 80.4008277,99.7960964 82.1356061,101.395736 C83.0022421,102.195051 83.8156549,102.955966 84.4131618,103.551662 C84.7119152,103.849258 84.9564411,104.105928 85.125149,104.303483 C85.2095029,104.402008 85.2747767,104.486386 85.3169537,104.550048 L85.3621433,104.627857 L85.3706791,104.649078 L85.3711812,104.650594 L85.3691728,104.666257 C85.3500927,104.773876 85.2280808,105.119471 85.0252297,105.618664 C84.9333442,105.845018 84.8243871,106.105225 84.7003667,106.394737" id="Fill-18" fill="#858E91"></path>
            <path d="M84.4402755,107.301671 C84.5336673,107.06319 84.645135,106.751952 84.7003667,106.394737 C84.8243871,106.105225 84.9333442,105.845018 85.0252297,105.618664 C85.2280808,105.119471 85.3500927,104.773876 85.3691728,104.666257 L85.3711812,104.650594 L85.3706791,104.649078 L85.3621433,104.627857 L85.3169537,104.550048 C85.2747767,104.486386 85.2095029,104.402008 85.125149,104.303483 C84.9564411,104.105928 84.7119152,103.849258 84.4131618,103.551662 C83.8156549,102.955966 83.0022421,102.195051 82.1356061,101.395736 C80.4008277,99.7960964 78.4561687,98.0433641 77.5804948,97.1212724 C77.3289394,96.8529816 77.1682653,96.670079 77.1055019,96.5281021 C77.0532828,96.3957251 77.0417344,96.209791 77.0402281,95.9475632 C77.0412323,94.5000055 77.5764779,90.8859111 77.8435987,88.8790352 C77.920421,88.3040541 77.9751506,87.855387 77.9882054,87.6487374 C78.0138128,87.543139 78.038416,87.438551 78.0625172,87.3354788 C78.0861162,87.4067199 78.1031878,87.4724032 78.1132299,87.5204024 C78.1152383,87.5310128 78.1162426,87.5476863 78.1162426,87.5694123 C78.1167447,88.2434234 77.1657547,94.0483068 77.1657547,95.9480685 C77.1657547,96.2022121 77.1828263,96.3866305 77.2214886,96.4790923 C77.5558916,97.2869963 85.4520204,103.967488 85.4967079,104.643015 C85.49721,104.644531 85.49721,104.646552 85.49721,104.648573 C85.49721,104.70314 85.4520204,104.854212 85.3661601,105.08865 C85.1999628,105.54237 84.880623,106.310359 84.4402755,107.301671" id="Fill-19" fill="#7C8587"></path>
            <path d="M54.0145,90.871 C54.4565,90.3771453 54.7895,90.0346872 54.9855,89.871 C54.7915,90.0335698 54.4595,90.3760279 54.0195,90.8682067 C54.0175,90.869324 54.0165,90.8698827 54.0145,90.871" id="Fill-20" fill="#5C6666"></path>
            <path d="M66.0576498,92.2364597 C65.9582327,92.2364597 65.8593177,92.2273651 65.7609048,92.2127127 C65.0268249,92.1050932 59.7863381,91.4401766 57.3566441,91.2214009 C56.4413037,91.1380337 55.7584387,91.0890239 55.2482984,91.0890239 C54.7346433,91.0890239 54.3962234,91.1390442 54.1722839,91.2537372 C54.3545486,90.8965214 54.4886111,90.6595565 54.5508723,90.5782103 L54.5634249,90.5650736 C54.5789903,90.5585053 54.6302051,90.5443582 54.6999979,90.5377898 C54.7813392,90.5292005 54.8913006,90.5246532 55.0233546,90.5246532 C55.0238567,90.5246532 55.0243588,90.5246532 55.0248609,90.5246532 C55.025363,90.5246532 55.0263673,90.5246532 55.0273715,90.5246532 C56.0200363,90.5246532 58.2353307,90.7742495 60.4159798,91.0243511 C62.602152,91.2744527 64.7521726,91.5255648 65.6614877,91.5260701 C65.8482714,91.5250596 65.978317,91.517986 66.077232,91.4866601 C66.2213366,91.4351241 66.3850233,91.3047681 66.6069545,91.1072131 C67.3711608,90.4185495 68.7027475,88.9088453 69.8872171,87.5441495 C70.4786987,86.8625594 71.0325223,86.2178531 71.4563003,85.7333128 C71.5903627,85.5802203 71.7113704,85.4427908 71.8163107,85.3260767 C70.8648187,86.8393177 69.4498822,88.9179399 68.5827441,90.1674374 C67.4073124,91.8600442 66.7048653,92.2364597 66.0576498,92.2364597" id="Fill-21" fill="#788083"></path>
            <path d="M65.6614877,91.5260701 C64.7521726,91.5255648 62.602152,91.2744527 60.4159798,91.0243511 C58.2353307,90.7742495 56.0200363,90.5246532 55.0273715,90.5246532 C55.0263673,90.5246532 55.025363,90.5246532 55.0248609,90.5246532 C55.0243588,90.5246532 55.0238567,90.5246532 55.0233546,90.5246532 C54.8913006,90.5246532 54.7813392,90.5292005 54.6999979,90.5377898 C54.6302051,90.5443582 54.5789903,90.5585053 54.5634249,90.5650736 L54.5508723,90.5782103 C54.4886111,90.6595565 54.3545486,90.8965214 54.1722839,91.2537372 C54.0703562,91.3057786 53.9925297,91.3714618 53.9322769,91.4517975 C54.1532038,91.0066672 54.3199032,90.6969454 54.4173119,90.549916 C54.431873,90.5276847 54.4444257,90.5094955 54.4559741,90.4948431 L54.4840921,90.4660435 C54.5453491,90.4185495 54.7356475,90.3983392 55.0248609,90.3983392 C56.0325889,90.3983392 58.2458749,90.6484408 60.4300388,90.8990477 C62.6147047,91.1491493 64.7697463,91.3997562 65.6619898,91.3997562 C65.841744,91.3997562 65.9702833,91.3891458 66.0375656,91.3669145 C66.0516246,91.3623672 66.0671899,91.3557989 66.0837594,91.3472096 C66.0847636,91.3467043 66.0857678,91.3467043 66.0862699,91.346199 C66.086772,91.346199 66.086772,91.346199 66.086772,91.3456938 C66.0877762,91.3456938 66.0882783,91.3451885 66.0892825,91.3446833 C66.0892825,91.3446833 66.0892825,91.3446833 66.0897847,91.3446833 C66.0902868,91.344178 66.091291,91.3436728 66.0917931,91.3431675 C66.0922952,91.3431675 66.0922952,91.3431675 66.0927973,91.3431675 C66.0932994,91.3426623 66.0938015,91.342157 66.0943036,91.342157 C66.0948057,91.3416517 66.0953078,91.3416517 66.0958099,91.3416517 C66.096312,91.3411465 66.0968141,91.3406412 66.0973163,91.3406412 C66.0978184,91.340136 66.0983205,91.340136 66.0988226,91.3396307 C66.0988226,91.3396307 66.0993247,91.3391255 66.0998268,91.3391255 C66.1003289,91.3386202 66.100831,91.3386202 66.1018352,91.338115 C66.1018352,91.338115 66.1023373,91.3376097 66.1028394,91.3376097 C66.1033415,91.3371044 66.1038436,91.3371044 66.1048479,91.3365992 L66.10535,91.3360939 C66.1063542,91.3355887 66.1068563,91.3350834 66.1078605,91.3345782 C66.1078605,91.3345782 66.1078605,91.3345782 66.1083626,91.3345782 C67.0960063,90.7919335 71.6742145,85.1770262 72.1336421,84.8137474 C72.0357313,84.9749239 71.9292847,85.1467109 71.8163107,85.3260767 C71.7113704,85.4427908 71.5903627,85.5802203 71.4563003,85.7333128 C71.0325223,86.2178531 70.4786987,86.8625594 69.8872171,87.5441495 C68.7027475,88.9088453 67.3711608,90.4185495 66.6069545,91.1072131 C66.3850233,91.3047681 66.2213366,91.4351241 66.077232,91.4866601 C65.978317,91.517986 65.8482714,91.5250596 65.6614877,91.5260701" id="Fill-22" fill="#646D6F"></path>
            <path d="M66.6797599,103.696671 C66.5783344,103.669892 66.4764068,103.64665 66.3734749,103.626946 C69.0230916,97.4390782 71.5908648,91.3755039 72.100001,89.941588 C73.2186945,86.7892974 73.7062401,85.3316345 73.8603868,84.7455378 C73.8603868,84.7455378 74.8143894,84.8430522 74.7350565,85.3467922 C74.6481921,85.8879211 74.1551234,87.0015048 73.4712542,88.5829553 C72.6493056,90.482717 69.6502227,97.1318827 66.6797599,103.696671" id="Fill-23" fill="#D1D5D6"></path>
            <path d="M103.192513,23.2747856 L102.841684,23.1113401 C102.841684,23.1113401 97.6155702,19.9236451 99.3542904,13.7223602 C100.656091,9.06720893 101.983271,5.23080792 102.854622,2.871 C104.181802,3.01769488 107.943389,3.54863897 111.139171,5.10695481 C114.741517,6.86424778 116.739005,8.43474589 118,9.98900097 C116.755924,12.1924697 114.730569,15.6872595 112.194645,19.7226376 C108.235996,26.0218883 103.192513,23.2747856 103.192513,23.2747856 M120.287753,7.85901217 C120.111933,7.68870154 116.780809,4.60013568 111.963928,2.40657468 C107.142564,0.209517567 103.027969,-0.0976409066 102.775445,-0.118617583 C101.962089,-0.187041503 101.441103,0.10513363 101.441103,0.10513363 C101.441103,0.10513363 98.7211165,7.42149864 97.5257371,11.1648365 C96.3368326,14.9066759 94.3370625,18.0386935 96.1102086,22.434306 C97.5302197,25.9483988 95.7814793,29.8160983 95,31.5406808 C95,31.5406808 95.5518668,33.361656 97.5481504,34.2721437 C97.6109078,34.2981148 97.8375318,34.4019993 97.8992931,34.4309671 C99.8955767,35.3399564 101.627383,34.5588249 101.627383,34.5588249 C102.406372,32.8347419 104.163579,28.9705385 107.735771,27.728919 C112.202008,26.1776439 113.239995,22.6081128 115.268654,19.2453518 C117.291335,15.8820914 121,9.0142277 121,9.0142277 C121,9.0142277 120.875481,8.42787965 120.287753,7.85901217" id="Fill-24" fill="#B75440"></path>
            <path d="M103.261118,23.1568022 L103.312202,23.0429537 L102.965909,22.8809578 L102.914825,22.9953078 L102.977698,22.8874777 L102.938402,22.862401 C102.737504,22.7320018 101.810618,22.0960549 100.937765,20.9731173 C100.06442,19.8491765 99.2460888,18.2432603 99.2455976,16.1578763 C99.2455976,15.4176101 99.3487485,14.6161566 99.5909077,13.7530143 C100.874401,9.15744577 102.183436,5.3693492 103.042536,3.04072054 L102.927596,2.99658542 L102.914334,3.12096619 C104.217475,3.26490684 107.921086,3.79001436 111.051963,5.31869413 C114.598883,7.05099726 116.552858,8.59271695 117.782319,10.1098614 L117.87712,10.0296158 L117.77053,9.96692384 C116.543525,12.1430858 114.544852,15.5946521 112.043686,19.5793505 C109.971825,22.8729332 107.631772,23.6172117 105.890976,23.6202209 C105.131589,23.6207224 104.486158,23.4757787 104.031312,23.3313365 C103.804379,23.259617 103.624602,23.1873959 103.502786,23.1337316 C103.441877,23.1066487 103.395214,23.0845811 103.364269,23.0690335 L103.319079,23.0459629 L103.312202,23.0429537 L103.261118,23.1568022 L103.203157,23.2676415 C103.213963,23.2726569 104.310802,23.870487 105.890976,23.871 C107.702504,23.8744993 110.147182,23.0700366 112.249988,19.7147651 C114.754592,15.7255528 116.754739,12.2709773 117.983709,10.0923077 C118.009251,10.0471695 118.004339,9.98999446 117.97192,9.94987163 C116.711514,8.39511202 114.723156,6.83383245 111.158062,5.09250169 C107.980029,3.54225589 104.258244,3.01815144 102.940858,2.87170312 C102.885353,2.8656847 102.832796,2.89878603 102.812657,2.95245031 C101.951591,5.28659587 100.640592,9.08020932 99.3546429,13.6838024 C99.1065893,14.5685107 99,15.3940379 99,16.1578763 C99,18.4559113 99.9647072,20.1947344 100.924994,21.3532811 C101.886263,22.5128308 102.844584,23.0981226 102.851952,23.1026364 L102.863741,23.1091564 L103.210033,23.2706508 L103.261118,23.1568022 L103.203157,23.2676415 L103.261118,23.1568022 M120.173389,8.15664142 L120.259258,8.06482811 C120.07617,7.8827317 116.770219,4.72282351 111.976862,2.47186713 C107.180545,0.219380515 103.087957,-0.0958451926 102.832324,-0.117778373 C102.744481,-0.125429482 102.6596,-0.129 102.578172,-0.129 C101.884312,-0.128489926 101.451514,0.119406019 101.43967,0.12603698 L101.383904,0.192856669 C101.383904,0.193876817 98.6889058,7.66493012 97.5030274,11.4940553 L97.5030274,11.4940553 C96.666053,14.21581 95.4002278,16.6447822 95.3982538,19.4858942 C95.3982538,20.6121375 95.5991079,21.8011199 96.1039575,23.0900768 C96.4804973,24.050546 96.628547,25.0385593 96.628547,26.0051495 C96.6290405,28.5861237 95.5690045,31.0105052 95.0054285,32.2897707 L95,32.3795437 C95.004935,32.3943359 95.562589,34.291811 97.5918573,35.2481997 L97.5958053,35.25024 C97.6520642,35.2737034 97.8795672,35.3808189 97.9382936,35.4093831 L97.9397741,35.4098931 C98.6849578,35.760314 99.3955965,35.871 99.9942109,35.871 C101.024143,35.8704899 101.724419,35.5450627 101.734782,35.5409821 L101.79647,35.4772229 C102.565835,33.7169577 104.302458,29.8097911 107.777185,28.5703114 C110.015697,27.7694953 111.404404,26.4382022 112.474803,24.885027 C113.545696,23.3318518 114.305685,21.5593448 115.306007,19.8516172 C117.313068,16.4106583 120.987169,9.39765136 120.987663,9.39714129 L121,9.30991864 C120.996546,9.29461642 120.865768,8.67079597 120.259258,8.06482811 L120.173389,8.15664142 L120.088014,8.24845473 C120.366841,8.52695511 120.535124,8.80851594 120.63333,9.01968656 C120.68268,9.12527187 120.714264,9.21300459 120.73351,9.27319332 L120.753744,9.3420533 L120.758679,9.36296634 L120.879093,9.33644249 L120.770523,9.27574369 C120.770029,9.27676384 120.541046,9.71338715 120.165493,10.4249403 C119.038341,12.5575596 116.595521,17.147205 115.09479,19.719508 C114.085091,21.4455983 113.326089,23.2130046 112.273949,24.7371056 C111.220822,26.2612066 109.883439,27.5450627 107.696251,28.3290464 C104.092721,29.6251444 102.347215,33.6108623 101.571927,35.3716376 L101.684445,35.4246853 L101.633615,35.3083884 L101.606472,35.3201201 C101.471254,35.3772484 100.850925,35.615963 99.9942109,35.615963 C99.4247129,35.615963 98.7510866,35.5108878 98.0419284,35.1778095 L97.9906045,35.2941064 L98.0429154,35.1783196 C97.9792541,35.1477151 97.7581665,35.04315 97.6895701,35.0140757 L97.6426877,35.1319028 L97.6940116,35.016116 C96.7297143,34.5626603 96.115308,33.8832418 95.7407421,33.3165496 C95.5532125,33.0329485 95.4263832,32.7784216 95.3469299,32.595305 C95.3069564,32.5034917 95.278827,32.4300411 95.261061,32.3800538 C95.2432951,32.3295565 95.2358926,32.3050729 95.2358926,32.3050729 L95.1179463,32.3423083 L95.2304641,32.395356 C95.7935466,31.1120099 96.8743096,28.657024 96.8752966,26.0051495 C96.8752966,25.0120355 96.7228054,23.9898472 96.3324476,22.9941829 C95.839442,21.7337901 95.6450033,20.581023 95.6450033,19.4858942 C95.6430293,16.7274142 96.8881276,14.3224155 97.737933,11.5715866 C98.3291449,9.6633999 99.2988706,6.84014053 100.120053,4.49482045 C100.531138,3.32216042 100.904717,2.26885769 101.175648,1.50884749 C101.447072,0.748837286 101.614862,0.283649834 101.615355,0.282119612 L101.499877,0.237743178 L101.560084,0.348939301 L101.573901,0.341288192 C101.650394,0.301502423 102.021999,0.12603698 102.578172,0.12603698 C102.652691,0.12603698 102.730663,0.129097424 102.811597,0.13623846 L102.812091,0.13623846 C103.056373,0.156641418 107.117377,0.46982683 111.874708,2.70395078 C116.627598,4.93399413 119.922198,8.08268069 120.088014,8.24845473 L120.173389,8.15664142" id="Fill-25" fill="#6F3026"></path>
            <path d="M94.8107858,33.032611 C94.6681875,32.7779621 94.7465161,32.4935031 94.8218321,32.3207056 C94.8384016,32.3631471 94.858988,32.4156937 94.8855997,32.4773349 L94.8107858,33.032611" id="Fill-26" fill="#D2B1AA"></path>
            <path d="M94.8855997,32.4773349 C94.858988,32.4156937 94.8384016,32.3631471 94.8218321,32.3207056 C94.8559754,32.2434015 94.8891144,32.1883286 94.9016671,32.1686236 C94.906186,32.1797392 94.9207471,32.2156124 94.9443461,32.2711905 C94.9277766,32.2914008 94.9157261,32.3050427 94.9081945,32.3126215 L94.8855997,32.4773349" id="Fill-27" fill="#602823"></path>
            <path d="M96,22.871 C95.8037634,22.7345385 95.6048387,22.5959247 95.4050179,22.4555889 C95.2517921,22.2575691 95.1164875,22.0629931 95,21.871 C95.2589606,22.1990241 95.5896057,22.5322139 96,22.871 M96,16.871 C96.421134,15.0132389 97.2876289,13.239899 97.9345361,11.2882815 C98.5520619,9.43052043 99.5649485,6.68186833 100.42268,4.39852554 C100.626289,3.85723723 100.821134,3.34226844 101,2.871 C100.182474,5.33808286 98.9737113,8.9860681 98.2139175,11.2768598 C97.5948454,13.143063 96.5360825,14.9655658 96,16.871" id="Fill-28" fill="#A14337"></path>
            <path d="M96.0258838,22.6192898 C95.9410278,22.4944916 95.8561718,22.3686829 95.7713157,22.2413585 C94.4527837,18.160913 96.3171056,15.1319047 97.4533729,11.5481256 C98.3400932,8.76113485 100.058804,4.014257 100.90385,1.70271191 C100.920921,1.67088079 100.936487,1.63551289 100.951048,1.59458717 C100.995735,1.46726272 101.054482,1.33488571 101.129296,1.20452973 C100.98268,1.66784926 100.783344,2.29638742 100.551873,3.02597674 C100.377642,3.50546445 100.187846,4.02941467 99.9895135,4.58014345 C99.1540081,6.90330943 98.1673686,9.69990005 97.5658448,11.5900618 C96.935701,13.575717 96.0916598,15.3799853 95.6814387,17.2701471 C95.2807576,18.7561043 95.179332,20.2915765 95.7989316,21.9331525 C95.8642055,22.1584965 95.9400236,22.3868721 96.0258838,22.6192898" id="Fill-29" fill="#602823"></path>
            <path d="M95.7868811,33.9067034 C95.7482188,33.8480938 95.7095566,33.7874631 95.6718986,33.7253166 C95.7135735,33.7743264 95.7572568,33.8233362 95.8024464,33.8728513 L95.7868811,33.9067034" id="Fill-38" fill="#D2B1AA"></path>
            <path d="M95.9596057,34.1477104 C95.9586015,34.1461947 95.9575973,34.1446789 95.956091,34.1431631 L95.9907363,34.0663642 C95.9927448,34.0683853 95.9947532,34.0704063 95.9967616,34.0724273 C95.984209,34.0976901 95.9721584,34.1229529 95.9596057,34.1477104" id="Fill-39" fill="#5C5654"></path>
            <path d="M95.956091,34.1431631 C95.8993529,34.069901 95.8426149,33.9905759 95.7868811,33.9067034 L95.8024464,33.8728513 C95.862197,33.937524 95.9249604,34.0021968 95.9907363,34.0663642 L95.956091,34.1431631" id="Fill-40" fill="#44403E"></path>
            <path d="M96.1137525,33.8339466 C95.8767581,33.5954659 95.6859576,33.3534484 95.5338193,33.1296201 C95.3430188,32.8486979 95.2139774,32.5965752 95.1331382,32.4151884 C95.0924676,32.3242424 95.0638475,32.2514856 95.0457717,32.2019705 C95.0417548,32.1903496 95.037738,32.1802445 95.0347253,32.1716552 C95.0422569,32.155487 95.0492864,32.1393188 95.056818,32.1231506 C95.7733242,31.1379019 98.5946613,26.6481992 96.5510873,23.4231517 C96.483805,23.317048 96.4200375,23.2119548 96.3592826,23.1068616 C96.7213015,23.6338433 97.0647424,24.133036 97.3514453,24.6044397 C98.1924739,25.9858089 98.8015292,27.1559812 98.2933973,28.7631998 C97.8269403,30.2486517 96.8438155,32.3419263 96.1137525,33.8339466" id="Fill-41" fill="#A14337"></path>
            <path d="M95.8999571,33.871 C95.8982396,33.8689264 95.8965221,33.8668528 95.8948046,33.8647792 C95.8385573,33.7989419 95.7848862,33.7325863 95.7337913,33.6662307 C95.6951481,33.6154272 95.657793,33.565142 95.6221554,33.5148569 C95.3361958,32.9529077 95.0910262,32.2815754 95,32.0228922 C95.0227565,31.9886776 95.0558179,31.937874 95.0961786,31.871 C95.0897381,31.8875889 95.0837269,31.9041778 95.0772864,31.9207667 C95.0798626,31.9295796 95.0832976,31.9399476 95.0867325,31.9518709 C95.1021898,32.0026744 95.1266638,32.0773245 95.1614427,32.1706371 C95.2305711,32.3567439 95.3409188,32.6154272 95.504079,32.9036594 C95.6341778,33.1333121 95.7973379,33.3816273 96,33.6263136 C95.9660799,33.7097766 95.9325891,33.7911659 95.8999571,33.871 M95.0009029,32.871 C95.000301,32.8684603 95,32.8669364 95,32.8669364 C95.4721991,31.1129871 96.5288536,27.1794269 95.6708297,23.6054948 C95.6127453,23.3555837 95.5612819,23.1137998 95.5143328,22.871 C95.5170414,22.8776033 95.5194491,22.8842067 95.5221577,22.89081 C95.567,23.1234509 95.6181625,23.3601553 95.675645,23.5999074 C96.5315622,27.1753633 95.4758105,31.1104474 95.0042134,32.8623649 C95.0042134,32.8623649 95.0030096,32.8654126 95.0009029,32.871" id="Fill-42" fill="#602823"></path>
            <path d="M95.056818,32.1231506 C95.6402659,30.8286853 96.6871582,28.4509517 96.6881624,25.887284 C96.6881624,24.9035511 96.5330115,23.8910185 96.1358452,22.9047593 C96.0971829,22.809266 96.0605292,22.7137726 96.0258838,22.6192898 C96.1378536,22.7840032 96.2493213,22.9466955 96.3592826,23.1068616 C96.4200375,23.2119548 96.483805,23.317048 96.5510873,23.4231517 C98.5946613,26.6481992 95.7733242,31.1379019 95.056818,32.1231506" id="Fill-43" fill="#8D3A2E"></path>
            <path d="M94.9443461,32.2711905 C94.9207471,32.2156124 94.906186,32.1797392 94.9016671,32.1686236 C94.9051818,32.1630658 94.9071902,32.1600343 94.9071902,32.1600343 C95.6939913,30.4174072 97.4553814,26.5031908 96.0273901,22.9466955 C95.9314878,22.7082148 95.8461296,22.4727656 95.7713157,22.2413585 C95.8561718,22.3686829 95.9410278,22.4944916 96.0258838,22.6192898 C96.0605292,22.7137726 96.0971829,22.809266 96.1358452,22.9047593 C96.5330115,23.8910185 96.6881624,24.9035511 96.6881624,25.887284 C96.6871582,28.4509517 95.6402659,30.8286853 95.056818,32.1231506 C95.00962,32.1883286 94.9709578,32.2378437 94.9443461,32.2711905" id="Fill-44" fill="#54231E"></path>
            <path d="M110.566371,23.871 C110.622504,23.8062196 115.013243,18.645378 118.768147,10.1984015 C118.768147,10.1984015 113.458924,3.48822784 101.652758,2.49345551 C101.652758,2.49345551 96.6937406,14.2584664 97.0816993,19.1817797 C97.0638165,18.9560297 97.0359987,18.733715 97.0245735,18.5089465 C96.9932785,17.9303394 96.9932785,17.3507508 97.0166256,16.7726344 C97.0558685,15.6630241 97.1924737,14.5588121 97.3936559,13.4668691 C97.7165409,11.7364462 98.199875,10.0384135 98.7413283,8.36491883 C99.4655843,6.13391981 100.299621,3.93727406 101.136142,1.74651743 C101.237975,1.47954351 101.283675,1.17772556 101.523107,1.00252392 L101.577252,0.968661418 C101.704916,0.894065762 101.848972,0.871 101.995513,0.871 C102.122183,0.871 102.25084,0.888176631 102.372046,0.905353262 C103.055569,0.99761631 103.746046,1.01381142 104.428079,1.11834349 C105.960541,1.3529272 107.45823,1.72001634 108.929096,2.19261908 C109.993623,2.53320714 111.037783,2.94544629 112.057107,3.40234468 C113.711768,4.1463382 115.262113,5.0360877 116.743907,6.07159318 C117.675803,6.72626821 118.497918,7.4918552 119.320032,8.27609111 C119.69905,8.63876341 120.070119,9.11725528 119.988653,9.66641672 C119.927056,10.094851 119.647885,10.4329852 119.42733,10.7887869 C119.210252,11.1362456 119.037881,11.5102054 118.837692,11.8684608 C118.408503,12.6345386 117.943052,13.3770598 117.523302,14.148536 C116.795568,15.4814425 115.955571,16.7579116 115.155809,18.0505758 C114.409696,19.2612829 113.595033,20.4582488 112.738642,21.5953417 C112.171358,22.3462059 111.539497,23.2035652 110.756625,23.7473283 C110.702976,23.7856076 110.610582,23.8214331 110.566371,23.871 M120,8.871 L120,8.871 C112.720924,1.00855472 103.662855,0.871 103.034613,0.871 C103.011854,0.871 103,0.871 103,0.871 C112.207899,2.13386403 120,8.871 120,8.871" id="Fill-61" fill="#C47361"></path>
            <path d="M49.3159086,113.73964 C49.2481242,112.721549 48.8856032,111.640302 48.305168,110.746504 C49.7306487,105.878365 51.7832606,100.388256 51.7832606,100.388256 L51.9062767,99.8920949 C51.9062767,99.8920949 50.2874849,109.031666 49.3525624,113.718419 C49.3405118,113.725492 49.3284613,113.732566 49.3159086,113.73964" id="Fill-71" fill="#D1D5D6"></path>
            <g id="Group-77" transform="translate(0.000000, 115.285674)">
                <mask id="mask-2" fill="white">
                    <use xlink:href="#path-1"></use>
                </mask>
                <g id="Clip-73"></g>
                <path d="M95.7800521,6.27158234 C95.4842056,5.51466686 95.0444339,5.00215657 94.5376969,4.62592069 L94.4472439,4.55087102 C94.3343025,4.47730258 94.2308562,4.37213429 94.1104187,4.32078451 C92.850073,3.50856926 90.8336197,3.5223942 89.5567825,3.65076865 C86.4069175,4.02354829 84.0571372,5.57589159 84.0006666,8.96497698 C83.9426966,12.2251942 87.6787573,12.9919846 90.1979496,12.4044246 C92.6426806,11.8682145 97.0314025,9.3891064 95.7800521,6.27158234" id="Fill-72" fill="#B37D62" mask="url(#mask-2)"></path>
                <path d="M16.2940125,1.6986149 C14.0508352,-0.908088063 11.4773585,-0.767171451 9.04835594,0.326076925 C8.3775469,0.41917346 7.71592703,0.529057894 7.1125052,0.701515409 C4.84839707,1.36947033 -2.55347526,4.62937521 0.906245328,8.09124361 C2.70630063,9.90179316 5.17205988,10.0243957 7.59493636,10.3204732 C10.2220165,10.6404607 13.8394844,10.8302149 16.3552736,9.92315957 C20.9370933,8.25861388 18.6592014,4.42842914 16.2940125,1.6986149" id="Fill-74" fill="#BA8C64" mask="url(#mask-2)"></path>
                <path d="M0.381047052,7.58532599 C-0.0223945371,6.94572952 -0.0825348982,6.3227787 0.093375658,5.72605739 C0.0943779974,5.72807504 0.0958815064,5.72958829 0.0968838457,5.73160594 C-0.0785255408,6.32731842 -0.01788401,6.94976483 0.381047052,7.58532599 M16,1.88242561 C15.9117941,1.77902082 15.8230871,1.67965134 15.7343801,1.58532599 C15.8230871,1.67965134 15.9117941,1.77851641 16,1.88242561" id="Fill-75" fill="#D6D2CD" mask="url(#mask-2)"></path>
                <path d="M11.6098585,10.585326 C10.1982986,10.585326 8.79337541,10.4726022 7.59520868,10.3337537 C5.17232872,10.0521862 2.70656593,9.93559208 0.906508045,8.21377302 C0.69209389,8.0091286 0.519031035,7.80545178 0.384256423,7.60419391 C-0.0221094528,6.99461481 -0.08388115,6.39761433 0.0947973131,5.82625487 C1.78866914,8.14362304 6.50782261,9.32552918 10.2753856,9.32552918 C11.972831,9.32552918 13.4773037,9.08556789 14.4242995,8.60177495 C17.4613229,7.02073963 16.5316844,3.06863513 14.1909965,0.58532599 C14.8230078,0.849960727 15.4335776,1.25924955 16.023727,1.84947693 C16.1140873,1.93994621 16.2044475,2.03525342 16.2942973,2.13443097 C17.6614428,3.63515666 19,5.48614844 19,7.08605168 C19.0005102,8.25392783 18.2883489,9.28779333 16.3555585,9.95591138 C14.987392,10.4247067 13.2935201,10.585326 11.6098585,10.585326" id="Fill-76" fill="#A47B57" mask="url(#mask-2)"></path>
            </g>
            <path d="M68.6590643,104.835012 C66.8795984,103.060049 64.3575168,103.34855 62.069919,104.235273 C61.9293292,104.245379 61.7912498,104.238305 61.6486515,104.270641 C58.7745932,104.602594 56.7034034,106.299748 55.3055385,108.705271 C53.7183795,111.477104 55.091139,114.241864 57.1467635,116.164362 C59.4669983,118.342014 62.7146239,119.369199 65.8442545,119.392491 C68.3678424,119.404062 71.629025,117.388597 72.0161492,114.665773 C72.4836104,111.21134 71.1223994,107.263776 68.6590643,104.835012" id="Fill-78" fill="#B37D62"></path>
            <path d="M45.4742908,108.771965 C44.1673073,108.620893 39.1818906,109.434355 39.4836566,111.51803 C39.4972135,111.549861 39.5263357,111.558956 39.5243273,111.614029 C39.3616447,111.778742 39.183899,111.90253 39.0618871,112.123832 C37.554563,114.587459 39.2777929,117.792296 41.976616,118.202564 C43.4352358,118.434476 45.3638273,118.200543 46.7586796,117.69175 C48.1881771,117.160221 48.8765653,116.592314 49.2280399,115.028547 C49.7673025,112.633635 48.0626505,109.060971 45.4742908,108.771965" id="Fill-79" fill="#B37D62"></path>
            <path d="M34.5374043,106.676669 C30.8233216,104.961831 26.5770058,108.312182 24.0564306,111.530156 C22.4346262,112.991861 21.1120773,114.789561 20.2856098,116.566545 C16.161306,125.392353 39.381729,125.71319 41.9615528,118.029766 C43.4056115,113.731555 38.0014379,108.270246 34.5374043,106.676669" id="Fill-80" fill="#BA8C64"></path>
            <path d="M85.5805597,114.534912 C83.8804266,111.590787 79.949936,107.722549 76.1801194,108.8715 C75.4450353,109.093813 74.7461029,109.397977 74.0647442,109.742056 C73.7604676,109.787024 73.4531783,109.856749 73.150408,110.000747 C69.2630985,111.818152 65.0820567,115.772789 62.9194834,119.493492 C57.9014298,128.170249 74.4568895,129.187834 79.3624712,128.885186 C81.3367545,128.752304 88.6469248,128.41934 89.2846002,125.72178 C90.2918261,121.480158 87.5603661,117.976209 85.5805597,114.534912" id="Fill-81" fill="#BA8C64"></path>
            <path d="M77.7070257,128.930659 C76.0967697,128.930154 74.0059977,128.82304 71.8785719,128.523423 C71.770619,128.508265 71.6626661,128.492602 71.5542111,128.476434 C71.3202294,128.441572 71.0867498,128.404183 70.852266,128.364267 C70.9667463,127.165801 70.7121783,125.770284 70.3516657,124.980064 C69.6341553,123.38093 68.7117855,122.172358 67.2436257,121.46399 C67.3761818,120.893051 67.4494894,120.315038 67.4494894,119.741067 C67.4499915,118.637084 67.1778497,117.549268 66.5331448,116.559977 C66.3247706,116.240656 66.1048479,115.908197 65.8743809,115.56816 C66.4422635,114.953769 67.0452936,114.357567 67.6709184,113.791176 C67.5725055,114.163549 67.4971895,114.53087 67.4509957,114.911328 C66.8153287,120.224092 70.7292499,123.585558 75.476668,124.848698 C76.7610568,125.191767 78.0715551,125.380227 79.3323448,125.379722 C83.1669331,125.379722 86.5390812,123.636589 87.2892285,119.191349 C87.3936667,118.626978 87.4006962,118.073723 87.3630382,117.526026 C87.5814546,117.903957 87.7933436,118.284415 87.9936841,118.668409 C88.0142705,118.707819 88.0343547,118.746724 88.0549411,118.786639 C89.1575673,120.934987 89.8831113,123.192469 89.2846002,125.72178 C89.1003271,126.501895 88.3577114,127.084455 87.347975,127.521501 C84.8650577,128.595169 80.7658592,128.790703 79.3624712,128.885186 C78.9035458,128.91348 78.3426926,128.930659 77.7070257,128.930659" id="Fill-84" fill="#AA7D59"></path>
            <path d="M66.5331448,116.559977 C64.5653889,113.546127 61.6114957,109.360588 57.7683715,108.696682 C54.9721397,108.21871 52.1256973,111.288139 49.8360911,113.443054 C47.481211,114.766824 45.3703547,116.196193 43.6777533,118.586053 C42.4601447,120.313017 40.2584072,125.153872 42.8447584,126.8677 C46.2500455,129.123162 50.8307643,130.065969 54.8742289,129.848709 C57.9983364,129.661764 62.2240657,128.919544 64.4785245,126.493811 C66.7816876,124.033215 68.6299421,119.77593 66.5331448,116.559977" id="Fill-86" fill="#BA8C64"></path>
            <path d="M20.2856098,116.566545 C20.4447776,116.222972 20.6200128,115.881924 20.813826,115.545424 C20.6205149,115.884955 20.4437734,116.226003 20.2856098,116.566545" id="Fill-87" fill="#DBD5CF"></path>
            <path d="M41.9043127,118.190943 L41.9043127,118.190943 C41.924397,118.137891 41.943477,118.083829 41.9615528,118.029766 C42.2502642,117.170831 42.2653274,116.265918 42.0770374,115.353932 C42.2673358,116.267434 42.2527747,117.173863 41.9615528,118.029766 C41.943477,118.083829 41.924397,118.137891 41.9043127,118.190943" id="Fill-88" fill="#A06F57"></path>
            <path d="M29.5263801,123.507244 C24.4581159,123.507244 19.7980643,121.870215 19.7960546,118.55119 C19.7955537,117.945894 19.9502026,117.284009 20.2856098,116.566545 C20.4437734,116.226003 20.6205149,115.884955 20.813826,115.545424 C20.8625303,115.461046 20.9122389,115.376163 20.9634537,115.29229 C23.0135551,118.750766 29.4470473,120.164472 33.7064178,120.164472 C34.2522077,120.164472 34.7628501,120.14123 35.2232819,120.095757 C39.5901033,119.673363 41.0351661,115.663653 40.4185792,111.799457 C41.2179329,112.928704 41.8259841,114.147381 42.0770374,115.353932 C42.2653274,116.265918 42.2502642,117.170831 41.9615528,118.029766 C41.943477,118.083829 41.924397,118.137891 41.9043127,118.190943 C40.568207,121.718133 34.8246093,123.507244 29.5263801,123.507244" id="Fill-89" fill="#A77C58"></path>
            <path d="M70.0805281,117.011171 C69.5472909,117.011171 69.0692854,116.860604 68.8704511,116.38819 C68.7444224,116.085542 68.7147981,115.794515 68.7419119,115.510561 C67.8125125,114.082203 71.6204891,111.639291 72.3691301,111.235592 C73.7263243,110.501961 75.1533114,109.88757 76.7213904,109.88757 C77.4363902,109.889085 78.8633772,110.279143 78.4908141,111.327549 C77.6071064,113.831596 74.2680974,115.844535 71.8765635,116.649407 C71.4678487,116.786332 70.7327646,117.011171 70.0805281,117.011171" id="Fill-92" fill="#C3966D"></path>
            <path d="M49.1025133,119.753699 C48.4979769,119.753699 47.9868324,119.514208 48.0666673,118.704283 C48.2012319,117.340597 49.2200062,116.177499 50.2237174,115.328669 C50.3251429,115.243786 50.4265685,115.160924 50.527994,115.076546 C51.5106167,113.842206 52.7804443,113.028239 54.2727052,112.323408 C54.7010022,112.121305 55.3020238,111.967708 55.8357631,111.967708 C56.6803065,111.967708 57.3551378,112.352207 56.9037439,113.537537 C55.8694043,116.264908 53.1349316,118.406687 50.4953571,119.456103 C50.1489035,119.595048 49.5950799,119.753699 49.1025133,119.753699" id="Fill-93" fill="#C3966D"></path>
            <path d="M25.6461001,115.98247 C24.8582948,115.981965 24.9260792,114.895665 25.1846641,114.31361 C25.3639162,113.907384 25.5913705,113.570884 25.8358964,113.254089 C26.1482068,112.124842 27.2282381,111.072394 28.0521951,110.405962 C28.6055166,109.95679 29.5755866,109.185264 30.420632,109.185264 C30.6787149,109.185264 30.9252492,109.257516 31.1441677,109.431829 C31.8837708,110.019441 30.7861657,111.734279 30.4266573,112.218314 C29.8216188,113.032281 29.1432728,113.860901 28.3534591,114.500555 C27.6254045,115.088672 26.8426202,115.7162 25.9182419,115.945586 C25.8178206,115.970849 25.7274414,115.98247 25.6461001,115.98247" id="Fill-94" fill="#C3966D"></path>
            <path d="M100.969124,35.8453698 C100.976153,35.8115176 101.194067,35.5937524 101.332147,35.4416704 C101.390391,35.4239865 101.440602,35.4068078 101.482779,35.3916501 C101.400433,35.5604055 101.241265,35.7892864 100.969124,35.8453698" id="Fill-30" fill="#E4D4CE"></path>
            <path d="M101.332147,35.4416704 C101.396416,35.3714399 101.443112,35.3153565 101.444116,35.2976725 C101.444619,35.2890832 101.446125,35.2754413 101.448635,35.2567468 C101.492319,35.2441154 101.52596,35.2340103 101.548555,35.227442 C101.538512,35.2597783 101.517424,35.320409 101.482779,35.3916501 C101.440602,35.4068078 101.390391,35.4239865 101.332147,35.4416704" id="Fill-31" fill="#682C25"></path>
            <path d="M108.390259,27.9199279 C108.391264,27.9194227 108.391766,27.9194227 108.39277,27.9194227 C108.392268,27.9194227 108.391766,27.9194227 108.391264,27.9199279 C108.391264,27.9199279 108.390762,27.9199279 108.390259,27.9199279" id="Fill-32" fill="#AC4C3C"></path>
            <path d="M108,28.799 C108.000465,28.798 108.00093,28.798 108.001395,28.798 C108.358605,28.583 108.690698,28.294 109,27.943 C108.788372,28.209 108.566047,28.461 108.332558,28.699 C108.221395,28.734 108.110233,28.767 108,28.799 M109,27.871 C109.364041,27.564786 109.695149,27.2297444 110,26.871 C109.694704,27.2566502 109.363596,27.5942543 109,27.871" id="Fill-33" fill="#682C25"></path>
            <path d="M110.599027,26.6987248 C111.036361,26.3127094 111.425996,25.865558 111.78199,25.3784915 C111.983334,25.1369792 112.173633,24.8873829 112.355395,24.6312182 C113.425887,23.121514 114.198127,21.3708028 115.225437,19.6610173 C116.571585,17.4146502 118.662859,13.6151269 119.924653,11.2990345 C120.173196,10.8857353 120.392616,10.5209407 120.571868,10.2223345 C120.539231,10.3158068 120.499063,10.4113002 120.451363,10.5093198 C120.436802,10.5411509 120.426257,10.5724767 120.417219,10.6032973 C119.246307,12.7587184 116.815609,17.1984008 115.30728,19.7095219 C113.795939,22.2297376 112.82838,24.8641411 110.599027,26.6987248" id="Fill-35" fill="#682C25"></path>
            <path d="M104.391984,25.8761684 C103.601166,25.8756631 102.863572,25.7064025 102.20531,25.3825335 C99.1836324,23.8960711 97.4046686,18.7561043 99.3764413,12.1503905 C100.285254,9.10420351 101.389387,5.78618894 102.345398,3.11288073 L102.364478,3.16290105 C102.348913,3.16239579 102.340377,3.16189054 102.340377,3.16189054 L102.452347,3.49889613 C102.454857,3.49889613 102.456865,3.49940138 102.459376,3.49940138 C101.678098,5.47191986 100.632712,8.40442428 99.5757777,12.2595257 C99.4256478,12.7662972 99.2755179,13.2851949 99.125388,13.8141977 C98.8718242,14.7054688 98.762867,15.5371198 98.762867,16.3066243 C98.762867,16.4824533 98.7683902,16.6547456 98.7794365,16.8240062 C98.8246261,21.8583746 102.657206,23.7657151 102.657206,23.7657151 L103.0132,23.9284075 C103.0132,23.9284075 104.089716,24.5084411 105.648255,24.5084411 C107.476928,24.5084411 109.969887,23.7096317 112.165599,20.2370089 C114.651027,16.3096559 116.66096,12.8840218 117.951374,10.6219918 L118.124099,10.596729 C118.275735,10.5775293 118.421346,10.5522665 118.421346,10.5522665 C117.072185,12.9355579 115.412221,15.820063 113.757277,18.6181694 C110.75468,23.6909372 107.230895,25.8761684 104.391984,25.8761684" id="Fill-36" fill="#8B332A"></path>
            <path d="M98.7794365,16.8240062 C98.7683902,16.6547456 98.762867,16.4824533 98.762867,16.3066243 C98.762867,15.5371198 98.8718242,14.7054688 99.125388,13.8141977 C99.2755179,13.2851949 99.4256478,12.7662972 99.5757777,12.2595257 C99.4472384,12.7289083 99.318197,13.2119328 99.1896577,13.7085992 C98.8919084,14.8585613 98.7714028,15.8948409 98.7794365,16.8240062" id="Fill-37" fill="#53211D"></path>
            <path d="M99.2755179,35.626594 C99.2755179,35.626594 99.2755179,35.6260888 99.27602,35.6260888 C99.2780284,35.6260888 99.2800368,35.626594 99.2825474,35.626594 C99.2800368,35.626594 99.2780284,35.626594 99.2755179,35.626594" id="Fill-45" fill="#454340"></path>
            <path d="M99.8624805,35.407313 C99.8624805,35.407313 99.8619784,35.407313 99.8614763,35.407313 C99.7088359,35.407313 99.5486639,35.4002394 99.3824666,35.383566 C100.068846,33.8273783 101.0349,31.6684204 101.870405,30.2835144 C102.740556,28.842525 103.843182,28.5686763 105.428332,28.295333 C106.300492,28.1462825 107.324789,28.0634206 108.390259,27.9199279 C107.924807,28.0502839 107.419185,28.1265776 106.866366,28.1387037 C102.979558,28.2230814 101.658516,34.0234175 101.46872,35.1274013 C101.281434,35.2001582 100.676897,35.407313 99.8624805,35.407313" id="Fill-46" fill="#A14337"></path>
            <path d="M99.2825474,35.626594 C99.2800368,35.626594 99.2780284,35.6260888 99.27602,35.6260888 C99.3106654,35.5467636 99.3463149,35.4659227 99.3824666,35.383566 C99.5486639,35.4002394 99.7088359,35.407313 99.8614763,35.407313 C99.8619784,35.407313 99.8624805,35.407313 99.8624805,35.407313 C100.676897,35.407313 101.281434,35.2001582 101.46872,35.1274013 C101.45918,35.1829795 101.452652,35.2264315 101.448635,35.2567468 C101.09465,35.357798 100.096964,35.620531 99.2825474,35.626594" id="Fill-47" fill="#602823"></path>
            <path d="M101,35.871 C101.004833,35.8534465 101.007249,35.8435727 101.007249,35.8435727 C101.766448,33.9477965 103.468968,29.7031448 106.937314,28.3411042 C107.290093,28.202322 107.620642,28.0492776 107.931377,27.8825195 C107.95409,27.8786796 107.976804,27.8748398 108,27.871 C107.675734,28.048729 107.330204,28.2127444 106.958095,28.3592063 C103.492164,29.7228925 101.787228,33.9669956 101.031412,35.8605776 C101.031412,35.8605776 101.020297,35.8644174 101,35.871" id="Fill-48" fill="#602823"></path>
            <path d="M101.46872,35.1274013 C101.658516,34.0234175 102.979558,28.2230814 106.866366,28.1387037 C107.419185,28.1265776 107.924807,28.0502839 108.390259,27.9199279 C108.390762,27.9199279 108.391264,27.9199279 108.391264,27.9199279 C108.169835,28.0154213 107.939368,28.1048516 107.697854,28.1892293 C104.062602,29.4619685 102.286149,33.3534484 101.487298,35.1203278 C101.481774,35.1223488 101.475247,35.1248751 101.46872,35.1274013" id="Fill-49" fill="#973E33"></path>
            <path d="M101.448635,35.2567468 C101.452652,35.2264315 101.45918,35.1829795 101.46872,35.1274013 C101.475247,35.1248751 101.481774,35.1223488 101.487298,35.1203278 C102.286149,33.3534484 104.062602,29.4619685 107.697854,28.1892293 C107.939368,28.1048516 108.169835,28.0154213 108.391264,27.9199279 C108.510263,27.9037598 108.630266,27.8870863 108.75027,27.8694024 C108.427415,28.0230001 108.083974,28.1639665 107.717437,28.2917962 C104.113817,29.5463462 102.344896,33.4560153 101.556086,35.2021792 C101.556086,35.2021792 101.553576,35.2112738 101.548555,35.227442 C101.52596,35.2340103 101.492319,35.2441154 101.448635,35.2567468" id="Fill-50" fill="#5A2521"></path>
            <g id="Group-53" transform="translate(102.496030, 3.503443)">
                <mask id="mask-4" fill="white">
                    <use xlink:href="#path-3"></use>
                </mask>
                <g id="Clip-52"></g>
                <path d="M14.4347424,7.36755657 C14.3937908,7.36755657 14.3640521,7.36357902 14.3547892,7.35221457 C9.02327598,1.14268265 1.26294057,-0.376743449 -0.314672535,-0.450612332 C-0.356599212,-0.452316998 -0.393650694,-0.453453443 -0.42680202,-0.453453443 C-0.429727137,-0.453453443 -0.433139773,-0.453453443 -0.43606489,-0.453453443 L-0.496029789,-0.632443428 C9.37136491,0.604008025 14.3031122,7.09537815 14.5039702,7.36471546 C14.4786192,7.36698835 14.4552183,7.36755657 14.4347424,7.36755657" id="Fill-51" fill="url(#linearGradient-5)" mask="url(#mask-4)"></path>
            </g>
            <g id="Group-59" transform="translate(102.288660, 2.966357)">
                <mask id="mask-7" fill="white">
                    <use xlink:href="#path-6"></use>
                </mask>
                <g id="Clip-58"></g>
                <path d="M15.7113402,7.90464344 C8.68637915,0.586673548 0.290487462,0.13269726 -0.21346523,0.111916655 L-0.288659752,-0.0953565568 C-0.288659752,-0.0953565568 4.47797579,0.262709248 8.75310807,2.45905932 C12.8280536,4.55363772 14.4673938,6.25445029 15.7113402,7.90464344" id="Fill-57" fill="url(#linearGradient-8)" mask="url(#mask-7)"></path>
            </g>
            <path d="M120.385085,8.20383775 C120.206837,8.03104028 116.847241,4.90704392 111.991368,2.68644487 C107.13198,0.465340553 102.984077,0.155113518 102.729509,0.13338752 C101.911076,0.062651714 101.382859,0.358226333 101.382859,0.358226333 C101.382859,0.358226333 101.182017,0.900871017 100.867698,1.76233208 C100.899833,1.71483804 100.927449,1.66229144 100.951048,1.59458717 C101.189548,0.912997155 101.833249,0.0828619444 103.222076,0.267785552 C104.608894,0.454730182 112.758587,1.44654724 120.108926,8.12703887 C120.108926,8.12703887 121.170379,9.03397296 120.451363,10.5093198 C120.425755,10.5654032 120.413203,10.6194655 120.398139,10.6720121 C120.83196,9.8752238 121.102595,9.37249432 121.102595,9.37249432 C121.102595,9.37249432 120.976566,8.77932406 120.385085,8.20383775" id="Fill-60" fill="#902F3C"></path>
            <g id="Group-69" transform="translate(102.364478, 3.162901)">
                <mask id="mask-10" fill="white">
                    <use xlink:href="#path-9"></use>
                </mask>
                <g id="Clip-68"></g>
                <path d="M15.1607106,7.70809895 C14.9545753,7.45097934 9.89325378,1.25407129 -0.233391828,0.0737078494 L-0.251903976,0.0210905453 L-0.364477853,-0.291901047 C0.141854428,-0.270745636 8.57739025,0.191418725 15.6355221,7.64137804 L15.3393278,7.68911333 C15.28179,7.69670758 15.2232516,7.70321694 15.1717178,7.70755651 C15.1677151,7.70755651 15.1642129,7.70809895 15.1607106,7.70809895" id="Fill-67" fill="url(#linearGradient-11)" mask="url(#mask-10)"></path>
            </g>
            <path d="M87.9936841,118.668409 C87.7933436,118.284415 87.5814546,117.903957 87.3630382,117.526026 C87.3630382,117.52451 87.3630382,117.522995 87.3625361,117.520974 C87.5809525,117.900421 87.7933436,118.282899 87.9936841,118.668409" id="Fill-82" fill="#DFD8D2"></path>
            <path d="M88.0549411,118.786639 C88.0343547,118.746724 88.0142705,118.707819 87.9936841,118.668409 C88.0142705,118.707819 88.0348569,118.747229 88.0549411,118.786639" id="Fill-83" fill="#A37158"></path>
            <path d="M70.3516657,124.980064 C69.496076,123.072724 68.3492645,121.72167 66.3323022,121.110816 C64.269146,120.474699 62.069919,121.766132 60.233213,122.691761 C59.8395614,122.787254 59.4519351,122.910032 59.0904183,123.118197 C57.257227,124.115067 57.1658436,126.115879 58.5079746,127.601836 C59.9485185,129.194908 62.4906844,129.269686 64.4664739,129.642565 C66.0225024,129.949255 68.8548858,131.596389 70.2035442,130.122052 C71.2313565,129.037268 70.9265778,126.239162 70.3516657,124.980064" id="Fill-85" fill="#B37D62"></path>
            <path d="M43.6777533,118.586053 C43.7063734,118.545632 43.7344913,118.506222 43.7631114,118.466812 C43.7349934,118.506222 43.7063734,118.545632 43.6777533,118.586053" id="Fill-90" fill="#DBD5CF"></path>
            <path d="M50.2077646,129.871 C47.7215532,129.430572 45.3087019,128.631048 43.2846056,127.447694 C42.347524,126.8993 41.9994651,126.011309 42,125.013449 C42.0010716,123.075281 43.3161987,120.724746 44.172959,119.651737 C44.2034811,119.613687 44.2340032,119.576589 44.2639898,119.53949 C44.7759041,118.917373 45.3397595,118.373735 45.9164663,117.871 C45.7515399,118.888836 45.7526109,119.907623 46.0262387,120.960655 C46.8926376,124.368503 50.3732264,125.738776 54,126.127837 C53.4291834,126.629145 52.9044177,127.156612 52.4396252,127.680275 C51.6037484,128.345197 50.8508703,129.090501 50.2077646,129.871 M65.5410171,124.871 C64.7397583,124.075343 63.8564646,123.37092 63,122.814872 C65.4749764,121.262453 67.2188623,118.789049 66.907233,115.871 C66.9526359,115.92526 66.9954591,115.995366 67.0584041,116.064512 C67.7208744,117.004703 68.0005152,118.038529 68,119.087721 C68,121.157294 66.9129083,123.286408 65.5410171,124.871" id="Fill-91" fill="#A77C58"></path>
            <g id="Group-99" transform="translate(4.776967, 117.513395)">
                <mask id="mask-13" fill="white">
                    <use xlink:href="#path-12"></use>
                </mask>
                <g id="Clip-96"></g>
                <path d="M0.778302196,3.35760523 C0.449611568,3.35760523 0.203291602,3.19329071 0.224280281,2.70185926 C0.263881562,1.80619394 1.0258102,0.705891521 1.78259067,0.705891521 C1.81308366,0.705891521 1.84318063,0.70790765 1.87367362,0.711435876 C2.11405339,0.526456037 2.37542184,0.35760523 2.63481023,0.35760523 C2.78093895,0.35760523 2.92667167,0.411536682 3.06725621,0.546113295 C3.63553459,1.088452 2.48947353,2.55064959 2.17662341,2.80064959 C1.93347155,2.99571007 1.26539795,3.35760523 0.778302196,3.35760523" id="Fill-95" fill="#C3966D" mask="url(#mask-13)"></path>
                <path d="M57.0395099,4.78794873 C53.5593571,3.2001688 49.578489,6.30114878 47.217826,9.27662882 C45.6960035,10.6303822 44.4569013,12.2937707 43.6817505,13.9360711 C39.8163525,22.1017965 61.5811584,22.398573 63.9987798,15.2898245 C65.3502452,11.3129167 60.2856158,6.2605156 57.0395099,4.78794873" id="Fill-97" fill="#BA8C64" mask="url(#mask-13)"></path>
                <path d="M52.3429225,20.3576052 C47.5908879,20.3571651 43.2204452,19.0600105 43.2230329,16.4300605 C43.2204452,19.0600105 47.5908879,20.3571651 52.3429225,20.3576052 C57.3833513,20.3580451 62.853524,18.8989663 63.9972639,16.0221696 C64.2105825,15.4849153 64.2639121,14.9252204 64.1898719,14.3576052 C64.1903897,14.3576052 64.1903897,14.3576052 64.1909074,14.3576052 C64.2659832,14.9256604 64.2126535,15.4862353 63.9972639,16.0221696 C62.853524,18.8989663 57.3833513,20.3580451 52.3429225,20.3576052" id="Fill-98" fill="#DBD5CF" mask="url(#mask-13)"></path>
            </g>
            <path d="M120.134031,8.78639764 C120.134031,8.78639764 111.882411,2.08013796 102.1315,0.82306163 C102.1315,0.82306163 102.144053,0.82306163 102.168154,0.82306163 C102.833445,0.82306163 112.42569,0.959985941 120.134031,8.78639764" id="Fill-70" fill="#D9A59A"></path>
        </g>
        <path d="M133.78199,31.5074915 C135.09048,29.7168651 135.942052,27.3871308 137.034134,25.56821 C138.37978,23.3268955 140.579509,19.6663175 141.924653,17.4280345 C140.662859,19.7441269 138.571585,23.5436502 137.225437,25.7900173 C136.198127,27.4998028 135.425887,29.250514 134.355395,30.7602182 C134.173633,31.0163829 133.983334,31.2659792 133.78199,31.5074915" id="Fill-34" fill="#AC4C3C"></path>
        <g id="Group-56" transform="translate(140.021669, 16.450870)">
            <mask id="mask-15" fill="white">
                <use xlink:href="#path-14"></use>
            </mask>
            <g id="Clip-55"></g>
            <path d="M0.182331227,0.0931301143 L0.774331227,0.00513011434 C0.774331227,0.00513011434 0.484331227,0.0551301143 0.182331227,0.0931301143" id="Fill-54" fill="url(#linearGradient-16)" mask="url(#mask-15)"></path>
        </g>
        <path d="M139.951374,16.7509918 C139.95037,16.7499813 139.948361,16.747455 139.944846,16.743413 C139.948361,16.743413 139.951876,16.7429077 139.955893,16.7429077 C139.954386,16.745434 139.95288,16.7479603 139.951374,16.7509918" id="Fill-62" fill="#8B332A"></path>
        <path d="M139.951374,16.7509918 L139.951374,16.7509918 C139.95288,16.7479603 139.954386,16.745434 139.955893,16.7429077 C140.00761,16.7388657 140.066356,16.7328026 140.124099,16.725729 L139.951374,16.7509918" id="Fill-63" fill="#662424"></path>
        <g id="Group-106" transform="translate(69.555522, 133.488819)">
            <mask id="mask-18" fill="white">
                <use xlink:href="#path-17"></use>
            </mask>
            <g id="Clip-104"></g>
            <path d="M0.576478348,4.51118101 C0.802478348,4.17646168 1.04747835,3.84243534 1.31247835,3.51118101 C1.04747835,3.84382135 0.801478348,4.17784768 0.576478348,4.51118101" id="Fill-103" fill="#DBD5CF" mask="url(#mask-18)"></path>
            <path d="M9.56508044,10.511181 C4.81267466,10.5106586 0.441890478,8.97079438 0.444478348,5.84875633 C0.444997302,5.28149293 0.589982442,4.66199534 0.903253907,3.9897412 C1.01975982,3.73849471 1.14713962,3.48672587 1.2843577,3.23600172 C1.36565294,3.08765659 1.45109062,2.93983381 1.53963511,2.79357805 C3.45913481,6.04150052 9.48482081,7.36929385 13.4770902,7.36929385 C13.9912697,7.36929385 14.4717918,7.34735549 14.9051938,7.30452344 C18.9968816,6.90911056 20.3509393,3.14302484 19.7746233,-0.488818987 C20.5078339,0.551163907 21.0691335,1.67106513 21.3130192,2.78156419 C21.3218219,2.82178452 21.3301068,2.86148251 21.3378738,2.9011805 C21.3518545,2.97221901 21.3647997,3.04325752 21.3761913,3.11429603 C21.3906899,3.20570588 21.4031172,3.29763807 21.4129554,3.38852557 C21.4870014,4.06234674 21.4336676,4.72676574 21.2203323,5.36454531 C20.0765031,8.77961721 14.6059031,10.5117032 9.56508044,10.511181" id="Fill-105" fill="#A77C58" mask="url(#mask-18)"></path>
        </g>
        <path d="M74.8723298,137.291374 C74.1553216,137.290869 74.2180849,136.304104 74.4525687,135.774091 C74.6162555,135.404244 74.8241276,135.099069 75.0450545,134.810568 C75.3287448,133.785404 76.3113674,132.82845 77.0585021,132.223659 C77.5611108,131.814907 78.4443164,131.113106 79.2135437,131.113106 C79.4480275,131.113106 79.6719671,131.178284 79.8713034,131.336935 C80.5416157,131.87099 79.5439299,133.428694 79.2180627,133.870792 C78.6682559,134.609476 78.0501627,135.362307 77.3331544,135.943857 C76.67188,136.479428 75.9593907,137.049356 75.1203705,137.258027 C75.0289871,137.280763 74.9466416,137.291374 74.8723298,137.291374" id="Fill-107" fill="#C3966D"></path>
        <path d="M124.475443,9.6304224 C124.470422,9.62991715 124.464397,9.62890664 124.459376,9.62840138 C124.465401,9.61324371 124.471427,9.59859129 124.477452,9.58343362 L124.484983,9.60364385 C124.481971,9.61273845 124.478456,9.6213278 124.475443,9.6304224" id="Fill-64" fill="#8B332A"></path>
        <path d="M124.49603,9.63244343 C124.489502,9.63193817 124.482473,9.63092766 124.475443,9.6304224 C124.478456,9.6213278 124.481971,9.61273845 124.484983,9.60364385 L124.49603,9.63244343" id="Fill-65" fill="#53211D"></path>
        <path d="M124.459376,9.62840138 C124.456865,9.62840138 124.454857,9.62789613 124.452347,9.62789613 L124.340377,9.29089054 C124.340377,9.29089054 124.348913,9.29139579 124.364478,9.29190105 L124.477452,9.58343362 C124.471427,9.59859129 124.465401,9.61324371 124.459376,9.62840138" id="Fill-66" fill="#662424"></path>
        <path d="M89.852681,136.974073 C89.8416347,136.905358 89.829082,136.836644 89.8155251,136.767929 C89.8295841,136.836644 89.8421368,136.905358 89.8531831,136.974073 C89.852681,136.974073 89.852681,136.974073 89.852681,136.974073" id="Fill-100" fill="#999C9C"></path>
        <path d="M89.8883306,137.239332 C89.8787906,137.151418 89.86674,137.062493 89.852681,136.974073 C89.852681,136.974073 89.852681,136.974073 89.8531831,136.974073 C89.8672421,137.062493 89.8792927,137.150913 89.8893348,137.239332 C89.8888327,137.239332 89.8888327,137.239332 89.8883306,137.239332" id="Fill-101" fill="#68706E"></path>
        <path d="M89.8155251,136.767929 L89.8155251,136.767929 C89.8079935,136.729529 89.7999598,136.69113 89.791424,136.652225 C89.7999598,136.69113 89.8079935,136.729024 89.8155251,136.767929" id="Fill-102" fill="#A06F57"></path>
    </g>
</svg>