<?xml version="1.0" encoding="UTF-8"?>
<svg width="285px" height="74px" viewBox="0 0 285 74" version="1.1" xmlns="http://www.w3.org/2000/svg" xmlns:xlink="http://www.w3.org/1999/xlink">
    <title>Artboard</title>
    <g id="Artboard" stroke="none" stroke-width="1" fill="none" fill-rule="evenodd">
        <g id="shovels-color-whitebg" transform="translate(29, 11)" fill-rule="nonzero">
            <polygon id="Rectangle" fill="#E8BD51" transform="translate(121.9479, 11.3119) rotate(-15.01) translate(-121.9479, -11.3119)" points="117.932917 1.10403757 125.962821 1.10403896 125.962825 21.5197643 117.932921 21.5197629"></polygon>
            <path d="M7.0355412,39.5283327 C7.49757674,42.5152874 9.46472806,44.2755809 13.0770059,44.2755809 C16.2272482,44.2755809 18.46042,42.7162658 18.46042,40.1174073 C18.46042,38.0383204 17.3473344,36.9294741 14.911147,36.2849572 L10.0527733,34.9820628 C4.40333872,33.5544232 1.25309639,30.8238891 1.25309639,25.6192417 C1.25309639,19.7007746 6.37749058,16 12.8739903,16 C19.902531,16 23.8368336,20.0334285 24.4948842,25.6885446 L17.4663436,25.6885446 C17.3333333,23.6718304 15.9542272,21.7244191 13.0630048,21.7244191 C10.5008078,21.7244191 8.79267636,23.0896861 8.79267636,25.2311455 C8.79267636,27.2478598 9.97576737,28.0240522 12.3419494,28.6754994 L18.187399,30.3041174 C23.4378029,31.731757 26,34.7256421 26,39.4035874 C26,45.8418263 19.825525,50 13.1330102,50 C6.44049542,50 0.854065697,46.8813698 0,39.5352629 L7.02854066,39.5352629 L7.0355412,39.5283327 Z" id="Path" fill="#01654D"></path>
            <path d="M40.22307,48.9930279 L32,48.9930279 L32,0 L40.22307,0 L40.22307,21.6553785 C41.9831688,17.7998008 45.7677289,15.5756972 50.7975763,15.5756972 C58.6310592,15.5756972 63,21.3276892 63,29.4432271 L63,49 L54.77693,49 L54.77693,30.8167331 C54.77693,26.1733068 52.6898564,22.7709163 47.7921903,22.7709163 C43.3536804,22.7709163 40.22307,25.9780876 40.22307,30.747012 L40.22307,48.9930279 L40.22307,48.9930279 Z" id="Path" fill="#01654D"></path>
            <path d="M68,33.0311927 C68,24.1863405 74.7027237,16 86,16 C97.2972763,16 104,24.1932722 104,33.0311927 C104,41.8691131 97.2972763,50 86,50 C74.7027237,50 68,41.8067278 68,33.0311927 Z M76.0824903,33.0311927 C76.0824903,38.2992864 79.6264591,43.1722732 86,43.1722732 C92.3735409,43.1722732 95.9175097,38.2992864 95.9175097,33.0311927 C95.9175097,27.7630989 92.3735409,22.8207951 86,22.8207951 C79.6264591,22.8207951 76.0824903,27.7630989 76.0824903,33.0311927 Z" id="Shape" fill="#01654D"></path>
            <path d="M156.037368,35.7651855 C156.55524,40.6441093 159.66247,43.9567876 165.428107,43.9567876 C169.377742,43.9567876 172.422827,42.2034244 173.976442,39.729311 L181.551178,39.729311 C179.348497,45.5161027 173.134037,50 165.421202,50 C154.407799,50 148,42.6538932 148,32.9653486 C148,23.2768039 155.056864,16 165.034525,16 C175.012185,16 182,23.0827558 182,33.0970241 L182,35.7651855 L156.030463,35.7651855 L156.037368,35.7651855 Z M155.975223,30.36649 L174.23883,30.36649 C173.720959,25.362821 170.42039,21.8491643 165.172624,21.8491643 C159.924858,21.8491643 156.624289,25.09947 155.975223,30.36649 Z" id="Shape" fill="#01654D"></path>
            <polygon id="Path" fill="#01654D" points="187 49 187 0 195 0 195 49"></polygon>
            <path d="M208.035541,39.5283327 C208.497577,42.5152874 210.464728,44.2755809 214.077006,44.2755809 C217.227248,44.2755809 219.46042,42.7162658 219.46042,40.1174073 C219.46042,38.0383204 218.347334,36.9294741 215.911147,36.2849572 L211.052773,34.9820628 C205.403339,33.5544232 202.253096,30.8238891 202.253096,25.6192417 C202.253096,19.7007746 207.377491,16 213.87399,16 C220.902531,16 224.836834,20.0334285 225.494884,25.6885446 L218.466344,25.6885446 C218.333333,23.6718304 216.954227,21.7244191 214.063005,21.7244191 C211.500808,21.7244191 209.792676,23.0896861 209.792676,25.2311455 C209.792676,27.2478598 210.975767,28.0240522 213.341949,28.6754994 L219.187399,30.3041174 C224.437803,31.731757 227,34.7256421 227,39.4035874 C227,45.8418263 220.825525,50 214.13301,50 C207.440495,50 201.854066,46.8813698 201,39.5352629 L208.028541,39.5352629 L208.035541,39.5283327 Z" id="Path" fill="#01654D"></path>
            <path d="M133.05052,19.1891532 C135.429595,31.0671741 132.187316,38.2489058 129.864384,42.1284491 C125.899259,39.9176023 119.48488,35.2705994 115.646078,23.596765 C115.295182,23.6038059 114.951304,23.6178877 114.600408,23.6178877 C111.933598,23.6178877 109.400129,23.3784967 107,22.94196 C112.186243,42.2763083 123.639489,48.0921028 127.95551,50.2818268 L128.137976,50.3733587 C128.966091,50.7958135 129.850349,51 130.720571,51 C132.587338,51 134.397961,50.0776403 135.485739,48.4019029 L135.619079,48.1906755 C138.271853,44.1210276 145.303809,33.3061846 140.173709,14 C138.089387,15.9855376 135.710312,17.738725 133.057538,19.1750714 L133.05052,19.1891532 Z" id="Path" fill="#01654D"></path>
        </g>
    </g>
</svg>