<svg width="139" height="31" viewBox="0 0 139 31" fill="none" xmlns="http://www.w3.org/2000/svg">
<g id="Group 306">
<path id="Vector" d="M74.8932 -0.000193178L70.1738 1.2627L73.3911 13.2374L78.1105 11.9745L74.8932 -0.000193178Z" fill="#E8BD51"/>
<path id="Vector_2" d="M4.25096 23.8232C4.53041 25.6444 5.72017 26.7177 7.90492 26.7177C9.81024 26.7177 11.1609 25.7669 11.1609 24.1823C11.1609 22.9147 10.4877 22.2386 9.01424 21.8456L6.07583 21.0512C2.65897 20.1808 0.753656 18.5159 0.753656 15.3426C0.753656 11.734 3.85296 9.47754 7.78214 9.47754C12.0331 9.47754 14.4126 11.9368 14.8106 15.3848H10.5597C10.4792 14.1552 9.64511 12.9678 7.89646 12.9678C6.3468 12.9678 5.3137 13.8002 5.3137 15.1059C5.3137 16.3356 6.02925 16.8088 7.46035 17.206L10.9958 18.199C14.1713 19.0695 15.7209 20.8949 15.7209 23.7471C15.7209 27.6726 11.9865 30.2079 7.9388 30.2079C3.89107 30.2079 0.516551 28.3022 0 23.8232H4.25096Z" fill="#F6F1E5"/>
<path id="Vector_3" d="M24.1726 29.7308H19.168V0.0380859H24.1726V13.1625C25.2438 10.8258 27.5471 9.47789 30.6083 9.47789C35.3758 9.47789 38.0348 12.9639 38.0348 17.8824V29.735H33.0302V18.7149C33.0302 15.9007 31.76 13.8386 28.7792 13.8386C26.0779 13.8386 24.1726 15.7824 24.1726 18.6726V29.7308Z" fill="#F6F1E5"/>
<path id="Vector_4" d="M41.4727 19.8596C41.4727 14.4679 45.5246 9.47754 52.3541 9.47754C59.1836 9.47754 63.2355 14.4721 63.2355 19.8596C63.2355 25.2472 59.1836 30.2037 52.3541 30.2037C45.5246 30.2037 41.4727 25.2091 41.4727 19.8596ZM46.3587 19.8596C46.3587 23.071 48.5011 26.0416 52.3541 26.0416C56.2071 26.0416 58.3495 23.071 58.3495 19.8596C58.3495 16.6482 56.2071 13.6354 52.3541 13.6354C48.5011 13.6354 46.3587 16.6482 46.3587 19.8596Z" fill="#F6F1E5"/>
<path id="Vector_5" d="M94.5583 21.5248C94.8758 24.4996 96.7811 26.5194 100.317 26.5194C102.738 26.5194 104.606 25.4503 105.558 23.9418H110.203C108.852 27.4701 105.042 30.204 100.312 30.204C93.5591 30.204 89.6299 25.725 89.6299 19.8177C89.6299 13.9104 93.9571 9.47363 100.075 9.47363C106.193 9.47363 110.478 13.7921 110.478 19.898V21.5248H94.5541H94.5583ZM94.5202 18.2331H105.719C105.402 15.1823 103.378 13.04 100.16 13.04C96.942 13.04 94.9182 15.0217 94.5202 18.2331Z" fill="#F6F1E5"/>
<path id="Vector_6" d="M113.904 29.7308V0.0380859H118.909V29.7308H113.904Z" fill="#F6F1E5"/>
<path id="Vector_7" d="M126.542 23.8232C126.822 25.6444 128.012 26.7177 130.196 26.7177C132.102 26.7177 133.452 25.7669 133.452 24.1823C133.452 22.9147 132.779 22.2386 131.306 21.8456L128.367 21.0512C124.95 20.1808 123.045 18.5159 123.045 15.3426C123.045 11.734 126.144 9.47754 130.073 9.47754C134.324 9.47754 136.704 11.9368 137.102 15.3848H132.851C132.771 14.1552 131.936 12.9678 130.188 12.9678C128.638 12.9678 127.605 13.8002 127.605 15.1059C127.605 16.3356 128.321 16.8088 129.752 17.206L133.287 18.199C136.463 19.0695 138.012 20.8949 138.012 23.7471C138.012 27.6726 134.278 30.2079 130.23 30.2079C126.182 30.2079 122.804 28.3064 122.287 23.8274H126.538L126.542 23.8232Z" fill="#F6F1E5"/>
<path id="Vector_8" d="M81.0136 11.2734C82.4489 18.4018 80.4928 22.7119 79.0913 25.0401C76.6991 23.7133 72.8292 20.9245 70.5132 13.9186C70.3015 13.9228 70.094 13.9312 69.8823 13.9312C68.2734 13.9312 66.7449 13.7876 65.2969 13.5256C68.4258 25.1289 75.3357 28.6191 77.9397 29.9333L78.0498 29.9882C78.5494 30.2417 79.0829 30.3643 79.6079 30.3643C80.7341 30.3643 81.8265 29.8107 82.4828 28.8051L82.5632 28.6783C84.1637 26.2359 88.4062 19.7455 85.3111 8.15918C84.0536 9.35078 82.6183 10.4029 81.0178 11.2649L81.0136 11.2734Z" fill="#F6F1E5"/>
</g>
</svg>
