<?xml version="1.0" encoding="UTF-8"?>
<svg id="Layer_1" data-name="Layer 1" xmlns="http://www.w3.org/2000/svg" viewBox="0 0 340 80">
  <rect x="176.36" y="5.06" width="11.54" height="29.34" transform="translate(1.1 47.84) rotate(-15.01)" fill="gray"/>
  <path d="m17.05,60.44c.66,4.31,3.47,6.85,8.63,6.85,4.5,0,7.69-2.25,7.69-6,0-3-1.59-4.6-5.07-5.53l-6.94-1.88c-8.07-2.06-12.57-6-12.57-13.51,0-8.54,7.32-13.88,16.6-13.88,10.04,0,15.66,5.82,16.6,13.98h-10.04c-.19-2.91-2.16-5.72-6.29-5.72-3.66,0-6.1,1.97-6.1,5.06,0,2.91,1.69,4.03,5.07,4.97l8.35,2.35c7.5,2.06,11.16,6.38,11.16,13.13,0,9.29-8.82,15.29-18.38,15.29s-17.54-4.5-18.76-15.1h10.04Z" fill="#101727"/>
  <path d="m64.1,74.42h-11.82V4.15h11.82v31.06c2.53-5.53,7.97-8.72,15.2-8.72,11.26,0,17.54,8.25,17.54,19.89v28.05h-11.82v-26.08c0-6.66-3-11.54-10.04-11.54-6.38,0-10.88,4.6-10.88,11.44v26.17Z" fill="#101727"/>
  <path d="m104.96,51.06c0-12.76,9.57-24.57,25.7-24.57s25.7,11.82,25.7,24.57-9.57,24.48-25.7,24.48-25.7-11.82-25.7-24.48Zm11.54,0c0,7.6,5.06,14.63,14.16,14.63s14.16-7.03,14.16-14.63-5.06-14.73-14.16-14.73-14.16,7.13-14.16,14.73Z" fill="#101727"/>
  <path d="m230.34,55c.75,7.04,5.25,11.82,13.6,11.82,5.72,0,10.13-2.53,12.38-6.1h10.97c-3.19,8.35-12.19,14.82-23.36,14.82-15.95,0-25.23-10.6-25.23-24.58s10.22-24.48,24.67-24.48,24.57,10.22,24.57,24.67v3.85h-37.61Zm-.09-7.79h26.45c-.75-7.22-5.53-12.29-13.13-12.29s-12.38,4.69-13.32,12.29Z" fill="#101727"/>
  <path d="m276.03,74.42V4.15h11.82v70.27h-11.82Z" fill="#101727"/>
  <path d="m305.88,60.44c.66,4.31,3.47,6.85,8.63,6.85,4.5,0,7.69-2.25,7.69-6,0-3-1.59-4.6-5.07-5.53l-6.94-1.88c-8.07-2.06-12.57-6-12.57-13.51,0-8.54,7.32-13.88,16.6-13.88,10.04,0,15.66,5.82,16.6,13.98h-10.04c-.19-2.91-2.16-5.72-6.29-5.72-3.66,0-6.1,1.97-6.1,5.06,0,2.91,1.69,4.03,5.07,4.97l8.35,2.35c7.5,2.06,11.16,6.38,11.16,13.13,0,9.29-8.82,15.29-18.38,15.29s-17.54-4.5-18.76-15.1h10.04Z" fill="#101727"/>
  <path d="m198.35,30.74c3.39,16.87-1.23,27.07-4.54,32.58-5.65-3.14-14.79-9.74-20.26-26.32-.5.01-.99.03-1.49.03-3.8,0-7.41-.34-10.83-.96,7.39,27.46,23.71,35.72,29.86,38.83l.26.13c1.18.6,2.44.89,3.68.89,2.66,0,5.24-1.31,6.79-3.69l.19-.3c3.78-5.78,13.8-21.14,6.49-48.56-2.97,2.82-6.36,5.31-10.14,7.35Z" fill="#101727"/>
</svg>