<?xml version="1.0" encoding="UTF-8"?><svg id="Layer_2" xmlns="http://www.w3.org/2000/svg" viewBox="0 0 179.01 186.7"><path d="M83.39,1.5h0c-37.42,0-67.75,30.33-67.75,67.75v18.23s135.49,0,135.49,0v-18.23c0-37.42-30.33-67.75-67.75-67.75Z" fill="#e8bd51"/><path d="M152.64,88.98H14.14v-19.73C14.14,31.06,45.21,0,83.39,0h0c38.18,0,69.25,31.06,69.25,69.25v19.73ZM17.14,85.98h132.49v-16.73c0-36.53-29.72-66.25-66.25-66.25S17.14,32.72,17.14,69.25v16.73Z" fill="#101727"/><path d="M112.96,81.18h55.39c5.06,0,9.17,4.1,9.17,9.17h0c0,5.06-4.1,9.17-9.17,9.17H10.67c-5.06,0-9.17-4.1-9.17-9.17h0c0-5.06,4.1-9.17,9.17-9.17h11.49" fill="#e8bd51"/><path d="M168.35,101.01H10.67c-5.88,0-10.67-4.79-10.67-10.67s4.79-10.67,10.67-10.67h11.49v3h-11.49c-4.23,0-7.67,3.44-7.67,7.67s3.44,7.67,7.67,7.67h157.68c4.23,0,7.67-3.44,7.67-7.67s-3.44-7.67-7.67-7.67h-55.39v-3h55.39c5.88,0,10.67,4.79,10.67,10.67s-4.79,10.67-10.67,10.67Z" fill="#101727"/><path d="M136.84,56.53h-18.63v-1.5c0-13.96-4.98-26.74-14.03-35.99-9.09-9.3-21.72-14.42-35.56-14.42V1.61c29.48,0,51.84,22.21,52.57,51.91h12.64c-.41-35.83-15.45-42.97-36.58-49.08l.83-2.88c21.96,6.35,38.75,14.32,38.75,53.46v1.5Z" fill="#101727"/><circle cx="85.93" cy="171.14" r="14.06" fill="#e8bd51"/><path d="M85.93,186.7c-8.58,0-15.56-6.98-15.56-15.56s6.98-15.56,15.56-15.56,15.56,6.98,15.56,15.56-6.98,15.56-15.56,15.56ZM85.93,158.58c-6.93,0-12.56,5.63-12.56,12.56s5.63,12.56,12.56,12.56,12.56-5.63,12.56-12.56-5.63-12.56-12.56-12.56Z" fill="#101727"/><circle cx="29.38" cy="145.77" r="14.06" fill="#e8bd51"/><path d="M29.38,161.33c-8.58,0-15.56-6.98-15.56-15.56s6.98-15.56,15.56-15.56,15.56,6.98,15.56,15.56-6.98,15.56-15.56,15.56ZM29.38,133.21c-6.93,0-12.56,5.63-12.56,12.56s5.63,12.56,12.56,12.56,12.56-5.63,12.56-12.56-5.63-12.56-12.56-12.56Z" fill="#101727"/><circle cx="142.48" cy="145.77" r="14.06" fill="#e8bd51"/><path d="M142.48,161.33c-8.58,0-15.56-6.98-15.56-15.56s6.98-15.56,15.56-15.56,15.56,6.98,15.56,15.56-6.98,15.56-15.56,15.56ZM142.48,133.21c-6.93,0-12.56,5.63-12.56,12.56s5.63,12.56,12.56,12.56,12.56-5.63,12.56-12.56-5.63-12.56-12.56-12.56Z" fill="#101727"/><rect x="84.43" y="99.93" width="3" height="57.14" fill="#101727"/><polygon points="30.88 131.71 27.88 131.71 27.88 111.12 67.12 111.12 67.12 99.51 70.12 99.51 70.12 114.12 30.88 114.12 30.88 131.71" fill="#101727"/><polygon points="143.98 131.71 140.98 131.71 140.98 114.12 101.73 114.12 101.73 99.51 104.73 99.51 104.73 111.12 143.98 111.12 143.98 131.71" fill="#101727"/></svg>