<?xml version="1.0" encoding="UTF-8"?><svg id="Layer_2" xmlns="http://www.w3.org/2000/svg" viewBox="0 0 172.05 172.05"><circle cx="86.02" cy="86.02" r="84.52" fill="#01654d"/><path d="M86.02,172.05C38.59,172.05,0,133.46,0,86.02S38.59,0,86.02,0s86.02,38.59,86.02,86.02-38.59,86.02-86.02,86.02ZM86.02,3C40.24,3,3,40.24,3,86.02s37.24,83.02,83.02,83.02,83.02-37.24,83.02-83.02S131.8,3,86.02,3Z" fill="#101727"/><ellipse cx="86.02" cy="86.02" rx="49.59" ry="84.52" fill="#01654d"/><path d="M86.02,172.05c-28.17,0-51.09-38.59-51.09-86.02S57.85,0,86.02,0s51.09,38.59,51.09,86.02-22.92,86.02-51.09,86.02ZM86.02,3c-26.52,0-48.09,37.24-48.09,83.02s21.57,83.02,48.09,83.02,48.09-37.24,48.09-83.02S112.54,3,86.02,3Z" fill="#101727"/><rect x="84.52" y=".26" width="3" height="170.28" fill="#101727"/><rect x="1.41" y="84.59" width="169.22" height="3" fill="#101727"/><rect x="11.29" y="44.65" width="149.64" height="3" fill="#101727"/><rect x="11.29" y="124.52" width="149.21" height="3" fill="#101727"/><path d="M97.73,81.76l-7.33-7.04-26.7,26.82c-1.96,2.02-1.91,5.26.13,7.21,2.02,1.94,5.22,1.88,7.17-.13l26.73-26.85Z" fill="#e9e1ce"/><path d="M67.36,111.65c-1.64,0-3.29-.61-4.56-1.83-1.27-1.22-1.99-2.87-2.02-4.63-.03-1.77.63-3.44,1.86-4.7l27.75-27.87,9.49,9.12-27.81,27.93c-1.28,1.32-2.99,1.98-4.71,1.98ZM90.43,76.82l-25.66,25.77c-.66.68-1.02,1.58-1,2.55.02.96.41,1.86,1.1,2.52,1.42,1.36,3.68,1.32,5.05-.09l25.67-25.78-5.17-4.97Z" fill="#101727"/><polygon points="125.42 53.52 118.25 46.34 90.4 74.71 97.73 81.76 125.42 53.52" fill="#e8bd51"/><path d="M97.76,83.87l-9.49-9.12,29.97-30.54,9.3,9.29-29.77,30.37ZM92.54,74.68l5.17,4.97,25.61-26.12-5.05-5.05-25.72,26.21Z" fill="#101727"/><path d="M99.64,108.78c-3.66-7.7-9.37-14.07-15.73-20.23-6.63-6.41-13.5-12.02-21.69-15.45l-7.58,8.04c-8.83,9.12-9.85,20.82-9.96,25.97l10.93,10.62,10.65,10.4c3.21-.07,16.71-1.91,25.54-11.03l7.85-8.32Z" fill="#e9e1ce"/><path d="M65.65,129.64l-22.5-21.91v-.65c.18-7.58,2.11-18.42,10.39-26.98l8.28-8.79.96.4c9.12,3.82,16.32,10.11,22.16,15.76,5.69,5.51,12.05,12.27,16.04,20.66l.44.93-8.55,9.06c-8.86,9.16-22.2,11.41-26.6,11.5h-.63ZM46.19,106.5l20.64,20.11c4.38-.28,16.17-2.58,23.88-10.55l7.12-7.55c-3.81-7.55-9.68-13.76-14.97-18.88-5.43-5.26-12.06-11.08-20.28-14.74l-6.86,7.28c-7.39,7.64-9.28,17.32-9.53,24.32Z" fill="#101727"/><rect x="100.77" y="43.16" width="43.52" height="12.81" rx="6.37" ry="6.37" transform="translate(70.94 -72.13) rotate(45)" fill="#e8bd51"/><path d="M133.37,68.33c-2.01,0-4.02-.77-5.54-2.29l-21.77-21.77c-3.07-3.07-3.07-8.06,0-11.12s8.11-3.12,11.18-.05l21.77,21.77c3.07,3.07,3.07,8.06,0,11.13-1.57,1.57-3.6,2.35-5.63,2.35ZM129.95,63.92c1.9,1.9,4.99,1.9,6.88,0,1.95-1.95,1.95-5.04.05-6.94l-21.77-21.77c-1.9-1.9-4.98-1.9-6.88,0-.97.97-1.48,2.19-1.48,3.49s.51,2.52,1.43,3.44l21.77,21.77Z" fill="#101727"/><rect x="53.32" y="93.33" width="3" height="47.9" transform="translate(-66.87 73.1) rotate(-44.99)" fill="#101727"/></svg>