<svg width="139" height="32" viewBox="0 0 139 32" fill="none" xmlns="http://www.w3.org/2000/svg">
<g id="Group 295">
<path id="Vector" d="M74.8932 0.811819L70.1738 2.07471L73.3911 14.0494L78.1105 12.7865L74.8932 0.811819Z" fill="#E8BD51"/>
<path id="Vector_2" d="M4.25096 24.6352C4.53041 26.4564 5.72017 27.5297 7.90492 27.5297C9.81024 27.5297 11.1609 26.5789 11.1609 24.9944C11.1609 23.7267 10.4877 23.0506 9.01424 22.6576L6.07583 21.8632C2.65897 20.9928 0.753656 19.3279 0.753656 16.1546C0.753656 12.546 3.85296 10.2896 7.78214 10.2896C12.0331 10.2896 14.4126 12.7488 14.8106 16.1968H10.5597C10.4792 14.9672 9.64511 13.7798 7.89646 13.7798C6.3468 13.7798 5.3137 14.6123 5.3137 15.9179C5.3137 17.1476 6.02925 17.6208 7.46035 18.018L10.9958 19.011C14.1713 19.8815 15.7209 21.7069 15.7209 24.5591C15.7209 28.4846 11.9865 31.0199 7.9388 31.0199C3.89107 31.0199 0.516551 29.1142 0 24.6352H4.25096Z" fill="#E9E1CE"/>
<path id="Vector_3" d="M24.1726 30.5423H19.168V0.849609H24.1726V13.9741C25.2438 11.6374 27.5471 10.2894 30.6083 10.2894C35.3758 10.2894 38.0348 13.7755 38.0348 18.694V30.5465H33.0302V19.5264C33.0302 16.7122 31.76 14.6501 28.7792 14.6501C26.0779 14.6501 24.1726 16.5939 24.1726 19.4841V30.5423Z" fill="#E9E1CE"/>
<path id="Vector_4" d="M41.4727 20.6716C41.4727 15.2799 45.5246 10.2896 52.3541 10.2896C59.1836 10.2896 63.2355 15.2841 63.2355 20.6716C63.2355 26.0592 59.1836 31.0157 52.3541 31.0157C45.5246 31.0157 41.4727 26.0212 41.4727 20.6716ZM46.3587 20.6716C46.3587 23.883 48.5011 26.8536 52.3541 26.8536C56.2071 26.8536 58.3495 23.883 58.3495 20.6716C58.3495 17.4603 56.2071 14.4475 52.3541 14.4475C48.5011 14.4475 46.3587 17.4603 46.3587 20.6716Z" fill="#E9E1CE"/>
<path id="Vector_5" d="M94.5593 22.3363C94.8768 25.3111 96.7821 27.3309 100.318 27.3309C102.739 27.3309 104.607 26.2618 105.559 24.7533H110.204C108.853 28.2816 105.043 31.0155 100.313 31.0155C93.56 31.0155 89.6309 26.5365 89.6309 20.6292C89.6309 14.7219 93.958 10.2852 100.076 10.2852C106.194 10.2852 110.479 14.6036 110.479 20.7095V22.3363H94.555H94.5593ZM94.5212 19.0447H105.72C105.403 15.9938 103.379 13.8515 100.161 13.8515C96.943 13.8515 94.9192 15.8333 94.5212 19.0447Z" fill="#E9E1CE"/>
<path id="Vector_6" d="M113.904 30.5423V0.849609H118.909V30.5423H113.904Z" fill="#E9E1CE"/>
<path id="Vector_7" d="M126.542 24.6352C126.822 26.4564 128.012 27.5297 130.196 27.5297C132.102 27.5297 133.452 26.5789 133.452 24.9944C133.452 23.7267 132.779 23.0506 131.306 22.6576L128.367 21.8632C124.95 20.9928 123.045 19.3279 123.045 16.1546C123.045 12.546 126.144 10.2896 130.073 10.2896C134.324 10.2896 136.704 12.7488 137.102 16.1968H132.851C132.771 14.9672 131.936 13.7798 130.188 13.7798C128.638 13.7798 127.605 14.6123 127.605 15.9179C127.605 17.1476 128.321 17.6208 129.752 18.018L133.287 19.011C136.463 19.8815 138.012 21.7069 138.012 24.5591C138.012 28.4846 134.278 31.0199 130.23 31.0199C126.182 31.0199 122.804 29.1185 122.287 24.6394H126.538L126.542 24.6352Z" fill="#E9E1CE"/>
<path id="Vector_8" d="M81.0136 12.0854C82.4489 19.2138 80.4928 23.5239 79.0913 25.8521C76.6991 24.5253 72.8292 21.7365 70.5132 14.7306C70.3015 14.7348 70.094 14.7432 69.8823 14.7432C68.2734 14.7432 66.7449 14.5996 65.2969 14.3376C68.4258 25.9409 75.3357 29.4311 77.9397 30.7453L78.0498 30.8002C78.5494 31.0537 79.0829 31.1763 79.6079 31.1763C80.7341 31.1763 81.8265 30.6227 82.4828 29.6171L82.5632 29.4903C84.1637 27.048 88.4062 20.5576 85.3111 8.97119C84.0536 10.1628 82.6183 11.2149 81.0178 12.0769L81.0136 12.0854Z" fill="#E9E1CE"/>
</g>
</svg>
