<?xml version="1.0" encoding="UTF-8"?>
<svg width="134px" height="24px" viewBox="0 0 134 24" version="1.1" xmlns="http://www.w3.org/2000/svg" xmlns:xlink="http://www.w3.org/1999/xlink">
    <title>tools pattern-01</title>
    <defs>
        <polygon id="path-1" points="0.46838 -1.13686838e-13 135.46838 -1.13686838e-13 135.46838 108 0.46838 108"></polygon>
        <polygon id="path-3" points="-0.420098 -1.13686838e-13 67.579902 -1.13686838e-13 67.579902 103 -0.420098 103"></polygon>
        <polygon id="path-5" points="0.46838 -0.30892 92.46838 -0.30892 92.46838 34.69108 0.46838 34.69108"></polygon>
        <polygon id="path-7" points="0.450264 -0.585899463 17.450264 -0.585899463 17.450264 26.4141005 0.450264 26.4141005"></polygon>
        <polygon id="path-9" points="0.163884 0.22946 95.163884 0.22946 95.163884 40.22946 0.163884 40.22946"></polygon>
        <polygon id="path-11" points="0.352132 0.50914 92.352132 0.50914 92.352132 53.50914 0.352132 53.50914"></polygon>
        <polygon id="path-13" points="0.083476 0.10754 116.083476 0.10754 116.083476 28.10754 0.083476 28.10754"></polygon>
        <polygon id="path-15" points="-0.168918184 0.054442 29.8310818 0.054442 29.8310818 71.054442 -0.168918184 71.054442"></polygon>
        <polygon id="path-17" points="0.35336 -0.02874 14.35336 -0.02874 14.35336 11.97126 0.35336 11.97126"></polygon>
        <polygon id="path-19" points="0.46838 0.265452 92.46838 0.265452 92.46838 89.265452 0.46838 89.265452"></polygon>
        <polygon id="path-21" points="0.506576 0.234782 90.506576 0.234782 90.506576 60.234782 0.506576 60.234782"></polygon>
        <polygon id="path-23" points="-0.00876 -0.265186 76.99124 -0.265186 76.99124 67.734814 -0.00876 67.734814"></polygon>
    </defs>
    <g id="tools-pattern-01" stroke="none" stroke-width="1" fill="none" fill-rule="evenodd">
        <g id="Group-5" transform="translate(-1.468380, -81.000000)">
            <mask id="mask-2" fill="white">
                <use xlink:href="#path-1"></use>
            </mask>
            <g id="Clip-2"></g>
            <polygon id="Fill-1" fill="#FFFFFE" mask="url(#mask-2)" points="0.46838 108 135.46838 108 135.46838 -1.13686838e-13 0.46838 -1.13686838e-13"></polygon>
        </g>
        <path d="M61.51722,1.76256 L61.51722,1.76256 C61.1322,1.76256 60.82062,1.45044 60.82062,1.06596 L60.82062,-18.61758 C60.82062,-19.00206 61.1322,-19.31418 61.51722,-19.31418 C61.9017,-19.31418 62.21328,-19.00206 62.21328,-18.61758 L62.21328,1.06596 C62.21328,1.45044 61.9017,1.76256 61.51722,1.76256" id="Fill-11" fill="#FFFFFE"></path>
        <path d="M61.5002892,-19 C61.2244072,-19 61,-18.7871343 61,-18.5247649 L61,1.52476492 C61,1.78713429 61.2244072,2 61.5002892,2 C61.7755928,2 62,1.78713429 62,1.52476492 L62,-18.5247649 C62,-18.7871343 61.7755928,-19 61.5002892,-19 Z M61.0002915,2 C60.4488487,2 60,1.59507033 60,1.09693839 L60,-18.0969384 C60,-18.5950703 60.4488487,-19 61.0002915,-19 C61.5511513,-19 62,-18.5950703 62,-18.0969384 L62,1.09693839 C62,1.59507033 61.5511513,2 61.0002915,2 L61.0002915,2 Z" id="Fill-12" fill="#5F605C"></path>
        <path d="M22.98444,16.47054 L22.98444,16.18596 C22.98444,15.65298 23.508186,15.22206 24.150192,15.22746 L41.34336,15.37002 C41.976402,15.37488 42.486162,15.80256 42.486162,16.32798 C42.486162,16.85394 41.976402,17.28108 41.34336,17.28648 L24.150192,17.42904 C23.508186,17.43444 22.98444,17.00352 22.98444,16.47054" id="Fill-43" fill="#FFFFFE"></path>
        <path d="M42,15.9999892 C42,15.5437193 41.5905114,15.1686605 41.087056,15.163701 L23.9320175,15.000039 C23.6464531,14.9975593 23.3797468,15.1134865 23.2003261,15.3180641 C23.1088916,15.4222126 23,15.5970334 23,15.8369471 L23,16.1636512 C23,16.4035649 23.1088916,16.5777657 23.2003261,16.6819143 C23.3797468,16.8871118 23.6464531,17.0030391 23.9320175,16.9999394 L41.087056,16.8368973 C41.5905114,16.8319378 42,16.456879 42,15.9999892 Z M23,16.6604455 L23,16.3395752 C23,16.0162695 23.1198418,15.705141 23.3373966,15.4622051 C23.6042407,15.1644716 23.9915759,14.9958168 24.4002283,15.0000789 L41.6266617,15.1602096 C42.3839104,15.1675159 43,15.7684627 43,16.4997059 C43,17.231558 42.3839104,17.8325048 41.6266617,17.8392023 L24.4002283,17.9999419 C23.9915218,18.003595 23.6041866,17.8349403 23.3373966,17.5378156 C23.1198418,17.2948797 23,16.9831423 23,16.6604455 L23,16.6604455 Z" id="Fill-44" fill="#5F605C"></path>
        <path d="M41.437374,19.818 C41.818614,19.01988 42.005886,18.14346 42.005886,17.25894 L42.005886,13.96494 C42.005886,13.75542 42.175068,13.58586 42.384156,13.58532 C42.48114,13.58478 42.561438,13.5108 42.561438,13.4136 L42.561438,11.64348 L37.649868,11.64348 L37.649868,13.40928 C37.649868,13.50648 37.7286,13.58532 37.825692,13.58532 C38.035428,13.58532 38.205474,13.75542 38.205474,13.96494 L38.205474,17.74494 C38.205474,17.87616 38.311746,17.98254 38.443074,17.98254 L39.074604,17.98254 C39.30513,17.98254 39.501258,18.15264 39.531282,18.38106 C39.621678,19.07064 39.656454,20.5416 38.650434,21.89916 C40.114698,21.85434 40.96104,20.81484 41.437374,19.818" id="Fill-45" fill="#FFFFFE"></path>
        <g id="Group-52" transform="translate(37.420098, -81.000000)">
            <mask id="mask-4" fill="white">
                <use xlink:href="#path-3"></use>
            </mask>
            <g id="Clip-47"></g>
            <path d="M1.0076447,92.4711359 L1.0076447,93.9930545 C1.29704589,94.0207358 1.52486701,94.2892446 1.52486701,94.6153304 L1.52486701,98.4907142 C1.52486701,98.4951432 1.52813453,98.4990186 1.53220635,98.4990186 L2.1201075,98.4990186 C2.44168114,98.4990186 2.71559934,98.7625447 2.75722244,99.1124365 C2.78441821,99.3405305 2.79819203,99.5763753 2.79819203,99.8144345 C2.79819203,100.504253 2.67955615,101.485832 2.15705554,102.458554 C2.98640083,102.270874 3.64759483,101.618703 4.12666264,100.514218 C4.45924528,99.7479994 4.63498726,98.876038 4.63498726,97.9924506 L4.63498726,94.6153304 C4.63498726,94.2897982 4.86290892,94.0212894 5.15220957,93.9930545 L5.15220957,92.4711359 L1.0076447,92.4711359 Z M0.579902,94.045649 L0.579902,92 L5.579902,92 L5.579902,94.050078 C5.579902,94.2759575 5.41034316,94.4608687 5.20187578,94.4614223 C5.12511434,94.4619759 5.06272996,94.5306256 5.06272996,94.6153304 L5.06272996,97.9924506 C5.06272996,98.945795 4.87246011,99.8880668 4.51263143,100.717399 C3.88632442,102.161256 2.92461969,102.945191 1.73172578,102.985052 L1.29066167,103 L1.55342006,102.609693 C2.2286895,101.605969 2.37039906,100.535256 2.37039906,99.8144345 C2.37039906,99.5968594 2.35788197,99.3814988 2.33319968,99.173889 C2.31932531,99.0576275 2.22773438,98.9701545 2.1201075,98.9701545 L1.53220635,98.9701545 C1.29227029,98.9701545 1.09712431,98.7547939 1.09712431,98.4907142 L1.09712431,94.6153304 C1.09712431,94.5306256 1.03453885,94.4614223 0.957475796,94.4614223 C0.749310027,94.4614223 0.579902,94.2748503 0.579902,94.045649 L0.579902,94.045649 Z" id="Fill-46" fill="#5F605C" mask="url(#mask-4)"></path>
        </g>
        <path d="M56.5206,3.45006 L57.60168,3.45006 C59.78274,3.45006 61.27044,5.7375 60.4518,7.8327 L57.06114,16.5105 L53.67048,7.8327 C52.85184,5.7375 54.33954,3.45006 56.5206,3.45006" id="Fill-73" fill="#FFFFFE"></path>
        <path d="M56.5,16 L59.7825622,8.00283286 C60.1619847,7.07808074 60.0397884,6.0391289 59.4555894,5.22485836 C58.8970572,4.4467068 58.0232696,4 57.0585322,4 L55.9414678,4 C54.9761724,4 54.1023848,4.4467068 53.5444106,5.22485836 C52.9602116,6.0391289 52.8380153,7.07808074 53.2174378,8.00283286 L56.5,16 Z M56.4379979,3 L57.5621551,3 C58.693612,3 59.7166962,3.52950076 60.3686175,4.45327592 C61.0458071,5.41235114 61.1878709,6.63427596 60.748203,7.72206059 L57.0000765,17 L53.2519499,7.72206059 C52.812282,6.63427596 52.9537843,5.41235114 53.6315354,4.45327592 C54.2834568,3.52950076 55.3065409,3 56.4379979,3 L56.4379979,3 Z" id="Fill-74" fill="#5F605C"></path>
        <path d="M56.56056,3.35016 L57.56172,3.35016 C59.58294,3.35016 60.96156,5.39622 60.2034,7.26948 L57.06114,15.03036 L53.91888,7.26948 C53.16018,5.39622 54.53934,3.35016 56.56056,3.35016" id="Fill-75" fill="#FFFFFE"></path>
        <path d="M57.0000575,14 L59.8115881,6.6568012 C60.1308918,5.82371699 60.0412172,4.918286 59.5664086,4.17289487 C59.0910816,3.42750374 58.330662,3 57.480568,3 L56.519547,3 C55.6689345,3 54.9090333,3.42750374 54.4337063,4.17289487 C53.9588977,4.918286 53.8692231,5.82371699 54.1880084,6.6568012 L57.0000575,14 Z M56.0107037,3 L56.9892963,3 C57.992169,3 58.9248405,3.52699672 59.4853936,4.40999655 C60.0459466,5.29299638 60.1557348,6.40978092 59.7793936,7.39705882 L56.5,16 L53.2206064,7.39705882 C52.8442652,6.40978092 52.9540534,5.29299638 53.5146064,4.40999655 C54.0746316,3.52699672 55.007831,3 56.0107037,3 L56.0107037,3 Z" id="Fill-76" fill="#5F605C"></path>
        <path d="M56.99958,0.05832 L57.12216,0.05832 C57.40026,0.05832 57.62544,0.2835 57.62544,0.5616 L57.62544,4.74606 C57.62544,5.02416 57.40026,5.24934 57.12216,5.24934 L56.99958,5.24934 C56.72202,5.24934 56.4963,5.02416 56.4963,4.74606 L56.4963,0.5616 C56.4963,0.2835 56.72202,0.05832 56.99958,0.05832" id="Fill-77" fill="#FFFFFE"></path>
        <path d="M56.591129,5 C56.8169355,5 57,4.87047815 57,4.71071551 L57,0.289284492 C57,0.130092434 56.8169355,-5.68434189e-14 56.591129,-5.68434189e-14 L56.4080645,-5.68434189e-14 C56.1830645,-5.68434189e-14 56,0.130092434 56,0.289284492 L56,4.71071551 C56,4.87047815 56.1830645,5 56.4080645,5 L56.591129,5 Z M56.9225017,-5.68434189e-14 L57.0768185,-5.68434189e-14 C57.5859959,-5.68434189e-14 58,0.34916388 58,0.778595318 L58,5.22140468 C58,5.65083612 57.5859959,6 57.0768185,6 L56.9225017,6 C56.4140041,6 56,5.65083612 56,5.22140468 L56,0.778595318 C56,0.34916388 56.4140041,-5.68434189e-14 56.9225017,-5.68434189e-14 L56.9225017,-5.68434189e-14 Z" id="Fill-78" fill="#5F605C"></path>
        <path d="M56.87646,-4.25574 L57.24582,-4.25574 C57.76746,-4.25574 58.19028,-3.83238 58.19028,-3.31128 L58.19028,2.2788 L55.932,2.2788 L55.932,-3.31128 C55.932,-3.83238 56.35482,-4.25574 56.87646,-4.25574" id="Fill-79" fill="#FFFFFE"></path>
        <path d="M58,2 L58,-3.29433727 C58,-3.68370522 57.6434574,-4 57.2052821,-4 L56.7947179,-4 C56.3565426,-4 56,-3.68370522 56,-3.29433727 L56,2 L58,2 Z M57.2961859,-4 L57.7038141,-4 C58.4183552,-4 59,-3.47301367 59,-2.8249556 L59,3 L56,3 L56,-2.8249556 C56,-3.47301367 56.5816448,-4 57.2961859,-4 L57.2961859,-4 Z" id="Fill-80" fill="#5F605C"></path>
        <polyline id="Fill-109" fill="#FFFFFE" points="73.61808 14.18364 73.61808 -18.09864 70.42938 -18.09864 69.52326 -17.92422 70.13562 -17.45064 69.38988 -17.2449 70.0017 -16.77186 69.25596 -16.56558 69.86832 -16.09254 69.12204 -15.8868 69.7344 -15.41322 68.98866 -15.20748 69.60102 -14.73444 68.85474 -14.52816 69.4671 -14.05512 68.72136 -13.84938 69.33372 -13.3758 68.58744 -13.17006 69.1998 -12.69702 68.45352 -12.49128 69.06588 -12.0177 68.32014 -11.81196 68.9325 -11.33838 68.18622 -11.13264 68.79858 -10.6596 68.05284 -10.45386 68.66466 -9.98028 67.91892 -9.77454 68.53128 -9.3015 67.78554 -9.09522 68.39736 -8.62218 67.65162 -8.41644 68.26398 -7.94286 67.5177 -7.73712 68.13006 -7.26408 67.38432 -7.0578 67.99668 -6.58476 67.2504 -6.37902 67.86276 -5.90544 67.11702 -5.6997 67.72884 -5.22666 66.9831 -5.02038 67.59546 -4.54734 66.84918 -4.3416 67.46154 -3.86802 66.7158 -3.66228 67.32816 -3.18924 66.58188 -2.98296 67.19424 -2.50992 66.4485 -2.30418 67.06086 -1.8306 66.31458 -1.62486 66.92694 -1.15182 66.18066 -0.94554 66.79302 -0.4725 66.04728 -0.26676 66.65964 0.20682 65.91336 0.41256 66.52572 0.8856 65.77998 1.09188 66.39234 1.56492 65.64606 1.77066 66.25842 2.24424 65.51268 2.44998 66.1245 2.92302 65.37876 3.12876 65.99112 3.60234 65.24484 3.80808 65.8572 4.28166 65.11146 4.4874 65.72382 4.96044 64.97754 5.16618 65.5899 5.63976 64.84416 5.8455 65.45652 6.31854 64.71024 6.52482 65.3226 6.99786 64.57632 7.2036 65.18868 7.67718 64.44294 7.88292 65.0553 8.35596 64.30902 8.56224 64.92138 9.03528 64.17564 9.24102 64.78746 9.7146 64.04172 9.92034 64.65408 10.39338 63.9078 10.59966 64.52016 11.0727 63.77442 11.27844 64.38678 11.75202 63.6405 11.95776 64.25286 12.4308 63.50712 12.63708 66.69528 14.18364 73.61808 14.18364"></polyline>
        <path d="M64.7261202,11.8849841 L64,12.0924132 L64.5962493,12.5680881 L64.0105159,12.7353345 L66.5343226,14 L73,14 L73,-18 L70.1402115,-18 L69.7658468,-17.9256079 L70.3237133,-17.4803414 L69.597593,-17.2729124 L70.1938424,-16.7972374 L69.4671964,-16.5903514 L70.0634457,-16.1141335 L69.3373255,-15.9072475 L69.933049,-15.4315725 L69.2069288,-15.2241435 L69.8031781,-14.7484685 L69.0765321,-14.5415825 L69.6727814,-14.0653646 L68.9466612,-13.8584786 L69.5429106,-13.3828036 L68.8162645,-13.1753746 L69.4125139,-12.6996996 L68.6863936,-12.4928136 L69.282643,-12.0165957 L68.555997,-11.8097097 L69.1522463,-11.3340347 L68.4256003,-11.1266057 L69.0218496,-10.6509307 L68.2957294,-10.4440447 L68.8919787,-9.96782678 L68.1653327,-9.76094076 L68.7615821,-9.28526582 L68.0354618,-9.07783679 L68.6317112,-8.60216185 L67.9050651,-8.39527583 L68.5013145,-7.91905788 L67.7751943,-7.71217186 L68.3714436,-7.23649692 L67.6447976,-7.0296109 L68.2410469,-6.55339295 L67.5144009,-6.34650693 L68.1106502,-5.87083199 L67.38453,-5.66340296 L67.9807793,-5.18772802 L67.2541333,-4.980842 L67.8503827,-4.50462405 L67.1242624,-4.29773803 L67.7205118,-3.82206309 L66.9938657,-3.61463406 L67.5901151,-3.13895912 L66.8634691,-2.9320731 L67.4597184,-2.45585515 L66.7335982,-2.24896913 L67.3298475,-1.77329419 L66.6032015,-1.56586516 L67.1994508,-1.09019022 L66.4733306,-0.883304203 L67.0695799,-0.407086253 L66.3429339,-0.200200234 L66.9391833,0.275474708 L66.213063,0.482903735 L66.8087866,0.958578677 L66.0826664,1.1654647 L66.6789157,1.64168265 L65.9522697,1.84856867 L66.548519,2.32424361 L65.8223988,2.53167263 L66.4186481,3.00734758 L65.6920021,3.2142336 L66.2882514,3.69045155 L65.5621312,3.89733756 L66.1583806,4.37301251 L65.4317345,4.58044153 L66.0279839,5.05611648 L65.3018636,5.26300249 L65.8975872,5.73922044 L65.171467,5.94610646 L65.7677163,6.42178141 L65.0410703,6.62866742 L65.6373196,7.10488537 L64.9111994,7.31177139 L65.5074487,7.78798934 L64.7808027,7.99487536 L65.3770521,8.4705503 L64.6509318,8.67743632 L65.2471812,9.15365427 L64.5205351,9.36054029 L65.1167845,9.83621523 L64.3901385,10.0436443 L64.9863878,10.5193192 L64.2602676,10.7262052 L64.8565169,11.2024232 L64.1298709,11.4093092 L64.7261202,11.8849841 Z M63,13.1500363 L63.8913514,12.9023948 L63.2783784,12.4250726 L64.0248649,12.2177068 L63.4124324,11.7409289 L64.1589189,11.5330189 L63.5459459,11.0562409 L64.292973,10.8488752 L63.68,10.371553 L64.4264865,10.1641872 L63.8135135,9.68740929 L64.5605405,9.47949927 L63.9475676,9.00272134 L64.6940541,8.79535559 L64.0810811,8.31803338 L64.8281081,8.11066763 L64.2151351,7.6338897 L64.9616216,7.42597968 L64.3491892,6.94920174 L65.0956757,6.74183599 L64.4827027,6.26451379 L65.2297297,6.05714804 L64.6167568,5.5803701 L65.3632432,5.37246009 L64.7508108,4.89568215 L65.4972973,4.6883164 L64.8843243,4.21099419 L65.6308108,4.00362845 L65.0183784,3.52685051 L65.7648649,3.31894049 L65.1518919,2.84216255 L65.8989189,2.63479681 L65.2859459,2.15801887 L66.0324324,1.95010885 L65.4194595,1.47333091 L66.1664865,1.26596517 L65.5535135,0.788642961 L66.3,0.581277213 L65.687027,0.103955007 L66.4340541,-0.10341074 L65.8210811,-0.580188679 L66.5675676,-0.787554427 L65.9551351,-1.26487663 L66.7016216,-1.47224238 L66.0886486,-1.94956459 L66.8356757,-2.15693033 L66.2227027,-2.63370827 L66.9691892,-2.84107402 L66.3562162,-3.31839623 L67.1032432,-3.52576197 L66.4902703,-4.00253991 L67.2372973,-4.21044993 L66.6243243,-4.68722787 L67.3708108,-4.89459361 L66.7578378,-5.37191582 L67.5048649,-5.57928157 L66.8918919,-6.05605951 L67.6383784,-6.26396952 L67.0254054,-6.74074746 L67.7724324,-6.94811321 L67.1594595,-7.42543541 L67.9059459,-7.63280116 L67.292973,-8.1095791 L68.04,-8.31748911 L67.427027,-8.79426705 L68.1740541,-9.0016328 L67.5610811,-9.47895501 L68.3075676,-9.68632075 L67.6945946,-10.1630987 L68.4416216,-10.3710087 L67.8286486,-10.8477866 L68.5751351,-11.0551524 L67.9627027,-11.5324746 L68.7091892,-11.7398403 L68.0962162,-12.2166183 L68.8427027,-12.423984 L68.2302703,-12.9013062 L68.9767568,-13.108672 L68.3637838,-13.5859942 L69.1108108,-13.7933599 L68.4978378,-14.2701379 L69.2443243,-14.4775036 L68.6313514,-14.9548258 L69.3783784,-15.1621916 L68.7654054,-15.6389695 L69.5118919,-15.8468795 L68.8989189,-16.3236575 L69.6459459,-16.5310232 L69.032973,-17.0083454 L69.7794595,-17.2157112 L69.1275676,-17.7229681 L70.5562162,-18 L74,-18 L74,15 L66.7875676,15 L63,13.1500363 L63,13.1500363 Z" id="Fill-110" fill="#5F605C"></path>
        <path d="M61.51722,23.34366 L61.51722,18.26388 C61.51722,17.62884 61.74564,17.01486 62.1609,16.53372 C62.1609,16.53372 67.51176,12.43944 68.55828,12.34062 L72.98466,12.34062 C73.7385,12.34062 74.34978,12.95136 74.34978,13.7052 L74.34978,23.34366 C74.34978,24.0975 73.7385,24.70878 72.98466,24.70878 L62.8818,24.70878 C62.12796,24.70878 61.51722,24.0975 61.51722,23.34366" id="Fill-111" fill="#FFFFFE"></path>
        <path d="M62.5556671,16.1632431 C62.1969188,16.6029112 62,17.1612026 62,17.7374507 L62,22.85621 C62,23.4868725 62.4938681,24 63.1008598,24 L72.8991402,24 C73.5061319,24 74,23.4868725 74,22.85621 L74,13.14379 C74,12.5131275 73.5061319,12 72.8991402,12 L68.6177279,12 C67.9023262,12.0886954 64.6133636,14.5280914 62.5556671,16.1632431 Z M61,23.3839613 L61,18.2359503 C61,17.5365607 61.2429413,16.8601558 61.6844607,16.3304146 L61.6992484,16.3123553 L61.7177331,16.2975795 C61.7309364,16.2877289 63.0459882,15.2457588 64.4693073,14.2048832 C67.3909405,12.0695012 67.9169612,12.0180594 68.0901889,12.0010945 L68.1113142,12 L72.4404225,12 C73.3007516,12 74,12.7251105 74,13.6160387 L74,23.3839613 C74,24.2754368 73.3007516,25 72.4404225,25 L62.5595775,25 C61.6997766,25 61,24.2754368 61,23.3839613 L61,23.3839613 Z" id="Fill-112" fill="#5F605C"></path>
        <path d="M63.69828,21.29112 L63.69828,20.07234 C63.69828,18.93402 64.62114,18.01116 65.75946,18.01116 L70.26198,18.01116 C71.40084,18.01116 72.3237,18.93402 72.3237,20.07234 L72.3237,21.29112 C72.3237,21.78144 71.92572,22.17888 71.4354,22.17888 L64.58604,22.17888 C64.09572,22.17888 63.69828,21.78144 63.69828,21.29112" id="Fill-113" fill="#FFFFFE"></path>
        <path d="M72,19.9755387 C72,18.8864298 71.1953445,18 70.2055284,18 L65.7944716,18 C64.8046555,18 64,18.8864298 64,19.9755387 L64,21.2900408 C64,21.6814211 64.2893797,22 64.6448882,22 L71.3551118,22 C71.7106203,22 72,21.6814211 72,21.2900408 L72,19.9755387 Z M64,21.7927413 L64,20.4757848 C64,19.1109814 65.01801,18 66.2697932,18 L70.7302068,18 C71.98199,18 73,19.1109814 73,20.4757848 L73,21.7927413 C73,22.4585132 72.5030314,23 71.8926534,23 L65.1073466,23 C64.4969686,23 64,22.4585132 64,21.7927413 L64,21.7927413 Z" id="Fill-114" fill="#5F605C"></path>
        <path d="M73.18554,14.25978 C72.94632,14.25978 72.75246,14.06592 72.75246,13.82724 C72.75246,13.58802 72.94632,13.3947 73.18554,13.3947 C73.42422,13.3947 73.61808,13.58802 73.61808,13.82724 C73.61808,14.06592 73.42422,14.25978 73.18554,14.25978" id="Fill-117" fill="#FFFFFE"></path>
        <path d="M73.05,14 C73.05,13.9724734 73.0276298,13.95 73.0000666,13.95 C72.9723702,13.95 72.95,13.9724734 72.95,14 C72.95,14.0275266 72.9723702,14.05 73.0000666,14.05 C73.0276298,14.05 73.05,14.0275266 73.05,14 Z M73,13.5 C73,13.2241239 73.2242152,13 73.5002038,13 C73.7757848,13 74,13.2241239 74,13.5 C74,13.7754686 73.7757848,14 73.5002038,14 C73.2242152,14 73,13.7754686 73,13.5 L73,13.5 Z" id="Fill-118" fill="#5F605C"></path>
        <path d="M68.36604,14.25978 C68.12736,14.25978 67.9335,14.06592 67.9335,13.82724 C67.9335,13.58802 68.12736,13.3947 68.36604,13.3947 C68.60472,13.3947 68.79858,13.58802 68.79858,13.82724 C68.79858,14.06592 68.60472,14.25978 68.36604,14.25978" id="Fill-119" fill="#FFFFFE"></path>
        <path d="M68.05,14 C68.05,13.9724734 68.0275266,13.95 68,13.95 C67.9724734,13.95 67.95,13.9724734 67.95,14 C67.95,14.0275266 67.9724734,14.05 68,14.05 C68.0275266,14.05 68.05,14.0275266 68.05,14 Z M68,13.5 C68,13.2241239 68.2245314,13 68.5,13 C68.7754686,13 69,13.2241239 69,13.5 C69,13.7754686 68.7754686,14 68.5,14 C68.2245314,14 68,13.7754686 68,13.5 L68,13.5 Z" id="Fill-120" fill="#5F605C"></path>
        <path d="M13.6210362,21.726446 L22.3712786,21.726446 L22.3712786,22.7882866 C22.3712786,22.9045107 22.4645539,23 22.5793254,23 L31.5265718,23 C32.3390319,23 33,22.3266642 33,21.5 C33,20.6727901 32.3390319,20 31.5265718,20 L22.5793254,20 C22.4645539,20 22.3712786,20.0949436 22.3712786,20.2117134 L22.3712786,21.2730084 L13.6210362,21.2730084 L12.8465831,20.8643143 L11,20.9958167 L11,22.0036377 L12.8465831,22.1356857 L13.6210362,21.726446 Z M32.0630016,23 L23.0815408,23 C22.7139007,23 22.4148702,22.6916238 22.4148702,22.3121267 L22.4148702,21.7037088 L14.2007613,21.7037088 L13.4080642,22.1287679 L11,21.9537436 L11,20.0462564 L13.4080642,19.8717877 L14.2007613,20.2962912 L22.4148702,20.2962912 L22.4148702,19.6884289 C22.4148702,19.3089318 22.7139007,19 23.0815408,19 L32.0630016,19 C33.131052,19 34,19.8973469 34,21.0002778 C34,22.1032088 33.131052,23 32.0630016,23 L32.0630016,23 Z" id="Fill-169" fill="#5F605C"></path>
        <path d="M24.0429747,22.95 C24.0191851,22.95 24,22.9720238 24,23 C24,23.027381 24.0191851,23.05 24.0429747,23.05 L31.9570253,23.05 C31.9807125,23.05 32,23.027381 32,23 C32,22.9720238 31.9807125,22.95 31.9570253,22.95 L24.0429747,22.95 Z M31.5147789,23 L23.4853249,23 C23.2177993,23 23,22.7754011 23,22.5 C23,22.2240642 23.2177993,22 23.4853249,22 L31.5147789,22 C31.7823564,22 32,22.2240642 32,22.5 C32,22.7754011 31.7823564,23 31.5147789,23 L31.5147789,23 Z" id="Fill-170" fill="#5F605C"></path>
        <path d="M24.0429747,20.95 C24.0191851,20.95 24,20.972619 24,21 C24,21.027381 24.0191851,21.05 24.0429747,21.05 L31.9570253,21.05 C31.9807125,21.05 32,21.027381 32,21 C32,20.972619 31.9807125,20.95 31.9570253,20.95 L24.0429747,20.95 Z M31.5147789,21 L23.4853249,21 C23.2177993,21 23,20.7759358 23,20.5 C23,20.2240642 23.2177993,20 23.4853249,20 L31.5147789,20 C31.7823564,20 32,20.2240642 32,20.5 C32,20.7759358 31.7823564,21 31.5147789,21 L31.5147789,21 Z" id="Fill-171" fill="#5F605C"></path>
        <path d="M77.7269916,10.378655 L77.7269916,1.62850877 L78.7882866,1.62850877 C78.9050564,1.62850877 79,1.53523392 79,1.42051657 L79,-7.52636452 C79,-8.33903509 78.3272099,-9 77.5,-9 C76.6733358,-9 76,-8.33903509 76,-7.52636452 L76,1.42051657 C76,1.53523392 76.0954893,1.62850877 76.2117134,1.62850877 L77.2730084,1.62850877 L77.2730084,10.378655 L76.8643143,11.1532651 L76.9963623,13 L78.0036377,13 L78.1356857,11.1532651 L77.7269916,10.378655 Z M79,-7.06279538 L79,1.9183005 C79,2.28636938 78.6910682,2.58502176 78.3115711,2.58502176 L77.7037088,2.58502176 L77.7037088,10.7993075 L78.1282123,11.591947 L77.9537436,14 L76.0462564,14 L75.8717877,11.591947 L76.2962912,10.7993075 L76.2962912,2.58502176 L75.6878733,2.58502176 C75.3083762,2.58502176 75,2.28636938 75,1.9183005 L75,-7.06279538 C75,-8.13094848 75.8967912,-9 76.9997222,-9 C78.1026531,-9 79,-8.13094848 79,-7.06279538 L79,-7.06279538 Z" id="Fill-172" fill="#5F605C"></path>
        <path d="M77.95,0.957025005 C77.95,0.980558931 77.972619,1 78,1 C78.027381,1 78.05,0.980558931 78.05,0.957025005 L78.05,-6.957025 C78.05,-6.98107054 78.027381,-7 78,-7 C77.972619,-7 77.95,-6.98107054 77.95,-6.957025 L77.95,0.957025005 Z M78,-7.51467789 L78,0.514677894 C78,0.781994348 77.7759358,1 77.5,1 C77.2245989,1 77,0.781994348 77,0.514677894 L77,-7.51467789 C77,-7.78251341 77.2245989,-8 77.5,-8 C77.7759358,-8 78,-7.78251341 78,-7.51467789 L78,-7.51467789 Z" id="Fill-173" fill="#5F605C"></path>
        <path d="M75.95,0.957025005 C75.95,0.980558931 75.972619,1 76,1 C76.0279762,1 76.05,0.980558931 76.05,0.957025005 L76.05,-6.957025 C76.05,-6.98107054 76.0279762,-7 76,-7 C75.972619,-7 75.95,-6.98107054 75.95,-6.957025 L75.95,0.957025005 Z M77,-7.51467789 L77,0.514677894 C77,0.781994348 76.7759358,1 76.5,1 C76.2245989,1 76,0.781994348 76,0.514677894 L76,-7.51467789 C76,-7.78251341 76.2245989,-8 76.5,-8 C76.7759358,-8 77,-7.78251341 77,-7.51467789 L77,-7.51467789 Z" id="Fill-174" fill="#5F605C"></path>
        <g id="Group-200" transform="translate(-1.468380, -12.691080)">
            <mask id="mask-6" fill="white">
                <use xlink:href="#path-5"></use>
            </mask>
            <g id="Clip-191"></g>
            <path d="M-0.554243003,20.69108 L0.490927009,20.69108 C2.60064428,20.69108 4.03973125,22.9680285 3.2479801,25.0530812 L-0.0316318822,33.69108 L-3.31124386,25.0530812 C-4.10294278,22.9680285 -2.66385581,20.69108 -0.554243003,20.69108" id="Fill-192" fill="#FFFFFE" mask="url(#mask-6)"></path>
            <path d="M-0.531631764,33.4214136 L2.77171205,25.2451529 C3.1536489,24.2996913 3.03062279,23.2380156 2.44255684,22.4049667 C1.88082555,21.6093888 1.00150608,21.1532212 0.030155673,21.1532212 L-1.09347535,21.1532212 C-2.06482576,21.1532212 -2.94403293,21.6093888 -3.50576421,22.4049667 C-4.09394246,23.2380156 -4.21696858,24.2996913 -3.83486328,25.2451529 L-0.531631764,33.4214136 Z M-1.09347535,20.69108 L0.030155673,20.69108 C1.16187239,20.69108 2.18493757,21.2211033 2.83707143,22.1442996 C3.51424849,23.1033376 3.65619738,24.325758 3.2165938,25.4135005 L-0.531631764,34.69108 L-4.27991348,25.4135005 C-4.71940476,24.325758 -4.57745587,23.1033376 -3.90039111,22.1442996 C-3.24814495,21.2211033 -2.22519207,20.69108 -1.09347535,20.69108 L-1.09347535,20.69108 Z" id="Fill-193" fill="#5F605C" mask="url(#mask-6)"></path>
            <path d="M-0.554311013,20.69108 L0.4910239,20.69108 C2.60063116,20.69108 4.03970682,22.7927028 3.24799821,24.7178958 L-0.03162,32.69108 L-3.31128533,24.7178958 C-4.10288121,22.7927028 -2.66386191,20.69108 -0.554311013,20.69108" id="Fill-194" fill="#FFFFFE" mask="url(#mask-6)"></path>
            <path d="M-0.0316345643,32.4201757 L2.8316004,24.9091144 C3.15652895,24.0569862 3.06526815,23.1308575 2.58146453,22.3678664 C2.09755533,21.6054359 1.32355398,21.1681596 0.457816783,21.1681596 L-0.521138694,21.1681596 C-1.38677032,21.1681596 -2.16077168,21.6054359 -2.64468087,22.3678664 C-3.12859007,23.1308575 -3.2197453,24.0569862 -2.89486953,24.9091144 L-0.0316345643,32.4201757 Z M-0.521138694,20.69108 L0.457816783,20.69108 C1.460366,20.69108 2.39355912,21.2186146 2.95384447,22.1015764 C3.51423539,22.9845381 3.62412838,24.1012745 3.24784253,25.0879492 L-0.0316345643,33.69108 L-3.31116444,25.0879492 C-3.68734473,24.1012745 -3.57745173,22.9845381 -3.01706082,22.1015764 C-2.45677547,21.2186146 -1.52368791,20.69108 -0.521138694,20.69108 L-0.521138694,20.69108 Z" id="Fill-195" fill="#5F605C" mask="url(#mask-6)"></path>
        </g>
        <path d="M24.44649,4.44582 L24.44649,4.44582 C24.50157,4.44582 24.546066,4.49064 24.546066,4.54572 L24.546066,5.48802 C24.546066,5.53824 24.508104,5.57874 24.458424,5.58684 C23.887536,5.67432 23.450136,6.1668 23.450136,6.76242 L23.450136,7.00056 C23.450136,7.59618 23.887536,8.08866 24.458424,8.17614 C24.508104,8.18424 24.546066,8.2242 24.546066,8.27496 L24.546066,9.21726 C24.546066,9.27234 24.50157,9.31662 24.44649,9.31662 C23.16885,9.31662 22.13286,8.2809 22.13286,7.00326 L22.13286,6.75972 C22.13286,5.48208 23.16885,4.44582 24.44649,4.44582" id="Fill-241" fill="#FFFFFE"></path>
        <path d="M22.8781095,6.63551631 L22.8781095,6.36509688 C22.8781095,5.60534707 23.34356,4.96394408 24,4.79531518 L24,4 C22.8855721,4.0766495 22,5.10681874 22,6.36203091 L22,6.63858229 C22,7.89379446 22.8855721,8.9239637 24,9 L24,8.20468482 C23.34356,8.03666912 22.8781095,7.39526613 22.8781095,6.63551631 Z M22,6.61422348 L22,6.38577652 C22,5.07030696 23.1915522,4 24.6561084,4 C24.8458184,4 25,4.1387904 25,4.30898592 L25,5.19288826 C25,5.34636815 24.8759892,5.47502786 24.7050586,5.49832844 C24.212794,5.56620403 23.8555934,5.94053287 23.8555934,6.38830919 L23.8555934,6.61169081 C23.8555934,7.05946713 24.212794,7.43328943 24.7062428,7.50167156 C24.8764404,7.52598521 25,7.65413839 25,7.80711174 L25,8.69101408 C25,8.8612096 24.8458184,9 24.6561084,9 C23.1915522,9 22,7.92969304 22,6.61422348 L22,6.61422348 Z" id="Fill-242" fill="#5F605C"></path>
        <path d="M29.977818,12.9951 L29.977926,12.9951 C31.14438,12.609 32.440812,11.35026 32.054496,10.18332 L28.988538,2.93274 C28.60206,1.76634 27.34332,1.134 26.176812,1.52064 C25.010358,1.90674 24.377856,3.16548 24.76428,4.33242 L27.166038,11.58246 C27.552354,12.7494 28.81131,13.38174 29.977818,12.9951" id="Fill-243" fill="#FFFFFE"></path>
        <path d="M31.9452887,10.4416639 L28.8890735,3.35578078 L28.8826602,3.33887314 C28.6120098,2.53787406 27.8524426,2 26.9926884,2 C26.7805118,2 26.5697904,2.0332869 26.3661829,2.0998607 C25.8612598,2.26365339 25.4516734,2.61078822 25.2128737,3.07627648 C24.974128,3.5422931 24.9347861,4.07171334 25.1020159,4.56678995 L27.4990126,11.6611269 C27.7696091,12.4621259 28.5291764,13 29.3891462,13 C29.6012688,13 29.8119902,12.9667131 30.0154361,12.9006677 L30.025568,12.8969691 C31.0353063,12.5646285 32.2767304,11.4487247 31.9452887,10.4416639 Z M26.5489192,11.3386173 L24.1268839,4.18422805 C23.9188623,3.57040096 23.9678726,2.91341415 24.2647118,2.33528707 C24.5615509,1.75715998 25.0707136,1.32716132 25.6983179,1.12361796 C25.9510478,1.04156121 26.2131441,1 26.4770918,1 C27.5428484,1 28.4844999,1.66391368 28.8235968,2.6523245 L31.9118456,9.79872119 L31.9184348,9.81577195 C32.1211741,10.4141468 31.9429944,11.086053 31.4170593,11.7073398 C30.974714,12.2295191 30.3243471,12.6669775 29.6772476,12.876382 L29.6416878,12.8881044 L29.6407621,12.8881044 C29.3993046,12.9621686 29.1497877,13 28.8985826,13 C27.8294498,13 26.8851844,12.3323565 26.5489192,11.3386173 L26.5489192,11.3386173 Z" id="Fill-244" fill="#5F605C"></path>
        <path d="M18.388608,6.32826 L28.998744,6.32826 C30.819138,6.32826 32.294742,4.85244 32.294742,3.0321 C32.294742,1.21176 30.819138,-0.26406 28.998744,-0.26406 L18.388662,-0.26406 C16.568322,-0.26406 15.09261,1.21176 15.09261,3.0321 C15.09261,4.85244 16.568322,6.32826 18.388608,6.32826" id="Fill-245" fill="#FFFFFE"></path>
        <path d="M18.1134591,0 C16.3966812,0 15,1.34572032 15,3 C15,4.65427968 16.3966264,6 18.1134043,6 L28.8865957,6 C30.6033736,6 32,4.65427968 32,3 C32,1.34572032 30.6033736,0 28.8865957,0 L18.1134591,0 Z M15,3.5 C15,1.57014857 16.6119682,0 18.5933298,0 L29.4067252,0 C31.3880868,0 33,1.57014857 33,3.5 C33,5.42985143 31.3880868,7 29.4067252,7 L18.5932748,7 C16.6119132,7 15,5.42985143 15,3.5 L15,3.5 Z" id="Fill-246" fill="#5F605C"></path>
        <path d="M25.793682,3.8421 L28.401774,3.8421 C28.849218,3.8421 29.21199,3.47976 29.21199,3.0321 C29.21199,2.58444 28.849218,2.22156 28.401774,2.22156 L25.793682,2.22156 C25.34613,2.22156 24.983358,2.58444 24.983358,3.0321 C24.983358,3.47976 25.34613,3.8421 25.793682,3.8421" id="Fill-247" fill="#FFFFFE"></path>
        <path d="M25.6161781,3 C25.2764549,3 25,3.22418605 25,3.5 C25,3.77581395 25.2764549,4 25.6161781,4 L28.3840511,4 C28.7237743,4 29,3.77581395 29,3.5 C29,3.22418605 28.7237743,3 28.3840511,3 L25.6161781,3 Z M25,3 C25,2.44859813 25.4976041,2 26.1092425,2 L28.8908727,2 C29.5025111,2 30,2.44859813 30,3 C30,3.55140187 29.5025111,4 28.8908727,4 L26.1092425,4 C25.4976041,4 25,3.55140187 25,3 L25,3 Z" id="Fill-248" fill="#5F605C"></path>
        <path d="M4.200108,3.4722 L14.229096,3.4722 C14.48592,3.4722 14.694036,3.26376 14.694036,3.00726 C14.694036,2.75022 14.48592,2.54232 14.229096,2.54232 L4.200108,2.54232 C3.943284,2.54232 3.735168,2.75022 3.735168,3.00726 C3.735168,3.26376 3.943284,3.4722 4.200108,3.4722" id="Fill-249" fill="#FFFFFE"></path>
        <path d="M4.24643838,2 C4.11048993,2 4,2.2250287 4,2.50057405 C4,2.7761194 4.11048993,3 4.24643838,3 L14.7535616,3 C14.8895101,3 15,2.7761194 15,2.50057405 C15,2.2250287 14.8895101,2 14.7535616,2 L4.24643838,2 Z M4,3.00038865 C4,2.44850369 4.30021755,2 4.66920785,2 L14.3308442,2 C14.6998345,2 15,2.44850369 15,3.00038865 C15,3.55149631 14.6998345,4 14.3307921,4 L4.66920785,4 C4.30016552,4 4,3.55149631 4,3.00038865 L4,3.00038865 Z" id="Fill-250" fill="#5F605C"></path>
        <path d="M14.174718,5.4648 L15.789318,5.4648 C16.162674,5.4648 16.465398,5.16186 16.465398,4.78872 L16.465398,1.49148 C16.465398,1.1178 16.162674,0.8154 15.789318,0.8154 L14.174772,0.8154 C13.801362,0.8154 13.498584,1.1178 13.498584,1.49148 L13.49853,4.78872 C13.49853,5.16186 13.801362,5.4648 14.174718,5.4648" id="Fill-251" fill="#FFFFFE"></path>
        <g id="Group-255" transform="translate(-0.450264, 0.585899)">
            <mask id="mask-8" fill="white">
                <use xlink:href="#path-7"></use>
            </mask>
            <g id="Clip-253"></g>
            <path d="M14.2435028,0.863361058 C14.0279472,0.863361058 13.8525808,1.05944983 13.8525808,1.30046461 L13.8525335,4.52773699 C13.8525335,4.76822323 14.0278999,4.964312 14.2434555,4.964312 L15.6571671,4.964312 C15.8726281,4.964312 16.0479945,4.76822323 16.0479945,4.52773699 L16.0479945,1.30046461 C16.0479945,1.05944983 15.8726753,0.863361058 15.6571671,0.863361058 L14.2435028,0.863361058 Z M13.450264,4.52773699 L13.450264,1.30046461 C13.450264,0.811564023 13.8061505,0.413572522 14.2435028,0.414100537 L15.6571671,0.414100537 C16.094472,0.414100537 16.450264,0.811564023 16.450264,1.30046461 L16.4502167,4.52773699 C16.4502167,5.01663758 16.0944248,5.41410054 15.6571671,5.41410054 L14.2434555,5.41410054 C13.8061032,5.41410054 13.450264,5.01663758 13.450264,4.52773699 L13.450264,4.52773699 Z" id="Fill-252" fill="#5F605C" mask="url(#mask-8)"></path>
            <path d="M1.64215779,19.3757788 C1.18927981,19.8274601 0.929261983,20.3915316 0.929261983,20.9524223 C0.929261983,21.7327918 1.33738695,22.463328 2.02101035,22.9075874 C2.43842368,23.1784901 2.68768953,23.6328221 2.68768953,24.1232038 L2.68768953,33.7049972 C2.68768953,34.1953789 2.43842368,34.649711 2.02106665,34.9206137 C1.33738695,35.364873 0.929261983,36.0954092 0.929261983,36.8757788 C0.929261983,37.4366695 1.18927981,38.0007409 1.64215779,38.4524223 L1.62020348,36.7549064 L3.49453852,35.711056 L5.24469098,36.5407288 L5.26917848,38.4396988 C5.71513241,37.9885477 5.97126602,37.4287173 5.97126602,36.8757788 C5.97126602,36.0954092 5.56314105,35.364873 4.87951765,34.9211439 C4.46204802,34.649711 4.21283847,34.1953789 4.21283847,33.7049972 L4.21283847,24.1232038 C4.21283847,23.6328221 4.46210432,23.1784901 4.87957394,22.9075874 C5.56314105,22.463328 5.97126602,21.7327918 5.97126602,20.9524223 C5.97126602,20.3994838 5.71518871,19.8396534 5.26917848,19.3885022 L5.24469098,21.2874722 L3.49453852,22.1171451 L1.62020348,21.0732947 L1.64215779,19.3757788 Z M2.13359655,39.4141005 L1.74483641,39.1405471 C0.934215776,38.5695837 0.450264,37.7229463 0.450264,36.8757788 C0.450264,35.9474995 0.935848275,35.0775359 1.74917098,34.549514 C2.03688501,34.3623738 2.20869155,34.0469391 2.20869155,33.7049972 L2.20869155,24.1232038 C2.20869155,23.781262 2.0369413,23.4652971 1.74917098,23.278687 C0.935848275,22.7506652 0.450264,21.8807016 0.450264,20.9524223 C0.450264,20.1047246 0.934215776,19.2586174 1.74483641,18.6881841 L2.13359655,18.4141005 L2.10252276,20.8182962 L3.51294637,21.6034371 L4.76929576,21.0075571 L4.80256498,18.4342459 L5.18164271,18.7072693 C5.97599464,19.2792929 6.450264,20.1185083 6.450264,20.9524223 C6.450264,21.8807016 5.96467972,22.7506652 5.15135702,23.278687 C4.8635867,23.4658273 4.69183645,23.781262 4.69183645,24.1232038 L4.69183645,33.7049972 C4.69183645,34.0469391 4.8635867,34.3623738 5.15141332,34.549514 C5.96467972,35.0775359 6.450264,35.9469694 6.450264,36.8757788 C6.450264,37.7096928 5.97599464,38.5489082 5.18164271,39.1209318 L4.80256498,39.3939551 L4.76929576,36.820644 L3.51294637,36.224764 L2.10252276,37.0099048 L2.13359655,39.4141005 L2.13359655,39.4141005 Z" id="Fill-254" fill="#5F605C" mask="url(#mask-8)"></path>
        </g>
        <path d="M100,-1.29321126 C99.5501459,-1.74263064 98.9883563,-2 98.4297346,-2 C97.6525219,-2 96.9244129,-1.59524341 96.4824788,-0.917485485 C96.2126719,-0.503796338 95.7601779,-0.256476105 95.2717799,-0.256476105 L85.7287481,-0.256476105 C85.2403501,-0.256476105 84.7878561,-0.503796338 84.5175212,-0.917485485 C84.0755871,-1.59524341 83.3474781,-2 82.5702654,-2 C82.0121717,-2 81.4503821,-1.74263064 81,-1.29321126 L82.6911769,-1.31498437 L83.7308045,0.543546226 L82.90396,2.27925413 L81.0131999,2.30381867 C81.4625261,2.74598035 82.0200917,3 82.5702654,3 C83.3474781,3 84.0755871,2.59524341 84.5175212,1.91748548 C84.7878561,1.50323805 85.2403501,1.25647611 85.7287481,1.25647611 L95.2717799,1.25647611 C95.7601779,1.25647611 96.2126719,1.50323805 96.4824788,1.91748548 C96.9244129,2.59524341 97.6525219,3 98.4297346,3 C98.9804363,3 99.5380019,2.74598035 99.9873281,2.30381867 L98.09604,2.27925413 L97.2691955,0.543546226 L98.3088231,-1.31498437 L100,-1.29321126 Z M80,-0.316757365 L80.2735604,-0.705760931 C80.8445381,-1.51641959 81.6906667,-2 82.5378556,-2 C83.4666885,-2 84.3366742,-1.51473072 84.8647093,-0.701257272 C85.0513241,-0.413586039 85.367297,-0.241884031 85.7092474,-0.241884031 L95.2912827,-0.241884031 C95.6332332,-0.241884031 95.9486759,-0.413586039 96.1358209,-0.701257272 C96.663856,-1.51473072 97.5333115,-2 98.4621444,-2 C99.3093333,-2 100.155992,-1.51641959 100.72644,-0.705760931 L101,-0.316757365 L98.5962738,-0.347720023 L97.8111131,1.06248827 L98.406478,2.31900919 L100.980384,2.35222368 L100.707354,2.73165697 C100.135316,3.52598987 99.2960794,4 98.4621444,4 C97.5333115,4 96.663856,3.51473072 96.1358209,2.70125727 C95.9486759,2.41358604 95.6332332,2.24132107 95.2912827,2.24132107 L85.7092474,2.24132107 C85.367297,2.24132107 85.0513241,2.41358604 84.8647093,2.70125727 C84.3366742,3.51473072 83.4666885,4 82.5378556,4 C81.7039206,4 80.8646841,3.52598987 80.2931761,2.73109401 L80.0201459,2.35222368 L82.593522,2.31900919 L83.1894171,1.06248827 L82.4037262,-0.347720023 L80,-0.316757365 L80,-0.316757365 Z" id="Fill-257" fill="#5F605C"></path>
        <g id="Group-261" transform="translate(35.836116, -13.229460)">
            <mask id="mask-10" fill="white">
                <use xlink:href="#path-9"></use>
            </mask>
            <g id="Clip-259"></g>
            <path d="M1.35577779,1.19060814 C0.902899809,1.64281959 0.642881983,2.20689108 0.642881983,2.76725158 C0.642881983,3.54762116 1.05106325,4.27868751 1.73468665,4.72241668 C2.15209998,4.99384958 2.40130953,5.4481816 2.40130953,5.9385633 L2.40130953,15.5203567 C2.40130953,16.0107384 2.15209998,16.4650704 1.73468665,16.7359732 C1.05106325,17.1797024 0.642881983,17.9107687 0.642881983,18.6911383 C0.642881983,19.2520289 0.902899809,19.8161004 1.35577779,20.2677817 L1.33382348,18.5697357 L3.20815852,17.5258853 L4.95831098,18.3560883 L4.98279848,20.2550583 C5.42875241,19.8039071 5.68488602,19.2440768 5.68488602,18.6911383 C5.68488602,17.9107687 5.27676105,17.1797024 4.59313765,16.7359732 C4.17566802,16.4650704 3.92645847,16.0107384 3.92645847,15.5203567 L3.92645847,5.9385633 C3.92645847,5.4481816 4.17572432,4.99384958 4.59319394,4.72241668 C5.27676105,4.27868751 5.68488602,3.54762116 5.68488602,2.76725158 C5.68488602,2.21484322 5.42880871,1.65501286 4.98279848,1.20333155 L4.95831098,3.10283171 L3.20815852,3.93250453 L1.33382348,2.88865418 L1.35577779,1.19060814 Z M1.84721655,21.22946 L1.45845641,20.9553764 C0.647835776,20.3849432 0.163884,19.5383058 0.163884,18.6911383 C0.163884,17.7623288 0.649468275,16.8928953 1.46279098,16.3648735 C1.75050501,16.1777333 1.92231155,15.8622985 1.92231155,15.5203567 L1.92231155,5.9385633 C1.92231155,5.59662147 1.7505613,5.28065661 1.46279098,5.09404649 C0.649468275,4.56602468 0.163884,3.69606103 0.163884,2.76725158 C0.163884,1.92008405 0.647835776,1.07397681 1.45845641,0.503013469 L1.84721655,0.22946 L1.81614276,2.63312556 L3.22656637,3.41879656 L4.48291576,2.82291653 L4.51618498,0.249075268 L4.89526271,0.522098594 C5.68961464,1.09412222 6.163884,1.93386776 6.163884,2.76725158 C6.163884,3.69606103 5.67829972,4.56602468 4.86503332,5.09404649 C4.57726299,5.28065661 4.40545645,5.59662147 4.40545645,5.9385633 L4.40545645,15.5203567 C4.40545645,15.8622985 4.57726299,16.1777333 4.86503332,16.3648735 C5.67829972,16.8928953 6.163884,17.7623288 6.163884,18.6911383 C6.163884,19.5250522 5.68961464,20.3642676 4.89526271,20.9362913 L4.51618498,21.2093146 L4.48291576,18.6360035 L3.22656637,18.0395933 L1.81614276,18.8252643 L1.84721655,21.22946 L1.84721655,21.22946 Z" id="Fill-258" fill="#5F605C" mask="url(#mask-10)"></path>
        </g>
        <g id="Group-271" transform="translate(12.647868, -26.509140)">
            <mask id="mask-12" fill="white">
                <use xlink:href="#path-11"></use>
            </mask>
            <g id="Clip-266"></g>
            <path d="M89.3744659,56.50914 L88.3293252,56.50914 C86.2197183,56.50914 84.7807564,54.2321915 85.5725771,52.1466012 L88.8521567,43.50914 L92.1317363,52.1466012 C92.9235571,54.2321915 91.4840729,56.50914 89.3744659,56.50914" id="Fill-267" fill="#FFFFFE" mask="url(#mask-12)"></path>
            <path d="M88.35229,43.7783126 L85.0489523,51.9548904 C84.666567,52.9009318 84.7895367,53.9626487 85.3779946,54.7951868 C85.9395003,55.5907956 86.8188181,56.047524 87.7902229,56.047524 L88.9137957,56.047524 C89.8852004,56.047524 90.7645183,55.5907956 91.3260239,54.7951868 C91.9144818,53.9626487 92.0374516,52.9009318 91.6556277,51.9548904 L88.35229,43.7783126 Z M88.9137957,56.50914 L87.7902229,56.50914 C86.658789,56.50914 85.6357257,55.9796392 84.9832562,55.0558641 C84.3060803,54.0967889 84.1645809,52.874864 84.6036783,51.7870794 L88.35229,42.50914 L92.1003402,51.7870794 C92.5399991,52.874864 92.3979382,54.0967889 91.7207624,55.0558641 C91.0688543,55.9796392 90.045791,56.50914 88.9137957,56.50914 L88.9137957,56.50914 Z" id="Fill-268" fill="#5F605C" mask="url(#mask-12)"></path>
            <path d="M89.3747321,56.50914 L88.3292325,56.50914 C86.2196342,56.50914 84.7807338,54.4070596 85.5726081,52.4825103 L88.8522641,44.50914 L92.1319201,52.4825103 C92.9232308,54.4070596 91.4843303,56.50914 89.3747321,56.50914" id="Fill-269" fill="#FFFFFE" mask="url(#mask-12)"></path>
            <path d="M88.852148,44.7800991 L85.9886957,52.2914843 C85.6640831,53.1436492 85.7548691,54.0698179 86.2388849,54.8322813 C86.7229007,55.5947446 87.4966926,56.0320398 88.3623261,56.0320398 L89.341442,56.0320398 C90.2070756,56.0320398 90.9813953,55.5947446 91.4648833,54.8322813 C91.9488991,54.0698179 92.0402129,53.1436492 91.7150725,52.2914843 L88.852148,44.7800991 Z M89.341442,56.50914 L88.3623261,56.50914 C87.3599858,56.50914 86.4267907,55.9821433 85.8662402,55.0991435 C85.3062176,54.2161436 85.1964299,53.0993591 85.5727693,52.1120812 L88.852148,43.50914 L92.1315266,52.1120812 C92.5078661,53.0993591 92.3980784,54.2161436 91.8375279,55.0991435 C91.2769775,55.9821433 90.3437823,56.50914 89.341442,56.50914 L89.341442,56.50914 Z" id="Fill-270" fill="#5F605C" mask="url(#mask-12)"></path>
        </g>
        <path d="M114.67158,-0.2889 L114.67158,0.79164 C114.67158,2.9727 112.38414,4.4604 110.28948,3.6423 L101.61168,0.2511 L110.28948,-3.13956 C112.38414,-3.95766 114.67158,-2.46996 114.67158,-0.2889" id="Fill-272" fill="#FFFFFE"></path>
        <path d="M102,0.499786221 L109.997521,3.78217759 C110.922314,4.16213825 111.960781,4.03994826 112.775619,3.45522173 C113.553805,2.89727657 114,2.02353445 114,1.05828933 L114,-0.0581589381 C114,-1.02340406 113.553805,-1.89714618 112.775619,-2.45509134 C111.960781,-3.03981787 110.922314,-3.16200786 109.997521,-2.78260515 L102,0.499786221 Z M115,-0.561663656 L115,0.561909137 C115,1.69334301 114.469977,2.71640629 113.54678,3.36887585 C112.587742,4.04605165 111.365322,4.18755108 110.27758,3.74845366 L101,-0.0001580122 L110.27758,-3.74820818 C111.365322,-4.1878671 112.587742,-4.04580617 113.54678,-3.36863037 C114.469977,-2.71672232 115,-1.69365903 115,-0.561663656 L115,-0.561663656 Z" id="Fill-273" fill="#5F605C"></path>
        <path d="M114.77148,-0.24948 L114.77148,0.75222 C114.77148,2.77344 112.72596,4.15206 110.85216,3.39336 L103.09182,0.2511 L110.85216,-2.89116 C112.72596,-3.64932 114.77148,-2.2707 114.77148,-0.24948" id="Fill-274" fill="#FFFFFE"></path>
        <path d="M104,-0.000146744609 L111.342833,2.81184851 C112.176424,3.1306277 113.081262,3.04147319 113.827164,2.56615528 C114.572518,2.09083738 115,1.33095073 115,0.480872905 L115,-0.480648054 C115,-1.33072588 114.572518,-2.09113087 113.827164,-2.56593043 C113.081262,-3.04124834 112.176424,-3.13092119 111.342833,-2.81162366 L104,-0.000146744609 Z M115,0.010639098 L115,0.989738509 C115,1.99206184 114.472465,2.92524123 113.589504,3.48578224 C112.706542,4.04579543 111.589806,4.15558124 110.603131,3.77977597 L102,0.499924895 L110.603131,-2.77939836 C111.589806,-3.15573145 112.706542,-3.04594564 113.589504,-2.48540463 C114.472465,-1.92486362 115,-0.991684235 115,0.010639098 L115,0.010639098 Z" id="Fill-275" fill="#5F605C"></path>
        <path d="M118.06386,0.19008 L118.06386,0.31266 C118.06386,0.59076 117.83814,0.81594 117.56004,0.81594 L113.37558,0.81594 C113.09802,0.81594 112.8723,0.59076 112.8723,0.31266 L112.8723,0.19008 C112.8723,-0.08802 113.09802,-0.3132 113.37558,-0.3132 L117.56004,-0.3132 C117.83814,-0.3132 118.06386,-0.08802 118.06386,0.19008" id="Fill-276" fill="#FFFFFE"></path>
        <path d="M113,0.591458501 C113,0.816277196 113.129537,1 113.288747,1 L117.710682,1 C117.870463,1 118,0.816277196 118,0.591458501 L118,0.408541499 C118,0.182917002 117.870463,5.68434189e-14 117.710682,5.68434189e-14 L113.288747,5.68434189e-14 C113.129537,5.68434189e-14 113,0.182917002 113,0.408541499 L113,0.591458501 Z M118,-0.0768184908 L118,0.0774983005 C118,0.585995921 117.650803,1 117.22133,1 L112.778096,1 C112.349197,1 112,0.585995921 112,0.0774983005 L112,-0.0768184908 C112,-0.585995921 112.349197,-1 112.778096,-1 L117.22133,-1 C117.650803,-1 118,-0.585995921 118,-0.0768184908 L118,-0.0768184908 Z" id="Fill-277" fill="#5F605C"></path>
        <path d="M122.37738,0.06642 L122.37738,0.43578 C122.37738,0.95742 121.95456,1.38078 121.43292,1.38078 L115.84338,1.38078 L115.84338,-0.87804 L121.43292,-0.87804 C121.95456,-0.87804 122.37738,-0.45522 122.37738,0.06642" id="Fill-278" fill="#FFFFFE"></path>
        <g id="Group-289" transform="translate(6.916524, -1.107540)">
            <mask id="mask-14" fill="white">
                <use xlink:href="#path-13"></use>
            </mask>
            <g id="Clip-280"></g>
            <path d="M108.543405,2.60028786 L113.907982,2.60028786 C114.302516,2.60028786 114.623547,2.24622468 114.623547,1.81109653 L114.623547,1.40338741 C114.623547,0.968259253 114.302516,0.614792136 113.907982,0.614792136 L108.543405,0.614792136 L108.543405,2.60028786 Z M115.083476,1.40338741 L115.083476,1.81109653 C115.083476,2.52577962 114.55599,3.10754 113.907982,3.10754 L108.083476,3.10754 L108.083476,0.10754 L113.907982,0.10754 C114.55599,0.10754 115.083476,0.688704316 115.083476,1.40338741 L115.083476,1.40338741 Z" id="Fill-279" fill="#5F605C" mask="url(#mask-14)"></path>
        </g>
        <path d="M58.1919,24.65046 C58.16976,24.5889 58.11144,24.54732 58.04556,24.54732 L57.89058,24.54732 L58.61472,21.01842 L57.9111,18.89352 L57.03144,18.89352 L56.8986,21.67452 C57.2091,21.74094 57.50016,22.01688 57.50016,22.34736 C57.50016,22.70052 57.1173,22.99104 56.77494,23.031 L56.64372,24.54732 L56.55462,24.54732 L56.4234,23.02884 C56.08806,22.9824 55.77108,22.69566 55.77108,22.34736 C55.77108,22.02228 55.9968,21.75012 56.29974,21.67776 L56.16636,18.89352 L55.28724,18.89352 L54.58362,21.01842 L55.30776,24.54732 L55.15278,24.54732 C55.0869,24.54732 55.02804,24.5889 55.00644,24.65046 L55.10364,24.87348 C55.07394,24.95718 55.13604,25.0452 55.22514,25.0452 L57.91434,25.0452 C58.00344,25.0452 58.06554,24.95718 58.03638,24.87348 L58.1919,24.65046" id="Fill-298" fill="#FFFFFE"></path>
        <path d="M55.5709947,25 L58.3470008,25 L58.3773728,24.9590211 L58.1362187,24.9590211 L59,21.0125213 L58.2892938,19 L57.7328778,19 L57.6041002,21.5173591 C57.9564161,21.6624929 58.2722855,21.9823563 58.2722855,22.3984064 C58.2722855,22.8343768 57.8719818,23.1906659 57.4388762,23.3170176 L57.2876234,24.9590211 L56.7123766,24.9590211 L56.5605163,23.3101878 C56.1644647,23.1826978 55.8097191,22.8440524 55.8097191,22.3984064 C55.8097191,22.018782 56.042369,21.6835515 56.3958998,21.5258964 L56.2671222,19 L55.7107062,19 L55,21.0125213 L55.8637813,24.9590211 L55.552164,24.9590211 L55.5709947,25 Z M57.9596069,25 L54.9750689,25 C54.8462184,25 54.7245595,24.9399706 54.6502457,24.8393499 C54.5993048,24.7713166 54.5747333,24.6895622 54.5771305,24.6083796 L54.4584682,24.3482522 L54.4920292,24.2579222 C54.5363778,24.1378634 54.6364617,24.0463901 54.7587199,24.0075139 L54,20.4783567 L54.8600024,18 L56.2629749,18 L56.4325782,21.3810846 L56.2270167,21.4279647 C55.9968836,21.4805619 55.8356706,21.6743711 55.8356706,21.900196 C55.8356706,22.1477458 56.0963682,22.3484156 56.339686,22.3810029 L56.4961045,22.4015844 L56.6657078,22.3827181 C56.9282033,22.3529892 57.2452355,22.1311663 57.2452355,21.900196 C57.2452355,21.6663672 57.0031164,21.4714146 56.7783771,21.4251062 L56.5674218,21.3816563 L56.7370251,18 L58.1399976,18 L59,20.4783567 L58.2412801,24.0075139 C58.3635383,24.0463901 58.4636222,24.1378634 58.5079708,24.2579222 L58.55172,24.3756942 L58.3575452,24.640967 C58.3533501,24.7112872 58.3287786,24.7804639 58.2850294,24.8393499 C58.2101163,24.9399706 58.0890567,25 57.9596069,25 L57.9596069,25 Z" id="Fill-299" fill="#5F605C"></path>
        <path d="M100.50306,10.35018 C100.50306,10.50624 100.43988,10.66176 100.31568,10.77516 C99.051,11.92644 95.7084,12.69972 93.37938,12.69972 C90.3462,12.69972 89.03724,11.42802 88.15704,10.18386 C87.97398,9.9252 88.03554,9.56664 88.2942,9.38358 C88.5534,9.20052 88.91142,9.26154 89.09502,9.52074 C89.9574,10.73952 91.0158,11.55114 93.37938,11.55114 C95.62956,11.55114 98.6244,10.76112 99.54186,9.92574 C99.77676,9.7119 100.13964,9.72918 100.35348,9.96354 C100.45338,10.0737 100.50306,10.21194 100.50306,10.35018" id="Fill-306" fill="#5F605C"></path>
        <path d="M88.94814,9.69786 L88.94814,10.7055 C88.94814,10.93986 88.75806,11.12994 88.5237,11.12994 C88.28934,11.12994 88.09926,10.93986 88.09926,10.7055 L88.09926,9.69786 C88.09926,9.46296 88.28934,9.27288 88.5237,9.27288 C88.75806,9.27288 88.94814,9.46296 88.94814,9.69786" id="Fill-307" fill="#5F605C"></path>
        <path d="M100.50306,8.03034 C100.50306,8.16858 100.45338,8.30682 100.35348,8.41698 C100.13964,8.65134 99.77676,8.66862 99.54186,8.45478 C98.6244,7.6194 95.62956,6.82938 93.37938,6.82938 C91.0158,6.82938 89.95686,7.641 89.09502,8.85978 C88.91142,9.11898 88.5534,9.18 88.2942,8.99694 C88.03554,8.81388 87.97398,8.45532 88.15704,8.19666 C89.03724,6.9525 90.3462,5.6808 93.37938,5.6808 C95.7084,5.6808 99.051,6.45408 100.31568,7.60536 C100.43988,7.71876 100.50306,7.87428 100.50306,8.03034" id="Fill-308" fill="#5F605C"></path>
        <path d="M88.94814,8.68266 L88.94814,7.67502 C88.94814,7.44066 88.75806,7.25004 88.5237,7.25004 C88.28934,7.25004 88.09926,7.44066 88.09926,7.67502 L88.09926,8.68266 C88.09926,8.91702 88.28934,9.1071 88.5237,9.1071 C88.75806,9.1071 88.94814,8.91702 88.94814,8.68266" id="Fill-309" fill="#5F605C"></path>
        <path d="M87.4464,7.56648 C87.3843,7.58808 87.34272,7.64694 87.34272,7.71282 L87.34272,7.86726 L83.81436,7.14366 L81.68892,7.84728 L81.68892,8.7264 L84.46992,8.85978 C84.53688,8.54928 84.81282,8.25768 85.14276,8.25768 C85.49592,8.25768 85.78698,8.64108 85.82694,8.9829 L87.34272,9.11412 L87.34272,9.20376 L85.82478,9.33498 C85.77834,9.67032 85.49106,9.9873 85.14276,9.9873 C84.81768,9.9873 84.54606,9.76158 84.4737,9.4581 L81.68892,9.59148 L81.68892,10.47114 L83.81436,11.17476 L87.34272,10.45062 L87.34272,10.60506 C87.34272,10.67148 87.3843,10.7298 87.4464,10.75194 L87.66942,10.65474 C87.75312,10.68444 87.84114,10.62234 87.84114,10.53324 L87.84114,7.8435 C87.84114,7.75494 87.75312,7.69284 87.66942,7.722 L87.4464,7.56648" id="Fill-310" fill="#FFFFFE"></path>
        <path d="M88,10.4290053 L88,7.65299924 L87.9595864,7.62262718 L87.9595864,7.86378132 L84.0127123,7 L82,7.71070615 L82,8.26712225 L84.517598,8.39529233 C84.6621763,8.04297646 84.9826392,7.7277145 85.3981596,7.7277145 C85.8341713,7.7277145 86.1910635,8.12801822 86.3174272,8.56051632 L87.9595864,8.71237661 L87.9595864,9.28701595 L86.3100275,9.43948368 C86.1825254,9.83553531 85.8438478,10.1902809 85.3981596,10.1902809 C85.0184992,10.1902809 84.6838061,9.95763098 84.5255668,9.60349279 L82,9.73287775 L82,10.2892938 L84.0127123,11 L87.9595864,10.1362187 L87.9595864,10.447836 L88,10.4290053 Z M88,8.04026846 L88,11.0250479 C88,11.153883 87.9405374,11.2755273 87.8399085,11.3498322 C87.7718696,11.4001678 87.6901086,11.4253356 87.6083476,11.4229386 L87.348199,11.5415868 L87.2578616,11.5080297 C87.137793,11.4636865 87.0468839,11.3636146 87.0074328,11.241371 L83.4785592,12 L81,11.1401007 L81,9.73729626 L84.3813608,9.56771333 L84.4282447,9.77325024 C84.4802744,10.0033557 84.6746712,10.1645494 84.8999428,10.1645494 C85.1480846,10.1645494 85.3487707,9.90388303 85.380789,9.66059444 L85.4013722,9.50419463 L85.3825043,9.3346117 C85.3533448,9.07214765 85.1315037,8.7551534 84.8999428,8.7551534 C84.6660949,8.7551534 84.4716981,8.99724353 84.4253859,9.22135666 L84.3819325,9.43288591 L81,9.26330297 L81,7.85989933 L83.4785592,7 L87.0074328,7.75862895 C87.0468839,7.63698466 87.137793,7.53691275 87.2578616,7.49256951 L87.376215,7.4488255 L87.6415094,7.64297699 C87.7118353,7.64717162 87.7810177,7.67174017 87.8399085,7.71548418 C87.9405374,7.78978907 88,7.91143337 88,8.04026846 L88,8.04026846 Z" id="Fill-311" fill="#5F605C"></path>
        <g id="Group-335" transform="translate(61.168918, -44.054442)">
            <mask id="mask-16" fill="white">
                <use xlink:href="#path-15"></use>
            </mask>
            <g id="Clip-330"></g>
            <path d="M18.6866227,75.02464 C19.0747054,74.2469441 19.2654486,73.3918472 19.2654486,72.5299054 L19.2654486,69.3175001 C19.2654486,69.1137301 19.4375022,68.9483973 19.6507828,68.9473443 C19.7491777,68.9468177 19.8310818,68.8746821 19.8310818,68.7804319 L19.8310818,67.054442 L14.8310818,67.054442 L14.8310818,68.7756931 C14.8310818,68.8709963 14.9113369,68.9473443 15.0102815,68.9473443 C15.223562,68.9473443 15.3967151,69.1132036 15.3967151,69.3175001 L15.3967151,73.0037891 C15.3967151,73.1317377 15.5050044,73.2354656 15.6385796,73.2354656 L16.2817195,73.2354656 C16.516438,73.2354656 16.7159763,73.4013249 16.7462093,73.6240503 C16.8385576,74.2959121 16.8737379,75.7302002 15.8496614,77.054442 C17.3404266,77.0107394 18.2017942,75.9966282 18.6866227,75.02464" id="Fill-333" fill="#FFFFFE" mask="url(#mask-16)"></path>
            <path d="M15.258892,66.5255779 L15.258892,68.0474965 C15.5479529,68.0757314 15.7761854,68.3442402 15.7761854,68.6697724 L15.7761854,72.5457098 C15.7761854,72.5501388 15.7792017,72.5534606 15.7832234,72.5534606 L16.3713995,72.5534606 C16.6931369,72.5534606 16.9666137,72.8175403 17.008339,73.1674321 C17.0354856,73.3949725 17.0495616,73.6313709 17.0495616,73.8688765 C17.0495616,74.5586949 16.9309209,75.5402742 16.4080977,76.5135492 C17.2375769,76.3253162 17.8986467,75.6731445 18.3777337,74.5692138 C18.7105308,73.8024414 18.886481,72.93048 18.886481,72.0474462 L18.886481,68.6697724 C18.886481,68.3442402 19.1142107,68.0757314 19.4032716,68.0474965 L19.4032716,66.5255779 L15.258892,66.5255779 Z M14.8310818,68.100091 L14.8310818,66.054442 L19.8310818,66.054442 L19.8310818,68.1050736 C19.8310818,68.3309531 19.661667,68.5153107 19.4530404,68.5164179 C19.376125,68.5164179 19.3137884,68.5856212 19.3137884,68.6697724 L19.3137884,72.0474462 C19.3137884,73.000237 19.1237623,73.9425088 18.7638186,74.7723946 C18.1374361,76.2156982 17.175743,77.0001866 15.9828011,77.0400477 L15.5419203,77.054442 L15.8043374,76.6641355 C16.4799859,75.6604111 16.6217514,74.5902516 16.6217514,73.8688765 C16.6217514,73.6513014 16.6091836,73.4359408 16.5845505,73.228331 C16.5704745,73.1120695 16.4789805,73.0245965 16.3713995,73.0245965 L15.7832234,73.0245965 C15.5434285,73.0245965 15.3483752,72.8097895 15.3483752,72.5457098 L15.3483752,68.6697724 C15.3483752,68.5850676 15.2855359,68.5164179 15.2086205,68.5164179 C15.0004967,68.5164179 14.8310818,68.3298459 14.8310818,68.100091 L14.8310818,68.100091 Z" id="Fill-334" fill="#5F605C" mask="url(#mask-16)"></path>
        </g>
        <path d="M88.53882,23.10714 L88.53882,23.10714 C88.53882,23.05206 88.49454,23.00724 88.43946,23.00724 L87.49716,23.00724 C87.4464,23.00724 87.4059,23.04558 87.39834,23.09526 C87.31086,23.66604 86.81838,24.10344 86.22276,24.10344 L85.98462,24.10344 C85.389,24.10344 84.89652,23.66604 84.80904,23.09526 C84.80094,23.04558 84.76044,23.00724 84.71022,23.00724 L83.76792,23.00724 C83.71284,23.00724 83.66856,23.05206 83.66856,23.10714 C83.66856,24.38478 84.70428,25.4205 85.98192,25.4205 L86.22546,25.4205 C87.5031,25.4205 88.53882,24.38478 88.53882,23.10714" id="Fill-336" fill="#FFFFFE"></path>
        <path d="M84.7947995,23 L84,23 C84.0760456,24.1144279 85.1063412,25 86.3617073,25 L86.6382927,25 C87.8936588,25 88.9239544,24.1144279 89,23 L88.2052005,23 C88.036551,23.6561636 87.3950693,24.1216142 86.6352263,24.1216142 L86.3647737,24.1216142 C85.6049307,24.1216142 84.963449,23.6561636 84.7947995,23 Z M84,23.343985 C84,23.1539474 84.1387904,23 84.3089859,23 L85.1928883,23 C85.3453551,23 85.4740148,23.1234962 85.4983284,23.293797 C85.566204,23.787218 85.9405329,24.1441729 86.3883092,24.1441729 L86.6116908,24.1441729 C87.0589606,24.1441729 87.4332894,23.787218 87.5016716,23.2949248 C87.5249721,23.1240602 87.6536319,23 87.8071117,23 L88.6910141,23 C88.8612096,23 89,23.1539474 89,23.343985 C89,24.8084586 87.929693,26 86.6142235,26 L86.3857765,26 C85.070307,26 84,24.8084586 84,23.343985 L84,23.343985 Z" id="Fill-337" fill="#5F605C"></path>
        <path d="M79.98954,17.57538 L79.98954,17.57538 C80.37618,16.40898 81.63492,15.11244 82.80132,15.49908 L90.0519,18.56466 C91.21884,18.9513 91.85118,20.21004 91.46454,21.37644 C91.07844,22.54284 89.8197,23.17572 88.65276,22.78908 L81.40218,20.38716 C80.23578,20.00106 79.60344,18.74232 79.98954,17.57538" id="Fill-338" fill="#FFFFFE"></path>
        <g id="Group-343" transform="translate(79.646640, 15.028740)">
            <mask id="mask-18" fill="white">
                <use xlink:href="#path-17"></use>
            </mask>
            <g id="Clip-340"></g>
            <path d="M0.910173641,2.42976733 L0.906976624,2.43956948 C0.840372122,2.64541483 0.806803453,2.85833951 0.806803453,3.07235332 C0.806803453,3.94147811 1.34923052,4.70931392 2.15700993,4.98268525 L9.31139916,7.40436315 C9.81066651,7.57372268 10.3445682,7.53396948 10.8139967,7.29272745 C11.2839581,7.05148542 11.6340314,6.63761647 11.7992105,6.12735963 C11.865815,5.92151428 11.8999165,5.7085896 11.8999165,5.49403122 C11.8999165,4.625451 11.3569566,3.85761519 10.5497101,3.58424386 L10.5326593,3.57770909 L3.38679546,0.489484355 C2.37121001,0.154577246 1.24586033,1.40925363 0.910173641,2.42976733 Z M0.35336,3.07235332 C0.35336,2.82130913 0.390658521,2.57189863 0.465255564,2.3306566 L0.465255564,2.32956747 L0.476445121,2.29362622 C0.686382512,1.64668371 1.12330805,0.996473815 1.64602018,0.554287519 C2.26677415,0.0282383047 2.93868037,-0.149834255 3.53758805,0.0527437029 L3.55463881,0.0592784758 L10.7010355,3.14750321 C11.6894463,3.48676683 12.35336,4.42831869 12.35336,5.49403122 C12.35336,5.75814496 12.3117988,6.02008044 12.229742,6.27275832 C12.0261987,6.90064108 11.5956672,7.4098088 11.0175401,7.7065964 C10.439413,8.003384 9.78295904,8.05239479 9.16859911,7.84437119 L2.01474271,5.42214872 C1.02100353,5.08615249 0.35336,4.14187781 0.35336,3.07235332 L0.35336,3.07235332 Z" id="Fill-339" fill="#5F605C" mask="url(#mask-18)"></path>
            <path d="M6.35336,13.7138517 L6.35336,3.22866834 C6.35336,1.42919571 7.92044716,-0.02874 9.85336,-0.02874 C11.7862728,-0.02874 13.35336,1.42919571 13.35336,3.22866834 L13.35336,13.7138517 C13.35336,15.5127906 11.7862728,16.97126 9.85336,16.97126 C7.92044716,16.97126 6.35336,15.5127906 6.35336,13.7138517" id="Fill-341" fill="#FFFFFE" mask="url(#mask-18)"></path>
            <path d="M13.8971646,3.56498611 C13.8971646,1.84186874 12.5317947,0.439600111 10.85336,0.439600111 C9.17492532,0.439600111 7.80955544,1.84186874 7.80955544,3.56498611 L7.80955544,14.3780842 C7.80955544,16.1012016 9.17492532,17.5029199 10.85336,17.5029199 C12.5317947,17.5029199 13.8971646,16.1012016 13.8971646,14.3780842 L13.8971646,3.56498611 Z M7.35336,14.3780842 L7.35336,3.56498611 C7.35336,1.58320851 8.92350857,-0.02874 10.85336,-0.02874 C12.7832114,-0.02874 14.35336,1.58320851 14.35336,3.56498611 L14.35336,14.3780842 C14.35336,16.3593115 12.7832114,17.97126 10.85336,17.97126 C8.92350857,17.97126 7.35336,16.3593115 7.35336,14.3780842 L7.35336,14.3780842 Z" id="Fill-342" fill="#5F605C" mask="url(#mask-18)"></path>
        </g>
        <path d="M89.14308,21.75984 L89.14308,19.15164 C89.14308,18.70452 89.50542,18.34164 89.95308,18.34164 C90.40074,18.34164 90.76308,18.70452 90.76308,19.15164 L90.76308,21.75984 C90.76308,22.2075 90.40074,22.56984 89.95308,22.56984 C89.50542,22.56984 89.14308,22.2075 89.14308,21.75984" id="Fill-344" fill="#FFFFFE"></path>
        <g id="Group-353" transform="translate(-1.468380, -66.265452)">
            <mask id="mask-20" fill="white">
                <use xlink:href="#path-19"></use>
            </mask>
            <g id="Clip-346"></g>
            <path d="M92.0265316,85.3746434 C92.0265316,85.0331323 91.776272,84.7555464 91.46838,84.7555464 C91.160488,84.7555464 90.9102284,85.0331323 90.9102284,85.3746434 L90.9102284,88.1562606 C90.9102284,88.4977717 91.160488,88.7753576 91.46838,88.7753576 C91.776272,88.7753576 92.0265316,88.4977717 92.0265316,88.1562606 L92.0265316,85.3746434 Z M90.46838,88.1562606 L90.46838,85.3746434 C90.46838,84.7630332 90.9169781,84.265452 91.46838,84.265452 C92.0197819,84.265452 92.46838,84.7630332 92.46838,85.3746434 L92.46838,88.1562606 C92.46838,88.7678708 92.0197819,89.265452 91.46838,89.265452 C90.9169781,89.265452 90.46838,88.7678708 90.46838,88.1562606 L90.46838,88.1562606 Z" id="Fill-345" fill="#5F605C" mask="url(#mask-20)"></path>
        </g>
        <path d="M5.175132,17.81298 L5.175132,8.04978 L5.222922,8.05734 C7.921626,8.49258 10.659912,8.63784 13.39026,8.4915 L13.39026,17.37126 C10.659912,17.22438 7.921626,17.37018 5.222922,17.80488 L5.175132,17.81298" id="Fill-360" fill="#FFFFFE"></path>
        <path d="M5,8 L5,17 C7.64111848,16.6122461 10.3296942,16.4768483 13,16.5964409 L13,8.40408593 C10.3291929,8.52367851 7.64045006,8.38828075 5,8 Z M5,18 L5,8 L5.32545443,8.04873958 C8.10355453,8.46800482 10.9375125,8.60845868 13.7488359,8.46748074 L14,8.45490278 L14,17.543525 L13.7488359,17.530947 C10.9375685,17.389445 8.10366658,17.5304229 5.32579059,17.9491641 L5,18 L5,18 Z" id="Fill-361" fill="#5F605C"></path>
        <path d="M14.885574,15.9543 L14.885574,15.28254 C14.885574,14.56866 15.4644,13.98978 16.178442,13.98978 L21.450084,14.31486 C22.26462,14.38074 22.961976,13.7376 22.961976,12.92058 C22.961976,12.10302 22.26462,11.45988 21.450084,11.5263 L16.178442,11.85138 C15.4644,11.85138 14.885574,11.2725 14.885574,10.55808 L14.885574,9.88686 C14.885574,9.07632 14.228502,8.41968 13.418232,8.41968 L13.244406,8.41968 L13.244406,17.42148 L13.418232,17.42148 C14.228502,17.42148 14.885574,16.7643 14.885574,15.9543" id="Fill-362" fill="#FFFFFE"></path>
        <path d="M14,9 L14,17 C14.6383802,16.9726824 15.1488323,16.4637663 15.1488323,15.8420387 L15.1488323,15.2127229 C15.1488323,14.4260782 15.8128295,13.7861389 16.6289546,13.7861389 L16.6426555,13.7866447 L21.7672822,14.091185 C22.0915905,14.1164791 22.3978407,14.014797 22.633854,13.8053623 C22.8699722,13.5954218 23,13.3095991 23,13 C23,12.6904009 22.8699722,12.4045782 22.633959,12.1946377 C22.3979457,11.985203 22.0916954,11.883015 21.7715867,11.9083091 L16.6357788,12.2133553 L16.6289546,12.2133553 C15.8128295,12.2133553 15.1488323,11.573416 15.1488323,10.7867712 L15.1488323,10.1579613 C15.1488323,9.53623372 14.6383802,9.02731757 14,9 Z M13,17 L13,8 L13.3965235,8 C14.3160143,8 15.0640656,8.72427373 15.0640656,9.61446264 L15.0640656,10.2529536 C15.0640656,10.8087438 15.5291967,11.2607728 16.1020943,11.2643685 L21.2747807,10.9556532 C21.7144957,10.9212374 22.1570229,11.0686605 22.4846203,11.361452 C22.8121117,11.6537298 23,12.0687746 23,12.5002568 C23,12.9317391 22.8121117,13.3467839 22.4845142,13.6390617 C22.1569167,13.9313395 21.7143896,14.0792763 21.2704297,14.0443468 L16.1020943,13.7356315 C15.5291967,13.7392272 15.0640656,14.1917699 15.0640656,14.7470464 L15.0640656,15.386051 C15.0640656,16.2757263 14.3160143,17 13.3965235,17 L13,17 L13,17 Z" id="Fill-363" fill="#5F605C"></path>
        <path d="M21.689466,13.38822 C21.43707,13.38822 21.232572,13.1841 21.232572,12.93138 C21.232572,12.6792 21.43707,12.47454 21.689466,12.47454 C21.941862,12.47454 22.14636,12.6792 22.14636,12.93138 C22.14636,13.1841 21.941862,13.38822 21.689466,13.38822" id="Fill-364" fill="#FFFFFE"></path>
        <path d="M22,12.5 C22,12.2244656 21.7757309,12 21.5,12 C21.2242691,12 21,12.2244656 21,12.5 C21,12.7755344 21.2242691,13 21.5,13 C21.7757309,13 22,12.7755344 22,12.5 Z M21,13 C21,12.4488994 21.4486474,12 22.0000786,12 C22.5515099,12 23,12.4488994 23,13 C23,13.5511006 22.5515099,14 22.0000786,14 C21.4486474,14 21,13.5511006 21,13 L21,13 Z" id="Fill-365" fill="#5F605C"></path>
        <path d="M103.95744,5.52474 L113.72064,5.52474 L113.71254,5.57226 C113.27784,8.27118 113.13204,11.00952 113.27892,13.73976 L104.39916,13.73976 C104.5455,11.00952 104.40024,8.27118 103.965,5.57226 L103.95744,5.52474" id="Fill-372" fill="#FFFFFE"></path>
        <path d="M113,6 L104,6 C104.387754,8.64141484 104.523152,11.3296198 104.403559,14 L112.595914,14 C112.476321,11.3290628 112.611719,8.64030079 113,6 Z M104,5 L114,5 L113.951782,5.32551046 C113.532495,8.10383466 113.391509,10.9376245 113.533019,13.749004 L113.545597,14 L104.456499,14 L104.469078,13.749004 C104.610063,10.9376245 104.469602,8.10383466 104.050314,5.32607072 L104,5 L104,5 Z" id="Fill-373" fill="#5F605C"></path>
        <path d="M105.81612,15.23502 L106.48734,15.23502 C107.20176,15.23502 107.78064,15.8139 107.78064,16.52778 L107.45556,21.79926 C107.38914,22.61412 108.03282,23.31126 108.84984,23.31126 C109.66686,23.31126 110.31,22.61412 110.24412,21.79926 L109.91904,16.52778 C109.91904,15.8139 110.49792,15.23502 111.2118,15.23502 L111.88356,15.23502 C112.6941,15.23502 113.35074,14.57784 113.35074,13.76784 L113.35074,13.59396 L104.34894,13.59396 L104.34894,13.76784 C104.34894,14.57784 105.00612,15.23502 105.81612,15.23502" id="Fill-374" fill="#FFFFFE"></path>
        <path d="M113,14 L105,14 C105.027318,14.6383202 105.536234,15.1490814 106.157961,15.1490814 L106.786771,15.1490814 C107.573416,15.1490814 108.213355,15.8125984 108.213355,16.6288714 L108.212849,16.6425197 L107.908815,21.7674541 C107.883521,22.0913386 107.985203,22.3979003 108.194638,22.6335958 C108.404578,22.8698163 108.690401,23 109,23 C109.309599,23 109.595422,22.8698163 109.805362,22.6335958 C110.014797,22.3979003 110.116479,22.0913386 110.091691,21.7716535 L109.786645,16.6356955 L109.786645,16.6288714 C109.786645,15.8125984 110.426584,15.1490814 111.212723,15.1490814 L111.842039,15.1490814 C112.463766,15.1490814 112.972682,14.6383202 113,14 Z M104,14 L113,14 L113,14.3968801 C113,15.3163899 112.276199,16.063989 111.385959,16.063989 L110.746918,16.063989 C110.19161,16.063989 109.739041,16.529315 109.735445,17.1023505 L110.044178,22.2745264 C110.07911,22.7143843 109.931164,23.156895 109.63887,23.4842681 C109.346575,23.8116411 108.931507,24 108.5,24 C108.068493,24 107.653425,23.8116411 107.36113,23.4842681 C107.068836,23.156895 106.92089,22.7143843 106.955822,22.2702817 L107.264041,17.1023505 C107.260959,16.529315 106.80839,16.063989 106.252568,16.063989 L105.614041,16.063989 C104.723801,16.063989 104,15.3163899 104,14.3968801 L104,14 L104,14 Z" id="Fill-375" fill="#5F605C"></path>
        <path d="M108.3822,22.03902 C108.3822,21.7863 108.58632,21.58218 108.83904,21.58218 C109.09122,21.58218 109.29588,21.7863 109.29588,22.03902 C109.29588,22.2912 109.09122,22.49586 108.83904,22.49586 C108.58632,22.49586 108.3822,22.2912 108.3822,22.03902" id="Fill-376" fill="#FFFFFE"></path>
        <path d="M108.5,23 C108.775534,23 109,22.7764566 109,22.5005945 C109,22.2247325 108.775534,22 108.5,22 C108.224466,22 108,22.2247325 108,22.5005945 C108,22.7764566 108.224466,23 108.5,23 Z M109.000393,21 C109.551711,21 110,21.4490759 110,22.0003932 C110,22.5517106 109.551711,23 109.000393,23 C108.448289,23 108,22.5517106 108,22.0003932 C108,21.4490759 108.448289,21 109.000393,21 L109.000393,21 Z" id="Fill-377" fill="#5F605C"></path>
        <path d="M48.265188,1.7064 L48.265188,1.7064 C48.64983,1.7064 48.961626,2.01798 48.961626,2.403 L48.961626,22.08654 C48.961626,22.47102 48.64983,22.78314 48.265188,22.78314 C47.880546,22.78314 47.568696,22.47102 47.568696,22.08654 L47.568696,2.403 C47.568696,2.01798 47.880546,1.7064 48.265188,1.7064" id="Fill-396" fill="#FFFFFE"></path>
        <path d="M48.5000289,23 C48.7756696,23 49,22.7865842 49,22.5247649 L49,2.47523508 C49,2.21286571 48.7756696,2 48.5000289,2 C48.2243304,2 48,2.21286571 48,2.47523508 L48,22.5247649 C48,22.7865842 48.2243304,23 48.5000289,23 Z M48,2 C48.5514226,2 49,2.40492967 49,2.90306161 L49,22.0969384 C49,22.5950703 48.5514226,23 48,23 C47.4486357,23 47,22.5950703 47,22.0969384 L47,2.90306161 C47,2.40492967 47.4486357,2 48,2 L48,2 Z" id="Fill-397" fill="#5F605C"></path>
        <path d="M44.535732,17.62992 L51.994644,17.62992 C52.443492,17.62992 52.80756,17.99334 52.80756,18.44262 L52.80756,21.48012 C52.80756,21.92886 52.443492,22.29282 51.994644,22.29282 L44.535732,22.29282 C44.086992,22.29282 43.723086,21.92886 43.723086,21.48012 L43.723086,18.44262 C43.723086,17.99334 44.086992,17.62992 44.535732,17.62992" id="Fill-398" fill="#FFFFFE"></path>
        <g id="Group-407" transform="translate(43.493424, -37.234782)">
            <mask id="mask-22" fill="white">
                <use xlink:href="#path-21"></use>
            </mask>
            <g id="Clip-400"></g>
            <path d="M8.41431305,58.7862735 C8.75109035,58.7862735 9.02506141,58.5306606 9.02506141,58.2170736 L9.02506141,55.2524904 C9.02506141,54.9383764 8.75109035,54.6832905 8.41431305,54.6832905 L0.598725784,54.6832905 C0.261891898,54.6832905 -0.0120791541,54.9383764 -0.0120791541,55.2524904 L-0.0120791541,58.2170736 C-0.0120791541,58.5306606 0.261891898,58.7862735 0.598725784,58.7862735 L8.41431305,58.7862735 Z M0.598725784,54.234782 L8.41431305,54.234782 C9.01657408,54.234782 9.506576,54.691196 9.506576,55.2524904 L9.506576,58.2170736 C9.506576,58.778368 9.01657408,59.234782 8.41431305,59.234782 L0.598725784,59.234782 C-0.00353524062,59.234782 -0.493424,58.778368 -0.493424,58.2170736 L-0.493424,55.2524904 C-0.493424,54.691196 -0.00353524062,54.234782 0.598725784,54.234782 L0.598725784,54.234782 Z" id="Fill-399" fill="#5F605C" mask="url(#mask-22)"></path>
        </g>
        <path d="M122.65224,15.17076 L122.65224,15.17076 C122.65224,15.22584 122.60796,15.27012 122.55288,15.27012 L121.61058,15.27012 C121.55982,15.27012 121.51932,15.23232 121.51176,15.18264 C121.42428,14.61186 120.9318,14.17446 120.33618,14.17446 L120.09804,14.17446 C119.50242,14.17446 119.00994,14.61186 118.92246,15.18264 C118.91436,15.23232 118.87386,15.27012 118.82364,15.27012 L117.88134,15.27012 C117.82626,15.27012 117.78198,15.22584 117.78198,15.17076 C117.78198,13.89312 118.8177,12.8574 120.09534,12.8574 L120.33888,12.8574 C121.61652,12.8574 122.65224,13.89312 122.65224,15.17076" id="Fill-408" fill="#FFFFFE"></path>
        <path d="M120.364774,13.8783858 L120.635226,13.8783858 C121.395069,13.8783858 122.036551,14.3438364 122.205201,15 L123,15 C122.923954,13.8855721 121.893659,13 120.638293,13 L120.361707,13 C119.106341,13 118.076046,13.8855721 118,15 L118.794799,15 C118.963449,14.3438364 119.604931,13.8783858 120.364774,13.8783858 Z M120.385777,13 L120.614223,13 C121.929693,13 123,14.1915414 123,15.656015 C123,15.8454887 122.86121,16 122.691014,16 L121.807112,16 C121.653632,16 121.524972,15.8759398 121.501672,15.7050752 C121.433289,15.212782 121.059467,14.8552632 120.611691,14.8552632 L120.388309,14.8552632 C119.940533,14.8552632 119.566204,15.212782 119.498328,15.706203 C119.474015,15.8765038 119.345355,16 119.192888,16 L118.308986,16 C118.13879,16 118,15.8454887 118,15.656015 C118,14.1915414 119.070307,13 120.385777,13 L120.385777,13 Z" id="Fill-409" fill="#5F605C"></path>
        <path d="M114.10296,20.70198 L114.10296,20.70252 C114.4896,21.86838 115.74834,23.16492 116.91474,22.77882 L124.16586,19.7127 C125.33226,19.3266 125.9646,18.06732 125.57796,16.90092 C125.19186,15.73452 123.93312,15.10218 122.76618,15.48882 L115.5156,17.8902 C114.3492,18.27684 113.71686,19.53558 114.10296,20.70198" id="Fill-410" fill="#FFFFFE"></path>
        <path d="M116.558336,22.9452791 L123.644219,19.8889815 L123.661127,19.8825143 C124.461598,19.6119692 125,18.8526105 125,17.99301 C125,17.7806698 124.966185,17.5699464 124.900139,17.3662292 C124.736347,16.8612475 124.389212,16.4516573 123.923724,16.2129093 C123.457707,15.9741614 122.928287,15.9348191 122.43321,16.1018888 L115.338873,18.4990695 C114.537874,18.7696146 114,19.5295122 114,20.3891127 C114,20.6014529 114.033287,20.8121763 114.099332,21.0158936 L114.102503,21.0255944 C114.435372,22.0355576 115.551275,23.2767238 116.558336,22.9452791 Z M115.661383,17.5485667 L122.815239,15.1268888 C123.429599,14.9188652 124.086053,14.967876 124.664713,15.2646636 C125.24284,15.5614512 125.672839,16.0706189 125.876382,16.6979571 C125.958439,16.9511796 126,17.213115 126,17.4772288 C126,18.5429413 125.336086,19.4844932 124.347676,19.8237568 L117.201279,22.9119815 L117.184228,22.9185163 C116.58532,23.1210943 115.913414,22.9430217 115.29266,22.4169725 C114.769948,21.9747862 114.333023,21.3240317 114.123618,20.6770892 L114.111896,20.6416925 L114.111896,20.6406034 C114.037299,20.3993614 114,20.1499509 114,19.8983621 C114,18.8293822 114.667644,17.8851075 115.661383,17.5485667 L115.661383,17.5485667 Z" id="Fill-411" fill="#5F605C"></path>
        <path d="M120.77034,9.11304 L120.77034,19.72296 C120.77034,21.5433 122.24616,23.01912 124.0665,23.01912 C125.88684,23.01912 127.36266,21.5433 127.36266,19.72296 L127.36266,9.11304 C127.36266,7.2927 125.88684,5.81688 124.0665,5.81688 C122.24616,5.81688 120.77034,7.2927 120.77034,9.11304" id="Fill-412" fill="#FFFFFE"></path>
        <path d="M127,9.1137881 C127,7.39706499 125.65428,6 124,6 C122.34572,6 121,7.39706499 121,9.1137881 L121,19.8867602 C121,21.6034833 122.34572,23 124,23 C125.65428,23 127,21.6034833 127,19.8867602 L127,9.1137881 Z M124.5,5 C126.429851,5 128,6.61194851 128,8.59372611 L128,19.4068242 C128,21.3880515 126.429851,23 124.5,23 C122.570149,23 121,21.3880515 121,19.4068242 L121,8.59372611 C121,6.61194851 122.570149,5 124.5,5 L124.5,5 Z" id="Fill-413" fill="#5F605C"></path>
        <path d="M123.2565,16.51806 L123.2565,19.12626 C123.2565,19.57338 123.61884,19.93626 124.0665,19.93626 C124.51416,19.93626 124.8765,19.57338 124.8765,19.12626 L124.8765,16.51806 C124.8765,16.0704 124.51416,15.70752 124.0665,15.70752 C123.61884,15.70752 123.2565,16.0704 123.2565,16.51806" id="Fill-414" fill="#FFFFFE"></path>
        <path d="M124,16.6160458 C124,16.2762178 123.775814,16 123.5,16 C123.224186,16 123,16.2762178 123,16.6160458 L123,19.3839542 C123,19.7232092 123.224186,20 123.5,20 C123.775814,20 124,19.7232092 124,19.3839542 L124,16.6160458 Z M124,15 C124.551402,15 125,15.4976385 125,16.1093192 L125,18.8912568 C125,19.5023615 124.551402,20 124,20 C123.448598,20 123,19.5023615 123,18.8912568 L123,16.1093192 C123,15.4976385 123.448598,15 124,15 L124,15 Z" id="Fill-415" fill="#5F605C"></path>
        <path d="M123.6264,-5.07546 L123.6264,4.95342 C123.6264,5.21046 123.83484,5.41836 124.09134,5.41836 C124.34838,5.41836 124.55628,5.21046 124.55628,4.95342 L124.55628,-5.07546 C124.55628,-5.3325 124.34838,-5.5404 124.09134,-5.5404 C123.83484,-5.5404 123.6264,-5.3325 123.6264,-5.07546" id="Fill-416" fill="#FFFFFE"></path>
        <path d="M124,-4.75333025 C124,-4.88911176 123.774971,-5 123.499426,-5 C123.223881,-5 123,-4.88911176 123,-4.75333025 L123,5.753896 C123,5.88967752 123.223881,6 123.499426,6 C123.774971,6 124,5.88967752 124,5.753896 L124,-4.75333025 Z M124,-6 C124.551322,-6 125,-5.69983448 125,-5.33048002 L125,4.33100024 C125,4.69983448 124.551322,5 124,5 C123.448678,5 123,4.69983448 123,4.33100024 L123,-5.33048002 C123,-5.69983448 123.448678,-6 124,-6 L124,-6 Z" id="Fill-417" fill="#5F605C"></path>
        <path d="M121.6338,4.89888 L121.6338,6.51348 C121.6338,6.88716 121.93674,7.18956 122.30988,7.18956 L125.60712,7.18956 C125.9808,7.18956 126.2832,6.88716 126.2832,6.51348 L126.2832,4.89888 C126.2832,4.52574 125.9808,4.2228 125.60712,4.2228 L122.30988,4.2228 C121.93674,4.2228 121.6338,4.52574 121.6338,4.89888" id="Fill-418" fill="#FFFFFE"></path>
        <path d="M126,5.35615848 C126,5.15977606 125.808738,5 125.573656,5 L122.425828,5 C122.190746,5 122,5.15977606 122,5.35615848 L122,6.64384152 C122,6.84022394 122.190746,7 122.425828,7 L125.573656,7 C125.808738,7 126,6.84022394 126,6.64384152 L126,5.35615848 Z M122.886364,4 L126.113636,4 C126.602537,4 127,4.35555556 127,4.7929078 L127,6.20661939 C127,6.64397163 126.602537,7 126.113636,7 L122.886364,7 C122.397463,7 122,6.64397163 122,6.20661939 L122,4.7929078 C122,4.35555556 122.397463,4 122.886364,4 L122.886364,4 Z" id="Fill-419" fill="#5F605C"></path>
        <g id="Group-448" transform="translate(57.008760, -45.734814)">
            <mask id="mask-24" fill="white">
                <use xlink:href="#path-23"></use>
            </mask>
            <g id="Clip-432"></g>
            <path d="M75.9684122,53.734814 L77.0140678,53.734814 C79.1236599,53.734814 80.5626116,56.0117625 79.7707964,58.0968152 L76.49124,66.734814 L73.2116836,58.0968152 C72.4198684,56.0117625 73.8588201,53.734814 75.9684122,53.734814" id="Fill-438" fill="#FFFFFE" mask="url(#mask-24)"></path>
            <path d="M76.99124,66.4651476 L80.2947082,58.2888869 C80.6765471,57.3434253 80.5535725,56.2817496 79.9656529,55.4487007 C79.4035635,54.6531228 78.524211,54.1969552 77.5533294,54.1969552 L76.4291506,54.1969552 C75.458269,54.1969552 74.5789165,54.6531228 74.0168271,55.4487007 C73.4289075,56.2817496 73.3059329,57.3434253 73.6877718,58.2888869 L76.99124,66.4651476 Z M76.4291506,53.734814 L77.5533294,53.734814 C78.6848079,53.734814 79.7079116,54.2648373 80.3598454,55.1880336 C81.037048,56.1470716 81.1791145,57.369492 80.7394382,58.4572345 L76.99124,67.734814 L73.2430418,58.4572345 C72.8033655,57.369492 72.945432,56.1470716 73.6226346,55.1880336 C74.2745684,54.2648373 75.2976721,53.734814 76.4291506,53.734814 L76.4291506,53.734814 Z" id="Fill-439" fill="#5F605C" mask="url(#mask-24)"></path>
            <path d="M75.9686626,53.734814 L77.0136065,53.734814 C79.1232209,53.734814 80.5626959,55.8364368 79.7708156,57.7616298 L76.4911346,65.734814 L73.2114536,57.7616298 C72.4201369,55.8364368 73.8590483,53.734814 75.9686626,53.734814" id="Fill-440" fill="#FFFFFE" mask="url(#mask-24)"></path>
            <path d="M76.49124,65.4639097 L79.3547054,57.9528484 C79.6793194,57.1007202 79.5880052,56.1745915 79.104515,55.4116004 C78.620497,54.6491699 77.8467016,54.2118936 76.9805363,54.2118936 L76.0019437,54.2118936 C75.1363062,54.2118936 74.361983,54.6491699 73.877965,55.4116004 C73.3944748,56.1745915 73.3031606,57.1007202 73.6277746,57.9528484 L76.49124,65.4639097 Z M76.0019437,53.734814 L76.9805363,53.734814 C77.983409,53.734814 78.9166084,54.2623486 79.4766336,55.1453104 C80.0371866,56.0282721 80.1469748,57.1450085 79.7706336,58.1316832 L76.49124,66.734814 L73.2118464,58.1316832 C72.8355052,57.1450085 72.9452934,56.0282721 73.5058464,55.1453104 C74.0658716,54.2623486 74.999071,53.734814 76.0019437,53.734814 L76.0019437,53.734814 Z" id="Fill-441" fill="#5F605C" mask="url(#mask-24)"></path>
            <path d="M76.4367467,50.734814 L76.5457333,50.734814 C76.7914312,50.734814 76.99124,50.9522053 76.99124,51.2200439 L76.99124,55.2501042 C76.99124,55.5174227 76.7914312,55.734814 76.5457333,55.734814 L76.4367467,55.734814 C76.1910488,55.734814 75.99124,55.5174227 75.99124,55.2501042 L75.99124,51.2200439 C75.99124,50.9522053 76.1910488,50.734814 76.4367467,50.734814" id="Fill-442" fill="#FFFFFE" mask="url(#mask-24)"></path>
            <path d="M76.0687383,55.2468553 C76.2584052,55.2468553 76.412722,55.1166947 76.412722,54.9567177 L76.412722,50.5134837 C76.412722,50.3529333 76.2584052,50.2227727 76.0687383,50.2227727 L75.9137417,50.2227727 C75.7240748,50.2227727 75.569758,50.3529333 75.569758,50.5134837 L75.569758,54.9567177 C75.569758,55.1166947 75.7240748,55.2468553 75.9137417,55.2468553 L76.0687383,55.2468553 Z M75.9137417,49.734814 L76.0687383,49.734814 C76.5772359,49.734814 76.99124,50.0840112 76.99124,50.5134837 L76.99124,54.9567177 C76.99124,55.3856168 76.5772359,55.734814 76.0687383,55.734814 L75.9137417,55.734814 C75.4052441,55.734814 74.99124,55.3856168 74.99124,54.9567177 L74.99124,50.5134837 C74.99124,50.0840112 75.4052441,49.734814 75.9137417,49.734814 L75.9137417,49.734814 Z" id="Fill-443" fill="#5F605C" mask="url(#mask-24)"></path>
            <path d="M75.8276819,45.734814 L76.1547981,45.734814 C76.616778,45.734814 76.99124,46.1877892 76.99124,46.7466322 L76.99124,52.734814 L74.99124,52.734814 L74.99124,46.7466322 C74.99124,46.1877892 75.365702,45.734814 75.8276819,45.734814" id="Fill-444" fill="#FFFFFE" mask="url(#mask-24)"></path>
            <path d="M77.4840886,52.274885 L77.4840886,46.9103081 C77.4840886,46.5157745 77.1300958,46.194743 76.6950541,46.194743 L76.2874259,46.194743 C75.8523842,46.194743 75.4983914,46.5157745 75.4983914,46.9103081 L75.4983914,52.274885 L77.4840886,52.274885 Z M76.2874259,45.734814 L76.6950541,45.734814 C77.4095952,45.734814 77.99124,46.2623001 77.99124,46.9103081 L77.99124,52.734814 L74.99124,52.734814 L74.99124,46.9103081 C74.99124,46.2623001 75.5728848,45.734814 76.2874259,45.734814 L76.2874259,45.734814 Z" id="Fill-445" fill="#5F605C" mask="url(#mask-24)"></path>
        </g>
    </g>
</svg>