<svg width="41" height="36" viewBox="0 0 41 36" fill="none" xmlns="http://www.w3.org/2000/svg">
<path d="M13.9498 0.400024C18.1498 0.400024 21.5598 3.81002 21.5598 8.01002C21.5598 12.21 18.1498 15.62 13.9498 15.62C9.74984 15.62 6.33984 12.21 6.33984 8.01002C6.33984 3.81002 9.74984 0.400024 13.9498 0.400024Z" fill="#E9BE51"/>
<path d="M13.9498 15.62C18.1527 15.62 21.5598 12.2129 21.5598 8.01002C21.5598 3.80714 18.1527 0.400024 13.9498 0.400024C9.74696 0.400024 6.33984 3.80714 6.33984 8.01002C6.33984 12.2129 9.74696 15.62 13.9498 15.62Z" stroke="#111726" stroke-width="0.8" stroke-miterlimit="10"/>
<path d="M30.6188 4.21997C34.2888 4.21997 37.2688 7.19997 37.2688 10.87C37.2688 14.54 34.2888 17.52 30.6188 17.52C26.9488 17.52 23.9688 14.54 23.9688 10.87C23.9688 7.19997 26.9488 4.21997 30.6188 4.21997Z" fill="#02654D"/>
<path d="M30.6188 17.52C34.2915 17.52 37.2688 14.5427 37.2688 10.87C37.2688 7.19728 34.2915 4.21997 30.6188 4.21997C26.9461 4.21997 23.9688 7.19728 23.9688 10.87C23.9688 14.5427 26.9461 17.52 30.6188 17.52Z" stroke="#111726" stroke-width="0.8" stroke-miterlimit="10"/>
<path d="M21.0977 29.83C21.0977 23.89 25.3777 20.35 30.6177 20.35C35.8577 20.35 40.1377 23.84 40.1377 29.83V32.28H21.0977V29.83Z" fill="#02654D"/>
<path d="M21.0977 29.83C21.0977 23.89 25.3777 20.35 30.6177 20.35C35.8577 20.35 40.1377 23.84 40.1377 29.83V32.28H21.0977V29.83Z" stroke="#111726" stroke-width="0.8" stroke-miterlimit="10"/>
<path d="M0.438438 32.4001C0.438438 23.7101 6.58844 18.9301 13.9484 18.9301C21.3084 18.9301 27.4584 23.6701 27.4584 32.4001V35.5601H0.398438V32.4001H0.438438Z" fill="#E9BE51"/>
<path d="M0.438438 32.4001C0.438438 23.7101 6.58844 18.9301 13.9484 18.9301C21.3084 18.9301 27.4584 23.6701 27.4584 32.4001V35.5601H0.398438V32.4001H0.438438Z" stroke="#111726" stroke-width="0.8" stroke-miterlimit="10"/>
</svg>
