<svg width="100" height="100" viewBox="0 0 100 100" fill="none" xmlns="http://www.w3.org/2000/svg">
<g clip-path="url(#clip0_2897_3649)">
<path d="M93.3566 34.3574C92.9755 42.2478 90.8695 49.2878 80.6284 53.4958C76.4124 49.5967 73.6526 45.5011 71.8555 41.7464C69.0555 35.8858 68.6023 30.8515 68.6343 28.6733V28.4887C68.7667 25.6888 70.0985 24.9587 71.6509 24.5616C71.9598 24.4814 72.2807 24.4172 72.5976 24.349C74.2222 23.8636 82.5138 24.3771 93.3566 34.3574Z" fill="#434746" stroke="#101727" stroke-miterlimit="10"/>
<path d="M52.6923 53.2871H47.4053C45.9412 53.2871 44.7578 54.4705 44.7578 55.9306C44.7578 57.3908 45.9412 58.5781 47.4053 58.5781C48.8695 58.5781 48.9417 56.9254 50.0488 56.9254C51.156 56.9254 51.2322 58.5781 52.6923 58.5781C54.1525 58.5781 55.3399 57.3948 55.3399 55.9306C55.3399 54.4665 54.1565 53.2871 52.6923 53.2871Z" stroke="#101727" stroke-miterlimit="10"/>
<path d="M99.802 50.0016C99.802 69.8741 88.1609 87.0268 71.3291 95.0135L68.7899 83.1117C68.4369 81.2504 68.2043 79.2888 68.0639 77.2671C67.9074 74.9645 67.8713 72.5818 67.9315 70.191C68.2243 58.4336 70.7756 46.3914 71.8586 41.7462C73.6557 45.5008 76.4156 49.5965 80.6315 53.4956C90.8726 49.2876 92.9786 42.2476 93.3597 34.3572C82.5169 24.3769 74.2253 23.8634 72.6007 24.3488C72.2838 24.417 71.9629 24.4812 71.654 24.5614L71.638 24.2324C68.8501 22.1906 64.7545 19.1059 60.5144 19.1059C56.2744 19.1059 53.5948 20.0365 50.0487 20.193C46.5026 20.3454 46.4465 19.1059 41.356 19.1059C36.2655 19.1059 29.9476 22.8846 28.4594 24.2324C27.5408 23.723 26.4537 23.7872 25.3586 23.8514C23.6658 23.8072 15.7954 26.4748 7.93709 38.9382C10.368 46.4556 14.239 52.7013 25.2262 54.0852C27.0434 51.193 28.343 48.365 29.2536 45.6894C30.8421 52.1196 32.1699 60.8966 31.3516 69.4408C31.143 71.6311 30.794 73.8052 30.2685 75.9192C29.7149 78.1696 28.9648 80.3518 27.982 82.4177C26.7465 85.0131 24.8251 88.0818 22.5065 91.5276C9.06429 82.6062 0.203125 67.3389 0.203125 50.0016C0.203125 22.4955 22.4984 0.200195 50.0046 0.200195C77.5107 0.200195 99.802 22.4955 99.802 50.0016Z" fill="#A99E53" stroke="#101727" stroke-miterlimit="10"/>
<path d="M68.061 77.2676L67.8564 77.2837C56.1351 85.836 37.6185 80.8338 30.2656 75.9198C30.7911 73.8058 31.1401 71.6316 31.3487 69.4414C38.6976 74.3554 56.1351 78.7478 67.8564 70.1915H67.9286C67.8684 72.5823 67.9045 74.9651 68.061 77.2676Z" fill="#E8BD51" stroke="#101727" stroke-miterlimit="10"/>
<path d="M71.3305 95.0142C64.8681 98.0829 57.6356 99.7997 50.0059 99.7997C39.841 99.7997 30.3862 96.7551 22.5078 91.5283C24.8264 88.0825 26.7479 85.0138 27.9834 82.4184C28.9662 80.3525 29.7163 78.1703 30.2699 75.9199C37.6227 80.8339 56.1393 85.8361 67.8606 77.2838L68.0652 77.2677C68.2056 79.2895 68.4383 81.2511 68.7913 83.1124L71.3305 95.0142Z" fill="#434746" stroke="#101727" stroke-miterlimit="10"/>
<path d="M29.254 45.6896C28.3435 48.3652 27.0438 51.1932 25.2266 54.0854C14.2394 52.7015 10.3684 46.4557 7.9375 38.9384C15.7958 26.475 23.6662 23.8074 25.359 23.8515C26.4541 23.7873 27.5412 23.7232 28.4598 24.2326C29.1899 24.6378 29.8156 25.4039 30.2649 26.8119L30.3171 26.9884C31.0752 29.6319 32.2706 36.8444 29.254 45.6896Z" fill="#434746" stroke="#101727" stroke-miterlimit="10"/>
<path d="M68.6312 28.6736V28.4891C68.7636 25.6891 70.0954 24.9591 71.6478 24.5619L71.6318 24.233C68.8438 22.1912 64.7482 19.1064 60.5082 19.1064C56.2681 19.1064 53.5885 20.0371 50.0424 20.1935C46.4964 20.346 46.4402 19.1064 41.3497 19.1064C36.2593 19.1064 29.9414 22.8852 28.4531 24.233C29.1832 24.6382 29.809 25.4043 30.2583 26.8123L30.3104 26.9888C31.0686 29.6323 32.2639 36.8448 29.2474 45.6899C30.8359 52.1202 32.1637 60.8971 31.3453 69.4414C38.6942 74.3554 56.1317 78.7478 67.853 70.1915H67.9252C68.2181 58.4341 70.7693 46.3919 71.8524 41.7467C69.0524 35.8861 68.5991 30.8518 68.6312 28.6736ZM47.3989 53.2875H52.6859C54.1501 53.2875 55.3335 54.4709 55.3335 55.931C55.3335 57.3912 54.1501 58.5785 52.6859 58.5785C51.2218 58.5785 51.1496 56.9259 50.0424 56.9259C48.9353 56.9259 48.8591 58.5785 47.3989 58.5785C45.9388 58.5785 44.7514 57.3952 44.7514 55.931C44.7514 54.4669 45.9348 53.2875 47.3989 53.2875ZM40.6197 42.4528C38.9429 42.4528 37.5831 41.0929 37.5831 39.4161C37.5831 37.7394 38.9429 36.3835 40.6197 36.3835C42.2964 36.3835 43.6523 37.7394 43.6523 39.4161C43.6523 41.0929 42.2964 42.4528 40.6197 42.4528ZM56.4326 63.4965C51.631 68.7113 46.1995 66.5893 43.0385 63.4965V63.4604C45.9388 63.2558 47.6557 62.2851 50.0424 62.2851C52.4292 62.2851 53.8813 63.2518 56.4366 63.4604V63.4965H56.4326ZM59.4652 42.4528C57.7924 42.4528 56.4326 41.0929 56.4326 39.4161C56.4326 37.7394 57.7924 36.3835 59.4652 36.3835C61.138 36.3835 62.5018 37.7394 62.5018 39.4161C62.5018 41.0929 61.142 42.4528 59.4652 42.4528Z" fill="#434746" stroke="#101727" stroke-miterlimit="10"/>
<path d="M56.4371 63.4605V63.4966C51.6315 68.7114 46.2 66.5894 43.0391 63.4966V63.4605C45.9393 63.2559 47.6562 62.2852 50.043 62.2852C52.4297 62.2852 53.8819 63.2519 56.4371 63.4605Z" fill="#323A37" stroke="#101727" stroke-miterlimit="10"/>
<path d="M43.6552 39.4164C43.6552 41.0932 42.2993 42.453 40.6226 42.453C38.9458 42.453 37.5859 41.0932 37.5859 39.4164C37.5859 37.7396 38.9458 36.3838 40.6226 36.3838C42.2993 36.3838 43.6552 37.7396 43.6552 39.4164Z" fill="#9CA3AF" stroke="#101727" stroke-miterlimit="10"/>
<path d="M62.5067 39.4164C62.5067 41.0932 61.1469 42.453 59.4701 42.453C57.7933 42.453 56.4375 41.0932 56.4375 39.4164C56.4375 37.7396 57.7974 36.3838 59.4701 36.3838C61.1429 36.3838 62.5067 37.7396 62.5067 39.4164Z" fill="#9CA3AF" stroke="#101727" stroke-miterlimit="10"/>
<path d="M55.3399 55.9306C55.3399 57.3948 54.1565 58.5781 52.6923 58.5781C51.2282 58.5781 51.156 56.9254 50.0488 56.9254C48.9417 56.9254 48.8655 58.5781 47.4053 58.5781C45.9452 58.5781 44.7578 57.3948 44.7578 55.9306C44.7578 54.4665 45.9412 53.2871 47.4053 53.2871H52.6923C54.1565 53.2871 55.3399 54.4705 55.3399 55.9306Z" fill="#101727"/>
<path d="M64.2356 55.249C62.5027 57.1584 60.5773 63.4964 57.3962 63.4964C57.0593 63.4964 56.7384 63.4844 56.4375 63.4603" stroke="#101727" stroke-miterlimit="10"/>
<path d="M43.0382 63.4604C42.6972 63.4845 42.3402 63.4965 41.9631 63.4965C38.3769 63.4965 38.4251 54.4027 34.7266 52.6377" stroke="#101727" stroke-miterlimit="10"/>
<path d="M40.4904 32.4158C38.3483 32.1991 36.5151 32.9052 35.3438 34.1367" stroke="#101727" stroke-miterlimit="10"/>
<path d="M59.5469 32.3554C61.693 32.187 63.5061 32.9411 64.6494 34.2007" stroke="#101727" stroke-miterlimit="10"/>
</g>
<defs>
<clipPath id="clip0_2897_3649">
<rect width="100" height="100" fill="white"/>
</clipPath>
</defs>
</svg>
