<svg width="400" height="283" viewBox="0 0 400 283" fill="none" xmlns="http://www.w3.org/2000/svg">
<path opacity="0.12" d="M396.915 49.8159L391.549 39.7588C388.939 34.8669 384.353 31.2859 378.982 29.936L377.392 29.5344C375.814 29.1384 374.196 28.9375 372.578 28.9375C362.326 28.9375 353.702 36.9531 352.944 47.1831C352.71 50.3793 350.506 53.0958 347.427 53.9882L343.088 55.2489C340.432 56.0186 338.017 57.3127 335.909 59.0865L316.514 75.9097C314.885 77.3265 312.342 76.7352 311.516 74.7383C309.564 70.0138 305.219 62.1488 296.182 55.154C268.672 33.8629 162.093 37.801 105.153 23.7668C98.365 22.0934 92.1902 22.4838 87.1365 21.9595C86.4616 21.887 85.7755 21.8535 85.1006 21.8535C76.1646 21.8535 68.3332 27.8945 66.0574 36.5403L52.1849 89.2745C51.6439 91.3272 51.4431 93.4413 51.5769 95.5553L53.9029 131.623C54.1651 135.65 55.6265 139.454 58.1422 142.617L73.6546 162.117C81.8151 175.209 57.8912 187.921 50.8183 191.318C49.2676 192.06 47.9066 193.148 46.8635 194.514C45.1009 196.818 43.818 199.462 43.0872 202.296L31.5576 247.053C29.8674 253.618 31.2787 260.457 35.4343 265.818C39.5899 271.178 45.8539 274.251 52.6312 274.251C52.7929 274.251 52.9547 274.251 53.1164 274.251L62.1137 274.056C66.6486 273.956 70.9716 272.472 74.614 269.767L83.8065 262.939C85.6807 261.545 87.9509 260.797 90.2881 260.797H103.642C106.52 260.797 109.22 262.197 110.876 264.551L116.873 273.074C120.945 278.859 127.599 282.312 134.672 282.312C136.591 282.312 138.504 282.055 140.362 281.553C146.464 279.902 151.534 275.691 154.279 269.995C157.023 264.3 157.162 257.713 154.652 251.906L152.315 246.501C150.859 243.126 148.55 240.153 145.644 237.905L135.408 229.996C132.207 227.519 130.132 223.866 129.646 219.844L128.096 206.975C127.599 202.864 130.929 199.295 135.063 199.507C138.789 199.696 142.425 199.869 142.425 199.869C146.341 200.053 150.051 201.693 152.823 204.465L166.45 218.115C170.17 221.841 175.124 223.893 180.389 223.893C180.964 223.893 181.533 223.866 182.102 223.821C184.757 223.587 187.317 224.842 188.633 227.157L191.01 231.34C192.973 234.787 195.89 237.537 199.455 239.289L204.486 241.76C207.225 243.104 210.148 243.785 213.165 243.785C218.905 243.785 224.355 241.274 228.114 236.901C230.05 234.648 231.428 232.021 232.181 229.22C232.872 226.66 234.39 224.395 236.398 222.661L241.072 218.617C242.137 217.696 243.565 217.3 244.954 217.546L266.714 221.411C267.852 221.612 269.012 221.718 270.161 221.718C275.527 221.718 280.637 219.515 284.318 215.711C285.707 214.277 287.548 213.368 289.533 213.178L295.814 212.576C299.524 212.369 303.071 214.099 305.196 217.144C311.756 226.549 315.694 232.366 317.083 234.57C319.866 241.325 326.147 242.87 332.233 244.359C333.767 244.738 335.345 244.928 336.93 244.928C343.322 244.928 349.335 241.81 353.022 236.578L354.606 234.33C358.572 228.707 359.314 221.417 356.564 215.108L347.215 193.655C344.716 187.921 345.927 181.244 350.283 176.754L365.801 160.762C371.452 154.938 372.958 146.393 369.639 138.991L366.727 132.493C365.26 129.224 365.678 125.414 367.815 122.536L385.597 98.5786C389.039 93.9377 390.272 88.0474 388.978 82.4192C388.409 79.9482 389.151 77.3544 390.941 75.5583L393.479 73.0092C399.637 66.8343 401.015 57.5135 396.91 49.8215L396.915 49.8159Z" fill="#00634C"/>
<path d="M89.9787 10.474L88.6344 17.7356C88.4964 18.4558 87.9503 19.5721 88.3524 20.2442C88.7424 20.8863 89.0005 21.1504 89.0725 22.0086C89.1145 22.5247 89.5406 23.0528 88.9105 23.5809C87.4822 24.7872 89.0185 27.8419 90.1768 29.7683C91.407 31.8148 93.4595 31.2507 94.1197 32.1509C94.6838 32.925 93.6635 33.6812 93.9216 34.9895C94.2757 36.7659 92.1452 36.8439 91.7911 38.2602C91.6051 38.9984 91.8211 39.6825 92.3493 40.2227C92.8894 40.7748 93.3995 41.4349 94.1617 41.675C94.6778 41.837 95.1759 40.5467 96.2621 40.8348C96.6102 40.9248 96.8923 41.3749 96.9523 41.843L97.2283 43.9615C97.6664 45.1318 97.8405 46.242 97.4924 47.4783C97.0663 49.0026 98.7347 48.7206 99.7849 50.533C100.631 51.9913 102.125 52.5854 103.746 52.3274L106.909 52.3814C108.127 52.0993 109.195 51.7692 110.455 52.1473L111.776 52.3574L108.499 74.1902C102.263 73.6681 96.0701 72.8999 89.7507 71.9817L82.5431 114.909L80.9887 121.505L79.3383 122.345C78.9003 121.619 78.2581 121.655 77.592 121.409C77.3039 121.307 76.8718 121.013 76.5357 121.265C75.8816 121.757 76.8598 123.119 76.4517 123.719C76.0076 124.373 75.9416 124.89 75.8756 125.628L75.3955 127.056C75.9176 127.566 75.8096 128.094 75.5155 128.676C75.1134 129.475 75.4255 130.417 75.4015 131.257C75.3775 132.205 75.2154 133.081 75.6355 134.036C75.1674 134.72 75.2454 135.44 75.8696 135.896C76.6678 136.64 77.4179 137.654 77.1419 138.321C76.7398 139.293 74.8073 139.113 74.5733 139.923C74.3992 140.529 74.3752 140.877 73.7571 141.165C74.0512 141.969 73.9852 143.47 73.8291 143.788C73.7211 144.01 73.241 144.136 72.9829 144.292C72.8329 145.738 71.4526 145.45 71.3566 146.278C71.2365 147.299 71.8247 148.127 72.7249 148.529L72.5688 149.537C71.7647 149.297 70.9005 149.585 69.9703 149.501L58.9458 148.535C57.8656 148.439 56.7433 148.547 55.9751 147.665C55.441 147.046 55.1109 146.122 54.9129 145.312C54.6308 144.184 54.0787 143.284 53.7066 142.233C53.0825 140.481 52.1883 138.903 50.982 137.492L49.4397 136.256L48.0774 135.074C47.3872 134.18 46.8291 133.417 45.7008 133.081C44.4706 132.709 43.4203 131.815 42.7662 130.711C42.094 129.583 41.1998 128.892 39.9576 128.478L38.1752 127.512C37.1789 126.972 35.9487 126.708 35.0845 125.952C34.1303 125.13 34.4303 123.713 34.8204 122.717C35.3725 121.313 34.8144 119.866 34.1363 118.612C33.6622 117.73 33.4101 116.632 32.6419 115.99C32.0538 115.497 31.7297 115.149 31.4117 114.411L29.7373 110.588C28.9751 108.848 28.7171 106.982 29.3952 105.145C29.8033 105.385 30.2234 105.589 30.6015 105.427C30.2654 103.855 29.0411 102.949 28.225 101.748C27.4868 100.662 27.5408 99.1138 27.8049 97.8955L28.375 95.2669L26.1065 93.3525C25.8784 93.1605 25.5424 93.0885 25.4823 92.8304C25.3023 92.0502 26.7846 91.7441 26.0525 90.3038C23.874 86.0609 23.3579 81.3558 24.6121 76.7588C23.5799 73.7761 21.7735 70.3494 23.808 68.1589C25.0742 66.7966 25.9624 65.1402 26.2865 63.2618C26.4065 62.5596 26.8626 61.8095 26.8927 61.1433C26.9407 59.9491 27.0367 58.7668 26.9827 57.6685L34.9164 60.0331L51.9843 64.5401C58.4777 66.2565 64.8751 67.6488 71.6266 68.9031L74.1832 57.1104C74.8914 53.8517 75.5155 50.713 75.8996 47.4063C75.4435 46.14 76.1696 45.1858 77.1179 44.4836C77.1479 42.5992 78.5462 42.6652 78.8643 41.0989C79.0383 40.2407 79.8365 39.8146 80.2386 39.3045C81.0547 38.2722 80.5146 37.264 79.9565 36.4298C79.4344 35.6496 79.3684 34.7194 78.5762 34.0953L83.2692 9.17773L89.9907 10.474H89.9787Z" fill="#B7AB65" stroke="#101727" stroke-width="0.5" stroke-linejoin="round"/>
<path d="M108.494 74.1965L107.102 83.3485L119.518 85.1069C119.752 85.1429 119.878 84.5308 119.902 84.3328C129.595 85.617 139.221 86.7633 148.973 87.5975L152.076 87.8015C152.052 88.1796 151.962 88.5397 152.064 89.0258C156.289 89.3139 160.339 89.5239 164.558 89.3259L164.15 98.3339C164.558 98.4719 164.852 98.4599 165.128 98.4719L163.904 124.14L158.701 123.612L156.961 123.395C143.11 122.531 129.288 121.403 115.377 119.741L109.262 168.273L95.909 167.307L73.8421 154.884L72.8279 153.96C72.1738 153.366 71.9277 152.274 72.5038 151.59C73.062 150.93 73.104 150.179 72.5638 149.555L72.7199 148.547C71.8137 148.145 71.2315 147.317 71.3516 146.297C71.4476 145.468 72.8339 145.756 72.9779 144.31C73.23 144.154 73.7101 144.028 73.8241 143.806C73.9802 143.488 74.0402 141.988 73.7521 141.183C74.3702 140.895 74.3942 140.541 74.5683 139.941C74.7963 139.137 76.7288 139.311 77.1369 138.339C77.4129 137.673 76.6628 136.658 75.8646 135.914C75.2344 135.458 75.1624 134.738 75.6305 134.054C75.2104 133.094 75.3725 132.223 75.3965 131.275C75.4205 130.435 75.1084 129.493 75.5105 128.695C75.8046 128.113 75.9126 127.59 75.3905 127.074L75.8706 125.646C75.9366 124.908 76.0026 124.392 76.4467 123.738C76.8548 123.143 75.8706 121.775 76.5307 121.283C76.8668 121.031 77.2989 121.319 77.587 121.427C78.2531 121.667 78.8953 121.637 79.3334 122.363L80.9837 121.523L82.5381 114.928L89.7457 72C96.0711 72.9182 102.258 73.6864 108.494 74.2085V74.1965Z" fill="#7E9462" stroke="#101727" stroke-width="0.5" stroke-linejoin="round"/>
<path d="M214.645 153.871C214.651 154.081 214.735 154.285 214.843 154.399C215.077 154.657 215.377 154.543 215.647 154.435L217.639 153.625L217.879 159.939L218.119 167.602C218.137 168.202 218.732 168.539 218.954 168.983L219.632 170.345C220.052 171.191 220.19 172.073 220.886 172.77C222.212 174.096 220.916 175.386 221.732 176.538C222.14 177.12 221.936 177.523 221.732 178.081C221.558 178.561 221.582 179.071 221.264 179.539C220.988 179.941 220.946 180.541 221.114 180.973C221.342 181.573 221.036 181.868 220.772 182.318C220.49 182.798 220.49 183.554 220.418 184.022C219.512 184.268 218.462 184.364 217.621 184.868C217.069 185.198 216.703 185.516 215.947 185.456C214.417 185.33 212.904 185.066 211.422 184.634C210.336 184.316 209.25 184.634 208.685 185.606L206.861 188.757C205.733 190.708 204.592 192.484 202.786 193.834L198.339 197.147L193.706 200.958C192.302 202.356 191.552 204.06 191.366 206.047C191.107 208.85 191.42 211.562 191.888 214.353C192.152 215.931 192.416 217.558 191.99 219.184L186.078 216.915C185.4 216.783 183.54 217.804 180.407 214.227C180.791 211.496 177.658 210.29 178.361 207.349C177.935 205.957 177.298 204.715 176.404 203.58L173.139 199.439C172.275 198.347 171.789 197.195 171.291 195.911C169.011 190.029 164.726 185.192 158.13 184.814C156.522 185.552 155.189 186.573 154.061 187.905L151.619 190.786C149.29 193.534 145.725 189.777 143.175 187.473C141.854 186.279 140.84 184.952 140.324 183.23L139.13 179.227C138.902 178.453 138.626 177.331 138.032 176.766L134.911 173.802L131.874 170.123L130.662 168.581C130.2 167.992 129.81 167.644 129.504 166.918C129.342 166.528 128.598 166.252 128.61 165.742L130.962 165.106L154.493 166.48L156.726 127.771C157.374 127.874 157.962 127.898 158.688 127.922L172.419 128.402L176.308 128.516L175.822 145.235L176.638 145.511L177.826 146.976C178.973 146.73 179.429 147.498 180.239 147.294C181.973 146.862 181.991 149.064 182.514 149.142L186.132 149.694C186.27 149.718 187.105 150.733 189.253 150.253L190.567 152.155C190.975 152.743 191.912 151.261 192.374 151.321C192.806 151.375 193.208 152.491 193.97 152.605C194.558 152.695 194.912 152.329 195.38 152.065C196.173 151.615 197.145 152.173 197.973 152.221C198.465 152.251 199.143 151.687 199.659 152.023C200.38 152.491 201.01 152.431 201.832 152.359C203.23 152.233 204.634 152.251 206.003 151.807C206.747 151.567 207.503 151.927 208.121 152.059C208.859 151.645 209.67 151.339 210.462 151.951C210.96 152.335 211.512 152.341 212.1 152.545C212.598 152.719 212.934 153.181 213.63 153.097L214.633 153.835L214.645 153.871Z" fill="#849465" stroke="#101727" stroke-width="0.5" stroke-linejoin="round"/>
<path d="M38.4448 232.789L39.309 234.295C38.9309 235.333 38.2527 236.168 37.3945 236.912C34.4359 239.486 30.9491 241.377 27.1863 242.523C24.4917 243.345 22.6793 242.289 22.7093 243.603L22.7573 245.68C22.7693 246.082 22.5052 246.466 22.1871 246.598C21.533 246.868 20.7048 245.722 19.5225 245.776C18.4783 245.824 18.0282 247.018 17.4461 247.054C17.074 247.078 16.4139 245.728 15.0996 246.67C14.4694 247.12 13.9833 247.072 13.2752 246.994C10.1545 246.646 7.10578 248.674 3.37895 248.614L0.822377 248.572C0.576322 248.572 0.354273 248.422 0.294259 248.302C-0.143838 247.444 2.76681 245.758 4.76526 246.34C5.76748 246.634 6.54165 246.706 7.44785 246.1L10.5265 244.029C12.0809 242.985 15.0515 244.888 15.7237 243.717C16.1738 242.937 16.5879 242.391 17.5661 242.217L21.2809 241.551C22.2232 241.383 22.3672 240.639 22.6252 240.087C23.9215 239.21 25.4699 238.634 26.3341 237.218L29.6228 231.823C28.5666 231.793 28.1345 232.585 27.4083 232.933C26.4841 233.551 26.2981 232.645 25.4399 231.913C24.6477 232.711 24.9057 233.905 24.1616 233.977C23.8735 234.007 23.5855 233.827 23.4474 233.515C22.9313 232.375 23.8795 231.031 23.4714 230.802C22.9853 230.532 21.713 231.565 21.2809 230.851L21.2089 229.968C19.7506 228.51 16.5279 231.295 15.0155 230.19C15.3936 229.566 15.8617 229.17 16.2938 228.738C16.984 228.042 16.882 227.16 16.1918 226.35C16.978 225.977 17.6141 226.061 18.4363 225.983C17.6321 224.723 17.6081 223.493 18.2323 222.155C17.7341 221.812 17.218 221.945 16.6899 222.071C15.1296 222.443 13.1791 223.157 12.3209 222.287C11.4688 221.422 12.477 220.318 11.4988 219.064L10.2325 217.438L12.777 214.719C12.9331 214.551 12.3029 214.401 12.0749 214.485C11.3907 214.743 10.7786 214.419 10.6166 213.705C9.96842 210.872 15.0996 204.811 18.3943 204.259C19.9726 203.995 20.1767 205.657 20.7528 205.819C21.569 206.047 22.1031 205.039 22.6913 205.057L25.6319 205.147C26.4361 205.171 26.9642 204.619 27.1442 203.85C27.5043 202.29 27.9904 200.826 28.7286 199.397C28.8426 199.181 28.8126 198.851 28.7046 198.701C28.6086 198.569 28.3205 198.479 28.0504 198.509L24.4496 198.917C23.2074 199.061 22.2832 198.647 21.2209 198.149L18.8864 197.741C17.5481 197.507 16.966 196.391 16.888 195.035C16.7799 193.072 16.1858 191.272 14.9555 189.747C14.6435 189.357 14.4514 188.583 14.7335 188.181C15.0576 187.719 15.7717 187.647 16.3118 187.695L19.9006 188.025C20.7948 188.109 20.8368 187.557 21.2689 187.083C22.1691 186.465 23.9275 186.675 24.8577 187.233C25.878 187.845 24.5697 190.768 26.7902 191.392C27.5643 191.608 28.5426 191.986 29.3647 191.932C29.9169 191.896 29.8328 190.882 29.7008 190.528L28.0144 185.997C27.0542 185.372 26.6941 184.358 26.3881 183.284C25.944 181.063 25.1398 179.083 23.7835 177.301C23.5254 176.964 23.5915 176.334 23.7115 176.064C24.2576 174.852 26.9462 175.29 28.7706 175.356C30.535 175.416 31.9633 174.288 32.8215 172.818C33.7397 171.245 35.12 170.183 36.9324 170.009L38.6248 169.841C39.555 168.947 40.6713 168.899 41.8655 169.223C43.0058 169.535 44.104 168.749 44.9202 168.034C46.0305 167.05 47.3327 167.062 48.263 168.167L50.2254 170.495C50.6035 170.939 52.0858 170.075 52.794 170.423C53.5021 170.771 52.926 173.058 55.0445 173.472L58.9153 174.222C60.0196 174.45 60.8598 175.08 61.4539 175.992C62.8402 176.61 64.2685 176.742 65.7569 176.898L71.2061 177.457C72.7124 177.613 74.0267 178.393 74.9569 179.587L75.1129 194.812L75.143 225.965C75.143 227.334 74.9029 229.23 75.7371 229.848C76.0191 230.058 76.4872 230.07 76.8173 229.926L78.6237 229.134C78.9658 228.984 79.4279 229.026 79.734 229.236C79.746 229.242 80.5682 231.931 83.3528 234.655C84.0909 235.382 85.0512 235.364 85.7053 234.655C86.2214 234.091 86.4135 233.239 86.7675 232.633C89.8102 231.031 92.8769 234.499 94.8273 237.212L99.0163 243.021C100.115 244.546 101.291 245.896 102.683 247.114C103.943 248.212 105.27 248.789 106.872 249.191C109.753 249.905 107.292 260.131 105.63 258.151L103.265 255.342C102.677 254.64 102.119 253.854 101.195 253.53C100.973 253.452 100.793 253.734 100.847 253.95L101.717 257.256C101.795 257.55 101.807 258.253 101.489 258.367C100.301 258.799 98.0921 255.036 96.9878 253.686C95.5475 251.921 96.1536 251.759 95.8116 249.677C94.8874 249.761 94.9774 251.219 94.3232 251.969L92.9789 247.882L92.8169 250.925C92.8049 251.153 92.6849 251.375 92.5708 251.465C92.4148 251.585 92.1447 251.591 91.9647 251.471C90.4584 250.487 90.5904 248.35 89.9002 247.852C89.1801 247.336 88.736 246.856 88.3879 246.028L86.6475 241.863C87.0196 241.233 87.4337 240.735 87.5717 239.979C87.0556 239.925 86.8996 240.729 86.2814 240.675C85.4713 240.609 85.5913 238.658 83.3948 237.74L78.5457 235.706C77.9876 235.472 77.3814 235.105 77.1294 234.553C76.5653 233.311 78.6777 232.825 78.5517 231.805L75.9051 232.963C74.9389 233.383 74.0327 233.275 73.0845 232.897C72.3943 232.621 71.6682 232.447 71.062 231.991C69.5377 230.857 66.9391 231.325 65.4268 230.52L61.6099 228.498C60.5837 227.952 60.9318 225.749 58.7413 225.857C57.7271 225.905 56.7008 225.965 55.7226 226.259C55.4045 226.356 55.3325 226.92 55.3265 227.202L55.2605 229.938C55.2545 230.25 55.1345 230.592 54.9604 230.754C54.7624 230.935 54.4143 231.049 54.0903 230.989L51.3476 230.484C50.2194 230.274 49.2712 230.941 49.1391 232.093C48.9231 234.013 43.1798 234.169 43.9 233.089C44.3741 232.375 45.3163 232.111 46.0425 231.763C45.9824 231.097 45.1123 231.433 44.8362 231.205C44.7462 231.133 44.6982 230.833 44.7762 230.7C45.4063 229.662 45.6584 228.606 45.8504 227.424C45.9884 226.578 46.7566 225.887 47.5128 225.647L51.4557 224.393C50.8075 223.793 49.8473 223.481 48.9171 223.391C46.5226 223.163 44.3681 226.013 43.1858 228.21C42.6817 229.146 42.0996 229.86 41.0854 230.28L39.0449 231.139C38.3968 231.409 38.0187 232.105 38.4148 232.795L38.4448 232.789Z" fill="#B7AB65" stroke="#101727" stroke-width="0.5" stroke-linejoin="round"/>
<path d="M300.472 72.3596L302.584 84.9864C300.429 85.8746 302.752 87.3629 301.726 89.5054C300.484 92.098 302.572 93.5503 300.736 94.3905C299.637 94.8946 299.781 96.8331 298.305 97.6372C297.495 98.0753 296.697 98.5014 296.103 99.2396L295.995 100.86C295.941 101.64 294.452 100.728 294.29 100.788C294.164 100.83 294.008 101.028 293.96 101.22L293.516 103.038C293.336 103.783 294.164 104.125 293.978 104.755C293.9 105.031 293.576 105.247 293.168 105.307L292.742 106.207C292.334 106.543 291.74 106.453 291.259 106.435C291.469 108.494 293.114 111.248 294.5 112.833C294.89 113.277 295.616 114.045 295.484 114.657C295.214 115.905 292.724 116.361 291.902 119.152C291.602 120.172 290.791 120.346 289.915 120.508C289.417 120.868 288.871 121.319 288.259 121.613L286.41 122.507C285.792 122.807 285.186 123.173 284.832 123.647L269.829 125.285L258.246 125.874L258.09 127.992L247.912 128.262C247.96 128.022 248.05 127.524 248.302 127.38C248.638 127.182 249.022 127.296 249.484 127.242C249.604 126.216 249.718 124.901 249.19 123.911C248.008 123.479 246.802 122.147 246.994 120.874C247.39 118.162 245.703 118.258 245.649 116.776C245.619 115.857 244.191 116.902 243.207 115.599C242.625 114.831 241.97 114.219 241.208 113.631C240.794 113.313 241.076 112.707 241.184 112.299L241.58 110.798C242.066 109.856 242.151 108.788 241.628 107.864C241.376 107.413 241.016 107.281 240.578 107.233C240.14 107.185 239.762 107.749 239.432 107.936C237.361 107.383 239.054 104.767 236.497 103.795L235.321 102.438C233.983 101.67 233.118 100.566 232.842 99.0115C232.734 98.4114 232.326 97.7693 232.422 97.1091C232.536 96.3589 232.644 95.6808 232.35 95.0266C232.326 94.9726 232.326 94.8826 232.32 94.8286L232.35 94.4985C232.602 94.4985 232.806 94.3665 233.034 94.1445L234.079 93.1542C235.663 92.086 235.873 90.1656 234.961 88.6412C235.249 86.2527 238.586 86.0426 239.804 84.3383C240.968 82.7119 240.626 80.4914 239.45 78.9671L237.481 76.3445L254.753 74.6461C254.669 75.8464 255.095 76.9866 255.63 78.1329L256.386 79.7592L258.168 99.0415C258.306 100.512 258.642 101.88 258.246 103.303C258.126 103.735 257.838 104.083 257.922 104.545C258.132 105.709 259.488 105.175 258.63 107.635L257.778 110.078C257.154 111.878 256.344 112.208 256.842 112.977C257.34 113.745 255.978 114.903 256.77 116.175C256.86 115.287 257.31 115.005 258.06 114.819C259.596 114.441 261.211 114.585 262.699 115.053C263.827 113.883 264.932 115.239 265.916 114.357C267.146 113.247 265.88 112.527 266.66 111.98C267.572 111.344 268.028 112.719 269.091 113.067C269.625 112.833 270.057 112.731 270.699 112.803C271.461 111.848 270.285 110.396 272.331 109.826L272.949 106.987C273.087 106.351 274.036 106.579 274.366 106.393C275.014 106.027 275.35 105.751 276.112 105.811C276.406 105.835 276.772 105.655 276.922 105.487C277.42 104.917 276.754 104.281 276.952 103.837C277.03 103.663 277.306 103.465 277.594 103.236L274.198 79.5432L267.902 79.5012C265.826 79.4892 263.761 79.6272 261.823 80.2213C263.521 77.0826 264.133 73.6019 263.473 70.1271L262.195 63.4596C261.493 59.7928 262.003 56.174 263.725 52.8793L265.802 49.5605C266.708 49.9146 266.402 51.787 265.856 52.4111C265.466 52.8552 265.322 53.3594 265.736 53.7975C266.09 54.1755 266.606 54.1335 267.086 53.8335C267.884 53.3234 268.382 52.6872 268.454 51.697L268.658 49.0504C269.691 47.7421 271.221 47.5321 272.733 47.4901C275.164 47.424 277.162 48.2342 278.789 50.0106C279.359 50.6348 279.875 51.1149 280.031 52.0871C280.253 53.4794 280.049 54.8837 279.515 56.234L278.009 60.0749C277.84 60.501 277.726 60.879 277.978 61.2391C278.153 61.4912 278.465 61.9293 278.909 61.8092C279.461 61.6652 279.815 61.1131 280.151 60.675L281.963 58.3405C282.335 57.8604 282.894 57.6083 283.518 57.7403C285.168 58.0824 286.278 62.1393 286.975 64.2458C287.401 65.5361 287.623 66.8024 287.047 68.0986C285.396 71.7895 282.642 73.3138 282.528 75.2522C282.383 77.6168 280.577 77.2567 280.451 78.559C280.415 78.9611 280.511 79.4952 280.979 79.5792L283.59 80.0593C285.018 80.4854 286.404 80.3774 287.887 80.2934L289.489 80.2033C290.317 80.1553 290.869 79.6692 291.103 78.859C291.59 78.721 292.118 78.715 292.598 78.799C295.124 79.2431 294.71 76.4525 295.802 76.1824C296.655 75.9724 296.865 75.3423 297.417 74.8262L299.559 72.8457C299.865 72.5636 300.255 72.5216 300.484 72.3656L300.472 72.3596Z" fill="#BCAC60" stroke="#101727" stroke-width="0.5" stroke-linejoin="round"/>
<path d="M83.2542 9.17708L78.5612 34.0946C79.3533 34.7188 79.4193 35.649 79.9415 36.4292C80.4996 37.2694 81.0397 38.2716 80.2235 39.3038C79.8214 39.8139 79.0173 40.246 78.8492 41.0982C78.5372 42.6646 77.1328 42.5985 77.1028 44.483C76.1606 45.1851 75.4285 46.1393 75.8846 47.4056C75.5005 50.7123 74.8763 53.8511 74.1682 57.1098L71.6116 68.9024C64.8601 67.6481 58.4627 66.2558 51.9692 64.5394L34.9014 60.0324L26.9677 57.6679C26.8776 55.8615 26.3915 54.0551 26.5836 52.1767C26.7276 50.7484 27.2977 49.7521 27.9939 48.5579L31.0366 43.3187C32.5009 40.7981 33.3231 38.1756 34.2233 35.4329C35.0635 32.8704 36.4798 30.5539 36.9419 27.8893C37.1939 26.4609 37.29 25.2307 38.1962 24.0484C38.5142 23.6283 38.6463 23.1782 39.4744 23.3763C40.0326 23.5143 40.6567 23.9044 41.4249 23.5203C40.7347 23.3643 40.3866 22.5361 39.9245 22.278C38.9043 22.098 38.1662 21.7199 38.1061 20.5616C38.0761 19.9075 38.8323 19.2893 38.9523 18.6472C39.1804 17.4109 39.2884 16.0786 39.1924 14.7763L38.8383 9.83123C38.7543 8.63096 38.1602 7.61073 38.6703 6.38046L39.1984 3.97392C39.3124 3.45181 40.3146 3.72787 40.6507 4.09995C41.785 5.33023 42.9012 6.75254 44.4195 7.50271C45.4458 8.01283 46.442 8.18086 47.3662 8.95504C48.2484 9.6932 49.4187 10.5334 50.6549 10.6234C52.1493 10.7374 53.0195 8.94303 52.5814 7.68875C52.2153 6.63852 53.5596 5.99037 53.6616 3.92591C55.9061 3.54783 58.1206 3.76388 60.3231 4.21998L63.9359 4.96414L83.2482 9.17108L83.2542 9.17708Z" fill="#849465" stroke="#101727" stroke-width="0.5" stroke-linejoin="round"/>
<path d="M156.812 19.1103L155.023 45.5221L154.477 53.6059L112.15 49.309L111.772 52.3697L110.451 52.1596C109.191 51.7815 108.123 52.1116 106.904 52.3937L103.742 52.3397C102.121 52.5977 100.627 52.0036 99.7808 50.5453C98.7306 48.7269 97.0622 49.0089 97.4883 47.4906C97.8364 46.2543 97.6624 45.1441 97.2243 43.9738L96.9482 41.8553C96.8882 41.3932 96.6061 40.9431 96.2581 40.8471C95.1658 40.553 94.6737 41.8493 94.1576 41.6873C93.3954 41.4472 92.8793 40.7871 92.3452 40.235C91.8231 39.6948 91.607 39.0167 91.7871 38.2725C92.1351 36.8622 94.2716 36.7782 93.9175 35.0018C93.6535 33.6935 94.6797 32.9373 94.1156 32.1632C93.4614 31.263 91.403 31.8271 90.1727 29.7806C89.0144 27.8542 87.4781 24.7995 88.9064 23.5933C89.5306 23.0651 89.1105 22.531 89.0685 22.0209C88.9964 21.1627 88.7324 20.8986 88.3483 20.2565C87.9462 19.5844 88.4923 18.4681 88.6304 17.7479L89.9747 10.4863C112.048 14.7473 134.391 17.5319 156.812 19.1223V19.1103Z" fill="#BCAC60" stroke="#101727" stroke-width="0.5" stroke-linejoin="round"/>
<path d="M156.966 123.391L156.732 127.808L154.5 166.517L130.968 165.142L128.616 165.779C127.908 165.923 127.181 165.761 126.389 165.683L115.419 164.548L115.179 168.923L109.273 168.269L115.389 119.736C129.3 121.399 143.127 122.527 156.972 123.391H156.966Z" fill="#A99E53" stroke="#101727" stroke-width="0.5" stroke-linejoin="round"/>
<path d="M337.448 72.0432C337.154 72.4873 336.998 72.8414 336.872 73.4535L335.834 75.536L335.936 78.2546C335.96 78.8548 336.632 79.0828 336.77 79.4069C337.058 80.085 337.478 80.3191 337.839 80.8232L338.355 82.8096C338.325 83.1877 338.079 83.9259 337.826 84.1779L336.014 85.9964C335.144 85.4742 334.208 85.5162 333.32 86.0864C333.013 86.2844 332.671 86.3564 332.725 86.8305L331.669 87.0286L322.985 87.3526C320.231 87.4547 317.584 87.7667 314.907 88.3849C311.655 89.135 308.12 90.8214 308.888 94.2302C309.194 95.6045 309.986 97.3569 310.953 97.3329C311.277 97.3269 311.637 97.2008 311.865 96.8948L313.623 94.5242C315.063 92.5918 315.418 91.9557 317.578 92.0877C318.436 92.1417 319.09 92.0817 319.847 92.6338C321.719 94.0081 322.745 93.192 323.123 94.3382C323.645 95.9286 326.256 95.4184 326.592 97.4409C326.79 98.6172 325.578 99.7034 325.956 100.376C326.04 100.526 326.322 100.592 326.526 100.55C326.892 100.472 327.132 100.688 327.336 100.976C327.984 101.888 329.011 101.894 330.031 101.864C331.195 101.828 332.377 102.38 333.374 102.866C334.016 103.178 333.932 103.862 333.656 104.336C333.398 104.775 333.169 104.967 332.791 105.303C332.521 105.543 332.839 106.179 333.043 106.407C333.584 107.025 334.658 106.341 334.7 107.373C334.712 107.661 334.592 108.093 334.196 107.961C333.974 107.889 333.728 107.589 333.542 107.583C333.314 107.583 333.067 107.853 333.061 108.063C333.061 108.255 333.169 108.645 333.374 108.741C334.43 109.258 334.736 110.272 335.396 111.064L337.49 112.582C338.031 113.416 338.265 114.287 338.193 115.223L298.572 121.662L297.72 121.914L284.805 123.631C285.153 123.157 285.765 122.791 286.383 122.49L288.231 121.596C288.844 121.296 289.39 120.846 289.888 120.492C290.764 120.33 291.574 120.15 291.874 119.136C292.702 116.345 295.193 115.889 295.457 114.641C295.589 114.029 294.863 113.26 294.473 112.816C293.087 111.232 291.436 108.471 291.232 106.419C291.712 106.437 292.306 106.533 292.714 106.191L293.141 105.291C293.549 105.231 293.867 105.015 293.951 104.739C294.137 104.108 293.309 103.772 293.489 103.022L293.933 101.204C293.981 101.012 294.131 100.82 294.263 100.772C294.425 100.718 295.913 101.624 295.967 100.844L296.075 99.2233C296.669 98.4851 297.468 98.059 298.278 97.6209C299.754 96.8168 299.604 94.8783 300.708 94.3742C302.545 93.534 300.456 92.0817 301.698 89.4891C302.725 87.3466 300.402 85.8583 302.557 84.9701L300.444 72.3433C300.87 72.0612 301.53 72.0072 301.896 71.5811C302.683 70.6749 303.097 69.7927 304.411 69.6187L304.855 73.1775L330.745 67.4702C331.681 67.2662 332.395 67.2902 333.133 67.9083L333.89 68.0884C334.16 68.1544 334.136 68.6165 334.124 68.9165C334.088 69.9548 334.712 70.3869 335.63 70.4829C335.984 70.6509 336.314 71.2571 336.926 71.209C337.244 71.185 337.574 71.8032 337.43 72.0192L337.448 72.0432Z" fill="#A99E53" stroke="#101727" stroke-width="0.5" stroke-linejoin="round"/>
<path d="M226.077 39.6655C225.747 39.5815 225.243 39.7916 225.033 39.9956C224.739 40.2837 224.565 40.7518 224.607 41.1959L224.973 44.6407C225.039 45.2768 224.919 45.9429 224.367 46.309C223.281 47.0352 222.338 48.0014 221.996 49.2917C221.534 51.0501 223.623 51.1701 222.987 52.1603C222.566 52.8145 222.44 53.5106 222.362 54.3028L222.152 56.3553C222.056 57.2975 222.428 57.7716 223.095 58.2217C223.905 58.7738 224.619 59.1939 225.663 59.2899C227.247 59.4339 227.926 59.3979 228.574 60.8143C229 61.7445 229.744 62.1646 230.362 62.8427C230.854 63.3768 231.13 63.941 231.851 64.337C232.601 64.7511 233.369 65.7173 233.087 66.5875C232.925 67.0977 232.613 67.4397 232.685 67.9438L222.164 68.496L202.096 68.7L201.964 53.4506C200.548 51.9563 199.425 50.744 200.079 48.7756L200.572 47.2752L199.911 47.2932C200.602 46.057 198.693 44.9167 198.963 42.5882C197.847 41.2799 199.017 40.0736 198.621 38.1712C198.435 37.277 198.201 36.6169 198.663 35.7647C199.413 34.3904 197.883 33.4241 197.823 32.962C197.685 31.8638 196.677 31.4017 197.073 28.293C197.169 27.5248 196.911 27.1648 196.635 26.5286C196.287 25.7364 196.659 24.6502 196.869 23.846C197.103 22.9578 196.113 22.1476 196.257 20.7073L206.807 20.6833C207.281 20.6833 207.029 21.9196 207.425 21.9616C207.965 22.0156 208.403 20.2092 209.856 20.7553C210.378 20.9474 210.33 22.5917 211.104 22.2857C211.764 22.0276 212.292 22.6337 212.682 22.6337C213.666 22.6397 214.147 22.6397 214.885 23.3359C215.245 23.678 215.851 23.93 216.085 24.5362C218.089 22.7238 218.906 23.804 220.862 24.0861L221.72 24.7222C222.53 24.8422 223.065 25.1483 223.275 25.9645C223.515 26.8767 224.451 25.6404 225.699 26.6306C226.731 27.4528 227.878 27.9389 229.204 28.089C229.546 27.6929 229.702 27.3028 230.128 26.9907L231.809 26.7207L233.489 26.4926C234.023 26.4206 234.527 26.6366 235.139 26.7507L237.012 27.1047C237.714 27.2368 238.932 27.9389 238.968 28.335C238.986 28.5151 238.89 28.7791 238.68 28.8931L235.979 30.3035C234.899 30.8676 234.035 31.4917 233.225 32.4039L231.929 33.8622L226.695 38.6273C226.359 38.9334 226.041 39.1854 226.071 39.6655H226.077Z" fill="#BCAC60" stroke="#101727" stroke-width="0.5" stroke-linejoin="round"/>
<path d="M196.253 20.7059C196.109 22.1462 197.099 22.9564 196.865 23.8446C196.655 24.6427 196.283 25.735 196.631 26.5272C196.913 27.1633 197.171 27.5294 197.069 28.2916C196.673 31.4003 197.681 31.8624 197.819 32.9606C197.879 33.4227 199.409 34.3889 198.659 35.7632C198.191 36.6214 198.425 37.2756 198.617 38.1698C199.013 40.0722 197.843 41.2785 198.959 42.5868C198.689 44.9153 200.598 46.0555 199.907 47.2918L184.886 47.0637L155.023 45.5154L156.812 19.1035C169.577 20.0037 182.354 20.4958 195.226 20.4838C195.707 20.4838 195.995 20.4358 196.253 20.6999V20.7059Z" fill="#7E9462" stroke="#101727" stroke-width="0.5" stroke-linejoin="round"/>
<path d="M308.989 169.746C309.097 170.316 309.727 170.67 309.901 171.18L311.942 177.296C312.872 179.582 314.288 181.503 316.485 182.619C315.981 182.907 315.555 182.943 315.279 183.315C315.068 183.597 315.249 184.053 315.507 184.275L317.811 186.274C318.645 187 319.131 187.84 319.6 188.824L321.88 193.613C321.958 193.775 321.994 194.009 321.91 194.124C321.844 194.208 321.676 194.28 321.442 194.328C323.458 196.896 324.617 199.927 325.439 203.162C326.327 206.672 326.465 210.267 325.337 213.712C324.869 215.134 324.011 216.436 322.69 217.097C321.232 217.823 319.648 217.523 318.123 216.977C318.273 216.677 318.549 216.527 318.873 216.4L322.168 215.104C321.61 214.456 320.884 214.756 320.206 214.852C318.915 215.038 318.195 212.35 316.881 212.482C315.567 212.614 314.312 212.488 313.25 211.521C311.882 210.273 310.946 208.491 310.952 206.582C310.952 206.21 311.252 205.808 310.658 205.568L310.183 206.432C309.493 205.616 309.337 204.722 309.091 203.864L308.947 204.026C309.013 204.224 309.037 204.704 308.851 204.818C308.071 204.974 307.327 204.626 307.027 203.972L305.886 201.499C305.61 200.905 305.286 200.413 304.788 199.993C303.546 198.937 305.31 197.388 304.998 195.636C303.924 195.708 303.738 197.334 303.282 197.256C302.64 197.148 302.28 196.386 302.286 195.804L302.352 192.509L302.412 188.578C302.232 186.316 300.581 184.773 298.247 184.767C296.632 182.523 294.334 179.894 291.681 179.12C290.739 178.796 289.521 179.174 289.023 179.888C289.533 181.119 288.08 180.332 287.792 181.359C287.504 182.385 286.598 182.247 285.92 183.033C285.704 182.625 285.434 182.361 285.146 182.265C284.774 182.139 284.414 182.265 284.054 182.439L282.415 183.225C282.943 181.293 281.137 181.569 280.027 180.272C280.465 179.438 279.817 178.61 278.97 178.358C278.832 178.772 278.934 179.006 278.928 179.456C278.19 178.796 277.356 178.472 276.384 178.34L273.833 177.986C274.367 176.804 271.349 177.164 270.142 178.7C270.142 178.856 270.473 179.096 270.671 179.144C269.266 180.53 267.526 178.622 265.828 180.32C265.485 180.236 265.389 179.99 265.305 179.762L263.211 174.079L282.541 171.072C282.913 171.012 283.297 170.838 283.76 170.97L284.24 173.653L308.989 169.746ZM309.025 203.798C308.935 203.66 308.725 203.786 308.863 203.936L309.025 203.798Z" fill="#B7AB65" stroke="#101727" stroke-width="0.5" stroke-linejoin="round"/>
<path d="M236.044 40.3982C235.774 40.6563 235.72 41.1904 235.792 41.5985C235.948 42.4747 237.917 43.3029 239.243 43.6329L246.151 45.3433L248.785 45.6434L249.223 46.5916L251.276 47.3058C251.81 47.4918 250.832 49.0221 250.958 50.2584C252.458 49.7723 252.452 51.5427 253.694 50.6185L254.373 51.2006L253.076 54.4954C252.656 55.5696 252.188 56.5838 252.236 57.8141L256.899 50.4805C257.637 51.1586 257.697 52.1669 257.271 53.013L255.663 56.2178L254.703 62.1291L253.562 67.9564C253.286 69.3727 254.949 71.8692 254.745 74.6719L237.473 76.3702C237.293 76.4243 236.741 76.5083 236.591 76.3342C235.912 75.104 234.28 75.8061 234.082 74.8519C233.728 73.1235 232.192 72.7694 233.464 71.2991C233.902 70.795 232.888 69.4267 232.678 67.9564C232.606 67.4523 232.918 67.1102 233.08 66.6001C233.362 65.7299 232.594 64.7577 231.843 64.3496C231.123 63.9535 230.847 63.3894 230.355 62.8552C229.731 62.1771 228.993 61.757 228.567 60.8268C227.919 59.4105 227.24 59.4525 225.656 59.3024C224.612 59.2064 223.898 58.7863 223.088 58.2342C222.421 57.7841 222.049 57.31 222.145 56.3678L222.355 54.3153C222.433 53.5232 222.559 52.827 222.98 52.1729C223.616 51.1826 221.527 51.0626 221.989 49.3042C222.325 48.0139 223.274 47.0477 224.36 46.3215C224.912 45.9555 225.032 45.2893 224.966 44.6532L224.6 41.2084C224.552 40.7643 224.732 40.2962 225.026 40.0081C225.236 39.8041 225.74 39.594 226.07 39.6781C226.892 39.8941 227.751 39.9181 228.579 39.486L230.841 38.2978C231.621 37.8897 232.426 37.5896 233.266 37.6556L232.96 39.0359C232.894 39.318 233.122 39.6 233.056 39.8821C233.008 40.0982 232.624 40.1462 232.45 40.1882C232.33 40.4762 232.564 40.6083 232.69 40.6683C232.846 40.7343 233.158 40.7943 233.332 40.6383L234.154 39.8881C234.454 39.612 234.814 39.51 235.12 39.8341C235.39 40.1222 235.672 40.3442 236.05 40.4102L236.044 40.3982Z" fill="#849465" stroke="#101727" stroke-width="0.5" stroke-linejoin="round"/>
<path d="M293.298 135.904C292.128 137.579 291.93 138.893 293.418 140.429C294.517 140.339 295.387 140.885 295.963 141.708L298.033 144.63L300.854 147.145L304.893 150.181C306.297 151.238 307.348 152.642 307.774 154.376C309.046 155.931 310.534 158.343 312.101 158.667C312.323 159.129 312.167 159.454 311.848 159.844C310.81 161.128 309.952 160.282 309.772 160.852C309.7 161.074 309.892 161.242 310.024 161.44C310.426 162.04 309.88 162.706 309.532 163.144C309.556 163.318 309.688 163.648 309.646 163.775C309.544 164.105 308.854 164.171 308.824 164.663C308.8 165.083 309.874 165.821 309.004 166.673L308.164 167.489C308.524 167.741 308.782 167.693 309.19 167.681C308.974 168.444 308.86 169.074 308.986 169.746L284.236 173.653L283.756 170.97C283.294 170.838 282.91 171.012 282.538 171.072C282.676 169.764 282.424 168.45 281.872 167.141C281.638 166.589 281.956 166.025 282.13 165.533C282.472 164.579 282.19 163.63 282.052 162.67C281.92 161.758 283.228 160.408 281.794 159.85C281.722 159.496 281.866 159.129 281.644 158.787C281.17 158.799 280.78 158.601 280.564 158.385C280.197 158.019 280.432 157.593 280.317 157.143L275.648 138.881L284.524 137.375L293.298 135.904Z" fill="#A99E53" stroke="#101727" stroke-width="0.5" stroke-linejoin="round"/>
<path d="M339.662 38.8418C339.968 39.3639 339.848 39.9821 339.986 40.5762L340.466 42.6406C340.85 43.4868 340.982 43.9729 340.664 44.8551C340.292 45.8874 340.376 46.9376 340.676 47.9578L340.862 50.7304C341.75 52.4708 342.812 54.1752 342.986 56.2037L343.179 58.4722C343.503 60.3086 343.209 62.211 343.118 64.0474C343.106 64.1854 342.926 64.3235 342.986 64.6055L344.925 72.8874C344.889 73.2415 347.067 73.4155 347.674 72.6713C348.214 72.0052 348.88 71.8732 349.666 71.6871C350.848 71.3991 351.634 70.8169 352.631 70.0127C353.093 71.201 354.905 69.9767 355.289 70.1808L353.921 71.6631C353.405 72.7254 352.733 72.7734 351.736 73.1274L349.204 74.0336L345.363 76.0321C344.763 76.3442 343.989 76.3502 343.497 76.7463C343.155 76.7342 342.812 76.3141 342.956 75.84C343.179 75.0899 343.113 73.8176 342.23 73.5235L338.72 72.3413C338.299 72.2032 337.771 72.3533 337.441 72.0412C337.585 71.8252 337.255 71.207 336.937 71.231C336.325 71.285 335.995 70.6729 335.641 70.5049C334.723 70.4088 334.092 69.9767 334.135 68.9385C334.147 68.6384 334.171 68.1763 333.9 68.1103L333.144 67.9303C332.406 67.3121 331.692 67.2881 330.756 67.4922L304.866 73.1995L304.422 69.6407C305.16 69.5446 305.256 68.7765 305.7 68.3144L307.741 66.1659C308.689 65.1637 309.331 63.4653 308.539 62.133C308.179 61.5269 307.345 61.1668 307.182 60.3626C308.335 59.4564 309.859 58.7002 311.335 58.6762C312.014 58.6642 312.536 58.8923 313.202 58.5262C314.372 57.872 315.608 59.5464 317.583 58.2681C319.269 57.1759 320.385 58.3461 320.914 57.1219C321.826 55.0034 324.154 55.2014 323.362 53.5451C322.648 52.0567 324.394 51.4746 323.632 50.4964C322.984 51.0725 322.534 51.6727 321.748 51.7147C321.508 51.7267 321.424 51.4626 321.472 51.3366C321.502 51.2526 321.544 51.0605 321.676 50.9525L323.716 49.3381C324.982 48.732 324.562 47.8438 324.946 46.9196C325.739 45.0052 327.623 43.6069 329.009 42.1185C329.399 41.6984 329.712 41.0863 330.276 40.9603L339.662 38.8598V38.8418Z" fill="#7E9462" stroke="#101727" stroke-width="0.5" stroke-linejoin="round"/>
<path d="M275.641 138.885L280.31 157.147C280.424 157.597 280.196 158.023 280.556 158.389C280.772 158.605 281.162 158.797 281.636 158.791C281.859 159.133 281.714 159.499 281.786 159.853C283.227 160.412 281.919 161.762 282.045 162.674C282.183 163.634 282.465 164.582 282.123 165.537C281.949 166.029 281.63 166.593 281.865 167.145C282.423 168.453 282.669 169.774 282.531 171.076L263.2 174.083L265.295 179.766C264.611 179.916 263.945 180.3 263.08 180.174C263.356 179.478 263.686 178.578 263.158 178.134C262.63 177.689 262.324 177.401 262.312 176.645C261.652 177.281 261.934 177.929 261.634 178.488L260.824 180.006C260.572 179.88 260.26 179.604 260.062 179.64C259.534 179.736 259.672 180.69 259.155 180.732C258.525 180.786 258.297 180.108 257.703 179.868L257.757 177.197C257.763 176.777 258.357 176.237 257.967 175.751C257.367 175.001 258.165 174.509 258.237 173.987C258.399 172.852 258.381 171.598 258.315 170.452L258.015 165.093L257.835 157.501L257.895 151.284L257.823 144.046L257.913 141.825L258.039 140.523L275.623 138.891L275.641 138.885Z" fill="#7E9462" stroke="#101727" stroke-width="0.5" stroke-linejoin="round"/>
<path d="M338.193 115.229C337.989 117.995 336.098 116.663 333.95 118.103C333.242 118.583 333.008 120.24 333.428 120.546C333.626 120.69 333.992 120.744 334.28 120.672L338.289 119.664C339.015 119.484 339.717 119.052 340.503 119.442C341.794 120.072 341.266 123.186 339.855 124.693C338.439 124.441 336.933 124.507 336.801 125.353C336.759 125.629 336.789 125.947 337.011 126.187C337.617 126.847 336.717 127.291 337.011 127.651C337.077 127.729 337.275 127.807 337.455 127.807H339.687C340.011 127.807 340.293 127.994 340.419 128.21C340.815 128.888 339.783 130.502 338.937 131.516C335.582 131.978 332.948 133.881 330.889 136.425L328.849 138.004L326.424 140.392C323.123 138.082 311.325 130.382 308.948 133.059C308.486 133.581 308.546 134.199 308.588 134.907C307.748 133.839 306.566 133.209 305.15 132.987C301.651 132.434 298.056 133.125 294.935 134.775L293.303 135.891L284.529 137.362C284.187 134.721 285.129 132.741 287.518 131.534L291.418 129.566C293.573 128.48 293.531 127.159 294.647 125.875C294.659 126.289 294.509 126.559 294.743 127.003C295.787 126.331 297 125.683 297.72 124.651C298.26 123.883 297.804 122.772 297.738 121.914L298.59 121.662L338.211 115.223L338.193 115.229Z" fill="#BCAC60" stroke="#101727" stroke-width="0.5" stroke-linejoin="round"/>
<path d="M238.28 159.159C238.376 159.363 238.466 159.621 238.61 159.639L239.24 159.729C239.336 160.089 238.826 160.341 238.724 160.539C238.532 161.283 238.592 161.991 238.952 162.658C239.384 162.622 239.78 162.418 240.164 162.61L239.63 164.38C239.522 164.734 240.044 165.118 239.942 165.466C239.792 165.994 239.054 166.144 239.162 167.381L238.352 167.987C238.226 169.139 237.211 168.887 237.175 169.499C237.151 169.871 237.739 170.027 237.535 170.339C237.487 170.417 236.491 170.693 236.635 171.035L236.953 171.756C236.773 171.99 236.317 172.14 236.317 172.428C236.317 172.668 236.593 172.986 236.701 173.22C236.563 173.646 236.029 173.838 235.789 174.258L236.125 176.701L246.663 175.939C247.408 175.885 248.296 175.59 248.98 175.939C249.52 177.043 247.774 177.685 248.818 179.329C249.148 179.857 249.37 180.313 249.976 180.608C251.266 181.238 250.354 182.684 251.519 182.864L252.743 183.038C252.839 183.17 253.085 183.266 253.043 183.476L252.887 184.202C253.523 184.238 254.003 184.55 254.099 185.031C254.339 186.261 252.779 186.363 252.323 187.629C252.209 187.947 251.951 188.151 251.687 188.301L253.205 189.616C253.601 189.958 253.757 190.486 253.445 190.894C253.241 191.164 252.737 191.458 252.335 191.176C251.813 190.81 251.428 190.15 250.792 189.94C250.282 189.772 249.718 190.186 249.256 190.54C248.992 190.348 249.04 190.072 249.04 189.712L247.684 191.938C247.408 192.394 246.927 192.448 246.489 192.46C246.009 192.472 245.817 191.884 245.481 191.746C243.525 191.446 243.513 192.556 243.075 192.616C242.667 192.67 242.378 192.478 241.976 192.37L238.868 191.536C238.436 191.422 238.093 191.116 237.985 190.768C237.877 190.42 237.985 190.042 238.298 189.694C237.127 188.877 235.831 188.679 234.433 188.655L230.448 188.577C229.019 188.547 227.465 188.667 226.211 187.965C225.605 187.629 225.185 187.353 224.434 187.521L221.488 188.181C221.086 188.271 220.684 188.169 220.426 187.959C219.759 187.437 220.095 186.213 220.69 185.157C220.978 184.646 220.654 184.268 220.414 184.004C220.486 183.536 220.486 182.774 220.768 182.3C221.032 181.85 221.344 181.556 221.11 180.956C220.942 180.524 220.984 179.923 221.26 179.521C221.578 179.053 221.548 178.543 221.728 178.063C221.932 177.505 222.136 177.103 221.728 176.521C220.912 175.368 222.202 174.078 220.882 172.752C220.186 172.056 220.047 171.173 219.627 170.327L218.949 168.965C218.727 168.521 218.139 168.185 218.115 167.585L217.875 159.921L238.274 159.135L238.28 159.159Z" fill="#7E9462" stroke="#101727" stroke-width="0.5" stroke-linejoin="round"/>
<path d="M258.068 140.518L257.942 141.82L257.852 144.04L257.924 151.278L257.864 157.495L258.044 165.087L258.344 170.446C258.41 171.599 258.422 172.847 258.266 173.981C258.194 174.503 257.396 174.995 257.996 175.745C258.386 176.232 257.798 176.772 257.786 177.192L257.732 179.862C257.726 180.168 257.672 180.715 257.366 180.937C256.892 181.279 256.429 180.715 256.159 180.474L254.605 180.949C253.657 181.033 252.775 181.489 252.061 182.131L252.751 183.049L251.526 182.875C250.362 182.695 251.274 181.249 249.984 180.619C249.378 180.318 249.156 179.862 248.826 179.34C247.788 177.696 249.534 177.054 248.988 175.949C248.31 175.601 247.421 175.889 246.671 175.949L236.133 176.712L235.797 174.269C236.031 173.855 236.571 173.663 236.709 173.231C236.601 172.997 236.325 172.679 236.325 172.439C236.325 172.151 236.781 171.995 236.961 171.767L236.643 171.046C236.493 170.71 237.489 170.428 237.543 170.35C237.747 170.038 237.159 169.882 237.183 169.51C237.219 168.898 238.233 169.15 238.359 167.998L239.17 167.392C239.062 166.155 239.8 166.005 239.95 165.477C240.046 165.129 239.53 164.745 239.638 164.391L240.172 162.621C239.788 162.434 239.392 162.633 238.96 162.669C238.6 162.002 238.539 161.294 238.732 160.55C238.834 160.358 239.338 160.1 239.248 159.74L238.618 159.65C238.473 159.632 238.383 159.374 238.287 159.17C238.203 158.558 238.401 157.951 238.774 157.297C238.461 157.009 238.107 156.961 237.735 156.793C238.017 155.815 239.134 155.197 238.275 154.711L237.243 155.647C236.823 155.077 237.225 154.555 237.351 154.069C237.561 153.27 238.017 152.85 238.437 152.184L238.69 150.042L239.314 149.646C239.734 149.376 239.068 148.403 239.854 147.671C240.124 147.419 240.454 147.305 240.976 147.497C241.588 146.237 241.018 145.127 242.302 144.701C242.536 143.608 242.62 142.336 243.419 141.61L258.068 140.524V140.518Z" fill="#BCAC60" stroke="#101727" stroke-width="0.5" stroke-linejoin="round"/>
<path d="M256.375 79.7715C256.969 81.0498 257.821 81.8 259.256 81.5659C260.306 81.3979 261.008 80.4857 261.812 80.2216C263.751 79.6275 265.821 79.4835 267.892 79.5015L274.187 79.5435L277.584 103.237C277.296 103.471 277.02 103.663 276.942 103.837C276.738 104.281 277.41 104.917 276.912 105.487C276.762 105.655 276.401 105.835 276.101 105.811C275.339 105.751 275.003 106.027 274.355 106.393C274.025 106.579 273.077 106.351 272.939 106.988L272.321 109.826C270.268 110.396 271.45 111.849 270.688 112.803C270.046 112.731 269.614 112.833 269.08 113.067C268.018 112.719 267.561 111.345 266.649 111.981C265.869 112.527 267.135 113.253 265.905 114.357C264.921 115.245 263.817 113.883 262.688 115.053C261.2 114.585 259.586 114.435 258.049 114.819C257.299 115.005 256.849 115.287 256.759 116.176C255.967 114.903 257.329 113.745 256.831 112.977C256.339 112.209 257.143 111.879 257.767 110.078L258.619 107.636C259.472 105.175 258.115 105.709 257.911 104.545C257.827 104.089 258.115 103.735 258.235 103.303C258.632 101.88 258.295 100.512 258.157 99.0418L256.375 79.7595V79.7715Z" fill="#A99E53" stroke="#101727" stroke-width="0.5" stroke-linejoin="round"/>
<path d="M326.404 140.403C325.75 141.046 325.15 141.628 324.694 142.522L322.785 146.285C322.623 146.603 322.329 146.867 322.101 146.951C321.783 147.071 321.387 146.927 321.033 146.771C320.553 147.515 320.907 148.253 321.237 149.141C320.823 149.141 320.343 149.051 320.007 149.249C319.233 149.717 319.377 151.602 318.14 151.872C316.832 150.264 316.628 153.654 315.77 153.564C315.572 153.54 315.416 153.456 315.158 153.294C314.954 154.098 314.342 154.333 313.681 154.675C313.357 154.843 313.976 156.241 313.357 156.259C313.183 156.259 313.015 156.091 312.679 156.013C312.781 157.423 312.913 158.593 312.073 158.659C310.507 158.335 309.018 155.923 307.746 154.369C307.314 152.634 306.27 151.23 304.865 150.174L300.827 147.137L298.006 144.622L295.935 141.7C295.353 140.877 294.489 140.331 293.391 140.421C291.903 138.885 292.107 137.571 293.271 135.896L294.903 134.78C298.024 133.13 301.613 132.44 305.118 132.992C306.534 133.214 307.716 133.844 308.556 134.912C308.514 134.204 308.454 133.586 308.916 133.064C311.293 130.387 323.092 138.087 326.392 140.397L326.404 140.403Z" fill="#849465" stroke="#101727" stroke-width="0.5" stroke-linejoin="round"/>
<path d="M358.831 49.9163C356.46 49.5022 357.756 48.1519 356.01 47.4558L351.953 34.6369C352.859 34.0848 352.451 32.9986 353.73 31.7683C354.054 30.2199 353.339 29.0497 354.732 27.3273C353.916 22.0401 353.964 15.5647 357.204 11.2617C357.816 12.1739 358.321 12.9601 359.215 13.3982C360.205 13.5782 361.051 12.9781 361.615 12.1619C363.224 11.5318 364.862 12.2639 365.768 13.7283C366.41 14.7605 366.788 15.8767 367.07 17.083L368.433 22.9763C368.715 24.2066 369.219 25.5749 370.275 26.2951L371.77 26.6792C372.346 27.2493 372.886 27.6214 373.642 27.9394C373.744 29.7879 374.704 29.4338 374.8 29.7999C374.944 30.334 374.554 30.8201 374.728 31.1802C374.794 31.3122 375.25 31.3662 375.268 31.5162C375.37 32.3504 374.494 32.9145 373.75 33.1186C370.593 33.9768 369.321 35.9812 367.641 36.2993C366.632 36.4913 365.882 36.5634 365.336 37.5296L363.92 40.0441L360.967 44.1611L360.079 46.7476C359.707 47.8399 359.029 48.7641 358.825 49.9043L358.831 49.9163Z" fill="#849465" stroke="#101727" stroke-width="0.5" stroke-linejoin="round"/>
<path d="M253.704 50.6051C252.462 51.5353 252.468 49.7649 250.968 50.245C250.842 49.0087 251.82 47.4784 251.286 47.2924L249.233 46.5782L248.795 45.63L246.161 45.3299L239.253 43.6195C237.927 43.2895 235.959 42.4613 235.802 41.5851C235.73 41.177 235.784 40.6429 236.055 40.3848L236.961 39.5206C238.617 39.2206 240.003 38.3984 241.288 37.3181L245.849 33.4653C246.785 32.6731 248.015 32.385 249.191 32.6791C248.003 34.0834 246.863 35.3317 246.257 37.1201C247.061 37.1141 247.487 36.502 248.099 35.9978C248.519 36.2619 248.507 36.7 248.399 37.3241C248.939 37.1081 249.287 36.9761 249.804 37.2521C249.816 37.5702 249.738 37.8883 249.9 38.1763C250.35 38.0083 250.512 37.8463 250.878 37.5522C251.226 38.0563 251.748 37.9243 252.156 38.1223L254.245 39.1425C254.917 39.4666 255.505 39.8207 256.021 40.4448L259.4 38.1763C261.29 36.91 264.807 35.6018 266.361 36.9941C266.589 37.7562 266.697 38.4704 267.796 38.5604L269.68 38.7105C270.856 38.8065 271.63 39.7187 272.015 40.6849C272.117 40.9369 272.765 41.249 272.453 41.5851C271.853 42.2272 270.772 42.1012 269.956 42.3473C269.752 42.5453 269.854 43.1214 269.986 43.4635C269.332 43.6796 268.858 43.3855 268.264 43.0614C267.165 42.4613 265.737 41.9092 264.549 42.4673L262.778 43.3075C261.308 44.0036 260.174 45.1619 258.878 46.1161C258.578 46.3382 258.325 46.5842 257.893 46.5002L258.301 44.4957C257.485 44.8558 257.401 45.666 256.897 46.2121C256.561 46.5782 256.015 46.3982 255.775 45.9241C254.425 46.5122 254.635 48.9667 253.704 50.5991V50.6051Z" fill="#B7AB65" stroke="#101727" stroke-width="0.5" stroke-linejoin="round"/>
<path d="M358.818 49.916C359.67 50.066 359.646 52.6946 358.47 53.3428C358.032 53.5828 357.732 53.9189 357.294 54.327L355.439 56.0674L348.262 57.8798C347.782 57.9998 347.65 57.7837 347.392 57.7477C347.554 57.0276 347.398 56.3974 347.014 55.7673C346.227 54.489 347.248 53.3668 346.816 52.7066C346.431 52.1125 346.816 51.6684 346.798 51.1223C346.792 50.7622 346.137 50.3181 346.515 49.7179C346.858 49.1718 346.702 48.5237 346.563 47.8875L346.846 46.1832L346.425 44.6048C346.011 43.0625 348.28 43.0805 348.352 40.6679C348.082 39.9598 348.094 39.2936 348.454 38.6095C348.034 38.0993 347.914 37.5772 348.004 37.0371C348.706 36.8871 348.88 36.365 349.09 35.7348C349.294 35.1167 350.524 35.5068 351.953 34.6426L356.01 47.4614C357.756 48.1576 356.46 49.5079 358.83 49.922L358.818 49.916Z" fill="#BCAC60" stroke="#101727" stroke-width="0.5" stroke-linejoin="round"/>
<path d="M348.014 37.0431C347.924 37.5832 348.044 38.1054 348.464 38.6155C348.104 39.2996 348.092 39.9658 348.362 40.6739C348.284 43.0925 346.021 43.0745 346.435 44.6108L346.855 46.1892L346.573 47.8935C346.711 48.5237 346.868 49.1778 346.525 49.7239C346.147 50.3241 346.801 50.7682 346.807 51.1283C346.819 51.6744 346.441 52.1185 346.825 52.7126C347.252 53.3728 346.237 54.495 347.024 55.7733C347.408 56.4034 347.564 57.0276 347.402 57.7537C346.207 57.5917 344.647 58.4799 343.189 58.4679L342.997 56.1994C342.823 54.1709 341.76 52.4666 340.872 50.7262L340.686 47.9535C340.386 46.9333 340.302 45.8831 340.674 44.8509C340.992 43.9687 340.86 43.4825 340.476 42.6364L339.996 40.5719C339.858 39.9718 339.978 39.3596 339.672 38.8375L348.014 37.0371V37.0431Z" fill="#A99E53" stroke="#101727" stroke-width="0.5" stroke-linejoin="round"/>
<path d="M343.507 76.7423C343.225 76.9703 343.183 77.4685 343.057 77.8225C342.799 77.7025 342.637 77.6185 342.529 77.6245C342.391 77.6365 342.313 77.9546 342.385 78.0326C342.769 78.4347 344.245 78.9568 343.597 80.4631C343.069 81.6874 344.191 83.6558 343.435 85.3002C343.075 86.0924 342.667 86.6985 342.733 87.6107C342.805 88.6129 342.319 89.4351 341.791 90.2213L341.13 92.1357C340.998 92.5258 340.65 92.7479 340.296 92.7359C339.966 92.7239 339.54 92.4658 339.516 92.0817L339.39 90.2513C338.826 90.7374 338.166 90.6774 337.83 90.1673C337.614 89.8372 337.332 89.8732 337.091 89.7712C336.707 89.6032 336.359 89.1591 336.005 88.781C335.957 88.655 336.233 88.3909 336.365 88.3489C336.089 87.9588 336.167 87.5507 335.993 87.1426L335.723 86.4885C335.657 86.3264 335.873 86.1224 336.017 85.9844L337.83 84.166C338.082 83.9139 338.328 83.1757 338.358 82.7977L337.842 80.8112C337.482 80.3071 337.061 80.073 336.773 79.3949C336.635 79.0708 335.963 78.8428 335.939 78.2426L335.837 75.524L336.875 73.4416C337.001 72.8294 337.157 72.4693 337.452 72.0312C337.782 72.3493 338.31 72.1933 338.73 72.3313L342.241 73.5136C343.117 73.8076 343.189 75.0799 342.967 75.8301C342.823 76.3042 343.165 76.7243 343.507 76.7363V76.7423Z" fill="#849465" stroke="#101727" stroke-width="0.5" stroke-linejoin="round"/>
<path d="M358.482 53.3496C358.578 54.952 360.205 54.6819 359.881 55.24C359.641 55.6541 358.789 55.5941 358.512 57.1125C358.194 58.8588 360.247 57.6106 360.613 59.2789C360.745 59.8791 361.171 60.2091 361.711 60.4252C362.191 60.6172 362.263 61.3014 362.653 61.5354L363.62 62.1236C363.95 62.6217 363.656 63.1318 363.32 63.5099C363.109 63.7499 362.647 64.152 362.221 63.882C361.741 63.5759 361.669 62.9277 361.315 62.4776C360.085 63.5279 360.037 64.3801 359.767 64.6861C358.5 63.7859 357.618 62.5737 356.994 61.1333L354.312 61.5774L343.125 64.044C343.215 62.2076 343.509 60.2992 343.185 58.4688C344.643 58.4808 346.204 57.5986 347.398 57.7546C347.662 57.7906 347.794 58.0067 348.268 57.8866L355.446 56.0742L357.3 54.3338C357.738 53.9257 358.038 53.5897 358.476 53.3496H358.482Z" fill="#A99E53" stroke="#101727" stroke-width="0.5" stroke-linejoin="round"/>
<path d="M354.309 61.582L355.515 66.9712C355.551 67.1273 355.636 67.2293 355.738 67.2833C355.413 67.7154 355.005 67.7934 354.369 67.8294C353.613 67.8714 353.019 68.8316 352.371 69.0237C351.105 69.4078 349.88 69.5458 348.71 70.236L347.51 70.9441C347.006 71.2442 346.471 71.4362 346.393 72.2284L344.929 72.8886L342.991 64.6067C342.925 64.3306 343.111 64.1866 343.123 64.0486L354.309 61.582Z" fill="#BCAC60" stroke="#101727" stroke-width="0.5" stroke-linejoin="round"/>
<path d="M340.02 94.7223C339.42 94.5842 338.652 94.8723 338.022 95.0703C335.087 96.0126 333.257 86.9205 332.741 86.8125L331.684 87.0105L323 87.3346C320.246 87.4366 317.599 87.7487 314.923 88.3669C311.67 89.123 308.135 90.8034 308.903 94.2122C309.209 95.5865 310.001 97.3448 310.968 97.3148C311.292 97.3088 311.652 97.1828 311.88 96.8767L313.638 94.5062C315.079 92.5738 315.433 91.9376 317.593 92.0697C318.451 92.1237 319.105 92.0637 319.862 92.6158C321.734 93.9901 322.76 93.1739 323.138 94.3202C323.661 95.9105 326.271 95.4004 326.607 97.4229C326.805 98.5991 325.593 99.6854 325.971 100.358C326.055 100.508 326.337 100.574 326.541 100.532C326.697 100.219 327.105 100.123 327.507 100.093L330.196 99.8774C330.58 99.8474 330.706 101.384 331.672 101.072C332.134 100.922 332.356 100.334 332.092 99.8534L330.1 96.1806C329.902 95.8205 329.998 95.3824 330.202 95.1124C330.364 94.9023 330.862 94.6442 331.15 94.9083C332.332 95.9765 332.374 99.0432 334.007 99.4933C334.607 99.6554 334.655 98.5631 334.811 98.3231C336.077 98.3291 335.333 100.37 336.449 101.888C336.707 102.242 337.59 102.224 337.92 102.122C338.028 101.21 337.944 100.249 338.646 99.6794C339.486 98.9952 340.482 98.2871 340.782 97.1588C341.022 96.2646 340.53 95.3344 340.014 94.7223H340.02Z" fill="#BCAC60" stroke="#101727" stroke-width="0.5" stroke-linejoin="round"/>
<path d="M339.01 93.1205C338.446 92.6584 337.635 92.2983 337.473 91.5602L337.095 89.7838C336.711 89.6157 336.363 89.1716 336.009 88.7936C335.961 88.6675 336.237 88.4035 336.369 88.3615C336.093 87.9714 336.171 87.5633 335.997 87.1552L335.727 86.501C335.661 86.339 335.877 86.135 336.021 85.9969C335.151 85.4748 334.215 85.5168 333.326 86.087C333.02 86.285 332.678 86.357 332.732 86.8311C333.248 86.9391 335.079 96.0252 338.013 95.089C338.644 94.8849 339.418 94.6029 340.012 94.7409C340.054 94.0507 339.598 93.5406 339.004 93.1325L339.01 93.1205Z" fill="#7E9462" stroke="#101727" stroke-width="0.5" stroke-linejoin="round"/>
<path d="M359.76 64.6934C359.628 64.8434 359.892 65.2515 359.406 65.3176C358.698 65.4076 358.788 63.8892 357.929 64.2853C357.071 64.6814 357.954 65.6176 357.731 66.3318C356.951 66.4038 356.159 66.7099 355.733 67.286C355.631 67.232 355.547 67.13 355.511 66.9739L354.305 61.5847L356.987 61.1406C357.617 62.5809 358.5 63.7932 359.76 64.6934Z" fill="#7E9462" stroke="#101727" stroke-width="0.5" stroke-linejoin="round"/>
<path d="M154.468 53.6058L153.226 71.3878L152.068 87.7955L148.965 87.5914C139.213 86.7632 129.587 85.611 119.895 84.3267C119.871 84.5247 119.751 85.1369 119.511 85.1009L107.094 83.3425L108.486 74.1904L111.763 52.3576L112.141 49.2969L154.468 53.5938V53.6058Z" fill="#A99E53" stroke="#101727" stroke-width="0.5" stroke-linejoin="round"/>
<path d="M200.64 76.9381L201.114 79.0026C201.474 79.5727 201.888 79.9928 201.414 80.7549L202.014 81.5591C201.834 82.2253 202.128 82.5374 202.476 82.9935L202.74 85.1659C203.04 85.7481 203.802 86.0361 203.514 86.9483C203.358 87.4404 203.646 88.0046 203.994 88.3406C204.456 88.7847 204.162 89.5289 204.234 89.985L204.57 92.1395C204.9 92.8897 205.627 93.2797 205.771 94.1319C205.909 94.9661 205.927 96.2624 206.647 96.8925C207.553 97.6907 208.363 98.3749 208.381 99.6052L193 99.7312L165.13 98.4589C164.848 98.4469 164.553 98.4589 164.151 98.3209L164.559 89.3129C160.341 89.5169 156.29 89.3009 152.065 89.0128C151.963 88.5267 152.047 88.1606 152.077 87.7885L153.235 71.3809L169.895 72.4011L187.275 73.0312C188.283 73.0672 189.291 72.9112 190.083 73.6434C191.559 75.0057 193.15 73.9734 195.034 74.4115L197.741 75.0417C198.455 75.2097 199.049 76.428 200.093 76.1579L200.64 76.9321V76.9381Z" fill="#BCAC60" stroke="#101727" stroke-width="0.5" stroke-linejoin="round"/>
<path d="M208.382 99.6069C208.394 100.597 210.105 100.165 210.399 100.669C210.897 101.533 209.318 103.19 210.267 104.546L211.947 106.136C212.223 106.4 212.703 106.598 212.727 107.145L213.393 125.263C196.872 125.359 180.38 124.975 163.906 124.14L165.131 98.4727L193.001 99.7449L208.382 99.6189V99.6069Z" fill="#A99E53" stroke="#101727" stroke-width="0.5" stroke-linejoin="round"/>
<path d="M163.906 124.135C180.38 124.969 196.871 125.353 213.393 125.257C213.483 125.347 213.627 125.479 213.633 125.689L213.795 130.094L214.641 153.871L213.639 153.133C212.943 153.217 212.607 152.755 212.109 152.581C211.527 152.377 210.968 152.371 210.47 151.987C209.678 151.375 208.868 151.681 208.13 152.095C207.512 151.957 206.762 151.597 206.011 151.843C204.649 152.287 203.245 152.269 201.84 152.395C201.018 152.467 200.382 152.527 199.668 152.059C199.146 151.723 198.474 152.281 197.982 152.257C197.153 152.209 196.187 151.645 195.389 152.101C194.921 152.365 194.561 152.731 193.979 152.641C193.217 152.527 192.814 151.411 192.382 151.357C191.92 151.297 190.978 152.779 190.576 152.191L189.262 150.289C187.113 150.775 186.279 149.754 186.141 149.73L182.522 149.178C182 149.1 181.988 146.892 180.248 147.33C179.437 147.534 178.981 146.766 177.835 147.012L176.647 145.548L175.831 145.272L176.317 128.552L172.428 128.438L158.697 127.958C157.971 127.934 157.377 127.91 156.734 127.808L156.968 123.391L158.709 123.607L163.912 124.135H163.906Z" fill="#BCAC60" stroke="#101727" stroke-width="0.5" stroke-linejoin="round"/>
<path d="M243.407 141.605C242.609 142.331 242.525 143.603 242.291 144.695C241.007 145.122 241.583 146.232 240.965 147.492C240.443 147.3 240.113 147.414 239.843 147.666C239.057 148.398 239.723 149.371 239.303 149.641L238.678 150.037L238.426 152.179C238.006 152.845 237.55 153.265 237.34 154.064C237.214 154.544 236.806 155.072 237.232 155.642L238.264 154.706C239.129 155.192 238.012 155.816 237.724 156.788C238.096 156.956 238.45 156.998 238.762 157.292C238.39 157.946 238.186 158.553 238.276 159.165L217.878 159.951L217.638 153.637L215.645 154.448C215.375 154.556 215.069 154.67 214.841 154.412C214.733 154.292 214.649 154.088 214.643 153.884L213.797 130.106L216.341 130.076L243.78 128.588C244.83 130.088 242.849 131.162 243.263 132.819C244.536 132.915 245.724 132.819 247.152 132.639C246.96 134.307 245.244 135.507 245.394 136.342C245.544 137.158 245.106 137.506 244.734 138.106C244.308 138.796 245.4 140.669 244.056 141.095C243.72 141.203 243.606 141.443 243.413 141.611L243.407 141.605Z" fill="#A99E53" stroke="#101727" stroke-width="0.5" stroke-linejoin="round"/>
<path d="M232.343 94.5055L232.313 94.8356C232.187 94.8776 232.187 95.0456 232.343 95.0336C232.637 95.6878 232.529 96.3719 232.415 97.1161C232.313 97.7763 232.727 98.4184 232.835 99.0185C233.111 100.567 233.97 101.677 235.314 102.445L236.49 103.802C239.041 104.78 237.348 107.39 239.425 107.943C239.755 107.756 240.151 107.192 240.571 107.24C240.991 107.288 241.369 107.42 241.621 107.871C242.137 108.795 242.059 109.863 241.573 110.805L241.177 112.305C241.069 112.708 240.787 113.314 241.201 113.638C241.957 114.226 242.617 114.838 243.2 115.606C244.184 116.909 245.612 115.858 245.642 116.782C245.69 118.259 247.383 118.169 246.986 120.881C246.8 122.154 248.007 123.486 249.183 123.918C249.711 124.908 249.597 126.223 249.477 127.249C249.015 127.303 248.625 127.189 248.295 127.387C248.043 127.537 247.947 128.029 247.905 128.269L258.083 127.999L258.239 125.881L269.822 125.292L284.825 123.654L297.74 121.938C297.806 122.796 298.262 123.906 297.722 124.674C296.996 125.706 295.789 126.355 294.745 127.027C294.511 126.583 294.661 126.313 294.649 125.899C293.533 127.183 293.581 128.503 291.42 129.589L287.519 131.558C285.131 132.764 284.189 134.744 284.531 137.385L275.655 138.891L258.071 140.524L243.422 141.61C243.608 141.436 243.728 141.196 244.064 141.094C245.408 140.674 244.316 138.795 244.742 138.105C245.114 137.505 245.552 137.157 245.402 136.341C245.252 135.513 246.968 134.306 247.16 132.638C245.732 132.818 244.544 132.914 243.272 132.818C242.858 131.162 244.838 130.081 243.788 128.587L216.35 130.075L213.805 130.105L213.643 125.7C213.637 125.49 213.493 125.358 213.403 125.268L212.737 107.15C212.719 106.604 212.239 106.406 211.957 106.142L210.276 104.552C209.328 103.195 210.906 101.545 210.408 100.675C210.114 100.171 208.41 100.603 208.392 99.6127C208.374 98.3824 207.564 97.6982 206.657 96.9001C205.937 96.2699 205.919 94.9736 205.781 94.1394L230.909 93.2812C231.377 93.8754 231.821 94.2355 232.361 94.5115L232.343 94.5055Z" fill="#B7AB65" stroke="#101727" stroke-width="0.5" stroke-linejoin="round"/>
<path d="M232.687 67.9375C232.897 69.4078 233.905 70.7761 233.473 71.2802C232.2 72.7446 233.737 73.1047 234.091 74.833C234.289 75.7933 235.921 75.0851 236.599 76.3154C236.756 76.4894 237.302 76.4054 237.482 76.3514L239.45 78.974C240.626 80.4983 240.968 82.7128 239.804 84.3452C238.586 86.0495 235.249 86.2596 234.961 88.6481C235.873 90.1665 235.663 92.0929 234.079 93.1611L233.035 94.1514C232.807 94.3674 232.603 94.5054 232.351 94.5054C231.81 94.2294 231.372 93.8693 230.898 93.2752L205.771 94.1333C205.633 93.2812 204.9 92.8911 204.57 92.1409L204.234 89.9864C204.162 89.5363 204.462 88.7861 203.994 88.3421C203.646 88.006 203.358 87.4479 203.514 86.9497C203.802 86.0315 203.04 85.7435 202.74 85.1673L202.476 82.9949C202.128 82.5388 201.834 82.2267 202.014 81.5605L201.414 80.7564C201.888 79.9942 201.474 79.5741 201.114 79.004L200.639 76.9395C200.892 76.6814 200.663 76.3514 200.687 76.0033L200.783 74.3529C200.555 73.5187 200.537 72.7926 200.934 72.0364C201.156 71.6163 200.639 71.2562 200.543 70.9742C200.369 70.4521 200.693 69.9179 200.705 69.4678L202.104 69.4858V68.6997L222.172 68.4956L232.693 67.9435L232.687 67.9375Z" fill="#A99E53" stroke="#101727" stroke-width="0.5" stroke-linejoin="round"/>
<path d="M232.356 95.0272C232.199 95.0393 232.199 94.8704 232.326 94.8281C232.332 94.8824 232.326 94.9729 232.356 95.0272Z" fill="#F7BE46" stroke="#101727" stroke-width="0.5" stroke-linejoin="round"/>
<path d="M199.905 47.2938L200.565 47.2758L200.073 48.7762C199.425 50.7506 200.541 51.9569 201.957 53.4512L202.089 68.7006V69.4868L200.697 69.4688C200.685 69.9189 200.367 70.453 200.535 70.9751C200.625 71.2512 201.147 71.6113 200.925 72.0373C200.529 72.7935 200.547 73.5197 200.775 74.3539L200.679 76.0042C200.661 76.3523 200.883 76.6824 200.631 76.9404L200.085 76.1663C199.035 76.4363 198.447 75.2121 197.732 75.05L195.026 74.4199C193.141 73.9818 191.551 75.014 190.075 73.6517C189.283 72.9195 188.268 73.0756 187.266 73.0396L169.886 72.4094L153.227 71.3892L154.469 53.6072L155.015 45.5234L184.878 47.0718L199.899 47.2998L199.905 47.2938Z" fill="#B7AB65" stroke="#101727" stroke-width="0.5" stroke-linejoin="round"/>
<path opacity="0.25" d="M67.6586 62.2605C81.8941 62.2605 93.4343 50.7203 93.4343 36.4847C93.4343 22.2492 81.8941 10.709 67.6586 10.709C53.423 10.709 41.8828 22.2492 41.8828 36.4847C41.8828 50.7203 53.423 62.2605 67.6586 62.2605Z" fill="#E9BE51" stroke="white" stroke-width="0.5" stroke-miterlimit="10"/>
<path opacity="0.5" d="M69.8659 56.7998C56.867 58.1741 45.9566 47.2697 47.3369 34.2708C48.3391 24.7946 55.9548 17.1789 65.4309 16.1767C78.4358 14.7964 89.3402 25.7068 87.9659 38.7117C86.9637 48.1879 79.342 55.8036 69.8719 56.8058L69.8659 56.7998Z" fill="#E9BE51" stroke="white" stroke-width="0.5" stroke-miterlimit="10"/>
<path opacity="0.75" d="M69.191 51.4946C59.6608 52.4488 51.691 44.4731 52.6393 34.9429C53.3414 27.8914 59.0487 22.1841 66.1003 21.4819C75.6304 20.5277 83.6062 28.5035 82.652 38.0336C81.9438 45.0852 76.2425 50.7925 69.191 51.4946Z" fill="#E9BE51" stroke="white" stroke-width="0.5" stroke-miterlimit="10"/>
<path d="M68.9147 46.1435C62.5533 46.9537 57.1821 41.5765 57.9863 35.2151C58.5384 30.8761 62.0372 27.3774 66.3762 26.8252C72.7376 26.015 78.1148 31.3922 77.3046 37.7537C76.7525 42.0926 73.2537 45.5914 68.9147 46.1435Z" fill="#E9BE51" stroke="white" stroke-width="0.5" stroke-miterlimit="10"/>
<path d="M67.642 3.13086C61.4546 3.13086 56.4375 8.14798 56.4375 14.3354C56.4375 25.1258 67.642 36.4923 67.642 36.4923C67.642 36.4923 78.8465 25.0237 78.8465 14.3354C78.8465 8.14798 73.8294 3.13086 67.642 3.13086Z" fill="#01654D" stroke="#101727" stroke-width="0.5" stroke-miterlimit="10"/>
<path d="M78.8854 15.5195V15.5375H78.8793C78.8793 15.5675 78.8854 15.5975 78.8854 15.6336C78.8854 17.506 73.8502 19.0243 67.6328 19.0243C64.3681 19.0243 61.4275 18.6042 59.375 17.9381C60.6713 20.0986 64.3681 21.959 68.8991 22.4991C74.7684 23.2012 79.8096 21.4068 80.1576 18.4962C80.2777 17.476 79.8036 16.4497 78.8854 15.5255V15.5195Z" fill="#E9BE51" stroke="#101727" stroke-width="0.5" stroke-miterlimit="10"/>
<path d="M67.6431 0.256001C61.4317 0.256001 56.3906 5.29112 56.3906 11.5085V15.6374C56.3906 16.5256 57.5249 17.3358 59.3793 17.9359C61.4317 18.6081 64.3724 19.0222 67.6371 19.0222C73.8485 19.0222 78.8896 17.5038 78.8896 15.6314V11.5025C78.8896 5.29112 73.8545 0.25 67.6371 0.25L67.6431 0.256001Z" fill="#E9BE51" stroke="#101727" stroke-width="0.5" stroke-miterlimit="10"/>
<path d="M65.7589 0.412109C72.4984 0.412109 77.9596 5.55526 77.9596 12.4208V14.1432C77.9596 14.2092 77.9176 14.2692 77.8516 14.2932L75.8891 14.9354C75.7871 14.9714 75.6851 14.8933 75.6851 14.7853V13.483C75.6851 6.6175 70.2239 1.04825 63.4844 1.04825" stroke="#101727" stroke-width="0.5" stroke-miterlimit="10"/>
<path d="M77.9531 16.8809H77.9659" stroke="#101727" stroke-width="0.5" stroke-miterlimit="10"/>
<path opacity="0.25" d="M92.8789 140.652C112.716 140.652 128.797 124.571 128.797 104.734C128.797 84.8974 112.716 68.8164 92.8789 68.8164C73.042 68.8164 56.9609 84.8974 56.9609 104.734C56.9609 124.571 73.042 140.652 92.8789 140.652Z" fill="#E9BE51" stroke="white" stroke-width="0.5" stroke-miterlimit="10"/>
<path opacity="0.5" d="M95.9713 133.04C77.8532 134.961 62.6578 119.765 64.5783 101.647C65.9766 88.4444 76.587 77.834 89.7899 76.4357C107.908 74.5153 123.109 89.7106 121.189 107.829C119.791 121.032 109.174 131.642 95.9773 133.04H95.9713Z" fill="#E9BE51" stroke="white" stroke-width="0.5" stroke-miterlimit="10"/>
<path opacity="0.75" d="M95.038 125.65C81.763 126.976 70.6485 115.862 71.9748 102.587C72.9591 92.7564 80.9048 84.8106 90.729 83.8264C104.004 82.5001 115.124 93.6146 113.792 106.89C112.808 116.72 104.862 124.666 95.032 125.644L95.038 125.65Z" fill="#E9BE51" stroke="white" stroke-width="0.5" stroke-miterlimit="10"/>
<path d="M94.6576 118.195C85.7936 119.317 78.3099 111.834 79.4322 102.97C80.2003 96.9262 85.0794 92.0471 91.1168 91.2789C99.9807 90.1507 107.47 97.6403 106.342 106.504C105.574 112.548 100.695 117.427 94.6516 118.189L94.6576 118.195Z" fill="#E9BE51" stroke="white" stroke-width="0.5" stroke-miterlimit="10"/>
<path d="M92.8764 71.707C86.689 71.707 81.6719 76.7241 81.6719 82.9115C81.6719 93.7019 92.8764 105.068 92.8764 105.068C92.8764 105.068 104.081 93.5999 104.081 82.9115C104.081 76.7241 99.0638 71.707 92.8764 71.707Z" fill="#01654D" stroke="#101727" stroke-width="0.5" stroke-miterlimit="10"/>
<path d="M104.12 84.0996V84.1176H104.114C104.114 84.1476 104.12 84.1776 104.12 84.2136C104.12 86.0861 99.0846 87.6044 92.8672 87.6044C89.6025 87.6044 86.6618 87.1843 84.6094 86.5181C85.9057 88.6786 89.6025 90.539 94.1335 91.0792C100.003 91.7813 105.044 89.9869 105.392 87.0763C105.512 86.056 105.038 85.0298 104.12 84.1056V84.0996Z" fill="#E9BE51" stroke="#101727" stroke-width="0.5" stroke-miterlimit="10"/>
<path d="M92.8697 68.8341C86.6583 68.8341 81.6172 73.8692 81.6172 80.0866V84.2156C81.6172 85.1038 82.7514 85.9139 84.6059 86.5141C86.6583 87.1862 89.599 87.6003 92.8637 87.6003C99.0751 87.6003 104.116 86.082 104.116 84.2095V80.0806C104.116 73.8692 99.0811 68.8281 92.8637 68.8281L92.8697 68.8341Z" fill="#E9BE51" stroke="#101727" stroke-width="0.5" stroke-miterlimit="10"/>
<path d="M90.9933 68.9883C97.7328 68.9883 103.194 74.1314 103.194 80.997V82.7193C103.194 82.7854 103.152 82.8454 103.086 82.8694L101.124 83.5115C101.021 83.5475 100.919 83.4695 100.919 83.3615V82.0592C100.919 75.1937 95.4583 69.6244 88.7188 69.6244" stroke="#101727" stroke-width="0.5" stroke-miterlimit="10"/>
<path d="M103.195 85.459H103.208" stroke="#101727" stroke-width="0.5" stroke-miterlimit="10"/>
<path opacity="0.25" d="M186.015 181.219C197.854 181.219 207.452 171.622 207.452 159.782C207.452 147.943 197.854 138.346 186.015 138.346C174.176 138.346 164.578 147.943 164.578 159.782C164.578 171.622 174.176 181.219 186.015 181.219Z" fill="#E9BE51" stroke="white" stroke-width="0.5" stroke-miterlimit="10"/>
<path opacity="0.5" d="M187.858 176.677C177.043 177.823 167.975 168.749 169.121 157.94C169.956 150.061 176.287 143.729 184.167 142.889C194.981 141.743 204.055 150.817 202.909 161.631C202.075 169.511 195.737 175.842 187.858 176.677Z" fill="#E9BE51" stroke="white" stroke-width="0.5" stroke-miterlimit="10"/>
<path opacity="0.75" d="M187.3 172.26C179.378 173.053 172.741 166.421 173.533 158.493C174.121 152.63 178.862 147.883 184.732 147.295C192.659 146.503 199.291 153.134 198.499 161.062C197.911 166.925 193.169 171.672 187.3 172.26Z" fill="#E9BE51" stroke="white" stroke-width="0.5" stroke-miterlimit="10"/>
<path d="M187.06 167.812C181.766 168.485 177.301 164.014 177.973 158.726C178.43 155.12 181.34 152.209 184.947 151.747C190.24 151.075 194.711 155.546 194.039 160.839C193.583 164.446 190.666 167.356 187.06 167.812Z" fill="#E9BE51" stroke="white" stroke-width="0.5" stroke-miterlimit="10"/>
<path d="M185.951 126.361C179.625 126.361 174.5 131.486 174.5 137.812C174.5 148.842 185.951 160.455 185.951 160.455C185.951 160.455 197.401 148.734 197.401 137.812C197.401 131.486 192.276 126.361 185.951 126.361Z" fill="#01654D" stroke="#101727" stroke-width="0.5" stroke-miterlimit="10"/>
<path d="M197.442 139.025V139.043H197.436C197.436 139.073 197.442 139.109 197.442 139.139C197.442 141.054 192.293 142.602 185.944 142.602C182.607 142.602 179.6 142.176 177.5 141.492C178.826 143.7 182.607 145.603 187.234 146.155C193.235 146.869 198.391 145.039 198.745 142.062C198.871 141.018 198.385 139.974 197.442 139.025Z" fill="#E9BE51" stroke="#101727" stroke-width="0.5" stroke-miterlimit="10"/>
<path d="M185.944 123.428C179.594 123.428 174.445 128.577 174.445 134.926V139.145C174.445 140.051 175.604 140.88 177.5 141.498C179.6 142.182 182.607 142.608 185.944 142.608C192.293 142.608 197.442 141.06 197.442 139.145V134.926C197.442 128.577 192.293 123.428 185.944 123.428Z" fill="#E9BE51" stroke="#101727" stroke-width="0.5" stroke-miterlimit="10"/>
<path d="M184.026 123.584C190.915 123.584 196.496 128.841 196.496 135.857V137.621C196.496 137.693 196.454 137.753 196.388 137.771L194.384 138.431C194.282 138.467 194.174 138.389 194.174 138.281V136.949C194.174 129.927 188.593 124.238 181.703 124.238" stroke="#101727" stroke-width="0.5" stroke-miterlimit="10"/>
<path d="M196.484 140.412H196.492" stroke="#101727" stroke-width="0.5" stroke-miterlimit="10"/>
<path opacity="0.25" d="M173.888 76.635C180.798 76.635 186.401 71.0328 186.401 64.1222C186.401 57.2115 180.798 51.6094 173.888 51.6094C166.977 51.6094 161.375 57.2115 161.375 64.1222C161.375 71.0328 166.977 76.635 173.888 76.635Z" fill="#E9BE51" stroke="white" stroke-width="0.5" stroke-miterlimit="10"/>
<path opacity="0.5" d="M174.96 73.985C168.653 74.6511 163.359 69.3579 164.025 63.0505C164.512 58.4535 168.208 54.7567 172.805 54.2706C179.119 53.5984 184.412 58.8976 183.74 65.205C183.254 69.802 179.557 73.4988 174.96 73.985Z" fill="#E9BE51" stroke="white" stroke-width="0.5" stroke-miterlimit="10"/>
<path opacity="0.75" d="M174.643 71.4076C170.016 71.8697 166.151 67.9988 166.607 63.3718C166.949 59.951 169.716 57.1784 173.142 56.8364C177.769 56.3742 181.64 60.2451 181.178 64.8721C180.836 68.2929 178.07 71.0655 174.643 71.4076Z" fill="#E9BE51" stroke="white" stroke-width="0.5" stroke-miterlimit="10"/>
<path d="M174.5 68.8106C171.416 69.2007 168.805 66.5961 169.195 63.5054C169.465 61.3989 171.163 59.7006 173.264 59.4305C176.355 59.0344 178.959 61.645 178.569 64.7357C178.299 66.8422 176.601 68.5405 174.494 68.8046L174.5 68.8106Z" fill="#E9BE51" stroke="white" stroke-width="0.5" stroke-miterlimit="10"/>
<path d="M173.876 30.7676C167.689 30.7676 162.672 35.7847 162.672 41.9721C162.672 52.7625 173.876 64.129 173.876 64.129C173.876 64.129 185.081 52.6605 185.081 41.9721C185.081 35.7847 180.064 30.7676 173.876 30.7676Z" fill="#01654D" stroke="#101727" stroke-width="0.5" stroke-miterlimit="10"/>
<path d="M185.12 43.1582V43.1762H185.114C185.114 43.2062 185.12 43.2362 185.12 43.2722C185.12 45.1446 180.085 46.663 173.867 46.663C170.602 46.663 167.662 46.2429 165.609 45.5767C166.906 47.7372 170.602 49.5976 175.133 50.1378C181.003 50.8399 186.044 49.0455 186.392 46.1349C186.512 45.1146 186.038 44.0884 185.12 43.1642V43.1582Z" fill="#E9BE51" stroke="#101727" stroke-width="0.5" stroke-miterlimit="10"/>
<path d="M173.87 27.8947C167.658 27.8947 162.617 32.9298 162.617 39.1472V43.2761C162.617 44.1643 163.751 44.9745 165.606 45.5746C167.658 46.2468 170.599 46.6609 173.864 46.6609C180.075 46.6609 185.116 45.1425 185.116 43.2701V39.1412C185.116 32.9298 180.081 27.8887 173.864 27.8887L173.87 27.8947Z" fill="#E9BE51" stroke="#101727" stroke-width="0.5" stroke-miterlimit="10"/>
<path d="M171.993 28.0508C178.733 28.0508 184.194 33.1939 184.194 40.0595V41.7818C184.194 41.8479 184.152 41.9079 184.086 41.9319L182.124 42.574C182.021 42.61 181.919 42.532 181.919 42.424V41.1217C181.919 34.2562 176.458 28.6869 169.719 28.6869" stroke="#101727" stroke-width="0.5" stroke-miterlimit="10"/>
<path d="M184.18 44.5176H184.193" stroke="#101727" stroke-width="0.5" stroke-miterlimit="10"/>
<path opacity="0.25" d="M47.5857 208.576C54.6488 208.576 60.3746 202.85 60.3746 195.787C60.3746 188.724 54.6488 182.998 47.5857 182.998C40.5226 182.998 34.7969 188.724 34.7969 195.787C34.7969 202.85 40.5226 208.576 47.5857 208.576Z" fill="#E9BE51" stroke="white" stroke-width="0.5" stroke-miterlimit="10"/>
<path opacity="0.5" d="M48.6862 205.861C42.2347 206.546 36.8275 201.132 37.5117 194.687C38.0098 189.988 41.7846 186.207 46.4897 185.709C52.9411 185.025 58.3543 190.438 57.6702 196.889C57.1721 201.588 53.3912 205.369 48.6922 205.867L48.6862 205.861Z" fill="#E9BE51" stroke="white" stroke-width="0.5" stroke-miterlimit="10"/>
<path opacity="0.75" d="M48.35 203.233C43.621 203.707 39.6661 199.746 40.1402 195.023C40.4883 191.524 43.3209 188.691 46.8197 188.343C51.5487 187.869 55.5036 191.83 55.0295 196.553C54.6814 200.052 51.8488 202.885 48.35 203.233Z" fill="#E9BE51" stroke="white" stroke-width="0.5" stroke-miterlimit="10"/>
<path d="M48.2017 200.581C45.045 200.984 42.3804 198.319 42.7825 195.162C43.0585 193.014 44.7929 191.273 46.9414 190.997C50.0981 190.595 52.7627 193.26 52.3606 196.417C52.0846 198.565 50.3502 200.305 48.1957 200.575L48.2017 200.581Z" fill="#E9BE51" stroke="white" stroke-width="0.5" stroke-miterlimit="10"/>
<path d="M48.5378 161.254C42.2724 161.254 37.1953 166.331 37.1953 172.596C37.1953 183.519 48.5378 195.023 48.5378 195.023C48.5378 195.023 59.8804 183.417 59.8804 172.596C59.8804 166.331 54.8032 161.254 48.5378 161.254Z" fill="#01654D" stroke="#101727" stroke-width="0.5" stroke-miterlimit="10"/>
<path d="M59.9301 173.797V173.815H59.9241C59.9241 173.845 59.9301 173.881 59.9301 173.911C59.9301 175.807 54.829 177.344 48.5396 177.344C45.2328 177.344 42.2622 176.918 40.1797 176.239C41.494 178.424 45.2388 180.308 49.8178 180.854C55.7592 181.563 60.8663 179.75 61.2144 176.804C61.3404 175.771 60.8543 174.733 59.9241 173.797H59.9301Z" fill="#E9BE51" stroke="#101727" stroke-width="0.5" stroke-miterlimit="10"/>
<path d="M48.539 158.344C42.2496 158.344 37.1484 163.445 37.1484 169.734V173.911C37.1484 174.811 38.3007 175.628 40.1791 176.24C42.2616 176.918 45.2322 177.344 48.539 177.344C54.8284 177.344 59.9295 175.808 59.9295 173.911V169.734C59.9295 163.445 54.8284 158.344 48.539 158.344Z" fill="#E9BE51" stroke="#101727" stroke-width="0.5" stroke-miterlimit="10"/>
<path d="M46.6483 158.506C53.4718 158.506 58.999 163.709 58.999 170.665V172.411C58.999 172.477 58.957 172.543 58.891 172.561L56.9046 173.215C56.8025 173.251 56.6945 173.173 56.6945 173.065V171.745C56.6945 164.795 51.1673 159.16 44.3438 159.16" stroke="#101727" stroke-width="0.5" stroke-miterlimit="10"/>
<path d="M58.9766 175.17H58.9894" stroke="#101727" stroke-width="0.5" stroke-miterlimit="10"/>
<path opacity="0.25" d="M302.079 114.545C311.585 114.545 319.291 106.839 319.291 97.3329C319.291 87.8271 311.585 80.1211 302.079 80.1211C292.573 80.1211 284.867 87.8271 284.867 97.3329C284.867 106.839 292.573 114.545 302.079 114.545Z" fill="#E9BE51" stroke="white" stroke-width="0.5" stroke-miterlimit="10"/>
<path opacity="0.5" d="M303.561 110.896C294.877 111.814 287.598 104.534 288.516 95.8505C289.188 89.5251 294.271 84.4359 300.597 83.7698C309.281 82.8516 316.566 90.1312 315.642 98.8151C314.97 105.141 309.887 110.224 303.561 110.896Z" fill="#E9BE51" stroke="white" stroke-width="0.5" stroke-miterlimit="10"/>
<path opacity="0.75" d="M303.105 107.356C296.744 107.992 291.421 102.663 292.051 96.3014C292.519 91.5904 296.33 87.7855 301.041 87.3114C307.402 86.6753 312.731 92.0045 312.095 98.3659C311.621 103.077 307.816 106.882 303.105 107.356Z" fill="#E9BE51" stroke="white" stroke-width="0.5" stroke-miterlimit="10"/>
<path d="M302.93 103.779C298.681 104.319 295.092 100.73 295.632 96.4814C295.998 93.5887 298.339 91.2482 301.231 90.8821C305.48 90.342 309.069 93.9308 308.529 98.1797C308.163 101.072 305.822 103.413 302.924 103.779H302.93Z" fill="#E9BE51" stroke="white" stroke-width="0.5" stroke-miterlimit="10"/>
<path d="M302.079 63.666C295.892 63.666 290.875 68.6831 290.875 74.8705C290.875 85.6609 302.079 97.0275 302.079 97.0275C302.079 97.0275 313.284 85.5589 313.284 74.8705C313.284 68.6831 308.267 63.666 302.079 63.666Z" fill="#01654D" stroke="#101727" stroke-width="0.5" stroke-miterlimit="10"/>
<path d="M313.331 76.0586V76.0766H313.325C313.325 76.1066 313.331 76.1366 313.331 76.1726C313.331 78.045 308.296 79.5634 302.078 79.5634C298.813 79.5634 295.873 79.1433 293.82 78.4771C295.117 80.6376 298.813 82.498 303.344 83.0382C309.214 83.7403 314.255 81.9459 314.603 79.0353C314.723 78.015 314.249 76.9888 313.331 76.0646V76.0586Z" fill="#E9BE51" stroke="#101727" stroke-width="0.5" stroke-miterlimit="10"/>
<path d="M302.081 60.7931C295.869 60.7931 290.828 65.8282 290.828 72.0456V76.1745C290.828 77.0627 291.962 77.8729 293.817 78.4731C295.869 79.1452 298.81 79.5593 302.075 79.5593C308.286 79.5593 313.327 78.041 313.327 76.1685V72.0396C313.327 65.8282 308.292 60.7871 302.075 60.7871L302.081 60.7931Z" fill="#E9BE51" stroke="#101727" stroke-width="0.5" stroke-miterlimit="10"/>
<path d="M300.196 60.9492C306.936 60.9492 312.397 66.0924 312.397 72.9579V74.6803C312.397 74.7463 312.355 74.8063 312.289 74.8303L310.327 75.4725C310.225 75.5085 310.123 75.4304 310.123 75.3224V74.0201C310.123 67.1546 304.661 61.5854 297.922 61.5854" stroke="#101727" stroke-width="0.5" stroke-miterlimit="10"/>
<path d="M312.391 77.4141H312.398" stroke="#101727" stroke-width="0.5" stroke-miterlimit="10"/>
</svg>
