<?xml version="1.0" encoding="UTF-8"?>
<svg id="Capa_2" data-name="Capa 2" xmlns="http://www.w3.org/2000/svg" xmlns:xlink="http://www.w3.org/1999/xlink" viewBox="0 0 966 659.7">
  <defs>
    <style>
      .cls-1, .cls-2, .cls-3 {
        fill: none;
      }

      .cls-4 {
        fill: #111727;
        stroke-width: 2px;
      }

      .cls-4, .cls-2, .cls-5, .cls-6, .cls-3, .cls-7 {
        stroke-miterlimit: 10;
      }

      .cls-4, .cls-2, .cls-5, .cls-6, .cls-7 {
        stroke: #101727;
      }

      .cls-8 {
        fill: #b7ab65;
      }

      .cls-9, .cls-6 {
        fill: #09644a;
      }

      .cls-10 {
        fill: #ecc146;
      }

      .cls-5, .cls-11 {
        fill: #fff;
      }

      .cls-12 {
        fill: #a99e53;
      }

      .cls-13, .cls-7 {
        fill: #eae2cf;
      }

      .cls-14 {
        clip-path: url(#clippath-1);
      }

      .cls-15 {
        fill: #e7dfcd;
      }

      .cls-3 {
        stroke: #e8e0cd;
      }

      .cls-16 {
        fill: #047857;
      }

      .cls-17 {
        fill: #fcd34c;
      }

      .cls-18 {
        clip-path: url(#clippath);
      }

      .cls-19 {
        fill: #e1ece9;
      }
    </style>
    <clipPath id="clippath">
      <rect class="cls-1" x="11" y="144.01" width="955" height="515"/>
    </clipPath>
    <clipPath id="clippath-1">
      <rect class="cls-1" x="310" y="190.01" width="366.85" height="244.98"/>
    </clipPath>
  </defs>
  <g id="Capa_1-2" data-name="Capa 1">
    <g>
      <g class="cls-18">
        <g>
          <path class="cls-19" d="M931.32,620.5c-1.04-.82-1.66-2.06-1.66-3.39v-1.92c0-8.03-6.19-14.88-14.13-15.17-8.34-.3-15.2,6.44-15.2,14.81v2.28c0,1.32-.62,2.57-1.66,3.39-3.38,2.65-5.58,6.76-5.68,11.38-.18,8.33,6.79,15.14,15.03,15.14h5.75v11.99h2.44v-11.99h5.75c8.24,0,15.2-6.82,15.03-15.14-.1-4.63-2.3-8.73-5.68-11.38Z"/>
          <path class="cls-19" d="M799.83,608.46c-1.37-1.07-2.19-2.69-2.19-4.43v-2.51c0-10.51-8.18-19.46-18.68-19.83-11.03-.4-20.11,8.43-20.11,19.36v2.98c0,1.73-.82,3.37-2.19,4.43-4.46,3.46-7.38,8.84-7.51,14.88-.24,10.89,8.98,19.8,19.88,19.8h7.93v15.67h2.58v-15.67h7.93c10.9,0,20.1-8.92,19.88-19.8-.13-6.06-3.04-11.42-7.51-14.88Z"/>
          <path class="cls-19" d="M875.55,619.12c-.61-.34-1.01-.96-1.05-1.66-.59-10.93-2.61-23.45-13.01-23.45s-12.42,12.51-13.01,23.44c-.04.7-.43,1.32-1.05,1.66-4.58,2.51-7.64,7.45-7.43,13.09.29,7.75,6.89,13.77,14.67,13.77h5.53v13.51h2.58v-13.51h5.53c7.76,0,14.38-6.02,14.67-13.77.21-5.64-2.85-10.58-7.43-13.09h0Z"/>
          <path class="cls-19" d="M824.75,638.56c-.3-.17-.51-.48-.52-.83-.29-5.47-1.31-11.72-6.5-11.72s-6.21,6.26-6.5,11.72c-.03.35-.22.66-.52.83-2.29,1.26-3.83,3.73-3.72,6.55.15,3.87,3.45,6.89,7.33,6.89h2.27v6.76h2.29v-6.76h2.27c3.89,0,7.18-3.02,7.33-6.89.11-2.82-1.43-5.29-3.72-6.55h-.02Z"/>
          <path class="cls-19" d="M691.68,580.48l-40.25-40.21-40.25,40.21h-39.51v78.34h159.51v-78.34h-39.5Z"/>
          <path class="cls-19" d="M11,424.25h19.71v-146h16.89v-54.52h14.94v-29.35h13.16v-50.36h5.59v50.36h11.77v6.65h10.4v22.71h14.94v24.67h14.29v29.86h18.84v163.53h20.13v115.54h12.98v-47.58h20.77v16.2h16.71v-49.59h12.16v20.24h9.11v12.64h16.72v-36.94h27.85v-44.52h58.75v17.2h14.69v-29.35h1.52v29.35h12.67v35.93h6.58v74.88h7.09v-91.07h4.05v-33.91h2.03v33.91h4.04v15.18h5.57v75.89h49.64v-44.02h16.21v18.71h9.12v55.66h17.22v-96.13h21.78v26.31h17.23v11.64h16.21v6.58h32.41v124.3H11v-234.58Z"/>
        </g>
      </g>
      <path class="cls-11" d="M422.22,13.33c3.23-2,4.23-6.24,2.24-9.47-2-3.23-6.24-4.23-9.47-2.24-3.23,2-4.23,6.24-2.24,9.47,2,3.23,6.24,4.23,9.47,2.23Z"/>
      <path class="cls-9" d="M418.62,15c-4.14,0-7.5-3.37-7.5-7.5s3.37-7.5,7.5-7.5,7.5,3.37,7.5,7.5-3.37,7.5-7.5,7.5ZM418.62,1.24c-3.45,0-6.26,2.81-6.26,6.26s2.81,6.26,6.26,6.26,6.26-2.81,6.26-6.26-2.81-6.26-6.26-6.26Z"/>
      <path class="cls-15" d="M384.32,11.14c2-3.23,1-7.47-2.23-9.47-3.23-2-7.47-1-9.47,2.24-2,3.23-1,7.47,2.23,9.47,3.23,2,7.47,1,9.47-2.24Z"/>
      <path class="cls-15" d="M405.29,8.8c.72-3.73-1.72-7.34-5.45-8.06-3.73-.72-7.34,1.72-8.06,5.45-.72,3.73,1.72,7.34,5.45,8.06,3.73.72,7.34-1.72,8.06-5.45Z"/>
      <path class="cls-9" d="M290.58,342.16l2.67,259.52-91.17.15.51-209.59-30.46-50.08h118.45Z"/>
      <path class="cls-9" d="M172.13,342.16h-49.97l-66.94,259.52,91.17.15,65.15-209.59,48.97-50.08h-88.38Z"/>
      <path class="cls-13" d="M212.93,608.23l1.48,50.97h109.01s15.47-34.28-38.07-34.28c-1.24-10.46.83-17.34.83-17.34l-73.25.65Z"/>
      <path class="cls-2" d="M212.93,608.23l1.48,50.97h109.01s15.47-34.28-38.07-34.28c-1.37-8.43.83-17.34.83-17.34l-73.25.65Z"/>
      <path class="cls-7" d="M140.28,608.3l-9,50.9H22.27s-15.47-34.28,38.07-34.28c1.88-9.83,3.81-17.3,3.81-17.3l76.13.68Z"/>
      <path class="cls-9" d="M198.43,615.08h100.13l3.29-28.07h-106.69l3.28,28.07h-.01Z"/>
      <path class="cls-9" d="M150.04,615.08H49.92l-3.28-28.07h106.69l-3.29,28.07Z"/>
      <path class="cls-2" d="M301.84,587.01h-106.69"/>
      <path class="cls-2" d="M298.56,615.08h-100.13"/>
      <path class="cls-2" d="M153.33,587.01H46.64"/>
      <path class="cls-2" d="M150.04,615.08H49.92"/>
      <path class="cls-2" d="M966,659.01H0"/>
      <path class="cls-13" d="M112.2,346.18h199.99l-1.73-153.12c-.15-13.06-8.45-24.64-20.76-28.98l-30.74-10.84h-71.3l-49,6.77-26.45,186.17h-.01Z"/>
      <path class="cls-2" d="M112.2,346.18h199.99l-1.73-153.12c-.15-13.06-8.45-24.64-20.76-28.98l-30.74-10.84h-71.3l-49,6.77-26.45,186.17h-.01Z"/>
      <path class="cls-13" d="M183.59,164.34l18.99-47.93-6.41.46-8.58-1.26-6.29-3.32-3.9-5.26-.8-5.95,2.4-5.72,6.98-4.46h4.92l4.69.23,85.92-23.45,2.4,5.72,2.63,13.49,1.26,13.73-.8,13.16-17.4,28.94-31.5,10.67-34.63,16.55-19.9-5.61h.02Z"/>
      <path class="cls-2" d="M282.24,67.52c13.67,51.22-5.07,79.92-12.13,90.73l-.36.55c-2.9,4.44-7.73,6.89-12.7,6.89-2.32,0-4.67-.54-6.88-1.66l-.48-.24c-11.49-5.82-41.98-21.26-55.8-72.57l88.35-23.71h0Z"/>
      <path class="cls-10" d="M212.33,16.75l16.7-4.47c19.78-5.3,40.13,6.45,45.43,26.22l7.79,29.07-88.36,23.67-7.79-29.07c-5.3-19.77,6.45-40.12,26.23-45.42Z"/>
      <path class="cls-10" d="M193.88,91.18l111.64-29.9c2.11-.57,3.37-2.74,2.81-4.85-.57-2.11-2.74-3.37-4.86-2.81l-47.31,12.68"/>
      <path class="cls-2" d="M193.88,91.18l111.64-29.9c2.11-.57,3.37-2.74,2.81-4.85-.57-2.11-2.74-3.37-4.86-2.81l-47.31,12.68"/>
      <path class="cls-2" d="M193.88,91.18c-10.72-4.16-20.97,7.77-14.98,17.69,5.62,9.31,17.71,8.34,24.83,7.38"/>
      <path class="cls-2" d="M250.59,85.69c2.74,10.45,9.87,20.12,20.13,25.62,6.26,3.36-3.05,8.92-13.04,1.15"/>
      <path class="cls-4" d="M240.44,123.12c-19.49-5.49-24.91-19.44-30.6-36.17l-15.94,4.28c13.82,51.3,44.31,66.75,55.8,72.56l.48.24c2.2,1.12,4.56,1.66,6.88,1.66,4.97,0,9.8-2.45,12.7-6.89l.36-.55c4.77-7.3,14.87-22.77,16.7-47.85-12.39,11.22-29.59,17.45-46.38,12.72Z"/>
      <path class="cls-2" d="M243.11,102.95c2.24,0,4.06-1.82,4.06-4.06s-1.82-4.06-4.06-4.06-4.06,1.82-4.06,4.06,1.82,4.06,4.06,4.06Z"/>
      <path class="cls-2" d="M221.96,202.58c2.24,0,4.06-1.82,4.06-4.06s-1.82-4.06-4.06-4.06-4.06,1.82-4.06,4.06,1.82,4.06,4.06,4.06Z"/>
      <path class="cls-2" d="M226.11,221.6c2.24,0,4.06-1.82,4.06-4.06s-1.82-4.06-4.06-4.06-4.06,1.82-4.06,4.06,1.82,4.06,4.06,4.06Z"/>
      <path class="cls-2" d="M272.49,98.89c2.24,0,4.06-1.82,4.06-4.06s-1.82-4.06-4.06-4.06-4.06,1.82-4.06,4.06,1.82,4.06,4.06,4.06Z"/>
      <path class="cls-2" d="M242.12,86.96c-4.35.69-7.67,3.03-9.44,6.06"/>
      <path class="cls-2" d="M271.26,81.42c4.31-.88,8.24.14,10.97,2.36"/>
      <path class="cls-3" d="M244.48,136.02c6.11,4.27,19.45,4.66,24.71-2.44"/>
      <path class="cls-2" d="M203.77,113.21l-16.12,40.04,41.72,25.69,21.9-27.15-47.5-38.58Z"/>
      <path class="cls-2" d="M239.02,227.02c-.12-.35-9.65-48.08-9.65-48.08"/>
      <path class="cls-2" d="M187.63,153.4l12.47,53.43s10.12-27.88,29.27-27.88,33.44,19.58,33.44,19.58l-6.99-34.37"/>
      <path class="cls-9" d="M240.35,27.01l-4.01,3.75,9.53,10.18,4.01-3.75-9.53-10.18Z"/>
      <path class="cls-11" d="M252.36,35c5.2,6.31,5.55,11.63,5.39,14.68-3.08-.05-8.38-.78-14.39-6.5-.21.12-.4.24-.62.35-1.59.85-3.19,1.52-4.76,2.02,9.25,9.86,17.94,9.67,21.22,9.61h.14c.63-.02,1.22-.17,1.74-.45,1.11-.59,1.91-1.72,2.02-3.07l.02-.16c.29-3.27,1.06-11.96-8.15-21.81-.62,1.85-1.48,3.65-2.61,5.35v-.02Z"/>
      <path class="cls-6" d="M707.79,137.85h-412.57v311.41h412.57V137.85Z"/>
      <path class="cls-7" d="M699.54,137.85h-412.57v33.34h412.57v-33.34Z"/>
      <path class="cls-7" d="M699.54,137.85h-412.57v33.34h412.57v-33.34Z"/>
      <path class="cls-5" d="M699.54,170.61h-412.57v278.65h412.57V170.61Z"/>
      <path class="cls-7" d="M305.96,161.38c3.79,0,6.86-3.07,6.86-6.86s-3.07-6.86-6.86-6.86-6.86,3.07-6.86,6.86,3.07,6.86,6.86,6.86Z"/>
      <path class="cls-7" d="M324.66,161.38c3.79,0,6.86-3.07,6.86-6.86s-3.07-6.86-6.86-6.86-6.86,3.07-6.86,6.86,3.07,6.86,6.86,6.86Z"/>
      <path class="cls-7" d="M343.37,161.38c3.79,0,6.86-3.07,6.86-6.86s-3.07-6.86-6.86-6.86-6.86,3.07-6.86,6.86,3.07,6.86,6.86,6.86Z"/>
      <path class="cls-13" d="M490.86,137.94l-.51-3.89-3.95-7.67-6.23-3.71-8.35-.63-3.67,1.31-4.28-1.25-6.23-.29-6.42,1.66-2.68-2.01-7.55-.22-7.38,2.91-3.95,4.8-1.94,8.47-.23,16.01,2.63,4.4,5.09,1.63,5.83-1.63,2.11-3.6,1.26,3.71,2.8,2.75,3.61,1.37,4.57-1.2,2.92-3.78.63-3.48,2.91,4,2.63,1.43,5.27-.17,3.54-2.69,1.21-15.21.24-3.46,16.12.43h0Z"/>
      <path class="cls-2" d="M443.62,136.66l-.42,15.25c-.12,4.29-3.7,7.68-7.99,7.57-4.29-.12-7.69-3.7-7.57-7.99l.42-15.25"/>
      <path class="cls-2" d="M459.18,137.09l-.46,16.93c-.12,4.29-3.7,7.68-7.99,7.57-4.29-.12-7.69-3.7-7.57-7.99l.46-16.93"/>
      <path class="cls-2" d="M459.18,137.09l-.38,13.87c-.12,4.29,3.27,7.87,7.57,7.99,4.29.12,7.88-3.27,7.99-7.57l.15-13.44c4.85,0,22.35-.09,22.35-.09"/>
      <path class="cls-2" d="M490.3,137.94c.24-8.59-6.54-15.75-15.13-15.98-8.59-.24-15.75,6.54-15.98,15.13"/>
      <path class="cls-2" d="M467.33,123.83c-2.25-1.39-4.89-2.22-7.73-2.29-8.59-.24-15.75,6.54-15.98,15.13"/>
      <path class="cls-2" d="M451.77,123.4c-2.25-1.39-4.89-2.22-7.73-2.29-8.59-.24-15.75,6.54-15.98,15.13"/>
      <path class="cls-13" d="M295.81,301.18l-17.19-1.98.07-.54,36.76,3.98c4.76.54,9.08-2.81,9.74-7.55.69-4.89-2.88-9.31-7.79-9.9l-36.53-4.29-4.77-.59.83-5.33-20.32,2.95-84.76-10.32v-79.91c0-15.54-12.6-28.14-28.14-28.14s-28.15,12.59-28.15,28.14v101.39c0,15.47,11.07,28.72,26.3,31.48l112.07,12.75,33.97,3.95c4.9.55,10.39-3.2,10.96-8.1.57-4.91-2.95-9.35-7.86-9.92l-14.62-1.82.04-.35,17.35,1.87c4.9.55,9.33-2.95,9.9-7.86.57-4.91-2.95-9.35-7.86-9.92h0Z"/>
      <path class="cls-2" d="M295.61,300.61l-17.11-1.98.19.02,36.76,3.98c4.76.54,9.08-2.82,9.74-7.55.69-4.89-2.88-9.31-7.79-9.9l-36.53-4.29-4.77-.59-19.49-2.37-84.76-10.32v-79.91c0-15.54-12.6-28.14-28.14-28.14s-28.15,12.59-28.15,28.14v101.39c0,15.47,11.07,28.72,26.3,31.48l112.07,12.75,33.97,3.87c4.9.55,10.39-3.2,10.96-8.1.57-4.91-2.95-9.35-7.86-9.92l-14.62-1.75.88.11,17.26,1.87c4.9.55,8.49-3.41,9.06-8.31.57-4.91-3.07-9.91-7.98-10.48h0Z"/>
      <path class="cls-13" d="M171.85,231.72c-19.15-14.41-44.46-10.98-56.29,1.15l56.29-1.15Z"/>
      <path class="cls-2" d="M171.85,231.72c-19.15-14.41-44.46-10.98-56.29,1.15"/>
      <path d="M471.85,29.35h-16.35c-.34,0-.62-.28-.62-.62s.28-.62.62-.62h16.35c.34,0,.62.28.62.62s-.28.62-.62.62Z"/>
      <path d="M442.08,29.35h-70.51c-.34,0-.62-.28-.62-.62s.28-.62.62-.62h70.51c.34,0,.62.28.62.62s-.28.62-.62.62Z"/>
      <path d="M471.85,43.83h-56.79c-.34,0-.62-.28-.62-.62s.28-.62.62-.62h56.79c.34,0,.62.28.62.62s-.28.62-.62.62Z"/>
      <path d="M400.51,43.83h-28.94c-.34,0-.62-.28-.62-.62s.28-.62.62-.62h28.94c.34,0,.62.28.62.62s-.28.62-.62.62Z"/>
      <path d="M471.85,58.31h-22.25c-.34,0-.62-.28-.62-.62s.28-.62.62-.62h22.25c.34,0,.62.28.62.62s-.28.62-.62.62Z"/>
      <path d="M370.61,223.27c-.34,0-.62-.28-.62-.62l.95-164.96c0-.34.28-.62.62-.62h60.52c.34,0,.62.28.62.62s-.28.62-.62.62h-59.9l-.95,164.34c0,.34-.28.62-.62.62Z"/>
      <g class="cls-14">
        <g>
          <path class="cls-10" d="M402.45,196.54l-1.29,6.98c-.13.69-.66,1.77-.27,2.41.39.64.62.87.69,1.7.04.49.45,1-.15,1.51-1.37,1.16.1,4.1,1.22,5.95,1.18,1.97,3.16,1.42,3.79,2.29.54.75-.44,1.47-.19,2.73.34,1.71-1.71,1.79-2.05,3.14-.18.71.03,1.37.53,1.89.5.52,1.01,1.17,1.74,1.4.5.16.97-1.09,2.02-.81.33.09.6.52.66.97l.27,2.04c.42,1.13.59,2.19.25,3.38-.41,1.46,1.19,1.19,2.2,2.94.81,1.4,2.25,1.98,3.81,1.73l3.04.05c1.17-.27,2.2-.59,3.41-.23l1.27.2-3.15,21c-6-.5-11.95-1.24-18.03-2.12l-6.93,41.29-1.49,6.35-1.59.81c-.42-.7-1.04-.67-1.68-.9-.28-.1-.69-.38-1.01-.14-.63.47.31,1.78-.08,2.36-.43.63-.49,1.12-.55,1.84l-.46,1.37c.5.49.4,1,.11,1.56-.39.77-.09,1.67-.11,2.48-.02.91-.18,1.75.22,2.67-.45.66-.38,1.35.23,1.79.77.71,1.49,1.69,1.22,2.33-.39.93-2.25.76-2.47,1.54-.17.58-.19.92-.78,1.2.28.78.22,2.22.07,2.52-.11.21-.57.33-.81.48-.14,1.39-1.47,1.11-1.57,1.91-.11.98.45,1.78,1.32,2.16l-.15.97c-.78-.23-1.61.05-2.5-.03l-10.6-.93c-1.04-.09-2.12.01-2.86-.84-.52-.6-.83-1.48-1.02-2.26-.27-1.09-.8-1.95-1.16-2.96-.6-1.69-1.46-3.21-2.62-4.56l-1.48-1.19-1.31-1.14c-.66-.86-1.2-1.59-2.28-1.92-1.19-.36-2.19-1.22-2.82-2.28s-1.51-1.75-2.7-2.14l-1.72-.93c-.96-.52-2.14-.78-2.97-1.5-.92-.79-.63-2.15-.26-3.11.53-1.35,0-2.74-.66-3.95-.46-.85-.7-1.9-1.44-2.52-.57-.47-.87-.81-1.18-1.52l-1.61-3.68c-.73-1.68-.98-3.47-.33-5.24.39.23.79.43,1.16.27-.33-1.51-1.5-2.38-2.28-3.54-.71-1.04-.66-2.53-.4-3.71l.55-2.53-2.18-1.84c-.22-.19-.54-.25-.6-.5-.17-.75,1.26-1.05.55-2.43-2.09-4.08-2.59-8.61-1.39-13.03-.99-2.87-2.73-6.17-.77-8.27,1.22-1.31,2.07-2.9,2.38-4.71.12-.68.55-1.4.58-2.04.05-1.15.14-2.29.09-3.34l7.63,2.27,16.41,4.34c6.25,1.65,12.4,2.99,18.89,4.2l2.46-11.34c.68-3.14,1.28-6.15,1.65-9.33-.44-1.22.26-2.13,1.17-2.81.03-1.81,1.37-1.75,1.68-3.26.17-.82.94-1.23,1.32-1.73.78-.99.26-1.96-.27-2.77-.5-.75-.56-1.65-1.33-2.24l4.51-23.97,6.46,1.25v.02Z"/>
          <path class="cls-8" d="M420.26,257.83l-1.34,8.8,11.94,1.69c.23.03.34-.55.37-.75,9.32,1.23,18.58,2.34,27.96,3.14l2.98.19c-.03.36-.11.71-.01,1.18,4.06.28,7.96.48,12.02.29l-.39,8.66c.39.13.67.12.94.13l-1.18,24.69-5.01-.51-1.68-.21c-13.32-.83-26.61-1.92-40-3.52l-5.88,46.68-12.84-.93-21.22-11.95-.98-.89c-.63-.57-.87-1.62-.31-2.28s.58-1.35.06-1.95l.15-.97c-.87-.38-1.43-1.18-1.32-2.16.09-.8,1.42-.52,1.57-1.91.25-.15.71-.27.81-.48.15-.3.21-1.75-.07-2.52.59-.28.62-.62.78-1.2.22-.77,2.08-.6,2.47-1.54.27-.64-.46-1.62-1.22-2.33-.6-.44-.68-1.13-.23-1.79-.4-.92-.25-1.76-.22-2.67.02-.81-.28-1.71.11-2.48.28-.56.39-1.06-.11-1.56l.46-1.37c.06-.71.13-1.21.55-1.84.39-.57-.55-1.89.08-2.36.32-.24.74.04,1.01.14.64.23,1.26.2,1.68.9l1.59-.81,1.49-6.35,6.93-41.29c6.08.88,12.04,1.62,18.03,2.12h.03Z"/>
          <path class="cls-16" d="M522.35,334.45c0,.2.09.4.19.51.22.25.51.14.78.03l1.92-.78.23,6.07.23,7.37c.02.57.59.9.8,1.33l.65,1.31c.4.81.54,1.66,1.21,2.33,1.27,1.27.03,2.51.81,3.62.39.56.2.95,0,1.48-.17.46-.14.95-.45,1.4-.27.39-.3.97-.15,1.38.22.58-.07.86-.33,1.29-.27.46-.27,1.19-.34,1.64-.87.24-1.88.33-2.69.81-.53.32-.88.62-1.61.57-1.47-.12-2.93-.38-4.35-.79-1.04-.3-2.09,0-2.63.94l-1.76,3.03c-1.09,1.87-2.18,3.59-3.92,4.88l-4.28,3.19-4.46,3.67c-1.35,1.35-2.07,2.99-2.25,4.9-.25,2.7.05,5.3.5,7.99.25,1.52.51,3.08.1,4.65l-5.69-2.18c-.65-.13-2.44.86-5.45-2.59.37-2.63-2.64-3.78-1.97-6.61-.41-1.34-1.02-2.53-1.88-3.62l-3.14-3.98c-.83-1.05-1.3-2.16-1.78-3.39-2.19-5.66-6.31-10.31-12.66-10.68-1.55.71-2.83,1.69-3.92,2.97l-2.35,2.77c-2.24,2.64-5.67-.97-8.12-3.19-1.27-1.15-2.25-2.43-2.74-4.08l-1.15-3.85c-.22-.74-.49-1.82-1.06-2.37l-3-2.85-2.92-3.54-1.17-1.48c-.45-.56-.82-.9-1.11-1.6-.16-.38-.87-.64-.86-1.13l2.26-.61,22.63,1.32,2.15-37.23c.62.1,1.19.12,1.89.14l13.21.46,3.74.11-.47,16.08.79.27,1.14,1.41c1.1-.23,1.54.5,2.32.31,1.67-.42,1.69,1.7,2.19,1.78l3.48.53c.13.02.93,1,3,.53l1.26,1.83c.39.56,1.29-.86,1.74-.8.42.05.8,1.13,1.54,1.24.56.08.91-.26,1.36-.52.76-.44,1.7.11,2.49.15.47.03,1.12-.51,1.62-.19.69.45,1.3.39,2.09.32,1.35-.12,2.7-.1,4.01-.53.72-.23,1.44.11,2.04.24.71-.4,1.49-.69,2.25-.1.48.37,1.01.37,1.57.57.48.17.8.61,1.47.53l.96.71.04.03Z"/>
          <path class="cls-10" d="M346.72,410.35l.83,1.45c-.37,1-1.02,1.8-1.84,2.52-2.85,2.48-6.2,4.29-9.82,5.4-2.59.79-4.33-.22-4.3,1.04l.05,2c0,.39-.24.76-.55.89-.63.26-1.43-.84-2.56-.79-1,.05-1.43,1.2-2,1.23-.36.02-.99-1.27-2.25-.37-.6.43-1.07.39-1.75.31-3-.34-5.94,1.62-9.52,1.56l-2.46-.04c-.23,0-.45-.14-.51-.26-.42-.83,2.38-2.45,4.3-1.89.96.28,1.71.35,2.58-.23l2.96-1.99c1.49-1,4.35.82,5-.3.43-.75.83-1.28,1.77-1.44l3.57-.64c.9-.16,1.04-.88,1.29-1.41,1.25-.84,2.74-1.4,3.57-2.76l3.16-5.19c-1.02-.03-1.43.73-2.13,1.07-.89.59-1.07-.27-1.89-.98-.76.77-.52,1.92-1.23,1.98-.28.03-.55-.14-.69-.44-.5-1.1.42-2.39.02-2.61-.47-.26-1.69.73-2.11.05l-.07-.85c-1.4-1.4-4.5,1.28-5.96.21.36-.6.82-.98,1.23-1.4.66-.67.57-1.52-.1-2.3.75-.36,1.37-.28,2.16-.35-.77-1.21-.8-2.39-.2-3.68-.48-.33-.98-.2-1.48-.08-1.5.36-3.38,1.04-4.2.2s.15-1.89-.79-3.1l-1.22-1.56,2.44-2.61c.15-.16-.46-.31-.68-.23-.66.25-1.25-.07-1.4-.75-.62-2.72,4.31-8.55,7.48-9.08,1.52-.25,1.71,1.35,2.27,1.5.79.22,1.3-.75,1.86-.73l2.83.08c.78.02,1.28-.51,1.45-1.25.35-1.5.82-2.91,1.53-4.29.11-.21.08-.53-.03-.67-.09-.13-.37-.22-.63-.19l-3.46.39c-1.2.14-2.08-.26-3.11-.74l-2.24-.39c-1.29-.22-1.85-1.3-1.92-2.6-.1-1.89-.67-3.62-1.86-5.08-.3-.37-.48-1.12-.21-1.51.31-.45,1-.51,1.52-.47l3.45.32c.86.08.9-.45,1.32-.9.87-.59,2.56-.39,3.45.14.98.59-.28,3.4,1.86,4,.75.21,1.68.57,2.48.52.53-.04.45-1.01.32-1.35l-1.62-4.36c-.92-.6-1.27-1.58-1.56-2.61-.43-2.14-1.2-4.04-2.51-5.75-.25-.33-.18-.93-.07-1.19.53-1.17,3.11-.74,4.87-.68,1.76.06,3.07-1.03,3.9-2.44.88-1.51,2.21-2.53,3.96-2.7l1.63-.16c.9-.86,1.97-.9,3.12-.59,1.15.31,2.16-.45,2.94-1.14,1.07-.95,2.32-.93,3.22.13l1.89,2.24c.36.43,1.79-.41,2.47-.07.68.34.13,2.54,2.16,2.93l3.72.72c1.06.22,1.87.82,2.44,1.71,1.33.59,2.71.72,4.14.87l5.24.54c1.45.15,2.71.9,3.61,2.05l.15,14.65.03,29.96c0,1.32-.23,3.14.57,3.73.27.2.72.21,1.04.08l1.74-.76c.33-.14.77-.11,1.07.1,0,0,.8,2.59,3.48,5.21.71.7,1.63.68,2.26,0,.5-.54.68-1.36,1.02-1.94,2.92-1.54,5.87,1.8,7.75,4.4l4.03,5.59c1.06,1.46,2.19,2.76,3.53,3.93,1.21,1.06,2.49,1.61,4.03,2,2.77.69.41,10.52-1.19,8.62l-2.27-2.7c-.57-.67-1.1-1.43-1.99-1.75-.21-.08-.39.2-.33.4l.84,3.18c.07.28.09.96-.22,1.07-1.14.42-3.27-3.2-4.33-4.5-1.39-1.7-.8-1.85-1.13-3.86-.89.08-.8,1.48-1.43,2.2l-1.29-3.93-.15,2.92c-.01.22-.13.43-.24.52-.15.12-.41.12-.58,0-1.45-.95-1.32-3-1.99-3.48s-1.12-.96-1.45-1.75l-1.67-4.01c.36-.61.76-1.09.89-1.81-.5-.05-.64.72-1.24.67-.78-.07-.66-1.94-2.78-2.82l-4.67-1.96c-.53-.22-1.12-.58-1.36-1.11-.54-1.2,1.49-1.66,1.37-2.65l-2.55,1.11c-.93.41-1.8.3-2.71-.06-.66-.27-1.36-.43-1.95-.87-1.46-1.09-3.96-.64-5.42-1.41l-3.67-1.94c-.99-.52-.65-2.64-2.76-2.54-.98.05-1.96.1-2.9.39-.31.09-.38.63-.38.9l-.06,2.63c0,.3-.12.63-.29.78-.19.17-.52.28-.84.22l-2.64-.49c-1.09-.2-2,.44-2.12,1.55-.21,1.85-5.73,2-5.04.96.46-.69,1.36-.94,2.06-1.28-.06-.64-.9-.32-1.16-.54-.08-.07-.13-.36-.06-.49.61-1,.85-2.02,1.03-3.15.13-.82.87-1.48,1.6-1.71l3.79-1.21c-.62-.58-1.55-.88-2.44-.96-2.3-.22-4.37,2.52-5.51,4.63-.49.9-1.05,1.59-2.02,1.99l-1.97.83c-.62.26-.99.93-.61,1.6Z"/>
          <path class="cls-12" d="M604.89,256.06l2.03,12.14c-2.07.85.16,2.29-.83,4.34-1.19,2.49.81,3.89-.95,4.7-1.06.49-.92,2.35-2.34,3.12-.78.42-1.55.83-2.12,1.54l-.11,1.56c-.05.75-1.48-.13-1.64-.07-.12.04-.27.23-.32.41l-.43,1.75c-.18.72.62,1.04.44,1.65-.08.26-.39.48-.78.53l-.41.87c-.39.32-.96.24-1.43.22.2,1.98,1.79,4.63,3.12,6.16.37.43,1.07,1.16.94,1.75-.26,1.2-2.65,1.64-3.45,4.32-.29.98-1.07,1.15-1.91,1.31-.48.34-1,.78-1.59,1.06l-1.78.86c-.59.29-1.18.64-1.52,1.1l-14.43,1.57-11.14.57-.15,2.04-9.79.26c.04-.23.13-.71.38-.85.32-.19.69-.08,1.14-.13.12-.99.23-2.25-.28-3.2-1.14-.42-2.29-1.7-2.12-2.92.38-2.61-1.24-2.52-1.29-3.94-.03-.88-1.4.12-2.35-1.13-.56-.74-1.19-1.33-1.92-1.89-.4-.31-.13-.89-.02-1.28l.38-1.44c.47-.91.55-1.93.05-2.82-.24-.43-.59-.56-1.01-.61-.42-.05-.78.5-1.1.68-1.99-.53-.36-3.05-2.82-3.99l-1.13-1.31c-1.29-.74-2.12-1.8-2.38-3.29-.1-.58-.5-1.2-.4-1.83.11-.72.21-1.37-.07-2-.02-.05-.02-.14-.03-.19l.03-.32c.24,0,.44-.13.66-.34l1-.95c1.52-1.03,1.72-2.88.85-4.34.27-2.29,3.49-2.5,4.66-4.14,1.17-1.64.79-3.7-.34-5.16l-1.89-2.52,16.61-1.63c-.08,1.16.33,2.25.84,3.35l.73,1.56,1.71,18.54c.14,1.41.46,2.73.08,4.1-.12.42-.39.75-.31,1.19.2,1.12,1.5.61.68,2.97l-.82,2.35c-.6,1.73-1.38,2.05-.9,2.79.48.74-.83,1.85-.07,3.08.09-.86.52-1.13,1.24-1.3,1.48-.37,3.03-.23,4.46.23,1.09-1.12,2.15.18,3.09-.67,1.18-1.07-.04-1.76.72-2.29.88-.61,1.31.71,2.34,1.04.52-.23.93-.32,1.55-.25.73-.92-.4-2.32,1.57-2.86l.6-2.73c.13-.61,1.05-.39,1.36-.57.63-.35.95-.62,1.68-.56.28.02.63-.15.78-.31.48-.55-.16-1.16.03-1.59.08-.17.34-.36.62-.58l-3.27-22.79-6.06-.04c-2-.01-3.98.12-5.85.7,1.63-3.02,2.22-6.37,1.59-9.71l-1.23-6.41c-.68-3.53-.18-7.01,1.47-10.18l2-3.19c.87.34.58,2.14.05,2.74-.37.43-.52.91-.12,1.33.34.37.84.33,1.3.03.77-.49,1.24-1.1,1.32-2.05l.19-2.54c.99-1.26,2.46-1.46,3.92-1.5,2.34-.07,4.26.72,5.82,2.42.55.6,1.04,1.06,1.19,2,.22,1.34.02,2.69-.49,3.99l-1.45,3.69c-.16.41-.27.77-.03,1.12.17.24.47.66.89.55.53-.14.87-.67,1.2-1.09l1.74-2.24c.36-.46.89-.7,1.49-.58,1.59.33,2.65,4.23,3.33,6.26.41,1.24.62,2.46.07,3.7-1.58,3.55-4.24,5.01-4.35,6.88-.14,2.27-1.88,1.93-2,3.18-.04.39.06.9.51.98l2.51.46c1.37.41,2.7.31,4.13.23l1.54-.09c.8-.05,1.33-.51,1.55-1.29.47-.13.97-.14,1.44-.06,2.43.43,2.03-2.26,3.08-2.52.82-.2,1.02-.81,1.56-1.31l2.06-1.91c.29-.27.67-.31.89-.46h.01Z"/>
          <path class="cls-16" d="M395.98,195.29l-4.51,23.97c.76.6.83,1.49,1.33,2.24.54.81,1.06,1.77.27,2.77-.39.49-1.16.9-1.32,1.73-.3,1.51-1.65,1.45-1.68,3.26-.91.67-1.61,1.59-1.17,2.81-.37,3.18-.97,6.2-1.65,9.33l-2.46,11.34c-6.49-1.21-12.65-2.55-18.89-4.2l-16.41-4.34-7.63-2.27c-.09-1.74-.56-3.48-.37-5.28.14-1.37.69-2.33,1.35-3.48l2.93-5.04c1.41-2.42,2.2-4.95,3.07-7.58.81-2.46,2.17-4.69,2.62-7.26.24-1.37.33-2.56,1.2-3.69.31-.4.43-.84,1.23-.65.54.13,1.14.51,1.88.14-.66-.15-1-.95-1.45-1.2-.98-.17-1.69-.54-1.75-1.65-.03-.63.7-1.22.81-1.84.22-1.19.32-2.47.23-3.72l-.34-4.76c-.08-1.16-.65-2.13-.16-3.32l.51-2.32c.11-.5,1.07-.24,1.4.12,1.09,1.18,2.16,2.55,3.63,3.28.99.49,1.94.65,2.84,1.4.9.75,1.97,1.52,3.16,1.61,1.44.11,2.27-1.62,1.85-2.82-.35-1.01.94-1.63,1.04-3.62,2.16-.36,4.29-.15,6.41.28l3.48.72,18.58,4.05h-.03Z"/>
          <path class="cls-12" d="M466.73,204.84l-1.72,25.4-.53,7.78-40.71-4.13-.36,2.94-1.27-.2c-1.21-.37-2.24-.05-3.41.23l-3.04-.05c-1.56.25-3-.32-3.81-1.73-1.01-1.75-2.61-1.48-2.2-2.94.33-1.19.17-2.26-.25-3.38l-.27-2.04c-.06-.45-.33-.88-.66-.97-1.05-.28-1.52.96-2.02.81-.73-.23-1.23-.87-1.74-1.4-.51-.53-.71-1.17-.53-1.89.34-1.36,2.39-1.44,2.05-3.14-.25-1.26.73-1.99.19-2.73-.63-.87-2.61-.32-3.79-2.29-1.11-1.85-2.59-4.79-1.22-5.95.6-.51.2-1.02.15-1.51-.07-.83-.32-1.08-.69-1.7-.37-.62.14-1.72.27-2.41l1.29-6.98c21.23,4.1,42.72,6.78,64.28,8.3v-.02Z"/>
          <path class="cls-17" d="M466.87,305.13l-.23,4.25-2.15,37.23-22.63-1.32-2.26.61c-.68.14-1.38-.01-2.14-.09l-10.55-1.09-.23,4.21-5.68-.63,5.88-46.68c13.38,1.6,26.68,2.69,40,3.52h-.01Z"/>
          <path class="cls-17" d="M640.46,255.75c-.28.43-.43.77-.55,1.36l-1,2,.1,2.61c.02.58.67.8.8,1.11.28.65.68.88,1.03,1.36l.5,1.91c-.03.36-.26,1.07-.51,1.32l-1.74,1.75c-.84-.5-1.74-.46-2.59.09-.3.19-.62.26-.57.71l-1.01.19-8.35.31c-2.65.1-5.19.4-7.77.99-3.13.72-6.53,2.34-5.79,5.62.3,1.32,1.06,3.01,1.98,2.99.31,0,.66-.13.88-.42l1.69-2.28c1.38-1.86,1.73-2.47,3.81-2.34.82.05,1.46,0,2.18.52,1.8,1.32,2.79.54,3.15,1.64.5,1.53,3.01,1.04,3.34,2.99.19,1.13-.97,2.18-.61,2.82.08.15.35.21.55.17.35-.08.58.13.78.41.63.88,1.61.88,2.59.85,1.12-.03,2.26.5,3.21.97.62.3.54.96.27,1.42-.25.42-.47.61-.83.93-.26.23.05.84.24,1.06.52.6,1.55-.06,1.59.93.01.28-.1.69-.48.57-.21-.07-.45-.36-.63-.36-.22,0-.46.26-.46.46,0,.18.1.56.3.65,1.02.49,1.31,1.47,1.95,2.23l2.01,1.46c.52.8.74,1.64.68,2.54l-38.1,6.19-.82.24-12.42,1.65c.34-.46.92-.81,1.52-1.1l1.78-.86c.59-.29,1.11-.72,1.59-1.06.84-.16,1.62-.33,1.91-1.31.79-2.68,3.19-3.12,3.45-4.32.13-.59-.57-1.33-.94-1.75-1.33-1.52-2.92-4.18-3.12-6.16.46.02,1.03.11,1.43-.22l.41-.87c.39-.06.7-.27.78-.53.18-.61-.62-.93-.44-1.65l.43-1.75c.05-.19.19-.37.32-.41.16-.05,1.59.82,1.64.07l.11-1.56c.57-.71,1.34-1.12,2.12-1.54,1.42-.77,1.28-2.64,2.34-3.12,1.77-.81-.24-2.21.95-4.7.99-2.06-1.24-3.49.83-4.34l-2.03-12.14c.41-.27,1.05-.33,1.4-.73.76-.87,1.15-1.72,2.42-1.89l.43,3.42,24.9-5.49c.9-.2,1.59-.17,2.3.42l.72.18c.26.06.24.51.22.8-.04,1,.57,1.42,1.45,1.51.34.16.66.75,1.25.7.31-.03.62.57.48.78h-.05Z"/>
          <path class="cls-12" d="M533.34,224.61c-.32-.08-.8.12-1,.32-.28.28-.45.72-.41,1.15l.35,3.31c.07.61-.05,1.25-.58,1.61-1.04.7-1.95,1.63-2.28,2.87-.44,1.69,1.56,1.81.95,2.76-.4.63-.52,1.3-.6,2.06l-.2,1.97c-.09.91.27,1.36.91,1.8.78.53,1.46.93,2.47,1.03,1.53.14,2.17.1,2.8,1.46.41.89,1.12,1.3,1.72,1.95.47.51.74,1.06,1.43,1.44.69.38,1.46,1.33,1.19,2.17-.16.49-.46.82-.39,1.3l-10.12.53-19.3.2-.13-14.66c-1.36-1.44-2.44-2.6-1.81-4.5l.47-1.44-.64.02c.66-1.19-1.17-2.29-.91-4.53-1.07-1.26.05-2.42-.33-4.25-.18-.86-.41-1.49.04-2.32.72-1.32-.75-2.25-.81-2.7-.13-1.06-1.1-1.5-.72-4.49.09-.74-.16-1.09-.42-1.7-.33-.76.02-1.81.22-2.58.22-.85-.73-1.63-.59-3.02l10.15-.03c.46,0,.22,1.19.6,1.23.52.05.94-1.69,2.34-1.16.5.19.45,1.77,1.2,1.47.64-.25,1.14.33,1.52.34.94,0,1.41,0,2.12.67.35.33.93.57,1.15,1.15,1.93-1.74,2.72-.7,4.59-.43l.83.61c.78.12,1.29.41,1.5,1.2.23.88,1.13-.31,2.33.64,1,.79,2.1,1.26,3.37,1.4.33-.38.48-.76.89-1.06l1.62-.26,1.62-.22c.51-.07,1,.14,1.59.25l1.8.34c.68.13,1.85.8,1.88,1.18.02.17-.07.43-.28.53l-2.6,1.36c-1.04.54-1.87,1.14-2.65,2.02l-1.25,1.4-5.03,4.58c-.32.3-.63.54-.6,1v.03Z"/>
          <path class="cls-8" d="M504.66,206.38c-.14,1.39.81,2.16.59,3.02-.2.77-.56,1.82-.22,2.58.27.61.52.96.42,1.7-.38,2.99.59,3.44.72,4.49.06.45,1.53,1.37.81,2.7-.45.82-.22,1.45-.04,2.32.38,1.83-.74,2.99.33,4.25-.26,2.24,1.57,3.33.91,4.53l-14.45-.22-28.72-1.49,1.72-25.4c12.28.87,24.57,1.34,36.94,1.33.46,0,.74-.05.99.21v-.02Z"/>
          <path class="cls-10" d="M613.09,349.72c.1.55.71.89.87,1.38l1.97,5.88c.9,2.2,2.26,4.05,4.37,5.12-.49.27-.89.31-1.16.67-.2.27-.03.71.22.93l2.21,1.92c.81.7,1.27,1.51,1.72,2.45l2.2,4.61c.07.16.11.38.03.49-.06.08-.23.15-.45.2,1.94,2.47,3.05,5.38,3.84,8.5.86,3.38.99,6.83-.1,10.15-.45,1.37-1.28,2.62-2.54,3.25-1.4.7-2.92.41-4.39-.12.14-.29.41-.43.72-.56l3.17-1.24c-.53-.63-1.24-.33-1.89-.24-1.24.18-1.93-2.41-3.2-2.28-1.27.13-2.47,0-3.49-.92-1.31-1.2-2.22-2.92-2.21-4.75,0-.36.29-.74-.28-.97l-.46.83c-.66-.78-.82-1.64-1.05-2.47l-.14.15c.06.19.09.65-.09.76-.75.15-1.47-.18-1.76-.81l-1.1-2.38c-.27-.57-.58-1.04-1.06-1.45-1.2-1.02.5-2.5.2-4.19-1.04.07-1.21,1.64-1.65,1.56-.62-.11-.97-.84-.96-1.4l.06-3.17.06-3.78c-.17-2.18-1.76-3.66-4.01-3.66-1.55-2.16-3.76-4.69-6.31-5.43-.9-.31-2.08.05-2.55.74.49,1.18-.9.43-1.18,1.41-.28.98-1.15.86-1.8,1.61-.21-.39-.47-.65-.74-.74-.36-.12-.71,0-1.05.17l-1.58.76c.51-1.86-1.23-1.59-2.3-2.84.42-.8-.2-1.6-1.02-1.84-.13.4-.03.62-.04,1.05-.71-.63-1.51-.94-2.45-1.07l-2.45-.34c.52-1.14-2.39-.79-3.55.69,0,.15.32.38.51.43-1.35,1.34-3.02-.5-4.66,1.13-.33-.08-.42-.32-.5-.54l-2.02-5.47,18.59-2.89c.36-.06.73-.22,1.17-.1l.46,2.58,23.81-3.76h.01ZM613.13,382.47c-.09-.13-.29-.01-.16.13l.16-.13Z"/>
          <path class="cls-10" d="M542.93,225.32c-.26.25-.31.76-.24,1.15.15.85,2.04,1.64,3.32,1.96l6.65,1.64,2.54.29.42.91,1.98.69c.52.18-.43,1.65-.3,2.84,1.44-.47,1.44,1.24,2.63.34l.65.56-1.25,3.17c-.41,1.03-.86,2.01-.81,3.19l4.48-7.05c.71.65.77,1.62.36,2.43l-1.55,3.08-.93,5.68-1.09,5.6c-.27,1.36,1.33,3.76,1.14,6.46l-16.61,1.63c-.18.05-.7.13-.85-.04-.65-1.19-2.22-.51-2.41-1.43-.34-1.66-1.82-2.01-.59-3.42.42-.48-.55-1.8-.75-3.21-.07-.48.23-.81.39-1.3.27-.84-.47-1.77-1.19-2.17-.72-.4-.96-.92-1.43-1.44-.6-.65-1.31-1.06-1.72-1.95-.63-1.36-1.27-1.32-2.8-1.46-1.01-.09-1.69-.5-2.47-1.03-.64-.43-1-.89-.91-1.8l.2-1.97c.08-.76.2-1.43.6-2.06.61-.95-1.39-1.07-.95-2.76.33-1.24,1.23-2.17,2.28-2.87.53-.35.65-.99.58-1.61l-.35-3.31c-.05-.43.12-.88.41-1.15.2-.2.69-.4,1-.32.79.21,1.62.23,2.41-.19l2.17-1.14c.75-.39,1.52-.68,2.33-.62l-.3,1.33c-.06.27.16.54.1.81-.05.21-.41.25-.58.29-.11.28.11.41.23.46.15.06.45.12.62-.03l.79-.72c.29-.26.64-.36.93-.05.26.28.53.49.89.55l-.02.04Z"/>
          <path class="cls-17" d="M598,317.17c-1.12,1.61-1.32,2.88.11,4.35,1.06-.09,1.89.44,2.45,1.23l1.99,2.81,2.72,2.42,3.88,2.92c1.35,1.02,2.36,2.37,2.77,4.04,1.22,1.49,2.65,3.81,4.16,4.13.21.45.06.75-.24,1.13-1,1.23-1.82.42-2,.97-.07.21.12.37.24.56.39.58-.14,1.22-.47,1.64.02.17.15.48.11.61-.1.32-.76.38-.79.85-.02.4,1.01,1.11.17,1.93l-.81.79c.35.24.59.2.99.19-.21.74-.32,1.34-.19,1.98l-23.81,3.76-.46-2.58c-.44-.13-.81.04-1.17.1.13-1.26-.11-2.52-.64-3.78-.23-.53.08-1.07.25-1.54.33-.92.06-1.83-.08-2.75-.14-.92,1.13-2.18-.25-2.71-.07-.34.07-.69-.14-1.02-.46,0-.83-.18-1.04-.38-.35-.35-.13-.76-.24-1.2l-4.49-17.57,8.54-1.45,8.44-1.41v-.02Z"/>
          <path class="cls-8" d="M642.59,223.82c.3.5.18,1.09.31,1.67l.46,1.98c.37.81.5,1.28.19,2.13-.36,1-.28,2,.01,2.98l.18,2.67c.86,1.67,1.88,3.31,2.04,5.26l.19,2.18c.31,1.77.03,3.6-.06,5.36-.01.13-.19.27-.12.54l1.86,7.97c-.03.34-.47.85-.43,1.15.24.3.61-.04.7-.25.49-1.22,1.79-.39,2.37-1.11.52-.64,1.16-.77,1.92-.95,1.14-.27,1.89-1.22,2.85-1.99.44,1.14-1.43,1.67-1.87,2.87.79-.01,1.04-.8,1.56-1.12.63-.39,1.2-.57,1.67-1.18.26-.33.83-.6,1.2-.41l-1.32,1.43c-.49,1.02-1.14,1.45-2.1,1.79l-2.44.87-3.69,1.92c-.58.3-1.32.3-1.79.69-.33,0-.66-.41-.52-.87.21-.72.15-1.94-.7-2.23l-3.38-1.13c-.4-.14-.91,0-1.23-.29.14-.21-.18-.81-.48-.78-.59.05-.91-.54-1.25-.7-.88-.09-1.49-.51-1.45-1.51.01-.29.04-.73-.22-.8l-.72-.18c-.71-.6-1.4-.62-2.3-.42l-24.9,5.49-.43-3.42c.71-.09.8-.83,1.23-1.28l1.96-2.07c.91-.96,1.53-2.6.77-3.88-.35-.58-1.15-.93-1.3-1.7,1.11-.87,2.57-1.6,4-1.62.65-.01,1.16.21,1.79-.14,1.13-.63,2.32.98,4.21-.25,1.62-1.05,2.69.07,3.2-1.1.88-2.04,3.12-1.85,2.36-3.44-.69-1.43.99-1.99.26-2.93-.62.55-1.06,1.13-1.81,1.17-.23,0-.31-.24-.27-.36.03-.08.07-.27.2-.37l1.96-1.55c1.22-.58.81-1.43,1.18-2.32.76-1.84,2.58-3.19,3.91-4.62.37-.4.67-.99,1.22-1.11l9.02-2.02v-.02Z"/>
          <path class="cls-8" d="M581.02,320.04l4.49,17.57c.11.43-.11.84.24,1.2.21.21.58.39,1.04.38.21.33.07.68.14,1.02,1.38.53.13,1.84.25,2.71.13.92.41,1.83.08,2.75-.17.47-.48,1.01-.25,1.54.53,1.26.78,2.53.64,3.78l-18.59,2.89,2.02,5.47c-.66.14-1.3.51-2.13.39.26-.67.58-1.54.07-1.96-.51-.42-.8-.71-.81-1.43-.64.61-.36,1.23-.65,1.77l-.78,1.46c-.24-.12-.54-.38-.73-.35-.51.09-.38,1.01-.87,1.05-.61.05-.83-.6-1.4-.83l.05-2.57c0-.4.58-.92.2-1.39-.58-.72.19-1.2.26-1.7.15-1.09.14-2.29.08-3.4l-.29-5.16-.17-7.3.06-5.98-.07-6.96.09-2.14.12-1.25,16.91-1.57h0Z"/>
          <path class="cls-12" d="M641.18,297.29c-.2,2.66-2.01,1.38-4.08,2.77-.68.46-.91,2.06-.5,2.35.19.14.54.19.82.12l3.85-.97c.7-.18,1.37-.59,2.13-.21,1.24.61.73,3.6-.63,5.05-1.36-.24-2.81-.18-2.94.63-.04.27-.01.57.2.8.59.63-.28,1.06,0,1.41.06.08.25.15.43.15h2.15c.31,0,.58.18.71.39.38.65-.61,2.21-1.43,3.18-3.22.44-5.76,2.27-7.74,4.72l-1.96,1.52-2.33,2.3c-3.17-2.22-14.52-9.63-16.81-7.05-.44.5-.39,1.1-.35,1.78-.81-1.03-1.95-1.63-3.31-1.85-3.37-.53-6.82.13-9.82,1.72l-1.57,1.07-8.44,1.41c-.33-2.54.58-4.45,2.87-5.6l3.75-1.89c2.07-1.05,2.03-2.31,3.1-3.55,0,.4-.13.66.09,1.08,1-.64,2.17-1.27,2.86-2.26.52-.74.08-1.81.02-2.63l.82-.24,38.1-6.19h.01Z"/>
          <path class="cls-8" d="M545.09,339.54c.09.2.18.44.32.46l.61.09c.09.34-.4.59-.5.78-.18.71-.13,1.4.22,2.04.41-.04.8-.23,1.16-.05l-.51,1.7c-.1.34.4.71.3,1.04-.14.51-.86.65-.75,1.84l-.78.58c-.12,1.11-1.09.86-1.13,1.45-.02.36.54.51.35.81-.05.07-1.01.34-.86.67l.3.7c-.17.22-.61.37-.61.65,0,.23.27.53.37.76-.13.41-.65.6-.88,1l.32,2.35,10.13-.73c.72-.05,1.57-.33,2.23,0,.52,1.06-1.16,1.68-.16,3.26.32.51.53.95,1.12,1.23,1.24.61.36,2,1.48,2.17l1.18.17c.09.13.33.22.29.42l-.15.7c.61.03,1.07.34,1.16.8.23,1.19-1.27,1.28-1.71,2.5-.11.31-.36.5-.61.65l1.46,1.27c.38.33.53.83.23,1.23-.2.26-.68.54-1.07.27-.5-.35-.87-.99-1.48-1.19-.49-.16-1.03.24-1.48.58-.25-.19-.21-.45-.21-.8l-1.31,2.14c-.27.44-.73.49-1.15.5-.46.01-.65-.56-.97-.69-1.88-.29-1.89.78-2.31.84-.39.05-.67-.13-1.06-.23l-2.99-.8c-.41-.11-.74-.4-.85-.74s0-.7.3-1.03c-1.12-.79-2.37-.98-3.72-1l-3.83-.07c-1.38-.03-2.87.08-4.07-.59-.58-.33-.99-.59-1.71-.43l-2.83.63c-.39.09-.77-.01-1.02-.21-.64-.5-.32-1.68.25-2.69.28-.49-.04-.85-.26-1.11.07-.45.07-1.18.34-1.64.26-.44.55-.72.33-1.29-.16-.42-.12-.99.15-1.38.31-.45.28-.94.45-1.4.2-.54.39-.92,0-1.48-.78-1.11.46-2.35-.81-3.62-.67-.67-.8-1.52-1.21-2.33l-.65-1.31c-.21-.43-.78-.75-.8-1.33l-.23-7.37,19.62-.75v-.02Z"/>
          <path class="cls-12" d="M564.11,321.61l-.12,1.25-.09,2.14.07,6.96-.06,5.98.17,7.3.29,5.16c.06,1.11.08,2.31-.08,3.4-.07.5-.84.98-.26,1.7.38.47-.19.99-.2,1.39l-.05,2.57c0,.3-.06.82-.35,1.03-.45.33-.9-.21-1.16-.45l-1.5.46c-.91.08-1.76.52-2.45,1.13l.66.88-1.18-.17c-1.12-.18-.25-1.56-1.48-2.17-.58-.29-.8-.73-1.12-1.23-1-1.58.68-2.2.16-3.26-.65-.34-1.51-.06-2.23,0l-10.13.73-.32-2.35c.23-.4.74-.58.88-1-.1-.23-.37-.53-.37-.76,0-.28.44-.43.61-.65l-.3-.7c-.14-.33.82-.6.86-.67.2-.3-.37-.45-.35-.81.04-.59,1.01-.34,1.13-1.45l.78-.58c-.1-1.19.61-1.33.75-1.84.09-.33-.4-.7-.3-1.04l.51-1.7c-.37-.18-.75,0-1.16.05-.34-.64-.4-1.32-.22-2.04.1-.19.59-.43.5-.78l-.61-.09c-.14-.02-.22-.27-.32-.46-.08-.59.11-1.17.47-1.8-.3-.28-.64-.32-1-.48.27-.94,1.35-1.53.52-2l-.99.9c-.41-.55-.02-1.05.11-1.52.2-.77.64-1.17,1.05-1.81l.24-2.06.6-.38c.4-.26-.24-1.2.52-1.9.26-.24.58-.35,1.08-.17.59-1.21.04-2.28,1.27-2.69.22-1.05.3-2.27,1.07-2.97l14.09-1.04h.01Z"/>
          <path class="cls-17" d="M562.49,263.18c.57,1.23,1.39,1.95,2.77,1.73,1.01-.16,1.68-1.04,2.46-1.29,1.87-.57,3.85-.71,5.85-.7l6.06.04,3.27,22.79c-.28.22-.54.41-.62.58-.19.43.45,1.04-.03,1.59-.14.16-.49.34-.78.31-.73-.06-1.05.21-1.68.56-.32.18-1.23-.04-1.36.57l-.6,2.73c-1.97.55-.84,1.95-1.57,2.86-.62-.07-1.03.03-1.55.25-1.02-.33-1.46-1.66-2.34-1.04-.75.53.47,1.22-.72,2.29-.95.85-2.01-.45-3.09.67-1.43-.45-2.99-.59-4.46-.23-.72.18-1.15.45-1.24,1.3-.76-1.22.55-2.34.07-3.08-.48-.74.3-1.06.9-2.79l.82-2.35c.82-2.36-.48-1.85-.68-2.97-.08-.44.2-.78.31-1.19.38-1.37.06-2.69-.08-4.1l-1.71-18.54h0Z"/>
          <path class="cls-10" d="M629.85,321.5c-.63.62-1.21,1.18-1.64,2.04l-1.83,3.62c-.16.31-.44.56-.66.64-.3.12-.69-.02-1.02-.17-.46.71-.12,1.43.2,2.28-.4,0-.86-.09-1.18.11-.75.45-.61,2.26-1.79,2.52-1.26-1.54-1.45,1.72-2.28,1.63-.19-.02-.34-.11-.59-.26-.2.77-.78,1-1.42,1.33-.31.16.28,1.51-.31,1.53-.17,0-.33-.16-.65-.24.1,1.36.22,2.48-.59,2.55-1.51-.31-2.94-2.63-4.16-4.13-.41-1.67-1.42-3.02-2.77-4.04l-3.88-2.92-2.72-2.42-1.99-2.81c-.56-.79-1.39-1.31-2.45-1.23-1.43-1.48-1.24-2.74-.11-4.35l1.57-1.07c3-1.59,6.46-2.25,9.82-1.72,1.36.22,2.5.82,3.31,1.85-.04-.68-.1-1.28.35-1.78,2.28-2.57,13.63,4.83,16.81,7.05h-.02Z"/>
          <path class="cls-10" d="M661.02,234.47c-2.28-.4-1.03-1.7-2.71-2.37l-3.9-12.33c.87-.53.48-1.58,1.71-2.76.31-1.49-.37-2.62.96-4.27-.79-5.09-.74-11.32,2.38-15.45.59.88,1.07,1.63,1.93,2.05.95.17,1.77-.41,2.31-1.19,1.55-.61,3.12.1,4,1.51.62.99.98,2.07,1.25,3.23l1.31,5.67c.27,1.18.76,2.5,1.77,3.19l1.44.37c.55.55,1.08.91,1.8,1.21.1,1.78,1.02,1.44,1.12,1.79.14.51-.24.98-.07,1.33.06.13.5.18.52.32.1.8-.74,1.34-1.46,1.54-3.04.82-4.26,2.76-5.88,3.06-.97.18-1.69.25-2.22,1.19l-1.36,2.42-2.84,3.96-.85,2.49c-.36,1.05-1.01,1.94-1.21,3.04Z"/>
          <path class="cls-12" d="M559.92,235.13c-1.2.89-1.19-.81-2.63-.34-.12-1.19.82-2.66.3-2.84l-1.98-.69-.42-.91-2.54-.29-6.65-1.64c-1.27-.32-3.17-1.11-3.32-1.96-.07-.39-.02-.91.24-1.15l.87-.83c1.59-.29,2.93-1.08,4.16-2.12l4.39-3.71c.9-.76,2.08-1.04,3.21-.75-1.14,1.35-2.24,2.55-2.82,4.27.77,0,1.18-.59,1.77-1.08.4.25.39.67.29,1.28.52-.21.86-.33,1.35-.07.01.31-.06.61.09.89.43-.16.59-.32.94-.6.34.49.84.36,1.23.55l2.01.98c.65.31,1.21.65,1.71,1.25l3.25-2.18c1.82-1.22,5.2-2.48,6.69-1.14.22.73.32,1.42,1.38,1.5l1.81.14c1.13.09,1.88.97,2.25,1.9.1.24.72.54.42.87-.58.62-1.62.49-2.4.73-.2.19-.1.75.03,1.07-.63.21-1.09-.08-1.66-.39-1.05-.58-2.43-1.11-3.57-.57l-1.7.81c-1.42.67-2.5,1.78-3.75,2.7-.29.21-.53.45-.94.37l.39-1.93c-.79.35-.87,1.13-1.35,1.65-.32.35-.85.18-1.08-.28-1.3.57-1.1,2.93-1.99,4.49l.02.02Z"/>
          <path class="cls-12" d="M642.93,277.57c.5.59.97,1.48.74,2.34-.29,1.08-1.24,1.77-2.05,2.42-.68.55-.6,1.47-.7,2.35-.32.1-1.16.12-1.41-.22-1.07-1.46-.36-3.42-1.58-3.43-.15.23-.2,1.29-.78,1.13-1.57-.43-1.61-3.38-2.74-4.41-.28-.25-.76,0-.91.2-.2.26-.29.68-.1,1.03l1.91,3.54c.25.46.04,1.03-.4,1.17-.93.3-1.05-1.18-1.42-1.15l-2.59.21c-.39.03-.78.12-.93.42-.19.04-.47-.02-.55-.17-.36-.65.8-1.69.61-2.82-.32-1.95-2.83-1.46-3.34-2.99-.36-1.11-1.35-.32-3.15-1.64-.73-.53-1.36-.47-2.18-.52-2.08-.13-2.42.48-3.81,2.34l-1.69,2.28c-.22.3-.57.42-.88.42-.93.02-1.69-1.66-1.98-2.99-.74-3.28,2.67-4.9,5.79-5.62,2.57-.6,5.12-.89,7.77-.99l8.35-.31,1.01-.19c.5.1,1.01.02,1.53-.27.36,3.02.88,8.93,3.7,8.02.61-.19,1.2-.28,1.77-.15h.01Z"/>
          <path class="cls-12" d="M661.02,234.47c.82.14.8,2.67-.34,3.3-.42.23-.71.55-1.13.95l-1.78,1.68-6.9,1.74c-.46.12-.59-.09-.84-.13.16-.69,0-1.3-.36-1.9-.76-1.23.22-2.31-.19-2.95-.37-.57,0-1-.02-1.52,0-.35-.63-.77-.27-1.35.33-.52.18-1.15.04-1.76l.27-1.64-.41-1.52c-.4-1.48,1.78-1.46,1.85-3.79-.26-.68-.25-1.32.1-1.98-.4-.49-.52-.99-.43-1.51.68-.15.84-.65,1.04-1.25.2-.6,1.38-.22,2.75-1.05l3.9,12.33c1.68.67.43,1.97,2.71,2.37v-.02Z"/>
          <path class="cls-10" d="M650.62,222.09c-.09.52.03,1.02.43,1.51-.34.66-.36,1.3-.1,1.98-.07,2.33-2.25,2.31-1.85,3.79l.41,1.52-.27,1.64c.13.61.28,1.23-.04,1.76-.36.58.26,1,.27,1.35.01.53-.35.95.02,1.52.41.64-.57,1.72.19,2.95.37.6.52,1.21.36,1.9-1.15-.15-2.65.7-4.05.68l-.19-2.18c-.17-1.95-1.19-3.59-2.04-5.26l-.18-2.67c-.29-.98-.37-1.99-.01-2.98.3-.85.18-1.31-.19-2.13l-.46-1.98c-.13-.58-.02-1.17-.31-1.67l8.02-1.73h-.01Z"/>
          <path class="cls-10" d="M646.29,260.27c-.27.22-.31.7-.43,1.04-.25-.12-.4-.2-.51-.19-.13.01-.21.32-.14.39.37.38,1.79.89,1.16,2.34-.51,1.18.57,3.07-.16,4.65-.35.76-.74,1.35-.68,2.22.07.96-.4,1.75-.91,2.51l-.63,1.84c-.13.37-.46.59-.8.58-.32,0-.73-.26-.75-.63l-.12-1.76c-.54.47-1.18.41-1.5-.08-.21-.32-.48-.28-.71-.38-.37-.16-.7-.59-1.04-.95-.05-.12.22-.38.35-.42-.27-.38-.19-.77-.36-1.16l-.26-.63c-.06-.15.15-.35.28-.49l1.74-1.75c.24-.24.48-.95.51-1.32l-.5-1.91c-.34-.48-.75-.71-1.03-1.36-.13-.31-.78-.53-.8-1.11l-.1-2.61,1-2c.12-.59.27-.93.55-1.36.32.3.83.16,1.23.29l3.38,1.13c.84.28.91,1.51.7,2.23-.14.46.19.86.52.87v.02Z"/>
          <path class="cls-17" d="M660.69,237.77c.09,1.54,1.65,1.28,1.34,1.82-.23.4-1.05.34-1.32,1.8-.3,1.68,1.67.48,2.02,2.08.13.58.54.89,1.06,1.1.46.19.53.84.91,1.07l.93.56c.32.48.03.97-.29,1.33-.2.23-.65.62-1.05.36-.46-.29-.53-.92-.87-1.35-1.18,1.01-1.23,1.83-1.49,2.13-1.22-.87-2.06-2.03-2.67-3.42l-2.58.43-10.76,2.37c.09-1.77.37-3.6.06-5.36,1.4.01,2.9-.84,4.05-.68.25.03.38.24.84.13l6.9-1.74,1.78-1.68c.42-.39.71-.72,1.13-.95h.01Z"/>
          <path class="cls-12" d="M656.68,245.69l1.16,5.18c.03.15.12.25.22.3-.31.42-.7.49-1.31.52-.73.04-1.3.96-1.92,1.15-1.22.37-2.4.5-3.52,1.16l-1.16.68c-.49.29-1,.47-1.07,1.24l-1.41.64-1.86-7.97c-.06-.27.11-.4.12-.54l10.76-2.37h-.01Z"/>
          <path class="cls-8" d="M639.09,269.17c-.13.13-.34.33-.28.49l.26.63c.16.4.09.79.36,1.16-.13.04-.39.3-.35.42.34.36.67.79,1.04.95l.36,1.71c.15.71.93,1.05,1.48,1.5.58.39,1.01.88.97,1.55-.57-.13-1.16-.05-1.77.15-2.83.9-3.34-5-3.7-8.02-.52.3-1.03.38-1.53.27-.05-.46.28-.52.57-.71.86-.55,1.75-.59,2.59-.09h0Z"/>
          <path class="cls-8" d="M661.93,248.68c-.13.14.13.54-.34.6-.68.09-.6-1.37-1.42-.99s.02,1.28-.19,1.97c-.75.07-1.51.37-1.92.92-.1-.05-.18-.15-.22-.3l-1.16-5.18,2.58-.43c.6,1.39,1.45,2.55,2.67,3.42h0Z"/>
          <path class="cls-17" d="M464.48,238.02l-1.2,17.1-1.11,15.78-2.98-.19c-9.38-.8-18.64-1.91-27.96-3.14-.02.19-.14.78-.37.75l-11.94-1.69,1.34-8.8,3.15-21,.36-2.94,40.71,4.13Z"/>
          <path class="cls-12" d="M508.88,260.46l.45,1.98c.35.55.75.95.29,1.69l.58.77c-.17.64.11.94.45,1.38l.25,2.09c.29.56,1.02.83.74,1.72-.15.47.13,1.01.46,1.34.45.43.16,1.14.23,1.58l.33,2.07c.32.72,1.02,1.1,1.15,1.91s.15,2.05.84,2.66c.87.77,1.65,1.42,1.67,2.61l-14.8.12-26.8-1.22c-.27,0-.55,0-.94-.13l.39-8.66c-4.06.19-7.96-.01-12.02-.29-.1-.47,0-.82.01-1.18l1.11-15.78,16.02.98,16.72.6c.97.03,1.94-.12,2.7.59,1.42,1.31,2.95.32,4.76.74l2.6.6c.69.16,1.26,1.33,2.26,1.07l.53.75h.02Z"/>
          <path class="cls-17" d="M516.33,282.26c.01.95,1.66.53,1.94,1.02.48.83-1.04,2.42-.13,3.73l1.62,1.53c.27.25.73.44.75.97l.64,17.43c-15.89.09-31.75-.28-47.59-1.08l1.18-24.69,26.8,1.22,14.8-.12h-.01Z"/>
          <path class="cls-12" d="M473.55,305.85c15.84.8,31.71,1.17,47.59,1.08.09.09.22.21.23.42l.16,4.24.81,22.87-.96-.71c-.67.08-.99-.36-1.47-.53-.56-.2-1.1-.2-1.57-.57-.76-.59-1.54-.29-2.25.1-.6-.13-1.32-.48-2.04-.24-1.31.43-2.66.41-4.01.53-.79.07-1.4.12-2.09-.32-.5-.32-1.15.21-1.62.19-.8-.04-1.73-.59-2.49-.15-.45.26-.79.6-1.36.52-.74-.11-1.12-1.18-1.54-1.24-.44-.06-1.35,1.37-1.74.8l-1.26-1.83c-2.07.47-2.87-.51-3-.53l-3.48-.53c-.5-.08-.52-2.2-2.19-1.78-.78.2-1.22-.54-2.32-.31l-1.14-1.41-.79-.27.47-16.08-3.74-.11-13.21-.46c-.7-.02-1.27-.05-1.89-.14l.23-4.25,1.68.21,5.01.51h-.02Z"/>
          <path class="cls-17" d="M550.02,322.65c-.77.7-.85,1.92-1.07,2.97-1.23.41-.68,1.48-1.27,2.69-.5-.19-.82-.08-1.08.17-.76.7-.12,1.64-.52,1.9l-.6.38-.24,2.06c-.4.64-.84,1.04-1.05,1.81-.12.46-.51.97-.11,1.52l.99-.9c.83.47-.24,1.06-.52,2,.36.16.7.2,1,.48-.36.63-.55,1.21-.47,1.8l-19.62.75-.23-6.07-1.92.78c-.26.11-.55.21-.78-.03-.1-.11-.18-.31-.19-.51l-.81-22.87,2.45-.03,26.39-1.43c1.01,1.44-.89,2.48-.5,4.07,1.23.09,2.37,0,3.74-.17-.19,1.6-1.84,2.76-1.69,3.56.15.8-.28,1.12-.64,1.7-.41.66.64,2.47-.65,2.87-.32.1-.43.33-.62.5h.01Z"/>
          <path class="cls-10" d="M539.38,277.35l-.03.32c-.12.04-.12.2.03.19.28.63.18,1.29.07,2-.1.64.3,1.25.4,1.83.26,1.49,1.09,2.56,2.38,3.29l1.13,1.31c2.46.94.83,3.45,2.82,3.99.32-.18.7-.72,1.1-.68.4.04.77.17,1.01.61.5.89.42,1.91-.05,2.82l-.38,1.44c-.1.39-.37.97.02,1.28.73.56,1.36,1.15,1.92,1.89.95,1.25,2.32.25,2.35,1.13.05,1.42,1.67,1.33,1.29,3.94-.18,1.22.98,2.5,2.12,2.92.51.95.4,2.22.28,3.2-.44.05-.82-.06-1.14.13-.24.14-.33.62-.38.85l9.79-.26.15-2.04,11.14-.57,14.43-1.57,12.42-1.65c.07.82.5,1.89-.02,2.63-.7.99-1.86,1.62-2.86,2.26-.23-.43-.08-.69-.09-1.08-1.07,1.24-1.03,2.5-3.1,3.55l-3.75,1.89c-2.3,1.16-3.2,3.07-2.87,5.6l-8.54,1.45-16.91,1.57-14.09,1.04c.18-.17.29-.4.62-.5,1.29-.41.24-2.21.65-2.87.36-.58.78-.91.64-1.7-.14-.79,1.51-1.96,1.69-3.56-1.37.17-2.52.26-3.74.17-.4-1.59,1.51-2.63.5-4.07l-26.39,1.43-2.45.03-.16-4.24c0-.2-.14-.33-.23-.42l-.64-17.43c-.02-.52-.48-.72-.75-.97l-1.62-1.53c-.91-1.3.61-2.89.13-3.73-.28-.49-1.92-.07-1.94-1.02-.02-1.19-.8-1.84-1.67-2.61-.69-.61-.71-1.86-.84-2.66l24.17-.82c.45.57.88.92,1.4,1.18v.04Z"/>
          <path class="cls-17" d="M539.7,251.81c.2,1.41,1.17,2.73.75,3.21-1.22,1.41.25,1.75.59,3.42.19.92,1.76.24,2.41,1.43.15.17.67.09.85.04l1.89,2.52c1.13,1.47,1.46,3.6.34,5.16-1.12,1.56-4.38,1.84-4.66,4.14.88,1.46.68,3.31-.85,4.34l-1,.95c-.22.21-.42.34-.66.34-.52-.26-.94-.61-1.4-1.18l-24.17.82c-.13-.82-.84-1.19-1.15-1.91l-.33-2.07c-.07-.44.22-1.15-.23-1.58-.34-.32-.61-.86-.46-1.34.28-.88-.45-1.16-.74-1.72l-.25-2.09c-.34-.44-.62-.74-.45-1.38l-.58-.77c.45-.73.06-1.14-.29-1.69l-.45-1.98c.24-.25.02-.57.04-.9l.09-1.58c-.22-.8-.24-1.5.15-2.23.21-.41-.29-.75-.37-1.02-.17-.5.14-1.02.15-1.45h1.35v-.74l19.3-.2,10.12-.53h.01Z"/>
          <path class="cls-17" d="M539.38,277.86c-.15,0-.15-.15-.03-.19,0,.05,0,.14.03.19Z"/>
          <path class="cls-10" d="M508.18,231.95l.64-.02-.47,1.44c-.63,1.9.45,3.06,1.81,4.5l.13,14.66v.76h-1.34c0,.42-.32.94-.15,1.44.09.27.59.61.37,1.02-.38.73-.36,1.43-.15,2.23l-.09,1.58c-.02.34.2.65-.04.9l-.53-.75c-1.01.26-1.58-.92-2.26-1.07l-2.6-.6c-1.81-.42-3.34.57-4.76-.74-.76-.7-1.73-.55-2.7-.59l-16.72-.6-16.02-.98,1.2-17.1.53-7.78,28.72,1.49,14.45.22h-.02Z"/>
        </g>
      </g>
      <path d="M490.62,348.01c-.34,0-.62.28-.62.62l.95,164.96c0,.34.28.62.62.62h60.52c.34,0,.62-.28.62-.62s-.28-.62-.62-.62h-59.9l-.95-164.34c0-.34-.28-.62-.62-.62Z"/>
      <path class="cls-11" d="M619.98,519.73c3.23-2,4.23-6.24,2.23-9.47-2-3.23-6.24-4.23-9.47-2.24-3.23,2-4.23,6.24-2.23,9.47s6.24,4.23,9.47,2.23Z"/>
      <path class="cls-9" d="M616.36,521.42c-4.14,0-7.5-3.37-7.5-7.5s3.37-7.5,7.5-7.5,7.5,3.37,7.5,7.5-3.37,7.5-7.5,7.5ZM616.36,507.66c-3.45,0-6.26,2.81-6.26,6.26s2.81,6.26,6.26,6.26,6.26-2.81,6.26-6.26-2.81-6.26-6.26-6.26Z"/>
      <path class="cls-15" d="M582.06,517.57c2-3.23,1-7.47-2.24-9.47-3.23-2-7.47-1-9.47,2.24-2,3.23-1,7.47,2.23,9.47s7.47,1,9.47-2.23Z"/>
      <path class="cls-15" d="M603.02,515.21c.72-3.73-1.72-7.34-5.46-8.06-3.73-.72-7.34,1.72-8.06,5.45-.72,3.73,1.72,7.34,5.45,8.06,3.73.72,7.34-1.72,8.06-5.45Z"/>
      <path d="M530.21,549.64h16.35c.34,0,.62-.28.62-.62s-.28-.62-.62-.62h-16.35c-.34,0-.62.28-.62.62s.28.62.62.62Z"/>
      <path d="M559.98,549.64h70.51c.34,0,.62-.28.62-.62s-.28-.62-.62-.62h-70.51c-.34,0-.62.28-.62.62s.28.62.62.62Z"/>
      <path d="M530.21,564.12h56.79c.34,0,.62-.28.62-.62s-.28-.62-.62-.62h-56.79c-.34,0-.62.28-.62.62s.28.62.62.62Z"/>
      <path d="M601.55,564.12h28.94c.34,0,.62-.28.62-.62s-.28-.62-.62-.62h-28.94c-.34,0-.62.28-.62.62s.28.62.62.62Z"/>
      <path d="M530.21,578.59h22.25c.34,0,.62-.28.62-.62s-.28-.62-.62-.62h-22.25c-.34,0-.62.28-.62.62s.28.62.62.62Z"/>
    </g>
  </g>
</svg>