<svg width="506" height="347" viewBox="0 0 506 347" fill="none" xmlns="http://www.w3.org/2000/svg">
<g clip-path="url(#clip0_2444_3028)">
<path d="M487.834 326.066C487.291 325.637 486.967 324.987 486.967 324.289V323.282C486.967 319.074 483.727 315.486 479.567 315.337C475.197 315.178 471.604 318.713 471.604 323.095V324.289C471.604 324.982 471.28 325.637 470.737 326.066C468.969 327.452 467.816 329.605 467.764 332.027C467.668 336.39 471.318 339.958 475.636 339.958H478.647V346.237H479.924V339.958H482.936C487.253 339.958 490.898 336.385 490.808 332.027C490.755 329.6 489.602 327.452 487.834 326.066Z" fill="#E1ECE9"/>
<path d="M418.958 319.761C418.24 319.201 417.811 318.351 417.811 317.438V316.122C417.811 310.619 413.525 305.928 408.023 305.733C402.244 305.526 397.492 310.147 397.492 315.876V317.438C397.492 318.344 397.064 319.201 396.345 319.761C394.007 321.574 392.482 324.389 392.413 327.556C392.287 333.26 397.114 337.925 402.824 337.925H406.977V346.135H408.327V337.925H412.479C418.189 337.925 423.011 333.253 422.891 327.556C422.821 324.382 421.296 321.574 418.958 319.761Z" fill="#E1ECE9"/>
<path d="M458.622 325.342C458.301 325.166 458.093 324.838 458.074 324.473C457.765 318.75 456.706 312.189 451.261 312.189C445.816 312.189 444.757 318.744 444.448 324.467C444.429 324.832 444.221 325.159 443.9 325.336C441.499 326.652 439.898 329.239 440.005 332.192C440.156 336.253 443.616 339.407 447.688 339.407H450.586V346.484H451.936V339.407H454.835C458.9 339.407 462.366 336.253 462.517 332.192C462.624 329.239 461.023 326.652 458.622 325.336V325.342Z" fill="#E1ECE9"/>
<path d="M432.014 335.524C431.856 335.436 431.749 335.272 431.743 335.09C431.591 332.225 431.056 328.951 428.339 328.951C425.623 328.951 425.087 332.231 424.936 335.09C424.923 335.272 424.823 335.436 424.665 335.524C423.468 336.185 422.661 337.476 422.718 338.956C422.793 340.983 424.526 342.563 426.556 342.563H427.746V346.102H428.945V342.563H430.136C432.171 342.563 433.898 340.983 433.974 338.956C434.03 337.476 433.224 336.185 432.026 335.524H432.014Z" fill="#E1ECE9"/>
<path d="M362.313 305.103L341.231 284.043L320.15 305.103H299.453V346.141H383.004V305.103H362.313Z" fill="#E1ECE9"/>
<path d="M5.76083 223.268H16.0841V146.789H24.9326V118.23H32.7601V102.855H39.6549V76.4746H42.5855V102.855H48.7492V106.337H54.1944V118.23H62.022V131.15H69.5092V146.789H79.3787V232.447H89.9225V292.965H96.7227V268.045H107.601V276.533H116.355V250.555H122.726V261.158H127.497V267.781H136.257V248.433H150.847V225.112H181.622V234.122H189.317V218.747H190.111V234.122H196.747V252.941H200.195V292.166H203.907V244.46H206.031V226.699H207.096V244.46H209.214V252.412H212.132V292.166H238.135V269.109H246.624V278.912H251.402V308.07H260.42V257.714H271.828V271.496H280.852V277.59H289.342V281.034H306.32V346.142H5.76083V223.268Z" fill="#E1ECE9"/>
</g>
<path d="M152.209 180.27L153.608 316.209L105.852 316.287L106.119 206.502L90.1641 180.27H152.209Z" fill="#01654D"/>
<path d="M90.1604 180.27H63.9857L28.9219 316.209L76.6776 316.287L110.804 206.502L136.455 180.27H90.1604Z" fill="#01654D"/>
<path d="M111.535 319.637L112.31 346.336H169.411C169.411 346.336 177.514 328.38 149.469 328.38C148.82 322.901 149.904 319.297 149.904 319.297L111.535 319.637Z" fill="#EAE2CF"/>
<path d="M111.535 319.637L112.31 346.336H169.411C169.411 346.336 177.514 328.38 149.469 328.38C148.752 323.964 149.904 319.297 149.904 319.297L111.535 319.637Z" stroke="#111727" stroke-miterlimit="10"/>
<path d="M73.4798 319.673L68.7655 346.335H11.665C11.665 346.335 3.56171 328.378 31.6065 328.378C32.5912 323.229 33.6022 319.316 33.6022 319.316L73.4798 319.673Z" fill="#EAE2CF" stroke="#111727" stroke-miterlimit="10"/>
<path d="M103.939 323.225H156.388L158.112 308.521H102.227L103.945 323.225H103.939Z" fill="#01654D"/>
<path d="M78.5916 323.225H26.1478L24.4297 308.521H80.3149L78.5916 323.225Z" fill="#01654D"/>
<path d="M158.104 308.521H102.219" stroke="#111727" stroke-miterlimit="10"/>
<path d="M156.39 323.225H103.941" stroke="#111727" stroke-miterlimit="10"/>
<path d="M80.3149 308.521H24.4297" stroke="#111727" stroke-miterlimit="10"/>
<path d="M78.5922 323.225H26.1484" stroke="#111727" stroke-miterlimit="10"/>
<path d="M506 346.236H0" stroke="#111727" stroke-miterlimit="10"/>
<path d="M58.7734 182.372H163.53L162.624 102.167C162.545 95.3257 158.198 89.26 151.75 86.9867L135.648 81.3086H98.3001L72.6334 84.8548L58.7787 182.372H58.7734Z" fill="#EAE2CF"/>
<path d="M58.7734 182.372H163.53L162.624 102.167C162.545 95.3257 158.198 89.26 151.75 86.9867L135.648 81.3086H98.3001L72.6334 84.8548L58.7787 182.372H58.7734Z" stroke="#111727" stroke-miterlimit="10"/>
<path d="M96.1653 87.1236L106.112 62.0174L102.755 62.2584L98.2606 61.5984L94.9658 59.8593L92.9229 57.1041L92.5039 53.9874L93.761 50.9912L97.4172 48.655H99.9944L102.451 48.7755L147.457 36.4922L148.714 39.4884L150.092 46.5546L150.752 53.7465L150.332 60.6398L141.218 75.7989L124.718 81.3879L106.579 90.0569L96.1549 87.1184L96.1653 87.1236Z" fill="#EAE2CF"/>
<path d="M147.841 36.4076C155.002 63.2371 145.185 78.2704 141.487 83.9328L141.299 84.2209C139.78 86.5466 137.25 87.83 134.646 87.83C133.431 87.83 132.2 87.5471 131.043 86.9604L130.791 86.8347C124.773 83.7862 108.802 75.6985 101.562 48.8219L147.841 36.4023V36.4076Z" stroke="#111727" stroke-miterlimit="10"/>
<path d="M111.222 9.81426L119.97 7.47283C130.331 4.69664 140.99 10.8514 143.766 21.2071L147.847 36.4343L101.563 48.8328L97.4826 33.6057C94.7064 23.25 100.861 12.5904 111.222 9.81426Z" fill="#E9BE51"/>
<path d="M101.559 48.8025L160.037 33.1406C161.142 32.8421 161.802 31.7054 161.509 30.6002C161.21 29.4949 160.073 28.8349 158.963 29.1283L134.181 35.7702" fill="#E9BE51"/>
<path d="M101.559 48.8025L160.037 33.1406C161.142 32.8421 161.802 31.7054 161.509 30.6002C161.21 29.4949 160.073 28.8349 158.963 29.1283L134.181 35.7702" stroke="#111727" stroke-miterlimit="10"/>
<path d="M101.556 48.8011C95.941 46.6221 90.572 52.8711 93.7096 58.0673C96.6534 62.944 102.986 62.4359 106.716 61.933" stroke="#111727" stroke-miterlimit="10"/>
<path d="M131.262 45.9258C132.697 51.3996 136.432 56.4648 141.806 59.3458C145.085 61.1058 140.208 64.0182 134.976 59.9482" stroke="#111727" stroke-miterlimit="10"/>
<path d="M125.945 65.5321C115.735 62.6564 112.896 55.3493 109.916 46.5859L101.566 48.8278C108.805 75.6993 124.776 83.7921 130.795 86.8355L131.046 86.9612C132.199 87.5478 133.435 87.8307 134.65 87.8307C137.254 87.8307 139.784 86.5474 141.303 84.2216L141.491 83.9336C143.99 80.1097 149.28 72.0064 150.239 58.8693C143.749 64.7464 134.739 68.0097 125.945 65.5321Z" fill="#111727" stroke="#111727" stroke-width="2" stroke-miterlimit="10"/>
<path d="M127.342 54.9662C128.515 54.9662 129.468 54.0129 129.468 52.8396C129.468 51.6662 128.515 50.7129 127.342 50.7129C126.168 50.7129 125.215 51.6662 125.215 52.8396C125.215 54.0129 126.168 54.9662 127.342 54.9662Z" stroke="#111727" stroke-miterlimit="10"/>
<path d="M116.263 107.154C117.437 107.154 118.39 106.2 118.39 105.027C118.39 103.854 117.437 102.9 116.263 102.9C115.09 102.9 114.137 103.854 114.137 105.027C114.137 106.2 115.09 107.154 116.263 107.154Z" stroke="#111727" stroke-miterlimit="10"/>
<path d="M118.439 117.117C119.612 117.117 120.566 116.163 120.566 114.99C120.566 113.817 119.612 112.863 118.439 112.863C117.266 112.863 116.312 113.817 116.312 114.99C116.312 116.163 117.266 117.117 118.439 117.117Z" stroke="#111727" stroke-miterlimit="10"/>
<path d="M142.732 52.8393C143.905 52.8393 144.859 51.8859 144.859 50.7126C144.859 49.5393 143.905 48.5859 142.732 48.5859C141.559 48.5859 140.605 49.5393 140.605 50.7126C140.605 51.8859 141.559 52.8393 142.732 52.8393Z" stroke="#111727" stroke-miterlimit="10"/>
<path d="M126.828 46.5918C124.549 46.9532 122.81 48.1789 121.883 49.7661" stroke="#111727" stroke-miterlimit="10"/>
<path d="M142.09 43.6904C144.347 43.2294 146.406 43.7637 147.836 44.9266" stroke="#111727" stroke-miterlimit="10"/>
<path d="M128.059 72.2898C131.259 74.5265 138.247 74.7308 141.002 71.0117" stroke="#E8E0CD" stroke-miterlimit="10"/>
<path d="M106.737 60.3398L98.293 81.3132L120.146 94.7698L131.618 80.5484L106.737 60.3398Z" stroke="#111727" stroke-miterlimit="10"/>
<path d="M125.203 119.956C125.14 119.773 120.148 94.7715 120.148 94.7715" stroke="#111727" stroke-miterlimit="10"/>
<path d="M98.2852 81.3926L104.817 109.38C104.817 109.38 110.118 94.7759 120.149 94.7759C130.18 94.7759 137.665 105.032 137.665 105.032L134.004 87.0288" stroke="#111727" stroke-miterlimit="10"/>
<path d="M125.897 15.1895L123.797 17.1537L128.789 22.4861L130.889 20.5218L125.897 15.1895Z" fill="#01654D"/>
<path d="M132.189 19.3739C134.912 22.6792 135.096 25.4658 135.012 27.0635C133.399 27.0373 130.622 26.6549 127.474 23.6587C127.364 23.7216 127.265 23.7844 127.15 23.842C126.317 24.2873 125.479 24.6382 124.656 24.9001C129.501 30.0649 134.053 29.9654 135.771 29.9339H135.845C136.175 29.9235 136.484 29.8449 136.756 29.6982C137.338 29.3892 137.757 28.7973 137.814 28.0901L137.825 28.0063C137.977 26.2935 138.38 21.7416 133.556 16.582C133.231 17.5511 132.781 18.4939 132.189 19.3844V19.3739Z" fill="white"/>
<path d="M370.749 73.2461H154.641V236.366H370.749V73.2461Z" fill="#01654D" stroke="#111727" stroke-miterlimit="10"/>
<path d="M366.424 73.2461H150.316V90.7099H366.424V73.2461Z" fill="#EAE2CF" stroke="#111727" stroke-miterlimit="10"/>
<path d="M366.424 73.2461H150.316V90.7099H366.424V73.2461Z" fill="#EAE2CF" stroke="#111727" stroke-miterlimit="10"/>
<path d="M366.424 90.4082H150.316V236.368H366.424V90.4082Z" fill="white" stroke="#111727" stroke-miterlimit="10"/>
<path d="M160.261 85.5714C162.247 85.5714 163.855 83.9633 163.855 81.9781C163.855 79.9929 162.247 78.3848 160.261 78.3848C158.276 78.3848 156.668 79.9929 156.668 81.9781C156.668 83.9633 158.276 85.5714 160.261 85.5714Z" fill="#EAE2CF" stroke="#111727" stroke-miterlimit="10"/>
<path d="M170.058 85.5714C172.043 85.5714 173.652 83.9633 173.652 81.9781C173.652 79.9929 172.043 78.3848 170.058 78.3848C168.073 78.3848 166.465 79.9929 166.465 81.9781C166.465 83.9633 168.073 85.5714 170.058 85.5714Z" fill="#EAE2CF" stroke="#111727" stroke-miterlimit="10"/>
<path d="M179.859 85.5714C181.844 85.5714 183.452 83.9633 183.452 81.9781C183.452 79.9929 181.844 78.3848 179.859 78.3848C177.874 78.3848 176.266 79.9929 176.266 81.9781C176.266 83.9633 177.874 85.5714 179.859 85.5714Z" fill="#EAE2CF" stroke="#111727" stroke-miterlimit="10"/>
<path d="M257.116 73.2945L256.849 71.2569L254.779 67.2393L251.516 65.2959L247.142 64.9659L245.22 65.6521L242.978 64.9973L239.715 64.8454L236.352 65.715L234.948 64.6621L230.993 64.5469L227.128 66.0712L225.059 68.5854L224.042 73.0221L223.922 81.4083L225.299 83.7131L227.966 84.5669L231.02 83.7131L232.125 81.8273L232.785 83.7707L234.251 85.2112L236.142 85.9288L238.536 85.3002L240.066 83.3202L240.396 81.4973L241.92 83.5926L243.298 84.3416L246.058 84.2526L247.912 82.8435L248.546 74.8764L248.672 73.064L257.116 73.2893V73.2945Z" fill="#EAE2CF"/>
<path d="M232.372 72.6243L232.152 80.6124C232.089 82.8595 230.214 84.6352 227.967 84.5776C225.72 84.5148 223.939 82.6395 224.002 80.3924L224.222 72.4043" stroke="#111727" stroke-miterlimit="10"/>
<path d="M240.526 72.8489L240.285 81.717C240.222 83.9641 238.347 85.7399 236.1 85.6822C233.853 85.6194 232.072 83.7441 232.134 81.497L232.375 72.6289" stroke="#111727" stroke-miterlimit="10"/>
<path d="M240.525 72.8496L240.326 80.1148C240.263 82.362 242.039 84.2372 244.291 84.3001C246.538 84.3629 248.419 82.5872 248.476 80.3348L248.555 73.2948C251.095 73.2948 260.262 73.2477 260.262 73.2477" stroke="#111727" stroke-miterlimit="10"/>
<path d="M256.823 73.2956C256.949 68.7961 253.397 65.0456 248.898 64.9251C244.398 64.7994 240.648 68.3508 240.527 72.8504" stroke="#111727" stroke-miterlimit="10"/>
<path d="M244.795 65.9039C243.616 65.1758 242.233 64.7411 240.745 64.7044C236.246 64.5787 232.495 68.1301 232.375 72.6296" stroke="#111727" stroke-miterlimit="10"/>
<path d="M236.642 65.6774C235.464 64.9493 234.081 64.5145 232.593 64.4778C228.094 64.3521 224.343 67.9036 224.223 72.4031" stroke="#111727" stroke-miterlimit="10"/>
<path d="M154.948 158.801L145.944 157.764L145.98 157.481L165.236 159.566C167.729 159.849 169.992 158.094 170.337 155.611C170.699 153.05 168.829 150.734 166.257 150.425L147.122 148.178L144.624 147.869L145.058 145.077L134.415 146.622L90.0165 141.217V99.3591C90.0165 91.2191 83.4165 84.6191 75.2765 84.6191C67.1365 84.6191 60.5312 91.2139 60.5312 99.3591V152.468C60.5312 160.572 66.3298 167.512 74.3074 168.958L133.011 175.636L150.805 177.705C153.371 177.993 156.247 176.029 156.546 173.462C156.844 170.891 155 168.565 152.428 168.266L144.77 167.313L144.791 167.13L153.879 168.109C156.446 168.397 158.767 166.564 159.065 163.992C159.364 161.42 157.52 159.094 154.948 158.796V158.801Z" fill="#EAE2CF"/>
<path d="M154.843 158.502L145.881 157.465L145.98 157.476L165.236 159.561C167.729 159.843 169.992 158.083 170.337 155.606C170.699 153.044 168.829 150.729 166.257 150.42L147.122 148.173L144.624 147.864L134.415 146.622L90.0165 141.217V99.3591C90.0165 91.2191 83.4165 84.6191 75.2765 84.6191C67.1365 84.6191 60.5312 91.2139 60.5312 99.3591V152.468C60.5312 160.572 66.3298 167.512 74.3074 168.958L133.011 175.636L150.805 177.663C153.371 177.952 156.247 175.987 156.546 173.421C156.844 170.849 155 168.523 152.428 168.224L144.77 167.308L145.231 167.365L154.272 168.345C156.839 168.633 158.719 166.559 159.018 163.992C159.316 161.42 157.41 158.801 154.838 158.502H154.843Z" stroke="#111727" stroke-miterlimit="10"/>
<path d="M90.0165 122.417C79.9855 114.869 66.7279 116.666 60.5312 123.02L90.0165 122.417Z" fill="#EAE2CF"/>
<path d="M90.0165 122.417C79.9855 114.869 66.7279 116.666 60.5312 123.02" stroke="#111727" stroke-miterlimit="10"/>
<path d="M201.311 6.87443C202.357 5.1814 201.833 2.96061 200.14 1.91416C198.447 0.867703 196.226 1.39186 195.18 3.08489C194.133 4.77792 194.658 6.99871 196.351 8.04516C198.044 9.09161 200.264 8.56746 201.311 6.87443Z" fill="#E7DFCD"/>
<path d="M212.298 5.65031C212.674 3.69588 211.395 1.80644 209.441 1.43008C207.486 1.05372 205.597 2.33296 205.221 4.28738C204.844 6.2418 206.123 8.13127 208.078 8.50764C210.032 8.884 211.922 7.60473 212.298 5.65031Z" fill="#E7DFCD"/>
<path d="M221.164 8.02529C222.857 6.97884 223.381 4.75805 222.334 3.06502C221.288 1.37199 219.067 0.847839 217.374 1.89429C215.681 2.94074 215.157 5.16153 216.203 6.85456C217.25 8.54759 219.471 9.07174 221.164 8.02529Z" fill="white"/>
<path d="M219.276 8.90011C217.108 8.90011 215.348 7.13487 215.348 4.97154C215.348 2.80821 217.113 1.04297 219.276 1.04297C221.44 1.04297 223.205 2.80821 223.205 4.97154C223.205 7.13487 221.44 8.90011 219.276 8.90011ZM219.276 1.6925C217.469 1.6925 215.997 3.1644 215.997 4.97154C215.997 6.77868 217.469 8.25059 219.276 8.25059C221.083 8.25059 222.555 6.77868 222.555 4.97154C222.555 3.1644 221.083 1.6925 219.276 1.6925Z" fill="#09644A"/>
<path d="M247.155 16.4171H238.59C238.412 16.4171 238.266 16.2704 238.266 16.0923C238.266 15.9142 238.412 15.7676 238.59 15.7676H247.155C247.333 15.7676 247.479 15.9142 247.479 16.0923C247.479 16.2704 247.333 16.4171 247.155 16.4171Z" fill="black"/>
<path d="M231.567 16.4171H194.633C194.455 16.4171 194.309 16.2704 194.309 16.0923C194.309 15.9142 194.455 15.7676 194.633 15.7676H231.567C231.745 15.7676 231.892 15.9142 231.892 16.0923C231.892 16.2704 231.745 16.4171 231.567 16.4171Z" fill="black"/>
<path d="M247.158 24.0011H217.411C217.233 24.0011 217.086 23.8544 217.086 23.6763C217.086 23.4982 217.233 23.3516 217.411 23.3516H247.158C247.336 23.3516 247.483 23.4982 247.483 23.6763C247.483 23.8544 247.336 24.0011 247.158 24.0011Z" fill="black"/>
<path d="M209.792 24.0011H194.633C194.455 24.0011 194.309 23.8544 194.309 23.6763C194.309 23.4982 194.455 23.3516 194.633 23.3516H209.792C209.97 23.3516 210.117 23.4982 210.117 23.6763C210.117 23.8544 209.97 24.0011 209.792 24.0011Z" fill="black"/>
<path d="M247.155 31.5851H235.501C235.322 31.5851 235.176 31.4384 235.176 31.2603C235.176 31.0822 235.322 30.9355 235.501 30.9355H247.155C247.333 30.9355 247.48 31.0822 247.48 31.2603C247.48 31.4384 247.333 31.5851 247.155 31.5851Z" fill="black"/>
<path d="M194.129 117.993C193.951 117.993 193.805 117.846 193.805 117.668L194.302 31.2603C194.302 31.0822 194.449 30.9355 194.627 30.9355H226.328C226.506 30.9355 226.653 31.0822 226.653 31.2603C226.653 31.4384 226.506 31.5851 226.328 31.5851H194.952L194.454 117.668C194.454 117.846 194.308 117.993 194.129 117.993Z" fill="black"/>
<path d="M304.885 272.148C305.932 270.455 305.407 268.234 303.714 267.188C302.021 266.141 299.801 266.665 298.754 268.358C297.708 270.051 298.232 272.272 299.925 273.319C301.618 274.365 303.839 273.841 304.885 272.148Z" fill="#E7DFCD"/>
<path d="M315.868 270.914C316.245 268.96 314.966 267.07 313.011 266.694C311.057 266.317 309.167 267.597 308.791 269.551C308.414 271.505 309.694 273.395 311.648 273.771C313.603 274.148 315.492 272.868 315.868 270.914Z" fill="#E7DFCD"/>
<path d="M277.731 288.946H286.295C286.473 288.946 286.62 288.8 286.62 288.622C286.62 288.444 286.473 288.297 286.295 288.297H277.731C277.553 288.297 277.406 288.444 277.406 288.622C277.406 288.8 277.553 288.946 277.731 288.946Z" fill="black"/>
<path d="M293.325 288.946H330.259C330.437 288.946 330.583 288.8 330.583 288.622C330.583 288.444 330.437 288.297 330.259 288.297H293.325C293.147 288.297 293 288.444 293 288.622C293 288.8 293.147 288.946 293.325 288.946Z" fill="black"/>
<path d="M277.731 296.532H307.478C307.656 296.532 307.803 296.386 307.803 296.208C307.803 296.029 307.656 295.883 307.478 295.883H277.731C277.553 295.883 277.406 296.029 277.406 296.208C277.406 296.386 277.553 296.532 277.731 296.532Z" fill="black"/>
<path d="M315.098 296.532H330.257C330.435 296.532 330.582 296.386 330.582 296.208C330.582 296.029 330.435 295.883 330.257 295.883H315.098C314.92 295.883 314.773 296.029 314.773 296.208C314.773 296.386 314.92 296.532 315.098 296.532Z" fill="black"/>
<path d="M277.731 304.112H289.386C289.564 304.112 289.711 303.966 289.711 303.788C289.711 303.61 289.564 303.463 289.386 303.463H277.731C277.553 303.463 277.406 303.61 277.406 303.788C277.406 303.966 277.553 304.112 277.731 304.112Z" fill="black"/>
<path d="M256.993 183.33C256.815 183.33 256.668 183.477 256.668 183.655L257.166 270.062C257.166 270.241 257.312 270.387 257.49 270.387H289.191C289.369 270.387 289.516 270.241 289.516 270.062C289.516 269.884 289.369 269.738 289.191 269.738H257.815L257.317 183.655C257.317 183.477 257.171 183.33 256.993 183.33Z" fill="black"/>
<path d="M324.757 273.283C326.45 272.237 326.975 270.016 325.928 268.323C324.882 266.63 322.661 266.106 320.968 267.152C319.275 268.199 318.751 270.419 319.797 272.112C320.844 273.805 323.064 274.33 324.757 273.283Z" fill="white"/>
<path d="M322.858 274.166C320.69 274.166 318.93 272.4 318.93 270.237C318.93 268.074 320.695 266.309 322.858 266.309C325.022 266.309 326.787 268.074 326.787 270.237C326.787 272.4 325.022 274.166 322.858 274.166ZM322.858 266.958C321.051 266.958 319.579 268.43 319.579 270.237C319.579 272.044 321.051 273.516 322.858 273.516C324.665 273.516 326.137 272.044 326.137 270.237C326.137 268.43 324.665 266.958 322.858 266.958Z" fill="#09644A"/>
<g clip-path="url(#clip1_2444_3028)">
<path d="M210.807 103.991L210.132 107.648C210.064 108.009 209.786 108.575 209.99 108.91C210.195 109.245 210.315 109.366 210.352 109.8C210.373 110.057 210.587 110.324 210.273 110.591C209.555 111.199 210.325 112.739 210.912 113.708C211.53 114.74 212.567 114.452 212.897 114.908C213.18 115.3 212.667 115.678 212.798 116.338C212.976 117.233 211.902 117.275 211.724 117.982C211.63 118.354 211.74 118.7 212.002 118.972C212.264 119.245 212.531 119.585 212.913 119.706C213.175 119.79 213.421 119.135 213.971 119.281C214.144 119.329 214.285 119.554 214.317 119.79L214.458 120.858C214.678 121.45 214.767 122.005 214.589 122.629C214.375 123.393 215.213 123.252 215.742 124.169C216.166 124.902 216.92 125.206 217.737 125.075L219.33 125.101C219.943 124.96 220.482 124.792 221.116 124.98L221.781 125.085L220.131 136.085C216.988 135.823 213.872 135.436 210.687 134.975L207.057 156.603L206.276 159.929L205.444 160.353C205.224 159.987 204.899 160.002 204.564 159.882C204.417 159.83 204.202 159.683 204.035 159.809C203.705 160.055 204.197 160.741 203.993 161.045C203.767 161.375 203.736 161.631 203.705 162.009L203.464 162.726C203.725 162.983 203.673 163.25 203.521 163.543C203.317 163.947 203.474 164.418 203.464 164.842C203.453 165.319 203.369 165.759 203.579 166.241C203.343 166.587 203.38 166.948 203.699 167.179C204.103 167.55 204.48 168.064 204.338 168.399C204.134 168.886 203.16 168.797 203.045 169.206C202.955 169.51 202.945 169.688 202.636 169.834C202.783 170.243 202.751 170.997 202.673 171.154C202.615 171.264 202.374 171.327 202.248 171.406C202.175 172.134 201.478 171.987 201.426 172.406C201.368 172.92 201.662 173.339 202.117 173.538L202.039 174.046C201.63 173.925 201.195 174.072 200.729 174.03L195.177 173.543C194.632 173.496 194.066 173.548 193.679 173.103C193.406 172.789 193.244 172.328 193.145 171.919C193.003 171.348 192.725 170.898 192.537 170.369C192.223 169.483 191.772 168.687 191.165 167.98L190.389 167.357L189.703 166.76C189.357 166.309 189.075 165.927 188.509 165.754C187.885 165.565 187.362 165.115 187.032 164.56C186.702 164.004 186.241 163.643 185.617 163.439L184.716 162.951C184.214 162.679 183.595 162.543 183.161 162.166C182.679 161.752 182.831 161.04 183.025 160.537C183.302 159.83 183.025 159.101 182.679 158.468C182.438 158.022 182.312 157.472 181.925 157.148C181.626 156.901 181.469 156.723 181.306 156.351L180.463 154.424C180.081 153.544 179.95 152.606 180.29 151.679C180.495 151.8 180.704 151.904 180.898 151.82C180.725 151.03 180.112 150.574 179.704 149.966C179.332 149.421 179.358 148.641 179.494 148.023L179.782 146.698L178.64 145.734C178.525 145.634 178.357 145.603 178.326 145.472C178.237 145.079 178.986 144.922 178.614 144.199C177.519 142.062 177.257 139.689 177.886 137.374C177.367 135.87 176.456 134.142 177.483 133.042C178.122 132.356 178.567 131.523 178.729 130.575C178.792 130.219 179.017 129.841 179.033 129.506C179.059 128.904 179.106 128.307 179.08 127.757L183.077 128.946L191.673 131.219C194.946 132.083 198.168 132.785 201.567 133.419L202.856 127.479C203.212 125.834 203.526 124.258 203.72 122.592C203.49 121.953 203.856 121.476 204.333 121.12C204.349 120.172 205.051 120.203 205.213 119.412C205.302 118.983 205.705 118.768 205.905 118.506C206.313 117.988 206.041 117.48 205.763 117.055C205.501 116.662 205.47 116.191 205.066 115.882L207.429 103.326L210.813 103.981L210.807 103.991Z" fill="#F3D065"/>
<path d="M220.134 136.094L219.433 140.704L225.687 141.589C225.807 141.605 225.865 141.301 225.881 141.196C230.763 141.84 235.613 142.422 240.526 142.841L242.087 142.94C242.072 143.129 242.03 143.312 242.082 143.559C244.209 143.705 246.252 143.81 248.378 143.71L248.174 148.247C248.378 148.315 248.525 148.309 248.666 148.315L248.048 161.248L245.424 160.98L244.544 160.87C237.567 160.436 230.605 159.865 223.592 159.027L220.512 183.478L213.786 182.991L202.671 176.731L202.157 176.265C201.827 175.967 201.702 175.417 201.995 175.071C202.288 174.725 202.299 174.364 202.026 174.049L202.105 173.541C201.649 173.342 201.356 172.923 201.413 172.41C201.461 171.991 202.157 172.138 202.236 171.409C202.367 171.331 202.608 171.268 202.66 171.158C202.739 171.001 202.77 170.241 202.623 169.838C202.933 169.691 202.948 169.513 203.032 169.209C203.147 168.806 204.122 168.895 204.326 168.403C204.467 168.068 204.085 167.554 203.687 167.182C203.373 166.952 203.331 166.59 203.566 166.245C203.357 165.763 203.435 165.323 203.451 164.846C203.462 164.422 203.304 163.95 203.509 163.547C203.655 163.254 203.713 162.992 203.451 162.73L203.692 162.012C203.723 161.64 203.76 161.379 203.98 161.049C204.184 160.75 203.692 160.059 204.022 159.812C204.19 159.687 204.41 159.833 204.551 159.886C204.886 160.006 205.211 159.99 205.431 160.357L206.264 159.933L207.044 156.607L210.674 134.979C213.859 135.439 216.981 135.827 220.119 136.089L220.134 136.094Z" fill="#888B54"/>
<path d="M273.61 176.23C273.61 176.334 273.657 176.439 273.709 176.497C273.824 176.628 273.976 176.57 274.118 176.513L275.123 176.104L275.244 179.283L275.364 183.144C275.375 183.443 275.673 183.615 275.783 183.841L276.124 184.527C276.333 184.951 276.407 185.396 276.758 185.747C277.423 186.413 276.773 187.062 277.182 187.643C277.386 187.937 277.287 188.141 277.182 188.419C277.093 188.66 277.109 188.916 276.946 189.152C276.805 189.356 276.789 189.66 276.868 189.875C276.983 190.179 276.831 190.325 276.695 190.551C276.553 190.792 276.553 191.174 276.517 191.41C276.061 191.535 275.532 191.583 275.108 191.834C274.83 192.002 274.647 192.159 274.264 192.133C273.494 192.07 272.73 191.933 271.986 191.719C271.441 191.562 270.891 191.719 270.608 192.211L269.686 193.798C269.115 194.778 268.544 195.679 267.633 196.354L265.391 198.025L263.055 199.948C262.348 200.655 261.971 201.514 261.876 202.514C261.745 203.929 261.903 205.291 262.138 206.7C262.269 207.496 262.405 208.313 262.191 209.135L259.21 207.993C258.87 207.925 257.932 208.444 256.355 206.637C256.549 205.259 254.973 204.657 255.323 203.174C255.109 202.473 254.789 201.849 254.339 201.278L252.694 199.193C252.259 198.643 252.013 198.062 251.762 197.418C250.614 194.453 248.456 192.017 245.13 191.823C244.318 192.195 243.648 192.709 243.077 193.379L241.846 194.83C240.673 196.213 238.876 194.322 237.593 193.159C236.927 192.557 236.414 191.886 236.157 191.022L235.555 189.005C235.44 188.618 235.298 188.052 235 187.764L233.428 186.271L231.899 184.417L231.286 183.642C231.05 183.348 230.856 183.17 230.704 182.803C230.621 182.604 230.249 182.468 230.254 182.212L231.438 181.892L243.292 182.583L244.418 163.082C244.743 163.134 245.041 163.145 245.408 163.155L252.327 163.396L254.286 163.454L254.04 171.877L254.454 172.018L255.051 172.757C255.627 172.636 255.858 173.019 256.266 172.919C257.141 172.699 257.152 173.81 257.413 173.852L259.236 174.129C259.304 174.14 259.723 174.653 260.808 174.407L261.468 175.365C261.672 175.659 262.143 174.915 262.379 174.946C262.599 174.973 262.798 175.538 263.186 175.596C263.479 175.638 263.663 175.46 263.898 175.323C264.296 175.093 264.789 175.381 265.203 175.402C265.449 175.418 265.789 175.135 266.051 175.303C266.413 175.538 266.732 175.507 267.146 175.47C267.853 175.407 268.56 175.418 269.246 175.193C269.623 175.072 270.001 175.25 270.315 175.318C270.687 175.109 271.095 174.957 271.493 175.266C271.745 175.46 272.023 175.46 272.316 175.564C272.567 175.653 272.735 175.884 273.086 175.842L273.589 176.214L273.61 176.23Z" fill="#2A634E"/>
<path d="M181.614 215.987L182.049 216.747C181.855 217.271 181.515 217.69 181.085 218.067C179.592 219.366 177.838 220.314 175.942 220.895C174.585 221.309 173.673 220.78 173.689 221.44L173.715 222.488C173.715 222.692 173.59 222.886 173.427 222.954C173.097 223.09 172.678 222.514 172.086 222.54C171.562 222.566 171.337 223.169 171.039 223.185C170.85 223.195 170.52 222.519 169.86 222.991C169.546 223.216 169.3 223.195 168.943 223.153C167.372 222.975 165.832 224.002 163.957 223.97L162.668 223.949C162.548 223.949 162.432 223.876 162.401 223.813C162.181 223.378 163.648 222.53 164.653 222.823C165.156 222.97 165.549 223.006 166.005 222.703L167.555 221.66C168.336 221.136 169.834 222.09 170.174 221.503C170.4 221.11 170.609 220.833 171.102 220.749L172.972 220.414C173.443 220.33 173.516 219.953 173.647 219.675C174.302 219.235 175.082 218.942 175.517 218.229L177.172 215.511C176.638 215.495 176.423 215.893 176.057 216.071C175.591 216.38 175.496 215.93 175.067 215.558C174.669 215.961 174.794 216.564 174.422 216.595C174.276 216.611 174.134 216.522 174.061 216.365C173.799 215.788 174.281 215.113 174.072 214.997C173.825 214.861 173.186 215.38 172.966 215.024L172.93 214.578C172.196 213.845 170.572 215.249 169.808 214.688C169.996 214.374 170.237 214.175 170.452 213.955C170.798 213.604 170.751 213.159 170.4 212.75C170.792 212.562 171.117 212.604 171.531 212.567C171.128 211.933 171.112 211.315 171.426 210.639C171.175 210.466 170.913 210.535 170.651 210.597C169.865 210.786 168.881 211.142 168.451 210.702C168.022 210.262 168.53 209.712 168.037 209.078L167.398 208.261L168.676 206.894C168.755 206.81 168.435 206.732 168.32 206.774C167.974 206.905 167.665 206.737 167.587 206.381C167.262 204.956 169.844 201.902 171.505 201.625C172.301 201.494 172.401 202.332 172.694 202.41C173.108 202.525 173.375 202.017 173.668 202.028L175.151 202.07C175.559 202.08 175.821 201.803 175.91 201.415C176.093 200.629 176.34 199.891 176.712 199.168C176.769 199.058 176.753 198.89 176.696 198.817C176.649 198.749 176.502 198.702 176.366 198.717L174.553 198.922C173.925 198.995 173.464 198.785 172.924 198.534L171.751 198.33C171.075 198.215 170.782 197.649 170.745 196.968C170.693 195.978 170.394 195.072 169.771 194.307C169.614 194.113 169.52 193.72 169.661 193.516C169.823 193.28 170.185 193.249 170.457 193.27L172.264 193.437C172.715 193.479 172.736 193.202 172.956 192.966C173.412 192.657 174.297 192.762 174.763 193.039C175.276 193.348 174.616 194.82 175.737 195.135C176.13 195.245 176.617 195.433 177.036 195.407C177.314 195.386 177.272 194.878 177.204 194.7L176.355 192.416C175.873 192.102 175.69 191.588 175.538 191.049C175.313 189.928 174.91 188.933 174.223 188.037C174.092 187.864 174.129 187.55 174.187 187.414C174.464 186.801 175.816 187.026 176.738 187.057C177.66 187.089 178.346 186.518 178.781 185.779C179.242 184.988 179.938 184.454 180.855 184.365L181.709 184.281C182.18 183.831 182.741 183.81 183.343 183.972C183.945 184.135 184.474 183.736 184.883 183.375C185.443 182.877 186.098 182.888 186.57 183.443L187.56 184.616C187.748 184.842 188.497 184.402 188.853 184.58C189.21 184.758 188.922 185.91 189.985 186.115L191.933 186.492C192.489 186.607 192.913 186.921 193.212 187.387C193.908 187.696 194.631 187.765 195.38 187.843L198.125 188.126C198.884 188.205 199.544 188.597 200.016 189.2L200.094 196.874L200.11 212.567C200.11 213.258 199.99 214.212 200.409 214.521C200.55 214.625 200.786 214.631 200.953 214.563L201.865 214.165C202.038 214.091 202.268 214.107 202.425 214.217C202.431 214.217 202.844 215.574 204.248 216.946C204.62 217.313 205.102 217.302 205.432 216.946C205.694 216.663 205.788 216.234 205.966 215.93C207.496 215.123 209.041 216.873 210.026 218.235L212.137 221.163C212.692 221.927 213.284 222.608 213.986 223.221C214.62 223.776 215.29 224.065 216.097 224.269C217.548 224.63 216.312 229.779 215.473 228.784L214.284 227.37C213.986 227.019 213.708 226.621 213.242 226.453C213.132 226.411 213.038 226.558 213.069 226.663L213.509 228.328C213.546 228.475 213.556 228.831 213.394 228.889C212.797 229.109 211.681 227.213 211.126 226.532C210.398 225.641 210.707 225.563 210.534 224.51C210.068 224.552 210.115 225.285 209.785 225.662L209.109 223.604L209.031 225.133C209.025 225.248 208.962 225.358 208.905 225.405C208.826 225.468 208.69 225.468 208.601 225.405C207.842 224.908 207.91 223.834 207.559 223.583C207.208 223.331 206.972 223.08 206.799 222.666L205.924 220.565C206.113 220.246 206.322 219.995 206.391 219.617C206.129 219.591 206.055 219.995 205.741 219.968C205.332 219.932 205.395 218.952 204.285 218.491L201.839 217.465C201.561 217.349 201.252 217.161 201.126 216.883C200.843 216.255 201.907 216.014 201.844 215.495L200.508 216.076C200.021 216.291 199.565 216.234 199.089 216.045C198.743 215.904 198.376 215.82 198.067 215.589C197.302 215.018 195.993 215.254 195.228 214.851L193.306 213.835C192.787 213.562 192.965 212.452 191.86 212.504C191.347 212.53 190.833 212.556 190.341 212.708C190.179 212.755 190.142 213.038 190.142 213.18L190.111 214.557C190.111 214.715 190.048 214.887 189.959 214.966C189.859 215.055 189.686 215.113 189.519 215.081L188.136 214.825C187.565 214.72 187.088 215.055 187.025 215.636C186.915 216.605 184.024 216.684 184.385 216.139C184.626 215.778 185.098 215.647 185.464 215.469C185.433 215.134 184.993 215.301 184.857 215.186C184.815 215.149 184.789 214.997 184.825 214.929C185.145 214.405 185.271 213.871 185.365 213.279C185.433 212.85 185.821 212.504 186.203 212.384L188.188 211.75C187.863 211.446 187.376 211.289 186.91 211.247C185.705 211.132 184.621 212.567 184.024 213.672C183.767 214.144 183.474 214.505 182.966 214.715L181.934 215.149C181.609 215.285 181.415 215.636 181.614 215.987Z" fill="#F3D065"/>
<path d="M316.845 135.168L317.908 141.527C316.824 141.972 317.992 142.726 317.473 143.8C316.85 145.104 317.898 145.838 316.976 146.262C316.421 146.519 316.494 147.493 315.75 147.896C315.342 148.116 314.938 148.331 314.64 148.703L314.582 149.52C314.556 149.913 313.807 149.452 313.723 149.483C313.66 149.504 313.582 149.604 313.555 149.698L313.33 150.615C313.236 150.992 313.655 151.16 313.561 151.479C313.519 151.615 313.356 151.731 313.152 151.757L312.937 152.213C312.733 152.38 312.434 152.338 312.188 152.328C312.293 153.365 313.126 154.753 313.822 155.554C314.016 155.78 314.383 156.162 314.315 156.471C314.179 157.1 312.927 157.33 312.508 158.734C312.356 159.247 311.947 159.336 311.507 159.42C311.256 159.598 310.983 159.829 310.674 159.975L309.742 160.426C309.433 160.578 309.124 160.761 308.946 161.002L301.387 161.824L295.552 162.123L295.473 163.192L290.345 163.328C290.366 163.207 290.413 162.956 290.544 162.883C290.712 162.783 290.906 162.841 291.142 162.814C291.204 162.296 291.262 161.636 290.995 161.138C290.398 160.918 289.795 160.248 289.884 159.609C290.083 158.242 289.235 158.289 289.209 157.545C289.193 157.084 288.475 157.608 287.978 156.953C287.684 156.565 287.354 156.256 286.972 155.963C286.762 155.801 286.904 155.497 286.962 155.293L287.161 154.538C287.407 154.062 287.449 153.527 287.187 153.061C287.061 152.836 286.878 152.768 286.658 152.742C286.438 152.715 286.249 153.003 286.082 153.098C285.039 152.82 285.893 151.5 284.604 151.008L284.012 150.322C283.337 149.934 282.902 149.379 282.766 148.598C282.713 148.294 282.504 147.97 282.556 147.64C282.614 147.263 282.666 146.922 282.52 146.592C282.509 146.566 282.509 146.519 282.504 146.493L282.52 146.325C282.645 146.325 282.75 146.257 282.865 146.147L283.389 145.649C284.185 145.11 284.29 144.141 283.834 143.376C283.976 142.176 285.662 142.066 286.275 141.207C286.888 140.348 286.689 139.269 286.097 138.504L285.107 137.184L293.808 136.331C293.766 136.938 293.981 137.509 294.248 138.085L294.63 138.903L295.526 148.614C295.599 149.353 295.767 150.044 295.568 150.762C295.505 150.982 295.363 151.154 295.405 151.385C295.51 151.972 296.191 151.704 295.762 152.941L295.332 154.172C295.018 155.078 294.609 155.245 294.861 155.633C295.112 156.021 294.426 156.602 294.824 157.246C294.871 156.796 295.096 156.654 295.473 156.565C296.249 156.372 297.061 156.445 297.81 156.686C298.381 156.099 298.936 156.78 299.428 156.335C300.046 155.774 299.407 155.413 299.805 155.135C300.266 154.816 300.492 155.507 301.031 155.68C301.303 155.56 301.518 155.513 301.843 155.549C302.225 155.067 301.633 154.334 302.665 154.051L302.98 152.621C303.048 152.302 303.53 152.417 303.692 152.323C304.022 152.139 304.19 151.998 304.572 152.029C304.719 152.04 304.902 151.951 304.981 151.867C305.232 151.579 304.897 151.259 304.996 151.034C305.038 150.945 305.174 150.845 305.321 150.73L303.608 138.793L300.434 138.772C299.386 138.766 298.349 138.834 297.37 139.138C298.223 137.556 298.532 135.802 298.202 134.052L297.558 130.694C297.202 128.845 297.464 127.023 298.328 125.362L299.376 123.691C299.832 123.869 299.68 124.812 299.402 125.126C299.208 125.352 299.13 125.603 299.339 125.823C299.517 126.017 299.779 125.996 300.02 125.839C300.423 125.582 300.67 125.263 300.712 124.765L300.811 123.434C301.33 122.774 302.1 122.67 302.864 122.649C304.09 122.612 305.096 123.026 305.913 123.916C306.201 124.231 306.458 124.472 306.536 124.964C306.652 125.666 306.547 126.373 306.28 127.054L305.52 128.987C305.436 129.202 305.379 129.39 305.504 129.573C305.593 129.699 305.751 129.919 305.971 129.862C306.248 129.788 306.426 129.511 306.599 129.291L307.511 128.117C307.699 127.876 307.977 127.751 308.291 127.813C309.124 127.986 309.679 130.029 310.035 131.093C310.25 131.742 310.36 132.381 310.072 133.031C309.244 134.89 307.851 135.655 307.793 136.634C307.72 137.823 306.809 137.645 306.746 138.3C306.725 138.504 306.777 138.772 307.013 138.813L308.328 139.054C309.045 139.269 309.742 139.217 310.491 139.175L311.298 139.128C311.717 139.102 311.994 138.861 312.11 138.452C312.356 138.384 312.618 138.379 312.864 138.421C314.137 138.646 313.927 137.237 314.477 137.101C314.907 136.996 315.012 136.676 315.294 136.414L316.373 135.414C316.525 135.273 316.724 135.252 316.84 135.173L316.845 135.168Z" fill="#A59A5D"/>
<path d="M207.417 103.336L205.055 115.892C205.453 116.206 205.49 116.672 205.752 117.065C206.035 117.489 206.307 117.992 205.893 118.516C205.689 118.773 205.286 118.987 205.202 119.422C205.045 120.213 204.337 120.182 204.322 121.13C203.845 121.481 203.478 121.963 203.709 122.602C203.515 124.267 203.201 125.849 202.845 127.489L201.556 133.429C198.156 132.795 194.93 132.093 191.661 131.229L183.066 128.956L179.069 127.766C179.022 126.855 178.776 125.944 178.875 125.001C178.948 124.283 179.236 123.78 179.582 123.178L181.117 120.538C181.856 119.27 182.269 117.945 182.725 116.567C183.149 115.279 183.862 114.111 184.097 112.765C184.223 112.047 184.27 111.424 184.726 110.832C184.888 110.622 184.951 110.392 185.37 110.491C185.653 110.559 185.967 110.758 186.355 110.565C186.009 110.486 185.831 110.067 185.596 109.936C185.082 109.847 184.71 109.653 184.679 109.072C184.663 108.742 185.046 108.433 185.103 108.108C185.218 107.485 185.271 106.814 185.224 106.159L185.046 103.666C185.004 103.058 184.705 102.55 184.962 101.927L185.229 100.712C185.286 100.45 185.789 100.586 185.962 100.775C186.533 101.393 187.094 102.11 187.864 102.493C188.382 102.749 188.88 102.833 189.351 103.226C189.823 103.619 190.383 104.022 191.006 104.069C191.761 104.127 192.196 103.221 191.976 102.592C191.792 102.063 192.468 101.738 192.52 100.696C193.652 100.507 194.767 100.617 195.878 100.843L197.701 101.22L207.433 103.341L207.417 103.336Z" fill="#2A634E"/>
<path d="M244.477 108.337L243.577 121.642L243.299 125.717L221.975 123.554L221.786 125.094L221.121 124.989C220.487 124.795 219.947 124.963 219.335 125.11L217.742 125.083C216.925 125.214 216.171 124.916 215.747 124.177C215.217 123.26 214.379 123.402 214.594 122.637C214.767 122.014 214.683 121.453 214.463 120.867L214.322 119.798C214.29 119.562 214.149 119.337 213.976 119.29C213.426 119.143 213.18 119.793 212.918 119.714C212.536 119.594 212.274 119.259 212.007 118.981C211.739 118.703 211.635 118.368 211.729 117.991C211.907 117.279 212.981 117.237 212.803 116.346C212.672 115.686 213.185 115.304 212.902 114.916C212.572 114.46 211.535 114.749 210.917 113.717C210.336 112.748 209.56 111.208 210.278 110.6C210.592 110.333 210.383 110.066 210.357 109.809C210.32 109.374 210.189 109.243 209.995 108.919C209.801 108.594 210.068 108.018 210.137 107.656L210.812 104C221.933 106.148 233.189 107.551 244.483 108.348L244.477 108.337Z" fill="#A59A5D"/>
<path d="M244.551 160.872L244.43 163.098L243.304 182.599L231.45 181.908L230.266 182.227C229.91 182.301 229.543 182.222 229.145 182.18L223.619 181.609L223.499 183.815L220.523 183.485L223.603 159.033C230.612 159.871 237.579 160.442 244.556 160.877L244.551 160.872Z" fill="#E3BE5D"/>
<path d="M335.477 135.006C335.331 135.232 335.252 135.41 335.189 135.719L334.666 136.766L334.718 138.133C334.728 138.437 335.069 138.552 335.137 138.715C335.284 139.055 335.493 139.176 335.676 139.427L335.938 140.428C335.923 140.616 335.802 140.988 335.671 141.119L334.76 142.036C334.32 141.774 333.848 141.795 333.403 142.083C333.246 142.182 333.078 142.219 333.105 142.455L332.576 142.554L328.202 142.717C326.814 142.769 325.483 142.926 324.132 143.235C322.492 143.612 320.711 144.461 321.099 146.179C321.256 146.871 321.654 147.756 322.136 147.745C322.298 147.745 322.482 147.677 322.597 147.525L323.482 146.331C324.205 145.357 324.388 145.037 325.478 145.105C325.907 145.132 326.243 145.105 326.62 145.378C327.563 146.069 328.081 145.661 328.27 146.237C328.532 147.038 329.846 146.782 330.019 147.803C330.119 148.395 329.511 148.945 329.7 149.28C329.742 149.359 329.883 149.39 329.988 149.369C330.171 149.327 330.292 149.437 330.396 149.584C330.726 150.045 331.24 150.045 331.753 150.029C332.34 150.013 332.937 150.291 333.435 150.537C333.759 150.694 333.717 151.04 333.576 151.281C333.445 151.501 333.33 151.601 333.141 151.768C333.005 151.889 333.167 152.208 333.267 152.323C333.539 152.638 334.079 152.292 334.1 152.811C334.105 152.957 334.047 153.172 333.848 153.109C333.738 153.072 333.613 152.921 333.518 152.921C333.403 152.921 333.277 153.057 333.277 153.162C333.277 153.256 333.33 153.455 333.435 153.502C333.969 153.759 334.121 154.272 334.456 154.67L335.509 155.435C335.781 155.854 335.896 156.294 335.865 156.765L315.908 160.008L315.478 160.133L308.973 160.998C309.151 160.757 309.455 160.573 309.769 160.422L310.701 159.971C311.01 159.819 311.283 159.594 311.534 159.416C311.974 159.332 312.383 159.243 312.535 158.73C312.948 157.326 314.206 157.095 314.342 156.467C314.41 156.158 314.043 155.77 313.849 155.55C313.153 154.754 312.32 153.361 312.215 152.323C312.456 152.334 312.755 152.381 312.964 152.208L313.179 151.752C313.383 151.721 313.546 151.611 313.587 151.475C313.682 151.155 313.263 150.988 313.357 150.611L313.582 149.694C313.608 149.594 313.682 149.5 313.75 149.479C313.834 149.453 314.583 149.909 314.609 149.516L314.666 148.699C314.965 148.327 315.368 148.112 315.777 147.892C316.521 147.489 316.447 146.509 317.003 146.258C317.93 145.833 316.877 145.1 317.5 143.796C318.019 142.717 316.851 141.968 317.935 141.522L316.872 135.163C317.086 135.022 317.422 134.991 317.605 134.781C318.003 134.325 318.207 133.88 318.873 133.791L319.098 135.582L332.141 132.707C332.612 132.602 332.974 132.618 333.346 132.927L333.723 133.021C333.859 133.052 333.848 133.288 333.838 133.44C333.817 133.964 334.136 134.184 334.597 134.231C334.776 134.315 334.943 134.624 335.252 134.598C335.415 134.582 335.577 134.896 335.504 135.006H335.477Z" fill="#E3BE5D"/>
<path d="M279.368 118.695C279.2 118.653 278.948 118.758 278.844 118.863C278.697 119.01 278.608 119.24 278.629 119.465L278.812 121.199C278.849 121.519 278.786 121.854 278.508 122.043C277.964 122.409 277.487 122.896 277.314 123.546C277.084 124.431 278.131 124.494 277.812 124.992C277.602 125.322 277.539 125.673 277.498 126.071L277.393 127.103C277.346 127.579 277.534 127.815 277.869 128.045C278.278 128.323 278.634 128.533 279.163 128.585C279.965 128.658 280.3 128.637 280.63 129.35C280.845 129.816 281.217 130.031 281.531 130.371C281.777 130.638 281.918 130.926 282.28 131.125C282.641 131.324 283.045 131.822 282.903 132.262C282.819 132.519 282.662 132.692 282.699 132.943L277.398 133.221L267.288 133.325L267.22 125.646C266.508 124.892 265.942 124.284 266.272 123.289L266.518 122.535L266.183 122.545C266.529 121.922 265.57 121.346 265.707 120.173C265.146 119.513 265.733 118.905 265.534 117.946C265.439 117.496 265.319 117.166 265.555 116.731C265.932 116.04 265.162 115.553 265.13 115.317C265.062 114.762 264.554 114.531 264.753 112.965C264.8 112.577 264.669 112.394 264.533 112.074C264.36 111.676 264.544 111.126 264.648 110.723C264.764 110.278 264.266 109.869 264.339 109.141L269.656 109.125C269.897 109.125 269.771 109.749 269.97 109.77C270.243 109.796 270.463 108.884 271.196 109.162C271.458 109.262 271.432 110.089 271.825 109.932C272.16 109.801 272.422 110.105 272.621 110.11C273.113 110.11 273.359 110.11 273.731 110.461C273.915 110.634 274.218 110.76 274.334 111.063C275.345 110.152 275.759 110.697 276.738 110.838L277.173 111.158C277.581 111.221 277.848 111.373 277.958 111.786C278.079 112.247 278.55 111.624 279.179 112.122C279.703 112.535 280.279 112.782 280.944 112.855C281.117 112.656 281.196 112.457 281.41 112.3L282.259 112.163L283.108 112.048C283.375 112.012 283.631 112.122 283.94 112.179L284.883 112.357C285.239 112.425 285.852 112.776 285.868 112.975C285.878 113.064 285.831 113.201 285.721 113.253L284.359 113.965C283.815 114.248 283.38 114.563 282.971 115.023L282.317 115.757L279.682 118.156C279.514 118.313 279.352 118.439 279.368 118.68V118.695Z" fill="#A59A5D"/>
<path d="M264.343 109.144C264.27 109.872 264.768 110.275 264.652 110.726C264.548 111.129 264.359 111.679 264.537 112.077C264.679 112.397 264.809 112.58 264.757 112.968C264.558 114.534 265.066 114.77 265.134 115.32C265.166 115.555 265.936 116.037 265.559 116.734C265.323 117.163 265.443 117.493 265.538 117.949C265.737 118.908 265.15 119.515 265.71 120.175C265.574 121.349 266.533 121.92 266.187 122.548L258.618 122.433L243.574 121.652L244.475 108.348C250.908 108.803 257.345 109.05 263.825 109.044C264.066 109.044 264.212 109.018 264.343 109.154V109.144Z" fill="#888B54"/>
<path d="M321.139 184.229C321.191 184.517 321.511 184.695 321.595 184.951L322.627 188.031C323.098 189.184 323.81 190.153 324.916 190.713C324.659 190.855 324.449 190.876 324.308 191.064C324.203 191.206 324.292 191.436 324.423 191.551L325.581 192.557C326.005 192.924 326.246 193.348 326.482 193.84L327.634 196.255C327.671 196.339 327.692 196.454 327.65 196.512C327.618 196.554 327.529 196.59 327.414 196.617C328.43 197.91 329.012 199.435 329.426 201.069C329.876 202.839 329.944 204.647 329.373 206.386C329.137 207.103 328.703 207.758 328.043 208.088C327.309 208.455 326.513 208.303 325.743 208.025C325.817 207.873 325.958 207.8 326.12 207.732L327.781 207.082C327.503 206.752 327.131 206.909 326.791 206.957C326.141 207.051 325.78 205.694 325.115 205.762C324.449 205.83 323.821 205.762 323.287 205.28C322.6 204.652 322.124 203.751 322.129 202.792C322.129 202.604 322.281 202.405 321.982 202.284L321.741 202.719C321.396 202.31 321.312 201.86 321.191 201.425L321.118 201.504C321.149 201.603 321.165 201.844 321.071 201.902C320.678 201.98 320.301 201.808 320.149 201.478L319.573 200.231C319.431 199.932 319.269 199.686 319.017 199.471C318.389 198.937 319.279 198.162 319.122 197.277C318.577 197.313 318.488 198.136 318.258 198.094C317.933 198.036 317.75 197.654 317.755 197.36L317.787 195.7L317.818 193.72C317.729 192.578 316.896 191.803 315.717 191.803C314.906 190.671 313.748 189.346 312.412 188.959C311.941 188.796 311.323 188.985 311.077 189.346C311.333 189.964 310.605 189.571 310.458 190.085C310.312 190.598 309.856 190.535 309.516 190.928C309.406 190.724 309.269 190.588 309.128 190.54C308.939 190.478 308.756 190.54 308.578 190.629L307.75 191.028C308.017 190.053 307.106 190.195 306.546 189.54C306.766 189.121 306.441 188.702 306.011 188.576C305.943 188.786 305.996 188.901 305.99 189.126C305.618 188.796 305.199 188.634 304.707 188.566L303.424 188.388C303.696 187.79 302.172 187.974 301.564 188.749C301.564 188.828 301.732 188.948 301.831 188.974C301.124 189.676 300.249 188.712 299.39 189.566C299.217 189.524 299.17 189.399 299.128 189.283L298.07 186.418L307.808 184.904C307.997 184.873 308.19 184.789 308.421 184.852L308.662 186.203L321.134 184.234L321.139 184.229ZM321.16 201.383C321.113 201.315 321.008 201.378 321.076 201.451L321.16 201.383Z" fill="#F3D065"/>
<path d="M284.389 119.066C284.253 119.197 284.226 119.464 284.263 119.669C284.342 120.114 285.332 120.528 286.002 120.695L289.485 121.554L290.816 121.706L291.036 122.183L292.073 122.544C292.345 122.639 291.848 123.409 291.916 124.032C292.67 123.786 292.67 124.681 293.293 124.21L293.634 124.503L292.979 126.164C292.764 126.703 292.529 127.217 292.555 127.835L294.902 124.142C295.273 124.482 295.305 124.99 295.09 125.415L294.278 127.028L293.791 130.003L293.22 132.937C293.079 133.649 293.917 134.906 293.817 136.32L285.117 137.174C285.023 137.2 284.75 137.242 284.672 137.153C284.331 136.53 283.509 136.886 283.409 136.404C283.231 135.535 282.456 135.351 283.1 134.613C283.32 134.361 282.812 133.67 282.707 132.931C282.671 132.68 282.828 132.507 282.912 132.25C283.053 131.81 282.665 131.323 282.288 131.114C281.911 130.904 281.785 130.632 281.539 130.359C281.225 130.019 280.853 129.804 280.638 129.338C280.308 128.626 279.973 128.647 279.172 128.573C278.643 128.526 278.286 128.311 277.878 128.034C277.543 127.809 277.354 127.568 277.401 127.091L277.506 126.059C277.548 125.661 277.611 125.31 277.82 124.98C278.14 124.482 277.092 124.419 277.323 123.534C277.495 122.885 277.967 122.398 278.517 122.031C278.794 121.848 278.857 121.512 278.821 121.188L278.637 119.454C278.611 119.229 278.7 118.993 278.852 118.851C278.957 118.747 279.213 118.642 279.376 118.684C279.79 118.794 280.224 118.804 280.638 118.584L281.775 117.987C282.168 117.783 282.571 117.631 282.995 117.662L282.838 118.359C282.807 118.5 282.922 118.642 282.891 118.783C282.864 118.893 282.676 118.914 282.587 118.935C282.529 119.082 282.644 119.15 282.707 119.176C282.786 119.208 282.943 119.239 283.032 119.16L283.446 118.783C283.598 118.647 283.781 118.595 283.933 118.757C284.069 118.904 284.211 119.014 284.399 119.045L284.389 119.066Z" fill="#F3D065"/>
<path d="M313.238 167.178C312.651 168.021 312.547 168.686 313.296 169.456C313.851 169.409 314.286 169.687 314.579 170.101L315.621 171.572L317.046 172.84L319.079 174.37C319.786 174.904 320.315 175.611 320.529 176.486C321.169 177.266 321.918 178.482 322.709 178.649C322.819 178.885 322.74 179.042 322.583 179.241C322.059 179.885 321.629 179.461 321.535 179.749C321.499 179.859 321.598 179.943 321.661 180.042C321.865 180.346 321.588 180.682 321.415 180.902C321.425 180.991 321.493 181.153 321.472 181.221C321.42 181.389 321.074 181.42 321.059 181.666C321.048 181.876 321.588 182.248 321.148 182.677L320.723 183.091C320.907 183.217 321.032 183.196 321.242 183.191C321.132 183.578 321.074 183.892 321.142 184.228L308.67 186.197L308.429 184.846C308.199 184.778 308.005 184.867 307.817 184.898C307.885 184.238 307.759 183.578 307.481 182.918C307.361 182.641 307.523 182.358 307.612 182.112C307.785 181.63 307.644 181.153 307.57 180.671C307.497 180.189 308.162 179.529 307.439 179.252C307.403 179.073 307.476 178.89 307.366 178.717C307.125 178.717 306.931 178.623 306.821 178.518C306.638 178.335 306.753 178.12 306.696 177.89L304.344 168.686L308.817 167.927L313.238 167.188V167.178Z" fill="#E3BE5D"/>
<path d="M336.592 118.281C336.749 118.543 336.686 118.852 336.754 119.156L336.995 120.193C337.189 120.617 337.257 120.864 337.095 121.309C336.906 121.833 336.948 122.356 337.1 122.87L337.194 124.268C337.645 125.143 338.179 126.002 338.263 127.024L338.362 128.166C338.525 129.093 338.378 130.051 338.331 130.973C338.326 131.041 338.231 131.115 338.268 131.256L339.242 135.431C339.227 135.609 338.996 135.876 339.017 136.033C339.143 136.19 339.337 136.012 339.384 135.902C339.64 135.263 340.321 135.698 340.625 135.321C340.897 134.986 341.233 134.917 341.631 134.823C342.228 134.682 342.621 134.184 343.124 133.781C343.354 134.378 342.375 134.656 342.144 135.284C342.558 135.279 342.689 134.865 342.961 134.697C343.291 134.493 343.59 134.399 343.836 134.079C343.972 133.906 344.271 133.765 344.465 133.865L343.773 134.614C343.516 135.148 343.176 135.373 342.673 135.551L341.395 136.007L339.462 137.013C339.158 137.17 338.771 137.17 338.525 137.374C338.352 137.369 338.179 137.159 338.252 136.918C338.362 136.541 338.331 135.902 337.886 135.75L336.115 135.158C335.906 135.085 335.638 135.164 335.471 135.006C335.544 134.896 335.377 134.582 335.219 134.598C334.91 134.624 334.743 134.315 334.565 134.231C334.104 134.184 333.784 133.964 333.805 133.44C333.81 133.288 333.826 133.058 333.69 133.021L333.313 132.927C332.941 132.613 332.579 132.602 332.108 132.707L319.065 135.583L318.84 133.791C319.212 133.744 319.259 133.356 319.484 133.121L320.511 132.036C320.987 131.534 321.312 130.675 320.914 130.004C320.731 129.7 320.312 129.517 320.233 129.114C320.815 128.658 321.579 128.276 322.328 128.265C322.669 128.26 322.936 128.375 323.266 128.192C323.858 127.862 324.481 128.705 325.471 128.061C326.32 127.511 326.88 128.097 327.147 127.485C327.608 126.416 328.782 126.516 328.384 125.683C328.022 124.934 328.902 124.64 328.52 124.148C328.195 124.436 327.965 124.74 327.572 124.761C327.451 124.766 327.409 124.635 327.43 124.572C327.446 124.53 327.467 124.431 327.535 124.378L328.562 123.566C329.201 123.263 328.986 122.817 329.18 122.351C329.578 121.387 330.531 120.68 331.228 119.931C331.422 119.722 331.579 119.413 331.867 119.35L336.592 118.292V118.281Z" fill="#888B54"/>
<path d="M304.343 168.681L306.695 177.884C306.753 178.11 306.637 178.324 306.821 178.513C306.931 178.623 307.124 178.717 307.365 178.712C307.475 178.885 307.402 179.068 307.439 179.246C308.162 179.524 307.507 180.21 307.57 180.666C307.638 181.148 307.784 181.624 307.612 182.106C307.523 182.352 307.36 182.635 307.481 182.913C307.758 183.573 307.889 184.238 307.816 184.893L298.078 186.407L299.136 189.272C298.791 189.345 298.455 189.539 298.021 189.476C298.157 189.125 298.324 188.67 298.057 188.45C297.79 188.23 297.638 188.078 297.633 187.701C297.298 188.02 297.444 188.345 297.292 188.628L296.884 189.392C296.758 189.33 296.601 189.193 296.502 189.209C296.234 189.256 296.302 189.738 296.046 189.759C295.726 189.785 295.611 189.445 295.312 189.324L295.339 187.978C295.339 187.769 295.643 187.496 295.443 187.25C295.14 186.873 295.543 186.621 295.58 186.36C295.658 185.789 295.653 185.16 295.622 184.579L295.47 181.876L295.381 178.052L295.412 174.92L295.375 171.274L295.423 170.153L295.485 169.498L304.343 168.676V168.681Z" fill="#888B54"/>
<path d="M335.855 156.764C335.75 158.157 334.802 157.487 333.717 158.215C333.361 158.456 333.241 159.294 333.456 159.446C333.555 159.519 333.738 159.545 333.885 159.508L335.902 159C336.268 158.906 336.619 158.691 337.017 158.89C337.667 159.21 337.4 160.776 336.687 161.536C335.975 161.41 335.216 161.441 335.147 161.866C335.127 162.007 335.142 162.164 335.252 162.285C335.561 162.615 335.106 162.84 335.252 163.023C335.284 163.065 335.383 163.102 335.477 163.102H336.604C336.766 163.102 336.907 163.196 336.976 163.306C337.175 163.647 336.656 164.464 336.227 164.972C334.54 165.202 333.209 166.161 332.172 167.444L331.146 168.24L329.925 169.445C328.265 168.282 322.319 164.401 321.12 165.752C320.889 166.014 320.916 166.328 320.937 166.685C320.512 166.145 319.915 165.831 319.203 165.716C317.437 165.438 315.63 165.784 314.059 166.617L313.237 167.177L308.816 167.916C308.643 166.585 309.119 165.585 310.319 164.982L312.283 163.992C313.367 163.442 313.347 162.782 313.907 162.133C313.912 162.342 313.839 162.478 313.954 162.698C314.478 162.363 315.091 162.033 315.452 161.515C315.725 161.127 315.494 160.567 315.463 160.137L315.892 160.011L335.849 156.769L335.855 156.764Z" fill="#A59A5D"/>
<path d="M285.523 178.896C285.57 179.001 285.618 179.127 285.691 179.137L286.01 179.185C286.058 179.363 285.801 179.494 285.748 179.593C285.654 179.965 285.68 180.326 285.864 180.662C286.078 180.641 286.283 180.541 286.471 180.636L286.204 181.526C286.152 181.704 286.414 181.898 286.361 182.071C286.288 182.338 285.911 182.411 285.968 183.035L285.56 183.338C285.497 183.92 284.989 183.789 284.968 184.098C284.958 184.286 285.251 184.365 285.151 184.522C285.125 184.559 284.622 184.7 284.701 184.873L284.858 185.24C284.769 185.355 284.538 185.434 284.538 185.58C284.538 185.701 284.68 185.858 284.732 185.978C284.664 186.193 284.392 186.293 284.271 186.502L284.439 187.733L289.745 187.351C290.122 187.325 290.568 187.178 290.913 187.351C291.186 187.906 290.306 188.231 290.829 189.058C290.997 189.326 291.107 189.556 291.416 189.703C292.066 190.022 291.605 190.75 292.191 190.839L292.809 190.928C292.857 190.996 292.982 191.044 292.961 191.148L292.883 191.515C293.202 191.531 293.443 191.693 293.49 191.934C293.611 192.557 292.825 192.605 292.595 193.244C292.537 193.406 292.406 193.506 292.275 193.584L293.04 194.249C293.239 194.422 293.318 194.684 293.16 194.894C293.056 195.03 292.804 195.176 292.6 195.035C292.338 194.852 292.144 194.516 291.825 194.412C291.568 194.328 291.285 194.537 291.049 194.716C290.918 194.616 290.939 194.48 290.939 194.296L290.253 195.417C290.112 195.648 289.871 195.674 289.651 195.679C289.41 195.685 289.31 195.386 289.143 195.318C288.158 195.166 288.153 195.726 287.933 195.758C287.728 195.784 287.582 195.69 287.378 195.637L285.811 195.218C285.597 195.161 285.424 195.009 285.366 194.831C285.308 194.653 285.366 194.464 285.523 194.291C284.937 193.877 284.282 193.778 283.575 193.767L281.568 193.731C280.846 193.715 280.065 193.773 279.437 193.422C279.133 193.249 278.918 193.113 278.541 193.196L277.058 193.526C276.854 193.574 276.655 193.521 276.524 193.416C276.189 193.155 276.357 192.536 276.655 192.007C276.802 191.751 276.634 191.562 276.519 191.426C276.556 191.19 276.556 190.808 276.697 190.567C276.833 190.336 276.985 190.19 276.87 189.891C276.786 189.671 276.807 189.373 276.948 189.168C277.111 188.933 277.095 188.676 277.184 188.435C277.289 188.152 277.388 187.953 277.184 187.66C276.776 187.078 277.425 186.429 276.76 185.764C276.409 185.413 276.341 184.967 276.126 184.543L275.786 183.857C275.676 183.632 275.377 183.464 275.367 183.16L275.246 179.3L285.523 178.907V178.896Z" fill="#888B54"/>
<path d="M295.483 169.504L295.42 170.159L295.373 171.28L295.41 174.925L295.378 178.058L295.467 181.882L295.619 184.584C295.651 185.166 295.661 185.794 295.577 186.365C295.541 186.627 295.137 186.879 295.441 187.256C295.64 187.502 295.342 187.774 295.336 187.984L295.31 189.33C295.31 189.487 295.279 189.76 295.127 189.87C294.891 190.042 294.655 189.76 294.519 189.634L293.734 189.875C293.257 189.917 292.812 190.147 292.45 190.467L292.796 190.928L292.178 190.839C291.591 190.744 292.047 190.022 291.403 189.702C291.099 189.55 290.984 189.32 290.816 189.058C290.292 188.23 291.172 187.905 290.9 187.35C290.559 187.172 290.109 187.319 289.732 187.35L284.425 187.732L284.258 186.502C284.378 186.292 284.645 186.198 284.719 185.978C284.666 185.857 284.525 185.7 284.525 185.58C284.525 185.433 284.755 185.354 284.844 185.239L284.687 184.872C284.614 184.7 285.117 184.558 285.138 184.522C285.243 184.364 284.944 184.286 284.954 184.097C284.975 183.788 285.484 183.919 285.546 183.338L285.955 183.034C285.903 182.411 286.274 182.337 286.348 182.07C286.395 181.897 286.138 181.703 286.191 181.525L286.458 180.635C286.264 180.541 286.065 180.64 285.85 180.661C285.672 180.326 285.641 179.97 285.735 179.592C285.787 179.493 286.044 179.367 285.997 179.184L285.677 179.137C285.604 179.126 285.562 178.995 285.51 178.896C285.468 178.587 285.567 178.283 285.756 177.953C285.599 177.806 285.421 177.785 285.232 177.702C285.374 177.209 285.939 176.9 285.504 176.654L284.986 177.125C284.771 176.837 284.975 176.575 285.044 176.329C285.148 175.926 285.379 175.716 285.594 175.381L285.719 174.302L286.034 174.103C286.243 173.967 285.908 173.474 286.306 173.108C286.442 172.982 286.61 172.924 286.872 173.019C287.181 172.385 286.893 171.824 287.537 171.61C287.652 171.06 287.694 170.421 288.097 170.054L295.478 169.509L295.483 169.504Z" fill="#A59A5D"/>
<path d="M294.637 138.898C294.935 139.542 295.365 139.92 296.088 139.804C296.617 139.721 296.968 139.26 297.376 139.129C298.356 138.83 299.393 138.757 300.441 138.762L303.615 138.783L305.328 150.721C305.181 150.836 305.045 150.935 305.003 151.024C304.903 151.25 305.239 151.569 304.987 151.857C304.914 151.941 304.731 152.035 304.579 152.02C304.196 151.988 304.029 152.13 303.699 152.313C303.531 152.407 303.054 152.292 302.986 152.611L302.672 154.041C301.64 154.33 302.232 155.063 301.85 155.54C301.525 155.503 301.31 155.555 301.038 155.671C300.503 155.498 300.273 154.801 299.812 155.126C299.419 155.403 300.058 155.765 299.435 156.325C298.937 156.771 298.382 156.09 297.816 156.676C297.067 156.441 296.25 156.367 295.48 156.556C295.103 156.65 294.878 156.791 294.831 157.237C294.432 156.598 295.119 156.011 294.867 155.623C294.616 155.236 295.024 155.068 295.339 154.162L295.768 152.931C296.198 151.695 295.517 151.962 295.412 151.375C295.37 151.145 295.517 150.967 295.574 150.752C295.773 150.034 295.606 149.343 295.532 148.604L294.637 138.893V138.898Z" fill="#E3BE5D"/>
<path d="M329.918 169.447C329.588 169.771 329.284 170.065 329.059 170.515L328.1 172.411C328.016 172.574 327.87 172.705 327.755 172.747C327.597 172.809 327.393 172.736 327.22 172.657C326.979 173.029 327.157 173.407 327.325 173.852C327.116 173.852 326.875 173.805 326.707 173.909C326.314 174.145 326.387 175.093 325.769 175.229C325.109 174.423 325.01 176.13 324.575 176.083C324.476 176.073 324.397 176.026 324.266 175.947C324.161 176.35 323.857 176.471 323.522 176.644C323.36 176.727 323.669 177.435 323.36 177.445C323.271 177.445 323.187 177.361 323.019 177.319C323.072 178.032 323.135 178.618 322.71 178.655C321.919 178.493 321.17 177.277 320.531 176.492C320.316 175.617 319.787 174.91 319.08 174.376L317.048 172.846L315.623 171.578L314.581 170.107C314.287 169.693 313.853 169.42 313.297 169.462C312.548 168.687 312.648 168.027 313.24 167.184L314.062 166.623C315.634 165.79 317.446 165.445 319.206 165.722C319.918 165.837 320.516 166.152 320.94 166.691C320.919 166.335 320.887 166.021 321.123 165.759C322.317 164.413 328.263 168.289 329.928 169.452L329.918 169.447Z" fill="#F3D065"/>
<path d="M346.248 123.86C345.053 123.65 345.708 122.97 344.828 122.619L342.785 116.16C343.241 115.882 343.037 115.332 343.681 114.714C343.843 113.934 343.487 113.342 344.184 112.478C343.77 109.811 343.796 106.548 345.43 104.385C345.739 104.846 345.991 105.239 346.441 105.459C346.939 105.548 347.368 105.244 347.651 104.835C348.463 104.516 349.286 104.888 349.747 105.626C350.071 106.145 350.26 106.71 350.401 107.318L351.088 110.288C351.229 110.906 351.486 111.598 352.015 111.959L352.769 112.153C353.057 112.441 353.335 112.63 353.712 112.787C353.764 113.719 354.246 113.541 354.298 113.724C354.372 113.991 354.173 114.238 354.262 114.421C354.293 114.489 354.524 114.515 354.534 114.589C354.587 115.008 354.147 115.29 353.769 115.395C352.177 115.825 351.538 116.841 350.689 116.998C350.181 117.092 349.804 117.129 349.527 117.621L348.814 118.889L347.327 120.963L346.881 122.268C346.693 122.818 346.352 123.284 346.248 123.86Z" fill="#F3D065"/>
<path d="M293.292 124.205C292.663 124.671 292.668 123.781 291.914 124.027C291.851 123.404 292.344 122.634 292.071 122.539L291.034 122.178L290.814 121.701L289.484 121.549L286 120.69C285.335 120.523 284.34 120.109 284.261 119.664C284.224 119.459 284.251 119.187 284.387 119.061L284.843 118.627C285.675 118.475 286.377 118.061 287.022 117.516L289.321 115.573C289.793 115.175 290.411 115.028 291.003 115.18C290.405 115.887 289.829 116.516 289.525 117.417C289.929 117.417 290.144 117.107 290.453 116.851C290.662 116.982 290.657 117.202 290.604 117.521C290.877 117.411 291.055 117.348 291.312 117.485C291.317 117.647 291.28 117.804 291.359 117.951C291.584 117.867 291.668 117.783 291.851 117.637C292.029 117.893 292.291 117.825 292.495 117.925L293.548 118.438C293.889 118.6 294.182 118.778 294.444 119.093L296.146 117.951C297.1 117.312 298.87 116.652 299.651 117.354C299.766 117.736 299.818 118.097 300.374 118.139L301.322 118.213C301.914 118.26 302.306 118.721 302.5 119.208C302.553 119.334 302.877 119.491 302.72 119.664C302.416 119.988 301.872 119.92 301.463 120.046C301.358 120.146 301.411 120.439 301.479 120.607C301.149 120.717 300.908 120.565 300.609 120.402C300.059 120.098 299.336 119.821 298.739 120.104L297.849 120.528C297.105 120.879 296.539 121.46 295.884 121.942C295.733 122.052 295.607 122.178 295.392 122.136L295.596 121.125C295.183 121.308 295.141 121.717 294.889 121.989C294.722 122.173 294.444 122.084 294.324 121.843C293.643 122.141 293.747 123.377 293.281 124.195L293.292 124.205Z" fill="#A59A5D"/>
<path d="M336.77 146.435C337.032 146.744 337.278 147.21 337.158 147.661C337.006 148.226 336.508 148.588 336.084 148.928C335.728 149.216 335.77 149.698 335.717 150.159C335.55 150.212 335.11 150.222 334.979 150.044C334.418 149.279 334.79 148.252 334.151 148.247C334.073 148.368 334.046 148.923 333.743 148.839C332.92 148.614 332.899 147.069 332.307 146.529C332.161 146.398 331.909 146.529 331.831 146.634C331.726 146.77 331.679 146.99 331.778 147.173L332.779 149.028C332.91 149.269 332.8 149.567 332.569 149.641C332.082 149.798 332.019 149.022 331.826 149.038L330.469 149.148C330.265 149.164 330.06 149.211 329.982 149.368C329.882 149.389 329.736 149.358 329.694 149.279C329.505 148.939 330.113 148.394 330.013 147.802C329.846 146.781 328.531 147.037 328.264 146.236C328.075 145.654 327.556 146.068 326.614 145.377C326.231 145.099 325.901 145.131 325.472 145.104C324.382 145.036 324.204 145.356 323.476 146.33L322.591 147.524C322.476 147.682 322.292 147.744 322.13 147.744C321.643 147.755 321.245 146.875 321.093 146.178C320.705 144.46 322.491 143.612 324.126 143.234C325.472 142.92 326.807 142.768 328.196 142.716L332.569 142.553L333.098 142.454C333.36 142.506 333.627 142.464 333.9 142.312C334.088 143.894 334.361 146.99 335.838 146.513C336.157 146.414 336.466 146.367 336.765 146.435H336.77Z" fill="#A59A5D"/>
<path d="M346.247 123.859C346.677 123.933 346.666 125.258 346.069 125.588C345.849 125.708 345.697 125.876 345.477 126.086L344.545 126.966L340.931 127.877C340.69 127.94 340.622 127.83 340.491 127.809C340.574 127.448 340.491 127.128 340.302 126.814C339.904 126.169 340.417 125.604 340.203 125.268C340.009 124.97 340.203 124.745 340.192 124.472C340.192 124.289 339.862 124.069 340.051 123.765C340.224 123.493 340.145 123.163 340.072 122.843L340.213 121.984L339.998 121.188C339.789 120.413 340.931 120.423 340.967 119.203C340.831 118.847 340.836 118.511 341.02 118.166C340.81 117.909 340.747 117.647 340.794 117.375C341.151 117.296 341.234 117.034 341.339 116.72C341.444 116.406 342.062 116.605 342.78 116.17L344.823 122.628C345.703 122.979 345.048 123.66 346.242 123.87L346.247 123.859Z" fill="#A59A5D"/>
<path d="M340.797 117.375C340.75 117.647 340.813 117.909 341.023 118.166C340.844 118.512 340.834 118.847 340.97 119.203C340.933 120.424 339.792 120.413 340.001 121.188L340.216 121.985L340.074 122.844C340.143 123.163 340.221 123.488 340.053 123.765C339.865 124.069 340.19 124.289 340.195 124.473C340.2 124.75 340.012 124.97 340.205 125.269C340.42 125.604 339.907 126.17 340.305 126.814C340.499 127.128 340.577 127.448 340.493 127.809C339.891 127.731 339.105 128.176 338.372 128.165L338.273 127.024C338.183 126.002 337.649 125.143 337.204 124.268L337.11 122.87C336.958 122.356 336.916 121.827 337.104 121.309C337.262 120.864 337.199 120.623 337.005 120.193L336.764 119.156C336.696 118.852 336.753 118.543 336.602 118.281L340.803 117.375H340.797Z" fill="#F3D065"/>
<path d="M338.53 137.374C338.389 137.489 338.368 137.741 338.305 137.919C338.174 137.856 338.096 137.814 338.038 137.819C337.97 137.825 337.928 137.987 337.965 138.024C338.159 138.223 338.902 138.49 338.572 139.249C338.305 139.868 338.871 140.858 338.489 141.685C338.305 142.083 338.101 142.392 338.132 142.848C338.169 143.351 337.923 143.765 337.656 144.163L337.326 145.127C337.258 145.32 337.085 145.436 336.907 145.43C336.739 145.43 336.524 145.294 336.514 145.1L336.451 144.178C336.168 144.425 335.833 144.393 335.665 144.137C335.555 143.969 335.414 143.99 335.293 143.938C335.099 143.854 334.927 143.628 334.749 143.44C334.722 143.377 334.864 143.241 334.932 143.22C334.79 143.021 334.832 142.817 334.743 142.612L334.607 142.282C334.576 142.204 334.686 142.099 334.754 142.026L335.665 141.109C335.791 140.983 335.917 140.611 335.932 140.418L335.67 139.417C335.492 139.166 335.278 139.045 335.131 138.705C335.063 138.542 334.722 138.427 334.712 138.123L334.659 136.756L335.183 135.708C335.246 135.399 335.325 135.221 335.471 134.996C335.639 135.153 335.906 135.08 336.116 135.148L337.886 135.74C338.326 135.887 338.363 136.531 338.253 136.908C338.179 137.149 338.352 137.358 338.525 137.364L338.53 137.374Z" fill="#F3D065"/>
<path d="M346.073 125.588C346.12 126.395 346.937 126.258 346.775 126.541C346.654 126.751 346.224 126.719 346.083 127.484C345.926 128.364 346.958 127.736 347.141 128.574C347.209 128.877 347.424 129.04 347.696 129.15C347.937 129.249 347.974 129.59 348.173 129.71L348.66 130.004C348.828 130.255 348.676 130.512 348.508 130.7C348.404 130.821 348.168 131.025 347.958 130.889C347.717 130.737 347.681 130.407 347.503 130.182C346.885 130.711 346.858 131.14 346.722 131.297C346.083 130.842 345.643 130.234 345.324 129.506L343.972 129.731L338.336 130.973C338.383 130.046 338.53 129.087 338.367 128.165C339.101 128.17 339.886 127.725 340.489 127.809C340.62 127.825 340.688 127.935 340.929 127.877L344.543 126.966L345.475 126.086C345.695 125.881 345.847 125.708 346.067 125.588H346.073Z" fill="#E3BE5D"/>
<path d="M343.974 129.736L344.582 132.449C344.597 132.528 344.644 132.58 344.697 132.606C344.534 132.826 344.33 132.863 344.011 132.879C343.628 132.9 343.33 133.381 343.005 133.481C342.366 133.675 341.748 133.743 341.161 134.089L340.553 134.445C340.297 134.597 340.03 134.691 339.993 135.094L339.254 135.43L338.28 131.255C338.249 131.113 338.338 131.045 338.343 130.972L343.979 129.73L343.974 129.736Z" fill="#A59A5D"/>
<path d="M334.759 142.036C334.691 142.104 334.581 142.209 334.613 142.292L334.749 142.622C334.833 142.832 334.796 143.036 334.938 143.23C334.869 143.251 334.733 143.387 334.754 143.45C334.932 143.639 335.105 143.864 335.299 143.948L335.488 144.843C335.566 145.215 335.975 145.393 336.263 145.629C336.567 145.833 336.792 146.09 336.771 146.441C336.472 146.373 336.163 146.415 335.844 146.519C334.361 146.991 334.094 143.9 333.906 142.319C333.633 142.476 333.366 142.518 333.104 142.46C333.078 142.219 333.251 142.188 333.403 142.088C333.853 141.8 334.319 141.779 334.759 142.041V142.036Z" fill="#888B54"/>
<path d="M346.723 131.302C346.655 131.375 346.791 131.585 346.545 131.616C346.188 131.663 346.23 130.898 345.801 131.098C345.371 131.297 345.811 131.768 345.701 132.129C345.308 132.166 344.91 132.323 344.696 132.611C344.643 132.585 344.601 132.533 344.58 132.454L343.973 129.741L345.324 129.516C345.638 130.244 346.084 130.851 346.723 131.307V131.302Z" fill="#888B54"/>
<path d="M243.298 125.718L242.67 134.675L242.088 142.941L240.527 142.841C235.614 142.422 230.764 141.841 225.882 141.197C225.871 141.296 225.808 141.605 225.688 141.589L219.434 140.704L220.136 136.095L221.786 125.095L221.974 123.555L243.298 125.718Z" fill="#E3BE5D"/>
<path d="M266.553 137.473L266.788 138.51C266.972 138.798 267.181 139.008 266.94 139.395L267.244 139.799C267.155 140.134 267.302 140.291 267.48 140.521L267.611 141.616C267.763 141.91 268.145 142.051 267.998 142.517C267.92 142.763 268.066 143.046 268.239 143.219C268.475 143.444 268.323 143.816 268.36 144.047L268.533 145.131C268.7 145.508 269.067 145.707 269.135 146.131C269.203 146.556 269.214 147.205 269.575 147.525C270.031 147.928 270.439 148.269 270.45 148.892L262.697 148.955L248.659 148.316C248.518 148.311 248.371 148.316 248.167 148.248L248.371 143.711C246.245 143.811 244.202 143.706 242.075 143.56C242.023 143.313 242.07 143.13 242.08 142.941L242.662 134.676L251.053 135.189L259.811 135.503C260.319 135.519 260.827 135.441 261.226 135.812C261.969 136.499 262.771 135.98 263.719 136.2L265.081 136.514C265.442 136.598 265.741 137.211 266.265 137.075L266.542 137.468L266.553 137.473Z" fill="#A59A5D"/>
<path d="M270.458 148.891C270.463 149.389 271.328 149.169 271.474 149.426C271.726 149.86 270.929 150.693 271.406 151.379L272.255 152.181C272.396 152.312 272.637 152.411 272.648 152.689L272.983 161.819C264.659 161.866 256.352 161.672 248.055 161.253L248.673 148.32L262.711 148.959L270.463 148.897L270.458 148.891Z" fill="#E3BE5D"/>
<path d="M248.048 161.249C256.345 161.668 264.658 161.862 272.976 161.815C273.023 161.862 273.091 161.925 273.096 162.035L273.18 164.256L273.605 176.235L273.102 175.863C272.751 175.905 272.583 175.675 272.332 175.586C272.038 175.481 271.756 175.481 271.509 175.287C271.111 174.978 270.703 175.135 270.331 175.339C270.016 175.271 269.639 175.088 269.262 175.214C268.576 175.439 267.869 175.428 267.162 175.491C266.748 175.528 266.428 175.554 266.067 175.324C265.805 175.156 265.465 175.434 265.218 175.423C264.799 175.402 264.312 175.114 263.914 175.345C263.678 175.481 263.5 175.659 263.202 175.617C262.814 175.559 262.615 174.999 262.395 174.967C262.165 174.936 261.688 175.685 261.484 175.386L260.824 174.428C259.739 174.674 259.32 174.161 259.252 174.15L257.429 173.873C257.167 173.831 257.157 172.72 256.282 172.94C255.874 173.045 255.643 172.657 255.067 172.778L254.47 172.039L254.056 171.898L254.302 163.475L252.343 163.417L245.424 163.176C245.057 163.166 244.758 163.15 244.434 163.103L244.554 160.877L245.434 160.987L248.058 161.254L248.048 161.249Z" fill="#A59A5D"/>
<path d="M288.103 170.048C287.7 170.414 287.658 171.053 287.543 171.603C286.898 171.818 287.186 172.379 286.877 173.012C286.615 172.913 286.448 172.971 286.312 173.102C285.914 173.468 286.249 173.961 286.039 174.097L285.725 174.296L285.599 175.375C285.39 175.71 285.159 175.92 285.049 176.323C284.986 176.564 284.782 176.831 284.992 177.119L285.51 176.648C285.945 176.894 285.384 177.203 285.238 177.695C285.426 177.779 285.604 177.8 285.762 177.947C285.573 178.277 285.473 178.581 285.515 178.89L275.238 179.282L275.118 176.103L274.112 176.512C273.976 176.569 273.824 176.622 273.703 176.496C273.651 176.438 273.609 176.333 273.604 176.229L273.18 164.249L274.463 164.233L288.286 163.484C288.815 164.239 287.82 164.783 288.024 165.616C288.669 165.663 289.266 165.616 289.983 165.527C289.884 166.365 289.02 166.973 289.098 167.392C289.177 167.811 288.952 167.979 288.763 168.282C288.548 168.628 289.098 169.576 288.423 169.786C288.255 169.838 288.197 169.959 288.098 170.048H288.103Z" fill="#E3BE5D"/>
<path d="M282.529 146.321L282.513 146.488C282.451 146.509 282.451 146.593 282.529 146.588C282.676 146.918 282.623 147.264 282.566 147.635C282.513 147.971 282.723 148.29 282.775 148.594C282.912 149.374 283.346 149.935 284.022 150.317L284.614 151.004C285.903 151.496 285.049 152.811 286.091 153.094C286.259 152.999 286.458 152.716 286.667 152.737C286.877 152.758 287.071 152.826 287.196 153.057C287.458 153.523 287.416 154.057 287.17 154.534L286.971 155.288C286.919 155.493 286.777 155.796 286.982 155.959C287.364 156.252 287.694 156.561 287.987 156.949C288.485 157.604 289.203 157.08 289.218 157.541C289.244 158.284 290.093 158.237 289.894 159.604C289.8 160.244 290.407 160.914 291.004 161.134C291.272 161.632 291.214 162.297 291.151 162.81C290.921 162.836 290.722 162.779 290.554 162.878C290.428 162.952 290.381 163.203 290.355 163.324L295.483 163.187L295.562 162.119L301.397 161.82L308.955 160.998L315.461 160.134C315.498 160.563 315.723 161.124 315.451 161.511C315.084 162.03 314.476 162.36 313.953 162.695C313.832 162.47 313.911 162.334 313.905 162.129C313.345 162.779 313.366 163.439 312.282 163.989L310.317 164.979C309.113 165.586 308.641 166.587 308.814 167.912L304.341 168.672L295.483 169.494L288.103 170.039C288.197 169.95 288.254 169.829 288.427 169.777C289.103 169.562 288.553 168.619 288.768 168.274C288.956 167.97 289.176 167.797 289.103 167.383C289.03 166.969 289.894 166.356 289.988 165.518C289.271 165.607 288.668 165.654 288.029 165.607C287.82 164.774 288.82 164.23 288.291 163.475L274.468 164.224L273.184 164.24L273.101 162.019C273.101 161.914 273.027 161.846 272.98 161.799L272.645 152.669C272.634 152.397 272.393 152.292 272.252 152.161L271.403 151.36C270.927 150.679 271.723 149.846 271.472 149.406C271.325 149.149 270.466 149.369 270.455 148.872C270.445 148.248 270.036 147.908 269.581 147.504C269.219 147.185 269.209 146.53 269.141 146.111L281.801 145.682C282.037 145.98 282.262 146.164 282.534 146.3L282.529 146.321Z" fill="#F3D065"/>
<path d="M282.697 132.941C282.802 133.68 283.31 134.371 283.09 134.623C282.451 135.361 283.221 135.54 283.399 136.414C283.498 136.896 284.321 136.54 284.661 137.163C284.74 137.252 285.012 137.21 285.106 137.184L286.096 138.504C286.688 139.274 286.861 140.39 286.274 141.207C285.688 142.024 283.98 142.171 283.833 143.376C284.294 144.14 284.19 145.11 283.388 145.649L282.864 146.147C282.749 146.257 282.644 146.325 282.519 146.325C282.246 146.189 282.026 146.005 281.785 145.707L269.125 146.136C269.057 145.707 268.685 145.513 268.523 145.136L268.35 144.051C268.313 143.821 268.465 143.449 268.229 143.224C268.051 143.056 267.91 142.773 267.988 142.522C268.135 142.061 267.753 141.914 267.601 141.621L267.47 140.526C267.292 140.296 267.145 140.139 267.234 139.803L266.93 139.4C267.166 139.018 266.962 138.803 266.778 138.515L266.543 137.478C266.668 137.347 266.553 137.179 266.563 137.006L266.611 136.179C266.495 135.76 266.485 135.393 266.689 135.01C266.799 134.796 266.537 134.618 266.495 134.476C266.406 134.214 266.569 133.942 266.574 133.717H267.281V133.329L277.391 133.224L282.692 132.947L282.697 132.941Z" fill="#E3BE5D"/>
<path d="M282.531 146.587C282.451 146.592 282.451 146.508 282.515 146.486C282.515 146.513 282.515 146.561 282.531 146.587Z" fill="#E3BE5D"/>
<path d="M266.188 122.539L266.524 122.528L266.277 123.283C265.947 124.278 266.513 124.886 267.225 125.64L267.293 133.319V133.717L266.592 133.712C266.592 133.937 266.424 134.209 266.513 134.471C266.56 134.613 266.822 134.791 266.707 135.006C266.508 135.388 266.518 135.755 266.628 136.174L266.581 137.001C266.571 137.179 266.686 137.342 266.56 137.473L266.283 137.08C265.753 137.216 265.455 136.598 265.099 136.519L263.737 136.205C262.789 135.985 261.987 136.504 261.244 135.817C260.845 135.451 260.337 135.529 259.829 135.508L251.071 135.194L242.68 134.681L243.308 125.724L243.586 121.648L258.63 122.429L266.199 122.544L266.188 122.539Z" fill="#F3D065"/>
</g>
<defs>
<clipPath id="clip0_2444_3028">
<rect width="500.238" height="269.762" fill="white" transform="translate(5.76172 76.4746)"/>
</clipPath>
<clipPath id="clip1_2444_3028">
<rect width="192.16" height="128.323" fill="white" transform="translate(162.379 100.57)"/>
</clipPath>
</defs>
</svg>
