<svg width="421" height="306" viewBox="0 0 421 306" fill="none" xmlns="http://www.w3.org/2000/svg">
<path opacity="0.12" d="M417.787 60.6845L412.139 50.0979C409.391 44.9485 404.564 41.1789 398.91 39.758L397.237 39.3352C395.575 38.9183 393.872 38.707 392.169 38.707C381.377 38.707 372.3 47.1445 371.501 57.913C371.255 61.2775 368.935 64.137 365.694 65.0764L361.126 66.4034C358.331 67.2137 355.789 68.5759 353.569 70.4431L333.154 88.1519C331.439 89.6433 328.762 89.0209 327.893 86.9189C325.838 81.9456 321.264 73.6666 311.752 66.3036C282.793 43.8916 170.604 48.037 110.666 33.264C103.52 31.5025 97.0204 31.9135 91.7007 31.3616C90.9903 31.2852 90.2681 31.25 89.5576 31.25C80.1513 31.25 71.9075 37.609 69.5119 46.71L54.9091 102.22C54.3396 104.381 54.1282 106.606 54.2691 108.832L56.7176 146.798C56.9936 151.037 58.5319 155.041 61.18 158.371L77.509 178.898C86.0992 192.679 60.9158 206.06 53.4706 209.636C51.8383 210.417 50.4056 211.562 49.3076 213C47.4522 215.425 46.1017 218.208 45.3325 221.191L33.1959 268.305C31.4168 275.216 32.9023 282.415 37.2767 288.057C41.651 293.7 48.2449 296.935 55.3789 296.935C55.5492 296.935 55.7194 296.935 55.8897 296.935L65.3606 296.73C70.1343 296.624 74.6848 295.062 78.519 292.214L88.1954 285.027C90.1682 283.56 92.558 282.773 95.0182 282.773H109.075C112.105 282.773 114.947 284.247 116.69 286.724L123.002 295.696C127.289 301.785 134.294 305.42 141.739 305.42C143.759 305.42 145.773 305.15 147.728 304.621C154.151 302.883 159.489 298.45 162.377 292.455C165.266 286.46 165.413 279.526 162.771 273.413L160.311 267.724C158.778 264.171 156.347 261.042 153.288 258.676L142.514 250.35C139.143 247.743 136.959 243.897 136.448 239.663L134.816 226.117C134.294 221.79 137.799 218.032 142.15 218.255C146.072 218.455 149.9 218.637 149.9 218.637C154.022 218.831 157.927 220.557 160.845 223.475L175.189 237.843C179.106 241.765 184.32 243.926 189.863 243.926C190.467 243.926 191.066 243.897 191.665 243.85C194.46 243.603 197.155 244.924 198.541 247.361L201.042 251.765C203.109 255.393 206.18 258.288 209.932 260.132L215.228 262.733C218.111 264.148 221.188 264.864 224.364 264.864C230.406 264.864 236.143 262.222 240.1 257.619C242.138 255.247 243.588 252.481 244.381 249.534C245.109 246.838 246.706 244.455 248.82 242.628L253.74 238.372C254.861 237.403 256.365 236.986 257.827 237.244L280.732 241.313C281.93 241.525 283.151 241.636 284.36 241.636C290.009 241.636 295.387 239.317 299.263 235.312C300.725 233.803 302.662 232.846 304.753 232.647L311.364 232.013C315.269 231.795 319.003 233.616 321.24 236.821C328.145 246.721 332.29 252.845 333.753 255.164C336.682 262.275 343.294 263.901 349.7 265.469C351.315 265.868 352.976 266.068 354.644 266.068C361.373 266.068 367.702 262.786 371.583 257.278L373.251 254.912C377.426 248.993 378.207 241.319 375.312 234.678L365.471 212.096C362.841 206.06 364.115 199.032 368.7 194.305L385.035 177.471C390.983 171.341 392.569 162.346 389.075 154.554L386.01 147.714C384.466 144.273 384.906 140.263 387.155 137.233L405.874 112.014C409.496 107.129 410.794 100.929 409.432 95.0041C408.833 92.403 409.614 89.6727 411.499 87.782L414.17 85.0987C420.653 78.5988 422.103 68.7873 417.781 60.6903L417.787 60.6845Z" fill="#00634C"/>
<path d="M94.6984 11.0125L93.2834 18.6564C93.1381 19.4145 92.5632 20.5895 92.9864 21.297C93.3971 21.9729 93.6687 22.2509 93.7445 23.1543C93.7887 23.6976 94.2373 24.2535 93.5739 24.8094C92.0704 26.0792 93.6877 29.2947 94.9069 31.3225C96.2019 33.4767 98.3624 32.8829 99.0573 33.8305C99.6512 34.6454 98.5772 35.4414 98.8489 36.8185C99.2216 38.6884 96.979 38.7706 96.6062 40.2614C96.4104 41.0385 96.6378 41.7586 97.1937 42.3272C97.7623 42.9084 98.2993 43.6033 99.1016 43.856C99.6448 44.0265 100.169 42.6683 101.313 42.9716C101.679 43.0663 101.976 43.5401 102.039 44.0329L102.33 46.2629C102.791 47.4947 102.974 48.6634 102.608 49.9648C102.159 51.5694 103.915 51.2725 105.021 53.1803C105.912 54.7154 107.485 55.3408 109.19 55.0691L112.519 55.126C113.802 54.8291 114.926 54.4816 116.253 54.8796L117.643 55.1007L114.194 78.0829C107.63 77.5333 101.11 76.7247 94.4584 75.7582L86.8713 120.946L85.2351 127.888L83.4979 128.773C83.0367 128.008 82.3608 128.046 81.6596 127.787C81.3563 127.68 80.9015 127.37 80.5477 127.636C79.8591 128.154 80.8889 129.588 80.4593 130.219C79.9918 130.908 79.9223 131.451 79.8528 132.228L79.3475 133.732C79.8971 134.269 79.7833 134.825 79.4738 135.437C79.0505 136.278 79.379 137.269 79.3538 138.154C79.3285 139.152 79.1579 140.074 79.6001 141.079C79.1074 141.799 79.1895 142.557 79.8465 143.037C80.6867 143.82 81.4764 144.888 81.1858 145.589C80.7625 146.613 78.7284 146.423 78.482 147.276C78.2988 147.914 78.2735 148.28 77.6228 148.584C77.9324 149.43 77.8629 151.01 77.6986 151.344C77.5849 151.578 77.0795 151.711 76.8079 151.875C76.65 153.397 75.197 153.094 75.0959 153.966C74.9696 155.04 75.5887 155.912 76.5363 156.335L76.372 157.396C75.5255 157.144 74.6158 157.447 73.6366 157.358L62.0318 156.341C60.8947 156.24 59.7134 156.354 58.9048 155.425C58.3425 154.775 57.9951 153.802 57.7866 152.949C57.4897 151.761 56.9085 150.814 56.5168 149.708C55.8598 147.864 54.9186 146.202 53.6488 144.718L52.0252 143.416L50.5912 142.172C49.8647 141.23 49.2772 140.428 48.0896 140.074C46.7945 139.683 45.689 138.741 45.0004 137.579C44.2929 136.391 43.3516 135.665 42.044 135.229L40.1677 134.212C39.1191 133.643 37.824 133.365 36.9143 132.569C35.9099 131.704 36.2257 130.213 36.6364 129.164C37.2176 127.686 36.63 126.164 35.9162 124.843C35.4171 123.915 35.1518 122.759 34.3432 122.083C33.7241 121.565 33.383 121.198 33.0482 120.421L31.2856 116.397C30.4833 114.565 30.2117 112.601 30.9255 110.667C31.3551 110.92 31.7973 111.135 32.1953 110.964C31.8416 109.309 30.5528 108.355 29.6937 107.092C28.9167 105.948 28.9735 104.319 29.2515 103.036L29.8516 100.269L27.4637 98.254C27.2236 98.0519 26.8699 97.9761 26.8067 97.7044C26.6172 96.8832 28.1775 96.561 27.4068 95.0448C25.1137 90.5785 24.5704 85.6258 25.8907 80.7867C24.8041 77.6471 22.9026 74.0399 25.0442 71.7341C26.3771 70.3001 27.3121 68.5565 27.6532 66.5792C27.7796 65.8401 28.2597 65.0504 28.2912 64.3492C28.3418 63.0921 28.4429 61.8476 28.386 60.6915L36.7374 63.1805L54.7038 67.9248C61.5391 69.7315 68.2733 71.1971 75.3802 72.5174L78.0714 60.104C78.8168 56.6737 79.4738 53.3698 79.8781 49.889C79.398 48.556 80.1624 47.5516 81.1605 46.8125C81.1921 44.8288 82.664 44.8983 82.9988 43.2495C83.182 42.3461 84.0222 41.8976 84.4455 41.3607C85.3046 40.2741 84.7361 39.2128 84.1486 38.3347C83.599 37.5134 83.5295 36.5343 82.6956 35.8773L87.6357 9.64795L94.7111 11.0125H94.6984Z" fill="#B7AB65" stroke="#101727" stroke-width="0.5" stroke-linejoin="round"/>
<path d="M114.188 78.09L112.723 87.7238L125.793 89.5748C126.039 89.6127 126.172 88.9683 126.197 88.7598C136.4 90.1117 146.533 91.3183 156.798 92.1964L160.064 92.4112C160.039 92.8092 159.944 93.1882 160.052 93.6999C164.499 94.0032 168.763 94.2243 173.204 94.0158L172.775 103.498C173.204 103.643 173.514 103.631 173.804 103.643L172.516 130.662L167.039 130.106L165.207 129.879C150.626 128.969 136.078 127.782 121.434 126.032L114.997 177.12L100.941 176.102L77.7123 163.026L76.6447 162.053C75.9561 161.427 75.6971 160.278 76.3036 159.557C76.8911 158.863 76.9353 158.073 76.3668 157.416L76.531 156.355C75.5771 155.931 74.9643 155.06 75.0907 153.986C75.1918 153.114 76.651 153.417 76.8027 151.895C77.068 151.73 77.5734 151.598 77.6934 151.364C77.8576 151.029 77.9208 149.45 77.6176 148.603C78.2683 148.3 78.2935 147.927 78.4767 147.296C78.7168 146.449 80.751 146.632 81.1805 145.609C81.4711 144.908 80.6815 143.84 79.8413 143.057C79.178 142.577 79.1021 141.819 79.5949 141.098C79.1527 140.088 79.3233 139.172 79.3485 138.174C79.3738 137.289 79.0453 136.297 79.4685 135.457C79.7781 134.844 79.8918 134.295 79.3422 133.751L79.8476 132.248C79.9171 131.471 79.9866 130.928 80.454 130.239C80.8836 129.614 79.8476 128.173 80.5425 127.655C80.8963 127.39 81.3511 127.693 81.6543 127.807C82.3555 128.06 83.0315 128.028 83.4926 128.792L85.2299 127.908L86.8661 120.965L94.4531 75.7778C101.112 76.7444 107.625 77.553 114.188 78.1026V78.09Z" fill="#7E9462" stroke="#101727" stroke-width="0.5" stroke-linejoin="round"/>
<path d="M225.932 161.958C225.938 162.179 226.027 162.394 226.14 162.514C226.387 162.786 226.702 162.666 226.987 162.552L229.084 161.699L229.337 168.345L229.589 176.412C229.608 177.044 230.234 177.398 230.468 177.865L231.181 179.299C231.624 180.19 231.769 181.118 232.502 181.851C233.898 183.247 232.533 184.606 233.392 185.819C233.822 186.431 233.607 186.855 233.392 187.442C233.209 187.947 233.235 188.484 232.9 188.977C232.609 189.4 232.565 190.032 232.742 190.487C232.982 191.119 232.66 191.428 232.382 191.902C232.085 192.407 232.085 193.203 232.009 193.696C231.055 193.955 229.95 194.056 229.065 194.587C228.484 194.934 228.099 195.269 227.303 195.206C225.692 195.073 224.1 194.795 222.539 194.341C221.396 194.006 220.253 194.341 219.659 195.364L217.738 198.68C216.551 200.734 215.35 202.604 213.449 204.025L208.768 207.512L203.891 211.524C202.413 212.995 201.623 214.79 201.427 216.881C201.155 219.831 201.484 222.686 201.977 225.624C202.255 227.285 202.533 228.997 202.084 230.709L195.862 228.321C195.148 228.182 193.189 229.256 189.892 225.491C190.296 222.617 186.998 221.347 187.738 218.251C187.289 216.786 186.619 215.478 185.678 214.284L182.241 209.925C181.332 208.775 180.82 207.563 180.296 206.211C177.895 200.02 173.385 194.928 166.442 194.53C164.749 195.307 163.347 196.381 162.159 197.783L159.588 200.816C157.137 203.709 153.384 199.754 150.699 197.329C149.31 196.071 148.242 194.675 147.699 192.862L146.442 188.649C146.201 187.834 145.911 186.652 145.285 186.059L142 182.938L138.804 179.065L137.528 177.442C137.041 176.823 136.631 176.456 136.309 175.692C136.138 175.281 135.355 174.991 135.367 174.454L137.844 173.784L162.614 175.231L164.964 134.484C165.646 134.592 166.265 134.617 167.03 134.642L181.483 135.148L185.577 135.268L185.065 152.868L185.924 153.158L187.175 154.7C188.382 154.441 188.862 155.249 189.715 155.034C191.541 154.58 191.559 156.898 192.109 156.98L195.918 157.561C196.064 157.587 196.942 158.654 199.203 158.149L200.587 160.151C201.016 160.771 202.002 159.21 202.488 159.273C202.943 159.33 203.366 160.505 204.169 160.625C204.788 160.72 205.161 160.335 205.653 160.057C206.487 159.583 207.511 160.17 208.382 160.221C208.9 160.253 209.614 159.659 210.158 160.012C210.916 160.505 211.579 160.442 212.444 160.366C213.916 160.234 215.395 160.253 216.835 159.785C217.618 159.532 218.414 159.911 219.065 160.05C219.842 159.614 220.695 159.292 221.529 159.937C222.053 160.341 222.634 160.347 223.253 160.562C223.778 160.745 224.131 161.232 224.864 161.143L225.919 161.92L225.932 161.958Z" fill="#849465" stroke="#101727" stroke-width="0.5" stroke-linejoin="round"/>
<path d="M40.4555 245.031L41.3652 246.616C40.9672 247.709 40.2533 248.587 39.35 249.371C36.2355 252.081 32.5652 254.071 28.6043 255.277C25.7678 256.143 23.86 255.031 23.8916 256.414L23.9421 258.6C23.9548 259.023 23.6768 259.428 23.342 259.567C22.6534 259.851 21.7816 258.644 20.5371 258.701C19.4379 258.752 18.9641 260.009 18.3514 260.047C17.9597 260.072 17.2648 258.651 15.8813 259.642C15.218 260.116 14.7063 260.066 13.9608 259.984C10.6759 259.617 7.46669 261.752 3.54367 261.689L0.852509 261.645C0.593501 261.645 0.359762 261.487 0.296589 261.361C-0.164572 260.457 2.89931 258.682 5.00296 259.295C6.05794 259.605 6.87287 259.68 7.82678 259.042L11.0675 256.863C12.7037 255.764 15.8308 257.766 16.5383 256.534C17.0121 255.713 17.448 255.138 18.4777 254.955L22.3881 254.254C23.3799 254.077 23.5315 253.294 23.8032 252.712C25.1677 251.79 26.7975 251.184 27.7072 249.693L31.1691 244.014C30.0573 243.982 29.6024 244.816 28.838 245.182C27.8652 245.833 27.6693 244.879 26.766 244.108C25.9321 244.948 26.2037 246.206 25.4204 246.281C25.1171 246.313 24.8139 246.123 24.6686 245.795C24.1253 244.595 25.1235 243.18 24.6939 242.94C24.1822 242.655 22.8429 243.742 22.3881 242.99L22.3123 242.061C20.7772 240.526 17.3848 243.458 15.7929 242.295C16.1908 241.638 16.6836 241.221 17.1384 240.766C17.8649 240.034 17.7575 239.105 17.031 238.252C17.8586 237.86 18.5282 237.949 19.3937 237.867C18.5472 236.54 18.5219 235.245 19.1789 233.836C18.6546 233.476 18.1113 233.615 17.5554 233.748C15.9129 234.14 13.8598 234.891 12.9564 233.975C12.0594 233.066 13.1207 231.903 12.0909 230.583L10.758 228.871L13.4365 226.009C13.6008 225.832 12.9375 225.674 12.6974 225.763C11.9772 226.035 11.3329 225.693 11.1623 224.942C10.48 221.96 15.8813 215.579 19.3495 214.998C21.0109 214.72 21.2257 216.47 21.8322 216.641C22.6913 216.881 23.2536 215.82 23.8727 215.838L26.9681 215.933C27.8146 215.958 28.3705 215.377 28.5601 214.569C28.9391 212.926 29.4508 211.385 30.2278 209.881C30.3479 209.654 30.3163 209.306 30.2026 209.148C30.1015 209.01 29.7983 208.915 29.514 208.946L25.7236 209.376C24.4159 209.528 23.4431 209.092 22.3249 208.567L19.8675 208.138C18.4587 207.891 17.846 206.716 17.7638 205.289C17.6501 203.223 17.0247 201.328 15.7297 199.723C15.4012 199.313 15.199 198.498 15.4959 198.074C15.8371 197.588 16.5888 197.512 17.1574 197.563L20.9351 197.91C21.8764 197.998 21.9206 197.417 22.3755 196.918C23.323 196.268 25.174 196.489 26.1532 197.076C27.2271 197.721 25.85 200.797 28.1873 201.454C29.0023 201.681 30.032 202.079 30.8975 202.023C31.4786 201.985 31.3902 200.917 31.2512 200.544L29.4761 195.775C28.4653 195.118 28.0863 194.05 27.7641 192.919C27.2966 190.582 26.4501 188.497 25.0224 186.621C24.7507 186.267 24.8202 185.604 24.9466 185.32C25.5215 184.044 28.3516 184.505 30.272 184.574C32.1293 184.637 33.6328 183.45 34.5362 181.902C35.5027 180.247 36.9557 179.129 38.8635 178.946L40.645 178.769C41.6242 177.827 42.7992 177.777 44.0563 178.118C45.2566 178.447 46.4127 177.619 47.2718 176.867C48.4405 175.831 49.8114 175.844 50.7905 177.006L52.8563 179.457C53.2543 179.925 54.8146 179.015 55.5601 179.382C56.3055 179.748 55.6991 182.155 57.9291 182.591L62.0037 183.38C63.1661 183.62 64.0505 184.284 64.6759 185.244C66.1352 185.895 67.6387 186.034 69.2054 186.198L74.9415 186.785C76.5271 186.95 77.9106 187.771 78.8898 189.028L79.054 205.055L79.0856 237.848C79.0856 239.288 78.8329 241.284 79.711 241.935C80.0079 242.156 80.5007 242.169 80.8481 242.017L82.7496 241.183C83.1097 241.025 83.5961 241.07 83.9183 241.291C83.931 241.297 84.7964 244.127 87.7276 246.995C88.5047 247.76 89.5154 247.741 90.204 246.995C90.7473 246.401 90.9494 245.504 91.3222 244.866C94.525 243.18 97.7532 246.831 99.8063 249.686L104.216 255.802C105.372 257.406 106.61 258.828 108.076 260.11C109.402 261.266 110.798 261.872 112.485 262.296C115.517 263.047 112.927 273.812 111.177 271.727L108.688 268.771C108.069 268.032 107.482 267.204 106.509 266.863C106.275 266.781 106.086 267.078 106.142 267.305L107.058 270.786C107.141 271.096 107.153 271.835 106.818 271.955C105.568 272.41 103.243 268.449 102.08 267.027C100.564 265.17 101.202 264.999 100.842 262.807C99.8694 262.896 99.9642 264.431 99.2756 265.221L97.8605 260.919L97.69 264.121C97.6773 264.361 97.551 264.595 97.431 264.69C97.2667 264.816 96.9824 264.823 96.7929 264.696C95.2073 263.66 95.3463 261.411 94.6198 260.887C93.8617 260.344 93.3942 259.838 93.0278 258.967L91.1958 254.582C91.5875 253.919 92.0234 253.395 92.1687 252.599C91.6254 252.542 91.4611 253.388 90.8105 253.331C89.9576 253.262 90.084 251.209 87.7719 250.242L82.6675 248.101C82.08 247.854 81.4419 247.469 81.1766 246.888C80.5828 245.58 82.8065 245.068 82.6738 243.995L79.8879 245.214C78.8708 245.656 77.9169 245.542 76.9188 245.144C76.1923 244.854 75.4279 244.671 74.7899 244.19C73.1853 242.996 70.4499 243.489 68.8579 242.643L64.8402 240.514C63.7599 239.939 64.1263 237.62 61.8205 237.734C60.7529 237.785 59.6726 237.848 58.6429 238.157C58.3081 238.258 58.2323 238.852 58.226 239.149L58.1565 242.03C58.1502 242.358 58.0238 242.718 57.8406 242.889C57.6321 243.079 57.2657 243.199 56.9246 243.135L54.0376 242.605C52.85 242.384 51.8518 243.085 51.7129 244.298C51.4854 246.319 45.4398 246.484 46.1979 245.346C46.6969 244.595 47.6888 244.317 48.4532 243.95C48.39 243.249 47.474 243.603 47.1834 243.363C47.0886 243.287 47.0381 242.971 47.1202 242.832C47.7835 241.739 48.0488 240.627 48.251 239.383C48.3963 238.492 49.2049 237.766 50.0009 237.513L54.1513 236.193C53.4691 235.561 52.4583 235.233 51.4791 235.138C48.9585 234.898 46.6906 237.898 45.4461 240.211C44.9155 241.196 44.3027 241.948 43.2351 242.39L41.0872 243.293C40.4049 243.578 40.007 244.31 40.4239 245.037L40.4555 245.031Z" fill="#B7AB65" stroke="#101727" stroke-width="0.5" stroke-linejoin="round"/>
<path d="M316.274 76.1568L318.498 89.4484C316.23 90.3833 318.675 91.95 317.594 94.2053C316.287 96.9343 318.485 98.4631 316.552 99.3475C315.396 99.8782 315.548 101.919 313.994 102.765C313.141 103.226 312.301 103.675 311.675 104.452L311.561 106.158C311.505 106.979 309.938 106.019 309.767 106.082C309.635 106.126 309.47 106.334 309.42 106.537L308.952 108.451C308.763 109.234 309.635 109.594 309.439 110.257C309.357 110.548 309.016 110.775 308.586 110.839L308.137 111.786C307.708 112.14 307.082 112.045 306.577 112.026C306.798 114.193 308.529 117.093 309.988 118.761C310.399 119.228 311.163 120.037 311.024 120.681C310.74 121.995 308.118 122.475 307.253 125.413C306.937 126.487 306.084 126.67 305.162 126.84C304.638 127.219 304.063 127.693 303.418 128.003L301.473 128.944C300.822 129.26 300.184 129.645 299.811 130.144L284.018 131.869L271.826 132.488L271.662 134.718L260.947 135.002C260.998 134.75 261.093 134.225 261.358 134.074C261.712 133.865 262.116 133.985 262.603 133.928C262.729 132.848 262.849 131.465 262.293 130.422C261.048 129.967 259.779 128.565 259.981 127.226C260.398 124.37 258.623 124.471 258.566 122.911C258.534 121.944 257.031 123.044 255.995 121.673C255.382 120.864 254.693 120.22 253.891 119.601C253.455 119.266 253.752 118.628 253.866 118.198L254.283 116.619C254.794 115.627 254.883 114.503 254.333 113.53C254.068 113.056 253.689 112.917 253.228 112.866C252.767 112.816 252.369 113.41 252.021 113.606C249.842 113.024 251.623 110.27 248.932 109.247L247.694 107.819C246.285 107.01 245.375 105.848 245.085 104.212C244.971 103.58 244.541 102.904 244.643 102.209C244.763 101.42 244.876 100.706 244.567 100.017C244.541 99.9603 244.541 99.8655 244.535 99.8087L244.567 99.4612C244.832 99.4612 245.047 99.3223 245.287 99.0885L246.386 98.0462C248.054 96.9217 248.275 94.9002 247.315 93.2956C247.618 90.7813 251.13 90.5602 252.413 88.7661C253.638 87.0541 253.278 84.7167 252.04 83.1121L249.968 80.3515L268.149 78.5637C268.061 79.8272 268.509 81.0274 269.071 82.234L269.867 83.946L271.744 104.243C271.889 105.791 272.243 107.231 271.826 108.729C271.699 109.184 271.396 109.55 271.485 110.036C271.706 111.262 273.133 110.7 272.23 113.29L271.333 115.861C270.676 117.756 269.823 118.104 270.348 118.912C270.872 119.721 269.438 120.94 270.272 122.279C270.366 121.344 270.84 121.047 271.63 120.852C273.247 120.454 274.947 120.605 276.513 121.098C277.701 119.866 278.863 121.294 279.899 120.365C281.194 119.196 279.861 118.438 280.683 117.863C281.643 117.194 282.123 118.64 283.241 119.007C283.803 118.761 284.258 118.653 284.934 118.729C285.736 117.724 284.498 116.196 286.652 115.596L287.303 112.607C287.448 111.938 288.447 112.178 288.794 111.982C289.476 111.597 289.83 111.306 290.632 111.369C290.942 111.395 291.327 111.205 291.485 111.028C292.009 110.428 291.308 109.758 291.517 109.291C291.599 109.108 291.889 108.899 292.193 108.659L288.617 83.7186L281.99 83.6744C279.804 83.6617 277.631 83.807 275.591 84.4324C277.379 81.1285 278.023 77.4645 277.328 73.8068L275.983 66.7883C275.243 62.9284 275.78 59.1191 277.593 55.651L279.779 52.1575C280.733 52.5302 280.411 54.5012 279.836 55.1582C279.425 55.6257 279.274 56.1563 279.71 56.6175C280.082 57.0155 280.626 56.9713 281.131 56.6554C281.971 56.1184 282.496 55.4488 282.571 54.4064L282.786 51.6205C283.873 50.2434 285.484 50.0223 287.076 49.978C289.634 49.9086 291.738 50.7614 293.45 52.6313C294.05 53.2883 294.593 53.7937 294.757 54.8171C294.991 56.2827 294.776 57.7609 294.214 59.1823L292.629 63.2254C292.452 63.6739 292.332 64.0719 292.597 64.4509C292.78 64.7162 293.109 65.1774 293.576 65.0511C294.157 64.8994 294.53 64.3182 294.884 63.8571L296.792 61.3997C297.183 60.8943 297.771 60.629 298.428 60.7679C300.165 61.128 301.334 65.3985 302.067 67.6159C302.515 68.9741 302.749 70.307 302.142 71.6716C300.405 75.5567 297.505 77.1613 297.385 79.2017C297.234 81.6907 295.332 81.3117 295.2 82.6826C295.162 83.1058 295.263 83.6681 295.756 83.7565L298.504 84.2619C300.007 84.7104 301.466 84.5967 303.027 84.5083L304.713 84.4135C305.585 84.363 306.166 83.8513 306.413 82.9984C306.925 82.8531 307.48 82.8468 307.986 82.9353C310.645 83.4027 310.21 80.4652 311.359 80.1809C312.256 79.9598 312.477 79.2965 313.059 78.7532L315.314 76.6685C315.636 76.3716 316.047 76.3274 316.287 76.1631L316.274 76.1568Z" fill="#BCAC60" stroke="#101727" stroke-width="0.5" stroke-linejoin="round"/>
<path d="M87.6227 9.64807L82.6826 35.8774C83.5165 36.5344 83.586 37.5136 84.1356 38.3348C84.7231 39.2192 85.2916 40.2742 84.4325 41.3608C84.0092 41.8977 83.1627 42.3526 82.9858 43.2496C82.6573 44.8984 81.1791 44.829 81.1475 46.8126C80.1557 47.5517 79.385 48.5561 79.8651 49.8891C79.4608 53.3699 78.8038 56.6738 78.0584 60.1041L75.3672 72.5176C68.2603 71.1973 61.5261 69.7316 54.6908 67.9249L36.7245 63.1806L28.373 60.6916C28.2783 58.7901 27.7666 56.8886 27.9687 54.9113C28.1203 53.4078 28.7205 52.3591 29.4533 51.102L32.6561 45.587C34.1976 42.9338 35.063 40.1731 36.0106 37.2861C36.895 34.5887 38.3859 32.1502 38.8723 29.3453C39.1377 27.8418 39.2387 26.5468 40.1926 25.3023C40.5275 24.8601 40.6664 24.3863 41.5382 24.5947C42.1257 24.74 42.7827 25.1507 43.5913 24.7463C42.8649 24.5821 42.4984 23.7103 42.012 23.4387C40.9381 23.2492 40.1611 22.8512 40.0979 21.6319C40.0663 20.9433 40.8623 20.2927 40.9886 19.6167C41.2287 18.3154 41.3424 16.9129 41.2413 15.5421L40.8686 10.3366C40.7802 9.07319 40.1547 7.99926 40.6917 6.70422L41.2476 4.17099C41.3677 3.62139 42.4226 3.91198 42.7764 4.30365C43.9704 5.59869 45.1454 7.09589 46.7437 7.88555C47.8239 8.42251 48.8726 8.5994 49.8454 9.41433C50.7741 10.1914 52.0059 11.0758 53.3073 11.1705C54.8803 11.2906 55.7963 9.40169 55.3351 8.08138C54.9498 6.97586 56.3649 6.29359 56.4723 4.12045C58.8349 3.72246 61.166 3.94988 63.4844 4.43L67.2874 5.21334L87.6164 9.64175L87.6227 9.64807Z" fill="#849465" stroke="#101727" stroke-width="0.5" stroke-linejoin="round"/>
<path d="M165.052 20.1031L163.17 47.9054L162.595 56.4147L118.039 51.8916L117.641 55.1134L116.251 54.8923C114.925 54.4943 113.8 54.8417 112.518 55.1387L109.189 55.0818C107.483 55.3534 105.91 54.728 105.019 53.1929C103.914 51.2788 102.158 51.5757 102.606 49.9774C102.972 48.6761 102.789 47.5074 102.328 46.2755L102.037 44.0455C101.974 43.5591 101.677 43.0853 101.311 42.9842C100.161 42.6747 99.6432 44.0392 99.1 43.8686C98.2977 43.616 97.7544 42.9211 97.1922 42.3399C96.6425 41.7713 96.4151 41.0575 96.6046 40.2741C96.971 38.7896 99.22 38.7011 98.8473 36.8312C98.5693 35.454 99.6496 34.6581 99.0557 33.8431C98.3672 32.8955 96.2003 33.4894 94.9053 31.3352C93.6861 29.3073 92.0688 26.0918 93.5723 24.8221C94.2293 24.2661 93.7871 23.7039 93.7429 23.1669C93.6671 22.2636 93.3892 21.9856 92.9848 21.3097C92.5616 20.6021 93.1365 19.4271 93.2818 18.669L94.6968 11.0251C117.932 15.5104 141.451 18.4416 165.052 20.1157V20.1031Z" fill="#BCAC60" stroke="#101727" stroke-width="0.5" stroke-linejoin="round"/>
<path d="M165.215 129.873L164.969 134.523L162.619 175.269L137.849 173.823L135.372 174.492C134.627 174.644 133.862 174.473 133.029 174.391L121.481 173.197L121.228 177.802L115.012 177.114L121.449 126.026C136.092 127.776 150.647 128.964 165.221 129.873H165.215Z" fill="#A99E53" stroke="#101727" stroke-width="0.5" stroke-linejoin="round"/>
<path d="M355.2 75.8227C354.891 76.2902 354.726 76.6629 354.594 77.3073L353.501 79.4994L353.608 82.3611C353.634 82.9928 354.341 83.2329 354.486 83.574C354.79 84.2879 355.232 84.5343 355.611 85.0649L356.154 87.1559C356.123 87.5539 355.864 88.3309 355.598 88.5963L353.69 90.5104C352.774 89.9608 351.789 90.005 350.854 90.6052C350.532 90.8136 350.172 90.8894 350.229 91.3885L349.117 91.597L339.976 91.9381C337.076 92.0455 334.29 92.374 331.473 93.0247C328.049 93.8143 324.328 95.5895 325.136 99.1777C325.459 100.624 326.292 102.469 327.31 102.444C327.651 102.437 328.03 102.305 328.27 101.983L330.121 99.4872C331.637 97.4531 332.01 96.7834 334.284 96.9224C335.187 96.9793 335.876 96.9161 336.672 97.4973C338.643 98.944 339.723 98.0848 340.121 99.2914C340.671 100.965 343.419 100.429 343.772 102.557C343.981 103.796 342.705 104.939 343.103 105.647C343.191 105.805 343.488 105.874 343.703 105.83C344.088 105.748 344.341 105.975 344.556 106.278C345.238 107.239 346.318 107.245 347.392 107.213C348.618 107.175 349.862 107.757 350.911 108.268C351.587 108.597 351.498 109.317 351.208 109.816C350.936 110.277 350.696 110.479 350.298 110.833C350.014 111.086 350.349 111.755 350.563 111.995C351.132 112.646 352.263 111.926 352.307 113.013C352.32 113.316 352.193 113.771 351.776 113.632C351.543 113.556 351.284 113.24 351.088 113.234C350.848 113.234 350.589 113.518 350.582 113.739C350.582 113.941 350.696 114.352 350.911 114.453C352.023 114.996 352.345 116.064 353.04 116.898L355.244 118.496C355.813 119.374 356.059 120.29 355.984 121.276L314.277 128.054L313.38 128.319L299.785 130.126C300.152 129.627 300.796 129.242 301.447 128.926L303.392 127.984C304.037 127.669 304.612 127.195 305.136 126.822C306.058 126.652 306.911 126.462 307.227 125.394C308.099 122.457 310.72 121.977 310.998 120.663C311.137 120.018 310.373 119.21 309.962 118.742C308.503 117.075 306.766 114.169 306.551 112.008C307.056 112.027 307.682 112.128 308.111 111.768L308.56 110.82C308.989 110.757 309.324 110.53 309.413 110.239C309.609 109.576 308.737 109.222 308.926 108.432L309.394 106.518C309.444 106.316 309.602 106.114 309.741 106.064C309.912 106.007 311.478 106.961 311.535 106.139L311.649 104.434C312.274 103.657 313.115 103.208 313.967 102.747C315.521 101.9 315.364 99.86 316.526 99.3293C318.459 98.4449 316.261 96.9161 317.568 94.187C318.649 91.9318 316.204 90.3651 318.472 89.4301L316.248 76.1386C316.696 75.8417 317.391 75.7848 317.777 75.3363C318.604 74.3824 319.04 73.4538 320.424 73.2706L320.891 77.0167L348.144 71.009C349.129 70.7942 349.881 70.8194 350.658 71.4701L351.454 71.6596C351.738 71.7291 351.713 72.2156 351.7 72.5314C351.663 73.6243 352.32 74.0792 353.286 74.1802C353.659 74.3571 354.006 74.9952 354.651 74.9446C354.985 74.9194 355.333 75.57 355.181 75.7975L355.2 75.8227Z" fill="#A99E53" stroke="#101727" stroke-width="0.5" stroke-linejoin="round"/>
<path d="M237.964 41.7417C237.617 41.6532 237.086 41.8743 236.865 42.0891C236.556 42.3923 236.372 42.8851 236.417 43.3526L236.802 46.9787C236.871 47.6483 236.745 48.3495 236.164 48.7349C235.02 49.4993 234.029 50.5164 233.669 51.8746C233.182 53.7255 235.381 53.8519 234.711 54.8942C234.269 55.5828 234.136 56.3156 234.054 57.1495L233.833 59.31C233.732 60.3018 234.123 60.8009 234.825 61.2747C235.677 61.8559 236.429 62.2981 237.528 62.3991C239.196 62.5508 239.91 62.5129 240.592 64.0037C241.041 64.9829 241.824 65.4251 242.475 66.139C242.993 66.7012 243.283 67.295 244.041 67.712C244.831 68.1479 245.64 69.1649 245.343 70.0809C245.172 70.6179 244.844 70.978 244.92 71.5087L233.845 72.0898L212.72 72.3046L212.581 56.2524C211.091 54.6794 209.909 53.4034 210.598 51.3313L211.116 49.752L210.421 49.7709C211.147 48.4696 209.139 47.2693 209.423 44.8182C208.248 43.441 209.48 42.1712 209.063 40.1687C208.867 39.2274 208.621 38.5325 209.107 37.6354C209.897 36.1888 208.286 35.1717 208.223 34.6853C208.077 33.5292 207.016 33.0428 207.433 29.7704C207.534 28.9618 207.262 28.5828 206.972 27.9132C206.605 27.0793 206.997 25.9359 207.218 25.0893C207.464 24.1544 206.422 23.3016 206.574 21.7854L217.679 21.7601C218.179 21.7601 217.913 23.0615 218.33 23.1057C218.899 23.1626 219.36 21.2611 220.889 21.8359C221.438 22.0381 221.388 23.769 222.203 23.4468C222.898 23.1752 223.453 23.8133 223.864 23.8133C224.9 23.8196 225.406 23.8196 226.183 24.5524C226.562 24.9125 227.2 25.1778 227.446 25.8158C229.556 23.908 230.415 25.0451 232.475 25.342L233.378 26.0117C234.231 26.138 234.793 26.4602 235.014 27.3193C235.267 28.2796 236.252 26.9782 237.566 28.0206C238.653 28.886 239.859 29.3977 241.256 29.5557C241.616 29.1387 241.78 28.7281 242.228 28.3996L243.997 28.1153L245.766 27.8753C246.328 27.7994 246.859 28.0269 247.503 28.1469L249.474 28.5196C250.213 28.6586 251.496 29.3977 251.534 29.8147C251.553 30.0042 251.452 30.2821 251.231 30.4022L248.388 31.8867C247.251 32.4805 246.341 33.1375 245.488 34.0978L244.124 35.6329L238.615 40.6488C238.261 40.971 237.926 41.2363 237.958 41.7417H237.964Z" fill="#BCAC60" stroke="#101727" stroke-width="0.5" stroke-linejoin="round"/>
<path d="M206.572 21.7836C206.42 23.2998 207.462 24.1526 207.216 25.0876C206.995 25.9278 206.603 27.0775 206.97 27.9114C207.266 28.581 207.538 28.9664 207.431 29.7687C207.014 33.041 208.075 33.5274 208.22 34.6835C208.284 35.1699 209.894 36.187 209.105 37.6337C208.612 38.537 208.858 39.2256 209.061 40.1669C209.477 42.1695 208.246 43.4392 209.421 44.8164C209.136 47.2675 211.145 48.4678 210.419 49.7692L194.607 49.5291L163.172 47.8992L165.054 20.0969C178.491 21.0445 191.941 21.5625 205.491 21.5499C205.997 21.5499 206.3 21.4994 206.572 21.7773V21.7836Z" fill="#7E9462" stroke="#101727" stroke-width="0.5" stroke-linejoin="round"/>
<path d="M325.247 178.669C325.36 179.269 326.024 179.642 326.207 180.179L328.355 186.616C329.334 189.023 330.825 191.044 333.137 192.22C332.606 192.523 332.158 192.561 331.867 192.952C331.646 193.249 331.836 193.729 332.107 193.963L334.533 196.067C335.411 196.831 335.923 197.716 336.416 198.752L338.816 203.793C338.898 203.963 338.936 204.21 338.848 204.33C338.778 204.418 338.601 204.494 338.355 204.544C340.478 207.248 341.697 210.439 342.562 213.844C343.497 217.539 343.643 221.323 342.455 224.949C341.962 226.446 341.059 227.817 339.669 228.512C338.134 229.277 336.466 228.961 334.862 228.386C335.02 228.07 335.31 227.912 335.651 227.779L339.119 226.415C338.532 225.733 337.768 226.048 337.054 226.15C335.696 226.345 334.937 223.515 333.554 223.654C332.17 223.793 330.85 223.661 329.732 222.643C328.292 221.329 327.306 219.453 327.313 217.444C327.313 217.053 327.628 216.629 327.003 216.377L326.504 217.286C325.777 216.427 325.613 215.486 325.354 214.583L325.203 214.753C325.272 214.962 325.297 215.467 325.101 215.587C324.28 215.751 323.497 215.385 323.181 214.696L321.981 212.094C321.69 211.468 321.349 210.95 320.825 210.508C319.517 209.396 321.374 207.766 321.046 205.922C319.915 205.997 319.719 207.709 319.239 207.627C318.563 207.514 318.184 206.711 318.19 206.099L318.26 202.63L318.323 198.493C318.134 196.111 316.396 194.487 313.939 194.481C312.24 192.118 309.82 189.351 307.028 188.537C306.036 188.195 304.754 188.593 304.229 189.345C304.766 190.64 303.237 189.813 302.934 190.893C302.631 191.973 301.677 191.828 300.963 192.655C300.736 192.226 300.451 191.948 300.148 191.847C299.757 191.714 299.378 191.847 298.998 192.03L297.274 192.858C297.83 190.823 295.928 191.114 294.76 189.749C295.221 188.871 294.538 188 293.648 187.734C293.502 188.17 293.61 188.416 293.604 188.89C292.827 188.195 291.948 187.854 290.925 187.715L288.24 187.343C288.802 186.098 285.625 186.477 284.355 188.094C284.355 188.259 284.703 188.511 284.911 188.562C283.433 190.021 281.601 188.012 279.813 189.8C279.453 189.712 279.352 189.453 279.263 189.212L277.059 183.23L297.407 180.065C297.798 180.002 298.203 179.819 298.689 179.958L299.194 182.781L325.247 178.669ZM325.285 214.513C325.19 214.368 324.969 214.501 325.114 214.658L325.285 214.513Z" fill="#B7AB65" stroke="#101727" stroke-width="0.5" stroke-linejoin="round"/>
<path d="M248.452 42.5121C248.168 42.7837 248.111 43.346 248.187 43.7755C248.351 44.6979 250.423 45.5696 251.819 45.9171L259.09 47.7175L261.864 48.0334L262.325 49.0315L264.485 49.7833C265.047 49.9791 264.018 51.59 264.15 52.8914C265.73 52.3797 265.723 54.2433 267.031 53.2704L267.745 53.8832L266.38 57.3514C265.938 58.4821 265.445 59.5498 265.496 60.8448L270.404 53.1251C271.181 53.8389 271.245 54.9003 270.796 55.791L269.103 59.1644L268.092 65.3869L266.892 71.521C266.601 73.0119 268.351 75.6399 268.137 78.59L249.955 80.3778C249.766 80.4347 249.185 80.5231 249.027 80.3399C248.313 79.0449 246.595 79.784 246.386 78.7795C246.013 76.9602 244.396 76.5874 245.736 75.0397C246.197 74.5091 245.129 73.0687 244.908 71.521C244.832 70.9903 245.161 70.6303 245.331 70.0933C245.628 69.1773 244.82 68.1539 244.03 67.7243C243.272 67.3074 242.981 66.7136 242.463 66.1513C241.806 65.4375 241.029 64.9952 240.581 64.0161C239.898 62.5252 239.185 62.5694 237.517 62.4115C236.418 62.3104 235.666 61.8682 234.813 61.287C234.112 60.8132 233.72 60.3142 233.821 59.3223L234.042 57.1618C234.124 56.328 234.257 55.5952 234.699 54.9066C235.369 53.8642 233.17 53.7379 233.657 51.8869C234.011 50.5287 235.009 49.5116 236.152 48.7472C236.733 48.3619 236.86 47.6607 236.79 46.991L236.405 43.3649C236.354 42.8974 236.544 42.4047 236.853 42.1015C237.075 41.8867 237.605 41.6656 237.953 41.754C238.818 41.9814 239.721 42.0067 240.593 41.5519L242.975 40.301C243.796 39.8715 244.643 39.5556 245.527 39.6251L245.205 41.0781C245.135 41.375 245.375 41.6719 245.306 41.9688C245.255 42.1962 244.851 42.2468 244.668 42.291C244.542 42.5942 244.788 42.7332 244.921 42.7964C245.085 42.8658 245.413 42.929 245.597 42.7648L246.462 41.9751C246.778 41.6845 247.157 41.5771 247.479 41.9183C247.763 42.2215 248.06 42.4552 248.458 42.5247L248.452 42.5121Z" fill="#849465" stroke="#101727" stroke-width="0.5" stroke-linejoin="round"/>
<path d="M308.72 143.046C307.488 144.808 307.279 146.192 308.846 147.809C310.002 147.714 310.918 148.289 311.525 149.154L313.704 152.231L316.673 154.878L320.925 158.074C322.403 159.186 323.508 160.665 323.957 162.49C325.296 164.126 326.863 166.666 328.512 167.007C328.745 167.493 328.581 167.835 328.246 168.245C327.154 169.597 326.25 168.706 326.061 169.307C325.985 169.54 326.187 169.717 326.326 169.926C326.749 170.557 326.174 171.259 325.808 171.72C325.833 171.903 325.972 172.25 325.928 172.383C325.821 172.731 325.094 172.8 325.063 173.318C325.037 173.76 326.168 174.537 325.252 175.434L324.368 176.293C324.747 176.559 325.018 176.508 325.448 176.496C325.22 177.298 325.1 177.961 325.233 178.669L299.181 182.781L298.675 179.957C298.189 179.818 297.785 180.002 297.393 180.065C297.538 178.688 297.273 177.304 296.692 175.927C296.445 175.346 296.78 174.752 296.963 174.234C297.323 173.23 297.026 172.231 296.881 171.221C296.742 170.26 298.119 168.839 296.61 168.252C296.534 167.879 296.685 167.493 296.452 167.133C295.953 167.146 295.542 166.938 295.314 166.71C294.929 166.325 295.175 165.876 295.055 165.402L290.141 146.179L299.484 144.593L308.72 143.046Z" fill="#A99E53" stroke="#101727" stroke-width="0.5" stroke-linejoin="round"/>
<path d="M357.533 40.8743C357.855 41.4239 357.728 42.0745 357.874 42.7L358.379 44.8731C358.783 45.7638 358.922 46.2755 358.588 47.2042C358.196 48.2907 358.284 49.3963 358.6 50.4702L358.796 53.3888C359.731 55.2208 360.849 57.0149 361.032 59.1501L361.234 61.5381C361.576 63.4711 361.266 65.4737 361.171 67.4068C361.159 67.5521 360.969 67.6974 361.032 67.9943L363.073 76.7121C363.035 77.0849 365.328 77.2681 365.966 76.4847C366.535 75.7835 367.236 75.6445 368.063 75.4487C369.308 75.1455 370.135 74.5327 371.184 73.6862C371.671 74.937 373.578 73.6483 373.983 73.8631L372.542 75.4234C371.999 76.5416 371.292 76.5921 370.243 76.9648L367.577 77.9187L363.534 80.0224C362.902 80.3509 362.087 80.3572 361.569 80.7742C361.209 80.7615 360.849 80.3193 361.001 79.8202C361.234 79.0306 361.165 77.6913 360.236 77.3818L356.541 76.1373C356.099 75.992 355.543 76.1499 355.195 75.8214C355.347 75.594 354.999 74.9433 354.664 74.9686C354.02 75.0254 353.673 74.3811 353.3 74.2042C352.333 74.1031 351.67 73.6483 351.714 72.5554C351.727 72.2395 351.752 71.7531 351.468 71.6836L350.672 71.4941C349.895 70.8434 349.143 70.8181 348.158 71.0329L320.905 77.0406L320.438 73.2945C321.215 73.1934 321.316 72.3848 321.783 71.8984L323.931 69.6368C324.929 68.5818 325.605 66.794 324.771 65.3916C324.392 64.7536 323.514 64.3745 323.343 63.528C324.556 62.5741 326.161 61.7781 327.715 61.7529C328.429 61.7402 328.978 61.9803 329.68 61.5949C330.912 60.9063 332.213 62.6689 334.291 61.3233C336.066 60.1735 337.241 61.4054 337.797 60.1167C338.758 57.8867 341.209 58.0951 340.375 56.3516C339.623 54.7849 341.461 54.1721 340.659 53.1424C339.977 53.7489 339.503 54.3806 338.675 54.4248C338.423 54.4374 338.334 54.1595 338.385 54.0268C338.416 53.9384 338.461 53.7362 338.6 53.6225L340.748 51.9232C342.08 51.2851 341.638 50.3502 342.043 49.3773C342.876 47.3621 344.86 45.8902 346.319 44.3235C346.73 43.8813 347.058 43.2369 347.652 43.1043L357.533 40.8932V40.8743Z" fill="#7E9462" stroke="#101727" stroke-width="0.5" stroke-linejoin="round"/>
<path d="M290.144 146.184L295.059 165.408C295.179 165.881 294.939 166.33 295.318 166.715C295.545 166.943 295.956 167.145 296.455 167.138C296.689 167.499 296.537 167.884 296.613 168.257C298.129 168.844 296.752 170.266 296.885 171.226C297.03 172.237 297.327 173.235 296.967 174.239C296.784 174.757 296.449 175.351 296.695 175.932C297.283 177.309 297.542 178.699 297.396 180.07L277.048 183.235L279.253 189.217C278.533 189.375 277.832 189.78 276.922 189.647C277.213 188.914 277.56 187.967 277.004 187.499C276.448 187.032 276.126 186.728 276.113 185.932C275.418 186.602 275.715 187.284 275.4 187.872L274.547 189.47C274.281 189.337 273.953 189.047 273.744 189.085C273.188 189.186 273.334 190.19 272.791 190.234C272.127 190.291 271.887 189.577 271.262 189.325L271.319 186.514C271.325 186.071 271.95 185.503 271.54 184.991C270.908 184.201 271.748 183.683 271.824 183.134C271.995 181.94 271.976 180.62 271.906 179.413L271.59 173.772L271.401 165.78L271.464 159.236L271.388 151.617L271.483 149.28L271.615 147.909L290.125 146.19L290.144 146.184Z" fill="#7E9462" stroke="#101727" stroke-width="0.5" stroke-linejoin="round"/>
<path d="M355.982 121.281C355.768 124.193 353.778 122.791 351.516 124.307C350.771 124.813 350.524 126.556 350.967 126.878C351.175 127.03 351.56 127.087 351.864 127.011L356.084 125.95C356.848 125.76 357.587 125.305 358.415 125.716C359.773 126.379 359.217 129.658 357.732 131.244C356.241 130.978 354.656 131.048 354.517 131.938C354.473 132.229 354.504 132.564 354.738 132.817C355.376 133.511 354.428 133.979 354.738 134.358C354.807 134.44 355.016 134.522 355.205 134.522H357.555C357.897 134.522 358.193 134.718 358.326 134.945C358.743 135.659 357.657 137.359 356.766 138.426C353.234 138.913 350.461 140.915 348.294 143.594L346.146 145.255L343.594 147.77C340.12 145.337 327.7 137.232 325.198 140.05C324.712 140.599 324.775 141.25 324.819 141.996C323.935 140.871 322.69 140.208 321.2 139.974C317.517 139.393 313.733 140.119 310.448 141.857L308.729 143.032L299.493 144.579C299.133 141.8 300.125 139.715 302.639 138.445L306.746 136.373C309.014 135.23 308.969 133.84 310.144 132.488C310.157 132.924 309.999 133.208 310.245 133.676C311.345 132.968 312.621 132.286 313.379 131.199C313.947 130.391 313.467 129.222 313.398 128.319L314.295 128.053L356.001 121.275L355.982 121.281Z" fill="#BCAC60" stroke="#101727" stroke-width="0.5" stroke-linejoin="round"/>
<path d="M250.815 167.525C250.916 167.74 251.01 168.012 251.162 168.031L251.825 168.125C251.926 168.504 251.39 168.77 251.282 168.978C251.08 169.762 251.143 170.507 251.522 171.208C251.977 171.17 252.394 170.956 252.798 171.158L252.236 173.021C252.122 173.394 252.672 173.798 252.565 174.165C252.407 174.721 251.63 174.879 251.743 176.18L250.89 176.818C250.758 178.031 249.69 177.766 249.652 178.41C249.627 178.802 250.246 178.966 250.031 179.294C249.981 179.376 248.932 179.667 249.084 180.027L249.419 180.785C249.229 181.032 248.749 181.19 248.749 181.493C248.749 181.745 249.04 182.08 249.153 182.327C249.008 182.775 248.446 182.977 248.193 183.42L248.547 185.991L259.64 185.188C260.423 185.132 261.358 184.822 262.078 185.188C262.647 186.351 260.809 187.027 261.908 188.758C262.255 189.314 262.489 189.794 263.127 190.103C264.485 190.767 263.525 192.289 264.751 192.479L266.039 192.662C266.14 192.801 266.399 192.902 266.355 193.123L266.191 193.887C266.861 193.925 267.366 194.254 267.467 194.759C267.72 196.054 266.077 196.161 265.597 197.494C265.477 197.829 265.205 198.044 264.927 198.202L266.526 199.585C266.943 199.946 267.107 200.501 266.778 200.931C266.564 201.215 266.033 201.525 265.61 201.228C265.06 200.843 264.656 200.148 263.986 199.927C263.449 199.75 262.855 200.186 262.369 200.558C262.091 200.356 262.142 200.066 262.142 199.687L260.714 202.03C260.423 202.51 259.918 202.567 259.457 202.58C258.951 202.592 258.749 201.973 258.395 201.828C256.336 201.512 256.323 202.681 255.862 202.744C255.433 202.801 255.129 202.599 254.706 202.485L251.434 201.607C250.979 201.487 250.619 201.165 250.505 200.798C250.391 200.432 250.505 200.034 250.834 199.668C249.602 198.808 248.237 198.6 246.765 198.575L242.571 198.493C241.067 198.461 239.431 198.587 238.111 197.848C237.473 197.494 237.03 197.204 236.241 197.381L233.139 198.076C232.716 198.17 232.292 198.063 232.021 197.842C231.32 197.292 231.673 196.004 232.299 194.892C232.602 194.355 232.261 193.957 232.008 193.679C232.084 193.186 232.084 192.384 232.381 191.885C232.659 191.411 232.987 191.101 232.741 190.47C232.564 190.015 232.608 189.383 232.899 188.96C233.234 188.467 233.202 187.93 233.392 187.425C233.606 186.837 233.821 186.414 233.392 185.801C232.532 184.588 233.891 183.23 232.501 181.834C231.768 181.101 231.623 180.172 231.181 179.282L230.467 177.848C230.233 177.38 229.614 177.026 229.589 176.395L229.336 168.328L250.808 167.5L250.815 167.525Z" fill="#7E9462" stroke="#101727" stroke-width="0.5" stroke-linejoin="round"/>
<path d="M271.635 147.903L271.502 149.274L271.407 151.611L271.483 159.23L271.42 165.775L271.61 173.766L271.925 179.407C271.995 180.62 272.008 181.934 271.843 183.128C271.767 183.678 270.927 184.196 271.559 184.985C271.97 185.497 271.351 186.066 271.338 186.508L271.281 189.319C271.275 189.641 271.218 190.216 270.896 190.45C270.397 190.81 269.91 190.216 269.626 189.963L267.99 190.463C266.992 190.551 266.063 191.031 265.311 191.707L266.038 192.674L264.749 192.49C263.523 192.301 264.484 190.778 263.125 190.115C262.487 189.799 262.254 189.319 261.906 188.77C260.813 187.039 262.652 186.363 262.077 185.2C261.363 184.834 260.428 185.137 259.638 185.2L248.545 186.003L248.191 183.431C248.438 182.996 249.006 182.793 249.152 182.339C249.038 182.092 248.747 181.757 248.747 181.505C248.747 181.201 249.227 181.037 249.417 180.797L249.082 180.039C248.924 179.685 249.973 179.388 250.03 179.306C250.245 178.978 249.625 178.813 249.651 178.422C249.689 177.777 250.756 178.043 250.889 176.83L251.742 176.192C251.628 174.89 252.405 174.733 252.563 174.177C252.664 173.81 252.121 173.406 252.234 173.033L252.797 171.17C252.392 170.974 251.975 171.182 251.521 171.22C251.142 170.519 251.078 169.773 251.281 168.99C251.388 168.788 251.919 168.516 251.824 168.137L251.161 168.043C251.009 168.024 250.914 167.752 250.813 167.537C250.725 166.893 250.933 166.255 251.325 165.566C250.996 165.263 250.624 165.212 250.232 165.036C250.529 164.006 251.704 163.355 250.8 162.843L249.714 163.829C249.272 163.229 249.695 162.679 249.828 162.167C250.049 161.327 250.529 160.885 250.971 160.184L251.236 157.929L251.893 157.512C252.336 157.227 251.634 156.204 252.462 155.433C252.746 155.168 253.094 155.048 253.643 155.25C254.288 153.923 253.687 152.755 255.039 152.306C255.286 151.156 255.374 149.817 256.214 149.053L271.635 147.909V147.903Z" fill="#BCAC60" stroke="#101727" stroke-width="0.5" stroke-linejoin="round"/>
<path d="M269.859 83.9591C270.485 85.3047 271.382 86.0944 272.892 85.848C273.997 85.6711 274.736 84.7109 275.583 84.4329C277.623 83.8075 279.803 83.6559 281.982 83.6749L288.609 83.7191L292.185 108.66C291.881 108.906 291.591 109.108 291.509 109.291C291.294 109.759 292.001 110.429 291.477 111.029C291.319 111.206 290.94 111.395 290.624 111.37C289.822 111.307 289.468 111.597 288.786 111.983C288.438 112.178 287.44 111.938 287.295 112.608L286.644 115.596C284.484 116.196 285.728 117.725 284.926 118.729C284.25 118.654 283.795 118.761 283.233 119.007C282.115 118.641 281.635 117.194 280.675 117.864C279.853 118.439 281.186 119.203 279.891 120.366C278.855 121.301 277.693 119.867 276.505 121.098C274.938 120.606 273.239 120.448 271.622 120.852C270.832 121.048 270.358 121.345 270.264 122.28C269.43 120.94 270.864 119.721 270.339 118.913C269.821 118.104 270.668 117.757 271.325 115.861L272.222 113.29C273.119 110.7 271.691 111.262 271.477 110.037C271.388 109.557 271.691 109.184 271.818 108.729C272.235 107.232 271.881 105.792 271.736 104.244L269.859 83.9465V83.9591Z" fill="#A99E53" stroke="#101727" stroke-width="0.5" stroke-linejoin="round"/>
<path d="M343.577 147.782C342.888 148.458 342.256 149.071 341.776 150.012L339.767 153.973C339.597 154.308 339.287 154.586 339.047 154.674C338.712 154.801 338.295 154.649 337.923 154.485C337.417 155.268 337.79 156.045 338.137 156.98C337.702 156.98 337.196 156.885 336.842 157.094C336.028 157.586 336.179 159.57 334.878 159.854C333.501 158.161 333.286 161.731 332.382 161.636C332.174 161.611 332.01 161.522 331.738 161.352C331.523 162.198 330.879 162.444 330.184 162.805C329.843 162.981 330.494 164.453 329.843 164.472C329.66 164.472 329.483 164.295 329.129 164.213C329.236 165.698 329.375 166.93 328.491 166.999C326.842 166.658 325.276 164.119 323.936 162.482C323.481 160.657 322.382 159.178 320.904 158.067L316.652 154.87L313.683 152.223L311.504 149.147C310.891 148.281 309.981 147.706 308.825 147.801C307.259 146.184 307.473 144.8 308.699 143.038L310.417 141.863C313.702 140.126 317.48 139.399 321.169 139.98C322.66 140.214 323.905 140.877 324.789 142.002C324.745 141.256 324.682 140.606 325.168 140.056C327.67 137.239 340.09 145.344 343.564 147.776L343.577 147.782Z" fill="#849465" stroke="#101727" stroke-width="0.5" stroke-linejoin="round"/>
<path d="M377.708 52.5309C375.213 52.095 376.578 50.6736 374.739 49.9408L370.469 36.4471C371.423 35.8659 370.993 34.7225 372.339 33.4274C372.68 31.7976 371.928 30.5657 373.394 28.7526C372.535 23.1871 372.585 16.3708 375.996 11.8413C376.641 12.8015 377.171 13.6291 378.113 14.0903C379.155 14.2798 380.046 13.648 380.64 12.7889C382.333 12.1256 384.057 12.8963 385.011 14.4377C385.687 15.5243 386.085 16.6993 386.382 17.9691L387.816 24.1726C388.113 25.4677 388.644 26.908 389.755 27.6661L391.328 28.0704C391.935 28.6705 392.503 29.0622 393.299 29.397C393.407 31.3427 394.418 30.97 394.519 31.3554C394.67 31.9176 394.26 32.4293 394.443 32.8083C394.512 32.9473 394.992 33.0042 395.011 33.1621C395.119 34.0402 394.196 34.634 393.413 34.8488C390.09 35.7522 388.751 37.8622 386.982 38.197C385.921 38.3991 385.131 38.4749 384.556 39.492L383.065 42.1389L379.957 46.4726L379.022 49.1953C378.631 50.3451 377.917 51.3179 377.702 52.5182L377.708 52.5309Z" fill="#849465" stroke="#101727" stroke-width="0.5" stroke-linejoin="round"/>
<path d="M267.043 53.2557C265.735 54.2348 265.742 52.3712 264.162 52.8766C264.03 51.5753 265.059 49.9644 264.497 49.7685L262.337 49.0168L261.875 48.0186L259.102 47.7028L251.831 45.9024C250.435 45.5549 248.363 44.6831 248.199 43.7608C248.123 43.3312 248.18 42.769 248.464 42.4973L249.418 41.5877C251.161 41.2718 252.621 40.4063 253.973 39.2692L258.774 35.2135C259.759 34.3797 261.054 34.0764 262.292 34.386C261.042 35.8642 259.841 37.1782 259.203 39.0607C260.05 39.0544 260.498 38.4101 261.143 37.8794C261.585 38.1574 261.572 38.6185 261.458 39.2755C262.027 39.0481 262.393 38.9091 262.937 39.1997C262.949 39.5345 262.867 39.8694 263.038 40.1726C263.512 39.9957 263.682 39.8251 264.068 39.5156C264.434 40.0462 264.984 39.9073 265.413 40.1157L267.612 41.1897C268.319 41.5308 268.938 41.9035 269.481 42.5605L273.038 40.1726C275.028 38.8396 278.73 37.4625 280.366 38.9281C280.606 39.7304 280.72 40.4821 281.876 40.5769L283.86 40.7348C285.098 40.8359 285.913 41.7961 286.317 42.8132C286.424 43.0785 287.107 43.407 286.778 43.7608C286.146 44.4367 285.009 44.3041 284.15 44.5631C283.935 44.7716 284.043 45.378 284.182 45.7381C283.493 45.9655 282.994 45.656 282.369 45.3148C281.213 44.6831 279.709 44.1019 278.458 44.6894L276.595 45.5739C275.047 46.3067 273.853 47.5259 272.488 48.5303C272.173 48.7641 271.907 49.0231 271.452 48.9346L271.882 46.8247C271.023 47.2037 270.934 48.0565 270.404 48.6314C270.05 49.0168 269.475 48.8273 269.222 48.3282C267.801 48.9473 268.022 51.531 267.043 53.2493V53.2557Z" fill="#B7AB65" stroke="#101727" stroke-width="0.5" stroke-linejoin="round"/>
<path d="M377.696 52.5303C378.593 52.6883 378.568 55.4552 377.33 56.1375C376.868 56.3902 376.553 56.744 376.091 57.1735L374.139 59.0055L366.584 60.9134C366.078 61.0397 365.939 60.8123 365.668 60.7744C365.838 60.0163 365.674 59.353 365.27 58.6897C364.442 57.3441 365.516 56.1628 365.061 55.4679C364.657 54.8425 365.061 54.375 365.042 53.8001C365.036 53.4211 364.348 52.9536 364.746 52.3219C365.106 51.747 364.941 51.0647 364.796 50.3951L365.093 48.601L364.651 46.9396C364.215 45.316 366.603 45.335 366.679 42.7954C366.394 42.05 366.407 41.3488 366.786 40.6286C366.344 40.0916 366.217 39.542 366.312 38.9735C367.051 38.8155 367.235 38.2659 367.456 37.6026C367.67 36.9519 368.965 37.3626 370.469 36.4529L374.739 49.9466C376.578 50.6794 375.213 52.1008 377.709 52.5367L377.696 52.5303Z" fill="#BCAC60" stroke="#101727" stroke-width="0.5" stroke-linejoin="round"/>
<path d="M366.316 38.9804C366.221 39.549 366.348 40.0986 366.79 40.6356C366.411 41.3557 366.398 42.057 366.683 42.8024C366.6 45.3483 364.219 45.3293 364.655 46.9465L365.097 48.608L364.8 50.4021C364.945 51.0654 365.11 51.754 364.75 52.3288C364.352 52.9606 365.04 53.428 365.046 53.8071C365.059 54.382 364.661 54.8494 365.065 55.4748C365.514 56.1697 364.446 57.3511 365.274 58.6966C365.678 59.36 365.842 60.017 365.672 60.7813C364.415 60.6108 362.772 61.5457 361.237 61.5331L361.035 59.1452C360.852 57.0099 359.734 55.2158 358.799 53.3838L358.603 50.4652C358.287 49.3913 358.198 48.2858 358.59 47.1992C358.925 46.2706 358.786 45.7589 358.382 44.8681L357.876 42.695C357.731 42.0633 357.857 41.4189 357.535 40.8693L366.316 38.9741V38.9804Z" fill="#A99E53" stroke="#101727" stroke-width="0.5" stroke-linejoin="round"/>
<path d="M361.577 80.7689C361.281 81.0089 361.236 81.5333 361.104 81.906C360.832 81.7796 360.661 81.6912 360.548 81.6975C360.402 81.7101 360.32 82.045 360.396 82.1271C360.8 82.5503 362.354 83.0999 361.672 84.6856C361.116 85.9743 362.298 88.0464 361.502 89.7773C361.123 90.6112 360.693 91.2492 360.763 92.2094C360.838 93.2644 360.327 94.1299 359.771 94.9575L359.076 96.9727C358.937 97.3833 358.57 97.617 358.198 97.6044C357.85 97.5918 357.402 97.3201 357.376 96.9158L357.244 94.9891C356.65 95.5008 355.955 95.4376 355.601 94.9006C355.374 94.5532 355.077 94.5911 354.824 94.4837C354.42 94.3068 354.054 93.8393 353.681 93.4413C353.63 93.3087 353.921 93.0307 354.06 92.9865C353.769 92.5759 353.851 92.1463 353.668 91.7167L353.384 91.0281C353.314 90.8576 353.542 90.6428 353.694 90.4975L355.601 88.5833C355.867 88.318 356.126 87.541 356.157 87.143L355.614 85.052C355.235 84.5213 354.793 84.275 354.489 83.5611C354.344 83.22 353.637 82.9799 353.611 82.3482L353.504 79.4865L354.597 77.2944C354.73 76.65 354.894 76.271 355.203 75.8098C355.551 76.1446 356.107 75.9804 356.549 76.1257L360.245 77.3702C361.167 77.6797 361.243 79.019 361.009 79.8086C360.857 80.3077 361.217 80.7499 361.577 80.7626V80.7689Z" fill="#849465" stroke="#101727" stroke-width="0.5" stroke-linejoin="round"/>
<path d="M377.338 56.1445C377.439 57.8312 379.151 57.547 378.81 58.1345C378.557 58.5704 377.66 58.5072 377.369 60.1055C377.035 61.9438 379.195 60.6298 379.58 62.386C379.719 63.0177 380.168 63.3652 380.736 63.5926C381.242 63.7947 381.318 64.5149 381.728 64.7613L382.745 65.3804C383.093 65.9047 382.783 66.4417 382.43 66.8397C382.208 67.0924 381.722 67.5156 381.273 67.2313C380.768 66.9092 380.692 66.2269 380.32 65.7531C379.024 66.8586 378.974 67.7557 378.69 68.0779C377.357 67.1303 376.428 65.8542 375.771 64.338L372.947 64.8055L361.172 67.4019C361.267 65.4688 361.576 63.4599 361.235 61.5332C362.77 61.5458 364.413 60.6172 365.67 60.7814C365.948 60.8193 366.087 61.0467 366.586 60.9204L374.141 59.0126L376.093 57.1806C376.554 56.751 376.87 56.3972 377.331 56.1445H377.338Z" fill="#A99E53" stroke="#101727" stroke-width="0.5" stroke-linejoin="round"/>
<path d="M372.949 64.812L374.219 70.4849C374.256 70.6492 374.345 70.7566 374.452 70.8134C374.111 71.2683 373.682 71.3504 373.012 71.3883C372.216 71.4325 371.591 72.4433 370.908 72.6454C369.575 73.0497 368.287 73.195 367.055 73.9215L365.791 74.667C365.261 74.9828 364.698 75.185 364.616 76.0189L363.075 76.7138L361.034 67.9959C360.965 67.7053 361.161 67.5537 361.173 67.4084L372.949 64.812Z" fill="#BCAC60" stroke="#101727" stroke-width="0.5" stroke-linejoin="round"/>
<path d="M357.906 99.6958C357.274 99.5505 356.466 99.8537 355.802 100.062C352.713 101.054 350.787 91.4833 350.243 91.3696L349.131 91.5781L339.99 91.9192C337.091 92.0266 334.305 92.3551 331.487 93.0058C328.063 93.8018 324.342 95.5706 325.151 99.1588C325.473 100.605 326.307 102.456 327.324 102.425C327.665 102.419 328.044 102.286 328.284 101.964L330.135 99.4684C331.651 97.4342 332.024 96.7646 334.298 96.9036C335.202 96.9604 335.89 96.8973 336.686 97.4784C338.657 98.9251 339.738 98.0659 340.136 99.2725C340.685 100.947 343.433 100.41 343.787 102.539C343.995 103.777 342.719 104.92 343.117 105.628C343.206 105.786 343.503 105.855 343.717 105.811C343.882 105.482 344.311 105.381 344.735 105.35L347.565 105.122C347.969 105.091 348.102 106.708 349.119 106.379C349.605 106.222 349.839 105.602 349.561 105.097L347.464 101.231C347.255 100.852 347.356 100.391 347.571 100.106C347.742 99.8853 348.266 99.6137 348.569 99.8916C349.814 101.016 349.858 104.244 351.576 104.718C352.208 104.889 352.258 103.739 352.423 103.486C353.756 103.492 352.972 105.64 354.147 107.239C354.419 107.611 355.348 107.592 355.695 107.485C355.809 106.525 355.72 105.514 356.459 104.914C357.344 104.194 358.393 103.448 358.708 102.261C358.961 101.319 358.443 100.34 357.9 99.6958H357.906Z" fill="#BCAC60" stroke="#101727" stroke-width="0.5" stroke-linejoin="round"/>
<path d="M356.84 98.0092C356.247 97.5228 355.394 97.1437 355.223 96.3667L354.825 94.4968C354.421 94.3199 354.054 93.8524 353.682 93.4544C353.631 93.3218 353.922 93.0438 354.061 92.9996C353.77 92.589 353.852 92.1594 353.669 91.7298L353.385 91.0412C353.315 90.8707 353.543 90.6559 353.694 90.5106C352.778 89.961 351.793 90.0052 350.858 90.6053C350.536 90.8138 350.176 90.8896 350.233 91.3887C350.776 91.5024 352.703 101.067 355.792 100.081C356.455 99.8665 357.27 99.5696 357.895 99.7149C357.94 98.9884 357.459 98.4514 356.834 98.0218L356.84 98.0092Z" fill="#7E9462" stroke="#101727" stroke-width="0.5" stroke-linejoin="round"/>
<path d="M378.692 68.0855C378.553 68.2435 378.831 68.673 378.319 68.7425C377.573 68.8373 377.668 67.239 376.765 67.656C375.861 68.0729 376.79 69.0584 376.556 69.8101C375.735 69.886 374.901 70.2081 374.453 70.8146C374.345 70.7577 374.257 70.6503 374.219 70.4861L372.949 64.8132L375.773 64.3457C376.436 65.8618 377.365 67.1379 378.692 68.0855Z" fill="#7E9462" stroke="#101727" stroke-width="0.5" stroke-linejoin="round"/>
<path d="M162.591 56.4159L161.284 75.134L160.064 92.4054L156.798 92.1906C146.533 91.3189 136.4 90.1059 126.197 88.754C126.172 88.9625 126.046 89.6069 125.793 89.569L112.723 87.718L114.188 78.0842L117.637 55.1019L118.035 51.8801L162.591 56.4033V56.4159Z" fill="#A99E53" stroke="#101727" stroke-width="0.5" stroke-linejoin="round"/>
<path d="M211.184 80.976L211.683 83.1492C212.062 83.7493 212.498 84.1915 211.999 84.9938L212.63 85.8403C212.441 86.5415 212.75 86.87 213.117 87.3501L213.395 89.637C213.711 90.2498 214.513 90.553 214.21 91.5132C214.045 92.0312 214.349 92.6251 214.715 92.9788C215.201 93.4463 214.892 94.2297 214.968 94.7098L215.321 96.9777C215.669 97.7673 216.433 98.1779 216.585 99.075C216.73 99.9531 216.749 101.318 217.507 101.981C218.461 102.821 219.314 103.541 219.333 104.836L203.142 104.969L173.804 103.63C173.507 103.617 173.198 103.63 172.775 103.484L173.204 94.0022C168.763 94.217 164.499 93.9896 160.052 93.6864C159.944 93.1747 160.033 92.7893 160.064 92.3976L161.284 75.1262L178.82 76.2002L197.115 76.8635C198.176 76.9014 199.238 76.7371 200.072 77.5078C201.626 78.9419 203.3 77.8553 205.283 78.3164L208.132 78.9798C208.884 79.1566 209.51 80.439 210.609 80.1548L211.184 80.9697V80.976Z" fill="#BCAC60" stroke="#101727" stroke-width="0.5" stroke-linejoin="round"/>
<path d="M219.345 104.838C219.357 105.881 221.158 105.426 221.467 105.956C221.992 106.866 220.33 108.61 221.328 110.037L223.097 111.711C223.388 111.989 223.893 112.198 223.918 112.773L224.62 131.845C207.228 131.946 189.868 131.541 172.527 130.663L173.816 103.644L203.153 104.984L219.345 104.851V104.838Z" fill="#A99E53" stroke="#101727" stroke-width="0.5" stroke-linejoin="round"/>
<path d="M172.522 130.658C189.863 131.536 207.223 131.94 224.614 131.839C224.709 131.934 224.86 132.073 224.867 132.294L225.037 136.931L225.928 161.96L224.873 161.183C224.14 161.271 223.786 160.785 223.262 160.601C222.649 160.387 222.062 160.38 221.538 159.976C220.704 159.332 219.851 159.654 219.074 160.09C218.423 159.944 217.633 159.565 216.844 159.824C215.41 160.292 213.932 160.273 212.453 160.406C211.588 160.481 210.918 160.545 210.166 160.052C209.617 159.698 208.909 160.286 208.391 160.26C207.519 160.21 206.502 159.616 205.662 160.096C205.169 160.374 204.79 160.759 204.178 160.665C203.375 160.545 202.952 159.37 202.497 159.313C202.011 159.25 201.019 160.81 200.596 160.191L199.212 158.188C196.951 158.7 196.073 157.626 195.927 157.601L192.118 157.02C191.568 156.937 191.556 154.613 189.724 155.074C188.871 155.289 188.391 154.48 187.184 154.739L185.933 153.198L185.074 152.907L185.586 135.307L181.492 135.187L167.038 134.682C166.274 134.656 165.649 134.631 164.973 134.524L165.219 129.874L167.051 130.102L172.528 130.658H172.522Z" fill="#BCAC60" stroke="#101727" stroke-width="0.5" stroke-linejoin="round"/>
<path d="M256.208 149.047C255.368 149.812 255.28 151.151 255.033 152.301C253.682 152.749 254.288 153.918 253.637 155.245C253.088 155.042 252.74 155.162 252.456 155.428C251.628 156.199 252.33 157.222 251.887 157.506L251.23 157.923L250.965 160.178C250.523 160.88 250.043 161.322 249.822 162.162C249.689 162.667 249.259 163.223 249.708 163.823L250.795 162.838C251.704 163.35 250.529 164.007 250.226 165.03C250.618 165.207 250.99 165.251 251.319 165.561C250.927 166.249 250.712 166.887 250.807 167.532L229.335 168.359L229.082 161.714L226.985 162.566C226.7 162.68 226.378 162.8 226.138 162.528C226.025 162.402 225.936 162.187 225.93 161.973L225.039 136.943L227.718 136.912L256.6 135.345C257.706 136.925 255.621 138.055 256.057 139.799C257.396 139.9 258.647 139.799 260.15 139.609C259.948 141.366 258.142 142.629 258.299 143.507C258.457 144.366 257.996 144.733 257.605 145.364C257.156 146.091 258.306 148.062 256.891 148.51C256.537 148.624 256.417 148.877 256.215 149.054L256.208 149.047Z" fill="#A99E53" stroke="#101727" stroke-width="0.5" stroke-linejoin="round"/>
<path d="M244.566 99.4682L244.534 99.8156C244.401 99.8598 244.401 100.037 244.566 100.024C244.875 100.713 244.762 101.433 244.642 102.216C244.534 102.911 244.97 103.587 245.084 104.219C245.374 105.849 246.278 107.017 247.693 107.826L248.931 109.254C251.616 110.283 249.834 113.031 252.02 113.613C252.368 113.417 252.784 112.823 253.227 112.873C253.669 112.924 254.067 113.063 254.332 113.537C254.876 114.51 254.793 115.634 254.282 116.626L253.865 118.205C253.751 118.628 253.454 119.266 253.89 119.608C254.686 120.227 255.381 120.871 255.994 121.68C257.03 123.051 258.533 121.945 258.565 122.918C258.615 124.472 260.397 124.377 259.98 127.233C259.784 128.572 261.054 129.974 262.292 130.429C262.848 131.471 262.728 132.855 262.602 133.935C262.115 133.992 261.704 133.872 261.357 134.08C261.092 134.238 260.991 134.756 260.946 135.009L271.661 134.725L271.825 132.495L284.017 131.876L299.81 130.151L313.405 128.344C313.475 129.248 313.955 130.416 313.386 131.225C312.622 132.312 311.352 132.994 310.253 133.701C310.006 133.234 310.164 132.95 310.152 132.514C308.977 133.866 309.027 135.256 306.753 136.399L302.647 138.471C300.132 139.741 299.141 141.825 299.501 144.605L290.157 146.191L271.648 147.909L256.227 149.052C256.423 148.869 256.55 148.617 256.903 148.509C258.318 148.067 257.169 146.09 257.617 145.363C258.009 144.731 258.47 144.365 258.312 143.506C258.154 142.634 259.961 141.364 260.163 139.608C258.66 139.798 257.409 139.899 256.069 139.798C255.634 138.054 257.718 136.917 256.613 135.344L227.73 136.911L225.052 136.942L224.881 132.305C224.875 132.084 224.723 131.945 224.628 131.85L223.927 112.779C223.908 112.204 223.403 111.995 223.106 111.717L221.337 110.043C220.339 108.616 222 106.878 221.476 105.962C221.167 105.432 219.372 105.887 219.353 104.844C219.335 103.549 218.482 102.829 217.528 101.989C216.77 101.325 216.751 99.9609 216.605 99.0828L243.056 98.1794C243.549 98.8049 244.016 99.1839 244.585 99.4745L244.566 99.4682Z" fill="#B7AB65" stroke="#101727" stroke-width="0.5" stroke-linejoin="round"/>
<path d="M244.921 71.5015C245.142 73.0492 246.203 74.4895 245.748 75.0202C244.409 76.5616 246.026 76.9406 246.399 78.76C246.607 79.7708 248.326 79.0253 249.039 80.3204C249.204 80.5036 249.778 80.4151 249.968 80.3583L252.04 83.1189C253.278 84.7235 253.638 87.0546 252.413 88.7729C251.13 90.567 247.618 90.7881 247.315 93.3024C248.275 94.9007 248.054 96.9285 246.386 98.053L245.287 99.0953C245.047 99.3227 244.832 99.468 244.567 99.468C243.998 99.1774 243.537 98.7984 243.038 98.173L216.588 99.0764C216.442 98.1793 215.672 97.7687 215.324 96.979L214.97 94.7111C214.895 94.2373 215.21 93.4477 214.718 92.9802C214.351 92.6264 214.048 92.0389 214.212 91.5146C214.515 90.548 213.713 90.2448 213.397 89.6384L213.119 87.3515C212.753 86.8714 212.443 86.5429 212.633 85.8417L212.001 84.9952C212.5 84.1929 212.064 83.7507 211.685 83.1505L211.186 80.9774C211.452 80.7057 211.212 80.3583 211.237 79.9919L211.338 78.2546C211.098 77.3765 211.079 76.6121 211.496 75.8162C211.73 75.374 211.186 74.9949 211.085 74.698C210.902 74.1484 211.243 73.5862 211.256 73.1124L212.728 73.1313V72.3038L233.853 72.089L244.927 71.5078L244.921 71.5015Z" fill="#A99E53" stroke="#101727" stroke-width="0.5" stroke-linejoin="round"/>
<path d="M244.573 100.018C244.408 100.03 244.408 99.8526 244.542 99.8081C244.548 99.8653 244.542 99.9605 244.573 100.018Z" fill="#F7BE46" stroke="#101727" stroke-width="0.5" stroke-linejoin="round"/>
<path d="M210.417 49.7706L211.112 49.7516L210.594 51.3309C209.912 53.4093 211.087 54.6791 212.578 56.2521L212.716 72.3043V73.1319L211.251 73.1129C211.238 73.5867 210.903 74.1489 211.08 74.6985C211.175 74.9891 211.725 75.3682 211.491 75.8167C211.074 76.6127 211.093 77.3771 211.333 78.2552L211.232 79.9924C211.213 80.3588 211.447 80.7063 211.181 80.9779L210.607 80.163C209.501 80.4473 208.882 79.1585 208.13 78.988L205.281 78.3246C203.297 77.8635 201.623 78.9501 200.069 77.516C199.235 76.7453 198.168 76.9096 197.113 76.8717L178.818 76.2084L161.281 75.1344L162.589 56.4163L163.164 47.907L194.599 49.5368L210.411 49.7769L210.417 49.7706Z" fill="#B7AB65" stroke="#101727" stroke-width="0.5" stroke-linejoin="round"/>
<path opacity="0.25" d="M71.2069 65.5251C86.1919 65.5251 98.3396 53.3774 98.3396 38.3925C98.3396 23.4075 86.1919 11.2598 71.2069 11.2598C56.2219 11.2598 44.0742 23.4075 44.0742 38.3925C44.0742 53.3774 56.2219 65.5251 71.2069 65.5251Z" fill="#E9BE51" stroke="white" stroke-width="0.5" stroke-miterlimit="10"/>
<path opacity="0.5" d="M73.5347 59.7776C59.8515 61.2242 48.3667 49.7457 49.8197 36.0625C50.8746 26.0876 58.8913 18.0709 68.8662 17.016C82.5558 15.563 94.0343 27.0478 92.5876 40.7373C91.5326 50.7123 83.5097 58.7289 73.541 59.7839L73.5347 59.7776Z" fill="#E9BE51" stroke="white" stroke-width="0.5" stroke-miterlimit="10"/>
<path opacity="0.75" d="M72.8202 54.1915C62.7884 55.1959 54.3991 46.8003 55.3972 36.7685C56.1363 29.3457 62.1441 23.3379 69.5669 22.5988C79.5987 21.5944 87.9943 29.99 86.9899 40.0219C86.2445 47.4446 80.243 53.4524 72.8202 54.1915Z" fill="#E9BE51" stroke="white" stroke-width="0.5" stroke-miterlimit="10"/>
<path d="M72.5333 48.5593C65.837 49.4122 60.183 43.7519 61.0296 37.0556C61.6108 32.4882 65.2937 28.8052 69.8611 28.224C76.5574 27.3712 82.2177 33.0315 81.3649 39.7278C80.7837 44.2952 77.1007 47.9781 72.5333 48.5593Z" fill="#E9BE51" stroke="white" stroke-width="0.5" stroke-miterlimit="10"/>
<path d="M71.185 3.28198C64.6719 3.28198 59.3906 8.56322 59.3906 15.0763C59.3906 26.4348 71.185 38.3997 71.185 38.3997C71.185 38.3997 82.9793 26.3274 82.9793 15.0763C82.9793 8.56322 77.6981 3.28198 71.185 3.28198Z" fill="#01654D" stroke="#101727" stroke-width="0.5" stroke-miterlimit="10"/>
<path d="M83.0257 16.3225V16.3415H83.0194C83.0194 16.373 83.0257 16.4046 83.0257 16.4425C83.0257 18.4135 77.7255 20.0118 71.1809 20.0118C67.7443 20.0118 64.6488 19.5696 62.4883 18.8684C63.8528 21.1426 67.7442 23.1009 72.5138 23.6695C78.6921 24.4086 83.9986 22.5198 84.365 19.4559C84.4913 18.3819 83.9923 17.3017 83.0257 16.3288V16.3225Z" fill="#E9BE51" stroke="#101727" stroke-width="0.5" stroke-miterlimit="10"/>
<path d="M71.1925 0.256317C64.6542 0.256317 59.3477 5.55651 59.3477 12.1012V16.4475C59.3477 17.3824 60.5416 18.2353 62.4937 18.867C64.6542 19.5745 67.7496 20.0104 71.1862 20.0104C77.7246 20.0104 83.0311 18.4122 83.0311 16.4412V12.0949C83.0311 5.55651 77.7309 0.25 71.1862 0.25L71.1925 0.256317Z" fill="#E9BE51" stroke="#101727" stroke-width="0.5" stroke-miterlimit="10"/>
<path d="M69.2106 0.420898C76.3049 0.420898 82.0537 5.8348 82.0537 13.0618V14.8748C82.0537 14.9443 82.0094 15.0075 81.94 15.0328L79.8742 15.7087C79.7668 15.7466 79.6594 15.6645 79.6594 15.5508V14.1799C79.6594 6.95296 73.9107 1.09053 66.8164 1.09053" stroke="#101727" stroke-width="0.5" stroke-miterlimit="10"/>
<path d="M82.0391 17.7561H82.0519" stroke="#101727" stroke-width="0.5" stroke-miterlimit="10"/>
<path opacity="0.25" d="M97.7542 148.043C118.635 148.043 135.563 131.116 135.563 110.234C135.563 89.3531 118.635 72.4255 97.7542 72.4255C76.8729 72.4255 59.9453 89.3531 59.9453 110.234C59.9453 131.116 76.8729 148.043 97.7542 148.043Z" fill="#E9BE51" stroke="white" stroke-width="0.5" stroke-miterlimit="10"/>
<path opacity="0.5" d="M101.008 140.03C81.9357 142.052 65.9404 126.056 67.9619 106.984C69.4338 93.0864 80.6028 81.9175 94.5008 80.4456C113.573 78.424 129.574 94.4194 127.553 113.491C126.081 127.389 114.906 138.558 101.014 140.03H101.008Z" fill="#E9BE51" stroke="white" stroke-width="0.5" stroke-miterlimit="10"/>
<path opacity="0.75" d="M100.027 132.25C86.0535 133.647 74.3539 121.947 75.75 107.973C76.7861 97.6255 85.1501 89.2614 95.4915 88.2254C109.465 86.8293 121.171 98.5289 119.769 112.503C118.733 122.85 110.369 131.214 100.021 132.244L100.027 132.25Z" fill="#E9BE51" stroke="white" stroke-width="0.5" stroke-miterlimit="10"/>
<path d="M99.6251 124.403C90.2945 125.585 82.4169 117.707 83.5982 108.376C84.4068 102.015 89.5428 96.8789 95.8979 96.0703C105.229 94.8826 113.112 102.767 111.925 112.097C111.116 118.459 105.98 123.595 99.6188 124.397L99.6251 124.403Z" fill="#E9BE51" stroke="white" stroke-width="0.5" stroke-miterlimit="10"/>
<path d="M97.7514 75.4695C91.2383 75.4695 85.957 80.7507 85.957 87.2638C85.957 98.6223 97.7514 110.587 97.7514 110.587C97.7514 110.587 109.546 98.5149 109.546 87.2638C109.546 80.7507 104.264 75.4695 97.7514 75.4695Z" fill="#01654D" stroke="#101727" stroke-width="0.5" stroke-miterlimit="10"/>
<path d="M109.592 88.5144V88.5334H109.586C109.586 88.5649 109.592 88.5965 109.592 88.6344C109.592 90.6054 104.292 92.2037 97.7473 92.2037C94.3107 92.2037 91.2152 91.7615 89.0547 91.0603C90.4192 93.3345 94.3107 95.2928 99.0802 95.8614C105.258 96.6005 110.565 94.7116 110.931 91.6478C111.058 90.5738 110.559 89.4936 109.592 88.5207V88.5144Z" fill="#E9BE51" stroke="#101727" stroke-width="0.5" stroke-miterlimit="10"/>
<path d="M97.7472 72.4438C91.2089 72.4438 85.9023 77.744 85.9023 84.2887V88.635C85.9023 89.5699 87.0963 90.4228 89.0484 91.0545C91.2089 91.762 94.3043 92.1979 97.7409 92.1979C104.279 92.1979 109.586 90.5996 109.586 88.6287V84.2824C109.586 77.744 104.286 72.4375 97.7409 72.4375L97.7472 72.4438Z" fill="#E9BE51" stroke="#101727" stroke-width="0.5" stroke-miterlimit="10"/>
<path d="M95.7732 72.6067C102.867 72.6067 108.616 78.0206 108.616 85.2476V87.0606C108.616 87.1301 108.572 87.1933 108.502 87.2185L106.437 87.8945C106.329 87.9324 106.222 87.8503 106.222 87.7366V86.3657C106.222 79.1387 100.473 73.2763 93.3789 73.2763" stroke="#101727" stroke-width="0.5" stroke-miterlimit="10"/>
<path d="M108.609 89.9436H108.622" stroke="#101727" stroke-width="0.5" stroke-miterlimit="10"/>
<path opacity="0.25" d="M195.8 190.747C208.262 190.747 218.365 180.644 218.365 168.182C218.365 155.72 208.262 145.617 195.8 145.617C183.337 145.617 173.234 155.72 173.234 168.182C173.234 180.644 183.337 190.747 195.8 190.747Z" fill="#E9BE51" stroke="white" stroke-width="0.5" stroke-miterlimit="10"/>
<path opacity="0.5" d="M197.728 185.965C186.344 187.171 176.799 177.619 178.006 166.242C178.884 157.947 185.548 151.283 193.843 150.398C205.227 149.192 214.778 158.743 213.572 170.127C212.694 178.422 206.023 185.086 197.728 185.965Z" fill="#E9BE51" stroke="white" stroke-width="0.5" stroke-miterlimit="10"/>
<path opacity="0.75" d="M197.142 181.315C188.803 182.149 181.816 175.169 182.65 166.824C183.269 160.652 188.259 155.655 194.438 155.036C202.783 154.202 209.763 161.182 208.93 169.527C208.31 175.699 203.32 180.696 197.142 181.315Z" fill="#E9BE51" stroke="white" stroke-width="0.5" stroke-miterlimit="10"/>
<path d="M196.893 176.634C191.321 177.342 186.621 172.636 187.329 167.07C187.809 163.273 190.873 160.209 194.669 159.723C200.241 159.015 204.947 163.722 204.24 169.294C203.76 173.09 200.69 176.154 196.893 176.634Z" fill="#E9BE51" stroke="white" stroke-width="0.5" stroke-miterlimit="10"/>
<path d="M195.721 133C189.063 133 183.668 138.395 183.668 145.054C183.668 156.665 195.721 168.889 195.721 168.889C195.721 168.889 207.775 156.551 207.775 145.054C207.775 138.395 202.38 133 195.721 133Z" fill="#01654D" stroke="#101727" stroke-width="0.5" stroke-miterlimit="10"/>
<path d="M207.824 146.33V146.349H207.818C207.818 146.381 207.824 146.419 207.824 146.45C207.824 148.466 202.404 150.095 195.72 150.095C192.208 150.095 189.043 149.647 186.832 148.927C188.228 151.251 192.208 153.254 197.079 153.835C203.396 154.587 208.822 152.66 209.195 149.527C209.328 148.428 208.816 147.328 207.824 146.33Z" fill="#E9BE51" stroke="#101727" stroke-width="0.5" stroke-miterlimit="10"/>
<path d="M195.721 129.912C189.037 129.912 183.617 135.332 183.617 142.016V146.457C183.617 147.411 184.836 148.283 186.833 148.933C189.044 149.654 192.209 150.102 195.721 150.102C202.405 150.102 207.825 148.472 207.825 146.457V142.016C207.825 135.332 202.405 129.912 195.721 129.912Z" fill="#E9BE51" stroke="#101727" stroke-width="0.5" stroke-miterlimit="10"/>
<path d="M193.699 130.077C200.951 130.077 206.826 135.611 206.826 142.995V144.853C206.826 144.929 206.782 144.992 206.712 145.011L204.602 145.706C204.495 145.743 204.381 145.661 204.381 145.548V144.145C204.381 136.754 198.506 130.765 191.254 130.765" stroke="#101727" stroke-width="0.5" stroke-miterlimit="10"/>
<path d="M206.816 147.79H206.824" stroke="#101727" stroke-width="0.5" stroke-miterlimit="10"/>
<path opacity="0.25" d="M183.023 80.6553C190.297 80.6553 196.195 74.7582 196.195 67.4838C196.195 60.2093 190.297 54.3123 183.023 54.3123C175.749 54.3123 169.852 60.2093 169.852 67.4838C169.852 74.7582 175.749 80.6553 183.023 80.6553Z" fill="#E9BE51" stroke="white" stroke-width="0.5" stroke-miterlimit="10"/>
<path opacity="0.5" d="M184.156 77.8657C177.516 78.5669 171.944 72.9951 172.646 66.3556C173.157 61.5166 177.049 57.6251 181.888 57.1134C188.534 56.4059 194.105 61.984 193.398 68.6235C192.886 73.4625 188.995 77.354 184.156 77.8657Z" fill="#E9BE51" stroke="white" stroke-width="0.5" stroke-miterlimit="10"/>
<path opacity="0.75" d="M183.818 75.1527C178.947 75.6392 174.879 71.5645 175.359 66.6939C175.719 63.0931 178.631 60.1745 182.238 59.8144C187.109 59.328 191.184 63.4026 190.697 68.2732C190.337 71.8741 187.425 74.7926 183.818 75.1527Z" fill="#E9BE51" stroke="white" stroke-width="0.5" stroke-miterlimit="10"/>
<path d="M183.672 72.4193C180.425 72.8299 177.677 70.0882 178.088 66.8348C178.372 64.6175 180.16 62.8297 182.371 62.5454C185.624 62.1285 188.366 64.8765 187.955 68.1299C187.671 70.3472 185.883 72.135 183.666 72.413L183.672 72.4193Z" fill="#E9BE51" stroke="white" stroke-width="0.5" stroke-miterlimit="10"/>
<path d="M183.017 32.375C176.504 32.375 171.223 37.6562 171.223 44.1693C171.223 55.5278 183.017 67.4927 183.017 67.4927C183.017 67.4927 194.811 55.4204 194.811 44.1693C194.811 37.6562 189.53 32.375 183.017 32.375Z" fill="#01654D" stroke="#101727" stroke-width="0.5" stroke-miterlimit="10"/>
<path d="M194.858 45.4175V45.4364H194.851C194.851 45.468 194.858 45.4996 194.858 45.5375C194.858 47.5085 189.558 49.1068 183.013 49.1068C179.576 49.1068 176.481 48.6646 174.32 47.9633C175.685 50.2376 179.576 52.1959 184.346 52.7645C190.524 53.5036 195.831 51.6147 196.197 48.5508C196.323 47.4769 195.824 46.3967 194.858 45.4238V45.4175Z" fill="#E9BE51" stroke="#101727" stroke-width="0.5" stroke-miterlimit="10"/>
<path d="M183.009 29.3493C176.471 29.3493 171.164 34.6495 171.164 41.1942V45.5405C171.164 46.4755 172.358 47.3283 174.31 47.96C176.471 48.6676 179.566 49.1034 183.003 49.1034C189.541 49.1034 194.848 47.5052 194.848 45.5342V41.1879C194.848 34.6495 189.547 29.343 183.003 29.343L183.009 29.3493Z" fill="#E9BE51" stroke="#101727" stroke-width="0.5" stroke-miterlimit="10"/>
<path d="M181.039 29.5139C188.133 29.5139 193.882 34.9278 193.882 42.1548V43.9678C193.882 44.0373 193.838 44.1005 193.768 44.1258L191.702 44.8017C191.595 44.8396 191.488 44.7575 191.488 44.6438V43.2729C191.488 36.046 185.739 30.1835 178.645 30.1835" stroke="#101727" stroke-width="0.5" stroke-miterlimit="10"/>
<path d="M193.859 46.8469H193.872" stroke="#101727" stroke-width="0.5" stroke-miterlimit="10"/>
<path opacity="0.25" d="M50.0793 219.542C57.5142 219.542 63.5414 213.515 63.5414 206.08C63.5414 198.645 57.5142 192.618 50.0793 192.618C42.6444 192.618 36.6172 198.645 36.6172 206.08C36.6172 213.515 42.6444 219.542 50.0793 219.542Z" fill="#E9BE51" stroke="white" stroke-width="0.5" stroke-miterlimit="10"/>
<path opacity="0.5" d="M51.2306 216.686C44.4396 217.406 38.7477 211.708 39.4679 204.923C39.9922 199.976 43.9658 195.997 48.9185 195.472C55.7096 194.752 61.4078 200.45 60.6876 207.241C60.1633 212.188 56.1834 216.168 51.237 216.692L51.2306 216.686Z" fill="#E9BE51" stroke="white" stroke-width="0.5" stroke-miterlimit="10"/>
<path opacity="0.75" d="M50.8819 213.919C45.9039 214.418 41.7408 210.249 42.2399 205.277C42.6063 201.594 45.588 198.612 49.271 198.246C54.249 197.747 58.4121 201.916 57.913 206.888C57.5466 210.571 54.5649 213.552 50.8819 213.919Z" fill="#E9BE51" stroke="white" stroke-width="0.5" stroke-miterlimit="10"/>
<path d="M50.7313 211.127C47.4084 211.55 44.6035 208.745 45.0268 205.422C45.3174 203.161 47.1431 201.329 49.4047 201.038C52.7275 200.615 55.5324 203.42 55.1092 206.743C54.8186 209.004 52.9929 210.836 50.725 211.121L50.7313 211.127Z" fill="#E9BE51" stroke="white" stroke-width="0.5" stroke-miterlimit="10"/>
<path d="M51.0842 169.729C44.4889 169.729 39.1445 175.074 39.1445 181.669C39.1445 193.167 51.0842 205.277 51.0842 205.277C51.0842 205.277 63.0238 193.059 63.0238 181.669C63.0238 175.074 57.6794 169.729 51.0842 169.729Z" fill="#01654D" stroke="#101727" stroke-width="0.5" stroke-miterlimit="10"/>
<path d="M63.0675 182.933V182.952H63.0612C63.0612 182.983 63.0675 183.021 63.0675 183.053C63.0675 185.049 57.6978 186.666 51.0773 186.666C47.5965 186.666 44.4694 186.218 42.2773 185.504C43.6608 187.803 47.6028 189.787 52.4229 190.362C58.677 191.107 64.053 189.2 64.4194 186.098C64.552 185.011 64.0403 183.918 63.0612 182.933H63.0675Z" fill="#E9BE51" stroke="#101727" stroke-width="0.5" stroke-miterlimit="10"/>
<path d="M51.0839 166.667C44.4634 166.667 39.0938 172.037 39.0938 178.657V183.054C39.0938 184.002 40.3067 184.861 42.284 185.505C44.4761 186.219 47.6031 186.668 51.0839 186.668C57.7044 186.668 63.0741 185.051 63.0741 183.054V178.657C63.0741 172.037 57.7044 166.667 51.0839 166.667Z" fill="#E9BE51" stroke="#101727" stroke-width="0.5" stroke-miterlimit="10"/>
<path d="M49.086 166.836C56.2687 166.836 62.0869 172.313 62.0869 179.635V181.473C62.0869 181.543 62.0427 181.612 61.9732 181.631L59.8822 182.32C59.7748 182.358 59.6611 182.276 59.6611 182.162V180.772C59.6611 173.457 53.8429 167.525 46.6602 167.525" stroke="#101727" stroke-width="0.5" stroke-miterlimit="10"/>
<path d="M62.0742 184.378H62.087" stroke="#101727" stroke-width="0.5" stroke-miterlimit="10"/>
<path opacity="0.25" d="M317.969 120.562C327.976 120.562 336.087 112.451 336.087 102.444C336.087 92.4381 327.976 84.3264 317.969 84.3264C307.963 84.3264 299.852 92.4381 299.852 102.444C299.852 112.451 307.963 120.562 317.969 120.562Z" fill="#E9BE51" stroke="white" stroke-width="0.5" stroke-miterlimit="10"/>
<path opacity="0.5" d="M319.525 116.721C310.384 117.687 302.721 110.024 303.688 100.883C304.395 94.2247 309.746 88.8677 316.405 88.1665C325.546 87.1999 333.215 94.8628 332.242 104.004C331.535 110.662 326.184 116.013 319.525 116.721Z" fill="#E9BE51" stroke="white" stroke-width="0.5" stroke-miterlimit="10"/>
<path opacity="0.75" d="M319.053 112.994C312.357 113.664 306.753 108.054 307.417 101.357C307.909 96.3984 311.921 92.3933 316.88 91.8942C323.576 91.2246 329.186 96.8343 328.516 103.531C328.017 108.49 324.012 112.495 319.053 112.994Z" fill="#E9BE51" stroke="white" stroke-width="0.5" stroke-miterlimit="10"/>
<path d="M318.864 109.23C314.391 109.799 310.613 106.021 311.182 101.549C311.567 98.5036 314.031 96.0399 317.076 95.6545C321.549 95.0859 325.326 98.8637 324.758 103.336C324.372 106.381 321.909 108.845 318.857 109.23H318.864Z" fill="#E9BE51" stroke="white" stroke-width="0.5" stroke-miterlimit="10"/>
<path d="M317.966 67.0049C311.453 67.0049 306.172 72.2861 306.172 78.7992C306.172 90.1577 317.966 102.123 317.966 102.123C317.966 102.123 329.761 90.0503 329.761 78.7992C329.761 72.2861 324.479 67.0049 317.966 67.0049Z" fill="#01654D" stroke="#101727" stroke-width="0.5" stroke-miterlimit="10"/>
<path d="M329.811 80.0498V80.0688H329.805C329.805 80.1003 329.811 80.1319 329.811 80.1698C329.811 82.1408 324.511 83.7391 317.966 83.7391C314.529 83.7391 311.434 83.2969 309.273 82.5957C310.638 84.8699 314.529 86.8282 319.299 87.3968C325.477 88.1359 330.784 86.2471 331.15 83.1832C331.276 82.1092 330.777 81.029 329.811 80.0561V80.0498Z" fill="#E9BE51" stroke="#101727" stroke-width="0.5" stroke-miterlimit="10"/>
<path d="M317.966 63.9795C311.428 63.9795 306.121 69.2797 306.121 75.8244V80.1706C306.121 81.1056 307.315 81.9584 309.267 82.5901C311.428 83.2977 314.523 83.7336 317.96 83.7336C324.498 83.7336 329.805 82.1353 329.805 80.1643V75.818C329.805 69.2797 324.504 63.9731 317.96 63.9731L317.966 63.9795Z" fill="#E9BE51" stroke="#101727" stroke-width="0.5" stroke-miterlimit="10"/>
<path d="M315.988 64.144C323.082 64.144 328.831 69.5579 328.831 76.7849V78.598C328.831 78.6675 328.787 78.7306 328.717 78.7559L326.652 79.4318C326.544 79.4697 326.437 79.3876 326.437 79.2739V77.9031C326.437 70.6761 320.688 64.8137 313.594 64.8137" stroke="#101727" stroke-width="0.5" stroke-miterlimit="10"/>
<path d="M328.828 81.4773H328.835" stroke="#101727" stroke-width="0.5" stroke-miterlimit="10"/>
</svg>
