<svg width="885" height="691" viewBox="0 0 885 691" fill="none" xmlns="http://www.w3.org/2000/svg">
<rect x="3.90625" width="881" height="691" fill="#D9D9D9"/>
<rect x="3.90625" width="881" height="691" fill="white"/>
<g clip-path="url(#clip0_2384_731)">
<path d="M797.355 575.286C796.467 574.586 795.937 573.523 795.937 572.382V570.737C795.937 563.858 790.641 557.995 783.842 557.751C776.7 557.491 770.827 563.268 770.827 570.43V572.382C770.827 573.515 770.298 574.586 769.41 575.286C766.52 577.553 764.636 581.071 764.55 585.03C764.394 592.16 770.36 597.992 777.416 597.992H782.339V608.255H784.425V597.992H789.348C796.405 597.992 802.363 592.152 802.215 585.03C802.129 581.063 800.244 577.553 797.355 575.286Z" fill="#E1ECE9"/>
<path d="M684.775 564.984C683.6 564.068 682.9 562.679 682.9 561.187V559.036C682.9 550.042 675.895 542.375 666.902 542.056C657.456 541.716 649.689 549.27 649.689 558.634V561.187C649.689 562.668 648.989 564.068 647.815 564.984C643.993 567.948 641.5 572.548 641.387 577.724C641.181 587.047 649.071 594.673 658.404 594.673H665.191V608.092H667.398V594.673H674.185C683.518 594.673 691.398 587.037 691.203 577.724C691.089 572.537 688.596 567.948 684.775 564.984Z" fill="#E1ECE9"/>
<path d="M749.61 574.103C749.084 573.815 748.744 573.28 748.713 572.683C748.209 563.328 746.478 552.605 737.578 552.605C728.678 552.605 726.947 563.318 726.442 572.673C726.411 573.269 726.072 573.804 725.546 574.093C721.621 576.243 719.005 580.473 719.18 585.299C719.427 591.937 725.083 597.093 731.737 597.093H736.474V608.659H738.681V597.093H743.419C750.063 597.093 755.728 591.937 755.976 585.299C756.151 580.473 753.534 576.243 749.61 574.093V574.103Z" fill="#E1ECE9"/>
<path d="M706.113 590.746C705.855 590.601 705.68 590.334 705.67 590.035C705.423 585.353 704.547 580.002 700.107 580.002C695.667 580.002 694.792 585.363 694.545 590.035C694.524 590.334 694.359 590.601 694.102 590.746C692.144 591.826 690.826 593.936 690.919 596.354C691.042 599.668 693.875 602.251 697.192 602.251H699.138V608.034H701.097V602.251H703.043C706.37 602.251 709.193 599.668 709.316 596.354C709.409 593.936 708.09 591.826 706.133 590.746H706.113Z" fill="#E1ECE9"/>
<path d="M592.188 541.024L557.731 506.602L523.274 541.024H489.445V608.1H626.006V541.024H592.188Z" fill="#E1ECE9"/>
<path d="M9.4187 407.266H26.2918V282.263H40.7544V235.584H53.5483V210.454H64.8177V167.336H69.6077V210.454H79.6821V216.145H88.5822V235.584H101.376V256.701H113.614V282.263H129.745V422.27H146.979V521.185H158.094V480.454H175.873V494.326H190.181V451.866H200.596V469.196H208.394V480.022H222.712V448.398H246.559V410.281H296.859V425.007H309.437V399.877H310.735V425.007H321.582V455.766H327.216V519.878H333.284V441.905H336.755V412.874H338.496V441.905H341.957V454.902H346.727V519.878H389.229V482.193H403.104V498.216H410.912V545.872H425.653V463.567H444.298V486.093H459.049V496.055H472.925V501.684H500.676V608.101H9.4187V407.266Z" fill="#E1ECE9"/>
</g>
<g clip-path="url(#clip1_2384_731)">
<path d="M248.779 336.982L251.065 559.171L173.009 559.3L173.446 379.859L147.367 336.982H248.779Z" fill="#01654D"/>
<path d="M147.37 336.982H104.588L47.2773 559.171L125.333 559.3L181.111 379.859L223.037 336.982H147.37Z" fill="#01654D"/>
<path d="M182.301 564.779L183.568 608.417H276.897C276.897 608.417 290.142 579.068 244.303 579.068C243.242 570.113 245.014 564.223 245.014 564.223L182.301 564.779Z" fill="#EAE2CF"/>
<path d="M182.301 564.779L183.568 608.417H276.897C276.897 608.417 290.142 579.068 244.303 579.068C243.131 571.851 245.014 564.223 245.014 564.223L182.301 564.779Z" stroke="#111727" stroke-miterlimit="10"/>
<path d="M120.104 564.838L112.399 608.416H19.0695C19.0695 608.416 5.82481 579.067 51.6633 579.067C53.2729 570.651 54.9252 564.256 54.9252 564.256L120.104 564.838Z" fill="#EAE2CF" stroke="#111727" stroke-miterlimit="10"/>
<path d="M169.886 570.644H255.612L258.429 546.611H167.086L169.894 570.644H169.886Z" fill="#01654D"/>
<path d="M128.456 570.644H42.7379L39.9297 546.611H131.273L128.456 570.644Z" fill="#01654D"/>
<path d="M258.421 546.611H167.078" stroke="#111727" stroke-miterlimit="10"/>
<path d="M255.613 570.645H169.887" stroke="#111727" stroke-miterlimit="10"/>
<path d="M131.273 546.611H39.9297" stroke="#111727" stroke-miterlimit="10"/>
<path d="M128.456 570.645H42.7383" stroke="#111727" stroke-miterlimit="10"/>
<path d="M827.045 608.254H0" stroke="#111727" stroke-miterlimit="10"/>
<path d="M96.0625 340.425H267.285L265.804 209.33C265.675 198.149 258.569 188.235 248.03 184.519L221.712 175.238H160.668L118.716 181.034L96.0711 340.425H96.0625Z" fill="#EAE2CF"/>
<path d="M96.0625 340.425H267.285L265.804 209.33C265.675 198.149 258.569 188.235 248.03 184.519L221.712 175.238H160.668L118.716 181.034L96.0711 340.425H96.0625Z" stroke="#111727" stroke-miterlimit="10"/>
<path d="M157.18 184.74L173.438 143.705L167.95 144.099L160.604 143.02L155.219 140.177L151.88 135.674L151.195 130.58L153.25 125.683L159.226 121.864H163.438L167.454 122.061L241.014 101.984L243.069 106.882L245.321 118.431L246.4 130.186L245.715 141.453L230.818 166.23L203.849 175.365L174.2 189.535L157.163 184.732L157.18 184.74Z" fill="#EAE2CF"/>
<path d="M241.641 101.848C253.345 145.701 237.3 170.272 231.256 179.527L230.948 179.998C228.465 183.799 224.33 185.897 220.075 185.897C218.088 185.897 216.076 185.435 214.184 184.476L213.773 184.27C203.936 179.288 177.832 166.069 166 122.139L241.641 101.84V101.848Z" stroke="#111727" stroke-miterlimit="10"/>
<path d="M181.788 58.3807L196.086 54.5537C213.02 50.0161 230.443 60.0759 234.981 77.0021L241.65 101.89L166 122.156L159.331 97.2672C154.793 80.3411 164.853 62.9183 181.788 58.3807Z" fill="#E9BE51"/>
<path d="M165.988 122.105L261.569 96.506C263.376 96.018 264.455 94.1601 263.975 92.3536C263.487 90.5472 261.629 89.4684 259.814 89.9479L219.31 100.804" fill="#E9BE51"/>
<path d="M165.988 122.105L261.569 96.506C263.376 96.018 264.455 94.1601 263.975 92.3536C263.487 90.5472 261.629 89.4684 259.814 89.9479L219.31 100.804" stroke="#111727" stroke-miterlimit="10"/>
<path d="M165.991 122.103C156.813 118.542 148.037 128.756 153.166 137.249C157.977 145.22 168.328 144.389 174.424 143.567" stroke="#111727" stroke-miterlimit="10"/>
<path d="M214.547 117.404C216.893 126.351 222.997 134.63 231.781 139.339C237.141 142.216 229.17 146.976 220.617 140.324" stroke="#111727" stroke-miterlimit="10"/>
<path d="M205.853 149.45C189.167 144.749 184.526 132.806 179.655 118.482L166.008 122.147C177.84 166.067 203.944 179.295 213.781 184.269L214.192 184.475C216.076 185.434 218.096 185.896 220.082 185.896C224.338 185.896 228.473 183.798 230.956 179.997L231.264 179.526C235.348 173.276 243.995 160.032 245.562 138.559C234.954 148.165 220.228 153.499 205.853 149.45Z" fill="#111727" stroke="#111727" stroke-width="2" stroke-miterlimit="10"/>
<path d="M208.14 132.182C210.058 132.182 211.616 130.624 211.616 128.706C211.616 126.789 210.058 125.23 208.14 125.23C206.222 125.23 204.664 126.789 204.664 128.706C204.664 130.624 206.222 132.182 208.14 132.182Z" stroke="#111727" stroke-miterlimit="10"/>
<path d="M190.035 217.479C191.952 217.479 193.511 215.921 193.511 214.003C193.511 212.086 191.952 210.527 190.035 210.527C188.117 210.527 186.559 212.086 186.559 214.003C186.559 215.921 188.117 217.479 190.035 217.479Z" stroke="#111727" stroke-miterlimit="10"/>
<path d="M193.585 233.764C195.503 233.764 197.061 232.206 197.061 230.288C197.061 228.371 195.503 226.812 193.585 226.812C191.668 226.812 190.109 228.371 190.109 230.288C190.109 232.206 191.668 233.764 193.585 233.764Z" stroke="#111727" stroke-miterlimit="10"/>
<path d="M233.292 128.706C235.21 128.706 236.768 127.148 236.768 125.23C236.768 123.312 235.21 121.754 233.292 121.754C231.375 121.754 229.816 123.312 229.816 125.23C229.816 127.148 231.375 128.706 233.292 128.706Z" stroke="#111727" stroke-miterlimit="10"/>
<path d="M207.293 118.492C203.569 119.083 200.726 121.086 199.211 123.68" stroke="#111727" stroke-miterlimit="10"/>
<path d="M232.242 113.748C235.932 112.995 239.297 113.868 241.634 115.769" stroke="#111727" stroke-miterlimit="10"/>
<path d="M209.312 160.495C214.544 164.151 225.965 164.485 230.468 158.406" stroke="#E8E0CD" stroke-miterlimit="10"/>
<path d="M174.457 140.965L160.656 175.245L196.375 197.24L215.125 173.995L174.457 140.965Z" stroke="#111727" stroke-miterlimit="10"/>
<path d="M204.637 238.404C204.534 238.104 196.375 197.24 196.375 197.24" stroke="#111727" stroke-miterlimit="10"/>
<path d="M160.641 175.375L171.317 221.119C171.317 221.119 179.981 197.25 196.376 197.25C212.772 197.25 225.006 214.013 225.006 214.013L219.022 184.587" stroke="#111727" stroke-miterlimit="10"/>
<path d="M205.777 67.166L202.344 70.3766L210.503 79.0922L213.936 75.8817L205.777 67.166Z" fill="#01654D"/>
<path d="M216.058 74.0047C220.51 79.407 220.809 83.9618 220.672 86.573C218.035 86.5302 213.498 85.9052 208.352 81.008C208.172 81.1108 208.01 81.2135 207.821 81.3077C206.46 82.0354 205.09 82.6091 203.746 83.0371C211.666 91.4788 219.106 91.3161 221.914 91.2648H222.034C222.573 91.2476 223.078 91.1192 223.523 90.8795C224.474 90.3744 225.159 89.4069 225.253 88.2511L225.27 88.1141C225.518 85.3145 226.177 77.8745 218.292 69.4414C217.761 71.0253 217.025 72.5664 216.058 74.0218V74.0047Z" fill="white"/>
<path d="M605.977 162.061H252.754V428.675H605.977V162.061Z" fill="#01654D" stroke="#111727" stroke-miterlimit="10"/>
<path d="M598.915 162.061H245.691V190.605H598.915V162.061Z" fill="#EAE2CF" stroke="#111727" stroke-miterlimit="10"/>
<path d="M598.915 162.061H245.691V190.605H598.915V162.061Z" fill="#EAE2CF" stroke="#111727" stroke-miterlimit="10"/>
<path d="M598.915 190.109H245.691V428.677H598.915V190.109Z" fill="white" stroke="#111727" stroke-miterlimit="10"/>
<path d="M261.951 182.205C265.196 182.205 267.825 179.577 267.825 176.332C267.825 173.087 265.196 170.459 261.951 170.459C258.707 170.459 256.078 173.087 256.078 176.332C256.078 179.577 258.707 182.205 261.951 182.205Z" fill="#EAE2CF" stroke="#111727" stroke-miterlimit="10"/>
<path d="M277.959 182.205C281.204 182.205 283.832 179.577 283.832 176.332C283.832 173.087 281.204 170.459 277.959 170.459C274.714 170.459 272.086 173.087 272.086 176.332C272.086 179.577 274.714 182.205 277.959 182.205Z" fill="#EAE2CF" stroke="#111727" stroke-miterlimit="10"/>
<path d="M293.979 182.205C297.223 182.205 299.852 179.577 299.852 176.332C299.852 173.087 297.223 170.459 293.979 170.459C290.734 170.459 288.105 173.087 288.105 176.332C288.105 179.577 290.734 182.205 293.979 182.205Z" fill="#EAE2CF" stroke="#111727" stroke-miterlimit="10"/>
<path d="M420.251 162.14L419.814 158.809L416.432 152.242L411.098 149.066L403.949 148.527L400.807 149.648L397.143 148.578L391.809 148.33L386.313 149.751L384.018 148.03L377.554 147.842L371.236 150.333L367.854 154.443L366.193 161.694L365.996 175.401L368.248 179.168L372.606 180.564L377.597 179.168L379.403 176.086L380.482 179.263L382.879 181.617L385.97 182.79L389.883 181.763L392.383 178.526L392.922 175.547L395.414 178.972L397.665 180.196L402.177 180.05L405.208 177.747L406.244 164.725L406.449 161.763L420.251 162.131V162.14Z" fill="#EAE2CF"/>
<path d="M379.805 161.043L379.445 174.1C379.343 177.772 376.278 180.675 372.605 180.581C368.932 180.478 366.021 177.413 366.124 173.74L366.483 160.684" stroke="#111727" stroke-miterlimit="10"/>
<path d="M393.128 161.41L392.735 175.905C392.632 179.578 389.567 182.48 385.894 182.386C382.221 182.283 379.31 179.218 379.413 175.545L379.807 161.051" stroke="#111727" stroke-miterlimit="10"/>
<path d="M393.129 161.412L392.803 173.287C392.701 176.96 395.603 180.025 399.285 180.128C402.957 180.23 406.031 177.328 406.125 173.647L406.254 162.14C410.406 162.14 425.389 162.063 425.389 162.063" stroke="#111727" stroke-miterlimit="10"/>
<path d="M419.772 162.138C419.977 154.783 414.172 148.653 406.818 148.456C399.464 148.251 393.334 154.056 393.137 161.41" stroke="#111727" stroke-miterlimit="10"/>
<path d="M400.108 150.058C398.182 148.868 395.921 148.157 393.49 148.097C386.136 147.892 380.006 153.696 379.809 161.051" stroke="#111727" stroke-miterlimit="10"/>
<path d="M386.784 149.689C384.857 148.498 382.597 147.788 380.166 147.728C372.811 147.522 366.681 153.327 366.484 160.682" stroke="#111727" stroke-miterlimit="10"/>
<path d="M253.259 301.897L238.542 300.202L238.602 299.739L270.074 303.147C274.149 303.609 277.848 300.741 278.413 296.683C279.004 292.496 275.947 288.712 271.744 288.207L240.468 284.534L236.384 284.029L237.095 279.466L219.698 281.991L147.13 273.156V204.741C147.13 191.436 136.343 180.648 123.038 180.648C109.734 180.648 98.9375 191.427 98.9375 204.741V291.546C98.9375 304.791 108.415 316.135 121.454 318.498L217.404 329.414L246.487 332.796C250.682 333.266 255.382 330.056 255.87 325.861C256.359 321.657 253.345 317.856 249.141 317.368L236.624 315.809L236.658 315.51L251.513 317.111C255.708 317.582 259.501 314.585 259.989 310.381C260.477 306.178 257.463 302.376 253.259 301.888V301.897Z" fill="#EAE2CF"/>
<path d="M253.088 301.409L238.439 299.714L238.602 299.731L270.074 303.138C274.149 303.601 277.848 300.724 278.413 296.674C279.004 292.488 275.947 288.704 271.744 288.198L240.468 284.526L236.384 284.02L219.698 281.991L147.13 273.156V204.741C147.13 191.436 136.343 180.648 123.038 180.648C109.734 180.648 98.9375 191.427 98.9375 204.741V291.546C98.9375 304.791 108.415 316.135 121.454 318.498L217.404 329.414L246.487 332.727C250.682 333.198 255.382 329.987 255.871 325.792C256.359 321.588 253.345 317.787 249.141 317.299L236.624 315.801L237.378 315.895L252.155 317.496C256.35 317.967 259.424 314.577 259.912 310.381C260.4 306.178 257.283 301.897 253.079 301.409H253.088Z" stroke="#111727" stroke-miterlimit="10"/>
<path d="M147.13 242.429C130.735 230.092 109.066 233.029 98.9375 243.414L147.13 242.429Z" fill="#EAE2CF"/>
<path d="M147.13 242.429C130.735 230.092 109.066 233.029 98.9375 243.414" stroke="#111727" stroke-miterlimit="10"/>
</g>
<path d="M329.04 53.578C330.75 50.8107 329.893 47.1809 327.126 45.4705C324.359 43.7601 320.729 44.6168 319.019 47.384C317.308 50.1513 318.165 53.7811 320.932 55.4915C323.7 57.2019 327.329 56.3452 329.04 53.578Z" fill="#E7DFCD"/>
<path d="M346.991 51.5745C347.606 48.38 345.515 45.2918 342.32 44.6766C339.126 44.0614 336.038 46.1523 335.422 49.3468C334.807 52.5412 336.898 55.6295 340.093 56.2447C343.287 56.8598 346.375 54.7689 346.991 51.5745Z" fill="#E7DFCD"/>
<path d="M361.49 55.4572C364.257 53.7468 365.113 50.117 363.403 47.3498C361.693 44.5826 358.063 43.7258 355.296 45.4362C352.528 47.1466 351.672 50.7765 353.382 53.5437C355.093 56.3109 358.722 57.1676 361.49 55.4572Z" fill="white"/>
<path d="M358.402 56.8892C354.857 56.8892 351.98 54.0039 351.98 50.468C351.98 46.9321 354.866 44.0469 358.402 44.0469C361.938 44.0469 364.823 46.9321 364.823 50.468C364.823 54.0039 361.938 56.8892 358.402 56.8892ZM358.402 45.1085C355.448 45.1085 353.042 47.5143 353.042 50.468C353.042 53.4218 355.448 55.8276 358.402 55.8276C361.355 55.8276 363.761 53.4218 363.761 50.468C363.761 47.5143 361.355 45.1085 358.402 45.1085Z" fill="#09644A"/>
<path d="M403.974 69.1749H389.976C389.685 69.1749 389.445 68.9352 389.445 68.6441C389.445 68.353 389.685 68.1133 389.976 68.1133H403.974C404.265 68.1133 404.505 68.353 404.505 68.6441C404.505 68.9352 404.265 69.1749 403.974 69.1749Z" fill="black"/>
<path d="M378.488 69.1749H318.121C317.83 69.1749 317.59 68.9352 317.59 68.6441C317.59 68.353 317.83 68.1133 318.121 68.1133H378.488C378.779 68.1133 379.019 68.353 379.019 68.6441C379.019 68.9352 378.779 69.1749 378.488 69.1749Z" fill="black"/>
<path d="M403.976 81.5733H355.355C355.064 81.5733 354.824 81.3336 354.824 81.0425C354.824 80.7514 355.064 80.5117 355.355 80.5117H403.976C404.267 80.5117 404.507 80.7514 404.507 81.0425C404.507 81.3336 404.267 81.5733 403.976 81.5733Z" fill="black"/>
<path d="M342.898 81.5733H318.121C317.83 81.5733 317.59 81.3336 317.59 81.0425C317.59 80.7514 317.83 80.5117 318.121 80.5117H342.898C343.189 80.5117 343.429 80.7514 343.429 81.0425C343.429 81.3336 343.189 81.5733 342.898 81.5733Z" fill="black"/>
<path d="M403.971 93.9698H384.921C384.63 93.9698 384.391 93.7301 384.391 93.439C384.391 93.1479 384.63 92.9082 384.921 92.9082H403.971C404.262 92.9082 404.502 93.1479 404.502 93.439C404.502 93.7301 404.262 93.9698 403.971 93.9698Z" fill="black"/>
<path d="M317.296 235.201C317.005 235.201 316.766 234.961 316.766 234.67L317.579 93.439C317.579 93.1479 317.819 92.9082 318.11 92.9082H369.924C370.215 92.9082 370.455 93.1479 370.455 93.439C370.455 93.7301 370.215 93.9698 369.924 93.9698H318.641L317.827 234.67C317.827 234.961 317.588 235.201 317.296 235.201Z" fill="black"/>
<path d="M498.333 487.162C500.043 484.395 499.186 480.765 496.419 479.055C493.652 477.344 490.022 478.201 488.312 480.968C486.601 483.735 487.458 487.365 490.225 489.075C492.993 490.786 496.622 489.929 498.333 487.162Z" fill="#E7DFCD"/>
<path d="M516.28 485.147C516.895 481.952 514.804 478.864 511.609 478.249C508.415 477.634 505.327 479.725 504.711 482.919C504.096 486.114 506.187 489.202 509.382 489.817C512.576 490.432 515.664 488.341 516.28 485.147Z" fill="#E7DFCD"/>
<path d="M453.937 514.62H467.935C468.226 514.62 468.466 514.38 468.466 514.089C468.466 513.798 468.226 513.559 467.935 513.559H453.937C453.646 513.559 453.406 513.798 453.406 514.089C453.406 514.38 453.646 514.62 453.937 514.62Z" fill="black"/>
<path d="M479.425 514.62H539.793C540.084 514.62 540.324 514.38 540.324 514.089C540.324 513.798 540.084 513.559 539.793 513.559H479.425C479.134 513.559 478.895 513.798 478.895 514.089C478.895 514.38 479.134 514.62 479.425 514.62Z" fill="black"/>
<path d="M453.937 527.019H502.558C502.849 527.019 503.089 526.779 503.089 526.488C503.089 526.197 502.849 525.957 502.558 525.957H453.937C453.646 525.957 453.406 526.197 453.406 526.488C453.406 526.779 453.646 527.019 453.937 527.019Z" fill="black"/>
<path d="M515.019 527.019H539.796C540.087 527.019 540.327 526.779 540.327 526.488C540.327 526.197 540.087 525.957 539.796 525.957H515.019C514.728 525.957 514.488 526.197 514.488 526.488C514.488 526.779 514.728 527.019 515.019 527.019Z" fill="black"/>
<path d="M453.937 539.405H472.986C473.278 539.405 473.517 539.166 473.517 538.875C473.517 538.583 473.278 538.344 472.986 538.344H453.937C453.646 538.344 453.406 538.583 453.406 538.875C453.406 539.166 453.646 539.405 453.937 539.405Z" fill="black"/>
<path d="M420.046 341.992C419.755 341.992 419.516 342.232 419.516 342.523L420.329 483.754C420.329 484.045 420.569 484.285 420.86 484.285H472.674C472.965 484.285 473.205 484.045 473.205 483.754C473.205 483.463 472.965 483.223 472.674 483.223H421.391L420.577 342.523C420.577 342.232 420.338 341.992 420.046 341.992Z" fill="black"/>
<path d="M530.806 489.018C533.573 487.307 534.43 483.678 532.719 480.91C531.009 478.143 527.379 477.286 524.612 478.997C521.845 480.707 520.988 484.337 522.699 487.104C524.409 489.871 528.039 490.728 530.806 489.018Z" fill="white"/>
<path d="M527.698 490.459C524.154 490.459 521.277 487.574 521.277 484.038C521.277 480.502 524.163 477.617 527.698 477.617C531.234 477.617 534.12 480.502 534.12 484.038C534.12 487.574 531.234 490.459 527.698 490.459ZM527.698 478.679C524.745 478.679 522.339 481.085 522.339 484.038C522.339 486.992 524.745 489.398 527.698 489.398C530.652 489.398 533.058 486.992 533.058 484.038C533.058 481.085 530.652 478.679 527.698 478.679Z" fill="#09644A"/>
<g clip-path="url(#clip2_2384_731)">
<path d="M344.564 212.31L343.459 218.286C343.348 218.877 342.894 219.801 343.228 220.349C343.562 220.897 343.759 221.094 343.819 221.805C343.853 222.224 344.204 222.661 343.691 223.098C342.518 224.091 343.776 226.608 344.735 228.192C345.745 229.878 347.441 229.407 347.98 230.152C348.442 230.794 347.603 231.411 347.817 232.49C348.108 233.954 346.353 234.022 346.062 235.178C345.908 235.786 346.088 236.351 346.516 236.796C346.944 237.241 347.381 237.798 348.006 237.995C348.434 238.132 348.836 237.061 349.735 237.301C350.018 237.378 350.249 237.746 350.3 238.132L350.531 239.878C350.891 240.846 351.036 241.753 350.745 242.772C350.394 244.022 351.764 243.791 352.629 245.289C353.322 246.488 354.555 246.984 355.891 246.77L358.493 246.813C359.495 246.582 360.377 246.308 361.413 246.616L362.5 246.787L359.803 264.767C354.666 264.338 349.572 263.705 344.367 262.951L338.434 298.302L337.158 303.739L335.797 304.432C335.437 303.833 334.906 303.859 334.358 303.662C334.119 303.576 333.768 303.336 333.494 303.542C332.954 303.944 333.759 305.066 333.425 305.562C333.057 306.102 333.006 306.521 332.954 307.138L332.561 308.311C332.989 308.73 332.903 309.167 332.655 309.646C332.321 310.305 332.578 311.076 332.561 311.769C332.543 312.548 332.406 313.268 332.749 314.055C332.364 314.62 332.424 315.211 332.946 315.588C333.605 316.196 334.221 317.035 333.99 317.583C333.656 318.379 332.064 318.233 331.876 318.901C331.73 319.398 331.713 319.689 331.208 319.929C331.448 320.596 331.396 321.829 331.268 322.086C331.174 322.266 330.78 322.369 330.574 322.497C330.454 323.687 329.316 323.447 329.23 324.132C329.136 324.971 329.615 325.656 330.36 325.982L330.232 326.812C329.564 326.615 328.853 326.855 328.091 326.786L319.016 325.99C318.126 325.913 317.201 325.999 316.568 325.271C316.122 324.757 315.857 324.004 315.694 323.336C315.463 322.403 315.009 321.667 314.701 320.802C314.187 319.355 313.451 318.054 312.458 316.898L311.191 315.879L310.069 314.903C309.504 314.167 309.042 313.542 308.117 313.259C307.099 312.951 306.242 312.215 305.703 311.307C305.164 310.4 304.41 309.809 303.391 309.475L301.919 308.679C301.097 308.233 300.087 308.011 299.376 307.394C298.588 306.718 298.837 305.554 299.153 304.732C299.607 303.576 299.153 302.386 298.588 301.35C298.195 300.622 297.989 299.723 297.356 299.192C296.867 298.79 296.611 298.499 296.345 297.891L294.967 294.74C294.342 293.302 294.128 291.77 294.684 290.254C295.018 290.451 295.361 290.622 295.677 290.485C295.395 289.193 294.393 288.448 293.725 287.455C293.118 286.564 293.16 285.289 293.383 284.278L293.854 282.112L291.987 280.537C291.799 280.374 291.525 280.323 291.474 280.109C291.328 279.467 292.552 279.21 291.945 278.028C290.155 274.535 289.727 270.657 290.755 266.873C289.907 264.415 288.417 261.59 290.095 259.792C291.14 258.671 291.868 257.309 292.133 255.76C292.236 255.178 292.604 254.561 292.63 254.013C292.672 253.029 292.749 252.053 292.707 251.154L299.239 253.097L313.289 256.813C318.639 258.226 323.905 259.373 329.461 260.409L331.567 250.7C332.15 248.012 332.663 245.435 332.98 242.712C332.603 241.667 333.203 240.888 333.982 240.306C334.007 238.757 335.155 238.808 335.42 237.515C335.566 236.813 336.225 236.462 336.55 236.034C337.218 235.186 336.773 234.356 336.319 233.662C335.891 233.02 335.84 232.25 335.18 231.745L339.042 211.223L344.572 212.293L344.564 212.31Z" fill="#F3D065"/>
<path d="M359.81 264.783L358.663 272.317L368.885 273.764C369.082 273.789 369.176 273.293 369.202 273.122C377.181 274.175 385.109 275.125 393.14 275.81L395.691 275.973C395.666 276.281 395.597 276.58 395.683 276.983C399.159 277.223 402.498 277.394 405.974 277.231L405.64 284.645C405.974 284.757 406.213 284.748 406.445 284.757L405.434 305.895L401.145 305.458L399.707 305.279C388.303 304.568 376.924 303.635 365.461 302.265L360.426 342.23L349.433 341.434L331.266 331.203L330.427 330.441C329.887 329.953 329.682 329.054 330.161 328.489C330.641 327.924 330.658 327.333 330.213 326.819L330.341 325.989C329.596 325.664 329.117 324.979 329.211 324.14C329.288 323.455 330.427 323.695 330.555 322.504C330.769 322.376 331.163 322.273 331.249 322.094C331.377 321.837 331.428 320.595 331.189 319.936C331.694 319.696 331.72 319.405 331.857 318.909C332.045 318.249 333.637 318.395 333.971 317.59C334.202 317.042 333.577 316.203 332.927 315.595C332.413 315.219 332.345 314.628 332.73 314.063C332.387 313.275 332.516 312.556 332.541 311.777C332.559 311.083 332.302 310.313 332.636 309.654C332.875 309.174 332.97 308.746 332.541 308.318L332.935 307.145C332.987 306.537 333.047 306.109 333.406 305.57C333.74 305.082 332.935 303.952 333.475 303.549C333.749 303.344 334.108 303.583 334.339 303.669C334.887 303.866 335.418 303.84 335.778 304.44L337.139 303.746L338.415 298.31L344.348 262.959C349.553 263.712 354.656 264.346 359.784 264.774L359.81 264.783Z" fill="#888B54"/>
<path d="M447.212 330.382C447.212 330.553 447.289 330.725 447.374 330.819C447.563 331.033 447.811 330.939 448.042 330.844L449.686 330.177L449.883 335.373L450.08 341.683C450.097 342.171 450.585 342.454 450.765 342.822L451.321 343.944C451.664 344.637 451.783 345.365 452.357 345.938C453.444 347.026 452.383 348.087 453.051 349.038C453.384 349.517 453.222 349.851 453.051 350.305C452.905 350.699 452.931 351.118 452.665 351.503C452.434 351.837 452.408 352.334 452.537 352.685C452.725 353.181 452.477 353.421 452.254 353.789C452.023 354.183 452.023 354.808 451.963 355.193C451.218 355.399 450.354 355.476 449.66 355.887C449.206 356.161 448.907 356.418 448.282 356.375C447.023 356.272 445.773 356.05 444.558 355.699C443.667 355.442 442.768 355.699 442.306 356.503L440.799 359.097C439.866 360.698 438.933 362.171 437.443 363.275L433.779 366.007L429.96 369.149C428.804 370.304 428.188 371.709 428.034 373.344C427.82 375.655 428.077 377.881 428.462 380.185C428.676 381.486 428.898 382.821 428.547 384.166L423.676 382.299C423.119 382.188 421.587 383.036 419.01 380.082C419.327 377.83 416.75 376.846 417.323 374.423C416.972 373.275 416.45 372.257 415.714 371.323L413.025 367.916C412.315 367.017 411.912 366.067 411.501 365.013C409.626 360.168 406.099 356.187 400.663 355.87C399.335 356.478 398.24 357.317 397.306 358.413L395.294 360.784C393.377 363.044 390.44 359.954 388.342 358.053C387.255 357.068 386.416 355.972 385.997 354.56L385.012 351.264C384.824 350.63 384.593 349.705 384.104 349.235L381.536 346.795L379.036 343.764L378.034 342.497C377.649 342.017 377.332 341.726 377.084 341.127C376.947 340.801 376.339 340.579 376.348 340.159L378.283 339.637L397.657 340.767L399.498 308.893C400.029 308.978 400.517 308.995 401.116 309.012L412.426 309.406L415.628 309.5L415.226 323.267L415.902 323.499L416.878 324.706C417.82 324.509 418.197 325.134 418.864 324.971C420.294 324.612 420.311 326.427 420.739 326.495L423.719 326.949C423.83 326.966 424.515 327.805 426.287 327.403L427.366 328.969C427.7 329.449 428.47 328.233 428.856 328.284C429.215 328.327 429.541 329.252 430.174 329.346C430.654 329.415 430.953 329.124 431.339 328.901C431.989 328.524 432.794 328.995 433.47 329.029C433.873 329.055 434.429 328.593 434.857 328.867C435.448 329.252 435.97 329.201 436.647 329.141C437.802 329.038 438.958 329.055 440.08 328.687C440.696 328.49 441.313 328.781 441.826 328.892C442.434 328.55 443.102 328.302 443.753 328.807C444.164 329.124 444.617 329.123 445.097 329.295C445.508 329.44 445.782 329.817 446.355 329.748L447.177 330.356L447.212 330.382Z" fill="#2A634E"/>
<path d="M296.846 395.363L297.557 396.605C297.24 397.461 296.684 398.146 295.981 398.762C293.541 400.886 290.673 402.435 287.574 403.386C285.357 404.062 283.867 403.197 283.893 404.276L283.935 405.988C283.935 406.322 283.73 406.639 283.465 406.75C282.925 406.973 282.24 406.031 281.273 406.074C280.417 406.117 280.048 407.101 279.56 407.127C279.252 407.144 278.713 406.04 277.634 406.81C277.12 407.178 276.718 407.144 276.136 407.076C273.567 406.785 271.05 408.463 267.985 408.411L265.879 408.377C265.682 408.377 265.494 408.257 265.442 408.154C265.083 407.444 267.48 406.057 269.124 406.536C269.946 406.776 270.588 406.836 271.333 406.339L273.867 404.636C275.143 403.779 277.591 405.338 278.148 404.379C278.516 403.737 278.858 403.283 279.663 403.146L282.72 402.598C283.49 402.461 283.61 401.845 283.824 401.391C284.894 400.672 286.17 400.192 286.881 399.028L289.586 394.584C288.713 394.559 288.362 395.209 287.762 395.5C287 396.006 286.846 395.269 286.144 394.661C285.494 395.321 285.699 396.305 285.091 396.357C284.851 396.382 284.62 396.237 284.5 395.98C284.072 395.038 284.86 393.934 284.518 393.745C284.115 393.523 283.071 394.37 282.711 393.788L282.651 393.06C281.453 391.862 278.798 394.156 277.548 393.24C277.857 392.727 278.251 392.401 278.602 392.042C279.167 391.468 279.09 390.74 278.516 390.072C279.158 389.764 279.689 389.833 280.365 389.773C279.706 388.737 279.68 387.727 280.194 386.622C279.783 386.34 279.355 386.451 278.927 386.554C277.643 386.862 276.033 387.444 275.331 386.725C274.629 386.006 275.459 385.107 274.655 384.071L273.61 382.735L275.699 380.501C275.828 380.364 275.305 380.235 275.117 380.304C274.552 380.518 274.047 380.244 273.918 379.662C273.388 377.333 277.608 372.341 280.322 371.888C281.624 371.674 281.786 373.044 282.266 373.172C282.942 373.36 283.379 372.53 283.858 372.547L286.281 372.615C286.949 372.633 287.377 372.179 287.523 371.545C287.822 370.261 288.225 369.054 288.833 367.872C288.927 367.693 288.901 367.419 288.807 367.299C288.73 367.187 288.49 367.11 288.268 367.136L285.305 367.47C284.278 367.59 283.524 367.247 282.643 366.836L280.725 366.503C279.62 366.314 279.141 365.39 279.081 364.277C278.995 362.658 278.507 361.177 277.489 359.927C277.232 359.61 277.078 358.968 277.309 358.634C277.574 358.249 278.165 358.198 278.61 358.232L281.564 358.506C282.3 358.575 282.334 358.121 282.694 357.736C283.439 357.23 284.886 357.402 285.648 357.855C286.487 358.36 285.408 360.766 287.24 361.28C287.882 361.46 288.678 361.768 289.363 361.725C289.817 361.691 289.749 360.86 289.637 360.569L288.25 356.837C287.463 356.323 287.163 355.484 286.915 354.602C286.547 352.77 285.887 351.143 284.766 349.679C284.552 349.397 284.612 348.883 284.706 348.66C285.16 347.659 287.369 348.027 288.875 348.078C290.382 348.129 291.504 347.196 292.214 345.989C292.968 344.696 294.106 343.823 295.605 343.677L297 343.54C297.771 342.804 298.687 342.77 299.671 343.035C300.656 343.301 301.521 342.65 302.189 342.059C303.105 341.246 304.175 341.263 304.945 342.171L306.564 344.088C306.872 344.457 308.096 343.737 308.678 344.028C309.26 344.32 308.79 346.203 310.528 346.537L313.712 347.153C314.62 347.342 315.313 347.855 315.801 348.617C316.94 349.123 318.122 349.234 319.346 349.362L323.832 349.825C325.074 349.953 326.152 350.595 326.923 351.58L327.051 364.122L327.077 389.773C327.077 390.903 326.88 392.461 327.565 392.966C327.796 393.137 328.181 393.146 328.455 393.035L329.945 392.384C330.228 392.264 330.604 392.29 330.861 392.47C330.87 392.47 331.546 394.687 333.841 396.93C334.448 397.53 335.236 397.512 335.776 396.93C336.204 396.468 336.358 395.766 336.649 395.269C339.149 393.951 341.674 396.81 343.284 399.036L346.734 403.822C347.642 405.072 348.609 406.185 349.757 407.187C350.792 408.094 351.888 408.565 353.207 408.899C355.578 409.49 353.558 417.906 352.188 416.279L350.245 413.968C349.757 413.394 349.303 412.743 348.541 412.469C348.361 412.401 348.207 412.641 348.258 412.812L348.977 415.534C349.037 415.774 349.054 416.356 348.789 416.451C347.813 416.81 345.989 413.711 345.082 412.598C343.892 411.142 344.397 411.014 344.114 409.293C343.352 409.362 343.43 410.56 342.89 411.177L341.786 407.812L341.657 410.312C341.649 410.5 341.546 410.68 341.452 410.757C341.323 410.86 341.101 410.86 340.955 410.757C339.714 409.944 339.825 408.189 339.251 407.778C338.678 407.367 338.293 406.956 338.01 406.279L336.58 402.846C336.889 402.324 337.231 401.913 337.342 401.297C336.914 401.254 336.794 401.913 336.281 401.87C335.613 401.81 335.716 400.209 333.901 399.456L329.902 397.778C329.449 397.589 328.943 397.281 328.738 396.827C328.276 395.8 330.014 395.406 329.911 394.559L327.728 395.509C326.931 395.86 326.187 395.766 325.407 395.458C324.842 395.226 324.243 395.089 323.738 394.713C322.488 393.78 320.348 394.165 319.098 393.506L315.956 391.845C315.108 391.399 315.399 389.584 313.593 389.67C312.754 389.713 311.915 389.756 311.11 390.004C310.844 390.081 310.784 390.543 310.784 390.774L310.733 393.026C310.733 393.283 310.63 393.566 310.485 393.694C310.322 393.84 310.04 393.934 309.766 393.882L307.505 393.463C306.572 393.292 305.793 393.84 305.69 394.79C305.51 396.374 300.784 396.502 301.375 395.612C301.769 395.021 302.54 394.807 303.139 394.516C303.088 393.968 302.368 394.242 302.146 394.054C302.077 393.994 302.034 393.745 302.094 393.634C302.617 392.778 302.822 391.905 302.976 390.937C303.088 390.235 303.721 389.67 304.346 389.473L307.591 388.437C307.06 387.941 306.264 387.684 305.502 387.615C303.533 387.427 301.761 389.773 300.785 391.579C300.365 392.35 299.886 392.941 299.055 393.283L297.368 393.994C296.838 394.216 296.521 394.79 296.846 395.363Z" fill="#F3D065"/>
<path d="M517.883 263.268L519.621 273.662C517.849 274.39 519.758 275.623 518.911 277.378C517.892 279.51 519.604 280.708 518.097 281.402C517.19 281.821 517.31 283.414 516.094 284.073C515.426 284.433 514.767 284.784 514.279 285.391L514.185 286.727C514.142 287.369 512.918 286.616 512.781 286.667C512.678 286.701 512.549 286.864 512.507 287.018L512.139 288.516C511.984 289.133 512.669 289.407 512.515 289.929C512.447 290.152 512.181 290.34 511.847 290.383L511.496 291.128C511.163 291.402 510.675 291.333 510.272 291.316C510.443 293.011 511.805 295.28 512.943 296.59C513.26 296.958 513.859 297.583 513.748 298.088C513.526 299.116 511.479 299.492 510.794 301.787C510.546 302.626 509.878 302.771 509.159 302.908C508.748 303.199 508.303 303.576 507.798 303.816L506.274 304.552C505.769 304.8 505.264 305.1 504.973 305.494L492.618 306.838L483.081 307.326L482.952 309.073L474.571 309.295C474.605 309.098 474.682 308.687 474.896 308.568C475.17 308.405 475.487 308.499 475.872 308.456C475.975 307.609 476.069 306.53 475.632 305.717C474.656 305.357 473.672 304.261 473.817 303.217C474.142 300.982 472.755 301.059 472.713 299.843C472.687 299.09 471.514 299.946 470.701 298.876C470.221 298.242 469.682 297.737 469.057 297.258C468.714 296.992 468.946 296.496 469.04 296.162L469.365 294.929C469.768 294.15 469.836 293.277 469.408 292.515C469.202 292.147 468.903 292.035 468.543 291.992C468.184 291.95 467.875 292.421 467.601 292.575C465.898 292.121 467.293 289.963 465.187 289.159L464.22 288.037C463.115 287.403 462.405 286.496 462.182 285.22C462.096 284.724 461.754 284.193 461.84 283.653C461.934 283.037 462.019 282.481 461.78 281.941C461.762 281.898 461.762 281.821 461.754 281.779L461.78 281.505C461.985 281.505 462.156 281.393 462.345 281.213L463.201 280.4C464.502 279.518 464.673 277.934 463.929 276.684C464.16 274.724 466.917 274.544 467.918 273.14C468.92 271.736 468.595 269.972 467.627 268.722L466.009 266.565L480.23 265.169C480.161 266.162 480.512 267.095 480.949 268.037L481.574 269.373L483.038 285.246C483.158 286.453 483.432 287.583 483.106 288.756C483.004 289.116 482.772 289.398 482.841 289.775C483.012 290.734 484.125 290.297 483.423 292.318L482.721 294.33C482.207 295.811 481.54 296.085 481.951 296.718C482.362 297.352 481.24 298.302 481.891 299.355C481.968 298.619 482.336 298.388 482.952 298.242C484.219 297.926 485.546 298.045 486.771 298.439C487.704 297.48 488.611 298.593 489.416 297.866C490.427 296.95 489.382 296.359 490.033 295.905C490.786 295.383 491.154 296.513 492.036 296.795C492.481 296.599 492.832 296.521 493.363 296.581C493.988 295.794 493.021 294.595 494.707 294.133L495.221 291.796C495.332 291.273 496.12 291.462 496.385 291.308C496.925 291.008 497.199 290.777 497.824 290.828C498.063 290.845 498.363 290.7 498.491 290.563C498.902 290.092 498.354 289.57 498.517 289.201C498.586 289.056 498.808 288.893 499.048 288.705L496.248 269.193L491.06 269.159C489.348 269.15 487.653 269.262 486.052 269.758C487.447 267.173 487.952 264.304 487.413 261.445L486.36 255.957C485.778 252.935 486.206 249.955 487.618 247.241L489.331 244.51C490.075 244.801 489.827 246.342 489.373 246.856C489.057 247.224 488.928 247.635 489.271 247.995C489.562 248.311 489.99 248.277 490.384 248.02C491.043 247.601 491.445 247.079 491.514 246.265L491.676 244.091C492.524 243.012 493.783 242.841 495.033 242.806C497.036 242.746 498.68 243.423 500.015 244.878C500.486 245.392 500.906 245.786 501.034 246.591C501.223 247.738 501.051 248.894 500.615 250.007L499.373 253.166C499.236 253.517 499.142 253.825 499.348 254.125C499.493 254.33 499.75 254.69 500.11 254.596C500.563 254.476 500.854 254.022 501.137 253.662L502.627 251.745C502.935 251.351 503.389 251.145 503.902 251.248C505.264 251.531 506.171 254.87 506.753 256.608C507.104 257.669 507.284 258.714 506.813 259.775C505.461 262.815 503.183 264.065 503.089 265.666C502.969 267.609 501.479 267.318 501.377 268.388C501.342 268.722 501.428 269.159 501.813 269.227L503.962 269.621C505.135 269.972 506.274 269.887 507.498 269.818L508.817 269.741C509.502 269.698 509.955 269.304 510.144 268.637C510.546 268.525 510.974 268.517 511.377 268.585C513.457 268.953 513.115 266.65 514.014 266.428C514.716 266.256 514.887 265.734 515.349 265.306L517.113 263.671C517.361 263.44 517.686 263.405 517.875 263.277L517.883 263.268Z" fill="#A59A5D"/>
<path d="M339.022 211.238L335.161 231.76C335.812 232.274 335.872 233.035 336.3 233.678C336.762 234.371 337.207 235.193 336.531 236.049C336.197 236.469 335.538 236.82 335.401 237.53C335.144 238.823 333.988 238.772 333.962 240.321C333.183 240.895 332.584 241.683 332.961 242.727C332.644 245.45 332.13 248.035 331.548 250.715L329.442 260.424C323.885 259.388 318.612 258.241 313.269 256.828L299.22 253.112L292.687 251.169C292.61 249.679 292.208 248.189 292.37 246.648C292.49 245.475 292.961 244.653 293.526 243.669L296.035 239.354C297.242 237.282 297.918 235.116 298.663 232.864C299.357 230.758 300.521 228.849 300.906 226.649C301.112 225.476 301.189 224.457 301.934 223.489C302.199 223.147 302.302 222.77 302.987 222.933C303.449 223.044 303.963 223.37 304.596 223.053C304.031 222.924 303.74 222.239 303.355 222.025C302.516 221.88 301.908 221.563 301.857 220.613C301.831 220.073 302.456 219.568 302.55 219.037C302.738 218.019 302.824 216.923 302.747 215.852L302.456 211.777C302.387 210.784 301.899 209.954 302.319 208.935L302.756 206.948C302.85 206.52 303.672 206.743 303.954 207.051C304.887 208.061 305.803 209.234 307.062 209.859C307.91 210.279 308.723 210.416 309.493 211.058C310.264 211.7 311.18 212.359 312.199 212.436C313.432 212.531 314.142 211.049 313.783 210.022C313.483 209.157 314.588 208.627 314.673 206.923C316.523 206.615 318.346 206.794 320.161 207.163L323.141 207.779L339.048 211.246L339.022 211.238Z" fill="#2A634E"/>
<path d="M399.595 219.415L398.122 241.161L397.669 247.822L362.815 244.286L362.506 246.803L361.419 246.632C360.383 246.315 359.501 246.589 358.5 246.829L355.897 246.786C354.561 247 353.328 246.512 352.635 245.305C351.77 243.807 350.4 244.038 350.751 242.788C351.034 241.769 350.897 240.853 350.537 239.894L350.306 238.148C350.255 237.763 350.024 237.394 349.741 237.317C348.842 237.078 348.44 238.139 348.012 238.011C347.387 237.814 346.959 237.266 346.522 236.812C346.085 236.358 345.914 235.81 346.068 235.194C346.359 234.03 348.114 233.961 347.823 232.506C347.609 231.427 348.448 230.802 347.986 230.168C347.447 229.424 345.751 229.894 344.741 228.208C343.791 226.624 342.524 224.107 343.697 223.114C344.21 222.677 343.868 222.24 343.825 221.821C343.765 221.11 343.551 220.896 343.234 220.365C342.918 219.835 343.354 218.893 343.466 218.302L344.57 212.326C362.746 215.836 381.145 218.131 399.604 219.432L399.595 219.415Z" fill="#A59A5D"/>
<path d="M399.717 305.279L399.52 308.917L397.679 340.792L378.305 339.662L376.37 340.184C375.788 340.304 375.188 340.175 374.538 340.107L365.505 339.174L365.308 342.778L360.445 342.239L365.479 302.273C376.935 303.643 388.322 304.576 399.726 305.287L399.717 305.279Z" fill="#E3BE5D"/>
<path d="M548.333 263.002C548.093 263.37 547.965 263.662 547.862 264.167L547.006 265.879L547.092 268.114C547.109 268.61 547.665 268.798 547.777 269.064C548.016 269.62 548.359 269.817 548.658 270.228L549.087 271.863C549.061 272.172 548.864 272.78 548.65 272.994L547.16 274.492C546.441 274.064 545.67 274.098 544.943 274.569C544.686 274.732 544.412 274.792 544.455 275.177L543.59 275.339L536.441 275.605C534.172 275.69 531.998 275.947 529.789 276.452C527.109 277.069 524.198 278.456 524.832 281.264C525.089 282.394 525.739 283.841 526.527 283.824C526.792 283.824 527.092 283.713 527.28 283.464L528.727 281.512C529.909 279.92 530.208 279.398 531.989 279.509C532.691 279.552 533.239 279.509 533.856 279.954C535.397 281.084 536.244 280.416 536.552 281.358C536.981 282.668 539.129 282.249 539.412 283.918C539.575 284.886 538.582 285.785 538.89 286.332C538.958 286.461 539.189 286.512 539.361 286.478C539.66 286.41 539.857 286.589 540.028 286.829C540.568 287.582 541.407 287.582 542.246 287.557C543.205 287.531 544.181 287.985 544.994 288.387C545.525 288.644 545.456 289.209 545.225 289.603C545.011 289.963 544.823 290.125 544.515 290.399C544.292 290.596 544.557 291.118 544.72 291.307C545.165 291.82 546.047 291.255 546.081 292.103C546.09 292.343 545.996 292.694 545.67 292.591C545.491 292.531 545.285 292.283 545.131 292.283C544.943 292.283 544.737 292.505 544.737 292.677C544.737 292.831 544.823 293.156 544.994 293.233C545.867 293.653 546.116 294.492 546.664 295.142L548.384 296.392C548.83 297.077 549.018 297.796 548.967 298.567L516.347 303.866L515.645 304.072L505.012 305.485C505.303 305.091 505.799 304.791 506.313 304.543L507.837 303.807C508.342 303.558 508.787 303.19 509.198 302.899C509.917 302.762 510.585 302.617 510.834 301.777C511.51 299.483 513.565 299.106 513.787 298.079C513.899 297.574 513.299 296.94 512.983 296.581C511.844 295.279 510.483 293.002 510.311 291.307C510.705 291.324 511.193 291.401 511.536 291.118L511.887 290.374C512.221 290.322 512.486 290.142 512.554 289.92C512.709 289.397 512.024 289.124 512.178 288.507L512.546 287.009C512.589 286.846 512.709 286.692 512.82 286.658C512.957 286.615 514.181 287.36 514.224 286.718L514.318 285.382C514.806 284.774 515.465 284.423 516.133 284.064C517.349 283.404 517.229 281.803 518.137 281.392C519.652 280.699 517.931 279.5 518.95 277.369C519.798 275.605 517.888 274.381 519.661 273.653L517.923 263.259C518.274 263.028 518.821 262.977 519.121 262.634C519.772 261.889 520.106 261.162 521.193 261.016L521.561 263.944L542.879 259.244C543.65 259.073 544.241 259.098 544.849 259.603L545.465 259.757C545.688 259.809 545.67 260.194 545.653 260.442C545.619 261.299 546.141 261.658 546.895 261.735C547.186 261.872 547.46 262.377 547.965 262.334C548.23 262.309 548.496 262.822 548.376 263.002H548.333Z" fill="#E3BE5D"/>
<path d="M456.622 236.342C456.348 236.273 455.937 236.445 455.766 236.616C455.526 236.856 455.381 237.232 455.415 237.6L455.715 240.434C455.774 240.957 455.672 241.505 455.218 241.813C454.328 242.412 453.548 243.208 453.266 244.27C452.889 245.717 454.602 245.82 454.079 246.633C453.737 247.172 453.634 247.746 453.566 248.397L453.394 250.083C453.317 250.862 453.626 251.248 454.173 251.624C454.841 252.078 455.423 252.42 456.288 252.506C457.598 252.626 458.146 252.592 458.685 253.756C459.036 254.518 459.644 254.869 460.158 255.426C460.56 255.862 460.792 256.333 461.382 256.658C461.973 256.984 462.632 257.797 462.401 258.516C462.264 258.936 462.007 259.218 462.067 259.629L453.403 260.083L436.879 260.254L436.768 247.703C435.603 246.47 434.679 245.477 435.218 243.85L435.621 242.618L435.073 242.635C435.638 241.616 434.071 240.674 434.294 238.756C433.377 237.678 434.336 236.684 434.011 235.118C433.857 234.381 433.66 233.842 434.045 233.131C434.662 232.001 433.403 231.205 433.352 230.82C433.24 229.912 432.41 229.536 432.735 226.976C432.812 226.342 432.598 226.042 432.376 225.52C432.093 224.869 432.393 223.971 432.564 223.311C432.752 222.584 431.939 221.916 432.059 220.726L440.749 220.7C441.143 220.7 440.937 221.719 441.263 221.753C441.708 221.796 442.067 220.306 443.266 220.76C443.694 220.923 443.651 222.275 444.293 222.018C444.841 221.804 445.269 222.301 445.595 222.31C446.4 222.31 446.802 222.31 447.41 222.883C447.709 223.166 448.206 223.371 448.394 223.868C450.047 222.378 450.723 223.268 452.324 223.5L453.035 224.022C453.703 224.125 454.139 224.373 454.319 225.049C454.516 225.803 455.286 224.784 456.314 225.597C457.17 226.274 458.112 226.676 459.199 226.796C459.482 226.47 459.61 226.145 459.961 225.888L461.348 225.666L462.735 225.477C463.172 225.417 463.591 225.597 464.096 225.691L465.637 225.982C466.22 226.094 467.221 226.667 467.247 226.993C467.264 227.138 467.187 227.361 467.007 227.446L464.781 228.611C463.891 229.073 463.18 229.587 462.512 230.34L461.442 231.539L457.136 235.46C456.862 235.717 456.596 235.922 456.622 236.316V236.342Z" fill="#A59A5D"/>
<path d="M432.072 220.733C431.952 221.923 432.765 222.582 432.577 223.319C432.405 223.978 432.097 224.877 432.388 225.527C432.619 226.05 432.833 226.349 432.748 226.983C432.423 229.543 433.253 229.928 433.364 230.827C433.416 231.212 434.674 232 434.058 233.139C433.673 233.841 433.869 234.38 434.024 235.125C434.349 236.692 433.39 237.685 434.306 238.764C434.083 240.681 435.65 241.615 435.085 242.642L422.714 242.454L398.125 241.178L399.598 219.432C410.111 220.176 420.633 220.579 431.224 220.57C431.618 220.57 431.857 220.528 432.072 220.75V220.733Z" fill="#888B54"/>
<path d="M524.9 343.455C524.986 343.926 525.508 344.217 525.645 344.637L527.332 349.671C528.102 351.554 529.267 353.138 531.073 354.054C530.654 354.285 530.311 354.32 530.08 354.628C529.909 354.859 530.054 355.236 530.268 355.424L532.161 357.068C532.854 357.667 533.248 358.361 533.633 359.165L535.517 363.112C535.577 363.249 535.611 363.438 535.542 363.532C535.491 363.6 535.345 363.66 535.157 363.703C536.818 365.818 537.768 368.309 538.445 370.98C539.181 373.874 539.292 376.828 538.359 379.67C537.974 380.843 537.263 381.914 536.184 382.453C534.986 383.052 533.684 382.804 532.426 382.35C532.546 382.102 532.777 381.982 533.042 381.871L535.756 380.809C535.303 380.27 534.695 380.527 534.138 380.604C533.077 380.758 532.486 378.54 531.399 378.652C530.311 378.763 529.284 378.652 528.411 377.864C527.289 376.837 526.51 375.364 526.518 373.797C526.518 373.489 526.767 373.164 526.279 372.967L525.885 373.677C525.32 373.01 525.183 372.273 524.986 371.563L524.866 371.691C524.917 371.854 524.943 372.248 524.789 372.342C524.147 372.47 523.531 372.188 523.282 371.648L522.34 369.611C522.109 369.123 521.844 368.72 521.433 368.369C520.406 367.496 521.861 366.229 521.604 364.782C520.714 364.842 520.568 366.186 520.191 366.117C519.661 366.023 519.361 365.398 519.37 364.919L519.421 362.205L519.472 358.969C519.327 357.102 517.965 355.835 516.039 355.835C514.712 353.986 512.82 351.82 510.637 351.186C509.866 350.921 508.856 351.229 508.454 351.82C508.873 352.83 507.683 352.188 507.443 353.027C507.204 353.866 506.459 353.763 505.902 354.405C505.722 354.071 505.5 353.849 505.269 353.772C504.961 353.669 504.661 353.772 504.37 353.917L503.017 354.568C503.454 352.976 501.964 353.207 501.048 352.136C501.407 351.452 500.877 350.767 500.175 350.561C500.063 350.904 500.149 351.092 500.14 351.46C499.533 350.921 498.848 350.655 498.043 350.544L495.945 350.253C496.39 349.277 493.899 349.577 492.906 350.844C492.906 350.972 493.18 351.169 493.343 351.212C492.187 352.359 490.757 350.784 489.353 352.179C489.07 352.111 488.993 351.905 488.925 351.717L487.195 347.034L503.111 344.56C503.419 344.508 503.736 344.371 504.113 344.474L504.507 346.683L524.892 343.464L524.9 343.455ZM524.935 371.494C524.858 371.383 524.686 371.486 524.798 371.605L524.935 371.494Z" fill="#F3D065"/>
<path d="M464.835 236.95C464.612 237.164 464.569 237.6 464.629 237.934C464.758 238.662 466.376 239.338 467.472 239.612L473.165 241.016L475.34 241.265L475.699 242.044L477.394 242.635C477.84 242.789 477.026 244.047 477.138 245.066C478.37 244.664 478.37 246.128 479.389 245.357L479.946 245.837L478.876 248.551C478.525 249.432 478.139 250.271 478.182 251.282L482.018 245.246C482.626 245.802 482.677 246.633 482.326 247.326L480.999 249.963L480.203 254.826L479.269 259.621C479.038 260.785 480.408 262.84 480.245 265.151L466.025 266.547C465.871 266.59 465.425 266.658 465.297 266.513C464.74 265.494 463.396 266.076 463.234 265.288C462.943 263.867 461.675 263.567 462.729 262.36C463.088 261.949 462.258 260.819 462.086 259.612C462.026 259.201 462.283 258.919 462.42 258.499C462.651 257.78 462.018 256.984 461.401 256.641C460.785 256.299 460.58 255.854 460.177 255.408C459.663 254.852 459.056 254.501 458.705 253.739C458.165 252.574 457.617 252.609 456.307 252.489C455.443 252.412 454.86 252.061 454.193 251.607C453.645 251.239 453.337 250.845 453.414 250.066L453.585 248.379C453.653 247.729 453.756 247.155 454.098 246.616C454.621 245.802 452.908 245.7 453.285 244.253C453.568 243.191 454.338 242.395 455.237 241.796C455.691 241.496 455.794 240.948 455.734 240.417L455.434 237.583C455.391 237.215 455.537 236.83 455.785 236.599C455.956 236.427 456.376 236.256 456.641 236.325C457.318 236.504 458.028 236.522 458.705 236.162L460.562 235.186C461.205 234.852 461.864 234.604 462.557 234.655L462.3 235.794C462.249 236.025 462.437 236.256 462.386 236.487C462.343 236.667 462.035 236.701 461.889 236.736C461.795 236.975 461.984 237.087 462.086 237.129C462.215 237.181 462.472 237.232 462.617 237.104L463.294 236.487C463.542 236.265 463.842 236.179 464.09 236.445C464.312 236.684 464.544 236.864 464.852 236.915L464.835 236.95Z" fill="#F3D065"/>
<path d="M511.983 315.588C511.024 316.966 510.853 318.054 512.077 319.312C512.985 319.235 513.695 319.689 514.175 320.365L515.878 322.771L518.207 324.843L521.529 327.343C522.685 328.216 523.549 329.372 523.9 330.802C524.945 332.077 526.169 334.064 527.462 334.338C527.642 334.723 527.513 334.98 527.257 335.305C526.4 336.358 525.698 335.665 525.544 336.136C525.484 336.315 525.647 336.452 525.75 336.615C526.084 337.112 525.63 337.66 525.347 338.019C525.364 338.165 525.476 338.43 525.442 338.541C525.356 338.815 524.791 338.867 524.765 339.269C524.748 339.612 525.63 340.219 524.911 340.921L524.217 341.598C524.517 341.803 524.722 341.769 525.065 341.761C524.885 342.394 524.791 342.908 524.902 343.456L504.517 346.675L504.123 344.466C503.747 344.355 503.43 344.5 503.122 344.552C503.233 343.473 503.027 342.394 502.574 341.315C502.377 340.862 502.642 340.399 502.788 339.997C503.07 339.209 502.839 338.43 502.719 337.642C502.599 336.855 503.687 335.776 502.505 335.322C502.445 335.031 502.565 334.731 502.385 334.449C501.992 334.449 501.675 334.295 501.495 334.124C501.195 333.824 501.384 333.473 501.289 333.096L497.445 318.054L504.757 316.812L511.983 315.605V315.588Z" fill="#E3BE5D"/>
<path d="M550.156 235.666C550.413 236.094 550.31 236.599 550.421 237.096L550.815 238.791C551.132 239.484 551.243 239.887 550.978 240.615C550.669 241.471 550.738 242.327 550.986 243.166L551.14 245.452C551.877 246.882 552.75 248.286 552.887 249.955L553.049 251.822C553.315 253.337 553.075 254.904 552.998 256.411C552.99 256.522 552.835 256.642 552.895 256.873L554.488 263.696C554.462 263.988 554.085 264.424 554.12 264.681C554.325 264.938 554.642 264.647 554.719 264.467C555.138 263.423 556.251 264.133 556.748 263.517C557.193 262.969 557.741 262.857 558.392 262.703C559.368 262.472 560.01 261.659 560.832 261C561.209 261.976 559.608 262.429 559.231 263.457C559.907 263.448 560.121 262.772 560.567 262.498C561.106 262.164 561.594 262.01 561.996 261.488C562.219 261.205 562.707 260.974 563.024 261.137L561.894 262.361C561.474 263.234 560.918 263.602 560.096 263.893L558.007 264.638L554.847 266.282C554.351 266.539 553.717 266.539 553.315 266.873C553.032 266.864 552.75 266.522 552.87 266.128C553.049 265.512 552.998 264.467 552.27 264.219L549.377 263.251C549.034 263.131 548.597 263.26 548.324 263.003C548.443 262.823 548.169 262.31 547.913 262.335C547.407 262.378 547.133 261.873 546.842 261.736C546.089 261.659 545.567 261.299 545.601 260.443C545.609 260.195 545.635 259.818 545.413 259.758L544.796 259.604C544.188 259.09 543.598 259.073 542.827 259.244L521.509 263.945L521.141 261.017C521.748 260.94 521.826 260.306 522.194 259.921L523.872 258.149C524.651 257.327 525.182 255.923 524.531 254.827C524.231 254.33 523.546 254.031 523.418 253.371C524.368 252.626 525.618 252.001 526.843 251.984C527.399 251.976 527.836 252.164 528.375 251.864C529.343 251.325 530.361 252.703 531.98 251.65C533.366 250.751 534.283 251.71 534.719 250.709C535.473 248.962 537.39 249.125 536.74 247.763C536.149 246.539 537.587 246.06 536.962 245.255C536.432 245.726 536.055 246.222 535.413 246.257C535.216 246.265 535.147 246.051 535.182 245.948C535.207 245.88 535.241 245.717 535.353 245.632L537.031 244.305C538.075 243.808 537.724 243.08 538.041 242.318C538.692 240.743 540.25 239.587 541.389 238.363C541.705 238.02 541.962 237.515 542.433 237.413L550.156 235.683V235.666Z" fill="#888B54"/>
<path d="M497.448 318.046L501.292 333.088C501.386 333.456 501.198 333.807 501.497 334.116C501.677 334.295 501.994 334.45 502.388 334.441C502.567 334.724 502.448 335.023 502.507 335.314C503.689 335.768 502.619 336.89 502.721 337.634C502.833 338.422 503.073 339.201 502.79 339.989C502.644 340.391 502.379 340.854 502.576 341.307C503.03 342.386 503.244 343.473 503.124 344.544L487.208 347.018L488.937 351.701C488.372 351.821 487.824 352.138 487.114 352.035C487.336 351.461 487.61 350.716 487.174 350.357C486.737 349.997 486.489 349.749 486.48 349.133C485.932 349.655 486.172 350.186 485.924 350.648L485.256 351.898C485.05 351.795 484.794 351.573 484.631 351.598C484.194 351.675 484.306 352.463 483.886 352.497C483.364 352.54 483.176 351.984 482.688 351.787L482.73 349.586C482.73 349.244 483.227 348.799 482.902 348.396C482.405 347.78 483.064 347.369 483.124 346.941C483.253 346.008 483.244 344.98 483.193 344.03L482.944 339.612L482.799 333.362L482.85 328.242L482.79 322.284L482.867 320.451L482.97 319.381L497.448 318.037V318.046Z" fill="#888B54"/>
<path d="M548.95 298.566C548.779 300.844 547.229 299.748 545.457 300.938C544.875 301.332 544.678 302.702 545.029 302.95C545.191 303.07 545.491 303.113 545.731 303.053L549.027 302.222C549.626 302.068 550.2 301.717 550.851 302.042C551.912 302.565 551.476 305.125 550.311 306.366C549.147 306.16 547.905 306.212 547.794 306.905C547.76 307.137 547.786 307.393 547.965 307.59C548.471 308.13 547.726 308.498 547.965 308.797C548.017 308.866 548.179 308.926 548.334 308.926H550.174C550.44 308.926 550.671 309.08 550.782 309.26C551.108 309.816 550.26 311.152 549.558 311.982C546.801 312.359 544.626 313.926 542.931 316.023L541.253 317.325L539.258 319.294C536.544 317.393 526.827 311.049 524.866 313.258C524.49 313.686 524.532 314.2 524.567 314.782C523.873 313.9 522.897 313.386 521.733 313.198C518.848 312.744 515.894 313.309 513.325 314.671L511.981 315.587L504.755 316.794C504.473 314.619 505.252 312.984 507.212 311.999L510.423 310.381C512.195 309.482 512.161 308.404 513.077 307.342C513.086 307.684 512.966 307.907 513.154 308.267C514.01 307.719 515.012 307.179 515.603 306.332C516.048 305.698 515.671 304.782 515.62 304.08L516.322 303.875L548.941 298.575L548.95 298.566Z" fill="#A59A5D"/>
<path d="M466.681 334.74C466.758 334.911 466.835 335.117 466.955 335.134L467.477 335.211C467.554 335.502 467.134 335.716 467.049 335.879C466.895 336.487 466.937 337.078 467.237 337.625C467.588 337.591 467.922 337.429 468.23 337.583L467.794 339.038C467.708 339.329 468.136 339.646 468.05 339.929C467.931 340.365 467.314 340.485 467.408 341.504L466.74 342C466.638 342.951 465.807 342.737 465.773 343.242C465.756 343.55 466.235 343.678 466.073 343.935C466.03 343.995 465.208 344.226 465.336 344.509L465.593 345.108C465.448 345.297 465.071 345.425 465.071 345.665C465.071 345.862 465.302 346.119 465.388 346.315C465.276 346.666 464.831 346.829 464.634 347.172L464.908 349.184L473.581 348.559C474.198 348.516 474.925 348.276 475.49 348.559C475.936 349.466 474.497 349.997 475.353 351.35C475.627 351.786 475.807 352.163 476.312 352.403C477.374 352.925 476.621 354.115 477.579 354.261L478.59 354.406C478.667 354.517 478.872 354.594 478.838 354.766L478.71 355.365C479.232 355.391 479.626 355.656 479.703 356.05C479.9 357.069 478.615 357.146 478.239 358.19C478.144 358.456 477.93 358.618 477.716 358.747L478.966 359.834C479.292 360.117 479.42 360.545 479.163 360.887C478.992 361.11 478.581 361.349 478.247 361.118C477.819 360.819 477.502 360.271 476.98 360.1C476.561 359.963 476.098 360.305 475.713 360.596C475.499 360.433 475.533 360.211 475.533 359.911L474.412 361.743C474.18 362.12 473.787 362.163 473.427 362.171C473.033 362.18 472.871 361.692 472.597 361.581C470.987 361.332 470.978 362.248 470.619 362.3C470.285 362.343 470.045 362.189 469.711 362.103L467.151 361.418C466.8 361.324 466.518 361.076 466.424 360.784C466.33 360.493 466.424 360.185 466.681 359.903C465.722 359.226 464.651 359.064 463.496 359.046L460.217 358.987C459.035 358.961 457.759 359.055 456.732 358.481C456.235 358.199 455.884 357.976 455.268 358.113L452.845 358.653C452.511 358.73 452.186 358.644 451.972 358.473C451.424 358.045 451.698 357.034 452.186 356.17C452.426 355.75 452.152 355.442 451.963 355.219C452.023 354.834 452.023 354.209 452.254 353.815C452.477 353.439 452.725 353.199 452.537 352.711C452.4 352.351 452.434 351.863 452.665 351.529C452.931 351.144 452.905 350.725 453.051 350.331C453.222 349.868 453.384 349.543 453.051 349.064C452.383 348.113 453.444 347.052 452.357 345.964C451.783 345.391 451.672 344.663 451.321 343.97L450.765 342.848C450.585 342.48 450.097 342.206 450.08 341.709L449.883 335.399L466.681 334.757V334.74Z" fill="#888B54"/>
<path d="M482.968 319.389L482.866 320.459L482.789 322.291L482.849 328.25L482.797 333.37L482.943 339.62L483.191 344.037C483.242 344.988 483.26 346.015 483.123 346.948C483.063 347.376 482.403 347.787 482.9 348.404C483.225 348.806 482.737 349.251 482.729 349.594L482.686 351.794C482.686 352.051 482.635 352.496 482.386 352.676C482.001 352.958 481.616 352.496 481.393 352.291L480.109 352.684C479.33 352.753 478.602 353.13 478.011 353.652L478.576 354.405L477.566 354.26C476.607 354.106 477.352 352.924 476.299 352.402C475.802 352.154 475.614 351.777 475.34 351.349C474.484 349.996 475.922 349.465 475.477 348.558C474.921 348.267 474.184 348.506 473.568 348.558L464.895 349.183L464.621 347.171C464.818 346.828 465.255 346.674 465.375 346.315C465.289 346.118 465.058 345.861 465.058 345.664C465.058 345.424 465.434 345.296 465.58 345.108L465.323 344.508C465.203 344.226 466.025 343.995 466.059 343.935C466.231 343.678 465.743 343.549 465.76 343.241C465.794 342.736 466.624 342.95 466.727 342L467.395 341.503C467.309 340.484 467.917 340.364 468.037 339.928C468.114 339.645 467.695 339.328 467.78 339.037L468.217 337.582C467.9 337.428 467.575 337.59 467.224 337.625C466.933 337.077 466.881 336.495 467.035 335.878C467.121 335.716 467.541 335.51 467.464 335.21L466.941 335.133C466.821 335.116 466.753 334.902 466.667 334.74C466.599 334.234 466.761 333.738 467.07 333.198C466.813 332.959 466.522 332.924 466.214 332.787C466.445 331.983 467.369 331.478 466.659 331.075L465.811 331.846C465.46 331.375 465.794 330.947 465.905 330.544C466.077 329.885 466.453 329.543 466.804 328.995L467.01 327.231L467.523 326.906C467.866 326.683 467.318 325.878 467.969 325.279C468.191 325.074 468.465 324.979 468.893 325.133C469.398 324.098 468.928 323.181 469.981 322.83C470.169 321.931 470.237 320.887 470.897 320.288L482.96 319.397L482.968 319.389Z" fill="#A59A5D"/>
<path d="M481.582 269.364C482.07 270.417 482.772 271.033 483.954 270.845C484.818 270.708 485.392 269.954 486.06 269.74C487.661 269.252 489.356 269.132 491.068 269.141L496.257 269.175L499.056 288.687C498.816 288.875 498.594 289.038 498.525 289.184C498.363 289.552 498.911 290.074 498.5 290.545C498.38 290.682 498.08 290.836 497.832 290.81C497.207 290.759 496.933 290.99 496.393 291.29C496.12 291.444 495.34 291.255 495.229 291.778L494.715 294.115C493.029 294.586 493.996 295.785 493.371 296.564C492.84 296.504 492.489 296.589 492.044 296.778C491.171 296.495 490.794 295.356 490.041 295.887C489.399 296.341 490.443 296.932 489.424 297.848C488.611 298.576 487.704 297.463 486.779 298.422C485.555 298.036 484.219 297.916 482.96 298.225C482.344 298.379 481.976 298.61 481.899 299.338C481.248 298.293 482.37 297.334 481.959 296.701C481.548 296.067 482.216 295.793 482.729 294.312L483.431 292.3C484.133 290.279 483.02 290.716 482.849 289.757C482.781 289.381 483.02 289.089 483.115 288.738C483.44 287.565 483.166 286.435 483.046 285.228L481.582 269.355V269.364Z" fill="#E3BE5D"/>
<path d="M539.25 319.294C538.71 319.825 538.214 320.304 537.846 321.041L536.279 324.14C536.142 324.405 535.902 324.619 535.714 324.688C535.457 324.791 535.123 324.671 534.841 324.542C534.447 325.15 534.738 325.767 535.012 326.494C534.669 326.494 534.276 326.417 534.002 326.589C533.359 326.974 533.479 328.524 532.469 328.746C531.39 327.428 531.228 330.219 530.517 330.142C530.354 330.125 530.226 330.047 530.012 329.919C529.841 330.578 529.344 330.775 528.796 331.058C528.531 331.195 529.036 332.351 528.531 332.368C528.385 332.368 528.248 332.231 527.974 332.162C528.06 333.327 528.163 334.285 527.469 334.345C526.176 334.08 524.952 332.094 523.908 330.809C523.556 329.38 522.692 328.224 521.536 327.351L518.214 324.851L515.885 322.779L514.182 320.373C513.702 319.697 512.992 319.251 512.084 319.32C510.86 318.053 511.022 316.974 511.99 315.596L513.334 314.68C515.902 313.318 518.865 312.753 521.741 313.207C522.906 313.395 523.882 313.909 524.575 314.791C524.541 314.209 524.49 313.695 524.875 313.267C526.827 311.067 536.544 317.402 539.267 319.303L539.25 319.294Z" fill="#F3D065"/>
<path d="M565.937 244.785C563.984 244.442 565.055 243.329 563.616 242.756L560.277 232.199C561.022 231.746 560.688 230.847 561.741 229.836C562.007 228.561 561.425 227.593 562.563 226.181C561.887 221.823 561.93 216.489 564.601 212.953C565.106 213.707 565.517 214.349 566.253 214.708C567.067 214.854 567.769 214.357 568.231 213.689C569.558 213.167 570.902 213.775 571.656 214.982C572.186 215.83 572.495 216.754 572.726 217.748L573.847 222.602C574.079 223.612 574.498 224.742 575.363 225.333L576.596 225.65C577.067 226.121 577.52 226.429 578.137 226.686C578.222 228.21 579.01 227.919 579.096 228.218C579.215 228.655 578.89 229.057 579.036 229.357C579.087 229.468 579.464 229.511 579.481 229.631C579.566 230.316 578.847 230.778 578.231 230.949C575.628 231.652 574.584 233.312 573.197 233.569C572.366 233.723 571.75 233.783 571.296 234.588L570.132 236.66L567.7 240.05L566.972 242.182C566.664 243.081 566.108 243.843 565.937 244.785Z" fill="#F3D065"/>
<path d="M479.382 245.348C478.355 246.11 478.363 244.654 477.131 245.056C477.028 244.038 477.833 242.779 477.387 242.625L475.692 242.034L475.333 241.255L473.158 241.007L467.465 239.603C466.377 239.329 464.751 238.652 464.622 237.925C464.562 237.591 464.605 237.146 464.828 236.94L465.573 236.23C466.934 235.981 468.081 235.305 469.134 234.414L472.893 231.238C473.663 230.587 474.673 230.348 475.641 230.596C474.665 231.752 473.723 232.779 473.227 234.252C473.886 234.252 474.237 233.747 474.742 233.327C475.084 233.541 475.076 233.901 474.99 234.423C475.435 234.243 475.727 234.141 476.146 234.363C476.155 234.629 476.095 234.885 476.223 235.125C476.591 234.988 476.728 234.851 477.028 234.611C477.319 235.031 477.747 234.92 478.081 235.082L479.802 235.921C480.358 236.187 480.838 236.478 481.266 236.992L484.048 235.125C485.607 234.081 488.5 233.002 489.776 234.149C489.964 234.774 490.05 235.365 490.958 235.433L492.507 235.553C493.475 235.63 494.117 236.384 494.434 237.18C494.519 237.385 495.05 237.642 494.793 237.925C494.297 238.456 493.406 238.344 492.738 238.55C492.567 238.712 492.653 239.192 492.764 239.466C492.225 239.646 491.831 239.397 491.343 239.132C490.444 238.635 489.262 238.182 488.286 238.644L486.831 239.337C485.615 239.911 484.69 240.861 483.62 241.649C483.372 241.829 483.167 242.034 482.815 241.966L483.149 240.313C482.473 240.613 482.405 241.281 481.994 241.726C481.72 242.026 481.266 241.88 481.069 241.486C479.956 241.974 480.127 243.995 479.365 245.33L479.382 245.348Z" fill="#A59A5D"/>
<path d="M550.451 281.683C550.879 282.188 551.281 282.95 551.084 283.687C550.836 284.611 550.023 285.202 549.329 285.759C548.747 286.229 548.815 287.017 548.73 287.77C548.456 287.856 547.737 287.873 547.523 287.582C546.606 286.332 547.214 284.654 546.17 284.646C546.041 284.842 545.999 285.75 545.502 285.613C544.158 285.245 544.124 282.719 543.156 281.837C542.916 281.623 542.505 281.837 542.377 282.009C542.206 282.231 542.129 282.591 542.291 282.89L543.927 285.921C544.141 286.315 543.961 286.803 543.584 286.923C542.788 287.18 542.685 285.913 542.369 285.938L540.151 286.118C539.817 286.144 539.483 286.221 539.355 286.478C539.192 286.512 538.952 286.461 538.884 286.332C538.576 285.776 539.569 284.885 539.406 283.918C539.132 282.248 536.983 282.668 536.547 281.358C536.238 280.408 535.391 281.084 533.85 279.954C533.225 279.5 532.685 279.551 531.983 279.509C530.203 279.397 529.911 279.92 528.721 281.512L527.275 283.464C527.086 283.721 526.787 283.824 526.521 283.824C525.725 283.841 525.074 282.402 524.826 281.264C524.192 278.456 527.112 277.069 529.783 276.452C531.983 275.938 534.167 275.69 536.435 275.605L543.584 275.339L544.449 275.176C544.877 275.262 545.314 275.194 545.759 274.945C546.067 277.531 546.512 282.591 548.927 281.812C549.449 281.649 549.954 281.572 550.442 281.683H550.451Z" fill="#A59A5D"/>
<path d="M565.939 244.783C566.641 244.903 566.624 247.069 565.648 247.608C565.289 247.805 565.04 248.079 564.681 248.422L563.157 249.86L557.249 251.35C556.856 251.453 556.744 251.273 556.53 251.239C556.667 250.648 556.53 250.126 556.222 249.612C555.571 248.559 556.41 247.634 556.059 247.086C555.743 246.598 556.059 246.23 556.042 245.785C556.042 245.485 555.503 245.126 555.811 244.629C556.094 244.184 555.965 243.644 555.845 243.122L556.077 241.718L555.726 240.417C555.383 239.15 557.249 239.167 557.309 237.172C557.087 236.59 557.095 236.042 557.395 235.477C557.053 235.057 556.95 234.629 557.027 234.184C557.609 234.056 557.746 233.627 557.917 233.114C558.088 232.6 559.099 232.925 560.272 232.215L563.611 242.771C565.049 243.345 563.979 244.458 565.931 244.8L565.939 244.783Z" fill="#A59A5D"/>
<path d="M557.034 234.184C556.957 234.629 557.059 235.057 557.402 235.476C557.111 236.041 557.094 236.589 557.316 237.172C557.256 239.166 555.39 239.149 555.732 240.416L556.083 241.718L555.852 243.122C555.963 243.644 556.092 244.175 555.818 244.629C555.51 245.125 556.04 245.485 556.049 245.784C556.058 246.238 555.749 246.598 556.066 247.086C556.417 247.634 555.578 248.558 556.229 249.611C556.546 250.125 556.674 250.647 556.537 251.238C555.552 251.11 554.268 251.837 553.07 251.82L552.907 249.954C552.761 248.284 551.888 246.88 551.16 245.451L551.006 243.165C550.758 242.326 550.689 241.461 550.998 240.613C551.255 239.886 551.152 239.492 550.835 238.79L550.441 237.095C550.33 236.598 550.424 236.093 550.176 235.665L557.042 234.184H557.034Z" fill="#F3D065"/>
<path d="M553.324 266.871C553.093 267.06 553.059 267.471 552.956 267.762C552.742 267.659 552.613 267.59 552.519 267.599C552.408 267.608 552.339 267.873 552.399 267.933C552.716 268.258 553.932 268.695 553.392 269.936C552.956 270.947 553.88 272.565 553.255 273.917C552.956 274.568 552.622 275.073 552.673 275.818C552.733 276.64 552.331 277.316 551.894 277.967L551.355 279.542C551.244 279.859 550.961 280.048 550.67 280.039C550.396 280.039 550.045 279.816 550.028 279.5L549.925 277.993C549.463 278.395 548.915 278.344 548.641 277.924C548.461 277.65 548.23 277.685 548.033 277.599C547.716 277.462 547.434 277.094 547.143 276.786C547.1 276.683 547.331 276.46 547.442 276.426C547.211 276.101 547.28 275.767 547.134 275.433L546.911 274.893C546.86 274.765 547.04 274.594 547.151 274.474L548.641 272.976C548.846 272.77 549.052 272.162 549.077 271.846L548.649 270.21C548.358 269.799 548.007 269.602 547.768 269.046C547.656 268.781 547.1 268.592 547.083 268.096L546.997 265.861L547.853 264.149C547.956 263.644 548.084 263.353 548.324 262.984C548.598 263.241 549.035 263.121 549.377 263.233L552.271 264.2C552.99 264.44 553.05 265.493 552.87 266.109C552.75 266.503 553.033 266.846 553.315 266.854L553.324 266.871Z" fill="#F3D065"/>
<path d="M565.653 247.607C565.73 248.926 567.066 248.703 566.8 249.166C566.604 249.508 565.901 249.457 565.67 250.707C565.413 252.145 567.1 251.118 567.4 252.487C567.511 252.984 567.862 253.249 568.307 253.429C568.701 253.592 568.761 254.148 569.086 254.345L569.883 254.825C570.157 255.236 569.908 255.655 569.634 255.963C569.463 256.16 569.078 256.494 568.735 256.272C568.342 256.023 568.282 255.484 567.991 255.116C566.98 255.981 566.937 256.683 566.715 256.94C565.67 256.195 564.951 255.202 564.429 254.011L562.22 254.38L553.008 256.409C553.085 254.893 553.325 253.327 553.059 251.82C554.258 251.828 555.542 251.101 556.527 251.238C556.741 251.263 556.852 251.443 557.246 251.349L563.153 249.859L564.677 248.421C565.037 248.087 565.285 247.804 565.645 247.607H565.653Z" fill="#E3BE5D"/>
<path d="M562.22 254.389L563.213 258.824C563.239 258.953 563.316 259.038 563.401 259.081C563.136 259.441 562.802 259.501 562.28 259.526C561.655 259.561 561.167 260.348 560.636 260.511C559.591 260.828 558.581 260.939 557.622 261.504L556.629 262.086C556.209 262.335 555.773 262.489 555.713 263.148L554.506 263.696L552.913 256.872C552.862 256.641 553.007 256.53 553.016 256.41L562.228 254.381L562.22 254.389Z" fill="#A59A5D"/>
<path d="M547.159 274.492C547.048 274.604 546.868 274.775 546.919 274.912L547.142 275.451C547.279 275.794 547.219 276.128 547.45 276.445C547.339 276.479 547.116 276.701 547.15 276.804C547.442 277.112 547.724 277.48 548.041 277.617L548.349 279.081C548.477 279.689 549.145 279.98 549.616 280.366C550.113 280.7 550.481 281.119 550.447 281.693C549.959 281.581 549.453 281.65 548.931 281.821C546.508 282.592 546.072 277.54 545.763 274.955C545.318 275.212 544.882 275.28 544.454 275.186C544.411 274.792 544.693 274.741 544.942 274.578C545.678 274.107 546.44 274.073 547.159 274.501V274.492Z" fill="#888B54"/>
<path d="M566.714 256.949C566.602 257.069 566.825 257.411 566.422 257.462C565.84 257.54 565.909 256.29 565.207 256.615C564.505 256.94 565.224 257.711 565.044 258.302C564.402 258.361 563.751 258.618 563.4 259.089C563.315 259.046 563.246 258.961 563.212 258.832L562.219 254.397L564.428 254.029C564.941 255.219 565.669 256.212 566.714 256.957V256.949Z" fill="#888B54"/>
<path d="M397.67 247.823L396.643 262.463L395.693 275.973L393.141 275.811C385.111 275.126 377.183 274.175 369.203 273.122C369.186 273.285 369.083 273.79 368.887 273.764L358.664 272.318L359.811 264.783L362.508 246.804L362.816 244.287L397.67 247.823Z" fill="#E3BE5D"/>
<path d="M435.684 267.035L436.07 268.73C436.369 269.201 436.712 269.543 436.318 270.177L436.815 270.836C436.669 271.384 436.909 271.641 437.2 272.018L437.414 273.807C437.662 274.286 438.287 274.518 438.047 275.28C437.919 275.682 438.159 276.144 438.441 276.427C438.827 276.795 438.578 277.403 438.638 277.779L438.921 279.552C439.195 280.168 439.794 280.493 439.905 281.187C440.017 281.88 440.034 282.942 440.624 283.464C441.369 284.124 442.037 284.68 442.054 285.699L429.383 285.802L406.438 284.757C406.207 284.749 405.967 284.757 405.633 284.646L405.967 277.232C402.491 277.394 399.152 277.223 395.676 276.983C395.591 276.581 395.668 276.281 395.685 275.973L396.635 262.463L410.351 263.302L424.666 263.816C425.496 263.841 426.327 263.713 426.977 264.321C428.193 265.442 429.503 264.595 431.053 264.954L433.279 265.468C433.869 265.605 434.357 266.607 435.214 266.384L435.667 267.026L435.684 267.035Z" fill="#A59A5D"/>
<path d="M442.059 285.699C442.068 286.512 443.48 286.153 443.72 286.572C444.131 287.283 442.83 288.644 443.609 289.766L444.996 291.075C445.227 291.29 445.621 291.452 445.638 291.906L446.186 306.829C432.581 306.906 419.003 306.589 405.441 305.904L406.452 284.766L429.397 285.81L442.068 285.707L442.059 285.699Z" fill="#E3BE5D"/>
<path d="M405.435 305.895C418.996 306.58 432.583 306.897 446.179 306.82C446.256 306.897 446.368 306.999 446.376 307.179L446.513 310.809L447.207 330.39L446.385 329.782C445.811 329.85 445.537 329.473 445.126 329.328C444.647 329.157 444.184 329.157 443.782 328.84C443.131 328.335 442.463 328.592 441.856 328.926C441.342 328.814 440.725 328.515 440.109 328.72C438.987 329.088 437.832 329.071 436.676 329.174C435.999 329.234 435.477 329.277 434.886 328.9C434.458 328.626 433.902 329.08 433.5 329.062C432.815 329.028 432.018 328.557 431.368 328.934C430.982 329.157 430.691 329.448 430.203 329.379C429.57 329.285 429.244 328.369 428.885 328.318C428.508 328.266 427.729 329.491 427.395 329.003L426.316 327.436C424.544 327.838 423.859 326.999 423.748 326.982L420.769 326.528C420.34 326.46 420.323 324.645 418.894 325.004C418.226 325.176 417.849 324.542 416.907 324.739L415.931 323.532L415.255 323.301L415.657 309.534L412.455 309.439L401.145 309.046C400.546 309.029 400.058 309.003 399.527 308.926L399.724 305.287L401.163 305.467L405.452 305.904L405.435 305.895Z" fill="#A59A5D"/>
<path d="M470.904 320.278C470.244 320.878 470.176 321.922 469.987 322.821C468.934 323.172 469.405 324.088 468.9 325.124C468.472 324.962 468.198 325.056 467.976 325.27C467.325 325.869 467.873 326.674 467.53 326.896L467.017 327.222L466.811 328.985C466.469 329.533 466.092 329.876 465.912 330.535C465.809 330.929 465.476 331.366 465.818 331.836L466.666 331.066C467.376 331.468 466.46 331.973 466.22 332.778C466.529 332.915 466.82 332.949 467.077 333.189C466.768 333.729 466.606 334.225 466.674 334.73L449.876 335.372L449.679 330.176L448.036 330.843C447.813 330.938 447.565 331.023 447.368 330.818C447.282 330.723 447.214 330.552 447.205 330.381L446.512 310.801L448.609 310.775L471.203 309.551C472.068 310.784 470.441 311.674 470.775 313.035C471.828 313.112 472.804 313.035 473.977 312.89C473.814 314.26 472.402 315.253 472.53 315.938C472.659 316.623 472.291 316.897 471.982 317.393C471.631 317.958 472.53 319.508 471.426 319.85C471.152 319.936 471.058 320.133 470.895 320.278H470.904Z" fill="#E3BE5D"/>
<path d="M461.793 281.496L461.768 281.77C461.665 281.804 461.665 281.941 461.793 281.932C462.033 282.472 461.948 283.037 461.853 283.645C461.768 284.193 462.11 284.715 462.196 285.211C462.418 286.487 463.129 287.403 464.233 288.028L465.201 289.15C467.307 289.954 465.912 292.103 467.615 292.566C467.889 292.412 468.215 291.949 468.557 291.984C468.9 292.018 469.216 292.129 469.422 292.506C469.85 293.268 469.781 294.141 469.379 294.92L469.054 296.153C468.968 296.487 468.737 296.983 469.071 297.249C469.696 297.728 470.235 298.233 470.715 298.867C471.528 299.937 472.701 299.081 472.727 299.834C472.769 301.05 474.156 300.973 473.831 303.208C473.677 304.252 474.67 305.348 475.646 305.708C476.083 306.521 475.988 307.608 475.886 308.447C475.509 308.49 475.184 308.396 474.91 308.559C474.704 308.679 474.627 309.09 474.584 309.286L482.966 309.064L483.095 307.317L492.632 306.829L504.986 305.485L515.62 304.072C515.68 304.774 516.048 305.691 515.603 306.324C515.003 307.172 514.01 307.711 513.154 308.259C512.957 307.891 513.086 307.668 513.077 307.334C512.161 308.396 512.195 309.475 510.423 310.374L507.212 311.992C505.243 312.985 504.473 314.62 504.755 316.786L497.444 318.028L482.966 319.372L470.903 320.262C471.057 320.117 471.151 319.92 471.434 319.834C472.538 319.483 471.639 317.942 471.99 317.377C472.298 316.881 472.658 316.598 472.538 315.922C472.418 315.245 473.831 314.244 473.985 312.874C472.812 313.019 471.828 313.096 470.783 313.019C470.441 311.658 472.076 310.768 471.211 309.535L448.617 310.759L446.52 310.785L446.383 307.155C446.383 306.983 446.263 306.872 446.186 306.795L445.638 291.872C445.621 291.427 445.227 291.256 444.996 291.042L443.609 289.732C442.83 288.619 444.131 287.258 443.72 286.538C443.48 286.119 442.076 286.478 442.059 285.665C442.042 284.646 441.374 284.09 440.629 283.431C440.039 282.908 440.021 281.838 439.91 281.153L460.603 280.451C460.989 280.939 461.357 281.239 461.802 281.461L461.793 281.496Z" fill="#F3D065"/>
<path d="M462.071 259.629C462.242 260.836 463.073 261.966 462.713 262.377C461.669 263.584 462.927 263.875 463.218 265.305C463.381 266.093 464.725 265.511 465.282 266.53C465.41 266.675 465.855 266.607 466.01 266.564L467.628 268.721C468.595 269.98 468.878 271.803 467.919 273.139C466.96 274.475 464.169 274.714 463.929 276.683C464.683 277.933 464.511 279.517 463.201 280.399L462.345 281.213C462.157 281.392 461.986 281.504 461.78 281.504C461.335 281.281 460.975 280.981 460.582 280.493L439.888 281.195C439.777 280.493 439.169 280.177 438.904 279.56L438.621 277.788C438.561 277.411 438.81 276.803 438.424 276.435C438.133 276.161 437.902 275.699 438.03 275.288C438.27 274.535 437.645 274.295 437.397 273.815L437.183 272.026C436.892 271.649 436.652 271.392 436.798 270.845L436.301 270.185C436.686 269.56 436.352 269.209 436.053 268.738L435.667 267.043C435.873 266.829 435.685 266.555 435.702 266.273L435.779 264.92C435.59 264.235 435.573 263.636 435.907 263.011C436.087 262.66 435.659 262.369 435.59 262.137C435.445 261.709 435.71 261.264 435.719 260.896H436.875V260.262L453.398 260.091L462.063 259.637L462.071 259.629Z" fill="#E3BE5D"/>
<path d="M461.795 281.93C461.667 281.938 461.667 281.802 461.769 281.768C461.769 281.81 461.769 281.887 461.795 281.93Z" fill="#E3BE5D"/>
<path d="M435.084 242.625L435.632 242.608L435.23 243.841C434.691 245.468 435.615 246.461 436.78 247.694L436.891 260.245V260.896L435.744 260.887C435.744 261.255 435.47 261.7 435.615 262.129C435.692 262.36 436.12 262.651 435.932 263.002C435.607 263.627 435.624 264.226 435.804 264.911L435.726 266.264C435.709 266.555 435.898 266.82 435.692 267.034L435.238 266.392C434.374 266.615 433.886 265.605 433.304 265.476L431.078 264.962C429.528 264.603 428.218 265.45 427.002 264.329C426.352 263.73 425.521 263.858 424.691 263.824L410.376 263.31L396.66 262.471L397.688 247.831L398.141 241.17L422.73 242.446L435.101 242.634L435.084 242.625Z" fill="#F3D065"/>
</g>
<defs>
<clipPath id="clip0_2384_731">
<rect width="817.627" height="440.919" fill="white" transform="translate(9.41797 167.336)"/>
</clipPath>
<clipPath id="clip1_2384_731">
<rect width="827.045" height="576.192" fill="white" transform="translate(0 53.4668)"/>
</clipPath>
<clipPath id="clip2_2384_731">
<rect width="314.08" height="209.741" fill="white" transform="translate(265.41 206.719)"/>
</clipPath>
</defs>
</svg>
