<svg width="80" height="79" viewBox="0 0 80 79" fill="none" xmlns="http://www.w3.org/2000/svg">
<g clip-path="url(#clip0_2727_16858)">
<path d="M4.2749 0.493835H67.0403C69.1243 0.493835 70.8231 2.18272 70.8231 4.27655V49.2049C70.8231 51.2889 69.1342 52.9877 67.0403 52.9877H4.2749C2.19095 52.9877 0.492188 51.2988 0.492188 49.2049V4.27655C0.492188 2.18272 2.18108 0.493835 4.2749 0.493835Z" fill="#E9E1CE"/>
<path d="M67.0305 0.493835H4.2749C2.18577 0.493835 0.492188 2.18742 0.492188 4.27655V49.1951C0.492188 51.2842 2.18577 52.9778 4.2749 52.9778H67.0305C69.1196 52.9778 70.8132 51.2842 70.8132 49.1951V4.27655C70.8132 2.18742 69.1196 0.493835 67.0305 0.493835Z" stroke="#101727" stroke-linejoin="round"/>
<path d="M4.2749 0.493835H67.0403C69.1243 0.493835 70.8231 2.18272 70.8231 4.27655V10.8938H0.492188V4.27655C0.492188 2.18272 2.18108 0.493835 4.2749 0.493835Z" fill="#E9BE51"/>
<path d="M4.2749 0.493835H67.0403C69.1243 0.493835 70.8231 2.18272 70.8231 4.27655V10.8938H0.492188V4.27655C0.492188 2.18272 2.18108 0.493835 4.2749 0.493835Z" stroke="#101727" stroke-linejoin="round"/>
<path d="M8.05829 3.90125C9.10521 3.90125 9.94471 4.75063 9.94471 5.78767C9.94471 6.8247 9.09533 7.67408 8.05829 7.67408C7.02126 7.67408 6.17188 6.8247 6.17188 5.78767C6.17188 4.75063 7.02126 3.90125 8.05829 3.90125Z" fill="#E8BD51"/>
<path d="M8.05829 7.67408C9.10014 7.67408 9.94471 6.82951 9.94471 5.78767C9.94471 4.74582 9.10014 3.90125 8.05829 3.90125C7.01645 3.90125 6.17188 4.74582 6.17188 5.78767C6.17188 6.82951 7.01645 7.67408 8.05829 7.67408Z" stroke="#101727" stroke-miterlimit="10"/>
<path d="M15.613 3.90125C16.6599 3.90125 17.4994 4.75063 17.4994 5.78767C17.4994 6.8247 16.65 7.67408 15.613 7.67408C14.5759 7.67408 13.7266 6.8247 13.7266 5.78767C13.7266 4.75063 14.5759 3.90125 15.613 3.90125Z" fill="#E8BD51"/>
<path d="M15.613 7.67408C16.6548 7.67408 17.4994 6.82951 17.4994 5.78767C17.4994 4.74582 16.6548 3.90125 15.613 3.90125C14.5711 3.90125 13.7266 4.74582 13.7266 5.78767C13.7266 6.82951 14.5711 7.67408 15.613 7.67408Z" stroke="#101727" stroke-miterlimit="10"/>
<path d="M23.1794 3.90125C24.2263 3.90125 25.0658 4.75063 25.0658 5.78767C25.0658 6.8247 24.2164 7.67408 23.1794 7.67408C22.1424 7.67408 21.293 6.8247 21.293 5.78767C21.293 4.75063 22.1424 3.90125 23.1794 3.90125Z" fill="#E8BD51"/>
<path d="M23.1794 7.67408C24.2212 7.67408 25.0658 6.82951 25.0658 5.78767C25.0658 4.74582 24.2212 3.90125 23.1794 3.90125C22.1375 3.90125 21.293 4.74582 21.293 5.78767C21.293 6.82951 22.1375 7.67408 23.1794 7.67408Z" stroke="#101727" stroke-miterlimit="10"/>
<path d="M29.6081 25.7087L25.3711 30.726L29.6081 35.7432" stroke="#0B6B50" stroke-linecap="round" stroke-linejoin="round"/>
<path d="M42.1016 25.7087L46.3386 30.726L42.1016 35.7432" stroke="#0B6B50" stroke-linecap="round" stroke-linejoin="round"/>
<path d="M38.1815 25.4222L33.5 35.9803" stroke="#0B6B50" stroke-linecap="round" stroke-linejoin="round"/>
<path d="M78.4379 56.1679H75.0502C74.7045 54.7062 74.1613 53.3333 73.4305 52.0691L75.6329 49.8667C76.0478 49.4519 76.0478 48.7704 75.6329 48.3556L72.2255 44.9482C71.8107 44.5333 71.1292 44.5333 70.7144 44.9482L68.6799 46.9827C67.1885 45.9753 65.4996 45.2346 63.6922 44.8099V42.1037C63.6922 41.5111 63.2082 41.037 62.6255 41.037H57.8157C57.2231 41.037 56.749 41.521 56.749 42.1037V44.8099C55.0403 45.2148 53.4403 45.8963 52.0082 46.8247L50.3687 45.1852C49.9539 44.7704 49.2724 44.7704 48.8576 45.1852L45.4502 48.5926C45.0354 49.0074 45.0354 49.6889 45.4502 50.1037L47.1589 51.8124C46.3589 53.1457 45.7564 54.6074 45.391 56.1679H43.2971C42.7045 56.1679 42.2305 56.6519 42.2305 57.2346V62.0445C42.2305 62.637 42.7144 63.1111 43.2971 63.1111H45.391C45.8157 64.9185 46.5564 66.5975 47.5638 68.0988L45.8749 69.7877C45.4601 70.2025 45.4601 70.884 45.8749 71.2988L49.2823 74.7062C49.6971 75.121 50.3786 75.121 50.7934 74.7062L52.6502 72.8494C53.9144 73.5803 55.2873 74.1235 56.749 74.4691V77.2445C56.749 77.837 57.2329 78.3111 57.8157 78.3111H62.6255C63.2181 78.3111 63.6922 77.8272 63.6922 77.2445V74.4691C65.2428 74.1037 66.7144 73.5012 68.0478 72.7012L70.2897 74.9432C70.7045 75.358 71.386 75.358 71.8008 74.9432L75.2082 71.5358C75.6231 71.121 75.6231 70.4395 75.2082 70.0247L73.0354 67.8519C73.9638 66.4198 74.6453 64.8198 75.0502 63.1111H78.4379C79.0305 63.1111 79.5045 62.6272 79.5045 62.0445V57.2346C79.5045 56.642 79.0206 56.1679 78.4379 56.1679ZM60.2255 66.0247C56.7095 66.0247 53.8453 63.1605 53.8453 59.6445C53.8453 56.1284 56.7095 53.2642 60.2255 53.2642C63.7416 53.2642 66.6058 56.1284 66.6058 59.6445C66.6058 63.1605 63.7416 66.0247 60.2255 66.0247Z" fill="#01654D" stroke="#101727" stroke-miterlimit="10"/>
</g>
<defs>
<clipPath id="clip0_2727_16858">
<rect width="80" height="78.8049" fill="white"/>
</clipPath>
</defs>
</svg>
