<svg width="80" height="81" viewBox="0 0 80 81" fill="none" xmlns="http://www.w3.org/2000/svg">
<path d="M35.2118 14.9609H0L5.29535 27.2385H40.5071L35.2118 14.9609Z" fill="#01654D"/>
<path d="M63.815 0.5H17V27.2395H63.815V0.5Z" fill="#E9BE51" stroke="#E9BE51" stroke-miterlimit="10"/>
<path d="M80.0024 14.9609H45.8067L40.5078 27.2385H74.7036L80.0024 14.9609Z" fill="#01654D"/>
<path d="M74.3828 27.5625V79.8232H39.5547V27.5625H74.3828Z" fill="#01654D" stroke="#101727"/>
<path d="M40.1738 27.5625V79.8232H5.60938V27.5625H40.1738Z" fill="#EAE2CF" stroke="#101727"/>
<path d="M40.4054 64.4626C46.3636 64.4626 51.1937 59.6392 51.1937 53.6893C51.1937 47.7394 46.3636 42.916 40.4054 42.916C34.4473 42.916 29.6172 47.7394 29.6172 53.6893C29.6172 59.6392 34.4473 64.4626 40.4054 64.4626Z" fill="#E9BE51"/>
<path d="M38.9343 57.8514L34.5703 54.1029L35.5158 53.0073L38.8602 55.8891L45.221 49.5371L46.2405 50.5588L38.9343 57.8514Z" fill="#101727"/>
</svg>
