<?xml version="1.0" encoding="UTF-8"?>
<svg id="Capa_2" data-name="Capa 2" xmlns="http://www.w3.org/2000/svg" xmlns:xlink="http://www.w3.org/1999/xlink" viewBox="0 0 114 155">
  <defs>
    <style>
      .cls-1, .cls-2 {
        fill: none;
      }

      .cls-2, .cls-3, .cls-4 {
        stroke: #101727;
        stroke-miterlimit: 10;
      }

      .cls-5 {
        fill: #ecc146;
      }

      .cls-3 {
        fill: #09644a;
      }

      .cls-6 {
        clip-path: url(#clippath);
      }

      .cls-4 {
        fill: #eae2cf;
      }
    </style>
    <clipPath id="clippath">
      <rect class="cls-1" width="114" height="155"/>
    </clipPath>
  </defs>
  <g id="Capa_1-2" data-name="Capa 1">
    <g class="cls-6">
      <g>
        <path class="cls-5" d="M114,16.23H0v138.76h114V16.23Z"/>
        <path class="cls-4" d="M100.11,30.12H13.89v110.98h86.21V30.12Z"/>
        <path class="cls-3" d="M67.97,11.71c0-.14.02-.26.02-.4,0-6.06-4.92-10.98-10.99-10.98s-10.99,4.92-10.99,10.98c0,.14.01.26.02.4h-20.4v23.31h62.74V11.71h-20.4Z"/>
        <path class="cls-2" d="M25.63,61.23h62.74"/>
        <path class="cls-2" d="M25.63,77.01h62.74"/>
        <path class="cls-2" d="M25.63,69.12h62.74"/>
        <path class="cls-2" d="M25.63,85.62h62.74"/>
        <path class="cls-2" d="M25.63,93.5h62.74"/>
        <path class="cls-2" d="M25.63,109.29h62.74"/>
        <path class="cls-2" d="M25.63,101.39h62.74"/>
      </g>
    </g>
  </g>
</svg>