<?xml version="1.0" encoding="UTF-8"?>
<svg id="Capa_2" data-name="Capa 2" xmlns="http://www.w3.org/2000/svg" viewBox="0 0 122.99 168.34">
  <defs>
    <style>
      .cls-1, .cls-2, .cls-3, .cls-4 {
        stroke-miterlimit: 10;
      }

      .cls-1, .cls-2, .cls-4 {
        stroke: #101727;
      }

      .cls-1, .cls-3 {
        fill: none;
      }

      .cls-5 {
        fill: #ecc146;
      }

      .cls-2 {
        fill: #09644a;
      }

      .cls-3 {
        stroke: #ecc146;
      }

      .cls-4 {
        fill: #eae2cf;
      }
    </style>
  </defs>
  <g id="Capa_1-2" data-name="Capa 1">
    <g>
      <path class="cls-5" d="M57.88,97.16H0V.25h51.64s9.33,17.09,9.33,17.09h62.02s0,79.84,0,79.84h-58.93s-6.18-.01-6.18-.01h0Z"/>
      <path class="cls-1" d="M51.64.24l15.98,29.91"/>
      <path class="cls-3" d="M111.79,111.69H23.38"/>
      <path class="cls-4" d="M83.37,119.07c4.07,0,7.37-3.3,7.37-7.38s-3.3-7.38-7.37-7.38-7.37,3.3-7.37,7.38,3.3,7.38,7.37,7.38Z"/>
      <path class="cls-4" d="M39.61,119.07c4.07,0,7.37-3.3,7.37-7.38s-3.3-7.38-7.37-7.38-7.37,3.3-7.37,7.38,3.3,7.38,7.37,7.38Z"/>
      <path class="cls-3" d="M23.38,111.69c-6.73,0-12.18,5.46-12.18,12.19s5.45,12.19,12.18,12.19"/>
      <path class="cls-3" d="M99.61,136.08c6.73,0,12.18,5.46,12.18,12.19s-5.45,12.19-12.18,12.19"/>
      <path class="cls-3" d="M99.61,160.46H11.2"/>
      <path class="cls-3" d="M99.61,136.08H23.38"/>
      <path class="cls-1" d="M61.49,111.69v-51.77"/>
      <path class="cls-3" d="M61.49,160.46v-48.77"/>
      <path class="cls-2" d="M61.49,119.07c4.07,0,7.37-3.3,7.37-7.38s-3.3-7.38-7.37-7.38-7.37,3.3-7.37,7.38,3.3,7.38,7.37,7.38Z"/>
      <path class="cls-2" d="M61.49,74.45c8.02,0,14.52-6.51,14.52-14.53s-6.5-14.53-14.52-14.53-14.52,6.51-14.52,14.53,6.5,14.53,14.52,14.53Z"/>
      <path class="cls-2" d="M83.37,167.84c4.07,0,7.37-3.3,7.37-7.38s-3.3-7.38-7.37-7.38-7.37,3.3-7.37,7.38,3.3,7.38,7.37,7.38Z"/>
      <path class="cls-4" d="M61.49,167.84c4.07,0,7.37-3.3,7.37-7.38s-3.3-7.38-7.37-7.38-7.37,3.3-7.37,7.38,3.3,7.38,7.37,7.38Z"/>
      <path class="cls-2" d="M39.61,167.84c4.07,0,7.37-3.3,7.37-7.38s-3.3-7.38-7.37-7.38-7.37,3.3-7.37,7.38,3.3,7.38,7.37,7.38Z"/>
    </g>
  </g>
</svg>