<svg width="114" height="155" viewBox="0 0 114 155" fill="none" xmlns="http://www.w3.org/2000/svg">
<g clip-path="url(#clip0_2343_1017)">
<path d="M114 16.2324H0V154.993H114V16.2324Z" fill="#E9BE51"/>
<path d="M100.105 30.125H13.8945V141.103H100.105V30.125Z" fill="#EAE2CF" stroke="#101727" stroke-miterlimit="10"/>
<path d="M67.9688 11.7056C67.9688 11.5706 67.9881 11.4419 67.9881 11.3069C67.9881 5.24219 63.0671 0.322266 57.0011 0.322266C50.9351 0.322266 46.0141 5.24219 46.0141 11.3069C46.0141 11.4419 46.0269 11.5706 46.0334 11.7056H25.6289V35.0125H88.3733V11.7056H67.9688Z" fill="#01654D" stroke="#101727" stroke-miterlimit="10"/>
<path d="M25.6289 61.2324H88.3733" stroke="#101727" stroke-miterlimit="10"/>
<path d="M25.6289 77.0137H88.3733" stroke="#101727" stroke-miterlimit="10"/>
<path d="M25.6289 69.123H88.3733" stroke="#101727" stroke-miterlimit="10"/>
<path d="M25.6289 85.6191H88.3733" stroke="#101727" stroke-miterlimit="10"/>
<path d="M25.6289 93.5039H88.3733" stroke="#101727" stroke-miterlimit="10"/>
<path d="M25.6289 109.287H88.3733" stroke="#101727" stroke-miterlimit="10"/>
<path d="M25.6289 101.395H88.3733" stroke="#101727" stroke-miterlimit="10"/>
</g>
<defs>
<clipPath id="clip0_2343_1017">
<rect width="114" height="155" fill="white"/>
</clipPath>
</defs>
</svg>
