<svg width="123" height="168" viewBox="0 0 123 168" fill="none" xmlns="http://www.w3.org/2000/svg">
<g clip-path="url(#clip0_2343_1035)">
<path d="M57.8818 97.0565L0.00390625 97.0458V0.139675L51.6487 0.128906L60.9795 17.2293L122.999 17.2186V97.0673L64.0665 97.0565H57.8872H57.8818Z" fill="#E9BE51"/>
<path d="M51.6484 0.128906L67.6318 30.0439" stroke="#101727" stroke-miterlimit="10"/>
<path d="M111.792 111.584H23.3828" stroke="#E9BE51" stroke-miterlimit="10"/>
<path d="M83.3796 118.96C87.4487 118.96 90.7474 115.657 90.7474 111.583C90.7474 107.51 87.4487 104.207 83.3796 104.207C79.3104 104.207 76.0117 107.51 76.0117 111.583C76.0117 115.657 79.3104 118.96 83.3796 118.96Z" fill="#EAE2CF" stroke="#101727" stroke-miterlimit="10"/>
<path d="M39.6139 118.96C43.6831 118.96 46.9818 115.657 46.9818 111.583C46.9818 107.51 43.6831 104.207 39.6139 104.207C35.5448 104.207 32.2461 107.51 32.2461 111.583C32.2461 115.657 35.5448 118.96 39.6139 118.96Z" fill="#EAE2CF" stroke="#101727" stroke-miterlimit="10"/>
<path d="M23.3828 111.584C16.6549 111.584 11.207 117.044 11.207 123.774C11.207 130.504 16.6603 135.964 23.3828 135.964" stroke="#E9BE51" stroke-miterlimit="10"/>
<path d="M99.6172 135.969C106.345 135.969 111.793 141.428 111.793 148.159C111.793 154.889 106.34 160.349 99.6172 160.349" stroke="#E9BE51" stroke-miterlimit="10"/>
<path d="M99.6158 160.354H11.207" stroke="#E9BE51" stroke-miterlimit="10"/>
<path d="M99.6158 135.969H23.3828" stroke="#E9BE51" stroke-miterlimit="10"/>
<path d="M61.4961 111.584V59.8145" stroke="#101727" stroke-miterlimit="10"/>
<path d="M61.4961 160.355V111.584" stroke="#E9BE51" stroke-miterlimit="10"/>
<path d="M61.4967 118.96C65.5659 118.96 68.8646 115.657 68.8646 111.583C68.8646 107.51 65.5659 104.207 61.4967 104.207C57.4276 104.207 54.1289 107.51 54.1289 111.583C54.1289 115.657 57.4276 118.96 61.4967 118.96Z" fill="#01654D" stroke="#101727" stroke-miterlimit="10"/>
<path d="M61.4957 74.3455C69.5122 74.3455 76.0109 67.8393 76.0109 59.8134C76.0109 51.7875 69.5122 45.2812 61.4957 45.2812C53.4791 45.2812 46.9805 51.7875 46.9805 59.8134C46.9805 67.8393 53.4791 74.3455 61.4957 74.3455Z" fill="#01654D" stroke="#101727" stroke-miterlimit="10"/>
<path d="M83.3796 167.731C87.4487 167.731 90.7474 164.429 90.7474 160.355C90.7474 156.281 87.4487 152.979 83.3796 152.979C79.3104 152.979 76.0117 156.281 76.0117 160.355C76.0117 164.429 79.3104 167.731 83.3796 167.731Z" fill="#01654D" stroke="#101727" stroke-miterlimit="10"/>
<path d="M61.4967 167.731C65.5659 167.731 68.8646 164.429 68.8646 160.355C68.8646 156.281 65.5659 152.979 61.4967 152.979C57.4276 152.979 54.1289 156.281 54.1289 160.355C54.1289 164.429 57.4276 167.731 61.4967 167.731Z" fill="#EAE2CF" stroke="#101727" stroke-miterlimit="10"/>
<path d="M39.6139 167.731C43.6831 167.731 46.9818 164.429 46.9818 160.355C46.9818 156.281 43.6831 152.979 39.6139 152.979C35.5448 152.979 32.2461 156.281 32.2461 160.355C32.2461 164.429 35.5448 167.731 39.6139 167.731Z" fill="#01654D" stroke="#101727" stroke-miterlimit="10"/>
</g>
<defs>
<clipPath id="clip0_2343_1035">
<rect width="123" height="168" fill="white"/>
</clipPath>
</defs>
</svg>
