<svg width="55" height="55" viewBox="0 0 55 55" fill="none" xmlns="http://www.w3.org/2000/svg">
<mask id="mask0_2914_407" style="mask-type:luminance" maskUnits="userSpaceOnUse" x="0" y="0" width="55" height="55">
<path d="M27.5 55C42.6878 55 55 42.6878 55 27.5C55 12.3122 42.6878 0 27.5 0C12.3122 0 0 12.3122 0 27.5C0 42.6878 12.3122 55 27.5 55Z" fill="white"/>
</mask>
<g mask="url(#mask0_2914_407)">
<path d="M27.5 55C42.6878 55 55 42.6878 55 27.5C55 12.3122 42.6878 0 27.5 0C12.3122 0 0 12.3122 0 27.5C0 42.6878 12.3122 55 27.5 55Z" fill="#EAE2CF" stroke="#101727" stroke-miterlimit="10"/>
<path d="M50.0817 31.9301C49.2717 31.9301 48.3517 31.7801 47.3017 31.4301C44.1017 30.3601 44.7617 27.7701 46.1617 25.3101C48.3217 25.8301 50.0617 26.3801 50.7417 27.1701C51.4817 28.0401 51.1117 29.9101 50.0817 31.9301Z" fill="#101727"/>
<path d="M50.0817 31.9301C49.2717 31.9301 48.3517 31.7801 47.3017 31.4301C44.1017 30.3601 44.7617 27.7701 46.1617 25.3101C48.3217 25.8301 50.0617 26.3801 50.7417 27.1701C51.4817 28.0401 51.1117 29.9101 50.0817 31.9301Z" stroke="#101727" stroke-linejoin="round"/>
<path d="M40.6512 19.2898C40.1312 20.8298 39.5212 22.2698 38.8012 23.5898C37.5912 23.2498 36.4512 22.8698 35.4912 22.4098C30.7612 20.1698 31.6912 16.4198 27.3512 15.2198C26.9512 15.1098 26.5712 15.0098 26.2012 14.9198C29.0312 14.5198 34.3012 14.4398 40.6512 19.2798V19.2898Z" fill="#323A37"/>
<path d="M40.6512 19.2898C40.1312 20.8298 39.5212 22.2698 38.8012 23.5898C37.5912 23.2498 36.4512 22.8698 35.4912 22.4098C30.7612 20.1698 31.6912 16.4198 27.3512 15.2198C26.9512 15.1098 26.5712 15.0098 26.2012 14.9198C29.0312 14.5198 34.3012 14.4398 40.6512 19.2798V19.2898Z" stroke="#101727" stroke-miterlimit="10"/>
<path d="M20.3304 37.71C18.0504 38.25 15.8404 38.5 13.7104 38.45C11.8804 38.42 10.1004 38.18 8.37039 37.72C6.92039 37.34 5.52039 36.81 4.15039 36.13C4.28039 34.83 4.48039 33.63 4.75039 32.55C5.20039 30.68 5.82039 29.1 6.52039 27.79C8.34039 24.35 10.6704 22.64 11.8104 21.79C12.9004 21.17 13.9704 20.54 15.4704 22.08L15.5504 22.17C17.1004 23.86 21.2204 28.34 20.3204 37.72" fill="#434746"/>
<path d="M20.3304 37.71C18.0504 38.25 15.8404 38.5 13.7104 38.45C11.8804 38.42 10.1004 38.18 8.37039 37.72C6.92039 37.34 5.52039 36.81 4.15039 36.13C4.28039 34.83 4.48039 33.63 4.75039 32.55C5.20039 30.68 5.82039 29.1 6.52039 27.79C8.34039 24.35 10.6704 22.64 11.8104 21.79C12.9004 21.17 13.9704 20.54 15.4704 22.08L15.5504 22.17C17.1004 23.86 21.2204 28.34 20.3204 37.72L20.3304 37.71Z" stroke="#101727" stroke-linejoin="round"/>
<path d="M16.7709 41.4097C15.6209 41.9097 14.5409 42.5297 13.5609 43.2797C11.4909 41.2397 9.80086 39.4297 8.38086 37.7197C10.1009 38.1797 11.8809 38.4197 13.7209 38.4497C14.6809 39.4497 15.7009 40.4097 16.7609 41.3497L16.7809 41.3997L16.7709 41.4097Z" fill="#E8BD51"/>
<path d="M16.7709 41.4097C15.6209 41.9097 14.5409 42.5297 13.5609 43.2797C11.4909 41.2397 9.80086 39.4297 8.38086 37.7197C10.1009 38.1797 11.8809 38.4197 13.7209 38.4497C14.6809 39.4497 15.7009 40.4097 16.7609 41.3497L16.7809 41.3997L16.7709 41.4097Z" stroke="#101727" stroke-linejoin="round"/>
<path d="M6.5318 27.78C5.8318 29.1 5.21179 30.67 4.7618 32.54C2.90179 29.27 1.7518 25.81 0.591797 21.11C1.6818 20.74 2.8018 20.35 3.9118 19.96C4.6418 22.92 5.5218 25.49 6.5318 27.78Z" fill="#E8BD51"/>
<path d="M6.5318 27.78C5.8318 29.1 5.2118 30.67 4.7618 32.54C2.9018 29.27 1.7518 25.81 0.591797 21.11C1.6818 20.74 2.8018 20.35 3.9118 19.96C4.6418 22.92 5.5218 25.49 6.5318 27.78Z" stroke="#101727" stroke-linejoin="round"/>
<path d="M16.6809 92.3399H4.16086C4.16086 92.3399 1.30086 84.5099 -2.17915 75.2999C-3.01914 73.0899 -3.88914 70.7999 -4.76914 68.5199C-5.95914 65.4299 -7.16914 62.3599 -8.30914 59.5299C-16.6991 60.5299 -30.5691 60.3299 -41.0091 54.3499C-43.7491 52.7799 -46.2491 50.8199 -48.3591 48.3699C-54.7991 63.2199 -62.1391 65.2699 -68.7791 66.9199C-73.5891 68.1099 -78.0191 69.0899 -81.4791 74.5699C-83.4691 77.7199 -86.5891 84.6499 -86.5891 84.6499C-86.5891 84.6499 -81.7691 86.7899 -80.5891 92.3499H-95.8491C-93.9491 73.1599 -82.3791 59.2499 -80.0791 55.9899C-77.7791 52.7299 -79.1091 49.3299 -79.4791 44.7399C-79.8491 40.1499 -78.4091 34.7499 -73.9091 27.6799C-73.9091 27.6799 -101.189 14.1799 -106.799 7.7099C-107.179 7.2799 -106.699 6.6299 -106.169 6.8499C-96.6491 10.8399 -65.3791 24.4899 -47.5691 26.3199C-38.1691 27.2799 -10.6791 24.7399 -8.37914 24.0799C-7.12914 23.7199 -3.46914 22.5299 0.590858 21.1399C1.75086 25.8499 2.90086 29.2999 4.76086 32.5699C4.50085 33.6599 4.29086 34.8499 4.16086 36.1499C5.53086 36.8299 6.93086 37.3599 8.38086 37.7399C9.80086 39.4499 11.5009 41.2599 13.5609 43.2999C12.5609 44.0599 11.6609 44.9499 10.9009 46.0099C9.60085 47.7899 8.26086 49.4199 6.98086 50.8499C3.31086 54.9599 0.160858 57.4899 0.160858 57.4899L0.450859 58.3299L2.35086 63.9199L4.99086 71.6799L9.42086 84.6699C9.42086 84.6699 16.0909 86.5199 16.6809 92.3699" fill="#434746"/>
<path d="M16.6809 92.3399H4.16086C4.16086 92.3399 1.30085 84.5099 -2.17915 75.2999C-3.01915 73.0899 -3.88914 70.7999 -4.76914 68.5199C-5.95914 65.4299 -7.16914 62.3599 -8.30914 59.5299C-16.6991 60.5299 -30.5691 60.3299 -41.0091 54.3499C-43.7491 52.7799 -46.2491 50.8199 -48.3591 48.3699C-54.7991 63.2199 -62.1391 65.2699 -68.7791 66.9199C-73.5891 68.1099 -78.0191 69.0899 -81.4791 74.5699C-83.4691 77.7199 -86.5891 84.6499 -86.5891 84.6499C-86.5891 84.6499 -81.7691 86.7899 -80.5891 92.3499H-95.8491C-93.9491 73.1599 -82.3791 59.2499 -80.0791 55.9899C-77.7791 52.7299 -79.1091 49.3299 -79.4791 44.7399C-79.8491 40.1499 -78.4091 34.7499 -73.9091 27.6799C-73.9091 27.6799 -101.189 14.1799 -106.799 7.7099C-107.179 7.2799 -106.699 6.6299 -106.169 6.8499C-96.6491 10.8399 -65.3791 24.4899 -47.5691 26.3199C-38.1691 27.2799 -10.6791 24.7399 -8.37914 24.0799C-7.12914 23.7199 -3.46914 22.5299 0.590858 21.1399C1.75086 25.8499 2.90086 29.2999 4.76086 32.5699C4.50086 33.6599 4.29086 34.8499 4.16086 36.1499C5.53086 36.8299 6.93086 37.3599 8.38086 37.7399C9.80086 39.4499 11.5009 41.2599 13.5609 43.2999C12.5609 44.0599 11.6609 44.9499 10.9009 46.0099C9.60086 47.7899 8.26086 49.4199 6.98086 50.8499C3.31086 54.9599 0.160858 57.4899 0.160858 57.4899L0.450859 58.3299L2.35086 63.9199L4.99086 71.6799L9.42086 84.6699C9.42086 84.6699 16.0909 86.5199 16.6809 92.3699V92.3399Z" stroke="#101727" stroke-linejoin="round"/>
<path d="M50.0802 31.93C48.7102 34.65 46.1702 37.63 43.6102 38.8C40.0002 40.46 26.0901 37.31 16.7701 41.41L16.7502 41.36C15.6902 40.42 14.6802 39.46 13.7102 38.46C15.8402 38.5 18.0502 38.25 20.3302 37.72C21.2302 28.34 17.1102 23.86 15.5602 22.17L15.4802 22.08C13.9802 20.54 12.9102 21.17 11.8202 21.79C10.6702 22.64 8.34016 24.35 6.53016 27.79C5.52016 25.5 4.64016 22.93 3.91016 19.97C6.28016 19.13 8.61015 18.29 10.5102 17.55C17.0402 15.01 20.1002 13.5 26.2102 14.93C26.5802 15.02 26.9702 15.12 27.3602 15.23C31.7002 16.43 30.7702 20.18 35.5002 22.42C36.4702 22.88 37.6002 23.26 38.8102 23.6C41.2202 24.28 43.9201 24.77 46.1601 25.31C44.7601 27.77 44.0902 30.36 47.3002 31.43C48.3502 31.78 49.2802 31.92 50.0802 31.93Z" fill="#434746"/>
<path d="M50.0802 31.93C48.7102 34.65 46.1702 37.63 43.6102 38.8C40.0002 40.46 26.0901 37.31 16.7701 41.41L16.7502 41.36C15.6902 40.42 14.6802 39.46 13.7102 38.46C15.8402 38.5 18.0502 38.25 20.3302 37.72C21.2302 28.34 17.1102 23.86 15.5602 22.17L15.4802 22.08C13.9802 20.54 12.9102 21.17 11.8202 21.79C10.6702 22.64 8.34016 24.35 6.53016 27.79C5.52016 25.5 4.64016 22.93 3.91016 19.97C6.28016 19.13 8.61015 18.29 10.5102 17.55C17.0402 15.01 20.1002 13.5 26.2102 14.93C26.5802 15.02 26.9702 15.12 27.3602 15.23C31.7002 16.43 30.7702 20.18 35.5002 22.42C36.4702 22.88 37.6002 23.26 38.8102 23.6C41.2202 24.28 43.9201 24.77 46.1601 25.31C44.7601 27.77 44.0902 30.36 47.3002 31.43C48.3502 31.78 49.2802 31.92 50.0802 31.93Z" stroke="#101727" stroke-linejoin="round"/>
<path d="M4.99016 71.6498L2.35016 63.8898C3.97016 62.7698 5.11016 61.8798 5.24016 61.5098C5.50016 60.7798 2.96016 59.4298 0.450157 58.2998L0.160156 57.4598C0.160156 57.4598 3.31016 54.9298 6.98016 50.8198C9.80016 52.4798 13.4502 55.4998 13.8502 60.0998C14.3002 65.2898 9.69016 68.9598 4.99016 71.6398V71.6498Z" fill="#323A37"/>
<path d="M4.99016 71.6498L2.35016 63.8898C3.97016 62.7698 5.11016 61.8798 5.24016 61.5098C5.50016 60.7798 2.96016 59.4298 0.450157 58.2998L0.160156 57.4598C0.160156 57.4598 3.31016 54.9298 6.98016 50.8198C9.80016 52.4798 13.4502 55.4998 13.8502 60.0998C14.3002 65.2898 9.69016 68.9598 4.99016 71.6398V71.6498Z" stroke="#101727" stroke-linejoin="round"/>
<path d="M3.91062 19.9601C3.91062 19.9601 3.89062 19.9001 3.89062 19.8701" stroke="#101727" stroke-linejoin="round"/>
<path d="M18.371 46.1197C18.371 48.2797 16.611 50.0297 14.451 50.0297C14.251 50.0297 14.061 50.0097 13.871 49.9897C13.591 49.9497 13.331 49.8797 13.071 49.7797C11.591 49.2197 10.541 47.7897 10.541 46.1097C10.541 43.9497 12.301 42.1997 14.461 42.1997C14.601 42.1997 14.731 42.1997 14.871 42.2197C16.841 42.4297 18.381 44.0897 18.381 46.1197" fill="#E8BD51"/>
<path d="M18.371 46.1197C18.371 48.2797 16.611 50.0297 14.451 50.0297C14.251 50.0297 14.061 50.0097 13.871 49.9897C13.591 49.9497 13.331 49.8797 13.071 49.7797C11.591 49.2197 10.541 47.7897 10.541 46.1097C10.541 43.9497 12.301 42.1997 14.461 42.1997C14.601 42.1997 14.731 42.1997 14.871 42.2197C16.841 42.4297 18.381 44.0897 18.381 46.1197H18.371Z" stroke="#101727" stroke-miterlimit="10"/>
<path d="M13.1976 44.1289L12.5879 44.6313L13.8661 46.1825L14.4758 45.6801L13.1976 44.1289Z" fill="white"/>
<path d="M14.8514 45.3699C15.5414 46.3299 15.5414 47.0899 15.4914 47.5299C15.0514 47.4899 14.2914 47.3399 13.4814 46.4599C13.4514 46.4799 13.4214 46.4899 13.3914 46.4999C13.1514 46.6099 12.9214 46.6899 12.6914 46.7499C13.9314 48.2499 15.1914 48.2999 15.6614 48.3299H15.6814C15.7714 48.3299 15.8614 48.3199 15.9314 48.2799C16.1014 48.2099 16.2214 48.0499 16.2514 47.8599V47.8399C16.3214 47.3699 16.5114 46.1299 15.2814 44.6299C15.1714 44.8899 15.0314 45.1399 14.8614 45.3799L14.8514 45.3699Z" fill="#01654D"/>
<path d="M26.0902 24.1099C26.9702 24.1099 27.6902 24.8299 27.6902 25.7099C27.6902 26.5899 26.9702 27.3099 26.0902 27.3099C25.2102 27.3099 24.4902 26.5899 24.4902 25.7099C24.4902 24.8299 25.2102 24.1099 26.0902 24.1099Z" fill="#8C8C8C"/>
<path d="M26.0902 24.1099C26.9702 24.1099 27.6902 24.8299 27.6902 25.7099C27.6902 26.5899 26.9702 27.3099 26.0902 27.3099C25.2102 27.3099 24.4902 26.5899 24.4902 25.7099C24.4902 24.8299 25.2102 24.1099 26.0902 24.1099Z" stroke="#101727" stroke-miterlimit="10"/>
<path d="M33.2016 23.0601C34.0816 23.0601 34.8016 23.7801 34.8016 24.6601C34.8016 25.5401 34.0816 26.2601 33.2016 26.2601C32.3216 26.2601 31.6016 25.5401 31.6016 24.6601C31.6016 23.7801 32.3216 23.0601 33.2016 23.0601Z" fill="#8C8C8C"/>
<path d="M33.2016 23.0601C34.0816 23.0601 34.8016 23.7801 34.8016 24.6601C34.8016 25.5401 34.0816 26.2601 33.2016 26.2601C32.3216 26.2601 31.6016 25.5401 31.6016 24.6601C31.6016 23.7801 32.3216 23.0601 33.2016 23.0601Z" stroke="#101727" stroke-miterlimit="10"/>
<path d="M26.5103 21.8499C25.1103 21.7499 23.9203 22.1699 22.8203 23.0699" stroke="#101727" stroke-miterlimit="10"/>
<path d="M34.9217 22.1101C33.6217 21.3501 32.0417 21.1401 31.0117 21.4901" stroke="#101727" stroke-miterlimit="10"/>
</g>
</svg>
