<svg width="57" height="56" viewBox="0 0 57 56" fill="none" xmlns="http://www.w3.org/2000/svg">
<path d="M44.3684 43.7966L37.0312 36.4595" stroke="#111726" stroke-miterlimit="10"/>
<path d="M21.7853 43.0707C33.5409 43.0707 43.0707 33.5409 43.0707 21.7853C43.0707 10.0298 33.5409 0.5 21.7853 0.5C10.0298 0.5 0.5 10.0298 0.5 21.7853C0.5 33.5409 10.0298 43.0707 21.7853 43.0707Z" stroke="#111726" stroke-miterlimit="10"/>
<path d="M16.0262 23.0825H10.8477V32.3652H16.0262V23.0825Z" fill="#EAE2CF" stroke="#101727"/>
<path d="M16.0262 23.0825H10.8477V32.3652H16.0262V23.0825Z" stroke="#111726" stroke-miterlimit="10"/>
<path d="M23.7997 17.9814H18.6211V32.4427H23.7997V17.9814Z" fill="#E9BE51" stroke="#101727" stroke-miterlimit="10"/>
<path d="M23.7997 17.9814H18.6211V32.4427H23.7997V17.9814Z" stroke="#111726" stroke-miterlimit="10"/>
<path d="M32.568 10.7119H26.3828V32.4328H32.568V10.7119Z" fill="#01654D"/>
<path d="M32.568 10.7119H26.3828V32.4328H32.568V10.7119Z" stroke="#111726" stroke-miterlimit="10"/>
<path d="M41.3761 42.7805L43.5153 40.6413C44.0767 40.0799 44.9866 40.0799 45.548 40.6413L55.2082 50.3015C55.7696 50.8629 55.7696 51.7728 55.2082 52.3342L53.069 54.4734C52.5076 55.0348 51.5977 55.0348 51.0363 54.4734L41.3761 44.8132C40.8147 44.2517 40.8147 43.3419 41.3761 42.7805Z" fill="#01654D"/>
<path d="M43.5098 40.6543L41.3812 42.7829C40.8179 43.3461 40.8179 44.2593 41.3812 44.8226L51.0387 54.4801C51.602 55.0434 52.5151 55.0434 53.0784 54.4801L55.207 52.3515C55.7702 51.7882 55.7702 50.8751 55.207 50.3118L45.5495 40.6543C44.9862 40.091 44.073 40.091 43.5098 40.6543Z" stroke="#111726" stroke-miterlimit="10"/>
</svg>
