<svg width="50" height="56" viewBox="0 0 50 56" fill="none" xmlns="http://www.w3.org/2000/svg">
<path d="M6.85547 39.8411V25.7248C6.85547 16.7113 14.1612 9.39551 23.1847 9.39551C32.2083 9.39551 39.514 16.7012 39.514 25.7248V39.8411" fill="#01654D"/>
<path d="M6.85547 39.8411V25.7248C6.85547 16.7113 14.1612 9.39551 23.1847 9.39551C32.2083 9.39551 39.514 16.7012 39.514 25.7248V39.8411" stroke="#101727" stroke-miterlimit="10"/>
<path d="M32.0672 39.8418H41.2423C43.7887 39.8418 45.8602 41.9032 45.8602 44.4597C45.8602 47.0162 43.7988 49.0775 41.2423 49.0775H5.11786C2.57147 49.0775 0.5 47.0162 0.5 44.4597C0.5 41.9032 2.56136 39.8418 5.11786 39.8418H26.0044" fill="#01654D"/>
<path d="M32.0672 39.8418H41.2423C43.7887 39.8418 45.8602 41.9032 45.8602 44.4597C45.8602 47.0162 43.7988 49.0775 41.2423 49.0775H5.11786C2.57147 49.0775 0.5 47.0162 0.5 44.4597C0.5 41.9032 2.56136 39.8418 5.11786 39.8418H26.0044" stroke="#101727" stroke-miterlimit="10"/>
<path d="M23.1749 9.40608C24.721 9.40608 26.2165 9.62839 27.6311 10.0225V8.42592C27.6311 5.96036 25.6405 3.96973 23.1749 3.96973C20.7094 3.96973 18.7188 5.96036 18.7188 8.42592V10.0225C20.1334 9.61828 21.6289 9.40608 23.1749 9.40608Z" stroke="#101727" stroke-miterlimit="10"/>
<path d="M15.2031 49.0771C16.0115 52.7351 19.2753 55.4836 23.1758 55.4836C27.0762 55.4836 30.34 52.7452 31.1484 49.0771H15.2031Z" fill="#E9BE51" stroke="#101727" stroke-miterlimit="10"/>
<path d="M48.7715 10.3759C48.1551 8.08217 46.9526 5.89954 45.1539 4.1009C43.3553 2.30225 41.1727 1.08968 38.8789 0.483398" stroke="#101727" stroke-miterlimit="10"/>
<path d="M41.6473 12.2854C41.3542 11.1941 40.7883 10.1735 39.9395 9.31464C39.0908 8.46584 38.0601 7.88987 36.9688 7.60693" stroke="#101727" stroke-miterlimit="10"/>
</svg>
