<svg width="50" height="56" viewBox="0 0 50 56" fill="none" xmlns="http://www.w3.org/2000/svg">
<path d="M31.546 0.5H7.05635C3.43537 0.5 0.5 3.43539 0.5 7.05637V27.8562C0.5 31.4772 3.43537 34.4126 7.05635 34.4126H31.546C35.167 34.4126 38.1024 31.4772 38.1024 27.8562V7.05637C38.1024 3.43539 35.167 0.5 31.546 0.5Z" fill="#E9BE51" stroke="#101727"/>
<path d="M48.2396 38.5188H45.6409C45.383 37.4079 44.9565 36.3466 44.401 35.3845L46.0872 33.6983C46.4046 33.3809 46.4046 32.8552 46.0872 32.5378L43.4786 29.9291C43.1612 29.6117 42.6355 29.6117 42.3181 29.9291L40.7608 31.4864C39.6102 30.7226 38.3207 30.1473 36.942 29.8299V27.7569C36.942 27.3105 36.575 26.9336 36.1188 26.9336H32.4289C31.9826 26.9336 31.6057 27.3006 31.6057 27.7569V29.8299C30.2964 30.1374 29.0764 30.6631 27.9754 31.3673L26.7157 30.1076C26.3983 29.7902 25.8726 29.7902 25.5552 30.1076L22.9465 32.7163C22.6291 33.0337 22.6291 33.5594 22.9465 33.8768L24.2558 35.1861C23.6408 36.2077 23.1846 37.3286 22.8969 38.5188H21.2901C20.8437 38.5188 20.4668 38.8858 20.4668 39.3421V43.0319C20.4668 43.4783 20.8338 43.8552 21.2901 43.8552H22.8969C23.2242 45.2339 23.7896 46.5233 24.5534 47.6739L23.2639 48.9733C22.9465 49.2907 22.9465 49.8164 23.2639 50.1338L25.8726 52.7425C26.19 53.0599 26.7157 53.0599 27.0331 52.7425L28.4614 51.3142C29.4334 51.8696 30.4848 52.2961 31.5958 52.554V54.6767C31.5958 55.123 31.9628 55.4999 32.419 55.4999H36.1088C36.5552 55.4999 36.9321 55.1329 36.9321 54.6767V52.554C38.1224 52.2763 39.2432 51.8101 40.2649 51.205L41.9907 52.921C42.3081 53.2384 42.8338 53.2384 43.1512 52.921L45.7599 50.3124C46.0773 49.995 46.0773 49.4692 45.7599 49.1518L44.0935 47.4855C44.7978 46.3845 45.3235 45.1645 45.631 43.8552H48.2297C48.676 43.8552 49.053 43.4882 49.053 43.0319V39.3421C49.053 38.8957 48.686 38.5188 48.2297 38.5188H48.2396ZM34.2838 46.077C31.5858 46.077 29.3938 43.8849 29.3938 41.187C29.3938 38.4891 31.5858 36.297 34.2838 36.297C36.9817 36.297 39.1738 38.4891 39.1738 41.187C39.1738 43.8849 36.9817 46.077 34.2838 46.077Z" fill="#01654D" stroke="#101727" stroke-miterlimit="10"/>
<path d="M13.3052 12.373L9.22852 17.1936L13.3052 22.0142" stroke="#01654D" stroke-width="1.5" stroke-linecap="round" stroke-linejoin="round"/>
<path d="M25.3184 12.373L29.395 17.1936L25.3184 22.0142" stroke="#01654D" stroke-width="1.5" stroke-linecap="round" stroke-linejoin="round"/>
<path d="M21.55 12.0854L17.0469 22.2324" stroke="#01654D" stroke-width="1.5" stroke-linecap="round" stroke-linejoin="round"/>
</svg>
