<svg width="42" height="69" viewBox="0 0 42 69" fill="none" xmlns="http://www.w3.org/2000/svg">
<path d="M21.7047 68.4544C12.8827 68.9108 5.441 65.8749 6.56125 62.2848C7.32142 59.8358 12.1725 57.8594 18.1839 57.5456C27.0059 57.0892 34.4576 60.1251 33.3373 63.7192C32.5771 66.1683 27.716 68.1447 21.7047 68.4544Z" fill="#EAE2CF"/>
<path d="M19.6755 5.39502C9.12589 5.39502 0.578125 13.9428 0.578125 24.4924C0.578125 42.8891 19.6755 62.2568 19.6755 62.2568C19.6755 62.2568 38.7729 42.709 38.7729 24.4924C38.7729 13.9428 30.2251 5.39502 19.6755 5.39502Z" fill="#01654D" stroke="#101727" stroke-miterlimit="10"/>
<path d="M38.854 26.5117V26.5418H38.844C38.844 26.5918 38.854 26.6518 38.854 26.7019C38.854 29.8948 30.2662 32.4772 19.6765 32.4772C14.1115 32.4772 9.09694 31.7665 5.59375 30.6255C7.80576 34.3088 14.1115 37.4817 21.8285 38.4025C31.8376 39.5936 40.4354 36.5409 41.026 31.5763C41.2362 29.8348 40.4254 28.0932 38.854 26.5117Z" fill="#E9BE51" stroke="#101727" stroke-miterlimit="10"/>
<path d="M19.6774 0.5C9.08782 0.5 0.5 9.08782 0.5 19.6774V26.7138C0.5 28.2252 2.43178 29.6065 5.59466 30.6374C9.09785 31.7785 14.1124 32.4891 19.6774 32.4891C30.2671 32.4891 38.8549 29.9067 38.8549 26.7138V19.6774C38.8549 9.08782 30.2671 0.5 19.6774 0.5Z" fill="#E9BE51" stroke="#101727" stroke-miterlimit="10"/>
<path d="M16.4751 0.761719C27.9655 0.761719 37.274 9.52969 37.274 21.2303V24.173C37.274 24.2931 37.2039 24.3932 37.0938 24.4232L33.7508 25.5242C33.5806 25.5843 33.4005 25.4542 33.4005 25.274V23.052C33.4005 11.3413 24.092 1.85271 12.6016 1.85271" stroke="#101727" stroke-miterlimit="10"/>
<path d="M37.2656 28.8262H37.2756" stroke="#101727" stroke-miterlimit="10"/>
</svg>
