<svg width="81" height="81" viewBox="0 0 81 81" fill="none" xmlns="http://www.w3.org/2000/svg">
<path d="M40.5 80.5C18.4451 80.5 0.5 62.5548 0.5 40.4965C0.5 18.4381 18.4487 0.5 40.5 0.5C62.5513 0.5 80.5 18.4451 80.5 40.5C80.5 62.5548 62.5549 80.5 40.5 80.5Z" fill="#01654D" stroke="#101727" stroke-miterlimit="10"/>
<path d="M40.5014 0.619934C27.763 0.619934 17.4023 18.5086 17.4023 40.4965C17.4023 62.4843 27.763 80.373 40.5014 80.373C53.2397 80.373 63.6004 62.4843 63.6004 40.4965C63.6004 18.5086 53.2432 0.619934 40.5014 0.619934Z" stroke="#101727" stroke-miterlimit="10"/>
<path d="M17.7344 47.2837L33.6017 62.7948" stroke="#101727" stroke-miterlimit="10"/>
<path d="M5.75391 20.7981H75.3368" stroke="#101727" stroke-miterlimit="10"/>
<path d="M0.636719 40.3271H80.4497" stroke="#101727" stroke-miterlimit="10"/>
<path d="M4.82031 58.9249H75.7966" stroke="#101727" stroke-miterlimit="10"/>
<path d="M41.1992 0.619934V80.5" stroke="#101727" stroke-miterlimit="10"/>
<path d="M31.8178 51.9014C31.1581 51.9014 30.5337 51.651 30.061 51.1924C29.5707 50.7232 29.292 50.0882 29.2779 49.4074C29.2638 48.723 29.5213 48.0775 29.994 47.5906L42.5348 34.9934L46.1224 38.4399V38.5881L46.0695 38.6445L33.6416 51.1289C33.1583 51.6263 32.5128 51.9014 31.8178 51.9014Z" fill="#EAE2CF"/>
<path d="M42.5393 35.2438L45.947 38.5175L33.5191 51.0089C33.0534 51.4886 32.4396 51.7285 31.8223 51.7285C31.2049 51.7285 30.644 51.5098 30.1855 51.0688C29.2365 50.1622 29.2153 48.6559 30.1255 47.7176L42.5393 35.2473M42.5322 34.7499L42.2888 34.9969L29.875 47.4671C29.3635 47.9927 29.0919 48.6841 29.106 49.4144C29.1201 50.1411 29.4164 50.8219 29.942 51.3228C30.45 51.8096 31.1167 52.0813 31.8223 52.0813C32.5631 52.0813 33.258 51.7885 33.7731 51.2558L46.1974 38.775L46.2997 38.6727V38.3764L46.1904 38.267L42.7827 34.9933L42.5322 34.7535V34.7499Z" fill="#101727"/>
<path d="M58.8227 25.3876L55.4891 22.0469L42.5391 35.2403L45.9468 38.5175L58.8227 25.3876Z" fill="#E9BE51" stroke="#101727" stroke-miterlimit="10"/>
<path d="M31.3102 60.2548C31.2643 60.2548 31.2185 60.2372 31.1867 60.2054L26.2339 55.369L21.1506 50.4303C21.1153 50.395 21.0977 50.3492 21.0977 50.2998C21.1717 46.8674 22.0431 41.964 25.7788 38.1047L29.303 34.3689C29.3382 34.3337 29.3841 34.3125 29.43 34.3125C29.4511 34.3125 29.4758 34.316 29.497 34.3266C33.6526 36.0657 36.9544 38.9514 39.6354 41.5477C42.2459 44.077 45.1597 47.1743 46.9765 50.9842C46.9835 50.9947 46.9871 51.0018 46.9941 51.0124C47.0223 51.0759 47.0118 51.1535 46.9624 51.2029L43.3113 55.0727C39.3356 59.1789 33.1622 60.216 31.3102 60.2583H31.3067L31.3102 60.2548Z" fill="#EAE2CF"/>
<path d="M29.4306 34.4924C33.2404 36.0869 36.4329 38.6974 39.5161 41.6782C42.4723 44.5427 45.1286 47.5059 46.8289 51.0865H46.8325L43.1813 54.9563C39.0751 59.1965 32.7995 60.0537 31.3037 60.0855L26.3509 55.2491L21.2676 50.3104C21.317 47.9151 21.7932 42.4755 25.8994 38.2352L29.4235 34.4959M29.4306 34.1396C29.3353 34.1396 29.2436 34.1785 29.173 34.249L25.6489 37.9883C21.8779 41.8864 20.996 46.8321 20.9219 50.2998C20.9219 50.3986 20.9571 50.4938 21.0277 50.5608L26.111 55.4996L31.0639 60.336C31.1309 60.3995 31.2191 60.4347 31.3108 60.4347C31.3108 60.4347 31.3143 60.4347 31.3179 60.4347C31.3884 60.4347 38.6554 60.1384 43.4388 55.1997L47.0829 51.3369C47.1499 51.2734 47.1887 51.1817 47.1887 51.0829C47.1887 51.0053 47.164 50.9348 47.1252 50.8783C45.2979 47.0579 42.3806 43.9571 39.763 41.4242C37.0679 38.8173 33.7484 35.9176 29.5681 34.1679C29.5258 34.1502 29.4764 34.1396 29.4306 34.1396Z" fill="#101727"/>
<path d="M50.8429 15.8732L49.8077 16.9084C48.9301 17.786 48.9301 19.2088 49.8077 20.0863L60.9403 31.2189C61.8179 32.0965 63.2407 32.0965 64.1182 31.2189L65.1534 30.1837C66.0309 29.3062 66.0309 27.8834 65.1534 27.0059L54.0208 15.8732C53.1432 14.9957 51.7204 14.9957 50.8429 15.8732Z" fill="#E9BE51" stroke="#101727" stroke-miterlimit="10"/>
</svg>
