<svg width="32" height="32" viewBox="0 0 32 32" fill="none" xmlns="http://www.w3.org/2000/svg">
<path d="M9.33333 21.3337C9.86377 21.3337 10.3725 21.1229 10.7475 20.7479C11.1226 20.3728 11.3333 19.8641 11.3333 19.3337C11.3398 19.2672 11.3398 19.2002 11.3333 19.1337L15.0533 15.4137H15.36H15.6667L17.8133 17.5603C17.8133 17.5603 17.8133 17.627 17.8133 17.667C17.8133 18.1974 18.024 18.7061 18.3991 19.0812C18.7742 19.4563 19.2829 19.667 19.8133 19.667C20.3438 19.667 20.8525 19.4563 21.2275 19.0812C21.6026 18.7061 21.8133 18.1974 21.8133 17.667V17.5603L26.6667 12.667C27.0622 12.667 27.4489 12.5497 27.7778 12.3299C28.1067 12.1102 28.363 11.7978 28.5144 11.4324C28.6658 11.0669 28.7054 10.6648 28.6282 10.2768C28.5511 9.88885 28.3606 9.53248 28.0809 9.25278C27.8012 8.97307 27.4448 8.78259 27.0568 8.70542C26.6689 8.62825 26.2668 8.66786 25.9013 8.81923C25.5358 8.97061 25.2235 9.22695 25.0037 9.55585C24.784 9.88475 24.6667 10.2714 24.6667 10.667C24.6602 10.7335 24.6602 10.8005 24.6667 10.867L19.8533 15.6803H19.64L17.3333 13.3337C17.3333 12.8032 17.1226 12.2945 16.7475 11.9194C16.3725 11.5444 15.8638 11.3337 15.3333 11.3337C14.8029 11.3337 14.2942 11.5444 13.9191 11.9194C13.544 12.2945 13.3333 12.8032 13.3333 13.3337L9.33333 17.3337C8.8029 17.3337 8.29419 17.5444 7.91912 17.9194C7.54405 18.2945 7.33333 18.8032 7.33333 19.3337C7.33333 19.8641 7.54405 20.3728 7.91912 20.7479C8.29419 21.1229 8.8029 21.3337 9.33333 21.3337ZM27.3333 26.667H4.66667V4.00033C4.66667 3.6467 4.52619 3.30756 4.27614 3.05752C4.02609 2.80747 3.68696 2.66699 3.33333 2.66699C2.97971 2.66699 2.64057 2.80747 2.39052 3.05752C2.14048 3.30756 2 3.6467 2 4.00033V28.0003C2 28.3539 2.14048 28.6931 2.39052 28.9431C2.64057 29.1932 2.97971 29.3337 3.33333 29.3337H27.3333C27.687 29.3337 28.0261 29.1932 28.2761 28.9431C28.5262 28.6931 28.6667 28.3539 28.6667 28.0003C28.6667 27.6467 28.5262 27.3076 28.2761 27.0575C28.0261 26.8075 27.687 26.667 27.3333 26.667Z" fill="#01654D"/>
</svg>
