<svg width="32" height="32" viewBox="0 0 32 32" fill="none" xmlns="http://www.w3.org/2000/svg">
<path d="M20.0007 18.6665H12.0007C11.647 18.6665 11.3079 18.807 11.0578 19.057C10.8078 19.3071 10.6673 19.6462 10.6673 19.9998C10.6673 20.3535 10.8078 20.6926 11.0578 20.9426C11.3079 21.1927 11.647 21.3332 12.0007 21.3332H20.0007C20.3543 21.3332 20.6934 21.1927 20.9435 20.9426C21.1935 20.6926 21.334 20.3535 21.334 19.9998C21.334 19.6462 21.1935 19.3071 20.9435 19.057C20.6934 18.807 20.3543 18.6665 20.0007 18.6665ZM20.0007 13.3332H14.6673C14.3137 13.3332 13.9746 13.4736 13.7245 13.7237C13.4745 13.9737 13.334 14.3129 13.334 14.6665C13.334 15.0201 13.4745 15.3593 13.7245 15.6093C13.9746 15.8594 14.3137 15.9998 14.6673 15.9998H20.0007C20.3543 15.9998 20.6934 15.8594 20.9435 15.6093C21.1935 15.3593 21.334 15.0201 21.334 14.6665C21.334 14.3129 21.1935 13.9737 20.9435 13.7237C20.6934 13.4736 20.3543 13.3332 20.0007 13.3332ZM22.6673 5.33317H21.094C20.8189 4.5551 20.3099 3.88117 19.6367 3.40376C18.9636 2.92634 18.1592 2.66882 17.334 2.6665H14.6673C13.8421 2.66882 13.0377 2.92634 12.3646 3.40376C11.6914 3.88117 11.1824 4.5551 10.9073 5.33317H9.33398C8.27312 5.33317 7.2557 5.7546 6.50556 6.50474C5.75541 7.25489 5.33398 8.27231 5.33398 9.33317V25.3332C5.33398 26.394 5.75541 27.4115 6.50556 28.1616C7.2557 28.9117 8.27312 29.3332 9.33398 29.3332H22.6673C23.7282 29.3332 24.7456 28.9117 25.4957 28.1616C26.2459 27.4115 26.6673 26.394 26.6673 25.3332V9.33317C26.6673 8.27231 26.2459 7.25489 25.4957 6.50474C24.7456 5.7546 23.7282 5.33317 22.6673 5.33317ZM13.334 6.6665C13.334 6.31288 13.4745 5.97374 13.7245 5.7237C13.9746 5.47365 14.3137 5.33317 14.6673 5.33317H17.334C17.6876 5.33317 18.0267 5.47365 18.2768 5.7237C18.5268 5.97374 18.6673 6.31288 18.6673 6.6665V7.99984H13.334V6.6665ZM24.0007 25.3332C24.0007 25.6868 23.8602 26.0259 23.6101 26.276C23.3601 26.526 23.0209 26.6665 22.6673 26.6665H9.33398C8.98036 26.6665 8.64122 26.526 8.39118 26.276C8.14113 26.0259 8.00065 25.6868 8.00065 25.3332V9.33317C8.00065 8.97955 8.14113 8.64041 8.39118 8.39036C8.64122 8.14031 8.98036 7.99984 9.33398 7.99984H10.6673V9.33317C10.6673 9.68679 10.8078 10.0259 11.0578 10.276C11.3079 10.526 11.647 10.6665 12.0007 10.6665H20.0007C20.3543 10.6665 20.6934 10.526 20.9435 10.276C21.1935 10.0259 21.334 9.68679 21.334 9.33317V7.99984H22.6673C23.0209 7.99984 23.3601 8.14031 23.6101 8.39036C23.8602 8.64041 24.0007 8.97955 24.0007 9.33317V25.3332Z" fill="#01654D"/>
</svg>
