<svg width="32" height="32" viewBox="0 0 32 32" fill="none" xmlns="http://www.w3.org/2000/svg">
<path d="M26.5198 12.7331C26.409 12.5132 26.2395 12.3283 26.03 12.1988C25.8206 12.0694 25.5794 12.0005 25.3331 11.9997H18.6665V3.99973C18.6808 3.70731 18.5985 3.41831 18.4322 3.17733C18.2659 2.93636 18.0249 2.75681 17.7465 2.6664C17.4788 2.57832 17.1901 2.57733 16.9218 2.66357C16.6535 2.74981 16.4194 2.91884 16.2531 3.1464L5.58648 17.8131C5.45284 18.0062 5.37259 18.2313 5.35386 18.4654C5.33513 18.6995 5.37858 18.9345 5.47982 19.1464C5.57304 19.3887 5.735 19.5986 5.9458 19.7502C6.1566 19.9017 6.40708 19.9885 6.66648 19.9997H13.3331V27.9997C13.3334 28.2809 13.4224 28.5548 13.5877 28.7823C13.7529 29.0098 13.9858 29.1792 14.2531 29.2664C14.3871 29.3079 14.5263 29.3304 14.6665 29.3331C14.8769 29.3336 15.0844 29.2844 15.2721 29.1894C15.4598 29.0943 15.6224 28.9563 15.7465 28.7864L26.4131 14.1197C26.5568 13.9208 26.6428 13.6861 26.6616 13.4414C26.6804 13.1967 26.6314 12.9516 26.5198 12.7331ZM15.9998 23.8931V18.6664C15.9998 18.3128 15.8593 17.9736 15.6093 17.7236C15.3592 17.4735 15.0201 17.3331 14.6665 17.3331H9.33315L15.9998 8.1064V13.3331C15.9998 13.6867 16.1403 14.0258 16.3903 14.2759C16.6404 14.5259 16.9795 14.6664 17.3331 14.6664H22.6665L15.9998 23.8931Z" fill="#01654D"/>
</svg>
