<svg width="32" height="32" viewBox="0 0 32 32" fill="none" xmlns="http://www.w3.org/2000/svg">
<path d="M26.6671 12.8932V12.6666C26.6752 10.3985 25.9555 8.18762 24.614 6.35885C23.2724 4.53008 21.3796 3.17984 19.2137 2.50656H19.1337C18.0151 2.16554 16.8496 2.00354 15.6804 2.02656C12.8962 2.17935 10.2752 3.3889 8.35241 5.40833C6.42961 7.42777 5.34993 10.1049 5.33375 12.8932C4.55243 13.1681 3.87569 13.6787 3.39697 14.3546C2.91824 15.0305 2.66113 15.8383 2.66113 16.6666C2.66113 17.4948 2.91824 18.3026 3.39697 18.9785C3.87569 19.6544 4.55243 20.165 5.33375 20.4399C5.60837 23.0729 6.8523 25.5098 8.82371 27.2767C10.7951 29.0435 13.3531 30.0142 16.0004 29.9999H16.3071C18.867 29.876 21.3003 28.849 23.1749 27.1013C25.0495 25.3536 26.2443 22.9982 26.5471 20.4532C27.3376 20.1939 28.0276 19.6946 28.521 19.0247C29.0144 18.3549 29.2866 17.5478 29.2998 16.716C29.313 15.8841 29.0665 15.0689 28.5946 14.3837C28.1228 13.6985 27.449 13.1775 26.6671 12.8932ZM16.2404 27.3332C14.3103 27.3891 12.4251 26.7449 10.9327 25.5196C9.44029 24.2944 8.44143 22.5706 8.12041 20.6666H23.8137C23.4883 22.4691 22.563 24.1086 21.1882 25.3189C19.8133 26.5292 18.0697 27.2391 16.2404 27.3332ZM25.3337 17.9999H6.66708C6.31346 17.9999 5.97432 17.8594 5.72427 17.6094C5.47422 17.3593 5.33375 17.0202 5.33375 16.6666C5.33375 16.3129 5.47422 15.9738 5.72427 15.7238C5.97432 15.4737 6.31346 15.3332 6.66708 15.3332H9.33375C9.68737 15.3332 10.0265 15.1928 10.2766 14.9427C10.5266 14.6927 10.6671 14.3535 10.6671 13.9999C10.6671 13.6463 10.5266 13.3071 10.2766 13.0571C10.0265 12.807 9.68737 12.6666 9.33375 12.6666H8.00041C8.0601 11.2834 8.45543 9.93549 9.1523 8.73919C9.84918 7.54289 10.8267 6.53411 12.0004 5.7999V9.9999C12.0004 10.3535 12.1409 10.6927 12.3909 10.9427C12.641 11.1928 12.9801 11.3332 13.3337 11.3332C13.6874 11.3332 14.0265 11.1928 14.2766 10.9427C14.5266 10.6927 14.6671 10.3535 14.6671 9.9999V4.78656C15.029 4.7261 15.394 4.68604 15.7604 4.66656H16.0004C16.4472 4.67286 16.893 4.71297 17.3337 4.78656V9.9999C17.3337 10.3535 17.4742 10.6927 17.7243 10.9427C17.9743 11.1928 18.3135 11.3332 18.6671 11.3332C19.0207 11.3332 19.3598 11.1928 19.6099 10.9427C19.8599 10.6927 20.0004 10.3535 20.0004 9.9999V5.7599C20.566 6.0874 21.0937 6.47643 21.5737 6.9199C22.3425 7.66643 22.9534 8.55979 23.3703 9.54696C23.7871 10.5341 24.0014 11.595 24.0004 12.6666H22.6671C22.3135 12.6666 21.9743 12.807 21.7243 13.0571C21.4742 13.3071 21.3337 13.6463 21.3337 13.9999C21.3337 14.3535 21.4742 14.6927 21.7243 14.9427C21.9743 15.1928 22.3135 15.3332 22.6671 15.3332H25.3337C25.6874 15.3332 26.0265 15.4737 26.2766 15.7238C26.5266 15.9738 26.6671 16.3129 26.6671 16.6666C26.6671 17.0202 26.5266 17.3593 26.2766 17.6094C26.0265 17.8594 25.6874 17.9999 25.3337 17.9999Z" fill="#01654D"/>
</svg>
