<svg width="32" height="32" viewBox="0 0 32 32" fill="none" xmlns="http://www.w3.org/2000/svg">
<g clip-path="url(#clip0_267_170)">
<path d="M10.9752 23.8692L23.8691 10.9753C25.828 11.8071 28.1626 11.418 29.7593 9.83481C31.3559 8.23817 31.7316 5.9975 30.8997 4.05201L28.337 6.72203H25.4926V3.67632L28.0687 1.11364C26.1098 0.281775 23.7752 0.670874 22.1786 2.2541C20.5819 3.85075 20.2062 6.18534 21.0381 8.14425L8.13076 21.0248C6.17185 20.1929 3.83726 20.582 2.24061 22.1652C0.643964 23.7619 0.268283 26.0964 1.10015 28.0554L3.66283 25.4927H6.70853V28.3371L4.03851 30.9132C5.99742 31.7451 8.29176 31.356 9.87499 29.7728C11.4716 28.1761 11.7937 25.8415 10.9752 23.8826V23.8692Z" stroke="#01654D" stroke-width="2" stroke-linejoin="round"/>
<path d="M15.9931 13.1488L10.9616 8.1174C11.7935 6.15849 11.4044 3.8239 9.82114 2.22725C8.23791 0.644023 5.99724 0.268342 4.03833 1.10021L6.70835 3.66289V6.70859H3.66265L1.09997 4.03857C0.268103 5.99748 0.657202 8.29182 2.24043 9.87505C3.83708 11.4717 6.17167 11.8205 8.13058 11.0021L13.162 16.0201" stroke="#01654D" stroke-width="2" stroke-linejoin="round"/>
<path d="M15.9932 18.8513L21.0246 23.8827C20.1927 25.8416 20.5818 28.1762 22.1651 29.7729C23.7617 31.3695 26.0963 31.7452 28.0552 30.9133L25.4791 28.3506V25.5062H28.3236L30.8862 28.0689C31.7181 26.11 31.329 23.7754 29.7458 22.1787C28.1491 20.5821 25.8145 20.2064 23.8556 21.0383L18.8242 16.0068" stroke="#01654D" stroke-width="2" stroke-linejoin="round"/>
</g>
<defs>
<clipPath id="clip0_267_170">
<rect width="32" height="32" fill="white"/>
</clipPath>
</defs>
</svg>
