<svg width="32" height="32" viewBox="0 0 32 32" fill="none" xmlns="http://www.w3.org/2000/svg">
<g id="Outline_Old_Icons" clip-path="url(#clip0_267_160)">
<path id="Vector" d="M23.334 31.3335C27.7523 31.3335 31.334 27.7518 31.334 23.3335C31.334 18.9152 27.7523 15.3335 23.334 15.3335C18.9157 15.3335 15.334 18.9152 15.334 23.3335C15.334 27.7518 18.9157 31.3335 23.334 31.3335Z" stroke="#01654D" stroke-width="2" stroke-linejoin="round"/>
<path id="Vector_2" d="M26.0007 23.3332H23.334V18.6665" stroke="#01654D" stroke-width="2" stroke-linecap="round" stroke-linejoin="round"/>
<g id="Group">
<g id="Group_2">
<path id="Vector_3" d="M13.3337 11.3332C20.3293 11.3332 26.0003 8.94536 26.0003 5.99984C26.0003 3.05432 20.3293 0.666504 13.3337 0.666504C6.33805 0.666504 0.666992 3.05432 0.666992 5.99984C0.666992 8.94536 6.33805 11.3332 13.3337 11.3332Z" stroke="#01654D" stroke-width="2" stroke-linecap="round" stroke-linejoin="round"/>
<path id="Vector_4" d="M13.3337 16.6663C6.33366 16.6663 0.666992 14.2797 0.666992 11.333" stroke="#01654D" stroke-width="2" stroke-linecap="round" stroke-linejoin="round"/>
<path id="Vector_5" d="M11.3337 22.5997C5.29366 22.1997 0.666992 19.9863 0.666992 17.333" stroke="#01654D" stroke-width="2" stroke-linecap="round" stroke-linejoin="round"/>
<path id="Vector_6" d="M12.0003 28.64C5.62699 28.36 0.666992 26.0933 0.666992 23.3333V6" stroke="#01654D" stroke-width="2" stroke-linecap="round" stroke-linejoin="round"/>
</g>
<path id="Vector_7" d="M26 6V12" stroke="#01654D" stroke-width="2" stroke-linecap="round" stroke-linejoin="round"/>
</g>
</g>
<defs>
<clipPath id="clip0_267_160">
<rect width="32" height="32" fill="white"/>
</clipPath>
</defs>
</svg>
