<svg width="5051" height="584" viewBox="0 0 5051 584" fill="none" xmlns="http://www.w3.org/2000/svg">
<path d="M0 574.7L107.1 7.69998H249.9L355.6 574.7H240.1L221.2 455H137.9L118.3 574.7H0ZM149.1 380.1H209.3L179.2 158.9L149.1 380.1Z" fill="black"/>
<path d="M560.678 583.1C517.278 583.1 483.211 576.1 458.478 562.1C434.211 547.633 417.178 526.867 407.378 499.8C397.578 472.267 392.678 438.667 392.678 399V7.69998H516.578V417.9C516.578 429.567 517.511 441.233 519.378 452.9C521.245 464.567 525.211 474.133 531.278 481.6C537.811 489.067 547.611 492.8 560.678 492.8C574.211 492.8 584.011 489.067 590.078 481.6C596.145 474.133 599.878 464.567 601.278 452.9C603.145 441.233 604.078 429.567 604.078 417.9V7.69998H728.678V399C728.678 438.667 723.545 472.267 713.278 499.8C703.478 526.867 686.445 547.633 662.178 562.1C637.912 576.1 604.078 583.1 560.678 583.1Z" fill="black"/>
<path d="M849.002 574.7V100.8H763.602V7.69998H1059.7V100.8H975.002V574.7H849.002Z" fill="black"/>
<path d="M1256.05 583.1C1213.58 583.1 1179.98 575.633 1155.25 560.7C1130.52 545.767 1112.78 524.3 1102.05 496.3C1091.32 468.3 1085.95 434.933 1085.95 396.2V185.5C1085.95 146.3 1091.32 112.933 1102.05 85.4C1112.78 57.8667 1130.52 36.8667 1155.25 22.4C1179.98 7.46667 1213.58 0 1256.05 0C1298.98 0 1332.82 7.46667 1357.55 22.4C1382.75 36.8667 1400.72 57.8667 1411.45 85.4C1422.18 112.933 1427.55 146.3 1427.55 185.5V396.2C1427.55 434.933 1422.18 468.3 1411.45 496.3C1400.72 524.3 1382.75 545.767 1357.55 560.7C1332.82 575.633 1298.98 583.1 1256.05 583.1ZM1256.05 494.2C1269.12 494.2 1278.68 490.933 1284.75 484.4C1290.82 477.867 1294.78 469.467 1296.65 459.2C1298.52 448.933 1299.45 438.433 1299.45 427.7V154.7C1299.45 143.5 1298.52 133 1296.65 123.2C1294.78 112.933 1290.82 104.533 1284.75 98C1278.68 91.4667 1269.12 88.2 1256.05 88.2C1243.92 88.2 1234.82 91.4667 1228.75 98C1222.68 104.533 1218.72 112.933 1216.85 123.2C1214.98 133 1214.05 143.5 1214.05 154.7V427.7C1214.05 438.433 1214.75 448.933 1216.15 459.2C1218.02 469.467 1221.75 477.867 1227.35 484.4C1233.42 490.933 1242.98 494.2 1256.05 494.2Z" fill="black"/>
<path d="M1491.21 574.7L1501.01 7.69998H1635.41L1697.71 337.4L1764.91 7.69998H1894.41L1904.21 574.7H1815.31L1804.81 197.4L1739.01 574.7H1659.91L1589.91 194.6L1581.51 574.7H1491.21Z" fill="black"/>
<path d="M1948.38 574.7L2055.48 7.69998H2198.28L2303.98 574.7H2188.48L2169.58 455H2086.28L2066.68 574.7H1948.38ZM2097.48 380.1H2157.68L2127.58 158.9L2097.48 380.1Z" fill="black"/>
<path d="M2370.38 574.7V100.8H2284.98V7.69998H2581.08V100.8H2496.38V574.7H2370.38Z" fill="black"/>
<path d="M2620.5 574.7V7.69998H2875.3V93.1H2745.8V233.8H2844.5V320.6H2745.8V490H2876.7V574.7H2620.5Z" fill="black"/>
<path d="M3137.19 574.7L3068.59 7.69998H3174.99L3208.59 338.1L3251.29 8.40002H3334.59L3379.39 336L3413.69 7.69998H3518.69L3450.79 574.7H3341.59L3293.29 232.4L3247.79 574.7H3137.19Z" fill="black"/>
<path d="M3731.67 583.1C3689.21 583.1 3655.61 575.633 3630.87 560.7C3606.14 545.767 3588.41 524.3 3577.67 496.3C3566.94 468.3 3561.57 434.933 3561.57 396.2V185.5C3561.57 146.3 3566.94 112.933 3577.67 85.4C3588.41 57.8667 3606.14 36.8667 3630.87 22.4C3655.61 7.46667 3689.21 0 3731.67 0C3774.61 0 3808.44 7.46667 3833.17 22.4C3858.37 36.8667 3876.34 57.8667 3887.07 85.4C3897.81 112.933 3903.17 146.3 3903.17 185.5V396.2C3903.17 434.933 3897.81 468.3 3887.07 496.3C3876.34 524.3 3858.37 545.767 3833.17 560.7C3808.44 575.633 3774.61 583.1 3731.67 583.1ZM3731.67 494.2C3744.74 494.2 3754.31 490.933 3760.37 484.4C3766.44 477.867 3770.41 469.467 3772.27 459.2C3774.14 448.933 3775.07 438.433 3775.07 427.7V154.7C3775.07 143.5 3774.14 133 3772.27 123.2C3770.41 112.933 3766.44 104.533 3760.37 98C3754.31 91.4667 3744.74 88.2 3731.67 88.2C3719.54 88.2 3710.44 91.4667 3704.37 98C3698.31 104.533 3694.34 112.933 3692.47 123.2C3690.61 133 3689.67 143.5 3689.67 154.7V427.7C3689.67 438.433 3690.37 448.933 3691.77 459.2C3693.64 469.467 3697.37 477.867 3702.97 484.4C3709.04 490.933 3718.61 494.2 3731.67 494.2Z" fill="black"/>
<path d="M3968.93 574.7V7.69998H4125.03C4163.3 7.69998 4196.43 11.9 4224.43 20.3C4252.43 28.7 4274.13 43.8667 4289.53 65.8C4305.4 87.2667 4313.33 117.833 4313.33 157.5C4313.33 180.833 4311.46 201.6 4307.73 219.8C4304 238 4297 253.867 4286.73 267.4C4276.93 280.467 4262.7 291.433 4244.03 300.3L4321.73 574.7H4192.23L4129.93 320.6H4094.23V574.7H3968.93ZM4094.23 248.5H4129.23C4146.96 248.5 4160.73 245.467 4170.53 239.4C4180.33 232.867 4187.1 223.767 4190.83 212.1C4195.03 199.967 4197.13 185.5 4197.13 168.7C4197.13 144.433 4192.7 125.533 4183.83 112C4174.96 98.4667 4158.63 91.7 4134.83 91.7H4094.23V248.5Z" fill="black"/>
<path d="M4378.16 574.7V7.69998H4503.46V239.4L4598.66 7.69998H4721.16L4616.16 263.9L4726.06 574.7H4598.66L4516.76 324.1L4503.46 346.5V574.7H4378.16Z" fill="black"/>
<path d="M4902.33 583.1C4866.87 583.1 4837.24 576.8 4813.44 564.2C4789.64 551.6 4771.67 532.233 4759.54 506.1C4747.4 479.5 4740.64 445.2 4739.24 403.2L4846.33 387.1C4846.8 411.367 4848.9 430.967 4852.64 445.9C4856.84 460.833 4862.44 471.567 4869.44 478.1C4876.9 484.633 4885.77 487.9 4896.04 487.9C4909.1 487.9 4917.5 483.467 4921.24 474.6C4925.44 465.733 4927.54 456.4 4927.54 446.6C4927.54 423.267 4921.94 403.667 4910.74 387.8C4899.54 371.467 4884.37 355.133 4865.24 338.8L4816.24 296.1C4794.77 277.9 4776.57 257.367 4761.64 234.5C4747.17 211.167 4739.94 182.467 4739.94 148.4C4739.94 100.333 4754.17 63.7 4782.64 38.5C4811.1 12.8333 4849.83 0 4898.83 0C4929.17 0 4953.44 5.13334 4971.64 15.4C4990.3 25.6667 5004.3 39.2 5013.64 56C5023.44 72.3333 5029.97 89.8333 5033.24 108.5C5036.97 126.7 5039.07 144.2 5039.54 161L4931.74 174.3C4931.27 157.5 4930.1 143.033 4928.24 130.9C4926.84 118.3 4923.57 108.733 4918.44 102.2C4913.3 95.2 4905.37 91.7 4894.64 91.7C4882.97 91.7 4874.34 96.6 4868.74 106.4C4863.6 116.2 4861.04 126 4861.04 135.8C4861.04 156.8 4865.94 174.067 4875.74 187.6C4886 200.667 4899.3 214.433 4915.64 228.9L4962.54 270.2C4987.27 291.2 5008.03 315 5024.83 341.6C5042.1 368.2 5050.74 401.1 5050.74 440.3C5050.74 466.9 5044.67 491.167 5032.54 513.1C5020.4 534.567 5003.14 551.6 4980.74 564.2C4958.8 576.8 4932.67 583.1 4902.33 583.1Z" fill="black"/>
</svg>
