<svg id="Avenue_Logo_Reversed" data-name="Avenue Logo – Reversed" xmlns="http://www.w3.org/2000/svg" xmlns:xlink="http://www.w3.org/1999/xlink" width="262.018" height="85" viewBox="0 0 262.018 85">
  <defs>
    <linearGradient id="linear-gradient" x1="0.175" y1="0.386" x2="0.791" y2="1.315" gradientUnits="objectBoundingBox">
      <stop offset="0.28" stop-color="#a3def5"/>
      <stop offset="1" stop-color="#0080a2"/>
    </linearGradient>
    <linearGradient id="linear-gradient-2" x1="0" y1="0.5" x2="1" y2="0.5" xlink:href="#linear-gradient"/>
  </defs>
  <path id="Path_125" data-name="Path 125" d="M70.969,170.728v4.145H67.41V160.22h9.839c3.559,0,5.756,2.114,5.756,5.149a4.981,4.981,0,0,1-2.385,4.52v.066l2.62,4.918H79.18l-2.219-4.145Zm6.28-3.035c1.236,0,2.009-.839,2.009-2.284a1.921,1.921,0,0,0-2.009-2.153h-6.28v4.437Z" transform="translate(-37.97 -90.248)" fill="#a3def5"/>
  <path id="Path_126" data-name="Path 126" d="M149.452,159.35c5.612,0,8.477,2.62,8.477,7.7s-2.865,7.7-8.477,7.7h-2.721c-5.612,0-8.481-2.62-8.481-7.7s2.869-7.7,8.481-7.7Zm-.629,12.372c3.537,0,5.4-1.59,5.4-4.669s-1.865-4.664-5.4-4.664H147.36c-3.542,0-5.4,1.568-5.4,4.664s1.86,4.651,5.4,4.669Z" transform="translate(-77.873 -89.758)" fill="#a3def5"/>
  <path id="Path_127" data-name="Path 127" d="M229.022,159.35c5.608,0,8.477,2.62,8.477,7.7s-2.869,7.7-8.477,7.7H226.3c-5.608,0-8.477-2.62-8.477-7.7s2.869-7.7,8.477-7.7Zm-.642,12.372c3.537,0,5.4-1.59,5.4-4.669s-1.86-4.664-5.4-4.664h-1.467c-3.537,0-5.4,1.568-5.4,4.664s1.865,4.651,5.4,4.669Z" transform="translate(-122.692 -89.758)" fill="#a3def5"/>
  <path id="Path_128" data-name="Path 128" d="M302.859,166.312h9.149v3.013h-9.149v5.546H299.3V160.22h14.176v3.035H302.859Z" transform="translate(-168.588 -90.248)" fill="#a3def5"/>
  <path id="Path_129" data-name="Path 129" d="M367.22,160.22h3.559v14.652H367.22Z" transform="translate(-206.845 -90.248)" fill="#a3def5"/>
  <path id="Path_130" data-name="Path 130" d="M413.72,160.22h3.555l9.63,9.879V160.22h3.559v14.652H426.9l-9.63-9.879v9.879H413.72Z" transform="translate(-233.038 -90.248)" fill="#a3def5"/>
  <path id="Path_131" data-name="Path 131" d="M507.75,168.858c0,3.891-2.721,5.9-8.062,5.9h-2.721c-5.608,0-8.477-2.62-8.477-7.7s2.869-7.7,8.477-7.7h2.721c5.363,0,8.084,1.821,8.062,5.4H504c0-1.568-1.655-2.363-4.939-2.363h-1.467c-3.533,0-5.385,1.612-5.385,4.669s1.865,4.669,5.4,4.669h1.467c3.245,0,4.918-.939,4.939-2.782V168.9h-7.363v-2.62h11.1Z" transform="translate(-275.154 -89.758)" fill="#a3def5"/>
  <path id="Path_132" data-name="Path 132" d="M171.57,42.25h4.555l11.141,24.195L198.271,42.25h4.577L187.655,75.441h-.79Z" transform="translate(-96.641 -23.798)" fill="#fff"/>
  <path id="Path_133" data-name="Path 133" d="M283.865,63.315l3.6,1.891a19.53,19.53,0,0,1-4.092,5.612,16.22,16.22,0,0,1-5.241,3.249,18.22,18.22,0,0,1-6.551,1.114q-8.123,0-12.7-5.324A17.967,17.967,0,0,1,254.3,57.821a17.753,17.753,0,0,1,3.878-11.259,15.927,15.927,0,0,1,13.18-6.263,16.384,16.384,0,0,1,13.56,6.433,17.984,17.984,0,0,1,3.664,11.355H258.714a13.5,13.5,0,0,0,3.695,9.481,11.792,11.792,0,0,0,8.826,3.7,14.155,14.155,0,0,0,4.935-.873,12.936,12.936,0,0,0,4.079-2.341A19.809,19.809,0,0,0,283.865,63.315Zm0-8.94a14.224,14.224,0,0,0-2.489-5.463,11.792,11.792,0,0,0-4.324-3.293A13.22,13.22,0,0,0,271.4,44.37a12.176,12.176,0,0,0-8.4,3.14,14.174,14.174,0,0,0-3.878,6.865Z" transform="translate(-143.239 -22.7)" fill="#fff"/>
  <path id="Path_134" data-name="Path 134" d="M351,41.149h4.271V47.1a17.906,17.906,0,0,1,5.677-5.11,13.975,13.975,0,0,1,6.774-1.69,11.792,11.792,0,0,1,6.608,1.891,11.255,11.255,0,0,1,4.254,5.092q1.376,3.206,1.371,9.975V74.341h-4.271V58.509a39.244,39.244,0,0,0-.472-7.656,8.449,8.449,0,0,0-2.847-4.961,8.569,8.569,0,0,0-5.494-1.66,10.538,10.538,0,0,0-6.944,2.559,12.023,12.023,0,0,0-4.04,6.346,44.1,44.1,0,0,0-.611,9.031V74.341H351Z" transform="translate(-197.709 -22.698)" fill="#fff"/>
  <path id="Path_135" data-name="Path 135" d="M437,42.25h4.271v15.5a33.015,33.015,0,0,0,.611,7.809,8.708,8.708,0,0,0,3.494,4.8,10.626,10.626,0,0,0,6.158,1.747,10.368,10.368,0,0,0,6.066-1.725,8.813,8.813,0,0,0,3.437-4.529q.642-1.922.642-8.145V42.25h4.367V58.54q0,6.865-1.6,10.346a12.184,12.184,0,0,1-4.8,5.442,15.2,15.2,0,0,1-8.066,1.97,15.431,15.431,0,0,1-8.11-1.97,12.137,12.137,0,0,1-4.852-5.49Q437,65.314,437,58.239Z" transform="translate(-246.151 -23.798)" fill="#fff"/>
  <path id="Path_136" data-name="Path 136" d="M551.105,63.315l3.6,1.891a19.7,19.7,0,0,1-4.092,5.612,16.286,16.286,0,0,1-5.241,3.249,18.212,18.212,0,0,1-6.551,1.114q-8.123,0-12.7-5.324a17.967,17.967,0,0,1-4.581-12.036,17.753,17.753,0,0,1,3.878-11.259A15.884,15.884,0,0,1,538.584,40.3a16.339,16.339,0,0,1,13.539,6.433,17.984,17.984,0,0,1,3.664,11.355h-29.85a13.52,13.52,0,0,0,3.695,9.481,11.792,11.792,0,0,0,8.831,3.7,14.133,14.133,0,0,0,4.931-.873,12.936,12.936,0,0,0,4.079-2.341A20.1,20.1,0,0,0,551.105,63.315Zm0-8.94a14.1,14.1,0,0,0-2.489-5.463,11.744,11.744,0,0,0-4.324-3.293,13.215,13.215,0,0,0-5.647-1.249,12.18,12.18,0,0,0-8.4,3.14,14.174,14.174,0,0,0-3.878,6.865Z" transform="translate(-293.769 -22.7)" fill="#fff"/>
  <path id="Path_137" data-name="Path 137" d="M59.417,17.386,36.165,0,0,55.652H11.534L36.165,17.744,60.8,55.652H83.934Z" fill="url(#linear-gradient)"/>
  <path id="Path_138" data-name="Path 138" d="M36.165,0,0,55.652H11.534L36.165,17.744,60.8,55.652Z" fill="url(#linear-gradient-2)"/>
  <rect id="Rectangle_1274" data-name="Rectangle 1274" width="5.988" height="5.988" transform="translate(29.217 36.847)" fill="#fff"/>
  <rect id="Rectangle_1275" data-name="Rectangle 1275" width="5.988" height="5.988" transform="translate(37.938 36.847)" fill="#fff"/>
  <rect id="Rectangle_1276" data-name="Rectangle 1276" width="5.988" height="5.988" transform="translate(37.938 45.568)" fill="#fff"/>
  <rect id="Rectangle_1277" data-name="Rectangle 1277" width="5.988" height="5.988" transform="translate(29.217 45.568)" fill="#fff"/>
</svg>
