<?xml version="1.0" encoding="UTF-8" standalone="no"?>
<!DOCTYPE svg PUBLIC "-//W3C//DTD SVG 1.1//EN" "http://www.w3.org/Graphics/SVG/1.1/DTD/svg11.dtd">
<svg width="100%" height="100%" viewBox="0 0 355 207" version="1.1" xmlns="http://www.w3.org/2000/svg" xmlns:xlink="http://www.w3.org/1999/xlink" xml:space="preserve" xmlns:serif="http://www.serif.com/" style="fill-rule:evenodd;clip-rule:evenodd;stroke-linejoin:round;stroke-miterlimit:1.41421;">
    <g transform="matrix(1,0,0,1,-230,0)">
        <g id="Group">
            <path d="M254,66.6C255.4,66.9 255.2,67.9 255.2,67.9C255.2,67.9 255.1,103.3 255.2,108.2C254.5,112.9 247,112.5 247,112.5L247,66.6C247,66.6 251.6,66.6 254,66.6ZM248,64.3L231.7,64.3C231.7,64.3 230.1,64.6 230.3,65.5C230.5,66.4 231.2,66.7 232.8,66.7L232.8,111.9L232.1,112.6C232.1,112.6 230.4,112.6 230,113.6C229.6,114.6 230.9,114.9 231.9,114.9C232.8,114.9 255.1,114.9 255.1,114.9C255.1,114.9 269.2,114.3 269.2,105C269.2,95.7 269.2,73.4 269.2,73.4C269.2,73.4 267.3,64.6 258,64.3C248.7,64.3 248,64.3 248,64.3Z" style="fill:rgb(0,32,91);fill-rule:nonzero;"/>
            <path d="M278.4,92.1C280.5,92.1 282.2,90.5 282.2,88.5C282.2,86.5 280.5,84.9 278.4,84.9C276.3,84.9 274.6,86.5 274.6,88.5C274.6,90.5 276.3,92.1 278.4,92.1Z" style="fill:rgb(0,32,91);fill-rule:nonzero;"/>
            <path d="M331.8,92.1C333.9,92.1 335.6,90.5 335.6,88.5C335.6,86.5 333.9,84.9 331.8,84.9C329.7,84.9 328,86.5 328,88.5C328.1,90.5 329.8,92.1 331.8,92.1Z" style="fill:rgb(0,32,91);fill-rule:nonzero;"/>
            <path d="M314.4,64.5C317,64.5 321.7,68.9 322.1,72.4C322.4,74.7 322.5,77.6 322.5,79.6C322.5,87.2 315.4,89 315.4,89C316.6,89.4 319.3,89.5 321.7,91C324.1,92.4 324.7,95.7 324.7,95.7L324.7,112L325.4,112.6C325.4,112.6 327.5,112.6 327.8,112.6C328.2,112.6 328.4,112.5 328.5,113.5C328.6,114.9 327.3,114.8 327.3,114.8C327.3,114.8 314.1,114.8 312.5,114.8C310.9,114.8 309.7,112 309.7,112C309.7,112 309.7,94.2 309.7,92.8C309.7,91.3 306.8,91.1 306.8,91.1L302,91.1L302,111.9L302.4,112.4C302.4,112.4 303.9,112.4 304.2,112.4C304.5,112.4 305.1,112.1 305.1,113.4C305.2,114.9 304.5,114.5 304.5,114.5C304.5,114.5 286.1,114.5 285.6,114.5C285.1,114.5 284.7,114.4 284.7,113.6C284.7,112.9 285.6,112.4 285.6,112.4L286.9,112.4L287.9,111.4L287.9,67.2L287.2,66.6C287.2,66.6 286.8,66.6 285.7,66.6C284.6,66.6 285.1,66.2 285.1,65.2C285,64.3 286,64.5 286,64.5L314.4,64.5ZM305.4,66.6L302.1,66.6L302.1,88.4L308.2,88.4C308.2,88.4 309.7,88.3 309.7,86.4C309.7,84.5 309.7,68 309.7,68C309.7,68 309.3,66.5 307.7,66.5C306.2,66.6 305.4,66.6 305.4,66.6Z" style="fill:rgb(0,32,91);fill-rule:nonzero;"/>
            <path d="M454.9,64.5C457.5,64.5 462.2,68.9 462.6,72.4C462.9,74.7 463,77.6 463,79.6C463,87.2 456,89 456,89C457.2,89.4 459.9,89.5 462.3,91C464.7,92.4 465.3,95.7 465.3,95.7L465.3,112L466,112.6C466,112.6 468.1,112.6 468.4,112.6C468.8,112.6 469,112.5 469.1,113.5C469.2,114.9 467.9,114.8 467.9,114.8C467.9,114.8 454.7,114.8 453.2,114.8C451.6,114.8 450.4,112 450.4,112C450.4,112 450.4,94.2 450.4,92.8C450.4,91.3 447.4,91.1 447.4,91.1L442.6,91.1L442.6,111.9L443,112.4C443,112.4 444.5,112.4 444.8,112.4C445.1,112.4 445.7,112.1 445.7,113.4C445.8,114.9 445.1,114.5 445.1,114.5C445.1,114.5 426.8,114.5 426.2,114.5C425.7,114.5 425.3,114.4 425.3,113.6C425.3,112.9 426.2,112.4 426.2,112.4L427.5,112.4L428.5,111.4L428.5,67.2L427.8,66.6C427.8,66.6 427.4,66.6 426.3,66.6C425.2,66.6 425.7,66.2 425.6,65.2C425.5,64.3 426.5,64.5 426.5,64.5L454.9,64.5ZM445.9,66.6L442.6,66.6L442.6,88.4L448.7,88.4C448.7,88.4 450.2,88.3 450.2,86.4C450.2,84.5 450.2,68 450.2,68C450.2,68 449.8,66.5 448.2,66.5C446.6,66.6 445.9,66.6 445.9,66.6Z" style="fill:rgb(0,32,91);fill-rule:nonzero;"/>
            <path d="M360.5,91.3L363.7,91.3L364.4,91.9C364.4,91.9 364.3,113.2 364.4,114C364.5,114.8 365.1,114.9 365.1,114.9C365.1,114.9 379.7,114.9 380.6,114.9C381.5,114.9 381.9,114.3 381.9,114C381.9,113.7 381.8,112.6 380.2,112.6C378.6,112.6 378.8,111.5 378.8,111.5C378.8,111.5 378.7,68 378.8,67.3C378.9,66.6 378.8,66.5 380.1,66.5C381.4,66.5 381.6,66.2 381.6,65.5C381.6,64.8 380.6,64.3 380.6,64.3C380.6,64.3 365.4,64.3 364.9,64.3C364.4,64.3 364.3,65.2 364.3,65.2L364.3,86.4L363.6,87.1L360.4,87.1L356.4,87.1L355.7,86.4L355.7,65.2C355.7,65.2 355.6,64.3 355.1,64.3C354.6,64.3 339.4,64.3 339.4,64.3C339.4,64.3 338.4,64.8 338.4,65.5C338.4,66.2 338.6,66.5 339.9,66.5C341.2,66.5 341.1,66.6 341.2,67.3C341.3,68 341.2,111.5 341.2,111.5C341.2,111.5 341.3,112.6 339.8,112.6C338.3,112.6 338.1,113.7 338.1,114C338.1,114.3 338.5,114.9 339.4,114.9C340.3,114.9 354.9,114.9 354.9,114.9C354.9,114.9 355.5,114.8 355.6,114C355.7,113.2 355.6,91.9 355.6,91.9L356.3,91.3L360.5,91.3" style="fill:rgb(0,32,91);fill-rule:nonzero;"/>
            <path d="M403.6,115.1C394.8,115.1 392.2,113.8 389.1,110.9C386.1,108 385.6,102.4 385.4,100C385.2,97.7 385.2,96.1 385.2,87.9C385.2,81.4 385.7,78.1 386.8,73.6C388.2,67.7 390.7,66.6 393.8,65.2C396.8,63.8 403.9,63.7 403.9,63.7L404.9,63.6C404.9,63.6 411.3,63.8 414.3,65.2C417.4,66.6 419.9,67.8 421.3,73.6C422.4,78.1 422.9,81.4 422.9,87.9C422.9,96.1 422.9,97.6 422.7,100C422.5,102.3 422.1,107.9 419,110.9C416,113.8 413.6,115.1 404.8,115.1L403.6,115.1ZM404.2,113.6C409.5,113.6 408.7,110.8 408.7,110.8C408.7,110.8 408.7,70.2 408.7,69.1C408.7,65.3 405.6,65.1 404.4,65.1L403.7,65.1C402.6,65.1 399.1,65.3 399.1,69.1C399.1,70.2 399.1,110.8 399.1,110.8C399.1,110.8 398.2,113.6 403.5,113.6L404.2,113.6Z" style="fill:rgb(0,32,91);fill-rule:nonzero;"/>
            <path d="M515.4,115.1C506.6,115.1 504,113.8 500.9,110.9C497.9,108 497.4,102.4 497.2,100C497,97.7 497,96.1 497,87.9C497,81.4 497.5,78.1 498.6,73.6C500,67.7 502.5,66.6 505.6,65.2C508.6,63.8 515.7,63.7 515.7,63.7L516.7,63.6C516.7,63.6 523.1,63.8 526.1,65.2C529.2,66.6 531.7,67.8 533.1,73.6C534.2,78.1 534.7,81.4 534.7,87.9C534.7,96.1 534.7,97.6 534.5,100C534.3,102.3 533.8,107.9 530.8,110.9C527.8,113.8 525.4,115.1 516.5,115.1L515.4,115.1ZM516.1,113.6C521.3,113.6 520.6,110.8 520.6,110.8C520.6,110.8 520.6,70.2 520.6,69.1C520.6,65.3 517.4,65.1 516.3,65.1L515.6,65.1C514.5,65.1 511,65.3 511,69.1C511,70.2 511,110.8 511,110.8C511,110.8 510.1,113.6 515.4,113.6L516.1,113.6Z" style="fill:rgb(0,32,91);fill-rule:nonzero;"/>
            <path d="M481.6,64.4L498.9,64.4C498.9,64.4 499.6,65 499.6,65.5C499.6,66 499.6,70.8 499.6,70.8C499.6,70.8 499.5,72 498.5,72C497.5,72.1 497.3,71.6 497.3,70.6C497.2,69.5 497.3,69 497.3,69L489.1,69C489.1,69 488.1,68.9 488.1,69.8C488.1,70.7 488.1,111.6 488.1,111.6C488.1,111.6 488,112.6 489.8,112.6C490.8,112.6 490.8,113 490.8,113.7C490.8,114.4 490.5,114.8 489.7,114.8C488.9,114.8 481.6,114.8 481.6,114.8C481.6,114.8 472.7,114.8 471.9,114.8C471.1,114.8 470.8,114.4 470.8,113.7C470.8,113 470.7,112.6 471.7,112.6C473.5,112.6 473.4,111.6 473.4,111.6C473.4,111.6 473.4,70.6 473.4,69.8C473.4,68.9 472.4,69 472.4,69L464.2,69C464.2,69 464.3,69.6 464.2,70.6C464.1,71.7 463.9,72.2 463,72C462,71.9 461.9,70.8 461.9,70.8C461.9,70.8 461.9,65.9 461.9,65.5C461.9,65 462.6,64.4 462.6,64.4L481.6,64.4Z" style="fill:rgb(0,32,91);fill-rule:nonzero;"/>
            <path d="M559.3,114.9L570.7,114.9L570.7,67.2C570.7,67.2 570.4,66.5 571.9,66.5C573.4,66.5 573.4,65.6 573.4,65.2C573.4,64.8 572.8,64.2 572.1,64.2C571.3,64.2 565.6,64.2 565.6,64.2C565.6,64.2 564.6,64.2 564.6,65.3C564.6,66.2 564.9,66.6 565.4,66.6C565.9,66.6 566.8,66.5 566.9,67.3C567,68.4 566.9,96.4 566.9,96.4L554.8,67C554.8,67 555.1,66.5 556,66.5C556.9,66.5 557.4,66 557.4,65.2C557.4,64.4 556.9,64.2 556.5,64.2C556.1,64.2 538.1,64.2 538.1,64.2C538.1,64.2 537.1,64.6 537.1,65.3C537.1,66 537.1,66.4 537.9,66.4C538.7,66.4 539.6,66.6 539.6,67C539.6,67.4 539.6,111.9 539.6,111.9C539.6,111.9 539.9,112.6 538.4,112.6C536.9,112.6 536.9,113.5 536.9,113.9C536.9,114.3 537.5,114.9 538.2,114.9C539,114.9 544.7,114.9 544.7,114.9C544.7,114.9 545.7,114.9 545.7,113.8C545.7,112.9 545.4,112.5 544.9,112.5C544.4,112.5 543.5,112.6 543.4,111.8C543.3,110.8 543.4,75 543.4,75L559.3,114.9Z" style="fill:rgb(0,32,91);fill-rule:nonzero;"/>
        </g>
        <path d="M580.7,72.6C578.7,72.6 576.9,71.2 576.9,68.8C576.9,66.4 578.7,65 580.7,65C582.7,65 584.5,66.4 584.5,68.8C584.5,71.2 582.7,72.6 580.7,72.6ZM580.7,65.8C579.2,65.8 578,67 578,68.7C578,70.5 579.2,71.6 580.7,71.6C582.2,71.6 583.4,70.4 583.4,68.7C583.4,67 582.2,65.8 580.7,65.8ZM580,70.8L579.1,70.8L579.1,66.7L580.6,66.7C581.7,66.7 582.3,67 582.3,67.9C582.3,68.7 581.9,68.9 581.3,69L582.3,70.8L581.3,70.8L580.4,69.1L580,69.1L580,70.8ZM580.8,68.4C581.2,68.4 581.4,68.3 581.4,67.9C581.4,67.5 580.9,67.4 580.6,67.4L580,67.4L580,68.4L580.8,68.4Z" style="fill:rgb(0,32,91);fill-rule:nonzero;"/>
        <rect x="230" y="49.1" width="344.6" height="3.5" style="fill:rgb(0,32,91);"/>
        <path d="M277.2,154.8C277,154.8 276.9,155 276.8,155.3C276.5,156.1 276,156.9 275.3,157.8C274.6,158.6 273.9,159.4 273.1,160.1C272.3,160.8 271.5,161.3 270.7,161.7C270.5,160.5 270.4,159.3 270.4,158C270.5,154.9 270.8,151.5 271.3,147.8L271.4,146.8L271.4,146.6L274.2,146.3L277.1,146L277.6,146C278.3,145.9 278.6,145.7 278.4,145.3C278.3,145 277.9,144.8 277.4,144.7C276.7,144.6 274.9,144.6 272,144.7L271.7,144.7L271.8,144.5L272.4,140.9C272.7,139.1 273.2,136.9 273.8,134.1C274,133.2 274,132.5 273.8,132C273.5,131.3 273,130.7 272.2,130.1C271.4,129.5 270.8,129.2 270.2,129.2C269.9,129.2 269.6,129.4 269.1,129.7L268.6,130.1C268,130.6 267.1,131.2 266.1,132.1C265,133 263.8,134 262.5,135.2L257.2,139.8L251.2,145.2C251.1,145.2 251,145.3 250.8,145.5L250.5,145.5C249.1,145.6 247.5,145.7 246,145.7C244.5,145.7 243.4,145.7 242.8,145.7C242.2,145.6 241.6,145.7 240.9,145.4C241.4,146.3 241.8,147 242.1,147.5C242.4,148 242.7,148.2 243,148.5C243.3,148.8 243.7,149 244.2,149.2C244.6,149.4 245.1,149.4 245.5,149.4C245.7,149.4 246,149.4 246.6,149.3L247.6,149.2L247.8,149.2L247.7,149.3C247,150.1 246.2,150.9 245.4,151.6C245.1,151.9 244.7,152.3 244.1,152.8C243.6,153.3 242.8,154 242,154.9C241.4,155.5 240.8,156.1 240.3,156.5C239.8,157 239.4,157.3 239.2,157.6C233.9,162.6 232,161.5 230.7,163.5C230.3,164.2 231.1,165.6 232.1,166.4C233.1,167.2 234.8,167.5 235.6,167.5C236.2,167.5 236.8,167.3 237.5,166.9C238,166.5 238.8,165.8 239.7,164.8C240.8,163.6 247.5,155.7 245,158.6C244.3,159.5 245.8,157.9 249.1,153.6L251.2,151L253.3,148.4L257.1,148L260.9,147.6L263.6,147.3L266.3,147L265.8,150.3L265.3,153.6C264.8,156.8 264.7,159.1 265,160.7C265.1,161.3 265.2,161.8 265.4,162.1C265.7,162.8 266.2,163.5 266.8,164.2C267.5,165 268.2,165.6 268.9,166.1C269.7,166.6 270.3,166.8 270.8,166.8C271.3,166.8 271.7,166.5 272.2,166.1C274.7,163.3 276.5,160.1 277.6,156.4C277.7,155.9 277.8,155.6 277.7,155.4C277.7,154.9 277.5,154.8 277.2,154.8ZM269,135.5C268.7,136.8 268.4,138.1 268.1,139.5L267.6,142.1L267,144.6L263.4,144.7L259.8,144.8L257.6,144.9L255.4,145L255.5,144.8C257.7,142.2 260.7,139.3 264.4,135.9C265.4,135 266.3,134.2 267.1,133.6C267.9,133 268.9,132.4 270,131.7C269.6,133 269.3,134.2 269,135.5Z" style="fill:rgb(0,32,91);fill-rule:nonzero;"/>
        <path d="M345.2,149.9C345.4,149.3 345.9,148.6 346.7,147.5L347.9,146C348.2,145.5 348.3,145.1 348.2,144.7C348,144.2 347.7,143.8 347.2,143.4C346.7,143.1 346.2,142.9 345.8,142.9C345.3,142.9 344.7,143.1 344.1,143.5C343.5,143.9 342.4,144.8 341,146.1L337.8,148.9C337.3,149.3 336.8,149.8 336.2,150.4C335.6,151 334.8,151.8 333.9,152.7C334.5,151.2 335.2,150 335.9,149.1L337.9,146.3C338.3,145.8 338.3,145.3 338.1,144.8C337.9,144.3 337.6,143.8 337.1,143.5C336.7,143.2 336.2,143 335.7,143C335.4,143 335.2,143 335.1,143.1C335,143.2 334.8,143.4 334.5,143.9L334.1,144.7C333.3,145.9 331.8,147.9 328.4,150.5C327.5,151.2 323.4,154.4 321.3,155.3C318.6,156.4 317.2,156.4 315.6,156.2C315,156.1 314.2,155.6 313.9,155.2C313.5,154.7 313.4,154.3 313.7,153.5C314,152.7 314.5,151.6 314.9,151.7C316.1,152.1 317.2,152.7 319.3,152.8C321.2,152.9 322,152.5 323,151.9C324,151.4 325.1,150.5 325.9,149.4C326.8,148.1 327.3,147 327,145.8C326.9,145.4 326.7,144.9 326.3,144.5C325.8,144.1 325.3,143.7 324.7,143.5C324,143.3 323.3,143.3 322.9,143.3C322,143.3 321.1,143.4 319.5,144.1C317.9,144.8 316.5,145.6 315.2,146.6C313.6,147.8 312.4,149.1 311.6,150.5C311.3,150.5 310.9,150.6 310.5,150.7C308.1,151.1 306.1,151.9 304.4,153.1C305.3,150.7 306.5,148.4 308.2,146C308.5,145.6 308.5,145.2 308.3,144.8C308.1,144.3 307.8,143.9 307.3,143.5C306.9,143.2 306.4,143 305.9,143C305.6,143 305.2,143.2 304.7,143.5C303.9,144.1 302.6,145.1 300.9,146.6L297.6,149.4C296.4,150.5 295.3,151.6 294.3,152.7C294.5,152.2 294.8,151.5 295.1,150.8C295.3,150.3 295.5,149.9 295.7,149.6C295.9,149.3 296.1,148.9 296.3,148.6C296.5,148.2 297.1,147.3 297.9,146C298.3,145.4 298.4,144.9 298.3,144.5C298.1,144.1 297.8,143.7 297.4,143.4C296.9,143.1 296.5,142.9 296,142.9C295.6,142.9 295.1,143.1 294.5,143.5C293.2,144.4 291.4,145.9 289.1,147.9C287.3,149.4 285.5,151.1 283.8,152.9C284.6,151.2 285.3,150 286,148.8L286.5,147.8C287,146.7 286.9,146.5 287.2,145.5C287.3,145.3 287.5,144.3 287.3,143.5C287.2,143.1 287,142.7 286.6,142.3C286.4,142.2 286.2,142 285.8,141.9C285.5,141.8 284.8,141.6 284.7,142.1C284.6,142.4 286.8,142.4 285.1,144.9L282.7,147.9C281.4,149.6 280.3,151.5 279.3,153.7C278.5,155.5 278.3,156.8 278.6,157.5C278.8,157.9 279.2,158.4 279.7,158.8C280.3,159.2 280.8,159.4 281.2,159.4C281.5,159.4 281.7,159.4 281.8,159.3C281.9,159.2 282.1,158.9 282.3,158.5C283.4,156.3 284.7,154.3 286.2,152.5C287.7,150.8 289.3,149.5 290.8,148.8C291.2,148.6 291.4,148.6 291.5,148.6C291.6,148.6 291.7,148.6 291.8,148.7C291.8,148.8 291.8,148.9 291.7,149.1L291.5,149.4L291.3,149.7C289.8,152.5 289,154.8 288.8,156.5C288.8,156.9 288.8,157.2 288.9,157.4C289.1,157.8 289.5,158.3 290.2,158.8C290.8,159.2 291.2,159.4 291.7,159.4C292,159.4 292.3,159.2 292.5,158.8C293.2,156.8 294.4,154.9 296.2,152.8C298,150.8 299.6,149.4 301.1,148.8C301.6,148.6 301.8,148.5 302,148.5C302.2,148.5 302.3,148.6 302.3,148.7C302.3,148.8 302.3,148.9 302.2,149L302,149.3C301.6,150 301.1,151 300.6,152.3C300.1,153.6 299.7,154.6 299.6,155.3C299.4,156.2 299.4,156.9 299.6,157.4C299.8,157.8 300.2,158.3 300.8,158.7C301.4,159.1 302,159.3 302.5,159.3C302.7,159.3 302.9,159.3 303,159.2C303.1,159.1 303.2,158.9 303.3,158.7C303.3,158.6 303.4,158.5 303.5,158.3C303.6,158.1 303.7,157.9 303.8,157.6C304.6,155.8 305.4,154.6 306.3,153.8C307.1,153.1 308.1,152.5 309.2,152.1C309.7,151.9 310.3,151.7 310.8,151.6C310.2,153.1 310,154.6 310.5,155.6C310.9,156.5 311.5,157.7 313.2,158.5C314.4,159 316.7,159 318.6,158.6C321.4,158 323,156.6 324.2,155.6C325.5,154.6 328,152.3 328.9,151.5C329.7,150.9 330.8,149.6 332,148.7C330.6,151 329.5,153.3 328.5,155.8C328.3,156.4 328.2,156.9 328.4,157.3C328.6,157.7 329,158.1 329.6,158.6C330.2,159.1 330.8,159.3 331.2,159.3C331.6,159.3 332,158.9 332.5,158C333.9,155.2 335.6,152.9 337.5,151.1C338.8,149.9 340.4,148.9 342.3,148.1C341.8,149 341.7,149.6 341.8,149.9C342,150.4 342.5,150.8 343.2,151.2C344,151.6 344.8,151.9 345.8,152C345.6,151.8 345.5,151.5 345.4,151.3C345,151 345,150.5 345.2,149.9ZM320.2,147.2C321.7,146.5 322.8,146.1 323.6,146.1C323.9,146.1 324.1,146.2 324.2,146.4C324.3,146.7 324.2,147.3 323.7,148.1C323.2,148.9 322.4,150.5 320.4,151.2C318.6,151.8 316.1,151.5 315.4,150.9C316.4,150 318.7,148 320.2,147.2Z" style="fill:rgb(0,32,91);fill-rule:nonzero;"/>
        <path d="M573.5,144.4C573.3,143.9 573,143.5 572.5,143.1C572,142.8 571.5,142.6 571.1,142.6C570.6,142.6 570,142.8 569.4,143.2C568.8,143.6 567.7,144.5 566.3,145.8L563.1,148.6C562.6,149 562.1,149.5 561.5,150.1C560.9,150.7 560.1,151.5 559.2,152.4C559.8,150.9 560.5,149.7 561.2,148.8L563.2,146C563.6,145.5 563.6,145 563.4,144.5C563.2,144 562.8,143.5 562.4,143.2C562,142.9 561.5,142.7 561,142.7C560.7,142.7 560.5,142.7 560.4,142.8C560.3,142.9 560.1,143.1 559.8,143.6L559.4,144.4C558.6,145.6 557.1,147.6 553.7,150.2C552.8,150.9 548.7,154.1 546.6,155C543.9,156.1 542.5,156.1 540.9,155.9C540.3,155.8 539.5,155.3 539.2,154.9C538.8,154.4 538.7,154 539,153.2C539.3,152.4 539.8,151.3 540.2,151.4C541.4,151.8 542.5,152.4 544.6,152.5C546.5,152.6 547.3,152.2 548.3,151.6C549.3,151.1 550.4,150.2 551.2,149.1C552.1,147.8 552.6,146.7 552.3,145.5C552.2,145.1 552,144.6 551.6,144.2C551.1,143.8 550.6,143.4 550,143.2C549.3,143 548.6,143 548.2,143C547.3,143 546.4,143.2 544.8,143.8C543.2,144.5 541.8,145.3 540.5,146.3C539,147.4 537.8,148.7 537,150C536.7,150 536.3,150.1 535.8,150.2C534.9,150.3 534.2,150.5 533.7,150.6C532.1,151 530.5,151.7 528.8,152.6C529.1,151.6 529.5,150.8 529.8,150.1C530.2,149.4 530.7,148.5 531.4,147.5C533.2,144.8 537.3,141.4 539.1,139.5L543,135.1C543.5,134.6 544.1,133.8 543.8,133.3C543.4,132.6 542.8,132.5 542.3,132.5C541.9,132.5 541.1,133.1 540.6,133.6C538.7,135.2 536.4,137.3 536.4,137.3C534.8,138.9 530.1,143.1 529.1,144.5L529,144.6C528.7,144 528.2,143.5 527.6,143.2C527,142.9 526.3,142.7 525.5,142.7C525,142.7 524.4,142.8 523.7,143C522.2,143.5 520.7,144.3 519.1,145.3C517.9,146 516.8,146.8 515.7,147.7C513.7,148.6 511.7,149.6 511.5,149.8C510.1,150.5 507.5,151.8 505.8,152.6C506.3,151 507.2,149.3 508.4,147.5C508.9,146.7 509.5,145.8 510.2,145C510.9,144.1 511.5,143.3 512.2,142.5C512.8,141.7 513.4,141.1 513.9,140.6L516.6,137.8C517.1,137.3 517.8,136.7 517.6,136.2C517.5,136 517.4,135.9 517.3,135.7C516.9,135.3 516.6,135.3 516.2,135.3C515.8,135.3 515.4,135.6 514.9,136C514.2,136.6 511.7,138.4 505.8,145.2C505.4,145.7 505,146.2 504.7,146.7C503.4,147.7 501.6,149.1 499.5,150.4C496.8,152.2 494.4,153.9 494.5,153.7C494.9,152.2 496.4,149.4 497.1,148.2L497.3,147.9C498.1,146.8 498.5,146.2 498.6,146C498.9,145.6 499.1,145.3 499.1,145.1C499.1,144.9 499.1,144.7 499,144.3C498.8,143.9 498.5,143.5 498.2,143.1C497.8,142.8 497.4,142.6 497.1,142.6C496.8,142.6 496.4,142.8 496.1,143.2L494.1,146.3C492.8,147.2 490.7,148.8 488.6,150.3C485.9,152.2 485.2,152.8 483.6,153.6C483.6,153.6 482.9,154.2 483.7,152.7C483.8,152.5 485,150 485.9,148.7C486,148.5 486.2,148.3 486.3,148.1C486.4,147.9 486.6,147.6 486.8,147.4C487,147.1 487.1,146.9 487.2,146.8C487.8,145.8 488.2,145.3 488.2,145.3C488.3,145 488.3,144.7 488.2,144.5C488.1,144.1 487.7,143.7 487.1,143.3C486.5,142.9 486,142.7 485.5,142.7C485.1,142.7 484.8,142.9 484.5,143.4C483.6,144.7 483,145.7 482.5,146.4C482,147.1 481.4,147.9 480.7,148.7C480,149.5 479.5,150.1 479.1,150.5C478.7,150.9 478.1,151.5 477.2,152.3C476.7,152.7 476.1,153.2 475.4,153.8C474.7,154.4 474.1,154.8 473.6,155C473.4,155.1 473.2,155.2 473,155.2C472.8,155.2 472.6,155.1 472.6,154.9C472.5,154.6 472.7,153.8 473.2,152.6C473.8,151.4 474.5,150.1 475.5,148.7C476,148 476.4,147.3 476.8,146.7C477.2,146.1 477.4,145.7 477.5,145.5C477.6,145.3 477.6,145.1 477.6,145C477.6,144.9 477.6,144.7 477.5,144.5C477.3,144 477,143.6 476.5,143.3C476,142.9 475.6,142.8 475.2,142.8C474.8,142.8 474.4,143 474,143.5L471.6,147.7C470.8,148.8 470.2,149.9 469.7,151C468.9,150.6 467.8,150.2 466.3,149.9C466.3,149.5 467.1,147.6 465,145.4C461.6,141.9 455.6,142.5 455.6,142.5C466.5,137.5 459.5,131.5 452.9,131.3C440.6,131 433,140.3 433,140.3C453,126.5 455.8,136.2 455.8,136.2C456.4,137.8 455,140.4 451.7,141.7C450.2,142.3 449.7,142.4 448.3,142.8C447.5,143 445.7,143.4 445.3,143.5C443.5,143.8 442.3,144 441.7,144.1L441.5,144.1L441.6,144C441.8,143.8 442,143.5 442.2,143.1C442.5,142.7 442.7,142.4 442.8,142.2C443.8,140.8 444.5,139.9 444.8,139.6C445.2,139.1 445.3,138.6 445.2,138.3C445.1,137.9 444.5,137.4 443.4,136.9C442.9,136.6 442.5,136.5 442.2,136.5C441.8,136.5 441.4,136.8 440.9,137.3C439.5,139 438.3,140.6 437.2,142.3C436.2,143.9 435.2,145.5 434.3,147.1C433.4,148.7 432.6,150.2 432,151.6L431.9,151.8C429.4,152.4 427.5,153.1 426,154C424.4,155 423.8,156.2 424.4,157.6C424.8,158.6 425.5,159.7 426.5,160.8C427.5,161.9 428.6,162.8 429.7,163.5C431.2,164.3 432.6,164.8 434.1,164.8C438.2,164.8 443.2,163.9 449.1,162C452,161.1 454.4,160.2 456.4,159.3C458.3,158.4 460.1,157.4 461.6,156.2C462.7,155.4 463.6,154.5 464.5,153.5C465.4,152.5 465.9,151.7 466,151.1L466.2,151.1C467.4,151.3 468.4,151.5 469,151.7L469.1,151.7C468.9,152.1 468.8,152.4 468.6,152.7C468.1,153.9 467.8,154.7 467.7,155.2C467.6,155.7 467.6,156.1 467.8,156.5C468.1,157.1 468.6,157.7 469.3,158.3C470,158.9 470.7,159.2 471.3,159.2C471.7,159.2 472.2,159 472.7,158.6C474.2,157.4 475.8,155.8 477.5,153.9L479.8,151.4C479.9,151.3 480.1,151.1 480.5,150.8C479.8,152.3 479.2,153.7 478.9,154.9C478.5,156.1 478.5,156.9 478.6,157.3C478.6,157.3 479.3,158.2 480,158.7C480.7,159.2 481.2,159.4 481.6,159.4C481.8,159.4 482,159.3 482.1,159.2C482.2,159.1 482.7,158.8 483,158.3C484,157 484.8,156.1 485.1,155.7C485.9,154.7 486.2,154.3 487,153.6C489.1,151.4 490.8,150.3 492.3,149.2C491.5,150.6 491,151.6 490.6,152.4C490.1,153.4 489.8,154.6 489.5,155.9C489.4,156.6 489.4,157.1 489.5,157.4C489.7,157.8 490.1,158.2 490.9,158.7C491.6,159.1 492.1,159.4 492.5,159.4C492.7,159.4 492.9,159.3 493,159.2C493.1,159.1 493.5,158.8 493.9,158.3C494.9,157 495.7,156.1 496,155.7C496.8,154.7 497.1,154.3 497.9,153.5C499.9,151.4 501.5,150.3 503,149.3C502.8,149.8 502.5,150.3 502.3,150.7C501.4,152.4 500.8,154.1 500.4,155.8C500.2,156.4 500.3,156.9 500.4,157.3C500.6,157.7 501,158.2 501.8,158.6C502.5,159 503,159.3 503.4,159.3C503.6,159.3 503.8,159.2 503.9,159.1C504,159 504.3,158.8 504.6,158.3C505.6,157 506.2,156.1 506.5,155.7C507.3,154.8 508.4,153.8 509.2,153.1C509.6,152.8 510.6,152.1 511.9,151.3C510.6,153 510.2,154.5 510.7,155.8C511.1,156.7 511.6,157.5 512.4,158.2C513.2,158.9 514,159.3 514.6,159.3C515,159.3 515.3,159.2 515.7,159C516.1,158.8 516.7,158.4 517.5,157.8C520,156 522.5,153.5 525.2,150.4L525.4,150.2L525.3,150.4C524.3,152.1 523.7,153.9 523.3,155.8C523.2,156.5 523.2,157 523.3,157.3C523.5,157.7 523.9,158.2 524.7,158.6C525.4,159 525.9,159.3 526.3,159.3C526.5,159.3 526.7,159.2 526.8,159.1C526.9,159 527.1,158.7 527.4,158.2C528.3,156.6 529,155.6 529.5,154.9C530,154.3 530.7,153.7 531.5,153.1C532.7,152.3 534.2,151.7 536,151.3C535.3,152.9 535.1,154.4 535.6,155.5C536,156.4 536.6,157.6 538.3,158.4C539.5,158.9 541.8,158.9 543.7,158.5C546.5,157.9 548.1,156.5 549.3,155.5C550.6,154.5 553.1,152.2 554,151.4C554.8,150.8 555.9,149.5 557.1,148.6C555.7,150.9 554.6,153.2 553.6,155.7C553.4,156.3 553.3,156.8 553.5,157.2C553.7,157.6 554.1,158 554.7,158.5C555.3,159 555.9,159.2 556.3,159.2C556.7,159.2 557.1,158.8 557.6,157.9C559,155.1 560.7,152.8 562.6,151C563.9,149.8 565.5,148.8 567.4,147.9C566.9,148.8 566.8,149.4 566.9,149.7C567.1,150.2 567.6,150.6 568.3,151C569.1,151.4 569.9,151.7 570.9,151.8C570.7,151.6 570.6,151.3 570.5,151.1C570.3,150.6 570.3,150.1 570.5,149.5C570.7,148.9 571.2,148.2 572,147.1L573.2,145.6C573.5,145.2 573.6,144.8 573.5,144.4ZM545.5,146.8C547,146.1 548.1,145.7 549,145.7C549.3,145.7 549.5,145.8 549.6,146C549.7,146.3 549.6,146.9 549.1,147.7C548.6,148.5 547.8,150.1 545.8,150.8C544,151.4 541.5,151.1 540.8,150.5C541.8,149.5 544.1,147.5 545.5,146.8ZM449.4,157.3C446.7,158.3 443.6,159.2 440.3,159.9C437,160.6 434.3,161 432.4,161C429.5,161 427.9,160.4 427.5,159.3C427.3,158.7 427.4,158 428,157.3C428.6,156.6 429.4,155.9 430.6,155.4L430.6,155.6C430.4,156.6 430.4,157.6 430.8,158.4C431.1,159.1 431.5,159.7 432.2,160.1L432.5,159.6L435.3,154.4L435.4,154.2L435.5,154C437.6,153.2 439.9,152.6 442.6,152C445.2,151.4 448,151 450.9,150.7C453.8,150.4 456.8,150.2 459.7,150.2C460.3,150.2 460.8,150.2 461.1,150.2C458.7,153 454.8,155.3 449.4,157.3ZM461.8,148.9L461.5,148.9C459.7,148.8 457.9,148.7 455.9,148.7C453.7,148.7 451.5,148.8 449.4,148.9C447.3,149 445.2,149.2 443.3,149.5C441.3,149.8 439.5,150.1 437.8,150.5L437.5,150.6L437.2,150.7L437.3,150.5L438,149.3C438.2,149 438.5,148.5 438.9,147.9L439.8,146.5L440.1,146.4L440.6,146.2C441.6,145.9 442.9,145.5 444.7,145.2C446.5,144.8 448.2,144.6 449.9,144.4C451.6,144.2 453,144.1 454.3,144.1C456.4,144.1 458.1,144.3 459.5,144.8C460.9,145.3 461.7,145.9 462,146.7C462.2,147.3 462.2,148.1 461.8,148.9ZM526.2,146.6C526,147.2 525.4,148.1 524.2,149.3C522.3,151.2 520.1,152.7 517.6,153.8C516.4,154.3 515.6,154.6 515.1,154.6C514.8,154.6 514.6,154.5 514.6,154.3C514.6,154.2 514.6,154 514.7,153.7C515.2,152.6 516.1,151.5 517.4,150.3C518.7,149.1 520.1,148.2 521.7,147.4C522.3,147.1 523,146.8 523.9,146.5C524.8,146.2 525.4,146.1 525.7,146.1C526,146.1 526.1,146.2 526.2,146.3C526.3,146.4 526.3,146.5 526.2,146.6Z" style="fill:rgb(0,32,91);fill-rule:nonzero;"/>
        <path d="M397.3,150.2C396.9,150.2 396.1,150.3 395.1,150.5C392.8,150.9 390.9,151.5 389.4,152.3C389.8,151.3 390.2,150.6 390.4,150.3L391.5,148.4C391.7,148 391.8,147.7 391.6,147.4C391.5,147.2 391.3,146.9 390.8,146.7C391.3,146 391.4,145.4 391.2,144.9C391,144.3 390.6,143.8 390,143.5C389.4,143.1 388.7,142.9 388,142.9C386.9,142.9 385.3,143.3 383.3,144.2C381.3,145 379.5,146 377.9,147.2C376.6,148.1 375.5,149 374.6,149.9C372.5,152.1 370.2,154 367.4,154.8C366.2,155.2 362.8,156.2 362.1,154.6C361.8,154 362.2,153.2 362.8,151.9C364.9,147.3 369.6,146 370,145.8C370.1,145.8 370.4,145.7 370.5,145.8C370.7,146 369.4,147.5 369.7,148.1C370.5,147 371.4,146.2 372.4,145.6C373,145.2 373.3,144.8 373.1,144.4C372.9,144 372.6,143.7 372.1,143.4C371.6,143.1 371.1,143 370.5,143C370.1,143 369.6,143.1 368.9,143.3C367.9,143.6 367,144 366.2,144.4C365.4,144.8 364.6,145.3 363.7,145.9C363.2,146.2 362.8,146.6 362.4,146.9C361.3,147.6 358.9,148.9 356.3,150.8C353.6,152.7 352.9,153.3 351.3,154.1C352,152.4 353.2,149.8 353.9,148.6L354.1,148.3C354.9,147.2 355.3,146.6 355.4,146.4C355.7,146 355.9,145.7 355.9,145.5C355.9,145.3 355.9,145.1 355.8,144.7C355.6,144.2 355.3,143.9 354.9,143.5C354.5,143.2 354.1,143 353.8,143C353.5,143 353.1,143.2 352.8,143.6L350.2,147.8L350.1,147.9C348.9,150 348.1,151.5 347.6,152.5C347.1,153.5 346.8,154.7 346.5,156C346.4,156.7 346.4,157.2 346.5,157.5C346.7,157.9 347.1,158.3 347.9,158.8C348.6,159.2 349.1,159.5 349.5,159.5C349.7,159.5 349.9,159.4 350,159.3C350.1,159.2 350.5,158.9 350.9,158.4C351.9,157.1 352.7,156.2 353,155.8C353.8,154.8 354.1,154.4 354.9,153.7C356.8,151.8 358.3,150.6 359.7,149.7C359.3,150.3 358.9,150.9 358.7,151.5C358.2,152.8 358.1,154 358.5,155C358.9,156 359.6,157.5 361.2,158.3C363.6,159.4 365.5,158.9 365.9,158.8C367.7,158.5 369.6,157.7 371.9,155.4C371.9,155.7 372,155.9 372.1,156.1C372.4,156.9 373,157.7 373.9,158.4C374.8,159.1 375.5,159.5 376.2,159.5C376.7,159.5 377.5,159.1 378.5,158.3C380.7,156.6 383,154.3 385.6,151.5L386.2,150.9L385.9,151.6C385.2,153.3 384.7,154.6 384.4,155.5C384.1,156.5 384.1,157.1 384.2,157.5C384.4,158 385,158.5 385.9,159C386.5,159.3 386.9,159.5 387.3,159.5C387.6,159.5 387.8,159.4 387.9,159.3C388,159.2 388.1,159 388.2,158.7C388.6,157.5 389,156.4 389.6,155.6C390.1,154.8 390.7,154.1 391.5,153.5C392.2,152.9 393.1,152.5 394.1,152.1C395.1,151.7 396.3,151.5 397.5,151.3C398.2,151.2 398.5,151 398.4,150.7C398,150.4 397.7,150.2 397.3,150.2ZM387.4,147.2C387.2,147.8 386.5,148.7 385.4,149.9C383.5,151.8 381.3,153.3 378.8,154.3C377.6,154.8 376.7,155.1 376.3,155.1C376,155.1 375.8,155 375.8,154.8C375.7,154.5 376,154 376.6,153.1C377,152.5 377.6,151.9 378.3,151.2C379,150.5 379.8,149.9 380.6,149.3C381.4,148.7 382.2,148.3 383,147.9C383.7,147.5 384.4,147.2 385.2,146.9C386,146.6 386.6,146.5 387,146.5C387.3,146.5 387.4,146.6 387.5,146.7C387.4,146.9 387.4,147 387.4,147.2Z" style="fill:rgb(0,32,91);fill-rule:nonzero;"/>
        <path d="M404.5,139.5C404.8,139 405,138.6 405,138.1C405,137.7 404.9,137.4 404.6,137.1C404.3,136.8 403.9,136.7 403.5,136.6C402.8,136.6 402,136.9 401.1,137.5C399.8,138.4 399.3,140.2 397.8,142C396.5,143.5 395,144.2 395,144.6C395,144.9 395.2,145.1 395.5,145.1C396,145.1 397,144.7 398.6,143.8C400.2,142.9 401.5,142.1 402.6,141.2C403.5,140.5 404.1,139.9 404.5,139.5Z" style="fill:rgb(0,32,91);fill-rule:nonzero;"/>
        <path d="M413.7,145C413.4,144.8 413.1,144.7 412.7,144.7C411.8,144.7 410.4,145 408.5,145.5C407.1,145.9 405.8,146.4 404.4,147C403.1,147.6 402.1,148.3 401.4,148.9C400.9,149.4 400.7,149.9 400.9,150.4C401.1,151 401.6,151.4 402.4,151.7C402.9,151.9 404.2,152 406.1,152C407.5,152 408.5,152.1 409.3,152.2C408,152.7 407,153 406.4,153.3C404.4,154.1 402.5,155 400.8,155.8C399.8,156.3 399.1,156.8 398.9,157C398.6,157.3 398.6,157.6 398.7,157.9C398.8,158.2 399.1,158.6 399.7,158.9C400.1,159.2 400.5,159.3 400.7,159.3C400.9,159.3 401.1,159.2 401.3,159C402.2,158.3 404,157.4 406.5,156C408.7,154.9 409.9,154.3 411.9,153.5C411.9,153.5 413.5,153 412.4,151.9C412.2,151.7 411.8,151.5 411.3,151.3C410.8,151.2 409.9,151.1 408.7,151C408.1,151 407.5,150.9 406.8,150.8C406.1,150.7 405.6,150.6 405.4,150.5C405.2,150.4 405,150.3 404.9,150.1C404.8,149.9 404.9,149.8 405.2,149.6C406.3,148.7 407.8,148 409.7,147.7L412.7,147.1C413.9,146.9 414.1,146.6 414.3,146.4C414.4,146.2 414.5,146.1 414.3,145.7C414.3,145.5 414,145.2 413.7,145Z" style="fill:rgb(0,32,91);fill-rule:nonzero;"/>
        <path d="M500.8,140.1C501.2,140.4 501.5,140.5 501.9,140.5C502.1,140.5 502.4,140.4 502.7,140.2C503,140 503.4,139.7 504,139.2C504.5,138.8 504.8,138.5 505.1,138.3C505.6,137.9 505.8,137.5 505.6,137.2C505.4,136.8 505.1,136.4 504.6,136.1C504.1,135.8 503.7,135.6 503.2,135.6C502.7,135.6 502,136.1 501.1,137.2C500.3,138.2 500,138.9 500.2,139.4C500.2,139.6 500.5,139.9 500.8,140.1Z" style="fill:rgb(0,32,91);fill-rule:nonzero;"/>
        <path d="M357.6,140.6C358,140.8 358.3,141 358.6,141C358.8,141 359.1,140.9 359.4,140.7C359.7,140.5 360.1,140.2 360.7,139.7C361.2,139.3 361.5,139 361.8,138.8C362.3,138.4 362.5,138 362.3,137.7C362.1,137.3 361.8,136.9 361.3,136.6C360.8,136.3 360.4,136.1 359.9,136.1C359.4,136.1 358.7,136.6 357.8,137.7C357,138.7 356.7,139.4 356.9,139.9C357,140.1 357.2,140.3 357.6,140.6Z" style="fill:rgb(0,32,91);fill-rule:nonzero;"/>
    </g>
</svg>
