<svg fill="none" xmlns="http://www.w3.org/2000/svg" viewBox="0 0 235 48">
  <path d="M26.576 24.588a6.627 6.627 0 0 0-1.593-2.711c-.249 1.945-1.398 2.128-1.398 2.128.02-.008.04-.02.055-.037l-.055.037a8.775 8.775 0 0 0 .261-2.718 5.649 5.649 0 0 0-.82-2.645 5.369 5.369 0 0 0-2.663-2.122l-.444-.176.152.45c.662 1.988-.402 3.253-1.642 4.718a9.582 9.582 0 0 0-2.177 3.557 7.055 7.055 0 0 0-.17 3.441c.18.857.557 1.66 1.1 2.347.227.292.48.562.755.809.22.225.463.429.723.608a3.192 3.192 0 0 1-.28-1.958c.286-1.617 2.354-3.04 2.785-5.278a.036.036 0 0 1 .067 0c.37 1.934 2.846 3.618 2.846 5.916 0 .456-.104.905-.305 1.314.3-.198.576-.43.821-.694.343-.285.653-.607.924-.96a6.555 6.555 0 0 0 1.217-2.773 6.756 6.756 0 0 0-.159-3.253Z" fill="#F86E2D"></path>
  <path fill-rule="evenodd" clip-rule="evenodd" d="M6.888 27.852a14.672 14.672 0 0 0 29.215 0h6.847a21.5 21.5 0 0 1-42.914 0h6.852Z" fill="#78AFF6"></path>
  <path fill-rule="evenodd" clip-rule="evenodd" d="M21.5 7.509 6.833 14.276v9.272H0V9.923l1.988-.918L20.07.663 21.5 0l1.422.663 18.082 8.342 1.989.918v13.626h-6.828v-9.273L21.499 7.51Z" fill="#808A9C"></path>
  <path fill-rule="evenodd" clip-rule="evenodd" d="m70.895 14.653.024-3.49H57.524v18.642h4.208v-7.06h8.415v-3.514h-8.415v-4.578h9.163ZM86.393 29.805h4.766l-3.964-6.153c2.28-1.064 3.496-3.132 3.496-6.014 0-4.128-2.766-6.475-7.642-6.475h-8.105v18.642h4.195v-5.326h4.287l2.955 5.326h.012Zm-7.254-8.84v-6.312h3.885c2.317 0 3.648 1.04 3.648 3.12 0 2.079-1.331 3.191-3.648 3.191H79.14ZM104.481 11.035c-5.697 0-10.014 4.02-10.014 9.449 0 5.43 4.317 9.509 10.014 9.509 5.697 0 10.014-4.128 10.014-9.51 0-5.38-4.317-9.448-10.014-9.448Zm.055 3.648a5.807 5.807 0 0 1 0 11.607 5.796 5.796 0 0 1-5.752-5.83 5.733 5.733 0 0 1 5.752-5.753v-.024ZM135.721 29.805V11.163h-3.989v11.984l-9.053-11.984h-3.837v18.642h4.019V17.85l9.029 11.954h3.831ZM155.141 14.732v-3.569h-15.578v3.57h5.673v15.072h4.208V14.732h5.697ZM163.191 26.132V11.163h-4.208v18.642h12.197v-3.673h-7.989Z" fill="#CDD7EB"></path>
  <path d="M179.467 11.169h-4.207v18.636h4.207V11.169Z" fill="#CDD7EB"></path>
  <path fill-rule="evenodd" clip-rule="evenodd" d="M202.055 29.805V11.163h-3.995v11.984l-9.053-11.984h-3.837v18.642h4.025V17.85l9.023 11.954h3.837ZM221.925 14.653v-3.49h-14.191v18.642h14.483v-3.49h-10.276v-4.129h8.999v-3.484h-8.999v-4.049h9.984ZM66.596 42.694l2.505-7.563H67.35l-1.575 5.703-1.599-5.703h-1.672l-1.58 5.703-1.588-5.703H57.5l2.493 7.563h1.763l1.557-5.393 1.52 5.393h1.763Z" fill="#CDD7EB"></path>
  <path d="M75.43 35.13h-1.708v7.564h1.708v-7.563Z" fill="#CDD7EB"></path>
  <path fill-rule="evenodd" clip-rule="evenodd" d="M82.684 41.199V35.13H80.98v7.563h4.944V41.2h-3.241ZM90.813 35.113v7.558h3.143c2.39 0 4.044-1.55 4.044-3.776 0-2.225-1.636-3.782-3.977-3.782h-3.21Zm1.709 1.435h1.47a2.231 2.231 0 0 1 2.269 2.353 2.177 2.177 0 0 1-2.195 2.335h-1.55l.005-4.688ZM108.421 36.547l.012-1.416h-5.435v7.563h1.708v-2.863h3.417v-1.429h-3.417v-1.855h3.715Z" fill="#CDD7EB"></path>
  <path d="M115.012 35.13h-1.709v7.564h1.709v-7.563Z" fill="#CDD7EB"></path>
  <path fill-rule="evenodd" clip-rule="evenodd" d="M125.202 42.688h1.934l-1.611-2.493a2.5 2.5 0 0 0 1.416-2.432c0-1.678-1.125-2.626-3.101-2.626h-3.283v7.557h1.709v-2.158h1.739l1.216 2.158-.019-.006Zm-2.936-3.58v-2.56h1.574c.943 0 1.484.419 1.484 1.258s-.541 1.301-1.484 1.301h-1.574ZM138.013 36.547v-1.416h-5.758v7.563h5.879v-1.416h-4.171V39.6h3.648v-1.41h-3.648v-1.642h4.05ZM148.55 35.113v7.558h3.143c2.39 0 4.044-1.55 4.044-3.776 0-2.225-1.636-3.782-3.977-3.782h-3.21Zm1.708 1.435h1.472a2.23 2.23 0 0 1 2.268 2.353 2.188 2.188 0 0 1-.585 1.65 2.184 2.184 0 0 1-1.61.685h-1.526l-.019-4.688ZM166.492 36.547v-1.416h-5.758v7.563h5.88v-1.416h-4.171V39.6h3.654v-1.41h-3.654v-1.642h4.049ZM177.248 36.547l.012-1.416h-5.429v7.563h1.702v-2.863h3.417v-1.429h-3.417v-1.855h3.715ZM187.888 36.547v-1.416h-5.758v7.563h5.88v-1.416h-4.171V39.6h3.648v-1.41h-3.648v-1.642h4.049ZM200.073 42.694v-7.563h-1.623v4.858l-3.673-4.858h-1.556v7.563h1.635v-4.851l3.66 4.851h1.557ZM208.372 35.052c-1.751 0-2.925.87-2.925 2.237 0 2.682 4.026 1.824 4.026 3.277 0 .462-.42.724-1.119.724a4.47 4.47 0 0 1-2.682-1.137l-.674 1.392a5.307 5.307 0 0 0 3.338 1.216c1.672 0 2.961-.796 2.961-2.274 0-2.724-4.019-1.945-4.019-3.338 0-.413.389-.608.96-.608a5.259 5.259 0 0 1 2.353.779l.663-1.417a5.47 5.47 0 0 0-2.882-.851ZM222.126 36.547v-1.416h-5.758v7.563h5.873v-1.416h-4.165V39.6h3.648v-1.41h-3.648v-1.642h4.05Z" fill="#CDD7EB"></path>
  <path d="M227.658 14.665c-.003-.46.09-.916.274-1.338a3.483 3.483 0 0 1 1.824-1.824 3.407 3.407 0 0 1 2.675 0c.406.175.775.425 1.088.736.312.316.564.687.742 1.094a3.4 3.4 0 0 1 0 2.676 3.538 3.538 0 0 1-1.824 1.824 3.404 3.404 0 0 1-2.675 0 3.551 3.551 0 0 1-1.83-1.83 3.326 3.326 0 0 1-.274-1.338Zm.608 0c0 .378.077.753.225 1.1.14.338.347.645.608.9.259.258.565.464.9.608a2.876 2.876 0 0 0 2.201 0c.336-.144.641-.35.9-.608a2.847 2.847 0 0 0 .608-3.1 2.892 2.892 0 0 0-.608-.906 2.784 2.784 0 0 0-.9-.609 2.802 2.802 0 0 0-2.201 0 2.836 2.836 0 0 0-1.733 2.609v.006Zm1.508-1.988h1.52a1.52 1.52 0 0 1 1.052.304 1.112 1.112 0 0 1 .334.875 1.003 1.003 0 0 1-.267.778 1.07 1.07 0 0 1-.669.304l1.022 1.667h-.76l-.979-1.606h-.529v1.606h-.724v-3.928Zm.724 1.708h.863a.93.93 0 0 0 .298-.073.55.55 0 0 0 .219-.772.513.513 0 0 0-.219-.17.928.928 0 0 0-.298-.061h-.863v1.076Z" fill="#CDD7EB"></path>
</svg>