<?xml version="1.0" encoding="utf-8"?>
<!-- Generator: Adobe Illustrator 27.6.1, SVG Export Plug-In . SVG Version: 6.00 Build 0)  -->
<svg version="1.1" xmlns="http://www.w3.org/2000/svg" xmlns:xlink="http://www.w3.org/1999/xlink" x="0px" y="0px"
	 viewBox="0 0 869.43 174.52" style="enable-background:new 0 0 869.43 174.52;" xml:space="preserve">
<style type="text/css">
	.st0{fill:#FFFFFF;}
	.st1{fill:#E30B2E;}
	.st2{fill:#565656;}
	.st3{fill:#C6C6C6;}
</style>
<g id="Layer_1">
	<g>
		<g>
			<path class="st0" d="M137.75,70.07L64.8,171.6c-0.4-0.1-0.8-0.21-1.19-0.33l10.81-70.13l-45.14,3.23L109.11,2.76
				c0.33,0.08,0.66,0.17,0.98,0.26L93.14,73.24L137.75,70.07z"/>
			<g>
				<path class="st1" d="M29.28,104.37l45.14-3.24l-10.81,70.14C26.91,160.96,0,127.26,0,87.26C0,39.07,39.07,0,87.26,0
					c7.54,0,14.86,0.96,21.84,2.76L29.28,104.37z"/>
				<path class="st2" d="M174.52,87.26c0,48.19-39.07,87.26-87.26,87.26c-7.77,0-15.3-1.01-22.47-2.92l72.95-101.53l-44.61,3.18
					l16.95-70.23C147.21,13.05,174.52,46.97,174.52,87.26z"/>
			</g>
		</g>
		<path class="st2" d="M665.13,14.57h2.48v15.21h-2.48V23.3h-8.02v6.47h-2.48V14.57h2.48v6.45h8.02V14.57z"/>
		<path class="st2" d="M672.17,14.57h10.47v2.26h-7.99v4.15h7.34v2.26h-7.34v4.28h8.13v2.26h-10.6V14.57z"/>
		<path class="st2" d="M687.42,29.77h-2.63l6.43-15.21h2.72l6.41,15.21h-2.61l-1.34-3.28h-7.65L687.42,29.77z M692.28,17.82
			l-2.64,6.5h5.88l-2.65-6.5c-0.12-0.31-0.22-0.6-0.29-0.84C692.5,17.22,692.4,17.51,692.28,17.82z"/>
		<path class="st2" d="M699.89,14.57h12.54v2.28h-5.02v12.93h-2.48V16.85h-5.04V14.57z"/>
		<path class="st2" d="M715.45,14.57h2.48v15.21h-2.48V14.57z"/>
		<path class="st2" d="M724.96,29.77h-2.48V14.57h2.31L733,25.71c-0.02-0.35-0.02-0.91-0.02-1.67v-9.47h2.48v15.21h-2.32
			l-8.19-11.12c0.01,0.35,0.02,0.9,0.02,1.65V29.77z"/>
		<path class="st2" d="M739.08,22.17c0-1.29,0.23-2.45,0.7-3.48c0.46-1.03,1.09-1.86,1.87-2.49c0.78-0.63,1.65-1.11,2.61-1.43
			c0.96-0.33,1.96-0.49,3-0.49c1.67,0,3.2,0.33,4.61,1v2.41c-1.17-0.75-2.59-1.13-4.26-1.13c-1.65,0-3.06,0.47-4.23,1.41
			c-1.17,0.94-1.75,2.34-1.75,4.19c0,1.04,0.17,1.95,0.52,2.71c0.35,0.76,0.82,1.34,1.41,1.75c0.59,0.41,1.22,0.7,1.88,0.89
			c0.66,0.19,1.36,0.28,2.1,0.28c0.9,0,1.66-0.15,2.28-0.44V21.6h2.41v7.43c-1.52,0.68-3.14,1.02-4.84,1.02
			c-1.1,0-2.13-0.15-3.09-0.45c-0.96-0.3-1.83-0.75-2.63-1.36s-1.43-1.43-1.89-2.48C739.31,24.73,739.08,23.53,739.08,22.17z"/>
		<path class="st2" d="M655.55,62.22h-2.63l6.43-15.21h2.72l6.41,15.21h-2.61l-1.34-3.28h-7.65L655.55,62.22z M660.41,50.27
			l-2.64,6.5h5.88l-2.65-6.5c-0.12-0.31-0.22-0.6-0.29-0.84C660.63,49.67,660.53,49.95,660.41,50.27z"/>
		<path class="st2" d="M671.32,47.01h2.48v15.21h-2.48V47.01z"/>
		<path class="st2" d="M680.84,62.22h-2.48V47.01h6.08c0.75,0,1.46,0.08,2.12,0.24c0.66,0.16,1.28,0.42,1.86,0.77
			c0.58,0.35,1.04,0.85,1.37,1.49c0.33,0.64,0.5,1.39,0.5,2.26c0,1.28-0.34,2.28-1.02,3.01c-0.68,0.73-1.57,1.23-2.67,1.49
			l4.87,5.95h-2.98l-4.57-5.69h-3.08V62.22z M680.84,49.27v5.06h3.72c0.93,0,1.69-0.2,2.3-0.59c0.61-0.39,0.91-1.04,0.91-1.93
			c0-0.9-0.3-1.55-0.91-1.94c-0.61-0.4-1.38-0.6-2.3-0.6H680.84z"/>
		<path class="st2" d="M699.52,54.75c0-1.3,0.23-2.47,0.7-3.52c0.46-1.04,1.08-1.89,1.85-2.53c0.77-0.64,1.62-1.13,2.56-1.47
			c0.94-0.33,1.93-0.5,2.95-0.5c1.55,0,2.99,0.33,4.32,1v2.41c-1.09-0.75-2.39-1.13-3.91-1.13c-1.61,0-3,0.49-4.17,1.46
			c-1.17,0.97-1.77,2.4-1.78,4.28c0,1.19,0.3,2.21,0.91,3.06c0.61,0.86,1.35,1.47,2.24,1.85c0.88,0.37,1.83,0.56,2.85,0.56
			c1.62,0,2.95-0.39,3.98-1.17v2.45c-1.36,0.67-2.83,1-4.41,1c-1.01,0-1.99-0.16-2.93-0.49c-0.94-0.33-1.8-0.8-2.59-1.42
			c-0.78-0.62-1.41-1.44-1.87-2.45C699.75,57.12,699.52,55.99,699.52,54.75z"/>
		<path class="st2" d="M714.87,57.55c-0.34-0.93-0.51-1.91-0.51-2.93c0-1.03,0.17-2,0.51-2.93c0.34-0.93,0.83-1.76,1.47-2.51
			c0.64-0.75,1.48-1.34,2.52-1.78c1.04-0.44,2.21-0.66,3.5-0.66c1.29,0,2.45,0.22,3.49,0.66c1.04,0.44,1.88,1.04,2.52,1.78
			c0.64,0.74,1.14,1.58,1.48,2.51c0.34,0.93,0.51,1.91,0.51,2.93c0,1.03-0.17,2.01-0.51,2.93c-0.34,0.93-0.83,1.76-1.48,2.51
			c-0.65,0.75-1.49,1.34-2.52,1.78c-1.04,0.44-2.2,0.66-3.49,0.66c-1.29,0-2.45-0.22-3.5-0.66c-1.04-0.44-1.88-1.04-2.52-1.78
			C715.7,59.31,715.21,58.47,714.87,57.55z M726.4,58.57c0.95-1.07,1.42-2.39,1.42-3.96c0-1.56-0.47-2.88-1.42-3.95
			c-0.95-1.07-2.3-1.61-4.05-1.61c-1.74,0-3.08,0.54-4.04,1.61c-0.96,1.07-1.43,2.39-1.43,3.95c0,1.56,0.48,2.88,1.43,3.96
			c0.96,1.07,2.3,1.61,4.04,1.61C724.1,60.18,725.46,59.64,726.4,58.57z"/>
		<path class="st2" d="M736.41,62.22h-2.48V47.01h2.31l8.21,11.15c-0.02-0.35-0.02-0.91-0.02-1.67v-9.47h2.48v15.21h-2.32
			l-8.19-11.12c0.01,0.35,0.02,0.9,0.02,1.65V62.22z"/>
		<path class="st2" d="M751.46,47.01h5.32c2.61,0,4.59,0.69,5.95,2.08c1.36,1.39,2.04,3.23,2.04,5.52c0,2.29-0.68,4.13-2.04,5.52
			c-1.36,1.39-3.35,2.08-5.95,2.08h-5.32V47.01z M760.86,58.58c0.93-0.92,1.4-2.24,1.4-3.97c0-1.72-0.47-3.04-1.4-3.96
			s-2.3-1.38-4.1-1.38h-2.82v10.69h2.82C758.56,59.96,759.93,59.5,760.86,58.58z"/>
		<path class="st2" d="M768.43,47.01h2.48v15.21h-2.48V47.01z"/>
		<path class="st2" d="M773.93,47.01h12.54v2.28h-5.02v12.93h-2.48V49.29h-5.04V47.01z"/>
		<path class="st2" d="M789.48,47.01h2.48v15.21h-2.48V47.01z"/>
		<path class="st2" d="M796.05,57.55c-0.34-0.93-0.51-1.91-0.51-2.93c0-1.03,0.17-2,0.51-2.93c0.34-0.93,0.83-1.76,1.47-2.51
			c0.64-0.75,1.48-1.34,2.52-1.78c1.04-0.44,2.21-0.66,3.5-0.66c1.29,0,2.45,0.22,3.49,0.66c1.04,0.44,1.88,1.04,2.52,1.78
			c0.64,0.74,1.14,1.58,1.48,2.51c0.34,0.93,0.51,1.91,0.51,2.93c0,1.03-0.17,2.01-0.51,2.93c-0.34,0.93-0.83,1.76-1.48,2.51
			c-0.65,0.75-1.48,1.34-2.52,1.78c-1.04,0.44-2.2,0.66-3.49,0.66c-1.29,0-2.45-0.22-3.5-0.66c-1.04-0.44-1.88-1.04-2.52-1.78
			C796.88,59.31,796.39,58.47,796.05,57.55z M807.59,58.57c0.95-1.07,1.42-2.39,1.42-3.96c0-1.56-0.47-2.88-1.42-3.95
			c-0.95-1.07-2.3-1.61-4.05-1.61c-1.74,0-3.08,0.54-4.04,1.61c-0.96,1.07-1.43,2.39-1.43,3.95c0,1.56,0.48,2.88,1.43,3.96
			c0.96,1.07,2.3,1.61,4.04,1.61C805.29,60.18,806.64,59.64,807.59,58.57z"/>
		<path class="st2" d="M817.59,62.22h-2.48V47.01h2.31l8.21,11.15c-0.02-0.35-0.02-0.91-0.02-1.67v-9.47h2.48v15.21h-2.32
			l-8.19-11.12c0.01,0.35,0.02,0.9,0.02,1.65V62.22z"/>
		<path class="st2" d="M832.65,47.01h2.48v15.21h-2.48V47.01z"/>
		<path class="st2" d="M842.16,62.22h-2.48V47.01h2.31l8.21,11.15c-0.02-0.35-0.02-0.91-0.02-1.67v-9.47h2.48v15.21h-2.32
			l-8.19-11.12c0.01,0.35,0.02,0.9,0.02,1.65V62.22z"/>
		<path class="st2" d="M856.29,54.61c0-1.29,0.23-2.45,0.7-3.48c0.46-1.03,1.09-1.86,1.87-2.49c0.78-0.63,1.65-1.11,2.61-1.43
			c0.96-0.33,1.96-0.49,3-0.49c1.67,0,3.2,0.33,4.61,1v2.41c-1.17-0.75-2.59-1.13-4.26-1.13c-1.65,0-3.06,0.47-4.23,1.41
			c-1.17,0.94-1.75,2.34-1.75,4.19c0,1.04,0.17,1.95,0.52,2.71c0.35,0.76,0.82,1.34,1.41,1.75c0.59,0.41,1.22,0.7,1.88,0.89
			c0.66,0.19,1.36,0.28,2.1,0.28c0.9,0,1.66-0.15,2.28-0.44v-5.76h2.41v7.43c-1.52,0.68-3.14,1.02-4.84,1.02
			c-1.1,0-2.13-0.15-3.09-0.45c-0.96-0.3-1.83-0.75-2.63-1.36c-0.8-0.61-1.43-1.43-1.89-2.48
			C856.52,57.18,856.29,55.98,856.29,54.61z"/>
		<path class="st2" d="M654.64,79.46h10.47v2.26h-7.99v4.15h7.34v2.26h-7.34v4.28h8.13v2.26h-10.6V79.46z"/>
		<path class="st2" d="M668.98,79.46h2.48v12.9h7.99v2.3h-10.47V79.46z"/>
		<path class="st2" d="M682.47,79.46h10.47v2.26h-7.99v4.15h7.34v2.26h-7.34v4.28h8.13v2.26h-10.6V79.46z"/>
		<path class="st2" d="M695.65,87.19c0-1.3,0.23-2.47,0.7-3.52c0.46-1.04,1.08-1.89,1.85-2.53c0.77-0.64,1.62-1.13,2.56-1.47
			c0.94-0.33,1.93-0.5,2.95-0.5c1.55,0,2.99,0.33,4.32,1v2.41c-1.09-0.75-2.39-1.13-3.91-1.13c-1.61,0-3,0.49-4.17,1.46
			c-1.17,0.97-1.77,2.4-1.78,4.28c0,1.19,0.3,2.21,0.91,3.06c0.61,0.86,1.35,1.47,2.24,1.85c0.88,0.37,1.83,0.56,2.85,0.56
			c1.62,0,2.95-0.39,3.98-1.17v2.45c-1.36,0.67-2.83,1-4.41,1c-1.01,0-1.99-0.16-2.93-0.49c-0.94-0.33-1.8-0.8-2.59-1.42
			c-0.78-0.62-1.41-1.44-1.87-2.45S695.65,88.44,695.65,87.19z"/>
		<path class="st2" d="M710.14,79.46h12.54v2.28h-5.02v12.93h-2.48V81.74h-5.04V79.46z"/>
		<path class="st2" d="M728.18,94.67h-2.48V79.46h6.08c0.75,0,1.46,0.08,2.12,0.24s1.28,0.42,1.86,0.77
			c0.58,0.35,1.04,0.85,1.37,1.49c0.33,0.64,0.5,1.39,0.5,2.26c0,1.28-0.34,2.28-1.02,3.01c-0.68,0.73-1.57,1.23-2.67,1.49
			l4.87,5.95h-2.98l-4.57-5.69h-3.08V94.67z M728.18,81.72v5.06h3.72c0.93,0,1.69-0.2,2.3-0.59c0.61-0.39,0.91-1.04,0.91-1.93
			s-0.3-1.55-0.91-1.94c-0.61-0.4-1.38-0.6-2.3-0.6H728.18z"/>
		<path class="st2" d="M741.8,79.46h2.48v15.21h-2.48V79.46z"/>
		<path class="st2" d="M747.9,87.19c0-1.3,0.23-2.47,0.7-3.52c0.46-1.04,1.08-1.89,1.85-2.53c0.77-0.64,1.62-1.13,2.56-1.47
			c0.94-0.33,1.93-0.5,2.95-0.5c1.55,0,2.99,0.33,4.32,1v2.41c-1.09-0.75-2.39-1.13-3.91-1.13c-1.61,0-3,0.49-4.17,1.46
			c-1.17,0.97-1.77,2.4-1.78,4.28c0,1.19,0.3,2.21,0.91,3.06c0.61,0.86,1.35,1.47,2.24,1.85c0.88,0.37,1.83,0.56,2.85,0.56
			c1.62,0,2.95-0.39,3.98-1.17v2.45c-1.36,0.67-2.83,1-4.41,1c-1.01,0-1.99-0.16-2.93-0.49c-0.94-0.33-1.8-0.8-2.59-1.42
			c-0.78-0.62-1.41-1.44-1.87-2.45C748.13,89.57,747.9,88.44,747.9,87.19z"/>
		<path class="st2" d="M764.85,94.67h-2.63l6.43-15.21h2.72l6.41,15.21h-2.61l-1.34-3.28h-7.65L764.85,94.67z M769.71,82.72
			l-2.65,6.5h5.88l-2.65-6.5c-0.12-0.31-0.22-0.6-0.29-0.84C769.93,82.12,769.83,82.4,769.71,82.72z"/>
		<path class="st2" d="M780.62,79.46h2.48v12.9h7.99v2.3h-10.47V79.46z"/>
		<path class="st2" d="M657.11,127.11h-2.48v-15.21h6.08c0.75,0,1.46,0.08,2.12,0.24c0.66,0.16,1.28,0.42,1.86,0.77
			c0.58,0.35,1.04,0.85,1.37,1.49c0.33,0.64,0.5,1.39,0.5,2.26c0,1.28-0.34,2.28-1.02,3.01c-0.68,0.73-1.57,1.23-2.67,1.49
			l4.87,5.95h-2.98l-4.57-5.69h-3.08V127.11z M657.11,114.16v5.06h3.72c0.93,0,1.69-0.2,2.3-0.59c0.61-0.39,0.91-1.04,0.91-1.93
			c0-0.9-0.3-1.55-0.91-1.94c-0.61-0.4-1.38-0.6-2.3-0.6H657.11z"/>
		<path class="st2" d="M670.74,111.91h10.47v2.26h-7.99v4.15h7.34v2.26h-7.34v4.28h8.13v2.26h-10.6V111.91z"/>
		<path class="st2" d="M685.07,111.91h10.49v2.28h-8.02v4.45h7.39v2.3h-7.39v6.17h-2.48V111.91z"/>
		<path class="st2" d="M701.54,127.11h-2.48v-15.21h6.08c0.75,0,1.46,0.08,2.12,0.24c0.66,0.16,1.28,0.42,1.86,0.77
			c0.58,0.35,1.04,0.85,1.37,1.49c0.33,0.64,0.5,1.39,0.5,2.26c0,1.28-0.34,2.28-1.02,3.01c-0.68,0.73-1.57,1.23-2.67,1.49
			l4.87,5.95h-2.98l-4.57-5.69h-3.08V127.11z M701.54,114.16v5.06h3.72c0.93,0,1.69-0.2,2.3-0.59c0.61-0.39,0.91-1.04,0.91-1.93
			c0-0.9-0.3-1.55-0.91-1.94c-0.61-0.4-1.38-0.6-2.3-0.6H701.54z"/>
		<path class="st2" d="M715.16,111.91h2.48v15.21h-2.48V111.91z"/>
		<path class="st2" d="M721.27,119.51c0-1.29,0.23-2.45,0.7-3.48c0.46-1.03,1.09-1.86,1.87-2.49c0.78-0.63,1.65-1.11,2.61-1.43
			c0.96-0.33,1.96-0.49,3-0.49c1.67,0,3.2,0.33,4.61,1v2.41c-1.17-0.75-2.59-1.13-4.26-1.13c-1.65,0-3.06,0.47-4.23,1.41
			c-1.17,0.94-1.75,2.34-1.75,4.19c0,1.04,0.17,1.95,0.52,2.71c0.35,0.76,0.82,1.34,1.41,1.75c0.59,0.41,1.22,0.7,1.88,0.89
			c0.66,0.19,1.36,0.28,2.1,0.28c0.9,0,1.66-0.15,2.28-0.44v-5.76h2.41v7.43c-1.52,0.68-3.14,1.02-4.84,1.02
			c-1.1,0-2.13-0.15-3.09-0.45c-0.96-0.3-1.83-0.75-2.63-1.36s-1.43-1.43-1.89-2.48C721.5,122.07,721.27,120.87,721.27,119.51z"/>
		<path class="st2" d="M738.36,111.91h10.47v2.26h-7.99v4.15h7.34v2.26h-7.34v4.28h8.13v2.26h-10.6V111.91z"/>
		<path class="st2" d="M755.18,127.11h-2.48v-15.21h6.08c0.75,0,1.46,0.08,2.12,0.24c0.66,0.16,1.28,0.42,1.86,0.77
			c0.58,0.35,1.04,0.85,1.37,1.49c0.33,0.64,0.5,1.39,0.5,2.26c0,1.28-0.34,2.28-1.02,3.01c-0.68,0.73-1.57,1.23-2.67,1.49
			l4.87,5.95h-2.98l-4.57-5.69h-3.08V127.11z M755.18,114.16v5.06h3.72c0.93,0,1.69-0.2,2.3-0.59c0.61-0.39,0.91-1.04,0.91-1.93
			c0-0.9-0.3-1.55-0.91-1.94c-0.61-0.4-1.38-0.6-2.3-0.6H755.18z"/>
		<path class="st2" d="M769.71,127.11h-2.63l6.43-15.21h2.72l6.41,15.21h-2.61l-1.34-3.28h-7.65L769.71,127.11z M774.58,115.16
			l-2.64,6.5h5.88l-2.65-6.5c-0.12-0.31-0.22-0.6-0.29-0.84C774.79,114.56,774.7,114.84,774.58,115.16z"/>
		<path class="st2" d="M782.18,111.91h12.54v2.28h-5.02v12.93h-2.48v-12.93h-5.04V111.91z"/>
		<path class="st2" d="M797.74,111.91h2.48v15.21h-2.48V111.91z"/>
		<path class="st2" d="M804.31,122.44c-0.34-0.93-0.51-1.91-0.51-2.93c0-1.03,0.17-2,0.51-2.93c0.34-0.93,0.83-1.76,1.47-2.51
			c0.64-0.75,1.48-1.34,2.52-1.78c1.04-0.44,2.21-0.66,3.5-0.66c1.29,0,2.45,0.22,3.49,0.66c1.04,0.44,1.88,1.04,2.52,1.78
			c0.64,0.74,1.14,1.58,1.48,2.51c0.34,0.93,0.51,1.91,0.51,2.93c0,1.03-0.17,2.01-0.51,2.93c-0.34,0.93-0.83,1.76-1.48,2.51
			c-0.65,0.75-1.49,1.34-2.52,1.78c-1.04,0.44-2.2,0.66-3.49,0.66c-1.29,0-2.45-0.22-3.5-0.66c-1.04-0.44-1.88-1.04-2.52-1.78
			C805.14,124.21,804.65,123.37,804.31,122.44z M815.85,123.46c0.95-1.07,1.42-2.39,1.42-3.96s-0.47-2.88-1.42-3.95
			c-0.95-1.07-2.3-1.61-4.05-1.61c-1.74,0-3.08,0.54-4.04,1.61c-0.96,1.07-1.43,2.39-1.43,3.95s0.48,2.88,1.43,3.96
			c0.96,1.07,2.3,1.61,4.04,1.61C813.55,125.07,814.9,124.53,815.85,123.46z"/>
		<path class="st2" d="M825.85,127.11h-2.48v-15.21h2.31l8.21,11.15c-0.02-0.35-0.02-0.91-0.02-1.67v-9.47h2.48v15.21h-2.32
			l-8.19-11.12c0.01,0.35,0.02,0.9,0.02,1.65V127.11z"/>
		<path class="st2" d="M654.64,144.35h5.43c4.33,0,6.5,1.66,6.5,5s-2.17,5-6.5,5h-2.95v5.21h-2.48V144.35z M663.01,151.49
			c0.69-0.4,1.03-1.11,1.03-2.14c0-1.03-0.34-1.74-1.03-2.14c-0.69-0.4-1.63-0.6-2.81-0.6h-3.09v5.47h3.09
			C661.39,152.08,662.32,151.89,663.01,151.49z"/>
		<path class="st2" d="M669.91,144.35h2.48v12.9h7.99v2.3h-10.47V144.35z"/>
		<path class="st2" d="M693.33,144.35h2.48v9.58c0,1.06-0.18,1.98-0.53,2.77c-0.35,0.79-0.84,1.41-1.46,1.85
			c-0.62,0.44-1.3,0.77-2.04,0.98c-0.75,0.21-1.56,0.31-2.44,0.31c-0.88,0-1.7-0.11-2.46-0.31c-0.75-0.21-1.44-0.54-2.06-0.98
			c-0.62-0.44-1.11-1.06-1.47-1.85c-0.36-0.79-0.53-1.71-0.53-2.77v-9.58h2.48v9.45c0,2.49,1.35,3.74,4.04,3.74
			c2.66,0,4-1.25,4-3.74V144.35z"/>
		<path class="st2" d="M714.04,144.35h2.21v15.21h-2.48v-10.65l-4.78,7.21h-1.49l-4.8-7.24v10.67h-2.48v-15.21h2.23l5.79,8.73
			L714.04,144.35z"/>
		<path class="st2" d="M720.81,144.35h6.43c1.62,0,2.9,0.33,3.82,0.98c0.93,0.65,1.39,1.61,1.39,2.87c0,0.87-0.22,1.59-0.67,2.16
			c-0.45,0.57-1.02,0.97-1.72,1.18c0.83,0.23,1.53,0.66,2.12,1.27s0.88,1.46,0.88,2.53c0,0.81-0.18,1.51-0.54,2.1
			c-0.36,0.59-0.85,1.02-1.46,1.31c-0.61,0.29-1.22,0.5-1.84,0.62c-0.62,0.12-1.26,0.18-1.94,0.18h-6.47V144.35z M729.93,148.59
			c0-1.39-0.99-2.08-2.95-2.08h-3.69v4.15l4.04,0.02c0.77,0,1.39-0.17,1.88-0.52C729.69,149.8,729.93,149.28,729.93,148.59z
			 M730.54,155.08c0-1.55-1.05-2.32-3.15-2.32h-4.11v4.63h3.76c0.51,0,0.93-0.02,1.28-0.07c0.35-0.04,0.71-0.14,1.08-0.28
			c0.37-0.15,0.65-0.38,0.85-0.71C730.45,156.01,730.54,155.59,730.54,155.08z"/>
		<path class="st2" d="M736.67,144.35h2.48v15.21h-2.48V144.35z"/>
		<path class="st2" d="M746.18,159.56h-2.48v-15.21h2.31l8.21,11.15c-0.02-0.35-0.02-0.91-0.02-1.67v-9.47h2.48v15.21h-2.32
			l-8.19-11.12c0.01,0.35,0.02,0.9,0.02,1.65V159.56z"/>
		<path class="st2" d="M760.31,151.95c0-1.29,0.23-2.45,0.7-3.48s1.09-1.86,1.87-2.49c0.78-0.63,1.65-1.11,2.61-1.43
			c0.96-0.33,1.96-0.49,3-0.49c1.67,0,3.2,0.33,4.61,1v2.41c-1.17-0.75-2.59-1.13-4.26-1.13c-1.65,0-3.06,0.47-4.23,1.41
			c-1.17,0.94-1.75,2.34-1.75,4.19c0,1.04,0.17,1.95,0.52,2.71c0.35,0.76,0.82,1.34,1.41,1.75c0.59,0.41,1.22,0.7,1.88,0.89
			c0.66,0.19,1.36,0.28,2.1,0.28c0.9,0,1.66-0.15,2.28-0.44v-5.76h2.41v7.43c-1.52,0.68-3.14,1.02-4.84,1.02
			c-1.1,0-2.13-0.15-3.09-0.45c-0.96-0.3-1.83-0.75-2.63-1.36c-0.8-0.61-1.43-1.43-1.89-2.48
			C760.54,154.52,760.31,153.32,760.31,151.95z"/>
		<g>
			<path d="M264.44,14.51l-2.73,17.23h-24.57l-1.19,7.34h22.18l-2.73,16.72H233.3l-2.9,18.43h-19.71l9.47-59.71H264.44z"/>
			<path d="M326.28,14.51l-5.8,37.11c-2.99,18.43-16.38,23.97-31.05,23.97c-13.65,0-27.21-6.74-24.31-25.17l5.72-35.91h19.71
				l-5.8,36.09c-0.85,5.55,1.79,7.34,6.57,7.34c5.55,0,8.87-2.9,9.81-8.44l5.55-34.98H326.28z"/>
			<path d="M355.88,13.14c8.44,0,16.29,2.05,21.84,5.2l-2.56,16.46c-5.37-3.67-12.11-5.46-18-5.37c-4.18,0-6.57,0.94-6.74,2.73
				c-0.51,5.8,28.24,5.29,24.91,25.76C372.94,72,361.33,75.59,348.2,75.59c-9.38,0-17.4-2.22-23.37-5.89l2.73-17.06
				c6.57,4.86,13.73,6.48,19.71,6.48c5.2,0,7.85-1.02,8.1-2.73c1.02-6.82-28.07-5.03-24.83-26.36
				C332.33,18.6,344.02,13.14,355.88,13.14z"/>
			<path d="M433.75,14.51l-2.47,15.52h-25.59l-1.02,6.91h22.52l-2.3,14.5h-22.52l-1.11,7.08h26.02l-2.47,15.7h-45.72l9.47-59.71
				H433.75z"/>
			<path d="M241.52,98.38c8.48,0,16.35,2.06,21.92,5.22l-2.57,16.53c-5.39-3.68-12.16-5.48-18.07-5.39c-4.2,0-6.59,0.94-6.76,2.74
				c-0.51,5.82,28.34,5.31,25,25.86c-2.4,14.13-14.04,17.72-27.23,17.72c-9.42,0-17.47-2.23-23.46-5.91l2.74-17.13
				c6.59,4.88,13.79,6.51,19.78,6.51c5.22,0,7.88-1.03,8.13-2.74c1.03-6.85-28.17-5.05-24.92-26.46
				C217.89,103.86,229.62,98.38,241.52,98.38z"/>
			<path d="M319.7,99.75l-2.48,15.58h-25.69l-1.03,6.94h22.6l-2.31,14.55h-22.6l-1.11,7.11h26.12l-2.48,15.76h-45.89l9.5-59.94
				H319.7z"/>
			<path d="M317.99,159.68l9.5-59.94h27.4c11.9,0,25.09,5.39,22.43,22.26c-1.37,8.82-6.08,14.04-12.76,17.04l11.73,20.63h-20.89
				l-9.25-17.72h-5.65l-2.74,17.72H317.99z M342.99,127.15h7.19c3.85,0,6.93-2.31,7.53-5.91c0.43-3.08-1.37-5.39-5.05-5.39h-7.88
				L342.99,127.15z"/>
			<path d="M393.69,159.68l-12.5-59.94h20.12l5.14,36.73l17.04-36.73h21.83l-31.42,59.94H393.69z"/>
			<path d="M469.38,99.75l-9.5,59.94H440.1l9.5-59.94H469.38z"/>
			<path d="M508.18,98.38c6.85,0,12.67,1.46,17.47,4.11l-2.65,16.7c-2.65-2.14-7.45-3.68-12.42-3.68c-8.22,0-17.47,3.68-19.26,14.47
				c-1.45,9.16,5.48,13.7,12.93,13.7c6.25,0,11.9-1.8,16.01-4.28l-2.91,18.32c-5.22,2.4-11.22,3.34-16.95,3.34
				c-16.53,0-32.62-9.85-29.11-32.28C474.7,107.02,493.36,98.38,508.18,98.38z"/>
			<path d="M578.99,99.75l-2.48,15.58h-25.69l-1.03,6.94h22.6l-2.31,14.55h-22.6l-1.11,7.11h26.12L570,159.68h-45.89l9.5-59.94
				H578.99z"/>
		</g>
		<rect x="615.25" y="14.57" class="st2" width="1.35" height="145.02"/>
	</g>
</g>
<g id="Layer_2">
</g>
</svg>
