<svg height="39" viewBox="0 0 125 39" width="125" xmlns="http://www.w3.org/2000/svg"><g fill="none" fill-rule="evenodd"><path d="m53.90625 13.984375c0-4.375 3.59375-7.890625 8.046875-7.890625v-5.546875c-7.65625 0-13.90625 6.09375-13.984375 13.59375v.15625h5.9375c0-.078125 0-.234375 0-.3125z" fill="#367ef9"/><path d="m61.953125.546875v5.546875c4.453125 0 8.046875 3.515625 8.046875 7.890625v.3125h5.9375v-.15625c-.078125-7.578125-6.328125-13.59375-13.984375-13.59375z" fill="#47b8fd"/><g fill="#1d223e" transform="translate(0 9.375)"><path d="m5.859375.46875v11.40625h.078125c.15625-.390625.390625-.703125.703125-1.09375s.703125-.703125 1.171875-1.015625 1.015625-.546875 1.5625-.703125c.625-.234375 1.25-.234375 2.03125-.234375 1.5625 0 2.734375.234375 3.671875.703125s1.640625 1.09375 2.1875 1.953125.859375 1.796875 1.015625 2.890625c.234375 1.09375.234375 2.34375.234375 3.59375v10.703125h-5.9375v-9.53125c0-.546875 0-1.171875-.078125-1.71875s-.15625-1.171875-.390625-1.640625c-.234375-.546875-.546875-.859375-.859375-1.171875-.390625-.3125-1.015625-.46875-1.796875-.46875s-1.328125.15625-1.875.390625c-.46875.234375-.859375.625-1.09375 1.09375s-.390625 1.015625-.46875 1.5625-.078125 1.171875-.078125 1.875v9.609375h-5.9375v-28.203125z"/><path d="m95.859.469h5.938v28.203h-5.938z"/><path d="m124.0625 25.3125c-.9375 1.25-2.1875 2.1875-3.59375 2.8125-1.484375.703125-2.96875 1.015625-4.53125 1.015625-1.484375 0-2.890625-.234375-4.21875-.703125s-2.5-1.171875-3.4375-2.03125-1.71875-1.953125-2.265625-3.203125-.859375-2.65625-.859375-4.140625c0-1.5625.234375-2.96875.859375-4.140625.546875-1.25 1.328125-2.34375 2.265625-3.203125s2.109375-1.5625 3.4375-2.03125 2.734375-.703125 4.21875-.703125c1.328125 0 2.65625.234375 3.75.703125s2.109375 1.171875 2.8125 2.03125c.78125.859375 1.328125 1.953125 1.796875 3.203125.390625 1.25.703125 2.65625.703125 4.140625v1.875h-13.90625c.234375 1.171875.703125 2.03125 1.5625 2.734375.78125.703125 1.796875 1.015625 2.96875 1.015625 1.015625 0 1.796875-.234375 2.5-.625s1.25-1.015625 1.796875-1.71875zm-5-8.515625c0-1.015625-.3125-1.875-1.015625-2.578125s-1.5625-1.09375-2.65625-1.09375c-.703125 0-1.25.078125-1.71875.3125-.546875.234375-.9375.46875-1.328125.78125s-.625.703125-.859375 1.171875c-.234375.390625-.3125.859375-.3125 1.40625zm-81.5625 11.875v-2.5h-.078125c-.234375.3125-.546875.703125-.9375 1.09375s-.859375.703125-1.328125.9375c-.546875.234375-1.09375.546875-1.71875.703125s-1.25.234375-1.953125.234375c-1.484375 0-2.734375-.234375-3.90625-.78125-1.171875-.46875-2.109375-1.171875-2.96875-2.03125-.859375-.9375-1.484375-1.953125-1.953125-3.203125-.390625-1.25-.703125-2.578125-.703125-4.0625 0-1.328125.234375-2.65625.625-3.90625s1.015625-2.34375 1.796875-3.28125 1.640625-1.71875 2.734375-2.34375 2.34375-.859375 3.671875-.859375c1.25 0 2.8125.15625 3.828125.546875 1.09375.390625 2.109375 1.09375 2.8125 2.03125h.078125v-1.875h5.9375v19.296875zm.078125-9.765625c0-1.484375-.390625-2.65625-1.25-3.515625-.859375-.9375-2.03125-1.40625-3.515625-1.40625-1.5625 0-2.734375.46875-3.515625 1.40625-.859375.9375-1.25 2.109375-1.25 3.515625 0 1.484375.390625 2.65625 1.25 3.515625.859375.9375 2.03125 1.40625 3.515625 1.40625 1.5625 0 2.734375-.46875 3.515625-1.40625.78125-.859375 1.25-2.03125 1.25-3.515625z" fill-rule="nonzero"/><path d="m66.171875 14.296875c-.234375-1.09375-.546875-2.03125-1.015625-2.890625-.546875-.859375-1.171875-1.484375-2.1875-1.953125s-2.1875-.703125-3.671875-.703125c-.703125 0-1.328125.078125-2.03125.234375-.625.234375-1.171875.390625-1.640625.703125s-.859375.625-1.171875 1.015625c-.234375.234375-.390625.546875-.625.78125v-2.109375h-5.9375v19.296875h5.9375v-9.609375c0-.625 0-1.25.078125-1.875.078125-.546875.234375-1.09375.46875-1.5625s.625-.859375 1.09375-1.09375c.546875-.234375 1.09375-.390625 1.875-.390625s1.328125.15625 1.796875.46875c.390625.3125.703125.703125.859375 1.171875.234375.46875.3125 1.015625.390625 1.640625.078125.546875.078125 1.171875.078125 1.71875v9.53125h5.9375v-10.703125c.078125-1.328125 0-2.5-.234375-3.671875z"/><path d="m85.46875 28.671875v-2.5h-.078125c-.234375.3125-.546875.703125-.9375 1.09375s-.859375.703125-1.328125.9375c-.546875.234375-1.09375.546875-1.71875.703125s-1.25.234375-1.953125.234375c-1.484375 0-2.734375-.234375-3.90625-.78125-1.171875-.46875-2.109375-1.171875-2.96875-2.03125-.859375-.9375-1.484375-1.953125-1.953125-3.203125-.390625-1.25-.703125-2.578125-.703125-4.0625 0-1.328125.234375-2.65625.625-3.90625s1.015625-2.34375 1.796875-3.28125 1.640625-1.71875 2.734375-2.34375 2.34375-.859375 3.671875-.859375c1.25 0 2.8125.15625 3.828125.546875 1.09375.390625 2.109375 1.09375 2.8125 2.03125h.078125v-10.9375h5.9375v28.203125h-5.9375zm.078125-9.765625c0-1.484375-.390625-2.65625-1.25-3.515625-.859375-.9375-2.03125-1.40625-3.515625-1.40625-1.5625 0-2.734375.46875-3.515625 1.40625-.859375.9375-1.25 2.109375-1.25 3.515625 0 1.484375.390625 2.65625 1.25 3.515625.859375.9375 2.03125 1.40625 3.515625 1.40625 1.5625 0 2.734375-.46875 3.515625-1.40625.859375-.859375 1.25-2.03125 1.25-3.515625z" fill-rule="nonzero"/></g></g></svg>