<svg fill="none" height="49" viewBox="0 0 168 49" width="168" xmlns="http://www.w3.org/2000/svg"><path fill="#004E2B" d="M47.992 48.38h-29.54C7.381 48.38 0 40.998 0 29.925V.38h29.523c11.072 0 18.452 7.382 18.452 18.455V48.38h.017Z"/><path fill="#00DD39" d="M25.833 16.99h3.69c6.89 0 11.072 4.198 11.072 11.072v12.919h-3.69c-6.79 0-11.072-4.335-11.072-11.073V16.989Z"/><path fill="#fff" d="M7.38 7.762h14.762V40.98h-3.69c-6.856 0-11.071-4.148-11.071-11.073V7.762Z"/><path fill="#004E2B" d="M59.063 40.998V27.131h2.726l4.655 6.96 4.723-6.96h2.658v13.85H70.93v-8.99l-3.86 5.638h-1.269l-3.86-5.621v8.99h-2.878ZM75.62 35.733c0-3.082 2.37-5.47 5.468-5.47 1.743 0 2.945.729 3.605 1.575l.068-1.388h2.59V40.98h-2.59l-.068-1.388c-.66.846-1.862 1.574-3.605 1.574-3.098.017-5.468-2.353-5.468-5.434Zm5.874 3.183c1.794 0 3.182-1.372 3.182-3.183a3.147 3.147 0 0 0-3.182-3.184 3.147 3.147 0 0 0-3.183 3.184c0 1.811 1.388 3.183 3.183 3.183ZM91.126 32.922h-2.42v-2.455h2.42v-2.861h2.726v2.86h3.843v2.456h-3.843v3.606c0 1.338.677 2.015 2.014 2.015h1.829v2.455h-2.303c-2.81 0-4.266-1.456-4.266-4.267v-3.81ZM98.862 35.733c0-3.251 2.421-5.47 5.502-5.47 3.318 0 5.468 2.219 5.468 5.47 0 .389 0 .541-.034 1.134h-8.075c.305 1.151 1.27 2.082 3.014 2.082 1.32 0 2.099-.355 2.843-1.15l1.71 1.71c-.948.863-2.302 1.71-4.672 1.71-3.707-.035-5.756-2.253-5.756-5.486Zm8.228-1.101c-.153-1.1-1.033-2.116-2.607-2.116-1.727 0-2.574 1.032-2.844 2.116h5.451ZM111.593 40.998v-5.977c0-2.776 1.777-4.554 4.554-4.554h2.454v2.455h-1.828c-1.744 0-2.455.71-2.455 2.455v5.621h-2.725ZM119.905 26.776c0-.915.609-1.541 1.642-1.541 1.032 0 1.642.626 1.642 1.54 0 .915-.61 1.541-1.642 1.541-1.033.017-1.642-.626-1.642-1.54Zm.271 14.222V30.484h2.725v10.514h-2.725ZM124.712 35.733c0-3.082 2.37-5.47 5.468-5.47 1.744 0 2.946.729 3.606 1.575l.068-1.388h2.59V40.98h-2.59l-.068-1.388c-.66.846-1.862 1.574-3.606 1.574-3.098.017-5.468-2.353-5.468-5.434Zm5.875 3.183c1.794 0 3.182-1.372 3.182-3.183 0-1.778-1.388-3.184-3.182-3.184a3.147 3.147 0 0 0-3.183 3.184c0 1.811 1.371 3.183 3.183 3.183ZM138.695 40.998V26.353h2.726v14.645h-2.726ZM142.843 39.407l1.71-1.71c.795.795 2.302 1.27 3.758 1.27 1.506 0 2.099-.322 2.099-.864 0-.593-.593-.864-2.912-1.304-2.708-.508-4.317-1.337-4.317-3.318 0-2.066 2.116-3.2 4.842-3.2 2.302 0 3.961.779 4.892 1.71l-1.71 1.71c-.626-.627-1.76-1.185-3.233-1.185-1.337 0-2.082.321-2.082.863 0 .559.491.796 3.03 1.304 2.455.49 4.198 1.27 4.198 3.318 0 2.066-1.879 3.2-5.01 3.2-2.557-.017-4.233-.761-5.265-1.794ZM68.679 21.612v-5.537h-6.72v5.537h-2.896V7.762h2.895v5.655h6.72V7.762h2.896v13.85h-2.895ZM73.368 16.346c0-3.25 2.42-5.469 5.502-5.469 3.318 0 5.468 2.218 5.468 5.47 0 .389 0 .541-.034 1.134h-8.075c.305 1.15 1.27 2.082 3.013 2.082 1.32 0 2.1-.355 2.844-1.151l1.71 1.71c-.948.863-2.302 1.71-4.672 1.71-3.724-.017-5.756-2.235-5.756-5.486Zm8.227-1.083c-.152-1.1-1.032-2.117-2.607-2.117-1.726 0-2.573 1.033-2.844 2.117h5.451ZM85.895 7.406c0-.914.61-1.54 1.642-1.54 1.033 0 1.642.626 1.642 1.54 0 .915-.61 1.541-1.642 1.541-1.033 0-1.642-.626-1.642-1.54Zm.27 14.206V11.114h2.726V21.63h-2.725v-.017ZM99.675 6.966h2.743v14.646h-2.59l-.068-1.388c-.66.846-1.862 1.574-3.606 1.574-3.081 0-5.468-2.37-5.468-5.469 0-3.098 2.37-5.469 5.468-5.469 1.676 0 2.844.678 3.521 1.49V6.966ZM96.577 19.53c1.795 0 3.183-1.371 3.183-3.183a3.147 3.147 0 0 0-3.183-3.183 3.147 3.147 0 0 0-3.182 3.183c0 1.829 1.37 3.183 3.182 3.183ZM104.127 16.346c0-3.25 2.421-5.469 5.502-5.469 3.318 0 5.468 2.218 5.468 5.47 0 .389 0 .541-.034 1.134h-8.075c.305 1.15 1.27 2.082 3.014 2.082 1.32 0 2.099-.355 2.844-1.151l1.709 1.71c-.948.863-2.302 1.71-4.672 1.71-3.707-.017-5.756-2.235-5.756-5.486Zm8.228-1.083c-.153-1.1-1.033-2.117-2.607-2.117-1.727 0-2.573 1.033-2.844 2.117h5.451ZM116.857 21.612V6.966h2.726v14.646h-2.726ZM124.594 12.367c.677-.812 1.845-1.49 3.521-1.49 3.081 0 5.468 2.37 5.468 5.47 0 3.098-2.37 5.468-5.468 5.468-1.744 0-2.945-.728-3.606-1.575l-.067 1.389h-2.59V6.966h2.742v5.401Zm3.098.796a3.147 3.147 0 0 0-3.183 3.183c0 1.829 1.388 3.183 3.183 3.183 1.794 0 3.182-1.371 3.182-3.183 0-1.778-1.371-3.183-3.182-3.183ZM134.819 16.346c0-3.25 2.421-5.469 5.502-5.469 3.318 0 5.468 2.218 5.468 5.47 0 .389 0 .541-.034 1.134h-8.075c.304 1.15 1.269 2.082 3.013 2.082 1.32 0 2.099-.355 2.844-1.151l1.71 1.71c-.948.863-2.302 1.71-4.672 1.71-3.725-.017-5.756-2.235-5.756-5.486Zm8.227-1.083c-.152-1.1-1.033-2.117-2.607-2.117-1.727 0-2.573 1.033-2.844 2.117h5.451ZM147.532 21.612v-5.977c0-2.777 1.778-4.554 4.554-4.554h2.455v2.455h-1.829c-1.743 0-2.454.71-2.454 2.455v5.62h-2.726ZM156.013 24.22l1.71-1.711c.846.847 1.845 1.388 3.623 1.388 1.777 0 2.928-1.15 2.928-2.929v-.66c-.677.813-1.845 1.49-3.521 1.49-3.081 0-5.468-2.37-5.468-5.469 0-3.098 2.37-5.469 5.468-5.469 1.744 0 2.946.728 3.606 1.575l.068-1.388h2.59v9.65c0 3.37-2.303 5.47-5.654 5.47-2.607 0-4.368-.864-5.35-1.948Zm5.146-4.69c1.795 0 3.183-1.372 3.183-3.184a3.147 3.147 0 0 0-3.183-3.183c-1.794 0-3.182 1.405-3.182 3.183 0 1.829 1.371 3.183 3.182 3.183Z"/></svg>
