<?xml version="1.0" encoding="UTF-8" standalone="no"?>
<!-- Created with Inkscape (http://www.inkscape.org/) -->
<svg
   xmlns:svg="http://www.w3.org/2000/svg"
   xmlns="http://www.w3.org/2000/svg"
   version="1.0"
   width="1098.4252"
   height="113.38583"
   id="svg2">
  <defs
     id="defs4" />
  <g
     transform="translate(-290.14661,-117.49545)"
     id="layer1">
    <path
       d="M 923.21857,135.23524 C 910.96417,135.23524 904.14081,138.42976 899.56232,141.20399 C 894.02042,144.80596 890.41487,149.1045 889.03107,150.95399 C 881.89177,160.41479 881.34356,170.30022 881.34357,174.51649 C 881.34357,185.10901 885.00562,192.60387 888.93732,197.64149 L 889.24982,197.64149 C 891.18079,200.21014 893.1001,202.16479 895.03107,203.51649 C 902.79107,209.91854 911.86223,212.17274 921.56232,212.17274 L 922.18732,212.11024 C 925.42072,212.11024 928.66312,211.84198 931.24982,211.45399 C 935.77652,210.872 939.02847,210.09416 940.96857,209.64149 C 944.20187,209.0595 946.76651,208.36366 949.99982,207.32899 L 949.99982,197.64149 L 950.15607,197.64149 L 950.68732,170.79774 L 931.53107,170.79774 L 931.53107,195.42274 C 930.27647,196.28926 927.50691,197.31173 924.12482,197.26649 C 923.30352,197.27942 922.49456,197.24389 921.71857,197.17274 C 916.21547,196.54545 907.25273,193.81905 903.06232,183.67274 C 901.35512,179.66339 901.37481,176.1493 901.37482,174.61024 C 901.37482,170.60084 902.44362,157.63715 915.12482,151.98524 C 919.70332,150.0323 924.16763,149.82899 925.87482,149.82899 C 929.81312,149.82899 934.40977,150.66608 938.03107,151.79774 C 939.62837,152.30864 941.21502,152.91188 942.81232,153.42274 L 947.71857,139.86024 C 943.24357,138.10776 935.14968,135.23525 923.21857,135.23524 z M 1252.3748,135.61024 L 1244.4373,138.95399 L 1244.4373,197.61024 L 1244.2498,197.61024 L 1244.2498,211.45399 L 1252.6561,211.45399 L 1252.6561,197.64149 L 1252.9061,197.64149 L 1252.9061,164.67274 C 1252.9061,162.29948 1252.8479,159.91453 1252.7186,157.54774 C 1252.5892,154.53422 1252.2606,151.54618 1251.9373,148.42274 C 1254.8473,153.69959 1255.2844,154.32007 1260.7811,161.86024 C 1265.8251,168.74728 1270.8933,175.75445 1275.9373,182.64149 C 1279.5586,187.65967 1283.1597,192.64918 1286.7811,197.64149 L 1286.9686,197.64149 C 1290.1972,202.54392 1294.0556,207.39703 1297.2811,212.23524 L 1304.3748,209.14149 L 1304.3748,197.64149 L 1304.6873,197.64149 L 1304.6873,136.14149 L 1296.1561,136.14149 L 1296.1561,183.73524 C 1296.1561,189.61993 1296.2907,192.45518 1296.9373,197.64149 L 1297.2811,197.64149 C 1297.2811,198.14888 1297.2811,198.66444 1297.2811,199.23524 C 1296.6344,198.71792 1296.6248,198.12755 1296.6248,197.61024 L 1296.3123,197.61024 C 1295.4123,195.79268 1294.4667,193.98222 1293.3748,192.23524 C 1291.3702,188.89842 1289.1113,185.67118 1286.7186,182.54774 C 1281.8686,175.6607 1276.6958,168.95632 1271.7811,162.17274 C 1265.185,153.34563 1258.8416,144.4373 1252.3748,135.61024 z M 1001.0936,135.76649 C 983.89216,135.76649 974.30662,144.72885 969.99982,149.95399 C 964.40612,156.88627 961.49982,165.61291 961.49982,174.67274 C 961.49981,182.90489 963.88262,191.00768 968.49982,197.61024 L 968.74982,197.61024 C 970.04313,199.87357 971.99722,202.01616 973.93732,203.89149 C 983.63743,212.42756 994.62927,213.14149 999.15607,213.14149 C 1012.0895,213.07682 1021.1511,208.032 1025.0311,205.70399 L 1021.7811,199.36024 C 1015.3143,202.72297 1008.8441,205.70399 1000.4373,205.70399 C 990.77566,205.70399 984.35361,201.38184 980.46857,197.64149 L 980.43732,197.64149 C 980.4272,197.63173 980.41616,197.61999 980.40607,197.61024 C 979.13937,196.39881 978.26442,195.22966 977.56232,194.29774 C 971.84573,186.6282 971.49982,177.99343 971.49982,174.57899 C 971.49981,170.31743 972.04762,158.35744 981.81232,150.04774 C 989.50772,143.54224 997.46797,143.14149 1001.2186,143.14149 C 1009.4314,143.14149 1013.8914,144.9354 1017.1248,146.42274 C 1018.8708,147.27634 1020.4726,148.24042 1022.2186,149.20399 L 1025.9686,142.39149 C 1024.352,141.5379 1022.7458,140.57913 1020.9998,139.82899 C 1012.7225,136.20758 1004.2623,135.76649 1001.0936,135.76649 z M 830.87482,135.82899 C 829.21186,135.83869 827.55832,135.87101 825.90607,135.92274 L 817.59357,135.92274 L 817.59357,197.61024 L 817.43732,197.61024 L 817.43732,211.14149 L 836.84357,211.14149 L 836.84357,197.61024 L 836.68732,197.61024 L 836.68732,182.86024 L 839.43732,182.98524 C 840.93111,183.0887 842.32932,183.28899 843.49982,183.92274 C 845.31042,184.87333 846.67947,187.18928 848.59357,190.98524 L 851.90607,197.61024 L 851.71857,197.61024 L 858.81232,211.14149 L 880.15607,211.14149 L 873.06232,197.61024 L 872.96857,197.61024 L 867.24982,187.17274 C 865.22572,184.01052 862.89272,180.23348 859.37482,178.23524 C 858.63113,177.70501 858.30067,177.60493 857.34357,177.39149 C 858.51406,177.18457 859.57932,177.05208 860.74982,176.73524 C 862.98731,176.21141 864.81212,175.27089 865.56232,174.95399 C 867.68981,173.79647 869.47477,172.31427 870.96857,170.51649 C 873.84628,166.9275 875.24982,161.86862 875.24982,157.32899 C 875.35332,151.42491 873.11747,147.23018 871.84357,145.32899 C 865.97827,136.68297 855.42412,135.92274 845.93732,135.92274 C 840.90302,135.92275 835.8637,135.79989 830.87482,135.82899 z M 308.18732,135.89149 L 308.18732,155.48524 L 327.78107,155.48524 L 327.78107,135.89149 L 308.18732,135.89149 z M 503.40607,135.98524 C 502.52892,135.99009 501.66055,136.02188 500.78107,136.04774 L 478.31232,136.04774 L 478.31232,197.64149 L 478.59357,197.64149 L 478.59357,211.14149 L 497.96857,211.14149 L 508.34357,211.32899 L 510.28107,211.32899 C 518.68782,211.32899 523.21353,210.49295 527.09357,209.32899 C 533.56024,207.19497 540.00436,203.04225 544.53107,197.61024 L 544.37482,197.61024 C 547.0779,194.35749 549.18919,190.64651 550.62482,186.57899 C 552.75232,180.51964 552.87482,175.29066 552.87482,172.89149 C 552.97828,156.49835 544.45342,147.51185 539.12482,143.54774 C 530.7052,137.28147 521.23641,136.55208 517.71857,136.23524 C 515.59101,136.02831 513.35259,136.04775 511.21857,136.04774 C 508.66259,136.04774 506.03752,135.97069 503.40607,135.98524 z M 687.37482,135.98524 L 687.37482,197.64149 L 687.46857,197.64149 L 687.46857,211.14149 L 706.21857,211.14149 L 716.56232,211.26649 C 726.26242,211.33112 732.06688,210.82412 736.59357,208.17274 C 739.17584,206.68789 743.69779,203.57138 744.99982,197.64149 L 745.24982,197.64149 C 745.83182,195.75963 746.18732,193.57514 746.18732,191.07899 C 746.18732,186.67518 744.90877,182.68525 742.03107,179.32899 C 738.83657,175.55247 734.80077,174.18148 733.09357,173.54774 C 735.01417,172.81699 736.61163,172.08996 738.31232,170.82899 C 743.21412,167.26579 744.36391,161.69247 744.68732,159.79774 C 745.00412,158.32979 745.03107,157.3907 745.03107,155.92274 C 745.03107,147.63244 741.71151,143.54386 738.93732,141.23524 C 734.88912,137.77551 729.35416,136.19862 718.59357,135.98524 L 687.37482,135.98524 z M 352.31232,136.07899 L 352.31232,165.48524 L 308.09357,165.48524 L 308.09357,197.61024 L 307.87482,197.61024 L 307.87482,211.32899 L 327.90607,211.32899 L 327.90607,197.61024 L 327.71857,197.61024 L 327.71857,181.57899 L 352.31232,181.57899 L 352.31232,197.64149 L 352.46857,197.64149 L 352.46857,211.32899 L 371.87482,211.32899 L 371.87482,197.64149 L 371.90607,197.64149 L 371.90607,136.07899 L 352.31232,136.07899 z M 383.90607,136.07899 L 383.90607,197.64149 L 384.15607,197.64149 L 384.15607,211.26649 L 435.24982,211.26649 L 435.24982,197.64149 L 435.46857,197.64149 L 435.46857,195.86024 L 403.06232,195.86024 L 403.06232,181.04774 L 435.46857,181.04774 L 435.46857,165.92274 L 403.06232,165.92274 L 403.06232,151.64149 L 435.46857,151.64149 L 435.46857,136.07899 L 383.90607,136.07899 z M 446.59357,136.07899 L 446.59357,197.64149 L 446.90607,197.64149 L 446.90607,211.26649 L 466.28107,211.26649 L 466.28107,197.64149 L 466.49982,197.64149 L 466.49982,136.07899 L 446.59357,136.07899 z M 562.15607,136.07899 L 562.15607,197.61024 L 561.99982,197.61024 L 561.99982,211.26649 L 613.74982,211.26649 L 613.74982,197.61024 L 613.71857,197.61024 L 613.71857,195.86024 L 581.34357,195.86024 L 581.34357,181.04774 L 613.71857,181.04774 L 613.71857,165.92274 L 581.34357,165.92274 L 581.34357,151.64149 L 613.71857,151.64149 L 613.71857,136.07899 L 562.15607,136.07899 z M 625.03107,136.07899 L 625.03107,197.61024 L 624.71857,197.61024 L 624.71857,211.26649 L 677.74982,211.26649 L 677.74982,197.61024 L 677.46857,197.61024 L 677.46857,194.89149 L 644.74982,194.89149 L 644.74982,136.07899 L 625.03107,136.07899 z M 754.90607,136.07899 L 754.90607,197.61024 L 754.71857,197.61024 L 754.71857,211.26649 L 806.43732,211.26649 L 806.43732,197.64149 L 806.46857,197.64149 L 806.46857,195.86024 L 774.09357,195.86024 L 774.09357,181.04774 L 806.46857,181.04774 L 806.46857,165.92274 L 774.09357,165.92274 L 774.09357,151.64149 L 806.46857,151.64149 L 806.46857,136.07899 L 754.90607,136.07899 z M 1036.1248,136.14149 L 1036.1248,197.61024 L 1035.9998,197.61024 L 1035.9998,211.73524 L 1076.7498,211.73524 L 1076.7498,204.07899 L 1045.7186,204.07899 L 1045.7186,197.61024 L 1045.4373,197.61024 L 1045.4373,176.73524 L 1075.1248,176.73524 L 1075.1248,169.20399 L 1045.4998,169.20399 L 1045.4998,143.45399 L 1076.0311,143.45399 L 1076.0311,136.14149 L 1036.1248,136.14149 z M 1158.2811,136.14149 C 1155.5651,143.02854 1152.8053,149.91065 1150.2186,156.79774 C 1148.0846,162.17805 1146.136,167.66743 1143.9373,173.04774 C 1142.062,178.21466 1139.8773,183.19332 1137.9373,188.36024 C 1136.8379,191.39309 1135.7845,194.51805 1134.7498,197.64149 L 1134.9686,197.64149 C 1134.3258,199.05558 1133.6426,200.47735 1132.9998,201.89149 C 1132.9998,200.46878 1132.3748,199.0329 1132.3748,197.61024 L 1132.0936,197.61024 C 1131.6437,196.04862 1131.2033,194.50199 1130.6248,192.98524 C 1129.2021,188.67838 1127.5185,184.57976 1126.0311,180.26649 L 1120.8436,165.11024 C 1117.4809,155.42313 1113.9272,145.94389 1110.4998,136.36024 L 1100.6248,136.23524 L 1089.5623,197.64149 L 1089.6873,197.64149 L 1087.0936,210.61024 L 1096.1561,212.17274 C 1096.8014,207.33288 1097.4482,202.48128 1098.0936,197.64149 L 1098.2811,197.64149 C 1098.7338,195.05479 1099.1721,192.4534 1099.6248,189.86024 C 1100.7888,182.86323 1102.088,175.87343 1103.1873,168.76649 C 1104.3513,161.23278 1105.1904,153.56643 1106.0311,145.92274 C 1107.0658,149.58293 1107.9297,153.34984 1109.0936,157.01649 C 1109.8697,159.27337 1110.6926,161.42558 1111.4686,163.57899 C 1113.926,170.0392 1116.2009,176.60901 1118.5936,183.17274 C 1120.3397,188.0163 1122.0038,192.84317 1123.7498,197.64149 L 1123.9686,197.64149 C 1125.2619,202.35236 1127.209,207.02411 1128.4998,211.73524 L 1137.5311,211.73524 C 1139.4673,207.02365 1140.7848,202.35283 1142.7186,197.64149 C 1142.7223,197.63237 1142.7148,197.61936 1142.7186,197.61024 C 1145.6899,189.71704 1148.6514,181.82239 1151.6873,173.92274 C 1152.5927,171.44597 1153.5611,168.96201 1154.5311,166.48524 C 1155.6951,163.47825 1156.8046,160.47391 1157.9686,157.45399 C 1159.3266,153.69034 1160.6753,149.71874 1161.9686,145.73524 C 1162.0332,153.91562 1162.5511,158.4113 1164.7498,173.48524 C 1165.9138,181.5298 1167.1461,189.59042 1168.3748,197.64149 L 1168.5936,197.64149 C 1169.239,202.61059 1169.8857,207.57859 1170.5311,212.54774 L 1179.5623,210.76649 L 1177.6248,197.61024 L 1177.3748,197.61024 L 1167.5311,136.14149 L 1158.2811,136.14149 z M 1191.1561,136.14149 L 1191.1561,197.64149 L 1191.2186,197.64149 L 1191.2186,211.73524 L 1231.9686,211.73524 L 1231.9686,204.07899 L 1200.2811,204.07899 L 1200.2811,197.64149 L 1200.4061,197.64149 L 1200.4061,176.73524 L 1230.1248,176.73524 L 1230.1248,169.20399 L 1200.5311,169.20399 L 1200.5311,143.45399 L 1230.9686,143.45399 L 1230.9686,136.14149 L 1191.1561,136.14149 z M 1313.4998,136.14149 L 1313.4998,143.67274 L 1337.4998,143.67274 L 1337.4998,197.61024 L 1337.3748,197.61024 L 1337.3748,211.57899 L 1347.0623,211.57899 L 1347.0623,197.61024 L 1346.9373,197.61024 L 1346.9373,143.57899 L 1370.8436,143.57899 L 1370.8436,136.14149 L 1313.4998,136.14149 z M 706.46857,150.39149 L 715.31232,150.39149 C 718.50692,150.49496 722.22142,150.49976 724.56232,153.42274 C 726.15962,155.30453 726.28107,157.89457 726.28107,158.73524 C 726.28107,160.92101 725.40502,162.3795 724.87482,163.11024 C 723.38092,165.40588 721.27128,166.16303 716.15607,166.26649 L 706.46857,166.26649 L 706.46857,150.39149 z M 836.68732,150.39149 L 845.18732,150.39149 C 846.68111,150.49495 848.39727,150.47113 849.78107,150.89149 C 855.43306,152.47583 855.96857,157.334 855.96857,159.23524 C 856.07197,162.29399 854.66592,164.09715 853.81232,165.04774 C 851.36142,167.57628 848.49182,167.99707 845.18732,168.20399 C 844.23021,168.20399 843.19182,168.29774 842.12482,168.29774 L 836.68732,168.29774 L 836.68732,150.39149 z M 506.93732,150.98524 C 515.88723,150.98524 523.79737,152.64224 528.90607,160.26649 C 530.39988,162.45872 532.53107,166.6371 532.53107,173.11024 C 532.53107,181.14838 529.33105,185.94491 527.09357,188.45399 C 521.89433,194.48097 515.14447,196.03366 508.03107,196.26649 L 498.21857,196.07899 L 498.21857,151.07899 C 501.0898,151.07899 504.0661,150.98524 506.93732,150.98524 z M 706.46857,180.76649 L 714.87482,180.76649 C 718.70962,180.76649 722.76231,180.86607 724.99982,184.42274 C 726.28022,186.40159 726.37482,188.18229 726.37482,189.01649 C 726.37482,193.60783 723.49793,195.38927 721.68732,196.01649 C 720.38102,196.52738 718.77833,196.62639 716.24982,196.70399 L 706.46857,196.57899 L 706.46857,180.76649 z "
       style="fill:#04823c;fill-opacity:1;fill-rule:evenodd;stroke:none"
       id="path3353" />
  </g>
</svg>
