<svg width="1201" height="345" viewBox="0 0 1201 345" fill="none" xmlns="http://www.w3.org/2000/svg">
<path d="M124.501 183.169C120.264 184.702 116.261 186.541 112.583 188.688L0.542969 253.811V77.5579L112.583 12.4347C138.907 -2.87676 181.891 -2.89479 208.395 12.4347C234.9 27.7461 235.044 52.652 208.702 67.9635L142.801 106.269C130.541 113.393 124.447 122.771 124.501 132.131V183.169Z" fill="black"/>
<path d="M124.501 308.474C124.591 317.816 130.794 327.14 143.108 334.245C167.828 348.511 207.909 348.511 232.43 334.245L344.47 269.122V92.8691L232.43 157.992C207.909 172.24 167.828 172.24 143.108 157.992C130.758 150.869 124.555 141.491 124.501 132.131V308.474Z" fill="black"/>
<path d="M1064.04 259.599C1050.06 251.484 1038.96 240.428 1030.72 226.506C1022.48 212.583 1018.35 197.416 1018.35 180.968C1018.35 164.52 1022.44 149.353 1030.57 135.431C1038.72 121.508 1049.79 110.489 1063.77 102.337C1077.74 94.2213 1092.94 90.1454 1109.44 90.1454C1125.93 90.1454 1141.15 94.2213 1155.12 102.337C1169.08 110.452 1180.15 121.508 1188.32 135.431C1196.47 149.353 1200.54 164.538 1200.54 180.968C1200.54 197.398 1196.47 212.583 1188.32 226.506C1180.17 240.428 1169.1 251.466 1155.12 259.599C1141.15 267.715 1125.93 271.791 1109.44 271.791C1092.94 271.791 1077.97 267.715 1064.04 259.599ZM1139.96 233.413C1149.21 227.984 1156.57 220.59 1162.03 211.284C1167.48 201.978 1170.23 191.879 1170.23 180.986C1170.23 170.093 1167.51 159.994 1162.03 150.688C1156.57 141.382 1149.17 134.006 1139.82 128.541C1130.48 123.113 1120.34 120.372 1109.44 120.372C1098.53 120.372 1088.38 123.095 1079.04 128.541C1069.7 133.988 1062.31 141.364 1056.82 150.688C1051.34 159.994 1048.62 170.093 1048.62 180.986C1048.62 191.879 1051.34 201.978 1056.82 211.284C1062.27 220.59 1069.68 227.966 1079.04 233.413C1088.38 238.877 1098.6 241.583 1109.69 241.583C1120.78 241.583 1130.71 238.859 1139.94 233.413H1139.96Z" fill="black"/>
<path d="M902.179 263.982C895.616 258.788 890.225 249.969 886.024 237.543L836.802 92.8869H870.392L912.06 222.448C914.079 228.327 916.063 232.439 917.992 234.784C919.921 237.146 922.409 238.301 925.438 238.301C928.467 238.301 930.902 237.128 932.759 234.784C934.598 232.439 936.545 228.327 938.564 222.448L980.232 92.8869H1013.57L964.852 237.543C960.633 250.294 955.387 259.185 949.076 264.234C942.765 269.266 934.886 271.791 925.474 271.791C916.549 271.791 908.814 269.194 902.251 263.982H902.179Z" fill="black"/>
<path d="M545.703 90.1276C502.99 90.1276 468.408 124.646 468.408 167.208V269.086H498.969V167.208C498.969 141.454 519.902 120.606 545.721 120.606C571.541 120.606 592.474 141.472 592.474 167.208V269.086H623.035V167.208C623.035 124.646 588.417 90.1276 545.739 90.1276H545.703Z" fill="black"/>
<path d="M733.884 271.845C776.598 271.845 811.179 237.327 811.179 194.765V92.8869H780.618V194.765C780.618 220.518 759.685 241.366 733.866 241.366C708.047 241.366 687.113 220.5 687.113 194.765V92.8869H656.552V194.765C656.552 237.327 691.17 271.845 733.848 271.845H733.884Z" fill="black"/>
</svg>
