<?xml version="1.0" encoding="UTF-8" standalone="no"?>
<svg xmlns:dc="http://purl.org/dc/elements/1.1/" xmlns:cc="http://creativecommons.org/ns#" xmlns:rdf="http://www.w3.org/1999/02/22-rdf-syntax-ns#" xmlns:svg="http://www.w3.org/2000/svg" xmlns="http://www.w3.org/2000/svg" version="1.1" id="svg2" viewBox="0 0 654.93498 658.44563" height="185.82799mm" width="184.8372mm">
  <defs id="defs4"/>
  <metadata id="metadata7">
    <rdf:RDF>
      <cc:Work rdf:about="">
        <dc:format>image/svg+xml</dc:format>
        <dc:type rdf:resource="http://purl.org/dc/dcmitype/StillImage"/>
        <dc:title/>
      </cc:Work>
    </rdf:RDF>
  </metadata>
  <g transform="translate(221.72077,-85.890151)" id="layer1">
    <path id="path3347" d="m 97.2767,743.65687 -300.3125,-0.31764 0,-15.55392 c 0,-22.32271 2.2728,-63.82731 4.4528,-81.31595 3.6456,-29.2458 16.4231,-86.48699 25.8101,-115.625 19.876,-61.69719 51.329,-121.90926 92.0553,-176.22569 32.9618,-43.96107 78.7506,-90.96408 115.8068,-118.87761 60.887,-45.8648 109.4341,-72.48417 173.125,-94.92808 66.2374,-23.34129 123.5538,-33.78706 196.5625,-35.82304 l 28.4375,-0.79303 0,310.32231 c 0,284.22202 -0.17133,310.68336 -2.03701,314.615 -4.52849,9.54309 -16.2481,15.83845 -28.20402,15.15021 -2.96118,-0.17046 -140.52457,-0.45286 -305.69647,-0.62756 z m -177.8125,-101.30395 4.375,-0.97812 0.7781,-8.70272 c 0.4279,-4.7865 0.606,-8.89968 0.3956,-9.14041 -0.2103,-0.24072 -3.9714,0.4624 -8.3579,1.5625 -9.9815,2.50325 -24.8107,2.57225 -32.956,0.15335 -14.047,-4.17149 -22.951,-16.88222 -22.9726,-32.79377 -0.024,-17.55857 8.3665,-30.42503 22.596,-34.65072 8.1585,-2.42283 24.5751,-2.51247 33.3293,-0.18197 l 6.5625,1.74702 0,-9.17192 0,-9.17191 -7.1875,-1.02744 c -3.9531,-0.5651 -14.2188,-1.02745 -22.8125,-1.02745 -20.4669,0 -30.7426,3.0605 -40.6367,12.10319 -12.6763,11.58542 -17.4478,24.02714 -16.6368,43.38064 0.4099,9.78157 1.1449,13.41092 3.952,19.51617 7.1222,15.49039 21.4867,25.9803 40.2318,29.3801 6.7575,1.2256 32.2938,0.57871 39.3397,-0.99654 z m 468.75,-1.86441 8.125,-1.53676 0.3395,-24.0537 0.3395,-24.05369 -10.3395,-6.9e-4 -10.3395,-6.7e-4 0.4381,17.00004 c 0.2883,11.18615 -0.029,17.46692 -0.927,18.36521 -0.7508,0.75085 -6.2918,1.59095 -12.3131,1.86688 -10.1556,0.46542 -11.4442,0.24052 -17.8037,-3.1073 -9.5645,-5.03498 -14.1536,-12.56047 -14.8168,-24.2971 -0.4154,-7.35108 -0.01,-9.57377 2.8117,-15.33687 3.454,-7.05964 8.7946,-11.98937 16.6738,-15.39093 6.4214,-2.7722 23.7225,-2.70722 33.2589,0.12488 4.027,1.19595 7.6385,1.85777 8.0256,1.47071 0.8357,-0.83578 0.6767,-13.21163 -0.1808,-14.06919 -1.4046,-1.40459 -11.133,-2.88491 -23.9167,-3.63925 -21.036,-1.2413 -33.594,2.77733 -45.3189,14.50225 -8.7416,8.74169 -10.9311,14.75297 -10.9311,30.01203 0,10.71016 0.4843,14.17161 2.6321,18.81351 6.3395,13.70112 19.2274,22.76449 36.1179,25.39983 5.8016,0.90519 29.0786,-0.35814 38.125,-2.06919 z M -7.0289,638.62127 c 8.4003,-3.27995 16.8633,-10.18092 20.7465,-16.91735 6.0923,-10.56856 7.087,-26.6829 2.5833,-41.84871 -2.5104,-8.4533 -10.6743,-16.74904 -21.5557,-21.90379 -8.0963,-3.83536 -8.9816,-3.97915 -24.031,-3.90296 -20.166,0.10212 -27.4071,2.58776 -37.5468,12.88891 -9.285,9.4328 -11.6942,16.83646 -10.9586,33.67638 0.406,9.29718 1.1658,13.33001 3.2747,17.38336 5.9012,11.34191 15.0711,18.94846 26.8197,22.24724 9.5562,2.68321 31.9254,1.79045 40.6679,-1.62308 z m -29.1319,-11.39922 c -10.6887,-2.73475 -18.3986,-10.29059 -20.5003,-20.09066 -2.9236,-13.6324 -0.385,-24.75233 7.2191,-31.62217 6.3595,-5.74542 12.2312,-7.54162 22.7165,-6.94915 10.7131,0.60534 17.6357,4.93499 22.261,13.92291 5.9396,11.54163 3.4914,30.21312 -4.9811,37.98922 -5.9754,5.48427 -18.8992,8.74961 -26.7152,6.74985 z m 79.375,-22.62769 0,-36.25 11.0814,0 c 9.2111,0 11.6212,0.42454 14.279,2.51524 4.1387,3.25543 5.2695,8.55742 2.9893,14.01487 -2.3098,5.52799 -8.4184,8.46989 -17.5871,8.46989 l -6.9846,0 13.8662,22.8125 c 7.6264,12.54687 14.2808,23.25757 14.7875,23.80156 0.5068,0.54398 5.7944,0.82523 11.7503,0.625 l 10.8289,-0.36406 -13.7394,-18.75 c -7.5566,-10.3125 -13.7466,-19.1051 -13.7554,-19.53911 -0.01,-0.434 2.3867,-1.39413 5.3234,-2.1336 11.6626,-2.93668 19.0343,-18.00394 14.5838,-29.80841 -2.2585,-5.99044 -8.741,-11.59372 -15.7805,-13.64015 -5.0107,-1.45666 -11.6806,-1.80638 -28.8346,-1.51187 l -22.316,0.38314 0.016,42.8125 0.016,42.8125 9.7378,0 9.7378,0 0,-36.25 z m 75.2485,5.335 -0.3764,-30.91729 7.3735,10.63676 c 4.0554,5.85023 13.4542,19.7625 20.8861,30.91615 l 13.5126,20.27938 12.3028,0 12.3029,0 0,-43.125 0,-43.125 -10.1337,0 c -9.1431,0 -10.0503,0.21386 -9.2802,2.1875 1.3557,3.47424 2.3669,42.56038 1.3473,52.0766 l -0.9256,8.6391 -8.0713,-12.3891 c -4.4392,-6.814 -13.7109,-20.96723 -20.6039,-31.4516 l -12.5327,-19.0625 -12.0874,8.2e-4 -12.0875,8.2e-4 0,43.12463 0,43.12463 9.375,7e-4 9.375,6.9e-4 -0.3765,-30.91729 z m 95.6554,-12.20945 -0.2789,-43.12446 -10.2211,-5.4e-4 -10.221,-5.5e-4 0.01,43.125 0.01,43.125 10.4919,0 10.4919,0 -0.2789,-43.12445 z m 26.8479,12.18795 -0.3731,-30.9385 20.6932,30.9375 20.6933,30.9375 12.2841,0 12.284,0 0,-43.125 0,-43.125 -9.4791,-3.1e-4 -9.4792,-3.3e-4 0.4204,31.56283 c 0.2665,20.00841 -0.015,31.10521 -0.7696,30.31281 -0.6545,-0.6875 -10.0369,-14.89063 -20.8498,-31.5625 l -19.6598,-30.3125 -12.1086,0 -12.1085,0 0.024,43.125 0.024,43.125 9.3892,10e-4 9.3891,9.9e-4 -0.3732,-30.93849 z M 9.0231,524.67801 c 17.3024,-3.28134 32.0686,-13.53635 38.4981,-26.73669 6.9348,-14.23759 7.0438,-36.60852 0.2506,-51.40758 -5.7557,-12.53858 -21.5561,-24.06622 -36.9157,-26.93278 -17.028,-3.17794 -37.1104,-0.60149 -50.361,6.46103 -19.7271,10.51442 -28.9608,35.02152 -22.8928,60.75922 2.4426,10.3603 5.4512,15.99757 12.0462,22.57147 13.0781,13.03632 37.7467,19.38697 59.3746,15.28533 z m -23.3089,-17.50394 c -15.2384,-3.07479 -23.7186,-14.52613 -24.747,-33.4174 -0.9428,-17.31646 4.2959,-27.49325 17.5661,-34.12446 18.8082,-9.39854 41.6542,-1.05872 47.8018,17.44975 2.9715,8.94631 2.1714,26.02384 -1.5565,33.22266 -7.0531,13.62015 -22.3755,20.23694 -39.0644,16.86945 z m 392.647,16.15025 c 11.4071,-3.16859 19.2654,-13.28684 18.2091,-23.44581 -0.7814,-7.51465 -5.7271,-13.96301 -18.5548,-24.19264 -6.0675,-4.83855 -12.1612,-10.23315 -13.5415,-11.98801 -7.813,-9.93262 3.8861,-17.91285 19.9885,-13.63462 3.7803,1.00438 6.9866,1.71285 7.1251,1.57435 0.1385,-0.13849 -0.077,-3.43615 -0.4785,-7.32814 -0.5023,-4.86701 -1.3609,-7.32468 -2.7501,-7.87174 -1.1109,-0.43747 -7.0823,-1.09834 -13.2698,-1.46859 -14.1135,-0.84453 -20.5719,0.81944 -27.2086,7.0101 -4.4723,4.17169 -5.1176,5.5001 -5.6211,11.57079 -0.7743,9.33734 2.3198,15.01962 13.6103,24.99515 21.743,19.21059 23.4363,21.63036 18.9838,27.12849 -3.5736,4.41287 -11.2862,5.52362 -22.4058,3.22681 -5.2223,-1.07869 -9.6275,-1.78573 -9.7894,-1.57119 -0.1618,0.21455 0.038,3.48384 0.4433,7.26509 l 0.7375,6.875 7.5,1.42625 c 9.6633,1.83765 21.2859,2.02205 27.022,0.42871 z M 99.9679,509.8083 c 1.8873,-6.75733 6.4021,-21.71198 10.033,-33.23255 l 6.6016,-20.94649 3.463,11.04505 c 7.1227,22.7178 14.4167,47.42893 15.1592,51.35755 l 0.7677,4.0625 12.8866,0 12.8866,0 0.855,-4.0625 c 4.4746,-21.25913 17.1843,-74.33317 18.6281,-77.78882 l 1.8379,-4.39868 -11.1624,0 c -10.5646,0 -11.1945,0.15063 -11.7628,2.8125 -0.3302,1.54688 -2.8823,14.74403 -5.6713,29.32699 -2.789,14.58296 -5.5144,27.71316 -6.0563,29.17821 -0.7527,2.03466 -2.202,-1.60567 -6.1368,-15.41466 -2.8332,-9.94312 -6.6757,-24.35663 -8.5389,-32.03004 l -3.3876,-13.95166 -13.7686,0.35182 -13.7687,0.35184 -5.334,20.625 c -2.9338,11.34375 -6.9614,25.6875 -8.9504,31.875 l -3.6164,11.25 -5.1838,-26.875 c -2.8511,-14.78125 -5.5372,-29.26562 -5.969,-32.1875 l -0.7852,-5.3125 -11.2243,0 c -10.1158,0 -11.1572,0.21604 -10.5437,2.1875 2.5901,8.32405 17.0029,67.66774 18.2152,75 l 1.4985,9.0625 12.7983,0 12.7982,0 3.4313,-12.28606 z m 147.4876,10.30882 c 0.4173,-1.08747 0.7587,-4.33558 0.7587,-7.21801 l 0,-5.24079 -21.25,0.48726 -21.25,0.48727 0,-11.21383 0,-11.21381 9.375,-0.70904 c 5.1562,-0.38996 13.5937,-0.38996 18.75,0 l 9.375,0.70904 0,-7.48743 0,-7.48742 -18.75,0.60185 -18.75,0.60184 0,-11.43483 0,-11.43482 21.25,0.8354 21.25,0.8354 0,-5.71819 c 0,-10.33617 2.2172,-9.67265 -32.3212,-9.67266 l -30.8038,0 0,43.12497 0,43.12499 30.8038,2e-5 c 26.9359,3e-5 30.899,-0.24825 31.5625,-1.97721 z m 24.799,-28.20824 0.3347,-30.18547 20,30.1551 20,30.1551 12.5,0.0246 12.5,0.0246 0.2016,-43.1193 0.2017,-43.11929 -9.8892,0 -9.8891,0 0,30.79358 c 0,30.17762 -0.046,30.73393 -2.3068,27.8125 -1.2688,-1.63959 -10.331,-15.4967 -20.1382,-30.79358 l -17.8313,-27.81241 -12.6744,-2.6e-4 -12.6743,-2.6e-4 0,43.12495 0,43.12496 9.6653,3e-4 9.6652,3.1e-4 0.3348,-30.18547 z M -221.7184,388.65686 c 0.037,-146.26563 0.5281,-270.33011 1.0912,-275.69887 0.8471,-8.07669 1.6637,-10.55761 4.7318,-14.375 5.8849,-7.32203 12.442,-10.27192 25.6802,-11.55287 13.5811,-1.31413 455.8604,-1.58676 514.163,-0.31693 l 39.8914,0.86882 -15.625,1.57818 c -74.6882,7.54376 -152.3868,30.70343 -223.6235,66.65557 -152.1255,76.77561 -263.1316,206.69575 -319.3631,373.7786 -11.542,34.29519 -17.9282,63.89935 -22.8529,105.9375 -1.2283,10.48437 -2.6668,19.0625 -3.1968,19.0625 -0.5301,0 -0.9334,-119.67188 -0.8963,-265.9375 z" style="fill:#de222c;fill-opacity:1"/>
  </g>
</svg>