<svg width="109" height="91" viewBox="0 0 109 91" fill="none" xmlns="http://www.w3.org/2000/svg">
<path d="M99.947 39.0129V35.9947H98.8181V35.5894H101.534V35.9947H100.397V39.0086H99.947V39.0129Z" fill="#055689"/>
<path d="M101.989 39.0129V35.5936H102.676L103.489 38.0125C103.567 38.2411 103.615 38.4049 103.654 38.517C103.693 38.392 103.753 38.2066 103.84 37.9651L104.627 35.5936H105.263V39.0129H104.826V36.1542L103.831 39.0129H103.425L102.434 36.1024V39.0129H101.997H101.989Z" fill="#055689"/>
<path d="M54.4697 43.7386C50.0103 43.7386 46.3942 40.134 46.3942 35.6885C46.3942 31.2431 50.0103 27.6384 54.4697 27.6384C58.9292 27.6384 62.5453 31.2431 62.5453 35.6885C62.5366 40.1296 58.9249 43.73 54.4697 43.7386ZM54.4697 30.0228C51.3122 30.0228 48.7559 32.5711 48.7559 35.7187C48.7559 38.8663 51.3122 41.4145 54.4697 41.4145C57.6273 41.4145 60.1836 38.8663 60.1836 35.7187C60.1836 32.5711 57.6273 30.0228 54.4697 30.0228Z" fill="#055689"/>
<path d="M38.15 74.4945C38.15 77.0514 38.7556 79.052 39.9623 80.5051C41.1691 81.9582 42.7825 82.6825 44.7895 82.6825C46.7965 82.6825 48.665 82.0013 50.3822 80.6345L50.8191 80.9406L49.8588 83.4242C47.9989 84.7306 45.6027 85.386 42.6657 85.386C39.266 85.386 36.6058 84.39 34.6897 82.4023C32.7735 80.4146 31.8133 77.6464 31.8133 74.1064C31.8133 70.9718 32.7562 68.4149 34.6464 66.4401C36.5366 64.4653 39.08 63.4779 42.2764 63.4779C45.2696 63.4779 47.5664 64.3058 49.1668 65.9615C50.7629 67.6172 51.5631 69.9973 51.5631 73.1061C51.5631 73.7141 51.5501 74.1797 51.5198 74.4988H38.15V74.4945ZM38.15 72.3602H45.5334C45.5334 72.1877 45.5464 71.985 45.5767 71.7522V71.3167C45.5767 67.3369 44.4391 65.3492 42.1683 65.3492C39.4865 65.3492 38.15 67.5568 38.15 71.9678V72.3602Z" fill="#055689"/>
<path d="M65.2183 82.1177C63.938 84.2952 61.9699 85.3861 59.3185 85.3861C57.4845 85.3861 56.0398 84.8471 54.9931 83.7735C53.9463 82.6998 53.4186 81.2166 53.4186 79.3323C53.4186 76.6892 54.9498 74.8481 58.0079 73.8003C59.2882 73.395 60.5772 72.9897 61.8748 72.5801C63.1724 72.1748 64.1846 71.722 64.9112 71.2305C64.9415 71.058 64.9545 70.8079 64.9545 70.4889C64.9545 69.1824 64.5738 68.139 63.8169 67.3542C63.0599 66.5695 62.0521 66.1771 60.8021 66.1771C58.8816 66.1771 57.2466 67.2939 55.9101 69.5317C55.5294 68.3718 55.2094 67.4405 54.9498 66.7463C57.4542 64.5386 60.0451 63.4348 62.7269 63.4348C68.1466 63.4348 70.8543 65.7589 70.8543 70.4026V70.6225L70.7245 79.0305C70.7245 80.6862 70.8846 81.7728 71.2047 82.2988C71.581 82.9068 72.3855 83.2129 73.6096 83.2129H73.7394V84.3038C72.1952 84.9118 70.664 85.2179 69.1501 85.2179C67.022 85.2179 65.7114 84.1874 65.2183 82.1264V82.1177ZM64.9545 73.408C62.9734 73.8133 61.5417 74.4298 60.6507 75.2577C59.764 76.0856 59.3185 77.2541 59.3185 78.7632C59.3185 81.2597 60.2052 82.5101 61.9872 82.5101C63.9683 82.5101 64.9545 81.1605 64.9545 78.4614V73.408Z" fill="#055689"/>
<path d="M31.1558 54.3413C29.3867 52.9831 26.6531 52.3019 22.9549 52.3019C21.8389 52.3019 20.4029 52.3321 18.6511 52.3967C16.8993 52.4614 15.6882 52.4916 15.0178 52.4916C13.9321 52.4916 12.8162 52.4269 11.6699 52.3019C12.0506 56.6223 12.2452 62.0594 12.2452 68.6047C12.2452 75.15 12.0549 80.7294 11.6699 84.8601H19.607C19.2567 80.8545 19.0793 78.4873 19.0793 77.7586V70.752H20.6581C29.4257 70.752 33.8073 67.4491 33.8073 60.8392C33.8073 57.8684 32.9206 55.7039 31.1515 54.3413H31.1558ZM24.5683 66.5092C23.4437 67.6216 21.614 68.1778 19.0837 68.1778V60.3132C19.0837 58.8515 19.1961 57.0879 19.4167 55.0226C20.1131 54.9579 20.6019 54.9277 20.8917 54.9277C24.4688 54.9277 26.2595 56.9758 26.2595 61.0763C26.2595 63.5858 25.6972 65.3967 24.5726 66.5092H24.5683Z" fill="#055689"/>
<path d="M88.662 63.4736C85.2536 63.4736 83.0087 65.5045 81.9317 69.5705H81.7111C81.7111 68.3804 81.7846 66.5221 81.9317 63.9954H75.8588C76.0621 66.259 76.1659 69.73 76.1659 74.404C76.1659 78.5002 76.0621 81.9841 75.8588 84.8557H82.3253C82.0614 81.9237 81.9317 78.7718 81.9317 75.4043C81.9317 71.2823 83.2985 69.2212 86.0408 69.2212C86.7675 69.2212 87.7147 69.4411 88.8826 69.8766V63.4736H88.662Z" fill="#055689"/>
<path d="M97.2739 52.2372H90.7642C90.9977 56.8767 91.1145 62.344 91.1145 68.6349C91.1145 74.9257 90.9977 80.0179 90.7642 84.8601H97.2739C97.0403 80.2206 96.9235 74.7533 96.9235 68.4624C96.9235 62.1715 97.0403 57.0793 97.2739 52.2372Z" fill="#055689"/>
<path d="M86.2873 30.6782L74.2973 21.2354L54.4697 5.61389L3.74146 45.5884H19.3259L54.4697 18.0577L89.6136 45.5884H105.198L86.2873 30.6782Z" fill="#055689"/>
</svg>
