<?xml version="1.0" encoding="UTF-8"?> <svg xmlns="http://www.w3.org/2000/svg" width="125" height="49" viewBox="0 0 125 49" fill="none"><g clip-path="url(#clip0_12171_15657)"><path d="M32.3702 16.2355H29.4492C28.4791 16.2355 27.5089 16.2355 26.5373 16.2355C26.4276 16.2355 26.318 16.2234 26.1642 16.2143C26.2555 15.9994 26.3165 15.851 26.3804 15.7042C28.0481 11.8856 29.7172 8.06551 31.3849 4.24692L33.3449 0H20.2642L19.9292 0.871784C19.8835 0.953514 19.8424 1.04281 19.8058 1.14724C17.6386 7.24822 15.4669 13.3446 13.2967 19.4441L11.1523 25.2666H15.6207H17.296H18.362C18.4717 25.2666 18.5829 25.2666 18.7275 25.2666C18.6697 25.5103 18.6286 25.6873 18.5844 25.8614C17.1193 31.6415 15.6557 37.4216 14.1846 43.1972C14.18 43.2123 14.1785 43.2275 14.1739 43.2426L12.7286 48.9364L12.7393 48.9183L12.7119 49H14.5394L14.5836 48.891L18.8631 41.3401C22.5228 34.891 26.4855 28.4404 30.1421 21.9898C30.4818 21.3905 30.8214 20.7926 31.161 20.1948L33.4378 16.237H32.3717L32.3702 16.2355Z" fill="#1BB3EF"></path><path d="M30.0193 10.6755C35.3938 13.8282 39.1144 19.5281 39.4251 26.186C39.9109 36.5899 31.891 45.4273 21.4648 46.0524C21.5562 46.0494 21.6461 46.0478 21.7375 46.0433C33.1977 45.5151 42.0568 35.8543 41.5253 24.4651C41.1902 17.3032 37.2229 11.1629 31.4722 7.72266" fill="#1BB3EF"></path><path d="M17.0404 5.11115C16.8531 5.14444 16.6673 5.18077 16.483 5.22012C6.68578 7.26185 -0.4569 16.1189 0.0228325 26.379C0.342654 33.2277 3.9871 39.141 9.33269 42.6523C4.64349 39.3862 1.47269 34.0737 1.18637 27.9501C0.753853 18.6919 7.05586 10.6733 15.7961 8.5786" fill="#1BB3EF"></path><path d="M47.507 23.0984V7.3125H53.1571C54.3755 7.3125 55.4035 7.49261 56.2426 7.85434C57.0818 8.21455 57.7199 8.77153 58.154 9.52374C58.5895 10.276 58.8058 11.237 58.8058 12.41C58.8058 13.583 58.5895 14.5774 58.1585 15.3477C57.7275 16.1181 57.0955 16.6902 56.264 17.061C55.4324 17.4334 54.4181 17.6195 53.2226 17.6195H50.4082V23.1H47.5039L47.507 23.0984ZM50.4112 15.2055H52.8845C53.876 15.2055 54.6192 14.9845 55.1141 14.5395C55.6091 14.0961 55.8573 13.4014 55.8573 12.4539C55.8573 11.5064 55.6061 10.8148 55.102 10.3789C54.5994 9.94299 53.8364 9.72504 52.816 9.72504H50.4112V15.2055Z" fill="black"></path><path d="M61.0312 23.0984V7.3125H71.197V10.1095H64.0041V13.4695H69.5857V16.2664H64.0041V20.303H71.4239V23.1H61.0312V23.0984Z" fill="black"></path><path d="M73.9199 23.0984V7.3125H79.7285C80.825 7.3125 81.7845 7.48504 82.6054 7.83164C83.4262 8.17823 84.0628 8.70342 84.5167 9.41023C84.9705 10.117 85.1974 11.0115 85.1974 12.0937C85.1974 13.2515 84.9492 14.1702 84.4542 14.8513C83.9593 15.5324 83.3059 16.0712 82.4972 16.4693L86.0823 23.1H82.8369L79.7742 17.2366H76.8242V23.1H73.9199V23.0984ZM76.8257 14.8226H78.9594C80.1549 14.8226 80.9865 14.5804 81.4555 14.0946C81.9246 13.6102 82.1591 12.9957 82.1591 12.2511C82.1591 11.4626 81.9276 10.8435 81.4677 10.3955C81.0063 9.94904 80.2082 9.72504 79.0736 9.72504H76.8273V14.821L76.8257 14.8226Z" fill="black"></path><path d="M87.3765 23.0984L89.5772 7.3125H91.9591L95.8396 14.5062L99.6973 7.3125H102.081L104.281 23.0984H101.263L99.743 11.237L100.536 11.3944L95.8396 19.7839L91.12 11.4171L91.9134 11.2597L90.3935 23.1H87.375L87.3765 23.0984Z" fill="black"></path><path d="M106.914 23.0984V7.3125H109.818V23.0984H106.914Z" fill="black"></path><path d="M116.399 23.0984V10.1095H111.906V7.3125H123.798V10.1095H119.305V23.0984H116.401H116.399Z" fill="black"></path><path d="M47.507 41.825V26.0391H53.1571C54.3755 26.0391 55.4035 26.2192 56.2426 26.5809C57.0818 26.9411 57.7199 27.4981 58.154 28.2503C58.5895 29.0025 58.8058 29.9636 58.8058 31.1366C58.8058 32.3095 58.5895 33.3039 58.1585 34.0743C57.7275 34.8447 57.0955 35.4168 56.264 35.7876C55.4324 36.1599 54.4181 36.3461 53.2226 36.3461H50.4082V41.8265H47.5039L47.507 41.825ZM50.4112 33.932H52.8845C53.876 33.932 54.6192 33.7111 55.1141 33.2661C55.6091 32.8226 55.8573 32.1279 55.8573 31.1805C55.8573 30.233 55.6061 29.5413 55.102 29.1054C54.5994 28.6695 53.8364 28.4516 52.816 28.4516H50.4112V33.932Z" fill="black"></path><path d="M67.9061 42.1421C66.3938 42.1421 65.0475 41.8016 63.8673 41.122C62.687 40.4425 61.761 39.4874 61.0878 38.2585C60.4147 37.0295 60.0781 35.5886 60.0781 33.9343C60.0781 32.2801 60.4147 30.8392 61.0878 29.6102C61.761 28.3813 62.687 27.4262 63.8673 26.7467C65.0475 26.0671 66.3938 25.7266 67.9061 25.7266C69.4184 25.7266 70.7647 26.0671 71.945 26.7467C73.1253 27.4278 74.0513 28.3813 74.7244 29.6102C75.3976 30.8392 75.7342 32.2816 75.7342 33.9343C75.7342 35.5871 75.3976 37.0295 74.7244 38.2585C74.0513 39.4874 73.1253 40.4425 71.945 41.122C70.7647 41.8031 69.4184 42.1421 67.9061 42.1421ZM67.9061 39.3452C68.9646 39.3452 69.8494 39.1121 70.5607 38.6459C71.2719 38.1798 71.8049 37.5395 72.1598 36.7238C72.5146 35.908 72.6928 34.9787 72.6928 33.9328C72.6928 32.887 72.5146 31.9577 72.1598 31.1419C71.8049 30.3261 71.2704 29.6859 70.5607 29.2198C69.8494 28.7536 68.9646 28.5205 67.9061 28.5205C66.8477 28.5205 65.9628 28.7536 65.2516 29.2198C64.5404 29.6859 64.0074 30.3261 63.6525 31.1419C63.2977 31.9577 63.1195 32.8885 63.1195 33.9328C63.1195 34.9772 63.2977 35.908 63.6525 36.7238C64.0074 37.5395 64.5419 38.1798 65.2516 38.6459C65.9628 39.1121 66.8477 39.3452 67.9061 39.3452Z" fill="black"></path><path d="M81.0461 41.825L76.5762 26.0391H79.5947L82.7716 37.2466L86.3109 26.0391H88.3304L92.0068 36.9545L95.0482 26.0391H98.0667L93.4155 41.825H90.8509L87.3115 31.294L83.795 41.825H81.0491H81.0461Z" fill="black"></path><path d="M99.9492 41.825V26.0391H110.115V28.836H102.922V32.196H108.504V34.993H102.922V39.0296H110.342V41.8265H99.9492V41.825Z" fill="black"></path><path d="M112.837 41.825V26.0391H118.646C119.743 26.0391 120.702 26.2116 121.523 26.5582C122.344 26.9048 122.98 27.43 123.434 28.1368C123.888 28.8436 124.115 29.7381 124.115 30.8203C124.115 31.9781 123.867 32.8968 123.372 33.5779C122.877 34.259 122.223 34.7978 121.415 35.1958L125 41.8265H121.754L118.69 35.9632H115.74V41.8265H112.836L112.837 41.825ZM115.742 33.5491H117.875C119.071 33.5491 119.902 33.307 120.372 32.8211C120.841 32.3353 121.075 31.7223 121.075 30.9777C121.075 30.1891 120.844 29.5701 120.384 29.1221C119.922 28.6756 119.124 28.4516 117.99 28.4516H115.743V33.5476L115.742 33.5491Z" fill="black"></path></g><defs><clipPath id="clip0_12171_15657"><rect width="125" height="49" fill="white"></rect></clipPath></defs></svg> 