<svg width="83" height="32" viewBox="0 0 105 40" fill="black" xmlns="http://www.w3.org/2000/svg"><g clip-path="url(#clip0_qxo)"><path d="M58.6464 17.5556L70.5539 35.4231H59.907L53.0597 24.5995L46.1691 35.4231H35.7602L47.6659 17.6999L36.2381 0.548248H46.8832L53.204 10.6542L59.6671 0.548248H70.076L58.6464 17.5556Z" fill="black"></path><path d="M104.699 17.8838V17.9812C104.699 27.8022 96.9857 35.7639 86.703 35.7639C76.4203 35.7639 68.803 27.8996 68.803 18.0785V17.9812C68.803 8.16014 76.5159 0.203781 86.7986 0.203781C97.0812 0.203781 104.699 8.06276 104.699 17.8838ZM95.2238 17.9812C95.2238 12.9985 91.7974 8.74623 86.7012 8.74623C81.6049 8.74623 78.2273 12.948 78.2273 17.8838V17.9812C78.2273 22.9169 81.7023 27.2161 86.7986 27.2161C91.8948 27.2161 95.2238 23.0143 95.2238 18.0785V17.9812Z" fill="black"></path><path d="M25.6057 34.4168C23.3407 35.4015 20.807 35.9497 18.0948 35.9497C7.70028 35.9497 0 27.9987 0 18.0695V17.9703C0 8.04292 7.79586 0 18.194 0C28.592 0 36.2887 7.94374 36.2887 17.873V17.9721C36.2887 22.7817 34.4601 27.1494 31.3908 30.3755L35.7585 35.4231L30.4693 40L25.6039 34.4168H25.6057ZM25.3893 23.4886C26.3487 21.9449 26.8807 20.073 26.8807 18.0839V17.983C26.8807 12.847 23.3497 8.4649 18.0966 8.4649C12.8434 8.4649 9.36297 12.7947 9.36297 17.882V17.983C9.36297 23.0702 12.9444 27.501 18.1958 27.501C18.6502 27.501 19.0902 27.4686 19.5176 27.4036L15.1752 22.3885L20.4626 17.7954L25.3893 23.4886Z" fill="black"></path></g><defs><clipPath id="clip0_qxo"><rect width="104.699" height="40" fill="white"></rect></clipPath></defs></svg>