<svg width="116" height="23" viewBox="0 0 116 23" fill="none" xmlns="http://www.w3.org/2000/svg"><g clip-path="url(#RedfinLogoNoTagline-a)" fill="#DE3341"><path d="M23.313 12.928c0 4.26-2.274 7.985-5.673 10.025a.323.323 0 01-.4-.058l-3.913-4.172a.324.324 0 01.13-.528 5.568 5.568 0 003.755-5.267 5.561 5.561 0 00-5.651-5.566C8.515 7.412 6.1 9.967 6.1 13.019v9.618a.325.325 0 01-.495.275A11.673 11.673 0 010 13.077C-.08 6.665 5.09 1.339 11.49 1.25c6.513-.09 11.822 5.173 11.822 11.678zm20.7 9.212a.327.327 0 01-.236.55h-4.205a.38.38 0 01-.28-.124l-7.405-8.1h-.204v7.898c0 .18-.146.326-.326.326h-3.533a.326.326 0 01-.326-.326V1.574c0-.18.146-.326.326-.326h9.064c2.251-.012 6.435 1.577 6.435 6.618 0 3.489-2.24 6.28-6.509 6.6l7.2 7.674zm-8.708-10.997c1.33 0 2.334-.283 3.009-.842.675-.56 1.012-1.336 1.012-2.32 0-.986-.307-1.695-.92-2.237-.614-.54-1.503-.814-2.67-.814h-4.053v6.213h3.623zM59.58 9.961c.308.516 1.389 2.477 1.077 4.981a7.263 7.263 0 01-.18.936.325.325 0 01-.314.243H47.727c.215.815 1.137 3.492 4.599 3.492 1.665 0 2.937-.714 3.523-1.38a.382.382 0 01.286-.131h3.412c.244 0 .404.259.29.476-.745 1.425-2.12 2.842-4.058 3.712-1.05.471-2.2.71-3.419.71-1.587 0-3.063-.38-4.385-1.127-2.258-1.274-4.322-3.78-4.322-7.407.005-.694.103-2.914 1.652-5.014a8.98 8.98 0 012.703-2.376 8.582 8.582 0 014.318-1.143c3.378 0 5.94 1.825 7.253 4.027zm-2.794 3.093c-.133-.646-1.071-3.763-4.46-3.763-2.373 0-4.165 1.559-4.666 3.763h9.126zM96.991 6.246l-3.358-.003a.434.434 0 00-.04.003h-6.277V6.2c0-3.44 2.387-2.892 3.475-2.64a.325.325 0 00.397-.317V.588a.324.324 0 00-.254-.318C90.444.162 89.851 0 89.077 0c-1.652 0-5.928.85-5.928 5.9v.346h-2.266a.326.326 0 00-.326.326v2.58c0 .18.145.326.326.326h2.266v12.887c0 .181.146.327.327.327h3.514c.18 0 .326-.146.326-.327V9.478h5.99v12.887c0 .18.146.326.327.326h3.358c.18 0 .326-.146.326-.326V6.57a.326.326 0 00-.326-.326z"></path><path d="M95.329.03c-.448 0-.854.101-1.218.304-.363.203-.64.476-.833.817a2.246 2.246 0 00-.288 1.12c0 .641.224 1.18.673 1.618.448.438 1.003.657 1.666.657.428 0 .817-.095 1.17-.287.353-.192.63-.465.833-.817.203-.352.304-.742.304-1.17A2.16 2.16 0 0096.98.687c-.438-.437-.988-.656-1.65-.656V.03zM78.41 1.256h-3.282a.325.325 0 00-.327.327V7.9h-.16c-.212-.255-.531-.533-.958-.83-.426-.298-.974-.564-1.646-.799a6.7 6.7 0 00-2.22-.352A7.38 7.38 0 0065.9 7.022c-1.202.735-2.16 1.757-2.875 3.066-.714 1.31-1.07 2.763-1.07 4.36 0 1.597.356 3.05 1.07 4.36.714 1.308 1.673 2.33 2.875 3.066a7.378 7.378 0 003.915 1.102c.874 0 1.652-.123 2.333-.368.682-.245 1.257-.522 1.726-.83.469-.31.84-.623 1.119-.942h.157v1.529c0 .18.146.326.327.326h2.932a.326.326 0 00.327-.326V1.583a.326.326 0 00-.327-.327zm-4.2 15.715a4.4 4.4 0 01-1.614 1.74 4.278 4.278 0 01-2.268.623 4.19 4.19 0 01-2.19-.623 4.368 4.368 0 01-1.63-1.74c-.394-.747-.59-1.587-.59-2.523 0-.936.197-1.805.59-2.54a4.396 4.396 0 011.63-1.724 4.193 4.193 0 012.19-.623c.83 0 1.587.208 2.268.623.682.415 1.219.99 1.614 1.724.395.735.59 1.581.59 2.54 0 .958-.195 1.776-.59 2.523zM108.521 5.959c-2.462 0-4.176 1.42-4.792 2.208h-.118V6.573a.326.326 0 00-.326-.327h-2.925a.328.328 0 00-.327.327v15.791c0 .18.146.327.327.327h3.301a.334.334 0 00.326-.334v-8.855c0-2.368 1.534-4.02 3.792-4.02 2.259 0 3.73 1.652 3.73 4.02v8.862c0 .18.146.327.327.327h3.296a.327.327 0 00.326-.327v-9.122c0-4.357-2.788-7.283-6.937-7.283z"></path></g><defs><clipPath id="RedfinLogoNoTagline-a"><path fill="#fff" d="M0 0h115.46v23H0z"></path></clipPath></defs></svg>