<?xml version="1.0" encoding="UTF-8" standalone="no"?>
<!-- Created with Inkscape (http://www.inkscape.org/) -->
<svg
   xmlns:svg="http://www.w3.org/2000/svg"
   xmlns="http://www.w3.org/2000/svg"
   xmlns:xlink="http://www.w3.org/1999/xlink"
   version="1.0"
   width="956.69287"
   height="436.18109"
   id="svg2">
  <defs
     id="defs4">
    <radialGradient
       cx="0"
       cy="0"
       r="0.551"
       fx="0"
       fy="0"
       id="radialGradient2950"
       gradientUnits="userSpaceOnUse"
       gradientTransform="matrix(0,-26.785,-26.7863,0,297.0287,96.1676)">
      <stop
         id="stop2952"
         style="stop-color:#e4f4e6;stop-opacity:1"
         offset="0" />
      <stop
         id="stop3114"
         style="stop-color:#009e59;stop-opacity:1"
         offset="0.69615322" />
      <stop
         id="stop2954"
         style="stop-color:#006032;stop-opacity:1"
         offset="1" />
    </radialGradient>
    <radialGradient
       cx="0"
       cy="0"
       r="0.57300001"
       fx="0"
       fy="0"
       id="radialGradient2570"
       gradientUnits="userSpaceOnUse"
       gradientTransform="matrix(20.3678,-18.6376,-18.6385,-20.3668,299.3777,88.6947)">
      <stop
         id="stop2572"
         style="stop-color:#ffffff;stop-opacity:1"
         offset="0" />
      <stop
         id="stop3250"
         style="stop-color:#e9e8e8;stop-opacity:1"
         offset="0.82406461" />
      <stop
         id="stop3240"
         style="stop-color:#d3d2d2;stop-opacity:1"
         offset="0.8806181" />
      <stop
         id="stop2574"
         style="stop-color:#919191;stop-opacity:1"
         offset="1" />
    </radialGradient>
    <radialGradient
       cx="0"
       cy="0"
       r="0.76999998"
       fx="0"
       fy="0"
       id="radialGradient2502"
       gradientUnits="userSpaceOnUse"
       gradientTransform="matrix(0,-33.1419,-33.1435,0,298.9456,92.9223)">
      <stop
         id="stop2504"
         style="stop-color:#ffffff;stop-opacity:1"
         offset="0" />
      <stop
         id="stop2506"
         style="stop-color:#bdbcbc;stop-opacity:1"
         offset="1" />
    </radialGradient>
    <radialGradient
       cx="0"
       cy="0"
       r="1"
       fx="0"
       fy="0"
       id="radialGradient2490"
       gradientUnits="userSpaceOnUse"
       gradientTransform="matrix(0,-33.1419,-33.1435,0,298.9456,92.9223)">
      <stop
         id="stop2492"
         style="stop-color:#b2b2b2;stop-opacity:1"
         offset="0" />
      <stop
         id="stop2494"
         style="stop-color:#808080;stop-opacity:1"
         offset="1" />
    </radialGradient>
    <radialGradient
       cx="226.09258"
       cy="834.64801"
       r="90.802185"
       fx="226.09258"
       fy="834.64801"
       id="radialGradient3437"
       xlink:href="#radialGradient2950"
       gradientUnits="userSpaceOnUse"
       gradientTransform="matrix(1.4130752,0,0,1.3748016,-93.393234,-311.30547)" />
    <radialGradient
       cx="0"
       cy="0"
       r="1"
       fx="0"
       fy="0"
       id="radialGradient3439"
       xlink:href="#radialGradient2490"
       gradientUnits="userSpaceOnUse"
       gradientTransform="matrix(0,155.01158,-155.01906,0,235.17647,851.86149)" />
    <radialGradient
       cx="0"
       cy="0"
       r="0.76999998"
       fx="0"
       fy="0"
       id="radialGradient3441"
       xlink:href="#radialGradient2502"
       gradientUnits="userSpaceOnUse"
       gradientTransform="matrix(0,155.01158,-155.01906,0,235.17647,851.86149)" />
    <radialGradient
       cx="0"
       cy="0"
       r="0.57300001"
       fx="0"
       fy="0"
       id="radialGradient3443"
       xlink:href="#radialGradient2570"
       gradientUnits="userSpaceOnUse"
       gradientTransform="matrix(104.50007,39.832979,-39.83485,104.49492,252.78565,862.68598)" />
    <radialGradient
       cx="3.1277064e-15"
       cy="2.098148e-15"
       r="0.57300001"
       fx="3.1277064e-15"
       fy="2.098148e-15"
       id="radialGradient3445"
       xlink:href="#radialGradient2570"
       gradientUnits="userSpaceOnUse"
       gradientTransform="matrix(100.23356,92.141053,-87.394062,95.059895,237.19745,871.63489)" />
    <radialGradient
       cx="0"
       cy="0"
       r="0.75999999"
       fx="0"
       fy="0"
       id="radialGradient3447"
       xlink:href="#radialGradient2570"
       gradientUnits="userSpaceOnUse"
       gradientTransform="matrix(-67.548714,-21.359876,21.360812,-67.54544,200.24657,910.3154)" />
    <radialGradient
       cx="0"
       cy="0"
       r="0.59600002"
       fx="0"
       fy="0"
       id="radialGradient3449"
       xlink:href="#radialGradient2570"
       gradientUnits="userSpaceOnUse"
       gradientTransform="matrix(-99.882257,-63.504332,63.507606,-99.87758,219.29918,898.76878)" />
  </defs>
  <g
     transform="matrix(1.3363546,0,0,1.3363546,0.5696803,-907.77429)"
     id="g3252">
    <path
       d="M 101.48035,734.29186 C 86.326187,727.56134 77.275787,724.9655 68.318937,724.9655 C 58.894357,724.9655 52.870117,728.32842 52.870117,733.52946 C 52.870117,749.27763 106.22771,744.84364 106.22771,781.23699 C 106.22771,801.28818 89.389757,812.93912 66.003717,812.93912 C 47.669057,812.93912 38.637367,808.18706 28.230577,802.82232 L 28.230577,780.32027 C 43.230387,790.25932 52.411747,793.7766 63.992517,793.7766 C 74.034487,793.7766 79.441337,790.25932 79.441337,784.14154 C 79.441337,767.0136 26.088417,773.28574 26.088417,735.82129 C 26.088417,717.75792 41.696267,705.7983 66.003717,705.7983 C 77.738827,705.7983 88.318677,708.25383 101.48035,713.92728 L 101.48035,734.29186"
       id="path2394"
       style="fill:#4f4c4c;fill-opacity:1;fill-rule:nonzero;stroke:none" />
    <path
       d="M 176.17537,808.14498 C 167.28399,811.38161 159.7724,812.9204 152.2608,812.9204 C 127.4295,812.9204 111.34926,798.44912 111.34926,776.42414 C 111.34926,754.81544 128.04221,739.55372 151.33939,739.55372 C 158.54229,739.55372 167.74236,741.38717 175.10429,744.1327 L 175.10429,760.67598 C 169.27648,757.58434 162.53195,755.88653 157.01284,755.88653 C 143.67344,755.88653 135.08609,763.88923 135.08609,776.2698 C 135.08609,788.80939 143.5191,797.06466 156.24578,797.06466 C 161.61054,797.06466 166.36258,795.83924 176.17537,792.17231 L 176.17537,808.14498"
       id="path2396"
       style="fill:#4f4c4c;fill-opacity:1;fill-rule:nonzero;stroke:none" />
    <path
       d="M 233.92486,799.41731 L 233.92486,771.34002 C 233.92486,760.76953 229.32717,755.86314 222.43296,755.86314 C 217.22255,755.86314 212.78388,759.08105 207.57347,766.59266 L 207.57347,811.63418 L 185.3614,811.63418 L 185.3614,707.10792 L 207.57347,707.10792 L 207.57347,751.40575 L 207.87749,751.40575 C 214.31333,743.26274 221.51155,739.57241 230.2439,739.57241 C 243.11558,739.57241 256.13693,747.41143 256.13693,766.59266 L 256.13693,795.01138 C 248.66275,795.06282 239.40655,797.83641 233.92486,799.41731"
       id="path2398"
       style="fill:#4f4c4c;fill-opacity:1;fill-rule:nonzero;stroke:none" />
    <path
       d="M 266.63726,793.92159 C 266.63726,780.90958 266.63726,740.85865 266.63726,740.85865 L 288.84932,740.85865 L 288.84932,751.00351 C 295.91658,742.91195 302.82482,739.55372 311.88457,739.55372 C 322.92746,739.55372 337.63261,745.81182 337.63261,766.6441 L 337.63261,811.63418 L 315.42054,811.63418 L 315.42054,768.48693 C 315.42054,758.50576 310.65915,754.36176 304.36362,754.36176 C 298.83516,754.36176 294.68648,757.28034 288.84932,766.03139 C 288.84932,766.03139 288.84932,785.70372 288.84932,797.18628 C 281.32837,795.06282 273.70452,794.52026 266.63726,793.92159"
       id="path2400"
       style="fill:#4f4c4c;fill-opacity:1;fill-rule:nonzero;stroke:none" />
    <path
       d="M 383.74053,739.57241 C 361.94006,739.57241 346.42108,754.96511 346.42108,776.64397 C 346.42108,798.46784 362.55278,812.9204 387.42617,812.9204 C 392.94995,812.9204 406.29403,812.9204 419.00201,803.5239 L 419.00201,789.70741 C 408.59054,797.10676 401.70101,799.67456 392.80028,799.67456 C 378.82946,799.67456 370.23275,792.42488 369.46569,780.03495 L 420.22743,780.03495 C 421.30319,754.19805 404.30154,739.57241 383.74053,739.57241 z M 369.92873,768.31854 C 370.84547,758.4964 376.52827,752.81827 385.27466,752.81827 C 393.87136,752.81827 399.70852,758.65076 400.62993,768.31854 L 369.92873,768.31854"
       id="path2402"
       style="fill:#4f4c4c;fill-opacity:1;fill-rule:nonzero;stroke:none" />
    <path
       d="M 428.81947,740.85865 L 451.03153,740.85865 L 451.03153,811.6295 L 428.81947,811.6295 L 428.81947,740.85865 z"
       id="path2404"
       style="fill:#4f4c4c;fill-opacity:1;fill-rule:nonzero;stroke:none" />
    <path
       d="M 512.79407,707.10792 L 512.79407,743.98302 C 506.80257,741.07849 500.81106,739.55372 494.35651,739.55372 C 474.13226,739.55372 460.09596,754.51611 460.09596,776.17157 C 460.09596,797.36401 474.13226,812.93912 493.12641,812.93912 C 500.65671,812.93912 506.49387,810.95597 512.79407,805.91863 L 512.79407,811.6295 L 535.01081,811.6295 L 535.01081,707.10792 L 512.79407,707.10792 z M 512.79407,792.29391 C 508.18702,796.44259 504.34703,798.13108 499.58096,798.13108 C 489.13207,798.13108 482.52785,789.52968 482.52785,776.62995 C 482.52785,762.50009 489.13207,754.36176 500.34802,754.36176 C 504.34703,754.36176 509.57147,756.20457 512.79407,758.51044 L 512.79407,792.29391"
       id="path2406"
       style="fill:#4f4c4c;fill-opacity:1;fill-rule:nonzero;stroke:none" />
    <path
       d="M 581.66597,739.57241 C 559.86082,739.57241 544.34652,754.96511 544.34652,776.64397 C 544.34652,798.46784 560.47821,812.9204 585.35161,812.9204 C 590.87539,812.9204 604.21947,812.9204 616.92744,803.5239 L 616.92744,789.70741 C 606.51598,797.10676 599.62645,799.67456 590.72104,799.67456 C 576.7549,799.67456 568.15819,792.42488 567.39113,780.03495 L 618.15287,780.03495 C 619.22395,754.19805 602.22698,739.57241 581.66597,739.57241 z M 567.84949,768.31854 C 568.7709,758.4964 574.45371,752.81827 583.20009,752.81827 C 591.7968,752.81827 597.62928,758.65076 598.55069,768.31854 L 567.84949,768.31854"
       id="path2408"
       style="fill:#4f4c4c;fill-opacity:1;fill-rule:nonzero;stroke:none" />
    <path
       d="M 651.39847,761.13436 L 651.70249,761.13436 C 658.29735,746.41049 665.6546,739.50693 674.24196,739.50693 C 678.68531,739.50693 682.52062,741.19074 688.95646,745.94745 L 682.82463,765.58237 C 677.00151,761.90142 673.1662,760.36729 669.63958,760.36729 C 661.51527,760.36729 656.30486,768.03323 651.39847,781.01248 L 651.39847,811.56402 L 629.18173,811.56402 L 629.18173,740.79318 L 651.39847,740.79318 L 651.39847,761.13436"
       id="path2410"
       style="fill:#4f4c4c;fill-opacity:1;fill-rule:nonzero;stroke:none" />
    <path
       d="M 388.27275,845.42701 L 352.0197,845.42701 L 352.0197,871.16569 L 387.01925,871.16569 L 387.01925,882.22729 L 352.0197,882.22729 L 352.0197,908.83592 L 389.39995,908.83592 L 389.39995,919.9022 L 339.82622,919.9022 L 339.82622,834.36073 L 388.27275,834.36073 L 388.27275,845.42701"
       id="path2412"
       style="fill:#4f4c4c;fill-opacity:1;fill-rule:nonzero;stroke:none" />
    <path
       d="M 396.43915,834.34203 L 407.54752,834.34203 L 407.54752,919.92091 L 396.43915,919.92091 L 396.43915,834.34203 z"
       id="path2414"
       style="fill:#4f4c4c;fill-opacity:1;fill-rule:nonzero;stroke:none" />
    <path
       d="M 424.4416,893.35437 L 464.05288,893.35437 C 464.05288,872.51739 454.49734,862.43334 439.59108,862.43334 C 424.06742,862.43334 413.33323,873.89718 413.33323,890.96898 C 413.33323,906.56748 423.0665,921.00602 440.592,921.00602 C 450.11012,921.00602 456.25597,918.87321 463.04728,914.3597 L 463.04728,903.546 C 456.50854,907.82565 450.11012,910.34667 443.34688,910.34667 C 432.57994,910.34667 426.19088,904.55628 424.4416,893.35437 z M 439.83897,872.01225 C 447.72942,872.01225 452.61243,877.41444 452.9866,885.95034 L 424.68949,885.95034 C 426.19088,877.03558 431.32645,872.01225 439.83897,872.01225"
       id="path2416"
       style="fill:#4f4c4c;fill-opacity:1;fill-rule:nonzero;stroke:none" />
    <path
       d="M 514.97365,878.33117 C 508.57523,873.95331 504.30961,872.66706 499.41725,872.66706 C 489.25836,872.66706 482.23319,880.46398 482.23319,891.87168 C 482.23319,903.53665 489.75882,910.55714 501.30217,910.55714 C 506.06824,910.55714 510.58175,909.30364 516.22714,906.79665 L 516.22714,917.77407 C 512.46199,919.51867 505.31521,921.0107 499.41725,921.0107 C 482.61204,921.0107 470.90967,909.42993 470.90967,892.87729 C 470.90967,874.21055 481.61112,862.43334 498.66422,862.43334 C 505.18893,862.43334 509.58083,863.93005 514.97365,866.30138 L 514.97365,878.33117"
       id="path2418"
       style="fill:#4f4c4c;fill-opacity:1;fill-rule:nonzero;stroke:none" />
    <path
       d="M 539.02386,863.52313 L 556.83467,863.52313 L 556.83467,873.53702 L 539.02386,873.53702 L 539.02386,902.44686 C 539.02386,909.1072 543.78993,910.99212 547.04995,910.99212 C 551.06299,910.99212 555.20232,909.61234 559.7205,906.84343 L 559.7205,917.2549 C 555.82907,919.38302 549.8095,921.0107 546.17063,921.0107 C 534.0286,921.0107 527.91549,913.4991 527.91549,903.32618 L 527.91549,873.53702 L 518.13077,873.53702 L 518.13077,872.28822 L 539.02386,851.85816 L 539.02386,863.52313"
       id="path2420"
       style="fill:#4f4c4c;fill-opacity:1;fill-rule:nonzero;stroke:none" />
    <path
       d="M 577.19456,863.52313 L 577.19456,876.57722 L 577.44713,876.57722 C 583.09252,866.57735 588.48534,862.43802 593.75187,862.43802 C 598.27006,862.43802 602.53567,864.57082 607.17546,868.95804 L 601.28218,878.76615 C 597.8912,875.41727 593.50398,873.09738 590.86604,873.09738 C 583.2188,873.09738 577.19456,880.89427 577.19456,890.52466 L 577.19456,919.92091 L 566.09086,919.92091 L 566.09086,863.52313 L 577.19456,863.52313"
       id="path2422"
       style="fill:#4f4c4c;fill-opacity:1;fill-rule:nonzero;stroke:none" />
    <path
       d="M 612.82085,863.52313 L 623.92922,863.52313 L 623.92922,919.92558 L 612.82085,919.92558 L 612.82085,863.52313 z"
       id="path2424"
       style="fill:#4f4c4c;fill-opacity:1;fill-rule:nonzero;stroke:none" />
    <path
       d="M 676.2859,878.33117 C 669.88748,873.95331 665.62654,872.66706 660.73418,872.66706 C 650.5706,872.66706 643.55011,880.46398 643.55011,891.87168 C 643.55011,903.53665 651.07574,910.55714 662.61442,910.55714 C 667.38049,910.55714 671.89868,909.30364 677.53939,906.79665 L 677.53939,917.77407 C 673.77891,919.51867 666.62746,921.0107 660.73418,921.0107 C 643.92429,921.0107 632.22192,909.42993 632.22192,892.87729 C 632.22192,874.21055 642.92337,862.43334 659.98115,862.43334 C 666.50118,862.43334 670.89308,863.93005 676.2859,866.30138 L 676.2859,878.33117"
       id="path2426"
       style="fill:#4f4c4c;fill-opacity:1;fill-rule:nonzero;stroke:none" />
    <path
       d="M 452.05584,711.09758 C 454.13252,716.60265 450.39075,724.2686 443.70234,728.21615 C 437.00926,732.1684 429.8999,730.90556 427.82322,725.40048 C 425.74186,719.90008 429.48363,712.23414 436.17672,708.28189 C 442.8698,704.33433 449.97916,705.59717 452.05584,711.09758"
       id="path2428"
       style="fill:#4f4c4c;fill-opacity:1;fill-rule:nonzero;stroke:none" />
    <path
       d="M 624.33614,843.22871 C 625.37448,845.97892 623.5036,849.80954 620.15939,851.78333 C 616.81519,853.75711 613.26051,853.13036 612.22217,850.3755 C 611.18383,847.6253 613.05471,843.79466 616.39892,841.82088 C 619.74312,839.84709 623.2978,840.47852 624.33614,843.22871"
       id="path2430"
       style="fill:#4f4c4c;fill-opacity:1;fill-rule:nonzero;stroke:none" />
    <path
       d="M 307.63762,817.92977 C 334.71866,845.01081 322.43163,900.71169 280.22918,941.06664 C 238.02672,981.41692 181.54007,990.80408 154.80047,964.06448 C 128.06555,937.32956 139.48261,880.76339 181.68507,840.40844 C 223.8922,800.05348 280.55658,790.85341 307.63762,817.92977"
       id="path2448"
       style="fill:#006032;fill-opacity:1;fill-rule:nonzero;stroke:none" />
    <path
       d="M 307.63762,817.92977 C 334.71866,845.01081 322.43163,900.71169 280.22918,941.06664 C 238.02672,981.41692 181.54007,990.80408 154.80047,964.06448 C 128.06555,937.32956 139.48261,880.76339 181.68507,840.40844 C 223.8922,800.05348 280.55658,790.85341 307.63762,817.92977"
       id="path2438"
       style="fill:url(#radialGradient3437);fill-opacity:1" />
    <path
       d="M 269.16762,860.31461 C 266.7495,860.31461 265.70181,860.75427 264.72427,861.8534 C 264.33138,862.29306 264.163,862.73272 264.03672,863.61203 L 251.62341,910.60396 C 248.72354,927.09112 228.47123,943.54553 202.09177,943.54553 L 165.39439,943.54553 L 171.75072,919.38774 L 195.32385,919.38774 C 197.74196,919.38774 199.6222,918.50843 201.18439,916.75447 C 201.77372,916.095 202.53143,914.99585 202.62965,913.8967 L 212.40034,872.8355 C 215.30021,856.34366 232.72281,838.13995 259.10226,838.13995 L 296.67896,838.13995 L 291.86611,860.31461 L 269.16762,860.31461"
       id="path2484"
       style="fill:#808080;fill-opacity:1;fill-rule:nonzero;stroke:none" />
    <path
       d="M 269.16762,860.31461 C 266.7495,860.31461 265.70181,860.75427 264.72427,861.8534 C 264.33138,862.29306 264.163,862.73272 264.03672,863.61203 L 251.62341,910.60396 C 248.72354,927.09112 228.47123,943.54553 202.09177,943.54553 L 165.39439,943.54553 L 171.75072,919.38774 L 195.32385,919.38774 C 197.74196,919.38774 199.6222,918.50843 201.18439,916.75447 C 201.77372,916.095 202.53143,914.99585 202.62965,913.8967 L 212.40034,872.8355 C 215.30021,856.34366 232.72281,838.13995 259.10226,838.13995 L 296.67896,838.13995 L 291.86611,860.31461 L 269.16762,860.31461"
       id="path2496"
       style="fill:url(#radialGradient3439);stroke:none" />
    <path
       d="M 269.16762,860.31461 C 266.7495,860.31461 265.70181,860.75427 264.72427,861.8534 C 264.33138,862.29306 264.163,862.73272 264.03672,863.61203 L 251.62341,910.60396 C 248.72354,927.09112 228.47123,943.54553 202.09177,943.54553 L 165.39439,943.54553 L 171.75072,919.38774 L 195.32385,919.38774 C 197.74196,919.38774 199.6222,918.50843 201.18439,916.75447 C 201.77372,916.095 202.53143,914.99585 202.62965,913.8967 L 212.40034,872.8355 C 215.30021,856.34366 232.72281,838.13995 259.10226,838.13995 L 296.67896,838.13995 L 291.86611,860.31461 L 269.16762,860.31461"
       id="path2508"
       style="fill:url(#radialGradient3441);stroke:none" />
    <path
       d="M 277.64736,889.00931 L 315.5421,889.00931 C 317.47379,883.89245 318.9892,878.79897 320.06028,873.78968 L 281.83814,873.78968 L 277.64736,889.00931"
       id="path2542"
       style="fill:url(#radialGradient3443);fill-rule:evenodd;stroke:none" />
    <path
       d="M 269.68207,918.65814 L 299.59282,918.65814 C 303.13347,913.66288 306.27655,908.5694 308.99869,903.4385 L 274.16751,903.4385 L 269.68207,918.65814"
       id="path2576"
       style="fill:url(#radialGradient3445);fill-rule:evenodd;stroke:none" />
    <path
       d="M 180.21642,890.07104 L 147.64434,890.07104 C 145.63314,895.17855 144.05225,900.26735 142.87359,905.29068 L 175.02005,905.29068 L 180.21642,890.07104"
       id="path2610"
       style="fill:url(#radialGradient3447);fill-rule:evenodd;stroke:none" />
    <path
       d="M 187.43336,860.42221 L 164.12683,860.42221 C 160.48796,865.40344 157.27472,870.49692 154.45436,875.64185 L 182.09198,875.64185 L 187.43336,860.42221"
       id="path2644"
       style="fill:url(#radialGradient3449);fill-rule:evenodd;stroke:none" />
    <g
       id="g2958">
      <path
         d="M 216.47887,970.38331 C 194.19197,974.43377 179.07056,971.66954 169.40277,962.96525 C 183.57939,965.26644 194.46325,968.00261 215.68375,964.0644 C 236.90424,960.1262 253.9667,952.95136 258.45214,950.0281 C 253.04997,955.72027 240.31393,966.05222 216.47887,970.38331"
         id="path2646"
         style="fill:#006032;fill-opacity:1;fill-rule:nonzero;stroke:none" />
      <path
         d="M 216.4742,970.37396 C 194.24342,974.40571 179.10798,971.66486 169.4589,962.98865 C 183.57939,965.28048 194.46793,968.01665 215.68375,964.08311 C 236.88553,960.14958 253.93864,952.97006 258.41005,950.05616 C 253.01723,955.73897 240.24377,966.0569 216.4742,970.37396"
         id="path2648"
         style="fill:#006033;fill-opacity:1;fill-rule:nonzero;stroke:none" />
      <path
         d="M 216.46484,970.35992 C 194.29487,974.38233 179.15007,971.66018 169.51034,963.00735 C 183.58407,965.2945 194.47261,968.03067 215.67907,964.09714 C 236.86683,960.17296 253.91525,952.98878 258.37263,950.08423 C 252.97981,955.75768 240.16894,966.0569 216.46484,970.35992"
         id="path2650"
         style="fill:#016133;fill-opacity:1;fill-rule:nonzero;stroke:none" />
      <path
         d="M 216.46016,970.3459 C 194.34632,974.35425 179.19217,971.65552 169.56647,963.03074 C 183.58407,965.30386 194.47261,968.04003 215.67439,964.11586 C 236.84344,960.19168 253.89187,953.00747 258.33054,950.11229 C 252.94707,955.77639 240.0941,966.06156 216.46016,970.3459"
         id="path2652"
         style="fill:#016134;fill-opacity:1;fill-rule:nonzero;stroke:none" />
      <path
         d="M 216.45549,970.33186 C 194.39777,974.33087 179.23426,971.65084 169.6226,963.04944 C 183.58874,965.3179 194.47728,968.05406 215.67439,964.12989 C 236.82473,960.21506 253.8638,953.02619 258.28844,950.14503 C 252.91433,955.7951 240.02394,966.06156 216.45549,970.33186"
         id="path2654"
         style="fill:#026234;fill-opacity:1;fill-rule:nonzero;stroke:none" />
      <path
         d="M 216.45081,970.3225 C 194.44922,974.30282 179.27636,971.64616 169.67405,963.06816 C 183.58874,965.33192 194.48196,968.06341 215.66972,964.1486 C 236.80602,960.23844 253.84042,953.04022 258.24635,950.17309 C 252.88159,955.81381 239.94911,966.06156 216.45081,970.3225"
         id="path2656"
         style="fill:#026234;fill-opacity:1;fill-rule:nonzero;stroke:none" />
      <path
         d="M 216.44146,970.30848 C 194.50067,974.27943 179.31377,971.64148 169.73017,963.09154 C 183.59342,965.34127 194.48196,968.07745 215.66972,964.16263 C 236.78264,960.26184 253.81703,953.05893 258.20425,950.20115 C 252.84885,955.83252 239.87427,966.06624 216.44146,970.30848"
         id="path2658"
         style="fill:#036234;fill-opacity:1;fill-rule:nonzero;stroke:none" />
      <path
         d="M 216.43678,970.29444 C 194.55212,974.25136 179.35587,971.6368 169.7863,963.11026 C 183.59342,965.35532 194.48664,968.09148 215.66504,964.18133 C 236.76393,960.28521 253.78897,953.07763 258.16216,950.22921 C 252.81611,955.85122 239.80411,966.06624 216.43678,970.29444"
         id="path2660"
         style="fill:#046335;fill-opacity:1;fill-rule:nonzero;stroke:none" />
      <path
         d="M 216.4321,970.28042 C 194.60357,974.22798 179.39796,971.63212 169.84243,963.13364 C 183.5981,965.36467 194.49132,968.10083 215.66504,964.19537 C 236.74522,960.30393 253.76558,953.09635 258.12006,950.26196 C 252.77869,955.86994 239.72928,966.07092 216.4321,970.28042"
         id="path2662"
         style="fill:#046335;fill-opacity:1;fill-rule:nonzero;stroke:none" />
      <path
         d="M 216.42742,970.27106 C 194.65502,974.19992 179.44006,971.62744 169.89388,963.15234 C 183.60277,965.37869 194.49132,968.11487 215.66036,964.21407 C 236.72651,960.32731 253.74219,953.11505 258.08264,950.29003 C 252.74595,955.88864 239.65444,966.07092 216.42742,970.27106"
         id="path2664"
         style="fill:#056436;fill-opacity:1;fill-rule:nonzero;stroke:none" />
      <path
         d="M 216.41807,970.25702 C 194.70647,974.17652 179.47748,971.62278 169.95,963.17574 C 183.60277,965.39273 194.49599,968.1289 215.65568,964.22811 C 236.7078,960.35069 253.71413,953.13377 258.04055,950.31808 C 252.71321,955.90734 239.58428,966.07092 216.41807,970.25702"
         id="path2666"
         style="fill:#056436;fill-opacity:1;fill-rule:nonzero;stroke:none" />
      <path
         d="M 216.41339,970.243 C 194.75792,974.14846 179.51957,971.6181 170.00613,963.19444 C 183.60745,965.40209 194.50067,968.13824 215.65568,964.24681 C 236.68441,960.37409 253.69075,953.15247 257.99845,950.35082 C 252.68047,955.92606 239.50945,966.0756 216.41339,970.243"
         id="path2668"
         style="fill:#066537;fill-opacity:1;fill-rule:nonzero;stroke:none" />
      <path
         d="M 216.40872,970.22897 C 194.80937,974.12508 179.56167,971.61342 170.06226,963.21783 C 183.60745,965.41611 194.50067,968.15229 215.65101,964.26085 C 236.66571,960.39279 253.66736,953.17119 257.95636,950.37888 C 252.64773,955.94476 239.43929,966.0756 216.40872,970.22897"
         id="path2670"
         style="fill:#076537;fill-opacity:1;fill-rule:nonzero;stroke:none" />
      <path
         d="M 216.40404,970.21961 C 194.85614,974.09702 179.60376,971.60874 170.1137,963.23654 C 183.61213,965.42547 194.50535,968.16632 215.65101,964.27955 C 236.647,960.41617 253.6393,953.18989 257.91426,950.40696 C 252.61031,955.96348 239.36446,966.08028 216.40404,970.21961"
         id="path2672"
         style="fill:#076638;fill-opacity:1;fill-rule:nonzero;stroke:none" />
      <path
         d="M 216.39468,970.20557 C 194.90759,974.07362 179.64118,971.60406 170.16983,963.25525 C 183.61213,965.43951 194.51002,968.17566 215.64633,964.29359 C 236.62829,960.43957 253.61591,953.2086 257.87217,950.43502 C 252.57757,955.98218 239.28962,966.08028 216.39468,970.20557"
         id="path2674"
         style="fill:#086638;fill-opacity:1;fill-rule:nonzero;stroke:none" />
      <path
         d="M 216.39001,970.19155 C 194.95904,974.05025 179.68327,971.59938 170.22596,963.27864 C 183.61681,965.45353 194.51002,968.1897 215.64633,964.3123 C 236.6049,960.46295 253.59252,953.22731 257.83007,950.46776 C 252.54483,956.0009 239.21946,966.08496 216.39001,970.19155"
         id="path2676"
         style="fill:#096738;fill-opacity:1;fill-rule:nonzero;stroke:none" />
      <path
         d="M 216.38533,970.17751 C 195.01049,974.02218 179.72537,971.5947 170.28208,963.29733 C 183.61681,965.46289 194.5147,968.20374 215.64165,964.32632 C 236.58619,960.48166 253.56446,953.24602 257.78798,950.49581 C 252.51209,956.0196 239.14463,966.08496 216.38533,970.17751"
         id="path2678"
         style="fill:#096739;fill-opacity:1;fill-rule:nonzero;stroke:none" />
      <path
         d="M 216.37597,970.16815 C 195.06194,973.99879 179.76746,971.59002 170.33353,963.32073 C 183.62148,965.47691 194.51938,968.21308 215.64165,964.34504 C 236.56748,960.50504 253.54107,953.26472 257.75056,950.52389 C 252.47935,956.03832 239.06979,966.08496 216.37597,970.16815"
         id="path2680"
         style="fill:#0a6839;fill-opacity:1;fill-rule:nonzero;stroke:none" />
      <path
         d="M 216.3713,970.15413 C 195.11338,973.97073 179.80956,971.58536 170.38966,963.33943 C 183.62616,965.49095 194.51938,968.22712 215.63698,964.35906 C 236.54878,960.52844 253.51769,953.28344 257.70847,950.55663 C 252.44661,956.05701 238.99963,966.08964 216.3713,970.15413"
         id="path2682"
         style="fill:#0a6839;fill-opacity:1;fill-rule:nonzero;stroke:none" />
      <path
         d="M 216.36662,970.14009 C 195.16483,973.94735 179.84698,971.58068 170.44579,963.36281 C 183.62616,965.50031 194.52406,968.23648 215.6323,964.37778 C 236.52539,960.55182 253.48963,953.30214 257.66637,950.58469 C 252.40919,956.07573 238.9248,966.08964 216.36662,970.14009"
         id="path2684"
         style="fill:#0b693a;fill-opacity:1;fill-rule:nonzero;stroke:none" />
      <path
         d="M 216.36194,970.12607 C 195.21628,973.91927 179.88907,971.576 170.49724,963.38153 C 183.63084,965.51433 194.52873,968.2505 215.6323,964.3918 C 236.50668,960.57052 253.46624,953.32086 257.62428,950.61275 C 252.37645,956.09443 238.84996,966.0943 216.36194,970.12607"
         id="path2686"
         style="fill:#0c693a;fill-opacity:1;fill-rule:nonzero;stroke:none" />
      <path
         d="M 216.35259,970.11671 C 195.26773,973.89589 179.93117,971.57133 170.55336,963.40023 C 183.63084,965.52369 194.52873,968.26454 215.62762,964.41052 C 236.48797,960.59392 253.44285,953.33956 257.58218,950.64081 C 252.34371,956.11315 238.7798,966.0943 216.35259,970.11671"
         id="path2688"
         style="fill:#0c6a3b;fill-opacity:1;fill-rule:nonzero;stroke:none" />
      <path
         d="M 216.34791,970.10267 C 195.31918,973.86784 179.97326,971.56664 170.60949,963.42363 C 183.63551,965.53773 194.53341,968.27389 215.62762,964.42454 C 236.46926,960.6173 253.41479,953.35828 257.54009,950.67355 C 252.31097,956.13185 238.70497,966.0943 216.34791,970.10267"
         id="path2690"
         style="fill:#0d6a3b;fill-opacity:1;fill-rule:nonzero;stroke:none" />
      <path
         d="M 216.34323,970.08865 C 195.37063,973.84445 180.01068,971.56196 170.66562,963.44233 C 183.63551,965.55175 194.53809,968.28792 215.62294,964.44326 C 236.44588,960.64068 253.3914,953.37698 257.49799,950.70162 C 252.27823,956.15057 238.63013,966.09898 216.34323,970.08865"
         id="path2692"
         style="fill:#0e6b3c;fill-opacity:1;fill-rule:nonzero;stroke:none" />
      <path
         d="M 216.33856,970.07461 C 195.42208,973.81638 180.05277,971.55728 170.71706,963.46572 C 183.64019,965.5611 194.53809,968.30196 215.62294,964.45728 C 236.42717,960.6594 253.36802,953.39568 257.4559,950.72968 C 252.24549,956.16927 238.55998,966.09898 216.33856,970.07461"
         id="path2694"
         style="fill:#0e6b3c;fill-opacity:1;fill-rule:nonzero;stroke:none" />
      <path
         d="M 216.3292,970.06525 C 195.47353,973.793 180.09487,971.55262 170.77319,963.48442 C 183.64019,965.57514 194.54277,968.31131 215.61827,964.476 C 236.40846,960.68277 253.33995,953.4144 257.41848,950.76242 C 252.20807,956.18799 238.48514,966.10366 216.3292,970.06525"
         id="path2696"
         style="fill:#0f6c3d;fill-opacity:1;fill-rule:nonzero;stroke:none" />
      <path
         d="M 216.32453,970.05123 C 195.52498,973.76494 180.13696,971.54794 170.82932,963.50782 C 183.64487,965.58917 194.54744,968.32533 215.61359,964.49003 C 236.38975,960.70617 253.31657,953.4331 257.37639,950.79048 C 252.17533,956.20669 238.4103,966.10366 216.32453,970.05123"
         id="path2698"
         style="fill:#106c3d;fill-opacity:1;fill-rule:nonzero;stroke:none" />
      <path
         d="M 216.31985,970.03719 C 195.57643,973.74154 180.17906,971.54326 170.88544,963.52652 C 183.64955,965.59852 194.54744,968.33937 215.61359,964.50874 C 236.36636,960.72956 253.29318,953.45182 257.33429,950.81854 C 252.14259,956.2254 238.34015,966.10366 216.31985,970.03719"
         id="path2700"
         style="fill:#106d3e;fill-opacity:1;fill-rule:nonzero;stroke:none" />
      <path
         d="M 216.31517,970.02784 C 195.62788,973.71348 180.21648,971.53859 170.93689,963.54524 C 183.64955,965.61256 194.55212,968.34873 215.60891,964.52277 C 236.34766,960.74827 253.26512,953.47052 257.2922,950.8466 C 252.10985,956.2441 238.26531,966.10834 216.31517,970.02784"
         id="path2702"
         style="fill:#116d3e;fill-opacity:1;fill-rule:nonzero;stroke:none" />
      <path
         d="M 216.30582,970.01382 C 195.67933,973.6901 180.25857,971.53391 170.99302,963.56862 C 183.65422,965.62192 194.5568,968.36275 215.60891,964.54147 C 236.32895,960.77165 253.24173,953.48924 257.2501,950.87935 C 252.07711,956.26282 238.19515,966.10834 216.30582,970.01382"
         id="path2704"
         style="fill:#126e3e;fill-opacity:1;fill-rule:nonzero;stroke:none" />
      <path
         d="M 216.30114,969.99977 C 195.73078,973.66204 180.30066,971.52922 171.04915,963.58732 C 183.65422,965.63594 194.56147,968.37679 215.60424,964.55551 C 236.31024,960.79503 253.21835,953.50795 257.20801,950.90742 C 252.03969,956.28152 238.12032,966.11302 216.30114,969.99977"
         id="path2706"
         style="fill:#126e3f;fill-opacity:1;fill-rule:nonzero;stroke:none" />
      <path
         d="M 216.29646,969.98574 C 195.77755,973.63864 180.34276,971.52454 171.10527,963.61072 C 183.6589,965.64998 194.56147,968.38615 215.60424,964.57421 C 236.28685,960.81841 253.19496,953.52666 257.16591,950.93547 C 252.00695,956.30024 238.04548,966.11302 216.29646,969.98574"
         id="path2708"
         style="fill:#136e3f;fill-opacity:1;fill-rule:nonzero;stroke:none" />
      <path
         d="M 216.29179,969.9764 C 195.829,973.61059 180.38018,971.51987 171.15672,963.62942 C 183.6589,965.65932 194.56615,968.40017 215.59956,964.58825 C 236.26814,960.84181 253.1669,953.54535 257.12849,950.96821 C 251.97421,956.31894 237.97532,966.11302 216.29179,969.9764"
         id="path2710"
         style="fill:#146f40;fill-opacity:1;fill-rule:nonzero;stroke:none" />
      <path
         d="M 216.28243,969.96236 C 195.88045,973.58719 180.42227,971.5152 171.21285,963.65281 C 183.66358,965.67336 194.57083,968.41421 215.59488,964.60695 C 236.24943,960.86051 253.14351,953.56407 257.0864,950.99629 C 251.94147,956.33766 237.90049,966.1177 216.28243,969.96236"
         id="path2712"
         style="fill:#146f40;fill-opacity:1;fill-rule:nonzero;stroke:none" />
      <path
         d="M 216.27775,969.94832 C 195.9319,973.55913 180.46437,971.51052 171.26898,963.67151 C 183.66358,965.68272 194.57083,968.42355 215.59488,964.62099 C 236.23073,960.8839 253.12013,953.58277 257.0443,951.02435 C 251.90873,956.35636 237.82565,966.1177 216.27775,969.94832"
         id="path2714"
         style="fill:#157041;fill-opacity:1;fill-rule:nonzero;stroke:none" />
      <path
         d="M 216.27308,969.9343 C 195.98335,973.53575 180.50646,971.50584 171.32042,963.69023 C 183.66826,965.69674 194.57551,968.43759 215.5902,964.63969 C 236.20734,960.90729 253.09206,953.60149 257.00221,951.05241 C 251.87131,956.37508 237.7555,966.12238 216.27308,969.9343"
         id="path2716"
         style="fill:#167041;fill-opacity:1;fill-rule:nonzero;stroke:none" />
      <path
         d="M 216.26372,969.92494 C 196.03479,973.50769 180.54388,971.50117 171.37655,963.71362 C 183.67293,965.71078 194.58018,968.44695 215.5902,964.65373 C 236.18863,960.93067 253.06868,953.62019 256.96011,951.08515 C 251.83857,956.39378 237.68066,966.12238 216.26372,969.92494"
         id="path2718"
         style="fill:#167142;fill-opacity:1;fill-rule:nonzero;stroke:none" />
      <path
         d="M 216.25904,969.91092 C 196.08624,973.48429 180.58597,971.49649 171.43268,963.73231 C 183.67293,965.72014 194.58018,968.46097 215.58553,964.67244 C 236.16992,960.94939 253.04529,953.63891 256.91802,951.11321 C 251.80583,956.41249 237.60582,966.12238 216.25904,969.91092"
         id="path2720"
         style="fill:#177142;fill-opacity:1;fill-rule:nonzero;stroke:none" />
      <path
         d="M 216.25437,969.89688 C 196.13769,973.45623 180.62807,971.4918 171.4888,963.75571 C 183.67761,965.73416 194.58486,968.47501 215.58553,964.68646 C 236.15121,960.97276 253.01723,953.65761 256.87592,951.14128 C 251.77309,956.4312 237.53567,966.12706 216.25437,969.89688"
         id="path2722"
         style="fill:#187243;fill-opacity:1;fill-rule:nonzero;stroke:none" />
      <path
         d="M 216.24969,969.88284 C 196.18914,973.43285 180.67016,971.48713 171.54493,963.77441 C 183.67761,965.7482 194.58954,968.48437 215.58085,964.70518 C 236.12783,960.99616 252.99384,953.67633 256.83383,951.16934 C 251.74035,956.44991 237.46083,966.12706 216.24969,969.88284"
         id="path2724"
         style="fill:#197242;fill-opacity:1;fill-rule:nonzero;stroke:none" />
      <path
         d="M 216.24034,969.8735 C 196.24059,973.40479 180.70758,971.48245 171.59638,963.79781 C 183.68229,965.75756 194.58954,968.49839 215.58085,964.71921 C 236.10912,961.01954 252.97046,953.69502 256.79641,951.20208 C 251.70761,956.46861 237.386,966.13172 216.24034,969.8735"
         id="path2726"
         style="fill:#197343;fill-opacity:1;fill-rule:nonzero;stroke:none" />
      <path
         d="M 216.23566,969.85947 C 196.29204,973.3814 180.74968,971.47777 171.65251,963.81651 C 183.68229,965.77158 194.59421,968.51243 215.57617,964.73792 C 236.09041,961.03824 252.94239,953.71374 256.75432,951.23014 C 251.67019,956.48733 237.31584,966.13172 216.23566,969.85947"
         id="path2728"
         style="fill:#1a7344;fill-opacity:1;fill-rule:nonzero;stroke:none" />
      <path
         d="M 216.23098,969.84543 C 196.34349,973.35334 180.79177,971.4731 171.70863,963.83989 C 183.68696,965.78093 194.59889,968.52179 215.5715,964.75195 C 236.0717,961.06164 252.91901,953.73244 256.71222,951.2582 C 251.63745,956.50603 237.241,966.13172 216.23098,969.84543"
         id="path2730"
         style="fill:#1b7444;fill-opacity:1;fill-rule:nonzero;stroke:none" />
      <path
         d="M 216.22163,969.8314 C 196.39494,973.32996 180.83387,971.46843 171.76008,963.85861 C 183.68696,965.79497 194.59889,968.53581 215.5715,964.77066 C 236.05299,961.08501 252.89562,953.75116 256.67013,951.29094 C 251.60471,956.52475 237.16617,966.1364 216.22163,969.8314"
         id="path2732"
         style="fill:#1b7445;fill-opacity:1;fill-rule:nonzero;stroke:none" />
      <path
         d="M 216.21695,969.82205 C 196.44639,973.30188 180.87128,971.46375 171.81621,963.87731 C 183.69164,965.80899 194.60357,968.54985 215.56682,964.7847 C 236.02961,961.10841 252.86756,953.76986 256.62803,951.31901 C 251.57197,956.54345 237.09601,966.1364 216.21695,969.82205"
         id="path2734"
         style="fill:#1c7545;fill-opacity:1;fill-rule:nonzero;stroke:none" />
      <path
         d="M 216.21227,969.80801 C 196.49784,973.2785 180.91338,971.45907 171.87234,963.9007 C 183.69632,965.81835 194.60825,968.5592 215.56682,964.8034 C 236.0109,961.12712 252.84417,953.78858 256.58594,951.34708 C 251.53923,956.56215 237.02117,966.14108 216.21227,969.80801"
         id="path2736"
         style="fill:#1d7546;fill-opacity:1;fill-rule:nonzero;stroke:none" />
      <path
         d="M 216.2076,969.79399 C 196.54929,973.25044 180.95547,971.45439 171.92846,963.9194 C 183.69632,965.83239 194.60825,968.57323 215.56214,964.81744 C 235.99219,961.1505 252.82078,953.8026 256.54384,951.37514 C 251.50181,956.58087 236.94634,966.14108 216.2076,969.79399"
         id="path2738"
         style="fill:#1e7647;fill-opacity:1;fill-rule:nonzero;stroke:none" />
      <path
         d="M 216.19824,969.77994 C 196.60074,973.22706 180.99757,971.44971 171.97991,963.9428 C 183.701,965.84175 194.61292,968.58727 215.56214,964.83614 C 235.97348,961.17389 252.79272,953.82132 256.50642,951.40787 C 251.46907,956.59957 236.87618,966.14108 216.19824,969.77994"
         id="path2740"
         style="fill:#1e7647;fill-opacity:1;fill-rule:nonzero;stroke:none" />
      <path
         d="M 216.19356,969.77059 C 196.65219,973.19898 181.03966,971.44503 172.03604,963.9615 C 183.701,965.85577 194.6176,968.59662 215.55746,964.85018 C 235.95009,961.19727 252.76934,953.84002 256.46433,951.43593 C 251.43633,956.61829 236.80134,966.14576 216.19356,969.77059"
         id="path2742"
         style="fill:#1f7748;fill-opacity:1;fill-rule:nonzero;stroke:none" />
      <path
         d="M 216.18889,969.75657 C 196.69896,973.17561 181.07708,971.44035 172.09216,963.98488 C 183.70567,965.86981 194.6176,968.61064 215.55279,964.86888 C 235.93138,961.21599 252.74595,953.85874 256.42224,951.46401 C 251.40359,956.63699 236.73119,966.14576 216.18889,969.75657"
         id="path2744"
         style="fill:#207748;fill-opacity:1;fill-rule:nonzero;stroke:none" />
      <path
         d="M 216.18421,969.74253 C 196.75041,973.14755 181.11918,971.43569 172.14829,964.0036 C 183.70567,965.87915 194.62228,968.62 215.55279,964.88292 C 235.91268,961.23937 252.71789,953.87744 256.38014,951.49675 C 251.37085,956.65571 236.65635,966.15044 216.18421,969.74253"
         id="path2746"
         style="fill:#217848;fill-opacity:1;fill-rule:nonzero;stroke:none" />
      <path
         d="M 216.17486,969.72851 C 196.80186,973.12415 181.16127,971.43101 172.19974,964.0223 C 183.71035,965.89319 194.62695,968.63404 215.54811,964.90162 C 235.89397,961.26275 252.6945,953.89615 256.33805,951.52481 C 251.33811,956.67441 236.58152,966.15044 216.17486,969.72851"
         id="path2748"
         style="fill:#217949;fill-opacity:1;fill-rule:nonzero;stroke:none" />
      <path
         d="M 216.17018,969.71915 C 196.85331,973.09609 181.20337,971.42633 172.25587,964.0457 C 183.71503,965.90723 194.62695,968.64806 215.54811,964.91566 C 235.87058,961.28614 252.67111,953.91485 256.29595,951.55286 C 251.30069,956.69313 236.51136,966.15044 216.17018,969.71915"
         id="path2750"
         style="fill:#227949;fill-opacity:1;fill-rule:nonzero;stroke:none" />
      <path
         d="M 216.1655,969.70511 C 196.90476,973.07271 181.24078,971.42165 172.31199,964.0644 C 183.71503,965.91657 194.63163,968.65742 215.54343,964.93436 C 235.85187,961.30485 252.64305,953.93357 256.25386,951.58093 C 251.26795,956.71182 236.43652,966.15512 216.1655,969.70511"
         id="path2752"
         style="fill:#237a4a;fill-opacity:1;fill-rule:nonzero;stroke:none" />
      <path
         d="M 216.16082,969.69109 C 196.9562,973.04465 181.28288,971.41697 172.36812,964.08779 C 183.7197,965.93061 194.63631,968.67146 215.54343,964.9484 C 235.83316,961.32824 252.61966,953.95227 256.21644,951.61368 C 251.23521,956.73054 236.36169,966.15512 216.16082,969.69109"
         id="path2754"
         style="fill:#247b4a;fill-opacity:1;fill-rule:nonzero;stroke:none" />
      <path
         d="M 216.15147,969.68173 C 197.00765,973.02125 181.32497,971.41229 172.41957,964.10649 C 183.7197,965.93997 194.63631,968.68548 215.53875,964.96711 C 235.81445,961.35163 252.59628,953.97099 256.17434,951.64174 C 251.20247,956.74924 236.29153,966.1598 216.15147,969.68173"
         id="path2756"
         style="fill:#247b4b;fill-opacity:1;fill-rule:nonzero;stroke:none" />
      <path
         d="M 216.14679,969.66769 C 197.0591,972.9932 181.36707,971.40761 172.47569,964.12989 C 183.72438,965.95399 194.64099,968.69484 215.53875,964.98113 C 235.79107,961.375 252.56822,953.98969 256.13225,951.6698 C 251.16973,956.76796 236.21669,966.1598 216.14679,969.66769"
         id="path2758"
         style="fill:#257b4b;fill-opacity:1;fill-rule:nonzero;stroke:none" />
      <path
         d="M 216.14211,969.65367 C 197.11055,972.9698 181.40449,971.40295 172.53182,964.1486 C 183.72438,965.96803 194.64566,968.70887 215.53408,964.99985 C 235.77236,961.39372 252.54483,954.00841 256.09015,951.70254 C 251.13699,956.78666 236.14186,966.1598 216.14211,969.65367"
         id="path2760"
         style="fill:#267c4c;fill-opacity:1;fill-rule:nonzero;stroke:none" />
      <path
         d="M 216.13276,969.63963 C 197.162,972.94174 181.44658,971.39827 172.58327,964.16729 C 183.72906,965.97738 194.64566,968.7229 215.5294,965.01387 C 235.75365,961.4171 252.52144,954.02711 256.04806,951.7306 C 251.09957,956.80538 236.0717,966.16447 216.13276,969.63963"
         id="path2762"
         style="fill:#267c4c;fill-opacity:1;fill-rule:nonzero;stroke:none" />
      <path
         d="M 216.12808,969.63027 C 197.21345,972.91836 181.48868,971.39359 172.6394,964.19069 C 183.72906,965.99141 194.65034,968.73226 215.5294,965.03259 C 235.73494,961.44048 252.49338,954.04583 256.00596,951.75867 C 251.06683,956.82408 235.99687,966.16447 216.12808,969.63027"
         id="path2764"
         style="fill:#277d4d;fill-opacity:1;fill-rule:nonzero;stroke:none" />
      <path
         d="M 216.12341,969.61625 C 197.2649,972.8903 181.53077,971.38891 172.69552,964.20939 C 183.73374,966.00545 194.65502,968.74629 215.52472,965.04661 C 235.71156,961.46388 252.46999,954.06453 255.96387,951.78673 C 251.03409,956.8428 235.92203,966.16914 216.12341,969.61625"
         id="path2766"
         style="fill:#287d4d;fill-opacity:1;fill-rule:nonzero;stroke:none" />
      <path
         d="M 216.11873,969.60222 C 197.31635,972.8669 181.57287,971.38423 172.75165,964.23279 C 183.73841,966.0148 194.65502,968.76031 215.52472,965.06533 C 235.69285,961.48726 252.44661,954.08324 255.92645,951.81947 C 251.00135,956.86149 235.85187,966.16914 216.11873,969.60222"
         id="path2768"
         style="fill:#297e4e;fill-opacity:1;fill-rule:nonzero;stroke:none" />
      <path
         d="M 216.10937,969.58818 C 197.3678,972.83884 181.61028,971.37955 172.8031,964.25149 C 183.73841,966.02882 194.6597,968.76968 215.52005,965.07935 C 235.67414,961.50597 252.41854,954.10195 255.88436,951.84753 C 250.96861,956.88021 235.77704,966.16914 216.10937,969.58818"
         id="path2770"
         style="fill:#2a7e4e;fill-opacity:1;fill-rule:nonzero;stroke:none" />
      <path
         d="M 216.1047,969.57884 C 197.41925,972.81546 181.65238,971.37487 172.85923,964.27487 C 183.74309,966.03818 194.66437,968.78371 215.52005,965.09807 C 235.65543,961.52936 252.39516,954.12066 255.84226,951.87559 C 250.93119,956.89891 235.7022,966.17382 216.1047,969.57884"
         id="path2772"
         style="fill:#2b7f4f;fill-opacity:1;fill-rule:nonzero;stroke:none" />
      <path
         d="M 216.10002,969.5648 C 197.4707,972.79207 181.69447,971.37021 172.91535,964.29359 C 183.74309,966.05222 194.66437,968.79773 215.51537,965.11209 C 235.63204,961.55274 252.37177,954.13936 255.80017,951.90365 C 250.89845,956.91763 235.63204,966.17382 216.10002,969.5648"
         id="path2774"
         style="fill:#2b7f4f;fill-opacity:1;fill-rule:nonzero;stroke:none" />
      <path
         d="M 216.09534,969.55076 C 197.52215,972.764 181.73657,971.36553 172.97148,964.3123 C 183.74777,966.06624 194.66905,968.8071 215.51069,965.13081 C 235.61333,961.57613 252.34371,954.15808 255.75807,951.9364 C 250.86571,956.93633 235.55721,966.17849 216.09534,969.55076"
         id="path2776"
         style="fill:#2c8050;fill-opacity:1;fill-rule:nonzero;stroke:none" />
      <path
         d="M 216.08599,969.53674 C 197.5736,972.74063 181.77399,971.36085 173.02293,964.33568 C 183.74777,966.0756 194.67373,968.82113 215.51069,965.14484 C 235.59463,961.59483 252.32032,954.17678 255.71598,951.96447 C 250.83297,956.95505 235.48705,966.17849 216.08599,969.53674"
         id="path2778"
         style="fill:#2d8050;fill-opacity:1;fill-rule:nonzero;stroke:none" />
      <path
         d="M 216.08131,969.52738 C 197.62037,972.71255 181.81608,971.35617 173.07905,964.35438 C 183.75244,966.08964 194.67373,968.83047 215.50601,965.16354 C 235.57592,961.61823 252.29694,954.1955 255.67388,951.99253 C 250.80023,956.97375 235.41221,966.17849 216.08131,969.52738"
         id="path2780"
         style="fill:#2e8151;fill-opacity:1;fill-rule:nonzero;stroke:none" />
      <path
         d="M 216.07663,969.51334 C 197.67182,972.68917 181.85818,971.35149 173.13518,964.37778 C 183.75244,966.09898 194.6784,968.84451 215.50601,965.17758 C 235.55253,961.64161 252.26887,954.2142 255.63179,952.02526 C 250.76749,956.99247 235.33738,966.18318 216.07663,969.51334"
         id="path2782"
         style="fill:#2f8252;fill-opacity:1;fill-rule:nonzero;stroke:none" />
      <path
         d="M 216.07196,969.49932 C 197.72327,972.66111 181.90027,971.34681 173.19131,964.39648 C 183.75712,966.11302 194.68308,968.85853 215.50134,965.19628 C 235.53382,961.66499 252.24549,954.2329 255.59437,952.05332 C 250.73007,957.01117 235.26722,966.18318 216.07196,969.49932"
         id="path2784"
         style="fill:#308252;fill-opacity:1;fill-rule:nonzero;stroke:none" />
      <path
         d="M 216.0626,969.48528 C 197.77472,972.63773 181.94237,971.34213 173.24276,964.41986 C 183.7618,966.12706 194.68308,968.86789 215.50134,965.21032 C 235.51511,961.68371 252.2221,954.25162 255.55227,952.0814 C 250.69733,957.02988 235.19239,966.18786 216.0626,969.48528"
         id="path2786"
         style="fill:#308353;fill-opacity:1;fill-rule:nonzero;stroke:none" />
      <path
         d="M 216.05792,969.47594 C 197.82617,972.60967 181.97978,971.33746 173.29888,964.43858 C 183.7618,966.1364 194.68776,968.88193 215.49666,965.22902 C 235.4964,961.70709 252.19404,954.27032 255.51018,952.10946 C 250.66459,957.04859 235.11755,966.18786 216.05792,969.47594"
         id="path2788"
         style="fill:#318454;fill-opacity:1;fill-rule:nonzero;stroke:none" />
      <path
         d="M 216.05325,969.4619 C 197.87761,972.58628 182.02188,971.33279 173.35501,964.45728 C 183.76648,966.15044 194.69244,968.89595 215.49666,965.24306 C 235.47769,961.73047 252.17065,954.28904 255.46808,952.1422 C 250.63185,957.0673 235.04739,966.19254 216.05325,969.4619"
         id="path2790"
         style="fill:#328454;fill-opacity:1;fill-rule:nonzero;stroke:none" />
      <path
         d="M 216.04389,969.44786 C 197.92906,972.55822 182.06397,971.32811 173.41114,964.48068 C 183.76648,966.16447 194.69244,968.90531 215.49198,965.26176 C 235.45431,961.75387 252.14727,954.30774 255.42599,952.17025 C 250.59911,957.08601 234.97256,966.19254 216.04389,969.44786"
         id="path2792"
         style="fill:#338555;fill-opacity:1;fill-rule:nonzero;stroke:none" />
      <path
         d="M 216.03922,969.43384 C 197.98051,972.53482 182.10607,971.32343 173.46259,964.49938 C 183.77115,966.17382 194.69711,968.91935 215.48731,965.2758 C 235.4356,961.77256 252.1192,954.32646 255.38389,952.19832 C 250.56169,957.10472 234.89772,966.19254 216.03922,969.43384"
         id="path2794"
         style="fill:#338555;fill-opacity:1;fill-rule:nonzero;stroke:none" />
      <path
         d="M 216.03454,969.42449 C 198.03196,972.50676 182.14349,971.31876 173.51871,964.52277 C 183.77115,966.18786 194.70179,968.93337 215.48731,965.2945 C 235.41689,961.79596 252.09582,954.34516 255.3418,952.23107 C 250.52895,957.12342 234.82756,966.19721 216.03454,969.42449"
         id="path2796"
         style="fill:#348656;fill-opacity:1;fill-rule:nonzero;stroke:none" />
      <path
         d="M 216.02986,969.41045 C 198.08341,972.48338 182.18558,971.31408 173.57484,964.54147 C 183.77583,966.19721 194.70179,968.94272 215.48263,965.30854 C 235.39818,961.81934 252.07243,954.36388 255.29971,952.25913 C 250.49621,957.14214 234.75273,966.19721 216.02986,969.41045"
         id="path2798"
         style="fill:#358656;fill-opacity:1;fill-rule:nonzero;stroke:none" />
      <path
         d="M 216.02051,969.39642 C 198.13486,972.45532 182.22767,971.30939 173.62629,964.56487 C 183.77583,966.21123 194.70647,968.95677 215.48263,965.32725 C 235.3748,961.84272 252.04437,954.38257 255.26229,952.28719 C 250.46347,957.16084 234.67789,966.20189 216.02051,969.39642"
         id="path2800"
         style="fill:#368757;fill-opacity:1;fill-rule:nonzero;stroke:none" />
      <path
         d="M 216.01583,969.38707 C 198.18631,972.43192 182.26977,971.30471 173.68241,964.58357 C 183.78051,966.22528 194.71114,968.97079 215.47795,965.34127 C 235.35609,961.86144 252.02098,954.40129 255.22019,952.31525 C 250.43073,957.17954 234.60773,966.20189 216.01583,969.38707"
         id="path2802"
         style="fill:#378758;fill-opacity:1;fill-rule:nonzero;stroke:none" />
      <path
         d="M 216.01115,969.37303 C 198.23776,972.40386 182.30719,971.30004 173.73854,964.60695 C 183.78519,966.23463 194.71114,968.98014 215.47795,965.35999 C 235.33738,961.88482 251.9976,954.41999 255.1781,952.34799 C 250.39799,957.19826 234.5329,966.20189 216.01115,969.37303"
         id="path2804"
         style="fill:#388858;fill-opacity:1;fill-rule:nonzero;stroke:none" />
      <path
         d="M 216.00648,969.35901 C 198.28921,972.38048 182.34928,971.29537 173.79467,964.62567 C 183.78519,966.24865 194.71582,968.99418 215.47327,965.37401 C 235.31867,961.9082 251.96953,954.43871 255.136,952.37605 C 250.36057,957.21696 234.46274,966.20656 216.00648,969.35901"
         id="path2806"
         style="fill:#398959;fill-opacity:1;fill-rule:nonzero;stroke:none" />
      <path
         d="M 215.99712,969.34497 C 198.34066,972.35242 182.39138,971.29069 173.84612,964.64437 C 183.78986,966.26269 194.7205,969.00354 215.4686,965.39273 C 235.29528,961.9316 251.94615,954.45741 255.09391,952.40412 C 250.32783,957.23568 234.38791,966.20656 215.99712,969.34497"
         id="path2808"
         style="fill:#398959;fill-opacity:1;fill-rule:nonzero;stroke:none" />
      <path
         d="M 215.99244,969.33561 C 198.39211,972.32903 182.43347,971.28602 173.90224,964.66777 C 183.78986,966.27205 194.72518,969.01756 215.4686,965.40675 C 235.27657,961.9503 251.92276,954.47613 255.05181,952.43687 C 250.29509,957.25438 234.31307,966.21123 215.99244,969.33561"
         id="path2810"
         style="fill:#3a8a5a;fill-opacity:1;fill-rule:nonzero;stroke:none" />
      <path
         d="M 215.98777,969.32159 C 198.44356,972.30097 182.47089,971.27666 173.95837,964.68646 C 183.79454,966.28607 194.72518,969.0316 215.46392,965.42547 C 235.25787,961.97369 251.8947,954.49483 255.00972,952.46492 C 250.26235,957.2731 234.24291,966.21123 215.98777,969.32159"
         id="path2812"
         style="fill:#3b8a5a;fill-opacity:1;fill-rule:nonzero;stroke:none" />
      <path
         d="M 215.98309,969.30755 C 198.49501,972.27757 182.51298,971.27197 174.0145,964.70986 C 183.79454,966.29543 194.72985,969.04096 215.46392,965.43951 C 235.23916,961.99707 251.87131,954.51355 254.9723,952.49298 C 250.22961,957.2918 234.16808,966.21123 215.98309,969.30755"
         id="path2814"
         style="fill:#3c8b5b;fill-opacity:1;fill-rule:nonzero;stroke:none" />
      <path
         d="M 215.97374,969.29353 C 198.54178,972.24951 182.55508,971.2673 174.06595,964.72857 C 183.79922,966.30947 194.73453,969.05498 215.45924,965.45821 C 235.21577,962.02047 251.84793,954.53224 254.93021,952.52106 C 250.19219,957.31052 234.09324,966.21591 215.97374,969.29353"
         id="path2816"
         style="fill:#3d8b5b;fill-opacity:1;fill-rule:nonzero;stroke:none" />
      <path
         d="M 215.96906,969.28417 C 198.59323,972.22613 182.59717,971.26262 174.12207,964.75195 C 183.79922,966.32349 194.73453,969.06902 215.45924,965.47225 C 235.19706,962.03917 251.82454,954.54629 254.88811,952.5538 C 250.15945,957.32922 234.02308,966.21591 215.96906,969.28417"
         id="path2818"
         style="fill:#3e8c5c;fill-opacity:1;fill-rule:nonzero;stroke:none" />
      <path
         d="M 215.96438,969.27013 C 198.64468,972.19807 182.63927,971.25795 174.1782,964.77066 C 183.80389,966.33285 194.73921,969.07836 215.45456,965.49095 C 235.17835,962.06255 251.79648,954.56499 254.84602,952.58186 C 250.12671,957.34793 233.94825,966.2206 215.96438,969.27013"
         id="path2820"
         style="fill:#3e8c5d;fill-opacity:1;fill-rule:nonzero;stroke:none" />
      <path
         d="M 215.95503,969.25611 C 198.69613,972.17468 182.67669,971.25328 174.23433,964.78936 C 183.80857,966.34687 194.74389,969.0924 215.44989,965.50499 C 235.15964,962.08595 251.77309,954.5837 254.80392,952.60992 C 250.09397,957.36663 233.87341,966.2206 215.95503,969.25611"
         id="path2822"
         style="fill:#3f8d5d;fill-opacity:1;fill-rule:nonzero;stroke:none" />
      <path
         d="M 215.95035,969.24207 C 198.74758,972.14661 182.71878,971.2486 174.28577,964.81276 C 183.80857,966.35623 194.74389,969.10644 215.44989,965.52369 C 235.13626,962.10933 251.7497,954.6024 254.76183,952.63798 C 250.06123,957.38535 233.80325,966.2206 215.95035,969.24207"
         id="path2824"
         style="fill:#408d5e;fill-opacity:1;fill-rule:nonzero;stroke:none" />
      <path
         d="M 215.94567,969.23271 C 198.79903,972.12324 182.76088,971.24392 174.3419,964.83146 C 183.81325,966.37027 194.74856,969.11578 215.44521,965.53773 C 235.11755,962.13271 251.72164,954.62112 254.71973,952.67073 C 250.02849,957.40405 233.72842,966.22528 215.94567,969.23271"
         id="path2826"
         style="fill:#418e5f;fill-opacity:1;fill-rule:nonzero;stroke:none" />
      <path
         d="M 215.94099,969.21869 C 198.85047,972.09516 182.80297,971.23924 174.39803,964.85484 C 183.81325,966.38429 194.75324,969.12982 215.44521,965.55643 C 235.09884,962.15143 251.69825,954.63982 254.67764,952.69879 C 249.99107,957.42277 233.65358,966.22528 215.94099,969.21869"
         id="path2828"
         style="fill:#428f5f;fill-opacity:1;fill-rule:nonzero;stroke:none" />
      <path
         d="M 215.93164,969.20466 C 198.90192,972.07178 182.84039,971.23456 174.44948,964.87356 C 183.81793,966.39365 194.75324,969.14385 215.44053,965.57047 C 235.08013,962.1748 251.67487,954.65854 254.64022,952.72685 C 249.95833,957.44147 233.58343,966.22995 215.93164,969.20466"
         id="path2830"
         style="fill:#438f60;fill-opacity:1;fill-rule:nonzero;stroke:none" />
      <path
         d="M 215.92696,969.19062 C 198.95337,972.04372 182.88248,971.22988 174.5056,964.89694 C 183.81793,966.40769 194.75792,969.1532 215.44053,965.58917 C 235.05675,962.1982 251.64681,954.67724 254.59812,952.75959 C 249.92559,957.46019 233.50859,966.22995 215.92696,969.19062"
         id="path2832"
         style="fill:#449061;fill-opacity:1;fill-rule:nonzero;stroke:none" />
      <path
         d="M 215.92229,969.18127 C 199.00482,972.02034 182.92458,971.2252 174.56173,964.91566 C 183.8226,966.42172 194.76259,969.16724 215.43586,965.60321 C 235.03804,962.22159 251.62342,954.69596 254.55603,952.78765 C 249.89285,957.47889 233.43375,966.22995 215.92229,969.18127"
         id="path2834"
         style="fill:#459161;fill-opacity:1;fill-rule:nonzero;stroke:none" />
      <path
         d="M 215.91761,969.16724 C 199.05627,971.99226 182.96667,971.22054 174.61786,964.93436 C 183.8226,966.43106 194.76259,969.18127 215.43586,965.62192 C 235.01933,962.24028 251.60003,954.71466 254.51393,952.81571 C 249.86011,957.49761 233.3636,966.23463 215.91761,969.16724"
         id="path2836"
         style="fill:#469161;fill-opacity:1;fill-rule:nonzero;stroke:none" />
      <path
         d="M 215.90825,969.1532 C 199.10772,971.96889 183.00409,971.21586 174.66931,964.95775 C 183.82728,966.44511 194.76727,969.19062 215.43118,965.63594 C 235.00062,962.26368 251.57197,954.73337 254.47184,952.84378 C 249.82269,957.5163 233.28876,966.23463 215.90825,969.1532"
         id="path2838"
         style="fill:#479262;fill-opacity:1;fill-rule:nonzero;stroke:none" />
      <path
         d="M 215.90358,969.13918 C 199.15917,971.94083 183.04619,971.21118 174.72543,964.97645 C 183.83196,966.45446 194.77195,969.20466 215.4265,965.65466 C 234.97723,962.28706 251.54858,954.75207 254.42974,952.87652 C 249.78995,957.53502 233.2186,966.23931 215.90358,969.13918"
         id="path2840"
         style="fill:#479263;fill-opacity:1;fill-rule:nonzero;stroke:none" />
      <path
         d="M 215.8989,969.12982 C 199.21062,971.91743 183.08828,971.2065 174.78156,964.99985 C 183.83196,966.46848 194.77195,969.21401 215.4265,965.67336 C 234.95852,962.31044 251.5252,954.77079 254.38765,952.90458 C 249.75721,957.55372 233.14377,966.23931 215.8989,969.12982"
         id="path2842"
         style="fill:#489364;fill-opacity:1;fill-rule:nonzero;stroke:none" />
      <path
         d="M 215.88955,969.11578 C 199.26207,971.88937 183.13038,971.20182 174.83769,965.01855 C 183.83663,966.48252 194.77663,969.22803 215.42182,965.6874 C 234.93982,962.32916 251.49713,954.78949 254.35023,952.93264 C 249.72447,957.57244 233.06893,966.23931 215.88955,969.11578"
         id="path2844"
         style="fill:#499364;fill-opacity:1;fill-rule:nonzero;stroke:none" />
      <path
         d="M 215.88487,969.10176 C 199.31352,971.86599 183.17247,971.19714 174.88913,965.04193 C 183.83663,966.49188 194.7813,969.24207 215.42182,965.7061 C 234.92111,962.35254 251.47375,954.80821 254.30814,952.96538 C 249.69173,957.59114 232.99877,966.24398 215.88487,969.10176"
         id="path2846"
         style="fill:#4a9465;fill-opacity:1;fill-rule:nonzero;stroke:none" />
      <path
         d="M 215.88019,969.0924 C 199.36497,971.83793 183.20989,971.19246 174.94526,965.06065 C 183.84131,966.5059 194.7813,969.25143 215.41715,965.72014 C 234.89772,962.37593 251.45036,954.82691 254.26604,952.99344 C 249.65899,957.60986 232.92394,966.24398 215.88019,969.0924"
         id="path2848"
         style="fill:#4b9566;fill-opacity:1;fill-rule:nonzero;stroke:none" />
      <path
         d="M 215.87551,969.07836 C 199.41174,971.81453 183.25198,971.18778 175.00139,965.07935 C 183.84131,966.51994 194.78598,969.26545 215.41715,965.73884 C 234.87901,962.39932 251.4223,954.84563 254.22395,953.02152 C 249.62157,957.62856 232.8491,966.24865 215.87551,969.07836"
         id="path2850"
         style="fill:#4c9667;fill-opacity:1;fill-rule:nonzero;stroke:none" />
      <path
         d="M 215.87084,969.06434 C 199.46787,971.78647 183.29408,971.18312 175.05751,965.10275 C 183.84599,966.52928 194.79066,969.27949 215.41247,965.75288 C 234.8603,962.41803 251.39891,954.86433 254.18185,953.04958 C 249.58883,957.64728 232.77895,966.24865 215.87084,969.06434"
         id="path2852"
         style="fill:#4d9667;fill-opacity:1;fill-rule:nonzero;stroke:none" />
      <path
         d="M 215.86148,969.0503 C 199.51464,971.76309 183.33617,971.17844 175.10896,965.12145 C 183.85067,966.54332 194.79066,969.28885 215.40779,965.77158 C 234.84159,962.44141 251.37553,954.88305 254.13976,953.08231 C 249.55609,957.66598 232.70411,966.24865 215.86148,969.0503"
         id="path2854"
         style="fill:#4e9768;fill-opacity:1;fill-rule:nonzero;stroke:none" />
      <path
         d="M 215.8568,969.04096 C 199.56609,971.73503 183.37359,971.17376 175.16509,965.14484 C 183.85067,966.55268 194.79533,969.30287 215.40779,965.78562 C 234.82289,962.46479 251.34746,954.90175 254.09766,953.11037 C 249.52335,957.68469 232.62927,966.25333 215.8568,969.04096"
         id="path2856"
         style="fill:#4f9768;fill-opacity:1;fill-rule:nonzero;stroke:none" />
      <path
         d="M 215.85213,969.02692 C 199.61754,971.71164 183.41569,971.16908 175.22122,965.16354 C 183.85534,966.5667 194.80001,969.31691 215.40312,965.80433 C 234.7995,962.48819 251.32408,954.92046 254.05557,953.13845 C 249.49061,957.7034 232.55912,966.25333 215.85213,969.02692"
         id="path2858"
         style="fill:#509769;fill-opacity:1;fill-rule:nonzero;stroke:none" />
      <path
         d="M 215.84277,969.01288 C 199.66899,971.68358 183.45778,971.1644 175.27267,965.18694 C 183.85534,966.58074 194.80001,969.32627 215.40312,965.81835 C 234.78079,962.50689 251.30069,954.93917 254.01815,953.17119 C 249.45319,957.72211 232.48428,966.25802 215.84277,969.01288"
         id="path2860"
         style="fill:#51986a;fill-opacity:1;fill-rule:nonzero;stroke:none" />
      <path
         d="M 215.8381,968.99886 C 199.72044,971.66018 183.49988,971.15972 175.32879,965.20564 C 183.86002,966.5901 194.80469,969.34029 215.39844,965.83707 C 234.76208,962.53027 251.27263,954.95788 253.97605,953.19925 C 249.42045,957.74081 232.40945,966.25802 215.8381,968.99886"
         id="path2862"
         style="fill:#52996a;fill-opacity:1;fill-rule:nonzero;stroke:none" />
      <path
         d="M 215.83342,968.98951 C 199.77188,971.63212 183.53729,971.15504 175.38492,965.22902 C 183.86002,966.60412 194.80937,969.35433 215.39844,965.85109 C 234.74337,962.55367 251.24924,954.97659 253.93396,953.22731 C 249.38771,957.75953 232.33929,966.25802 215.83342,968.98951"
         id="path2864"
         style="fill:#52996b;fill-opacity:1;fill-rule:nonzero;stroke:none" />
      <path
         d="M 215.82874,968.97547 C 199.82333,971.60874 183.57939,971.15038 175.44105,965.24774 C 183.8647,966.61347 194.80937,969.36368 215.39376,965.86981 C 234.71999,962.57704 251.22586,954.9953 253.89187,953.25537 C 249.35497,957.77823 232.26445,966.26269 215.82874,968.97547"
         id="path2866"
         style="fill:#539a6b;fill-opacity:1;fill-rule:nonzero;stroke:none" />
      <path
         d="M 215.81939,968.96144 C 199.87478,971.58068 183.62148,971.1457 175.49249,965.26644 C 183.8647,966.62752 194.81404,969.37771 215.39376,965.88383 C 234.70128,962.59576 251.19779,955.014 253.84977,953.28812 C 249.32223,957.79695 232.18962,966.26269 215.81939,968.96144"
         id="path2868"
         style="fill:#549b6d;fill-opacity:1;fill-rule:nonzero;stroke:none" />
      <path
         d="M 215.81471,968.94741 C 199.92623,971.55728 183.66358,971.14102 175.54862,965.28983 C 183.86938,966.64155 194.81872,969.39175 215.38908,965.90255 C 234.68257,962.61915 251.17441,955.03272 253.80768,953.31618 C 249.28481,957.81565 232.11946,966.26737 215.81471,968.94741"
         id="path2870"
         style="fill:#559b6d;fill-opacity:1;fill-rule:nonzero;stroke:none" />
      <path
         d="M 215.81003,968.93805 C 199.97768,971.53391 183.70567,971.13635 175.60475,965.30854 C 183.87405,966.65089 194.81872,969.4011 215.38441,965.91657 C 234.66386,962.64252 251.15102,955.05142 253.76558,953.34424 C 249.25207,957.83435 232.04462,966.26737 215.81003,968.93805"
         id="path2872"
         style="fill:#569c6e;fill-opacity:1;fill-rule:nonzero;stroke:none" />
      <path
         d="M 215.80068,968.92403 C 200.02913,971.50584 183.74309,971.13166 175.66087,965.33192 C 183.87405,966.66493 194.8234,969.41512 215.38441,965.93529 C 234.64047,962.66592 251.12296,955.07012 253.72816,953.37698 C 249.21933,957.85307 231.97447,966.26737 215.80068,968.92403"
         id="path2874"
         style="fill:#579c6f;fill-opacity:1;fill-rule:nonzero;stroke:none" />
      <path
         d="M 215.796,968.90999 C 200.08058,971.48245 183.78519,971.12698 175.71232,965.35064 C 183.87873,966.67897 194.82807,969.42449 215.37973,965.94931 C 234.62177,962.6893 251.09957,955.08884 253.68607,953.40504 C 249.18659,957.87177 231.89963,966.27205 215.796,968.90999"
         id="path2876"
         style="fill:#589d70;fill-opacity:1;fill-rule:nonzero;stroke:none" />
      <path
         d="M 215.79132,968.89595 C 200.13203,971.45439 183.82728,971.1223 175.76845,965.37401 C 183.87873,966.68831 194.82807,969.43852 215.37973,965.96803 C 234.60306,962.70802 251.07619,955.10754 253.64397,953.4331 C 249.15385,957.89049 231.8248,966.27205 215.79132,968.89595"
         id="path2878"
         style="fill:#599d70;fill-opacity:1;fill-rule:nonzero;stroke:none" />
      <path
         d="M 215.78665,968.88661 C 200.18348,971.43101 183.86938,971.11764 175.82458,965.39273 C 183.88341,966.70235 194.83275,969.45254 215.37505,965.98206 C 234.58435,962.7314 251.04812,955.12626 253.60188,953.46117 C 249.12111,957.90919 231.75464,966.27673 215.78665,968.88661"
         id="path2880"
         style="fill:#5a9e71;fill-opacity:1;fill-rule:nonzero;stroke:none" />
      <path
         d="M 215.77729,968.87257 C 200.23493,971.40295 183.90679,971.11296 175.8807,965.41143 C 183.88341,966.71171 194.83743,969.4619 215.37505,966.00077 C 234.56096,962.75478 251.02474,955.14496 253.55978,953.49391 C 249.08369,957.92791 231.6798,966.27673 215.77729,968.87257"
         id="path2882"
         style="fill:#5b9f71;fill-opacity:1;fill-rule:nonzero;stroke:none" />
      <path
         d="M 215.77262,968.85853 C 200.28638,971.37955 183.94889,971.10828 175.93215,965.43483 C 183.88808,966.72573 194.83743,969.47594 215.37038,966.0148 C 234.54225,962.77817 251.00135,955.16368 253.51769,953.52197 C 249.05095,957.94661 231.60497,966.28139 215.77262,968.85853"
         id="path2884"
         style="fill:#5ca072;fill-opacity:1;fill-rule:nonzero;stroke:none" />
      <path
         d="M 215.76794,968.84451 C 200.33783,971.35149 183.99098,971.10361 175.98828,965.45353 C 183.88808,966.73977 194.84211,969.48996 215.3657,966.0335 C 234.52354,962.79688 250.97329,955.18238 253.47559,953.55003 C 249.01821,957.96533 231.53481,966.28139 215.76794,968.84451"
         id="path2886"
         style="fill:#5da073;fill-opacity:1;fill-rule:nonzero;stroke:none" />
      <path
         d="M 215.76326,968.83515 C 200.38928,971.32811 184.03308,971.09893 176.04441,965.47691 C 183.89276,966.74911 194.84678,969.49932 215.3657,966.04754 C 234.50484,962.82027 250.9499,955.2011 253.4335,953.57809 C 248.98547,957.98402 231.45997,966.28139 215.76326,968.83515"
         id="path2888"
         style="fill:#5ea174;fill-opacity:1;fill-rule:nonzero;stroke:none" />
      <path
         d="M 215.75391,968.82113 C 200.43605,971.30004 184.0705,971.09425 176.09585,965.49563 C 183.89744,966.76315 194.84678,969.51334 215.36102,966.06624 C 234.48145,962.84365 250.92651,955.21979 253.39608,953.61083 C 248.95273,958.00274 231.38514,966.28607 215.75391,968.82113"
         id="path2890"
         style="fill:#5fa174;fill-opacity:1;fill-rule:nonzero;stroke:none" />
      <path
         d="M 215.74923,968.8071 C 200.4875,971.27666 184.11259,971.08956 176.15198,965.51901 C 183.89744,966.77251 194.85146,969.52738 215.36102,966.08028 C 234.46274,962.86703 250.89845,955.23851 253.35399,953.63891 C 248.91532,958.02144 231.31498,966.28607 215.74923,968.8071"
         id="path2892"
         style="fill:#60a275;fill-opacity:1;fill-rule:nonzero;stroke:none" />
      <path
         d="M 215.74455,968.79305 C 200.53895,971.2486 184.15468,971.08489 176.20811,965.53773 C 183.90212,966.78653 194.85614,969.53674 215.35634,966.09898 C 234.44403,962.88575 250.87507,955.25721 253.31189,953.66697 C 248.88257,958.04016 231.24014,966.29075 215.74455,968.79305"
         id="path2894"
         style="fill:#61a376;fill-opacity:1;fill-rule:nonzero;stroke:none" />
      <path
         d="M 215.73987,968.78371 C 200.5904,971.2252 184.19678,971.08021 176.26423,965.55643 C 183.90212,966.80057 194.85614,969.55076 215.35634,966.11302 C 234.42532,962.90913 250.85168,955.27593 253.2698,953.6997 C 248.84983,958.05886 231.16531,966.29075 215.73987,968.78371"
         id="path2896"
         style="fill:#62a477;fill-opacity:1;fill-rule:nonzero;stroke:none" />
      <path
         d="M 215.73052,968.76968 C 200.64185,971.19714 184.23887,971.07554 176.31568,965.57982 C 183.90679,966.80993 194.86082,969.5648 215.35167,966.13172 C 234.40194,962.93251 250.82362,955.29463 253.2277,953.72777 C 248.81709,958.07758 231.09515,966.29075 215.73052,968.76968"
         id="path2898"
         style="fill:#63a478;fill-opacity:1;fill-rule:nonzero;stroke:none" />
      <path
         d="M 215.72584,968.75564 C 200.69329,971.17376 184.27629,971.07086 176.37181,965.59852 C 183.90679,966.82395 194.86549,969.57416 215.34699,966.14576 C 234.38323,962.95591 250.80023,955.30867 253.18561,953.75584 C 248.78435,958.09628 231.02032,966.29543 215.72584,968.75564"
         id="path2900"
         style="fill:#64a579;fill-opacity:1;fill-rule:nonzero;stroke:none" />
      <path
         d="M 215.72117,968.74629 C 200.74474,971.1457 184.31839,971.06619 176.42794,965.62192 C 183.91147,966.83799 194.86549,969.58818 215.34699,966.16447 C 234.36452,962.97461 250.77684,955.32737 253.14351,953.7839 C 248.75161,958.115 230.95016,966.29543 215.72117,968.74629"
         id="path2902"
         style="fill:#65a579;fill-opacity:1;fill-rule:nonzero;stroke:none" />
      <path
         d="M 215.71181,968.73226 C 200.79619,971.1223 184.36048,971.06151 176.48406,965.64062 C 183.91147,966.84735 194.87017,969.59753 215.34231,966.17849 C 234.34581,962.998 250.74878,955.34609 253.10609,953.81664 C 248.7142,958.1337 230.87532,966.30011 215.71181,968.73226"
         id="path2904"
         style="fill:#66a67a;fill-opacity:1;fill-rule:nonzero;stroke:none" />
      <path
         d="M 215.70713,968.71822 C 200.84764,971.09425 184.40258,971.05683 176.53551,965.664 C 183.91615,966.86137 194.87485,969.61158 215.34231,966.19721 C 234.32242,963.02139 250.72539,955.36479 253.064,953.8447 C 248.68145,958.15241 230.80049,966.30011 215.70713,968.71822"
         id="path2906"
         style="fill:#67a67a;fill-opacity:1;fill-rule:nonzero;stroke:none" />
      <path
         d="M 215.70246,968.7042 C 200.89909,971.07086 184.43999,971.05215 176.59164,965.68272 C 183.92082,966.87072 194.87952,969.62561 215.33763,966.21123 C 234.30372,963.04476 250.70201,955.38351 253.0219,953.87276 C 248.64871,958.17111 230.73033,966.30011 215.70246,968.7042"
         id="path2908"
         style="fill:#68a77b;fill-opacity:1;fill-rule:nonzero;stroke:none" />
      <path
         d="M 215.69778,968.69484 C 200.95054,971.04279 184.48209,971.04747 176.64777,965.70142 C 183.92082,966.88476 194.87952,969.63495 215.33763,966.22995 C 234.28501,963.06348 250.67395,955.40221 252.97981,953.90551 C 248.61597,958.18983 230.65549,966.30479 215.69778,968.69484"
         id="path2910"
         style="fill:#69a87c;fill-opacity:1;fill-rule:nonzero;stroke:none" />
      <path
         d="M 215.68843,968.6808 C 201.00199,971.01941 184.52418,971.04279 176.70389,965.72482 C 183.9255,966.89878 194.8842,969.64899 215.33296,966.24398 C 234.2663,963.08686 250.65056,955.42092 252.93771,953.93357 C 248.58323,958.20853 230.58066,966.30479 215.68843,968.6808"
         id="path2912"
         style="fill:#6aa87d;fill-opacity:1;fill-rule:nonzero;stroke:none" />
      <path
         d="M 215.68375,968.66678 C 201.05344,970.99135 184.56628,971.03812 176.75534,965.74352 C 183.9255,966.90814 194.88888,969.66301 215.33296,966.26269 C 234.24291,963.11026 250.62717,955.43962 252.89562,953.96164 C 248.55049,958.22725 230.5105,966.30947 215.68375,968.66678"
         id="path2914"
         style="fill:#6ba97e;fill-opacity:1;fill-rule:nonzero;stroke:none" />
      <path
         d="M 215.67907,968.65274 C 201.10489,970.96797 184.6037,971.03345 176.81147,965.7669 C 183.93018,966.92218 194.88888,969.67237 215.32828,966.27673 C 234.2242,963.13364 250.59911,955.45834 252.85352,953.98969 C 248.51308,958.24595 230.43566,966.30947 215.67907,968.65274"
         id="path2916"
         style="fill:#6ca97e;fill-opacity:1;fill-rule:nonzero;stroke:none" />
      <path
         d="M 215.67439,968.64338 C 201.15634,970.93989 184.64579,971.02877 176.86759,965.78562 C 183.93018,966.9362 194.89356,969.68641 215.3236,966.29543 C 234.20549,963.15234 250.57572,955.47704 252.81611,954.02243 C 248.48033,958.26467 230.36083,966.30947 215.67439,968.64338"
         id="path2918"
         style="fill:#6daa7f;fill-opacity:1;fill-rule:nonzero;stroke:none" />
      <path
         d="M 215.66504,968.62936 C 201.20779,970.91652 184.68789,971.02409 176.92372,965.80899 C 183.93486,966.94556 194.89823,969.70043 215.3236,966.30947 C 234.18679,963.17574 250.55234,955.49576 252.77401,954.05049 C 248.44759,958.28337 230.29067,966.31413 215.66504,968.62936"
         id="path2920"
         style="fill:#6eaa80;fill-opacity:1;fill-rule:nonzero;stroke:none" />
      <path
         d="M 215.66036,968.61532 C 201.25924,970.88845 184.72998,971.01941 176.97517,965.82771 C 183.93486,966.9596 194.89823,969.70979 215.31893,966.32817 C 234.16808,963.19912 250.52895,955.51446 252.73192,954.07857 C 248.41485,958.30209 230.21584,966.31413 215.66036,968.61532"
         id="path2922"
         style="fill:#6fac81;fill-opacity:1;fill-rule:nonzero;stroke:none" />
      <path
         d="M 215.65568,968.6013 C 201.30601,970.86506 184.7674,971.01473 177.0313,965.84641 C 183.93953,966.96894 194.90291,969.72383 215.31893,966.34221 C 234.14469,963.2225 250.50089,955.53318 252.68982,954.11131 C 248.38211,958.32079 230.141,966.31881 215.65568,968.6013"
         id="path2924"
         style="fill:#70ac81;fill-opacity:1;fill-rule:nonzero;stroke:none" />
      <path
         d="M 215.64633,968.59194 C 201.35746,970.837 184.80949,971.01005 177.08742,965.86981 C 183.94421,966.98298 194.90759,969.73785 215.31425,966.36091 C 234.12598,963.24122 250.4775,955.55188 252.64773,954.13936 C 248.3447,958.3395 230.07084,966.31881 215.64633,968.59194"
         id="path2926"
         style="fill:#72ad82;fill-opacity:1;fill-rule:nonzero;stroke:none" />
      <path
         d="M 215.64165,968.5779 C 201.40891,970.81362 184.85159,971.00537 177.14355,965.88851 C 183.94421,966.99702 194.90759,969.74721 215.31425,966.37495 C 234.10727,963.26459 250.44944,955.5706 252.60563,954.16742 C 248.31196,958.3582 229.99601,966.31881 215.64165,968.5779"
         id="path2928"
         style="fill:#72ad83;fill-opacity:1;fill-rule:nonzero;stroke:none" />
      <path
         d="M 215.63698,968.56388 C 201.46036,970.78554 184.89368,971.00071 177.195,965.91189 C 183.94889,967.00636 194.91226,969.76125 215.30957,966.39365 C 234.08856,963.28799 250.42605,955.58929 252.56354,954.1955 C 248.27921,958.37692 229.92117,966.32349 215.63698,968.56388"
         id="path2930"
         style="fill:#74ae84;fill-opacity:1;fill-rule:nonzero;stroke:none" />
      <path
         d="M 215.6323,968.54985 C 201.51181,970.76216 184.93578,970.99603 177.25112,965.93061 C 183.94889,967.0204 194.91694,969.77527 215.30489,966.40769 C 234.06518,963.31137 250.40267,955.60801 252.52144,954.22824 C 248.24647,958.39562 229.85101,966.32349 215.6323,968.54985"
         id="path2932"
         style="fill:#75ae85;fill-opacity:1;fill-rule:nonzero;stroke:none" />
      <path
         d="M 215.62762,968.54048 C 201.56326,970.7341 184.9732,970.99135 177.30725,965.95399 C 183.95356,967.02976 194.91694,969.78463 215.30489,966.42639 C 234.04647,963.33475 250.37928,955.62671 252.48403,954.2563 C 248.21373,958.41434 229.77618,966.32817 215.62762,968.54048"
         id="path2934"
         style="fill:#76b086;fill-opacity:1;fill-rule:nonzero;stroke:none" />
      <path
         d="M 215.61827,968.52646 C 201.6147,970.71072 185.01529,970.98667 177.3587,965.97271 C 183.95356,967.04378 194.92162,969.79866 215.30022,966.44043 C 234.02776,963.35347 250.35122,955.64543 252.44193,954.28436 C 248.17632,958.43304 229.70602,966.32817 215.61827,968.52646"
         id="path2936"
         style="fill:#77b086;fill-opacity:1;fill-rule:nonzero;stroke:none" />
      <path
         d="M 215.61359,968.51243 C 201.66615,970.68265 185.05739,970.98199 177.41483,965.99608 C 183.95824,967.05782 194.9263,969.80801 215.30022,966.45914 C 234.00905,963.37685 250.32783,955.66413 252.39984,954.31242 C 248.14358,958.45176 229.63118,966.32817 215.61359,968.51243"
         id="path2938"
         style="fill:#78b188;fill-opacity:1;fill-rule:nonzero;stroke:none" />
      <path
         d="M 215.60891,968.49839 C 201.7176,970.65927 185.09948,970.97731 177.47095,966.0148 C 183.95824,967.06717 194.9263,969.82205 215.29554,966.47316 C 233.98567,963.40023 250.30445,955.68285 252.35774,954.34516 C 248.11084,958.47046 229.55635,966.33285 215.60891,968.49839"
         id="path2940"
         style="fill:#79b188;fill-opacity:1;fill-rule:nonzero;stroke:none" />
      <path
         d="M 215.59956,968.48905 C 201.76905,970.63121 185.1369,970.97263 177.52708,966.0335 C 183.96292,967.0812 194.93097,969.83608 215.29554,966.49188 C 233.96696,963.42363 250.27638,955.70155 252.31565,954.37323 C 248.07809,958.48916 229.48619,966.33285 215.59956,968.48905"
         id="path2942"
         style="fill:#7ab28a;fill-opacity:1;fill-rule:nonzero;stroke:none" />
      <path
         d="M 215.59488,968.47501 C 201.8205,970.60781 185.17899,970.96797 177.57853,966.0569 C 183.9676,967.09524 194.93565,969.84543 215.29086,966.5059 C 233.94825,963.44233 250.253,955.72027 252.27355,954.40129 C 248.04535,958.50788 229.41136,966.33753 215.59488,968.47501"
         id="path2944"
         style="fill:#7bb38a;fill-opacity:1;fill-rule:nonzero;stroke:none" />
      <path
         d="M 215.5902,968.46097 C 201.87195,970.57975 185.22109,970.96329 177.63466,966.0756 C 183.9676,967.10459 194.93565,969.85947 215.29086,966.52462 C 233.92954,963.46572 250.22961,955.73897 252.23146,954.43403 C 248.01261,958.52658 229.33652,966.33753 215.5902,968.46097"
         id="path2946"
         style="fill:#7cb48b;fill-opacity:1;fill-rule:nonzero;stroke:none" />
      <path
         d="M 215.58553,968.44695 C 201.9234,970.55637 185.26318,970.95861 177.69078,966.09898 C 183.97227,967.11861 194.94033,969.8735 215.28619,966.53864 C 233.90615,963.4891 250.20155,955.75768 252.19404,954.46209 C 247.9752,958.5453 229.26636,966.33753 215.58553,968.44695"
         id="path2948"
         style="fill:#7db48b;fill-opacity:1;fill-rule:nonzero;stroke:none" />
      <path
         d="M 215.57617,968.43759 C 201.97485,970.52831 185.3006,970.95393 177.74691,966.1177 C 183.97227,967.12797 194.94501,969.88284 215.28151,966.55736 C 233.88744,963.5125 250.17816,955.77639 252.15194,954.49015 C 247.94246,958.564 229.19153,966.34221 215.57617,968.43759"
         id="path2950"
         style="fill:#7fb58c;fill-opacity:1;fill-rule:nonzero;stroke:none" />
      <path
         d="M 215.5715,968.42355 C 202.0263,970.50491 185.3427,970.94925 177.79836,966.14108 C 183.97695,967.14201 194.94501,969.89688 215.28151,966.57138 C 233.86874,963.5312 250.15478,955.7951 252.10985,954.51822 C 247.90972,958.58272 229.11669,966.34221 215.5715,968.42355"
         id="path2952"
         style="fill:#7fb58d;fill-opacity:1;fill-rule:nonzero;stroke:none" />
    </g>
  </g>
</svg>
