<svg xmlns="http://www.w3.org/2000/svg" width="152.419" height="36.762" viewBox="0 0 152.419 36.762">
  <g id="Group_362" data-name="Group 362" transform="translate(-44.962 -45.238)">
    <path id="Path_1" data-name="Path 1" d="M61.858,73.5a8.281,8.281,0,0,1-.666,3.328,8.551,8.551,0,0,1-4.506,4.506,8.4,8.4,0,0,1-6.553,0,8.555,8.555,0,0,1-4.506-4.506,8.274,8.274,0,0,1-.666-3.328V45.746a.508.508,0,0,1,.508-.508h4.207a.507.507,0,0,1,.508.508V72.989a3.91,3.91,0,0,0,.921,2.867,3.34,3.34,0,0,0,4.608,0,3.909,3.909,0,0,0,.922-2.867V45.746a.508.508,0,0,1,.508-.508h4.208a.507.507,0,0,1,.507.508Z" transform="translate(0)" fill="#161c28"/>
    <path id="Path_2" data-name="Path 2" d="M99.012,45.746a.507.507,0,0,1,.508-.508h7.889q9.216,0,9.216,10.7a13.522,13.522,0,0,1-1,5.453,7.568,7.568,0,0,1-3.149,3.455.507.507,0,0,0-.227.6l5.273,15.581a.507.507,0,0,1-.481.67H112.6a.508.508,0,0,1-.485-.356l-4.641-14.853a.509.509,0,0,0-.485-.356h-2.242a.508.508,0,0,0-.508.508v14.55a.508.508,0,0,1-.508.508H99.52a.507.507,0,0,1-.508-.508Zm5.223,15.52a.254.254,0,0,0,.254.254H107.2a5.263,5.263,0,0,0,2.2-.384,2.83,2.83,0,0,0,1.254-1.1,4.692,4.692,0,0,0,.589-1.766,19.335,19.335,0,0,0,0-4.864,4.4,4.4,0,0,0-.64-1.792,2.9,2.9,0,0,0-1.357-1.1,6.173,6.173,0,0,0-2.3-.358h-2.46a.254.254,0,0,0-.254.254Z" transform="translate(-31.974)" fill="#161c28"/>
    <path id="Path_3" data-name="Path 3" d="M153.14,45.746a.508.508,0,0,1,.508-.508h7.121a10.7,10.7,0,0,1,4.275.768,8.083,8.083,0,0,1,2.893,2.048A7.669,7.669,0,0,1,169.55,51a12.271,12.271,0,0,1,.486,3.456v1.331a11.625,11.625,0,0,1-.23,2.509,6.033,6.033,0,0,1-.691,1.792,5.756,5.756,0,0,1-1.126,1.357,9.831,9.831,0,0,1-1.536,1.1,5.641,5.641,0,0,1,2.714,2.586,10.2,10.2,0,0,1,.87,4.582V71.76q0,4.813-2.33,7.373t-7.45,2.56h-6.609a.508.508,0,0,1-.508-.508Zm5.223,14.189a.254.254,0,0,0,.254.254h2.1q2.611,0,3.507-1.305a6.743,6.743,0,0,0,.9-3.815,5.759,5.759,0,0,0-1-3.686q-1-1.229-3.61-1.229h-1.9a.254.254,0,0,0-.254.254Zm0,16.282a.254.254,0,0,0,.254.254h2a5.51,5.51,0,0,0,2.483-.46,3.183,3.183,0,0,0,1.357-1.28,4.817,4.817,0,0,0,.563-1.945q.1-1.125.1-2.458a16.5,16.5,0,0,0-.153-2.406,3.967,3.967,0,0,0-.64-1.715,3.021,3.021,0,0,0-1.357-1.05,6.165,6.165,0,0,0-2.3-.358h-2.05a.254.254,0,0,0-.254.254Z" transform="translate(-63.995)" fill="#161c28"/>
    <path id="Path_4" data-name="Path 4" d="M202.952,81.693h-4.17a.507.507,0,0,1-.5-.618l7.914-35.44a.508.508,0,0,1,.5-.4h3.539a.508.508,0,0,1,.5.4l7.914,35.44a.507.507,0,0,1-.5.618h-4.171a.508.508,0,0,1-.5-.41l-4.989-25.549h-.1l-4.938,25.547A.507.507,0,0,1,202.952,81.693Z" transform="translate(-90.695)" fill="#161c28"/>
    <path id="Path_5" data-name="Path 5" d="M255.508,45.238h4.153a.507.507,0,0,1,.478.336L267.9,67.2h.1V45.746a.507.507,0,0,1,.507-.508h4.208a.508.508,0,0,1,.508.508v35.44a.508.508,0,0,1-.508.508h-4.053a.507.507,0,0,1-.477-.334l-7.866-21.58h-.1V81.185a.507.507,0,0,1-.508.508h-4.207a.507.507,0,0,1-.508-.508V45.746A.507.507,0,0,1,255.508,45.238Z" transform="translate(-124.252)" fill="#161c28"/>
    <path id="Path_6" data-name="Path 6" d="M312.906,45.238h4.207a.508.508,0,0,1,.508.508v35.44a.508.508,0,0,1-.508.508h-4.207a.507.507,0,0,1-.507-.508V45.746A.507.507,0,0,1,312.906,45.238Z" transform="translate(-158.208)" fill="#161c28"/>
    <path id="Path_7" data-name="Path 7" d="M333.49,77l9.675-26.506a.254.254,0,0,0-.238-.341h-8.448a.508.508,0,0,1-.508-.508v-3.9a.508.508,0,0,1,.508-.508h13.987a.507.507,0,0,1,.507.508V49.3a.51.51,0,0,1-.031.175l-9.88,26.967a.254.254,0,0,0,.238.341h9.165a.508.508,0,0,1,.507.508v3.9a.507.507,0,0,1-.507.508h-14.5a.507.507,0,0,1-.507-.508v-4.01A.505.505,0,0,1,333.49,77Z" transform="translate(-170.666)" fill="#161c28"/>
    <path id="Path_8" data-name="Path 8" d="M380.543,45.238h14.55a.508.508,0,0,1,.508.508v3.9a.508.508,0,0,1-.508.508h-9.581a.254.254,0,0,0-.254.254V60.6a.254.254,0,0,0,.254.254h8.25a.508.508,0,0,1,.507.508v3.9a.507.507,0,0,1-.507.508h-8.25a.254.254,0,0,0-.254.254V76.217a.254.254,0,0,0,.254.254h9.581a.508.508,0,0,1,.508.508v4.207a.508.508,0,0,1-.508.508h-14.55a.507.507,0,0,1-.508-.508V45.746A.507.507,0,0,1,380.543,45.238Z" transform="translate(-198.219)" fill="#161c28"/>
  </g>
</svg>
