<?xml version="1.0" encoding="UTF-8"?>
<svg width="120px" height="130px" viewBox="0 0 120 130" version="1.1" xmlns="http://www.w3.org/2000/svg" xmlns:xlink="http://www.w3.org/1999/xlink">
    <title>Bank</title>
    <g id="Bank" stroke="none" stroke-width="1" fill="none" fill-rule="evenodd">
        <path d="M18.471327,106.292562 C18.471327,106.292562 20.0127496,104.652398 20.0861003,102.009657 L33.422526,102.009657 C33.422526,102.009657 33.5480686,104.234511 35.251709,106.292562 L18.471327,106.292562" id="Fill-1" fill="#583A2E"></path>
        <polygon id="Fill-2" fill="#583A2E" points="16.1805284 112.171902 37.5425076 112.171902 37.5425076 106.904405 16.1805284 106.904405"></polygon>
        <path d="M16.3727214,107.202745 L37.3506673,107.202745 C37.6782769,107.202745 37.9462891,106.934733 37.9462891,106.607123 L37.9462891,106.606771 C37.9462891,106.279161 37.6782769,106.010796 37.3506673,106.010796 L16.3727214,106.010796 C16.0447591,106.010796 15.776747,106.279161 15.776747,106.606771 L15.776747,106.607123 C15.776747,106.934733 16.0447591,107.202745 16.3727214,107.202745" id="Fill-3" fill="#2E2821"></path>
        <path d="M20.2842882,102.354899 L33.4387478,102.354899 C33.8460558,102.354899 34.1796604,102.021647 34.1796604,101.614339 L34.1796604,101.613987 C34.1796604,101.206679 33.8460558,100.873779 33.4387478,100.873779 L20.2842882,100.873779 C19.8769803,100.873779 19.5433757,101.206679 19.5433757,101.613987 L19.5433757,101.614339 C19.5433757,102.021647 19.8769803,102.354899 20.2842882,102.354899" id="Fill-4" fill="#2E2821"></path>
        <polygon id="Fill-5" fill="#B8B9B0" points="20.4842394 100.860731 33.2391493 100.860731 33.2391493 56.2363553 20.4842394 56.2363553"></polygon>
        <path d="M23.2937826,58.3116862 L23.2937826,58.3116862 C23.8615451,58.3116862 24.325982,58.776123 24.325982,59.3442383 L24.325982,93.8691406 C24.325982,94.4365506 23.8615451,94.9009874 23.2937826,94.9009874 C22.7256673,94.9009874 22.2612305,94.4365506 22.2612305,93.8691406 L22.2612305,59.3442383 C22.2612305,58.776123 22.7256673,58.3116862 23.2937826,58.3116862" id="Fill-6" fill="#969891"></path>
        <path d="M27.0099826,58.3116862 L27.0099826,58.3116862 C27.5777452,58.3116862 28.0421821,58.776123 28.0421821,59.3442383 L28.0421821,93.8691406 C28.0421821,94.4365506 27.5777452,94.9009874 27.0099826,94.9009874 C26.4422201,94.9009874 25.9777832,94.4365506 25.9777832,93.8691406 L25.9777832,59.3442383 C25.9777832,58.776123 26.4422201,58.3116862 27.0099826,58.3116862" id="Fill-7" fill="#969891"></path>
        <path d="M30.7261827,58.3116862 L30.7261827,58.3116862 C31.294298,58.3116862 31.7587348,58.776123 31.7587348,59.3442383 L31.7587348,93.8691406 C31.7587348,94.4365506 31.294298,94.9009874 30.7261827,94.9009874 C30.1587728,94.9009874 29.6939833,94.4365506 29.6939833,93.8691406 L29.6939833,59.3442383 C29.6939833,58.776123 30.1587728,58.3116862 30.7261827,58.3116862" id="Fill-8" fill="#969891"></path>
        <path d="M18.471327,51.0852322 C18.471327,51.0852322 20.0127496,52.7253961 20.0861003,55.3681369 L33.422526,55.3681369 C33.422526,55.3681369 33.5480686,53.1432834 35.251709,51.0852322 L18.471327,51.0852322" id="Fill-9" fill="#583A2E"></path>
        <polygon id="Fill-10" fill="#583A2E" points="16.1805284 50.473036 37.5425076 50.473036 37.5425076 45.2058919 16.1805284 45.2058919"></polygon>
        <path d="M16.3727214,50.1746962 L37.3506673,50.1746962 C37.6782769,50.1746962 37.9462891,50.443061 37.9462891,50.7706706 L37.9462891,50.7710232 C37.9462891,51.0986328 37.6782769,51.366645 37.3506673,51.366645 L16.3727214,51.366645 C16.0447591,51.366645 15.776747,51.0986328 15.776747,50.7710232 L15.776747,50.7706706 C15.776747,50.443061 16.0447591,50.1746962 16.3727214,50.1746962" id="Fill-11" fill="#2E2821"></path>
        <path d="M20.2842882,55.022895 L33.4387478,55.022895 C33.8460558,55.022895 34.1796604,55.3561469 34.1796604,55.7631022 L34.1796604,55.7634549 C34.1796604,56.1707628 33.8460558,56.5043674 33.4387478,56.5043674 L20.2842882,56.5043674 C19.8769803,56.5043674 19.5433757,56.1707628 19.5433757,55.7634549 L19.5433757,55.7631022 C19.5433757,55.3561469 19.8769803,55.022895 20.2842882,55.022895" id="Fill-12" fill="#2E2821"></path>
        <polyline id="Fill-13" fill="#B8B9B0" points="109.733697 45.2058919 10.4016927 45.2058919 60.0675184 6.50035265 109.733697 45.2058919"></polyline>
        <polyline id="Fill-14" fill="#203052" points="120.098714 48.9838053 60.0897352 0.0342068142 60.068929 1.42108547e-13 0.0183376736 48.9838053 8.65538194 48.9838053 60.0583496 7.05365668 111.46167 48.9838053 120.098714 48.9838053"></polyline>
        <path d="M18.471327,106.292562 C18.471327,106.292562 20.0127496,104.652398 20.0861003,102.009657 L33.422526,102.009657 C33.422526,102.009657 33.5480686,104.234511 35.251709,106.292562 L18.471327,106.292562" id="Fill-15" fill="#4C6883"></path>
        <polygon id="Fill-16" fill="#4C6883" points="16.1805284 112.171902 37.5425076 112.171902 37.5425076 106.904405 16.1805284 106.904405"></polygon>
        <path d="M16.3727214,107.202745 L37.3506673,107.202745 C37.6782769,107.202745 37.9462891,106.934733 37.9462891,106.607123 L37.9462891,106.606771 C37.9462891,106.279161 37.6782769,106.010796 37.3506673,106.010796 L16.3727214,106.010796 C16.0447591,106.010796 15.776747,106.279161 15.776747,106.606771 L15.776747,106.607123 C15.776747,106.934733 16.0447591,107.202745 16.3727214,107.202745" id="Fill-17" fill="#324350"></path>
        <path d="M20.2842882,102.354899 L33.4387478,102.354899 C33.8460558,102.354899 34.1796604,102.021647 34.1796604,101.614339 L34.1796604,101.613987 C34.1796604,101.206679 33.8460558,100.873779 33.4387478,100.873779 L20.2842882,100.873779 C19.8769803,100.873779 19.5433757,101.206679 19.5433757,101.613987 L19.5433757,101.614339 C19.5433757,102.021647 19.8769803,102.354899 20.2842882,102.354899" id="Fill-18" fill="#324350"></path>
        <polygon id="Fill-19" fill="#B8B9B0" points="20.4842394 100.860731 33.2391493 100.860731 33.2391493 56.2363553 20.4842394 56.2363553"></polygon>
        <path d="M23.2937826,58.3116862 L23.2937826,58.3116862 C23.8615451,58.3116862 24.325982,58.776123 24.325982,59.3442383 L24.325982,93.8691406 C24.325982,94.4365506 23.8615451,94.9009874 23.2937826,94.9009874 C22.7256673,94.9009874 22.2612305,94.4365506 22.2612305,93.8691406 L22.2612305,59.3442383 C22.2612305,58.776123 22.7256673,58.3116862 23.2937826,58.3116862" id="Fill-20" fill="#324350"></path>
        <path d="M27.0099826,58.3116862 L27.0099826,58.3116862 C27.5777452,58.3116862 28.0421821,58.776123 28.0421821,59.3442383 L28.0421821,93.8691406 C28.0421821,94.4365506 27.5777452,94.9009874 27.0099826,94.9009874 C26.4422201,94.9009874 25.9777832,94.4365506 25.9777832,93.8691406 L25.9777832,59.3442383 C25.9777832,58.776123 26.4422201,58.3116862 27.0099826,58.3116862" id="Fill-21" fill="#324350"></path>
        <path d="M30.7261827,58.3116862 L30.7261827,58.3116862 C31.294298,58.3116862 31.7587348,58.776123 31.7587348,59.3442383 L31.7587348,93.8691406 C31.7587348,94.4365506 31.294298,94.9009874 30.7261827,94.9009874 C30.1587728,94.9009874 29.6939833,94.4365506 29.6939833,93.8691406 L29.6939833,59.3442383 C29.6939833,58.776123 30.1587728,58.3116862 30.7261827,58.3116862" id="Fill-22" fill="#324350"></path>
        <path d="M18.471327,51.0852322 C18.471327,51.0852322 20.0127496,52.7253961 20.0861003,55.3681369 L33.422526,55.3681369 C33.422526,55.3681369 33.5480686,53.1432834 35.251709,51.0852322 L18.471327,51.0852322" id="Fill-23" fill="#4C6883"></path>
        <polygon id="Fill-24" fill="#4C6883" points="16.1805284 50.473036 37.5425076 50.473036 37.5425076 45.2058919 16.1805284 45.2058919"></polygon>
        <path d="M16.3727214,50.1746962 L37.3506673,50.1746962 C37.6782769,50.1746962 37.9462891,50.443061 37.9462891,50.7706706 L37.9462891,50.7710232 C37.9462891,51.0986328 37.6782769,51.366645 37.3506673,51.366645 L16.3727214,51.366645 C16.0447591,51.366645 15.776747,51.0986328 15.776747,50.7710232 L15.776747,50.7706706 C15.776747,50.443061 16.0447591,50.1746962 16.3727214,50.1746962" id="Fill-25" fill="#324350"></path>
        <path d="M20.2842882,55.022895 L33.4387478,55.022895 C33.8460558,55.022895 34.1796604,55.3561469 34.1796604,55.7631022 L34.1796604,55.7634549 C34.1796604,56.1707628 33.8460558,56.5043674 33.4387478,56.5043674 L20.2842882,56.5043674 C19.8769803,56.5043674 19.5433757,56.1707628 19.5433757,55.7634549 L19.5433757,55.7631022 C19.5433757,55.3561469 19.8769803,55.022895 20.2842882,55.022895" id="Fill-26" fill="#324350"></path>
        <path d="M84.1011556,106.292562 C84.1011556,106.292562 85.6429308,104.652398 85.7162815,102.009657 L99.0527072,102.009657 C99.0527072,102.009657 99.1778971,104.234511 100.88189,106.292562 L84.1011556,106.292562" id="Fill-27" fill="#4C6883"></path>
        <polygon id="Fill-28" fill="#4C6883" points="81.8107096 112.171902 103.172689 112.171902 103.172689 106.904405 81.8107096 106.904405"></polygon>
        <path d="M82.0029026,107.202745 L102.980496,107.202745 C103.308458,107.202745 103.57647,106.934733 103.57647,106.607123 L103.57647,106.606771 C103.57647,106.279161 103.308458,106.010796 102.980496,106.010796 L82.0029026,106.010796 C81.6749403,106.010796 81.4069282,106.279161 81.4069282,106.606771 L81.4069282,106.607123 C81.4069282,106.934733 81.6749403,107.202745 82.0029026,107.202745" id="Fill-29" fill="#324350"></path>
        <path d="M85.9144694,102.354899 L99.0692817,102.354899 C99.4765896,102.354899 99.8094889,102.021647 99.8094889,101.614339 L99.8094889,101.613987 C99.8094889,101.206679 99.4765896,100.873779 99.0692817,100.873779 L85.9144694,100.873779 C85.5071615,100.873779 85.1735569,101.206679 85.1735569,101.613987 L85.1735569,101.614339 C85.1735569,102.021647 85.5071615,102.354899 85.9144694,102.354899" id="Fill-30" fill="#324350"></path>
        <polygon id="Fill-31" fill="#B8B9B0" points="86.1140679 100.860731 98.8689779 100.860731 98.8689779 56.2363553 86.1140679 56.2363553"></polygon>
        <path d="M88.9236111,58.3116862 L88.9236111,58.3116862 C89.4917263,58.3116862 89.9561632,58.776123 89.9561632,59.3442383 L89.9561632,93.8691406 C89.9561632,94.4365506 89.4917263,94.9009874 88.9236111,94.9009874 C88.3562012,94.9009874 87.8914117,94.4365506 87.8914117,93.8691406 L87.8914117,59.3442383 C87.8914117,58.776123 88.3562012,58.3116862 88.9236111,58.3116862" id="Fill-32" fill="#324350"></path>
        <path d="M92.6401638,58.3116862 L92.6401638,58.3116862 C93.2079264,58.3116862 93.6723633,58.776123 93.6723633,59.3442383 L93.6723633,93.8691406 C93.6723633,94.4365506 93.2079264,94.9009874 92.6401638,94.9009874 C92.0724013,94.9009874 91.6076118,94.4365506 91.6076118,93.8691406 L91.6076118,59.3442383 C91.6076118,58.776123 92.0724013,58.3116862 92.6401638,58.3116862" id="Fill-33" fill="#324350"></path>
        <path d="M96.3563639,58.3116862 L96.3563639,58.3116862 C96.9244792,58.3116862 97.388916,58.776123 97.388916,59.3442383 L97.388916,93.8691406 C97.388916,94.4365506 96.9244792,94.9009874 96.3563639,94.9009874 C95.7886013,94.9009874 95.3241645,94.4365506 95.3241645,93.8691406 L95.3241645,59.3442383 C95.3241645,58.776123 95.7886013,58.3116862 96.3563639,58.3116862" id="Fill-34" fill="#324350"></path>
        <path d="M84.1011556,51.0852322 C84.1011556,51.0852322 85.6429308,52.7253961 85.7162815,55.3681369 L99.0527072,55.3681369 C99.0527072,55.3681369 99.1778971,53.1432834 100.88189,51.0852322 L84.1011556,51.0852322" id="Fill-35" fill="#4C6883"></path>
        <polygon id="Fill-36" fill="#4C6883" points="81.8107096 50.473036 103.172689 50.473036 103.172689 45.2058919 81.8107096 45.2058919"></polygon>
        <path d="M82.0029026,50.1746962 L102.980496,50.1746962 C103.308458,50.1746962 103.57647,50.443061 103.57647,50.7706706 L103.57647,50.7710232 C103.57647,51.0986328 103.308458,51.366645 102.980496,51.366645 L82.0029026,51.366645 C81.6749403,51.366645 81.4069282,51.0986328 81.4069282,50.7710232 L81.4069282,50.7706706 C81.4069282,50.443061 81.6749403,50.1746962 82.0029026,50.1746962" id="Fill-37" fill="#324350"></path>
        <path d="M85.9144694,55.022895 L99.0692817,55.022895 C99.4765896,55.022895 99.8094889,55.3561469 99.8094889,55.7631022 L99.8094889,55.7634549 C99.8094889,56.1707628 99.4765896,56.5043674 99.0692817,56.5043674 L85.9144694,56.5043674 C85.5071615,56.5043674 85.1735569,56.1707628 85.1735569,55.7634549 L85.1735569,55.7631022 C85.1735569,55.3561469 85.5071615,55.022895 85.9144694,55.022895" id="Fill-38" fill="#324350"></path>
        <path d="M51.2862413,106.292562 C51.2862413,106.292562 52.8280165,104.652398 52.9013672,102.009657 L66.237793,102.009657 C66.237793,102.009657 66.3633355,104.234511 68.0673286,106.292562 L51.2862413,106.292562" id="Fill-39" fill="#4C6883"></path>
        <polygon id="Fill-40" fill="#4C6883" points="48.9957954 112.171902 70.3577745 112.171902 70.3577745 106.904405 48.9957954 106.904405"></polygon>
        <path d="M49.1876356,107.202745 L70.1655816,107.202745 C70.4931912,107.202745 70.7612033,106.934733 70.7612033,106.607123 L70.7612033,106.606771 C70.7612033,106.279161 70.4931912,106.010796 70.1655816,106.010796 L49.1876356,106.010796 C48.860026,106.010796 48.5920139,106.279161 48.5920139,106.606771 L48.5920139,106.607123 C48.5920139,106.934733 48.860026,107.202745 49.1876356,107.202745" id="Fill-41" fill="#324350"></path>
        <path d="M53.0992025,102.354899 L66.2540148,102.354899 C66.6613227,102.354899 66.9949273,102.021647 66.9949273,101.614339 L66.9949273,101.613987 C66.9949273,101.206679 66.6613227,100.873779 66.2540148,100.873779 L53.0992025,100.873779 C52.6918945,100.873779 52.3586426,101.206679 52.3586426,101.613987 L52.3586426,101.614339 C52.3586426,102.021647 52.6918945,102.354899 53.0992025,102.354899" id="Fill-42" fill="#324350"></path>
        <polygon id="Fill-43" fill="#B8B9B0" points="53.2991536 100.860731 66.0540636 100.860731 66.0540636 56.2363553 53.2991536 56.2363553"></polygon>
        <path d="M56.1086968,58.3116862 L56.1086968,58.3116862 C56.6764594,58.3116862 57.1408963,58.776123 57.1408963,59.3442383 L57.1408963,93.8691406 C57.1408963,94.4365506 56.6764594,94.9009874 56.1086968,94.9009874 C55.5409342,94.9009874 55.0764974,94.4365506 55.0764974,93.8691406 L55.0764974,59.3442383 C55.0764974,58.776123 55.5409342,58.3116862 56.1086968,58.3116862" id="Fill-44" fill="#324350"></path>
        <path d="M59.8252496,58.3116862 L59.8252496,58.3116862 C60.3930122,58.3116862 60.857449,58.776123 60.857449,59.3442383 L60.857449,93.8691406 C60.857449,94.4365506 60.3930122,94.9009874 59.8252496,94.9009874 C59.2571343,94.9009874 58.7926975,94.4365506 58.7926975,93.8691406 L58.7926975,59.3442383 C58.7926975,58.776123 59.2571343,58.3116862 59.8252496,58.3116862" id="Fill-45" fill="#324350"></path>
        <path d="M63.5414497,58.3116862 L63.5414497,58.3116862 C64.1092122,58.3116862 64.5736491,58.776123 64.5736491,59.3442383 L64.5736491,93.8691406 C64.5736491,94.4365506 64.1092122,94.9009874 63.5414497,94.9009874 C62.9733344,94.9009874 62.5092502,94.4365506 62.5092502,93.8691406 L62.5092502,59.3442383 C62.5092502,58.776123 62.9733344,58.3116862 63.5414497,58.3116862" id="Fill-46" fill="#324350"></path>
        <path d="M51.2862413,51.0852322 C51.2862413,51.0852322 52.8280165,52.7253961 52.9013672,55.3681369 L66.237793,55.3681369 C66.237793,55.3681369 66.3633355,53.1432834 68.0673286,51.0852322 L51.2862413,51.0852322" id="Fill-47" fill="#4C6883"></path>
        <polygon id="Fill-48" fill="#4C6883" points="48.9957954 50.473036 70.3577745 50.473036 70.3577745 45.2058919 48.9957954 45.2058919"></polygon>
        <path d="M49.1876356,50.1746962 L70.1655816,50.1746962 C70.4931912,50.1746962 70.7612033,50.443061 70.7612033,50.7706706 L70.7612033,50.7710232 C70.7612033,51.0986328 70.4931912,51.366645 70.1655816,51.366645 L49.1876356,51.366645 C48.860026,51.366645 48.5920139,51.0986328 48.5920139,50.7710232 L48.5920139,50.7706706 C48.5920139,50.443061 48.860026,50.1746962 49.1876356,50.1746962" id="Fill-49" fill="#324350"></path>
        <path d="M53.0992025,55.022895 L66.2540148,55.022895 C66.6613227,55.022895 66.9949273,55.3561469 66.9949273,55.7631022 L66.9949273,55.7634549 C66.9949273,56.1707628 66.6613227,56.5043674 66.2540148,56.5043674 L53.0992025,56.5043674 C52.6918945,56.5043674 52.3586426,56.1707628 52.3586426,55.7634549 L52.3586426,55.7631022 C52.3586426,55.3561469 52.6918945,55.022895 53.0992025,55.022895" id="Fill-50" fill="#324350"></path>
        <path d="M46.7913954,37.9882541 L46.7913954,29.5617405 L43.7610948,29.5617405 C43.6821018,29.5617405 43.4003364,29.5843099 43.4003364,29.9108615 C43.4003364,30.0688477 43.5018989,30.1700575 43.6482476,30.2151964 C44.0425076,30.3389757 44.0312229,30.406684 44.0312229,30.8235135 L44.0312229,36.7268338 C44.0312229,37.1436632 44.0425076,37.2110189 43.6482476,37.3347982 C43.5018989,37.3799371 43.4003364,37.4814996 43.4003364,37.639133 C43.4003364,37.9656847 43.6821018,37.9882541 43.7610948,37.9882541 L46.7913954,37.9882541" id="Fill-51" fill="#203052"></path>
        <path d="M50.8355577,31.6233181 C50.8355577,30.8235135 50.430013,30.2377658 49.7317708,29.8882921 C49.0783149,29.5730252 48.3571506,29.5617405 47.6476237,29.5617405 L47.2985026,29.5617405 L47.2985026,30.2151964 C47.9741753,30.2829047 48.1430935,30.7332357 48.1430935,31.2064887 L48.1430935,32.3331977 C48.1430935,32.7500271 48.1208767,33.2342122 47.2985026,33.3019206 L47.2985026,33.9553765 C48.0193142,34.0118001 48.1430935,34.4959852 48.1430935,35.0143772 L48.1430935,36.4676378 C48.1430935,36.8731825 48.0531684,37.300944 47.2985026,37.3347982 L47.2985026,37.9882541 L47.6589084,37.9882541 C48.4587131,37.9882541 49.1685927,38.0221083 49.8894043,37.6165636 C50.5992839,37.2223036 50.9484049,36.5914171 50.9484049,35.7916124 C50.9484049,34.3834907 49.9571126,33.8312446 48.7066243,33.6284722 L48.7066243,33.6062554 C49.7991265,33.4369846 50.8355577,32.8625217 50.8355577,31.6233181" id="Fill-52" fill="#203052"></path>
        <path d="M53.212755,36.2645128 L54.271403,32.4121908 L53.9787055,31.1387804 L53.945204,31.1387804 L52.5931532,36.0846625 C52.3790961,36.8844672 52.0747613,37.1436632 51.8384874,37.2674425 C51.5905762,37.3912218 51.3987359,37.3799371 51.3987359,37.6504178 C51.3987359,37.9769694 51.8046332,37.9883045 52.029975,37.9883045 L53.3252496,37.9883045 C53.5505914,37.9883045 53.9109972,37.9995388 53.9109972,37.6842719 C53.9109972,37.4589301 53.7533637,37.3912218 53.5731608,37.3125814 C53.1901855,37.1436632 53.0325521,36.9518229 53.212755,36.2645128" id="Fill-53" fill="#203052"></path>
        <path d="M58.5525445,36.6816949 L56.8626573,29.5617405 L54.3733181,29.5617405 L54.2266168,30.1700575 L55.3646105,35.1494412 L53.9899902,35.1494412 L53.8323568,35.8028971 L55.477105,35.8028971 L55.7024468,36.6700575 C55.8036567,37.1094564 55.7588704,37.1884494 55.4658203,37.3577203 C55.3194716,37.4363607 55.2517632,37.4927843 55.2517632,37.6729872 C55.2517632,37.9656847 55.5786675,37.988308 55.8036567,37.988308 L58.6089681,37.988308 C58.8230252,37.988308 59.2285699,37.9995388 59.2285699,37.6955566 C59.2285699,37.4927843 59.1044379,37.4137912 58.9468045,37.3460829 C58.6315375,37.2110189 58.6202528,36.9969618 58.5525445,36.6816949" id="Fill-54" fill="#203052"></path>
        <path d="M66.4832357,35.2622884 L63.2050239,29.5617405 L60.31014,29.5617405 C60.0735135,29.5730252 59.7356771,29.5730252 59.7356771,29.9108615 C59.7356771,30.1587728 59.8820258,30.2039117 60.0735135,30.27162 C60.4448513,30.3953993 60.501275,30.5643175 60.6818305,30.8799371 L64.8049859,37.9882541 L66.4832357,37.9882541 L66.4832357,35.2622884" id="Fill-55" fill="#203052"></path>
        <path d="M61.2675781,36.2084418 L61.2675781,32.8060981 L60.6366916,31.6797418 L60.6141222,31.6797418 L60.6141222,36.2084418 C60.4339193,37.6165636 59.712755,37.1771647 59.712755,37.6617025 C59.712755,38.0111762 60.1747233,37.9882541 60.2985026,37.9882541 L61.5831977,37.9882541 C61.706977,37.9882541 62.1689453,38.0111762 62.1689453,37.6617025 C62.1689453,37.1771647 61.447781,37.6165636 61.2675781,36.2084418" id="Fill-56" fill="#203052"></path>
        <path d="M66.4832357,31.6007487 C66.4832357,29.9898546 67.4071723,30.4179688 67.4071723,29.8999295 C67.4071723,29.5843099 67.0354818,29.5617405 66.9226345,29.5617405 L65.3907335,29.5617405 C65.2778863,29.5617405 64.9065484,29.5843099 64.9065484,29.8999295 C64.9065484,30.4179688 65.8301324,29.9898546 65.8301324,31.6007487 L65.8301324,33.2003581 L66.4610189,34.3383518 L66.4832357,34.3383518 L66.4832357,31.6007487" id="Fill-57" fill="#203052"></path>
        <path d="M72.4542643,29.9108615 C72.4542643,29.5843099 72.0822211,29.5617405 72.0370822,29.5617405 L68.8491482,29.5617405 C68.8040093,29.5617405 68.4326714,29.5843099 68.4326714,29.9108615 C68.4326714,30.0688477 68.5338813,30.1700575 68.68023,30.2151964 C69.07449,30.3389757 69.0635579,30.406684 69.0635579,30.8235135 L69.0635579,36.7268338 C69.0635579,37.1436632 69.07449,37.2110189 68.68023,37.3347982 C68.5338813,37.3799371 68.4326714,37.4814996 68.4326714,37.639133 C68.4326714,37.9656847 68.8040093,37.9882541 68.8491482,37.9882541 L72.0370822,37.9882541 C72.0822211,37.9882541 72.4542643,37.9656847 72.4542643,37.639133 C72.4542643,37.4814996 72.3527018,37.3799371 72.2063531,37.3347982 C71.8120931,37.2110189 71.8233778,37.1436632 71.8233778,36.7268338 L71.8233778,30.8235135 C71.8233778,30.406684 71.8120931,30.3389757 72.2063531,30.2151964 C72.3527018,30.1700575 72.4542643,30.0688477 72.4542643,29.9108615" id="Fill-58" fill="#203052"></path>
        <path d="M75.9800347,30.3502604 C76.1828071,30.27162 76.3972168,30.192627 76.3972168,29.9337836 C76.3972168,29.5730252 76.0703125,29.5616989 75.7998318,29.5616989 L73.8733181,29.5616989 C73.6373969,29.5616989 73.3217773,29.5504557 73.3217773,29.8999295 C73.3217773,30.1249186 73.4903429,30.1700575 73.6708984,30.2490506 C73.9413791,30.3615451 74.0990126,30.5191786 74.0990126,30.8235135 C74.0990126,31.0939941 73.9635959,31.3189833 73.8059625,31.533393 L72.4990506,33.3918457 C72.3639865,33.583686 72.2402072,33.7300347 72.2402072,33.9666612 C72.2402072,34.2032878 72.3188477,34.4399143 72.3869086,34.6539714 L73.0851508,36.7490506 C73.119005,36.8280436 73.175076,36.9969618 73.175076,37.0872396 C73.175076,37.3347982 72.7131076,37.2674425 72.7131076,37.639133 C72.7131076,37.9882541 73.0512967,37.9882541 73.3104926,37.9882541 L76.1380208,37.9882541 C76.3633626,37.9882541 76.7350532,38.0111762 76.7350532,37.6842719 C76.7350532,37.4702148 76.6338433,37.4025065 76.4645725,37.3235135 C76.2057292,37.1997342 76.171875,37.0082465 76.0703125,36.7606879 L74.2566461,32.0066461 L74.4707031,31.7135959 C74.9439562,31.0714247 75.2027995,30.6433105 75.9800347,30.3502604" id="Fill-59" fill="#203052"></path>
        <path d="M14.0240885,111.761068 L106.238607,111.761068 C107.599826,111.761068 108.713487,112.96677 108.713487,114.440837 C108.713487,115.914198 107.599826,117.1199 106.238607,117.1199 L14.0240885,117.1199 C12.6628689,117.1199 11.5492079,115.914198 11.5492079,114.440837 C11.5492079,112.96677 12.6628689,111.761068 14.0240885,111.761068" id="Fill-60" fill="#203052"></path>
        <path d="M7.99839952,116.34866 L112.264296,116.34866 C113.625515,116.34866 114.739176,117.462321 114.739176,118.823541 C114.739176,120.185113 113.625515,121.298774 112.264296,121.298774 L7.99839952,121.298774 C6.6371799,121.298774 5.52351888,120.185113 5.52351888,118.823541 C5.52351888,117.462321 6.6371799,116.34866 7.99839952,116.34866" id="Fill-61" fill="#2E4E6F"></path>
        <path d="M2.47488064,120.526828 L117.787815,120.526828 C119.149034,120.526828 120.262695,121.640842 120.262695,123.002062 C120.262695,124.363281 119.149034,125.476942 117.787815,125.476942 L2.47488064,125.476942 C1.11366102,125.476942 0,124.363281 0,123.002062 C0,121.640842 1.11366102,120.526828 2.47488064,120.526828" id="Fill-62" fill="#3D5C7A"></path>
        <path d="M2.47488064,125.050239 L117.787815,125.050239 C119.149034,125.050239 120.262695,126.1639 120.262695,127.524767 L120.262695,127.525119 C120.262695,128.885986 119.149034,130 117.787815,130 L2.47488064,130 C1.11366102,130 0,128.885986 0,127.525119 L0,127.524767 C0,126.1639 1.11366102,125.050239 2.47488064,125.050239" id="Fill-63" fill="#4C6883"></path>
    </g>
</svg>