<?xml version="1.0" encoding="UTF-8"?>
<svg width="222px" height="202px" viewBox="0 0 222 202" version="1.1" xmlns="http://www.w3.org/2000/svg" xmlns:xlink="http://www.w3.org/1999/xlink">
    <title>vecteezy_hammer-vector-for-website-symbol-icon-presentation_12102383</title>
    <g id="vecteezy_hammer-vector-for-website-symbol-icon-presentation_12102383" stroke="none" stroke-width="1" fill="none" fill-rule="evenodd">
        <polyline id="Fill-3" fill="#5F84A7" points="96.2458205 11.2910867 191.255107 106.300199 221.940927 75.6138564 155.625798 9.29942298 107.974642 -0.437387122 96.2458205 11.2910867"></polyline>
        <path d="M4.18766273,198.357661 L4.18766273,198.357661 C9.62636989,203.797064 18.4440844,203.797064 23.8827916,198.357661 L153.598637,68.6432073 L133.902986,48.9479044 L4.18766273,178.66375 C-1.25104443,184.101413 -1.25104443,192.919998 4.18766273,198.357661" id="Fill-4" fill="#F6931D"></path>
        <polyline id="Fill-5" fill="#7F9DB9" points="160.062931 13.7360341 155.625798 9.29942298 107.974642 -0.437387122 96.2459945 11.2910867 100.682606 15.7276978 112.411601 3.99922398 160.062931 13.7360341"></polyline>
        <path d="M8.62409982,183.099143 L138.340119,53.3845155 L133.902986,48.9479044 L4.18748872,178.66375 C-1.25104443,184.101413 -1.25104443,192.919998 4.18748872,198.357661 C4.9532857,199.125024 5.79773303,199.753183 6.67854746,200.304779 C3.32181275,194.928018 3.95136364,187.772923 8.62409982,183.099143" id="Fill-6" fill="#A95E03"></path>
    </g>
</svg>