<svg width="380" height="639" viewBox="0 0 380 639" fill="none" xmlns="http://www.w3.org/2000/svg">
<path d="M210.398 72.0929L130.82 66.9014V85.5214L132.141 98.76L134.56 109.869L140.281 125.609L152.607 144.402L144.484 147.183L132.744 151.467L117.933 161.206L110.494 167.792L61.9825 153.035L56.0383 120.26L51.3489 115.399L41.962 113.575L35.6793 115.094L29.7598 118.874L25.8796 123.867L24.8311 129.017L25.8796 136.28L34.5565 166.777L43.1096 200.386L39.7659 202.82L33.9868 208.986L32.2366 216.373L33.9538 224.18L37.7846 227.267L35.4398 230.866L37.4461 239.161L39.6091 242.247L40.0219 252.028L43.3903 257.516L51.4893 262.32L60.3231 261.148L72.0547 301.211L105.631 314.424L102.09 330.667L288.829 330.948L287.748 315.043L315.355 309.051L306.712 265.407L335.029 258.119L357.568 252.201L362.942 248.421L370.546 241.752L376.358 232.046L378.876 220.978L378.282 209.596L373.559 199.667L367.582 192.561L331.372 171.16L308.602 157.665L294.451 147.712L271.31 141.241L248.879 137.461H230.823L217.754 101.847L210.398 72.0929Z" fill="#E9E1CE"/>
<path d="M290.142 581.83L279.202 330.156H248.953H141.437H111.187L48.3682 556.632L135.327 571.39L191.616 402.886L198.435 581.971L290.142 581.83Z" fill="#01654D" stroke="#101727" stroke-width="2" stroke-miterlimit="10"/>
<path d="M205.478 588.202L208.029 637.608H317.683C317.683 637.608 333.245 604.362 279.392 604.362C275.859 594.293 275.553 587.583 275.553 587.583L205.478 588.202Z" fill="#E9E1CE" stroke="#101727" stroke-width="2" stroke-miterlimit="10"/>
<path d="M123.324 590.315L108.43 637.608L1.42555 613.673C1.42555 613.673 -6.50014 577.836 46.0568 589.589C49.9453 581.22 53.4706 574.056 53.4706 574.056L123.332 590.315H123.324Z" fill="#E9E1CE" stroke="#101727" stroke-width="2" stroke-miterlimit="10"/>
<path d="M130.82 66.9014C127.228 119.798 151.129 144.369 160.128 153.621L160.59 154.092C164.281 157.888 169.49 159.374 174.369 158.425C176.648 157.979 178.852 157.005 180.801 155.478L181.222 155.148C191.385 147.233 218.34 126.236 222.064 73.2319L130.811 66.9014H130.82Z" stroke="#101727" stroke-width="2" stroke-miterlimit="10"/>
<path d="M222.019 73.3003L130.76 67.0167L132.828 36.9955C134.235 16.5751 151.957 1.14163 172.383 2.54808L189.63 3.73562C210.056 5.14206 225.494 22.8588 224.087 43.2791L222.019 73.3003Z" fill="#E8BD51"/>
<path d="M222.08 73.1822L106.778 65.2341C104.591 65.0856 102.948 63.1872 103.096 61.0082C103.245 58.8211 105.144 57.1786 107.323 57.3272L157.337 60.7772" fill="#E8BD51"/>
<path d="M222.08 73.1822L106.778 65.2341C104.591 65.0856 102.948 63.1872 103.096 61.0082C103.245 58.8211 105.144 57.1786 107.323 57.3272L157.337 60.7772" stroke="#101727" stroke-width="2" stroke-miterlimit="10"/>
<path d="M222.081 73.1823C231.806 67.0417 243.496 77.1524 239.525 88.0222C235.794 98.2401 224.929 99.5111 217.763 99.9238" fill="#E9E1CE"/>
<path d="M222.081 73.1823C231.806 67.0417 243.496 77.1524 239.525 88.0222C235.794 98.2401 224.929 99.5111 217.763 99.9238" stroke="#101727" stroke-width="2" stroke-miterlimit="10"/>
<path d="M165.371 78.6626C164.685 89.4417 159.534 100.303 150.527 107.665C145.028 112.155 155.232 115.837 163.546 106.287" stroke="#101727" stroke-width="2" stroke-miterlimit="10"/>
<path d="M182.51 113.459C200.591 104.339 203.224 89.6067 205.61 72.0845L222.072 73.2235C218.349 126.219 191.385 147.225 181.231 155.14L180.81 155.47C178.861 156.997 176.657 157.971 174.378 158.416C169.499 159.365 164.29 157.888 160.599 154.083L160.137 153.613C154.052 147.357 141.173 134.11 134.568 109.861C148.884 118.494 166.956 121.308 182.527 113.451L182.51 113.459Z" fill="#101727" stroke="#101727" stroke-width="2" stroke-miterlimit="10"/>
<path d="M178.159 92.0003C180.403 92.0003 182.221 90.1823 182.221 87.9396C182.221 85.6969 180.403 83.8789 178.159 83.8789C175.916 83.8789 174.098 85.6969 174.098 87.9396C174.098 90.1823 175.916 92.0003 178.159 92.0003Z" stroke="#101727" stroke-width="2" stroke-miterlimit="10"/>
<path d="M148.545 93.6429C150.789 93.6429 152.607 91.8249 152.607 89.5823C152.607 87.3396 150.789 85.5215 148.545 85.5215C146.302 85.5215 144.483 87.3396 144.483 89.5823C144.483 91.8249 146.302 93.6429 148.545 93.6429Z" stroke="#101727" stroke-width="2" stroke-miterlimit="10"/>
<path d="M176.847 76.0298C181.247 75.8729 184.954 77.5319 187.274 80.173" stroke="#101727" stroke-width="2" stroke-miterlimit="10"/>
<path d="M147.183 76.1784C142.782 76.1372 139.125 77.8953 136.871 80.5942" stroke="#101727" stroke-width="2" stroke-miterlimit="10"/>
<path d="M215.03 97.2744L231.154 137.312L189.429 163.005L176.847 145.31L215.03 97.2744Z" stroke="#101727" stroke-width="2" stroke-miterlimit="10"/>
<path d="M189.478 169.418C189.594 169.072 189.429 163.014 189.429 163.014" stroke="#101727" stroke-width="2" stroke-miterlimit="10"/>
<path d="M190.692 594.829H291.405L294.708 567.609H187.39L190.692 594.829Z" fill="#01654D" stroke="#101727" stroke-width="2" stroke-miterlimit="10"/>
<path d="M136.533 596.051L37.958 575.409L40.3109 548.09L145.35 570.085L136.533 596.051Z" fill="#01654D" stroke="#101727" stroke-width="2" stroke-miterlimit="10"/>
<path d="M287.112 315.167L288.83 330.156H102.726L105.417 313.962" stroke="#101727" stroke-width="2" stroke-miterlimit="10"/>
<path d="M37.958 575.409L136.533 596.051" stroke="#101727" stroke-width="2" stroke-miterlimit="10"/>
<path d="M40.3105 548.09L145.35 570.085" stroke="#101727" stroke-width="2" stroke-miterlimit="10"/>
<path d="M187.39 567.609H294.708" stroke="#101727" stroke-width="2" stroke-miterlimit="10"/>
<path d="M190.691 594.83H291.405" stroke="#101727" stroke-width="2" stroke-miterlimit="10"/>
<path d="M154.196 19.2238L148.93 20.7734L152.869 34.1543L158.136 32.6047L154.196 19.2238Z" fill="#01654D"/>
<path d="M149.66 35.2078C152.467 42.8918 156.867 45.8878 159.575 47.2992C161.094 44.625 163.167 39.6812 161.276 31.601C161.482 31.4855 161.689 31.3699 161.887 31.2461C163.431 30.3052 164.81 29.2735 166.048 28.1758C169.854 41.1503 165.28 48.5455 163.555 51.3269L163.48 51.4425C163.15 51.9789 162.713 52.4081 162.209 52.7135C161.127 53.3738 159.757 53.4811 158.535 52.9033L158.387 52.8291C155.423 51.4177 147.547 47.6706 143.716 34.7373C145.623 35.1418 147.613 35.3151 149.652 35.2078H149.66Z" fill="white"/>
<path d="M160.293 9.77907C168.136 1.73189 178.547 2.78837 178.547 2.78837" stroke="#101727" stroke-width="2" stroke-miterlimit="10"/>
<path d="M302.51 250.196L270.691 257.541C266.506 258.507 263.889 262.683 264.863 266.876C265.829 271.061 270.006 273.677 274.2 272.703L306.018 265.358" stroke="#101727" stroke-width="2" stroke-miterlimit="10"/>
<path d="M299.008 235.034L265.556 242.759C261.37 243.725 258.753 247.901 259.727 252.094C260.693 256.279 264.87 258.895 269.064 257.921L302.517 250.196" stroke="#101727" stroke-width="2" stroke-miterlimit="10"/>
<path d="M306.018 265.357L314.422 309.183C314.422 309.183 164.314 349.444 71.2535 300.336C68.9253 290.861 63.7076 273.867 60.3145 261.148" stroke="#101727" stroke-width="2" stroke-miterlimit="10"/>
<path d="M294.451 215.225L279.524 149.758C227.356 164.854 136.244 193.213 31.2868 140.415C17.5573 133.548 27.1754 110.34 46.5437 114.433C65.3093 118.395 52.9502 138.682 40.3683 135.257" stroke="#101727" stroke-width="2" stroke-miterlimit="10"/>
<path d="M55.1797 246.383L70.0072 242.768C74.1847 241.752 78.3952 244.311 79.4107 248.487C80.4261 252.664 77.8669 256.873 73.6894 257.888L58.8618 261.503" stroke="#101727" stroke-width="2" stroke-miterlimit="10"/>
<path d="M51.4893 231.262L67.9432 227.251C72.1206 226.236 76.3311 228.795 77.3466 232.971C78.3621 237.147 75.8028 241.356 71.6254 242.372L55.1713 246.383" stroke="#101727" stroke-width="2" stroke-miterlimit="10"/>
<path d="M51.4896 231.262L64.9714 227.977C69.1489 226.962 71.7083 222.753 70.6928 218.576C69.6773 214.4 65.4668 211.841 61.2894 212.857L47.8074 216.141C32.9551 160.455 25.8799 134.943 25.8799 134.943" stroke="#101727" stroke-width="2" stroke-miterlimit="10"/>
<path d="M44.1165 201.029C35.7616 203.068 30.6429 211.487 32.6821 219.831C34.7213 228.183 43.1424 233.301 51.4891 231.262" stroke="#101727" stroke-width="2" stroke-miterlimit="10"/>
<path d="M36.5457 226.896C35.8027 229.438 35.6953 232.195 36.364 234.951C38.4032 243.304 46.8242 248.421 55.1709 246.383" stroke="#101727" stroke-width="2" stroke-miterlimit="10"/>
<path d="M40.2361 242.017C39.4931 244.559 39.3858 247.315 40.0545 250.072C42.0937 258.425 50.5146 263.542 58.8613 261.503" stroke="#101727" stroke-width="2" stroke-miterlimit="10"/>
<path d="M56.1045 122.547L62.6514 154.034" stroke="#101727" stroke-width="2" stroke-miterlimit="10"/>
<path d="M323.578 212.947L305.06 217.512L293.651 211.701L295.508 219.864L265.044 226.896C260.858 227.862 258.241 232.038 259.215 236.231C260.181 240.415 264.359 243.032 268.553 242.058L299.017 235.026" stroke="#101727" stroke-width="2" stroke-miterlimit="10"/>
<path d="M231.153 137.312L246.047 137.874C269.023 138.74 291.396 145.467 311.045 157.41L361.893 188.319C388.659 204.587 382.781 245.004 352.49 252.986L306.018 265.407" stroke="#101727" stroke-width="2" stroke-miterlimit="10"/>
<path d="M161.969 144.402L152.615 145.607C136.896 147.629 122.44 155.288 111.938 167.157" stroke="#101727" stroke-width="2" stroke-miterlimit="10"/>
<path d="M160.715 170.748L161.805 137.312" stroke="#101727" stroke-width="2" stroke-miterlimit="10"/>
<path d="M202.382 167.842C198.593 164.961 194.159 163.005 189.082 163.005C181.619 163.005 175.592 166.488 171.01 170.747" stroke="#101727" stroke-width="2" stroke-miterlimit="10"/>
<path d="M230.823 137.461L224.656 163.872" stroke="#101727" stroke-width="2" stroke-miterlimit="10"/>
<path d="M343.698 177.259C323.884 176.879 307.058 190.663 305.061 217.512" stroke="#101727" stroke-width="2" stroke-miterlimit="10"/>
<path d="M180.628 128.06C181.107 130.809 177.135 134.729 172.165 135.596C167.195 136.462 162.779 134.927 162.3 132.17C161.821 129.422 166.188 130.66 171.158 129.793C176.128 128.935 180.149 125.304 180.628 128.06Z" stroke="#E9E1CE" stroke-width="2" stroke-miterlimit="10"/>
</svg>
