<?xml version="1.0" encoding="UTF-8"?><svg id="Layer_2" xmlns="http://www.w3.org/2000/svg" viewBox="0 0 170.8 168.73"><rect x="86.45" y="57.14" width="71.06" height="110.09" fill="#01654d"/><path d="M159.01,168.73h-74.06V55.64h74.06v113.09ZM87.95,165.73h68.06V58.64h-68.06v107.09Z" fill="#101727"/><rect x="13.28" y="57.14" width="73.17" height="110.09" fill="#e9e1ce"/><path d="M87.95,168.73H11.78V55.64h76.17v113.09ZM14.78,165.73h70.17V58.64H14.78v107.09Z" fill="#101727"/><polygon points="75.45 31.59 2.28 31.59 13.28 57.14 86.45 57.14 75.45 31.59" fill="#01654d"/><path d="M88.73,58.64H12.3L0,30.09h76.44l12.3,28.55ZM14.27,55.64h69.9l-9.71-22.55H4.56l9.71,22.55Z" fill="#101727"/><rect x="37.6" y="1.5" width="97.28" height="55.64" fill="#e8bd51"/><path d="M136.38,58.64H36.1V0h100.28v58.64ZM39.1,55.64h94.28V3H39.1v52.64Z" fill="#101727"/><polygon points="168.52 31.59 97.46 31.59 86.45 57.14 157.51 57.14 168.52 31.59" fill="#01654d"/><path d="M158.5,58.64h-74.33l12.3-28.55h74.33l-12.3,28.55ZM88.73,55.64h67.79l9.71-22.55h-67.79l-9.71,22.55Z" fill="#101727"/><circle cx="86.24" cy="112.18" r="22.42" fill="#e8bd51"/><path d="M86.24,136.1c-13.19,0-23.92-10.73-23.92-23.92s10.73-23.92,23.92-23.92,23.92,10.73,23.92,23.92-10.73,23.92-23.92,23.92ZM86.24,91.26c-11.54,0-20.92,9.38-20.92,20.92s9.38,20.92,20.92,20.92,20.92-9.38,20.92-20.92-9.38-20.92-20.92-20.92Z" fill="#101727"/><polygon points="83.23 120.46 74.16 112.66 76.12 110.38 83.07 116.38 96.29 103.16 98.41 105.29 83.23 120.46" fill="#101727"/></svg>