<svg width="210" height="26" viewBox="0 0 210 26" fill="none" xmlns="http://www.w3.org/2000/svg">
<g clip-path="url(#clip0_5349_16120)">
<path d="M4.96377 25.3576V24.9973L6.46021 24.637C7.45783 24.4208 7.95664 23.8204 7.95664 22.8356V2.29965H4.85428C3.95399 2.29965 3.30918 2.53984 2.91987 3.02021C2.53055 3.47657 2.1169 4.11306 1.67892 4.92969L0.364983 7.45165H0L0.182492 1.5791H21.242L21.388 7.45165H21.023L19.7091 4.92969C19.2955 4.11306 18.894 3.47657 18.5047 3.02021C18.1153 2.53984 17.4705 2.29965 16.5702 2.29965H13.4679V22.8356C13.4679 23.8204 13.9667 24.4208 14.9643 24.637L16.4607 24.9973V25.3576H4.96377Z" fill="#202020"/>
<path d="M22.2631 25.3577V24.9974L22.7011 24.8533C23.577 24.5651 24.015 23.9646 24.015 23.0519V3.81293C24.015 3.30853 23.9298 2.93625 23.7595 2.69606C23.5892 2.45587 23.2607 2.27573 22.774 2.15564L22.2266 2.01153V1.65125L28.6503 0.102051L29.2343 0.426302L29.0883 5.50624V10.0097C29.9399 9.31319 30.8523 8.72473 31.8256 8.24436C32.8233 7.73997 33.9182 7.48777 35.1105 7.48777C36.6921 7.48777 37.9452 7.93212 38.8698 8.82081C39.8188 9.7095 40.2932 11.0786 40.2932 12.928V23.0879C40.2932 23.5683 40.3906 23.9526 40.5852 24.2408C40.7799 24.529 41.1205 24.7452 41.6072 24.8893L41.8992 24.9974V25.3577H33.3586V24.9974L33.7965 24.8893C34.6725 24.6011 35.1105 23.9886 35.1105 23.0519V11.7391C35.1105 10.7784 34.9402 10.1179 34.5995 9.75753C34.2832 9.39725 33.7114 9.21711 32.8841 9.21711C32.3488 9.21711 31.7648 9.3252 31.1322 9.54137C30.4995 9.73351 29.8547 10.0818 29.1978 10.5862V23.1238C29.1978 24.0606 29.6357 24.6611 30.5117 24.9253L30.8037 24.9974V25.3577H22.2631Z" fill="#202020"/>
<path d="M51.7553 7.48779C53.3369 7.48779 54.6873 7.81205 55.8066 8.46055C56.9259 9.08503 57.7775 9.9497 58.3615 11.0546C58.9698 12.1354 59.2739 13.3724 59.2739 14.7655C59.2739 15.0297 59.2618 15.3059 59.2374 15.5941C59.2131 15.8583 59.1644 16.0985 59.0914 16.3147H48.2149C48.2393 18.9087 48.7016 20.7821 49.6019 21.935C50.5265 23.0639 51.8891 23.6283 53.6897 23.6283C54.9063 23.6283 55.8918 23.4362 56.646 23.0519C57.4003 22.6676 58.106 22.1032 58.763 21.3586L59.1279 21.6828C58.3736 23.0038 57.3638 24.0366 56.0986 24.7812C54.8576 25.5258 53.3612 25.8981 51.6093 25.8981C49.8817 25.8981 48.3488 25.5378 47.0105 24.8173C45.6722 24.0727 44.6259 23.0159 43.8716 21.6468C43.1173 20.2777 42.7402 18.6445 42.7402 16.747C42.7402 14.7775 43.1782 13.1082 44.0541 11.7391C44.9301 10.346 46.0494 9.28919 47.412 8.56863C48.7989 7.84807 50.2467 7.48779 51.7553 7.48779ZM51.6458 8.20835C50.9401 8.20835 50.3318 8.42452 49.8209 8.85685C49.3342 9.26517 48.9449 10.0098 48.6529 11.0906C48.3853 12.1474 48.2393 13.6486 48.2149 15.5941H54.4561C54.6995 12.9761 54.6021 11.0906 54.1642 9.93769C53.7262 8.7848 52.8867 8.20835 51.6458 8.20835Z" fill="#202020"/>
<path d="M66.6771 25.8981C65.4848 25.8981 64.4142 25.754 63.4653 25.4658C62.5163 25.2016 61.6403 24.8653 60.8374 24.457L60.8739 20.1697H61.2389L62.4798 22.3313C63.0151 23.2921 63.5991 24.0126 64.2317 24.493C64.8887 24.9494 65.716 25.1775 66.7136 25.1775C67.8815 25.1775 68.8183 24.9253 69.524 24.4209C70.2539 23.8925 70.6189 23.196 70.6189 22.3313C70.6189 21.5387 70.3634 20.8902 69.8525 20.3858C69.3415 19.8814 68.3925 19.4251 67.0056 19.0168L65.4727 18.5484C63.9884 18.1161 62.8204 17.4435 61.9688 16.5308C61.1172 15.6181 60.6914 14.5013 60.6914 13.1802C60.6914 11.595 61.324 10.25 62.5893 9.14508C63.8546 8.04022 65.6673 7.48779 68.0275 7.48779C68.9765 7.48779 69.8646 7.59588 70.6919 7.81205C71.5436 8.00419 72.3587 8.30443 73.1373 8.71274L72.9183 12.6038H72.5533L71.2759 10.3701C70.8136 9.57741 70.3513 9.02499 69.889 8.71274C69.451 8.37648 68.7818 8.20835 67.8815 8.20835C67.0543 8.20835 66.2756 8.43653 65.5457 8.89288C64.8157 9.34924 64.4507 9.99774 64.4507 10.8384C64.4507 11.6551 64.7549 12.3036 65.3632 12.7839C65.9958 13.2643 66.9204 13.7086 68.137 14.117L69.7795 14.5853C71.5314 15.1137 72.7845 15.8463 73.5388 16.783C74.2931 17.6957 74.6702 18.8006 74.6702 20.0976C74.6702 21.851 73.9646 23.256 72.5533 24.3129C71.1664 25.3697 69.2077 25.8981 66.6771 25.8981Z" fill="#202020"/>
<path d="M79.8029 5.61443C78.9756 5.61443 78.27 5.36224 77.686 4.85785C77.1264 4.32944 76.8466 3.66892 76.8466 2.87631C76.8466 2.05968 77.1264 1.39916 77.686 0.894771C78.27 0.390379 78.9756 0.138184 79.8029 0.138184C80.6302 0.138184 81.3237 0.390379 81.8833 0.894771C82.443 1.39916 82.7228 2.05968 82.7228 2.87631C82.7228 3.66892 82.443 4.32944 81.8833 4.85785C81.3237 5.36224 80.6302 5.61443 79.8029 5.61443ZM75.4961 25.3578V24.9975L76.0071 24.8534C76.4937 24.7093 76.8222 24.4931 76.9926 24.2049C77.1872 23.9167 77.2845 23.5324 77.2845 23.052V11.7752C77.2845 11.2709 77.1872 10.8986 76.9926 10.6584C76.8222 10.3942 76.4937 10.214 76.0071 10.118L75.4961 10.0098V9.64956L82.1753 7.52391L82.5403 7.88419L82.4308 13.0002V23.088C82.4308 23.5684 82.516 23.9527 82.6863 24.2409C82.881 24.5291 83.2094 24.7453 83.6718 24.8894L84.0367 24.9975V25.3578H75.4961Z" fill="#202020"/>
<path d="M91.2377 25.8981C90.0454 25.8981 88.9748 25.754 88.0258 25.4658C87.0769 25.2016 86.2009 24.8653 85.398 24.457L85.4345 20.1697H85.7994L87.0404 22.3313C87.5757 23.2921 88.1597 24.0126 88.7923 24.493C89.4493 24.9494 90.2766 25.1775 91.2742 25.1775C92.4421 25.1775 93.3789 24.9253 94.0846 24.4209C94.8145 23.8925 95.1795 23.196 95.1795 22.3313C95.1795 21.5387 94.924 20.8902 94.413 20.3858C93.9021 19.8814 92.9531 19.4251 91.5662 19.0168L90.0332 18.5484C88.549 18.1161 87.381 17.4435 86.5294 16.5308C85.6778 15.6181 85.252 14.5013 85.252 13.1802C85.252 11.595 85.8846 10.25 87.1499 9.14508C88.4152 8.04022 90.2279 7.48779 92.5881 7.48779C93.5371 7.48779 94.4252 7.59588 95.2525 7.81205C96.1041 8.00419 96.9193 8.30443 97.6979 8.71274L97.4789 12.6038H97.1139L95.8365 10.3701C95.3742 9.57741 94.9118 9.02499 94.4495 8.71274C94.0116 8.37648 93.3424 8.20835 92.4421 8.20835C91.6148 8.20835 90.8362 8.43653 90.1062 8.89288C89.3763 9.34924 89.0113 9.99774 89.0113 10.8384C89.0113 11.6551 89.3154 12.3036 89.9237 12.7839C90.5564 13.2643 91.481 13.7086 92.6976 14.117L94.34 14.5853C96.092 15.1137 97.3451 15.8463 98.0994 16.783C98.8537 17.6957 99.2308 18.8006 99.2308 20.0976C99.2308 21.851 98.5252 23.256 97.1139 24.3129C95.727 25.3697 93.7682 25.8981 91.2377 25.8981Z" fill="#202020"/>
<path d="M107.23 25.34V24.9797L107.996 24.6915C108.775 24.3792 109.164 23.7668 109.164 22.854V4.04744C109.164 3.0867 108.775 2.47422 107.996 2.21002L107.23 1.92179V1.56152H116.865C119.445 1.56152 121.659 2.04189 123.508 3.00263C125.382 3.93936 126.817 5.29641 127.815 7.07379C128.837 8.82715 129.348 10.9408 129.348 13.4147C129.348 15.9367 128.8 18.0864 127.705 19.8637C126.611 21.6411 125.078 22.9982 123.107 23.9349C121.16 24.8716 118.861 25.34 116.209 25.34H107.23ZM114.639 24.6194H116.209C117.96 24.6194 119.372 24.2832 120.442 23.6106C121.513 22.9141 122.292 21.7612 122.778 20.152C123.289 18.5187 123.545 16.285 123.545 13.4508C123.545 10.6166 123.289 8.39481 122.778 6.78556C122.292 5.1523 121.525 3.99941 120.479 3.32688C119.433 2.63034 118.058 2.28207 116.355 2.28207H114.639V24.6194Z" fill="#202020"/>
<path d="M130.094 25.3401V24.9798L130.641 24.8357C131.128 24.6916 131.456 24.4754 131.627 24.1872C131.821 23.899 131.919 23.5267 131.919 23.0703V11.7936C131.919 11.2652 131.821 10.8809 131.627 10.6407C131.456 10.3765 131.128 10.1963 130.641 10.1003L130.094 9.95614V9.59586L136.372 7.50625L136.737 7.86653L137.065 10.9649V11.2532C137.406 10.5806 137.844 9.96816 138.379 9.41573C138.939 8.83928 139.547 8.37091 140.204 8.01063C140.885 7.65035 141.554 7.47021 142.211 7.47021C143.136 7.47021 143.842 7.72242 144.328 8.22681C144.815 8.7312 145.058 9.36768 145.058 10.1363C145.058 10.9529 144.815 11.5894 144.328 12.0458C143.866 12.4781 143.306 12.6943 142.649 12.6943C141.627 12.6943 140.727 12.1899 139.948 11.1811L139.875 11.109C139.632 10.7728 139.352 10.5926 139.036 10.5686C138.72 10.5206 138.428 10.6647 138.16 11.001C137.917 11.2171 137.71 11.4813 137.54 11.7936C137.394 12.0818 137.248 12.4181 137.102 12.8024V22.8541C137.102 23.8149 137.527 24.4154 138.379 24.6555L139.547 24.9798V25.3401H130.094Z" fill="#202020"/>
<path d="M149.854 5.59685C149.027 5.59685 148.321 5.34466 147.737 4.84027C147.178 4.31186 146.898 3.65134 146.898 2.85873C146.898 2.0421 147.178 1.38158 147.737 0.877193C148.321 0.372801 149.027 0.120605 149.854 0.120605C150.682 0.120605 151.375 0.372801 151.935 0.877193C152.494 1.38158 152.774 2.0421 152.774 2.85873C152.774 3.65134 152.494 4.31186 151.935 4.84027C151.375 5.34466 150.682 5.59685 149.854 5.59685ZM145.547 25.3402V24.9799L146.058 24.8358C146.545 24.6917 146.874 24.4755 147.044 24.1873C147.239 23.8991 147.336 23.5148 147.336 23.0344V11.7576C147.336 11.2533 147.239 10.881 147.044 10.6408C146.874 10.3766 146.545 10.1964 146.058 10.1004L145.547 9.99226V9.63198L152.227 7.50633L152.592 7.86661L152.482 12.9826V23.0704C152.482 23.5508 152.567 23.9351 152.738 24.2233C152.932 24.5115 153.261 24.7277 153.723 24.8718L154.088 24.9799V25.3402H145.547Z" fill="#202020"/>
<path d="M162.83 25.4483L156.37 10.1364C156.029 9.31976 155.445 8.77934 154.618 8.51513L154.107 8.37102V8.01074H163.56V8.37102L162.903 8.51513C161.954 8.75532 161.662 9.3798 162.027 10.3886L165.859 20.4404L169.436 10.4606C169.631 9.98027 169.679 9.58396 169.582 9.27172C169.485 8.95948 169.193 8.7313 168.706 8.58719L167.794 8.37102V8.01074H173.086V8.37102L172.027 8.62322C171.565 8.74331 171.2 8.92345 170.933 9.16364C170.689 9.40382 170.482 9.7641 170.312 10.2445L164.947 25.4483H162.83Z" fill="#202020"/>
<path d="M181.476 7.47021C183.058 7.47021 184.408 7.79448 185.527 8.44298C186.647 9.06746 187.498 9.93213 188.082 11.037C188.691 12.1178 188.995 13.3548 188.995 14.7479C188.995 15.0121 188.983 15.2883 188.958 15.5765C188.934 15.8407 188.885 16.0809 188.812 16.2971H177.936C177.96 18.8911 178.422 20.7645 179.323 21.9174C180.247 23.0463 181.61 23.6107 183.411 23.6107C184.627 23.6107 185.613 23.4186 186.367 23.0343C187.121 22.65 187.827 22.0856 188.484 21.341L188.849 21.6652C188.094 22.9862 187.085 24.019 185.819 24.7636C184.578 25.5082 183.082 25.8805 181.33 25.8805C179.603 25.8805 178.07 25.5202 176.731 24.7997C175.393 24.0551 174.347 22.9983 173.592 21.6292C172.838 20.2601 172.461 18.6269 172.461 16.7294C172.461 14.7599 172.899 13.0906 173.775 11.7215C174.651 10.3284 175.77 9.27162 177.133 8.55106C178.52 7.8305 179.967 7.47021 181.476 7.47021ZM181.367 8.19078C180.661 8.19078 180.053 8.40694 179.542 8.83927C179.055 9.24759 178.666 9.99217 178.374 11.073C178.106 12.1298 177.96 13.631 177.936 15.5765H184.177C184.42 12.9585 184.323 11.073 183.885 9.92011C183.447 8.76723 182.608 8.19078 181.367 8.19078Z" fill="#202020"/>
<path d="M190.084 25.3401V24.9798L190.595 24.8357C191.446 24.5955 191.872 24.007 191.872 23.0703V11.7936C191.872 11.2652 191.787 10.8809 191.617 10.6407C191.446 10.3765 191.118 10.1963 190.631 10.1003L190.084 9.95614V9.59586L196.325 7.50625L196.69 7.86653L196.982 10.0282C197.834 9.28363 198.795 8.67115 199.865 8.19078C200.936 7.71041 201.994 7.47021 203.041 7.47021C204.647 7.47021 205.875 7.90255 206.727 8.76722C207.603 9.63189 208.041 10.9529 208.041 12.7303V23.1063C208.041 24.0431 208.503 24.6315 209.428 24.8717L209.756 24.9798V25.3401H201.143V24.9798L201.617 24.8357C202.469 24.5715 202.895 23.983 202.895 23.0703V11.5774C202.895 10.0402 202.116 9.27162 200.559 9.27162C199.488 9.27162 198.32 9.80002 197.055 10.8568V23.1063C197.055 24.0431 197.481 24.6315 198.332 24.8717L198.661 24.9798V25.3401H190.084Z" fill="#202020"/>
<path d="M107.23 25.339V24.9787L107.996 24.6905C108.775 24.3783 109.164 23.7658 109.164 22.8531V4.04648C109.164 3.08574 108.775 2.47326 107.996 2.20906L107.23 1.92083V1.56055H116.865C119.445 1.56055 121.659 2.04093 123.508 3.00167C125.382 3.9384 126.817 5.29545 127.815 7.07283C128.837 8.82618 129.348 10.9398 129.348 13.4138C129.348 15.9357 128.8 18.0854 127.705 19.8628C126.611 21.6401 125.078 22.9972 123.107 23.9339C121.16 24.8706 118.861 25.339 116.209 25.339H107.23ZM114.639 24.6184H116.209C117.96 24.6184 119.372 24.2822 120.442 23.6097C121.513 22.9131 122.292 21.7602 122.778 20.151C123.289 18.5177 123.545 16.284 123.545 13.4498C123.545 10.6156 123.289 8.39385 122.778 6.7846C122.292 5.15134 121.525 3.99844 120.479 3.32592C119.433 2.62938 118.058 2.28111 116.355 2.28111H114.639V24.6184Z" fill="#8344EE"/>
<path d="M130.094 25.3391V24.9788L130.641 24.8347C131.128 24.6906 131.456 24.4744 131.627 24.1862C131.821 23.898 131.919 23.5257 131.919 23.0693V11.7926C131.919 11.2642 131.821 10.8799 131.627 10.6397C131.456 10.3755 131.128 10.1954 130.641 10.0993L130.094 9.95517V9.59489L136.372 7.50527L136.737 7.86555L137.065 10.964V11.2522C137.406 10.5797 137.844 9.96718 138.379 9.41475C138.939 8.8383 139.547 8.36994 140.204 8.00966C140.885 7.64938 141.554 7.46924 142.211 7.46924C143.136 7.46924 143.842 7.72144 144.328 8.22583C144.815 8.73022 145.058 9.36671 145.058 10.1353C145.058 10.952 144.815 11.5884 144.328 12.0448C143.866 12.4771 143.306 12.6933 142.649 12.6933C141.627 12.6933 140.727 12.1889 139.948 11.1801L139.875 11.1081C139.632 10.7718 139.352 10.5917 139.036 10.5677C138.72 10.5196 138.428 10.6637 138.16 11C137.917 11.2162 137.71 11.4804 137.54 11.7926C137.394 12.0808 137.248 12.4171 137.102 12.8014V22.8532C137.102 23.8139 137.527 24.4144 138.379 24.6546L139.547 24.9788V25.3391H130.094Z" fill="#8344EE"/>
<path d="M149.854 5.59587C149.027 5.59587 148.321 5.34368 147.737 4.83929C147.178 4.31088 146.898 3.65036 146.898 2.85775C146.898 2.04112 147.178 1.3806 147.737 0.876217C148.321 0.371825 149.027 0.119629 149.854 0.119629C150.682 0.119629 151.375 0.371825 151.935 0.876217C152.494 1.3806 152.774 2.04112 152.774 2.85775C152.774 3.65036 152.494 4.31088 151.935 4.83929C151.375 5.34368 150.682 5.59587 149.854 5.59587ZM145.547 25.3392V24.9789L146.058 24.8348C146.545 24.6907 146.874 24.4745 147.044 24.1863C147.239 23.8981 147.336 23.5138 147.336 23.0334V11.7567C147.336 11.2523 147.239 10.88 147.044 10.6398C146.874 10.3756 146.545 10.1955 146.058 10.0994L145.547 9.99128V9.631L152.227 7.50535L152.592 7.86563L152.482 12.9816V23.0694C152.482 23.5498 152.567 23.9341 152.738 24.2223C152.932 24.5106 153.261 24.7267 153.723 24.8708L154.088 24.9789V25.3392H145.547Z" fill="#8344EE"/>
<path d="M162.83 25.4473L156.37 10.1354C156.029 9.31879 155.445 8.77837 154.618 8.51416L154.107 8.37005V8.00977H163.56V8.37005L162.903 8.51416C161.954 8.75435 161.662 9.37883 162.027 10.3876L165.859 20.4394L169.436 10.4597C169.631 9.9793 169.679 9.58299 169.582 9.27075C169.485 8.95851 169.193 8.73033 168.706 8.58622L167.794 8.37005V8.00977H173.086V8.37005L172.027 8.62225C171.565 8.74234 171.2 8.92248 170.932 9.16266C170.689 9.40285 170.482 9.76313 170.312 10.2435L164.947 25.4473H162.83Z" fill="#8344EE"/>
<path d="M181.476 7.46924C183.058 7.46924 184.408 7.79349 185.527 8.442C186.647 9.06648 187.498 9.93115 188.082 11.036C188.691 12.1169 188.995 13.3538 188.995 14.7469C188.995 15.0111 188.983 15.2873 188.958 15.5755C188.934 15.8397 188.885 16.0799 188.812 16.2961H177.936C177.96 18.8901 178.422 20.7636 179.323 21.9164C180.247 23.0453 181.61 23.6098 183.41 23.6098C184.627 23.6098 185.613 23.4176 186.367 23.0333C187.121 22.649 187.827 22.0846 188.484 21.34L188.849 21.6643C188.094 22.9853 187.085 24.0181 185.819 24.7627C184.578 25.5072 183.082 25.8795 181.33 25.8795C179.603 25.8795 178.07 25.5192 176.731 24.7987C175.393 24.0541 174.347 22.9973 173.592 21.6282C172.838 20.2592 172.461 18.6259 172.461 16.7284C172.461 14.7589 172.899 13.0896 173.775 11.7205C174.651 10.3275 175.77 9.27064 177.133 8.55008C178.52 7.82952 179.967 7.46924 181.476 7.46924ZM181.367 8.1898C180.661 8.1898 180.053 8.40597 179.542 8.8383C179.055 9.24662 178.666 9.9912 178.374 11.072C178.106 12.1289 177.96 13.63 177.936 15.5755H184.177C184.42 12.9575 184.323 11.072 183.885 9.91914C183.447 8.76625 182.608 8.1898 181.367 8.1898Z" fill="#8344EE"/>
<path d="M190.084 25.3391V24.9788L190.595 24.8347C191.446 24.5945 191.872 24.0061 191.872 23.0693V11.7926C191.872 11.2642 191.787 10.8799 191.617 10.6397C191.446 10.3755 191.118 10.1954 190.631 10.0993L190.084 9.95517V9.59489L196.325 7.50527L196.69 7.86555L196.982 10.0272C197.834 9.28265 198.795 8.67017 199.865 8.1898C200.936 7.70943 201.994 7.46924 203.041 7.46924C204.647 7.46924 205.875 7.90158 206.727 8.76625C207.603 9.63092 208.041 10.952 208.041 12.7293V23.1054C208.041 24.0421 208.503 24.6306 209.428 24.8707L209.756 24.9788V25.3391H201.143V24.9788L201.617 24.8347C202.469 24.5705 202.895 23.982 202.895 23.0693V11.5764C202.895 10.0392 202.116 9.27064 200.559 9.27064C199.488 9.27064 198.32 9.79905 197.055 10.8559V23.1054C197.055 24.0421 197.481 24.6306 198.332 24.8707L198.661 24.9788V25.3391H190.084Z" fill="#8344EE"/>
</g>
<defs>
<clipPath id="clip0_5349_16120">
<rect width="209.756" height="25.796" fill="white" transform="translate(0 0.102051)"/>
</clipPath>
</defs>
</svg>
