<svg width="678" height="470" viewBox="0 0 678 470" fill="none" xmlns="http://www.w3.org/2000/svg">
<mask id="mask0_2727_10735" style="mask-type:luminance" maskUnits="userSpaceOnUse" x="14" y="0" width="645" height="470">
<path d="M658.476 0H14.5273V470H658.476V0Z" fill="white"/>
</mask>
<g mask="url(#mask0_2727_10735)">
<mask id="mask1_2727_10735" style="mask-type:luminance" maskUnits="userSpaceOnUse" x="14" y="0" width="645" height="470">
<path d="M658.476 0H14.5273V470H658.476V0Z" fill="white"/>
</mask>
<g mask="url(#mask1_2727_10735)">
<mask id="mask2_2727_10735" style="mask-type:luminance" maskUnits="userSpaceOnUse" x="14" y="0" width="645" height="470">
<path d="M658.476 0H14.5273V470H658.476V0Z" fill="white"/>
</mask>
<g mask="url(#mask2_2727_10735)">
<g opacity="0.12">
<mask id="mask3_2727_10735" style="mask-type:luminance" maskUnits="userSpaceOnUse" x="14" y="0" width="645" height="470">
<path d="M658.476 0H14.5273V470H658.476V0Z" fill="white"/>
</mask>
<g mask="url(#mask3_2727_10735)">
<path d="M57.2922 169.818V99.7094H86.4144V0H152.81V99.7094H154.627V229.682H187.072V332.683H214.116V165.925H228.451V128.297H248.93V40.7788H261.759V128.297H281.666V165.925H295.228V241.944H343.896V332.683H375.818V316.267H447.454V332.683H489.898V389.095H545.783V445.647H567.898V418.404H594.892V445.647H658.477V468.164H533.064V467.562H489.898H459.26H343.896H295.228H275.402H214.116H187.072H154.627H125.786H93.341H81.385V470H14.5176V169.818H57.2922Z" fill="#00654A"/>
</g>
</g>
</g>
</g>
</g>
<path d="M386.539 169.898L432.928 241.943L491.674 249.76L498.078 250.803C500.99 251.275 503.77 249.388 504.403 246.508C505.085 243.388 502.997 240.347 499.845 239.846L469.649 235.08L418.07 150.642" fill="#EAE2CF"/>
<path d="M386.539 169.898L432.928 241.943L491.674 249.76L498.078 250.803C500.99 251.275 503.77 249.388 504.403 246.508C505.085 243.388 502.997 240.347 499.845 239.846L469.649 235.08L418.07 150.642" stroke="#0F1728" stroke-linejoin="round"/>
<path d="M420.431 155.821L417.118 149.128L387.996 133.184L380.105 159.905L386.54 169.899" fill="#EAE2CF"/>
<path d="M274.959 275.579H230.137V324.777H274.959V275.579Z" fill="#E9BE51" stroke="#101727" stroke-miterlimit="10"/>
<path d="M274.959 323.794H230.137V372.991H274.959V323.794Z" fill="#E9BE51" stroke="#101727" stroke-miterlimit="10"/>
<path d="M274.959 372.017H230.137V421.214H274.959V372.017Z" fill="#01654D" stroke="#101727" stroke-miterlimit="10"/>
<path d="M274.959 420.244H230.137V469.441H274.959V420.244Z" fill="#E9BE51" stroke="#101727" stroke-miterlimit="10"/>
<path d="M319.239 275.579H274.416V324.777H319.239V275.579Z" fill="#E9BE51" stroke="#101727" stroke-miterlimit="10"/>
<path d="M319.239 323.794H274.416V372.991H319.239V323.794Z" fill="#E9BE51" stroke="#101727" stroke-miterlimit="10"/>
<path d="M319.239 372.017H274.416V421.214H319.239V372.017Z" fill="#E9BE51" stroke="#101727" stroke-miterlimit="10"/>
<path d="M319.239 420.244H274.416V469.441H319.239V420.244Z" fill="#E9BE51" stroke="#101727" stroke-miterlimit="10"/>
<path d="M230.307 275.579H185.484V324.777H230.307V275.579Z" fill="#E9BE51" stroke="#101727" stroke-miterlimit="10"/>
<path d="M230.307 323.794H185.484V372.991H230.307V323.794Z" fill="#E9BE51" stroke="#101727" stroke-miterlimit="10"/>
<path d="M230.307 372.017H185.484V421.214H230.307V372.017Z" fill="#E9BE51" stroke="#101727" stroke-miterlimit="10"/>
<path d="M230.307 420.244H185.484V469.441H230.307V420.244Z" fill="#E9BE51" stroke="#101727" stroke-miterlimit="10"/>
<path d="M363.522 275.579H318.699V324.777H363.522V275.579Z" fill="#E9BE51" stroke="#101727" stroke-miterlimit="10"/>
<path d="M363.522 323.794H318.699V372.991H363.522V323.794Z" fill="#E9BE51" stroke="#101727" stroke-miterlimit="10"/>
<path d="M363.522 372.017H318.699V421.214H363.522V372.017Z" fill="#E9BE51" stroke="#101727" stroke-miterlimit="10"/>
<path d="M363.522 420.244H318.699V469.441H363.522V420.244Z" fill="#E9BE51" stroke="#101727" stroke-miterlimit="10"/>
<path d="M407.811 275.579H362.988V324.777H407.811V275.579Z" fill="#E9BE51" stroke="#101727" stroke-miterlimit="10"/>
<path d="M407.811 323.794H362.988V372.991H407.811V323.794Z" fill="#E9BE51" stroke="#101727" stroke-miterlimit="10"/>
<path d="M407.811 372.017H362.988V421.214H407.811V372.017Z" fill="#E9BE51" stroke="#101727" stroke-miterlimit="10"/>
<path d="M407.811 420.244H362.988V469.441H407.811V420.244Z" fill="#01654D" stroke="#101727" stroke-miterlimit="10"/>
<path d="M452.092 275.579H407.27V324.777H452.092V275.579Z" fill="#E9BE51" stroke="#101727" stroke-miterlimit="10"/>
<path d="M452.092 323.794H407.27V372.991H452.092V323.794Z" fill="#01654D" stroke="#101727" stroke-miterlimit="10"/>
<path d="M452.092 372.017H407.27V421.214H452.092V372.017Z" fill="#E9BE51" stroke="#101727" stroke-miterlimit="10"/>
<path d="M452.092 420.244H407.27V469.441H452.092V420.244Z" fill="#E9BE51" stroke="#101727" stroke-miterlimit="10"/>
<path d="M496.371 275.579H451.549V324.777H496.371V275.579Z" fill="#E9BE51" stroke="#101727" stroke-miterlimit="10"/>
<path d="M496.371 323.794H451.549V372.991H496.371V323.794Z" fill="#E9BE51" stroke="#101727" stroke-miterlimit="10"/>
<path d="M496.371 372.017H451.549V421.214H496.371V372.017Z" fill="#E9BE51" stroke="#101727" stroke-miterlimit="10"/>
<path d="M496.371 420.244H451.549V469.441H496.371V420.244Z" fill="#E9BE51" stroke="#101727" stroke-miterlimit="10"/>
<path d="M495.84 275.579V323.793V324.767V372.017V372.991V420.242V421.215V469.439H523.225V421.215V420.242V372.991V372.017V324.767V323.793V275.579H495.84Z" fill="#01654D" stroke="#101727" stroke-miterlimit="10"/>
<path d="M141.516 275.579H96.6934V324.777H141.516V275.579Z" fill="#E9BE51" stroke="#101727" stroke-miterlimit="10"/>
<path d="M141.516 323.794H96.6934V372.991H141.516V323.794Z" fill="#E9BE51" stroke="#101727" stroke-miterlimit="10"/>
<path d="M141.516 372.017H96.6934V421.214H141.516V372.017Z" fill="#E9BE51" stroke="#101727" stroke-miterlimit="10"/>
<path d="M141.516 420.244H96.6934V469.441H141.516V420.244Z" fill="#E9BE51" stroke="#101727" stroke-miterlimit="10"/>
<path d="M185.795 275.599H140.973V324.796H185.795V275.599Z" fill="#01654D" stroke="#101727" stroke-miterlimit="10"/>
<path d="M185.805 323.794H140.982V372.991H185.805V323.794Z" fill="#E9BE51" stroke="#101727" stroke-miterlimit="10"/>
<path d="M185.805 372.017H140.982V421.214H185.805V372.017Z" fill="#E9BE51" stroke="#101727" stroke-miterlimit="10"/>
<path d="M185.805 420.239H140.982V469.437H185.805V420.239Z" fill="#E9BE51" stroke="#101727" stroke-miterlimit="10"/>
<path d="M163.379 309.163C168.335 309.163 172.353 305.147 172.353 300.193C172.353 295.238 168.335 291.222 163.379 291.222C158.422 291.222 154.404 295.238 154.404 300.193C154.404 305.147 158.422 309.163 163.379 309.163Z" fill="#EAE2CF"/>
<path d="M507.384 251.093H428.35V275.607H507.384V251.093Z" fill="#01654D" stroke="#101727" stroke-miterlimit="10"/>
<path d="M478.403 251.093H399.369V275.607H478.403V251.093Z" fill="#E9BE51" stroke="#101727" stroke-miterlimit="10"/>
<path d="M252.543 405.593C257.499 405.593 261.517 401.577 261.517 396.622C261.517 391.668 257.499 387.652 252.543 387.652C247.586 387.652 243.568 391.668 243.568 396.622C243.568 401.577 247.586 405.593 252.543 405.593Z" fill="#EAE2CF"/>
<path d="M384.682 453.804C389.638 453.804 393.656 449.788 393.656 444.833C393.656 439.879 389.638 435.863 384.682 435.863C379.725 435.863 375.707 439.879 375.707 444.833C375.707 449.788 379.725 453.804 384.682 453.804Z" fill="#EAE2CF"/>
<path d="M429.676 357.366C434.632 357.366 438.65 353.35 438.65 348.396C438.65 343.442 434.632 339.425 429.676 339.425C424.719 339.425 420.701 343.442 420.701 348.396C420.701 353.35 424.719 357.366 429.676 357.366Z" fill="#EAE2CF"/>
<path d="M267.964 338.003L266.99 371.537H195.244C195.244 371.537 185.065 348.98 220.3 348.98C221.114 342.107 219.748 337.571 219.748 337.571L267.964 338.003Z" fill="#EAE1CC"/>
<path d="M267.964 338.003L266.99 371.537H195.244C195.244 371.537 185.065 348.98 220.3 348.98C221.204 343.431 219.748 337.571 219.748 337.571L267.964 338.003Z" stroke="#0F1728" stroke-miterlimit="10"/>
<path d="M267.964 338.003L266.99 371.537H195.244C195.244 371.537 185.065 348.98 220.3 348.98C221.114 342.107 219.748 337.571 219.748 337.571L267.964 338.003Z" fill="#EAE1CC"/>
<path d="M267.964 338.003L266.99 371.537H195.244C195.244 371.537 185.065 348.98 220.3 348.98C221.204 343.431 219.748 337.571 219.748 337.571L267.964 338.003Z" stroke="#0F1728" stroke-miterlimit="10"/>
<path d="M358.834 344.803L377.064 373.621L316.601 414.349C316.601 414.349 295.199 401.124 324.903 381.116C321.681 374.855 317.956 371.815 317.956 371.815L358.834 344.803Z" fill="#EAE1CC"/>
<path d="M358.834 344.803L377.064 373.621L316.601 414.349C316.601 414.349 295.199 401.124 324.903 381.116C322.514 375.929 317.956 371.815 317.956 371.815L358.834 344.803Z" stroke="#0F1728" stroke-miterlimit="10"/>
<path d="M358.834 344.803L377.064 373.621L316.601 414.349C316.601 414.349 295.199 401.124 324.903 381.116C321.681 374.855 317.956 371.815 317.956 371.815L358.834 344.803Z" fill="#EAE1CC"/>
<path d="M358.834 344.803L377.064 373.621L316.601 414.349C316.601 414.349 295.199 401.124 324.903 381.116C322.514 375.929 317.956 371.815 317.956 371.815L358.834 344.803Z" stroke="#0F1728" stroke-miterlimit="10"/>
<path d="M356.776 337.88L330.956 300.513L375.428 272.136C386.119 265.313 390.485 251.887 385.858 240.087L383.75 234.729L280.121 237.197L233.009 241.412C222.92 242.315 215.351 251.024 215.863 261.129L219.005 323.381H212.129L212.852 339.957L273.816 340.208L274.921 323.14H267.582L268.295 297.804L309.745 367.18L303.822 370.732L314.011 384.469L367.547 349.66L359.968 335.221L356.796 337.89L356.776 337.88Z" fill="#01654D"/>
<path d="M315.183 244.183L270.622 271.938C263.414 276.433 261.035 285.805 265.231 293.19L309.733 367.182" stroke="#101727" stroke-miterlimit="10"/>
<path d="M309.723 113.355H355.519L387 117.7L385.073 237.227H385.083H275.531L286.614 138.922" fill="#EAE1CC"/>
<path d="M309.724 113.355H355.52L387.001 117.7L385.074 237.227H385.084H275.643L286.615 138.922" stroke="#0F1728" stroke-miterlimit="10"/>
<path d="M294.765 58.3081C285.981 91.2001 298.027 109.623 302.555 116.566L302.786 116.918C304.643 119.767 307.745 121.343 310.937 121.343C312.423 121.343 313.939 121.002 315.354 120.279L315.665 120.129C323.044 116.396 342.629 106.482 351.513 73.54L294.765 58.3181V58.3081Z" stroke="#0F1728" stroke-miterlimit="10"/>
<path d="M339.679 25.7179L328.947 22.8482C316.249 19.4466 303.168 26.9923 299.765 39.6855L294.756 58.349L351.514 73.5407L356.524 54.8772C359.927 42.184 352.378 29.1195 339.679 25.7179Z" fill="#E5BE34"/>
<path d="M351.525 73.5009L279.819 54.3056C278.463 53.9343 277.65 52.5496 278.012 51.1849C278.383 49.8303 279.768 49.0176 281.134 49.3788L311.531 57.5165" fill="#E5BE34"/>
<path d="M351.525 73.5009L279.819 54.3056C278.463 53.9343 277.65 52.5496 278.012 51.1849C278.383 49.8303 279.768 49.0176 281.134 49.3788L311.531 57.5165" stroke="#0F1728" stroke-miterlimit="10"/>
<path d="M351.524 73.5008C358.41 70.8317 364.996 78.4978 361.141 84.8595C357.527 90.8398 349.767 90.2177 345.189 89.5956" stroke="#0F1728" stroke-miterlimit="10"/>
<path d="M315.094 69.9766C313.337 76.6894 308.75 82.9006 302.164 86.4225C298.149 88.5799 304.132 92.1521 310.546 87.155" stroke="#0F1728" stroke-miterlimit="10"/>
<path d="M321.619 94.0094C334.137 90.4874 337.621 81.5269 341.275 70.7803L351.514 73.5196C342.64 106.462 323.055 116.375 315.666 120.108L315.355 120.259C313.94 120.981 312.424 121.322 310.938 121.322C307.746 121.322 304.644 119.747 302.777 116.897L302.546 116.546C299.484 111.86 292.989 101.926 291.814 85.8215C299.775 93.026 310.818 97.0296 321.609 93.9893L321.619 94.0094Z" fill="#101728"/>
<path d="M319.903 81.0659C321.345 81.0659 322.513 79.8979 322.513 78.457C322.513 77.0162 321.345 75.8481 319.903 75.8481C318.462 75.8481 317.293 77.0162 317.293 78.457C317.293 79.8979 318.462 81.0659 319.903 81.0659Z" stroke="#0F1728" stroke-miterlimit="10"/>
<path d="M333.495 145.034C334.936 145.034 336.105 143.866 336.105 142.425C336.105 140.984 334.936 139.816 333.495 139.816C332.053 139.816 330.885 140.984 330.885 142.425C330.885 143.866 332.053 145.034 333.495 145.034Z" stroke="#0F1728" stroke-miterlimit="10"/>
<path d="M330.825 157.235C332.266 157.235 333.435 156.067 333.435 154.626C333.435 153.186 332.266 152.018 330.825 152.018C329.383 152.018 328.215 153.186 328.215 154.626C328.215 156.067 329.383 157.235 330.825 157.235Z" stroke="#0F1728" stroke-miterlimit="10"/>
<path d="M301.03 78.4556C299.584 78.4556 298.42 77.2916 298.42 75.8467C298.42 74.4018 299.584 73.2378 301.03 73.2378C302.476 73.2378 303.64 74.4018 303.64 75.8467C303.64 77.2916 302.476 78.4556 301.03 78.4556Z" stroke="#0F1728" stroke-miterlimit="10"/>
<path d="M320.535 70.792C323.326 71.2335 325.464 72.7386 326.599 74.6852" stroke="#0F1728" stroke-miterlimit="10"/>
<path d="M301.823 67.2383C299.052 66.6663 296.532 67.3286 294.775 68.7534" stroke="#0F1728" stroke-miterlimit="10"/>
<path d="M319.02 102.288C315.094 105.027 306.521 105.278 303.148 100.722" stroke="#0F1728" stroke-miterlimit="10"/>
<path d="M345.171 87.6499L355.531 113.357L328.728 129.854L314.664 112.424L345.171 87.6499Z" stroke="#0F1728" stroke-miterlimit="10"/>
<path d="M322.533 160.718C322.603 160.497 328.727 129.853 328.727 129.853" stroke="#0F1728" stroke-miterlimit="10"/>
<path d="M355.54 113.445L347.529 147.742C347.529 147.742 341.024 129.841 328.727 129.841C316.429 129.841 307.244 142.413 307.244 142.413L311.731 120.348" stroke="#0F1728" stroke-miterlimit="10"/>
<path d="M321.674 32.2907L315.551 38.8354L318.124 41.241L324.247 34.6963L321.674 32.2907Z" fill="#00674B"/>
<path d="M313.958 37.4268C310.616 41.4806 310.395 44.8923 310.495 46.8489C312.473 46.8188 315.876 46.3472 319.741 42.6747C319.871 42.745 320.002 42.8252 320.142 42.8955C321.166 43.4373 322.19 43.8688 323.204 44.1899C317.261 50.5214 311.68 50.401 309.582 50.3609H309.491C309.09 50.3508 308.708 50.2505 308.377 50.0699C307.664 49.6886 307.152 48.9561 307.082 48.0932V47.9828C306.881 45.8856 306.389 40.3067 312.302 33.9751C312.704 35.1591 313.246 36.3131 313.979 37.4068" fill="white"/>
<path d="M370.357 146.59C364.554 138.202 366.662 126.702 375.065 120.903C383.457 115.113 394.961 117.21 400.764 125.599L418.06 150.634L418 150.674C414.256 146.69 405.321 147.694 397.371 153.183C389.42 158.671 385.314 166.668 387.724 171.585L387.663 171.625L370.367 146.59H370.357Z" fill="#EAE1CC"/>
<path d="M370.357 146.59C364.554 138.202 366.662 126.702 375.065 120.903C383.457 115.113 394.961 117.21 400.764 125.599L418.06 150.634L418 150.674C414.256 146.69 405.321 147.694 397.371 153.183C389.42 158.671 385.314 166.668 387.724 171.585L387.663 171.625L370.367 146.59H370.357Z" stroke="#0F1728" stroke-miterlimit="10"/>
<path d="M175.607 242.324C175.607 242.324 262.09 139.585 278.534 125.928C284.416 121.042 299.806 115.824 306.04 119.135C315.406 124.102 310.617 141.391 304.484 148.906C293.381 165.774 201.788 258.269 201.788 258.269" fill="#EAE1CC"/>
<path d="M175.607 242.324C175.607 242.324 262.09 139.585 278.534 125.928C284.416 121.042 299.806 115.824 306.04 119.135C315.406 124.102 310.617 141.391 304.484 148.906C293.381 165.774 201.788 258.269 201.788 258.269" stroke="#0F1728" stroke-miterlimit="10"/>
<path d="M255.475 149.239C270.864 149.851 280.672 160.788 281.635 171.615" stroke="#0F1728" stroke-miterlimit="10"/>
<path d="M309.722 113.355H355.518L387 117.7L385.072 237.227H385.082L264.859 238.029L286.613 138.922" fill="#EAE1CC"/>
<path d="M309.722 113.355H355.518L387 117.7L385.072 237.227H385.082L264.859 238.029L286.613 138.922" stroke="#0F1728" stroke-miterlimit="10"/>
<path d="M358.131 120.48L345.934 89.705L350.05 89.996L355.562 89.1832L359.607 87.056L361.454 84.0859C361.695 83.7548 361.856 83.3735 361.906 82.9621L362.277 82.4001C362.498 80.7345 362.277 79.0387 361.625 77.4934L361.374 76.8814C361.183 76.4298 360.862 76.0385 360.44 75.7776L356.595 73.3192L354.136 73.0182L350.432 73.4597L295.239 58.3984L293.683 62.101L292.278 70.4093C292.258 70.4896 292.278 70.61 292.278 70.6903L291.826 79.4601V79.6709L292.037 87.3871C292.95 87.5778 292.7 87.9791 292.017 88.5109L302.889 106.582L323.117 113.436L345.362 124.062L358.151 120.46L358.131 120.48Z" fill="#EAE1CC"/>
<path d="M294.765 58.3081C285.981 91.2001 298.027 109.623 302.555 116.566L302.786 116.918C304.643 119.767 307.745 121.343 310.937 121.343C312.423 121.343 313.939 121.002 315.354 120.279L315.665 120.129C323.044 116.396 342.629 106.482 351.513 73.54L294.765 58.3181V58.3081Z" stroke="#0F1728" stroke-miterlimit="10"/>
<path d="M339.679 25.7179L328.947 22.8482C316.249 19.4466 303.168 26.9923 299.765 39.6855L294.756 58.349L351.514 73.5407L356.524 54.8772C359.927 42.184 352.378 29.1195 339.679 25.7179Z" fill="#E5BE34"/>
<path d="M351.525 73.5009L279.819 54.3056C278.463 53.9343 277.65 52.5496 278.012 51.1849C278.383 49.8303 279.768 49.0176 281.134 49.3788L311.531 57.5165" fill="#E5BE34"/>
<path d="M351.525 73.5009L279.819 54.3056C278.463 53.9343 277.65 52.5496 278.012 51.1849C278.383 49.8303 279.768 49.0176 281.134 49.3788L311.531 57.5165" stroke="#0F1728" stroke-miterlimit="10"/>
<path d="M351.524 73.5008C358.41 70.8317 364.996 78.4978 361.141 84.8595C357.527 90.8398 349.767 90.2177 345.189 89.5956" stroke="#0F1728" stroke-miterlimit="10"/>
<path d="M315.094 69.9766C313.337 76.6894 308.75 82.9006 302.164 86.4225C298.149 88.5799 304.132 92.1521 310.546 87.155" stroke="#0F1728" stroke-miterlimit="10"/>
<path d="M321.518 94.0094C334.036 90.4874 337.519 81.5269 341.173 70.7803L351.413 73.5196C342.539 106.462 322.953 116.375 315.565 120.108L315.254 120.259C313.838 120.981 312.322 121.322 310.837 121.322C307.644 121.322 304.542 119.747 302.675 116.897L302.444 116.546C299.382 111.86 292.887 101.926 291.713 85.8215C299.674 93.026 310.716 97.0296 321.508 93.9893L321.518 94.0094Z" fill="#101728"/>
<path d="M319.903 81.0659C321.345 81.0659 322.513 79.8979 322.513 78.457C322.513 77.0162 321.345 75.8481 319.903 75.8481C318.462 75.8481 317.293 77.0162 317.293 78.457C317.293 79.8979 318.462 81.0659 319.903 81.0659Z" stroke="#0F1728" stroke-miterlimit="10"/>
<path d="M320.887 142.023C322.329 142.023 323.497 140.855 323.497 139.415C323.497 137.974 322.329 136.806 320.887 136.806C319.446 136.806 318.277 137.974 318.277 139.415C318.277 140.855 319.446 142.023 320.887 142.023Z" stroke="#0F1728" stroke-miterlimit="10"/>
<path d="M318.989 153.394C320.43 153.394 321.599 152.226 321.599 150.785C321.599 149.344 320.43 148.176 318.989 148.176C317.547 148.176 316.379 149.344 316.379 150.785C316.379 152.226 317.547 153.394 318.989 153.394Z" stroke="#0F1728" stroke-miterlimit="10"/>
<path d="M301.03 78.4556C299.584 78.4556 298.42 77.2916 298.42 75.8467C298.42 74.4018 299.584 73.2378 301.03 73.2378C302.476 73.2378 303.64 74.4018 303.64 75.8467C303.64 77.2916 302.476 78.4556 301.03 78.4556Z" stroke="#0F1728" stroke-miterlimit="10"/>
<path d="M320.535 70.792C323.326 71.2335 325.464 72.7386 326.599 74.6852" stroke="#0F1728" stroke-miterlimit="10"/>
<path d="M301.823 67.2383C299.052 66.6663 296.532 67.3286 294.775 68.7534" stroke="#0F1728" stroke-miterlimit="10"/>
<path d="M319.02 102.288C315.094 105.027 306.521 105.278 303.148 100.722" stroke="#0F1728" stroke-miterlimit="10"/>
<path d="M345.171 87.6499L355.531 113.357L328.728 129.854L314.664 112.424L345.171 87.6499Z" stroke="#0F1728" stroke-miterlimit="10"/>
<path d="M322.533 160.718C322.603 160.497 328.727 129.853 328.727 129.853" stroke="#0F1728" stroke-miterlimit="10"/>
<path d="M355.54 113.445L347.529 147.742C347.529 147.742 341.024 129.841 328.727 129.841C316.429 129.841 307.244 142.413 307.244 142.413L311.731 120.348" stroke="#0F1728" stroke-miterlimit="10"/>
<path d="M315.029 30.4601L311.586 31.208L313.49 39.9642L316.933 39.2163L315.029 30.4601Z" fill="#00674B"/>
<path d="M319.019 38.822C319.812 44.0197 318.256 47.06 317.162 48.6956C315.475 47.652 312.795 45.5148 311.369 40.3773C311.219 40.3773 311.068 40.3773 310.918 40.3672C309.763 40.3171 308.659 40.1565 307.625 39.9157C309.482 48.3946 314.341 51.1539 316.168 52.1875L316.248 52.2376C316.6 52.4283 316.981 52.5387 317.362 52.5587C318.176 52.5989 318.979 52.2376 319.491 51.5252L319.551 51.4449C320.786 49.7391 324.068 45.1937 322.231 36.7349C321.278 37.5476 320.213 38.2601 319.029 38.822" fill="white"/>
<path d="M370.357 146.59C364.554 138.202 366.662 126.702 375.065 120.903C383.457 115.113 394.961 117.21 400.764 125.599L418.06 150.634L418 150.674C414.256 146.69 405.321 147.694 397.371 153.183C389.42 158.671 385.314 166.668 387.724 171.585L387.663 171.625L370.367 146.59H370.357Z" fill="#EAE1CC"/>
<path d="M370.357 146.59C364.554 138.202 366.662 126.702 375.065 120.903C383.457 115.113 394.961 117.21 400.764 125.599L418.06 150.634L418 150.674C414.256 146.69 405.321 147.694 397.371 153.183C389.42 158.671 385.314 166.668 387.724 171.585L387.663 171.625L370.367 146.59H370.357Z" stroke="#0F1728" stroke-linecap="round" stroke-linejoin="round"/>
<path d="M316.66 104.063C312.735 106.802 304.162 107.053 300.789 102.498" stroke="#EAE1CC" stroke-miterlimit="10"/>
<path d="M328.557 28.0856C332.693 24.3529 336.949 24.0117 336.949 24.0117" stroke="#0F1728"/>
<path d="M180.195 265.012L180.948 264.149L180.195 265.022V265.012Z" fill="#EAE1CC"/>
<path d="M188.266 268.363C186.138 266.567 185.887 263.407 187.694 261.309L189.461 259.463L195.765 252.148C197.572 250.041 200.774 249.79 202.892 251.586C205.021 253.382 205.272 256.543 203.465 258.64L197.16 265.955L195.394 267.802C193.587 269.909 190.384 270.16 188.266 268.363Z" fill="#EAE1CC"/>
<path d="M188.266 268.363C186.138 266.567 185.887 263.407 187.694 261.309L189.461 259.463L195.765 252.148C197.572 250.041 200.774 249.79 202.892 251.586C205.021 253.382 205.272 256.543 203.465 258.64L197.16 265.955L195.394 267.802C193.587 269.909 190.384 270.16 188.266 268.363Z" stroke="#0F1728" stroke-miterlimit="10"/>
<path d="M180.516 261.892C178.388 260.096 178.137 256.935 179.944 254.838L181.711 252.992L188.015 245.677C189.822 243.57 193.024 243.319 195.142 245.115C197.271 246.911 197.522 250.072 195.715 252.169L189.41 259.484L187.644 261.33C185.837 263.438 182.634 263.688 180.516 261.892Z" fill="#EAE1CC"/>
<path d="M180.516 261.892C178.388 260.096 178.137 256.935 179.944 254.838L181.711 252.992L188.015 245.677C189.822 243.57 193.024 243.319 195.142 245.115C197.271 246.911 197.522 250.072 195.715 252.169L189.41 259.484L187.644 261.33C185.837 263.437 182.634 263.688 180.516 261.892Z" stroke="#0F1728" stroke-miterlimit="10"/>
<path d="M166.273 270.742L183.218 251.065L175.518 244.563L158.573 264.24C156.756 266.347 157.017 269.508 159.145 271.294C161.273 273.09 164.466 272.839 166.273 270.732" fill="#EAE1CC"/>
<path d="M166.273 270.742L183.218 251.065L175.518 244.563L158.573 264.24C156.756 266.347 157.017 269.508 159.145 271.294C161.273 273.09 164.466 272.839 166.273 270.732V270.742Z" stroke="#0F1728" stroke-miterlimit="10"/>
<path d="M177.082 239.145C179.502 237.771 182.594 238.593 183.989 240.992L186.428 246.661C187.824 249.059 186.991 252.12 184.571 253.494C182.152 254.869 179.06 254.046 177.665 251.648L175.225 245.979C173.83 243.58 174.663 240.52 177.082 239.145Z" fill="#EAE1CC"/>
<path d="M177.082 239.145C179.502 237.771 182.594 238.593 183.989 240.992L186.428 246.661C187.824 249.059 186.991 252.12 184.571 253.494C182.152 254.869 179.06 254.046 177.665 251.648L175.225 245.979C173.83 243.58 174.663 240.52 177.082 239.145Z" stroke="#0F1728" stroke-miterlimit="10"/>
<path d="M450.349 233.329L420.96 240.97C417.681 241.822 415.715 245.17 416.567 248.447C417.42 251.724 420.769 253.689 424.048 252.837L453.437 245.196C456.715 244.343 458.681 240.996 457.829 237.719C456.976 234.442 453.627 232.477 450.349 233.329Z" fill="#EAE2CF"/>
<path d="M451.95 245.496L425.107 252.6C420.821 253.714 417.418 251.717 416.564 248.456C415.711 245.195 417.879 241.351 422.818 240.499L434.393 237.488" fill="#EAE2CF"/>
<path d="M451.95 245.496L425.107 252.6C420.821 253.714 417.418 251.717 416.564 248.456C415.711 245.195 417.879 241.351 422.818 240.499L434.393 237.488" stroke="#0F1728" stroke-miterlimit="10"/>
<path d="M448.859 245.608L488.522 250.926C491.212 251.328 493.732 249.532 494.244 246.863C494.786 244.043 492.869 241.334 490.028 240.912L462.311 236.728" fill="#EAE2CF"/>
<path d="M448.859 245.608L488.522 250.926C491.212 251.328 493.732 249.532 494.244 246.863C494.786 244.043 492.869 241.334 490.028 240.912L462.311 236.728" stroke="#0F1728" stroke-miterlimit="10" stroke-linecap="round"/>
<path d="M0 469.438H678" stroke="#0F1728" stroke-miterlimit="10"/>
</svg>
