<svg width="401" height="649" viewBox="0 0 401 649" fill="none" xmlns="http://www.w3.org/2000/svg">
<g clip-path="url(#clip0_317_1202)">
<path d="M345.429 256.396L343.625 247.4L332.749 230.462L289.48 163.6L282.954 157.191L274.076 152.733L254.186 147.114L237.147 144.293L227.206 118.02L234.456 101.317L243.866 99.3579L250.214 92.3686L253.622 86.5321L250.955 78.1481L244.374 74.4156L229.172 73.7949L151.865 62.5571L150.649 84.5409L153.855 109.959L167.945 139.23L170.757 144.301L155.934 148.598L152.687 150.871L149.561 151.975L141.586 158.642L139.797 159.9L139.306 160.553L136.696 162.729L128.583 172.806L121.285 184.979L115.645 199.28L108.983 214.372L97.4304 157.28L92.0973 131.499L90.0349 128.524L85.8297 127.67L82.0755 128.049L79.6587 129.911L78.3294 132.152L78.1119 137.223L81.8097 163.052L7.37138 163.165L4.26173 164.785L1.68378 167.349L0.837891 172.105L2.07047 175.104L6.03407 178.264L8.66841 178.724L28.43 179.514L25.2559 181.489L24.0233 186.567L25.0787 190.493L26.3596 192.154L29.4853 194.04L33.0703 194.403H37.759L36.6472 196.128L34.1982 199.546L33.7712 203.174L35.616 207.358L38.7418 209.559L41.5453 210.083H53.5328L54.4753 211.687L52.6466 210.083L59.027 236.355L73.1091 294.261L78.7242 301.67L83.2114 305.047L92.3148 308.417L102.699 306.176L106.292 304.007L110.586 301.049L105.946 338.656L124.563 338.567L234.376 338.067L229.196 344.67L273.52 376.601L326.119 299.356L340.346 278.469L345.759 267.142L345.461 256.436L345.429 256.396ZM275.349 285.813L268.34 240.217L286.249 271.939L275.357 285.813H275.349Z" fill="#E9E1CE"/>
<path d="M163.297 76.4636C166.793 73.9162 170.692 73.2954 173.971 74.2547" stroke="#101727" stroke-width="2" stroke-miterlimit="10"/>
<path d="M117.45 338.527L114.848 592.013L203.811 592.158L203.304 387.444L233.039 338.527H117.45Z" fill="#01654D"/>
<path d="M108.652 338.624H132.514V386.678C119.343 386.678 108.652 375.981 108.652 362.8V338.624Z" fill="#01654D"/>
<path d="M233.039 338.527L229.156 344.629L273.481 376.561L286.628 357.262L347.122 592.013L258.158 592.158L194.588 387.444L146.799 338.527H233.039Z" fill="#01654D"/>
<path d="M237.132 144.293L263.677 148.695C269.743 149.702 275.527 152.04 280.651 155.555C285.509 158.884 289.657 163.205 292.864 168.252L340.854 243.869C347.541 254.405 347.323 268.126 340.306 278.428L273.481 376.561L229.156 344.63L286.242 271.939L248.434 202.32" stroke="#101727" stroke-width="2" stroke-miterlimit="10"/>
<path d="M234.336 338.624H105.906L123.694 189.405" stroke="#101727" stroke-width="2" stroke-miterlimit="10"/>
<path d="M193.225 598.414L191.783 648.202H85.4101C85.4101 648.202 70.3129 614.715 122.557 614.715C123.765 604.501 121.743 597.777 121.743 597.777L193.225 598.414Z" fill="#E9E1CE"/>
<path d="M193.225 598.414L191.783 648.202H85.4101C85.4101 648.202 70.3129 614.715 122.557 614.715C123.894 606.476 121.743 597.777 121.743 597.777L193.225 598.414Z" stroke="#101727" stroke-width="2" stroke-miterlimit="10"/>
<path d="M264.111 598.479L272.892 648.194H379.265C379.265 648.194 394.362 614.707 342.118 614.707C340.282 605.105 338.397 597.81 338.397 597.81L264.111 598.471V598.479Z" fill="#E9E1CE" stroke="#101727" stroke-width="2" stroke-miterlimit="10"/>
<path d="M151.848 62.5571C145.283 115.521 166.986 141.673 175.163 151.516L175.582 152.024C178.933 156.071 183.895 157.876 188.673 157.215C190.904 156.909 193.104 156.055 195.077 154.644L195.504 154.337C205.808 147.001 233.142 127.517 239.845 74.464L151.848 62.5652V62.5571Z" stroke="#101727" stroke-width="2" stroke-miterlimit="10"/>
<path d="M195.925 0.314224L212.553 2.55532C232.258 5.20756 246.163 23.9506 243.601 44.4026L239.839 74.4559L151.834 62.5975L155.596 32.5441C158.166 12.0921 176.212 -2.33801 195.925 0.314224Z" fill="#E8BD51"/>
<path d="M239.854 74.4158L128.664 59.4294C126.554 59.1473 125.071 57.1399 125.345 54.9553C125.619 52.7706 127.552 51.2228 129.655 51.513L176.775 57.8655" fill="#E8BD51"/>
<path d="M239.854 74.4158L128.664 59.4294C126.554 59.1473 125.071 57.1399 125.345 54.9553C125.619 52.7706 127.552 51.2228 129.655 51.513L176.775 57.8655" stroke="#101727" stroke-width="2" stroke-miterlimit="10"/>
<path d="M239.845 74.4644C249.972 70.877 255.885 82.5098 250.93 91.9176C245.976 101.325 239.072 100.971 233.602 100.745" stroke="#101727" stroke-width="2" stroke-miterlimit="10"/>
<path d="M190.47 76.5117C189.181 87.3061 183.558 97.915 174.406 104.775C168.823 108.959 178.482 113.272 187.094 104.179" stroke="#101727" stroke-width="2" stroke-miterlimit="10"/>
<path d="M199.356 109.951C217.393 101.881 220.64 89.7728 223.975 72.3115L239.854 74.4559C233.151 127.509 205.817 146.993 195.513 154.329L195.086 154.636C193.112 156.055 190.921 156.901 188.681 157.207C183.904 157.868 178.942 156.063 175.59 152.016L175.171 151.508C169.645 144.849 157.947 130.749 152.969 105.968C166.326 115.521 183.824 116.892 199.364 109.943L199.356 109.951Z" fill="#101727" stroke="#101727" stroke-width="2" stroke-miterlimit="10"/>
<path d="M200.838 91.0709C203.014 91.0709 204.777 89.241 204.777 86.9837C204.777 84.7264 203.014 82.8965 200.838 82.8965C198.662 82.8965 196.898 84.7264 196.898 86.9837C196.898 89.241 198.662 91.0709 200.838 91.0709Z" stroke="#101727" stroke-width="2" stroke-miterlimit="10"/>
<path d="M185.338 192.13C187.514 192.13 189.277 190.3 189.277 188.043C189.277 185.785 187.514 183.956 185.338 183.956C183.162 183.956 181.398 185.785 181.398 188.043C181.398 190.3 183.162 192.13 185.338 192.13Z" stroke="#101727" stroke-width="2" stroke-miterlimit="10"/>
<path d="M184.75 210.704C186.926 210.704 188.689 208.874 188.689 206.616C188.689 204.359 186.926 202.529 184.75 202.529C182.574 202.529 180.811 204.359 180.811 206.616C180.811 208.874 182.574 210.704 184.75 210.704Z" stroke="#101727" stroke-width="2" stroke-miterlimit="10"/>
<path d="M170.66 89.483C172.836 89.483 174.6 87.6531 174.6 85.3958C174.6 83.1385 172.836 81.3086 170.66 81.3086C168.484 81.3086 166.721 83.1385 166.721 85.3958C166.721 87.6531 168.484 89.483 170.66 89.483Z" stroke="#101727" stroke-width="2" stroke-miterlimit="10"/>
<path d="M200.879 76.5117C205.149 76.6165 208.637 78.519 210.731 81.3083" stroke="#101727" stroke-width="2" stroke-miterlimit="10"/>
<path d="M196.947 125.913C191.622 130.991 178.845 133.144 172.867 126.767" stroke="#E9E1CE" stroke-width="2" stroke-miterlimit="10"/>
<path d="M210.384 2.16057C199.581 0.628885 192.25 7.92455 192.25 7.92455" stroke="#101727" stroke-width="2" stroke-miterlimit="10"/>
<path d="M221.494 103.978L237.131 144.293L196.657 170.179L183.445 150.742L221.494 103.978Z" stroke="#101727" stroke-width="2" stroke-miterlimit="10"/>
<path d="M194.104 224.481C194.216 224.134 196.657 170.179 196.657 170.179" stroke="#101727" stroke-width="2" stroke-miterlimit="10"/>
<path d="M207.371 605.113H109.667L106.469 577.696H210.578L207.371 605.113Z" fill="#01654D"/>
<path d="M254.589 605.113H352.293L355.5 577.696H251.383L254.589 605.113Z" fill="#01654D"/>
<path d="M237.155 144.446L225.054 198.257C225.054 198.257 215.242 170.179 196.665 170.179C178.087 170.179 168.67 193.299 168.67 193.299L171.514 147.002" stroke="#101727" stroke-width="2" stroke-miterlimit="10"/>
<path d="M106.469 577.696H210.578" stroke="#101727" stroke-width="2" stroke-miterlimit="10"/>
<path d="M109.668 605.113H207.372" stroke="#101727" stroke-width="2" stroke-miterlimit="10"/>
<path d="M251.383 577.696H355.5" stroke="#101727" stroke-width="2" stroke-miterlimit="10"/>
<path d="M254.588 605.113H352.292" stroke="#101727" stroke-width="2" stroke-miterlimit="10"/>
<path d="M180.869 28.7959L175.641 15.833L170.734 17.9693L175.955 30.9242L180.869 28.7959Z" fill="#01654D"/>
<path d="M172.989 32.3025C176.51 39.6868 181.077 42.1939 183.841 43.3145C185.017 40.4688 186.491 35.2933 183.808 27.4091C183.994 27.264 184.179 27.135 184.364 26.9819C185.75 25.8694 186.974 24.6843 188.046 23.4429C193.097 36.0108 189.472 43.9191 188.11 46.8938L188.054 47.0147C187.796 47.5871 187.418 48.0627 186.958 48.4255C185.992 49.2075 184.67 49.4654 183.438 49.022L183.285 48.9656C180.272 47.8773 172.28 44.9993 167.213 32.4718C169.098 32.6733 171.031 32.6169 172.989 32.2863V32.3025Z" fill="white"/>
<path d="M176.25 114.224C161.508 110.846 154.281 104.308 150.793 88.4268C152.388 103.002 155.989 111.321 155.989 111.321L176.25 114.224Z" fill="#101727" stroke="#101727" stroke-width="2" stroke-miterlimit="10"/>
<path d="M220.818 338.624L284.671 384.623" stroke="#101727" stroke-width="2" stroke-miterlimit="10"/>
<path d="M275.342 285.813L267.27 237.008" stroke="#101727" stroke-width="2" stroke-miterlimit="10"/>
<path d="M264.279 231.511C275.501 216.492 295.336 203.481 316.128 204.916" stroke="#101727" stroke-width="2" stroke-miterlimit="10"/>
<path d="M62.7012 648.178H401.001" stroke="#101727" stroke-width="2" stroke-miterlimit="10"/>
<path d="M189.287 140.794C189.287 140.794 172.256 143.011 157.393 148.163C142.529 153.314 127.126 170.912 119.859 188.76" stroke="#101727" stroke-width="2" stroke-miterlimit="10"/>
<path d="M69.0802 178.716H31.8208C27.4961 178.716 23.9902 182.224 23.9902 186.552C23.9902 190.879 27.4961 194.387 31.8208 194.387H69.0802C73.4049 194.387 76.9107 190.879 76.9107 186.552C76.9107 182.224 73.4049 178.716 69.0802 178.716Z" stroke="#101727" stroke-width="2" stroke-miterlimit="10"/>
<path d="M73.954 194.396H41.5122C37.1875 194.396 33.6816 197.904 33.6816 202.231C33.6816 206.559 37.1875 210.067 41.5122 210.067H73.954C78.2787 210.067 81.7846 206.559 81.7846 202.231C81.7846 197.904 78.2787 194.396 73.954 194.396Z" stroke="#101727" stroke-width="2" stroke-miterlimit="10"/>
<path d="M50.4463 178.716H8.63521C4.30909 178.716 0.804688 175.209 0.804688 170.88C0.804688 166.551 4.30909 163.044 8.63521 163.044H81.7765L77.8934 135.869C77.3376 131.975 79.8752 128.307 83.718 127.469C87.8105 126.566 91.8466 129.194 92.6844 133.305L108.74 214.88L119.866 188.768" stroke="#101727" stroke-width="2" stroke-miterlimit="10"/>
<path d="M52.6152 210.067L71.9821 289.819C76.4532 308.216 99.0828 314.73 110.547 299.663" stroke="#101727" stroke-width="2" stroke-miterlimit="10"/>
<path d="M111.713 207.89C115.427 206.713 119.785 207.27 121.251 211.389" stroke="#101727" stroke-width="2" stroke-miterlimit="10"/>
</g>
<defs>
<clipPath id="clip0_317_1202">
<rect width="401" height="649" fill="white"/>
</clipPath>
</defs>
</svg>
