<svg width="32" height="32" viewBox="0 0 32 32" fill="none" xmlns="http://www.w3.org/2000/svg">
<path d="M19.626 11.7198L13.906 17.4532L11.706 15.2532C11.5865 15.1136 11.4394 15.0002 11.274 14.9202C11.1086 14.8402 10.9284 14.7952 10.7448 14.7881C10.5611 14.781 10.378 14.812 10.2069 14.879C10.0358 14.946 9.88043 15.0477 9.75049 15.1776C9.62055 15.3076 9.51887 15.463 9.45184 15.6341C9.38481 15.8052 9.35386 15.9883 9.36096 16.1719C9.36805 16.3555 9.41302 16.5357 9.49305 16.7011C9.57309 16.8666 9.68645 17.0136 9.82602 17.1332L12.9594 20.2798C13.0839 20.4034 13.2317 20.5012 13.3941 20.5675C13.5566 20.6339 13.7305 20.6675 13.906 20.6665C14.2558 20.665 14.591 20.5262 14.8394 20.2798L21.506 13.6132C21.631 13.4892 21.7302 13.3418 21.7979 13.1793C21.8656 13.0168 21.9004 12.8425 21.9004 12.6665C21.9004 12.4905 21.8656 12.3162 21.7979 12.1537C21.7302 11.9913 21.631 11.8438 21.506 11.7198C21.2562 11.4715 20.9183 11.3321 20.566 11.3321C20.2138 11.3321 19.8758 11.4715 19.626 11.7198ZM15.9994 2.6665C13.3623 2.6665 10.7844 3.44849 8.59175 4.91358C6.3991 6.37866 4.69013 8.46104 3.68096 10.8974C2.67179 13.3337 2.40775 16.0146 2.92222 18.601C3.43669 21.1875 4.70656 23.5632 6.57126 25.4279C8.43597 27.2926 10.8117 28.5625 13.3982 29.077C15.9846 29.5914 18.6655 29.3274 21.1018 28.3182C23.5382 27.3091 25.6205 25.6001 27.0856 23.4074C28.5507 21.2148 29.3327 18.6369 29.3327 15.9998C29.3327 14.2489 28.9878 12.5151 28.3177 10.8974C27.6477 9.27972 26.6656 7.80986 25.4274 6.57175C24.1893 5.33363 22.7195 4.35151 21.1018 3.68144C19.4841 3.01138 17.7503 2.6665 15.9994 2.6665ZM15.9994 26.6665C13.8897 26.6665 11.8274 26.0409 10.0733 24.8688C8.31915 23.6968 6.95198 22.0309 6.14464 20.0818C5.33731 18.1327 5.12607 15.988 5.53765 13.9189C5.94922 11.8497 6.96512 9.94913 8.45688 8.45737C9.94864 6.96561 11.8493 5.9497 13.9184 5.53813C15.9875 5.12655 18.1322 5.33779 20.0813 6.14512C22.0304 6.95246 23.6963 8.31963 24.8684 10.0738C26.0404 11.8279 26.666 13.8902 26.666 15.9998C26.666 18.8288 25.5422 21.5419 23.5418 23.5423C21.5414 25.5427 18.8283 26.6665 15.9994 26.6665Z" fill="#01654D"/>
</svg>
