<svg width="32" height="32" viewBox="0 0 32 32" fill="none" xmlns="http://www.w3.org/2000/svg">
<path d="M26.546 20.6803H20.506C20.1524 20.6803 19.8133 20.8208 19.5632 21.0709C19.3132 21.3209 19.1727 21.66 19.1727 22.0137C19.1727 22.3673 19.3132 22.7064 19.5632 22.9565C19.8133 23.2065 20.1524 23.347 20.506 23.347H23.706C22.2353 24.884 20.3386 25.9461 18.2596 26.3969C16.1806 26.8476 14.0143 26.6665 12.0391 25.8767C10.0638 25.0868 8.36984 23.7245 7.1748 21.9646C5.97977 20.2046 5.33825 18.1276 5.33268 16.0003C5.33268 15.6467 5.19221 15.3076 4.94216 15.0575C4.69211 14.8075 4.35297 14.667 3.99935 14.667C3.64573 14.667 3.30659 14.8075 3.05654 15.0575C2.80649 15.3076 2.66602 15.6467 2.66602 16.0003C2.67306 18.6041 3.44231 21.1488 4.87882 23.3204C6.31533 25.492 8.35624 27.1955 10.7497 28.2206C13.1431 29.2458 15.7843 29.5477 18.3474 29.0892C20.9104 28.6306 23.2831 27.4317 25.1727 25.6403V28.0003C25.1727 28.3539 25.3132 28.6931 25.5632 28.9431C25.8133 29.1932 26.1524 29.3337 26.506 29.3337C26.8596 29.3337 27.1988 29.1932 27.4488 28.9431C27.6989 28.6931 27.8393 28.3539 27.8393 28.0003V22.0003C27.8361 21.6558 27.6996 21.326 27.4585 21.0799C27.2174 20.8338 26.8904 20.6906 26.546 20.6803ZM19.9993 16.0003C19.9993 15.2092 19.7648 14.4358 19.3252 13.778C18.8857 13.1202 18.261 12.6076 17.5301 12.3048C16.7992 12.0021 15.9949 11.9228 15.219 12.0772C14.4431 12.2315 13.7303 12.6125 13.1709 13.1719C12.6115 13.7313 12.2305 14.444 12.0762 15.22C11.9219 15.9959 12.0011 16.8002 12.3038 17.5311C12.6066 18.262 13.1193 18.8867 13.7771 19.3262C14.4349 19.7657 15.2082 20.0003 15.9993 20.0003C17.0602 20.0003 18.0776 19.5789 18.8278 18.8288C19.5779 18.0786 19.9993 17.0612 19.9993 16.0003ZM14.666 16.0003C14.666 15.7366 14.7442 15.4788 14.8907 15.2596C15.0372 15.0403 15.2455 14.8694 15.4891 14.7685C15.7327 14.6676 16.0008 14.6412 16.2595 14.6926C16.5181 14.7441 16.7557 14.871 16.9422 15.0575C17.1286 15.244 17.2556 15.4816 17.3071 15.7402C17.3585 15.9988 17.3321 16.2669 17.2312 16.5106C17.1303 16.7542 16.9594 16.9624 16.7401 17.109C16.5208 17.2555 16.2631 17.3337 15.9993 17.3337C15.6457 17.3337 15.3066 17.1932 15.0565 16.9431C14.8065 16.6931 14.666 16.3539 14.666 16.0003ZM15.9993 2.66699C12.5812 2.67674 9.29734 3.99888 6.82602 6.36033V4.00033C6.82602 3.6467 6.68554 3.30756 6.43549 3.05752C6.18544 2.80747 5.8463 2.66699 5.49268 2.66699C5.13906 2.66699 4.79992 2.80747 4.54987 3.05752C4.29982 3.30756 4.15935 3.6467 4.15935 4.00033V10.0003C4.15935 10.3539 4.29982 10.6931 4.54987 10.9431C4.79992 11.1932 5.13906 11.3337 5.49268 11.3337H11.4927C11.8463 11.3337 12.1854 11.1932 12.4355 10.9431C12.6855 10.6931 12.826 10.3539 12.826 10.0003C12.826 9.6467 12.6855 9.30757 12.4355 9.05752C12.1854 8.80747 11.8463 8.66699 11.4927 8.66699H8.29268C9.76264 7.13082 11.6581 6.06899 13.7359 5.6178C15.8136 5.16661 17.9788 5.34665 19.9535 6.13481C21.9282 6.92297 23.6223 8.28327 24.8183 10.0411C26.0144 11.799 26.6578 13.8742 26.666 16.0003C26.666 16.3539 26.8065 16.6931 27.0565 16.9431C27.3066 17.1932 27.6457 17.3337 27.9993 17.3337C28.353 17.3337 28.6921 17.1932 28.9422 16.9431C29.1922 16.6931 29.3327 16.3539 29.3327 16.0003C29.3327 14.2494 28.9878 12.5156 28.3177 10.8979C27.6477 9.2802 26.6656 7.81035 25.4274 6.57224C24.1893 5.33412 22.7195 4.35199 21.1018 3.68193C19.4841 3.01187 17.7503 2.66699 15.9993 2.66699Z" fill="#01654D"/>
</svg>
