<svg width="32" height="32" viewBox="0 0 32 32" fill="none" xmlns="http://www.w3.org/2000/svg">
<path d="M14.6667 15.8666V22.6666C14.6667 23.0202 14.8071 23.3594 15.0572 23.6094C15.3072 23.8595 15.6464 23.9999 16 23.9999C16.3536 23.9999 16.6928 23.8595 16.9428 23.6094C17.1929 23.3594 17.3333 23.0202 17.3333 22.6666V15.8666C18.9521 15.5362 20.3904 14.6165 21.3696 13.2858C22.3488 11.9552 22.799 10.3083 22.6329 8.66458C22.4669 7.02084 21.6964 5.49731 20.4709 4.38936C19.2454 3.28141 17.6521 2.66797 16 2.66797C14.3479 2.66797 12.7546 3.28141 11.5291 4.38936C10.3036 5.49731 9.53314 7.02084 9.36709 8.66458C9.20104 10.3083 9.65124 11.9552 10.6304 13.2858C11.6096 14.6165 13.0479 15.5362 14.6667 15.8666ZM16 5.33327C16.7911 5.33327 17.5645 5.56787 18.2223 6.0074C18.8801 6.44692 19.3928 7.07164 19.6955 7.80254C19.9983 8.53345 20.0775 9.33771 19.9231 10.1136C19.7688 10.8896 19.3878 11.6023 18.8284 12.1617C18.269 12.7211 17.5563 13.1021 16.7804 13.2564C16.0044 13.4108 15.2002 13.3315 14.4693 13.0288C13.7384 12.726 13.1136 12.2134 12.6741 11.5556C12.2346 10.8978 12 10.1244 12 9.33327C12 8.27241 12.4214 7.25499 13.1716 6.50485C13.9217 5.7547 14.9391 5.33327 16 5.33327ZM21.6133 19.2266C21.4382 19.1898 21.2576 19.1879 21.0818 19.221C20.9059 19.254 20.7383 19.3213 20.5885 19.4191C20.4387 19.517 20.3096 19.6433 20.2086 19.791C20.1077 19.9387 20.0368 20.1048 20 20.2799C19.9632 20.455 19.9613 20.6357 19.9943 20.8115C20.0274 20.9873 20.0947 21.1549 20.1925 21.3048C20.2903 21.4546 20.4167 21.5837 20.5644 21.6846C20.7121 21.7856 20.8782 21.8565 21.0533 21.8933C24.08 22.4933 25.3333 23.5733 25.3333 23.9999C25.3333 24.7733 22.0667 26.6666 16 26.6666C9.93333 26.6666 6.66667 24.7733 6.66667 23.9999C6.66667 23.5733 7.92 22.4933 10.9467 21.8399C11.1218 21.8032 11.2879 21.7323 11.4356 21.6313C11.5833 21.5303 11.7097 21.4012 11.8075 21.2514C11.9053 21.1016 11.9726 20.934 12.0057 20.7582C12.0387 20.5823 12.0368 20.4017 12 20.2266C11.9632 20.0515 11.8923 19.8854 11.7914 19.7377C11.6904 19.59 11.5613 19.4636 11.4115 19.3658C11.2617 19.268 11.0941 19.2007 10.9182 19.1676C10.7424 19.1346 10.5618 19.1365 10.3867 19.1733C6.33333 20.1066 4 21.8533 4 23.9999C4 27.5066 10.04 29.3333 16 29.3333C21.96 29.3333 28 27.5066 28 23.9999C28 21.8533 25.6667 20.1066 21.6133 19.2266Z" fill="#01654D"/>
</svg>
