<svg width="32" height="26" viewBox="0 0 32 26" fill="none" xmlns="http://www.w3.org/2000/svg">
<g id="Outline_Old_Icons" clip-path="url(#clip0_312_947)">
<path id="Vector" d="M28.666 0.666504H3.33268C1.85992 0.666504 0.666016 1.86041 0.666016 3.33317V21.9998C0.666016 23.4726 1.85992 24.6665 3.33268 24.6665H28.666C30.1388 24.6665 31.3327 23.4726 31.3327 21.9998V3.33317C31.3327 1.86041 30.1388 0.666504 28.666 0.666504Z" stroke="#01654D" stroke-width="2" stroke-linecap="round" stroke-linejoin="round"/>
<path id="Vector_2" d="M0.666016 7.3335H31.3327" stroke="#01654D" stroke-width="2" stroke-linecap="round" stroke-linejoin="round"/>
<path id="Vector_3" d="M5.33268 4.66683C5.70087 4.66683 5.99935 4.36835 5.99935 4.00016C5.99935 3.63197 5.70087 3.3335 5.33268 3.3335C4.96449 3.3335 4.66602 3.63197 4.66602 4.00016C4.66602 4.36835 4.96449 4.66683 5.33268 4.66683Z" stroke="#01654D" stroke-width="2" stroke-linecap="round" stroke-linejoin="round"/>
<path id="Vector_4" d="M9.33268 4.66683C9.70087 4.66683 9.99935 4.36835 9.99935 4.00016C9.99935 3.63197 9.70087 3.3335 9.33268 3.3335C8.96449 3.3335 8.66602 3.63197 8.66602 4.00016C8.66602 4.36835 8.96449 4.66683 9.33268 4.66683Z" stroke="#01654D" stroke-width="2" stroke-linecap="round" stroke-linejoin="round"/>
<path id="Vector_5" d="M13.3327 4.66683C13.7009 4.66683 13.9993 4.36835 13.9993 4.00016C13.9993 3.63197 13.7009 3.3335 13.3327 3.3335C12.9645 3.3335 12.666 3.63197 12.666 4.00016C12.666 4.36835 12.9645 4.66683 13.3327 4.66683Z" stroke="#01654D" stroke-width="2" stroke-linecap="round" stroke-linejoin="round"/>
<path id="Vector_6" d="M7.33398 12.6665L10.6673 15.9998L7.33398 19.3332" stroke="#01654D" stroke-width="2" stroke-linecap="round" stroke-linejoin="round"/>
<path id="Vector_7" d="M15.334 16.6665H20.6673" stroke="#01654D" stroke-width="2" stroke-linecap="round" stroke-linejoin="round"/>
</g>
<defs>
<clipPath id="clip0_312_947">
<rect width="32" height="25.3333" fill="white"/>
</clipPath>
</defs>
</svg>
