<svg width="580" height="457" viewBox="0 0 580 457" fill="none" xmlns="http://www.w3.org/2000/svg">
<g clip-path="url(#clip0_493_102)">
<path d="M479.439 30.7114H309.352V456.126H479.439V30.7114Z" fill="#01654D" stroke="#101727" stroke-width="2" stroke-miterlimit="10"/>
<path d="M336.007 30.7114H99.2129V456.126H336.007V30.7114Z" fill="#E9E1CE" stroke="#101727" stroke-width="2" stroke-linejoin="round"/>
<path d="M309.361 67.8145H125.861V117.982H309.361V67.8145Z" fill="#01654D" stroke="#101727" stroke-width="2" stroke-miterlimit="10"/>
<path d="M309.361 117.982H125.861V168.15H309.361V117.982Z" fill="#01654D" stroke="#101727" stroke-width="2" stroke-miterlimit="10"/>
<path d="M309.361 168.158H125.861V218.326H309.361V168.158Z" fill="#01654D" stroke="#101727" stroke-width="2" stroke-miterlimit="10"/>
<path d="M309.361 218.326H125.861V268.494H309.361V218.326Z" fill="#01654D" stroke="#101727" stroke-width="2" stroke-miterlimit="10"/>
<path d="M309.361 268.502H125.861V318.67H309.361V268.502Z" fill="#01654D" stroke="#101727" stroke-width="2" stroke-miterlimit="10"/>
<path d="M309.361 318.67H125.861V368.838H309.361V318.67Z" fill="#01654D" stroke="#101727" stroke-width="2" stroke-miterlimit="10"/>
<path d="M309.361 368.847H125.861V419.014H309.361V368.847Z" fill="#01654D" stroke="#101727" stroke-width="2" stroke-miterlimit="10"/>
<path d="M187.023 67.8145V419.015" stroke="#101727" stroke-width="2" stroke-miterlimit="10"/>
<path d="M248.188 67.8145V419.015" stroke="#101727" stroke-width="2" stroke-miterlimit="10"/>
<path d="M36.481 144.403C56.1424 144.403 72.0811 128.436 72.0811 108.739C72.0811 89.0429 56.1424 73.0757 36.481 73.0757C16.8196 73.0757 0.880859 89.0429 0.880859 108.739C0.880859 128.436 16.8196 144.403 36.481 144.403Z" fill="#E9E1CE" stroke="#101727" stroke-width="2" stroke-linejoin="round"/>
<path d="M543.518 72.2104C563.179 72.2104 579.118 56.2432 579.118 36.5466C579.118 16.85 563.179 0.882812 543.518 0.882812C523.857 0.882812 507.918 16.85 507.918 36.5466C507.918 56.2432 523.857 72.2104 543.518 72.2104Z" fill="#E9E1CE" stroke="#101727" stroke-width="2" stroke-linejoin="round"/>
<path d="M543.518 415.951C563.179 415.951 579.118 399.984 579.118 380.287C579.118 360.591 563.179 344.624 543.518 344.624C523.857 344.624 507.918 360.591 507.918 380.287C507.918 399.984 523.857 415.951 543.518 415.951Z" fill="#E9E1CE" stroke="#101727" stroke-width="2" stroke-linejoin="round"/>
<path d="M13.1211 123.747H59.8507" stroke="#101727" stroke-width="2" stroke-linejoin="round"/>
<path d="M27.5724 107.115H17.7207V123.747H27.5724V107.115Z" fill="#01654D" stroke="#101727" stroke-width="2" stroke-miterlimit="10"/>
<path d="M41.4064 93.7324H31.5547V123.755H41.4064V93.7324Z" fill="#E8BD51" stroke="#101727" stroke-width="2" stroke-miterlimit="10"/>
<path d="M55.2502 105.412H45.3984V123.747H55.2502V105.412Z" fill="#01654D" stroke="#101727" stroke-width="2" stroke-miterlimit="10"/>
<path d="M541.818 19.3682C552.216 19.3682 560.658 27.8251 560.658 38.2417V43.3176H522.979V38.2417C522.979 27.8251 531.42 19.3682 541.818 19.3682Z" fill="#01654D" stroke="#101727" stroke-width="2" stroke-miterlimit="10"/>
<path d="M550.04 41.561H565.444C566.853 41.561 567.99 42.7086 567.99 44.1122C567.99 45.5247 566.845 46.6634 565.444 46.6634H521.595C520.186 46.6634 519.049 45.5158 519.049 44.1122C519.049 42.6998 520.194 41.561 521.595 41.561H524.794" fill="#01654D"/>
<path d="M550.04 41.561H565.444C566.853 41.561 567.99 42.7086 567.99 44.1122C567.99 45.5247 566.845 46.6634 565.444 46.6634H521.595C520.186 46.6634 519.049 45.5158 519.049 44.1122C519.049 42.6998 520.194 41.561 521.595 41.561H524.794" stroke="#101727" stroke-width="2" stroke-miterlimit="10"/>
<path d="M545.792 19.7832C551.97 21.5752 556.27 23.6939 556.27 34.2783H551.926C551.926 26.042 545.942 19.8185 537.721 19.8185" fill="#01654D"/>
<path d="M545.792 19.7832C551.97 21.5752 556.27 23.6939 556.27 34.2783H551.926C551.926 26.042 545.942 19.8185 537.721 19.8185" stroke="#101727" stroke-width="2" stroke-miterlimit="10"/>
<path d="M543.518 400.22C554.507 400.22 563.416 391.296 563.416 380.287C563.416 369.279 554.507 360.354 543.518 360.354C532.529 360.354 523.621 369.279 523.621 380.287C523.621 391.296 532.529 400.22 543.518 400.22Z" fill="#01654D" stroke="#101727" stroke-width="2" stroke-miterlimit="10"/>
<path d="M543.517 396.469C552.438 396.469 559.67 389.224 559.67 380.288C559.67 371.351 552.438 364.106 543.517 364.106C534.597 364.106 527.365 371.351 527.365 380.288C527.365 389.224 534.597 396.469 543.517 396.469Z" fill="#E8BD51" stroke="#101727" stroke-width="2" stroke-miterlimit="10"/>
<path d="M532.996 378.751L535.596 382.627L538.583 379.043" stroke="#101727" stroke-width="2" stroke-linejoin="round"/>
<path d="M554.04 382.768L551.44 378.893L548.453 382.477" stroke="#101727" stroke-width="2" stroke-linejoin="round"/>
<path d="M551.414 378.928C552.189 383.041 549.29 387.085 545.342 388.011C542.584 388.665 539.826 387.791 537.949 385.937" stroke="#101727" stroke-width="2" stroke-linejoin="round"/>
<path d="M535.595 382.609C534.37 378.045 537.428 373.569 541.693 372.563C544.636 371.866 547.579 372.907 549.456 375.026" stroke="#101727" stroke-width="2" stroke-linejoin="round"/>
<path d="M153.777 193.246L65.7988 128.972" stroke="#101727" stroke-width="2" stroke-linejoin="round"/>
<path d="M36.4805 295.666L156.437 343.759" stroke="#101727" stroke-width="2" stroke-linejoin="round"/>
<path d="M508.808 372.351L277.848 293.591" stroke="#101727" stroke-width="2" stroke-linejoin="round"/>
<path d="M510.51 49.9204L277.355 144.403" stroke="#101727" stroke-width="2" stroke-linejoin="round"/>
<path d="M156.438 198.217C159.178 198.217 161.399 195.992 161.399 193.247C161.399 190.502 159.178 188.277 156.438 188.277C153.698 188.277 151.477 190.502 151.477 193.247C151.477 195.992 153.698 198.217 156.438 198.217Z" fill="#E8BD51" stroke="#101727" stroke-width="2" stroke-miterlimit="10"/>
<path d="M278.774 148.04C281.514 148.04 283.735 145.815 283.735 143.07C283.735 140.325 281.514 138.1 278.774 138.1C276.034 138.1 273.812 140.325 273.812 143.07C273.812 145.815 276.034 148.04 278.774 148.04Z" fill="#E8BD51" stroke="#101727" stroke-width="2" stroke-miterlimit="10"/>
<path d="M156.438 348.729C159.178 348.729 161.399 346.503 161.399 343.759C161.399 341.014 159.178 338.789 156.438 338.789C153.698 338.789 151.477 341.014 151.477 343.759C151.477 346.503 153.698 348.729 156.438 348.729Z" fill="#E8BD51" stroke="#101727" stroke-width="2" stroke-miterlimit="10"/>
<path d="M278.774 298.561C281.514 298.561 283.735 296.336 283.735 293.591C283.735 290.846 281.514 288.621 278.774 288.621C276.034 288.621 273.812 290.846 273.812 293.591C273.812 296.336 276.034 298.561 278.774 298.561Z" fill="#E8BD51" stroke="#101727" stroke-width="2" stroke-miterlimit="10"/>
<path d="M187.025 44.1206H125.861V54.7668H187.025V44.1206Z" fill="#E8BD51" stroke="#101727" stroke-width="2" stroke-miterlimit="10"/>
<path d="M36.481 329.255C56.1424 329.255 72.0811 313.288 72.0811 293.591C72.0811 273.894 56.1424 257.927 36.481 257.927C16.8196 257.927 0.880859 273.894 0.880859 293.591C0.880859 313.288 16.8196 329.255 36.481 329.255Z" fill="#E9E1CE" stroke="#101727" stroke-width="2" stroke-linejoin="round"/>
<path d="M36.4817 308.739H18.6992V288.4L27.5904 278.434L36.4817 288.4V308.739Z" fill="#01654D" stroke="#101727" stroke-width="2" stroke-linejoin="round"/>
<path d="M54.2723 308.739H36.4811V288.4L27.5898 278.434H45.3811L54.2723 288.4V308.739Z" fill="#E9E1CE" stroke="#101727" stroke-width="2" stroke-linejoin="round"/>
<path d="M36.4824 288.4H54.2737" stroke="#101727" stroke-width="2" stroke-linejoin="round"/>
</g>
<defs>
<clipPath id="clip0_493_102">
<rect width="580" height="457" fill="white"/>
</clipPath>
</defs>
</svg>
