<svg width="32" height="32" viewBox="0 0 32 32" fill="none" xmlns="http://www.w3.org/2000/svg">
<g id="Outline_Old_Icons" clip-path="url(#clip0_338_99)">
<path id="Vector" d="M0.666016 31.3335H31.3327" stroke="#E8BD51" stroke-width="2" stroke-linecap="round" stroke-linejoin="round"/>
<path id="Vector_2" d="M6 24.6665H2V31.3332H6V24.6665Z" stroke="#E8BD51" stroke-width="2" stroke-linecap="round" stroke-linejoin="round"/>
<path id="Vector_3" d="M14 18H10V31.3333H14V18Z" stroke="#E8BD51" stroke-width="2" stroke-linecap="round" stroke-linejoin="round"/>
<path id="Vector_4" d="M22 20.6665H18V31.3332H22V20.6665Z" stroke="#E8BD51" stroke-width="2" stroke-linecap="round" stroke-linejoin="round"/>
<path id="Vector_5" d="M30 11.3335H26V31.3335H30V11.3335Z" stroke="#E8BD51" stroke-width="2" stroke-linecap="round" stroke-linejoin="round"/>
<path id="Vector_6" d="M3.99935 16.6667C4.73573 16.6667 5.33268 16.0697 5.33268 15.3333C5.33268 14.597 4.73573 14 3.99935 14C3.26297 14 2.66602 14.597 2.66602 15.3333C2.66602 16.0697 3.26297 16.6667 3.99935 16.6667Z" stroke="#E8BD51" stroke-width="2" stroke-linecap="round" stroke-linejoin="round"/>
<path id="Vector_7" d="M11.9993 10.0002C12.7357 10.0002 13.3327 9.40321 13.3327 8.66683C13.3327 7.93045 12.7357 7.3335 11.9993 7.3335C11.263 7.3335 10.666 7.93045 10.666 8.66683C10.666 9.40321 11.263 10.0002 11.9993 10.0002Z" stroke="#E8BD51" stroke-width="2" stroke-linecap="round" stroke-linejoin="round"/>
<path id="Vector_8" d="M19.9993 12.6667C20.7357 12.6667 21.3327 12.0697 21.3327 11.3333C21.3327 10.597 20.7357 10 19.9993 10C19.263 10 18.666 10.597 18.666 11.3333C18.666 12.0697 19.263 12.6667 19.9993 12.6667Z" stroke="#E8BD51" stroke-width="2" stroke-linecap="round" stroke-linejoin="round"/>
<path id="Vector_9" d="M27.9993 3.33317C28.7357 3.33317 29.3327 2.73622 29.3327 1.99984C29.3327 1.26346 28.7357 0.666504 27.9993 0.666504C27.263 0.666504 26.666 1.26346 26.666 1.99984C26.666 2.73622 27.263 3.33317 27.9993 3.33317Z" stroke="#E8BD51" stroke-width="2" stroke-linecap="round" stroke-linejoin="round"/>
<path id="Vector_10" d="M5.02734 14.48L10.974 9.52002" stroke="#E8BD51" stroke-width="2" stroke-linecap="round" stroke-linejoin="round"/>
<path id="Vector_11" d="M13.2676 9.08008L18.7742 10.9201" stroke="#E8BD51" stroke-width="2" stroke-linecap="round" stroke-linejoin="round"/>
<path id="Vector_12" d="M27.1339 3.01318L20.8672 10.3198" stroke="#E8BD51" stroke-width="2" stroke-linecap="round" stroke-linejoin="round"/>
</g>
<defs>
<clipPath id="clip0_338_99">
<rect width="32" height="32" fill="white"/>
</clipPath>
</defs>
</svg>
