<svg width="32" height="32" viewBox="0 0 32 32" fill="none" xmlns="http://www.w3.org/2000/svg">
<path d="M23.9993 5.97338C21.8775 3.85164 18.9998 2.65967 15.9993 2.65967C12.9987 2.65967 10.121 3.85164 7.99925 5.97338C5.87752 8.09511 4.68555 10.9728 4.68555 13.9734C4.68555 16.974 5.87752 19.8516 7.99925 21.9734L15.0259 29.0134C15.1499 29.1383 15.2973 29.2375 15.4598 29.3052C15.6223 29.3729 15.7966 29.4078 15.9726 29.4078C16.1486 29.4078 16.3229 29.3729 16.4854 29.3052C16.6478 29.2375 16.7953 29.1383 16.9193 29.0134L23.9993 21.9067C26.1121 19.7938 27.2991 16.9281 27.2991 13.94C27.2991 10.952 26.1121 8.08628 23.9993 5.97338ZM22.0926 20L15.9993 26.12L9.90592 20C8.70211 18.7951 7.88256 17.2604 7.55085 15.5898C7.21914 13.9192 7.39017 12.1877 8.04233 10.6143C8.69448 9.04086 9.79848 7.69611 11.2148 6.75001C12.631 5.80392 14.296 5.29895 15.9993 5.29895C17.7025 5.29895 19.3675 5.80392 20.7837 6.75001C22.2 7.69611 23.304 9.04086 23.9562 10.6143C24.6083 12.1877 24.7794 13.9192 24.4477 15.5898C24.116 17.2604 23.2964 18.7951 22.0926 20ZM11.9993 9.88004C10.9229 10.9597 10.3184 12.4221 10.3184 13.9467C10.3184 15.4713 10.9229 16.9337 11.9993 18.0134C12.7989 18.8144 13.8174 19.3615 14.9268 19.5859C16.0362 19.8103 17.1872 19.7022 18.2354 19.2749C19.2835 18.8477 20.1822 18.1204 20.8186 17.1844C21.455 16.2483 21.8008 15.1452 21.8126 14.0134C21.8186 13.2576 21.673 12.5084 21.3845 11.8099C21.0959 11.1114 20.6702 10.4779 20.1326 9.94671C19.6041 9.40615 18.974 8.97543 18.2785 8.67933C17.5829 8.38323 16.8357 8.22761 16.0798 8.22141C15.3239 8.21522 14.5742 8.35857 13.8739 8.64323C13.1736 8.92788 12.5365 9.34822 11.9993 9.88004ZM18.2526 16.12C17.7473 16.633 17.0795 16.9546 16.3634 17.0297C15.6473 17.1048 14.9273 16.9289 14.3266 16.5319C13.7259 16.135 13.2817 15.5417 13.0699 14.8535C12.8582 14.1653 12.8921 13.4249 13.1659 12.7589C13.4396 12.0929 13.9362 11.5427 14.5707 11.2024C15.2052 10.862 15.9383 10.7526 16.6445 10.8929C17.3507 11.0331 17.9863 11.4144 18.4426 11.9714C18.8989 12.5284 19.1475 13.2267 19.1459 13.9467C19.1265 14.7697 18.7812 15.5514 18.1859 16.12H18.2526Z" fill="#E8BD51"/>
</svg>
