<?xml version="1.0" encoding="utf-8"?>
<!-- Generator: Adobe Illustrator 25.1.0, SVG Export Plug-In . SVG Version: 6.00 Build 0)  -->
<svg version="1.1" id="Layer_1" xmlns="http://www.w3.org/2000/svg" xmlns:xlink="http://www.w3.org/1999/xlink" x="0px" y="0px"
	 viewBox="0 0 367.2 223.2" style="enable-background:new 0 0 367.2 223.2;" xml:space="preserve">
<style type="text/css">
	.st0{fill:#FF6153;}
</style>
<path class="st0" d="M333.39,52.36h28.71v123.47h-28.71V52.36z M347.75,40.81c8.89,0,15.85-6.85,15.85-15.6
	c0-8.74-7.11-15.85-15.85-15.85c-8.75,0-15.6,6.96-15.6,15.85C332.14,33.96,339,40.81,347.75,40.81z M204.6,50.36
	c-10.25,0-17.81,4.06-22.48,12.06l-1.35,2.31l-0.32-2.66c-0.7-5.81-7.08-9.71-12.61-9.71h-16.1l0.25,123.47h28.96V92.22
	c0-12.66,2.79-17.15,10.65-17.15c6.07,0,9.15,4.51,9.15,13.4v87.37h28.71V81.97C229.45,61,221.09,50.36,204.6,50.36z M304.3,52.36
	h14.85l-0.25,114.37c0,30.37-2.91,51.86-40.61,51.86c-13.13,0-22.91-3.42-29.06-10.18c-5.01-5.5-7.55-13.05-7.55-22.43v-0.6h28.96
	v0.35c0,9.65,7.2,10.4,9.4,10.4c9.65,0,10.4-8.56,10.4-20.65v-13.75v-3.92l-1.71,3.53c-3.59,7.41-10.85,11.49-20.44,11.49
	c-10.15,0-17.19-3.62-21.54-11.06c-3.58-6.12-5.32-14.89-5.32-26.8V86.97c0-7,0.98-16.97,5.62-24.66
	c4.78-7.92,12.52-11.94,22.98-11.94c10.42,0,17.39,3.95,20.16,11.42l1.39,3.76l0.35-3.99C292.39,56.37,298.96,52.36,304.3,52.36z
	 M289.95,90.72c0-7.74-1.09-15.65-9.15-15.65c-7.17,0-10.65,4.71-10.65,14.4v43.01c0,7.74,1.12,15.65,9.4,15.65
	c8.74,0,10.4-6.38,10.4-18.15V90.72z M115.6,4.6l27.47,171.23H114.3l-1.52-11.13c-2.59-19.86-13.08-38.21-30.36-42.28c0,0,0,0,0,0
	c-0.6,7.01-3.96,30.77-5.41,36.96v0c0-0.01,0.01-0.03,0.01-0.05c-2.63,12.98-8.24,27.16-25.14,32.98c-3.55,1.22-7.23,1.81-10.9,1.81
	c-9.38,0-18.68-3.87-25.49-11.01c-7.54-7.9-11.76-17.54-11.88-29.88c-0.28-29.52,24.06-55.9,55.41-60.07c0.3-0.04,0.6-0.06,0.91-0.1
	L74.11,4.6h21H115.6z M55.26,122.12C55.26,122.12,55.26,122.12,55.26,122.12c-12.81,4.54-24.4,16.11-24.26,30.86
	c0.05,5.28,1.62,8.41,4.3,11.23c2.08,2.18,5.17,3.07,7.66,2.21c4.18-1.44,6.14-6.44,7.63-14.81L55.26,122.12 M55.26,122.12
	 M104.57,102.32l-9.21-70.65h-0.77h-0.25l-8.25,63.31C92.5,96.63,98.72,99.12,104.57,102.32z"/>
</svg>
