<?xml version="1.0" encoding="UTF-8"?><svg id="Layer_1" xmlns="http://www.w3.org/2000/svg" viewBox="0 0 1300 1000"><line x1="545.31" y1="199.77" x2="570.58" y2="198.84" fill="none" stroke="#e8bd51" stroke-miterlimit="10" stroke-width="3"/><path d="M581.93,280.11l-15.25,22.76,6.98,16.72-16.73,28.26,5.33,15.57h-19.59l8.71-37.86,1.9-8.23,1.37-5.96c.14-.63.21-1.26.21-1.88,0-3.78-2.6-7.2-6.45-8.09-4.48-1.03-8.94,1.76-9.97,6.24l-1.37,5.96-1.89,8.23-7.7,33.42-1.93-3.35h-18.99c-1.97-3.29-4.76-6.34-7.95-8.89,6.83-19.56,46.72-59.24,81.64-65.16.56.78,1.12,1.52,1.68,2.25h0Z" fill="#fff" stroke="#101727" stroke-miterlimit="10" stroke-width="3"/><path d="M664.19,272.28l-50.24,32.11-4.67-6.87c2.64-.57,5.19-1.77,7.45-3.6l.51-.41c6.3-5.08,17.96-14.49,28.39-31.5.63-1.03,1.26-2.08,1.88-3.17.31-.55.62-1.1.93-1.65.61-1.12,1.22-2.27,1.82-3.44,1.27-2.49,2.5-5.11,3.68-7.87l10.25,26.4Z" fill="#e9e1ce" stroke="#101727" stroke-miterlimit="10" stroke-width="3"/><path d="M653.94,245.87h0c-1.18,2.77-2.41,5.39-3.68,7.88-.6,1.17-1.21,2.32-1.82,3.44-.31.55-.62,1.1-.93,1.65-.62,1.09-1.25,2.14-1.88,3.17-10.43,17.01-22.09,26.42-28.39,31.5l-.51.41c-2.26,1.83-4.81,3.03-7.45,3.6l-11.73-17.24,15.42-18.95h0l31.8-39.07,9.16,23.61Z" fill="none" stroke="#101727" stroke-miterlimit="10" stroke-width="3"/><polygon points="655.84 513.22 655.83 513.33 655.64 518.91 622.2 573.9 622.78 809.89 622.82 827.84 621.17 827.84 512.39 827.66 512.57 809.89 512.84 784.46 565.52 784.46 565.52 513.22 655.84 513.22" fill="#01654d"/><polygon points="731.6 827.66 627.25 827.83 622.82 827.84 621.17 827.84 620.68 815.11 620.68 815.08 620.48 809.89 611.37 573.9 565.52 527 565.52 513.22 655.84 513.22 655.83 513.33 655.64 518.91 646.43 784.46 729.27 784.46 730.64 809.89 731.6 827.66" fill="#01654d"/><line x1="655.84" y1="513.33" x2="565.53" y2="513.33" fill="none" stroke="#101727" stroke-miterlimit="10" stroke-width="3"/><line x1="555.9" y1="331.61" x2="544.17" y2="364.08" fill="none" stroke="#101727" stroke-miterlimit="10" stroke-width="3"/><path d="M631.81,835.68v61.67h132.04s18.74-41.54-46.11-41.54c-2.28-11.91-4.62-20.96-4.62-20.96l-81.31.82Z" fill="#e9e1ce" stroke="#101727" stroke-miterlimit="10" stroke-width="3"/><path d="M614.91,835.68v61.67h-132.04s-18.74-41.54,46.11-41.54c2.28-11.91,4.62-20.96,4.62-20.96l81.31.82Z" fill="#e9e1ce" stroke="#101727" stroke-miterlimit="10" stroke-width="3"/><path d="M644.38,189.68l-88.07-6.5c-.75,11.8-.44,22.47.64,32.11,2.58,9.07,6.02,15.55,10.86,20.19.96.93,1.98,1.78,3.06,2.57,1.95,1.42,4.1,2.62,6.46,3.63,1.13.5,2.32.94,3.56,1.35,1.43.47,2.94.89,4.52,1.26,1.04.25,2.12.48,3.23.69.01,0,.02,0,.03,0,.55.1,1.11.2,1.68.3h.05c9.58.03,19.29-2.31,28.3-7.01,21.75-11.34,24.87-26.57,27.69-48.44l-2.01-.15ZM582.27,214.98c-2.65.53-5.23-1.27-5.75-4.02s1.2-5.41,3.85-5.94c2.65-.53,5.23,1.27,5.75,4.02s-1.2,5.41-3.85,5.94ZM619.77,214.7c-2.65.53-5.22-1.27-5.74-4.02-.53-2.75,1.2-5.41,3.85-5.94,2.65-.53,5.22,1.27,5.74,4.02.53,2.75-1.2,5.41-3.85,5.94Z" fill="#e9e1ce" stroke="#101727" stroke-miterlimit="10" stroke-width="3"/><polygon points="556.31 183.13 646.39 189.83 556.31 183.18 556.31 183.13" fill="none" stroke="#101727" stroke-miterlimit="10" stroke-width="3"/><path d="M666.23,191.3c-.04.68-.09,1.36-.15,2.03-.08,1.01-.16,2.01-.25,3.01-.09.99-.19,1.98-.29,2.95-.09.93-.19,1.86-.3,2.77-.03.28-.07.56-.1.84-.05.37-.09.73-.14,1.09-.06.45-.12.89-.18,1.34-.02.13-.04.26-.05.39-.01.04-.02.08-.02.12-.01.02-.01.04-.01.06l-.18,1.26c-.13.84-.25,1.67-.38,2.49-.13.82-.27,1.63-.41,2.44-.16.93-.33,1.84-.5,2.74-.38,1.97-.78,3.89-1.21,5.77-.28,1.25-.58,2.48-.88,3.7-.51,2.02-1.05,3.99-1.62,5.91-.19.64-.38,1.27-.57,1.9-.26.84-.52,1.67-.79,2.48-.43,1.31-.87,2.59-1.32,3.84-.23.63-.46,1.25-.69,1.86-.52,1.4-1.06,2.75-1.61,4.08-.21.51-.42,1.01-.64,1.5h0c-1.18,2.77-2.41,5.39-3.68,7.88-.6,1.17-1.21,2.32-1.82,3.44-.31.55-.62,1.1-.93,1.65-.62,1.09-1.25,2.14-1.88,3.17-10.43,17.01-22.09,26.42-28.39,31.5l-.51.41c-2.26,1.83-4.81,3.03-7.45,3.6-.1.03-.19.05-.29.07-5.88,1.17-12.16-.7-16.61-5.45l-.56-.6c-.47-.51-.98-1.05-1.52-1.63-.5-.54-1.03-1.11-1.59-1.72-1.43-1.58-3.01-3.39-4.68-5.44-.25-.31-.5-.62-.76-.94h0c-.07-.1-.15-.19-.22-.28-.08-.1-.15-.2-.23-.3-.06-.07-.11-.14-.17-.21-.24-.3-.48-.6-.72-.91h0c-.56-.74-1.12-1.48-1.68-2.26-.72-.97-1.44-1.98-2.15-3.04-.2-.29-.4-.57-.59-.87-.84-1.24-1.69-2.54-2.52-3.91-.36-.59-.72-1.19-1.09-1.81-.36-.61-.72-1.23-1.08-1.87-.18-.33-.37-.67-.56-1.01-.25-.44-.49-.9-.74-1.35-.1-.19-.21-.38-.31-.58-.38-.73-.77-1.48-1.15-2.24-.24-.48-.48-.97-.72-1.46-.24-.49-.47-.99-.71-1.5-.02-.02-.02-.03-.03-.05-.22-.48-.45-.98-.67-1.48-.23-.51-.46-1.03-.69-1.56-.21-.49-.43-.99-.64-1.49-.02-.04-.03-.07-.04-.11-.23-.54-.45-1.08-.67-1.63-.4-1.01-.8-2.04-1.19-3.09l-.21-.57c-.17-.48-.35-.97-.52-1.46-.21-.59-.41-1.18-.61-1.78-.38-1.13-.75-2.29-1.1-3.46-.22-.69-.43-1.4-.63-2.11-.17-.59-.34-1.18-.49-1.77-.07-.27-.15-.55-.22-.83-1.72-6.49-3.09-13.61-3.96-21.42-.01-.03-.01-.07-.01-.11.01.03.02.07.03.1.16.57.33,1.13.5,1.68.24.77.48,1.53.74,2.26.04.13.09.25.13.38.08.24.17.49.26.72.03.08.06.16.09.24.16.46.33.91.51,1.34.1.26.2.52.31.77.1.25.21.5.32.75.05.11.1.23.15.34.1.24.21.48.32.71.02.06.05.11.08.17.08.18.16.35.25.53.03.06.06.13.09.19.05.12.11.23.17.35l.18.36c.07.13.13.25.2.38.05.1.1.19.15.29.07.15.15.29.23.43.08.14.16.29.24.43.17.31.35.62.53.92.03.05.06.1.09.15.04.07.08.14.12.21.01,0,.01,0,.02.02.18.3.37.6.56.89.05.08.1.16.16.24.04.06.08.12.13.19.01.02.03.03.04.05.03.05.06.1.1.15.07.13.16.25.25.37.11.16.22.31.33.47.14.19.29.39.44.58.18.25.37.49.56.72.32.39.64.78.98,1.15.12.15.26.29.4.44.38.42.78.82,1.2,1.22.11.12.23.23.36.34.12.12.24.23.37.34.25.23.5.45.76.66.12.1.24.2.36.3.11.09.23.18.34.27.07.06.15.12.22.17.3.23.6.46.91.67.46.34.94.65,1.42.95.27.18.54.34.81.5.11.07.23.13.34.19.15.09.3.18.45.26.28.16.56.31.85.45.15.08.3.16.46.24.32.16.66.32.99.47.29.14.58.27.88.39.42.19.85.36,1.28.53.29.11.58.23.88.33.46.17.92.33,1.4.49.48.15.97.3,1.46.45.49.15,1,.29,1.51.42,1.53.41,3.13.76,4.81,1.08.55.1,1.11.2,1.68.3h.05c9.58.03,19.29-2.31,28.3-7.01,21.75-11.34,24.87-26.57,27.69-48.44l19.83,1.47h0Z" fill="none" stroke="#101727" stroke-miterlimit="10" stroke-width="3"/><path d="M668.64,153.81l-2.41,37.43v.06h0l-19.83-1.47-90.08-6.65h-.01v-.06l.64-9.88,1.78-27.56c1.65-25.52,22.94-44.73,47.56-42.91l15.34,1.13,5.43.4c24.62,1.82,43.24,23.99,41.59,49.51Z" fill="#e8bd51"/><path d="M666.23,191.24h0s-138.88-10.26-138.88-10.26c-2.63-.19-4.62-2.56-4.45-5.29h0c.18-2.73,2.45-4.78,5.08-4.59l58.86,4.35" fill="#e8bd51" stroke="#101727" stroke-miterlimit="10" stroke-width="3"/><path d="M681.26,212.09c-5.24,11.59-13.41,12.07-20.08,12.21.3-1.22.6-2.45.88-3.7.43-1.88.83-3.8,1.21-5.77,1.38-7.22,2.4-15.05,2.96-23.53,12.27-5.2,20.47,8.77,15.03,20.79Z" fill="#e9e1ce" stroke="#101727" stroke-miterlimit="10" stroke-width="3"/><path d="M660.44,224.31c.24,0,.49,0,.73,0,0,0,0,0,0,0" fill="none" stroke="#101727" stroke-miterlimit="10" stroke-width="3"/><path d="M605.2,197.52c-.8,13.46-6.97,27.02-17.8,36.19-6.61,5.6,5.69,10.22,15.68-1.68" fill="none" stroke="#101727" stroke-miterlimit="10" stroke-width="3"/><path d="M666.22,191.3c-.04.68-.09,1.36-.14,2.03-.16,2.03-.34,4.01-.54,5.96-.1.93-.2,1.85-.31,2.77-.1.86-.21,1.72-.32,2.57-.03.23-.06.47-.09.7-.02.13-.04.26-.05.39-.01.04-.02.08-.02.12-.01.02-.01.04-.01.06l-.18,1.26c-.13.84-.25,1.67-.38,2.49-.13.82-.27,1.63-.41,2.44-.16.93-.33,1.84-.5,2.74-.38,1.97-.78,3.89-1.21,5.77-.29,1.25-.58,2.48-.89,3.7-.51,2.02-1.05,3.99-1.61,5.91-.19.64-.38,1.27-.57,1.9-.26.84-.52,1.67-.79,2.48-.43,1.31-.87,2.59-1.32,3.84-.23.63-.46,1.25-.69,1.86-.53,1.4-1.07,2.75-1.61,4.08-.21.51-.42,1.01-.64,1.5h0c-1.18,2.77-2.41,5.39-3.68,7.88-.6,1.17-1.21,2.32-1.82,3.44-.31.55-.62,1.1-.93,1.65-.62,1.09-1.25,2.14-1.88,3.17-10.43,17.01-22.09,26.42-28.39,31.5l-.51.41c-2.26,1.83-4.81,3.03-7.45,3.6-.1.03-.19.05-.29.07-5.88,1.17-12.16-.7-16.61-5.45l-.56-.6c-.47-.51-.98-1.05-1.52-1.63-.51-.54-1.03-1.11-1.59-1.72-1.43-1.58-3.01-3.39-4.68-5.44-.25-.31-.5-.62-.76-.94h0c-.07-.1-.15-.19-.22-.28s-.15-.19-.23-.28c-.05-.07-.11-.15-.17-.23-.24-.3-.48-.6-.72-.91h0c-.56-.74-1.12-1.48-1.68-2.26-.72-.97-1.44-1.98-2.15-3.04-.2-.29-.4-.57-.59-.87-.84-1.24-1.69-2.54-2.52-3.91-.36-.59-.72-1.19-1.09-1.81-.36-.61-.72-1.23-1.08-1.87-.18-.33-.37-.67-.56-1.01-.25-.44-.49-.9-.74-1.35-.1-.19-.21-.38-.31-.58-.38-.73-.77-1.48-1.15-2.24-.24-.48-.48-.97-.72-1.46-.24-.49-.47-.99-.71-1.5-.02-.02-.02-.03-.03-.05-.22-.48-.45-.98-.67-1.48-.23-.51-.46-1.03-.69-1.56-.21-.49-.43-.99-.64-1.49-.02-.04-.03-.07-.04-.11-.23-.54-.45-1.08-.67-1.63-.4-1.01-.8-2.04-1.19-3.09l-.21-.57c-.17-.48-.35-.97-.52-1.46-.21-.59-.41-1.18-.61-1.78-.38-1.13-.75-2.29-1.1-3.46-.22-.69-.43-1.4-.63-2.11-.17-.59-.34-1.18-.49-1.77-.08-.28-.16-.56-.23-.84,0,0,0,0,0,.01.65.4,1.31.8,1.97,1.17,5.82,3.33,12.1,5.51,18.58,6.55,2.93.48,5.9.73,8.88.74h.05c9.58.03,19.29-2.31,28.3-7.01,21.75-11.34,24.87-26.57,27.69-48.44l19.83,1.47Z" fill="#101727" stroke="#101727" stroke-miterlimit="10" stroke-width="3"/><path d="M619.77,214.7c-2.65.53-5.22-1.27-5.74-4.02-.53-2.75,1.2-5.41,3.85-5.94,2.65-.53,5.22,1.27,5.74,4.02.53,2.75-1.2,5.41-3.85,5.94Z" fill="#e9e1ce" stroke="#101727" stroke-miterlimit="10" stroke-width="3"/><path d="M582.27,214.98c-2.65.53-5.23-1.27-5.75-4.02s1.2-5.41,3.85-5.94c2.65-.53,5.23,1.27,5.75,4.02s-1.2,5.41-3.85,5.94Z" fill="#e9e1ce" stroke="#101727" stroke-miterlimit="10" stroke-width="3"/><path d="M618.1,196.74c5.3-.19,9.76,1.9,12.57,5.2" fill="none" stroke="#101727" stroke-miterlimit="10" stroke-width="4"/><path d="M616.92,258.21c-6.22,6.68-21.89,10.31-29.77,2.86" fill="none" stroke="#e9e1ce" stroke-miterlimit="10" stroke-width="3"/><path d="M624.34,103.98c-13.5-1.09-22.03,8.49-22.03,8.49" fill="none" stroke="#101727" stroke-miterlimit="10" stroke-width="3"/><polygon points="627.25 843.9 505.97 843.9 502 809.89 627.25 809.89 627.25 843.9" fill="#01654d"/><polygon points="624.05 843.9 745.33 843.9 749.31 809.89 620.08 809.89 624.05 843.9" fill="#01654d"/><polyline points="582.73 275.64 582.98 278.54 582.99 278.57 583.27 281.8" fill="none" stroke="#101727" stroke-linecap="round" stroke-linejoin="round" stroke-width="3"/><line x1="664.21" y1="272.47" x2="664.18" y2="272.53" fill="none" stroke="#101727" stroke-linecap="round" stroke-linejoin="round" stroke-width="3"/><line x1="502" y1="809.89" x2="622.47" y2="809.89" fill="none" stroke="#101727" stroke-miterlimit="10" stroke-width="3"/><line x1="505.97" y1="843.9" x2="627.25" y2="843.9" fill="none" stroke="#101727" stroke-miterlimit="10" stroke-width="3"/><line x1="620.08" y1="809.89" x2="749.31" y2="809.89" fill="none" stroke="#101727" stroke-miterlimit="10" stroke-width="3"/><line x1="624.05" y1="843.9" x2="745.33" y2="843.9" fill="none" stroke="#101727" stroke-miterlimit="10" stroke-width="3"/><polygon points="589.75 139.16 582.31 123.5 576.38 126.51 583.82 142.16 589.75 139.16" fill="#01654d"/><path d="M580.24,144.09c4.92,8.88,10.76,11.65,14.27,12.82,1.25-3.61,2.68-10.13-1.23-19.69.22-.19.44-.37.65-.57,1.63-1.48,3.06-3.04,4.3-4.65,7.19,15.18,3.3,25.25,1.83,29.04l-.06.16c-.28.73-.71,1.35-1.25,1.83-1.14,1.04-2.75,1.46-4.32,1l-.2-.06c-3.81-1.12-13.93-4.09-21.14-19.22,2.35.1,4.74-.1,7.14-.66Z" fill="#fff"/><path d="M590.38,245.28h-.03l-8.88-.74-16.4-1.35s-.9-1.79-2.18-5.2c-1.73-4.64-4.16-12.31-5.93-22.59-.01-.06-.02-.11-.03-.17.01.02.01.04.02.06,5.51,19.36,14.93,26.91,33.43,29.99Z" fill="#101727" stroke="#101727" stroke-miterlimit="10" stroke-width="3"/><line x1="447.67" y1="897.32" x2="867.61" y2="897.32" fill="none" stroke="#101727" stroke-miterlimit="10" stroke-width="3"/><line x1="622.47" y1="843.9" x2="613.52" y2="582.62" fill="none" stroke="#101727" stroke-miterlimit="10" stroke-width="3"/><path d="M554.86,309.49c0,.62-.07,1.25-.21,1.88l-1.37,5.96-16.21-3.73,1.37-5.96c1.03-4.48,5.49-7.27,9.97-6.24,3.85.89,6.45,4.31,6.45,8.09Z" fill="#738452" stroke="#101727" stroke-miterlimit="10" stroke-width="3"/><path d="M634.32,494.31h-126.36l-75.57-130.89h28.03l10.16,17.58h71.77l-2.66-4.61h0s-1.93-3.34-1.93-3.34l-5.56-9.63h26.55l28.2,48.85-31.65,5.97c-4.53.86-7.68,4.82-7.68,9.26,0,.58.05,1.16.16,1.75.97,5.12,5.9,8.48,11.01,7.52l-3.64.69c-5.12.96-8.49,5.89-7.52,11.01.85,4.52,4.8,7.68,9.25,7.68.58,0,1.17-.06,1.76-.17l9.41-1.77c-4.92,1.1-8.1,5.92-7.16,10.92.86,4.52,4.81,7.68,9.25,7.68.58,0,1.17-.06,1.76-.17l38.87-7.33,6.14-1.15,17.41,30.15Z" fill="#a99e53" stroke="#101727" stroke-miterlimit="10" stroke-width="3"/><polygon points="553.28 317.33 551.38 325.56 535.18 321.83 537.07 313.6 553.28 317.33" fill="#e9e1ce" stroke="#101727" stroke-miterlimit="10" stroke-width="3"/><polygon points="551.38 325.56 542.67 363.42 532.2 363.42 527.48 355.25 535.18 321.83 551.38 325.56" fill="#e8bd51" stroke="#101727" stroke-miterlimit="10" stroke-width="3"/><path d="M542.35,381h-71.77l-10.16-17.58-6.65-11.52h19.84c-4.97-8.95-1.83-16.15,7.16-16.15,5.69,0,12.35,2.88,17.84,7.26,3.19,2.55,5.98,5.6,7.95,8.89h18.99l1.93,3.35,4.72,8.17,10.15,17.58Z" fill="#e8bd51" stroke="#101727" stroke-miterlimit="10" stroke-width="3"/><path d="M707.14,373.94l-.12.33" fill="none" stroke="#101727" stroke-miterlimit="10" stroke-width="3"/><path d="M738.51,512.46c-2.53-44.89-7.92-69.51-7.92-69.51l-6.39,1.19-66.4,12.39-1.96,56.69v.11s-.2,5.58-.2,5.58l-9.21,265.55h102.87s-8.27-227.12-10.79-272ZM728.97,592.98c0,6.01-3.92,11.11-9.35,12.87-1.32.43-2.72.66-4.18.66h-25.23c-7.47,0-13.53-6.06-13.53-13.53v-69.78h52.29v69.78Z" fill="#fff" stroke="#101727" stroke-miterlimit="10" stroke-width="3"/><path d="M728.97,523.2v69.78c0,6.01-3.92,11.11-9.35,12.87-1.32.43-2.72.66-4.18.66h-25.23c-7.47,0-13.53-6.06-13.53-13.53v-69.78h52.29Z" fill="#fff" stroke="#101727" stroke-miterlimit="10" stroke-width="3"/><path d="M607.28,446.78l-.36.07-38.51,7.27c-.1.02-.21.04-.31.08h-.05" fill="none" stroke="#101727" stroke-miterlimit="10" stroke-width="3"/><line x1="596.01" y1="429.75" x2="558.79" y2="436.77" fill="none" stroke="#101727" stroke-miterlimit="10" stroke-width="3"/><path d="M582.82,281.25l-6.39,102.22-11.58-20.05h-2.59l-5.33-15.57,16.73-28.26-6.98-16.72,15.25-22.76c.24.31.48.61.72.91.06.08.12.16.17.23Z" fill="#fff" stroke="#101727" stroke-miterlimit="10" stroke-width="3"/><polyline points="581.93 280.1 582.98 278.54 582.99 278.53 582.99 278.57 582.82 281.23 582.82 281.25" fill="none" stroke="#101727" stroke-miterlimit="10" stroke-width="3"/><path d="M527.48,522.25v64.12c0,11.12-9.02,20.14-20.14,20.14h-.05c1.7-27.82,3.44-56.55,5.1-84.26h15.09Z" fill="#fff" stroke="#101727" stroke-miterlimit="10" stroke-width="3"/><path d="M565.52,494.31v290.15h-69.18s5.22-83.85,10.95-177.95h.05c11.12,0,20.14-9.02,20.14-20.14v-64.12h-15.09c.18-3.07.37-6.14.55-9.19.38-6.32.75-12.58,1.12-18.75h51.46Z" fill="#fff" stroke="#101727" stroke-miterlimit="10" stroke-width="3"/><path d="M634.52,460.88l-12.1,2.26-5.51,1.02-6.14,1.15-38.87,7.33c-.59.11-1.18.17-1.76.17-4.44,0-8.39-3.16-9.25-7.68-.94-5,2.24-9.82,7.16-10.92l-9.41,1.77c-.59.11-1.18.17-1.76.17-4.45,0-8.4-3.16-9.25-7.68-.97-5.12,2.4-10.05,7.52-11.01l3.64-.69c-5.11.96-10.04-2.4-11.01-7.52-.11-.59-.16-1.17-.16-1.75,0-4.44,3.15-8.4,7.68-9.26l31.65-5.97,5.5-1.04h.07s-5.3-9.07-5.3-9.07l17.8,4,14.99-2.91,14.31,56.54.2,1.09Z" fill="#e9e1ce" stroke="#101727" stroke-linecap="round" stroke-linejoin="round" stroke-width="3"/><path d="M640.42,319.59s-3.42-15.2-26.47-15.2-27.61,12.37-27.61,12.37l-3.07-34.95h0c-.07-.1-.15-.19-.22-.28s-.15-.19-.23-.28l-6.39,102.22,10.79,18.69,17.8,4,14.99-2.91,39.91-7.74,4.26-122.98-23.76,47.06ZM599.17,354.66c-2.7,0-4.89-2.27-4.89-5.07s2.19-5.08,4.89-5.08,4.89,2.27,4.89,5.08-2.19,5.07-4.89,5.07ZM599.9,331.61c-2.7,0-4.89-2.27-4.89-5.07s2.19-5.07,4.89-5.07,4.89,2.27,4.89,5.07-2.19,5.07-4.89,5.07Z" fill="#e9e1ce" stroke="#101727" stroke-linecap="round" stroke-linejoin="round" stroke-width="3"/><polygon points="592.45 411.23 586.95 412.27 558.75 363.42 564.85 363.42 576.43 383.47 587.22 402.16 592.45 411.23" fill="#01654d" stroke="#101727" stroke-linecap="round" stroke-linejoin="round" stroke-width="3"/><path d="M613.95,304.39c-23.05,0-27.61,12.37-27.61,12.37l-3.07-34.95c.26.32.51.63.76.94,1.67,2.05,3.25,3.86,4.68,5.44.56.61,1.08,1.18,1.59,1.72.54.58,1.05,1.12,1.52,1.63l.56.6c4.45,4.75,10.73,6.62,16.61,5.45.1-.02.19-.04.29-.07l4.67,6.87Z" fill="#e9e1ce" stroke="#101727" stroke-linecap="round" stroke-linejoin="round" stroke-width="3"/><path d="M604.79,326.54c0,2.8-2.19,5.07-4.89,5.07s-4.89-2.27-4.89-5.07,2.19-5.07,4.89-5.07,4.89,2.27,4.89,5.07Z" fill="#e9e1ce" stroke="#101727" stroke-linecap="round" stroke-linejoin="round" stroke-width="3"/><path d="M604.06,349.59c0,2.8-2.19,5.07-4.89,5.07s-4.89-2.27-4.89-5.07,2.19-5.08,4.89-5.08,4.89,2.27,4.89,5.08Z" fill="#e9e1ce" stroke="#101727" stroke-linecap="round" stroke-linejoin="round" stroke-width="3"/><path d="M774.49,356.88l-4.48-8.49-9.43-17.89c-14.87-28.19-41.81-48.04-73.14-53.88l-23.25-4.34,11.21,28.91-6.72,22.87,12.49,27.86-21.25,43.59-39.91,7.74,14.31,56.54.2,1.09,5.8-1.08h0s17.48-3.27,17.48-3.27l66.4-12.39,6.39-1.19,2.5-.47c39.11-7.3,59.96-50.4,41.4-85.6ZM643.67,452.38c-3.07,0-5.55-2.48-5.55-5.54s2.48-5.55,5.55-5.55,5.55,2.48,5.55,5.55-2.49,5.54-5.55,5.54Z" fill="#fff" stroke="#101727" stroke-linecap="round" stroke-linejoin="round" stroke-width="3"/><polygon points="640.42 494.31 634.32 494.31 616.91 464.16 622.42 463.14 640.42 494.31" fill="#01654d" stroke="#101727" stroke-linecap="round" stroke-linejoin="round" stroke-width="3"/><polygon points="657.8 456.53 655.84 513.22 565.52 513.22 565.52 494.31 640.42 494.31 622.42 463.14 634.52 460.88 640.32 459.8 640.32 459.79 657.8 456.53" fill="#e9e1ce" stroke="#101727" stroke-linecap="round" stroke-linejoin="round" stroke-width="3"/><polygon points="681.17 351.92 659.92 395.51 664.18 272.53 664.19 272.28 675.4 301.19 668.68 324.06 681.17 351.92" fill="#fff" stroke="#101727" stroke-linecap="round" stroke-linejoin="round" stroke-width="3"/><path d="M664.19,272.28v.25s-23.77,47.06-23.77,47.06c0,0-3.42-15.2-26.47-15.2l50.24-32.11Z" fill="#e9e1ce" stroke="#101727" stroke-linecap="round" stroke-linejoin="round" stroke-width="3"/><path d="M649.22,446.84c0,3.06-2.49,5.54-5.55,5.54s-5.55-2.48-5.55-5.54,2.48-5.55,5.55-5.55,5.55,2.48,5.55,5.55Z" fill="#e8bd51" stroke="#101727" stroke-miterlimit="10" stroke-width="3"/><path d="M571.54,199.49c4.14-3.41,8.92-4.47,13.06-3.54" fill="none" stroke="#101727" stroke-miterlimit="10" stroke-width="4"/><polyline points="599.51 448.28 568.1 454.2 568.05 454.21" fill="none" stroke="#101727" stroke-miterlimit="10" stroke-width="3"/><line x1="596.01" y1="429.75" x2="558.79" y2="436.77" fill="none" stroke="#101727" stroke-miterlimit="10" stroke-width="3"/><path d="M610.78,371.74c.14-.43,3.17-67.36,3.17-67.36" fill="none" stroke="#101727" stroke-miterlimit="10" stroke-width="3"/><path d="M659.92,395.51l40.24-7.8c6.3-1.22,9.69-8.05,6.97-13.77-.07-.15-.15-.31-.23-.46l-11.06-20.54" fill="none" stroke="#101727" stroke-miterlimit="10" stroke-width="3"/><circle cx="622.02" cy="210.68" r="24.25" fill="none" stroke="#e8bd51" stroke-miterlimit="10" stroke-width="3"/><circle cx="567.47" cy="211.74" r="24.25" fill="none" stroke="#e8bd51" stroke-miterlimit="10" stroke-width="3"/><path d="M587.49,196.81c7.06-9.45,15.2-.75,15.2-.75" fill="none" stroke="#e8bd51" stroke-miterlimit="10" stroke-width="3"/><line x1="641.92" y1="196.82" x2="667.19" y2="195.89" fill="none" stroke="#e8bd51" stroke-miterlimit="10" stroke-width="3"/></svg>