<?xml version="1.0" encoding="UTF-8"?>
<!-- Generated by Pixelmator Pro 3.6.17 -->
<svg width="450" height="827" viewBox="0 0 450 827" xmlns="http://www.w3.org/2000/svg">
    <path id="Path" fill="none" stroke="#e8bd51" stroke-width="3" d="M 172.309998 129.77002 L 197.580017 128.839966"/>
    <path id="path1" fill="#ffffff" stroke="#101727" stroke-width="3" d="M 208.929993 210.109985 L 193.679993 232.869995 L 200.659973 249.589966 L 183.929993 277.849976 L 189.26001 293.420044 L 169.669983 293.420044 L 178.380005 255.559998 L 180.280029 247.329956 L 181.650024 241.369995 C 181.789978 240.73999 181.859985 240.109985 181.859985 239.48999 C 181.859985 235.709961 179.26001 232.290039 175.409973 231.400024 C 170.929993 230.369995 166.469971 233.160034 165.440002 237.640015 L 164.070007 243.599976 L 162.179993 251.829956 L 154.47998 285.25 L 152.549988 281.900024 L 133.559998 281.900024 C 131.589996 278.609985 128.799988 275.559998 125.609985 273.01001 C 132.440002 253.450012 172.330017 213.77002 207.25 207.849976 C 207.809998 208.630005 208.369995 209.369995 208.929993 210.099976 L 208.929993 210.099976 Z"/>
    <path id="path2" fill="#e9e1ce" stroke="#101727" stroke-width="3" d="M 291.190002 202.280029 L 240.950012 234.390015 L 236.280029 227.52002 C 238.919983 226.950012 241.469971 225.75 243.72998 223.920044 L 244.23999 223.51001 C 250.539978 218.429993 262.200012 209.02002 272.630005 192.01001 C 273.26001 190.97998 273.890015 189.929993 274.51001 188.839966 C 274.820007 188.290039 275.130005 187.73999 275.440002 187.190002 C 276.049988 186.070007 276.659973 184.919983 277.26001 183.75 C 278.530029 181.26001 279.76001 178.640015 280.940002 175.880005 L 291.190002 202.280029 Z"/>
    <path id="path3" fill="none" stroke="#101727" stroke-width="3" d="M 280.940002 175.869995 L 280.940002 175.869995 C 279.76001 178.640015 278.530029 181.26001 277.26001 183.75 C 276.659973 184.919983 276.049988 186.070007 275.440002 187.190002 C 275.130005 187.73999 274.820007 188.290039 274.51001 188.839966 C 273.890015 189.929993 273.26001 190.97998 272.630005 192.01001 C 262.200012 209.02002 250.539978 218.429993 244.23999 223.51001 L 243.72998 223.920044 C 241.469971 225.75 238.919983 226.950012 236.280029 227.52002 L 224.549988 210.280029 L 239.969971 191.329956 L 239.969971 191.329956 L 271.77002 152.26001 L 280.929993 175.869995 Z"/>
    <path id="path4" fill="#01654d" stroke="none" d="M 282.840027 443.219971 L 282.830017 443.330017 L 282.640015 448.909973 L 249.200012 503.900024 L 249.780029 739.890015 L 249.820007 757.840027 L 248.169983 757.840027 L 139.390015 757.659973 L 139.570007 739.890015 L 139.840027 714.460022 L 192.52002 714.460022 L 192.52002 443.219971 L 282.840027 443.219971 Z"/>
    <path id="path5" fill="#01654d" stroke="none" d="M 358.599976 757.659973 L 254.25 757.830017 L 249.820007 757.840027 L 248.169983 757.840027 L 247.679993 745.109985 L 247.679993 745.080017 L 247.47998 739.890015 L 238.369995 503.900024 L 192.52002 457 L 192.52002 443.219971 L 282.840027 443.219971 L 282.830017 443.330017 L 282.640015 448.909973 L 273.429993 714.460022 L 356.27002 714.460022 L 357.640015 739.890015 L 358.599976 757.659973 Z"/>
    <path id="path6" fill="none" stroke="#101727" stroke-width="3" d="M 282.840027 443.330017 L 192.530029 443.330017"/>
    <path id="path7" fill="none" stroke="#101727" stroke-width="3" d="M 182.900024 261.609985 L 171.169983 294.079956"/>
    <path id="path8" fill="#e9e1ce" stroke="#101727" stroke-width="3" d="M 258.809998 765.679993 L 258.809998 827.349976 L 390.849976 827.349976 C 390.849976 827.349976 409.590027 785.809998 344.73999 785.809998 C 342.460022 773.900024 340.119995 764.849976 340.119995 764.849976 L 258.809998 765.669983 Z"/>
    <path id="path9" fill="#e9e1ce" stroke="#101727" stroke-width="3" d="M 241.909973 765.679993 L 241.909973 827.349976 L 109.869995 827.349976 C 109.869995 827.349976 91.130005 785.809998 155.97998 785.809998 C 158.26001 773.900024 160.599976 764.849976 160.599976 764.849976 L 241.909973 765.669983 Z"/>
    <path id="path10" fill="#e9e1ce" stroke="#101727" stroke-width="3" d="M 271.380005 119.679993 L 183.309998 113.179993 C 182.559998 124.97998 182.869995 135.650024 183.950012 145.289978 C 186.530029 154.359985 189.969971 160.839966 194.809998 165.47998 C 195.77002 166.410034 196.789978 167.26001 197.869995 168.049988 C 199.820007 169.469971 201.969971 170.669983 204.330017 171.679993 C 205.460022 172.179993 206.650024 172.619995 207.890015 173.030029 C 209.320007 173.5 210.830017 173.919983 212.409973 174.289978 C 213.450012 174.539978 214.530029 174.77002 215.640015 174.97998 C 215.650024 174.97998 215.659973 174.97998 215.669983 174.97998 C 216.219971 175.080017 216.780029 175.179993 217.349976 175.280029 L 217.400024 175.280029 C 226.97998 175.309998 236.690002 172.969971 245.700012 168.27002 C 267.450012 156.929993 270.570007 141.700012 273.390015 119.830017 L 271.380005 119.679993 Z M 209.27002 144.97998 C 206.619995 145.51001 204.039978 143.710022 203.52002 140.960022 C 203 138.210022 204.719971 135.549988 207.369995 135.02002 C 210.02002 134.48999 212.599976 136.289978 213.119995 139.039978 C 213.640015 141.789978 211.919983 144.450012 209.27002 144.97998 Z M 246.77002 144.700012 C 244.119995 145.22998 241.549988 143.429993 241.030029 140.679993 C 240.5 137.929993 242.22998 135.27002 244.880005 134.73999 C 247.530029 134.210022 250.099976 136.01001 250.619995 138.76001 C 251.150024 141.51001 249.419983 144.169983 246.77002 144.700012 Z"/>
    <path id="path11" fill="none" stroke="#101727" stroke-width="3" d="M 183.309998 113.130005 L 273.390015 119.830017 L 183.309998 113.179993 L 183.309998 113.130005 Z"/>
    <path id="path12" fill="none" stroke="#101727" stroke-width="3" d="M 293.22998 121.299988 C 293.190002 121.97998 293.140015 122.660034 293.080017 123.330017 C 293 124.339966 292.919983 125.339966 292.830017 126.339966 C 292.73999 127.330017 292.640015 128.320007 292.539978 129.289978 C 292.450012 130.219971 292.349976 131.150024 292.23999 132.059998 C 292.210022 132.339966 292.169983 132.619995 292.140015 132.900024 C 292.090027 133.27002 292.049988 133.630005 292 133.98999 C 291.940002 134.440002 291.880005 134.880005 291.820007 135.330017 C 291.799988 135.460022 291.780029 135.589966 291.77002 135.719971 C 291.76001 135.76001 291.75 135.799988 291.75 135.839966 C 291.73999 135.859985 291.73999 135.880005 291.73999 135.900024 L 291.559998 137.160034 C 291.429993 138 291.309998 138.830017 291.179993 139.650024 C 291.049988 140.469971 290.909973 141.280029 290.77002 142.089966 C 290.609985 143.02002 290.440002 143.929993 290.27002 144.830017 C 289.890015 146.799988 289.48999 148.719971 289.059998 150.599976 C 288.780029 151.849976 288.47998 153.080017 288.179993 154.299988 C 287.669983 156.320007 287.130005 158.289978 286.559998 160.210022 C 286.369995 160.849976 286.179993 161.47998 285.98999 162.109985 C 285.72998 162.950012 285.469971 163.780029 285.200012 164.589966 C 284.77002 165.900024 284.330017 167.179993 283.880005 168.429993 C 283.650024 169.059998 283.419983 169.679993 283.190002 170.289978 C 282.669983 171.690002 282.130005 173.039978 281.580017 174.369995 C 281.369995 174.880005 281.159973 175.380005 280.940002 175.869995 L 280.940002 175.869995 C 279.76001 178.640015 278.530029 181.26001 277.26001 183.75 C 276.659973 184.919983 276.049988 186.070007 275.440002 187.190002 C 275.130005 187.73999 274.820007 188.290039 274.51001 188.839966 C 273.890015 189.929993 273.26001 190.97998 272.630005 192.01001 C 262.200012 209.02002 250.539978 218.429993 244.23999 223.51001 L 243.72998 223.920044 C 241.469971 225.75 238.919983 226.950012 236.280029 227.52002 C 236.179993 227.549988 236.090027 227.570007 235.98999 227.589966 C 230.109985 228.76001 223.830017 226.890015 219.380005 222.140015 L 218.820007 221.540039 C 218.349976 221.030029 217.840027 220.48999 217.299988 219.910034 C 216.799988 219.369995 216.27002 218.799988 215.710022 218.190002 C 214.280029 216.609985 212.700012 214.799988 211.030029 212.75 C 210.780029 212.440002 210.530029 212.130005 210.27002 211.809998 L 210.27002 211.809998 C 210.200012 211.709961 210.119995 211.619995 210.049988 211.530029 C 209.969971 211.429993 209.900024 211.329956 209.820007 211.22998 C 209.76001 211.160034 209.710022 211.089966 209.650024 211.02002 C 209.409973 210.719971 209.169983 210.420044 208.929993 210.109985 L 208.929993 210.109985 C 208.369995 209.369995 207.809998 208.630005 207.25 207.849976 C 206.530029 206.880005 205.809998 205.869995 205.099976 204.809998 C 204.900024 204.52002 204.700012 204.23999 204.51001 203.940002 C 203.669983 202.700012 202.820007 201.400024 201.98999 200.030029 C 201.630005 199.440002 201.27002 198.839966 200.900024 198.219971 C 200.539978 197.609985 200.179993 196.98999 199.820007 196.349976 C 199.640015 196.02002 199.450012 195.679993 199.26001 195.339966 C 199.01001 194.900024 198.77002 194.440002 198.52002 193.98999 C 198.419983 193.799988 198.309998 193.609985 198.210022 193.410034 C 197.830017 192.679993 197.440002 191.929993 197.059998 191.170044 C 196.820007 190.690002 196.580017 190.200012 196.340027 189.709961 C 196.099976 189.219971 195.869995 188.719971 195.630005 188.209961 C 195.609985 188.190002 195.609985 188.179993 195.599976 188.160034 C 195.380005 187.679993 195.150024 187.179993 194.929993 186.679993 C 194.700012 186.170044 194.469971 185.650024 194.23999 185.119995 C 194.030029 184.630005 193.809998 184.130005 193.599976 183.630005 C 193.580017 183.589966 193.570007 183.559998 193.559998 183.52002 C 193.330017 182.97998 193.109985 182.440002 192.890015 181.890015 C 192.48999 180.880005 192.090027 179.849976 191.700012 178.799988 L 191.48999 178.22998 C 191.320007 177.75 191.140015 177.26001 190.969971 176.77002 C 190.76001 176.179993 190.559998 175.589966 190.359985 174.98999 C 189.97998 173.859985 189.609985 172.700012 189.26001 171.530029 C 189.039978 170.839966 188.830017 170.130005 188.630005 169.419983 C 188.460022 168.830017 188.289978 168.23999 188.140015 167.650024 C 188.070007 167.380005 187.98999 167.099976 187.919983 166.820007 C 186.200012 160.330017 184.830017 153.210022 183.960022 145.400024 C 183.950012 145.369995 183.950012 145.330017 183.950012 145.289978 C 183.960022 145.320007 183.969971 145.359985 183.97998 145.390015 C 184.140015 145.960022 184.309998 146.52002 184.47998 147.070007 C 184.719971 147.839966 184.960022 148.599976 185.219971 149.330017 C 185.26001 149.460022 185.309998 149.580017 185.349976 149.710022 C 185.429993 149.950012 185.52002 150.200012 185.609985 150.429993 C 185.640015 150.51001 185.669983 150.589966 185.700012 150.669983 C 185.859985 151.130005 186.030029 151.580017 186.210022 152.01001 C 186.309998 152.27002 186.409973 152.530029 186.52002 152.780029 C 186.619995 153.030029 186.72998 153.280029 186.840027 153.530029 C 186.890015 153.640015 186.940002 153.76001 186.98999 153.869995 C 187.090027 154.109985 187.200012 154.349976 187.309998 154.580017 C 187.330017 154.640015 187.359985 154.690002 187.390015 154.75 C 187.469971 154.929993 187.549988 155.099976 187.640015 155.280029 C 187.669983 155.339966 187.700012 155.410034 187.72998 155.469971 C 187.780029 155.589966 187.840027 155.700012 187.900024 155.820007 L 188.080017 156.179993 C 188.150024 156.309998 188.210022 156.429993 188.280029 156.559998 C 188.330017 156.660034 188.380005 156.75 188.429993 156.849976 C 188.5 157 188.580017 157.140015 188.659973 157.280029 C 188.73999 157.419983 188.820007 157.570007 188.900024 157.710022 C 189.070007 158.02002 189.25 158.330017 189.429993 158.630005 C 189.460022 158.679993 189.48999 158.72998 189.52002 158.780029 C 189.559998 158.849976 189.599976 158.919983 189.640015 158.98999 C 189.650024 158.98999 189.650024 158.98999 189.659973 159.01001 C 189.840027 159.309998 190.030029 159.609985 190.219971 159.900024 C 190.27002 159.97998 190.320007 160.059998 190.380005 160.140015 C 190.419983 160.200012 190.460022 160.26001 190.51001 160.330017 C 190.52002 160.349976 190.539978 160.359985 190.549988 160.380005 C 190.580017 160.429993 190.609985 160.47998 190.650024 160.530029 C 190.719971 160.660034 190.809998 160.780029 190.900024 160.900024 C 191.01001 161.059998 191.119995 161.210022 191.22998 161.369995 C 191.369995 161.559998 191.52002 161.76001 191.669983 161.950012 C 191.849976 162.200012 192.039978 162.440002 192.22998 162.669983 C 192.549988 163.059998 192.869995 163.450012 193.210022 163.820007 C 193.330017 163.969971 193.469971 164.109985 193.609985 164.26001 C 193.98999 164.679993 194.390015 165.080017 194.809998 165.47998 C 194.919983 165.599976 195.039978 165.710022 195.169983 165.820007 C 195.289978 165.940002 195.409973 166.049988 195.539978 166.160034 C 195.789978 166.390015 196.039978 166.609985 196.299988 166.820007 C 196.419983 166.919983 196.539978 167.02002 196.659973 167.119995 C 196.77002 167.210022 196.890015 167.299988 197 167.390015 C 197.070007 167.450012 197.150024 167.51001 197.219971 167.559998 C 197.52002 167.789978 197.820007 168.02002 198.130005 168.22998 C 198.590027 168.570007 199.070007 168.880005 199.549988 169.179993 C 199.820007 169.359985 200.090027 169.52002 200.359985 169.679993 C 200.469971 169.75 200.590027 169.809998 200.700012 169.869995 C 200.849976 169.960022 201 170.049988 201.150024 170.130005 C 201.429993 170.289978 201.710022 170.440002 202 170.580017 C 202.150024 170.660034 202.299988 170.73999 202.460022 170.820007 C 202.780029 170.97998 203.119995 171.140015 203.450012 171.289978 C 203.73999 171.429993 204.030029 171.559998 204.330017 171.679993 C 204.75 171.869995 205.179993 172.039978 205.609985 172.210022 C 205.900024 172.320007 206.190002 172.440002 206.48999 172.539978 C 206.950012 172.710022 207.409973 172.869995 207.890015 173.030029 C 208.369995 173.179993 208.859985 173.330017 209.349976 173.47998 C 209.840027 173.630005 210.349976 173.77002 210.859985 173.900024 C 212.390015 174.309998 213.98999 174.660034 215.669983 174.97998 C 216.219971 175.080017 216.780029 175.179993 217.349976 175.280029 L 217.400024 175.280029 C 226.97998 175.309998 236.690002 172.969971 245.700012 168.27002 C 267.450012 156.929993 270.570007 141.700012 273.390015 119.830017 L 293.219971 121.299988 L 293.219971 121.299988 Z"/>
    <path id="path13" fill="#e8bd51" stroke="none" d="M 295.640015 83.809998 L 293.22998 121.23999 L 293.22998 121.299988 L 293.22998 121.299988 L 273.400024 119.830017 L 183.320007 113.179993 L 183.309998 113.179993 L 183.309998 113.119995 L 183.950012 103.23999 L 185.72998 75.679993 C 187.380005 50.160034 208.669983 30.950012 233.289978 32.77002 L 248.630005 33.900024 L 254.059998 34.299988 C 278.679993 36.119995 297.299988 58.289978 295.650024 83.809998 Z"/>
    <path id="path14" fill="#e8bd51" stroke="#101727" stroke-width="3" d="M 293.22998 121.23999 L 293.22998 121.23999 C 293.22998 121.23999 154.349976 110.97998 154.349976 110.97998 C 151.719971 110.789978 149.72998 108.419983 149.900024 105.690002 L 149.900024 105.690002 C 150.080017 102.960022 152.349976 100.910034 154.97998 101.099976 L 213.840027 105.450012"/>
    <path id="path15" fill="#e9e1ce" stroke="#101727" stroke-width="3" d="M 308.26001 142.089966 C 303.02002 153.679993 294.849976 154.160034 288.179993 154.299988 C 288.47998 153.080017 288.780029 151.849976 289.059998 150.599976 C 289.48999 148.719971 289.890015 146.799988 290.27002 144.830017 C 291.650024 137.609985 292.669983 129.780029 293.22998 121.299988 C 305.5 116.099976 313.700012 130.070007 308.26001 142.089966 Z"/>
    <path id="path16" fill="none" stroke="#101727" stroke-width="3" d="M 287.440002 154.309998 C 287.679993 154.309998 287.929993 154.309998 288.169983 154.309998 C 288.169983 154.309998 288.169983 154.309998 288.169983 154.309998"/>
    <path id="path17" fill="none" stroke="#101727" stroke-width="3" d="M 232.200012 127.52002 C 231.400024 140.97998 225.22998 154.539978 214.400024 163.710022 C 207.789978 169.309998 220.090027 173.929993 230.080017 162.030029"/>
    <path id="path18" fill="#101727" stroke="#101727" stroke-width="3" d="M 293.219971 121.299988 C 293.179993 121.97998 293.130005 122.660034 293.080017 123.330017 C 292.919983 125.359985 292.73999 127.339966 292.539978 129.289978 C 292.440002 130.219971 292.340027 131.140015 292.22998 132.059998 C 292.130005 132.919983 292.02002 133.780029 291.909973 134.630005 C 291.880005 134.859985 291.849976 135.099976 291.820007 135.330017 C 291.799988 135.460022 291.780029 135.589966 291.77002 135.719971 C 291.76001 135.76001 291.75 135.799988 291.75 135.839966 C 291.73999 135.859985 291.73999 135.880005 291.73999 135.900024 L 291.559998 137.160034 C 291.429993 138 291.309998 138.830017 291.179993 139.650024 C 291.049988 140.469971 290.909973 141.280029 290.77002 142.089966 C 290.609985 143.02002 290.440002 143.929993 290.27002 144.830017 C 289.890015 146.799988 289.48999 148.719971 289.059998 150.599976 C 288.77002 151.849976 288.47998 153.080017 288.169983 154.299988 C 287.659973 156.320007 287.119995 158.289978 286.559998 160.210022 C 286.369995 160.849976 286.179993 161.47998 285.98999 162.109985 C 285.72998 162.950012 285.469971 163.780029 285.200012 164.589966 C 284.77002 165.900024 284.330017 167.179993 283.880005 168.429993 C 283.650024 169.059998 283.419983 169.679993 283.190002 170.289978 C 282.659973 171.690002 282.119995 173.039978 281.580017 174.369995 C 281.369995 174.880005 281.159973 175.380005 280.940002 175.869995 L 280.940002 175.869995 C 279.76001 178.640015 278.530029 181.26001 277.26001 183.75 C 276.659973 184.919983 276.049988 186.070007 275.440002 187.190002 C 275.130005 187.73999 274.820007 188.290039 274.51001 188.839966 C 273.890015 189.929993 273.26001 190.97998 272.630005 192.01001 C 262.200012 209.02002 250.539978 218.429993 244.23999 223.51001 L 243.72998 223.920044 C 241.469971 225.75 238.919983 226.950012 236.280029 227.52002 C 236.179993 227.549988 236.090027 227.570007 235.98999 227.589966 C 230.109985 228.76001 223.830017 226.890015 219.380005 222.140015 L 218.820007 221.540039 C 218.349976 221.030029 217.840027 220.48999 217.299988 219.910034 C 216.789978 219.369995 216.27002 218.799988 215.710022 218.190002 C 214.280029 216.609985 212.700012 214.799988 211.030029 212.75 C 210.780029 212.440002 210.530029 212.130005 210.27002 211.809998 L 210.27002 211.809998 C 210.200012 211.709961 210.119995 211.619995 210.049988 211.530029 C 209.97998 211.440002 209.900024 211.339966 209.820007 211.25 C 209.77002 211.179993 209.710022 211.099976 209.650024 211.02002 C 209.409973 210.719971 209.169983 210.420044 208.929993 210.109985 L 208.929993 210.109985 C 208.369995 209.369995 207.809998 208.630005 207.25 207.849976 C 206.530029 206.880005 205.809998 205.869995 205.099976 204.809998 C 204.900024 204.52002 204.700012 204.23999 204.51001 203.940002 C 203.669983 202.700012 202.820007 201.400024 201.98999 200.030029 C 201.630005 199.440002 201.27002 198.839966 200.900024 198.219971 C 200.539978 197.609985 200.179993 196.98999 199.820007 196.349976 C 199.640015 196.02002 199.450012 195.679993 199.26001 195.339966 C 199.01001 194.900024 198.77002 194.440002 198.52002 193.98999 C 198.419983 193.799988 198.309998 193.609985 198.210022 193.410034 C 197.830017 192.679993 197.440002 191.929993 197.059998 191.170044 C 196.820007 190.690002 196.580017 190.200012 196.340027 189.709961 C 196.099976 189.219971 195.869995 188.719971 195.630005 188.209961 C 195.609985 188.190002 195.609985 188.179993 195.599976 188.160034 C 195.380005 187.679993 195.150024 187.179993 194.929993 186.679993 C 194.700012 186.170044 194.469971 185.650024 194.23999 185.119995 C 194.030029 184.630005 193.809998 184.130005 193.599976 183.630005 C 193.580017 183.589966 193.570007 183.559998 193.559998 183.52002 C 193.330017 182.97998 193.109985 182.440002 192.890015 181.890015 C 192.48999 180.880005 192.090027 179.849976 191.700012 178.799988 L 191.48999 178.22998 C 191.320007 177.75 191.140015 177.26001 190.969971 176.77002 C 190.76001 176.179993 190.559998 175.589966 190.359985 174.98999 C 189.97998 173.859985 189.609985 172.700012 189.26001 171.530029 C 189.039978 170.839966 188.830017 170.130005 188.630005 169.419983 C 188.460022 168.830017 188.289978 168.23999 188.140015 167.650024 C 188.059998 167.369995 187.97998 167.089966 187.909973 166.809998 C 187.909973 166.809998 187.909973 166.809998 187.909973 166.820007 C 188.559998 167.219971 189.219971 167.619995 189.880005 167.98999 C 195.700012 171.320007 201.97998 173.5 208.460022 174.539978 C 211.390015 175.02002 214.359985 175.27002 217.340027 175.280029 L 217.390015 175.280029 C 226.969971 175.309998 236.679993 172.969971 245.690002 168.27002 C 267.440002 156.929993 270.559998 141.700012 273.380005 119.830017 L 293.210022 121.299988 Z"/>
    <path id="path19" fill="#e9e1ce" stroke="#101727" stroke-width="3" d="M 246.77002 144.700012 C 244.119995 145.22998 241.549988 143.429993 241.030029 140.679993 C 240.5 137.929993 242.22998 135.27002 244.880005 134.73999 C 247.530029 134.210022 250.099976 136.01001 250.619995 138.76001 C 251.150024 141.51001 249.419983 144.169983 246.77002 144.700012 Z"/>
    <path id="path20" fill="#e9e1ce" stroke="#101727" stroke-width="3" d="M 209.27002 144.97998 C 206.619995 145.51001 204.039978 143.710022 203.52002 140.960022 C 203 138.210022 204.719971 135.549988 207.369995 135.02002 C 210.02002 134.48999 212.599976 136.289978 213.119995 139.039978 C 213.640015 141.789978 211.919983 144.450012 209.27002 144.97998 Z"/>
    <path id="path21" fill="none" stroke="#101727" stroke-width="4" d="M 245.099976 126.73999 C 250.400024 126.549988 254.859985 128.640015 257.669983 131.940002"/>
    <path id="path22" fill="none" stroke="#e9e1ce" stroke-width="3" d="M 243.919983 188.209961 C 237.700012 194.890015 222.030029 198.52002 214.150024 191.070007"/>
    <path id="path23" fill="none" stroke="#101727" stroke-width="3" d="M 251.340027 33.97998 C 237.840027 32.890015 229.309998 42.469971 229.309998 42.469971"/>
    <path id="path24" fill="#01654d" stroke="none" d="M 254.25 773.900024 L 132.970001 773.900024 L 129 739.890015 L 254.25 739.890015 L 254.25 773.900024 Z"/>
    <path id="path25" fill="#01654d" stroke="none" d="M 251.049988 773.900024 L 372.330017 773.900024 L 376.309998 739.890015 L 247.080017 739.890015 L 251.049988 773.900024 Z"/>
    <path id="path26" fill="none" stroke="#101727" stroke-width="3" stroke-linecap="round" stroke-linejoin="round" d="M 209.72998 205.640015 L 209.97998 208.540039 L 209.98999 208.570007 L 210.27002 211.799988"/>
    <path id="path27" fill="none" stroke="#101727" stroke-width="3" stroke-linecap="round" stroke-linejoin="round" d="M 291.210022 202.469971 L 291.179993 202.530029"/>
    <path id="path28" fill="none" stroke="#101727" stroke-width="3" d="M 129 739.890015 L 249.469971 739.890015"/>
    <path id="path29" fill="none" stroke="#101727" stroke-width="3" d="M 132.970001 773.900024 L 254.25 773.900024"/>
    <path id="path30" fill="none" stroke="#101727" stroke-width="3" d="M 247.080017 739.890015 L 376.309998 739.890015"/>
    <path id="path31" fill="none" stroke="#101727" stroke-width="3" d="M 251.049988 773.900024 L 372.330017 773.900024"/>
    <path id="path32" fill="#01654d" stroke="none" d="M 216.75 69.160034 L 209.309998 53.5 L 203.380005 56.51001 L 210.820007 72.160034 L 216.75 69.160034 Z"/>
    <path id="path33" fill="#ffffff" stroke="none" d="M 207.23999 74.089966 C 212.159973 82.969971 218 85.73999 221.51001 86.910034 C 222.76001 83.299988 224.190002 76.780029 220.280029 67.219971 C 220.5 67.030029 220.719971 66.849976 220.929993 66.650024 C 222.559998 65.169983 223.98999 63.609985 225.22998 62 C 232.419983 77.179993 228.530029 87.25 227.059998 91.039978 L 227 91.200012 C 226.719971 91.929993 226.289978 92.549988 225.75 93.030029 C 224.609985 94.070007 223 94.48999 221.429993 94.030029 L 221.22998 93.969971 C 217.419983 92.849976 207.299988 89.880005 200.090027 74.75 C 202.440002 74.849976 204.830017 74.650024 207.22998 74.089966 Z"/>
    <path id="path34" fill="#101727" stroke="#101727" stroke-width="3" d="M 217.380005 175.280029 L 217.349976 175.280029 L 208.469971 174.539978 L 192.070007 173.190002 C 192.070007 173.190002 191.169983 171.400024 189.890015 167.98999 C 188.159973 163.349976 185.72998 155.679993 183.960022 145.400024 C 183.950012 145.339966 183.940002 145.289978 183.929993 145.22998 C 183.940002 145.25 183.940002 145.27002 183.950012 145.289978 C 189.460022 164.650024 198.880005 172.200012 217.380005 175.280029 Z"/>
    <path id="path35" fill="none" stroke="#101727" stroke-width="3" d="M 74.670013 827.320007 L 494.609985 827.320007"/>
    <path id="path36" fill="none" stroke="#101727" stroke-width="3" d="M 249.469971 773.900024 L 240.52002 512.619995"/>
    <path id="path37" fill="#738452" stroke="#101727" stroke-width="3" d="M 181.859985 239.48999 C 181.859985 240.109985 181.789978 240.73999 181.650024 241.369995 L 180.280029 247.329956 L 164.070007 243.599976 L 165.440002 237.640015 C 166.469971 233.160034 170.929993 230.369995 175.409973 231.400024 C 179.26001 232.290039 181.859985 235.709961 181.859985 239.48999 Z"/>
    <path id="path38" fill="#a99e53" stroke="#101727" stroke-width="3" d="M 261.320007 424.309998 L 134.959991 424.309998 L 59.390015 293.420044 L 87.420013 293.420044 L 97.579987 311 L 169.349976 311 L 166.690002 306.390015 L 166.690002 306.390015 C 166.690002 306.390015 164.76001 303.049988 164.76001 303.049988 L 159.200012 293.420044 L 185.75 293.420044 L 213.950012 342.27002 L 182.299988 348.23999 C 177.77002 349.099976 174.619995 353.059998 174.619995 357.5 C 174.619995 358.079956 174.669983 358.660034 174.780029 359.25 C 175.75 364.369995 180.679993 367.72998 185.789978 366.77002 L 182.150024 367.459961 C 177.030029 368.420044 173.659973 373.349976 174.630005 378.469971 C 175.47998 382.98999 179.429993 386.150024 183.880005 386.150024 C 184.460022 386.150024 185.049988 386.089966 185.640015 385.97998 L 195.049988 384.209961 C 190.130005 385.309998 186.950012 390.130005 187.890015 395.130005 C 188.75 399.650024 192.700012 402.809998 197.140015 402.809998 C 197.719971 402.809998 198.309998 402.75 198.900024 402.640015 L 237.77002 395.309998 L 243.909973 394.160034 L 261.320007 424.309998 Z"/>
    <path id="path39" fill="#e9e1ce" stroke="#101727" stroke-width="3" d="M 180.280029 247.329956 L 178.380005 255.559998 L 162.179993 251.829956 L 164.070007 243.599976 L 180.280029 247.329956 Z"/>
    <path id="path40" fill="#e8bd51" stroke="#101727" stroke-width="3" d="M 178.380005 255.559998 L 169.669983 293.420044 L 159.200012 293.420044 L 154.47998 285.25 L 162.179993 251.829956 L 178.380005 255.559998 Z"/>
    <path id="path41" fill="#e8bd51" stroke="#101727" stroke-width="3" d="M 169.349976 311 L 97.579987 311 L 87.420013 293.420044 L 80.769989 281.900024 L 100.609985 281.900024 C 95.640015 272.950012 98.779999 265.75 107.769989 265.75 C 113.459991 265.75 120.119995 268.630005 125.609985 273.01001 C 128.799988 275.559998 131.589996 278.609985 133.559998 281.900024 L 152.549988 281.900024 L 154.47998 285.25 L 159.200012 293.420044 L 169.349976 311 Z"/>
    <path id="path42" fill="none" stroke="#101727" stroke-width="3" d="M 334.140015 303.940002 L 334.02002 304.27002"/>
    <path id="path43" fill="#ffffff" stroke="#101727" stroke-width="3" d="M 365.51001 442.460022 C 362.97998 397.570007 357.590027 372.950012 357.590027 372.950012 L 351.200012 374.140015 L 284.799988 386.530029 L 282.840027 443.219971 L 282.840027 443.330017 C 282.840027 443.330017 282.640015 448.909973 282.640015 448.909973 L 273.429993 714.460022 L 376.299988 714.460022 C 376.299988 714.460022 368.030029 487.340027 365.51001 442.460022 Z M 355.969971 522.97998 C 355.969971 528.98999 352.049988 534.090027 346.619995 535.849976 C 345.299988 536.280029 343.900024 536.51001 342.440002 536.51001 L 317.210022 536.51001 C 309.73999 536.51001 303.679993 530.450012 303.679993 522.97998 L 303.679993 453.200012 L 355.969971 453.200012 L 355.969971 522.97998 Z"/>
    <path id="path44" fill="#ffffff" stroke="#101727" stroke-width="3" d="M 355.969971 453.200012 L 355.969971 522.97998 C 355.969971 528.98999 352.049988 534.090027 346.619995 535.849976 C 345.299988 536.280029 343.900024 536.51001 342.440002 536.51001 L 317.210022 536.51001 C 309.73999 536.51001 303.679993 530.450012 303.679993 522.97998 L 303.679993 453.200012 L 355.969971 453.200012 Z"/>
    <path id="path45" fill="none" stroke="#101727" stroke-width="3" d="M 234.280029 376.780029 L 233.919983 376.849976 L 195.409973 384.119995 C 195.309998 384.140015 195.200012 384.160034 195.099976 384.200012 L 195.049988 384.200012"/>
    <path id="path46" fill="none" stroke="#101727" stroke-width="3" d="M 223.01001 359.75 L 185.789978 366.77002"/>
    <path id="path47" fill="#ffffff" stroke="#101727" stroke-width="3" d="M 209.820007 211.25 L 203.429993 313.469971 L 191.849976 293.420044 L 189.26001 293.420044 L 183.929993 277.849976 L 200.659973 249.589966 L 193.679993 232.869995 L 208.929993 210.109985 C 209.169983 210.420044 209.409973 210.719971 209.650024 211.02002 C 209.710022 211.099976 209.77002 211.179993 209.820007 211.25 Z"/>
    <path id="path48" fill="none" stroke="#101727" stroke-width="3" d="M 208.929993 210.099976 L 209.97998 208.540039 L 209.98999 208.530029 L 209.98999 208.570007 L 209.820007 211.22998 L 209.820007 211.25"/>
    <path id="path49" fill="#ffffff" stroke="#101727" stroke-width="3" d="M 154.47998 452.25 L 154.47998 516.369995 C 154.47998 527.48999 145.460022 536.51001 134.339996 536.51001 L 134.290009 536.51001 C 135.98999 508.690002 137.730011 479.960022 139.390015 452.25 L 154.47998 452.25 Z"/>
    <path id="path50" fill="#ffffff" stroke="#101727" stroke-width="3" d="M 192.52002 424.309998 L 192.52002 714.460022 L 123.339996 714.460022 C 123.339996 714.460022 128.559998 630.609985 134.290009 536.51001 L 134.339996 536.51001 C 145.460022 536.51001 154.47998 527.48999 154.47998 516.369995 L 154.47998 452.25 L 139.390015 452.25 C 139.570007 449.179993 139.76001 446.109985 139.940002 443.059998 C 140.320007 436.73999 140.690002 430.480011 141.059998 424.309998 L 192.52002 424.309998 Z"/>
    <path id="path51" fill="#e9e1ce" stroke="#101727" stroke-width="3" stroke-linecap="round" stroke-linejoin="round" d="M 261.52002 390.880005 L 249.419983 393.140015 L 243.909973 394.160034 L 237.77002 395.309998 L 198.900024 402.640015 C 198.309998 402.75 197.719971 402.809998 197.140015 402.809998 C 192.700012 402.809998 188.75 399.650024 187.890015 395.130005 C 186.950012 390.130005 190.130005 385.309998 195.049988 384.209961 L 185.640015 385.97998 C 185.049988 386.089966 184.460022 386.150024 183.880005 386.150024 C 179.429993 386.150024 175.47998 382.98999 174.630005 378.469971 C 173.659973 373.349976 177.030029 368.420044 182.150024 367.459961 L 185.789978 366.77002 C 180.679993 367.72998 175.75 364.369995 174.780029 359.25 C 174.669983 358.660034 174.619995 358.079956 174.619995 357.5 C 174.619995 353.059998 177.77002 349.099976 182.299988 348.23999 L 213.950012 342.27002 L 219.450012 341.22998 L 219.52002 341.22998 C 219.52002 341.22998 214.219971 332.160034 214.219971 332.160034 L 232.02002 336.160034 L 247.01001 333.25 L 261.320007 389.790039 L 261.52002 390.880005 Z"/>
    <path id="path52" fill="#e9e1ce" stroke="#101727" stroke-width="3" stroke-linecap="round" stroke-linejoin="round" d="M 267.419983 249.589966 C 267.419983 249.589966 264 234.390015 240.950012 234.390015 C 217.900024 234.390015 213.340027 246.76001 213.340027 246.76001 L 210.27002 211.809998 L 210.27002 211.809998 C 210.200012 211.709961 210.119995 211.619995 210.049988 211.530029 C 209.97998 211.440002 209.900024 211.339966 209.820007 211.25 L 203.429993 313.469971 L 214.219971 332.160034 L 232.02002 336.160034 L 247.01001 333.25 L 286.919983 325.51001 L 291.179993 202.530029 L 267.419983 249.589966 Z M 226.169983 284.660034 C 223.469971 284.660034 221.280029 282.390015 221.280029 279.589966 C 221.280029 276.790039 223.469971 274.51001 226.169983 274.51001 C 228.869995 274.51001 231.059998 276.780029 231.059998 279.589966 C 231.059998 282.400024 228.869995 284.660034 226.169983 284.660034 Z M 226.900024 261.609985 C 224.200012 261.609985 222.01001 259.339966 222.01001 256.540039 C 222.01001 253.73999 224.200012 251.469971 226.900024 251.469971 C 229.599976 251.469971 231.789978 253.73999 231.789978 256.540039 C 231.789978 259.339966 229.599976 261.609985 226.900024 261.609985 Z"/>
    <path id="path53" fill="#01654d" stroke="#101727" stroke-width="3" stroke-linecap="round" stroke-linejoin="round" d="M 219.450012 341.22998 L 213.950012 342.27002 L 185.75 293.420044 L 191.849976 293.420044 L 203.429993 313.469971 L 214.219971 332.160034 L 219.450012 341.22998 Z"/>
    <path id="path54" fill="#e9e1ce" stroke="#101727" stroke-width="3" stroke-linecap="round" stroke-linejoin="round" d="M 240.950012 234.390015 C 217.900024 234.390015 213.340027 246.76001 213.340027 246.76001 L 210.27002 211.809998 C 210.530029 212.130005 210.780029 212.440002 211.030029 212.75 C 212.700012 214.799988 214.280029 216.609985 215.710022 218.190002 C 216.27002 218.799988 216.789978 219.369995 217.299988 219.910034 C 217.840027 220.48999 218.349976 221.030029 218.820007 221.540039 L 219.380005 222.140015 C 223.830017 226.890015 230.109985 228.76001 235.98999 227.589966 C 236.090027 227.570007 236.179993 227.549988 236.280029 227.52002 L 240.950012 234.390015 Z"/>
    <path id="path55" fill="#e9e1ce" stroke="#101727" stroke-width="3" stroke-linecap="round" stroke-linejoin="round" d="M 231.789978 256.540039 C 231.789978 259.339966 229.599976 261.609985 226.900024 261.609985 C 224.200012 261.609985 222.01001 259.339966 222.01001 256.540039 C 222.01001 253.73999 224.200012 251.469971 226.900024 251.469971 C 229.599976 251.469971 231.789978 253.73999 231.789978 256.540039 Z"/>
    <path id="path56" fill="#e9e1ce" stroke="#101727" stroke-width="3" stroke-linecap="round" stroke-linejoin="round" d="M 231.059998 279.589966 C 231.059998 282.390015 228.869995 284.660034 226.169983 284.660034 C 223.469971 284.660034 221.280029 282.390015 221.280029 279.589966 C 221.280029 276.790039 223.469971 274.51001 226.169983 274.51001 C 228.869995 274.51001 231.059998 276.780029 231.059998 279.589966 Z"/>
    <path id="path57" fill="#ffffff" stroke="#101727" stroke-width="3" stroke-linecap="round" stroke-linejoin="round" d="M 401.48999 286.880005 L 397.01001 278.390015 L 387.580017 260.5 C 372.710022 232.309998 345.77002 212.459961 314.440002 206.619995 L 291.190002 202.280029 L 302.400024 231.190002 L 295.679993 254.059998 L 308.169983 281.920044 L 286.919983 325.51001 L 247.01001 333.25 L 261.320007 389.790039 L 261.52002 390.880005 L 267.320007 389.799988 L 267.320007 389.799988 C 267.320007 389.799988 284.799988 386.530029 284.799988 386.530029 L 351.200012 374.140015 L 357.590027 372.950012 L 360.090027 372.47998 C 399.200012 365.179993 420.049988 322.079956 401.48999 286.880005 Z M 270.669983 382.380005 C 267.599976 382.380005 265.119995 379.900024 265.119995 376.839966 C 265.119995 373.780029 267.599976 371.290039 270.669983 371.290039 C 273.73999 371.290039 276.219971 373.77002 276.219971 376.839966 C 276.219971 379.910034 273.72998 382.380005 270.669983 382.380005 Z"/>
    <path id="path58" fill="#01654d" stroke="#101727" stroke-width="3" stroke-linecap="round" stroke-linejoin="round" d="M 267.419983 424.309998 L 261.320007 424.309998 L 243.909973 394.160034 L 249.419983 393.140015 L 267.419983 424.309998 Z"/>
    <path id="path59" fill="#e9e1ce" stroke="#101727" stroke-width="3" stroke-linecap="round" stroke-linejoin="round" d="M 284.799988 386.530029 L 282.840027 443.219971 L 192.52002 443.219971 L 192.52002 424.309998 L 267.419983 424.309998 L 249.419983 393.140015 L 261.52002 390.880005 L 267.320007 389.799988 L 267.320007 389.790039 L 284.799988 386.530029 Z"/>
    <path id="path60" fill="#ffffff" stroke="#101727" stroke-width="3" stroke-linecap="round" stroke-linejoin="round" d="M 308.169983 281.920044 L 286.919983 325.51001 L 291.179993 202.530029 L 291.190002 202.280029 L 302.400024 231.190002 L 295.679993 254.059998 L 308.169983 281.920044 Z"/>
    <path id="path61" fill="#e9e1ce" stroke="#101727" stroke-width="3" stroke-linecap="round" stroke-linejoin="round" d="M 291.190002 202.280029 L 291.190002 202.530029 C 291.190002 202.530029 267.419983 249.589966 267.419983 249.589966 C 267.419983 249.589966 264 234.390015 240.950012 234.390015 L 291.190002 202.280029 Z"/>
    <path id="path62" fill="#e8bd51" stroke="#101727" stroke-width="3" d="M 276.219971 376.839966 C 276.219971 379.900024 273.72998 382.380005 270.669983 382.380005 C 267.609985 382.380005 265.119995 379.900024 265.119995 376.839966 C 265.119995 373.780029 267.599976 371.290039 270.669983 371.290039 C 273.73999 371.290039 276.219971 373.77002 276.219971 376.839966 Z"/>
    <path id="path63" fill="none" stroke="#101727" stroke-width="4" d="M 198.539978 129.48999 C 202.679993 126.080017 207.460022 125.02002 211.599976 125.950012"/>
    <path id="path64" fill="none" stroke="#101727" stroke-width="3" d="M 226.51001 378.280029 L 195.099976 384.200012 L 195.049988 384.209961"/>
    <path id="path65" fill="none" stroke="#101727" stroke-width="3" d="M 223.01001 359.75 L 185.789978 366.77002"/>
    <path id="path66" fill="none" stroke="#101727" stroke-width="3" d="M 237.780029 301.73999 C 237.919983 301.309998 240.950012 234.380005 240.950012 234.380005"/>
    <path id="path67" fill="none" stroke="#101727" stroke-width="3" d="M 286.919983 325.51001 L 327.159973 317.709961 C 333.460022 316.48999 336.849976 309.660034 334.130005 303.940002 C 334.059998 303.790039 333.97998 303.630005 333.900024 303.47998 L 322.840027 282.940002"/>
    <path id="path68" fill="none" stroke="#e8bd51" stroke-width="3" d="M 273.27002 140.679993 C 273.27002 154.072876 262.412903 164.929993 249.02002 164.929993 C 235.627075 164.929993 224.77002 154.072876 224.77002 140.679993 C 224.77002 127.287109 235.627075 116.429993 249.02002 116.429993 C 262.412903 116.429993 273.27002 127.287109 273.27002 140.679993 Z"/>
    <path id="path69" fill="none" stroke="#e8bd51" stroke-width="3" d="M 218.719971 141.73999 C 218.719971 155.132935 207.862915 165.98999 194.469971 165.98999 C 181.077087 165.98999 170.219971 155.132935 170.219971 141.73999 C 170.219971 128.347107 181.077087 117.48999 194.469971 117.48999 C 207.862915 117.48999 218.719971 128.347107 218.719971 141.73999 Z"/>
    <path id="path70" fill="none" stroke="#e8bd51" stroke-width="3" d="M 214.48999 126.809998 C 221.549988 117.359985 229.690002 126.059998 229.690002 126.059998"/>
    <path id="path71" fill="none" stroke="#e8bd51" stroke-width="3" d="M 268.919983 126.820007 L 294.190002 125.890015"/>
</svg>
