<?xml version="1.0" encoding="UTF-8"?><svg id="Layer_1" xmlns="http://www.w3.org/2000/svg" viewBox="0 0 1300 670"><path d="M922.02,601.97l26.98-152.24c.86-5.18,5.77-8.69,10.95-7.82h0c5.18.86,8.69,5.77,7.82,10.95l-26.43,149.11" fill="#e8bd51" stroke="#101727" stroke-miterlimit="10" stroke-width="3"/><path d="M839.92,601.98h-109.42l-6.98-50.43-3.29-23.75-49.3-45.75,75.33-13.88.9.58,4.46,2.87,6.48,3.22h0s-1.02,4.18-1.02,4.18v3.7l.6,1.2s0,.01.01.02l1.15,2.28s.03.05.04.07l.97,1.95,1.39.5h.01l5.65,2.04s.02,0,.02,0l1.62.58,1.87-1.02h0s3.65-2,3.65-2l1.88-4.72,1.3-3.27.03-.08.46.11.65.16.4.1s.05,0,.08,0l7.65,1.85,6.34-.15h.03l12.51-.29h.02l5.03-.12,21.55-8.81,7.92,128.85Z" fill="#01654d"/><polygon points="747.41 467.84 747.16 468.75 731.12 527.8 723.52 551.55 707.38 601.98 595.6 601.98 621.15 490.91 746.24 468.05 747.41 467.84" fill="#01654d"/><path d="M727.57,227.12l-.06.05-43.77,40.36-5.8-5.94c2.5-1.02,4.8-2.64,6.7-4.84l.43-.5c6.8-7.81,21.01-24.16,27.78-53.33l14.4,23.68.32.52Z" fill="#e9e1ce" stroke="#101727" stroke-miterlimit="10" stroke-width="3"/><path d="M712.85,202.92c-6.77,29.17-20.98,45.52-27.78,53.33l-.43.5c-1.9,2.2-4.2,3.82-6.7,4.84l-14.58-14.92,11.86-21.35,24.47-44.04,13.16,21.64Z" fill="none" stroke="#101727" stroke-miterlimit="10" stroke-width="3"/><line x1="624.9" y1="354.67" x2="623.71" y2="370.3" fill="none" stroke="#101727" stroke-miterlimit="10" stroke-width="3"/><path d="M747.41,467.84l-1.17.21-131.82,24.04,5.41-70.92,1.87-24.5,126.08,46.67c-.61.68-1.17,1.42-1.68,2.2-4.62,7.09-3.82,16.1,1.31,22.3Z" fill="#e9e1ce" stroke="#101727" stroke-miterlimit="10" stroke-width="3"/><path d="M695.6,149.07l-89.86,9.24c1.33,11.73,3.5,22.16,6.23,31.45,0,.02.02.03.02.05,8.83,18.1,19.44,23.88,38.2,23.66,9.43-1.64,18.58-5.66,26.63-11.86,19.43-14.98,19.83-30.52,18.78-52.54ZM636.87,185.07c-2.51.99-5.36-.33-6.36-2.95s.23-5.54,2.75-6.53c2.52-.98,5.37.34,6.36,2.95,1,2.62-.23,5.54-2.75,6.53ZM673.75,178.22c-2.52.99-5.37-.33-6.36-2.95-1-2.62.23-5.54,2.75-6.53,2.51-.98,5.36.34,6.36,2.95,1,2.62-.23,5.54-2.75,6.53Z" fill="#e9e1ce" stroke="#101727" stroke-miterlimit="10" stroke-width="3"/><path d="M716.2,180.41c-.59,8.24-1.76,15.72-3.35,22.51-6.77,29.17-20.98,45.52-27.78,53.33l-.43.5c-1.9,2.2-4.2,3.82-6.7,4.84-.09.05-.19.08-.28.12-5.58,2.19-12.09,1.45-17.31-2.45l-.65-.49c-.99-.74-2.11-1.58-3.34-2.53-.25-.19-.5-.38-.75-.58-2.11-1.64-4.5-3.59-7.07-5.89-.93-.84-1.89-1.73-2.87-2.67-5.41-5.2-11.4-11.95-17.09-20.69-.3-.46-.6-.93-.9-1.4-1.08-1.7-2.14-3.47-3.19-5.33-.27-.47-.53-.94-.79-1.42-.54-.99-1.08-2-1.62-3.04-.17-.33-.34-.67-.51-1.01-.64-1.27-1.27-2.57-1.89-3.9-2.83-6.09-5.44-12.87-7.66-20.41-.01-.03-.02-.06-.03-.09,8.83,18.1,19.44,23.88,38.2,23.66,9.43-1.64,18.58-5.66,26.63-11.86,19.43-14.98,19.83-30.52,18.78-52.54l-89.86,9.24v-.05s89.86-9.2,89.86-9.2l19.78-2.02c1.36,12.29,1.53,23.38.82,33.37Z" fill="none" stroke="#101727" stroke-miterlimit="10" stroke-width="3"/><path d="M715.38,147.04l-19.78,2.03-89.86,9.24v-.05s-.01-.01-.01-.01l-1.1-9.84-3.09-27.44c-2.85-25.41,14.74-48.06,39.3-50.58l20.72-2.13c24.56-2.53,46.77,16.03,49.63,41.44l4.18,37.28v.06Z" fill="#e8bd51"/><path d="M715.38,146.98h0s-138.53,14.24-138.53,14.24c-2.63.27-5-1.71-5.31-4.43h0c-.31-2.72,1.58-5.14,4.2-5.41l58.71-6.04" fill="#e8bd51" stroke="#101727" stroke-miterlimit="10" stroke-width="3"/><path d="M733.83,164.87c-3.13,12.32-11.08,14.23-17.63,15.54.71-9.99.54-21.08-.82-33.37,11.17-7.27,21.7,5.04,18.45,17.83Z" fill="#e9e1ce" stroke="#101727" stroke-miterlimit="10" stroke-width="3"/><path d="M716.2,180.41c-.24.04-.49.09-.73.14" fill="none" stroke="#101727" stroke-miterlimit="10" stroke-width="3"/><path d="M656.39,163.85c1.58,13.39-2.13,27.82-11.18,38.75-5.52,6.67,7.39,9.07,15.14-4.41" fill="none" stroke="#101727" stroke-miterlimit="10" stroke-width="3"/><path d="M716.2,180.41c-.59,8.24-1.76,15.72-3.35,22.51-6.77,29.17-20.98,45.52-27.78,53.33l-.43.5c-1.9,2.2-4.2,3.82-6.7,4.84-.09.05-.19.08-.28.12-5.58,2.19-12.09,1.45-17.31-2.45l-.65-.49c-.99-.74-2.11-1.58-3.34-2.53-.25-.19-.5-.38-.75-.58-2.11-1.64-4.5-3.59-7.07-5.89-.93-.84-1.89-1.73-2.87-2.67-5.41-5.2-11.4-11.95-17.09-20.69-.3-.46-.6-.93-.9-1.4-1.08-1.7-2.14-3.47-3.19-5.33-.27-.47-.53-.94-.79-1.42-.54-.99-1.08-2-1.62-3.04-.17-.33-.34-.67-.51-1.01-.64-1.27-1.27-2.57-1.89-3.9.71.29,1.43.56,2.15.82h.01c6.27,2.23,12.79,3.28,19.31,3.19h.06c3-.04,6.01-.32,8.98-.85,9.43-1.64,18.58-5.66,26.63-11.86,19.43-14.98,19.83-30.52,18.78-52.54h0s19.78-2.03,19.78-2.03c1.36,12.29,1.53,23.38.82,33.37Z" fill="#101727" stroke="#101727" stroke-miterlimit="10" stroke-width="3"/><path d="M673.75,178.22c-2.52.99-5.37-.33-6.36-2.95-1-2.62.23-5.54,2.75-6.53,2.51-.98,5.36.34,6.36,2.95,1,2.62-.23,5.54-2.75,6.53Z" fill="#e9e1ce" stroke="#101727" stroke-miterlimit="10" stroke-width="3"/><path d="M636.87,185.07c-2.51.99-5.36-.33-6.36-2.95s.23-5.54,2.75-6.53c2.52-.98,5.37.34,6.36,2.95,1,2.62-.23,5.54-2.75,6.53Z" fill="#e9e1ce" stroke="#101727" stroke-miterlimit="10" stroke-width="3"/><path d="M668.95,160.83c5.18-1.11,9.95.16,13.29,2.92" fill="none" stroke="#101727" stroke-miterlimit="10" stroke-width="4"/><path d="M678.56,221.55c-4.95,7.67-19.75,13.99-28.81,8.03" fill="none" stroke="#e9e1ce" stroke-miterlimit="10" stroke-width="3"/><line x1="648.54" y1="249.77" x2="647.96" y2="244.7" fill="none" stroke="#101727" stroke-miterlimit="10" stroke-width="3"/><polygon points="630.94 109.1 620.88 94.99 615.57 98.99 625.64 113.1 630.94 109.1" fill="#01654d"/><path d="M622.45,115.63c6.4,7.88,12.63,9.58,16.29,10.12.59-3.77.86-10.44-4.66-19.17.18-.22.37-.44.55-.67,1.35-1.75,2.48-3.53,3.42-5.34,9.74,13.69,7.67,24.28,6.89,28.27l-.03.17c-.15.77-.47,1.45-.91,2.02-.94,1.22-2.46,1.92-4.08,1.74l-.2-.02c-3.95-.43-14.43-1.58-24.19-15.22,2.33-.31,4.65-.93,6.91-1.9Z" fill="#fff"/><path d="M650.19,213.47l-8.98.85h-.06l-16.26,1.54s-1.2-1.6-3.05-4.73h-.01c-2.52-4.28-6.26-11.41-9.81-21.23-.01-.03-.02-.06-.03-.09,8.83,18.1,19.44,23.88,38.2,23.66Z" fill="#101727" stroke="#101727" stroke-miterlimit="10" stroke-width="3"/><line x1="1032.72" y1="601.97" x2="267.28" y2="601.97" fill="none" stroke="#101727" stroke-miterlimit="10" stroke-width="3"/><line x1="544.92" y1="348.35" x2="544.45" y2="348.18" fill="none" stroke="#101727" stroke-miterlimit="10" stroke-width="3"/><polyline points="623.17 377.32 584.09 362.85 580.17 361.4 574.65 379.26 591.49 385.49 621.7 396.67" fill="#e8bd51" stroke="#101727" stroke-miterlimit="10" stroke-width="3"/><path d="M527.34,341.85c-.55.78-.98,1.65-1.27,2.6l-4.67,15.1-17.03-6.31,7.34-17.18,15.63,5.79Z" fill="#e8bd51" stroke="#101727" stroke-miterlimit="10" stroke-width="3"/><polyline points="511.71 336.06 474.33 322.23 462.07 317.69 454.8 334.9 467.07 339.44 504.37 353.24" fill="none" stroke="#101727" stroke-miterlimit="10" stroke-width="3"/><path d="M511.71,336.06l-7.34,17.18-37.3-13.8-15.45,44.15-47.01-17.39c-30.22-11.19-53.1-35.02-59.9-62.41l-1.87-7.52-3.49-14.05,11.24-8,6.88-4.89c5.81-4.13,12.24-7.42,19.11-9.85,5.1-1.81,10.44-3.14,15.94-3.99,2.08-.32,4.17-.57,6.29-.76,1.91-.17,3.84-.28,5.78-.32,1.56-.05,3.14-.05,4.71-.01,5.14.1,10.34.6,15.53,1.51,6.28,1.09,12.56,2.77,18.73,5.05l47.01,17.4-16.24,43.87,37.38,13.83Z" fill="#e9e1ce" stroke="#101727" stroke-miterlimit="10" stroke-width="3"/><path d="M454.43,331.32l-17.54-6.49c-4.83-1.79-7.51-6.58-5.98-10.71h0c1.53-4.13,6.68-6.02,11.51-4.23l17.54,6.49" fill="#e9e1ce" stroke="#101727" stroke-miterlimit="10" stroke-width="3"/><polyline points="775.95 483.62 777.09 484.04 778.38 480.56 778.39 480.54" fill="none" stroke="#101727" stroke-linejoin="round" stroke-width="3"/><line x1="758.42" y1="474.98" x2="757.72" y2="476.87" fill="none" stroke="#101727" stroke-linejoin="round" stroke-width="3"/><path d="M777.74,480.38v.06c0,1.19-.21,2.41-.65,3.6-.64,1.73-1.7,3.19-3.02,4.3-1.07.91-2.32,1.59-3.65,1.99h0c-1.11.35-2.29.5-3.49.45,0,0-.02,0-.02,0-1.03-.05-2.06-.26-3.08-.64-.94-.35-1.8-.82-2.57-1.4h-.01c-.93-.68-1.72-1.52-2.36-2.45-.01-.02-.03-.04-.04-.07-.48-.71-.87-1.47-1.15-2.28t-.01-.02c-.37-1.02-.58-2.1-.6-3.21v-.71c.05-1.04.26-2.1.64-3.13.24-.65.54-1.26.89-1.82,2.52-4.12,7.68-6.02,12.38-4.28,4.14,1.53,6.71,5.44,6.75,9.61Z" fill="#e8bd51" stroke="#101727" stroke-miterlimit="10" stroke-width="3"/><line x1="797.34" y1="312.77" x2="771.91" y2="286.78" fill="none" stroke="#101727" stroke-miterlimit="10" stroke-width="3"/><path d="M780.31,456.55c-1.81,2.77-4.83,4.29-7.91,4.29-1.76,0-3.54-.5-5.13-1.53l-2.46-1.6-6.39,17.27c-.11-.05-.21-.09-.32-.13h0s-6.48-3.23-6.48-3.23c-1.63-1.07-3.04-2.35-4.21-3.78-5.13-6.2-5.93-15.21-1.31-22.3.51-.78,1.07-1.52,1.68-2.2,5.91-6.72,15.89-8.4,23.74-3.74.22.13.44.27.65.4l.02.02,5.36,3.48c4.36,2.84,5.6,8.68,2.76,13.05Z" fill="#a99e53" stroke="#101727" stroke-miterlimit="10" stroke-width="3"/><path d="M758.1,474.85c-2.7-1.1-4.92-2.2-6.48-3.23" fill="none" stroke="#101727" stroke-miterlimit="10" stroke-width="3"/><path d="M849.38,466.29l-17.38,6.84-18.62,7.32c-2.47.76-5.15,1.29-7.96,1.61h-.02l-12.51.29h-.03c-4.67-.25-9.43-.86-13.99-1.7-.03,0-.05,0-.08,0l-.4-.1,8.89-24.01h0c-1.39-2.57-1.67-5.65-.6-8.52l7.48-20.23c1.16-3.12,3.47-5.49,6.27-6.78h0c2.73-1.28,5.92-1.53,8.98-.5.66.22,1.28.5,1.87.82l9.5-4.34,28.6,49.31Z" fill="#a99e53" stroke="#101727" stroke-miterlimit="10" stroke-width="3"/><path d="M919.37,438.75l-69.99,27.54-28.6-49.31,4.95-2.26,49.32-22.5-70.91-72.48h0c3.84-20.75,21.93-43.95,49.51-48.47h.01l11.37,11.28,15.59,15.45,56.25,55.77c1.12,1.11,2.18,2.26,3.17,3.43,22.56,26.65,12.66,68.44-20.67,81.55Z" fill="#e9e1ce" stroke="#101727" stroke-miterlimit="10" stroke-width="3"/><path d="M727.63,227.3l-3.09,68.35s-18.11-32.16-40.8-28.12l43.77-40.36.12.13Z" fill="#e9e1ce" stroke="#101727" stroke-miterlimit="10" stroke-width="3"/><path d="M683.74,267.53c-22.7,4.05-29.19,34.34-29.19,34.34l-6.01-52.1c2.57,2.3,4.96,4.25,7.07,5.89.25.2.5.39.75.58,1.23.95,2.35,1.79,3.34,2.53l.65.49c5.22,3.9,11.73,4.64,17.31,2.45.09-.04.19-.07.28-.12l5.8,5.94Z" fill="#e9e1ce" stroke="#101727" stroke-miterlimit="10" stroke-width="3"/><path d="M674.68,296.8c-2.66.48-5.21-1.37-5.7-4.13-.5-2.76,1.26-5.38,3.92-5.85,2.66-.48,5.21,1.37,5.71,4.13.49,2.76-1.27,5.38-3.93,5.85Z" fill="#e9e1ce" stroke="#101727" stroke-miterlimit="10" stroke-width="3"/><path d="M678,319.62c-2.66.47-5.22-1.38-5.71-4.14-.49-2.75,1.27-5.37,3.93-5.85,2.66-.47,5.21,1.38,5.7,4.14.49,2.76-1.26,5.38-3.92,5.85Z" fill="#e9e1ce" stroke="#101727" stroke-miterlimit="10" stroke-width="3"/><path d="M797.33,312.78h.01s6.8,6.95,6.8,6.95c3.84-20.74,21.93-43.94,49.51-48.46l-11.92-11.82-26.81-26.58c-2.72-2.42-5.66-4.55-8.79-6.36-3.13-1.81-6.45-3.31-9.89-4.46-7.27-2.44-14.97-3.29-22.6-2.5l-22.62,2.33c-7.17.74-16.43,2.63-23.39,4.49l-.38.23.32.52-.06.05.12.13-3.09,68.35s-18.11-32.16-40.8-28.12c-22.7,4.05-29.19,34.34-29.19,34.34l-6.01-52.1c-.93-.84-1.89-1.73-2.87-2.67-38.75,11.06-52.15,82.6-60.11,110.87,22.14-3.3,31.43,6.73,38.15,12.33l-.54,7.02,127.77,47.29c.47-1.31,1.11-2.58,1.89-3.79,1.87-2.88,4.39-5.07,7.25-6.52.17-3.2,1.16-6.4,3.03-9.28,5.68-8.73,17.36-11.2,26.09-5.52l1.48.96c1.98-.54,4.15-.48,6.23.29,4.16,1.54,6.74,5.49,6.74,9.69,0,1.19-.2,2.4-.64,3.58l-2.58,6.97c2.73-1.27,5.92-1.52,8.98-.49.66.22,1.28.5,1.87.82l9.5-4.34,4.95-2.26-.19-.42-28.21-101.52ZM668.98,292.67c-.5-2.76,1.26-5.38,3.92-5.85,2.66-.48,5.21,1.37,5.71,4.13.49,2.76-1.27,5.38-3.93,5.85-2.66.48-5.21-1.37-5.7-4.13ZM678,319.62c-2.66.47-5.22-1.38-5.71-4.14-.49-2.75,1.27-5.37,3.93-5.85,2.66-.47,5.21,1.38,5.7,4.14.49,2.76-1.26,5.38-3.92,5.85Z" fill="#e9e1ce" stroke="#101727" stroke-miterlimit="10" stroke-width="3"/><path d="M792.89,482.35c4.3.25,8.54.18,12.51-.29" fill="none" stroke="#101727" stroke-miterlimit="10" stroke-width="3"/><path d="M778.79,480.64c-.14-.02-.28-.05-.41-.08-.21-.03-.43-.07-.64-.12-.16-.03-.33-.06-.49-.09" fill="none" stroke="#101727" stroke-miterlimit="10" stroke-width="3"/><line x1="768.81" y1="431.22" x2="768.63" y2="431.1" fill="none" stroke="#101727" stroke-miterlimit="10" stroke-width="3"/><line x1="764.81" y1="457.71" x2="761.85" y2="455.79" fill="none" stroke="#101727" stroke-miterlimit="10" stroke-width="3"/><path d="M789.34,427.2c0,1.76-.5,3.55-1.53,5.14-2.84,4.36-8.68,5.6-13.04,2.76l-1.28-.83-4.67-3.05h-.01l-17.87-6.61c.47-1.31,1.11-2.58,1.89-3.79,1.87-2.88,4.39-5.07,7.25-6.52,5.81-2.95,12.98-2.81,18.83,1l3.01,1.96,3.13,2.03c2.78,1.81,4.29,4.83,4.29,7.91Z" fill="#a99e53" stroke="#101727" stroke-miterlimit="10" stroke-width="3"/><path d="M621.7,396.67l126.08,46.67c5.91-6.72,15.89-8.4,23.74-3.74l1.97-5.33-4.67-3.05h0l-17.87-6.61-127.77-47.29" fill="#e8bd51" stroke="#101727" stroke-miterlimit="10" stroke-width="3"/><path d="M803.65,410.44c0,1.19-.2,2.4-.64,3.58l-2.58,6.97h0c-2.8,1.3-5.11,3.67-6.27,6.79l-7.48,20.23c-1.07,2.87-.79,5.95.6,8.51h0s-8.89,24.02-8.89,24.02l-.65-.16c-.04-4.17-2.61-8.08-6.75-9.61-4.7-1.74-9.86.16-12.38,4.28-.06-.03-.13-.05-.19-.07l6.39-17.27,2.46,1.6c1.59,1.03,3.37,1.53,5.13,1.53,3.08,0,6.1-1.52,7.91-4.29,2.84-4.37,1.6-10.21-2.76-13.05l-5.36-3.48-.02-.02c-.21-.13-.43-.27-.65-.4l1.97-5.33,1.28.83c4.36,2.84,10.2,1.6,13.04-2.76,1.03-1.59,1.53-3.38,1.53-5.14,0-3.08-1.51-6.1-4.29-7.91l-3.13-2.03c4.36,2.83,10.19,1.59,13.03-2.77,1.03-1.59,1.53-3.38,1.53-5.14,0-3.08-1.51-6.1-4.29-7.91l-1.51-.98c1.98-.54,4.15-.48,6.23.29,4.16,1.54,6.74,5.49,6.74,9.69Z" fill="#e8bd51" stroke="#101727" stroke-miterlimit="10" stroke-width="3"/><path d="M796.48,409.35c0,1.76-.5,3.55-1.53,5.14-2.84,4.36-8.67,5.6-13.03,2.77l-3.01-1.96c-5.85-3.81-13.02-3.95-18.83-1,.17-3.2,1.16-6.4,3.03-9.28,5.68-8.73,17.36-11.2,26.09-5.52l1.48.96,1.51.98c2.78,1.81,4.29,4.83,4.29,7.91Z" fill="#a99e53" stroke="#101727" stroke-miterlimit="10" stroke-width="3"/><path d="M811.28,421.32c3.93,2.11,6.37,6.23,6.37,10.66,0,.83-.08,1.66-.26,2.5l-3.47,16.48" fill="none" stroke="#101727" stroke-miterlimit="10" stroke-width="3"/><path d="M787.28,456.53c.77,1.44,1.9,2.72,3.34,3.68l11.86,7.96" fill="none" stroke="#101727" stroke-miterlimit="10" stroke-width="3"/><line x1="539.11" y1="366.1" x2="537.43" y2="371.54" fill="none" stroke="#101727" stroke-miterlimit="10" stroke-width="3"/><line x1="520.87" y1="361.3" x2="519.43" y2="365.97" fill="none" stroke="#101727" stroke-miterlimit="10" stroke-width="3"/><line x1="562.23" y1="355.57" x2="555.58" y2="377.1" fill="none" stroke="#101727" stroke-miterlimit="10" stroke-width="3"/><line x1="539.23" y1="366.15" x2="537.57" y2="371.54" fill="none" stroke="#101727" stroke-miterlimit="10" stroke-width="3"/><path d="M591.49,385.49l-.28.75-1.72,5.56c-1.77,5.76-7.88,8.98-13.64,7.21l-34.69-11.57-15.37-5.12c-5.75-1.78-8.98-7.88-7.2-13.64l.84-2.71h-.01l1.98-6.42,4.67-15.1c.29-.95.72-1.82,1.27-2.6.08-.13.17-.25.27-.37,2.33-3.04,6.38-4.46,10.25-3.26,4.04,1.25,6.64,4.98,6.64,9,0,.26-.01.52-.03.78-.01.06-.01.12-.02.18-.06.61-.18,1.22-.37,1.83l-4.97,16.09.12.05,4.99-16.14c.18-.59.41-1.14.7-1.66.02-.05.04-.1.08-.14,2.11-3.82,6.67-5.76,11.01-4.42,4.04,1.24,6.64,4.97,6.64,8.99,0,.68-.07,1.37-.22,2.05-.06.25-.12.49-.2.74.08-.25.16-.49.25-.72,1.81-4.52,6.82-6.96,11.54-5.5,1.03.32,1.96.79,2.78,1.39,2.42,1.77,3.87,4.61,3.87,7.62,0,.92-.14,1.85-.42,2.78l-.08.26-5.52,17.86,16.84,6.23Z" fill="#a99e53" stroke="#101727" stroke-miterlimit="10" stroke-width="3"/><line x1="574.65" y1="379.26" x2="573.6" y2="382.67" fill="none" stroke="#101727" stroke-miterlimit="10" stroke-width="3"/><line x1="562.23" y1="355.57" x2="555.58" y2="377.1" fill="none" stroke="#101727" stroke-miterlimit="10" stroke-width="3"/><path d="M576.8,350.74c-.82-.6-1.75-1.07-2.78-1.39-4.72-1.46-9.73.98-11.54,5.5l-.05-.02c.15-.68.22-1.37.22-2.05,0-4.02-2.6-7.75-6.64-8.99-4.34-1.34-8.9.6-11.01,4.42l-.53-.21c.02-.26.03-.52.03-.78,0-4.02-2.6-7.75-6.64-9-3.87-1.2-7.92.22-10.25,3.26l-.78-.3c-3.78-1.46-6.1-5.07-6.1-8.91,0-1.08.19-2.19.58-3.27,1.77-4.86,7.1-7.42,12-5.77l24.7,8.3c8.98,3.01,15.97,10.17,18.79,19.21Z" fill="#a99e53" stroke="#101727" stroke-miterlimit="10" stroke-width="3"/><path d="M576.84,350.88c-.01-.05-.03-.09-.04-.14" fill="none" stroke="#101727" stroke-miterlimit="10" stroke-width="3"/><path d="M623.71,370.3l-.54,7.02-39.08-14.47c.47-1.43.96-3.07,1.47-4.88,22.14-3.3,31.43,6.73,38.15,12.33Z" fill="#e9e1ce" stroke="#101727" stroke-miterlimit="10" stroke-width="3"/><path d="M621.7,396.67l-1.87,24.5s-25.19,65.14-50.27,64.56c-25.03-.57-23.93-34.45-28.4-98.29l34.69,11.57c5.76,1.77,11.87-1.45,13.64-7.21l1.72-5.56.28-.75,30.21,11.18Z" fill="#e9e1ce" stroke="#101727" stroke-miterlimit="10" stroke-width="3"/><path d="M541.16,387.44c-.01-.12-.02-.25-.03-.38" fill="none" stroke="#101727" stroke-miterlimit="10" stroke-width="3"/><rect x="292.93" y="238.63" width="57.66" height="57.66" rx="8.25" ry="8.25" fill="#e8bd51" stroke="#101727" stroke-miterlimit="10" stroke-width="3"/><polygon points="322.1 262.67 312.03 248.56 306.72 252.56 316.79 266.67 322.1 262.67" fill="#e8bd51" stroke="#101727" stroke-miterlimit="10" stroke-width="3"/><path d="M313.61,269.19c6.4,7.88,12.63,9.58,16.29,10.12.59-3.77.86-10.44-4.66-19.17.18-.22.37-.44.55-.67,1.35-1.75,2.48-3.53,3.42-5.34,9.74,13.69,7.67,24.28,6.89,28.27l-.03.17c-.15.77-.47,1.45-.91,2.02-.94,1.22-2.46,1.92-4.08,1.74l-.2-.02c-3.95-.43-14.43-1.58-24.19-15.22,2.33-.31,4.65-.93,6.91-1.9Z" fill="#e8bd51" stroke="#101727" stroke-miterlimit="10" stroke-width="3"/><rect x="376.58" y="237.68" width="48.24" height="48.24" rx="8.25" ry="8.25" fill="#e8bd51" stroke="#101727" stroke-miterlimit="10" stroke-width="3"/><polygon points="400.99 257.79 392.56 245.98 388.12 249.33 396.55 261.13 400.99 257.79" fill="#e8bd51" stroke="#101727" stroke-miterlimit="10" stroke-width="3"/><path d="M393.88,263.25c5.35,6.59,10.57,8.02,13.63,8.47.5-3.16.72-8.74-3.9-16.04.15-.19.31-.37.46-.56,1.13-1.46,2.07-2.95,2.86-4.46,8.15,11.45,6.42,20.31,5.77,23.65l-.03.14c-.12.64-.39,1.22-.76,1.69-.79,1.02-2.05,1.6-3.41,1.45l-.17-.02c-3.3-.36-12.07-1.32-20.24-12.73,1.95-.26,3.89-.78,5.78-1.59Z" fill="#e8bd51" stroke="#101727" stroke-miterlimit="10" stroke-width="3"/><rect x="298.08" y="149.28" width="68.91" height="68.91" rx="8.25" ry="8.25" fill="#e8bd51" stroke="#101727" stroke-miterlimit="10" stroke-width="3"/><polygon points="332.94 178.01 320.9 161.15 314.56 165.93 326.59 182.79 332.94 178.01" fill="#e8bd51" stroke="#101727" stroke-miterlimit="10" stroke-width="3"/><path d="M322.79,185.81c7.64,9.42,15.1,11.45,19.47,12.1.71-4.51,1.03-12.48-5.57-22.91.22-.27.44-.53.65-.8,1.61-2.09,2.96-4.22,4.08-6.38,11.64,16.36,9.17,29.01,8.24,33.78l-.04.2c-.18.92-.56,1.74-1.08,2.42-1.13,1.46-2.93,2.29-4.87,2.08l-.24-.03c-4.72-.52-17.25-1.89-28.9-18.18,2.78-.37,5.56-1.11,8.26-2.27Z" fill="#e8bd51" stroke="#101727" stroke-miterlimit="10" stroke-width="3"/><path d="M623.59,171.7c3.48-4.08,8-5.97,12.24-5.77" fill="none" stroke="#101727" stroke-miterlimit="10" stroke-width="4"/><line x1="683.74" y1="267.53" x2="695.93" y2="333" fill="none" stroke="#101727" stroke-miterlimit="10" stroke-width="3"/><path d="M651.26,69.46c-11.93,1.04-17.5,11.76-17.5,11.76" fill="none" stroke="#101727" stroke-miterlimit="10" stroke-width="3"/></svg>