<?xml version="1.0" encoding="UTF-8"?><svg id="Layer_1" xmlns="http://www.w3.org/2000/svg" viewBox="0 0 1300 1000"><path d="M468.21,614.43l.05,9.34-61.06-14.33-32.84,202.74-1.71,10.54-102.62-.15,1.05-10.39,30.17-297.16.5-4.96,15.65-.52h3.31l2.73-1.18s.02-.01.03-.01l6.68-2.87h.01l.19-.09,1.38.15,79.63,8.93.02.03,14.01,22.2,8.36,13.24,36.76,58.26c-1.43,1.65-2.3,3.81-2.3,6.17v.06Z" fill="#01654d"/><path d="M490.76,523.31c-1.59,23.6-5.46,43.18-7.74,53.17-1.05,4.6-1.76,7.17-1.76,7.17l-35.64-56.46h0s-6.03-9.56-6.03-9.56l51.17,5.68Z" fill="#01654d"/><path d="M688.67,712.81l-92.78,46.59-.61-1.51-46.98-115.34-16.25-3.81c3-10.12,7-24.63,10.9-41.79,3.95-17.43,7.79-37.59,10.35-58.69l71.87,17.18,63.45,157.23h0s.05.14.05.14Z" fill="#01654d"/><polyline points="586.96 896.99 359.99 896.99 227.17 896.99 211.5 896.99" fill="none" stroke="#101727" stroke-miterlimit="10" stroke-width="3"/><polyline points="737.81 896.99 794.1 896.99 814.41 896.99 849.16 896.99 914.96 896.99 926.37 896.99 961.32 896.99 1026.92 896.99 1059.02 896.99 1073.27 896.99 1087.55 896.99 1096.11 896.99" fill="none" stroke="#101727" stroke-miterlimit="10" stroke-width="3"/><path d="M447.89,296.58l-5.8,5.94-43.77-40.36-.06-.06,14.71-24.2c6.78,29.17,20.99,45.52,27.79,53.34l.43.49c1.9,2.2,4.2,3.82,6.7,4.85Z" fill="#e9e1ce" stroke="#101727" stroke-miterlimit="10" stroke-width="3"/><path d="M462.46,281.66l-14.57,14.92c-2.5-1.03-4.8-2.65-6.7-4.85l-.43-.49c-6.8-7.82-21.01-24.17-27.79-53.34l13.16-21.64,24.46,44.03,11.87,21.37Z" fill="none" stroke="#101727" stroke-miterlimit="10" stroke-width="3"/><path d="M430.23,184.05c-1.05,22.03-.65,37.57,18.78,52.55,8.05,6.2,17.2,10.21,26.63,11.86,18.76.21,29.37-5.56,38.2-23.67.01-.02.01-.03.02-.05,2.73-9.29,4.9-19.72,6.23-31.44l-89.86-9.25ZM459.69,210.25c-.99,2.62-3.84,3.94-6.36,2.95-2.51-.98-3.75-3.9-2.75-6.52s3.85-3.94,6.36-2.95c2.52.99,3.75,3.91,2.75,6.52ZM496.24,217.33c-1,2.61-3.85,3.93-6.36,2.95-2.52-.99-3.75-3.91-2.75-6.53.99-2.62,3.84-3.94,6.36-2.95,2.52.99,3.75,3.91,2.75,6.53Z" fill="#e9e1ce" stroke="#101727" stroke-miterlimit="10" stroke-width="3"/><path d="M430.23,184.05c-1.05,22.03-.65,37.57,18.78,52.55,8.05,6.2,17.2,10.21,26.63,11.86,18.76.21,29.37-5.56,38.2-23.67-.01.03-.02.06-.03.09-2.22,7.54-4.83,14.32-7.66,20.41-.62,1.33-1.25,2.63-1.89,3.9-.17.34-.34.68-.51,1.01-1.98,3.84-4.04,7.38-6.15,10.65-.68,1.06-1.38,2.1-2.07,3.11-3.23,4.7-6.53,8.79-9.75,12.33-.46.51-.92,1-1.37,1.49-.45.49-.91.96-1.36,1.42-.45.47-.9.92-1.34,1.36-1.51,1.52-3,2.91-4.42,4.19-1.08.97-2.13,1.88-3.14,2.73-.39.32-.77.64-1.15.95s-.75.62-1.12.91c-2.19,1.76-4.14,3.22-5.75,4.42l-.65.48c-5.22,3.9-11.73,4.64-17.31,2.46-.09-.04-.19-.08-.28-.12-2.5-1.03-4.8-2.65-6.7-4.85l-.43-.49c-6.8-7.82-21.01-24.17-27.79-53.34-1.58-6.79-2.75-14.27-3.34-22.5-.71-9.99-.54-21.09.82-33.38l109.65,11.22v.06s-89.87-9.25-89.87-9.25Z" fill="none" stroke="#101727" stroke-miterlimit="10" stroke-width="3"/><path d="M524.29,155.96l-3.09,27.44-1.1,9.84v.06s-89.87-9.25-89.87-9.25l-19.78-2.03v-.06s4.19-37.28,4.19-37.28c2.85-25.41,25.07-43.96,49.63-41.44l10.75,1.1,1.86.2,8.11.83c24.56,2.52,42.15,25.17,39.3,50.59Z" fill="#e8bd51"/><path d="M410.46,181.96h0s138.53,14.24,138.53,14.24c2.63.27,5-1.71,5.31-4.43h0c.31-2.72-1.58-5.14-4.2-5.41l-58.71-6.04" fill="#e8bd51" stroke="#101727" stroke-miterlimit="10" stroke-width="3"/><path d="M409.63,215.4c-6.54-1.31-14.5-3.22-17.63-15.55-3.25-12.78,7.28-25.1,18.45-17.83-1.36,12.29-1.53,23.39-.82,33.38Z" fill="#e9e1ce" stroke="#101727" stroke-miterlimit="10" stroke-width="3"/><path d="M410.35,215.54c-.24-.05-.48-.09-.72-.14" fill="none" stroke="#101727" stroke-miterlimit="10" stroke-width="3"/><path d="M470.78,198.84c-1.58,13.39,2.13,27.82,11.18,38.75,5.52,6.67-7.39,9.07-15.14-4.41" fill="none" stroke="#101727" stroke-miterlimit="10" stroke-width="3"/><path d="M506.15,245.29c-.62,1.33-1.25,2.63-1.89,3.9-.17.34-.34.68-.51,1.01-1.98,3.84-4.04,7.38-6.15,10.65-.68,1.06-1.38,2.1-2.07,3.11-3.23,4.7-6.53,8.79-9.75,12.33-.46.51-.92,1-1.37,1.49-.45.49-.91.96-1.36,1.42-.45.47-.9.92-1.34,1.36-1.51,1.52-3,2.91-4.42,4.19-1.08.97-2.13,1.88-3.14,2.73-.39.32-.77.64-1.15.95s-.75.62-1.12.91c-2.19,1.76-4.14,3.22-5.75,4.42l-.65.48c-5.22,3.9-11.73,4.64-17.31,2.46-.09-.04-.19-.08-.28-.12-2.5-1.03-4.8-2.65-6.7-4.85l-.43-.49c-6.8-7.82-21.01-24.17-27.79-53.34-1.58-6.79-2.75-14.27-3.34-22.5-.71-9.99-.54-21.09.82-33.38l19.78,2.03c-1.05,22.03-.65,37.57,18.78,52.55,8.05,6.2,17.2,10.21,26.63,11.86,2.95.52,5.93.8,8.91.84h.05c6.54.1,13.09-.94,19.39-3.19h.01c.72-.26,1.44-.53,2.15-.82Z" fill="#101727" stroke="#101727" stroke-miterlimit="10" stroke-width="3"/><path d="M459.69,210.25c-.99,2.62-3.84,3.94-6.36,2.95-2.51-.98-3.75-3.9-2.75-6.52s3.85-3.94,6.36-2.95c2.52.99,3.75,3.91,2.75,6.52Z" fill="#e9e1ce" stroke="#101727" stroke-miterlimit="10" stroke-width="3"/><path d="M496.24,217.33c-1,2.61-3.85,3.93-6.36,2.95-2.52-.99-3.75-3.91-2.75-6.53.99-2.62,3.84-3.94,6.36-2.95,2.52.99,3.75,3.91,2.75,6.53Z" fill="#e9e1ce" stroke="#101727" stroke-miterlimit="10" stroke-width="3"/><path d="M457.69,195.82c-5.18-1.11-9.95.16-13.29,2.92" fill="none" stroke="#101727" stroke-miterlimit="10" stroke-width="4"/><path d="M447.27,256.53c4.95,7.67,19.75,13.99,28.81,8.03" fill="none" stroke="#e9e1ce" stroke-miterlimit="10" stroke-width="3"/><path d="M477.29,284.75l-1.05,9.08-4.96,43.02s-6.49-30.29-29.19-34.33l5.8-5.94c.09.04.19.08.28.12,5.58,2.18,12.09,1.44,17.31-2.46l.65-.48c1.61-1.2,3.56-2.66,5.75-4.42.37-.29.74-.6,1.12-.91s.76-.63,1.15-.95c1.01-.85,2.06-1.76,3.14-2.73Z" fill="#e9e1ce" stroke="#101727" stroke-miterlimit="10" stroke-width="3"/><line x1="477.87" y1="279.69" x2="477.29" y2="284.75" fill="none" stroke="#101727" stroke-miterlimit="10" stroke-width="3"/><polygon points="490.81 146.99 482.86 131.59 488.84 128.7 496.79 144.1 490.81 146.99" fill="#01654d"/><path d="M500.49,142.42c4.09,9.29,2.75,15.62,1.56,19.12-3.63-1.2-9.68-4-14.92-12.9-.28.06-.56.12-.85.18-2.17.4-4.27.59-6.31.6,7.72,14.92,18.09,17.92,21.99,19.05l.16.05c.75.22,1.5.25,2.21.12,1.52-.28,2.83-1.31,3.41-2.83l.07-.19c1.42-3.71,5.19-13.56-2.48-28.47-1.34,1.93-2.95,3.71-4.85,5.28Z" fill="#fff"/><path d="M513.84,224.79s-.02.06-.03.09c-3.55,9.83-7.29,16.96-9.81,21.23h-.01c-1.85,3.13-3.05,4.73-3.05,4.73l-16.34-1.54h-.05l-8.91-.84c18.76.21,29.37-5.56,38.2-23.67Z" fill="#101727" stroke="#101727" stroke-miterlimit="10" stroke-width="3"/><line x1="643.19" y1="840.24" x2="610.75" y2="788.85" fill="none" stroke="#101727" stroke-miterlimit="10" stroke-width="3"/><path d="M411.36,514.47l-79.63-8.93c1.13-.49,2.22-1.02,3.29-1.6,1.99-1.05,3.86-2.24,5.61-3.57,39.48-29.93,47.89-22.08,47.89-22.08h.01l22.27,35.29.56.89Z" fill="#e9e1ce" stroke="#101727" stroke-miterlimit="10" stroke-width="3"/><path d="M722.09,860.75l-31.27-49.22-47.63,28.71-.05.03-25.43-40.03-17.98,12.71-.17.12,25.38,39.94-47.5,29,9.52,14.98h150.85c-3.17-12.48-8.44-24.78-15.72-36.24Z" fill="#e9e1ce" stroke="#101727" stroke-miterlimit="10" stroke-width="3"/><polyline points="643.19 840.24 690.11 810.42 690.82 811.53" fill="none" stroke="#101727" stroke-miterlimit="10" stroke-width="3"/><path d="M651.45,851.63l11.94,18.78c1.33,2.1,1.97,4.4,1.97,6.59,0,3.22-1.39,6.19-4.02,7.86-4.41,2.81-10.66.89-13.95-4.28l-11.93-18.79" fill="#e9e1ce" stroke="#101727" stroke-miterlimit="10" stroke-width="3"/><path d="M350.83,480.96c-5.72,3.64-13.32,1.95-16.96-3.78-3.63-5.73-1.94-13.32,3.79-16.96,5.72-3.64,13.31-1.94,16.95,3.78,3.64,5.73,1.95,13.32-3.78,16.96Z" fill="#e8bd51" stroke="#101727" stroke-miterlimit="10" stroke-width="3"/><path d="M759.81,769.94l-68.99,41.59-47.63,28.71-.05.03-32.39-51.42-1.83-2.9,70.56-39.46s2.14,2.11,5.14,5.26c3.24,3.38,7.5,7.97,11.2,12.42,57.88-30.06,63.99,5.77,63.99,5.77Z" fill="#e9e1ce" stroke="#101727" stroke-miterlimit="10" stroke-width="3"/><polygon points="708.65 739.68 684.62 751.75 610.75 788.85 608.92 785.95 592.17 759.4 595.28 757.89 688.62 712.68 688.62 712.67 697.42 708.41 708.65 739.68" fill="#01654d"/><line x1="708.65" y1="739.68" x2="610.76" y2="788.85" fill="none" stroke="#101727" stroke-miterlimit="10" stroke-width="3"/><line x1="697.42" y1="708.41" x2="592.17" y2="759.4" fill="none" stroke="#101727" stroke-miterlimit="10" stroke-width="3"/><path d="M363.08,837.13l-3.09,59.86h-132.82s-18.85-40.28,46.38-40.28c4.28-12.2,4.65-20.33,4.65-20.33l84.88.75Z" fill="#e9e1ce" stroke="#101727" stroke-miterlimit="10" stroke-width="3"/><polygon points="380.99 845.16 259 845.16 255 812.18 384.99 812.18 380.99 845.16" fill="#01654d"/><line x1="402.78" y1="445.98" x2="391.42" y2="430.54" fill="none" stroke="#101727" stroke-miterlimit="10" stroke-width="3"/><path d="M354.61,464c-3.64-5.72-11.23-7.42-16.95-3.78l19.3-12.26,14.54,19.11c.13.17.26.34.4.5l-21.07,13.39c5.73-3.64,7.42-11.23,3.78-16.96Z" fill="#e8bd51" stroke="#101727" stroke-linecap="round" stroke-miterlimit="10" stroke-width="3"/><line x1="500.93" y1="389.65" x2="498.03" y2="427.79" fill="none" stroke="#101727" stroke-miterlimit="10" stroke-width="3"/><polyline points="330.16 505.48 331.52 505.63 411.38 514.5" fill="none" stroke="#101727" stroke-miterlimit="10" stroke-width="3"/><line x1="403.89" y1="416.02" x2="403.88" y2="416.01" fill="none" stroke="#101727" stroke-miterlimit="10" stroke-width="3"/><path d="M335.02,503.94c-1.07.58-2.16,1.11-3.29,1.6l-1.38-.15-.19.09h-.01l-6.68,2.87s-.02,0-.03.01c-1.96.49-3.97.88-6.04,1.18l-15.65.52c-45.47-3.21-102.47-45.61-97.57-131.23,2.43-42.39,21.66-69.56,47.9-86.91,33.1,9.76,43.75,49.2,44.28,51.22-43.96,30.73-19.93,80.88,11,96.72,3.67,1.88,7.44,3.27,11.2,4.09l-.06.27c-8.23,30.46,15.93,59.04,16.52,59.72Z" fill="#e9e1ce" stroke="#101727" stroke-miterlimit="10" stroke-width="3"/><path d="M331.73,505.54c-.07.04-.14.07-.21.09-2.54,1.1-5.24,2.01-8.05,2.72" fill="none" stroke="#101727" stroke-miterlimit="10" stroke-width="3"/><path d="M301.75,510.06c5.42.38,10.68.21,15.65-.52" fill="none" stroke="#101727" stroke-miterlimit="10" stroke-width="3"/><path d="M515.67,679.75l-.13-27.76c-.03-5.18-4.25-9.37-9.42-9.37h-.06c-1.92.01-3.7.6-5.19,1.59l-.06-12.8v-3.23c-.04-5.19-4.26-9.37-9.43-9.37h-.06c-1.52.01-2.96.37-4.23,1.02l-.03-5.51c-.03-5.21-4.27-9.4-9.48-9.37-2.83.02-5.35,1.27-7.07,3.25-1.43,1.65-2.3,3.81-2.3,6.17v.06l.05,9.34.08,13.19c-.06,29.78,29.46,67.8,52.08,50.33l-4.75-7.54Z" fill="#a99e53" stroke="#101727" stroke-miterlimit="10" stroke-width="3"/><path d="M482.07,650.82l-.13-22.53c0-.44.02-.87.08-1.29h0c.53-2.94,2.49-5.85,5.07-7.17" fill="none" stroke="#101727" stroke-miterlimit="10" stroke-width="3"/><line x1="515.67" y1="680.3" x2="515.67" y2="679.75" fill="none" stroke="#101727" stroke-miterlimit="10" stroke-width="3"/><path d="M500.87,644.21c-2.54,1.7-4.21,4.61-4.19,7.89l.13,22.53" fill="none" stroke="#101727" stroke-miterlimit="10" stroke-width="3"/><path d="M511.89,632.8l.15.24c.47.74,1.02,1.4,1.63,1.97" fill="none" stroke="#101727" stroke-miterlimit="10" stroke-width="3"/><path d="M490.76,523.31c-1.59,23.6-5.46,43.18-7.74,53.17,18.24-1.56,52.52,15.36,59.93,20.47,3.95-17.43,7.79-37.59,10.35-58.69" fill="#e9e1ce" stroke="#101727" stroke-miterlimit="10" stroke-width="3"/><path d="M542.95,596.95c-3.9,17.16-7.9,31.67-10.9,41.79-2.9,9.81-4.86,15.5-4.86,15.5l-.99.62-12.52-19.84h-.01s-.43-.7-.43-.7l-31.98-50.67s.71-2.57,1.76-7.17c18.24-1.56,52.52,15.36,59.93,20.47Z" fill="#a99e53" stroke="#101727" stroke-miterlimit="10" stroke-width="3"/><path d="M553.3,538.26c.77-6.43,1.43-12.94,1.94-19.49,2.18-28.13-1.44-61.57-9.99-94.9,0,0-32.62-3.45-47.22,3.92l-7.24,95.1-.03.42" fill="#e9e1ce" stroke="#101727" stroke-miterlimit="10" stroke-width="3"/><path d="M477.87,294.02l-1.63-.19-4.96,43.02s-6.49-30.29-29.19-34.33c-22.7-4.04-40.8,28.11-40.8,28.11l-3.09-68.34.12-.13-.06-.06c-37.2-.77-101.74.45-146.18,29.82,33.1,9.76,43.75,49.2,44.28,51.22,9.27-6.48,21.56-12.1,37.44-16.35l-26.44,113.07c3.67,1.88,7.44,3.27,11.2,4.09,7.7,1.69,15.38.97,22.16-2.92,6.28-3.6,11.17-7.29,16.24-8.37,1.28-2.94,2.6-6.34,5.89-8.86,2.88-2.21,6.22-3.41,9.6-3.68v-.14c1.05-1.39,1.23-4.8,5.08-7.98,8.03-6.64,20.18-4.37,26.35,4.01h.02s1.08,1.44,1.08,1.44l9.3-5.91c4.81-3.06,11.19-1.64,14.25,3.17l2.1,3.31c3.06,4.81,1.64,11.2-3.17,14.25l-7.86,5c.67,1.33,1,2.77,1,4.2,0,2.9-1.33,5.76-3.84,7.61-4.04,2.96-9.66,2.24-12.82-1.55l.13.18c1.24,1.69,1.84,3.65,1.84,5.59,0,2.43-.94,4.84-2.73,6.63l35.66,56.5.1.17.65,1.03,51.17,5.68c.01-.14.02-.28.03-.42l7.24-95.1c14.6-7.37,47.22-3.92,47.22-3.92-12.64-49.32-36.06-98.43-67.38-129.85ZM453.54,350.47c-.49,2.76-3.05,4.61-5.71,4.14-2.66-.48-4.41-3.1-3.92-5.86.49-2.75,3.04-4.61,5.7-4.13,2.66.47,4.42,3.09,3.93,5.85ZM456.85,327.65c-.49,2.76-3.04,4.61-5.7,4.14-2.66-.47-4.42-3.09-3.93-5.85.49-2.76,3.05-4.61,5.71-4.14,2.66.47,4.42,3.09,3.92,5.85Z" fill="#e9e1ce" stroke="#101727" stroke-miterlimit="10" stroke-width="3"/><path d="M427.46,432.27l-7.86,5c-.23-.47-.51-.93-.83-1.37l-13.79-18.45,9.3-5.91c4.81-3.06,11.19-1.64,14.25,3.17l2.1,3.31c3.06,4.81,1.64,11.2-3.17,14.25Z" fill="#e8bd51" stroke="#101727" stroke-miterlimit="10" stroke-width="3"/><path d="M383.26,469.93c.49-.23.97-.52,1.42-.85,3.66-2.7,4.81-7.55,2.98-11.52-.26-.58-.58-1.13-.97-1.66l-1.45-1.97-8.51-11.57c-8.27-8.92-14.14-10.92-19.77-9.7-5.07,1.08-9.96,4.77-16.24,8.37-6.78,3.89-14.46,4.61-22.16,2.92l-.06.27c-8.23,30.46,15.93,59.04,16.52,59.72,1.99-1.05,3.86-2.24,5.61-3.57,39.48-29.93,47.89-22.08,47.89-22.08h.01l-5.27-8.36ZM350.83,480.96c-5.72,3.64-13.32,1.95-16.96-3.78-3.63-5.73-1.94-13.32,3.79-16.96l19.3-12.26,14.54,19.11c.13.17.26.34.4.5l-21.07,13.39Z" fill="#a99e53" stroke="#101727" stroke-miterlimit="10" stroke-width="3"/><path d="M412.87,442.47l-13.85.62-4.79,11.87,7.82,9.72c15.53,5.46,20-21.13,10.83-22.21Z" fill="#a99e53" stroke="#101727" stroke-miterlimit="10" stroke-width="3"/><path d="M420.6,441.47c0,2.9-1.33,5.76-3.84,7.61-4.04,2.96-9.66,2.24-12.82-1.55-.03-.04-.07-.08-.1-.12-.09-.11-.17-.22-.26-.34l-.8-1.09-13.57-18.17c-4.01-5.45-10.47-8.19-16.76-7.69v-.14c1.05-1.39,1.23-4.8,5.08-7.98,8.03-6.64,20.18-4.37,26.35,4.01h.02s1.08,1.44,1.08,1.44l13.79,18.45c.32.44.6.9.83,1.37.67,1.33,1,2.77,1,4.2Z" fill="#a99e53" stroke="#101727" stroke-miterlimit="10" stroke-width="3"/><path d="M405.91,453.3c0,2.43-.94,4.84-2.73,6.63-.34.35-.71.67-1.11.96-4.2,3.09-10.1,2.19-13.18-2.01l-1.05-1.43-1.15-1.55-1.44-1.97h-.01l-8.51-11.57c-8.27-8.92-14.14-10.92-19.77-9.7,1.28-2.94,2.6-6.34,5.89-8.86,2.88-2.21,6.22-3.41,9.6-3.68,6.29-.5,12.75,2.24,16.76,7.69l13.57,18.17.8,1.09c.09.12.17.23.26.34.03.04.07.08.1.12l.13.18c1.24,1.69,1.84,3.65,1.84,5.59Z" fill="#a99e53" stroke="#101727" stroke-miterlimit="10" stroke-width="3"/><path d="M643.14,840.27l-25.43-40.03-17.98,12.71-79.31-125.66-4.75-7.54-.13-27.76c-.03-5.18-4.25-9.37-9.42-9.37h-.06c-1.92.01-3.7.6-5.19,1.59l-.06-12.8v-3.23c-.04-5.19-4.26-9.37-9.43-9.37h-.06c-1.52.01-2.96.37-4.23,1.02l-.03-5.51c-.03-5.21-4.27-9.4-9.48-9.37-2.83.02-5.35,1.27-7.07,3.25l-36.76-58.26-8.36-13.24-14.01-22.2-.02-.03-.56-.89-22.27-35.29-5.27-8.36c.49-.23.97-.52,1.42-.85,3.66-2.7,4.81-7.55,2.98-11.52l.18-.11,1.05,1.43c3.08,4.2,8.98,5.1,13.18,2.01.4-.29.77-.61,1.11-.96l35.66,56.5.1.17.65,1.03,6.03,9.55h0s35.64,56.47,35.64,56.47l31.98,50.67.43.69h.01s12.52,19.85,12.52,19.85l65.97,104.54,16.75,26.55,1.83,2.9,32.39,51.42Z" fill="#e8bd51" stroke="#101727" stroke-miterlimit="10" stroke-width="3"/><path d="M453.54,350.47c-.49,2.76-3.05,4.61-5.71,4.14-2.66-.48-4.41-3.1-3.92-5.86.49-2.75,3.04-4.61,5.7-4.13,2.66.47,4.42,3.09,3.93,5.85Z" fill="#e9e1ce" stroke="#101727" stroke-miterlimit="10" stroke-width="3"/><path d="M456.85,327.65c-.49,2.76-3.04,4.61-5.7,4.14-2.66-.47-4.42-3.09-3.93-5.85.49-2.76,3.05-4.61,5.71-4.14,2.66.47,4.42,3.09,3.92,5.85Z" fill="#e9e1ce" stroke="#101727" stroke-miterlimit="10" stroke-width="3"/><path d="M442.09,302.52c-22.7-4.04-40.8,28.11-40.8,28.11l-3.09-68.34.12-.13,43.77,40.36Z" fill="#e9e1ce" stroke="#101727" stroke-miterlimit="10" stroke-width="3"/><path d="M296.38,343.22s0-.03-.02-.08" fill="none" stroke="#101727" stroke-miterlimit="10" stroke-width="3"/><path d="M503.92,206.69c-3.48-4.08-8-5.97-12.24-5.77" fill="none" stroke="#101727" stroke-miterlimit="10" stroke-width="4"/><path d="M335.02,503.95h0" fill="none" stroke="#101727" stroke-miterlimit="10" stroke-width="3"/><path d="M483.02,576.48c-.07,0-.14,0-.21.01" fill="none" stroke="#101727" stroke-miterlimit="10" stroke-width="3"/><path d="M1073.28,871.8v-11.56c0-3.87-3.13-7-7-7h-32.35c-3.87,0-7-3.13-7-7v-17.22c0-3.87-3.13-7-7-7h-30.58c-3.87,0-7-3.13-7-7v-5.61c0-3.87-3.13-7-7-7h-35c-3.87,0-7,3.13-7,7v5.61c0,3.87-3.13,7-7,7h-4.37c-3.87,0-7,3.13-7,7v9.67c0,3.87-3.13,7-7,7h-86.55c-3.87,0-7,3.13-7,7v10.46c0,3.87-3.13,7-7,7h-6.31c-3.87,0-7,3.13-7,7v19.83h293.45v-11.19c0-3.87-3.13-7-7-7h-.28c-3.87,0-7-3.13-7-7Z" fill="#e8bd51" stroke="#101727" stroke-miterlimit="10" stroke-width="3"/><path d="M371.9,467.57c1.84,2.19,4.51,3.34,7.21,3.34,1.41,0,2.83-.32,4.15-.98" fill="none" stroke="#101727" stroke-linecap="round" stroke-miterlimit="10" stroke-width="3"/><path d="M514.23,596.95l14.74,25.94c.87,1.54,1.29,3.22,1.29,4.88,0,3.11-1.47,6.16-4.18,8.07-.61.43-1.24.78-1.9,1.05-3.56,1.48-7.69.74-10.5-1.87" fill="none" stroke="#101727" stroke-miterlimit="10" stroke-width="3"/><line x1="442.09" y1="302.52" x2="435.52" y2="367.67" fill="none" stroke="#101727" stroke-miterlimit="10" stroke-width="3"/><line x1="255" y1="812.18" x2="384.99" y2="812.18" fill="none" stroke="#101727" stroke-miterlimit="10" stroke-width="3"/><line x1="259" y1="845.16" x2="380.99" y2="845.16" fill="none" stroke="#101727" stroke-miterlimit="10" stroke-width="3"/><path d="M476.26,103.01c13.54.3,21.05,10.71,21.05,10.71" fill="none" stroke="#101727" stroke-miterlimit="10" stroke-width="3"/></svg>