<?xml version="1.0" encoding="UTF-8"?><svg id="Layer_1" xmlns="http://www.w3.org/2000/svg" viewBox="0 0 1300 670"><path d="M864.43,327.34h-31.58v7.39l-71.39-52.18h-75.76l-11.37-11.28h-.01l-11.92-11.82h105.57c2.37.09,4.75.86,6.81,2.37l89.65,65.52Z" fill="#738452" stroke="#101727" stroke-linejoin="round" stroke-width="3"/><path d="M832.85,334.73l28.46,20.8.73.53,55.56,40.61c2.19,1.6,4.74,2.37,7.26,2.37,3.79,0,7.52-1.74,9.93-5.04,4.01-5.48,2.81-13.18-2.67-17.19l-28.39-20.75-.73-.53-12.02-8.79-5.02-3.67-21.53-15.73" fill="none" stroke="#101727" stroke-linejoin="round" stroke-width="3"/><rect x="1136.07" y="327.34" width="58.13" height="28.19" transform="translate(2330.27 682.86) rotate(-180)" fill="#e8bd51" stroke="#101727" stroke-miterlimit="10" stroke-width="3"/><rect x="1084.77" y="327.34" width="58.13" height="28.19" transform="translate(2227.67 682.86) rotate(-180)" fill="#e8bd51" stroke="#101727" stroke-miterlimit="10" stroke-width="3"/><rect x="1051.25" y="327.34" width="58.13" height="28.19" transform="translate(2160.64 682.86) rotate(-180)" fill="#e8bd51" stroke="#101727" stroke-miterlimit="10" stroke-width="3"/><rect x="993.12" y="327.34" width="58.13" height="28.19" transform="translate(2044.37 682.86) rotate(-180)" fill="#e8bd51" stroke="#101727" stroke-miterlimit="10" stroke-width="3"/><rect x="941.56" y="327.34" width="58.13" height="28.19" transform="translate(1941.25 682.86) rotate(-180)" fill="#e8bd51" stroke="#101727" stroke-miterlimit="10" stroke-width="3"/><rect x="1121.16" y="270.68" width="48.43" height="56.12" transform="translate(2290.75 597.48) rotate(-180)" fill="#e8bd51" stroke="#101727" stroke-miterlimit="10" stroke-width="3"/><rect x="1069.85" y="259.44" width="58.13" height="67.36" transform="translate(2197.84 586.24) rotate(-180)" fill="#e8bd51" stroke="#101727" stroke-miterlimit="10" stroke-width="3"/><rect x="1036.34" y="259.44" width="58.13" height="67.36" transform="translate(2130.81 586.24) rotate(-180)" fill="#e8bd51" stroke="#101727" stroke-miterlimit="10" stroke-width="3"/><rect x="978.21" y="259.44" width="58.13" height="67.36" transform="translate(2014.54 586.24) rotate(-180)" fill="#e8bd51" stroke="#101727" stroke-miterlimit="10" stroke-width="3"/><rect x="926.65" y="259.44" width="58.13" height="67.36" transform="translate(1911.42 586.24) rotate(-180)" fill="#e8bd51" stroke="#101727" stroke-miterlimit="10" stroke-width="3"/><rect x="1051.25" y="229.64" width="58.13" height="29.8" transform="translate(2160.64 489.09) rotate(-180)" fill="#e8bd51" stroke="#101727" stroke-miterlimit="10" stroke-width="3"/><rect x="993.12" y="229.64" width="58.13" height="29.8" transform="translate(2044.37 489.09) rotate(-180)" fill="#e8bd51" stroke="#101727" stroke-miterlimit="10" stroke-width="3"/><rect x="941.56" y="229.64" width="58.13" height="29.8" transform="translate(1941.25 489.09) rotate(-180)" fill="#e8bd51" stroke="#101727" stroke-miterlimit="10" stroke-width="3"/><rect x="879.64" y="270.68" width="46.76" height="56.12" transform="translate(1806.03 597.48) rotate(-180)" fill="#e8bd51" stroke="#101727" stroke-miterlimit="10" stroke-width="3"/><rect x="885.96" y="327.34" width="58.13" height="28.19" transform="translate(1830.04 682.86) rotate(-180)" fill="#e8bd51" stroke="#101727" stroke-miterlimit="10" stroke-width="3"/><rect x="832.85" y="327.34" width="58.13" height="28.19" fill="#e8bd51" stroke="#101727" stroke-miterlimit="10" stroke-width="3"/><path d="M800.85,356.06h-.46v30.15l-39.68-29.01c-.99-1.17-2.05-2.32-3.17-3.43l-56.25-55.77h16.54c2.38.09,4.76.86,6.82,2.37l76.2,55.69Z" fill="#738452" stroke="#101727" stroke-linejoin="round" stroke-width="3"/><path d="M800.85,356.06l14.01,10.24c5.47,4,7.03,11.7,3.14,17.25-3.97,5.64-11.78,6.91-17.33,2.86l-.28-.2" fill="none" stroke="#101727" stroke-linejoin="round" stroke-width="3"/><path d="M875.68,386.16c6.23-2.7,13.48.16,16.18,6.39l71.69,165.32,44-101.48c2.7-6.23,9.95-9.09,16.18-6.39,6.23,2.7,9.09,9.95,6.39,16.18l-55.28,127.48c-.77,1.76-1.9,3.25-3.27,4.42h-.01c-.3.27-.6.5-.92.73-.02.02-.04.03-.07.05-.31.21-.63.41-.95.6-.04.02-.07.04-.11.06-.32.18-.66.34-1,.49-.03.01-.06.03-.09.04h0s-.03.01-.05.02c-.32.14-.65.26-.98.37-.07.02-.14.05-.22.07-.29.09-.58.16-.88.23-.11.03-.22.06-.33.08-.25.05-.51.09-.76.12-.15.02-.3.05-.45.06-.22.02-.44.03-.65.04-.19,0-.37.02-.56.02-.19,0-.37-.01-.56-.02-.22,0-.44-.02-.65-.04-.15-.02-.3-.04-.45-.06-.26-.03-.51-.07-.76-.12-.11-.02-.22-.05-.33-.08-.3-.07-.59-.14-.88-.23-.07-.02-.14-.05-.22-.07-.33-.11-.66-.23-.98-.37-.02,0-.03-.01-.05-.02h0s-.06-.03-.09-.04c-.34-.15-.67-.31-1-.49-.04-.02-.07-.04-.11-.06-.33-.18-.64-.38-.95-.6-.02-.02-.04-.03-.07-.05-.32-.22-.62-.46-.92-.71h-.01c-1.37-1.19-2.51-2.67-3.27-4.43l-82.96-191.32c-2.7-6.23.16-13.48,6.39-16.18Z" fill="#101727" stroke="#101727" stroke-miterlimit="10" stroke-width="3"/><rect x="1080.02" y="426.53" width="24.6" height="136.75" rx="8.99" ry="8.99" transform="translate(2291.37 514.39) rotate(156.56)" fill="#101727" stroke="#101727" stroke-miterlimit="10" stroke-width="3"/><path d="M1046.31,552.77c0-17.34,28.82-48.23,28.82-48.23,0,0,10.14-.06,19.48-.06,26.67,0,48.3,21.62,48.3,48.3,0,26.67-21.62,48.3-48.3,48.3-.36,0-.71-.02-1.07-.03v.03h-15.93s-9.65-8.03-9.65-8.03c-13.04-8.65-21.64-23.45-21.64-40.27Z" fill="#101727" stroke="#101727" stroke-miterlimit="10" stroke-width="3"/><circle cx="1077.6" cy="552.77" r="48.3" fill="#01654d" stroke="#101727" stroke-miterlimit="10" stroke-width="3"/><circle cx="1077.6" cy="554.87" r="24.63" fill="#e9e1ce" stroke="#101727" stroke-miterlimit="10" stroke-width="3"/><rect x="1040.58" y="431.28" width="24.6" height="136.75" rx="8.99" ry="8.99" transform="translate(2217.64 539.18) rotate(156.56)" fill="#e9e1ce" stroke="#101727" stroke-linejoin="round" stroke-width="3"/><path d="M822.75,385.5c5.89-1.51,11.98,1.78,14.4,7.36l71.55,165.01,43.87-101.16c2.42-5.58,8.51-8.88,14.4-7.37,7.54,1.94,11.27,10,8.31,16.84l-55.28,127.48c-.77,1.76-1.9,3.25-3.27,4.42h-.01c-.3.27-.6.5-.92.73-.02.02-.04.03-.07.05-.31.21-.63.41-.95.6-.04.02-.07.04-.11.06-.32.18-.66.34-1,.49-.03.01-.06.03-.09.04h0s-.03.01-.05.02c-.32.14-.65.26-.98.37-.07.02-.14.05-.22.07-.29.09-.58.16-.88.23-.11.03-.22.06-.33.08-.25.05-.51.09-.76.12-.15.02-.3.05-.45.06-.22.02-.44.03-.65.04-.19,0-.37.02-.56.02-.19,0-.37-.01-.56-.02-.22,0-.44-.02-.65-.04-.15-.02-.3-.04-.45-.06-.26-.03-.51-.07-.76-.12-.11-.02-.22-.05-.33-.08-.3-.07-.59-.14-.88-.23-.07-.02-.14-.05-.22-.07-.33-.11-.66-.23-.98-.37-.02,0-.03-.01-.05-.02h0s-.06-.03-.09-.04c-.34-.15-.67-.31-1-.49-.04-.02-.07-.04-.11-.06-.33-.18-.64-.38-.95-.6-.02-.02-.04-.03-.07-.05-.32-.22-.62-.46-.92-.71h-.01c-1.37-1.19-2.51-2.67-3.27-4.43l-82.96-191.32c-2.97-6.84.77-14.9,8.31-16.84Z" fill="#e9e1ce" stroke="#101727" stroke-linejoin="round" stroke-width="3"/><polygon points="980.82 475.86 1174.6 475.86 1212.05 356.06 1018.27 356.06 980.82 475.86" fill="#01654d" stroke="#101727" stroke-miterlimit="10" stroke-width="3"/><polygon points="1018.27 356.06 980.82 475.87 972.55 472.49 949.76 463.19 916.62 449.66 884.04 436.35 849.98 422.45 817.39 409.14 800.39 402.2 800.39 356.06 1018.27 356.06" fill="#e9e1ce" stroke="#101727" stroke-linejoin="round" stroke-width="3"/><path d="M742.69,601.97l26.98-152.24c.86-5.18,5.77-8.69,10.95-7.82h0c5.18.86,8.69,5.77,7.82,10.95l-26.43,149.11" fill="#e8bd51" stroke="#101727" stroke-miterlimit="10" stroke-width="3"/><path d="M660.59,601.98h-109.42l-6.98-50.43-3.29-23.75-49.3-45.75,75.33-13.88.9.58,4.46,2.87,6.48,3.22h0s-1.02,4.18-1.02,4.18v3.7l.6,1.2s0,.01.01.02l1.15,2.28s.03.05.04.07l.97,1.95,1.39.5h.01l5.65,2.04s.02,0,.02,0l1.62.58,1.87-1.02h0s3.65-2,3.65-2l1.88-4.72,1.3-3.27.03-.08.46.11.65.16.4.1s.05,0,.08,0l7.65,1.85,6.34-.15h.03l12.51-.29h.02l5.03-.12,21.55-8.81,7.92,128.85Z" fill="#01654d"/><polygon points="568.08 467.84 567.83 468.75 551.79 527.8 544.19 551.55 528.05 601.98 416.27 601.98 441.82 490.91 566.91 468.05 568.08 467.84" fill="#01654d"/><path d="M548.24,227.12l-.06.05-43.77,40.36-5.8-5.94c2.5-1.02,4.8-2.64,6.7-4.84l.43-.5c6.8-7.81,21.01-24.16,27.78-53.33l14.4,23.68.32.52Z" fill="#e9e1ce" stroke="#101727" stroke-miterlimit="10" stroke-width="3"/><path d="M533.52,202.92c-6.77,29.17-20.98,45.52-27.78,53.33l-.43.5c-1.9,2.2-4.2,3.82-6.7,4.84l-14.58-14.92,11.86-21.35,24.47-44.04,13.16,21.64Z" fill="none" stroke="#101727" stroke-miterlimit="10" stroke-width="3"/><path d="M568.08,467.84l-1.17.21-131.82,24.04,5.41-70.92,1.87-24.5,126.08,46.67c-.61.68-1.17,1.42-1.68,2.2-4.62,7.09-3.82,16.1,1.31,22.3Z" fill="#e9e1ce" stroke="#101727" stroke-miterlimit="10" stroke-width="3"/><path d="M516.27,149.07l-89.86,9.24c1.33,11.73,3.5,22.16,6.23,31.45,0,.02.02.03.02.05,8.83,18.1,19.44,23.88,38.2,23.66,9.43-1.64,18.58-5.66,26.63-11.86,19.43-14.98,19.83-30.52,18.78-52.54ZM457.54,185.07c-2.51.99-5.36-.33-6.36-2.95s.23-5.54,2.75-6.53c2.52-.98,5.37.34,6.36,2.95,1,2.62-.23,5.54-2.75,6.53ZM494.42,178.22c-2.52.99-5.37-.33-6.36-2.95-1-2.62.23-5.54,2.75-6.53,2.51-.98,5.36.34,6.36,2.95,1,2.62-.23,5.54-2.75,6.53Z" fill="#e9e1ce" stroke="#101727" stroke-miterlimit="10" stroke-width="3"/><path d="M536.87,180.41c-.59,8.24-1.76,15.72-3.35,22.51-6.77,29.17-20.98,45.52-27.78,53.33l-.43.5c-1.9,2.2-4.2,3.82-6.7,4.84-.09.05-.19.08-.28.12-5.58,2.19-12.09,1.45-17.31-2.45l-.65-.49c-.99-.74-2.11-1.58-3.34-2.53-.25-.19-.5-.38-.75-.58-2.11-1.64-4.5-3.59-7.07-5.89-.93-.84-1.89-1.73-2.87-2.67-5.41-5.2-11.4-11.95-17.09-20.69-.3-.46-.6-.93-.9-1.4-1.08-1.7-2.14-3.47-3.19-5.33-.27-.47-.53-.94-.79-1.42-.54-.99-1.08-2-1.62-3.04-.17-.33-.34-.67-.51-1.01-.64-1.27-1.27-2.57-1.89-3.9-2.83-6.09-5.44-12.87-7.66-20.41-.01-.03-.02-.06-.03-.09,8.83,18.1,19.44,23.88,38.2,23.66,9.43-1.64,18.58-5.66,26.63-11.86,19.43-14.98,19.83-30.52,18.78-52.54l-89.86,9.24v-.05s89.86-9.2,89.86-9.2l19.78-2.02c1.36,12.29,1.53,23.38.82,33.37Z" fill="none" stroke="#101727" stroke-miterlimit="10" stroke-width="3"/><path d="M536.05,147.04l-19.78,2.03-89.86,9.24v-.05s-.01-.01-.01-.01l-1.1-9.84-3.09-27.44c-2.85-25.41,14.74-48.06,39.3-50.58l20.72-2.13c24.56-2.53,46.77,16.03,49.63,41.44l4.18,37.28v.06Z" fill="#e8bd51"/><path d="M536.04,146.98h0s-138.53,14.24-138.53,14.24c-2.63.27-5-1.71-5.31-4.43h0c-.31-2.72,1.58-5.14,4.2-5.41l58.71-6.04" fill="#e8bd51" stroke="#101727" stroke-miterlimit="10" stroke-width="3"/><path d="M554.5,164.87c-3.13,12.32-11.08,14.23-17.63,15.54.71-9.99.54-21.08-.82-33.37,11.17-7.27,21.7,5.04,18.45,17.83Z" fill="#e9e1ce" stroke="#101727" stroke-miterlimit="10" stroke-width="3"/><path d="M536.87,180.41c-.24.04-.49.09-.73.14" fill="none" stroke="#101727" stroke-miterlimit="10" stroke-width="3"/><path d="M477.06,163.85c1.58,13.39-2.13,27.82-11.18,38.75-5.52,6.67,7.39,9.07,15.14-4.41" fill="none" stroke="#101727" stroke-miterlimit="10" stroke-width="3"/><path d="M536.87,180.41c-.59,8.24-1.76,15.72-3.35,22.51-6.77,29.17-20.98,45.52-27.78,53.33l-.43.5c-1.9,2.2-4.2,3.82-6.7,4.84-.09.05-.19.08-.28.12-5.58,2.19-12.09,1.45-17.31-2.45l-.65-.49c-.99-.74-2.11-1.58-3.34-2.53-.25-.19-.5-.38-.75-.58-2.11-1.64-4.5-3.59-7.07-5.89-.93-.84-1.89-1.73-2.87-2.67-5.41-5.2-11.4-11.95-17.09-20.69-.3-.46-.6-.93-.9-1.4-1.08-1.7-2.14-3.47-3.19-5.33-.27-.47-.53-.94-.79-1.42-.54-.99-1.08-2-1.62-3.04-.17-.33-.34-.67-.51-1.01-.64-1.27-1.27-2.57-1.89-3.9.71.29,1.43.56,2.15.82h.01c6.27,2.23,12.79,3.28,19.31,3.19h.06c3-.04,6.01-.32,8.98-.85,9.43-1.64,18.58-5.66,26.63-11.86,19.43-14.98,19.83-30.52,18.78-52.54h0s19.78-2.03,19.78-2.03c1.36,12.29,1.53,23.38.82,33.37Z" fill="#101727" stroke="#101727" stroke-miterlimit="10" stroke-width="3"/><path d="M494.42,178.22c-2.52.99-5.37-.33-6.36-2.95-1-2.62.23-5.54,2.75-6.53,2.51-.98,5.36.34,6.36,2.95,1,2.62-.23,5.54-2.75,6.53Z" fill="#e9e1ce" stroke="#101727" stroke-miterlimit="10" stroke-width="3"/><path d="M457.54,185.07c-2.51.99-5.36-.33-6.36-2.95s.23-5.54,2.75-6.53c2.52-.98,5.37.34,6.36,2.95,1,2.62-.23,5.54-2.75,6.53Z" fill="#e9e1ce" stroke="#101727" stroke-miterlimit="10" stroke-width="3"/><path d="M489.62,160.83c5.18-1.11,9.95.16,13.29,2.92" fill="none" stroke="#101727" stroke-miterlimit="10" stroke-width="4"/><path d="M499.23,221.55c-4.95,7.67-19.75,13.99-28.81,8.03" fill="none" stroke="#e9e1ce" stroke-miterlimit="10" stroke-width="3"/><line x1="469.21" y1="249.77" x2="468.63" y2="244.7" fill="none" stroke="#101727" stroke-miterlimit="10" stroke-width="3"/><polygon points="451.61 109.1 441.54 94.99 436.24 98.99 446.31 113.1 451.61 109.1" fill="#01654d"/><path d="M443.12,115.63c6.4,7.88,12.63,9.58,16.29,10.12.59-3.77.86-10.44-4.66-19.17.18-.22.37-.44.55-.67,1.35-1.75,2.48-3.53,3.42-5.34,9.74,13.69,7.67,24.28,6.89,28.27l-.03.17c-.15.77-.47,1.45-.91,2.02-.94,1.22-2.46,1.92-4.08,1.74l-.2-.02c-3.95-.43-14.43-1.58-24.19-15.22,2.33-.31,4.65-.93,6.91-1.9Z" fill="#fff"/><path d="M470.86,213.47l-8.98.85h-.06l-16.26,1.54s-1.2-1.6-3.05-4.73h-.01c-2.52-4.28-6.26-11.41-9.81-21.23-.01-.03-.02-.06-.03-.09,8.83,18.1,19.44,23.88,38.2,23.66Z" fill="#101727" stroke="#101727" stroke-miterlimit="10" stroke-width="3"/><line x1="853.39" y1="601.97" x2="87.95" y2="601.97" fill="none" stroke="#101727" stroke-miterlimit="10" stroke-width="3"/><line x1="365.59" y1="348.35" x2="365.12" y2="348.18" fill="none" stroke="#101727" stroke-miterlimit="10" stroke-width="3"/><polyline points="443.84 377.32 404.76 362.85 400.84 361.4 395.32 379.26 412.16 385.49 442.37 396.67" fill="#e8bd51" stroke="#101727" stroke-miterlimit="10" stroke-width="3"/><path d="M348.01,341.85c-.55.78-.98,1.65-1.27,2.6l-4.67,15.1-17.03-6.31,7.34-17.18,15.63,5.79Z" fill="#e8bd51" stroke="#101727" stroke-miterlimit="10" stroke-width="3"/><polyline points="332.38 336.06 295 322.23 282.74 317.69 275.47 334.9 287.74 339.44 325.04 353.24" fill="none" stroke="#101727" stroke-miterlimit="10" stroke-width="3"/><path d="M332.38,336.06l-7.34,17.18-37.3-13.8-15.45,44.15-47.01-17.39c-30.22-11.19-53.1-35.02-59.9-62.41l-1.87-7.52-3.49-14.05,11.24-8,6.88-4.89c5.81-4.13,12.24-7.42,19.11-9.85,5.1-1.81,10.44-3.14,15.94-3.99,2.08-.32,4.17-.57,6.29-.76,1.91-.17,3.84-.28,5.78-.32,1.56-.05,3.14-.05,4.71-.01,5.14.1,10.34.6,15.53,1.51,6.28,1.09,12.56,2.77,18.73,5.05l47.01,17.4-16.24,43.87,37.38,13.83Z" fill="#e9e1ce" stroke="#101727" stroke-miterlimit="10" stroke-width="3"/><path d="M275.1,331.32l-17.54-6.49c-4.83-1.79-7.51-6.58-5.98-10.71h0c1.53-4.13,6.68-6.02,11.51-4.23l17.54,6.49" fill="#e9e1ce" stroke="#101727" stroke-miterlimit="10" stroke-width="3"/><polyline points="596.62 483.62 597.76 484.04 599.05 480.56 599.06 480.54" fill="none" stroke="#101727" stroke-linejoin="round" stroke-width="3"/><line x1="579.09" y1="474.98" x2="578.39" y2="476.87" fill="none" stroke="#101727" stroke-linejoin="round" stroke-width="3"/><path d="M598.41,480.38v.06c0,1.19-.21,2.41-.65,3.6-.64,1.73-1.7,3.19-3.02,4.3-1.07.91-2.32,1.59-3.65,1.99h0c-1.11.35-2.29.5-3.49.45,0,0-.02,0-.02,0-1.03-.05-2.06-.26-3.08-.64-.94-.35-1.8-.82-2.57-1.4h-.01c-.93-.68-1.72-1.52-2.36-2.45-.01-.02-.03-.04-.04-.07-.48-.71-.87-1.47-1.15-2.28t-.01-.02c-.37-1.02-.58-2.1-.6-3.21v-.71c.05-1.04.26-2.1.64-3.13.24-.65.54-1.26.89-1.82,2.52-4.12,7.68-6.02,12.38-4.28,4.14,1.53,6.71,5.44,6.75,9.61Z" fill="#e8bd51" stroke="#101727" stroke-miterlimit="10" stroke-width="3"/><line x1="618.01" y1="312.77" x2="592.58" y2="286.78" fill="none" stroke="#101727" stroke-miterlimit="10" stroke-width="3"/><path d="M600.98,456.55c-1.81,2.77-4.83,4.29-7.91,4.29-1.76,0-3.54-.5-5.13-1.53l-2.46-1.6-6.39,17.27c-.11-.05-.21-.09-.32-.13h0s-6.48-3.23-6.48-3.23c-1.63-1.07-3.04-2.35-4.21-3.78-5.13-6.2-5.93-15.21-1.31-22.3.51-.78,1.07-1.52,1.68-2.2,5.91-6.72,15.89-8.4,23.74-3.74.22.13.44.27.65.4l.02.02,5.36,3.48c4.36,2.84,5.6,8.68,2.76,13.05Z" fill="#a99e53" stroke="#101727" stroke-miterlimit="10" stroke-width="3"/><path d="M578.77,474.85c-2.7-1.1-4.92-2.2-6.48-3.23" fill="none" stroke="#101727" stroke-miterlimit="10" stroke-width="3"/><path d="M670.05,466.29l-17.38,6.84-18.62,7.32c-2.47.76-5.15,1.29-7.96,1.61h-.02l-12.51.29h-.03c-4.67-.25-9.43-.86-13.99-1.7-.03,0-.05,0-.08,0l-.4-.1,8.89-24.01h0c-1.39-2.57-1.67-5.65-.6-8.52l7.48-20.23c1.16-3.12,3.47-5.49,6.27-6.78h0c2.73-1.28,5.92-1.53,8.98-.5.66.22,1.28.5,1.87.82l9.5-4.34,28.6,49.31Z" fill="#a99e53" stroke="#101727" stroke-miterlimit="10" stroke-width="3"/><path d="M740.04,438.75l-69.99,27.54-28.6-49.31,4.95-2.26,49.32-22.5-70.91-72.48h0c3.84-20.75,21.93-43.95,49.51-48.47h.01l11.37,11.28,15.59,15.45,56.25,55.77c1.12,1.11,2.18,2.26,3.17,3.43,22.56,26.65,12.66,68.44-20.67,81.55Z" fill="#e9e1ce" stroke="#101727" stroke-miterlimit="10" stroke-width="3"/><path d="M548.3,227.3l-3.09,68.35s-18.11-32.16-40.8-28.12l43.77-40.36.12.13Z" fill="#e9e1ce" stroke="#101727" stroke-miterlimit="10" stroke-width="3"/><path d="M504.41,267.53c-22.7,4.05-29.19,34.34-29.19,34.34l-6.01-52.1c2.57,2.3,4.96,4.25,7.07,5.89.25.2.5.39.75.58,1.23.95,2.35,1.79,3.34,2.53l.65.49c5.22,3.9,11.73,4.64,17.31,2.45.09-.04.19-.07.28-.12l5.8,5.94Z" fill="#e9e1ce" stroke="#101727" stroke-miterlimit="10" stroke-width="3"/><path d="M495.35,296.8c-2.66.48-5.21-1.37-5.7-4.13-.5-2.76,1.26-5.38,3.92-5.85,2.66-.48,5.21,1.37,5.71,4.13.49,2.76-1.27,5.38-3.93,5.85Z" fill="#e9e1ce" stroke="#101727" stroke-miterlimit="10" stroke-width="3"/><path d="M498.67,319.62c-2.66.47-5.22-1.38-5.71-4.14-.49-2.75,1.27-5.37,3.93-5.85,2.66-.47,5.21,1.38,5.7,4.14.49,2.76-1.26,5.38-3.92,5.85Z" fill="#e9e1ce" stroke="#101727" stroke-miterlimit="10" stroke-width="3"/><path d="M618,312.78h.01s6.8,6.95,6.8,6.95c3.84-20.74,21.93-43.94,49.51-48.46l-11.92-11.82-26.81-26.58c-2.72-2.42-5.66-4.55-8.79-6.36-3.13-1.81-6.45-3.31-9.89-4.46-7.27-2.44-14.97-3.29-22.6-2.5l-22.62,2.33c-7.17.74-16.43,2.63-23.39,4.49l-.38.23.32.52-.06.05.12.13-3.09,68.35s-18.11-32.16-40.8-28.12c-22.7,4.05-29.19,34.34-29.19,34.34l-6.01-52.1c-.93-.84-1.89-1.73-2.87-2.67-38.75,11.06-52.15,82.6-60.11,110.87,22.14-3.3,31.43,6.73,38.15,12.33l-.54,7.02,127.77,47.29c.47-1.31,1.11-2.58,1.89-3.79,1.87-2.88,4.39-5.07,7.25-6.52.17-3.2,1.16-6.4,3.03-9.28,5.68-8.73,17.36-11.2,26.09-5.52l1.48.96c1.98-.54,4.15-.48,6.23.29,4.16,1.54,6.74,5.49,6.74,9.69,0,1.19-.2,2.4-.64,3.58l-2.58,6.97c2.73-1.27,5.92-1.52,8.98-.49.66.22,1.28.5,1.87.82l9.5-4.34,4.95-2.26-.19-.42-28.21-101.52ZM489.65,292.67c-.5-2.76,1.26-5.38,3.92-5.85,2.66-.48,5.21,1.37,5.71,4.13.49,2.76-1.27,5.38-3.93,5.85-2.66.48-5.21-1.37-5.7-4.13ZM498.67,319.62c-2.66.47-5.22-1.38-5.71-4.14-.49-2.75,1.27-5.37,3.93-5.85,2.66-.47,5.21,1.38,5.7,4.14.49,2.76-1.26,5.38-3.92,5.85Z" fill="#e9e1ce" stroke="#101727" stroke-miterlimit="10" stroke-width="3"/><path d="M613.56,482.35c4.3.25,8.54.18,12.51-.29" fill="none" stroke="#101727" stroke-miterlimit="10" stroke-width="3"/><path d="M599.46,480.64c-.14-.02-.28-.05-.41-.08-.21-.03-.43-.07-.64-.12-.16-.03-.33-.06-.49-.09" fill="none" stroke="#101727" stroke-miterlimit="10" stroke-width="3"/><line x1="589.48" y1="431.22" x2="589.3" y2="431.1" fill="none" stroke="#101727" stroke-miterlimit="10" stroke-width="3"/><line x1="585.48" y1="457.71" x2="582.52" y2="455.79" fill="none" stroke="#101727" stroke-miterlimit="10" stroke-width="3"/><path d="M610.01,427.2c0,1.76-.5,3.55-1.53,5.14-2.84,4.36-8.68,5.6-13.04,2.76l-1.28-.83-4.67-3.05h-.01l-17.87-6.61c.47-1.31,1.11-2.58,1.89-3.79,1.87-2.88,4.39-5.07,7.25-6.52,5.81-2.95,12.98-2.81,18.83,1l3.01,1.96,3.13,2.03c2.78,1.81,4.29,4.83,4.29,7.91Z" fill="#a99e53" stroke="#101727" stroke-miterlimit="10" stroke-width="3"/><path d="M442.37,396.67l126.08,46.67c5.91-6.72,15.89-8.4,23.74-3.74l1.97-5.33-4.67-3.05h-.01l-17.87-6.61-127.77-47.29" fill="#e8bd51" stroke="#101727" stroke-miterlimit="10" stroke-width="3"/><path d="M624.32,410.44c0,1.19-.2,2.4-.64,3.58l-2.58,6.97h0c-2.8,1.3-5.11,3.67-6.27,6.79l-7.48,20.23c-1.07,2.87-.79,5.95.6,8.51h0s-8.89,24.02-8.89,24.02l-.65-.16c-.04-4.17-2.61-8.08-6.75-9.61-4.7-1.74-9.86.16-12.38,4.28-.06-.03-.13-.05-.19-.07l6.39-17.27,2.46,1.6c1.59,1.03,3.37,1.53,5.13,1.53,3.08,0,6.1-1.52,7.91-4.29,2.84-4.37,1.6-10.21-2.76-13.05l-5.36-3.48-.02-.02c-.21-.13-.43-.27-.65-.4l1.97-5.33,1.28.83c4.36,2.84,10.2,1.6,13.04-2.76,1.03-1.59,1.53-3.38,1.53-5.14,0-3.08-1.51-6.1-4.29-7.91l-3.13-2.03c4.36,2.83,10.19,1.59,13.03-2.77,1.03-1.59,1.53-3.38,1.53-5.14,0-3.08-1.51-6.1-4.29-7.91l-1.51-.98c1.98-.54,4.15-.48,6.23.29,4.16,1.54,6.74,5.49,6.74,9.69Z" fill="#e8bd51" stroke="#101727" stroke-miterlimit="10" stroke-width="3"/><path d="M617.15,409.35c0,1.76-.5,3.55-1.53,5.14-2.84,4.36-8.67,5.6-13.03,2.77l-3.01-1.96c-5.85-3.81-13.02-3.95-18.83-1,.17-3.2,1.16-6.4,3.03-9.28,5.68-8.73,17.36-11.2,26.09-5.52l1.48.96,1.51.98c2.78,1.81,4.29,4.83,4.29,7.91Z" fill="#a99e53" stroke="#101727" stroke-miterlimit="10" stroke-width="3"/><path d="M631.95,421.32c3.93,2.11,6.37,6.23,6.37,10.66,0,.83-.08,1.66-.26,2.5l-3.47,16.48" fill="none" stroke="#101727" stroke-miterlimit="10" stroke-width="3"/><path d="M607.95,456.53c.77,1.44,1.9,2.72,3.34,3.68l11.86,7.96" fill="none" stroke="#101727" stroke-miterlimit="10" stroke-width="3"/><line x1="359.78" y1="366.1" x2="358.1" y2="371.54" fill="none" stroke="#101727" stroke-miterlimit="10" stroke-width="3"/><line x1="341.54" y1="361.3" x2="340.1" y2="365.97" fill="none" stroke="#101727" stroke-miterlimit="10" stroke-width="3"/><line x1="382.9" y1="355.57" x2="376.25" y2="377.1" fill="none" stroke="#101727" stroke-miterlimit="10" stroke-width="3"/><line x1="359.9" y1="366.15" x2="358.24" y2="371.54" fill="none" stroke="#101727" stroke-miterlimit="10" stroke-width="3"/><path d="M412.16,385.49l-.28.75-1.72,5.56c-1.77,5.76-7.88,8.98-13.64,7.21l-34.69-11.57-15.37-5.12c-5.75-1.78-8.98-7.88-7.2-13.64l.84-2.71h-.01l1.98-6.42,4.67-15.1c.29-.95.72-1.82,1.27-2.6.08-.13.17-.25.27-.37,2.33-3.04,6.38-4.46,10.25-3.26,4.04,1.25,6.64,4.98,6.64,9,0,.26-.01.52-.03.78-.01.06-.01.12-.02.18-.06.61-.18,1.22-.37,1.83l-4.97,16.09.12.05,4.99-16.14c.18-.59.41-1.14.7-1.66.02-.05.04-.1.08-.14,2.11-3.82,6.67-5.76,11.01-4.42,4.04,1.24,6.64,4.97,6.64,8.99,0,.68-.07,1.37-.22,2.05-.06.25-.12.49-.2.74.08-.25.16-.49.25-.72,1.81-4.52,6.82-6.96,11.54-5.5,1.03.32,1.96.79,2.78,1.39,2.42,1.77,3.87,4.61,3.87,7.62,0,.92-.14,1.85-.42,2.78l-.08.26-5.52,17.86,16.84,6.23Z" fill="#a99e53" stroke="#101727" stroke-miterlimit="10" stroke-width="3"/><line x1="395.32" y1="379.26" x2="394.27" y2="382.67" fill="none" stroke="#101727" stroke-miterlimit="10" stroke-width="3"/><line x1="382.9" y1="355.57" x2="376.25" y2="377.1" fill="none" stroke="#101727" stroke-miterlimit="10" stroke-width="3"/><path d="M397.47,350.74c-.82-.6-1.75-1.07-2.78-1.39-4.72-1.46-9.73.98-11.54,5.5l-.05-.02c.15-.68.22-1.37.22-2.05,0-4.02-2.6-7.75-6.64-8.99-4.34-1.34-8.9.6-11.01,4.42l-.53-.21c.02-.26.03-.52.03-.78,0-4.02-2.6-7.75-6.64-9-3.87-1.2-7.92.22-10.25,3.26l-.78-.3c-3.78-1.46-6.1-5.07-6.1-8.91,0-1.08.19-2.19.58-3.27,1.77-4.86,7.1-7.42,12-5.77l24.7,8.3c8.98,3.01,15.97,10.17,18.79,19.21Z" fill="#a99e53" stroke="#101727" stroke-miterlimit="10" stroke-width="3"/><path d="M397.51,350.88s-.03-.09-.04-.14" fill="none" stroke="#101727" stroke-miterlimit="10" stroke-width="3"/><path d="M444.38,370.3l-.54,7.02-39.08-14.47c.47-1.43.96-3.07,1.47-4.88,22.14-3.3,31.43,6.73,38.15,12.33Z" fill="#e9e1ce" stroke="#101727" stroke-miterlimit="10" stroke-width="3"/><path d="M442.37,396.67l-1.87,24.5s-25.19,65.14-50.27,64.56c-25.03-.57-23.93-34.45-28.4-98.29l34.69,11.57c5.76,1.77,11.87-1.45,13.64-7.21l1.72-5.56.28-.75,30.21,11.18Z" fill="#e9e1ce" stroke="#101727" stroke-miterlimit="10" stroke-width="3"/><path d="M361.83,387.44c-.01-.12-.02-.25-.03-.38" fill="none" stroke="#101727" stroke-miterlimit="10" stroke-width="3"/><rect x="113.6" y="238.63" width="57.66" height="57.66" rx="8.25" ry="8.25" fill="#e8bd51" stroke="#101727" stroke-miterlimit="10" stroke-width="3"/><polygon points="142.77 262.67 132.7 248.56 127.39 252.56 137.46 266.67 142.77 262.67" fill="#e8bd51" stroke="#101727" stroke-miterlimit="10" stroke-width="3"/><path d="M134.27,269.19c6.4,7.88,12.63,9.58,16.29,10.12.59-3.77.86-10.44-4.66-19.17.18-.22.37-.44.55-.67,1.35-1.75,2.48-3.53,3.42-5.34,9.74,13.69,7.67,24.28,6.89,28.27l-.03.17c-.15.77-.47,1.45-.91,2.02-.94,1.22-2.46,1.92-4.08,1.74l-.2-.02c-3.95-.43-14.43-1.58-24.19-15.22,2.33-.31,4.65-.93,6.91-1.9Z" fill="#e8bd51" stroke="#101727" stroke-miterlimit="10" stroke-width="3"/><rect x="197.25" y="237.68" width="48.24" height="48.24" rx="8.25" ry="8.25" fill="#e8bd51" stroke="#101727" stroke-miterlimit="10" stroke-width="3"/><polygon points="221.66 257.79 213.23 245.98 208.79 249.33 217.22 261.13 221.66 257.79" fill="#e8bd51" stroke="#101727" stroke-miterlimit="10" stroke-width="3"/><path d="M214.55,263.25c5.35,6.59,10.57,8.02,13.63,8.47.5-3.16.72-8.74-3.9-16.04.15-.19.31-.37.46-.56,1.13-1.46,2.07-2.95,2.86-4.46,8.15,11.45,6.42,20.31,5.77,23.65l-.03.14c-.12.64-.39,1.22-.76,1.69-.79,1.02-2.05,1.6-3.41,1.45l-.17-.02c-3.3-.36-12.07-1.32-20.24-12.73,1.95-.26,3.89-.78,5.78-1.59Z" fill="#e8bd51" stroke="#101727" stroke-miterlimit="10" stroke-width="3"/><rect x="118.74" y="149.28" width="68.91" height="68.91" rx="8.25" ry="8.25" fill="#e8bd51" stroke="#101727" stroke-miterlimit="10" stroke-width="3"/><polygon points="153.6 178.01 141.57 161.15 135.23 165.93 147.26 182.79 153.6 178.01" fill="#e8bd51" stroke="#101727" stroke-miterlimit="10" stroke-width="3"/><path d="M143.45,185.81c7.64,9.42,15.1,11.45,19.47,12.1.71-4.51,1.03-12.48-5.57-22.91.22-.27.44-.53.65-.8,1.61-2.09,2.96-4.22,4.08-6.38,11.64,16.36,9.17,29.01,8.24,33.78l-.04.2c-.18.92-.56,1.74-1.08,2.42-1.13,1.46-2.93,2.29-4.87,2.08l-.24-.03c-4.72-.52-17.25-1.89-28.9-18.18,2.78-.37,5.56-1.11,8.26-2.27Z" fill="#e8bd51" stroke="#101727" stroke-miterlimit="10" stroke-width="3"/><path d="M444.26,171.7c3.48-4.08,8-5.97,12.24-5.77" fill="none" stroke="#101727" stroke-miterlimit="10" stroke-width="4"/><line x1="504.41" y1="267.53" x2="513.71" y2="338.79" fill="none" stroke="#101727" stroke-miterlimit="10" stroke-width="3"/><line x1="445.57" y1="354.67" x2="444.38" y2="370.3" fill="none" stroke="#101727" stroke-miterlimit="10" stroke-width="3"/><path d="M466.77,69.12c-11.93,1.04-17.5,11.76-17.5,11.76" fill="none" stroke="#101727" stroke-miterlimit="10" stroke-width="3"/></svg>