<?xml version="1.0" encoding="UTF-8"?><svg id="Layer_1" xmlns="http://www.w3.org/2000/svg" viewBox="0 0 1300 1065.42"><path d="M622.43,367.91c-1.73-2.25-5.92.4-4.19,2.65,10.06,13.1,18.48,27.89,20.93,44.45,2.25,15.17-1.07,30.73-10.82,42.77-9.78,12.09-23.77,19.65-38.68,23.46-8.02,2.05-16.3,3.02-24.56,3.34-7.69.3-15.43-.33-23.11.39-18.67,1.74-31.81,14.57-46.5,24.77-2.57,1.78-.26,5.48,2.33,3.68,14.89-10.34,27.83-23.15,46.93-24.13,8.44-.43,16.89.15,25.33-.48,8.17-.61,16.33-1.95,24.19-4.28,14.8-4.38,28.66-12.68,38.24-24.95,9-11.54,12.99-25.83,11.94-40.38-1.38-19.12-10.56-36.33-22.05-51.3Z" fill="#587a51" stroke="#101727" stroke-miterlimit="10" stroke-width="3"/><path d="M602.33,893.11h-57.08v14.03h57.08c3.87,0,7.01-3.14,7.01-7.01s-3.14-7.01-7.01-7.01Z" fill="#a99e53" stroke="#101727" stroke-linejoin="round" stroke-width="3"/><circle cx="545.25" cy="900.13" r="7.01" fill="#a99e53" stroke="#101727" stroke-linejoin="round" stroke-width="3"/><rect x="41.47" y="298.86" width="877.97" height="10.41" transform="translate(129.65 -143.41) rotate(19.58)" fill="#738452"/><line x1="65.11" y1="161.88" x2="892.33" y2="456.05" fill="none" stroke="#101727" stroke-linejoin="round" stroke-width="3"/><line x1="68.59" y1="152.07" x2="895.82" y2="446.25" fill="none" stroke="#101727" stroke-linejoin="round" stroke-width="3"/><rect x="136.85" y="267.03" width="877.97" height="10.41" transform="translate(124.5 -177.21) rotate(19.58)" fill="#738452"/><line x1="160.49" y1="130.05" x2="987.71" y2="424.23" fill="none" stroke="#101727" stroke-linejoin="round" stroke-width="3"/><line x1="163.97" y1="120.24" x2="991.2" y2="414.42" fill="none" stroke="#101727" stroke-linejoin="round" stroke-width="3"/><rect x="332.63" y="193.65" width="877.97" height="10.41" transform="translate(111.23 -247.05) rotate(19.58)" fill="#738452"/><line x1="356.26" y1="56.67" x2="1183.49" y2="350.85" fill="none" stroke="#101727" stroke-linejoin="round" stroke-width="3"/><line x1="359.75" y1="46.87" x2="1186.97" y2="341.04" fill="none" stroke="#101727" stroke-linejoin="round" stroke-width="3"/><rect x="428.01" y="161.82" width="877.97" height="10.41" transform="translate(106.08 -280.85) rotate(19.58)" fill="#738452"/><line x1="451.64" y1="24.84" x2="1278.87" y2="319.02" fill="none" stroke="#101727" stroke-linejoin="round" stroke-width="3"/><line x1="455.13" y1="15.04" x2="1282.35" y2="309.21" fill="none" stroke="#101727" stroke-linejoin="round" stroke-width="3"/><rect x="270.81" y="203.92" width="53.11" height="17.01" rx="8.5" ry="8.5" fill="#587a51" stroke="#101727" stroke-miterlimit="10" stroke-width="3"/><rect x="270.81" y="220.93" width="53.11" height="17.01" rx="8.5" ry="8.5" fill="#587a51" stroke="#101727" stroke-miterlimit="10" stroke-width="3"/><rect x="270.81" y="237.94" width="53.11" height="17.01" rx="8.5" ry="8.5" fill="#587a51" stroke="#101727" stroke-miterlimit="10" stroke-width="3"/><rect x="270.81" y="254.94" width="53.11" height="17.01" rx="8.5" ry="8.5" fill="#587a51" stroke="#101727" stroke-miterlimit="10" stroke-width="3"/><rect x="391.01" y="177.11" width="53.11" height="17.01" rx="8.5" ry="8.5" fill="#587a51" stroke="#101727" stroke-miterlimit="10" stroke-width="3"/><rect x="391.01" y="194.12" width="53.11" height="17.01" rx="8.5" ry="8.5" fill="#587a51" stroke="#101727" stroke-miterlimit="10" stroke-width="3"/><rect x="391.01" y="211.13" width="53.11" height="17.01" rx="8.5" ry="8.5" fill="#587a51" stroke="#101727" stroke-miterlimit="10" stroke-width="3"/><rect x="391.01" y="228.14" width="53.11" height="17.01" rx="8.5" ry="8.5" fill="#587a51" stroke="#101727" stroke-miterlimit="10" stroke-width="3"/><rect x="629.03" y="122.82" width="53.11" height="17.01" rx="8.5" ry="8.5" fill="#587a51" stroke="#101727" stroke-miterlimit="10" stroke-width="3"/><rect x="629.03" y="139.83" width="53.11" height="17.01" rx="8.5" ry="8.5" fill="#587a51" stroke="#101727" stroke-miterlimit="10" stroke-width="3"/><rect x="629.03" y="156.84" width="53.11" height="17.01" rx="8.5" ry="8.5" fill="#587a51" stroke="#101727" stroke-miterlimit="10" stroke-width="3"/><rect x="629.03" y="173.85" width="53.11" height="17.01" rx="8.5" ry="8.5" fill="#587a51" stroke="#101727" stroke-miterlimit="10" stroke-width="3"/><rect x="749.23" y="96.01" width="53.11" height="17.01" rx="8.5" ry="8.5" fill="#587a51" stroke="#101727" stroke-miterlimit="10" stroke-width="3"/><rect x="749.23" y="113.02" width="53.11" height="17.01" rx="8.5" ry="8.5" fill="#587a51" stroke="#101727" stroke-miterlimit="10" stroke-width="3"/><rect x="749.23" y="130.03" width="53.11" height="17.01" rx="8.5" ry="8.5" fill="#587a51" stroke="#101727" stroke-miterlimit="10" stroke-width="3"/><rect x="749.23" y="147.04" width="53.11" height="17.01" rx="8.5" ry="8.5" fill="#587a51" stroke="#101727" stroke-miterlimit="10" stroke-width="3"/><path d="M501.11,834.18l.77,59.15,130.4-.35s18.5-40.44-46.72-39.88c.12-9.54.84-20.38.84-20.38l-85.28,1.46Z" fill="#e9e1ce" stroke="#101727" stroke-miterlimit="10" stroke-width="3"/><polygon points="599.22 838.03 477.23 837.99 473.24 805.01 603.23 805.04 599.22 838.03" fill="#01654d"/><polygon points="310.78 656.7 310.79 656.72 319.9 731.26 383.93 734.82 457.77 738.92 485.95 805 487.84 809.43 499.89 809.14 576.08 807.28 589.53 806.95 589.01 805.04 576.08 757.03 549.75 659.32 499.89 654.01 418.53 645.35 372.54 649.68 372.3 649.71 310.78 656.7" fill="#01654d"/><polygon points="200.17 669.51 210.6 719.82 297.9 815.81 403.41 962.77 499.69 929.33 428.77 797.88 336.25 667.77 316.12 656.1 200.17 669.51" fill="#01654d"/><rect x="247.82" y="284.82" width="6.65" height="16.9" transform="translate(-1.22 1.05) rotate(-.24)" fill="#01654d"/><path d="M258.56,301.78c-.59,9.89-4.66,14.9-7.31,17.48-2.69-2.58-6.8-7.6-7.42-17.63-.28-.07-.56-.13-.84-.2-2.12-.56-4.08-1.28-5.89-2.12.09,16.38,7.96,23.38,10.93,26.01l.12.11c.57.51,1.23.85,1.92,1.04,1.48.39,3.11.04,4.32-1.06l.15-.14c2.95-2.67,10.79-9.75,10.74-26.09-2.07,1.14-4.32,2.02-6.73,2.6Z" fill="#fff"/><path d="M594.57,282.62h0c4.83,0,8.74,3.92,8.74,8.74v18.29h-17.49v-18.29c0-4.83,3.92-8.74,8.74-8.74Z" fill="#397050" stroke="#101727" stroke-linejoin="round" stroke-width="3"/><path d="M594.57,295.05c-17.99,0-32.57,3.42-32.57,7.64v140.38h65.15v-140.38c0-4.22-14.58-7.64-32.57-7.64Z" fill="#397050" stroke="#101727" stroke-linejoin="round" stroke-width="3"/><ellipse cx="594.57" cy="443.08" rx="32.57" ry="7.64" fill="#01654d" stroke="#101727" stroke-linejoin="round" stroke-width="3"/><line x1="607.74" y1="295.05" x2="607.74" y2="435.44" fill="none" stroke="#101727" stroke-linejoin="round" stroke-width="3"/><line x1="612.54" y1="296.14" x2="612.54" y2="436.33" fill="none" stroke="#101727" stroke-linejoin="round" stroke-width="3"/><path d="M576.08,117.15v406.71l-76.19,21.3v-28.14h5.34s10.49.01,10.49.01v-181.02h-7.92c-.19,0-.37,0-.56.02-4.11.29-7.35,3.72-7.35,7.9V117.15s1.91-3.31,8.07-6.54c3.79-1.99,9.19-3.95,16.74-5.09,4.16-.63,8.97-1.01,14.52-1.01,32.01,0,36.86,12.64,36.86,12.64Z" fill="#a99e53" stroke="#101727" stroke-linejoin="round" stroke-width="3"/><path d="M576.08,560.83v486.16h-76.19v-464.44l19.66-5.38h.02l52.55-14.37c1.47-.4,2.81-1.08,3.96-1.97Z" fill="#a99e53" stroke="#101727" stroke-linejoin="round" stroke-width="3"/><polygon points="863.84 184.06 232.8 324.34 232.8 273.5 863.84 133.22 863.84 184.06" fill="#a99e53" stroke="#101727" stroke-linejoin="round" stroke-width="3"/><polygon points="863.84 184.06 232.8 324.34 262.07 332.73 884.94 197.74 863.84 184.06" fill="#a99e53" stroke="#101727" stroke-linejoin="round" stroke-width="3"/><polygon points="884.94 197.74 863.84 184.06 863.84 133.22 883.55 151.96 884.94 197.74" fill="#a99e53" stroke="#101727" stroke-linejoin="round" stroke-width="3"/><path d="M302.22,361.87c-1.76-9.24-4.56-19.2-8.7-29.9h-.01l.02.05-84.64,32.87c9.05,19.4,16.46,32.57,40.65,36.62,10.02,1.67,20.04.96,29.24-1.91,16.9-8.34,23.78-18.13,23.44-37.73ZM249.09,374.68c-2.7.29-5.13-1.66-5.43-4.36-.29-2.7,1.66-5.13,4.36-5.42,2.7-.3,5.13,1.65,5.42,4.35.3,2.71-1.65,5.13-4.35,5.43ZM285.21,363.83c-2.7.29-5.13-1.66-5.42-4.36-.3-2.7,1.66-5.13,4.36-5.42,2.7-.3,5.13,1.65,5.42,4.35s-1.66,5.13-4.36,5.43Z" fill="#e9e1ce" stroke="#101727" stroke-miterlimit="10" stroke-width="3"/><path d="M304.73,387.85c0,.5,0,.99-.02,1.47,0,.27,0,.54,0,.8-.01.68-.03,1.35-.06,2.01-.01.24-.01.48-.02.72-.02.42-.04.83-.06,1.25-.04.7-.08,1.4-.13,2.1-.13,1.79-.3,3.54-.5,5.24-.06.57-.13,1.14-.21,1.71-.06.46-.12.91-.19,1.36-.15,1.06-.31,2.11-.5,3.14-.19,1.12-.39,2.22-.61,3.29-.97,4.8-2.19,9.15-3.49,13.05-.19.56-.37,1.11-.56,1.65-.76,2.16-1.54,4.17-2.31,6.03-.39.93-.77,1.82-1.15,2.68-.16.36-.32.72-.47,1.06-.14.29-.27.58-.4.87h-.01c-.08.18-.16.35-.24.52-.54,1.17-1.07,2.27-1.58,3.27-.33.68-.65,1.31-.95,1.9-.15.3-.3.59-.44.87l-.36.72c-.37.73-.79,1.43-1.25,2.09-2.19,3.21-5.28,5.56-8.77,6.85-1.05.39-2.14.68-3.24.87-.37.07-.75.12-1.12.16-.65.07-1.3.1-1.95.1s-1.29-.03-1.94-.1c-.18-.02-.37-.04-.55-.07-.27-.03-.54-.08-.82-.13-.33-.06-.67-.13-1-.21-.27-.06-.54-.13-.81-.22-.48-.13-.96-.29-1.43-.47l-.61-.23c-10.65-4.01-34.13-12.86-55.13-40.61-2.43-3.21-4.83-6.67-7.17-10.41-5.17-8.26-10.06-17.87-14.42-29.05h0l4.07-1.58,3.69-1.44,10.86-4.23,84.63-32.91.02.05-84.64,32.87c9.05,19.4,16.46,32.57,40.65,36.62,10.02,1.67,20.04.96,29.24-1.91,16.9-8.34,23.78-18.13,23.44-37.73,1.45,7.55,2.19,14.59,2.42,21.17h0c.02.55.04,1.09.04,1.63.01.35.02.7.02,1.04.02.72.02,1.43.02,2.14Z" fill="none" stroke="#101727" stroke-miterlimit="10" stroke-width="3"/><path d="M293.53,332.02l-84.64,32.87-18.64,7.24-.02-.06-13.18-33.93c-8.98-23.13,2.49-49.16,25.62-58.15l17.68-6.87,1.84-.71c8.33-3.23,17.04-3.82,25.19-2.15,14.48,2.94,27.21,12.97,32.96,27.77l5.62,14.49,4.07,10.49,1.31,3.37,2.17,5.59.02.05Z" fill="#e8bd51"/><path d="M190.23,372.08h0s130.5-50.67,130.5-50.67c2.47-.96,3.7-3.74,2.74-6.22h0c-.96-2.47-3.74-3.7-6.22-2.74l-55.31,21.48" fill="#e8bd51" stroke="#101727" stroke-miterlimit="10" stroke-width="3"/><path d="M204.67,401.18c-6.46,1.84-14.44,3.81-22.84-5.36-8.72-9.51-4.89-24.86,8.42-23.69,4.36,11.18,9.25,20.79,14.42,29.05Z" fill="#e9e1ce" stroke="#101727" stroke-miterlimit="10" stroke-width="3"/><path d="M205.38,400.97c-.23.07-.47.14-.71.21" fill="none" stroke="#101727" stroke-miterlimit="10" stroke-width="3"/><path d="M258.11,354.46c4.67,12.22,14.54,22.94,27.6,28.22,7.97,3.22-2.5,11.15-15.56,3.09" fill="none" stroke="#101727" stroke-miterlimit="10" stroke-width="3"/><path d="M304.73,387.85c0,.5,0,.99-.02,1.47,0,.27,0,.54,0,.8-.01.68-.03,1.35-.06,2.01-.02.66-.05,1.32-.08,1.97-.04.7-.08,1.4-.13,2.1-.13,1.79-.3,3.54-.5,5.24-.06.57-.13,1.14-.21,1.71-.06.46-.12.91-.19,1.36-.15,1.06-.31,2.11-.5,3.14-.19,1.12-.39,2.22-.61,3.29-.97,4.8-2.19,9.15-3.49,13.05-.19.56-.37,1.11-.56,1.65-.76,2.16-1.54,4.17-2.31,6.03-.38.93-.77,1.83-1.15,2.68-.16.36-.32.72-.47,1.06-.14.29-.27.58-.4.87-.08.17-.16.35-.25.52-.54,1.17-1.07,2.27-1.58,3.27-.33.68-.65,1.31-.95,1.9-.15.3-.3.59-.44.87l-.36.72c-.37.73-.79,1.43-1.25,2.09-2.19,3.21-5.28,5.56-8.77,6.85-1.05.39-2.14.68-3.24.87-.37.06-.75.11-1.12.15-.65.07-1.29.11-1.95.11s-1.29-.03-1.94-.1c-.18-.02-.37-.04-.55-.07-.27-.03-.54-.08-.82-.13-.33-.06-.67-.13-1-.21-.27-.06-.54-.13-.81-.22-.48-.13-.96-.29-1.43-.47l-.61-.23c-10.65-4.01-34.13-12.86-55.13-40.61-2.43-3.21-4.83-6.67-7.17-10.41-5.17-8.26-10.06-17.87-14.42-29.05h0l4.07-1.58,3.69-1.44,10.86-4.23h0s.01,0,.01,0c9.05,19.4,16.46,32.57,40.65,36.62,10.02,1.67,20.04.96,29.24-1.91,2.9-.9,5.72-2.02,8.42-3.35,5.9-2.89,11.29-6.76,15.9-11.55.53-.54,1.04-1.09,1.54-1.66h0c.02.55.04,1.09.04,1.63.01.35.02.7.02,1.04.02.72.02,1.43.02,2.14Z" fill="#101727" stroke="#101727" stroke-miterlimit="10" stroke-width="3"/><path d="M249.09,374.68c-2.7.29-5.13-1.66-5.43-4.36-.29-2.7,1.66-5.13,4.36-5.42,2.7-.3,5.13,1.65,5.42,4.35.3,2.71-1.65,5.13-4.35,5.43Z" fill="#e9e1ce" stroke="#101727" stroke-miterlimit="10" stroke-width="3"/><path d="M285.21,363.83c-2.7.29-5.13-1.66-5.42-4.36-.3-2.7,1.66-5.13,4.36-5.42,2.7-.3,5.13,1.65,5.42,4.35s-1.66,5.13-4.36,5.43Z" fill="#e9e1ce" stroke="#101727" stroke-miterlimit="10" stroke-width="3"/><path d="M245.49,357.57c-5.15,1.4-8.83,4.66-10.57,8.54" fill="none" stroke="#101727" stroke-miterlimit="10" stroke-width="4"/><path d="M257.04,419.43c7.92,4.34,24.03,3.05,29.44-6.18" fill="none" stroke="#e9e1ce" stroke-miterlimit="10" stroke-width="3"/><path d="M271.76,470.93l-42.02-14.2c-8.55-6.97-17.91-12.02-27.98-9.45l10.08-35.69c21,27.75,44.48,36.6,55.13,40.61l.61.23c.47.18.95.34,1.43.47.27.09.54.16.81.22l1.94,17.81Z" fill="#e9e1ce" stroke="#101727" stroke-miterlimit="10" stroke-width="3"/><polyline points="269.82 453.12 269.24 447.79 215.97 396.96 211.84 411.59" fill="none" stroke="#101727" stroke-miterlimit="10" stroke-width="3"/><line x1="299.77" y1="517.03" x2="271.83" y2="471.05" fill="none" stroke="#101727" stroke-miterlimit="10" stroke-width="3"/><path d="M343.16,492.65l21.52,44.73-16.18,7.52-31.73-74.16c6.49.8,10.68,1.59,10.68,1.59l-14.25-9.94-11.76-29.6,32.38-15.25c-3.4,17.51-2.72,48.51,34.21,62.14l-24.87,12.97Z" fill="#e9e1ce" stroke="#101727" stroke-linecap="round" stroke-linejoin="round" stroke-width="3"/><path d="M327.45,472.33s-4.19-.79-10.68-1.59c-6.49-.81-15.29-1.63-24.49-1.69-4.99-.04-10.09.15-15.01.68-1.95.21-3.76.66-5.44,1.32l-.07-.12-1.94-17.81c.33.08.67.15,1,.21.28.05.55.1.82.13.18.03.37.05.55.07.65.07,1.29.1,1.94.1s1.3-.03,1.95-.1c.37-.04.75-.09,1.12-.16,1.1-.19,2.19-.48,3.24-.87,3.49-1.29,6.58-3.64,8.77-6.85l23.99,16.74,14.25,9.94Z" fill="#e9e1ce" stroke="#101727" stroke-linecap="round" stroke-linejoin="round" stroke-width="3"/><path d="M303.1,384.7c-.24,3.54-.59,5.46-.59,5.46l-15.31,6.09-8.42,3.35c16.9-8.34,23.78-18.13,23.44-37.73,1.31,10.12,1.2,17.99.88,22.83Z" fill="#101727" stroke="#101727" stroke-miterlimit="10" stroke-width="3"/><path d="M292.51,517.04c-17.8,1.93-44.51,12.5-46.43,52.14l-23.44-22.52,15.56,71.66-19.14,5.35v5.04l-41.38,4.97c-3.86-14.77-8.2-33.38-12.06-54.73-9.71-53.66-18.71-107.97,25.56-127.86l.07-.03,10.45-3.75.06-.02c10.07-2.57,19.43,2.48,27.98,9.45,4.66,3.81,9.09,8.2,13.25,12.24l15.32,14.87,8.56,8.3,5.54,5.38,20.1,19.51Z" fill="#e9e1ce" stroke="#101727" stroke-miterlimit="10" stroke-width="3"/><path d="M201.7,447.3c-3.77,1.07-7.25,2.31-10.45,3.75" fill="none" stroke="#101727" stroke-miterlimit="10" stroke-width="3"/><path d="M184.57,658.09l.12.39c1.65,5.38,2.89,9.1,3.5,10.88v.03c.11.34.21.6.28.8l.06.17.08.24,7.27-.83,62.86-7.15,7.73-.88" fill="none" stroke="#101727" stroke-miterlimit="10" stroke-width="3"/><polyline points="310.78 656.7 316.12 656.1 372.3 649.71" fill="none" stroke="#101727" stroke-miterlimit="10" stroke-width="3"/><line x1="416.33" y1="644.7" x2="409.08" y2="629.63" fill="none" stroke="#101727" stroke-miterlimit="10" stroke-width="3"/><line x1="343.16" y1="492.65" x2="339.99" y2="486.07" fill="none" stroke="#101727" stroke-miterlimit="10" stroke-width="3"/><polygon points="412.85 629.15 409.08 629.64 257.27 648.87 355.12 622.12 389.33 612.77 399.61 609.96 404.46 608.64 410.22 622.73 412.85 629.15" fill="#a99e53" stroke="#101727" stroke-linejoin="round" stroke-width="3"/><path d="M198.34,643.47l.62,3.21c.6,3.04,3.56,5.03,6.6,4.43l13.5-2.64v5.25l-34.49,4.37-5.29.67-6.91-24.45,5.31-.64,41.38-4.97v4.98l-16.29,3.19c-3.05.6-5.03,3.55-4.43,6.6Z" fill="#a99e53" stroke="#101727" stroke-linejoin="round" stroke-width="3"/><line x1="239.92" y1="626.2" x2="239.91" y2="626.2" fill="none" stroke="#101727" stroke-linejoin="round" stroke-width="3"/><polyline points="372.3 649.71 372.54 649.68 416.33 644.7 408.75 630.12 254.44 649.65 254.41 649.66 219.06 659.32 219.06 654.13 184.69 658.48 188.19 669.3 188.2 668.98 195.93 668.14 195.93 668.13 266.51 660.44 266.47 661.74 310.78 656.7" fill="#e8bd51" stroke="#101727" stroke-linejoin="round" stroke-width="3"/><polyline points="188.19 669.3 188.47 670.19 188.53 670.36 188.61 670.6 195.88 669.77 258.74 662.62 266.47 661.74" fill="none" stroke="#101727" stroke-linejoin="round" stroke-width="3"/><polyline points="310.78 656.7 316.12 656.1 372.3 649.71" fill="none" stroke="#101727" stroke-linejoin="round" stroke-width="3"/><line x1="239.92" y1="626.2" x2="239.91" y2="626.2" fill="none" stroke="#101727" stroke-linejoin="round" stroke-width="3"/><polygon points="283.91 605.54 261.6 611.77 254 576.79 283.91 605.54" fill="#e9e1ce" stroke="#101727" stroke-linejoin="round" stroke-width="3"/><line x1="295.77" y1="435.46" x2="294.44" y2="435.41" fill="none" stroke="#101727" stroke-linejoin="round" stroke-width="3"/><path d="M499.89,545.16l-22.73,6.35h-.01c-9.6,8.66-21.12,17.06-34.01,22.62l-10.39,4.74-99.94,45.62c-11.94,5.44-26,3.05-35.46-6.04l-13.44-12.92-22.31,6.24-23.4,6.54-19.14,5.35v10.02l5.95-1.16,2.79,14.24-8.74,1.71v10.85l35.35-9.66h.03s2.81-.78,2.81-.78h.02s97.85-26.76,97.85-26.76l34.21-9.35,10.28-2.81,4.85-1.33,95.43-26.09" fill="#e8bd51" stroke="#101727" stroke-linejoin="round" stroke-width="3"/><path d="M576.08,560.82c-1.15.89-2.49,1.57-3.96,1.97l-52.55,14.37h-.02l-19.66,5.38" fill="#e8bd51" stroke="#101727" stroke-linejoin="round" stroke-width="3"/><path d="M499.89,545.16l76.19-21.3,4.46-1.25v29.14c0,3.63-1.71,6.95-4.46,9.07l-76.19,21.72" fill="#e8bd51" stroke="#101727" stroke-linejoin="round" stroke-width="3"/><line x1="499.89" y1="545.16" x2="498.37" y2="545.59" fill="none" stroke="#101727" stroke-linejoin="round" stroke-width="3"/><polygon points="499.89 582.54 499.89 585.37 410.22 622.73 404.46 608.64 499.89 582.54" fill="#738452" stroke="#101727" stroke-linejoin="round" stroke-width="3"/><path d="M225.01,632.52l-5.95,1.16-16.29,3.19c-3.05.6-5.03,3.55-4.43,6.6l.62,3.21c.6,3.04,3.56,5.03,6.6,4.43l13.5-2.64,8.74-1.71-2.79-14.24ZM207.82,646.54c-1.81,0-3.27-1.46-3.27-3.26s1.46-3.27,3.27-3.27,3.26,1.46,3.26,3.27-1.46,3.26-3.26,3.26Z" fill="#a99e53" stroke="#101727" stroke-linejoin="round" stroke-width="3"/><path d="M211.08,643.27c0,1.8-1.46,3.26-3.26,3.26s-3.27-1.46-3.27-3.26,1.46-3.27,3.27-3.27,3.26,1.46,3.26,3.27Z" fill="#e8bd51" stroke="#101727" stroke-linejoin="round" stroke-width="3"/><path d="M524.2,300.87v72.83h-8.48v-37.68h-7.92c-.19,0-.37,0-.56.02v-35.17h16.96Z" fill="#a99e53" stroke="#101727" stroke-linejoin="round" stroke-width="3"/><circle cx="515.73" cy="309.8" r="2.98" fill="#a99e53" stroke="#101727" stroke-linejoin="round" stroke-width="3"/><path d="M515.72,356.36c1.65,0,2.98-1.34,2.98-2.98s-1.33-2.98-2.98-2.98" fill="#a99e53" stroke="#101727" stroke-linejoin="round" stroke-width="3"/><path d="M499.89,336.01v123.83h-100.07v-115.91c0-4.37,3.54-7.92,7.91-7.92h92.16Z" fill="#397050" stroke="#101727" stroke-linejoin="round" stroke-width="3"/><polyline points="499.89 336.01 507.24 336.01 507.8 336.01" fill="none" stroke="#101727" stroke-linejoin="round" stroke-width="3"/><line x1="507.08" y1="517.03" x2="499.89" y2="517.03" fill="none" stroke="#101727" stroke-linejoin="round" stroke-width="3"/><path d="M507.24,336.03c-4.11.29-7.35,3.72-7.35,7.9v173.09h5.34s1.85.01,1.85.01h8.64v-143.34" fill="#397050" stroke="#101727" stroke-linejoin="round" stroke-width="3"/><polygon points="505.23 517.04 499.89 517.04 499.89 517.02 505.23 517.04" fill="none" stroke="#101727" stroke-linejoin="round" stroke-width="3"/><path d="M507.24,336.03c.19-.01.37-.02.56-.02h7.92v37.68" fill="#397050" stroke="#101727" stroke-linejoin="round" stroke-width="3"/><path d="M499.09,517.03s5.45,3.98.8,9.94" fill="none" stroke="#101727" stroke-miterlimit="10" stroke-width="3"/><line x1="222.64" y1="546.65" x2="181.6" y2="507.21" fill="none" stroke="#101727" stroke-miterlimit="10" stroke-width="3"/><path d="M271.83,471.06c-6.04,2.34-10.4,7.26-13.52,12.79l-15.32-14.87c-4.16-4.04-8.59-8.43-13.25-12.24l42.02,14.2.07.12Z" fill="#e9e1ce" stroke="#101727" stroke-miterlimit="10" stroke-width="3"/><line x1="191.18" y1="451.08" x2="189.53" y2="451.67" fill="none" stroke="#101727" stroke-miterlimit="10" stroke-width="3"/><path d="M272.41,497.52l-5.54-5.38c.23-2.26,2.02-4.13,4.36-4.38,2.7-.29,5.13,1.66,5.42,4.36.29,2.66-1.6,5.06-4.24,5.4Z" fill="#e9e1ce" stroke="#101727" stroke-miterlimit="10" stroke-width="3"/><path d="M324.25,546.76c-1.64-.88-3.18-2.01-4.56-3.35l-27.18-26.38-20.1-19.51c2.64-.34,4.53-2.74,4.24-5.4-.29-2.7-2.72-4.65-5.42-4.36-2.34.25-4.13,2.12-4.36,4.38l-8.56-8.3c3.12-5.53,7.48-10.45,13.52-12.79,1.68-.66,3.49-1.11,5.44-1.32,4.92-.53,10.02-.72,15.01-.68l31.97,77.71Z" fill="#e9e1ce" stroke="#101727" stroke-miterlimit="10" stroke-width="3"/><polygon points="261.6 611.77 238.2 618.31 222.64 546.65 246.08 569.18 254 576.79 261.6 611.77" fill="#e8bd51" stroke="#101727" stroke-miterlimit="10" stroke-width="3"/><path d="M348.5,544.9l-5.34,2.48c-6.14,2.86-13.16,2.53-18.91-.62l-31.97-77.71c9.2.06,18,.88,24.49,1.69l31.73,74.16Z" fill="#e8bd51" stroke="#101727" stroke-miterlimit="10" stroke-width="3"/><path d="M432.75,578.87l-99.94,45.62c-11.94,5.44-26,3.05-35.46-6.04l-13.44-12.92-29.91-28.74-7.92-7.62c1.92-39.64,28.63-50.21,46.43-52.14l27.18,26.38c1.38,1.34,2.92,2.47,4.56,3.35,5.75,3.15,12.77,3.48,18.91.62l5.34-2.48,16.18-7.52,29.97-13.92,38.1,55.41Z" fill="#e9e1ce" stroke="#101727" stroke-miterlimit="10" stroke-width="3"/><path d="M368.4,479.82c-.12-.05-.25-.09-.37-.14" fill="none" stroke="#101727" stroke-miterlimit="10" stroke-width="3"/><line x1="399.82" y1="459.84" x2="399.8" y2="459.84" fill="none" stroke="#101727" stroke-miterlimit="10" stroke-width="3"/><path d="M399.82,463.12l-31.79,16.57c-36.93-13.63-37.61-44.63-34.21-62.14h0s65.24-30.74,65.24-30.74l.76,76.31Z" fill="#e9e1ce" stroke="#101727" stroke-miterlimit="10" stroke-width="3"/><path d="M313.2,462.39l-23.99-16.74c.46-.66.88-1.36,1.25-2.09l.36-.72c.14-.28.29-.57.44-.87.3-.59.62-1.22.95-1.9.51-1,1.04-2.1,1.58-3.27.09-.17.17-.35.25-.52l1.73-.82,5.67-2.67,11.76,29.6Z" fill="#e8bd51" stroke="#101727" stroke-miterlimit="10" stroke-width="3"/><polyline points="294.04 436.28 294.03 436.28 291.04 437.69" fill="none" stroke="#101727" stroke-miterlimit="10" stroke-width="3"/><polygon points="266.51 660.44 266.47 661.74 266.47 661.85 263.27 764.68 255.54 765.52 255.12 765.58 252.48 765.87 252.47 765.87 242.01 767 220.67 769.33 192.69 772.37 193.32 751.99 194.28 721.35 194.93 700.16 194.93 700.15 195.41 685 195.88 669.77 195.93 668.14 195.93 668.14 266.51 660.44" fill="#e9e1ce" stroke="#101727" stroke-miterlimit="10" stroke-width="3"/><polygon points="258.78 661.29 258.74 662.62 258.74 662.74 255.54 765.52 255.12 765.58 252.47 765.85 252.47 765.87 242.01 766.99 220.67 769.33 192.69 772.37 184.96 773.21 187.2 701 187.2 700.99 188.19 669.39 188.19 669.31 188.2 668.98 195.93 668.14 258.78 661.29" fill="#e9e1ce" stroke="#101727" stroke-miterlimit="10" stroke-width="3"/><polygon points="255.12 765.57 184.54 773.26 186.78 701.05 257.36 693.36 255.12 765.57" fill="#e9e1ce" stroke="#101727" stroke-miterlimit="10" stroke-width="3"/><polygon points="242.02 767 176.8 774.11 179.05 701.89 249.63 694.2 242.02 767" fill="#e9e1ce" stroke="#101727" stroke-miterlimit="10" stroke-width="3"/><path d="M204.92,675.89l-1.27.14c-4.41.48-8.1,4.5-8.24,8.98l-.47,15.15,17.24-1.88.47-15.15c.14-4.48-3.32-7.72-7.73-7.24Z" fill="#01654d" stroke="#101727" stroke-miterlimit="10" stroke-width="3"/><path d="M233.1,696l-10.71,1.17-2.61-19.13,1.22-.13c5.48-.6,10.03,2.91,10.76,8.29l1.34,9.81Z" fill="#e9e1ce" stroke="#101727" stroke-miterlimit="10" stroke-width="3"/><path d="M234.92,695.8l10.71-1.17,3.83-19.83-1.11.12c-5.54.6-10.4,5.18-11.49,10.83l-1.94,10.05Z" fill="#e9e1ce" stroke="#101727" stroke-miterlimit="10" stroke-width="3"/><polygon points="230.58 747.93 199.32 751.34 200.31 719.6 231.57 716.2 230.58 747.93" fill="#e9e1ce" stroke="#101727" stroke-miterlimit="10" stroke-width="3"/><path d="M220.11,749.08l-31.26,3.41.71-22.96c.15-4.85,4.14-9.2,8.92-9.72l22.61-2.46-.99,31.74Z" fill="#01654d" stroke="#101727" stroke-miterlimit="10" stroke-width="3"/><polyline points="221.85 748.88 234.96 747.46 234.7 756.1 228.02 756.83 228.29 748.18" fill="none" stroke="#101727" stroke-miterlimit="10" stroke-width="3"/><path d="M211.57,734.19c-.12,3.7-3.16,7.02-6.81,7.42-3.64.4-6.5-2.28-6.39-5.98s3.16-7.02,6.81-7.42c3.64-.4,6.5,2.28,6.39,5.98Z" fill="#e9e1ce" stroke="#101727" stroke-miterlimit="10" stroke-width="3"/><path d="M411.22,971.35l14.09,58.23,129.97-27.34s10.15-43.3-53.68-29.87c-1.77-9.38-3.2-20.15-3.2-20.15l-87.18,19.12Z" fill="#e9e1ce" stroke="#101727" stroke-miterlimit="10" stroke-width="3"/><polygon points="516.13 952.57 398.31 984.22 385.89 953.4 511.43 919.68 516.13 952.57" fill="#01654d"/><path d="M238.68,279.42c-10.55-8.61-22.93-5.89-22.93-5.89" fill="none" stroke="#101727" stroke-miterlimit="10" stroke-width="3"/><rect x="236.48" y="293.23" width="6.65" height="16.9" transform="translate(-124.16 428.36) rotate(-70.71)" fill="#01654d"/><path d="M250.31,297.53c9.13,3.86,12.48,9.37,14.03,12.74-3.33,1.67-9.43,3.87-19.1,1.1-.16.24-.3.48-.47.72-1.23,1.81-2.57,3.42-3.97,4.84,15.46,5.39,24.69.31,28.17-1.6l.14-.08c.67-.37,1.21-.87,1.62-1.46.86-1.27,1.08-2.92.45-4.43l-.08-.19c-1.53-3.67-5.58-13.43-21-18.85.38,2.33.46,4.75.21,7.21Z" fill="#fff"/><path d="M532.45,1012.68h-57.08v14.03h57.08c3.87,0,7.01-3.14,7.01-7.01s-3.14-7.01-7.01-7.01Z" fill="#a99e53" stroke="#101727" stroke-linejoin="round" stroke-width="3"/><circle cx="475.38" cy="1019.7" r="7.01" fill="#a99e53" stroke="#101727" stroke-linejoin="round" stroke-width="3"/><path d="M532.45,716.2h-57.08v14.03h57.08c3.87,0,7.01-3.14,7.01-7.01s-3.14-7.01-7.01-7.01Z" fill="#a99e53" stroke="#101727" stroke-linejoin="round" stroke-width="3"/><circle cx="475.38" cy="723.21" r="7.01" fill="#a99e53" stroke="#101727" stroke-linejoin="round" stroke-width="3"/><path d="M499.89,459.85v57.18l-33.42-.06,17.28-35.53c.8-1.65,1.18-3.39,1.18-5.1,0-4.62-2.76-9.03-7.37-10.87-4.85-1.93-10.4-.41-13.59,3.74l-35.83,38.7-19.65,9.13h-8.67v-57.19h100.07Z" fill="#397050" stroke="#101727" stroke-miterlimit="10" stroke-width="3"/><path d="M499.89,517.02h7.19c-5.18,6.65-13.04,20.57-29.92,34.49h-.01c-9.6,8.66-21.12,17.06-34.01,22.62l-10.39,4.74-38.1-55.41,13.84-6.43,19.65-9.13,35.83-38.7c3.19-4.15,8.74-5.67,13.59-3.74,4.61,1.84,7.37,6.25,7.37,10.87,0,1.71-.38,3.45-1.18,5.1l-17.28,35.53,33.42.06Z" fill="#a99e53" stroke="#101727" stroke-miterlimit="10" stroke-width="3"/><line x1="394.65" y1="523.46" x2="394.07" y2="522.61" fill="none" stroke="#101727" stroke-miterlimit="10" stroke-width="3"/><path d="M291.04,346.3c-4.97-1.93-9.87-1.49-13.58.6" fill="none" stroke="#101727" stroke-miterlimit="10" stroke-width="4"/><line x1="385.89" y1="953.4" x2="511.43" y2="919.68" fill="none" stroke="#101727" stroke-miterlimit="10" stroke-width="3"/><line x1="473.24" y1="805.01" x2="499.69" y2="805.01" fill="none" stroke="#101727" stroke-miterlimit="10" stroke-width="4"/><line x1="576.08" y1="803.9" x2="603.23" y2="803.9" fill="none" stroke="#101727" stroke-miterlimit="10" stroke-width="3"/><path d="M594.57,282.62c7.07-11.07.88-22.14.88-22.14" fill="none" stroke="#101727" stroke-miterlimit="10" stroke-width="3"/><path d="M607.74,257.82c-.76,9.55,11.92,6.24,9.76,13.73-2.16,7.49-22.92,11.07-22.92,11.07-7.49-13.81-4.3-16.7-16.92-18.28" fill="none" stroke="#101727" stroke-miterlimit="10" stroke-width="3"/><line x1="398.31" y1="984.22" x2="516.13" y2="952.57" fill="none" stroke="#101727" stroke-miterlimit="10" stroke-width="3"/><line x1="477.23" y1="837.99" x2="499.89" y2="838.03" fill="none" stroke="#101727" stroke-miterlimit="10" stroke-width="3"/><line x1="576.08" y1="837.21" x2="599.22" y2="838.03" fill="none" stroke="#101727" stroke-miterlimit="10" stroke-width="3"/></svg>