<?xml version="1.0" encoding="UTF-8"?><svg id="Notes" xmlns="http://www.w3.org/2000/svg" viewBox="0 0 1000 181.66"><defs><style>.cls-1{fill:#050505;}</style></defs><path class="cls-1" d="m274.59,181.66c-36.94,0-55.67-13.25-55.67-39.39v-.25c0-17.05,7.13-28.84,21.79-36.02,13.5-6.68,27.6-9.4,62.85-12.13,33.34-2.75,41.8-4.36,41.8-12.75,0-8.96-9.42-13.51-28-13.51-23.53,0-34.83,5.32-36.43,17.21h-57.76c4.45-36.24,35.24-54.62,91.54-54.62,30.22,0,50.64,4.44,64.27,13.98,14.02,9.81,20.83,25.56,20.83,48.16v84.59h-52.92v-28.17l-1.93-.48c-11.52,21.53-36.5,33.38-70.36,33.38Zm69.32-71.08c-4.04,3.91-12.45,6.45-28.11,8.48-17.38,1.7-26.08,3.41-31.01,6.11-4.58,2.52-6.62,5.65-6.62,10.16v.25c0,7.4,6.3,10.99,19.27,10.99,25.68-.05,48.21-15.82,48.21-33.74v-3.94l-1.74,1.69Zm183.22,66.35l72.24-142.7h-50.35c-7.34,0-12.44,3.22-15.59,9.83l-33.44,70.09-33.44-70.09c-3.15-6.62-8.24-9.83-15.59-9.83h-50.35l72.05,142.7h54.47Zm160.53,4.73c-33.67,0-58.59-7-74.06-20.8-13.3-11.87-20.04-29.21-20.04-51.55s8.32-42.66,24.07-56.46c17.08-14.98,42.86-22.89,74.55-22.89s56.29,8.02,72.68,23.83c14.34,13.84,21.92,33.46,21.92,56.75,0,4.01-.16,7.2-.25,8.71h-136.82l.34,1.29c3.96,15.19,17.09,22.26,41.33,22.26,16.84,0,26.07-2.74,31.63-9.44h61.88c-9.33,32.5-41.16,48.31-97.23,48.31Zm3.76-112.34c-21.72.05-35.29,7.26-40.34,21.42l-.49,1.37h79.01l-.32-1.28c-3.74-15.08-15.06-21.52-37.86-21.52h0Zm-493.99,107.61V0h-56.32v49.81c0,7.38-5.98,13.36-13.36,13.36H56.81V0H0v176.93h56.81v-49.05c0-7.38,5.98-13.36,13.36-13.36h70.94v62.41h56.32Zm802.56.05v-81.87c0-19.49-7.41-36.02-21.42-47.82-13.25-11.15-31.83-17.29-52.32-17.29-28.74,0-51.41,13.48-60.66,36.05l-1.98-.39v-31.44h-58.21v142.7h58.21v-61.39c0-23.78,15.17-37.97,40.59-37.97,23.84,0,38.08,12.99,38.08,34.75v64.66h57.71Z"/></svg>