<?xml version="1.0" encoding="UTF-8"?><svg id="logo" xmlns="http://www.w3.org/2000/svg" width="1100" height="337" xmlns:xlink="http://www.w3.org/1999/xlink" viewBox="0 0 1100 337"><defs><style>.cls-1{fill:url(#linear-gradient-3);}.cls-2{fill:url(#linear-gradient-2);}.cls-3{fill:url(#linear-gradient);}.cls-4{fill:#4ab749;}.cls-5{fill:#f68b20;}.cls-6{fill:#1163ae;}</style><linearGradient id="linear-gradient" x1="143.6" y1="198.81" x2="268.68" y2="73.73" gradientUnits="userSpaceOnUse"><stop offset=".06" stop-color="#4ab749"/><stop offset=".26" stop-color="#339670"/><stop offset=".54" stop-color="#1163ae"/></linearGradient><linearGradient id="linear-gradient-2" x1="189.87" y1="285.17" x2="214.59" y2="144.97" gradientUnits="userSpaceOnUse"><stop offset=".56" stop-color="#4ab749"/><stop offset="1" stop-color="#7cc57d"/></linearGradient><linearGradient id="linear-gradient-3" x1="211.03" y1="230.05" x2="151.93" y2="67.69" gradientUnits="userSpaceOnUse"><stop offset=".06" stop-color="#3a54a3"/><stop offset=".38" stop-color="#1163ae"/></linearGradient></defs><path class="cls-3" d="M289.66,109.65l-150.12,86.72-32.18-18.57,160.88-92.95,21.42,12.37c4.78,2.76,4.78,9.66,0,12.43Z"/><path class="cls-2" d="M338.19,211.73l-128.3,74.11c-3.71,2.15-8.29,2.15-12,0l-128.3-74.11c-4.66-2.69-4.66-9.43,0-12.12l69.96-40.39,32.16,18.57-40.77,23.56c-3.33,1.92-3.33,6.73,0,8.66l67.95,39.26c3.09,1.79,6.91,1.79,10,0l67.95-39.26c3.33-1.92,3.33-6.73,0-8.66l-20.18-11.66c-2.79-1.61-6.22-1.61-9,0l-6.58,3.8c-3.09,1.79-6.91,1.79-10,0l-19.68-11.37c-3.33-1.92-3.33-6.73,0-8.66l34.75-20.07c3.71-2.14,8.29-2.14,12,0l80.05,46.23c4.66,2.69,4.67,9.43,0,12.12Z"/><path class="cls-1" d="M289.92,109.5l-53.86,31.12-32.18-18.59,24.68-14.24c3.33-1.92,3.33-6.73,0-8.66l-19.68-11.37c-3.09-1.79-6.91-1.79-10,0l-84.03,48.54c-3.33,1.92-3.33,6.73,0,8.66l113.72,65.69c3.33,1.92,3.33,6.73,0,8.66l-19.68,11.37c-3.09,1.79-6.91,1.79-10,0L53.5,146.68c-4.66-2.69-4.66-9.43,0-12.12L197.89,51.15c3.71-2.15,8.29-2.15,12,0l80.04,46.23c4.66,2.69,4.66,9.43,0,12.12Z"/><path class="cls-4" d="M704.83,168.6c0-43.24,34.22-75.77,76.05-75.77,21.55,0,39.08,7.98,51.76,20.99,1.69,1.89,1.69,3.78-.21,5.88l-15.63,16.58c-1.69,1.89-3.38,1.89-5.07.63-8.03-6.93-18.17-11.54-30.63-11.54-24.08,0-42.46,18.26-42.46,43.24s18.38,43.03,44.15,43.03c21.34,0,33.59-11.96,34.44-25.82h-34.98c-1.68,0-3.05-1.36-3.05-3.03v-23.33c0-1.67,1.36-3.03,3.05-3.03h64.26c1.68,0,3.05,1.36,3.05,3.03v15.23c0,38.2-25.56,69.48-67.81,69.48s-76.9-32.33-76.9-75.56Z"/><path class="cls-4" d="M864.84,190.02c0-30.44,23.03-53.94,54.29-53.94s54.51,23.51,54.51,53.94-23.24,53.94-54.51,53.94-54.29-23.51-54.29-53.94ZM919.13,214.57c13.1,0,23.24-9.45,23.24-24.56s-10.14-24.56-23.24-24.56-23.24,9.45-23.24,24.56,10.14,24.56,23.24,24.56Z"/><path class="cls-6" d="M384.75,238.41V97.54c0-1.67,1.36-3.03,3.05-3.03h45.54c35.7,0,52.6,19.73,52.6,48.28s-16.9,48.07-52.6,48.07h-15.21v47.56c0,1.67-1.36,3.03-3.05,3.03h-27.28c-1.68,0-3.05-1.36-3.05-3.03ZM432.49,161.47c11.2,0,21.55-3.57,21.55-18.68s-10.35-18.89-21.55-18.89h-14.37v37.57h14.37Z"/><path class="cls-6" d="M493.88,190.02c0-30.44,19.86-53.94,48.59-53.94,15.21,0,25.5,5.79,32.26,15.45v-9.9c0-1.67,1.36-3.03,3.05-3.03h24.6c1.68,0,3.05,1.36,3.05,3.03v96.8c0,1.67-1.36,3.03-3.05,3.03h-24.6c-1.68,0-3.05-1.36-3.05-3.03v-10.16c-6.97,9.87-17.48,15.71-32.26,15.71-28.73,0-48.59-23.3-48.59-53.94ZM549.44,214.78c14.15,0,23.87-9.87,23.87-24.98s-9.72-24.56-23.87-24.56-24.08,9.87-24.08,24.77,10.35,24.77,24.08,24.77Z"/><path class="cls-6" d="M679.41,136.07c-12.04,0-18.59,7.04-21.97,18.16v-13.09c.01-1.41-1.14-2.55-2.56-2.55h-27.18c-1.42,0-2.57,1.14-2.57,2.55v97.75c0,1.41,1.14,2.55,2.56,2.55h27.18c1.42,0,2.57-1.14,2.57-2.55v-50.13c0-15.32,8.03-23.3,21.34-23.3.97,0,1.86.04,2.69.11,1.68.15,3.12-1.12,3.27-2.79.54-6.22,3.33-16.46,4.66-21.11.42-1.47-.1-2.66-1.73-3.6-1.99-1.15-4.79-1.99-8.26-1.99Z"/><path class="cls-5" d="M1035.41,100.03c0-3.99,3.14-7.2,7.34-7.2s7.25,3.21,7.25,7.2-3.06,7.29-7.25,7.29-7.34-3.21-7.34-7.29ZM1036.02,115.4c0-.78.52-1.3,1.31-1.3h10.83c.79,0,1.31.52,1.31,1.3v39.92c0,.78-.52,1.3-1.31,1.3h-10.83c-.79,0-1.31-.52-1.31-1.3v-39.92Z"/><path class="cls-5" d="M978.37,135.36c0-12.58,8.21-22.3,20.09-22.3,6.29,0,10.55,2.4,13.34,6.39v-4.09c0-.69.56-1.25,1.26-1.25h10.17c.7,0,1.26.56,1.26,1.25v40.02c0,.69-.56,1.25-1.26,1.25h-10.17c-.7,0-1.26-.56-1.26-1.25v-4.2c-2.88,4.08-7.23,6.49-13.34,6.49-11.88,0-20.09-9.63-20.09-22.3ZM1001.35,145.6c5.85,0,9.87-4.08,9.87-10.33s-4.02-10.15-9.87-10.15-9.96,4.08-9.96,10.24,4.28,10.24,9.96,10.24Z"/></svg>