<?xml version="1.0" encoding="UTF-8"?><svg id="Layer_1" xmlns="http://www.w3.org/2000/svg" viewBox="0 0 618.06 335.9"><path d="M612.49,99.33c-3.14-.03-6.75-.58-10.83-1.95-12.47-4.16-9.87-14.23-4.42-23.82,8.4,2.01,15.18,4.17,17.81,7.25,2.89,3.37,1.43,10.66-2.56,18.52Z" fill="#101727" stroke="#101727" stroke-linejoin="round" stroke-width="3"/><path d="M575.81,50.15c-2.01,5.99-4.41,11.58-7.19,16.75-4.71-1.32-9.13-2.82-12.89-4.6-18.41-8.72-14.78-23.31-31.66-27.97-1.54-.43-3.03-.81-4.48-1.15,11-1.55,31.51-1.87,56.22,16.97Z" fill="#323a37" stroke="#101727" stroke-miterlimit="10" stroke-width="3"/><path d="M496.73,121.84c-8.88,2.09-17.46,3.06-25.75,2.89-7.14-.12-14.06-1.07-20.76-2.85-5.63-1.49-11.1-3.55-16.42-6.19.5-5.07,1.3-9.71,2.32-13.94,1.75-7.29,4.17-13.41,6.89-18.54,7.07-13.39,16.13-20.05,20.6-23.34,4.24-2.43,8.39-4.86,14.24,1.13l.31.34c6.04,6.57,22.08,24.01,18.57,60.5Z" fill="#434746" stroke="#101727" stroke-linejoin="round" stroke-width="3"/><path d="M482.88,136.23c-4.47,1.96-8.67,4.35-12.49,7.27-8.04-7.94-14.64-14.97-20.17-21.62,6.7,1.78,13.62,2.73,20.76,2.85,3.75,3.91,7.69,7.64,11.81,11.29l.09.21Z" fill="#e8bd51" stroke="#101727" stroke-linejoin="round" stroke-width="3"/><path d="M443.01,83.21c-2.72,5.13-5.14,11.25-6.89,18.54-7.23-12.73-11.71-26.18-16.23-44.49,4.25-1.45,8.61-2.96,12.93-4.48,2.85,11.5,6.26,21.53,10.19,30.43Z" fill="#e8bd51" stroke="#101727" stroke-linejoin="round" stroke-width="3"/><path d="M482.5,334.4h-48.7s-11.11-30.48-24.69-66.32c-3.26-8.6-6.66-17.51-10.09-26.38-4.64-12.02-9.33-23.98-13.76-35-32.66,3.88-86.62,3.12-127.26-20.17-10.65-6.1-20.39-13.75-28.59-23.27-25.07,57.78-53.64,65.78-79.45,72.2-18.71,4.63-35.97,8.44-49.41,29.76-7.73,12.25-19.89,39.23-19.89,39.23,0,0,18.74,8.33,23.35,29.95h-59.38c7.4-74.66,52.42-128.81,61.36-141.49,8.94-12.69,3.79-25.9,2.34-43.77-1.44-17.88,4.18-38.86,21.67-66.39,0,0-106.14-52.53-127.97-77.72-1.47-1.69.37-4.22,2.44-3.35,37.04,15.53,158.72,68.65,228.01,75.75,36.56,3.75,143.56-6.13,152.49-8.72,4.85-1.4,19.11-6.03,34.92-11.45,4.52,18.31,9,31.76,16.23,44.49-1.02,4.23-1.82,8.87-2.32,13.94,5.32,2.64,10.79,4.7,16.42,6.19,5.53,6.65,12.13,13.68,20.17,21.62-3.89,2.94-7.38,6.43-10.37,10.54-5.04,6.93-10.27,13.26-15.25,18.84-14.29,16.01-26.55,25.84-26.55,25.84l1.11,3.27h.01l7.41,21.75,10.28,30.18,17.22,50.53s25.95,7.18,28.25,29.95Z" fill="#434746" stroke="#101727" stroke-linejoin="round" stroke-width="3"/><path d="M612.49,99.33c-5.33,10.57-15.21,22.17-25.16,26.75-14.05,6.46-68.16-5.79-104.45,10.15l-.09-.21c-4.12-3.65-8.06-7.38-11.81-11.29,8.29.17,16.87-.8,25.75-2.89,3.51-36.49-12.53-53.93-18.57-60.5l-.31-.34c-5.85-5.99-10-3.56-14.24-1.13-4.47,3.29-13.53,9.95-20.6,23.34-3.93-8.9-7.34-18.93-10.19-30.43,9.24-3.25,18.3-6.54,25.67-9.42,25.41-9.89,37.33-15.75,61.09-10.18h.01c1.45.34,2.94.72,4.48,1.15,16.88,4.66,13.25,19.25,31.66,27.97,3.76,1.78,8.18,3.28,12.89,4.6,9.36,2.63,19.87,4.56,28.62,6.66-5.45,9.59-8.05,19.66,4.42,23.82,4.08,1.37,7.69,1.92,10.83,1.95Z" fill="#434746" stroke="#101727" stroke-linejoin="round" stroke-width="3"/><path d="M166.85,268.49c-12.05,22.57-12.08,35.83-12.08,35.96,0,0,25.05,13.42,24.19,29.95h-59.96s-3.34-58.07,30.96-98.94c25.81-6.42,54.38-14.42,79.45-72.2,8.2,9.52,17.94,17.17,28.59,23.27-14.18,27.76-75.29,52.27-91.15,81.96Z" fill="#323a37" stroke="#101727" stroke-linejoin="round" stroke-width="3"/><path d="M437.03,253.92l-10.28-30.18c6.3-4.37,10.73-7.84,11.23-9.25,1-2.85-8.89-8.11-18.64-12.5h-.01l-1.11-3.27s12.26-9.83,26.55-25.84c10.99,6.47,25.17,18.2,26.73,36.13,1.77,20.18-16.18,34.48-34.47,44.91Z" fill="#323a37" stroke="#101727" stroke-linejoin="round" stroke-width="3"/><path d="M409.11,268.08c-18.57,7.5-28.79-2.86-34.46-11.51,0,0,11.31-6.74,24.37-14.87,3.43,8.87,6.83,17.78,10.09,26.38Z" fill="#323a37" stroke="#101727" stroke-linejoin="round" stroke-width="3"/><path d="M432.82,52.78c-.03-.11-.06-.23-.09-.35" fill="none" stroke="#101727" stroke-linejoin="round" stroke-width="3"/><path d="M489.1,154.57c0,8.42-6.84,15.23-15.26,15.22-.76,0-1.51-.06-2.25-.17-1.08-.16-2.12-.43-3.12-.81-5.76-2.17-9.86-7.74-9.85-14.27,0-8.42,6.85-15.23,15.26-15.22.53,0,1.06.03,1.58.08,7.68.8,13.65,7.28,13.64,15.17Z" fill="#e8bd51" stroke="#101727" stroke-miterlimit="10" stroke-width="3"/><rect x="468.71" y="146.86" width="3.08" height="7.83" transform="translate(11.49 333.54) rotate(-39.5)" fill="#fff"/><path d="M475.41,151.65c2.69,3.72,2.7,6.71,2.5,8.41-1.72-.14-4.67-.73-7.83-4.15-.12.06-.24.12-.36.17-.92.42-1.84.74-2.74.97,4.83,5.85,9.71,6.05,11.54,6.13h.08c.35.02.69-.05.99-.19.65-.29,1.13-.9,1.24-1.65v-.09c.29-1.82,1.03-6.66-3.78-12.51-.41,1.01-.96,1.99-1.65,2.91Z" fill="#01654d"/><circle cx="519.97" cy="75.66" r="7.56" fill="#fff" stroke="#101727" stroke-miterlimit="10" stroke-width="3"/><circle cx="547.7" cy="73.56" r="7.56" fill="#fff" stroke="#101727" stroke-miterlimit="10" stroke-width="3"/><line x1="15.88" y1="334.38" x2="527.54" y2="334.38" fill="none" stroke="#101727" stroke-miterlimit="10" stroke-width="3"/><path d="M520.77,60.13c-5.43-.39-10.09,1.24-14.37,4.75" fill="none" stroke="#101727" stroke-miterlimit="10" stroke-width="3"/><path d="M553.48,61.15c-5.06-2.96-11.19-3.78-15.2-2.41" fill="none" stroke="#101727" stroke-miterlimit="10" stroke-width="3"/></svg>