<?xml version="1.0" encoding="UTF-8"?>
<svg id="text" xmlns="http://www.w3.org/2000/svg" viewBox="0 0 1600 1100">
  <g>
    <g>
      <polygon points="17.82 1017.43 37.79 1052.02 1085.92 1052.02 1582.18 194.15 1562.21 159.56 513.12 159.56 17.82 1017.43" fill="#01654d"/>
      <path d="M1085.92,1053.52H37.79c-.54,0-1.03-.29-1.3-.75l-19.97-34.59c-.27-.46-.27-1.04,0-1.5L511.82,158.81c.27-.46.76-.75,1.3-.75h1049.09c.54,0,1.03.29,1.3.75l19.97,34.59c.27.46.27,1.04,0,1.5l-496.26,857.87c-.27.46-.76.75-1.3.75ZM38.66,1050.52h1046.39l495.39-856.37-19.11-33.09H513.98L19.55,1017.43l19.11,33.09Z" fill="#101727"/>
    </g>
    <g>
      <polygon points="1066.91 1017.43 17.82 1017.43 513.12 159.56 1562.21 159.56 1066.91 1017.43" fill="#d6ceba"/>
      <path d="M1066.91,1018.93H17.82c-.54,0-1.03-.29-1.3-.75-.27-.46-.27-1.04,0-1.5L511.82,158.81c.27-.46.76-.75,1.3-.75h1049.09c.54,0,1.03.29,1.3.75.27.46.27,1.04,0,1.5l-495.29,857.87c-.27.46-.76.75-1.3.75ZM20.42,1015.93h1045.63l493.56-854.87H513.98L20.42,1015.93Z" fill="#101727"/>
    </g>
    <g>
      <g>
        <polygon points="280.09 1017.43 17.82 1017.43 79.73 910.2 342.01 910.2 280.09 1017.43" fill="#e8bd51"/>
        <path d="M280.09,1018.93H17.82c-.54,0-1.03-.29-1.3-.75-.27-.46-.27-1.04,0-1.5l61.91-107.23c.27-.46.76-.75,1.3-.75h262.27c.54,0,1.03.29,1.3.75.27.46.27,1.04,0,1.5l-61.91,107.23c-.27.46-.76.75-1.3.75ZM20.42,1015.93h258.81l60.18-104.23H80.6l-60.18,104.23Z" fill="#101727"/>
      </g>
      <g>
        <polygon points="542.37 1017.43 280.09 1017.43 342.01 910.2 604.28 910.2 542.37 1017.43" fill="#e8bd51"/>
        <path d="M542.37,1018.93h-262.27c-.54,0-1.03-.29-1.3-.75-.27-.46-.27-1.04,0-1.5l61.91-107.23c.27-.46.76-.75,1.3-.75h262.27c.54,0,1.03.29,1.3.75.27.46.27,1.04,0,1.5l-61.91,107.23c-.27.46-.76.75-1.3.75ZM282.69,1015.93h258.81l60.18-104.23h-258.81l-60.18,104.23Z" fill="#101727"/>
      </g>
      <g>
        <polygon points="804.64 1017.43 542.37 1017.43 604.28 910.2 866.55 910.2 804.64 1017.43" fill="#e8bd51"/>
        <path d="M804.64,1018.93h-262.27c-.54,0-1.03-.29-1.3-.75-.27-.46-.27-1.04,0-1.5l61.91-107.23c.27-.46.76-.75,1.3-.75h262.27c.54,0,1.03.29,1.3.75.27.46.27,1.04,0,1.5l-61.91,107.23c-.27.46-.76.75-1.3.75ZM544.96,1015.93h258.81l60.18-104.23h-258.81l-60.18,104.23Z" fill="#101727"/>
      </g>
      <g>
        <polygon points="1066.91 1017.43 804.64 1017.43 866.55 910.2 1128.82 910.2 1066.91 1017.43" fill="#e8bd51"/>
        <path d="M1066.91,1018.93h-262.27c-.54,0-1.03-.29-1.3-.75-.27-.46-.27-1.04,0-1.5l61.91-107.23c.27-.46.76-.75,1.3-.75h262.27c.54,0,1.03.29,1.3.75.27.46.27,1.04,0,1.5l-61.91,107.23c-.27.46-.76.75-1.3.75ZM807.24,1015.93h258.81l60.18-104.23h-258.81l-60.18,104.23Z" fill="#101727"/>
      </g>
      <g>
        <polygon points="210.87 910.2 79.73 910.2 141.65 802.96 272.78 802.96 210.87 910.2" fill="#e8bd51"/>
        <path d="M210.87,911.7H79.73c-.54,0-1.03-.29-1.3-.75-.27-.46-.27-1.04,0-1.5l61.91-107.23c.27-.46.76-.75,1.3-.75h131.14c.54,0,1.03.29,1.3.75.27.46.27,1.04,0,1.5l-61.91,107.23c-.27.46-.76.75-1.3.75ZM82.33,908.7h127.67l60.18-104.23h-127.67l-60.18,104.23Z" fill="#101727"/>
      </g>
      <g>
        <polygon points="473.14 910.2 210.87 910.2 272.78 802.96 535.05 802.96 473.14 910.2" fill="#e8bd51"/>
        <path d="M473.14,911.7H210.87c-.54,0-1.03-.29-1.3-.75-.27-.46-.27-1.04,0-1.5l61.91-107.23c.27-.46.76-.75,1.3-.75h262.27c.54,0,1.03.29,1.3.75.27.46.27,1.04,0,1.5l-61.91,107.23c-.27.46-.76.75-1.3.75ZM213.47,908.7h258.81l60.18-104.23h-258.81l-60.18,104.23Z" fill="#101727"/>
      </g>
      <g>
        <polygon points="735.42 910.2 473.14 910.2 535.05 802.96 797.33 802.96 735.42 910.2" fill="#e8bd51"/>
        <path d="M735.42,911.7h-262.27c-.54,0-1.03-.29-1.3-.75-.27-.46-.27-1.04,0-1.5l61.91-107.23c.27-.46.76-.75,1.3-.75h262.27c.54,0,1.03.29,1.3.75.27.46.27,1.04,0,1.5l-61.91,107.23c-.27.46-.76.75-1.3.75ZM475.74,908.7h258.81l60.18-104.23h-258.81l-60.18,104.23Z" fill="#101727"/>
      </g>
      <g>
        <polygon points="997.69 910.2 735.42 910.2 797.33 802.96 1059.6 802.96 997.69 910.2" fill="#e8bd51"/>
        <path d="M997.69,911.7h-262.27c-.54,0-1.03-.29-1.3-.75-.27-.46-.27-1.04,0-1.5l61.91-107.23c.27-.46.76-.75,1.3-.75h262.27c.54,0,1.03.29,1.3.75.27.46.27,1.04,0,1.5l-61.91,107.23c-.27.46-.76.75-1.3.75ZM738.01,908.7h258.81l60.18-104.23h-258.81l-60.18,104.23Z" fill="#101727"/>
      </g>
      <g>
        <polygon points="1128.82 910.2 997.69 910.2 1059.6 802.96 1190.74 802.96 1128.82 910.2" fill="#e8bd51"/>
        <path d="M1128.82,911.7h-131.14c-.54,0-1.03-.29-1.3-.75-.27-.46-.27-1.04,0-1.5l61.91-107.23c.27-.46.76-.75,1.3-.75h131.14c.54,0,1.03.29,1.3.75.27.46.27,1.04,0,1.5l-61.91,107.23c-.27.46-.76.75-1.3.75ZM1000.29,908.7h127.67l60.18-104.23h-127.67l-60.18,104.23Z" fill="#101727"/>
      </g>
      <g>
        <polygon points="403.92 802.96 141.65 802.96 203.56 695.73 465.83 695.73 403.92 802.96" fill="#e8bd51"/>
        <path d="M403.92,804.46H141.65c-.54,0-1.03-.29-1.3-.75-.27-.46-.27-1.04,0-1.5l61.91-107.23c.27-.46.76-.75,1.3-.75h262.27c.54,0,1.03.29,1.3.75.27.46.27,1.04,0,1.5l-61.91,107.23c-.27.46-.76.75-1.3.75ZM144.24,801.46h258.81l60.18-104.23H204.42l-60.18,104.23Z" fill="#101727"/>
      </g>
      <g>
        <polygon points="666.19 802.96 403.92 802.96 465.83 695.73 728.1 695.73 666.19 802.96" fill="#e8bd51"/>
        <path d="M666.19,804.46h-262.27c-.54,0-1.03-.29-1.3-.75-.27-.46-.27-1.04,0-1.5l61.91-107.23c.27-.46.76-.75,1.3-.75h262.27c.54,0,1.03.29,1.3.75.27.46.27,1.04,0,1.5l-61.91,107.23c-.27.46-.76.75-1.3.75ZM406.52,801.46h258.81l60.18-104.23h-258.81l-60.18,104.23Z" fill="#101727"/>
      </g>
      <g>
        <polygon points="928.46 802.96 666.19 802.96 728.1 695.73 990.37 695.73 928.46 802.96" fill="#e8bd51"/>
        <path d="M928.46,804.46h-262.27c-.54,0-1.03-.29-1.3-.75-.27-.46-.27-1.04,0-1.5l61.91-107.23c.27-.46.76-.75,1.3-.75h262.27c.54,0,1.03.29,1.3.75.27.46.27,1.04,0,1.5l-61.91,107.23c-.27.46-.76.75-1.3.75ZM668.79,801.46h258.81l60.18-104.23h-258.81l-60.18,104.23Z" fill="#101727"/>
      </g>
      <g>
        <polygon points="1190.74 802.96 928.46 802.96 990.37 695.73 1252.65 695.73 1190.74 802.96" fill="#e8bd51"/>
        <path d="M1190.74,804.46h-262.27c-.54,0-1.03-.29-1.3-.75-.27-.46-.27-1.04,0-1.5l61.91-107.23c.27-.46.76-.75,1.3-.75h262.27c.54,0,1.03.29,1.3.75.27.46.27,1.04,0,1.5l-61.91,107.23c-.27.46-.76.75-1.3.75ZM931.06,801.46h258.81l60.18-104.23h-258.81l-60.18,104.23Z" fill="#101727"/>
      </g>
      <g>
        <polygon points="334.69 695.73 203.56 695.73 265.47 588.49 396.61 588.49 334.69 695.73" fill="#e8bd51"/>
        <path d="M334.69,697.23h-131.14c-.54,0-1.03-.29-1.3-.75-.27-.46-.27-1.04,0-1.5l61.91-107.23c.27-.46.76-.75,1.3-.75h131.14c.54,0,1.03.29,1.3.75.27.46.27,1.04,0,1.5l-61.91,107.23c-.27.46-.76.75-1.3.75ZM206.16,694.23h127.67l60.18-104.23h-127.67l-60.18,104.23Z" fill="#101727"/>
      </g>
      <g>
        <polygon points="596.97 695.73 334.69 695.73 396.61 588.49 658.88 588.49 596.97 695.73" fill="#e8bd51"/>
        <path d="M596.97,697.23h-262.27c-.54,0-1.03-.29-1.3-.75-.27-.46-.27-1.04,0-1.5l61.91-107.23c.27-.46.76-.75,1.3-.75h262.27c.54,0,1.03.29,1.3.75.27.46.27,1.04,0,1.5l-61.91,107.23c-.27.46-.76.75-1.3.75ZM337.29,694.23h258.81l60.18-104.23h-258.81l-60.18,104.23Z" fill="#101727"/>
      </g>
      <g>
        <polygon points="859.24 695.73 596.97 695.73 658.88 588.49 921.15 588.49 859.24 695.73" fill="#e8bd51"/>
        <path d="M859.24,697.23h-262.27c-.54,0-1.03-.29-1.3-.75-.27-.46-.27-1.04,0-1.5l61.91-107.23c.27-.46.76-.75,1.3-.75h262.27c.54,0,1.03.29,1.3.75.27.46.27,1.04,0,1.5l-61.91,107.23c-.27.46-.76.75-1.3.75ZM599.56,694.23h258.81l60.18-104.23h-258.81l-60.18,104.23Z" fill="#101727"/>
      </g>
      <g>
        <polygon points="1121.51 695.73 859.24 695.73 921.15 588.49 1183.42 588.49 1121.51 695.73" fill="#e8bd51"/>
        <path d="M1121.51,697.23h-262.27c-.54,0-1.03-.29-1.3-.75-.27-.46-.27-1.04,0-1.5l61.91-107.23c.27-.46.76-.75,1.3-.75h262.27c.54,0,1.03.29,1.3.75.27.46.27,1.04,0,1.5l-61.91,107.23c-.27.46-.76.75-1.3.75ZM861.84,694.23h258.81l60.18-104.23h-258.81l-60.18,104.23Z" fill="#101727"/>
      </g>
      <g>
        <polygon points="1252.65 695.73 1121.51 695.73 1183.42 588.49 1314.56 588.49 1252.65 695.73" fill="#e8bd51"/>
        <path d="M1252.65,697.23h-131.14c-.54,0-1.03-.29-1.3-.75-.27-.46-.27-1.04,0-1.5l61.91-107.23c.27-.46.76-.75,1.3-.75h131.14c.54,0,1.03.29,1.3.75.27.46.27,1.04,0,1.5l-61.91,107.23c-.27.46-.76.75-1.3.75ZM1124.11,694.23h127.67l60.18-104.23h-127.67l-60.18,104.23Z" fill="#101727"/>
      </g>
      <g>
        <polygon points="527.74 588.49 265.47 588.49 327.38 481.26 589.65 481.26 527.74 588.49" fill="#e8bd51"/>
        <path d="M527.74,589.99h-262.27c-.54,0-1.03-.29-1.3-.75-.27-.46-.27-1.04,0-1.5l61.91-107.23c.27-.46.76-.75,1.3-.75h262.27c.54,0,1.03.29,1.3.75.27.46.27,1.04,0,1.5l-61.91,107.23c-.27.46-.76.75-1.3.75ZM268.07,586.99h258.81l60.18-104.23h-258.81l-60.18,104.23Z" fill="#101727"/>
      </g>
      <g>
        <polygon points="790.01 588.49 527.74 588.49 589.65 481.26 851.93 481.26 790.01 588.49" fill="#e8bd51"/>
        <path d="M790.01,589.99h-262.27c-.54,0-1.03-.29-1.3-.75-.27-.46-.27-1.04,0-1.5l61.91-107.23c.27-.46.76-.75,1.3-.75h262.27c.54,0,1.03.29,1.3.75.27.46.27,1.04,0,1.5l-61.91,107.23c-.27.46-.76.75-1.3.75ZM530.34,586.99h258.81l60.18-104.23h-258.81l-60.18,104.23Z" fill="#101727"/>
      </g>
      <g>
        <polygon points="1052.29 588.49 790.01 588.49 851.93 481.26 1114.2 481.26 1052.29 588.49" fill="#e8bd51"/>
        <path d="M1052.29,589.99h-262.27c-.54,0-1.03-.29-1.3-.75-.27-.46-.27-1.04,0-1.5l61.91-107.23c.27-.46.76-.75,1.3-.75h262.27c.54,0,1.03.29,1.3.75.27.46.27,1.04,0,1.5l-61.91,107.23c-.27.46-.76.75-1.3.75ZM792.61,586.99h258.81l60.18-104.23h-258.81l-60.18,104.23Z" fill="#101727"/>
      </g>
      <g>
        <polygon points="1314.56 588.49 1052.29 588.49 1114.2 481.26 1376.47 481.26 1314.56 588.49" fill="#e8bd51"/>
        <path d="M1314.56,589.99h-262.27c-.54,0-1.03-.29-1.3-.75-.27-.46-.27-1.04,0-1.5l61.91-107.23c.27-.46.76-.75,1.3-.75h262.27c.54,0,1.03.29,1.3.75.27.46.27,1.04,0,1.5l-61.91,107.23c-.27.46-.76.75-1.3.75ZM1054.88,586.99h258.81l60.18-104.23h-258.81l-60.18,104.23Z" fill="#101727"/>
      </g>
      <g>
        <polygon points="458.52 481.26 327.38 481.26 389.29 374.03 520.43 374.03 458.52 481.26" fill="#e8bd51"/>
        <path d="M458.52,482.76h-131.14c-.54,0-1.03-.29-1.3-.75-.27-.46-.27-1.04,0-1.5l61.91-107.23c.27-.46.76-.75,1.3-.75h131.14c.54,0,1.03.29,1.3.75.27.46.27,1.04,0,1.5l-61.91,107.23c-.27.46-.76.75-1.3.75ZM329.98,479.76h127.67l60.18-104.23h-127.67l-60.18,104.23Z" fill="#101727"/>
      </g>
      <g>
        <polygon points="720.79 481.26 458.52 481.26 520.43 374.03 782.7 374.03 720.79 481.26" fill="#e8bd51"/>
        <path d="M720.79,482.76h-262.27c-.54,0-1.03-.29-1.3-.75-.27-.46-.27-1.04,0-1.5l61.91-107.23c.27-.46.76-.75,1.3-.75h262.27c.54,0,1.03.29,1.3.75.27.46.27,1.04,0,1.5l-61.91,107.23c-.27.46-.76.75-1.3.75ZM461.12,479.76h258.81l60.18-104.23h-258.81l-60.18,104.23Z" fill="#101727"/>
      </g>
      <g>
        <polygon points="983.06 481.26 720.79 481.26 782.7 374.03 1044.97 374.03 983.06 481.26" fill="#e8bd51"/>
        <path d="M983.06,482.76h-262.27c-.54,0-1.03-.29-1.3-.75-.27-.46-.27-1.04,0-1.5l61.91-107.23c.27-.46.76-.75,1.3-.75h262.27c.54,0,1.03.29,1.3.75.27.46.27,1.04,0,1.5l-61.91,107.23c-.27.46-.76.75-1.3.75ZM723.39,479.76h258.81l60.18-104.23h-258.81l-60.18,104.23Z" fill="#101727"/>
      </g>
      <g>
        <polygon points="1245.33 481.26 983.06 481.26 1044.97 374.03 1307.25 374.03 1245.33 481.26" fill="#e8bd51"/>
        <path d="M1245.33,482.76h-262.27c-.54,0-1.03-.29-1.3-.75-.27-.46-.27-1.04,0-1.5l61.91-107.23c.27-.46.76-.75,1.3-.75h262.27c.54,0,1.03.29,1.3.75.27.46.27,1.04,0,1.5l-61.91,107.23c-.27.46-.76.75-1.3.75ZM985.66,479.76h258.81l60.18-104.23h-258.81l-60.18,104.23Z" fill="#101727"/>
      </g>
      <g>
        <polygon points="1376.47 481.26 1245.33 481.26 1307.25 374.03 1438.38 374.03 1376.47 481.26" fill="#e8bd51"/>
        <path d="M1376.47,482.76h-131.14c-.54,0-1.03-.29-1.3-.75-.27-.46-.27-1.04,0-1.5l61.91-107.23c.27-.46.76-.75,1.3-.75h131.14c.54,0,1.03.29,1.3.75.27.46.27,1.04,0,1.5l-61.91,107.23c-.27.46-.76.75-1.3.75ZM1247.93,479.76h127.67l60.18-104.23h-127.67l-60.18,104.23Z" fill="#101727"/>
      </g>
      <g>
        <polygon points="651.57 374.03 389.29 374.03 451.2 266.79 713.48 266.79 651.57 374.03" fill="#e8bd51"/>
        <path d="M651.57,375.53h-262.27c-.54,0-1.03-.29-1.3-.75-.27-.46-.27-1.04,0-1.5l61.91-107.23c.27-.46.76-.75,1.3-.75h262.27c.54,0,1.03.29,1.3.75.27.46.27,1.04,0,1.5l-61.91,107.23c-.27.46-.76.75-1.3.75ZM391.89,372.53h258.81l60.18-104.23h-258.81l-60.18,104.23Z" fill="#101727"/>
      </g>
      <g>
        <polygon points="913.84 374.03 651.57 374.03 713.48 266.79 975.75 266.79 913.84 374.03" fill="#e8bd51"/>
        <path d="M913.84,375.53h-262.27c-.54,0-1.03-.29-1.3-.75-.27-.46-.27-1.04,0-1.5l61.91-107.23c.27-.46.76-.75,1.3-.75h262.27c.54,0,1.03.29,1.3.75.27.46.27,1.04,0,1.5l-61.91,107.23c-.27.46-.76.75-1.3.75ZM654.16,372.53h258.81l60.18-104.23h-258.81l-60.18,104.23Z" fill="#101727"/>
      </g>
      <g>
        <polygon points="1176.11 374.03 913.84 374.03 975.75 266.79 1238.02 266.79 1176.11 374.03" fill="#e8bd51"/>
        <path d="M1176.11,375.53h-262.27c-.54,0-1.03-.29-1.3-.75-.27-.46-.27-1.04,0-1.5l61.91-107.23c.27-.46.76-.75,1.3-.75h262.27c.54,0,1.03.29,1.3.75.27.46.27,1.04,0,1.5l-61.91,107.23c-.27.46-.76.75-1.3.75ZM916.44,372.53h258.81l60.18-104.23h-258.81l-60.18,104.23Z" fill="#101727"/>
      </g>
      <g>
        <polygon points="1438.38 374.03 1176.11 374.03 1238.02 266.79 1500.29 266.79 1438.38 374.03" fill="#e8bd51"/>
        <path d="M1438.38,375.53h-262.27c-.54,0-1.03-.29-1.3-.75-.27-.46-.27-1.04,0-1.5l61.91-107.23c.27-.46.76-.75,1.3-.75h262.27c.54,0,1.03.29,1.3.75.27.46.27,1.04,0,1.5l-61.91,107.23c-.27.46-.76.75-1.3.75ZM1178.71,372.53h258.81l60.18-104.23h-258.81l-60.18,104.23Z" fill="#101727"/>
      </g>
      <g>
        <polygon points="582.34 266.79 451.2 266.79 513.12 159.56 644.25 159.56 582.34 266.79" fill="#e8bd51"/>
        <path d="M582.34,268.29h-131.14c-.54,0-1.03-.29-1.3-.75-.27-.46-.27-1.04,0-1.5l61.91-107.23c.27-.46.76-.75,1.3-.75h131.14c.54,0,1.03.29,1.3.75.27.46.27,1.04,0,1.5l-61.91,107.23c-.27.46-.76.75-1.3.75ZM453.8,265.29h127.67l60.18-104.23h-127.67l-60.18,104.23Z" fill="#101727"/>
      </g>
      <g>
        <polygon points="844.61 266.79 582.34 266.79 644.25 159.56 906.52 159.56 844.61 266.79" fill="#e8bd51"/>
        <path d="M844.61,268.29h-262.27c-.54,0-1.03-.29-1.3-.75-.27-.46-.27-1.04,0-1.5l61.91-107.23c.27-.46.76-.75,1.3-.75h262.27c.54,0,1.03.29,1.3.75.27.46.27,1.04,0,1.5l-61.91,107.23c-.27.46-.76.75-1.3.75ZM584.94,265.29h258.81l60.18-104.23h-258.81l-60.18,104.23Z" fill="#101727"/>
      </g>
      <g>
        <polygon points="1106.89 266.79 844.61 266.79 906.52 159.56 1168.8 159.56 1106.89 266.79" fill="#e8bd51"/>
        <path d="M1106.89,268.29h-262.27c-.54,0-1.03-.29-1.3-.75-.27-.46-.27-1.04,0-1.5l61.91-107.23c.27-.46.76-.75,1.3-.75h262.27c.54,0,1.03.29,1.3.75.27.46.27,1.04,0,1.5l-61.91,107.23c-.27.46-.76.75-1.3.75ZM847.21,265.29h258.81l60.18-104.23h-258.81l-60.18,104.23Z" fill="#101727"/>
      </g>
      <g>
        <polygon points="1369.16 266.79 1106.89 266.79 1168.8 159.56 1431.07 159.56 1369.16 266.79" fill="#e8bd51"/>
        <path d="M1369.16,268.29h-262.27c-.54,0-1.03-.29-1.3-.75-.27-.46-.27-1.04,0-1.5l61.91-107.23c.27-.46.76-.75,1.3-.75h262.27c.54,0,1.03.29,1.3.75.27.46.27,1.04,0,1.5l-61.91,107.23c-.27.46-.76.75-1.3.75ZM1109.48,265.29h258.81l60.18-104.23h-258.81l-60.18,104.23Z" fill="#101727"/>
      </g>
      <g>
        <polygon points="1500.29 266.79 1369.16 266.79 1431.07 159.56 1562.21 159.56 1500.29 266.79" fill="#e8bd51"/>
        <path d="M1500.29,268.29h-131.14c-.54,0-1.03-.29-1.3-.75-.27-.46-.27-1.04,0-1.5l61.91-107.23c.27-.46.76-.75,1.3-.75h131.14c.54,0,1.03.29,1.3.75.27.46.27,1.04,0,1.5l-61.91,107.23c-.27.46-.76.75-1.3.75ZM1371.76,265.29h127.67l60.18-104.23h-127.67l-60.18,104.23Z" fill="#101727"/>
      </g>
    </g>
    <rect x="1074.91" y="1014.99" width="3" height="39.47" transform="translate(-365.23 646.14) rotate(-28.78)" fill="#101727"/>
  </g>
  <g>
    <g>
      <polygon points="669.12 929.22 688.12 963.81 1061.41 963.81 1493.71 213.23 1474.71 178.64 1102.47 178.64 669.12 929.22" fill="#01654d"/>
      <path d="M1061.41,965.31h-373.29c-.55,0-1.05-.3-1.31-.78l-19-34.59c-.25-.46-.25-1.02.02-1.47l433.35-750.58c.27-.46.76-.75,1.3-.75h372.24c.55,0,1.05.3,1.31.78l19,34.59c.25.46.25,1.02-.01,1.47l-432.29,750.58c-.27.46-.76.75-1.3.75ZM689.01,962.31h371.54l431.44-749.1-18.17-33.07h-370.48l-432.49,749.1,18.17,33.07Z" fill="#101727"/>
    </g>
    <g>
      <polygon points="1041.36 929.22 669.12 929.22 1102.47 178.64 1474.71 178.64 1041.36 929.22" fill="#d6ceba"/>
      <path d="M1041.36,930.72h-372.24c-.54,0-1.03-.29-1.3-.75-.27-.46-.27-1.04,0-1.5l433.35-750.58c.27-.46.76-.75,1.3-.75h372.24c.54,0,1.03.29,1.3.75.27.46.27,1.04,0,1.5l-433.35,750.58c-.27.46-.76.75-1.3.75ZM671.72,927.72h368.77l431.62-747.58h-368.77l-431.62,747.58Z" fill="#101727"/>
    </g>
    <g>
      <polygon points="716.44 899.22 1115.15 208.64 1427.38 208.64 1028.68 899.22 716.44 899.22" fill="#01654d"/>
      <path d="M1028.68,900.72h-312.24c-.54,0-1.03-.29-1.3-.75-.27-.46-.27-1.04,0-1.5l398.71-690.58c.27-.46.76-.75,1.3-.75h312.24c.54,0,1.03.29,1.3.75.27.46.27,1.04,0,1.5l-398.71,690.58c-.27.46-.76.75-1.3.75ZM719.04,897.72h308.77l396.98-687.58h-308.77l-396.98,687.58Z" fill="#101727"/>
    </g>
    <g>
      <path d="M1028.68,900.72h-312.24c-.54,0-1.03-.29-1.3-.75-.27-.46-.27-1.04,0-1.5l398.71-690.58c.27-.46.76-.75,1.3-.75h312.24c.54,0,1.03.29,1.3.75.27.46.27,1.04,0,1.5l-398.71,690.58c-.27.46-.76.75-1.3.75ZM719.04,897.72h308.77l396.98-687.58h-308.77l-396.98,687.58Z" fill="#101727"/>
      <rect x="796.18" y="759.61" width="312.24" height="3" fill="#101727"/>
      <rect x="875.92" y="621.49" width="312.24" height="3" fill="#101727"/>
      <rect x="955.67" y="483.37" width="312.24" height="3" fill="#101727"/>
      <rect x="1035.41" y="345.26" width="312.24" height="3" fill="#101727"/>
      <rect x="673.2" y="552.43" width="797.42" height="3" transform="translate(56.19 1205.2) rotate(-60)" fill="#101727"/>
    </g>
    <rect x="1050.41" y="926.79" width="3" height="39.47" transform="translate(-325.78 623.44) rotate(-28.78)" fill="#101727"/>
  </g>
  <g>
    <path d="M518.82,524.64l113.99-234.24c-56.14-19.13-171.73,214.39-171.73,214.39" fill="#e9e1ce"/>
    <path d="M520.17,525.3l-2.7-1.31,113.21-232.64c-22.33-5.4-58.07,29.03-103.52,99.87-35.46,55.28-64.46,113.66-64.74,114.24l-2.69-1.33c.29-.58,29.35-59.1,64.9-114.51,48.08-74.96,84.64-108.82,108.66-100.63l1.61.55-.74,1.53-113.99,234.24Z" fill="#101727"/>
  </g>
  <g>
    <g>
      <polyline points="619.5 940.55 587.76 940.55 331.21 791.87 764.4 47.98 796.14 47.98" fill="#01654d"/>
      <path d="M619.5,942.05h-31.74c-.26,0-.52-.07-.75-.2l-256.55-148.67c-.34-.2-.6-.53-.7-.91-.1-.39-.05-.79.15-1.14L763.11,47.22c.27-.46.76-.75,1.3-.75h31.74v3h-30.88l-432,741.85,254.9,147.72h31.33v3Z" fill="#101727"/>
    </g>
    <g>
      <g>
        <rect x="276.99" y="346.38" width="860.67" height="295.77" transform="translate(-75.78 856.69) rotate(-59.78)" fill="#d6ceba"/>
        <path d="M618.52,942.05c-.26,0-.52-.07-.75-.2l-255.57-148.87c-.72-.42-.96-1.34-.54-2.05L794.84,47.22c.2-.34.53-.59.91-.7.38-.1.79-.05,1.14.15l255.57,148.87c.72.42.96,1.34.54,2.05l-433.2,743.7c-.2.34-.53.59-.91.7-.13.03-.25.05-.38.05ZM365,791.14l252.98,147.36,431.69-741.11-252.98-147.36-431.69,741.11Z" fill="#101727"/>
      </g>
      <g>
        <rect x="311.39" y="367.9" width="791.87" height="252.72" transform="translate(-75.78 856.69) rotate(-59.78)" fill="#01654d"/>
        <path d="M617.23,901.49c-.26,0-.52-.07-.75-.2l-218.38-127.2c-.34-.2-.59-.53-.7-.91s-.05-.79.15-1.14L796.13,87.78c.42-.72,1.34-.96,2.05-.54l218.38,127.2c.34.2.59.53.7.91s.05.79-.15,1.14l-398.57,684.25c-.28.48-.78.75-1.3.75ZM400.91,772.25l215.78,125.69L1013.75,216.28l-215.78-125.69-397.06,681.66Z" fill="#101727"/>
      </g>
      <g>
        <path d="M617.23,901.49c-.26,0-.52-.07-.75-.2l-218.38-127.2c-.34-.2-.59-.53-.7-.91s-.05-.79.15-1.14L796.13,87.78c.42-.72,1.34-.96,2.05-.54l218.38,127.2c.34.2.59.53.7.91s.05.79-.15,1.14l-398.57,684.25c-.28.48-.78.75-1.3.75ZM400.91,772.25l215.78,125.69L1013.75,216.28l-215.78-125.69-397.06,681.66Z" fill="#101727"/>
        <rect x="586.26" y="573.18" width="3" height="252.72" transform="translate(-312.54 855.32) rotate(-59.78)" fill="#101727"/>
        <rect x="665.97" y="436.33" width="3" height="252.72" transform="translate(-154.7 856.23) rotate(-59.78)" fill="#101727"/>
        <rect x="745.68" y="299.48" width="3" height="252.72" transform="translate(3.15 857.14) rotate(-59.78)" fill="#101727"/>
        <rect x="825.4" y="162.63" width="3" height="252.72" transform="translate(160.99 858.05) rotate(-59.78)" fill="#101727"/>
        <rect x="311.39" y="492.76" width="791.87" height="3" transform="translate(-75.81 856.61) rotate(-59.77)" fill="#101727"/>
      </g>
    </g>
    <rect x="331.21" y="790.37" width="31.74" height="3" fill="#101727"/>
  </g>
  <g>
    <g>
      <path d="M196.79,843.19l-58.44-13.21-33.16,128.61s34.3,28.31,50.59-34.85c9.19,2.57,19.48,6.07,19.48,6.07l21.54-86.62Z" fill="#e9e1ce"/>
      <path d="M122.6,966.43c-10.14,0-17.97-6.35-18.37-6.68l-.74-.61,33.76-130.95,61.35,13.86-22.3,89.69-1.54-.52c-.1-.03-9.29-3.14-17.93-5.63-6.03,22.48-15.1,35.83-26.98,39.69-2.5.81-4.93,1.14-7.25,1.14ZM106.89,958c2.66,1.89,12.01,7.71,22.06,4.43,11.08-3.62,19.62-16.76,25.37-39.06l.38-1.48,1.48.41c7.03,1.97,14.78,4.5,18.01,5.57l20.78-83.56-55.53-12.55-32.55,126.23Z" fill="#101727"/>
    </g>
    <g>
      <path d="M437.72,918.52l2.33,59.87,132.81-1.18s18.49-40.45-46.73-39.87c.12-9.54.83-20.38.83-20.38l-89.24,1.56Z" fill="#e9e1ce"/>
      <path d="M438.61,979.91l-2.45-62.86,92.41-1.61-.11,1.63c0,.1-.64,9.78-.8,18.78,23.27.02,38.51,5.34,45.31,15.82,7.68,11.84,1.54,25.6,1.27,26.18l-.4.87-135.22,1.2ZM439.28,920l2.22,56.88,130.35-1.16c1.14-3.06,4.35-13.59-1.42-22.46-6.23-9.58-20.66-14.43-42.9-14.43-.46,0-.92,0-1.38,0h-1.53s.02-1.52.02-1.52c.09-7.3.53-15.44.73-18.84l-86.09,1.5Z" fill="#101727"/>
    </g>
    <path d="M263.06,711.99l218.56,10.97c29.54,1.48,52.49,26.29,51.66,55.86l-3.56,126.96-101.72-6.65-.8-69.14-80.56-6.05c-47.12-3.54-83.76-42.43-84.48-89.68l.91-22.27Z" fill="#01654d"/>
    <path d="M374.7,707.21l-16.06,5.54c-19.86,6.85-34.38,24.01-37.87,44.73l-17,101.12-88.74-23.51-19.8,106.24,154.11,22.87c18.85,2.8,36.55-9.79,40.1-28.51l19.67-103.85,4.05-20.84-38.46-103.79Z" fill="#01654d"/>
    <polygon points="539.8 922.28 417.81 922.28 413.81 889.29 543.8 889.29 539.8 922.28" fill="#01654d"/>
    <polygon points="167.08 945.54 190.98 825.91 224.1 828.45 198.64 955.92 167.08 945.54" fill="#01654d"/>
    <rect x="412.11" y="887.79" width="133.03" height="3" fill="#101727"/>
    <rect x="415.62" y="920.78" width="126" height="3" fill="#101727"/>
    <path d="M427.08,831.49l-80.56-6.05c-33.66-2.53-63.33-23.16-77.43-53.85l2.73-1.25c13.64,29.7,42.36,49.66,74.93,52.11l80.56,6.05-.22,2.99Z" fill="#101727"/>
    <g>
      <path d="M437.44,522.34c-77.37,19.61-178.27,189.46-178.27,189.46l200.94,10.08s14.96-95.6,42.79-146.95l-65.46-52.59Z" fill="#e9e1ce"/>
      <path d="M461.39,723.45l-204.78-10.28,1.27-2.14c.25-.43,25.67-43.06,60.23-87.53,46.52-59.87,86.55-94.4,118.97-102.61l.72-.18,67.02,53.84-.6,1.1c-27.39,50.53-42.48,145.51-42.63,146.47l-.21,1.33ZM261.75,710.43l197.1,9.89c1.93-11.69,16.66-97.08,42.15-144.99l-63.9-51.34c-71.1,18.86-163.36,166.81-175.34,186.44Z" fill="#101727"/>
    </g>
    <g>
      <polygon points="354.14 633.52 314.16 624.49 325.31 610.65 361.63 618.72 354.14 633.52" fill="#01654d"/>
      <path d="M354.14,635.02c-.11,0-.22-.01-.33-.04l-39.97-9.03c-.5-.11-.92-.48-1.09-.97-.17-.49-.08-1.03.25-1.43l11.15-13.84c.36-.44.94-.65,1.49-.52l36.32,8.07c.45.1.83.4,1.03.82.2.42.19.91-.02,1.32l-7.5,14.8c-.26.51-.78.82-1.34.82ZM316.84,623.56l36.49,8.24,6.09-12.03-33.53-7.45-9.05,11.24Z" fill="#101727"/>
    </g>
    <g>
      <path d="M338.33,680.84s49.37-117.09,86.39-128.06c19.69-5.84,34.82,15.64,34.82,15.64l-4.13-18.57s-19.08-12.65-39.3-4.25c-36.79,15.28-88.73,132.36-88.73,132.36l10.95,2.88Z" fill="#01654d"/>
      <path d="M338.33,682.34c-.13,0-.25-.02-.38-.05l-10.95-2.88c-.42-.11-.78-.4-.97-.8-.19-.4-.2-.86-.02-1.26.13-.29,13.22-29.69,30.63-60.58,23.5-41.68,43.32-66.09,58.89-72.56,20.73-8.61,39.9,3.85,40.71,4.38.32.21.55.55.63.92l4.13,18.57c.16.7-.2,1.41-.86,1.7-.66.29-1.42.08-1.83-.51-.15-.21-14.76-20.52-33.17-15.07-35.93,10.65-84.95,126.04-85.44,127.21-.24.57-.79.92-1.38.92ZM329.48,676.96l7.98,2.1c2.51-5.82,13.98-31.97,28.87-58.86,22.72-41.02,42.22-64.19,57.97-68.86,14.56-4.32,26.53,5.24,32.46,11.45l-2.67-12c-3.08-1.84-19.95-11.06-37.4-3.81-33.5,13.91-80.8,115.88-87.21,129.98Z" fill="#101727"/>
    </g>
    <g>
      <path d="M532.01,490.73c-3.65-2.55-7.89-3.41-11.64-2.35l-1.09-3.85c4.9-1.39,10.38-.32,15.02,2.92l-2.29,3.28Z" fill="#101727"/>
      <g>
        <path d="M540.62,474.17c8.34,63.69-18.68,95.21-28.86,107.08l-.52.61c-4.18,4.87-10.36,7.06-16.33,6.28-2.79-.37-5.53-1.38-8-3.08l-.54-.37c-12.88-8.8-47.07-32.15-55.58-95.96l109.84-14.57Z" fill="#e9e1ce"/>
        <path d="M497.31,589.79c-.86,0-1.73-.06-2.6-.17-3.08-.4-6.08-1.56-8.66-3.33l-.53-.36c-13.03-8.9-47.62-32.53-56.23-97l-.2-1.49,112.82-14.96.2,1.49c8.43,64.36-18.92,96.25-29.21,108.25l-.52.61c-3.82,4.46-9.31,6.96-15.07,6.96ZM432.48,490.02c8.75,62.03,42.12,84.81,54.74,93.43l.54.36c2.23,1.53,4.7,2.48,7.35,2.83,5.66.74,11.27-1.41,15-5.77l.52-.61c9.98-11.63,36.35-42.39,28.7-104.42l-106.85,14.17Z" fill="#101727"/>
      </g>
      <g>
        <path d="M485.42,399.42l-20.76,2.74c-24.6,3.25-41.91,25.83-38.66,50.43l4.78,36.14,109.84-14.52-4.78-36.14c-3.25-24.6-25.83-41.91-50.43-38.66Z" fill="#e8bd51"/>
        <path d="M429.49,490.42l-4.97-37.63c-3.35-25.38,14.57-48.76,39.95-52.11l20.76-2.74c12.29-1.62,24.49,1.64,34.33,9.18,9.84,7.54,16.16,18.47,17.78,30.77l4.97,37.63-112.82,14.91ZM485.42,399.42l.2,1.49-20.76,2.74c-23.74,3.14-40.5,25.01-37.37,48.75l4.58,34.66,106.87-14.12-4.58-34.66c-1.52-11.5-7.43-21.72-16.63-28.78-9.21-7.06-20.61-10.11-32.11-8.59l-.2-1.49Z" fill="#101727"/>
      </g>
      <g>
        <path d="M430.78,488.68h0s138.78-18.34,138.78-18.34c2.63-.35,4.48-2.76,4.13-5.39h0c-.35-2.63-2.76-4.48-5.39-4.13l-58.82,7.77" fill="#e8bd51"/>
        <path d="M430.97,490.16l-.39-2.97,138.79-18.34c.88-.12,1.65-.57,2.19-1.27s.77-1.57.65-2.44c-.24-1.81-1.9-3.08-3.71-2.84l-58.82,7.77-.39-2.97,58.82-7.77c3.44-.45,6.62,1.98,7.08,5.42.22,1.67-.22,3.32-1.25,4.66s-2.51,2.19-4.18,2.41l-138.79,18.34Z" fill="#101727"/>
      </g>
      <g>
        <path d="M430.78,488.73c-12.65-4.29-20.01,9.73-13.79,21.03,6.22,11.3,14.83,10.86,21.66,10.57" fill="#e9e1ce"/>
        <path d="M435.1,521.93c-6.34,0-13.87-1.34-19.42-11.45-3.63-6.61-3.19-14.49,1.1-19.61,3.52-4.2,8.8-5.49,14.49-3.57l-.96,2.84c-4.52-1.53-8.51-.59-11.23,2.65-3.45,4.11-3.76,10.79-.77,16.23,5.72,10.4,13.38,10.08,20.13,9.8h.16s.12,2.99.12,2.99h-.16c-1.1.05-2.26.1-3.46.1Z" fill="#101727"/>
      </g>
      <path d="M516.57,530.43c-4.01,0-9.27-1.98-14.12-6.88l2.13-2.11c6.06,6.14,11.86,6.41,14.08,5.7.82-.26,1.22-.65,1.26-.92.04-.27-.21-.95-1.44-1.83-11.85-8.51-15.36-17.12-17.18-28.26l2.96-.48c1.74,10.65,4.92,18.36,15.97,26.31,2.66,1.91,2.8,3.78,2.65,4.73-.24,1.5-1.44,2.71-3.31,3.31-.88.28-1.9.44-3.02.44Z" fill="#101727"/>
      <g>
        <path d="M481.44,531.31c-22.54-9.66-26.63-24.21-30.84-45.21l-19.82,2.63c8.52,63.8,42.7,87.16,55.58,95.96l.54.37c2.47,1.7,5.21,2.71,8,3.08,5.97.78,12.16-1.41,16.33-6.28l.52-.61c6.88-8.02,21.45-25.02,27.6-54.84-16.65,11.53-38.5,13.23-57.92,4.91Z" fill="#101727"/>
        <path d="M497.31,589.79c-.86,0-1.73-.06-2.6-.17-3.13-.41-6.04-1.53-8.66-3.33l-.53-.36c-13.03-8.9-47.62-32.52-56.23-97l-.2-1.49,22.7-3.01.28,1.38c4.26,21.3,8.41,34.89,29.96,44.12,19.18,8.22,40.3,6.44,56.48-4.76l3.08-2.13-.76,3.67c-6.23,30.22-20.89,47.3-27.93,55.52l-.52.61c-3.82,4.46-9.31,6.96-15.07,6.96ZM432.48,490.02c8.75,62.03,42.12,84.81,54.74,93.43l.54.36c2.23,1.53,4.7,2.48,7.35,2.83,5.66.74,11.27-1.41,15-5.77l.52-.61c6.6-7.69,20.03-23.36,26.48-50.62-16.57,9.97-37.32,11.16-56.26,3.05h0c-22.36-9.58-27.19-24.05-31.44-44.92l-16.93,2.25Z" fill="#101727"/>
      </g>
      <path d="M486.32,508.27c-.28,0-.56-.02-.84-.05-1.7-.22-3.21-1.09-4.26-2.45-1.04-1.36-1.5-3.05-1.27-4.75.46-3.51,3.69-5.99,7.2-5.53,1.7.22,3.21,1.09,4.26,2.45,1.04,1.36,1.5,3.05,1.27,4.75-.42,3.23-3.19,5.59-6.36,5.59ZM486.31,498.43c-1.69,0-3.16,1.26-3.39,2.98-.12.91.12,1.8.68,2.53s1.36,1.19,2.27,1.31c1.86.25,3.59-1.08,3.83-2.95.12-.91-.12-1.8-.68-2.53s-1.36-1.19-2.27-1.31c-.15-.02-.3-.03-.45-.03Z" fill="#101727"/>
      <path d="M523.99,506.27c-.28,0-.56-.02-.84-.05-1.7-.22-3.21-1.09-4.26-2.45-1.04-1.36-1.5-3.05-1.27-4.75.46-3.51,3.69-5.99,7.2-5.53,1.7.22,3.21,1.09,4.26,2.45,1.04,1.36,1.5,3.05,1.27,4.75l-1.49-.2,1.49.2c-.42,3.23-3.19,5.59-6.36,5.59ZM523.98,496.43c-1.69,0-3.16,1.26-3.39,2.98-.12.91.12,1.8.68,2.53.56.72,1.36,1.19,2.27,1.31,1.85.25,3.59-1.08,3.83-2.95h0c.12-.91-.12-1.8-.68-2.53s-1.36-1.19-2.27-1.31c-.15-.02-.3-.03-.45-.03Z" fill="#101727"/>
      <path d="M475.52,496.27l-3.16-2.45c3.12-4.03,8.16-6.42,13.82-6.57l.11,4c-4.46.12-8.38,1.95-10.76,5.02Z" fill="#101727"/>
      <path d="M504.7,555.41c-.76,0-1.53-.03-2.32-.09-6.08-.47-12.07-2.78-15.64-6.04l2.02-2.21c5.93,5.42,21.14,8.09,27.97,1.03l2.16,2.09c-3.3,3.41-8.28,5.23-14.2,5.23Z" fill="#e9e1ce"/>
      <path d="M495.13,408.98c-.08-.08-8.83-8.23-21.41-6.49l-.41-2.97c14.04-1.95,23.5,6.91,23.9,7.29l-2.07,2.17Z" fill="#101727"/>
      <g>
        <rect x="500.16" y="423.2" width="16.9" height="6.65" transform="translate(-24.54 821.94) rotate(-76.55)" fill="#01654d"/>
        <path d="M513.81,436.55c-2.91,9.47-8.05,13.37-11.24,15.25-2-3.14-4.81-8.99-3.04-18.89-.25-.13-.51-.25-.76-.39-1.92-1.04-3.66-2.21-5.22-3.46-3.79,15.93,2.2,24.6,4.46,27.86l.09.14c.43.63.99,1.12,1.62,1.46,1.35.73,3.02.77,4.45,0l.18-.1c3.5-1.89,12.79-6.92,16.62-22.81-2.28.61-4.68.94-7.15.94Z" fill="#fff"/>
      </g>
      <g>
        <path d="M510.29,536.39c24.12-3.92,27.4-11.99,31.71-31.11-1.96,17.54-6.42,27.55-6.42,27.55l-25.29,3.55Z" fill="#101727"/>
        <path d="M510.5,537.87l-.45-2.97c23.69-3.85,26.33-11.49,30.49-29.96l2.95.5c-1.96,17.57-6.36,27.58-6.54,28l-.34.76-26.11,3.67ZM536.7,524.91c-1.96,3-4.46,5.4-7.85,7.36l5.67-.8c.43-1.08,1.25-3.31,2.18-6.56Z" fill="#101727"/>
      </g>
    </g>
    <g>
      <polygon points="436.34 696.29 447.58 620.31 455.65 623.48 446 697.85 436.34 696.29" fill="#01654d"/>
      <path d="M446,699.35c-.08,0-.16,0-.24-.02l-9.66-1.56c-.81-.13-1.36-.89-1.24-1.7l11.24-75.98c.07-.45.34-.85.73-1.08.39-.23.87-.27,1.3-.1l8.07,3.17c.64.25,1.03.91.94,1.59l-9.66,74.37c-.05.4-.27.77-.59,1.01-.26.19-.58.3-.9.3ZM438.04,695.04l6.67,1.08,9.31-71.68-5.22-2.05-10.75,72.65Z" fill="#101727"/>
    </g>
    <g>
      <polygon points="467.07 713.95 268.74 687.54 280.17 669.87 469.71 695.11 467.07 713.95" fill="#01654d"/>
      <path d="M467.07,715.45c-.07,0-.13,0-.2-.01l-198.33-26.4c-.51-.07-.95-.39-1.16-.86-.21-.47-.18-1.01.1-1.44l11.44-17.67c.31-.49.88-.75,1.46-.67l189.54,25.23c.4.05.75.26,1,.58.24.32.35.72.29,1.12l-2.65,18.84c-.11.75-.75,1.29-1.48,1.29ZM271.28,686.37l194.5,25.89,2.23-15.87-187.1-24.91-9.63,14.88Z" fill="#101727"/>
    </g>
    <g>
      <g>
        <polygon points="446 553.58 462.59 558.69 493.8 578.73 577.14 635.59 618.78 664 656.49 653.48 662.08 655.42 666.14 658.7 666.77 663.69 664.22 671.57 640.71 679.68 686.24 712.65 687.84 719.5 685.23 724.94 678.75 730.28 672.73 730.25 674.84 735.29 675.68 741.43 672.77 747.32 669.93 749.77 660.86 749.61 653.99 745.33 655.15 755.62 651.58 761.55 646.03 763.82 639.95 763.71 631.26 758.64 424.51 609.62 430.78 579.95 424.72 552.78 446 553.58" fill="#e9e1ce"/>
        <rect x="506" y="565.59" width="3" height="207.9" transform="translate(-332.25 694.97) rotate(-54.57)" fill="#101727"/>
        <path d="M675.78,732.17c-2.71,0-5.34-.84-7.58-2.46l-46.3-33.39,1.76-2.43,46.3,33.39c2.17,1.56,4.81,2.19,7.45,1.76,2.64-.43,4.95-1.85,6.51-4.02,1.56-2.17,2.19-4.81,1.76-7.45-.43-2.64-1.85-4.95-4.02-6.51l-42.59-30.7-2.58-1.83,22.81-6.33c4.25-1.35,6.75-5.7,5.78-10.1-.52-2.34-1.94-4.31-4-5.55-2.06-1.23-4.46-1.56-6.78-.91l-35.78,9.99-.58-.39-137.37-93.73c-.27-.22-26.95-21.65-55.61-17.25l-.46-2.97c29.63-4.56,56.2,16.46,57.91,17.85l136.64,93.23,34.44-9.61c3.11-.87,6.36-.43,9.13,1.23,2.77,1.66,4.68,4.32,5.38,7.47,1.31,5.93-2.06,11.79-7.85,13.63l-16.78,4.66,40.05,28.89c2.82,2.03,4.67,5.04,5.23,8.46.55,3.43-.26,6.86-2.29,9.68-2.03,2.82-5.04,4.67-8.46,5.23-.7.11-1.41.17-2.1.17Z" fill="#101727"/>
        <path d="M643.94,765.94c-2.71,0-5.34-.84-7.58-2.46l-46.3-33.39,1.76-2.43,46.3,33.39c2.16,1.56,4.81,2.19,7.45,1.76,2.64-.43,4.95-1.85,6.51-4.02,1.56-2.17,2.19-4.81,1.76-7.45-.43-2.64-1.85-4.95-4.02-6.51l-46.3-33.39,1.76-2.43,46.3,33.39c2.82,2.03,4.67,5.04,5.23,8.46.55,3.43-.26,6.86-2.29,9.68-2.03,2.82-5.04,4.67-8.46,5.23-.7.11-1.41.17-2.1.17Z" fill="#101727"/>
        <path d="M663.93,752.01c-2.71,0-5.34-.84-7.58-2.46l-46.3-33.39,1.76-2.43,46.3,33.39c2.17,1.56,4.81,2.19,7.45,1.76,2.64-.43,4.95-1.85,6.51-4.02,3.22-4.47,2.21-10.73-2.26-13.96l-46.3-33.39,1.76-2.43,46.3,33.39c5.81,4.19,7.13,12.33,2.94,18.14-2.03,2.82-5.04,4.67-8.46,5.23-.7.11-1.41.17-2.1.17Z" fill="#101727"/>
      </g>
      <g>
        <path d="M497.32,581.13c-36.16,12.2-33.96,56.58-33.96,56.58" fill="#e9e1ce"/>
        <path d="M461.86,637.79c-.02-.46-1.83-45.66,34.98-58.08l.96,2.84c-34.68,11.7-32.96,54.65-32.94,55.08l-3,.15Z" fill="#101727"/>
      </g>
    </g>
    <rect x="146.38" y="890.69" width="129.99" height="3" transform="translate(-704.93 924.67) rotate(-78.7)" fill="#101727"/>
    <rect x="118.03" y="884.22" width="121.99" height="3" transform="translate(-724.6 887.76) rotate(-78.7)" fill="#101727"/>
  </g>
  <g>
    <path d="M571.28,354.45l36.46.39c5.21.1,9.5-4.04,9.6-9.25h0c.1-5.21-4.04-9.5-9.25-9.6l-25.53-.39c-4.81,0-3.46-6-3.46-6" fill="#e9e1ce"/>
    <path d="M607.92,356.34c-.07,0-.14,0-.21,0l-36.44-.39.03-3,36.46.39c4.34.08,8-3.41,8.09-7.78.08-4.37-3.41-7.99-7.78-8.07l-25.52-.39c-2.09,0-3.28-.93-3.91-1.72-1.79-2.24-1.08-5.72-.99-6.11l2.93.66c-.14.62-.35,2.63.41,3.58.2.25.59.59,1.59.59l25.55.39c6.03.11,10.84,5.11,10.73,11.13-.11,5.95-4.99,10.72-10.92,10.72Z" fill="#101727"/>
  </g>
  <path d="M531.67,889.33l-3-.08,3.1-110.23c.39-13.91-4.6-27.19-14.04-37.4s-22.3-16.22-36.19-16.92l-21.52-1.32.18-2.99,21.5,1.32c14.67.74,28.25,7.09,38.23,17.88,9.98,10.79,15.25,24.83,14.84,39.52l-3.1,110.23Z" fill="#101727"/>
</svg>