<?xml version="1.0" encoding="UTF-8"?><svg id="Layer_1" xmlns="http://www.w3.org/2000/svg" viewBox="0 0 251.3 251.29"><path d="M249.8,125.65c0,49.54-29.02,92.3-70.99,112.21l-6.32-29.67c-.88-4.64-1.47-9.53-1.81-14.57-.4-5.74-.48-11.67-.33-17.64.73-29.3,7.08-59.32,9.79-70.91,4.47,9.36,11.35,19.57,21.86,29.29,25.53-10.49,30.79-28.04,31.73-47.71-27.02-24.88-47.69-26.16-51.74-24.95-.8.17-1.59.33-2.36.53l-.04-.82c-6.96-5.09-17.17-12.78-27.74-12.78s-17.24,2.32-26.08,2.71c-8.84.38-8.99-2.71-21.67-2.71s-28.44,9.42-32.16,12.78c-2.3-1.27-5-1.11-7.72-.95-4.23-.11-23.85,6.54-43.43,37.61,6.05,18.74,15.71,34.31,43.09,37.76,4.53-7.21,7.77-14.26,10.04-20.93,3.97,16.04,7.27,37.91,5.23,59.21-.52,5.46-1.39,10.88-2.69,16.15-1.39,5.61-3.26,11.05-5.71,16.2-3.07,6.47-7.86,14.12-13.64,22.71C23.6,206.94,1.5,168.88,1.5,125.65,1.5,57.08,57.09,1.5,125.65,1.5s124.15,55.58,124.15,124.15Z" fill="#a99e53" stroke="#101727" stroke-miterlimit="10" stroke-width="3"/><path d="M172.1,72.48v-.46c.33-6.98,3.66-8.8,7.53-9.79l-.04-.82c-6.96-5.09-17.17-12.78-27.74-12.78s-17.24,2.32-26.08,2.71c-8.84.38-8.99-2.71-21.67-2.71s-28.44,9.42-32.16,12.78c1.82,1,3.38,2.91,4.51,6.43l.12.44c1.89,6.59,4.87,24.57-2.65,46.62,3.97,16.04,7.27,37.91,5.23,59.21,18.33,12.25,61.8,23.2,91.01,1.87h.19c.73-29.3,7.08-59.32,9.79-70.91-6.99-14.61-8.12-27.15-8.04-32.59ZM119.17,133.84h13.19c3.64,0,6.59,2.95,6.59,6.59s-2.95,6.6-6.59,6.6-3.83-4.12-6.59-4.12-2.96,4.12-6.6,4.12-6.59-2.95-6.59-6.6,2.95-6.59,6.59-6.59ZM141.69,159.29c-11.96,13-25.51,7.71-33.39,0v-.09c7.23-.51,11.51-2.93,17.47-2.93s9.57,2.41,15.93,2.93v.09Z" fill="#434746" stroke="#101727" stroke-miterlimit="10" stroke-width="3"/><path d="M73.92,114.9c-2.27,6.67-5.51,13.72-10.04,20.93-27.38-3.45-37.04-19.02-43.09-37.76,19.58-31.07,39.2-37.72,43.43-37.61,2.72-.16,5.42-.32,7.72.95,1.82,1,3.38,2.91,4.51,6.43l.12.44c1.89,6.59,4.87,24.57-2.65,46.62Z" fill="#434746" stroke="#101727" stroke-miterlimit="10" stroke-width="3"/><path d="M112.58,140.43c0-3.64,2.95-6.59,6.59-6.59h13.19c3.64,0,6.59,2.95,6.59,6.59s-2.95,6.6-6.59,6.6-3.83-4.12-6.59-4.12-2.96,4.12-6.6,4.12-6.59-2.95-6.59-6.6Z" fill="none" stroke="#101727" stroke-miterlimit="10" stroke-width="3"/><path d="M141.7,159.2v.09c-11.97,13-25.52,7.71-33.4,0v-.09c7.23-.51,11.51-2.93,17.47-2.93s9.57,2.41,15.93,2.93Z" fill="#323a37" stroke="#101727" stroke-miterlimit="10" stroke-width="3"/><path d="M178.81,237.86c-16.11,7.65-34.14,11.93-53.16,11.93-25.33,0-48.9-7.59-68.54-20.62,5.78-8.59,10.57-16.24,13.64-22.71,2.45-5.15,4.32-10.59,5.71-16.2,18.32,12.25,64.49,24.72,93.7,3.4l.52-.04c.34,5.04.93,9.93,1.81,14.57l6.32,29.67Z" fill="#434746" stroke="#101727" stroke-miterlimit="10" stroke-width="3"/><path d="M170.68,193.62l-.52.04c-29.21,21.32-75.38,8.85-93.7-3.4,1.3-5.27,2.17-10.69,2.69-16.15,18.33,12.25,61.8,23.2,91.01,1.87h.19c-.15,5.97-.07,11.9.33,17.64Z" fill="#e8bd51" stroke="#101727" stroke-miterlimit="10" stroke-width="3"/><path d="M233.73,86.65c-.94,19.67-6.2,37.22-31.73,47.71-10.51-9.72-17.39-19.93-21.86-29.29-6.99-14.61-8.12-27.15-8.04-32.59v-.46c.33-6.98,3.66-8.8,7.53-9.79.77-.2,1.56-.36,2.36-.53,4.05-1.21,24.72.07,51.74,24.95Z" fill="#434746" stroke="#101727" stroke-miterlimit="10" stroke-width="3"/><path d="M138.95,140.43c0,3.65-2.95,6.6-6.59,6.6s-3.83-4.12-6.59-4.12-2.96,4.12-6.6,4.12-6.59-2.95-6.59-6.6,2.95-6.59,6.59-6.59h13.19c3.64,0,6.59,2.95,6.59,6.59Z" fill="#101727"/><path d="M161.15,138.73c-4.33,4.76-9.13,20.56-17.06,20.56-.84,0-1.64-.03-2.39-.09" fill="none" stroke="#101727" stroke-miterlimit="10" stroke-width="3"/><path d="M108.29,159.2c-.85.06-1.74.09-2.68.09-8.94,0-8.82-22.67-18.04-27.07" fill="none" stroke="#101727" stroke-miterlimit="10" stroke-width="3"/><path d="M92.41,102.74c1.29-4.86,4.73-9.29,9.86-9.29s8.63,4.43,9.86,9.29" fill="none" stroke="#101727" stroke-miterlimit="10" stroke-width="3"/><path d="M139.4,102.74c1.29-4.86,4.73-9.29,9.86-9.29s8.63,4.43,9.86,9.29" fill="none" stroke="#101727" stroke-miterlimit="10" stroke-width="3"/><path d="M101.95,86.32c-5.34-.54-9.91,1.22-12.83,4.29" fill="none" stroke="#101727" stroke-miterlimit="10" stroke-width="3"/><path d="M149.46,86.16c5.35-.42,9.87,1.46,12.72,4.6" fill="none" stroke="#101727" stroke-miterlimit="10" stroke-width="3"/></svg>