<?xml version="1.0" encoding="UTF-8"?><svg id="Layer_1" xmlns="http://www.w3.org/2000/svg" viewBox="0 0 394.7 373.37"><path d="M221.88,109.3c-5.74,1.35-11.35,2.23-16.84,2.65-16.46,1.24-31.82-1.73-46.09-8.8,3.6-36.55,22.64-50.54,29.81-55.81,2.93-1.69,5.83-3.37,9.27-2.26,1.53.49,3.17,1.54,4.97,3.38l.31.34c6.04,6.57,22.07,24.02,18.57,60.5Z" fill="#434746" stroke="#101727" stroke-miterlimit="10" stroke-width="3"/><path d="M302.99,24.38h0c-7.71,1.5-15.35,2.66-21.82,2.54-20.37-.39-23.01-14.84-40.36-12.49-.8.11-1.58.22-2.35.34.54-.49,1.16-.98,1.87-1.47l.39-.25c7.49-4.84,27.4-17.69,62.77-8.06.41,6.73.24,13.19-.5,19.39Z" fill="#323a37" stroke="#101727" stroke-miterlimit="10" stroke-width="3"/><path d="M337.46,40.04c-13.09,1.32-14.85-8.93-13.83-19.92-6.37,1.22-13.53,2.89-20.64,4.26h0c-7.71,1.5-15.35,2.66-21.82,2.54-20.37-.39-23.01-14.84-40.36-12.49-.8.11-1.58.22-2.35.34-22.63,3.56-34.56,13.04-40.31,29.95-.04.12-.08.24-.12.36,1.53.49,3.17,1.54,4.97,3.38l.31.34c6.04,6.57,22.07,24.02,18.57,60.5-5.74,1.35-11.35,2.23-16.84,2.65.5,3.05.8,5.9.8,8.51,0,1.62-.16,3.22-.47,4.82,14.59,9.81,49.11,20.6,70.04,14.41,5.7-18.56,10.99-31.54,13.31-36.58,1.63-3.55,4.68-6.2,8.54-8.38.02,0,.03,0,.05-.02,11.8-6.66,31.11-9.06,40.65-20.01,7.45-8.55,11.1-24.86,10.87-37.64-3,1.41-6.73,2.51-11.37,2.98Z" fill="#434746" stroke="#101727" stroke-linejoin="round" stroke-width="3"/><path d="M283.81,41.3c0,4.17-3.39,7.56-7.57,7.56s-7.56-3.39-7.56-7.56,3.39-7.57,7.56-7.57,7.57,3.39,7.57,7.57Z" fill="#fff" stroke="#101727" stroke-linejoin="round" stroke-width="3"/><path d="M260.09,56.42c0,4.18-3.39,7.57-7.56,7.57s-7.57-3.39-7.57-7.57,3.39-7.56,7.57-7.56,7.56,3.39,7.56,7.56Z" fill="#fff" stroke="#101727" stroke-linejoin="round" stroke-width="3"/><path d="M348.83,37.06c-3,1.41-6.73,2.51-11.37,2.98-13.09,1.32-14.85-8.93-13.83-19.92,8.48-1.61,15.56-2.42,19.23-.7,3.83,1.8,5.81,8.89,5.97,17.64Z" fill="#101727" stroke="#101727" stroke-linejoin="round" stroke-width="3"/><path d="M204.69,371.87c3.74-32.98-48.15-29.95-48.15-29.95,0,0,14.43-6.67,24.86-23.67,0,0,33.15-10.07,36.42-29.92l-13.13,83.54Z" fill="#323a37" stroke="#101727" stroke-linejoin="round" stroke-width="3"/><path d="M271.27,154.01c-.06.21-7.13,30.06-7.13,30.06,0,0-2.57,13.37-3.67,20.42-3.23,20.75-6.78,46.77-9.87,70.58h0c-4.67,35.96-8.3,66.85-8.3,66.85,0,0,8.49,3.04,15.07,10.09,4.42,4.72,7.98,11.25,7.56,19.86h-60.24l13.13-83.54c-3.27,19.85-36.42,29.92-36.42,29.92-10.43,17-24.86,23.67-24.86,23.67,0,0,51.89-3.03,48.15,29.95H74.82c0-10.69.54-20.86,1.55-30.52,12.79-122.82,101.29-165.98,124.1-203.95,18.48,13.98,45.29,21.12,70.8,16.61Z" fill="#434746" stroke="#101727" stroke-linejoin="round" stroke-width="3"/><path d="M275.41,139.69c-1.36,4.46-2.76,9.24-4.14,14.32-25.51,4.51-52.32-2.63-70.8-16.61,2.46-4.07,4.15-8.08,4.9-12.12,14.59,9.81,49.11,20.6,70.04,14.41Z" fill="#e8bd51" stroke="#101727" stroke-linejoin="round" stroke-width="3"/><path d="M125.12,261.49s69.48-18.67,66.59,23.42c-.95,13.95-5.14,24.91-10.31,33.34" fill="none" stroke="#101727" stroke-linejoin="round" stroke-width="3"/><path d="M224.86,243.5l-7.02,44.7s0,.09-.02.13" fill="none" stroke="#101727" stroke-linejoin="round" stroke-width="3"/><path d="M76.37,341.35c-1.01,9.66-1.55,19.83-1.55,30.52C12.06,335.33-4.27,285.46,3.16,237.84c.44-2.82,4.48-2.85,4.97-.04,6.61,38.56,17.18,62.5,68.24,103.55Z" fill="#434746" stroke="#101727" stroke-linejoin="round" stroke-width="3"/><path d="M77.08,341.92c-.24-.19-.47-.38-.71-.57" fill="none" stroke="#101727" stroke-linejoin="round" stroke-width="3"/><path d="M264.93,371.87c.42-8.61-3.14-15.14-7.56-19.86l-6.77-76.93h0c3.09-23.82,6.64-49.84,9.87-70.59,1.1-7.05,2.34-13.87,3.67-20.42,1,.38,24.19,157.85,24.19,157.85,0,0,22.53.81,29.07,29.95h-52.47Z" fill="#323a37" stroke="#101727" stroke-linejoin="round" stroke-width="3"/><path d="M217.84,288.2s0,.09-.02.13" fill="none" stroke="#101727" stroke-linejoin="round" stroke-width="3"/><path d="M279.83,97.37s10.04.44,17.43-2.64" fill="none" stroke="#101727" stroke-linejoin="round" stroke-width="3"/><line x1="275.42" y1="139.69" x2="275.41" y2="139.69" fill="none" stroke="#101727" stroke-miterlimit="10" stroke-width="3"/><line x1="271.28" y1="154.01" x2="271.27" y2="154.01" fill="none" stroke="#101727" stroke-miterlimit="10" stroke-width="3"/><path d="M283.92,165.97c0,8.42-6.82,15.24-15.24,15.24-.76,0-1.51-.06-2.25-.17-1.08-.16-2.12-.43-3.12-.81-5.76-2.16-9.87-7.73-9.87-14.26,0-8.42,6.83-15.24,15.24-15.24.53,0,1.06.03,1.58.08,7.68.79,13.66,7.27,13.66,15.16Z" fill="#e8bd51" stroke="#101727" stroke-miterlimit="10" stroke-width="3"/><rect x="263.53" y="158.28" width="3.08" height="7.83" transform="translate(-42.59 205.97) rotate(-39.56)" fill="#fff"/><path d="M270.23,163.07c2.69,3.72,2.7,6.7,2.51,8.41-1.72-.14-4.67-.72-7.83-4.14-.12.06-.24.12-.36.17-.92.42-1.84.74-2.74.97,4.84,5.84,9.71,6.04,11.55,6.11h.08c.35.02.69-.05.99-.19.65-.29,1.13-.9,1.24-1.65v-.09c.29-1.82,1.02-6.66-3.79-12.5-.41,1.01-.95,1.99-1.65,2.91Z" fill="#01654d"/><line x1="25.82" y1="371.85" x2="394.7" y2="371.85" fill="none" stroke="#101727" stroke-miterlimit="10" stroke-width="3"/><path d="M236.7,44.72c-3.8,3.26-4.55,8.88-3.65,13.03" fill="none" stroke="#101727" stroke-miterlimit="10" stroke-width="3"/><path d="M272.58,25.79c-5.95-1.46-8.64.51-11.9,3.23" fill="none" stroke="#101727" stroke-miterlimit="10" stroke-width="3"/></svg>