<?xml version="1.0" encoding="UTF-8"?><svg id="Layer_1" xmlns="http://www.w3.org/2000/svg" viewBox="0 0 251.29 251.29"><path d="M233.73,86.65c-.95,19.67-6.2,37.22-31.73,47.71-10.51-9.72-17.39-19.93-21.87-29.29h0c-6.98-14.61-8.11-27.16-8.03-32.59v-.46c.33-6.98,3.65-8.8,7.52-9.79.77-.2,1.57-.36,2.36-.53,4.05-1.21,24.72.07,51.75,24.95Z" fill="#434746" stroke="#101727" stroke-miterlimit="10" stroke-width="3"/><path d="M132.35,133.84h-13.18c-3.65,0-6.6,2.95-6.6,6.59s2.95,6.6,6.6,6.6,3.83-4.12,6.59-4.12,2.95,4.12,6.59,4.12,6.6-2.95,6.6-6.6-2.95-6.59-6.6-6.59ZM132.35,133.84h-13.18c-3.65,0-6.6,2.95-6.6,6.59s2.95,6.6,6.6,6.6,3.83-4.12,6.59-4.12,2.95,4.12,6.59,4.12,6.6-2.95,6.6-6.6-2.95-6.59-6.6-6.59ZM132.35,133.84h-13.18c-3.65,0-6.6,2.95-6.6,6.59s2.95,6.6,6.6,6.6,3.83-4.12,6.59-4.12,2.95,4.12,6.59,4.12,6.6-2.95,6.6-6.6-2.95-6.59-6.6-6.59ZM132.35,133.84h-13.18c-3.65,0-6.6,2.95-6.6,6.59s2.95,6.6,6.6,6.6,3.83-4.12,6.59-4.12,2.95,4.12,6.59,4.12,6.6-2.95,6.6-6.6-2.95-6.59-6.6-6.59ZM132.35,133.84h-13.18c-3.65,0-6.6,2.95-6.6,6.59s2.95,6.6,6.6,6.6,3.83-4.12,6.59-4.12,2.95,4.12,6.59,4.12,6.6-2.95,6.6-6.6-2.95-6.59-6.6-6.59ZM132.35,133.84h-13.18c-3.65,0-6.6,2.95-6.6,6.59s2.95,6.6,6.6,6.6,3.83-4.12,6.59-4.12,2.95,4.12,6.59,4.12,6.6-2.95,6.6-6.6-2.95-6.59-6.6-6.59ZM132.35,133.84h-13.18c-3.65,0-6.6,2.95-6.6,6.59s2.95,6.6,6.6,6.6,3.83-4.12,6.59-4.12,2.95,4.12,6.59,4.12,6.6-2.95,6.6-6.6-2.95-6.59-6.6-6.59ZM132.35,133.84h-13.18c-3.65,0-6.6,2.95-6.6,6.59s2.95,6.6,6.6,6.6,3.83-4.12,6.59-4.12,2.95,4.12,6.59,4.12,6.6-2.95,6.6-6.6-2.95-6.59-6.6-6.59ZM132.35,133.84h-13.18c-3.65,0-6.6,2.95-6.6,6.59s2.95,6.6,6.6,6.6,3.83-4.12,6.59-4.12,2.95,4.12,6.59,4.12,6.6-2.95,6.6-6.6-2.95-6.59-6.6-6.59ZM132.35,133.84h-13.18c-3.65,0-6.6,2.95-6.6,6.59s2.95,6.6,6.6,6.6,3.83-4.12,6.59-4.12,2.95,4.12,6.59,4.12,6.6-2.95,6.6-6.6-2.95-6.59-6.6-6.59Z" fill="none" stroke="#101727" stroke-miterlimit="10" stroke-width="3"/><path d="M249.79,125.65c0,49.54-29.02,92.3-70.98,112.21l-6.33-29.67c-.88-4.64-1.46-9.53-1.81-14.57-.39-5.74-.48-11.68-.33-17.64.73-29.31,7.09-59.33,9.79-70.91,4.48,9.36,11.36,19.57,21.87,29.29,25.53-10.49,30.78-28.04,31.73-47.71-27.03-24.88-47.7-26.16-51.75-24.95-.79.17-1.59.33-2.36.53l-.04-.82c-6.95-5.09-17.16-12.78-27.73-12.78s-17.25,2.32-26.09,2.71c-8.84.38-8.98-2.71-21.67-2.71s-28.44,9.42-32.15,12.78c-2.29-1.27-5-1.11-7.73-.95-4.22-.11-23.84,6.54-43.43,37.61,6.06,18.74,15.71,34.31,43.1,37.76,4.53-7.21,7.77-14.26,10.04-20.93,3.96,16.03,7.27,37.91,5.23,59.21-.52,5.46-1.39,10.88-2.7,16.15-1.38,5.61-3.25,11.05-5.7,16.2-3.08,6.47-7.87,14.12-13.65,22.71C23.59,206.93,1.5,168.87,1.5,125.65,1.5,57.08,57.08,1.5,125.65,1.5s124.14,55.58,124.14,124.15Z" fill="#a99e53" stroke="#101727" stroke-miterlimit="10" stroke-width="3"/><path d="M170.67,193.62l-.51.04c-29.22,21.32-75.38,8.85-93.71-3.4,1.31-5.27,2.18-10.69,2.7-16.15,18.32,12.25,61.79,23.2,91.01,1.87h.18c-.15,5.96-.06,11.9.33,17.64Z" fill="#e8bd51" stroke="#101727" stroke-miterlimit="10" stroke-width="3"/><path d="M178.81,237.86c-16.11,7.65-34.14,11.93-53.16,11.93-25.34,0-48.91-7.59-68.55-20.62,5.78-8.59,10.57-16.24,13.65-22.71,2.45-5.15,4.32-10.59,5.7-16.2,18.33,12.25,64.49,24.72,93.71,3.4l.51-.04c.35,5.04.93,9.93,1.81,14.57l6.33,29.67Z" fill="#434746" stroke="#101727" stroke-miterlimit="10" stroke-width="3"/><path d="M73.92,114.9c-2.27,6.67-5.51,13.72-10.04,20.93-27.39-3.45-37.04-19.02-43.1-37.76,19.59-31.07,39.21-37.72,43.43-37.61,2.73-.16,5.44-.32,7.73.95h0c1.82,1.01,3.38,2.92,4.5,6.43l.13.44c1.89,6.59,4.87,24.57-2.65,46.62Z" fill="#434746" stroke="#101727" stroke-miterlimit="10" stroke-width="3"/><path d="M172.1,72.48v-.46c.33-6.98,3.65-8.8,7.52-9.79l-.04-.82c-6.95-5.09-17.16-12.78-27.73-12.78s-17.25,2.32-26.09,2.71c-8.84.38-8.98-2.71-21.67-2.71s-28.44,9.42-32.15,12.78h0c1.82,1.01,3.38,2.92,4.5,6.43l.13.44c1.89,6.59,4.87,24.57-2.65,46.62,3.96,16.03,7.27,37.91,5.23,59.21,18.32,12.25,61.79,23.2,91.01,1.87h.18c.73-29.31,7.09-59.33,9.79-70.91h0c-6.98-14.61-8.11-27.16-8.03-32.59ZM119.17,133.84h13.18c3.65,0,6.6,2.95,6.6,6.59s-2.95,6.6-6.6,6.6-3.83-4.12-6.59-4.12-2.95,4.12-6.59,4.12-6.6-2.95-6.6-6.6,2.95-6.59,6.6-6.59ZM102.27,106.83c-4.18,0-7.57-3.39-7.57-7.57s3.39-7.56,7.57-7.56,7.56,3.38,7.56,7.56-3.38,7.57-7.56,7.57ZM141.69,159.29c-11.97,13-25.51,7.71-33.39,0v-.09c7.23-.51,11.51-2.93,17.46-2.93s9.57,2.41,15.94,2.93v.09ZM149.25,106.83c-4.17,0-7.56-3.39-7.56-7.57s3.39-7.56,7.56-7.56,7.57,3.38,7.57,7.56-3.39,7.57-7.57,7.57Z" fill="#434746" stroke="#101727" stroke-miterlimit="10" stroke-width="3"/><path d="M141.7,159.2v.09c-11.98,13-25.52,7.71-33.4,0v-.09c7.23-.51,11.51-2.93,17.46-2.93s9.57,2.41,15.94,2.93Z" fill="#323a37" stroke="#101727" stroke-miterlimit="10" stroke-width="3"/><path d="M109.83,99.26c0,4.18-3.38,7.57-7.56,7.57s-7.57-3.39-7.57-7.57,3.39-7.56,7.57-7.56,7.56,3.38,7.56,7.56Z" fill="#fff" stroke="#101727" stroke-miterlimit="10" stroke-width="3"/><path d="M156.82,99.26c0,4.18-3.39,7.57-7.57,7.57s-7.56-3.39-7.56-7.57,3.39-7.56,7.56-7.56,7.57,3.38,7.57,7.56Z" fill="#fff" stroke="#101727" stroke-miterlimit="10" stroke-width="3"/><path d="M138.95,140.43c0,3.65-2.95,6.6-6.6,6.6s-3.83-4.12-6.59-4.12-2.95,4.12-6.59,4.12-6.6-2.95-6.6-6.6,2.95-6.59,6.6-6.59h13.18c3.65,0,6.6,2.95,6.6,6.59Z" fill="#101727"/><path d="M161.14,138.73c-4.32,4.76-9.12,20.56-17.05,20.56-.84,0-1.64-.03-2.39-.09" fill="none" stroke="#101727" stroke-miterlimit="10" stroke-width="3"/><path d="M108.29,159.2c-.85.06-1.74.09-2.68.09-8.94,0-8.82-22.67-18.04-27.07" fill="none" stroke="#101727" stroke-miterlimit="10" stroke-width="3"/><path d="M101.94,81.81c-5.34-.54-9.91,1.22-12.83,4.29" fill="none" stroke="#101727" stroke-miterlimit="10" stroke-width="3"/><path d="M149.45,81.66c5.35-.42,9.87,1.46,12.72,4.6" fill="none" stroke="#101727" stroke-miterlimit="10" stroke-width="3"/></svg>