<?xml version="1.0" encoding="UTF-8"?><svg id="Layer_1" xmlns="http://www.w3.org/2000/svg" viewBox="0 0 329.48 415.13"><path d="M118.31,67.77c-2.27,6.67-5.51,13.72-10.04,20.93-27.38-3.46-37.04-19.02-43.09-37.76,19.58-31.08,39.2-37.72,43.43-37.61,2.73-.16,5.43-.33,7.72.95,1.82,1,3.38,2.91,4.51,6.43l.12.44c1.89,6.59,4.87,24.57-2.65,46.62Z" fill="#434746" stroke="#101727" stroke-miterlimit="10" stroke-width="3"/><path d="M275.13,50.94c-6.05,18.74-15.71,34.3-43.09,37.76-4.37-6.97-7.55-13.79-9.81-20.26-7.81-22.36-4.79-40.64-2.88-47.29l.12-.44c1.13-3.52,2.69-5.43,4.51-6.43,2.29-1.28,4.99-1.11,7.72-.95,4.23-.11,23.85,6.53,43.43,37.61Z" fill="#434746" stroke="#101727" stroke-miterlimit="10" stroke-width="3"/><path d="M57.76,413.61C1.97,367.15-7.16,315.26,8.09,269.55c.9-2.71,4.89-2.07,4.91.79.06,25.06,2.73,44.48,16.08,68.07,2.02,43.9,27.84,74.22,28.68,75.2Z" fill="#434746" stroke="#101727" stroke-linejoin="round" stroke-width="3"/><path d="M219.35,21.15l.12-.44c1.13-3.52,2.69-5.43,4.51-6.43-6.96-5.09-17.17-12.78-27.74-12.78s-17.25,2.32-26.09,2.71c-8.84.38-8.98-2.71-21.66-2.71s-28.45,9.42-32.16,12.78c1.82,1,3.38,2.91,4.51,6.43l.12.44c1.89,6.59,4.87,24.57-2.65,46.62,3.97,16.04,7.27,37.91,5.23,59.21,18.33,12.25,61.8,23.2,91.01,1.87h.19c.56-22.66,4.49-45.75,7.49-60.41-7.81-22.36-4.79-40.64-2.88-47.29ZM163.56,86.71h13.19c3.64,0,6.59,2.95,6.59,6.59s-2.95,6.6-6.59,6.6-3.83-4.12-6.6-4.12-2.95,4.12-6.59,4.12-6.59-2.96-6.59-6.6,2.95-6.59,6.59-6.59ZM186.08,112.16c-11.96,13-25.51,7.71-33.39,0v-.1c7.23-.5,11.51-2.93,17.46-2.93s9.58,2.42,15.94,2.93v.1Z" fill="#434746" stroke="#101727" stroke-miterlimit="10" stroke-width="3"/><path d="M186.09,112.06v.1c-11.97,13-25.52,7.71-33.4,0v-.1c7.23-.5,11.51-2.93,17.46-2.93s9.58,2.42,15.94,2.93Z" fill="#434746" stroke="#101727" stroke-miterlimit="10" stroke-width="3"/><path d="M293.41,413.63h-58.28l-20.6-99.25s-.02-.09-.03-.14c-.13-.85-.31-1.69-.52-2.51l-8.43-40.58c5.64,27.93-24.11,44.7-31.98,65.07l4.8,55.47c-10.34-4.06-22.07-1.15-30.53,6.64-4.29,3.94-7.73,9.13-9.73,15.3H57.78s-.01,0-.02-.02c-.84-.98-26.66-31.3-28.68-75.2-.09-1.79-.13-3.61-.13-5.45,0-66.11,69.19-137.89,86.19-173.63,2.45-5.15,4.32-10.59,5.71-16.2,18.32,12.25,64.49,24.72,93.7,3.39l.52-.04c.34,5.04.93,9.94,1.81,14.58l47.46,222.61s22.54.82,29.07,29.96Z" fill="#434746" stroke="#101727" stroke-miterlimit="10" stroke-width="3"/><path d="M215.07,146.48l-.52.04c-29.21,21.33-75.38,8.86-93.7-3.39,1.3-5.27,2.17-10.69,2.69-16.15,18.33,12.25,61.8,23.2,91.01,1.87h.19c-.15,5.96-.07,11.89.33,17.63Z" fill="#e8bd51" stroke="#101727" stroke-miterlimit="10" stroke-width="3"/><path d="M205.55,271.15c-.01-.07-.03-.13-.04-.2l-9.37-45.12" fill="none" stroke="#101727" stroke-miterlimit="10" stroke-width="3"/><path d="M74.79,287.7c83.59-13.26,6.93,95.98,6.93,95.98,0,0,47.07-8.06,42.44,29.95" fill="none" stroke="#101727" stroke-miterlimit="10" stroke-width="3"/><line x1="173.57" y1="336.22" x2="164.01" y2="225.83" fill="none" stroke="#101727" stroke-linejoin="round" stroke-width="3"/><line x1="147.84" y1="398.33" x2="127.07" y2="224.65" fill="none" stroke="#101727" stroke-linejoin="round" stroke-width="3"/><circle cx="146.66" cy="52.13" r="7.57" fill="#fff" stroke="#101727" stroke-miterlimit="10" stroke-width="3"/><circle cx="193.65" cy="52.13" r="7.57" fill="#fff" stroke="#101727" stroke-miterlimit="10" stroke-width="3"/><path d="M183.34,93.3c0,3.64-2.95,6.6-6.59,6.6s-3.83-4.12-6.6-4.12-2.95,4.12-6.59,4.12-6.59-2.96-6.59-6.6,2.95-6.59,6.59-6.59h13.19c3.64,0,6.59,2.95,6.59,6.59Z" fill="#101727"/><path d="M205.54,91.6c-4.33,4.76-9.13,20.56-17.06,20.56-.84,0-1.64-.03-2.39-.1" fill="none" stroke="#101727" stroke-miterlimit="10" stroke-width="3"/><path d="M152.68,112.06c-.85.07-1.74.1-2.68.1-8.94,0-8.82-22.68-18.04-27.07" fill="none" stroke="#101727" stroke-miterlimit="10" stroke-width="3"/><path d="M205.55,271.15c-.01-.07-.03-.13-.04-.2" fill="none" stroke="#101727" stroke-linejoin="round" stroke-width="3"/><path d="M197.35,413.63h-59.24c2-6.17,5.44-11.36,9.73-15.3,8.46-7.79,20.19-10.7,30.53-6.64,7.79,3.05,14.78,10.07,18.98,21.94Z" fill="#434746" stroke="#101727" stroke-miterlimit="10" stroke-width="3"/><path d="M224.98,413.63h-27.63c-4.2-11.87-11.19-18.89-18.98-21.94l-4.8-55.47c7.87-20.37,37.62-37.14,31.98-65.07l8.43,40.58.52,2.51c.01.05.02.09.03.14,4.54,28.27-29.14,69.3-29.14,69.3,0,0,39.59,1.33,39.59,29.95Z" fill="#323a37" stroke="#101727" stroke-miterlimit="10" stroke-width="3"/><path d="M185.55,167.83c0,8.42-6.84,15.23-15.26,15.22-.76,0-1.51-.06-2.25-.17-1.08-.16-2.12-.43-3.12-.81-5.76-2.17-9.86-7.74-9.85-14.27,0-8.42,6.85-15.23,15.26-15.22.53,0,1.06.03,1.58.08,7.68.8,13.65,7.28,13.64,15.17Z" fill="#e8bd51" stroke="#101727" stroke-miterlimit="10" stroke-width="3"/><rect x="165.16" y="160.12" width="3.08" height="7.83" transform="translate(-66.27 143.49) rotate(-39.5)" fill="#fff"/><path d="M171.86,164.91c2.69,3.72,2.7,6.71,2.5,8.41-1.72-.14-4.67-.73-7.83-4.15-.12.06-.24.12-.36.17-.92.42-1.84.74-2.74.97,4.83,5.85,9.71,6.05,11.54,6.13h.08c.35.02.69-.05.99-.19.65-.29,1.13-.9,1.24-1.65v-.09c.29-1.82,1.03-6.66-3.78-12.51-.41,1.01-.96,1.99-1.65,2.91Z" fill="#01654d"/><line x1="6.54" y1="413.61" x2="329.48" y2="413.61" fill="none" stroke="#101727" stroke-miterlimit="10" stroke-width="3"/><path d="M145.68,32.44c-5.34-.54-9.91,1.22-12.83,4.29" fill="none" stroke="#101727" stroke-miterlimit="10" stroke-width="3"/><path d="M193.19,32.29c5.35-.42,9.87,1.46,12.72,4.6" fill="none" stroke="#101727" stroke-miterlimit="10" stroke-width="3"/></svg>