<?xml version="1.0" encoding="UTF-8"?><svg id="Layer_1" xmlns="http://www.w3.org/2000/svg" viewBox="0 0 581.31 254.83"><path d="M205.78,85.77c-4.93-.65-9.65-1.59-14.18-2.81-16.93-4.53-31.07-12.98-42.47-25.27,16.35-32.9,39.11-39.22,47.69-41.61,3.34-.53,6.64-1.08,9.46,1.19,1.26,1,2.42,2.56,3.45,4.92l.17.43c3.31,8.28,12.11,30.28-4.12,63.15Z" fill="#434746" stroke="#101727" stroke-miterlimit="10" stroke-width="3"/><path d="M315.58,28.12c-1.01,2.46-2.09,4.84-3.23,7.15-7.95-1.36-15.73-3.01-21.89-5.48-15.14-6.08-16.45-16.54-25.13-22.51,11.67-.05,29.84,3.03,50.25,20.84Z" fill="#323a37" stroke="#101727" stroke-miterlimit="10" stroke-width="3"/><path d="M482.35,253.33H58.74c-4.3-34.42,38.07-31.11,98.6-40.71,0-17.1,4.53-53.18,14.91-75.66,1.63-3.52,3.1-6.67,4.44-9.55,22.32,12.39,63.46,14.21,89.04-.89,4.5,2.86,10.49,4.63,17,4.63,17.29,0,67.07-23.44,120.87-23.44,46.74,0,80.98,49.68,84.05,101.83h0c.87,14.76-.75,29.71-5.3,43.79Z" fill="#434746" stroke="#101727" stroke-linejoin="round" stroke-width="3"/><path d="M350.1,63.29c-4.31,12.02-13.51,25.98-23.51,31.33-17.02,9.11-51.9-2.58-63.47,8.28-4.62,4.34-6.12,8.9-5.37,13.05-29.53,8.12-47.69,8.7-75.54-.56,3.7-8.44,6.04-15.13,8.27-25.36.47-2.16.83-4.53,1.12-7.07,4.53,1.22,9.25,2.16,14.18,2.81,16.23-32.87,7.43-54.87,4.12-63.15l-.17-.43c-1.03-2.36-2.19-3.92-3.45-4.92.08-.1.16-.2.24-.3,11.77-14.24,26.89-18.7,50.64-13.18,3.4.79,6.01,2,8.17,3.49,8.68,5.97,9.99,16.43,25.13,22.51,6.16,2.47,13.94,4.12,21.89,5.48,6.94,1.19,14,2.15,20.22,3.24-4.86,9.91-6.85,20.12,5.86,23.53,4.49,1.2,8.37,1.49,11.67,1.25Z" fill="#434746" stroke="#101727" stroke-linejoin="round" stroke-width="3"/><path d="M265.73,126.52c-25.58,15.1-66.72,13.28-89.04.89,2.14-4.58,3.95-8.46,5.52-12.02,27.85,9.26,46.01,8.68,75.54.56.73,4.12,3.67,7.84,7.98,10.57Z" fill="#e8bd51" stroke="#101727" stroke-linejoin="round" stroke-width="3"/><path d="M350.1,63.29c-3.3.24-7.18-.05-11.67-1.25-12.71-3.41-10.72-13.62-5.86-23.53,8.49,1.51,15.4,3.26,18.22,6.17,2.94,3.04,2.27,10.37-.69,18.61Z" fill="#101727" stroke="#101727" stroke-linejoin="round" stroke-width="3"/><line x1="285.9" y1="253.33" x2="262.26" y2="188.23" fill="none" stroke="#101727" stroke-linejoin="round" stroke-width="3"/><path d="M217.29,184.48l8.65,38.9s-49.29-1.16-67.45,0c-18.16,1.15-37.19,9.53-34.6,29.95" fill="none" stroke="#101727" stroke-linejoin="round" stroke-width="3"/><path d="M442.7,152.49c-24.92-19.96-87.14-26.61-88.48,16.72-1.33,42.79,30.27,52.91,30.27,52.91,0,0-66.59-2.56-61.98,31.22" fill="none" stroke="#101727" stroke-linejoin="round" stroke-width="3"/><path d="M482.35,253.33c4.55-14.08,6.17-29.03,5.3-43.78h0c32.84-40.21,38.07-64.28,38.16-99.51.02-2.86,4.01-3.5,4.91-.79,15.25,45.72,7.44,97.61-48.37,144.08Z" fill="#434746" stroke="#101727" stroke-linejoin="round" stroke-width="3"/><path d="M562.19,184.18c7.15-18.27,8-36.38,4.35-54.59-.56-2.8-4.72-2.99-4.97-.15-1.17,13.19-2.88,23.58-10.04,34.64" fill="none" stroke="#101727" stroke-linejoin="round" stroke-width="3"/><path d="M509.5,146.68c1.95-12.76-.59-21.83-3.87-31.73-.9-2.71-4.89-2.07-4.91.78-.04,8.22,1.29,14.22-1.23,23.19" fill="none" stroke="#101727" stroke-linejoin="round" stroke-width="3"/><line x1="257.76" y1="115.95" x2="257.75" y2="115.95" fill="none" stroke="#101727" stroke-linejoin="round" stroke-width="3"/><line x1="182.21" y1="115.39" x2="182.2" y2="115.39" fill="none" stroke="#101727" stroke-linejoin="round" stroke-width="3"/><path d="M266.56,126.02c-.27.17-.55.33-.83.5" fill="none" stroke="#101727" stroke-linejoin="round" stroke-width="3"/><path d="M489.71,123.31c1.74,2.02,2.45,6.58,0,10.61" fill="none" stroke="#101727" stroke-linejoin="round" stroke-width="3"/><path d="M579.81,160.3c-.04,3.94-.49,7.12-2.64,12.87" fill="none" stroke="#101727" stroke-linejoin="round" stroke-width="3"/><circle cx="253.21" cy="47.22" r="7.56" fill="#fff" stroke="#101727" stroke-miterlimit="10" stroke-width="3"/><circle cx="280.75" cy="41.49" r="7.56" fill="#fff" stroke="#101727" stroke-miterlimit="10" stroke-width="3"/><line x1="157.34" y1="212.62" x2="157.69" y2="218.91" fill="none" stroke="#101727" stroke-linejoin="round" stroke-width="3"/><path d="M217.94,146.85c-1.32,8.32-9.13,13.98-17.44,12.66-.75-.12-1.48-.3-2.2-.52-1.04-.33-2.03-.76-2.95-1.29-5.35-3.04-8.53-9.18-7.51-15.63,1.32-8.32,9.14-13.98,17.44-12.66.52.08,1.04.2,1.55.33,7.46,1.99,12.35,9.32,11.11,17.12Z" fill="#e8bd51" stroke="#101727" stroke-miterlimit="10" stroke-width="3"/><rect x="198.38" y="136.25" width="3.08" height="7.83" transform="translate(-43.48 120.98) rotate(-30.53)" fill="#fff"/><path d="M204.87,141.83c2.08,4.09,1.62,7.05,1.16,8.7-1.68-.4-4.5-1.45-7.09-5.32-.13.04-.25.08-.38.12-.98.27-1.93.44-2.85.53,3.86,6.53,8.64,7.49,10.45,7.85h.08c.35.09.69.07,1.01-.02.68-.19,1.25-.71,1.48-1.43l.03-.09c.56-1.76,2.04-6.42-1.8-12.94-.56.94-1.26,1.82-2.08,2.61Z" fill="#01654d"/><line y1="253.31" x2="560.09" y2="253.31" fill="none" stroke="#101727" stroke-miterlimit="10" stroke-width="3"/><path d="M273.16,98.64c-10.75-1.44-15.41-3.36-15.41-3.36" fill="#434746" stroke="#101727" stroke-linejoin="round" stroke-width="3"/><path d="M248.95,29.72c-5.34.55-9.45,3.2-11.69,6.8" fill="none" stroke="#101727" stroke-miterlimit="10" stroke-width="3"/><path d="M286.06,27.71c-5.06-2.96-11.14-3.9-15.15-2.54" fill="none" stroke="#101727" stroke-miterlimit="10" stroke-width="3"/></svg>