<?xml version="1.0" encoding="UTF-8"?><svg id="Layer_1" xmlns="http://www.w3.org/2000/svg" viewBox="0 0 1300 1000"><rect x="586.92" y="174.85" width="272.91" height="34.02" fill="#397050"/><path d="M861.34,210.37h-275.91v-37.02h275.91v37.02ZM588.42,207.37h269.91v-31.02h-269.91v31.02Z" fill="#101727"/><circle cx="727.12" cy="191.86" r="31.4" fill="#397050"/><path d="M727.12,224.76c-18.14,0-32.9-14.76-32.9-32.9s14.76-32.9,32.9-32.9,32.9,14.76,32.9,32.9-14.76,32.9-32.9,32.9ZM727.12,161.96c-16.49,0-29.9,13.41-29.9,29.9s13.41,29.9,29.9,29.9,29.9-13.41,29.9-29.9-13.41-29.9-29.9-29.9Z" fill="#101727"/><circle cx="727.12" cy="191.86" r="20.88" fill="#397050"/><path d="M727.12,214.24c-12.34,0-22.38-10.04-22.38-22.38s10.04-22.38,22.38-22.38,22.38,10.04,22.38,22.38-10.04,22.38-22.38,22.38ZM727.12,172.48c-10.69,0-19.38,8.69-19.38,19.38s8.69,19.38,19.38,19.38,19.38-8.69,19.38-19.38-8.69-19.38-19.38-19.38Z" fill="#101727"/><path d="M246.89,910.77h-93.97v-104.09l38.62-58.81c3.95-6.02,12.78-6.02,16.73,0l38.62,58.81v104.09Z" fill="#e9e1ce"/><path d="M248.39,912.27h-96.97v-106.04l38.87-59.18c2.13-3.25,5.73-5.19,9.62-5.19s7.48,1.94,9.62,5.19l38.87,59.18v106.04ZM154.42,909.27h90.97v-102.14l-38.38-58.43c-1.58-2.4-4.24-3.84-7.11-3.84s-5.53,1.43-7.11,3.84l-38.38,58.43v102.14Z" fill="#101727"/><path d="M254.67,910.77h-93.97v-104.09l38.62-58.81c3.95-6.02,12.78-6.02,16.73,0l38.62,58.81v104.09Z" fill="#e9e1ce"/><path d="M256.17,912.27h-96.97v-106.04l38.87-59.18c2.13-3.25,5.73-5.19,9.62-5.19h0c3.89,0,7.48,1.94,9.62,5.19l38.87,59.18v106.04ZM162.2,909.27h90.97v-102.14l-38.38-58.43c-1.58-2.4-4.24-3.84-7.11-3.84s-5.53,1.43-7.11,3.84l-38.38,58.43v102.14Z" fill="#101727"/><rect x="201.63" y="755.22" width="149.9" height="17.75" rx="8.87" ry="8.87" fill="#e9e1ce"/><path d="M342.66,774.46h-132.15c-5.72,0-10.37-4.65-10.37-10.37s4.65-10.37,10.37-10.37h132.15c5.72,0,10.37,4.65,10.37,10.37s-4.65,10.37-10.37,10.37ZM210.51,756.72c-4.07,0-7.37,3.31-7.37,7.37s3.31,7.37,7.37,7.37h132.15c4.07,0,7.37-3.31,7.37-7.37s-3.31-7.37-7.37-7.37h-132.15Z" fill="#101727"/><path d="M599.43,161.33v358.13c-22.31,21.42-41.5,47.91-56.88,72.9-2.03-6.66-3.12-13.7-3.12-21.01V161.33h60Z" fill="#587a51"/><path d="M542.09,595.98l-.97-3.18c-2.11-6.93-3.19-14.15-3.19-21.45V159.83h63v360.27l-.46.44c-19.4,18.62-38.45,43.05-56.64,72.6l-1.74,2.83ZM540.93,162.83v408.52c0,5.86.72,11.67,2.15,17.31,17.63-28.24,36.08-51.72,54.85-69.84V162.83h-57Z" fill="#101727"/><path d="M838.91,583.72l-.62.5c-9.34,7.57-22.27,8.91-32.97,3.43l-.71-.37-6.94-3.56h41.24Z" fill="#587a51"/><path d="M819.17,592.49c-4.96,0-9.94-1.15-14.53-3.5l-.72-.38-12.46-6.39h51.7l-3.93,3.17c-5.79,4.69-12.9,7.1-20.07,7.1ZM803.88,585.22l2.13,1.1c9.04,4.63,19.77,4.13,28.27-1.1h-30.41Z" fill="#101727"/><polygon points="1091.34 583.72 1091.34 643.72 881.06 643.72 959.94 591.54 971.76 583.72 1091.34 583.72" fill="#587a51"/><path d="M1092.84,645.22h-216.76l95.24-63h121.53v63ZM886.05,642.22h203.79v-57h-117.62l-86.17,57Z" fill="#101727"/><polyline points="1164.36 643.72 852.63 643.72 852.63 583.72 1164.36 583.72" fill="#587a51"/><polygon points="1164.36 645.22 851.13 645.22 851.13 582.22 1164.36 582.22 1164.36 585.22 854.13 585.22 854.13 642.22 1164.36 642.22 1164.36 645.22" fill="#101727"/><polygon points="800.08 777.61 595.86 833.53 496.72 797.87 709.92 658.76 800.08 777.61" fill="#01654d"/><path d="M497.66,816.39l-23.72,57.68,72.66,36.71,71.07.44s19.08-41.38-45.77-41.91c-1.4-12.68,14.13-16.71,14.13-16.71l-88.37-36.2Z" fill="#e9e1ce"/><path d="M619.63,912.27h-73.39l-74.23-37.5,28.3-67.09,84.88,43.78-2.09,1.42c-.08.06-8.06,5.6-10.4,14.95,22.93.46,38.13,6.12,45.19,16.81,8.04,12.17,2.36,26.12,2.12,26.71l-.38.92ZM546.96,909.27h70.62c1.05-3.16,3.86-13.86-2.2-23.01-6.67-10.07-21.65-15.28-44.52-15.47h-1.75s.29-1.74.29-1.74c1.42-8.63,7.09-14.55,10.11-17.16l-77.69-40.07-25.95,61.53,71.09,35.91Z" fill="#101727"/><polygon points="484.34 810 593.71 862.42 611.99 833.46 495.45 777.61 484.34 810" fill="#01654d"/><rect x="552.58" y="738.86" width="3" height="133.7" transform="translate(-411.96 957.17) rotate(-64.39)" fill="#101727"/><rect x="538.25" y="775.11" width="3" height="122.89" transform="translate(-447.92 961.75) rotate(-64.39)" fill="#101727"/><path d="M809.58,407.83l-88.92,20.26-19.11,4.35v-.06s-.02-.02-.02-.02l-8.08-35.47c-5.51-24.19,9.64-48.28,33.83-53.79l18.07-4.12,2.35-.53c24.19-5.51,48.27,9.64,53.78,33.83l5.95,26.13,2.14,9.36h0s.01.04.01.06Z" fill="#e8bd51"/><path d="M701.54,432.38h0s136.49-31.09,136.49-31.09c2.59-.59,4.21-3.16,3.62-5.75h0c-.59-2.59-3.16-4.21-5.75-3.62l-57.85,13.18" fill="#e8bd51"/><path d="M701.87,433.85l-.67-2.93,136.49-31.09c.86-.2,1.59-.71,2.06-1.46s.62-1.63.42-2.49c-.2-.86-.72-1.59-1.46-2.06-.75-.47-1.63-.62-2.49-.42l-57.85,13.18-.67-2.93,57.85-13.18c1.64-.37,3.33-.09,4.76.81,1.43.9,2.42,2.29,2.79,3.94.37,1.64.09,3.33-.81,4.76-.9,1.42-2.29,2.42-3.94,2.79l-136.49,31.09Z" fill="#101727"/><path d="M711.18,463.29c-3.73.32-8.36.53-12.92-.2-6.14-.97-12.15-3.64-15.66-9.98-6.79-12.27,6.12-26.24,18.91-20.74l-.36.08c1.94,8.46,4.27,16.14,6.9,23.12,1,2.68,2.05,5.25,3.13,7.72Z" fill="#e9e1ce"/><path d="M705.02,465.08c-2.22,0-4.62-.13-7-.51-7.85-1.24-13.48-4.85-16.74-10.74-3.38-6.11-2.5-13.45,2.25-18.69,4.8-5.31,12.09-6.94,18.57-4.15l4.26,1.83-3.41.76c1.79,7.55,3.98,14.76,6.5,21.46.94,2.52,1.98,5.09,3.1,7.65l.84,1.92-2.08.18c-1.73.15-3.91.3-6.29.3ZM695.68,432.66c-3.68,0-7.26,1.56-9.92,4.5-3.08,3.4-5.19,9.19-1.85,15.23,2.83,5.1,7.59,8.12,14.58,9.23,3.69.59,7.48.53,10.48.34-.83-1.96-1.61-3.92-2.33-5.86-2.67-7.09-4.97-14.75-6.83-22.77-1.36-.45-2.76-.67-4.14-.67Z" fill="#101727"/><polygon points="701.54 433.88 700.87 433.73 701.51 432.41 701.51 430.87 702.18 431.03 701.54 432.35 701.54 433.88" fill="#101727"/><path d="M711.4,464.78l-.45-2.97c.15-.02.3-.04.46-.05l.78-.07.24,2.99-.74.07c-.11,0-.2.02-.28.03Z" fill="#101727"/><path d="M812.74,459.92c-.18,1.61-.38,3.18-.62,4.72-4.1,27.46-16.01,44.28-21.79,52.44l-.47.66c-3.34,4.72-8.5,7.42-13.9,7.74-.24.02-.48.02-.72.02-.35.02-.71.01-1.06,0-2.81-.11-5.63-.86-8.25-2.33l-.57-.31c-3.82-2.12-9.42-5.23-15.8-9.98-12.16-9.04-27.2-24.05-38.38-49.59-1.08-2.47-2.13-5.04-3.13-7.72-2.63-6.98-4.96-14.66-6.9-23.12l.36-.08h.02s.14-.04.14-.04h.02l18.94-4.33s.01.02.01.03c0,.02.01.03.02.05h0c6.15,20.49,22.67,36.16,45.99,43.68,17.03,5.5,33.18,1.45,42.04-6.93,1.6-1.5,2.96-3.15,4.05-4.91Z" fill="#101727"/><path d="M774.8,527.01c-.21,0-.44,0-.67-.01-3.17-.12-6.18-.97-8.94-2.52l-.55-.3c-3.79-2.11-9.51-5.28-15.98-10.09-16.61-12.35-29.68-29.24-38.86-50.19-1.14-2.6-2.2-5.23-3.16-7.8-2.73-7.25-5.07-15.09-6.96-23.31l-.34-1.47,2.17-.48,20.61-4.71.03,1.75c6.09,20,22.04,35.08,44.95,42.46,15.2,4.91,31.12,2.32,40.55-6.59,1.51-1.41,2.78-2.96,3.81-4.61l3.51-5.66-.74,6.62c-.2,1.79-.41,3.35-.63,4.78-4.15,27.81-16.24,44.88-22.05,53.08l-.47.66c-3.51,4.96-8.99,8.01-15.03,8.37-.25.02-.53.02-.81.02-.13,0-.28.01-.44.01ZM702.96,433.58c1.79,7.55,3.98,14.77,6.5,21.46.94,2.52,1.98,5.09,3.1,7.65,8.96,20.47,21.71,36.95,37.9,48.99,6.31,4.7,11.92,7.81,15.63,9.87l.56.3c2.36,1.33,4.91,2.04,7.59,2.15.29,0,.61.02.91,0,.29,0,.49,0,.69-.02,5.16-.31,9.82-2.9,12.8-7.11l.47-.66c5.62-7.94,17.27-24.39,21.42-51.08-.26.27-.53.53-.81.79-10.21,9.65-27.29,12.51-43.53,7.26-23.48-7.57-39.97-22.96-46.58-43.42l-16.66,3.81Z" fill="#101727"/><path d="M759.73,346.31c-9.83-8.02-21.55-5.61-21.67-5.58l-.64-2.93c.53-.12,13.22-2.77,24.2,6.19l-1.9,2.32Z" fill="#101727"/><path d="M749.59,512.96l-12.21,26.39-55.02-64-.03-.03,15.93-12.23c4.56.73,9.19.52,12.92.2,11.18,25.54,26.22,40.55,38.38,49.59l.03.08Z" fill="#e9e1ce"/><path d="M737.76,542.1l-56.5-65.73-1.16-1.17,1.32-1.07,16.44-12.62.64.1c4.61.74,9.37.46,12.55.19l1.07-.09.43.99c8.96,20.47,21.71,36.95,37.9,48.99l.35.26.38,1-.23.65-13.19,28.51ZM684.51,475.55l52.49,61.06,10.74-23.22c-15.91-12.09-28.52-28.4-37.5-48.52-3.13.24-7.35.39-11.57-.2l-14.16,10.87Z" fill="#101727"/><path d="M752.74,517.11l-4.07-3.02c-16.61-12.35-29.69-29.24-38.86-50.19l2.75-1.2c8.18,18.7,19.53,34.06,33.76,45.75l-23.21-62.54-14.11,10.84-1.88-2.34.31-.25,17.08-13.11,28.24,76.07Z" fill="#101727"/><path d="M767.35,565.16c-.26-.52-5.9-11.7-13.83-19.25-4.75-4.53-10.31-7.75-16.04-6.58h-.02s-.05.01-.08.02l12.21-26.39,17.76,52.2Z" fill="#e9e1ce"/><path d="M767.35,566.66c-.55,0-1.08-.31-1.34-.83-.23-.46-5.79-11.47-13.52-18.83-5.27-5.03-10.22-7.11-14.71-6.2-.02,0-.03,0-.05,0-.54.13-1.1-.04-1.47-.46-.4-.45-.49-1.08-.24-1.63l12.21-26.39c.26-.56.83-.9,1.44-.87.61.03,1.14.43,1.34,1.01l17.76,52.2c.25.75-.11,1.56-.84,1.87-.19.08-.38.12-.58.12ZM739.89,537.59c4.7,0,9.62,2.42,14.67,7.24,2.66,2.53,5.06,5.46,7.11,8.27l-12.28-36.1-9.53,20.59h.04Z" fill="#101727"/><path d="M758.52,563.64l-17.63-9.04c-.99-9.57-3.16-14.3-3.29-14.59l-.12-.68c5.73-1.17,11.29,2.05,16.04,6.58.76,3.4,2.95,10.57,5,17.73Z" fill="#e9e1ce"/><path d="M758.52,565.14c-.23,0-.47-.05-.68-.17l-17.63-9.04c-.45-.23-.76-.68-.81-1.18-.91-8.76-2.79-13.3-3.16-14.12-.05-.11-.09-.25-.12-.37l-.12-.68c-.14-.8.38-1.57,1.18-1.73,5.5-1.12,11.35,1.22,17.38,6.96.21.21.36.47.43.76.53,2.35,1.75,6.55,3.17,11.41.59,2.02,1.2,4.13,1.81,6.24.16.58-.03,1.19-.49,1.57-.27.22-.61.34-.95.34ZM742.3,553.64l13.82,7.09c-.28-.98-.57-1.94-.84-2.89-1.35-4.62-2.52-8.64-3.11-11.14-4.5-4.2-8.77-6.22-12.71-6.09.75,2.02,2.08,6.33,2.84,13.04Z" fill="#101727"/><polygon points="766.01 565.84 766 565.82 768.7 564.5 766.01 565.84" fill="#101727"/><rect x="765.47" y="360.07" width="16.9" height="6.65" transform="translate(270.71 1054.6) rotate(-79.1)" fill="#01654d"/><path d="M779.56,373.17c-2.49,9.59-7.45,13.72-10.55,15.74-2.14-3.05-5.21-8.77-3.87-18.73-.26-.12-.52-.23-.78-.36-1.97-.96-3.75-2.04-5.37-3.22-3.08,16.09,3.29,24.47,5.69,27.63l.1.13c.46.61,1.04,1.07,1.68,1.39,1.38.67,3.05.64,4.45-.2l.17-.1c3.41-2.05,12.47-7.48,15.58-23.52-2.25.71-4.63,1.15-7.1,1.26Z" fill="#fff"/><polygon points="736.5 541.04 736.49 541.03 738.69 538.98 736.5 541.04" fill="#101727"/><path d="M784.38,496.36c-.64,0-1.29-.03-1.96-.09-6.36-.59-12.22-5.24-11.84-9.38h0c.08-.86.42-1.49,1-1.87,1.21-.79,2.96-.21,5.37.6,1.89.63,4.03,1.34,6.31,1.56,1.96.18,3.83.1,5.47.02,2.69-.12,4.64-.21,5.71.91.51.54.73,1.27.64,2.17-.33,3.58-4.89,6.07-10.71,6.07ZM772.98,486.63c-.14,0-.24.02-.31.06-.01,0-.08.11-.1.38h0c-.25,2.74,4.42,6.68,10.03,7.2,5.43.51,10.24-1.41,10.5-4.17.02-.21.02-.48-.1-.61-.44-.46-2.42-.37-4.17-.29-1.71.08-3.65.17-5.75-.03-2.51-.23-4.87-1.02-6.76-1.65-1.15-.38-2.65-.88-3.34-.88Z" fill="#e9e1ce"/><path d="M734.64,729.19c-6.72,0-13.47-2.38-18.94-7.21l-14.79-13.2,2-2.24,14.78,13.19c10.47,9.23,26.15,8.47,35.68-1.75l12.9-13.83,2.19,2.05-12.9,13.83c-5.67,6.07-13.28,9.16-20.92,9.16Z" fill="#101727"/><path d="M777.44,441.91c-.1,2.72-2.38,4.83-5.1,4.73-2.71-.1-4.83-2.39-4.73-5.1.1-2.72,2.39-4.83,5.1-4.73,2.72.1,4.84,2.39,4.73,5.1Z" fill="#e9e1ce"/><path d="M772.53,448.15c-.08,0-.16,0-.24,0-3.54-.13-6.3-3.12-6.17-6.66.06-1.71.79-3.3,2.05-4.47,1.26-1.16,2.89-1.77,4.6-1.71,1.72.06,3.31.79,4.47,2.05,1.17,1.26,1.77,2.89,1.7,4.61-.13,3.45-2.98,6.17-6.42,6.17ZM772.53,438.31c-.87,0-1.69.32-2.32.91-.67.62-1.06,1.46-1.09,2.38-.07,1.89,1.4,3.48,3.29,3.55,1.88.1,3.48-1.41,3.55-3.29h0c.04-.91-.28-1.78-.9-2.45-.62-.67-1.47-1.06-2.38-1.09-.04,0-.09,0-.13,0Z" fill="#101727"/><path d="M775.24,527c-.23,0-.49,0-.72-.01-3.14-.12-6.14-.97-8.91-2.52l-.55-.3c-3.93-2.18-9.85-5.47-16.56-10.52l-.6-.46c-16.06-12.26-28.74-28.86-37.7-49.33-1.16-2.65-2.25-5.34-3.24-8.01-2.69-7.19-5-14.96-6.87-23.07l-.34-1.46,111.32-25.41v3.13s-1.16.27-1.16.27l-87.33,19.9c6.38,19.34,22.13,33.92,44.53,41.14,13.99,4.52,28.58,2.69,38.17-4.58-2.45-.66-5.44-1.96-8.66-4.47l-.4-.31-8.62-32.68c-.02-.08-.05-.17-.07-.25l2.9-.76.07.25c3.4,12.75,11.95,23.62,23.49,29.83l.88.47-.1,1c-.21,2.1-.46,4.1-.74,5.94-4.14,27.88-16.25,44.96-22.07,53.17l-.46.65c-3.62,5.11-9.26,8.17-15.48,8.39-.21.02-.49.02-.77.02ZM775.24,524c.2,0,.4,0,.6-.01,5.34-.2,10.13-2.79,13.21-7.13l.46-.65c5.66-7.98,17.4-24.55,21.49-51.49l-1.28,1.21c-10.21,9.66-27.3,12.51-43.53,7.27-23.45-7.56-39.93-22.92-46.55-43.34l-16.28,3.72c1.77,7.45,3.93,14.59,6.41,21.23.97,2.62,2.04,5.26,3.18,7.85,8.86,20.25,21.43,36.6,37.36,48.59l.6.46c6.29,4.68,11.87,7.77,15.6,9.84l.56.3c2.37,1.33,4.92,2.05,7.59,2.15.2,0,.41,0,.59,0ZM798.86,459.22c3.23,2.42,6.74,3.87,9.94,4.11l2.37.18c.18-1.27.35-2.61.5-4-6.74-3.81-12.47-9.12-16.81-15.44l4,15.15Z" fill="#101727"/><path d="M813.27,458.68c1.46-14.26.78-31.13-3.69-50.85l-88.92,20.26c6.15,20.48,22.67,36.15,45.99,43.67,17.03,5.5,42.04-6.93,42.04-6.93,0,0,1.76-.86,4.58-6.15ZM772.34,446.64c-2.71-.1-4.83-2.39-4.73-5.1.1-2.72,2.39-4.83,5.1-4.73,2.72.1,4.84,2.39,4.73,5.1-.1,2.72-2.38,4.83-5.1,4.73ZM798.34,432.52c.1-2.71,2.39-4.83,5.1-4.73,2.72.11,4.83,2.39,4.73,5.11-.1,2.71-2.39,4.83-5.1,4.73-2.72-.11-4.83-2.39-4.73-5.11Z" fill="#e9e1ce"/><path d="M776.55,474.68c-3.57,0-7.1-.43-10.36-1.48-23.96-7.73-40.64-23.59-46.97-44.67l-.46-1.54,91.95-20.95.33,1.46c4.1,18.1,5.35,35.37,3.72,51.33l-.03.29-.14.26c-2.91,5.44-4.88,6.61-5.24,6.79-.84.42-17.31,8.5-32.8,8.5ZM722.58,429.2c6.38,19.34,22.13,33.92,44.53,41.14,16.24,5.25,40.65-6.72,40.91-6.85,0,0,0,0,0,0,0,0,1.45-.95,3.79-5.25,1.51-15.13.38-31.47-3.36-48.6l-85.86,19.56ZM772.53,448.15c-.08,0-.16,0-.24,0h0c-3.53-.13-6.3-3.12-6.17-6.66.06-1.71.79-3.3,2.05-4.47,1.26-1.16,2.89-1.77,4.6-1.71,1.72.06,3.31.79,4.47,2.05,1.17,1.26,1.77,2.89,1.7,4.61-.13,3.45-2.98,6.17-6.42,6.17ZM772.4,445.14c1.89.12,3.48-1.41,3.55-3.29.04-.91-.28-1.78-.9-2.45-.62-.67-1.47-1.06-2.38-1.09-.91-.04-1.78.29-2.45.91-.67.62-1.06,1.46-1.09,2.38-.07,1.89,1.4,3.48,3.29,3.55h0ZM803.26,439.14c-.08,0-.16,0-.24,0-3.54-.14-6.3-3.13-6.17-6.66h0c.13-3.54,3.11-6.31,6.65-6.17,3.54.14,6.3,3.13,6.17,6.66-.13,3.46-2.98,6.18-6.42,6.18ZM799.84,432.58h0c-.07,1.88,1.41,3.48,3.29,3.56,1.89.07,3.47-1.41,3.54-3.29.07-1.88-1.41-3.48-3.29-3.56-1.88-.08-3.47,1.4-3.54,3.29Z" fill="#101727"/><path d="M808.17,432.9c-.1,2.71-2.39,4.83-5.1,4.73-2.72-.11-4.83-2.39-4.73-5.11.1-2.71,2.39-4.83,5.1-4.73,2.72.11,4.83,2.39,4.73,5.11Z" fill="#e9e1ce"/><path d="M803.26,439.14c-.08,0-.16,0-.24,0-3.54-.14-6.3-3.13-6.17-6.66.13-3.54,3.11-6.31,6.65-6.17,3.54.14,6.3,3.13,6.17,6.66h0c-.13,3.46-2.98,6.18-6.42,6.18ZM803.25,429.29c-1.82,0-3.35,1.45-3.41,3.29-.07,1.88,1.41,3.48,3.29,3.56,1.87.09,3.47-1.41,3.54-3.29h0c.07-1.88-1.41-3.48-3.29-3.56-.04,0-.08,0-.13,0Z" fill="#101727"/><path d="M786.61,429.42c4.71,12.19,14.59,22.85,27.64,28.08.02,0,.05.02.07.03,4.09,1.64,3.34,4.53-.14,5.87-.13.06-.26.11-.41.15-.96.33-2.1.54-3.39.58-3.19.12-7.25-.78-11.61-3.44" fill="#e9e1ce"/><path d="M809.81,465.64c-2.78,0-6.94-.69-11.82-3.67l1.56-2.56c3.6,2.2,7.43,3.36,10.77,3.22,1.08-.03,2.1-.2,2.96-.5l.12-.04c.06-.01.1-.04.15-.06,1.51-.58,2.04-1.3,2.04-1.65,0-.36-.57-.96-1.84-1.47l-.1-.04h0c-13.05-5.26-23.39-15.79-28.46-28.92l2.8-1.08c4.79,12.4,14.56,22.32,26.8,27.22l.1.04c3.23,1.29,3.71,3.22,3.7,4.26-.01,1.82-1.46,3.46-3.88,4.39-.17.07-.33.13-.51.18-1.14.39-2.42.6-3.78.64-.2,0-.41.01-.62.01Z" fill="#101727"/><path d="M804.63,672.7l-3.44,105.45-1.39,42.59-.57,17.41-.26,7.99h-103.01l-1.3-26.26-.65-13.23-.66-13.28-2.11-42.73-12.99,3.07-37.9,8.96-14.47,3.42c-1.36.32-2.7.6-4.06.85-.02.01-.03.01-.04.01-14.35,2.66-28.67,1.48-41.81-2.91-6.4-2.13-12.51-5.03-18.21-8.62-15.3-9.62-27.57-24.21-34.17-42.33l-7.46-20.49-6.91-18.97,235.48-28.02,55.93,27.09Z" fill="#01654d"/><path d="M703.1,848.36l1.29,61.77,132.04,1.08s19.08-41.38-45.77-41.91c-1.4-12.68,1.18-21,1.18-21l-88.74.06Z" fill="#e9e1ce"/><path d="M839.04,912.27h-137.44v-65.41l92.17-.07-.48,1.87c-.03.1-2.44,9.73-1.32,19.15,23.18.39,38.5,6.03,45.54,16.78,7.98,12.19,2.17,26.18,1.92,26.77l-.39.91ZM704.6,909.27h132.41c1.07-3.16,4-13.89-2.02-23.06-6.59-10.04-21.51-15.23-44.34-15.42h-1.28s-.19-1.27-.19-1.27c-1.23-7.98.07-16.14.79-19.73l-85.37.06v59.41Z" fill="#101727"/><polygon points="687.33 853.83 808.61 854.83 812.86 820.85 683.64 819.79 687.33 853.83" fill="#01654d"/><rect x="745.9" y="754.85" width="3" height="130.94" transform="translate(-79.02 1560.96) rotate(-89.53)" fill="#101727"/><rect x="745.5" y="792.71" width="3" height="123.23" transform="translate(-113.43 1594.29) rotate(-89.53)" fill="#101727"/><path d="M694.47,818.66l-4.59-66c-51.47,16.32-92.05,23.72-122.62,7.43-23.86-12.71-41.09-39.78-54.25-85.17l2.88-.84c12.91,44.56,29.69,71.05,52.78,83.36,29.99,15.99,70.51,8.27,122.11-8.22l1.82-.58,4.86,69.81-2.99.21Z" fill="#101727"/><rect x="136.13" y="909.27" width="978.03" height="3" fill="#101727"/><path d="M567.57,846.83h-61.63c-39.91,0-72.38-32.47-72.38-72.37v-115.35c0-6.82-5.55-12.37-12.37-12.37h-234.14v-60h234.14c39.91,0,72.37,32.47,72.37,72.37v115.35c0,6.82,5.55,12.37,12.38,12.37h61.63c6.82,0,12.37-5.55,12.37-12.37v-8.67c0-39.91,32.47-72.37,72.38-72.37h23.19c39.91,0,72.37,32.47,72.37,72.37,0,6.82,5.55,12.38,12.38,12.38h387.58v60h-387.58c-39.91,0-72.38-32.47-72.38-72.38,0-6.82-5.55-12.37-12.37-12.37h-23.19c-6.82,0-12.38,5.55-12.38,12.37v8.67c0,39.91-32.47,72.37-72.37,72.37Z" fill="#a99e53"/><path d="M567.57,848.33h-61.63c-40.73,0-73.88-33.14-73.88-73.87v-115.35c0-6-4.88-10.87-10.87-10.87h-235.64v-63h235.64c40.73,0,73.87,33.14,73.87,73.87v115.35c0,6,4.88,10.87,10.88,10.87h61.63c6,0,10.87-4.88,10.87-10.87v-8.67c0-40.73,33.14-73.87,73.88-73.87h23.19c40.73,0,73.87,33.14,73.87,73.87,0,6,4.88,10.88,10.88,10.88h389.08v63h-389.08c-40.73,0-73.88-33.14-73.88-73.88,0-6-4.88-10.87-10.87-10.87h-23.19c-6,0-10.88,4.88-10.88,10.87v8.67c0,40.73-33.14,73.87-73.87,73.87ZM188.55,645.23h232.64c7.65,0,13.87,6.22,13.87,13.87v115.35c0,39.08,31.79,70.87,70.88,70.87h61.63c39.08,0,70.87-31.79,70.87-70.87v-8.67c0-7.65,6.22-13.87,13.88-13.87h23.19c7.65,0,13.87,6.22,13.87,13.87,0,39.08,31.79,70.88,70.88,70.88h386.08v-57h-386.08c-7.65,0-13.88-6.22-13.88-13.88,0-39.08-31.79-70.87-70.87-70.87h-23.19c-39.08,0-70.88,31.79-70.88,70.87v8.67c0,7.65-6.22,13.87-13.87,13.87h-61.63c-7.65,0-13.88-6.22-13.88-13.87v-115.35c0-39.08-31.79-70.87-70.87-70.87h-232.64v57Z" fill="#101727"/><polyline points="1164.36 838.16 784.41 838.16 784.41 778.16 1164.36 778.16" fill="#a99e53"/><polygon points="1164.36 839.66 782.91 839.66 782.91 776.66 1164.36 776.66 1164.36 779.66 785.91 779.66 785.91 836.66 1164.36 836.66 1164.36 839.66" fill="#101727"/><path d="M1091.8,459.96h-172.07c-39.91,0-72.38-32.47-72.38-72.38V107.61h60v279.97c0,6.82,5.55,12.38,12.38,12.38h172.07v60Z" fill="#a99e53"/><path d="M1093.3,461.46h-173.57c-40.73,0-73.88-33.14-73.88-73.88V106.11h63v281.47c0,6,4.88,10.88,10.88,10.88h173.57v63ZM848.86,109.11v278.47c0,39.08,31.79,70.88,70.88,70.88h170.57v-57h-170.57c-7.65,0-13.88-6.22-13.88-13.88V109.11h-57Z" fill="#101727"/><path d="M397.54,442.36h-200.24v-60h200.24c6.82,0,12.37-5.55,12.37-12.37v-48.32c0-6.82-5.55-12.38-12.37-12.38h-200.24v-60h200.24c39.91,0,72.37,32.47,72.37,72.38v48.32c0,39.91-32.47,72.37-72.37,72.37Z" fill="#397050"/><path d="M397.54,443.86h-201.74v-63h201.74c6,0,10.87-4.88,10.87-10.87v-48.32c0-6-4.88-10.88-10.87-10.88h-201.74v-63h201.74c40.73,0,73.87,33.14,73.87,73.88v48.32c0,40.73-33.14,73.87-73.87,73.87ZM198.79,440.86h198.74c39.08,0,70.87-31.79,70.87-70.87v-48.32c0-39.08-31.79-70.88-70.87-70.88h-198.74v57h198.74c7.65,0,13.87,6.22,13.87,13.88v48.32c0,7.65-6.22,13.87-13.87,13.87h-198.74v57Z" fill="#101727"/><rect x="366.21" y="241.12" width="22.29" height="76.34" fill="#397050"/><path d="M390,318.96h-25.29v-79.34h25.29v79.34ZM367.71,315.96h19.29v-73.34h-19.29v73.34Z" fill="#101727"/><rect x="366.21" y="372.84" width="22.29" height="76.34" fill="#397050"/><path d="M390,450.69h-25.29v-79.34h25.29v79.34ZM367.71,447.69h19.29v-73.34h-19.29v73.34Z" fill="#101727"/><rect x="388.5" y="579.97" width="22.29" height="76.34" fill="#a99e53"/><path d="M412.3,657.81h-25.29v-79.34h25.29v79.34ZM390,654.81h19.29v-73.34h-19.29v73.34Z" fill="#101727"/><rect x="451.35" y="655.28" width="22.29" height="76.34" transform="translate(1155.95 230.96) rotate(90)" fill="#a99e53"/><path d="M502.16,706.1h-79.34v-25.29h79.34v25.29ZM425.82,703.1h73.34v-19.29h-73.34v19.29Z" fill="#101727"/><rect x="868.8" y="316.29" width="22.29" height="76.34" transform="translate(1234.41 -525.48) rotate(90)" fill="#a99e53"/><path d="M919.61,367.11h-79.34v-25.29h79.34v25.29ZM843.27,364.11h73.34v-19.29h-73.34v19.29Z" fill="#101727"/><rect x="950.42" y="388.68" width="22.29" height="71.57" fill="#a99e53"/><path d="M974.22,461.74h-25.29v-74.57h25.29v74.57ZM951.92,458.74h19.29v-68.57h-19.29v68.57Z" fill="#101727"/><rect x="451.35" y="723.64" width="22.29" height="76.34" transform="translate(1224.31 299.32) rotate(90)" fill="#a99e53"/><path d="M502.16,774.46h-79.34v-25.29h79.34v25.29ZM425.82,771.46h73.34v-19.29h-73.34v19.29Z" fill="#101727"/><rect x="550" y="778.21" width="22.29" height="76.34" transform="translate(1122.29 1632.77) rotate(180)" fill="#a99e53"/><path d="M573.79,856.06h-25.29v-79.34h25.29v79.34ZM551.5,853.06h19.29v-73.34h-19.29v73.34Z" fill="#101727"/><rect x="762.12" y="768.16" width="22.29" height="76.34" transform="translate(1546.53 1612.66) rotate(180)" fill="#a99e53"/><path d="M785.91,846h-25.29v-79.34h25.29v79.34ZM763.62,843h19.29v-73.34h-19.29v73.34Z" fill="#101727"/><rect x="911.92" y="708.35" width="22.29" height="76.34" transform="translate(176.54 1669.59) rotate(-90)" fill="#a99e53"/><path d="M962.73,759.17h-79.34v-25.29h79.34v25.29ZM886.39,756.17h73.34v-19.29h-73.34v19.29Z" fill="#101727"/><path d="M962.63,778.16c11.1,0-89.94,0-79.18,0s11.34-20.49,11.34-20.49h56.5s.24,20.49,11.34,20.49Z" fill="#a99e53"/><path d="M963.48,779.66h-80.83v-3h.8c9.18,0,9.83-18.84,9.84-19.03l.04-1.46h59.44s.02,1.48.02,1.48c0,.19.35,19.01,9.84,19.01h.85v3ZM890.27,776.66h65.39c-4.59-4.76-5.59-13.89-5.81-17.49h-53.64c-.27,3.58-1.39,12.72-5.94,17.49Z" fill="#101727"/><rect x="916.36" y="718.61" width="13.4" height="16.76" fill="#397050"/><path d="M931.26,736.88h-16.4v-19.76h16.4v19.76ZM917.86,733.88h10.4v-13.76h-10.4v13.76Z" fill="#101727"/><rect x="889.53" y="707.52" width="67.06" height="13.26" rx="6.63" ry="6.63" fill="#e8bd51"/><path d="M949.96,722.28h-53.8c-4.48,0-8.13-3.65-8.13-8.13s3.65-8.13,8.13-8.13h53.8c4.48,0,8.13,3.65,8.13,8.13s-3.65,8.13-8.13,8.13ZM896.16,709.02c-2.83,0-5.13,2.3-5.13,5.13s2.3,5.13,5.13,5.13h53.8c2.83,0,5.13-2.3,5.13-5.13s-2.3-5.13-5.13-5.13h-53.8Z" fill="#101727"/><path d="M1001.32,652.74c0,6.9-5.59,12.48-12.48,12.48s-12.48-5.59-12.48-12.48,12.48-24.58,12.48-24.58c0,0,12.48,17.68,12.48,24.58Z" fill="#6aabd8"/><path d="M988.84,666.73c-7.71,0-13.98-6.27-13.98-13.98,0-7.17,11.45-23.59,12.76-25.44l1.23-1.74,1.23,1.74c1.31,1.85,12.76,18.28,12.76,25.44,0,7.71-6.27,13.98-13.98,13.98ZM988.84,630.81c-3.92,5.79-10.98,17.22-10.98,21.94,0,6.06,4.93,10.98,10.98,10.98s10.98-4.93,10.98-10.98c0-4.71-7.07-16.14-10.98-21.94Z" fill="#101727"/><path d="M1001.32,714.85c0,6.9-5.59,12.48-12.48,12.48s-12.48-5.59-12.48-12.48,12.48-24.58,12.48-24.58c0,0,12.48,17.68,12.48,24.58Z" fill="#6aabd8"/><path d="M988.84,728.84c-7.71,0-13.98-6.27-13.98-13.98,0-7.17,11.45-23.59,12.76-25.44l1.23-1.74,1.23,1.74c1.31,1.85,12.76,18.28,12.76,25.44,0,7.71-6.27,13.98-13.98,13.98ZM988.84,692.92c-3.92,5.79-10.98,17.22-10.98,21.94,0,6.06,4.93,10.98,10.98,10.98s10.98-4.93,10.98-10.98c0-4.71-7.07-16.14-10.98-21.94Z" fill="#101727"/><path d="M1001.32,776.96c0,6.9-5.59,12.48-12.48,12.48s-12.48-5.59-12.48-12.48,12.48-24.58,12.48-24.58c0,0,12.48,17.68,12.48,24.58Z" fill="#6aabd8"/><path d="M988.84,790.94c-7.71,0-13.98-6.27-13.98-13.98,0-7.17,11.45-23.59,12.76-25.44l1.23-1.74,1.23,1.74c1.31,1.85,12.76,18.28,12.76,25.44,0,7.71-6.27,13.98-13.98,13.98ZM988.84,755.02c-3.92,5.79-10.98,17.22-10.98,21.94,0,6.06,4.93,10.98,10.98,10.98s10.98-4.93,10.98-10.98c0-4.71-7.07-16.14-10.98-21.94Z" fill="#101727"/><path d="M1001.32,839.07c0,6.9-5.59,12.48-12.48,12.48s-12.48-5.59-12.48-12.48,12.48-24.58,12.48-24.58c0,0,12.48,17.68,12.48,24.58Z" fill="#6aabd8"/><path d="M988.84,853.05c-7.71,0-13.98-6.27-13.98-13.99,0-7.16,11.45-23.59,12.76-25.44l1.23-1.74,1.23,1.74c1.31,1.85,12.76,18.28,12.76,25.44,0,7.71-6.27,13.99-13.98,13.99ZM988.84,817.13c-3.92,5.79-10.98,17.22-10.98,21.94,0,6.06,4.93,10.99,10.98,10.99s10.98-4.93,10.98-10.99c0-4.71-7.07-16.14-10.98-21.94Z" fill="#101727"/><path d="M988.09,566.54v22.38c0,3.92-1.59,7.47-4.16,10.04-2.57,2.57-6.12,4.16-10.04,4.16-6.95,0-12.73-4.99-13.95-11.58l11.82-7.82,2.13-1.41c7.18-4.95,11.63-10.48,14.2-15.77Z" fill="#e8bd51"/><path d="M973.89,604.62c-7.56,0-14.05-5.39-15.43-12.81l-.18-.98,14.78-9.78c6.28-4.33,10.89-9.44,13.68-15.17l2.85-5.86v28.9c0,4.19-1.63,8.14-4.6,11.1-2.97,2.97-6.91,4.6-11.1,4.6ZM961.63,592.22c1.46,5.5,6.47,9.4,12.26,9.4,3.39,0,6.58-1.32,8.98-3.72s3.72-5.59,3.72-8.98v-16.87c-2.96,4.25-6.92,8.1-11.85,11.5l-13.11,8.67Z" fill="#101727"/><path d="M1011.75,459.96v.71c0,1.32-.11,2.62-.32,3.88-1.85,11.22-11.6,15.19-23.34,15.19v12.18l-28.4.95v-13.13c-11.75,0-21.5-3.97-23.34-15.19-.21-1.26-.32-2.56-.32-3.88v-26.04c0-9.77,5.93-18.17,14.39-21.77,2.85-1.22,5.98-1.89,9.27-1.89v48.99h52.06Z" fill="#e8bd51"/><path d="M958.19,494.42v-13.2c-13.57-.38-21.62-6.04-23.32-16.43-.23-1.35-.34-2.74-.34-4.12v-26.04c0-10.11,6.01-19.2,15.3-23.15,3.11-1.33,6.43-2.01,9.86-2.01h1.5v48.99h52.06v2.21c0,1.38-.11,2.77-.34,4.13-1.71,10.38-9.76,16.04-23.32,16.42v12.15l-31.4,1.05ZM958.19,412.52c-2.49.17-4.89.74-7.18,1.72-8.19,3.48-13.48,11.49-13.48,20.39v26.04c0,1.22.1,2.44.3,3.63,1.89,11.52,12.93,13.94,21.86,13.94h1.5v13.08l25.4-.85v-12.23h1.5c8.92,0,19.96-2.42,21.86-13.94.16-.94.25-1.89.29-2.85h-52.05v-48.94Z" fill="#101727"/><path d="M737.38,539.35c-4.22.9-7.62,4.21-10.26,8.18h-.01c-5.06,7.62-7.35,17.65-7.35,17.65l-11.41-27.27-25.97-62.06-.16-.38.14-.12,55.02,64Z" fill="#e9e1ce"/><path d="M720.18,570.07l-39.77-95.02,2.11-1.81,57.65,67.05-2.47.53c-3.33.71-6.47,3.25-9.32,7.54l-.4.61c-4.57,7.21-6.72,16.45-6.74,16.55l-1.04,4.55ZM687.04,483.09l32.44,77.54c1.18-3.71,3.26-9.22,6.38-13.93l.47-.67c2.56-3.66,5.39-6.15,8.44-7.42l-47.73-55.52Z" fill="#101727"/><path d="M740.89,554.6l-13.77-7.07c2.64-3.97,6.04-7.28,10.26-8.18.03-.01.05-.01.08-.02h.02l.12.68c.13.29,2.3,5.02,3.29,14.59Z" fill="#e9e1ce"/><path d="M742.67,557.2l-17.73-9.1.93-1.4c3.28-4.94,7.02-7.9,11.12-8.8l.21-.07h1.52l.33,1.74c.54,1.26,2.43,6.13,3.34,14.87l.28,2.75ZM729.34,546.99l9.72,4.99c-.83-5.91-2.05-9.44-2.6-10.81-2.51.89-4.89,2.84-7.12,5.82Z" fill="#101727"/><path d="M777.45,573.35c-4.52,1.1-9.6,3.47-14.6,7.08-.09.06-.19.13-.28.2-1.29.95-2.58,1.98-3.84,3.09-12.57,11.01-23.33,30.08-21.14,56.5l7.21,3.5,1.55.75-245.69,30.19s15.19-38.89,41.89-82.29h0c15.38-25,34.57-51.49,56.88-72.91,24.16-23.21,51.99-40.47,82.58-43.45l.37-.16,25.97,62.06,11.41,27.27s2.29-10.03,7.35-17.65h.01l13.77,7.07,17.63,9.04,18.93,9.71Z" fill="#e9e1ce"/><path d="M498.35,676.46l.91-2.34c.15-.39,15.46-39.29,41.79-82.17h0s.22-.37.22-.37c18.32-29.77,37.54-54.4,57.12-73.2,27.39-26.31,55.39-41.06,83.24-43.84l1.55-.67,36.3,86.76c1.18-3.71,3.26-9.22,6.38-13.93l.45-.67h1.17l.33.17,53.92,27.66-3.92.95c-4.54,1.11-9.41,3.47-14.08,6.84-.11.07-.18.12-.24.17-1.34.99-2.6,2-3.77,3.03-14.75,12.92-22.27,32.71-20.7,54.4l12.57,6.09-253.24,31.12ZM544.04,592.8l-.21.36c-22.62,36.77-37.1,70.66-40.82,79.7l238.11-29.26-4.95-2.41-.07-.85c-1.91-22.98,5.98-44.03,21.65-57.75,1.24-1.09,2.56-2.16,3.94-3.17.09-.07.22-.16.34-.24,3.73-2.7,7.64-4.8,11.45-6.18l-45.83-23.51c-4.35,7.13-6.4,15.94-6.42,16.03l-1.04,4.55-38.71-92.5c-27.02,2.83-54.26,17.28-81.01,42.97-19.32,18.55-38.3,42.86-56.43,72.26Z" fill="#101727"/><path d="M819.02,592.26c-5.15,0-10.33-1.2-15.09-3.64l1.37-2.67c10.59,5.43,23.42,4.1,32.67-3.39l1.89,2.33c-6.01,4.87-13.4,7.37-20.84,7.37Z" fill="#101727"/><path d="M707.67,539.25l-8.03-4.14c-12.83-9.54-29.16-13.04-44.78-9.59l-6.82,1.51-.65-2.93,6.82-1.51c16.44-3.63,33.6.03,47.12,10.04l7.71,3.95-1.37,2.67Z" fill="#101727"/><rect x="689.54" y="565.95" width="3" height="103.45" transform="translate(-166.08 970.4) rotate(-64.16)" fill="#101727"/><path d="M998.54,509.87c4.99,1.5,7.81,6.75,6.31,11.74s-6.75,7.81-11.74,6.31c4.99,1.5,7.81,6.76,6.31,11.74-1.3,4.35-5.46,7.05-9.81,6.69.9,1.77,1.54,4.43,1.54,7.62,0,3.66-.84,8.03-3.06,12.57-2.57,5.29-7.02,10.82-14.2,15.77l-2.13,1.41-11.82,7.82-78.88,52.18-42.59,28.17c-9.3,6.16-21.15,6.95-31.19,2.09l-2.65-1.28-55.93-27.09-2.34-1.14h-.01l-1.55-.75-7.21-3.5c-2.19-26.42,8.57-45.49,21.14-56.5,1.26-1.11,2.55-2.14,3.84-3.09.09-.07.19-.14.28-.2,5-3.61,10.08-5.98,14.6-7.08l20.22,10.37,6.94,3.56.71.37c10.7,5.48,23.63,4.14,32.97-3.43l.62-.5,77.86-63.07s32.61-27.42,40.9-27.71l2.02-.07,28.4-.95,11.75-.4c3.38-.52,7.19.8,10.02,4.7,3.43,9.15-4.22,15.78-11.32,13.65Z" fill="#e9e1ce"/><path d="M821.02,678.62c-4.92,0-9.85-1.09-14.39-3.29l-2.65-1.28-67.81-32.85-.07-.85c-1.91-22.98,5.98-44.03,21.65-57.75,1.24-1.09,2.56-2.16,3.94-3.17.09-.07.22-.16.34-.24,4.93-3.56,10.16-6.09,15.07-7.29l.54-.13,28.38,14.56c10.16,5.2,22.46,3.92,31.33-3.26l.62-.5,77.86-63.07c3.36-2.82,33.23-27.74,41.79-28.04l42.09-1.42c4.32-.63,8.46,1.3,11.37,5.32l.12.16.07.19c1.75,4.67,1,9.38-2.02,12.6-1.5,1.6-3.38,2.68-5.41,3.17,2.54,2.75,3.6,6.73,2.45,10.57-1.15,3.84-4.24,6.58-7.88,7.47.63.68,1.17,1.44,1.62,2.27,1.38,2.57,1.68,5.52.84,8.32-1.24,4.17-4.87,7.14-9.06,7.7.56,1.81.86,3.94.86,6.18,0,3.04-.56,7.8-3.21,13.23-3.01,6.2-7.96,11.7-14.7,16.35l-135.44,89.6c-5.48,3.63-11.87,5.48-18.28,5.48ZM746.7,642.97h0l2.66,1.29,58.58,28.37c9.52,4.61,20.9,3.84,29.71-1.99l135.42-89.58c6.28-4.33,10.89-9.44,13.68-15.17,2.4-4.92,2.91-9.19,2.91-11.91s-.5-5.22-1.38-6.94l-1.22-2.4,2.68.22c3.72.32,7.18-2.06,8.25-5.62.61-2.03.4-4.17-.61-6.04-1-1.87-2.67-3.23-4.7-3.84l.86-2.87c4.19,1.26,8.61-1.12,9.87-5.3,1.26-4.19-1.12-8.61-5.31-9.87l.86-2.87c2.91.87,6.01.04,8.08-2.18,2.21-2.37,2.74-5.75,1.47-9.31-2.24-2.99-5.31-4.41-8.46-3.94l-.18.02-42.17,1.42c-5.7.2-27.04,16.47-39.99,27.36l-78.5,63.59c-9.79,7.93-23.37,9.35-34.6,3.6l-.72-.38-26.65-13.67c-4.39,1.16-9.06,3.47-13.54,6.7-.11.07-.18.12-.24.17-1.34.99-2.6,2-3.77,3.03-14.75,12.92-22.27,32.71-20.7,54.4l7.67,3.72Z" fill="#101727"/><path d="M760.2,435.01l-3.43-2.05c3.09-5.17,8.5-8.61,14.85-9.43l.52,3.97c-5.13.67-9.48,3.41-11.93,7.52Z" fill="#101727"/><path d="M810.99,425.01c-2.93-2.57-7.13-3.62-11.52-2.89l-.66-3.95c5.58-.93,10.98.46,14.82,3.82l-2.64,3.01Z" fill="#101727"/><rect x="201.63" y="755.22" width="149.9" height="17.75" rx="8.87" ry="8.87" fill="#e9e1ce"/><path d="M342.66,774.46h-132.15c-5.72,0-10.37-4.65-10.37-10.37s4.65-10.37,10.37-10.37h132.15c5.72,0,10.37,4.65,10.37,10.37s-4.65,10.37-10.37,10.37ZM210.51,756.72c-4.07,0-7.37,3.31-7.37,7.37s3.31,7.37,7.37,7.37h132.15c4.07,0,7.37-3.31,7.37-7.37s-3.31-7.37-7.37-7.37h-132.15Z" fill="#101727"/><path d="M293.59,802.34l20.02,23.04,11.47-9.97-22.54-25.94-4.01-4.61c-3.29-3.79-9.03-4.19-12.82-.9l-4.61,4.01-25.94,22.54,9.97,11.47,23.04-20.02c1.6-1.39,4.03-1.22,5.42.38Z" fill="#a99e53"/><path d="M313.46,827.5l-21.01-24.18c-.85-.97-2.33-1.08-3.3-.23l-24.18,21.01-11.93-13.74,31.69-27.53c4.41-3.83,11.11-3.36,14.93,1.05l27.53,31.69-13.74,11.93ZM290.68,799.52c1.49,0,2.98.62,4.04,1.84l19.04,21.91,9.21-8-25.56-29.42c-2.74-3.16-7.54-3.5-10.7-.75l-29.42,25.56,8,9.21,21.91-19.04c1.01-.88,2.26-1.31,3.5-1.31Z" fill="#101727"/><rect x="290.89" y="799.41" width="24.6" height="5.02" transform="translate(1058.03 1208.4) rotate(139.01)" fill="#a99e53"/><path d="M295.41,814l-5.26-6.05,20.83-18.1,5.26,6.05-20.83,18.1ZM294.38,808.24l1.33,1.53,16.3-14.17-1.32-1.52-16.3,14.17Z" fill="#101727"/><rect x="263.94" y="799.77" width="24.6" height="5.02" transform="translate(700.68 67.55) rotate(49.01)" fill="#a99e53"/><path d="M282.27,815.33l-18.1-20.83,6.05-5.26,18.1,20.83-6.05,5.26ZM268.4,794.79l14.17,16.3,1.52-1.32-14.17-16.3-1.52,1.32Z" fill="#101727"/><path d="M251.17,784.75h0c6.36,0,11.53,5.17,11.53,11.53v34.59h-23.06v-34.59c0-6.36,5.17-11.53,11.53-11.53Z" transform="translate(-328.48 191.65) rotate(-25.98)" fill="#e8bd51"/><path d="M250.21,835.6l-15.81-32.45c-3.15-6.46-.45-14.27,6.01-17.42,6.46-3.15,14.27-.45,17.42,6.01l15.81,32.45-23.43,11.42ZM246.1,787.42c-1.47,0-2.97.33-4.38,1.01-4.97,2.42-7.05,8.44-4.62,13.41l14.5,29.75,18.03-8.79-14.5-29.75c-1.74-3.56-5.31-5.64-9.03-5.64Z" fill="#101727"/><path d="M203.06,806.72l-10.48-8.59,4.44-1.94.44-4.02,4.32-1.79.41-3.98,2.63-3.21-3.44-2.82c-1.89-1.55-4.67-1.27-6.22.62l-10.7,13.06c-1.55,1.89-1.27,4.67.62,6.22l22.11,18.12,17.31-21.13-8.19-6.71-13.24,16.17Z" fill="#a99e53"/><path d="M207.4,820.5l-23.27-19.07c-2.52-2.07-2.9-5.81-.83-8.33l10.7-13.06c2.07-2.53,5.81-2.9,8.33-.83l4.6,3.77-3.3,4.02-.46,4.42-4.32,1.79-.44,4-2.99,1.31,7.42,6.08,13.24-16.17,10.52,8.62-19.21,23.45ZM198.58,780.88c-.85,0-1.69.37-2.26,1.07l-10.7,13.06c-1.02,1.25-.84,3.09.41,4.11l20.95,17.17,15.41-18.81-5.87-4.81-13.24,16.17-13.54-11.09,5.89-2.58.44-4.04,4.31-1.79.37-3.54,1.97-2.4-2.28-1.87c-.54-.44-1.2-.66-1.85-.66Z" fill="#101727"/><path d="M213.83,811.25h5.93v23.12c0,1.64-1.33,2.96-2.96,2.96h0c-1.64,0-2.96-1.33-2.96-2.96v-23.12h0Z" transform="translate(-558.22 469.59) rotate(-50.67)" fill="#a99e53"/><path d="M224.59,835.14c-1,0-2-.33-2.82-1.01l-19.05-15.6,5.66-6.91,19.05,15.61c.92.76,1.5,1.83,1.61,3.01s-.23,2.35-.99,3.27c-.88,1.08-2.16,1.63-3.46,1.63ZM206.94,818.11l16.73,13.7c.62.51,1.55.42,2.06-.21h0c.25-.3.36-.68.32-1.07-.04-.39-.23-.74-.53-.99l-16.73-13.7-1.86,2.27Z" fill="#101727"/><path d="M222.87,798.54h17.54v41.83c0,1.64-1.33,2.96-2.96,2.96h-11.61c-1.64,0-2.96-1.33-2.96-2.96v-41.83h0Z" transform="translate(-550.19 479.84) rotate(-50.67)" fill="#587a51"/><path d="M242.99,842.21c-1,0-2-.33-2.82-1.01l-33.52-27.46,13.02-15.89,33.52,27.46c.92.75,1.5,1.83,1.61,3.01s-.23,2.35-.99,3.27l-7.36,8.98c-.88,1.08-2.17,1.63-3.46,1.63ZM210.87,813.32l31.2,25.56c.62.51,1.55.42,2.06-.21l7.36-8.98c.25-.3.36-.68.32-1.07-.04-.39-.23-.74-.53-.99l-31.2-25.56-9.21,11.25Z" fill="#101727"/><rect x="190.55" y="796.05" width="42.66" height="14.92" rx="4.61" ry="4.61" transform="translate(-543.94 458.18) rotate(-50.67)" fill="#e8bd51"/><path d="M203.48,824.36c-1.41,0-2.76-.48-3.86-1.38l-4.41-3.61c-2.61-2.13-2.99-5.99-.85-8.6l21.2-25.87c2.14-2.61,5.99-2.99,8.6-.85l4.41,3.61c1.26,1.03,2.05,2.5,2.21,4.12.16,1.62-.32,3.21-1.35,4.47l-21.2,25.87c-1.03,1.26-2.5,2.05-4.12,2.21-.21.02-.41.03-.61.03ZM220.28,785.66c-.9,0-1.79.39-2.41,1.14l-21.2,25.87c-1.09,1.33-.89,3.29.43,4.38l4.41,3.61c.64.53,1.45.77,2.28.69.83-.08,1.57-.48,2.1-1.12l21.2-25.87c.53-.64.77-1.45.69-2.28-.08-.83-.48-1.57-1.12-2.1l-4.41-3.61c-.58-.47-1.27-.7-1.97-.7Z" fill="#101727"/><path d="M395.35,910.77h-93.97v-104.09l38.62-58.81c3.95-6.02,12.78-6.02,16.73,0l38.62,58.81v104.09Z" fill="#e9e1ce"/><path d="M396.85,912.27h-96.97v-106.04l38.87-59.18c2.13-3.25,5.73-5.19,9.62-5.19s7.48,1.94,9.62,5.19l38.87,59.18v106.04ZM302.87,909.27h90.97v-102.14l-38.38-58.43c-1.58-2.4-4.24-3.84-7.11-3.84s-5.53,1.43-7.11,3.84l-38.38,58.43v102.14Z" fill="#101727"/><path d="M404.28,910.77h-93.97v-104.09l38.62-58.81c3.95-6.02,12.78-6.02,16.73,0l38.62,58.81v104.09Z" fill="#e9e1ce"/><path d="M405.78,912.27h-96.97v-106.04l38.87-59.18c2.13-3.25,5.73-5.19,9.62-5.19s7.48,1.94,9.62,5.19l38.87,59.18v106.04ZM311.81,909.27h90.97v-102.14l-38.38-58.43c-1.58-2.4-4.24-3.84-7.11-3.84s-5.53,1.43-7.11,3.84l-38.38,58.43v102.14Z" fill="#101727"/><rect x="160.7" y="808.07" width="140.67" height="102.7" fill="#e9e1ce"/><path d="M302.87,912.27h-143.67v-105.7h143.67v105.7ZM162.2,909.27h137.67v-99.7h-137.67v99.7Z" fill="#101727"/><rect x="301.37" y="805.18" width="8.94" height="3" fill="#101727"/><rect x="153.11" y="804.59" width="8.41" height="3" fill="#101727"/><rect x="228.6" y="873.59" width="64.46" height="18.1" rx="8.03" ry="8.03" transform="translate(130.66 -28.48) rotate(8.33)" fill="#01654d"/><rect x="262.38" y="877.07" width="1.95" height="4.95" transform="translate(-100.47 36.58) rotate(-6.68)" fill="#e8bd51"/><path d="M234.78,882.31c0,.74.41,1.23,1.27,1.36.75.11,1.34-.19,1.43-.81.07-.5-.15-.81-.71-1.05l-1.11-.48c-1.3-.54-1.95-1.31-1.77-2.56.21-1.43,1.56-2.14,3.11-1.91,1.68.25,2.48,1.36,2.43,2.74l-1.68-.25c.04-.49-.22-1.01-.91-1.11-.61-.09-1.07.18-1.14.7-.07.49.18.72.72.95l1.34.6c1.2.53,1.71,1.34,1.54,2.47-.23,1.55-1.85,2.34-3.45,2.1s-2.82-1.18-2.77-2.98l1.68.25Z" fill="#e9e1ce"/><path d="M242.29,885.8l-1.97-.29,1.72-11.74,1.97.29-.76,5.19c.56-.86,1.55-1.26,2.75-1.09,1.88.28,2.73,1.81,2.44,3.75l-.69,4.69-1.97-.29.64-4.36c.16-1.11-.22-2-1.39-2.17-1.07-.16-1.93.5-2.1,1.65l-.64,4.37Z" fill="#e9e1ce"/><path d="M249.69,882.9c.31-2.13,2.2-3.87,4.9-3.48,2.7.39,4.01,2.6,3.69,4.73s-2.2,3.86-4.89,3.46-4.01-2.6-3.7-4.72ZM251.62,883.18c-.19,1.27.49,2.57,2.01,2.79s2.54-.83,2.72-2.1-.49-2.58-2.01-2.81-2.54.84-2.73,2.11Z" fill="#e9e1ce"/><path d="M270.55,886.62c-.05,1.19.59,2.1,1.98,2.31.96.14,1.75-.18,2.22-.72l1.83.27c-.74,1.32-2.4,2.18-4.26,1.9-2.66-.39-3.96-2.39-3.61-4.72.35-2.37,2.31-3.84,4.72-3.49s3.86,2.31,3.5,4.72l-.09.64-6.28-.92ZM270.72,885.32l4.42.65c.05-1.23-.62-2.19-1.89-2.37s-2.18.48-2.53,1.73Z" fill="#e9e1ce"/><path d="M277.71,890.98l1.72-11.74,1.97.29-1.72,11.74-1.97-.29Z" fill="#e9e1ce"/><path d="M283.03,889.38c0,.74.41,1.23,1.27,1.36.75.11,1.34-.19,1.43-.81.07-.5-.15-.81-.71-1.05l-1.11-.48c-1.3-.54-1.95-1.31-1.77-2.56.21-1.43,1.56-2.14,3.11-1.91,1.68.25,2.48,1.36,2.43,2.74l-1.68-.25c.04-.49-.22-1.01-.91-1.11-.61-.09-1.07.18-1.14.7-.07.49.18.72.72.95l1.34.6c1.2.53,1.71,1.34,1.54,2.47-.23,1.55-1.85,2.34-3.45,2.1-1.63-.24-2.82-1.18-2.77-2.98l1.68.25Z" fill="#e9e1ce"/><path d="M265.79,881.79c.15,2.9-.87,4.49-1.56,5.33-.87-.66-2.23-1.99-2.74-4.89-.08-.01-.17-.02-.25-.03-.63-.09-1.23-.24-1.79-.43.56,4.77,3.09,6.55,4.04,7.22l.04.03c.18.13.39.21.59.24.44.07.91-.09,1.23-.45l.04-.04c.77-.87,2.82-3.19,2.27-7.95-.57.4-1.19.73-1.87.98Z" fill="#e9e1ce"/><path d="M922.83,897.98h132.02c6.84,0,12.4,5.55,12.4,12.4h-156.82c0-6.84,5.55-12.4,12.4-12.4Z" fill="#6aabd8"/><path d="M1068.75,911.87h-159.82v-1.5c0-7.66,6.23-13.9,13.9-13.9h132.02c7.66,0,13.9,6.23,13.9,13.9v1.5ZM912.03,908.87h153.61c-.73-5.3-5.29-9.4-10.79-9.4h-132.02c-5.5,0-10.06,4.09-10.79,9.4Z" fill="#101727"/><rect x="719.15" y="200.93" width="15.95" height="3" fill="#101727"/><rect x="722.53" y="193.1" width="17.95" height="3" transform="translate(204.51 737.96) rotate(-60.77)" fill="#101727"/><polyline points="135.64 586.73 388.5 586.73 388.5 646.73 135.64 646.73" fill="#a99e53"/><polygon points="390 648.23 135.64 648.23 135.64 645.23 387 645.23 387 588.23 135.64 588.23 135.64 585.23 390 585.23 390 648.23" fill="#101727"/><polyline points="1164.36 459.96 972.72 459.96 972.72 399.96 1164.36 399.96" fill="#a99e53"/><polygon points="1164.36 461.46 971.22 461.46 971.22 398.46 1164.36 398.46 1164.36 401.46 974.22 401.46 974.22 458.46 1164.36 458.46 1164.36 461.46" fill="#101727"/><polyline points="907.36 87.73 907.36 343.32 847.36 343.32 847.36 87.73" fill="#a99e53"/><polygon points="908.86 344.82 845.86 344.82 845.86 87.73 848.86 87.73 848.86 341.82 905.86 341.82 905.86 87.73 908.86 87.73 908.86 344.82" fill="#101727"/><polyline points="599.71 87.73 599.71 343.32 539.71 343.32 539.71 87.73" fill="#587a51"/><polygon points="601.21 344.82 538.21 344.82 538.21 87.73 541.21 87.73 541.21 341.82 598.21 341.82 598.21 87.73 601.21 87.73 601.21 344.82" fill="#101727"/><polyline points="135.64 249.29 366.21 249.29 366.21 309.29 135.64 309.29" fill="#397050"/><polygon points="367.71 310.79 135.64 310.79 135.64 307.79 364.71 307.79 364.71 250.79 135.64 250.79 135.64 247.79 367.71 247.79 367.71 310.79" fill="#101727"/><polyline points="135.64 382.09 366.21 382.09 366.21 442.09 135.64 442.09" fill="#397050"/><polygon points="367.71 443.59 135.64 443.59 135.64 440.59 364.71 440.59 364.71 383.59 135.64 383.59 135.64 380.59 367.71 380.59 367.71 443.59" fill="#101727"/><rect x="524.85" y="319.31" width="89.72" height="109.82" rx="23.01" ry="23.01" fill="#397050"/><path d="M591.57,430.63h-43.71c-13.51,0-24.51-10.99-24.51-24.51v-63.81c0-13.51,10.99-24.51,24.51-24.51h43.71c13.51,0,24.51,10.99,24.51,24.51v63.81c0,13.51-10.99,24.51-24.51,24.51ZM547.86,320.81c-11.86,0-21.51,9.65-21.51,21.51v63.81c0,11.86,9.65,21.51,21.51,21.51h43.71c11.86,0,21.51-9.65,21.51-21.51v-63.81c0-11.86-9.65-21.51-21.51-21.51h-43.71Z" fill="#101727"/><circle cx="569.71" cy="374.22" r="27.51" fill="#a99e53"/><path d="M569.71,403.23c-16,0-29.01-13.01-29.01-29.01s13.01-29.01,29.01-29.01,29.01,13.01,29.01,29.01-13.01,29.01-29.01,29.01ZM569.71,348.21c-14.34,0-26.01,11.67-26.01,26.01s11.67,26.01,26.01,26.01,26.01-11.67,26.01-26.01-11.67-26.01-26.01-26.01Z" fill="#101727"/><rect x="552.5" y="372.72" width="34.42" height="3" fill="#101727"/><rect x="563.65" y="362.22" width="3" height="13.73" transform="translate(-102.5 468.38) rotate(-41.61)" fill="#101727"/></svg>