<?xml version="1.0" encoding="utf-8"?>
<!-- Generator: Adobe Illustrator 19.0.0, SVG Export Plug-In . SVG Version: 6.00 Build 0)  -->
<svg version="1.1" id="layer" xmlns="http://www.w3.org/2000/svg" xmlns:xlink="http://www.w3.org/1999/xlink" x="0px" y="0px"
	 viewBox="-153 -46 652 652" style="enable-background:new -153 -46 652 652;" xml:space="preserve">
<style type="text/css">
	.st0{fill:#009FD9;}
	.st1{fill:#FFFFFF;}
</style>
<path class="st0" d="M-27.7,224.8l-48.8-17.3c-1.2-0.4-2.8-0.2-3.4,0l-48.8,17.3c-1.9,0.7-3.2,2.6-3.2,4.5v55.2
	c0,12.9,7.5,23.6,17.3,32.7c9.8,9.1,22.2,17,33.5,24.8c1.6,1.1,4,1.1,5.7,0c11.4-7.8,23.7-15.7,33.5-24.8
	c9.8-9.1,17.3-19.8,17.3-32.7v-55.2C-24.5,227.3-25.9,225.5-27.7,224.8z M-71.7,289.6c0,4.8-1.3,9.5-3.8,13.6l-2.7,4.6l-2.7-4.6
	c-2.5-4.1-3.8-8.8-3.8-13.6v-21.9c3.2-4.3,8-5.9,13-5.9V289.6z M-51.6,256.9h-53.3v-11.8h53.3V256.9z"/>
<path d="M350,263.1c13,0,21.2,6.4,21.2,19.1v25.7h-11.9l0-5.1c-2.4,3.6-7.5,6.3-13.8,6.3c-10.2,0-16.4-6.6-16.4-13.8
	c0-8.2,6.3-12.7,14.3-13.8c0,0,13.1-1.6,15-1.8c0-5.4-5-6.6-10-6.6c-5.1,0-9.2,1.8-12.4,3.9l-4.7-8.1
	C336.2,265.4,342.6,263.1,350,263.1z"/>
<path class="st1" d="M347.8,300c-4.2,0-6.2-2.6-6.2-5.3c0-3.5,2.6-5.3,5.9-5.8l11.3-1.6v2C358.8,297.4,353.2,300,347.8,300
	L347.8,300z"/>
<path d="M73.2,269.1c3.3-4.3,8.1-5.9,13.1-5.9c10.4,0,17.8,6.9,17.8,17V308H91.8v-24c0-6.3-3.3-9.8-8.9-9.8c-5.3,0-9.7,3.3-9.7,9.9
	V308H60.9v-61.5h12.3V269.1L73.2,269.1z M235.9,280.2V308h-12.2v-24c0-6.3-3.3-9.8-8.9-9.8c-5.3,0-9.7,3.3-9.7,9.9V308h-12.3v-24
	c0-6.3-3.3-9.8-8.9-9.8c-5.3,0-9.7,3.3-9.7,9.9V308H162v-43.6h12v5.1c3.3-4.6,8.2-6.3,13.4-6.3c6.6,0,12,2.8,15.1,7.5
	c3.5-5.5,9.5-7.5,15.5-7.5C228.7,263.2,236,270.1,235.9,280.2L235.9,280.2z M291,286.1c0,13.1-9.5,22.9-22.1,22.9
	c-6.3,0-10.7-2.4-13.7-5.9v4.8h-12v-61.4h12.2v22.4c3-3.4,7.3-5.7,13.4-5.7C281.5,263.2,291,273.1,291,286.1L291,286.1z
	 M255.1,286.1c0,6.9,4.8,12,11.7,12c7.3,0,11.8-5.4,11.8-12c0-6.7-4.5-12-11.8-12C259.9,274.1,255.1,279.3,255.1,286.1L255.1,286.1z
	 M418.4,271.4l-8.9,7.1c-2.8-2.8-5.7-4.4-9.7-4.4c-6.4,0-11.4,4.8-11.4,12c0,7.3,5,12,11.4,12c4,0,7.4-1.7,9.9-4.4l8.8,7.2
	c-4.3,5.3-10.7,8.2-18.3,8.2c-14.6,0-24.3-9.7-24.3-22.9c0-13.2,9.8-22.9,24.3-22.9C407.7,263.2,414.2,266.2,418.4,271.4
	L418.4,271.4z M465.6,264.4L449,280.7l19.1,27.3h-15l-12.7-19.7l-5.6,5.5V308h-12.3v-61.4h12.3v34l15.9-16.2L465.6,264.4
	L465.6,264.4z M141.8,303.3c-3.3,4.3-8.1,5.9-13.1,5.9c-10.4,0-17.8-6.9-17.8-17v-27.8h12.3v24c0,6.3,3.3,9.8,8.9,9.8
	c5.3,0,9.7-3.3,9.7-9.9v-23.9h12.3V308h-12.3L141.8,303.3L141.8,303.3z M292.6,264.4h6.7v-13h12.3v13h13.6v10.4h-13.6v18.4
	c0,3.1,2.2,4.9,4.6,4.9c2.6,0,5.9-1.5,5.9-1.5l4,9.3c0,0-4.2,3.1-13.6,3.1c-6.2,0-13.1-4.5-13.1-13.2v-21h-6.7L292.6,264.4
	L292.6,264.4z M36.3,263.2v27.7c0,4.8-1.3,9.5-3.8,13.6l-2.8,4.6l-2.8-4.6c-2.5-4.1-3.8-8.8-3.8-13.6v-21.8
	C26.4,264.7,31.3,263.2,36.3,263.2z M2.7,258.2v-11.7h54v11.7H2.7z"/>
</svg>
