<svg width="420" height="423" viewBox="0 0 420 423" fill="none" xmlns="http://www.w3.org/2000/svg">
<g opacity="0.12">
<path d="M412.096 246.535L391.115 240.056C386.765 238.703 383.905 234.511 384.337 229.963C385.466 218.116 385.365 206.325 384.129 194.753C383.626 190.112 386.532 185.814 391 184.479L412.68 178.059C417.808 176.542 420.732 171.157 419.205 166.014L409.765 134.24C408.233 129.113 402.839 126.193 397.711 127.71L375.117 134.413C370.687 135.723 365.987 133.707 363.786 129.65C361.87 126.129 359.835 122.668 357.689 119.274C355.197 115.356 355.786 110.251 359.17 107.077L376.175 91.1136C380.063 87.4493 380.262 81.3295 376.598 77.4286L353.877 53.2579C350.205 49.3738 344.078 49.1752 340.173 52.8394L322.936 69.0223C319.61 72.1456 314.499 72.5429 310.767 69.9056C305 65.8187 298.946 62.0614 292.62 58.6592C288.563 56.4741 286.659 51.711 288.025 47.3198L295.214 24.1169C296.801 19.0072 293.94 13.5848 288.838 11.9999L257.13 2.18623C252.011 0.614017 246.587 3.45837 244.996 8.56807L237.811 31.7709C236.441 36.1748 232.155 39.0276 227.585 38.5331C218.641 37.5864 209.73 37.3286 200.908 37.7301C196.326 37.933 192.226 34.852 191.122 30.4058L185.355 7.3382C184.069 2.15242 178.801 -1.00892 173.61 0.292807L141.412 8.31871C136.216 9.61621 133.055 14.8654 134.358 20.0512L140.053 42.8694C141.17 47.3325 138.987 51.9984 134.803 53.9341C128.135 57.0447 121.657 60.5484 115.425 64.4493C111.566 66.8753 106.506 66.1864 103.358 62.8898L86.9962 45.7772C83.3067 41.9185 77.1675 41.779 73.3046 45.4686L49.2977 68.3756C45.4305 72.0779 45.2951 78.1935 48.9846 82.0691L64.9102 98.7169C68.13 102.06 68.5108 107.22 65.8199 110.986C61.9189 116.43 58.3056 122.131 55.0053 128.065C52.801 132.05 48.058 133.893 43.7042 132.553L22.7267 126.062C17.6114 124.477 12.183 127.334 10.5921 132.443L0.767683 164.116C-0.806262 169.23 2.05814 174.652 7.16077 176.22L27.3132 182.454C31.7516 183.828 34.6117 188.173 34.0617 192.788C32.6528 204.546 32.4539 216.265 33.389 227.791C33.774 232.326 30.863 236.484 26.4966 237.778L6.93654 243.593C1.80853 245.11 -1.11513 250.495 0.399585 255.617L9.85171 287.408C11.3664 292.53 16.761 295.451 21.8932 293.921L40.6156 288.376C45.0793 287.057 49.8773 289.061 51.9844 293.194C54.1972 297.568 56.6174 301.858 59.1941 306.038C61.6015 309.922 60.8696 314.968 57.5397 318.092L43.095 331.654C39.1897 335.318 39.0078 341.442 42.6719 345.339L65.3968 369.493C69.0651 373.394 75.1959 373.576 79.0969 369.928L93.182 356.7C96.5499 353.538 101.699 353.149 105.435 355.863C111.705 360.41 118.314 364.573 125.266 368.301C129.323 370.486 131.333 375.19 129.962 379.598L124.399 397.526C122.812 402.636 125.672 408.059 130.792 409.631L162.499 419.445C167.614 421.029 173.043 418.172 174.617 413.058L180.147 395.232C181.513 390.828 185.787 387.971 190.356 388.465C199.804 389.467 209.201 389.712 218.497 389.205C223.104 388.96 227.234 392.045 228.359 396.529L232.997 415.129C234.296 420.319 239.55 423.476 244.742 422.175L276.953 414.153C282.144 412.868 285.292 407.602 284.006 402.416L279.284 383.55C278.167 379.083 280.308 374.4 284.484 372.409C291.558 369.053 298.434 365.22 305.005 360.956C308.88 358.441 314.012 359.096 317.198 362.431L330.611 376.441C334.296 380.312 340.435 380.452 344.302 376.75L368.305 353.859C372.172 350.157 372.308 344.025 368.618 340.166L354.838 325.754C351.673 322.453 351.224 317.39 353.818 313.633C357.884 307.758 361.624 301.579 364.992 295.142C367.146 291.034 371.973 289.069 376.408 290.459L396.552 296.676C401.667 298.261 407.095 295.404 408.682 290.307L418.489 258.631C420.076 253.521 417.216 248.098 412.101 246.514M322.534 245.706C303.245 307.893 237.147 342.706 174.892 323.438C112.624 304.166 77.7852 238.145 97.0745 175.958C116.351 113.754 182.461 78.9585 244.717 98.2266C306.972 117.478 341.823 183.519 322.534 245.706Z" fill="#01654D"/>
</g>
</svg>
