<svg width="678" height="470" viewBox="0 0 678 470" fill="none" xmlns="http://www.w3.org/2000/svg">
<path opacity="0.12" d="M566.611 15.8739C563.661 16.1839 560.681 16.9538 557.931 17.3938C556.191 17.6638 554.181 17.8538 552.921 16.6438C551.741 15.5138 551.741 13.6739 551.521 12.0539C550.941 7.63387 548.111 3.57384 544.151 1.52384C540.191 -0.526163 535.231 -0.506114 531.291 1.57389C527.351 3.65389 524.541 7.73384 523.991 12.1538C523.871 13.1638 523.851 14.1838 523.531 15.1438C522.881 17.0538 521.041 17.6039 519.201 17.5839C513.331 17.5339 508.101 14.4238 502.271 16.3938C500.101 17.1238 498.091 18.3738 496.631 20.1438C496.201 20.6738 493.311 27.0238 494.141 27.0238H581.461C582.261 27.0238 579.471 20.7639 579.041 20.2339C577.571 18.4239 575.541 17.1438 573.351 16.3938C571.221 15.6738 568.931 15.6239 566.631 15.8639L566.611 15.8839V15.8739Z" fill="#01654D"/>
<g opacity="0.12">
<path d="M678 88.6638L440.81 87.9138C400.3 87.7838 367.36 120.524 367.23 161.034L366.78 305.384L166.93 304.754C122.12 304.614 85.6802 340.824 85.5402 385.634C85.5102 395.014 87.0901 404.024 89.9902 412.414L27.2702 412.214C12.2502 412.164 0.0401579 424.304 0.00015791 439.314C-0.0498421 454.334 11.7801 468.364 26.8001 468.414L280.75 467.384L465.27 467.964L676.81 468.624L678 88.6438V88.6638Z" fill="#01654D"/>
</g>
<path d="M349.832 454.964H424.822L387.332 422.844L349.832 454.964Z" stroke="#101727" stroke-linecap="round" stroke-linejoin="round"/>
<path d="M424.822 422.844H349.832L387.332 454.964L424.822 422.844Z" stroke="#101727" stroke-linecap="round" stroke-linejoin="round"/>
<path d="M349.832 422.844H424.822L387.332 390.724L349.832 422.844Z" stroke="#101727" stroke-linecap="round" stroke-linejoin="round"/>
<path d="M424.822 390.724H349.832L387.332 422.844L424.822 390.724Z" stroke="#101727" stroke-linecap="round" stroke-linejoin="round"/>
<path d="M349.832 390.724H424.822L387.332 358.604L349.832 390.724Z" stroke="#101727" stroke-linecap="round" stroke-linejoin="round"/>
<path d="M424.822 358.604H349.832L387.332 390.724L424.822 358.604Z" stroke="#101727" stroke-linecap="round" stroke-linejoin="round"/>
<path d="M424.82 467.634V358.604" stroke="#101727" stroke-linecap="round" stroke-linejoin="round"/>
<path d="M349.832 467.634V358.604" stroke="#101727" stroke-linecap="round" stroke-linejoin="round"/>
<path d="M457.269 151.364L456.273 468.323L531.793 468.56L532.789 151.601L457.269 151.364Z" fill="#849465"/>
<path d="M467.61 151.654H456.73V468.634H467.61" fill="#B7AB65"/>
<path fill-rule="evenodd" clip-rule="evenodd" d="M106.711 468.634L30.541 468.464L30.861 391.704L107.041 391.884L106.711 468.634Z" fill="#849465"/>
<path d="M30.9384 391.735L30.6973 468.495L38.1772 468.518L38.4184 391.759L30.9384 391.735Z" fill="#B7AB65"/>
<path fill-rule="evenodd" clip-rule="evenodd" d="M212.061 468.634L136.371 468.464L137.181 277.234L212.871 277.414L212.061 468.634Z" fill="#E9BE51"/>
<path d="M137.663 277.167L137.062 468.396L144.392 468.419L144.993 277.19L137.663 277.167Z" fill="#FCD34C"/>
<path d="M550.958 448.214L550.978 442.444C550.988 437.864 547.288 434.144 542.718 434.124L399.238 433.674C394.658 433.664 390.938 437.364 390.918 441.934L390.898 447.704" fill="#E9BE51"/>
<path d="M550.958 448.214L550.978 442.444C550.988 437.864 547.288 434.144 542.718 434.124L399.238 433.674C394.658 433.664 390.938 437.364 390.918 441.934L390.898 447.704" stroke="#101727" stroke-linecap="round" stroke-linejoin="round"/>
<path d="M244.093 245.31L243.393 468.339L319.202 468.577L319.903 245.548L244.093 245.31Z" fill="#DDD2BA"/>
<path d="M243.748 245.395L243.047 468.423L251.957 468.451L252.658 245.423L243.748 245.395Z" fill="#EAE2CF"/>
<path d="M565.394 13.5989L563.965 468.487L639.065 468.723L640.494 13.8349L565.394 13.5989Z" fill="#849465"/>
<path d="M564.39 13.4511L562.961 468.339L572.741 468.369L574.17 13.4818L564.39 13.4511Z" fill="#B7AB65"/>
<path fill-rule="evenodd" clip-rule="evenodd" d="M369.398 468.014L369.448 452.484C369.448 449.894 371.618 447.804 374.278 447.804L567.568 448.394C570.228 448.394 572.378 450.504 572.368 453.094L572.318 468.624" fill="#E9BE51"/>
<path d="M369.398 468.014L369.448 452.484C369.448 449.894 371.618 447.804 374.278 447.804L567.568 448.394C570.228 448.394 572.378 450.504 572.368 453.094L572.318 468.624" stroke="#101727" stroke-miterlimit="10"/>
<path d="M507.799 434.014L434.129 433.784L434.159 424.404C434.219 404.064 450.769 387.624 471.109 387.684C491.449 387.744 507.889 404.294 507.829 424.634L507.799 434.014Z" fill="#E9BE51" stroke="#101727" stroke-miterlimit="10"/>
<path d="M420.27 330.324L441.78 316.724L490.64 374.564L451.589 399.264L420.27 330.324Z" fill="#E9BE51" stroke="#101727" stroke-miterlimit="10"/>
<path d="M492.34 373.494C499.75 385.214 496.26 400.734 484.54 408.144C472.82 415.554 457.3 412.064 449.89 400.344C442.48 388.624 445.97 373.104 457.69 365.694C469.41 358.284 484.93 361.774 492.34 373.494Z" fill="white"/>
<path d="M492.34 373.494C499.75 385.214 496.26 400.734 484.54 408.144C472.82 415.554 457.3 412.064 449.89 400.344C442.48 388.624 445.97 373.104 457.69 365.694C469.41 358.284 484.93 361.774 492.34 373.494Z" fill="#FCD34C" stroke="#101727" stroke-linecap="round" stroke-linejoin="round"/>
<path d="M478.729 382.104C481.389 386.304 480.139 391.874 475.929 394.534C471.729 397.194 466.159 395.944 463.499 391.734C460.839 387.534 462.089 381.964 466.299 379.304C470.509 376.644 476.069 377.894 478.729 382.104Z" fill="#E9BE51"/>
<path d="M323.34 351.374L328.94 347.114L349.1 350.864L355.1 343.664L348.18 325.694L364.05 313.614L369.12 348.674L353.86 361.754L323.34 351.374Z" fill="#E9BE51"/>
<path d="M323.34 351.374L328.94 347.114L349.1 350.864L355.1 343.664L348.18 325.694L364.05 313.614L369.12 348.674L353.86 361.754L323.34 351.374Z" stroke="#101727" stroke-linecap="round" stroke-linejoin="round"/>
<path d="M310.719 315.204L317.749 315.054L331.209 299.574L340.379 301.484L346.139 319.864L366.089 319.444L348.239 288.834L328.149 288.084L310.719 315.204Z" fill="#E9BE51"/>
<path d="M310.719 315.204L317.749 315.054L331.209 299.574L340.379 301.484L346.139 319.864L366.089 319.444L348.239 288.834L328.149 288.084L310.719 315.204Z" stroke="#101727" stroke-linecap="round" stroke-linejoin="round"/>
<path d="M431.68 310.814L430.37 336.224L355.77 326.364L356.459 312.934L431.68 310.814Z" fill="#E9BE51" stroke="#101727" stroke-miterlimit="10"/>
<path d="M431.801 308.474C440.111 308.904 446.502 315.984 446.072 324.294C445.642 332.604 438.561 338.994 430.251 338.564C421.941 338.134 415.551 331.054 415.981 322.744C416.411 314.434 423.491 308.044 431.801 308.474Z" fill="white"/>
<path d="M431.801 308.474C440.111 308.904 446.502 315.984 446.072 324.294C445.642 332.604 438.561 338.994 430.251 338.564C421.941 338.134 415.551 331.054 415.981 322.744C416.411 314.434 423.491 308.044 431.801 308.474Z" fill="#FCD34C" stroke="#101727" stroke-linecap="round" stroke-linejoin="round"/>
<path d="M431.3 318.124C434.28 318.274 436.57 320.814 436.42 323.804C436.27 326.784 433.73 329.074 430.74 328.924C427.76 328.774 425.47 326.224 425.62 323.244C425.77 320.264 428.32 317.974 431.3 318.124Z" fill="#E9BE51"/>
<path d="M349.522 312.174C353.652 308.524 359.952 308.924 363.602 313.054C367.252 317.184 366.852 323.484 362.722 327.134C358.592 330.774 352.292 330.384 348.642 326.254C345.002 322.124 345.392 315.824 349.522 312.174Z" fill="#FCD34C" stroke="#101727" stroke-miterlimit="10"/>
<path d="M353.748 316.964C355.228 315.654 357.488 315.794 358.798 317.284C360.108 318.764 359.968 321.024 358.478 322.334C356.988 323.644 354.738 323.504 353.428 322.014C352.118 320.534 352.258 318.274 353.748 316.964Z" fill="#E9BE51"/>
<path d="M533.691 176.884L544.251 176.494" stroke="#E9BE51" stroke-miterlimit="10"/>
<path d="M549.002 210.474L542.632 219.984L545.552 226.974L538.562 238.784L540.792 245.294H532.602L536.242 229.464L537.032 226.024L537.602 223.534C537.662 223.274 537.692 223.004 537.692 222.744C537.692 221.164 536.602 219.734 534.992 219.364C533.122 218.934 531.252 220.104 530.822 221.974L530.252 224.464L529.462 227.904L526.242 241.874L525.432 240.474H517.492C516.672 239.094 515.502 237.824 514.172 236.754C517.022 228.574 533.702 211.994 548.302 209.514C548.532 209.844 548.772 210.154 549.002 210.454V210.474Z" fill="white"/>
<path d="M549.002 210.474L542.632 219.984L545.552 226.974L538.562 238.784L540.792 245.294H532.602L536.242 229.464L537.032 226.024L537.602 223.534C537.662 223.274 537.692 223.004 537.692 222.744C537.692 221.164 536.602 219.734 534.992 219.364C533.122 218.934 531.252 220.104 530.822 221.974L530.252 224.464L529.462 227.904L526.242 241.874L525.432 240.474H517.492C516.672 239.094 515.502 237.824 514.172 236.754C517.022 228.574 533.702 211.994 548.302 209.514C548.532 209.844 548.772 210.154 549.002 210.454V210.474Z" stroke="#101727" stroke-miterlimit="10"/>
<path d="M583.391 207.194L562.391 220.614L560.441 217.744C561.541 217.504 562.611 217.004 563.551 216.244L563.761 216.074C566.391 213.954 571.271 210.014 575.631 202.904C575.891 202.474 576.161 202.034 576.421 201.574C576.551 201.344 576.681 201.114 576.811 200.884C577.071 200.414 577.321 199.934 577.571 199.444C578.101 198.404 578.621 197.304 579.111 196.154L583.391 207.194Z" fill="#EAE2CF"/>
<path d="M583.391 207.194L562.391 220.614L560.441 217.744C561.541 217.504 562.611 217.004 563.551 216.244L563.761 216.074C566.391 213.954 571.271 210.014 575.631 202.904C575.891 202.474 576.161 202.034 576.421 201.574C576.551 201.344 576.681 201.114 576.811 200.884C577.071 200.414 577.321 199.934 577.571 199.444C578.101 198.404 578.621 197.304 579.111 196.154L583.391 207.194Z" stroke="#101727" stroke-miterlimit="10"/>
<path d="M579.101 196.154C578.611 197.314 578.091 198.404 577.561 199.444C577.311 199.934 577.051 200.414 576.801 200.884L576.411 201.574C576.151 202.034 575.891 202.464 575.621 202.894C571.261 210.004 566.391 213.934 563.751 216.064L563.541 216.234C562.601 216.994 561.531 217.504 560.431 217.734L555.531 210.524L561.981 202.604L575.271 186.274L579.101 196.144V196.154Z" stroke="#101727" stroke-miterlimit="10"/>
<path d="M579.9 307.914L579.89 307.964L579.81 310.294L565.83 333.284L566.08 431.934L566.09 439.444H565.4L519.93 439.364L520 431.934L520.12 421.304H542.14V307.914H579.9Z" fill="#01654D"/>
<path d="M611.571 439.364L567.941 439.434H566.091H565.401L565.201 434.114V434.104L565.111 431.934L561.311 333.284L542.141 313.684V307.914H579.901L579.891 307.964L579.811 310.294L575.961 421.304H610.591L611.161 431.934L611.571 439.364Z" fill="#01654D"/>
<path d="M579.901 307.964H542.141" stroke="#101727" stroke-miterlimit="10"/>
<path d="M538.119 232.004L533.219 245.574" stroke="#101727" stroke-miterlimit="10"/>
<path d="M569.852 442.854V468.634H625.052C625.052 468.634 632.882 451.274 605.772 451.274C604.822 446.294 603.842 442.514 603.842 442.514L569.852 442.854Z" fill="#EAE2CF" stroke="#101727" stroke-miterlimit="10"/>
<path d="M563.191 442.854V468.634H507.991C507.991 468.634 500.161 451.274 527.271 451.274C528.221 446.294 529.201 442.514 529.201 442.514L563.191 442.854Z" fill="#EAE2CF" stroke="#101727" stroke-miterlimit="10"/>
<path d="M575.111 172.674L538.291 169.954C537.981 174.884 538.111 179.344 538.561 183.374C539.641 187.164 541.08 189.874 543.1 191.814C543.5 192.204 543.931 192.554 544.381 192.884C545.201 193.474 546.09 193.984 547.08 194.404C547.55 194.614 548.051 194.794 548.571 194.964C549.171 195.164 549.8 195.334 550.46 195.494C550.89 195.594 551.351 195.694 551.811 195.784H551.821C552.051 195.824 552.281 195.864 552.521 195.914H552.541C556.541 195.924 560.601 194.944 564.371 192.984C573.461 188.244 574.77 181.874 575.95 172.734L575.111 172.674ZM549.141 183.244C548.031 183.464 546.951 182.714 546.741 181.564C546.521 180.414 547.24 179.304 548.35 179.084C549.46 178.864 550.541 179.614 550.751 180.764C550.971 181.914 550.251 183.024 549.141 183.244ZM564.821 183.124C563.711 183.344 562.641 182.594 562.421 181.444C562.201 180.294 562.921 179.184 564.031 178.964C565.141 178.744 566.211 179.494 566.431 180.644C566.651 181.794 565.931 182.904 564.821 183.124Z" fill="#EAE2CF"/>
<path d="M575.111 172.674L538.291 169.954C537.981 174.884 538.111 179.344 538.561 183.374C539.641 187.164 541.08 189.874 543.1 191.814C543.5 192.204 543.931 192.554 544.381 192.884C545.201 193.474 546.09 193.984 547.08 194.404C547.55 194.614 548.051 194.794 548.571 194.964C549.171 195.164 549.8 195.334 550.46 195.494C550.89 195.594 551.351 195.694 551.811 195.784H551.821C552.051 195.824 552.281 195.864 552.521 195.914H552.541C556.541 195.924 560.601 194.944 564.371 192.984C573.461 188.244 574.77 181.874 575.95 172.734L575.111 172.674ZM549.141 183.244C548.031 183.464 546.951 182.714 546.741 181.564C546.521 180.414 547.24 179.304 548.35 179.084C549.46 178.864 550.541 179.614 550.751 180.764C550.971 181.914 550.251 183.024 549.141 183.244ZM564.821 183.124C563.711 183.344 562.641 182.594 562.421 181.444C562.201 180.294 562.921 179.184 564.031 178.964C565.141 178.744 566.211 179.494 566.431 180.644C566.651 181.794 565.931 182.904 564.821 183.124Z" stroke="#101727" stroke-miterlimit="10"/>
<path d="M538.289 169.934L575.949 172.734L538.289 169.954V169.934Z" stroke="#101727" stroke-miterlimit="10"/>
<path d="M584.24 173.344C584.22 173.624 584.2 173.914 584.18 174.194C584.15 174.614 584.11 175.034 584.07 175.454C584.03 175.864 583.99 176.284 583.95 176.684C583.91 177.074 583.87 177.464 583.83 177.844C583.82 177.964 583.8 178.074 583.79 178.194C583.77 178.344 583.75 178.504 583.73 178.654C583.71 178.844 583.68 179.024 583.66 179.214C583.66 179.264 583.64 179.324 583.64 179.374C583.64 179.394 583.64 179.404 583.64 179.424C583.64 179.424 583.64 179.444 583.64 179.454L583.57 179.984C583.52 180.334 583.47 180.684 583.41 181.024C583.36 181.364 583.3 181.704 583.24 182.044C583.17 182.434 583.1 182.814 583.03 183.194C582.87 184.014 582.7 184.824 582.52 185.604C582.4 186.124 582.28 186.644 582.15 187.154C581.94 187.994 581.71 188.824 581.47 189.624C581.39 189.894 581.31 190.154 581.23 190.414C581.12 190.764 581.01 191.114 580.9 191.454C580.72 192.004 580.54 192.534 580.35 193.064C580.25 193.324 580.16 193.584 580.06 193.844C579.84 194.434 579.62 194.994 579.39 195.554C579.3 195.764 579.21 195.974 579.12 196.184C578.63 197.344 578.11 198.434 577.58 199.474C577.33 199.964 577.07 200.444 576.82 200.914L576.43 201.604C576.17 202.064 575.91 202.494 575.64 202.924C571.28 210.034 566.41 213.964 563.77 216.094L563.56 216.264C562.61 217.024 561.55 217.534 560.45 217.764C560.41 217.774 560.37 217.784 560.33 217.794C557.87 218.284 555.25 217.504 553.39 215.514L553.16 215.264C552.96 215.054 552.75 214.824 552.52 214.584C552.31 214.354 552.09 214.124 551.86 213.864C551.26 213.204 550.6 212.444 549.9 211.594C549.8 211.464 549.69 211.334 549.58 211.204C549.55 211.164 549.52 211.124 549.49 211.084C549.46 211.044 549.43 211.004 549.39 210.954C549.36 210.924 549.34 210.894 549.32 210.864C549.22 210.734 549.12 210.614 549.02 210.484C548.79 210.174 548.55 209.864 548.32 209.544C548.02 209.134 547.72 208.714 547.42 208.274C547.34 208.154 547.25 208.034 547.17 207.914C546.82 207.394 546.46 206.854 546.12 206.284C545.97 206.034 545.82 205.784 545.66 205.524C545.51 205.264 545.36 205.014 545.21 204.744C545.14 204.604 545.06 204.464 544.98 204.324C544.88 204.144 544.77 203.944 544.67 203.764C544.63 203.684 544.58 203.604 544.54 203.524C544.38 203.214 544.22 202.904 544.06 202.584C543.96 202.384 543.86 202.174 543.76 201.974C543.66 201.774 543.56 201.564 543.46 201.344C543.46 201.344 543.46 201.334 543.45 201.324C543.36 201.124 543.26 200.914 543.17 200.704C543.07 200.494 542.98 200.274 542.88 200.054C542.79 199.854 542.7 199.644 542.61 199.434C542.61 199.414 542.6 199.404 542.59 199.384C542.49 199.154 542.4 198.934 542.31 198.704C542.14 198.284 541.98 197.854 541.81 197.414L541.72 197.174C541.65 196.974 541.57 196.764 541.5 196.564C541.41 196.314 541.33 196.074 541.24 195.824C541.08 195.354 540.93 194.864 540.78 194.374C540.69 194.084 540.6 193.784 540.52 193.494C540.45 193.244 540.38 193.004 540.32 192.754C540.29 192.644 540.26 192.524 540.23 192.404C539.51 189.694 538.94 186.714 538.57 183.454C538.57 183.444 538.57 183.424 538.57 183.404C538.57 183.414 538.57 183.434 538.58 183.444C538.65 183.684 538.72 183.914 538.79 184.144C538.89 184.464 538.99 184.784 539.1 185.094C539.12 185.144 539.14 185.194 539.15 185.254C539.18 185.354 539.22 185.454 539.26 185.554C539.27 185.584 539.29 185.624 539.3 185.654C539.37 185.844 539.44 186.034 539.51 186.214C539.55 186.324 539.59 186.434 539.64 186.534C539.68 186.634 539.73 186.744 539.77 186.844C539.79 186.894 539.81 186.944 539.83 186.984C539.87 187.084 539.92 187.184 539.96 187.284C539.96 187.304 539.98 187.334 539.99 187.354C540.02 187.434 540.06 187.504 540.09 187.574C540.1 187.604 540.11 187.624 540.13 187.654C540.15 187.704 540.18 187.754 540.2 187.804L540.27 187.954C540.3 188.004 540.32 188.054 540.35 188.114C540.37 188.154 540.39 188.194 540.41 188.234C540.44 188.294 540.47 188.354 540.51 188.414C540.54 188.474 540.58 188.534 540.61 188.594C540.68 188.724 540.76 188.854 540.83 188.974C540.84 188.994 540.86 189.014 540.87 189.034C540.89 189.064 540.9 189.094 540.92 189.124C541 189.244 541.07 189.374 541.15 189.494C541.17 189.524 541.19 189.564 541.22 189.594C541.24 189.614 541.25 189.644 541.27 189.674C541.27 189.674 541.28 189.684 541.29 189.694C541.3 189.714 541.31 189.734 541.33 189.754C541.36 189.804 541.4 189.864 541.43 189.914C541.48 189.984 541.52 190.044 541.57 190.114C541.63 190.194 541.69 190.274 541.75 190.354C541.83 190.454 541.9 190.554 541.98 190.654C542.11 190.814 542.25 190.984 542.39 191.134C542.44 191.194 542.5 191.254 542.56 191.314C542.72 191.494 542.89 191.654 543.06 191.824C543.11 191.874 543.16 191.924 543.21 191.964C543.26 192.014 543.31 192.064 543.36 192.104C543.46 192.204 543.57 192.294 543.68 192.384C543.73 192.424 543.78 192.464 543.83 192.514C543.88 192.554 543.93 192.594 543.97 192.624C544 192.654 544.03 192.674 544.06 192.694C544.19 192.794 544.31 192.884 544.44 192.974C544.63 193.114 544.83 193.244 545.03 193.374C545.14 193.454 545.26 193.514 545.37 193.584C545.42 193.614 545.47 193.634 545.51 193.664C545.57 193.704 545.64 193.744 545.7 193.774C545.82 193.844 545.93 193.904 546.06 193.964C546.12 193.994 546.18 194.034 546.25 194.064C546.38 194.134 546.53 194.194 546.66 194.264C546.78 194.324 546.9 194.374 547.03 194.424C547.21 194.504 547.39 194.574 547.57 194.644C547.69 194.694 547.81 194.744 547.94 194.784C548.13 194.854 548.32 194.924 548.53 194.984C548.73 195.044 548.94 195.114 549.14 195.174C549.34 195.234 549.56 195.294 549.77 195.354C550.41 195.524 551.08 195.674 551.78 195.804C552.01 195.844 552.24 195.884 552.48 195.934H552.5C556.5 195.944 560.56 194.964 564.33 193.004C573.42 188.264 574.73 181.894 575.91 172.754L584.2 173.364L584.24 173.344Z" stroke="#101727" stroke-miterlimit="10"/>
<path d="M539.798 154.317C540.471 143.907 549.146 136.105 559.143 136.843L565.552 137.312V137.313L567.821 137.483H567.822C577.666 138.21 585.185 146.959 584.775 157.164L584.75 157.642L583.771 172.818L575.985 172.245L538.818 169.501L539.058 165.836L539.798 154.317Z" fill="#E9BE51" stroke="#E9BE51"/>
<mask id="path-57-inside-1_2680_6236" fill="white">
<path d="M584.24 173.324L526.181 169.034C525.081 168.954 524.251 167.964 524.321 166.824C524.401 165.684 525.341 164.824 526.441 164.904L551.051 166.724"/>
</mask>
<path d="M584.24 173.324L526.181 169.034C525.081 168.954 524.251 167.964 524.321 166.824C524.401 165.684 525.341 164.824 526.441 164.904L551.051 166.724" fill="#E9BE51"/>
<path d="M526.181 169.034L526.254 168.037L526.253 168.036L526.181 169.034ZM524.321 166.824L523.323 166.754L523.322 166.763L524.321 166.824ZM526.441 164.904L526.514 163.907L526.513 163.906L526.441 164.904ZM584.24 173.324L584.314 172.327L526.254 168.037L526.181 169.034L526.107 170.031L584.167 174.321L584.24 173.324ZM526.181 169.034L526.253 168.036C525.735 167.999 525.28 167.515 525.319 166.885L524.321 166.824L523.322 166.763C523.221 168.413 524.426 169.909 526.108 170.031L526.181 169.034ZM524.321 166.824L525.318 166.894C525.362 166.261 525.863 165.865 526.368 165.901L526.441 164.904L526.513 163.906C524.818 163.783 523.439 165.107 523.323 166.754L524.321 166.824ZM526.441 164.904L526.367 165.901L550.977 167.721L551.051 166.724L551.124 165.727L526.514 163.907L526.441 164.904Z" fill="#E9BE51" mask="url(#path-57-inside-1_2680_6236)"/>
<path d="M584.24 173.324L526.181 169.034C525.081 168.954 524.251 167.964 524.321 166.824C524.401 165.684 525.341 164.824 526.441 164.904L551.051 166.724" stroke="#101727" stroke-miterlimit="10"/>
<path d="M590.519 182.034C588.329 186.884 584.909 187.084 582.129 187.134C582.259 186.624 582.379 186.114 582.499 185.584C582.679 184.794 582.849 183.994 583.009 183.174C583.589 180.154 584.009 176.884 584.249 173.334C589.379 171.164 592.809 177.004 590.529 182.024" fill="#EAE2CF"/>
<path d="M590.519 182.034C588.329 186.884 584.909 187.084 582.129 187.134C582.259 186.624 582.379 186.114 582.499 185.584C582.679 184.794 582.849 183.994 583.009 183.174C583.589 180.154 584.009 176.884 584.249 173.334C589.379 171.164 592.809 177.004 590.529 182.024L590.519 182.034Z" stroke="#101727" stroke-miterlimit="10"/>
<path d="M581.82 187.144H582.12" stroke="#101727" stroke-miterlimit="10"/>
<path d="M558.731 175.944C558.401 181.574 555.821 187.244 551.291 191.074C548.531 193.414 553.671 195.344 557.841 190.374" stroke="#101727" stroke-miterlimit="10"/>
<path d="M584.239 173.344C584.219 173.624 584.199 173.914 584.179 174.194C584.109 175.044 584.039 175.874 583.949 176.684C583.909 177.074 583.869 177.454 583.819 177.844C583.779 178.204 583.729 178.564 583.689 178.914C583.679 179.014 583.669 179.114 583.649 179.204C583.649 179.254 583.629 179.314 583.629 179.364C583.629 179.384 583.629 179.394 583.629 179.414C583.629 179.414 583.629 179.434 583.629 179.444L583.549 179.974C583.499 180.324 583.449 180.674 583.389 181.014C583.339 181.354 583.279 181.694 583.219 182.034C583.149 182.424 583.079 182.804 583.009 183.184C582.849 184.004 582.679 184.814 582.499 185.594C582.379 186.114 582.259 186.634 582.129 187.144C581.919 187.984 581.689 188.814 581.459 189.614C581.379 189.884 581.299 190.144 581.219 190.404C581.109 190.754 580.999 191.104 580.889 191.444C580.709 191.994 580.529 192.524 580.339 193.054C580.239 193.314 580.149 193.574 580.049 193.834C579.829 194.414 579.599 194.984 579.379 195.544C579.289 195.754 579.199 195.964 579.109 196.174C578.619 197.334 578.099 198.424 577.569 199.464C577.319 199.954 577.059 200.434 576.809 200.904L576.419 201.594C576.159 202.054 575.899 202.484 575.629 202.914C571.269 210.024 566.399 213.954 563.759 216.084L563.549 216.254C562.609 217.014 561.539 217.524 560.439 217.754C560.399 217.764 560.359 217.774 560.319 217.784C557.859 218.274 555.239 217.494 553.379 215.504L553.149 215.254C552.949 215.044 552.739 214.814 552.519 214.574C552.309 214.344 552.089 214.114 551.849 213.854C551.249 213.194 550.589 212.434 549.889 211.584C549.789 211.454 549.679 211.324 549.569 211.194C549.539 211.154 549.509 211.114 549.479 211.074C549.449 211.034 549.419 210.994 549.379 210.954C549.359 210.924 549.329 210.894 549.309 210.854C549.209 210.724 549.109 210.604 549.009 210.474C548.779 210.164 548.539 209.854 548.309 209.534C548.009 209.124 547.709 208.704 547.409 208.264C547.329 208.144 547.239 208.024 547.159 207.904C546.809 207.384 546.449 206.844 546.109 206.274C545.959 206.024 545.809 205.774 545.649 205.514C545.499 205.254 545.349 205.004 545.199 204.734C545.119 204.594 545.049 204.454 544.969 204.314C544.869 204.134 544.769 203.934 544.659 203.754C544.619 203.674 544.569 203.594 544.529 203.514C544.369 203.204 544.209 202.894 544.049 202.574C543.949 202.374 543.849 202.164 543.749 201.964C543.649 201.764 543.549 201.554 543.449 201.334C543.449 201.334 543.449 201.324 543.439 201.314C543.349 201.114 543.249 200.904 543.159 200.694C543.059 200.484 542.969 200.264 542.869 200.044C542.779 199.844 542.689 199.634 542.599 199.424C542.599 199.404 542.589 199.394 542.579 199.374C542.479 199.144 542.389 198.924 542.299 198.694C542.129 198.274 541.969 197.844 541.799 197.404L541.709 197.164C541.639 196.964 541.559 196.754 541.489 196.554C541.399 196.304 541.319 196.064 541.239 195.814C541.079 195.344 540.929 194.854 540.779 194.364C540.689 194.074 540.599 193.774 540.519 193.484C540.449 193.234 540.379 192.994 540.319 192.744C540.289 192.624 540.249 192.514 540.219 192.394C540.489 192.564 540.769 192.734 541.039 192.884C543.469 194.274 546.099 195.184 548.809 195.624C550.029 195.824 551.279 195.934 552.519 195.934H552.539C556.549 195.944 560.599 194.964 564.369 193.004C573.459 188.264 574.769 181.894 575.949 172.754L584.239 173.364V173.344Z" fill="#101727" stroke="#101727" stroke-miterlimit="10"/>
<path d="M564.818 183.124C563.708 183.344 562.638 182.594 562.418 181.444C562.198 180.294 562.918 179.184 564.028 178.964C565.138 178.744 566.208 179.494 566.428 180.644C566.648 181.794 565.928 182.904 564.818 183.124Z" fill="#EAE2CF"/>
<path d="M564.818 183.124C563.708 183.344 562.638 182.594 562.418 181.444C562.198 180.294 562.918 179.184 564.028 178.964C565.138 178.744 566.208 179.494 566.428 180.644C566.648 181.794 565.928 182.904 564.818 183.124Z" stroke="#101727" stroke-miterlimit="10"/>
<path d="M549.139 183.244C548.029 183.464 546.949 182.714 546.739 181.564C546.519 180.414 547.239 179.304 548.349 179.084C549.459 178.864 550.539 179.614 550.749 180.764C550.969 181.914 550.249 183.024 549.139 183.244Z" fill="#EAE2CF"/>
<path d="M549.139 183.244C548.029 183.464 546.949 182.714 546.739 181.564C546.519 180.414 547.239 179.304 548.349 179.084C549.459 178.864 550.539 179.614 550.749 180.764C550.969 181.914 550.249 183.024 549.139 183.244Z" stroke="#101727" stroke-miterlimit="10"/>
<path d="M564.121 175.624C566.341 175.544 568.201 176.414 569.371 177.794" stroke="#101727" stroke-miterlimit="10"/>
<path d="M563.631 201.314C561.031 204.104 554.481 205.624 551.191 202.514" stroke="#EAE2CF" stroke-miterlimit="10"/>
<path d="M566.729 136.844C561.089 136.384 557.52 140.394 557.52 140.394" stroke="#101727" stroke-miterlimit="10"/>
<path d="M567.94 446.154H517.25L515.59 431.934H567.94V446.154Z" fill="#01654D"/>
<path d="M566.609 446.154H617.309L618.969 431.934H564.949L566.609 446.154Z" fill="#01654D"/>
<path d="M549.332 208.604L549.442 209.814V209.824L549.562 211.174" stroke="#101727" stroke-linecap="round" stroke-linejoin="round"/>
<path d="M583.399 207.274L583.379 207.304" stroke="#101727" stroke-linecap="round" stroke-linejoin="round"/>
<path d="M515.59 431.934H565.95" stroke="#101727" stroke-miterlimit="10"/>
<path d="M517.25 446.154H567.94" stroke="#101727" stroke-miterlimit="10"/>
<path d="M564.949 431.934H618.969" stroke="#101727" stroke-miterlimit="10"/>
<path d="M566.609 446.154H617.309" stroke="#101727" stroke-miterlimit="10"/>
<path d="M552.27 151.554L549.16 145.004L546.68 146.264L549.79 152.804L552.27 151.554Z" fill="#01654D"/>
<path d="M548.289 153.614C550.349 157.324 552.789 158.484 554.259 158.974C554.779 157.464 555.379 154.744 553.749 150.744C553.839 150.664 553.929 150.594 554.019 150.504C554.699 149.884 555.299 149.234 555.819 148.564C558.829 154.914 557.199 159.124 556.589 160.704L556.559 160.774C556.439 161.084 556.259 161.334 556.039 161.544C555.559 161.974 554.889 162.154 554.229 161.964L554.149 161.934C552.559 161.464 548.329 160.224 545.309 153.904C546.289 153.944 547.289 153.864 548.289 153.624V153.614Z" fill="white"/>
<path d="M552.531 195.914H552.521L548.811 195.604L541.951 195.044C541.951 195.044 541.571 194.294 541.041 192.874C540.321 190.934 539.301 187.724 538.561 183.434C538.561 183.414 538.561 183.384 538.551 183.364C538.551 183.364 538.551 183.384 538.551 183.394C540.851 191.484 544.791 194.644 552.521 195.934L552.531 195.914Z" stroke="#101727" stroke-miterlimit="10"/>
<path d="M565.951 446.154L562.211 336.934" stroke="#101727" stroke-miterlimit="10"/>
<path d="M537.678 222.754C537.678 223.014 537.648 223.274 537.588 223.544L537.018 226.034L530.238 224.474L530.808 221.984C531.238 220.114 533.108 218.944 534.978 219.374C536.588 219.744 537.678 221.174 537.678 222.754Z" fill="#849465"/>
<path d="M537.678 222.754C537.678 223.014 537.648 223.274 537.588 223.544L537.018 226.034L530.238 224.474L530.808 221.984C531.238 220.114 533.108 218.944 534.978 219.374C536.588 219.744 537.678 221.174 537.678 222.754Z" stroke="#101727" stroke-miterlimit="10"/>
<path d="M570.898 300.014H518.078L486.488 245.294H498.208L502.458 252.644H532.458L531.348 250.714L530.538 249.314L528.218 245.284H539.318L551.108 265.704L537.878 268.204C535.988 268.564 534.668 270.224 534.668 272.074C534.668 272.314 534.688 272.564 534.738 272.804C535.148 274.944 537.208 276.354 539.338 275.944L537.818 276.234C535.678 276.634 534.268 278.694 534.678 280.834C535.028 282.724 536.688 284.044 538.548 284.044C538.788 284.044 539.038 284.014 539.288 283.974L543.218 283.234C541.158 283.694 539.828 285.704 540.228 287.804C540.588 289.694 542.238 291.014 544.098 291.014C544.338 291.014 544.588 290.984 544.838 290.944L561.088 287.884L563.658 287.404L570.938 300.004L570.898 300.014Z" fill="#047857"/>
<path d="M570.898 300.014H518.078L486.488 245.294H498.208L502.458 252.644H532.458L531.348 250.714L530.538 249.314L528.218 245.284H539.318L551.108 265.704L537.878 268.204C535.988 268.564 534.668 270.224 534.668 272.074C534.668 272.314 534.688 272.564 534.738 272.804C535.148 274.944 537.208 276.354 539.338 275.944L537.818 276.234C535.678 276.634 534.268 278.694 534.678 280.834C535.028 282.724 536.688 284.044 538.548 284.044C538.788 284.044 539.038 284.014 539.288 283.974L543.218 283.234C541.158 283.694 539.828 285.704 540.228 287.804C540.588 289.694 542.238 291.014 544.098 291.014C544.338 291.014 544.588 290.984 544.838 290.944L561.088 287.884L563.658 287.404L570.938 300.004L570.898 300.014Z" stroke="#101727" stroke-miterlimit="10"/>
<path d="M530.157 224.338L529.363 227.777L536.135 229.341L536.929 225.901L530.157 224.338Z" fill="#EAE2CF"/>
<path d="M530.157 224.338L529.363 227.777L536.135 229.341L536.929 225.901L530.157 224.338Z" stroke="#101727" stroke-miterlimit="10"/>
<path d="M535.629 229.848L532.189 244.794H528.497L526.77 241.804L529.833 228.512L535.629 229.848Z" fill="#E9BE51" stroke="#E9BE51"/>
<path d="M536.228 229.474L532.588 245.294H528.208L526.238 241.884L529.458 227.914L536.228 229.474Z" stroke="#101727" stroke-miterlimit="10"/>
<path d="M506.702 234.224C508.932 234.224 511.605 235.358 513.849 237.143V237.144C515.142 238.184 516.268 239.411 517.052 240.73L517.197 240.974H525.134L525.799 242.124V242.123L527.769 245.543L531.576 252.144H502.74L498.634 245.043L496.288 240.974H504.562L504.148 240.231C503.149 238.434 503.025 236.919 503.475 235.898C503.91 234.911 504.958 234.224 506.702 234.224Z" fill="#E9BE51" stroke="#E9BE51"/>
<path d="M532.452 252.644H502.452L498.202 245.294L495.422 240.474H503.712C501.632 236.734 502.942 233.724 506.702 233.724C509.082 233.724 511.862 234.924 514.162 236.754C515.492 237.824 516.662 239.094 517.482 240.474H525.422L526.232 241.874L528.202 245.294L532.442 252.644H532.452Z" stroke="#101727" stroke-miterlimit="10"/>
<path d="M601.339 249.694L601.289 249.834" stroke="#101727" stroke-miterlimit="10"/>
<path d="M614.451 307.604C613.391 288.834 611.141 278.544 611.141 278.544L608.471 279.044L580.711 284.224L579.891 307.924V307.974L579.811 310.304L575.961 421.314H618.961C618.961 421.314 615.501 326.374 614.451 307.614M610.471 341.264C610.471 343.774 608.831 345.904 606.561 346.644C606.011 346.824 605.421 346.924 604.811 346.924H594.261C591.141 346.924 588.601 344.394 588.601 341.264V312.094H610.461V341.264H610.471Z" fill="white"/>
<path d="M614.451 307.604C613.391 288.834 611.141 278.544 611.141 278.544L608.471 279.044L580.711 284.224L579.891 307.924V307.974L579.811 310.304L575.961 421.314H618.961C618.961 421.314 615.501 326.374 614.451 307.614V307.604ZM610.471 341.264C610.471 343.774 608.831 345.904 606.561 346.644C606.011 346.824 605.421 346.924 604.811 346.924H594.261C591.141 346.924 588.601 344.394 588.601 341.264V312.094H610.461V341.264H610.471Z" stroke="#101727" stroke-miterlimit="10"/>
<path d="M610.472 312.094V341.264C610.472 343.774 608.832 345.904 606.562 346.644C606.012 346.824 605.422 346.924 604.812 346.924H594.262C591.142 346.924 588.602 344.394 588.602 341.264V312.094H610.462H610.472Z" fill="white"/>
<path d="M610.472 312.094V341.264C610.472 343.774 608.832 345.904 606.562 346.644C606.012 346.824 605.422 346.924 604.812 346.924H594.262C591.142 346.924 588.602 344.394 588.602 341.264V312.094H610.462H610.472Z" stroke="#101727" stroke-miterlimit="10"/>
<path d="M559.599 280.144L559.449 280.174L543.349 283.214C543.349 283.214 543.259 283.234 543.219 283.244H543.199" stroke="#101727" stroke-miterlimit="10"/>
<path d="M554.892 273.024L539.332 275.964" stroke="#101727" stroke-miterlimit="10"/>
<path d="M549.371 210.944L546.701 253.674L541.861 245.294H540.781L538.551 238.784L545.541 226.974L542.621 219.984L548.991 210.474C549.091 210.604 549.191 210.734 549.291 210.854C549.321 210.884 549.341 210.924 549.361 210.954L549.371 210.944Z" fill="white"/>
<path d="M549.371 210.944L546.701 253.674L541.861 245.294H540.781L538.551 238.784L545.541 226.974L542.621 219.984L548.991 210.474C549.091 210.604 549.191 210.734 549.291 210.854C549.321 210.884 549.341 210.924 549.361 210.954L549.371 210.944Z" stroke="#101727" stroke-miterlimit="10"/>
<path d="M549 210.464L549.44 209.814V209.824L549.37 210.944" stroke="#101727" stroke-miterlimit="10"/>
<path d="M526.241 311.694V338.494C526.241 343.144 522.471 346.914 517.821 346.914H517.801C518.511 335.284 519.241 323.274 519.931 311.694H526.241Z" fill="white"/>
<path d="M526.241 311.694V338.494C526.241 343.144 522.471 346.914 517.821 346.914H517.801C518.511 335.284 519.241 323.274 519.931 311.694H526.241Z" stroke="#101727" stroke-miterlimit="10"/>
<path d="M542.139 300.014V421.304H513.219C513.219 421.304 515.399 386.254 517.799 346.914H517.819C522.469 346.914 526.239 343.144 526.239 338.494V311.694H519.929C520.009 310.414 520.079 309.124 520.159 307.854C520.319 305.214 520.469 302.594 520.629 300.014H542.139Z" fill="white"/>
<path d="M542.139 300.014V421.304H513.219C513.219 421.304 515.399 386.254 517.799 346.914H517.819C522.469 346.914 526.239 343.144 526.239 338.494V311.694H519.929C520.009 310.414 520.079 309.124 520.159 307.854C520.319 305.214 520.469 302.594 520.629 300.014H542.139Z" stroke="#101727" stroke-miterlimit="10"/>
<path d="M570.981 286.034L565.921 286.974L563.621 287.404L561.051 287.884L544.801 290.944C544.551 290.994 544.311 291.014 544.061 291.014C542.201 291.014 540.551 289.694 540.191 287.804C539.801 285.714 541.131 283.694 543.181 283.244L539.251 283.984C539.001 284.034 538.761 284.054 538.511 284.054C536.651 284.054 535.001 282.734 534.641 280.844C534.231 278.704 535.641 276.644 537.781 276.244L539.301 275.954C537.161 276.354 535.101 274.954 534.701 272.814C534.651 272.564 534.631 272.324 534.631 272.084C534.631 270.224 535.951 268.574 537.841 268.214L551.071 265.714L553.371 265.284H553.401L551.181 261.494L558.621 263.164L564.891 261.944L570.871 285.584L570.951 286.044L570.981 286.034Z" fill="#EAE2CF"/>
<path d="M570.981 286.034L565.921 286.974L563.621 287.404L561.051 287.884L544.801 290.944C544.551 290.994 544.311 291.014 544.061 291.014C542.201 291.014 540.551 289.694 540.191 287.804C539.801 285.714 541.131 283.694 543.181 283.244L539.251 283.984C539.001 284.034 538.761 284.054 538.511 284.054C536.651 284.054 535.001 282.734 534.641 280.844C534.231 278.704 535.641 276.644 537.781 276.244L539.301 275.954C537.161 276.354 535.101 274.954 534.701 272.814C534.651 272.564 534.631 272.324 534.631 272.084C534.631 270.224 535.951 268.574 537.841 268.214L551.071 265.714L553.371 265.284H553.401L551.181 261.494L558.621 263.164L564.891 261.944L570.871 285.584L570.951 286.044L570.981 286.034Z" stroke="#101727" stroke-linecap="round" stroke-linejoin="round"/>
<path d="M573.449 226.974C573.449 226.974 572.019 220.624 562.379 220.624C552.739 220.624 550.839 225.794 550.839 225.794L549.559 211.184C549.559 211.184 549.499 211.104 549.469 211.064C549.439 211.024 549.409 210.984 549.369 210.944L546.699 253.674L551.209 261.484L558.649 263.154L564.919 261.934L581.599 258.694L583.379 207.284L573.449 226.954V226.974ZM556.209 241.634C555.079 241.634 554.169 240.684 554.169 239.514C554.169 238.344 555.089 237.394 556.209 237.394C557.329 237.394 558.249 238.344 558.249 239.514C558.249 240.684 557.329 241.634 556.209 241.634ZM556.509 232.004C555.379 232.004 554.469 231.054 554.469 229.884C554.469 228.714 555.389 227.764 556.509 227.764C557.629 227.764 558.549 228.714 558.549 229.884C558.549 231.054 557.629 232.004 556.509 232.004Z" fill="#EAE2CF"/>
<path d="M573.449 226.974C573.449 226.974 572.019 220.624 562.379 220.624C552.739 220.624 550.839 225.794 550.839 225.794L549.559 211.184C549.559 211.184 549.499 211.104 549.469 211.064C549.439 211.024 549.409 210.984 549.369 210.944L546.699 253.674L551.209 261.484L558.649 263.154L564.919 261.934L581.599 258.694L583.379 207.284L573.449 226.954V226.974ZM556.209 241.634C555.079 241.634 554.169 240.684 554.169 239.514C554.169 238.344 555.089 237.394 556.209 237.394C557.329 237.394 558.249 238.344 558.249 239.514C558.249 240.684 557.329 241.634 556.209 241.634ZM556.509 232.004C555.379 232.004 554.469 231.054 554.469 229.884C554.469 228.714 555.389 227.764 556.509 227.764C557.629 227.764 558.549 228.714 558.549 229.884C558.549 231.054 557.629 232.004 556.509 232.004Z" stroke="#101727" stroke-linecap="round" stroke-linejoin="round"/>
<path d="M553.399 265.284L551.099 265.714L539.309 245.294H541.859L546.698 253.684L551.208 261.494L553.399 265.284Z" fill="#01654D"/>
<path d="M553.399 265.284L551.099 265.714L539.309 245.294H541.859L546.698 253.684L551.208 261.494L553.399 265.284Z" stroke="#101727" stroke-linecap="round" stroke-linejoin="round"/>
<path d="M562.379 220.624C552.739 220.624 550.839 225.794 550.839 225.794L549.559 211.184C549.669 211.314 549.769 211.444 549.879 211.574C550.579 212.434 551.239 213.184 551.839 213.844C552.069 214.104 552.289 214.334 552.499 214.564C552.729 214.804 552.939 215.034 553.139 215.244L553.369 215.494C555.229 217.484 557.859 218.264 560.309 217.774C560.349 217.774 560.389 217.754 560.429 217.744L562.379 220.614V220.624Z" fill="#EAE2CF"/>
<path d="M562.379 220.624C552.739 220.624 550.839 225.794 550.839 225.794L549.559 211.184C549.669 211.314 549.769 211.444 549.879 211.574C550.579 212.434 551.239 213.184 551.839 213.844C552.069 214.104 552.289 214.334 552.499 214.564C552.729 214.804 552.939 215.034 553.139 215.244L553.369 215.494C555.229 217.484 557.859 218.264 560.309 217.774C560.349 217.774 560.389 217.754 560.429 217.744L562.379 220.614V220.624Z" stroke="#101727" stroke-linecap="round" stroke-linejoin="round"/>
<path d="M558.561 229.884C558.561 231.054 557.641 232.004 556.521 232.004C555.401 232.004 554.48 231.054 554.48 229.884C554.48 228.714 555.401 227.764 556.521 227.764C557.641 227.764 558.561 228.714 558.561 229.884Z" fill="#EAE2CF"/>
<path d="M558.561 229.884C558.561 231.054 557.641 232.004 556.521 232.004C555.401 232.004 554.48 231.054 554.48 229.884C554.48 228.714 555.401 227.764 556.521 227.764C557.641 227.764 558.561 228.714 558.561 229.884Z" stroke="#101727" stroke-linecap="round" stroke-linejoin="round"/>
<path d="M558.252 239.514C558.252 240.684 557.332 241.634 556.212 241.634C555.092 241.634 554.172 240.684 554.172 239.514C554.172 238.344 555.092 237.394 556.212 237.394C557.332 237.394 558.252 238.344 558.252 239.514Z" fill="#EAE2CF"/>
<path d="M558.252 239.514C558.252 240.684 557.332 241.634 556.212 241.634C555.092 241.634 554.172 240.684 554.172 239.514C554.172 238.344 555.092 237.394 556.212 237.394C557.332 237.394 558.252 238.344 558.252 239.514Z" stroke="#101727" stroke-linecap="round" stroke-linejoin="round"/>
<path d="M629.501 242.564L627.631 239.014L623.691 231.534C617.471 219.754 606.211 211.454 593.121 209.014L583.401 207.204L588.091 219.294L585.281 228.854L590.501 240.504L581.621 258.724L564.941 261.964L570.921 285.604L571.001 286.064L573.431 285.614L580.741 284.244L608.501 279.064L611.171 278.564L612.221 278.364C628.571 275.314 637.281 257.294 629.531 242.584L629.501 242.564ZM574.811 282.484C573.531 282.484 572.491 281.444 572.491 280.164C572.491 278.884 573.531 277.844 574.811 277.844C576.091 277.844 577.131 278.884 577.131 280.164C577.131 281.444 576.091 282.484 574.811 282.484Z" fill="white"/>
<path d="M629.501 242.564L627.631 239.014L623.691 231.534C617.471 219.754 606.211 211.454 593.121 209.014L583.401 207.204L588.091 219.294L585.281 228.854L590.501 240.504L581.621 258.724L564.941 261.964L570.921 285.604L571.001 286.064L573.431 285.614L580.741 284.244L608.501 279.064L611.171 278.564L612.221 278.364C628.571 275.314 637.281 257.294 629.531 242.584L629.501 242.564ZM574.811 282.484C573.531 282.484 572.491 281.444 572.491 280.164C572.491 278.884 573.531 277.844 574.811 277.844C576.091 277.844 577.131 278.884 577.131 280.164C577.131 281.444 576.091 282.484 574.811 282.484Z" stroke="#101727" stroke-linecap="round" stroke-linejoin="round"/>
<path d="M573.451 300.014H570.901L563.621 287.414L565.931 286.984L573.451 300.014Z" fill="#01654D"/>
<path d="M573.451 300.014H570.901L563.621 287.414L565.931 286.984L573.451 300.014Z" stroke="#101727" stroke-linecap="round" stroke-linejoin="round"/>
<path d="M580.721 284.224L579.901 307.914H542.141V300.014H573.451L565.931 286.984L570.981 286.044L573.411 285.584L580.721 284.224Z" fill="#EAE2CF"/>
<path d="M580.721 284.224L579.901 307.914H542.141V300.014H573.451L565.931 286.984L570.981 286.044L573.411 285.584L580.721 284.224Z" stroke="#101727" stroke-linecap="round" stroke-linejoin="round"/>
<path d="M590.482 240.494L581.602 258.714L583.382 207.304L583.392 207.194L588.072 219.284L585.262 228.844L590.482 240.494Z" fill="white"/>
<path d="M590.482 240.494L581.602 258.714L583.382 207.304L583.392 207.194L588.072 219.284L585.262 228.844L590.482 240.494Z" stroke="#101727" stroke-linecap="round" stroke-linejoin="round"/>
<path d="M583.389 207.194V207.294L573.449 226.964C573.449 226.964 572.019 220.614 562.379 220.614L583.379 207.194H583.389Z" fill="#EAE2CF"/>
<path d="M583.389 207.194V207.294L573.449 226.964C573.449 226.964 572.019 220.614 562.379 220.614L583.379 207.194H583.389Z" stroke="#101727" stroke-linecap="round" stroke-linejoin="round"/>
<path d="M574.809 278.354C575.812 278.354 576.628 279.17 576.628 280.174C576.628 281.178 575.812 281.993 574.809 281.994C573.805 281.994 572.988 281.178 572.988 280.174C572.988 279.17 573.805 278.354 574.809 278.354Z" fill="#E9BE51" stroke="#E9BE51"/>
<path d="M577.128 280.174C577.128 281.454 576.088 282.494 574.808 282.494C573.528 282.494 572.488 281.454 572.488 280.174C572.488 278.894 573.528 277.854 574.808 277.854C576.088 277.854 577.128 278.894 577.128 280.174Z" stroke="#101727" stroke-miterlimit="10"/>
<path d="M544.66 176.774C546.39 175.344 548.39 174.904 550.12 175.294" stroke="#101727" stroke-miterlimit="10"/>
<path d="M556.349 280.774L543.219 283.244L543.199 283.254" stroke="#101727" stroke-miterlimit="10"/>
<path d="M554.892 273.024L539.332 275.964" stroke="#101727" stroke-miterlimit="10"/>
<path d="M561.059 248.774C561.119 248.594 562.389 220.614 562.389 220.614" stroke="#101727" stroke-miterlimit="10"/>
<path d="M581.602 258.714L598.422 255.454C601.052 254.944 602.472 252.094 601.332 249.694C601.302 249.634 601.272 249.564 601.232 249.504L596.612 240.914" stroke="#101727" stroke-miterlimit="10"/>
<path d="M565.761 171.314C571.361 171.314 575.901 175.854 575.901 181.454C575.901 187.054 571.361 191.594 565.761 191.594C560.161 191.594 555.621 187.054 555.621 181.454C555.621 175.854 560.161 171.314 565.761 171.314Z" stroke="#E9BE51" stroke-miterlimit="10"/>
<path d="M542.96 171.754C548.56 171.754 553.1 176.294 553.1 181.894C553.1 187.494 548.56 192.034 542.96 192.034C537.36 192.034 532.82 187.494 532.82 181.894C532.82 176.294 537.36 171.754 542.96 171.754Z" stroke="#E9BE51" stroke-miterlimit="10"/>
<path d="M551.32 175.654C554.27 171.704 557.67 175.344 557.67 175.344" stroke="#E9BE51" stroke-miterlimit="10"/>
<path d="M574.082 175.654L584.642 175.264" stroke="#E9BE51" stroke-miterlimit="10"/>
<path d="M335.89 315.144H260.25V347.264H335.89V315.144Z" fill="#EAE2CF"/>
<path d="M676.481 468.634L1.13086 468.134" stroke="#101727" stroke-linecap="round" stroke-linejoin="round"/>
<path d="M260.58 347.264H335.57L298.07 315.144L260.58 347.264Z" stroke="#101727" stroke-linecap="round" stroke-linejoin="round"/>
<path d="M335.57 315.144H260.58L298.07 347.264L335.57 315.144Z" stroke="#101727" stroke-linecap="round" stroke-linejoin="round"/>
<path d="M260.43 347.264V315.144" stroke="#101727" stroke-miterlimit="10"/>
<path d="M335.891 315.144V347.264" stroke="#101727" stroke-miterlimit="10"/>
<path opacity="0.12" d="M513.518 193.204H314.238C308.458 193.204 303.738 188.474 303.738 182.704V93.6738C303.738 87.8938 308.468 83.1738 314.238 83.1738H513.518C519.298 83.1738 524.018 87.9038 524.018 93.6738V182.704C524.018 188.484 519.288 193.204 513.518 193.204Z" fill="#01654D"/>
<path d="M507.969 186.244H308.689C302.909 186.244 298.189 181.514 298.189 175.744V89.0039C298.189 83.2239 302.919 78.5039 308.689 78.5039H507.969C513.749 78.5039 518.469 83.2339 518.469 89.0039V175.744C518.469 181.524 513.739 186.244 507.969 186.244Z" fill="white"/>
<path d="M507.97 78.4939H308.68C302.881 78.4939 298.18 83.1949 298.18 88.9939V175.744C298.18 181.543 302.881 186.244 308.68 186.244H507.97C513.769 186.244 518.47 181.543 518.47 175.744V88.9939C518.47 83.1949 513.769 78.4939 507.97 78.4939Z" stroke="#101727" stroke-width="1.14" stroke-miterlimit="10"/>
<path d="M359.469 148.314H312.639C311.349 148.314 310.289 149.374 310.289 150.664C310.289 151.954 311.349 153.014 312.639 153.014H359.469C360.759 153.014 361.819 151.954 361.819 150.664C361.819 149.374 360.759 148.314 359.469 148.314Z" fill="#E5E7EB"/>
<path d="M343.051 158.494H312.651C311.361 158.494 310.301 159.554 310.301 160.844C310.301 162.134 311.361 163.194 312.651 163.194H343.051C344.341 163.194 345.401 162.134 345.401 160.844C345.401 159.554 344.341 158.494 343.051 158.494Z" fill="#E5E7EB"/>
<path d="M501.481 148.314H454.651C453.361 148.314 452.301 149.374 452.301 150.664C452.301 151.954 453.361 153.014 454.651 153.014H501.481C502.771 153.014 503.831 151.954 503.831 150.664C503.831 149.374 502.771 148.314 501.481 148.314Z" fill="#E5E7EB"/>
<path d="M485.051 158.494H454.651C453.361 158.494 452.301 159.554 452.301 160.844C452.301 162.134 453.361 163.194 454.651 163.194H485.051C486.341 163.194 487.401 162.134 487.401 160.844C487.401 159.554 486.341 158.494 485.051 158.494Z" fill="#E5E7EB"/>
<path d="M431.739 148.314H384.909C383.619 148.314 382.559 149.374 382.559 150.664C382.559 151.954 383.619 153.014 384.909 153.014H431.739C433.029 153.014 434.089 151.954 434.089 150.664C434.089 149.374 433.029 148.314 431.739 148.314Z" fill="#E5E7EB"/>
<path d="M415.309 158.494H384.909C383.619 158.494 382.559 159.554 382.559 160.844C382.559 162.134 383.619 163.194 384.909 163.194H415.309C416.599 163.194 417.659 162.134 417.659 160.844C417.659 159.554 416.599 158.494 415.309 158.494Z" fill="#E5E7EB"/>
<path d="M313.16 122.354C313.35 122.354 313.45 122.314 313.6 122.414C313.67 122.464 313.74 122.514 313.81 122.574C313.94 122.684 314.07 122.814 314.18 122.944C314.4 123.214 314.57 123.514 314.68 123.844C314.74 124.014 314.79 124.204 314.95 124.274C315.03 124.314 315.13 124.314 315.22 124.314C315.72 124.314 316.21 124.314 316.71 124.314L316.77 124.744C317.66 124.944 318.42 125.484 319.23 125.904C320.04 126.324 321 126.624 321.85 126.294L321.89 125.994C323 125.764 324.14 126.594 324.56 127.654C324.69 127.984 324.77 128.334 324.93 128.654C325.09 128.974 325.36 129.264 325.71 129.324C326.06 129.384 326.47 129.134 326.47 128.774C326.47 128.664 326.43 128.544 326.45 128.434C326.49 128.234 326.71 128.124 326.91 128.074C328.2 127.764 329.1 129.274 329.48 130.534C329.62 130.994 329.67 131.484 329.87 131.924C330.07 132.384 330.87 132.394 331.37 132.384C331.4 132.384 331.42 132.384 331.45 132.384C331.8 132.314 331.77 131.894 331.6 131.644C331.45 131.424 331.22 131.254 331.14 131.004C331.06 130.754 331.29 130.394 331.53 130.504C331.53 130.174 331.54 129.844 331.54 129.524C331.91 129.384 332.33 129.404 332.71 129.274C333.09 129.144 333.45 128.764 333.32 128.384C334 128.414 334.69 128.314 335.33 128.074C335.47 128.454 335.91 128.644 336.32 128.654C336.73 128.654 337.12 128.524 337.53 128.484C337.97 128.444 338.42 128.504 338.84 128.674C338.89 128.254 338.7 127.814 338.36 127.554C338.55 127.364 338.87 127.524 339.13 127.584C339.71 127.714 340.27 127.314 340.73 126.944C340.97 127.064 341.25 127.084 341.52 127.034C341.57 127.544 342.17 127.804 342.68 127.834C343.19 127.864 343.74 127.774 344.19 128.014C344.39 128.114 344.55 128.274 344.7 128.424C344.95 128.664 345.21 128.924 345.32 129.254C345.42 129.554 345.4 129.884 345.52 130.184C345.78 130.804 346.64 131.054 346.8 131.704C347.14 131.524 347.47 131.344 347.81 131.164C347.88 131.134 347.95 131.084 347.97 131.014C347.99 130.944 347.95 130.864 347.92 130.804C347.59 130.254 347.88 129.504 347.31 129.204C347.26 129.174 347.21 129.144 347.17 129.104C346.82 128.784 346.47 128.654 346.52 128.244C346.57 127.814 346.21 127.454 345.92 127.134C345.63 126.804 345.4 126.294 345.69 125.964C345.78 125.864 345.91 125.804 346.02 125.714C346.25 125.524 346.34 125.224 346.42 124.934C346.54 124.524 346.65 124.124 346.77 123.714C346.86 123.404 346.97 123.064 347.26 122.924C347.46 122.824 347.7 122.854 347.9 122.754C348.22 122.584 348.3 122.174 348.51 121.874C348.74 121.534 349.15 121.364 349.43 121.064C349.71 120.764 349.83 120.204 349.47 119.994C349.12 120.104 348.7 119.944 348.51 119.634C348.3 119.294 348.38 118.804 348.7 118.554C348.73 118.524 348.76 118.494 348.79 118.464C349.1 118.034 348.21 117.784 348.36 117.384C348.79 117.334 349.23 117.324 349.66 117.364C349.67 116.724 349.83 116.094 350.12 115.524C350.18 115.404 350.26 115.274 350.4 115.234C350.5 115.204 350.61 115.234 350.71 115.234C350.91 115.224 351.08 115.034 351.08 114.844C351.08 114.644 350.92 114.464 350.72 114.444C350.91 114.234 351.1 114.384 351.29 114.164C351.37 114.074 351.44 113.944 351.56 113.944C351.96 113.964 352.35 114.234 352.75 113.904C352.99 112.974 352 112.964 351.43 112.724C351.18 112.624 351.84 112.054 351.93 111.944C352.15 111.704 352.53 111.584 352.62 111.274C352.67 111.084 352.62 110.854 352.74 110.694C352.86 110.534 353.09 110.504 353.25 110.374C353.57 110.114 353.41 109.604 353.24 109.234C352.98 108.694 352.62 108.074 352.02 108.044C351.75 108.024 351.44 108.124 351.24 107.944C351 108.444 351.02 109.034 350.89 109.574C350.76 110.114 350.36 110.684 349.81 110.684C348.11 112.044 346.31 112.994 344.27 113.764V114.334C344.46 114.354 344.64 114.494 344.71 114.684C344.15 114.734 343.72 115.184 343.23 115.454C342.73 115.724 341.93 115.664 341.82 115.114C341.7 114.554 342.06 114.174 342.5 113.814C342.83 113.544 342.57 113.204 342.82 112.824C343.27 112.144 342.74 111.234 341.93 111.294C341.69 111.314 341.54 111.354 341.55 111.344C340.92 111.384 340.75 111.324 340.4 110.804C340.12 110.384 340.19 109.804 339.92 109.374C339.57 108.834 338.83 108.764 338.19 108.744C338.02 108.744 337.82 108.744 337.69 108.854C337.58 108.954 337.54 109.104 337.49 109.244C337.12 110.264 335.55 110.554 334.84 109.724C334.73 109.604 334.65 109.464 334.51 109.374C334.34 109.264 334.14 109.264 333.94 109.254C333.54 109.224 333.13 109.154 332.8 108.914C332.47 108.684 332.26 108.264 332.36 107.874C331.9 107.984 331.86 108.634 331.55 108.984C331.09 109.514 330.23 109.244 329.56 109.024C328.28 108.594 326.91 108.484 325.56 108.374C323.07 108.184 320.58 107.984 318.09 107.794C317.73 107.764 317.35 107.734 317.03 107.564C316.77 107.434 316.56 107.214 316.31 107.054C316.17 106.964 316.04 106.894 315.93 106.834C315.34 106.534 314.66 107.044 314.79 107.694C314.79 107.734 314.8 107.774 314.81 107.814C314.85 108.034 314.1 108.444 313.86 108.404C313.79 108.394 313.73 108.344 313.68 108.284L312.83 107.034C312.83 107.474 312.71 107.904 312.7 108.344C312.7 108.604 312.7 108.874 312.63 109.124C312.54 109.484 312.35 109.794 312.2 110.134C312.02 110.544 311.9 110.984 311.85 111.434C311.81 111.824 311.8 112.254 311.54 112.544C311.44 112.654 311.32 112.734 311.22 112.844C310.84 113.334 311.3 114.144 310.93 114.634C310.84 114.754 310.71 114.844 310.6 114.944C310.16 115.354 310.11 116.104 310.49 116.574C310.7 116.834 311 116.994 311.24 117.224C311.48 117.454 311.66 117.814 311.52 118.114C311.47 118.224 311.38 118.314 311.31 118.414C311.01 118.854 311.21 119.544 311.69 119.764C311.92 119.874 312.26 119.964 312.12 120.274C312.09 120.354 312.02 120.414 311.95 120.454C311.54 120.654 311.68 121.304 312.08 121.394C312.29 121.444 312.53 121.364 312.72 121.474C313.06 121.664 312.8 122.234 313.18 122.294" fill="#E9BE51"/>
<path d="M394.41 94.5338V112.714" stroke="#E5E7EB"/>
<path d="M388.5 112.484V121.794L393.06 126.344V135.424" stroke="#E5E7EB"/>
<path d="M413.492 94.5338V103.844L418.042 108.404V126.544" stroke="#E5E7EB"/>
<path d="M408.043 94.5338V135.424" stroke="#E5E7EB"/>
<path d="M380.781 103.624H394.411" stroke="#E5E7EB"/>
<path d="M380.781 112.484H408.041" stroke="#E5E7EB"/>
<path d="M380.781 121.794H388.501" stroke="#E5E7EB"/>
<path d="M393.062 126.544H427.932" stroke="#E5E7EB"/>
<path d="M408.043 117.484H427.933" stroke="#E5E7EB"/>
<path d="M394.41 99.9839C396.42 99.9839 398.05 101.614 398.05 103.624C398.05 105.634 396.42 107.254 394.41 107.254C392.4 107.254 390.77 105.624 390.77 103.624C390.77 101.624 392.4 99.9839 394.41 99.9839Z" stroke="#101727"/>
<path d="M388.5 124.524C390.007 124.524 391.229 123.302 391.229 121.794C391.229 120.286 390.007 119.064 388.5 119.064C386.992 119.064 385.77 120.286 385.77 121.794C385.77 123.302 386.992 124.524 388.5 124.524Z" stroke="#101727"/>
<path d="M407.59 122.874C409.35 122.874 410.77 124.294 410.77 126.054C410.77 127.814 409.35 129.234 407.59 129.234C405.83 129.234 404.41 127.814 404.41 126.054C404.41 124.294 405.83 122.874 407.59 122.874Z" fill="#E9BE51"/>
<path d="M407.59 129.234C409.346 129.234 410.77 127.81 410.77 126.054C410.77 124.298 409.346 122.874 407.59 122.874C405.834 122.874 404.41 124.298 404.41 126.054C404.41 127.81 405.834 129.234 407.59 129.234Z" stroke="#101727"/>
<path d="M418.04 115.204C419.29 115.204 420.31 116.224 420.31 117.474C420.31 118.724 419.29 119.744 418.04 119.744C416.79 119.744 415.77 118.724 415.77 117.474C415.77 116.224 416.79 115.204 418.04 115.204Z" fill="#A2B36B"/>
<path d="M418.04 115.204C419.29 115.204 420.31 116.224 420.31 117.474C420.31 118.724 419.29 119.744 418.04 119.744C416.79 119.744 415.77 118.724 415.77 117.474C415.77 116.224 416.79 115.204 418.04 115.204Z" stroke="#101727"/>
<path d="M427.931 94.5338H380.781V135.424H427.931V94.5338Z" stroke="#E5E7EB"/>
<mask id="mask0_2680_6236" style="mask-type:luminance" maskUnits="userSpaceOnUse" x="330" y="98" width="13" height="19">
<path d="M342.619 98.6139H330.789V116.224H342.619V98.6139Z" fill="white"/>
</mask>
<g mask="url(#mask0_2680_6236)">
<mask id="mask1_2680_6236" style="mask-type:luminance" maskUnits="userSpaceOnUse" x="330" y="98" width="13" height="19">
<path d="M342.619 98.6139H330.789V116.224H342.619V98.6139Z" fill="white"/>
</mask>
<g mask="url(#mask1_2680_6236)">
<path d="M336.697 98.6139C333.427 98.6139 330.777 101.264 330.777 104.534C330.777 110.234 336.697 116.234 336.697 116.234C336.697 116.234 342.617 110.184 342.617 104.534C342.617 101.264 339.967 98.6139 336.697 98.6139ZM336.697 107.424C335.177 107.424 333.937 106.194 333.937 104.664C333.937 103.134 335.167 101.904 336.697 101.904C338.227 101.904 339.457 103.134 339.457 104.664C339.457 106.194 338.227 107.424 336.697 107.424Z" fill="#01654D"/>
<path d="M336.708 107.394C338.248 107.394 339.498 106.144 339.498 104.604C339.498 103.064 338.248 101.814 336.708 101.814C335.168 101.814 333.918 103.064 333.918 104.604C333.918 106.144 335.168 107.394 336.708 107.394Z" fill="white"/>
</g>
</g>
<path opacity="0.12" d="M218.67 185.064C214.16 185.534 209.6 186.704 205.4 187.384C202.74 187.804 199.67 188.084 197.74 186.234C195.94 184.514 195.94 181.694 195.6 179.214C194.71 172.454 190.39 166.244 184.34 163.114C178.29 159.984 170.71 160.004 164.69 163.194C158.67 166.374 154.37 172.614 153.53 179.374C153.35 180.914 153.32 182.484 152.83 183.944C151.84 186.864 149.02 187.704 146.21 187.674C137.24 187.594 129.24 182.844 120.33 185.844C117.02 186.964 113.94 188.874 111.7 191.584C111.05 192.394 106.62 202.104 107.89 202.104H241.38C242.61 202.104 238.33 192.524 237.68 191.724C235.44 188.954 232.34 187.004 228.97 185.854C225.71 184.754 222.22 184.684 218.7 185.044L218.67 185.074V185.064Z" fill="#01654D"/>
</svg>
