<svg width="887" height="476" viewBox="0 0 887 476" fill="none" xmlns="http://www.w3.org/2000/svg">
<g clip-path="url(#clip0_2463_3)">
<path opacity="0.12" d="M340.44 432.65V367.65L311.21 342.84L286.27 362.47L257.41 336.92L191 395.93V411.96L182.64 404.86L162.33 422.63V457.05C162.02 454.08 161.16 451.21 158.38 451.21C155.13 451.21 154.49 455.13 154.31 458.56C154.3 458.78 154.17 458.97 153.98 459.08C152.96 459.64 152.18 460.6 151.84 461.74C151.38 461.42 150.84 461.22 150.24 461.2C148.5 461.14 147.06 462.53 147.06 464.26V464.73C147.06 465 146.93 465.26 146.71 465.43C146 465.98 145.54 466.83 145.52 467.78C145.48 469.5 146.94 470.91 148.66 470.91H149.89V474.86H150.34V470.91H151.57C153.29 470.91 154.75 469.5 154.71 467.78C154.71 467.59 154.68 467.4 154.64 467.21C155.14 467.39 155.67 467.49 156.22 467.49H157.91V474.86H158.8V467.49H160.49C161.13 467.49 161.75 467.36 162.31 467.12V474.86H340.41V432.64L340.44 432.65Z" fill="#01654D"/>
<path opacity="0.12" d="M47.4501 456.32V437.84L76.5201 403.16L104.71 437.84V422.88L123.92 414.17L142.54 422.88V474.88H32.5801V461.4L47.4501 456.32Z" fill="#01654D"/>
<path d="M425.57 201.01L509.27 345.69H859.57V474.99H328.85V330.11L425.57 201.01Z" fill="#EAE2CF" stroke="#101727" stroke-miterlimit="10"/>
<path d="M859.639 345.689H509.539V475.089H859.639V345.689Z" fill="#DDD2BA" stroke="#101727" stroke-miterlimit="10"/>
<path d="M876.28 333.8L869.42 345.69H509.27L338.74 50.9095L345.61 39.0195H706.09L876.28 333.8Z" fill="#01654D" stroke="black" stroke-miterlimit="10"/>
<path d="M515.799 333.8H876.279L706.089 39.0195H345.609L515.799 333.8Z" fill="#D5CDB9" stroke="black" stroke-miterlimit="10"/>
<path d="M786.161 333.799H876.281L855.011 296.959H764.891L786.161 333.799Z" fill="#E7BC52" stroke="black" stroke-miterlimit="10"/>
<path d="M696.039 333.799H786.159L764.89 296.959H674.77L696.039 333.799Z" fill="#E7BC52" stroke="black" stroke-miterlimit="10"/>
<path d="M605.918 333.799H696.038L674.768 296.959H584.648L605.918 333.799Z" fill="#E7BC52" stroke="black" stroke-miterlimit="10"/>
<path d="M515.799 333.799H605.919L584.649 296.959H494.529L515.799 333.799Z" fill="#E7BC52" stroke="black" stroke-miterlimit="10"/>
<path d="M809.948 296.959H855.008L833.728 260.109H788.668L809.948 296.959Z" fill="#E7BC52" stroke="black" stroke-miterlimit="10"/>
<path d="M719.831 296.959H809.951L788.671 260.109H698.551L719.831 296.959Z" fill="#E7BC52" stroke="black" stroke-miterlimit="10"/>
<path d="M629.7 296.959H719.83L698.55 260.109H608.43L629.7 296.959Z" fill="#E7BC52" stroke="black" stroke-miterlimit="10"/>
<path d="M539.579 296.959H629.699L608.429 260.109H518.309L539.579 296.959Z" fill="#E7BC52" stroke="black" stroke-miterlimit="10"/>
<path d="M494.53 296.959H539.58L518.31 260.109H473.25L494.53 296.959Z" fill="#E7BC52" stroke="black" stroke-miterlimit="10"/>
<path d="M743.61 260.11H833.73L812.46 223.26H722.34L743.61 260.11Z" fill="#E7BC52" stroke="black" stroke-miterlimit="10"/>
<path d="M653.489 260.11H743.609L722.339 223.26H632.219L653.489 260.11Z" fill="#E7BC52" stroke="black" stroke-miterlimit="10"/>
<path d="M563.37 260.11H653.49L632.22 223.26H542.1L563.37 260.11Z" fill="#E7BC52" stroke="black" stroke-miterlimit="10"/>
<path d="M473.249 260.11H563.368L542.098 223.26H451.979L473.249 260.11Z" fill="#E7BC52" stroke="black" stroke-miterlimit="10"/>
<path d="M767.401 223.26H812.461L791.191 186.41H746.121L767.401 223.26Z" fill="#E7BC52" stroke="black" stroke-miterlimit="10"/>
<path d="M677.28 223.26H767.4L746.12 186.41H656L677.28 223.26Z" fill="#E7BC52" stroke="black" stroke-miterlimit="10"/>
<path d="M587.159 223.26H677.279L655.999 186.41H565.879L587.159 223.26Z" fill="#E7BC52" stroke="black" stroke-miterlimit="10"/>
<path d="M497.04 223.26H587.16L565.88 186.41H475.76L497.04 223.26Z" fill="#E7BC52" stroke="black" stroke-miterlimit="10"/>
<path d="M451.979 223.26H497.039L475.759 186.41H430.699L451.979 223.26Z" fill="#E7BC52" stroke="black" stroke-miterlimit="10"/>
<path d="M701.069 186.41H791.189L769.909 149.57H679.789L701.069 186.41Z" fill="#E7BC52" stroke="black" stroke-miterlimit="10"/>
<path d="M610.95 186.41H701.07L679.79 149.57H589.67L610.95 186.41Z" fill="#E7BC52" stroke="black" stroke-miterlimit="10"/>
<path d="M520.819 186.41H610.949L589.669 149.57H499.549L520.819 186.41Z" fill="#E7BC52" stroke="black" stroke-miterlimit="10"/>
<path d="M430.7 186.41H520.82L499.55 149.57H409.43L430.7 186.41Z" fill="#E7BC52" stroke="black" stroke-miterlimit="10"/>
<path d="M724.848 149.569H769.908L748.638 112.719H703.578L724.848 149.569Z" fill="#E7BC52" stroke="black" stroke-miterlimit="10"/>
<path d="M634.729 149.569H724.849L703.579 112.719H613.459L634.729 149.569Z" fill="#E7BC52" stroke="black" stroke-miterlimit="10"/>
<path d="M544.61 149.569H634.73L613.46 112.719H523.34L544.61 149.569Z" fill="#E7BC52" stroke="black" stroke-miterlimit="10"/>
<path d="M454.489 149.569H544.609L523.339 112.719H433.209L454.489 149.569Z" fill="#E7BC52" stroke="black" stroke-miterlimit="10"/>
<path d="M409.43 149.569H454.49L433.21 112.719H388.16L409.43 149.569Z" fill="#E7BC52" stroke="black" stroke-miterlimit="10"/>
<path d="M658.52 112.719H748.64L727.37 75.8691H637.24L658.52 112.719Z" fill="#E7BC52" stroke="black" stroke-miterlimit="10"/>
<path d="M568.399 112.719H658.519L637.239 75.8691H547.119L568.399 112.719Z" fill="#E7BC52" stroke="black" stroke-miterlimit="10"/>
<path d="M478.28 112.719H568.4L547.12 75.8691H457L478.28 112.719Z" fill="#E7BC52" stroke="black" stroke-miterlimit="10"/>
<path d="M388.159 112.719H478.279L456.999 75.8691H366.879L388.159 112.719Z" fill="#E7BC52" stroke="black" stroke-miterlimit="10"/>
<path d="M682.301 75.8695H727.371L706.091 39.0195H661.031L682.301 75.8695Z" fill="#E7BC52" stroke="black" stroke-miterlimit="10"/>
<path d="M592.18 75.8695H682.3L661.03 39.0195H570.91L592.18 75.8695Z" fill="#E7BC52" stroke="black" stroke-miterlimit="10"/>
<path d="M502.059 75.8695H592.179L570.909 39.0195H480.789L502.059 75.8695Z" fill="#E7BC52" stroke="black" stroke-miterlimit="10"/>
<path d="M411.94 75.8695H502.06L480.79 39.0195H390.67L411.94 75.8695Z" fill="#E7BC52" stroke="black" stroke-miterlimit="10"/>
<path d="M366.879 75.8695H411.939L390.669 39.0195H345.609L366.879 75.8695Z" fill="#E7BC52" stroke="black" stroke-miterlimit="10"/>
<path d="M652.491 303.49L645.961 315.38H517.691L369.141 57.4701L375.671 45.5801H503.581L652.491 303.49Z" fill="#01654D" stroke="black" stroke-miterlimit="10"/>
<path d="M524.58 303.49H652.49L503.58 45.5801H375.67L524.58 303.49Z" fill="#D5CDB9" stroke="black" stroke-miterlimit="10"/>
<path d="M636.229 293.181L499.219 55.8906H391.939L528.939 293.181H636.229Z" fill="#01654D"/>
<path d="M704.131 164.47L664.961 83.9802C684.251 77.4102 723.971 157.65 723.971 157.65" fill="#E7DFCD"/>
<path d="M704.131 164.47L664.961 83.9802C684.251 77.4102 723.971 157.65 723.971 157.65" stroke="black" stroke-miterlimit="10"/>
<path d="M669.54 307.38H680.44L768.6 256.3L619.75 0.679688H608.84" fill="#01654D"/>
<path d="M669.54 307.38H680.44L768.6 256.3L619.75 0.679688H608.84" stroke="black" stroke-miterlimit="10"/>
<path d="M521.023 51.8322L669.875 307.381L757.693 256.228L608.841 0.679611L521.023 51.8322Z" fill="#D5CDB9" stroke="black" stroke-miterlimit="10"/>
<path d="M533.359 58.3259L670.312 293.447L745.351 249.739L608.397 14.6175L533.359 58.3259Z" fill="#01654D"/>
<path d="M533.093 57.8669L670.047 292.988L745.085 249.28L608.131 14.1585L533.093 57.8669Z" stroke="black" stroke-miterlimit="10"/>
<path d="M753.65 227.211L759.17 229.111C765.99 231.461 770.98 237.361 772.18 244.481L778.02 279.231L808.51 271.151L815.31 307.661L762.36 315.521C755.88 316.481 749.8 312.161 748.58 305.721L741.82 270.041L740.43 262.881L753.65 227.221V227.211Z" fill="#04654D" stroke="black" stroke-miterlimit="10"/>
<path d="M732.092 163.68C758.682 170.42 793.352 228.78 793.352 228.78L724.302 232.24C724.302 232.24 719.162 199.39 709.602 181.75L732.092 163.68Z" fill="#E7DFCD" stroke="black" stroke-miterlimit="10"/>
<path d="M760.721 201.879L774.461 198.779L770.621 194.029L758.141 196.799L760.721 201.879Z" fill="#04654D" stroke="black" stroke-miterlimit="10"/>
<path d="M766.15 218.14C766.15 218.14 749.189 177.91 736.469 174.14C729.699 172.13 723.27 178.56 723.27 178.56L724.69 172.18C724.69 172.18 732.48 168.79 739.43 171.67C752.07 176.92 769.919 217.15 769.919 217.15L766.159 218.14H766.15Z" fill="#04654D" stroke="black" stroke-miterlimit="10"/>
<path d="M696.64 147.129C693.77 169.009 703.06 179.849 706.56 183.919L706.74 184.129C708.18 185.799 710.3 186.559 712.35 186.289C713.31 186.159 714.25 185.819 715.1 185.229L715.29 185.099C719.72 182.079 731.46 174.049 734.39 152.129L696.65 147.119L696.64 147.129Z" fill="#E7DFCD" stroke="black" stroke-miterlimit="10"/>
<path d="M715.611 121.44L722.741 122.38C731.191 123.5 737.141 131.26 736.021 139.71L734.381 152.13L696.641 147.14L698.281 134.72C699.401 126.27 707.161 120.32 715.611 121.44Z" fill="#E7BC52" stroke="black" stroke-miterlimit="10"/>
<path d="M734.378 152.12L686.688 145.82C685.788 145.7 685.148 144.87 685.268 143.97C685.388 143.07 686.218 142.43 687.118 142.55L707.328 145.22" fill="#E7BC52"/>
<path d="M734.378 152.12L686.688 145.82C685.788 145.7 685.148 144.87 685.268 143.97C685.388 143.07 686.218 142.43 687.118 142.55L707.328 145.22" stroke="black" stroke-miterlimit="10"/>
<path d="M734.38 152.13C738.73 150.66 741.26 155.47 739.12 159.36C736.98 163.24 734.02 163.09 731.68 162.99" fill="#E7DFCD"/>
<path d="M734.38 152.13C738.73 150.66 741.26 155.47 739.12 159.36C736.98 163.24 734.02 163.09 731.68 162.99" stroke="black" stroke-miterlimit="10"/>
<path d="M708.979 175.04C709.239 175.04 709.509 175.03 709.779 175.01C711.869 174.85 713.929 174.05 715.149 172.93L714.459 172.17C712.419 174.03 707.199 174.95 704.849 172.52L704.109 173.24C705.239 174.41 706.959 175.04 708.989 175.04H708.979Z" fill="#E7DFCD" stroke="black" stroke-miterlimit="10"/>
<path d="M711.026 128.194L707.797 133.023L709.701 134.296L712.93 129.467L711.026 128.194Z" fill="#04654D"/>
<path d="M710.83 135.09C708.76 137.79 706.64 138.44 705.39 138.66C705.12 137.41 704.91 135.19 706.66 132.21C706.59 132.14 706.53 132.07 706.46 131.99C705.97 131.43 705.54 130.84 705.19 130.25C702.07 134.93 702.96 138.44 703.3 139.76V139.82C703.38 140.07 703.5 140.3 703.66 140.48C704.01 140.88 704.54 141.09 705.09 141.01H705.16C706.51 140.81 710.11 140.3 713.24 135.63C712.43 135.55 711.62 135.37 710.82 135.08L710.83 135.09Z" fill="white"/>
<path d="M732.47 223.45L728.61 197.35L725.84 198.43L729.15 223.99L732.47 223.45Z" fill="#04654D" stroke="black" stroke-miterlimit="10"/>
<path d="M721.912 229.519L790.062 220.449L786.132 214.369L721.012 223.049L721.912 229.519Z" fill="#04654D" stroke="black" stroke-miterlimit="10"/>
<path d="M686.112 105.989L673.582 106.119C671.792 106.149 670.322 104.729 670.282 102.939C670.252 101.149 671.672 99.6792 673.462 99.6392L682.232 99.5092C683.882 99.5092 683.422 97.4492 683.422 97.4492" fill="#E7DFCD"/>
<path d="M686.112 105.989L673.582 106.119C671.792 106.149 670.322 104.729 670.282 102.939C670.252 101.149 671.672 99.6792 673.462 99.6392L682.232 99.5092C683.882 99.5092 683.422 97.4492 683.422 97.4492" stroke="black" stroke-miterlimit="10"/>
<path d="M732.001 299.81L731.201 320.38L685.561 319.97C685.561 319.97 679.211 306.07 701.621 306.27C701.581 302.99 701.331 299.27 701.331 299.27L731.991 299.81H732.001Z" fill="#E7DFCD" stroke="black" stroke-miterlimit="10"/>
<path d="M792.01 228.85L716.91 232.62C706.76 233.13 698.87 241.65 699.16 251.81L700.38 295.44L735.33 293.15L735.6 269.39L763.28 267.31C779.47 266.09 792.06 252.73 792.31 236.49L792 228.84L792.01 228.85Z" fill="#04654D" stroke="black" stroke-miterlimit="10"/>
<path d="M696.921 301.11H738.841L740.211 289.77H695.551L696.921 301.11Z" fill="#04654D" stroke="black" stroke-miterlimit="10"/>
<path d="M722.53 122.27C717.71 121.6 714.46 124.64 714.32 124.77" stroke="black" stroke-miterlimit="10"/>
<path d="M446.93 55.7598L584.01 293.18" stroke="#EAE2CF" stroke-miterlimit="10"/>
<path d="M526.681 102.68H419.391" stroke="#EAE2CF" stroke-miterlimit="10"/>
<path d="M553.819 150.65H446.529" stroke="#EAE2CF" stroke-miterlimit="10"/>
<path d="M581.52 198.109H474.23" stroke="#EAE2CF" stroke-miterlimit="10"/>
<path d="M608.38 245.57H501.09" stroke="#EAE2CF" stroke-miterlimit="10"/>
<path d="M570.84 37.8105L698.48 256.831" stroke="#EAE2CF" stroke-miterlimit="10"/>
<path d="M635.97 62.25L560.93 105.95" stroke="#EAE2CF" stroke-miterlimit="10"/>
<path d="M663.88 110.16L588.84 153.87" stroke="#EAE2CF" stroke-miterlimit="10"/>
<path d="M690.75 156.289L616.23 200.889" stroke="#EAE2CF" stroke-miterlimit="10"/>
<path d="M643.619 247.911L656.929 240.811" stroke="#EAE2CF" stroke-miterlimit="10"/>
<path d="M712.729 183.061L684.089 202.601L669.779 212.361L659.749 209.561C658.079 209.091 656.309 209.941 655.629 211.541C654.839 213.391 655.779 215.521 657.689 216.181L662.249 217.751L648.259 227.881C647.229 228.621 646.669 229.851 646.769 231.121C646.879 232.461 647.729 233.641 648.969 234.161L651.249 235.131V236.201C651.249 238.761 653.459 240.761 656.009 240.491L657.689 240.311L658.449 242.071C659.559 244.661 662.489 245.941 665.149 245.011L665.499 244.891L736.539 193.681" fill="#E7DFCD"/>
<path d="M712.729 183.061L684.089 202.601L669.779 212.361L659.749 209.561C658.079 209.091 656.309 209.941 655.629 211.541C654.839 213.391 655.779 215.521 657.689 216.181L662.249 217.751L648.259 227.881C647.229 228.621 646.669 229.851 646.769 231.121C646.879 232.461 647.729 233.641 648.969 234.161L651.249 235.131V236.201C651.249 238.761 653.459 240.761 656.009 240.491L657.689 240.311L658.449 242.071C659.559 244.661 662.489 245.941 665.149 245.011L665.499 244.891L736.539 193.681" stroke="black" stroke-miterlimit="10"/>
<path d="M711.52 183.881C723.95 188.071 723.19 203.321 723.19 203.321L711.52 183.881Z" fill="#E7DFCD"/>
<path d="M711.52 183.881C723.95 188.071 723.19 203.321 723.19 203.321" stroke="black" stroke-miterlimit="10"/>
<path d="M716.97 166.831C724.72 163.511 726.12 158.511 727.57 151.301L734.38 152.201C731.45 174.121 719.71 182.151 715.28 185.171L715.09 185.301C714.24 185.881 713.3 186.231 712.34 186.361C710.29 186.631 708.16 185.881 706.73 184.201L706.55 183.991C704.19 181.231 699.18 175.391 697.07 165.151C702.79 169.111 710.3 169.701 716.97 166.841V166.831Z" fill="#101727" stroke="black" stroke-miterlimit="10"/>
<path d="M710.55 153.58C709.95 157.24 708.86 159.89 705.06 162.62C704.15 163.28 704.1 163.92 704.15 164.25C704.23 164.77 704.63 165.25 705.29 165.39C707.21 165.78 709.51 164.86 711.17 163.17" stroke="black" stroke-miterlimit="10"/>
<path d="M716.222 158.681C715.132 158.681 714.182 157.871 714.032 156.761C713.952 156.181 714.112 155.601 714.472 155.131C714.832 154.661 715.352 154.361 715.932 154.291C717.142 154.131 718.252 154.981 718.402 156.191C718.482 156.771 718.322 157.351 717.962 157.821C717.602 158.291 717.082 158.591 716.502 158.661C716.402 158.671 716.312 158.681 716.212 158.681H716.222Z" stroke="black" stroke-miterlimit="10"/>
<path d="M701.091 156.069C701.011 155.489 701.171 154.909 701.531 154.439C701.891 153.969 702.41 153.669 702.99 153.599C704.2 153.439 705.31 154.289 705.46 155.499C705.54 156.079 705.38 156.659 705.02 157.129C704.66 157.599 704.14 157.899 703.56 157.969C703.46 157.979 703.37 157.989 703.27 157.989C702.18 157.989 701.23 157.179 701.08 156.069" stroke="black" stroke-miterlimit="10"/>
<path d="M705.02 173.08C706.15 174.25 707.87 174.88 709.9 174.88C710.16 174.88 710.43 174.87 710.7 174.85C712.79 174.69 714.85 173.89 716.07 172.77" stroke="#E9E1CE" stroke-miterlimit="10"/>
<path d="M720.451 154.67C720.451 154.67 719.331 152.63 716.391 152.49" stroke="black" stroke-miterlimit="10"/>
<path d="M651.25 235.121L664.13 226.381" stroke="black" stroke-miterlimit="10"/>
<path d="M656.93 240.811L669.81 232.061" stroke="black" stroke-miterlimit="10"/>
<path d="M219.46 45.5801H122.11C118.884 45.5801 116.27 48.1947 116.27 51.4201V148.77C116.27 151.995 118.884 154.61 122.11 154.61H219.46C222.685 154.61 225.3 151.995 225.3 148.77V51.4201C225.3 48.1947 222.685 45.5801 219.46 45.5801Z" fill="white" stroke="#101727" stroke-miterlimit="10"/>
<path d="M211.58 45.5801H219.46C222.68 45.5801 225.3 48.1901 225.3 51.4201V125.07" stroke="#101727" stroke-miterlimit="10"/>
<path d="M225.3 137.3V148.77C225.3 151.99 222.69 154.61 219.46 154.61H122.1C118.88 154.61 116.26 152 116.26 148.77V51.4201C116.26 48.2001 118.87 45.5801 122.1 45.5801H202.25" stroke="#101727" stroke-miterlimit="10"/>
<path d="M113.85 154.61C110.63 154.61 108.01 152 108.01 148.77V51.4199" stroke="#101727" stroke-miterlimit="10"/>
<path d="M125.391 76.2398V58.8398H132.891C134.181 58.8398 135.311 59.0998 136.281 59.5998C137.251 60.1098 138.001 60.8298 138.551 61.7498C139.091 62.6798 139.361 63.7598 139.361 64.9998C139.361 66.2398 139.081 67.3198 138.531 68.2298C137.981 69.1398 137.201 69.8398 136.211 70.3298C135.211 70.8198 134.051 71.0698 132.731 71.0698H128.251V67.3998H131.781C132.341 67.3998 132.821 67.2998 133.221 67.0998C133.621 66.8998 133.921 66.6198 134.131 66.2698C134.341 65.9098 134.451 65.4898 134.451 64.9998C134.451 64.5098 134.341 64.0598 134.131 63.7098C133.921 63.3598 133.621 63.0898 133.221 62.8998C132.821 62.7098 132.341 62.6198 131.781 62.6198H130.121V76.2398H125.401H125.391Z" fill="#01654D"/>
<path d="M141.09 76.2398V58.8398H153.63V62.6498H145.81V65.5898H152.98V69.2998H145.81V72.4298H153.59V76.2398H141.1H141.09Z" fill="#01654D"/>
<path d="M155.74 76.2398V58.8398H163.24C164.53 58.8398 165.66 59.0798 166.63 59.5498C167.6 60.0198 168.35 60.6998 168.9 61.5798C169.44 62.4598 169.71 63.5198 169.71 64.7498C169.71 65.9798 169.43 67.0498 168.88 67.8998C168.33 68.7598 167.55 69.3998 166.56 69.8398C165.56 70.2798 164.4 70.4898 163.08 70.4898H158.6V66.8198H162.13C162.69 66.8198 163.17 66.7498 163.57 66.6098C163.97 66.4698 164.27 66.2498 164.48 65.9398C164.69 65.6298 164.8 65.2398 164.8 64.7398C164.8 64.2398 164.69 63.8398 164.48 63.5298C164.27 63.2198 163.97 62.9898 163.57 62.8398C163.17 62.6898 162.69 62.6198 162.13 62.6198H160.47V76.2398H155.75H155.74ZM165.15 76.2398L160.9 68.2498H165.92L170.29 76.2398H165.15Z" fill="#01654D"/>
<path d="M171.711 76.2398V58.8398H179.161L180.721 64.2798C180.851 64.7498 181.001 65.3698 181.181 66.1398C181.351 66.9098 181.521 67.7398 181.691 68.6198C181.861 69.4998 182.011 70.3498 182.151 71.1698C182.291 71.9798 182.401 72.6698 182.481 73.2298H181.601C181.681 72.6698 181.781 71.9798 181.921 71.1698C182.061 70.3598 182.211 69.5098 182.381 68.6198C182.551 67.7398 182.711 66.9098 182.881 66.1398C183.051 65.3698 183.201 64.7498 183.331 64.2798L184.871 58.8398H192.331V76.2398H187.571V69.5098C187.571 69.1098 187.571 68.5898 187.601 67.9298C187.621 67.2698 187.641 66.5498 187.661 65.7598C187.681 64.9698 187.701 64.1798 187.721 63.3898C187.741 62.5998 187.751 61.8598 187.751 61.1898H188.021C187.881 61.9298 187.721 62.6998 187.541 63.4998C187.361 64.2998 187.181 65.0798 186.991 65.8398C186.801 66.5998 186.621 67.2998 186.451 67.9298C186.281 68.5598 186.131 69.0898 186.011 69.5098L183.991 76.2398H180.071L178.011 69.5098C177.891 69.0898 177.741 68.5598 177.561 67.9298C177.381 67.2998 177.201 66.5998 177.011 65.8398C176.821 65.0798 176.631 64.2998 176.441 63.4998C176.261 62.6998 176.091 61.9298 175.941 61.1898H176.281C176.281 61.8598 176.281 62.5898 176.311 63.3898C176.331 64.1798 176.351 64.9698 176.371 65.7598C176.391 66.5498 176.411 67.2698 176.431 67.9298C176.451 68.5898 176.461 69.1198 176.461 69.5098V76.2398H171.701H171.711Z" fill="#01654D"/>
<path d="M199.3 58.8398V76.2398H194.58V58.8398H199.3Z" fill="#01654D"/>
<path d="M201.071 62.6498V58.8398H216.181V62.6498H210.981V76.2398H206.261V62.6498H201.061H201.071Z" fill="#01654D"/>
<path d="M140.131 116.43C147.41 116.43 153.311 110.529 153.311 103.25C153.311 95.9712 147.41 90.0703 140.131 90.0703C132.852 90.0703 126.951 95.9712 126.951 103.25C126.951 110.529 132.852 116.43 140.131 116.43Z" fill="#E9BE51" stroke="#101727" stroke-miterlimit="10"/>
<path d="M133.012 102.88L138.472 107.67L147.262 98.8301" stroke="#01654D" stroke-miterlimit="10"/>
<path d="M126.33 124.34H215.24" stroke="#101727" stroke-miterlimit="10"/>
<path d="M163.52 98.8301H215.24" stroke="#101727" stroke-miterlimit="10"/>
<path d="M163.52 107.34H215.24" stroke="#101727" stroke-miterlimit="10"/>
<path d="M163.52 115.84H215.24" stroke="#101727" stroke-miterlimit="10"/>
<path d="M126.33 132.85H215.24" stroke="#101727" stroke-miterlimit="10"/>
<path d="M126.33 141.35H215.24" stroke="#101727" stroke-miterlimit="10"/>
<path d="M420.26 475.09H433.31C433.31 472.04 431.21 469.47 428.37 468.76C427.86 468.63 427.33 468.57 426.78 468.57C423.17 468.57 420.25 471.5 420.25 475.1L420.26 475.09Z" fill="#01654D"/>
<path d="M472.35 475.091H485.4C485.4 471.491 482.47 468.561 478.87 468.561C478.1 468.561 477.36 468.691 476.67 468.941C474.15 469.841 472.34 472.251 472.34 475.081L472.35 475.091Z" fill="#01654D"/>
<path d="M427.699 472.431C427.699 473.351 427.819 474.241 428.049 475.091H448.139C448.369 474.241 448.489 473.351 448.489 472.431C448.489 468.661 446.489 465.371 443.489 463.551C441.919 462.591 440.069 462.041 438.089 462.041C433.649 462.041 429.849 464.831 428.369 468.761C427.929 469.901 427.699 471.141 427.699 472.431Z" fill="#01654D"/>
<path d="M473.381 472.431C473.381 473.351 473.501 474.241 473.731 475.091H493.821C494.051 474.241 494.171 473.351 494.171 472.431C494.171 468.661 492.171 465.371 489.171 463.551C487.601 462.591 485.751 462.041 483.771 462.041C479.331 462.041 475.531 464.831 474.051 468.761C473.611 469.901 473.381 471.141 473.381 472.431Z" fill="#01654D"/>
<path d="M441.961 469.54C441.961 471.46 442.201 473.31 442.681 475.09H485.011C485.481 473.31 485.731 471.46 485.731 469.54C485.731 468.81 485.701 468.08 485.631 467.36C484.531 456.31 475.211 447.66 463.851 447.66C454.971 447.66 447.311 452.96 443.891 460.58C442.651 463.32 441.971 466.36 441.971 469.55L441.961 469.54Z" fill="#01654D"/>
<path d="M426.789 468.57C427.339 468.57 427.869 468.64 428.379 468.76C429.859 464.83 433.649 462.04 438.099 462.04C439.829 462.04 441.469 462.46 442.909 463.22C443.179 462.31 443.509 461.43 443.889 460.58C447.319 452.97 454.969 447.66 463.849 447.66C473.309 447.66 481.359 453.66 484.419 462.06C486.149 462.17 487.769 462.69 489.169 463.55C492.169 465.37 494.169 468.66 494.169 472.43C494.169 473.35 494.049 474.24 493.819 475.09H485.019H473.729H448.149H442.689H433.329H428.069H420.279C420.279 471.49 423.199 468.56 426.809 468.56L426.789 468.57Z" fill="#01654D"/>
<path d="M606.269 471.829H527.979C523.759 469.139 520.949 464.419 520.949 459.039C520.949 454.079 523.329 449.669 527.019 446.909C526.919 446.099 526.859 445.269 526.859 444.439C526.859 433.479 535.739 424.599 546.699 424.599C548.599 424.599 550.439 424.869 552.179 425.369C555.089 415.629 564.109 408.529 574.789 408.529C587.109 408.529 597.209 417.969 598.289 429.999C608.409 432.659 615.869 441.869 615.869 452.819C615.869 460.609 612.089 467.519 606.259 471.819L606.269 471.829Z" fill="#888B54"/>
<path d="M530.661 475.091H479.481C476.721 473.331 474.891 470.241 474.891 466.731C474.891 463.491 476.451 460.611 478.861 458.801C478.791 458.271 478.761 457.731 478.761 457.181C478.761 450.021 484.571 444.211 491.731 444.211C492.971 444.211 494.181 444.391 495.311 444.721C497.211 438.361 503.111 433.721 510.091 433.721C518.141 433.721 524.751 439.891 525.451 447.761C532.061 449.501 536.941 455.521 536.941 462.681C536.941 467.771 534.471 472.291 530.661 475.101V475.091Z" fill="#888B54"/>
<path d="M495.669 406.99C494.129 405.32 493.189 403.09 493.189 400.64C493.189 395.44 497.399 391.23 502.599 391.23C503.269 391.23 503.919 391.3 504.549 391.44C505.449 386.12 510.069 382.06 515.659 382.06C518.069 382.06 520.289 382.82 522.119 384.1C524.779 381.48 528.109 379.48 531.949 378.37C544.249 374.83 557.089 381.94 560.619 394.24C561.029 395.68 561.299 397.12 561.429 398.56C569.239 401.77 574.729 409.44 574.729 418.4C574.729 429.41 566.429 438.48 555.739 439.7C552.579 445.41 546.489 449.28 539.499 449.28C536.819 449.28 534.269 448.71 531.969 447.68C529.669 448.71 527.119 449.28 524.439 449.28C517.499 449.28 511.449 445.47 508.269 439.82C508.009 439.83 507.759 439.84 507.499 439.84C497.249 439.84 488.939 431.53 488.939 421.28C488.939 415.52 491.559 410.38 495.679 406.98L495.669 406.99Z" fill="#01654D"/>
<path d="M531.369 408.811V474.951" stroke="#00081C" stroke-miterlimit="10"/>
<path d="M516.84 417.551L531.37 432.081L545.9 417.551" stroke="#101727" stroke-miterlimit="10"/>
<path d="M500.28 475.091C499.82 473.671 499.57 472.171 499.57 470.601C499.57 462.501 506.14 455.931 514.24 455.931C515.65 455.931 517.01 456.131 518.3 456.501C520.45 449.301 527.12 444.051 535.02 444.051C542.86 444.051 549.5 449.221 551.7 456.341C552.14 456.301 552.59 456.281 553.04 456.281C561.14 456.281 567.71 462.851 567.71 470.951C567.71 472.391 567.5 473.781 567.11 475.091H500.28Z" fill="#A99E53"/>
<path d="M636.359 475.09H623.309C623.309 472.04 625.409 469.47 628.249 468.76C628.759 468.63 629.289 468.57 629.839 468.57C633.449 468.57 636.369 471.5 636.369 475.1L636.359 475.09Z" fill="#01654D"/>
<path d="M584.279 475.091H571.229C571.229 471.491 574.159 468.561 577.759 468.561C578.529 468.561 579.269 468.691 579.959 468.941C582.479 469.841 584.289 472.251 584.289 475.081L584.279 475.091Z" fill="#01654D"/>
<path d="M628.919 472.431C628.919 473.351 628.799 474.241 628.569 475.091H608.479C608.249 474.241 608.129 473.351 608.129 472.431C608.129 468.661 610.129 465.371 613.129 463.551C614.699 462.591 616.549 462.041 618.529 462.041C622.969 462.041 626.769 464.831 628.249 468.761C628.689 469.901 628.919 471.141 628.919 472.431Z" fill="#01654D"/>
<path d="M583.249 472.431C583.249 473.351 583.129 474.241 582.899 475.091H562.809C562.579 474.241 562.459 473.351 562.459 472.431C562.459 468.661 564.459 465.371 567.459 463.551C569.029 462.591 570.879 462.041 572.859 462.041C577.299 462.041 581.099 464.831 582.579 468.761C583.019 469.901 583.249 471.141 583.249 472.431Z" fill="#01654D"/>
<path d="M614.659 469.54C614.659 471.46 614.419 473.31 613.939 475.09H571.609C571.139 473.31 570.889 471.46 570.889 469.54C570.889 468.81 570.919 468.08 570.989 467.36C572.089 456.31 581.409 447.66 592.769 447.66C601.649 447.66 609.309 452.96 612.729 460.58C613.969 463.32 614.649 466.36 614.649 469.55L614.659 469.54Z" fill="#01654D"/>
<path d="M629.829 468.57C629.279 468.57 628.749 468.64 628.239 468.76C626.759 464.83 622.969 462.04 618.519 462.04C616.789 462.04 615.149 462.46 613.709 463.22C613.439 462.31 613.109 461.43 612.729 460.58C609.299 452.97 601.649 447.66 592.769 447.66C583.309 447.66 575.259 453.66 572.199 462.06C570.469 462.17 568.849 462.69 567.449 463.55C564.449 465.37 562.449 468.66 562.449 472.43C562.449 473.35 562.569 474.24 562.799 475.09H636.349C636.349 471.49 633.429 468.56 629.819 468.56L629.829 468.57Z" fill="#01654D"/>
<path d="M470.1 447.841C469.29 447.841 468.5 447.771 467.74 447.641L470.1 447.841Z" fill="#A99E53"/>
<path d="M470.1 447.841C469.29 447.841 468.5 447.771 467.74 447.641" stroke="#00081C" stroke-miterlimit="10"/>
<path d="M467.731 447.641C465.351 451.981 458.911 455.691 451.741 454.961C446.081 454.381 441.151 451.561 438.961 446.681C437.251 447.431 435.361 447.841 433.381 447.841C425.651 447.841 419.381 441.571 419.381 433.841C419.381 426.111 425.651 419.841 433.381 419.841C433.801 419.841 434.221 419.861 434.631 419.901C432.771 411.021 438.051 402.081 446.911 399.531C450.791 398.411 454.741 398.711 458.221 400.101C457.651 392.041 462.751 384.411 470.831 382.081C480.111 379.411 489.791 384.771 492.461 394.051C493.151 396.461 493.301 398.891 492.981 401.221C496.691 403.411 499.611 406.971 500.891 411.441C501.701 414.271 501.771 417.141 501.201 419.841C501.611 419.801 502.031 419.781 502.451 419.781C510.181 419.781 516.451 426.051 516.451 433.781C516.451 441.511 510.181 447.781 502.451 447.781C500.471 447.781 498.581 447.361 496.871 446.621C494.681 451.501 489.791 454.901 484.091 454.901C484.091 454.901 474.981 455.621 467.731 447.641Z" fill="#A99E53"/>
<path d="M467.912 425.32V475.2" stroke="#00081C" stroke-miterlimit="10"/>
<path d="M456.951 431.91L467.911 442.87L478.881 431.91" stroke="#101727" stroke-miterlimit="10"/>
<path d="M218.92 302.08H121.57C118.345 302.08 115.73 304.695 115.73 307.92V405.27C115.73 408.495 118.345 411.11 121.57 411.11H218.92C222.146 411.11 224.76 408.495 224.76 405.27V307.92C224.76 304.695 222.146 302.08 218.92 302.08Z" fill="white"/>
<path d="M219.46 302.08H122.11C118.884 302.08 116.27 304.695 116.27 307.92V405.27C116.27 408.495 118.884 411.11 122.11 411.11H219.46C222.685 411.11 225.3 408.495 225.3 405.27V307.92C225.3 304.695 222.685 302.08 219.46 302.08Z" fill="white"/>
<path d="M211.58 302.08H219.46C222.68 302.08 225.3 304.69 225.3 307.92V381.57" stroke="#101727" stroke-miterlimit="10"/>
<path d="M225.3 393.8V405.27C225.3 408.49 222.69 411.11 219.46 411.11H122.1C118.88 411.11 116.26 408.5 116.26 405.27V307.91C116.26 304.69 118.87 302.07 122.1 302.07H202.25" stroke="#101727" stroke-miterlimit="10"/>
<path d="M113.85 411.11C110.63 411.11 108.01 408.5 108.01 405.27V307.91" stroke="#101727" stroke-miterlimit="10"/>
<path d="M153.109 326.75V387.73" stroke="#00081C" stroke-width="0.72" stroke-linecap="square" stroke-linejoin="round" stroke-dasharray="4.58 4.58"/>
<path d="M173.869 326.75V387.73" stroke="#00081C" stroke-width="0.72" stroke-linecap="square" stroke-linejoin="round" stroke-dasharray="4.58 4.58"/>
<path d="M194.629 326.75V387.73" stroke="#00081C" stroke-width="0.72" stroke-linecap="square" stroke-linejoin="round" stroke-dasharray="4.58 4.58"/>
<path d="M158.15 349.181C158.15 351.961 155.89 354.221 153.11 354.221C150.33 354.221 148.07 351.961 148.07 349.181C148.07 346.401 150.33 344.141 153.11 344.141C155.89 344.141 158.15 346.401 158.15 349.181Z" fill="#A59A5D"/>
<path d="M178.91 359.81C178.91 362.59 176.65 364.85 173.87 364.85C171.09 364.85 168.83 362.59 168.83 359.81C168.83 357.03 171.09 354.77 173.87 354.77C176.65 354.77 178.91 357.03 178.91 359.81Z" fill="#E9BE51"/>
<path d="M199.609 330.341C199.609 333.121 197.349 335.381 194.569 335.381C191.789 335.381 189.529 333.121 189.529 330.341C189.529 327.561 191.789 325.301 194.569 325.301C197.349 325.301 199.609 327.561 199.609 330.341Z" fill="#01654D"/>
<path d="M133.061 328.41V387.73H204.711" stroke="#101727" stroke-width="0.72"/>
<path d="M129.029 328.6H137.209L133.059 321.84L129.029 328.6Z" fill="#101727"/>
<path d="M204.709 383.461V391.651L211.469 387.501L204.709 383.461Z" fill="#101727"/>
<path d="M219.46 173.83H122.11C118.884 173.83 116.27 176.445 116.27 179.67V277.02C116.27 280.245 118.884 282.86 122.11 282.86H219.46C222.685 282.86 225.3 280.245 225.3 277.02V179.67C225.3 176.445 222.685 173.83 219.46 173.83Z" fill="white"/>
<path d="M225.3 265.55V277.02C225.3 280.24 222.69 282.86 219.46 282.86H122.1C118.88 282.86 116.26 280.25 116.26 277.02V179.66C116.26 176.44 118.87 173.82 122.1 173.82H202.25" stroke="#101727" stroke-miterlimit="10"/>
<path d="M211.58 173.83H219.46C222.68 173.83 225.3 176.44 225.3 179.67V253.32" stroke="#101727" stroke-miterlimit="10"/>
<path d="M113.85 282.86C110.63 282.86 108.01 280.25 108.01 277.02V179.66" stroke="#101727" stroke-miterlimit="10"/>
<path d="M320.689 342.71L426.039 201.82L418.529 188.83L320.689 320.34V342.71Z" fill="#01654D" stroke="#00081C" stroke-miterlimit="10"/>
<path d="M0 475.199H886.46" stroke="#101727" stroke-miterlimit="10"/>
<path d="M636.229 293.12L499.219 55.8203H391.939L528.939 293.12H636.229Z" stroke="black" stroke-miterlimit="10"/>
<path d="M145.761 184.91C137.631 184.91 131.051 191.5 131.051 199.62V203.58H160.471V199.62C160.471 191.49 153.881 184.91 145.761 184.91Z" fill="#E9BE51" stroke="#101727" stroke-miterlimit="10"/>
<path d="M152.18 202.211H164.21C165.31 202.211 166.2 203.101 166.2 204.201C166.2 205.301 165.31 206.191 164.21 206.191H129.97C128.87 206.191 127.98 205.301 127.98 204.201C127.98 203.101 128.87 202.211 129.97 202.211H132.46" fill="#E9BE51"/>
<path d="M147.441 185C147.441 185 157.761 185.81 157.761 196.2H153.971C153.991 185.27 143.551 185.07 143.551 185.07" stroke="#101727" stroke-miterlimit="10"/>
<path d="M152.18 202.211H164.21C165.31 202.211 166.2 203.101 166.2 204.201C166.2 205.301 165.31 206.191 164.21 206.191H129.97C128.87 206.191 127.98 205.301 127.98 204.201C127.98 203.101 128.87 202.211 129.97 202.211H132.46" stroke="#101727" stroke-miterlimit="10"/>
<path d="M192.161 184.91C184.031 184.91 177.451 191.5 177.451 199.62V203.58H206.871V199.62C206.871 191.49 200.281 184.91 192.161 184.91Z" fill="#E9BE51" stroke="#101727" stroke-miterlimit="10"/>
<path d="M198.581 202.211H210.611C211.711 202.211 212.601 203.101 212.601 204.201C212.601 205.301 211.711 206.191 210.611 206.191H176.371C175.271 206.191 174.381 205.301 174.381 204.201C174.381 203.101 175.271 202.211 176.371 202.211H178.861" fill="#E9BE51"/>
<path d="M193.841 185C193.841 185 204.161 185.81 204.161 196.2H200.371C200.391 185.27 189.951 185.07 189.951 185.07" stroke="#101727" stroke-miterlimit="10"/>
<path d="M198.581 202.211H210.611C211.711 202.211 212.601 203.101 212.601 204.201C212.601 205.301 211.711 206.191 210.611 206.191H176.371C175.271 206.191 174.381 205.301 174.381 204.201C174.381 203.101 175.271 202.211 176.371 202.211H178.861" stroke="#101727" stroke-miterlimit="10"/>
<path d="M145.761 217.66C137.631 217.66 131.051 224.25 131.051 232.37V236.33H160.471V232.37C160.471 224.24 153.881 217.66 145.761 217.66Z" fill="#E9BE51" stroke="#101727" stroke-miterlimit="10"/>
<path d="M152.18 234.961H164.21C165.31 234.961 166.2 235.851 166.2 236.951C166.2 238.051 165.31 238.941 164.21 238.941H129.97C128.87 238.941 127.98 238.051 127.98 236.951C127.98 235.851 128.87 234.961 129.97 234.961H132.46" fill="#E9BE51"/>
<path d="M147.441 217.75C147.441 217.75 157.761 218.56 157.761 228.95H153.971C153.991 218.02 143.551 217.82 143.551 217.82" stroke="#101727" stroke-miterlimit="10"/>
<path d="M152.18 234.961H164.21C165.31 234.961 166.2 235.851 166.2 236.951C166.2 238.051 165.31 238.941 164.21 238.941H129.97C128.87 238.941 127.98 238.051 127.98 236.951C127.98 235.851 128.87 234.961 129.97 234.961H132.46" stroke="#101727" stroke-miterlimit="10"/>
<path d="M192.161 217.66C184.031 217.66 177.451 224.25 177.451 232.37V236.33H206.871V232.37C206.871 224.24 200.281 217.66 192.161 217.66Z" fill="#E9BE51" stroke="#101727" stroke-miterlimit="10"/>
<path d="M198.581 234.961H210.611C211.711 234.961 212.601 235.851 212.601 236.951C212.601 238.051 211.711 238.941 210.611 238.941H176.371C175.271 238.941 174.381 238.051 174.381 236.951C174.381 235.851 175.271 234.961 176.371 234.961H178.861" fill="#E9BE51"/>
<path d="M193.841 217.75C193.841 217.75 204.161 218.56 204.161 228.95H200.371C200.391 218.02 189.951 217.82 189.951 217.82" stroke="#101727" stroke-miterlimit="10"/>
<path d="M198.581 234.961H210.611C211.711 234.961 212.601 235.851 212.601 236.951C212.601 238.051 211.711 238.941 210.611 238.941H176.371C175.271 238.941 174.381 238.051 174.381 236.951C174.381 235.851 175.271 234.961 176.371 234.961H178.861" stroke="#101727" stroke-miterlimit="10"/>
<path d="M145.761 250.41C137.631 250.41 131.051 257 131.051 265.12V269.08H160.471V265.12C160.471 256.99 153.881 250.41 145.761 250.41Z" fill="#E9BE51" stroke="#101727" stroke-miterlimit="10"/>
<path d="M152.18 267.711H164.21C165.31 267.711 166.2 268.601 166.2 269.701C166.2 270.801 165.31 271.691 164.21 271.691H129.97C128.87 271.691 127.98 270.801 127.98 269.701C127.98 268.601 128.87 267.711 129.97 267.711H132.46" fill="#E9BE51"/>
<path d="M147.441 250.5C147.441 250.5 157.761 251.31 157.761 261.7H153.971C153.991 250.77 143.551 250.57 143.551 250.57" stroke="#101727" stroke-miterlimit="10"/>
<path d="M152.18 267.711H164.21C165.31 267.711 166.2 268.601 166.2 269.701C166.2 270.801 165.31 271.691 164.21 271.691H129.97C128.87 271.691 127.98 270.801 127.98 269.701C127.98 268.601 128.87 267.711 129.97 267.711H132.46" stroke="#101727" stroke-miterlimit="10"/>
<path d="M192.16 250.41V271.61" stroke="#01654D" stroke-miterlimit="10"/>
<path d="M202.771 261.01H181.561" stroke="#01654D" stroke-miterlimit="10"/>
<path d="M239.48 101.5H273.13V431.91" stroke="#101727" stroke-miterlimit="10" stroke-dasharray="7 7"/>
<path d="M273.131 228.34H235.381" stroke="#101727" stroke-miterlimit="10" stroke-dasharray="7 7"/>
<path d="M273.131 352.84H235.381" stroke="#101727" stroke-miterlimit="10" stroke-dasharray="7 7"/>
<path d="M273.13 403.16C261.22 403.16 251.57 412.81 251.57 424.72C251.57 445.49 273.13 467.35 273.13 467.35C273.13 467.35 294.69 445.28 294.69 424.72C294.69 412.81 285.04 403.16 273.13 403.16ZM273.13 435.26C267.58 435.26 263.08 430.76 263.08 425.21C263.08 419.66 267.58 415.16 273.13 415.16C278.68 415.16 283.18 419.66 283.18 425.21C283.18 430.76 278.68 435.26 273.13 435.26Z" fill="#01654D"/>
<path d="M273.131 435.16C278.742 435.16 283.291 430.611 283.291 425C283.291 419.389 278.742 414.84 273.131 414.84C267.519 414.84 262.971 419.389 262.971 425C262.971 430.611 267.519 435.16 273.131 435.16Z" fill="white"/>
<path d="M807.75 271.191L828.11 268.131L836.24 313.041C836.24 313.041 823.77 321.881 819.78 299.821C816.57 300.471 812.95 301.411 812.95 301.411L807.75 271.191Z" fill="#E7DFCD" stroke="black" stroke-miterlimit="10"/>
<path d="M702.97 377.461H666.84V418.231H702.97V377.461Z" fill="#01654D"/>
<path d="M782.95 377.461H746.82V418.231H782.95V377.461Z" fill="#01654D"/>
<path d="M771.121 377.461V418.231" stroke="#101727" stroke-miterlimit="10"/>
<path d="M691.648 377.461V418.231" stroke="#101727" stroke-miterlimit="10"/>
<path d="M815.968 310.259L807.528 269.199L796.148 270.139L805.148 313.889L815.968 310.259Z" fill="#04654D" stroke="black" stroke-miterlimit="10"/>
</g>
<defs>
<clipPath id="clip0_2463_3">
<rect width="886.46" height="475.7" fill="white"/>
</clipPath>
</defs>
</svg>
