<svg width="678" height="470" viewBox="0 0 678 470" fill="none" xmlns="http://www.w3.org/2000/svg">
<g clip-path="url(#clip0_2680_607)">
<path opacity="0.12" d="M271.011 378.69L247.411 358.65C246.971 358.27 246.321 358.26 245.861 358.62L226.291 374.03C225.831 374.4 225.171 374.38 224.731 373.98L201.821 353.7C201.361 353.29 200.661 353.29 200.201 353.7L145.091 402.67C144.831 402.9 144.681 403.23 144.681 403.58V413.99C144.681 415.03 143.461 415.59 142.671 414.92L138.391 411.29C137.931 410.9 137.251 410.9 136.801 411.3L120.781 425.32C120.521 425.55 120.361 425.89 120.361 426.24V449.32C120.361 450.29 119.291 450.86 118.471 450.33C118.071 450.07 117.591 449.92 117.011 449.92C114.361 449.92 113.761 453 113.581 455.82C113.561 456.2 113.351 456.54 113.031 456.75C112.291 457.24 111.731 457.98 111.471 458.85C111.081 458.58 110.621 458.41 110.121 458.39C109.431 458.37 108.811 458.62 108.331 459.03V425.88L92.5308 418.49L76.2408 425.88V429.62L52.3208 409.15L27.6608 438.57V454.25L15.0508 458.56V469.99H108.331V466.64H108.611C109.281 466.64 109.831 467.19 109.831 467.86V469.99H110.211V467.86C110.211 467.19 110.761 466.64 111.431 466.64H111.651C111.831 466.64 112.011 466.59 112.161 466.48C113.921 465.28 114.031 464.33 113.861 463.5C114.281 463.65 114.731 463.74 115.201 463.74H115.411C116.081 463.74 116.631 464.29 116.631 464.96V469.99H117.381V464.96C117.381 464.29 117.931 463.74 118.601 463.74H118.811C118.901 463.74 118.981 463.74 119.071 463.74C119.771 463.69 120.351 464.26 120.351 464.95V468.77C120.351 469.44 120.901 469.99 121.571 469.99H270.201C270.871 469.99 271.421 469.44 271.421 468.77V379.61C271.421 379.25 271.261 378.91 270.991 378.68L271.011 378.69Z" fill="#01654D"/>
<path d="M278.491 173.02L350.481 297.46H651.791V469.19H195.301V284.07L278.491 173.02Z" fill="#EAE2CF" stroke="#101727" stroke-miterlimit="10"/>
<path d="M651.841 297.46H350.711V469.28H651.841V297.46Z" fill="#DDD2BA" stroke="#101727" stroke-miterlimit="10"/>
<path d="M666.161 287.24L660.261 297.46H350.481L203.811 43.92L209.721 33.7H519.771L666.161 287.24Z" fill="#01654D" stroke="#101727" stroke-miterlimit="10"/>
<path d="M356.101 287.24H666.161L519.771 33.7H209.721L356.101 287.24Z" fill="#DDD2BA" stroke="#101727" stroke-miterlimit="10"/>
<path d="M588.65 287.24H666.16L647.86 255.55H570.35L588.65 287.24Z" fill="#E9BE51" stroke="#101727" stroke-miterlimit="10"/>
<path d="M511.13 287.24H588.65L570.35 255.55H492.83L511.13 287.24Z" fill="#E9BE51" stroke="#101727" stroke-miterlimit="10"/>
<path d="M433.62 287.24H511.13L492.83 255.55H415.32L433.62 287.24Z" fill="#E9BE51" stroke="#101727" stroke-miterlimit="10"/>
<path d="M356.101 287.24H433.621L415.321 255.55H337.801L356.101 287.24Z" fill="#E9BE51" stroke="#101727" stroke-miterlimit="10"/>
<path d="M609.101 255.55H647.861L629.561 223.85H590.811L609.101 255.55Z" fill="#E9BE51" stroke="#101727" stroke-miterlimit="10"/>
<path d="M531.589 255.55H609.099L590.809 223.85H513.289L531.589 255.55Z" fill="#E9BE51" stroke="#101727" stroke-miterlimit="10"/>
<path d="M454.069 255.55H531.589L513.289 223.85H435.779L454.069 255.55Z" fill="#E9BE51" stroke="#101727" stroke-miterlimit="10"/>
<path d="M376.56 255.55H454.07L435.78 223.85H358.26L376.56 255.55Z" fill="#E9BE51" stroke="#101727" stroke-miterlimit="10"/>
<path d="M337.8 255.55H376.56L358.26 223.85H319.5L337.8 255.55Z" fill="#E9BE51" stroke="#101727" stroke-miterlimit="10"/>
<path d="M552.05 223.85H629.56L611.26 192.16H533.75L552.05 223.85Z" fill="#E9BE51" stroke="#101727" stroke-miterlimit="10"/>
<path d="M474.53 223.85H552.05L533.75 192.16H456.24L474.53 223.85Z" fill="#E9BE51" stroke="#101727" stroke-miterlimit="10"/>
<path d="M397.021 223.85H474.531L456.241 192.16H378.721L397.021 223.85Z" fill="#E9BE51" stroke="#101727" stroke-miterlimit="10"/>
<path d="M319.501 223.85H397.021L378.721 192.16H301.211L319.501 223.85Z" fill="#E9BE51" stroke="#101727" stroke-miterlimit="10"/>
<path d="M572.511 192.16H611.261L592.971 160.47H554.211L572.511 192.16Z" fill="#E9BE51" stroke="#101727" stroke-miterlimit="10"/>
<path d="M494.989 192.16H572.509L554.209 160.47H476.689L494.989 192.16Z" fill="#E9BE51" stroke="#101727" stroke-miterlimit="10"/>
<path d="M417.48 192.16H494.99L476.69 160.47H399.18L417.48 192.16Z" fill="#E9BE51" stroke="#101727" stroke-miterlimit="10"/>
<path d="M339.96 192.16H417.48L399.18 160.47H321.67L339.96 192.16Z" fill="#E9BE51" stroke="#101727" stroke-miterlimit="10"/>
<path d="M301.21 192.16H339.96L321.67 160.47H282.91L301.21 192.16Z" fill="#E9BE51" stroke="#101727" stroke-miterlimit="10"/>
<path d="M515.45 160.47H592.97L574.67 128.78H497.16L515.45 160.47Z" fill="#E9BE51" stroke="#101727" stroke-miterlimit="10"/>
<path d="M437.941 160.47H515.451L497.161 128.78H419.641L437.941 160.47Z" fill="#E9BE51" stroke="#101727" stroke-miterlimit="10"/>
<path d="M360.421 160.47H437.941L419.641 128.78H342.131L360.421 160.47Z" fill="#E9BE51" stroke="#101727" stroke-miterlimit="10"/>
<path d="M282.909 160.47H360.419L342.129 128.78H264.609L282.909 160.47Z" fill="#E9BE51" stroke="#101727" stroke-miterlimit="10"/>
<path d="M535.909 128.78H574.669L556.369 97.08H517.609L535.909 128.78Z" fill="#E9BE51" stroke="#101727" stroke-miterlimit="10"/>
<path d="M458.4 128.78H535.91L517.61 97.08H440.1L458.4 128.78Z" fill="#E9BE51" stroke="#101727" stroke-miterlimit="10"/>
<path d="M380.88 128.78H458.4L440.1 97.08H362.59L380.88 128.78Z" fill="#E9BE51" stroke="#101727" stroke-miterlimit="10"/>
<path d="M303.37 128.78H380.88L362.59 97.08H285.07L303.37 128.78Z" fill="#E9BE51" stroke="#101727" stroke-miterlimit="10"/>
<path d="M264.611 128.78H303.371L285.071 97.08H246.311L264.611 128.78Z" fill="#E9BE51" stroke="#101727" stroke-miterlimit="10"/>
<path d="M478.861 97.08H556.371L538.071 65.39H460.561L478.861 97.08Z" fill="#E9BE51" stroke="#101727" stroke-miterlimit="10"/>
<path d="M401.339 97.08H478.859L460.559 65.39H383.039L401.339 97.08Z" fill="#E9BE51" stroke="#101727" stroke-miterlimit="10"/>
<path d="M323.829 97.08H401.339L383.039 65.39H305.529L323.829 97.08Z" fill="#E9BE51" stroke="#101727" stroke-miterlimit="10"/>
<path d="M246.31 97.08H323.83L305.53 65.39H228.02L246.31 97.08Z" fill="#E9BE51" stroke="#101727" stroke-miterlimit="10"/>
<path d="M499.32 65.39H538.07L519.77 33.7H481.02L499.32 65.39Z" fill="#E9BE51" stroke="#101727" stroke-miterlimit="10"/>
<path d="M421.8 65.39H499.32L481.02 33.7H403.5L421.8 65.39Z" fill="#E9BE51" stroke="#101727" stroke-miterlimit="10"/>
<path d="M344.29 65.39H421.8L403.5 33.7H325.99L344.29 65.39Z" fill="#E9BE51" stroke="#101727" stroke-miterlimit="10"/>
<path d="M266.771 65.39H344.291L325.991 33.7H248.471L266.771 65.39Z" fill="#E9BE51" stroke="#101727" stroke-miterlimit="10"/>
<path d="M228.021 65.39H266.771L248.471 33.7H209.721L228.021 65.39Z" fill="#E9BE51" stroke="#101727" stroke-miterlimit="10"/>
<path d="M473.671 261.17L468.051 271.39H357.731L229.961 49.56L235.581 39.34H345.591L473.671 261.17Z" fill="#01654D" stroke="#101727" stroke-miterlimit="10"/>
<path d="M363.65 261.17H473.67L345.59 39.34H235.58L363.65 261.17Z" fill="#DDD2BA" stroke="#101727" stroke-miterlimit="10"/>
<path d="M459.68 252.3L341.84 48.2H249.57L367.4 252.3H459.68Z" fill="#01654D"/>
<path d="M518.09 141.6L484.4 72.37C500.99 66.72 535.15 135.73 535.15 135.73" fill="#EAE2CF"/>
<path d="M518.09 141.6L484.4 72.37C500.99 66.72 535.15 135.73 535.15 135.73" stroke="#101727" stroke-miterlimit="10"/>
<path d="M488.331 264.52H497.711L573.541 220.58L445.511 0.720001H436.131" fill="#01654D"/>
<path d="M488.331 264.52H497.711L573.541 220.58L445.511 0.720001H436.131" stroke="#101727" stroke-miterlimit="10"/>
<path d="M564.16 220.52L435.95 0.910004L360.59 44.72L488.62 264.52L564.16 220.52Z" fill="#DDD2BA" stroke="#101727" stroke-miterlimit="10"/>
<path d="M371.208 50.2995L489.006 252.533L553.545 214.94L435.748 12.7064L371.208 50.2995Z" fill="#01654D"/>
<path d="M370.976 49.9046L488.773 252.138L553.313 214.545L435.516 12.3115L370.976 49.9046Z" stroke="#101727" stroke-miterlimit="10"/>
<path d="M511.649 126.68C509.189 145.5 517.169 154.82 520.179 158.33L520.33 158.51C521.57 159.95 523.389 160.6 525.159 160.37C525.979 160.26 526.79 159.96 527.52 159.46L527.679 159.35C531.489 156.75 541.589 149.85 544.109 130.99L511.649 126.68Z" fill="#EAE2CF" stroke="#101727" stroke-miterlimit="10"/>
<path d="M527.96 104.59L534.1 105.4C541.37 106.36 546.49 113.03 545.53 120.3L544.12 130.98L511.66 126.69L513.07 116.01C514.03 108.74 520.7 103.62 527.97 104.58L527.96 104.59Z" fill="#E9BE51" stroke="#101727" stroke-miterlimit="10"/>
<path d="M544.109 130.97L503.089 125.55C502.309 125.45 501.769 124.73 501.869 123.96C501.969 123.18 502.689 122.64 503.459 122.74L520.839 125.04" fill="#E9BE51"/>
<path d="M544.109 130.97L503.089 125.55C502.309 125.45 501.769 124.73 501.869 123.96C501.969 123.18 502.689 122.64 503.459 122.74L520.839 125.04" stroke="#101727" stroke-miterlimit="10"/>
<path d="M544.109 130.98C547.849 129.71 550.019 133.86 548.189 137.2C546.349 140.54 543.809 140.41 541.789 140.32" fill="#EAE2CF"/>
<path d="M544.109 130.98C547.849 129.71 550.019 133.86 548.189 137.2C546.349 140.54 543.809 140.41 541.789 140.32" stroke="#101727" stroke-miterlimit="10"/>
<path d="M522.261 150.69C522.481 150.69 522.711 150.69 522.951 150.66C524.751 150.52 526.521 149.84 527.571 148.87L526.971 148.22C525.221 149.82 520.721 150.61 518.701 148.52L518.061 149.14C519.041 150.15 520.511 150.69 522.261 150.69Z" fill="#EAE2CF" stroke="#101727" stroke-miterlimit="10"/>
<path d="M517.338 111.483L520.111 115.631L521.749 114.536L518.975 110.388L517.338 111.483Z" fill="#01654D"/>
<path d="M519.129 116.33C520.909 118.66 522.729 119.21 523.809 119.4C524.039 118.32 524.219 116.41 522.709 113.85C522.769 113.79 522.829 113.73 522.879 113.66C523.309 113.17 523.669 112.67 523.969 112.17C526.659 116.2 525.879 119.21 525.589 120.35V120.4C525.519 120.62 525.419 120.81 525.279 120.97C524.979 121.31 524.519 121.49 524.049 121.43H523.989C522.829 121.26 519.729 120.82 517.039 116.8C517.729 116.74 518.429 116.58 519.119 116.33H519.129Z" fill="white"/>
<path d="M502.58 91.3L491.8 91.42C490.26 91.45 488.99 90.23 488.96 88.69C488.93 87.15 490.15 85.88 491.69 85.85L499.24 85.73C500.66 85.73 500.26 83.96 500.26 83.96" fill="#EAE2CF"/>
<path d="M502.58 91.3L491.8 91.42C490.26 91.45 488.99 90.23 488.96 88.69C488.93 87.15 490.15 85.88 491.69 85.85L499.24 85.73C500.66 85.73 500.26 83.96 500.26 83.96" stroke="#101727" stroke-miterlimit="10"/>
<path d="M533.91 105.3C529.76 104.72 526.96 107.34 526.85 107.45" stroke="#101727" stroke-miterlimit="10"/>
<path d="M296.869 48.09L414.769 252.3" stroke="#101727" stroke-miterlimit="10"/>
<path d="M365.46 88.45H273.18" stroke="#101727" stroke-miterlimit="10"/>
<path d="M388.81 129.71H296.52" stroke="#101727" stroke-miterlimit="10"/>
<path d="M412.63 170.53H320.34" stroke="#101727" stroke-miterlimit="10"/>
<path d="M435.729 211.35H343.449" stroke="#101727" stroke-miterlimit="10"/>
<path d="M403.449 32.66L513.229 221.04" stroke="#101727" stroke-miterlimit="10"/>
<path d="M459.46 53.67L394.92 91.26" stroke="#101727" stroke-miterlimit="10"/>
<path d="M483.47 94.88L418.93 132.48" stroke="#101727" stroke-miterlimit="10"/>
<path d="M506.58 134.56L442.49 172.92" stroke="#101727" stroke-miterlimit="10"/>
<path d="M466.039 213.37L477.489 207.25" stroke="#101727" stroke-miterlimit="10"/>
<path d="M188.289 294.91L278.899 173.72L272.439 162.55L188.289 275.67V294.91Z" fill="#01654D" stroke="#101727" stroke-miterlimit="10"/>
<path d="M459.68 252.25L341.84 48.15H249.57L367.4 252.25H459.68Z" stroke="#101727" stroke-miterlimit="10"/>
<path d="M602.94 238.48L619.68 232.72L633.56 269.44C633.56 269.44 624.39 278.86 617.58 260.83C614.96 261.88 612.05 263.24 612.05 263.24L602.93 238.49L602.94 238.48Z" fill="#EAE2CF" stroke="#101727" stroke-miterlimit="10"/>
<path d="M560.681 195.56L565.431 197.2C571.301 199.22 575.591 204.3 576.621 210.42L581.641 240.31L607.871 233.36L613.721 264.76L568.171 271.52C562.601 272.35 557.371 268.63 556.321 263.09L550.511 232.4L549.311 226.24L560.681 195.56Z" fill="#01654D" stroke="#101727" stroke-miterlimit="10"/>
<path d="M542.061 258.01L541.371 275.7L502.121 275.35C502.121 275.35 496.661 263.4 515.931 263.57C515.891 260.75 515.681 257.55 515.681 257.55L542.051 258.01H542.061Z" fill="#EAE2CF" stroke="#101727" stroke-miterlimit="10"/>
<path d="M593.681 196.97L529.081 200.21C520.351 200.65 513.571 207.98 513.811 216.72L514.861 254.24L544.921 252.27L545.161 231.84L568.971 230.05C582.901 229 593.731 217.51 593.941 203.55L593.671 196.97H593.681Z" fill="#01654D" stroke="#101727" stroke-miterlimit="10"/>
<path d="M511.891 259.12H547.941L548.541 254.21L549.121 249.37H510.711L511.291 254.17L511.891 259.12Z" fill="#01654D" stroke="#101727" stroke-miterlimit="10"/>
<path d="M614.371 268.18L607.851 232.72L598.051 233.32L605.001 271.1L614.371 268.18Z" fill="#01654D" stroke="#101727" stroke-miterlimit="10"/>
<path d="M542.139 140.92C565.009 146.72 594.829 196.91 594.829 196.91L535.439 199.89C535.439 199.89 531.019 171.64 522.789 156.46L542.139 140.92Z" fill="#EAE2CF" stroke="#101727" stroke-miterlimit="10"/>
<path d="M566.761 173.78L578.581 171.11L575.281 167.02L564.551 169.4L566.761 173.78Z" fill="#01654D" stroke="#101727" stroke-miterlimit="10"/>
<path d="M571.01 187.76C571.01 187.76 556.419 153.15 545.479 149.91C538.649 148.22 533.52 153.74 533.52 153.74L535.349 148.22C535.349 148.22 542.05 145.3 548.03 147.79C558.9 152.31 574.25 186.91 574.25 186.91L571.01 187.76Z" fill="#01654D" stroke="#101727" stroke-miterlimit="10"/>
<path d="M542.47 192.33L539.14 169.87L536.76 170.81L539.61 192.79L542.47 192.33Z" fill="#01654D" stroke="#101727" stroke-miterlimit="10"/>
<path d="M533.38 197.55L592 189.74L588.62 184.52L532.6 191.98L533.38 197.55Z" fill="#01654D" stroke="#101727" stroke-miterlimit="10"/>
<path d="M525.481 157.58L500.851 174.38L488.541 182.78L479.911 180.37C478.471 179.97 476.961 180.7 476.371 182.07C475.691 183.66 476.501 185.49 478.141 186.06L482.061 187.41L470.031 196.12C469.151 196.76 468.661 197.82 468.751 198.9C468.841 200.06 469.571 201.06 470.641 201.52L472.601 202.35V203.27C472.601 205.47 474.501 207.2 476.691 206.96L478.141 206.81L478.791 208.32C479.751 210.55 482.271 211.65 484.551 210.85L484.851 210.74L545.951 166.7" fill="#EAE2CF"/>
<path d="M525.481 157.58L500.851 174.38L488.541 182.78L479.911 180.37C478.471 179.97 476.961 180.7 476.371 182.07C475.691 183.66 476.501 185.49 478.141 186.06L482.061 187.41L470.031 196.12C469.151 196.76 468.661 197.82 468.751 198.9C468.841 200.06 469.571 201.06 470.641 201.52L472.601 202.35V203.27C472.601 205.47 474.501 207.2 476.691 206.96L478.141 206.81L478.791 208.32C479.751 210.55 482.271 211.65 484.551 210.85L484.851 210.74L545.951 166.7" stroke="#101727" stroke-miterlimit="10"/>
<path d="M524.439 158.29C535.129 161.9 534.479 175.01 534.479 175.01L524.439 158.29Z" fill="#EAE2CF"/>
<path d="M524.439 158.29C535.129 161.9 534.479 175.01 534.479 175.01" stroke="#101727" stroke-miterlimit="10"/>
<path d="M529.13 143.63C535.79 140.78 537 136.47 538.24 130.27L544.1 131.05C541.58 149.91 531.48 156.81 527.67 159.41L527.51 159.52C526.78 160.02 525.97 160.32 525.15 160.43C523.39 160.66 521.56 160.01 520.32 158.57L520.17 158.39C518.14 156.02 513.83 151 512.01 142.18C516.93 145.59 523.39 146.09 529.13 143.63Z" fill="#101727"/>
<path d="M523.61 132.23C523.1 135.38 522.16 137.66 518.89 140.01C518.1 140.57 518.06 141.13 518.11 141.41C518.18 141.85 518.52 142.27 519.09 142.39C520.75 142.73 522.72 141.93 524.15 140.48" stroke="#101727" stroke-miterlimit="10"/>
<path d="M528.48 136.61C527.54 136.61 526.72 135.91 526.6 134.96C526.53 134.46 526.67 133.96 526.98 133.56C527.29 133.16 527.74 132.9 528.24 132.84C529.28 132.7 530.23 133.44 530.37 134.47C530.44 134.97 530.3 135.47 529.99 135.87C529.68 136.27 529.23 136.53 528.73 136.59C528.65 136.59 528.56 136.6 528.48 136.6V136.61Z" stroke="#101727" stroke-miterlimit="10"/>
<path d="M515.471 134.37C515.401 133.87 515.541 133.37 515.851 132.97C516.161 132.57 516.611 132.31 517.111 132.25C518.151 132.11 519.101 132.85 519.241 133.88C519.311 134.38 519.171 134.88 518.861 135.28C518.551 135.68 518.101 135.94 517.601 136C517.521 136 517.431 136.01 517.351 136.01C516.411 136.01 515.591 135.32 515.471 134.36" stroke="#101727" stroke-miterlimit="10"/>
<path d="M532.131 133.159C532.131 133.159 531.171 131.399 528.641 131.289" stroke="#101727" stroke-miterlimit="10"/>
<path d="M514.01 132.371C514.01 132.371 514.97 130.611 517.5 130.501" stroke="#101727" stroke-miterlimit="10"/>
<path d="M472.6 202.37L483.68 194.85" stroke="#101727" stroke-miterlimit="10"/>
<path d="M477.49 207.25L488.57 199.73" stroke="#101727" stroke-miterlimit="10"/>
<path d="M114.701 30.82H35.4609C32.8376 30.82 30.7109 32.9467 30.7109 35.57V114.81C30.7109 117.433 32.8376 119.56 35.4609 119.56H114.701C117.324 119.56 119.451 117.433 119.451 114.81V35.57C119.451 32.9467 117.324 30.82 114.701 30.82Z" fill="white" stroke="#101727" stroke-miterlimit="10"/>
<path d="M108.289 30.82H114.709C117.329 30.82 119.459 32.95 119.459 35.57V95.51" stroke="#101727" stroke-miterlimit="10"/>
<path d="M119.451 105.48V114.82C119.451 117.44 117.321 119.57 114.701 119.57H35.4609C32.8409 119.57 30.7109 117.44 30.7109 114.82V35.57C30.7109 32.95 32.8409 30.82 35.4609 30.82H100.701" stroke="#101727" stroke-miterlimit="10"/>
<path d="M28.7402 119.56C26.1202 119.56 23.9902 117.43 23.9902 114.81V35.57" stroke="#101727" stroke-miterlimit="10"/>
<path d="M38.1309 55.77V41.61H44.2309C45.2809 41.61 46.2009 41.82 46.9909 42.23C47.7809 42.65 48.3909 43.23 48.8309 43.98C49.2709 44.73 49.4909 45.61 49.4909 46.62C49.4909 47.63 49.2609 48.51 48.8209 49.25C48.3709 49.99 47.7409 50.56 46.9309 50.96C46.1209 51.36 45.1709 51.56 44.1009 51.56H40.4509V48.58H43.3209C43.7809 48.58 44.1709 48.5 44.4909 48.34C44.8109 48.18 45.0609 47.95 45.2309 47.66C45.4009 47.37 45.4909 47.02 45.4909 46.62C45.4909 46.22 45.4009 45.86 45.2309 45.57C45.0609 45.28 44.8109 45.06 44.4909 44.91C44.1709 44.76 43.7809 44.68 43.3209 44.68H41.9709V55.76H38.1309V55.77Z" fill="#01654D"/>
<path d="M50.9102 55.77V41.61H61.1202V44.71H54.7502V47.11H60.5902V50.13H54.7502V52.68H61.0802V55.78H50.9102V55.77Z" fill="#01654D"/>
<path d="M62.8398 55.77V41.61H68.9398C69.9898 41.61 70.9098 41.8 71.6998 42.19C72.4898 42.57 73.0998 43.12 73.5398 43.84C73.9798 44.56 74.1998 45.42 74.1998 46.42C74.1998 47.42 73.9698 48.29 73.5298 48.99C73.0798 49.69 72.4498 50.21 71.6398 50.57C70.8298 50.92 69.8798 51.1 68.8098 51.1H65.1598V48.12H68.0298C68.4898 48.12 68.8798 48.06 69.1998 47.95C69.5198 47.84 69.7698 47.66 69.9398 47.41C70.1098 47.16 70.1998 46.84 70.1998 46.43C70.1998 46.02 70.1098 45.7 69.9398 45.44C69.7698 45.19 69.5198 45 69.1998 44.88C68.8798 44.76 68.4898 44.7 68.0298 44.7H66.6798V55.78H62.8398V55.77ZM70.4998 55.77L67.0398 49.27H71.1298L74.6798 55.77H70.4998Z" fill="#01654D"/>
<path d="M75.8403 55.77V41.61H81.9003L83.1703 46.04C83.2803 46.42 83.4003 46.92 83.5403 47.55C83.6803 48.18 83.8203 48.85 83.9503 49.57C84.0903 50.29 84.2103 50.98 84.3303 51.64C84.4403 52.3 84.5303 52.86 84.6003 53.32H83.8903C83.9503 52.86 84.0403 52.3 84.1503 51.64C84.2603 50.98 84.3803 50.29 84.5203 49.57C84.6603 48.85 84.7903 48.18 84.9303 47.55C85.0703 46.92 85.1903 46.42 85.3003 46.04L86.5503 41.61H92.6203V55.77H88.7403V50.3C88.7403 49.98 88.7403 49.55 88.7603 49.01C88.7803 48.47 88.7903 47.89 88.8103 47.25C88.8303 46.61 88.8503 45.97 88.8603 45.32C88.8803 44.67 88.8803 44.08 88.8803 43.53H89.1003C88.9903 44.13 88.8603 44.76 88.7103 45.41C88.5603 46.06 88.4203 46.69 88.2603 47.31C88.1003 47.93 87.9603 48.5 87.8203 49.01C87.6803 49.53 87.5603 49.96 87.4603 50.3L85.8203 55.77H82.6303L80.9603 50.3C80.8603 49.96 80.7403 49.53 80.5903 49.01C80.4503 48.49 80.3003 47.93 80.1403 47.31C79.9803 46.69 79.8303 46.06 79.6803 45.41C79.5303 44.76 79.4003 44.13 79.2803 43.53H79.5603C79.5603 44.07 79.5603 44.67 79.5803 45.32C79.6003 45.97 79.6103 46.61 79.6303 47.25C79.6503 47.89 79.6703 48.48 79.6803 49.01C79.7003 49.55 79.7003 49.97 79.7003 50.3V55.77H75.8203H75.8403Z" fill="#01654D"/>
<path d="M98.2892 41.61V55.77H94.4492V41.61H98.2892Z" fill="#01654D"/>
<path d="M99.7305 44.71V41.61H112.03V44.71H107.8V55.77H103.96V44.71H99.7305Z" fill="#01654D"/>
<path d="M50.1304 88.49C56.0564 88.49 60.8604 83.686 60.8604 77.76C60.8604 71.834 56.0564 67.03 50.1304 67.03C44.2044 67.03 39.4004 71.834 39.4004 77.76C39.4004 83.686 44.2044 88.49 50.1304 88.49Z" fill="#E9BE51" stroke="#101727" stroke-miterlimit="10"/>
<path d="M44.3301 77.46L48.7801 81.36L55.9301 74.16" stroke="#101727" stroke-miterlimit="10"/>
<path d="M38.9004 94.93H111.27" stroke="#101727" stroke-miterlimit="10"/>
<path d="M69.1699 74.16H111.27" stroke="#101727" stroke-miterlimit="10"/>
<path d="M69.1699 81.09H111.27" stroke="#101727" stroke-miterlimit="10"/>
<path d="M69.1699 88.01H111.27" stroke="#101727" stroke-miterlimit="10"/>
<path d="M38.9004 101.85H111.27" stroke="#101727" stroke-miterlimit="10"/>
<path d="M38.9004 108.77H111.27" stroke="#101727" stroke-miterlimit="10"/>
<path d="M424.51 469.88H438.82C438.82 466.53 436.52 463.71 433.4 462.94C432.84 462.8 432.26 462.73 431.66 462.73C427.7 462.73 424.5 465.94 424.5 469.89L424.51 469.88Z" fill="#01654D"/>
<path d="M481.619 469.88H495.929C495.929 465.93 492.719 462.72 488.769 462.72C487.929 462.72 487.109 462.87 486.359 463.14C483.589 464.13 481.609 466.77 481.609 469.88H481.619Z" fill="#01654D"/>
<path d="M432.67 466.97C432.67 467.98 432.8 468.95 433.05 469.88H455.08C455.33 468.95 455.46 467.97 455.46 466.97C455.46 462.84 453.27 459.23 449.98 457.23C448.26 456.17 446.23 455.57 444.06 455.57C439.19 455.57 435.02 458.63 433.4 462.94C432.92 464.2 432.67 465.55 432.67 466.97Z" fill="#01654D"/>
<path d="M482.75 466.97C482.75 467.98 482.88 468.95 483.13 469.88H505.16C505.41 468.95 505.54 467.97 505.54 466.97C505.54 462.84 503.35 459.23 500.06 457.23C498.34 456.17 496.31 455.57 494.14 455.57C489.27 455.57 485.1 458.63 483.48 462.94C483 464.2 482.75 465.55 482.75 466.97Z" fill="#01654D"/>
<path d="M448.299 463.8C448.299 465.9 448.569 467.94 449.079 469.88H495.499C496.019 467.93 496.279 465.9 496.279 463.8C496.279 463 496.239 462.19 496.169 461.41C494.959 449.29 484.739 439.81 472.289 439.81C462.549 439.81 454.159 445.63 450.399 453.97C449.039 456.97 448.289 460.3 448.289 463.8H448.299Z" fill="#01654D"/>
<path d="M431.66 462.73C432.26 462.73 432.84 462.8 433.4 462.94C435.02 458.63 439.18 455.57 444.06 455.57C445.96 455.57 447.75 456.03 449.33 456.86C449.63 455.87 449.99 454.9 450.41 453.96C454.17 445.61 462.56 439.8 472.3 439.8C482.68 439.8 491.5 446.38 494.85 455.59C496.75 455.71 498.52 456.28 500.06 457.22C503.35 459.22 505.54 462.83 505.54 466.96C505.54 467.97 505.41 468.94 505.16 469.87H495.51H483.13H455.08H449.09H438.82H433.05H424.51C424.51 465.92 427.71 462.71 431.67 462.71L431.66 462.73Z" fill="#01654D"/>
<path d="M628.47 466.3H542.62C537.99 463.35 534.91 458.17 534.91 452.27C534.91 446.83 537.52 442 541.57 438.97C541.46 438.08 541.4 437.18 541.4 436.26C541.4 424.25 551.14 414.51 563.15 414.51C565.24 414.51 567.25 414.81 569.16 415.36C572.35 404.68 582.24 396.9 593.95 396.9C607.46 396.9 618.54 407.25 619.72 420.45C630.81 423.37 639 433.47 639 445.48C639 454.03 634.85 461.6 628.47 466.32V466.3Z" fill="#849465"/>
<path d="M545.56 469.88H489.45C486.42 467.95 484.41 464.57 484.41 460.71C484.41 457.15 486.12 454 488.76 452.01C488.69 451.43 488.65 450.84 488.65 450.24C488.65 442.39 495.02 436.02 502.87 436.02C504.23 436.02 505.55 436.22 506.8 436.58C508.89 429.6 515.35 424.51 523.01 424.51C531.84 424.51 539.08 431.27 539.85 439.9C547.1 441.81 552.45 448.41 552.45 456.26C552.45 461.85 549.74 466.8 545.56 469.88Z" fill="#849465"/>
<path d="M507.191 395.21C505.511 393.37 504.471 390.93 504.471 388.25C504.471 382.55 509.091 377.93 514.791 377.93C515.521 377.93 516.241 378.01 516.931 378.16C517.921 372.32 522.991 367.87 529.111 367.87C531.751 367.87 534.191 368.7 536.191 370.11C539.111 367.24 542.761 365.04 546.971 363.83C560.461 359.95 574.531 367.74 578.411 381.23C578.861 382.81 579.151 384.39 579.291 385.97C587.851 389.49 593.881 397.9 593.881 407.73C593.881 419.81 584.781 429.75 573.061 431.09C569.591 437.36 562.921 441.6 555.251 441.6C552.311 441.6 549.511 440.97 546.991 439.85C544.461 440.97 541.671 441.6 538.731 441.6C531.121 441.6 524.491 437.42 521.001 431.23C520.721 431.24 520.441 431.25 520.161 431.25C508.921 431.25 499.811 422.14 499.811 410.9C499.811 404.59 502.681 398.95 507.201 395.21H507.191Z" fill="#01654D"/>
<path d="M546.34 397.2V469.73" stroke="#101727" stroke-miterlimit="10"/>
<path d="M530.4 406.79L546.34 422.72L562.28 406.79" stroke="#101727" stroke-miterlimit="10"/>
<path d="M512.241 469.88C511.741 468.33 511.461 466.67 511.461 464.95C511.461 456.07 518.661 448.86 527.551 448.86C529.091 448.86 530.581 449.08 532.001 449.49C534.361 441.59 541.671 435.84 550.341 435.84C558.941 435.84 566.211 441.51 568.631 449.32C569.121 449.28 569.611 449.25 570.101 449.25C578.981 449.25 586.191 456.45 586.191 465.34C586.191 466.92 585.961 468.44 585.541 469.88H512.261H512.241Z" fill="#B7AB65"/>
<path d="M661.46 469.88H647.15C647.15 466.53 649.45 463.71 652.57 462.94C653.13 462.8 653.71 462.73 654.31 462.73C658.27 462.73 661.47 465.94 661.47 469.89L661.46 469.88Z" fill="#01654D"/>
<path d="M604.349 469.88H590.039C590.039 465.93 593.249 462.72 597.199 462.72C598.039 462.72 598.859 462.87 599.609 463.14C602.379 464.13 604.359 466.77 604.359 469.88H604.349Z" fill="#01654D"/>
<path d="M653.3 466.97C653.3 467.98 653.17 468.95 652.92 469.88H630.89C630.64 468.95 630.51 467.97 630.51 466.97C630.51 462.84 632.7 459.23 635.99 457.23C637.71 456.17 639.74 455.57 641.91 455.57C646.78 455.57 650.95 458.63 652.57 462.94C653.05 464.2 653.3 465.55 653.3 466.97Z" fill="#01654D"/>
<path d="M603.22 466.97C603.22 467.98 603.09 468.95 602.84 469.88H580.81C580.56 468.95 580.43 467.97 580.43 466.97C580.43 462.84 582.62 459.23 585.91 457.23C587.63 456.17 589.66 455.57 591.83 455.57C596.7 455.57 600.87 458.63 602.49 462.94C602.97 464.2 603.22 465.55 603.22 466.97Z" fill="#01654D"/>
<path d="M637.66 463.8C637.66 465.9 637.39 467.94 636.88 469.88H590.46C589.94 467.93 589.68 465.9 589.68 463.8C589.68 463 589.72 462.19 589.79 461.41C591 449.29 601.22 439.81 613.67 439.81C623.41 439.81 631.8 445.63 635.56 453.97C636.92 456.97 637.67 460.3 637.67 463.8H637.66Z" fill="#01654D"/>
<path d="M654.3 462.73C653.7 462.73 653.12 462.8 652.56 462.94C650.94 458.63 646.78 455.57 641.9 455.57C640 455.57 638.21 456.03 636.63 456.86C636.33 455.87 635.97 454.9 635.55 453.96C631.79 445.61 623.4 439.8 613.66 439.8C603.28 439.8 594.46 446.38 591.11 455.59C589.21 455.71 587.44 456.28 585.9 457.22C582.61 459.22 580.42 462.83 580.42 466.96C580.42 467.97 580.55 468.94 580.8 469.87H661.45C661.45 465.92 658.25 462.71 654.29 462.71L654.3 462.73Z" fill="#01654D"/>
<path d="M479.151 440C478.271 440 477.401 439.92 476.561 439.78L479.151 440Z" fill="#B7AB65"/>
<path d="M479.151 440C478.271 440 477.401 439.92 476.561 439.78" stroke="#101727" stroke-miterlimit="10"/>
<path d="M476.559 439.78C473.949 444.54 466.879 448.61 459.019 447.81C452.809 447.18 447.409 444.08 445.009 438.73C443.129 439.55 441.069 440 438.889 440C430.409 440 423.539 433.13 423.539 424.65C423.539 416.17 430.409 409.3 438.889 409.3C439.349 409.3 439.809 409.32 440.259 409.36C438.219 399.62 444.009 389.82 453.719 387.03C457.979 385.81 462.309 386.13 466.119 387.66C465.489 378.82 471.089 370.45 479.949 367.91C490.119 364.99 500.739 370.86 503.659 381.04C504.419 383.68 504.579 386.34 504.229 388.9C508.299 391.3 511.499 395.2 512.909 400.1C513.799 403.21 513.869 406.35 513.249 409.31C513.699 409.27 514.159 409.25 514.619 409.25C523.099 409.25 529.969 416.12 529.969 424.6C529.969 433.08 523.099 439.95 514.619 439.95C512.439 439.95 510.369 439.49 508.499 438.68C506.099 444.03 500.729 447.76 494.489 447.76C494.489 447.76 484.499 448.55 476.549 439.8L476.559 439.78Z" fill="#B7AB65"/>
<path d="M476.76 415.3V470" stroke="#101727" stroke-miterlimit="10"/>
<path d="M464.74 422.53L476.76 434.55L488.78 422.53" stroke="#101727" stroke-miterlimit="10"/>
<path d="M114.26 306.41H35.0195C32.3962 306.41 30.2695 308.537 30.2695 311.16V390.4C30.2695 393.023 32.3962 395.15 35.0195 395.15H114.26C116.883 395.15 119.01 393.023 119.01 390.4V311.16C119.01 308.537 116.883 306.41 114.26 306.41Z" fill="white"/>
<path d="M114.701 306.41H35.4609C32.8376 306.41 30.7109 308.537 30.7109 311.16V390.4C30.7109 393.023 32.8376 395.15 35.4609 395.15H114.701C117.324 395.15 119.451 393.023 119.451 390.4V311.16C119.451 308.537 117.324 306.41 114.701 306.41Z" fill="white"/>
<path d="M108.289 306.41H114.709C117.329 306.41 119.459 308.54 119.459 311.16V371.1" stroke="#101727" stroke-miterlimit="10"/>
<path d="M119.451 381.07V390.41C119.451 393.03 117.321 395.16 114.701 395.16H35.4609C32.8409 395.16 30.7109 393.03 30.7109 390.41V311.17C30.7109 308.55 32.8409 306.42 35.4609 306.42H100.701" stroke="#101727" stroke-miterlimit="10"/>
<path d="M28.7402 395.15C26.1202 395.15 23.9902 393.02 23.9902 390.4V311.16" stroke="#101727" stroke-miterlimit="10"/>
<path d="M60.6895 326.5V376.12" stroke="#101727" stroke-linecap="square" stroke-linejoin="round" stroke-dasharray="4.58 4.58"/>
<path d="M77.5898 326.5V376.12" stroke="#101727" stroke-linecap="square" stroke-linejoin="round" stroke-dasharray="4.58 4.58"/>
<path d="M94.4902 326.5V376.12" stroke="#101727" stroke-linecap="square" stroke-linejoin="round" stroke-dasharray="4.58 4.58"/>
<path d="M64.7996 344.75C64.7996 347.02 62.9596 348.85 60.6996 348.85C58.4396 348.85 56.5996 347.01 56.5996 344.75C56.5996 342.49 58.4396 340.65 60.6996 340.65C62.9596 340.65 64.7996 342.49 64.7996 344.75Z" fill="#B7AB65"/>
<path d="M81.6902 353.4C81.6902 355.67 79.8502 357.5 77.5902 357.5C75.3302 357.5 73.4902 355.66 73.4902 353.4C73.4902 351.14 75.3302 349.3 77.5902 349.3C79.8502 349.3 81.6902 351.14 81.6902 353.4Z" fill="#E9BE51"/>
<path d="M98.5398 329.42C98.5398 331.69 96.6999 333.52 94.4398 333.52C92.1798 333.52 90.3398 331.68 90.3398 329.42C90.3398 327.16 92.1798 325.32 94.4398 325.32C96.6999 325.32 98.5398 327.16 98.5398 329.42Z" fill="#01654D"/>
<path d="M44.3809 327.85V376.12H102.691" stroke="#101727"/>
<path d="M41.0898 328H47.7498L44.3798 322.5L41.0898 328Z" fill="#101727"/>
<path d="M102.689 372.65V379.32L108.189 375.94L102.689 372.65Z" fill="#101727"/>
<path d="M114.701 169.61H35.4609C32.8376 169.61 30.7109 171.737 30.7109 174.36V253.6C30.7109 256.223 32.8376 258.35 35.4609 258.35H114.701C117.324 258.35 119.451 256.223 119.451 253.6V174.36C119.451 171.737 117.324 169.61 114.701 169.61Z" fill="white"/>
<path d="M119.451 244.26V253.6C119.451 256.22 117.321 258.35 114.701 258.35H35.4609C32.8409 258.35 30.7109 256.22 30.7109 253.6V174.36C30.7109 171.74 32.8409 169.61 35.4609 169.61H100.701" stroke="#101727" stroke-miterlimit="10"/>
<path d="M108.289 169.61H114.709C117.329 169.61 119.459 171.74 119.459 174.36V234.3" stroke="#101727" stroke-miterlimit="10"/>
<path d="M28.7402 258.35C26.1202 258.35 23.9902 256.22 23.9902 253.6V174.36" stroke="#101727" stroke-miterlimit="10"/>
<path d="M54.7102 178.63C48.1002 178.63 42.7402 183.99 42.7402 190.6V193.82H66.6902V190.6C66.6902 183.99 61.3302 178.63 54.7202 178.63H54.7102Z" fill="#E9BE51" stroke="#101727" stroke-miterlimit="10"/>
<path d="M59.9402 192.71H69.7302C70.6202 192.71 71.3502 193.43 71.3502 194.33C71.3502 195.22 70.6302 195.95 69.7302 195.95H41.8602C40.9702 195.95 40.2402 195.23 40.2402 194.33C40.2402 193.44 40.9602 192.71 41.8602 192.71H43.8902" fill="#E9BE51"/>
<path d="M56.0799 178.7C56.0799 178.7 64.4799 179.36 64.4799 187.82H61.3999C61.4099 178.92 52.9199 178.76 52.9199 178.76" stroke="#101727" stroke-miterlimit="10"/>
<path d="M59.9402 192.71H69.7302C70.6202 192.71 71.3502 193.43 71.3502 194.33C71.3502 195.22 70.6302 195.95 69.7302 195.95H41.8602C40.9702 195.95 40.2402 195.23 40.2402 194.33C40.2402 193.44 40.9602 192.71 41.8602 192.71H43.8902" stroke="#101727" stroke-miterlimit="10"/>
<path d="M92.4798 178.63C85.8698 178.63 80.5098 183.99 80.5098 190.6V193.82H104.46V190.6C104.46 183.99 99.0998 178.63 92.4898 178.63H92.4798Z" fill="#E9BE51" stroke="#101727" stroke-miterlimit="10"/>
<path d="M97.7098 192.71H107.5C108.39 192.71 109.12 193.43 109.12 194.33C109.12 195.22 108.4 195.95 107.5 195.95H79.6298C78.7398 195.95 78.0098 195.23 78.0098 194.33C78.0098 193.44 78.7298 192.71 79.6298 192.71H81.6598" fill="#E9BE51"/>
<path d="M93.8494 178.7C93.8494 178.7 102.249 179.36 102.249 187.82H99.1694C99.1794 178.92 90.6895 178.76 90.6895 178.76" stroke="#101727" stroke-miterlimit="10"/>
<path d="M97.7098 192.71H107.5C108.39 192.71 109.12 193.43 109.12 194.33C109.12 195.22 108.4 195.95 107.5 195.95H79.6298C78.7398 195.95 78.0098 195.23 78.0098 194.33C78.0098 193.44 78.7298 192.71 79.6298 192.71H81.6598" stroke="#101727" stroke-miterlimit="10"/>
<path d="M54.7102 205.28C48.1002 205.28 42.7402 210.64 42.7402 217.25V220.47H66.6902V217.25C66.6902 210.64 61.3302 205.28 54.7202 205.28H54.7102Z" fill="#E9BE51" stroke="#101727" stroke-miterlimit="10"/>
<path d="M59.9402 219.36H69.7302C70.6202 219.36 71.3502 220.08 71.3502 220.98C71.3502 221.87 70.6302 222.6 69.7302 222.6H41.8602C40.9702 222.6 40.2402 221.88 40.2402 220.98C40.2402 220.09 40.9602 219.36 41.8602 219.36H43.8902" fill="#E9BE51"/>
<path d="M56.0799 205.36C56.0799 205.36 64.4799 206.02 64.4799 214.48H61.3999C61.4099 205.58 52.9199 205.42 52.9199 205.42" stroke="#101727" stroke-miterlimit="10"/>
<path d="M59.9402 219.36H69.7302C70.6202 219.36 71.3502 220.08 71.3502 220.98C71.3502 221.87 70.6302 222.6 69.7302 222.6H41.8602C40.9702 222.6 40.2402 221.88 40.2402 220.98C40.2402 220.09 40.9602 219.36 41.8602 219.36H43.8902" stroke="#101727" stroke-miterlimit="10"/>
<path d="M92.4798 205.28C85.8698 205.28 80.5098 210.64 80.5098 217.25V220.47H104.46V217.25C104.46 210.64 99.0998 205.28 92.4898 205.28H92.4798Z" fill="#E9BE51" stroke="#101727" stroke-miterlimit="10"/>
<path d="M97.7098 219.36H107.5C108.39 219.36 109.12 220.08 109.12 220.98C109.12 221.87 108.4 222.6 107.5 222.6H79.6298C78.7398 222.6 78.0098 221.88 78.0098 220.98C78.0098 220.09 78.7298 219.36 79.6298 219.36H81.6598" fill="#E9BE51"/>
<path d="M93.8494 205.36C93.8494 205.36 102.249 206.02 102.249 214.48H99.1694C99.1794 205.58 90.6895 205.42 90.6895 205.42" stroke="#101727" stroke-miterlimit="10"/>
<path d="M97.7098 219.36H107.5C108.39 219.36 109.12 220.08 109.12 220.98C109.12 221.87 108.4 222.6 107.5 222.6H79.6298C78.7398 222.6 78.0098 221.88 78.0098 220.98C78.0098 220.09 78.7298 219.36 79.6298 219.36H81.6598" stroke="#101727" stroke-miterlimit="10"/>
<path d="M54.7102 231.94C48.1002 231.94 42.7402 237.3 42.7402 243.91V247.13H66.6902V243.91C66.6902 237.3 61.3302 231.94 54.7202 231.94H54.7102Z" fill="#E9BE51" stroke="#101727" stroke-miterlimit="10"/>
<path d="M59.9402 246.02H69.7302C70.6202 246.02 71.3502 246.74 71.3502 247.64C71.3502 248.53 70.6302 249.26 69.7302 249.26H41.8602C40.9702 249.26 40.2402 248.54 40.2402 247.64C40.2402 246.75 40.9602 246.02 41.8602 246.02H43.8902" fill="#E9BE51"/>
<path d="M56.0799 232.01C56.0799 232.01 64.4799 232.67 64.4799 241.13H61.3999C61.4099 232.23 52.9199 232.07 52.9199 232.07" stroke="#101727" stroke-miterlimit="10"/>
<path d="M59.9402 246.02H69.7302C70.6202 246.02 71.3502 246.74 71.3502 247.64C71.3502 248.53 70.6302 249.26 69.7302 249.26H41.8602C40.9702 249.26 40.2402 248.54 40.2402 247.64C40.2402 246.75 40.9602 246.02 41.8602 246.02H43.8902" stroke="#101727" stroke-miterlimit="10"/>
<path d="M92.4805 231.94V249.2" stroke="#101727" stroke-miterlimit="10"/>
<path d="M101.11 240.57H83.8496" stroke="#101727" stroke-miterlimit="10"/>
<path d="M127.66 76.96H158.39V420.03" stroke="#101727" stroke-miterlimit="10" stroke-dasharray="7 7"/>
<path d="M158.39 214.58H127.66" stroke="#101727" stroke-miterlimit="10" stroke-dasharray="7 7"/>
<path d="M158.39 349.71H127.66" stroke="#101727" stroke-miterlimit="10" stroke-dasharray="7 7"/>
<path d="M158.39 430.99C151.35 430.99 145.65 436.69 145.65 443.73C145.65 456 158.39 468.92 158.39 468.92C158.39 468.92 171.13 455.88 171.13 443.73C171.13 436.69 165.43 430.99 158.39 430.99ZM158.39 449.96C155.11 449.96 152.45 447.3 152.45 444.02C152.45 440.74 155.11 438.08 158.39 438.08C161.67 438.08 164.33 440.74 164.33 444.02C164.33 447.3 161.67 449.96 158.39 449.96Z" fill="#01654D"/>
<path d="M158.391 449.9C161.704 449.9 164.391 447.214 164.391 443.9C164.391 440.586 161.704 437.9 158.391 437.9C155.077 437.9 152.391 440.586 152.391 443.9C152.391 447.214 155.077 449.9 158.391 449.9Z" fill="white"/>
<path d="M0 469.49H678" stroke="#101727" stroke-miterlimit="10"/>
<path d="M518.859 149C519.839 150.01 521.309 150.55 523.059 150.55C523.279 150.55 523.509 150.54 523.749 150.52C525.549 150.38 527.319 149.7 528.369 148.73" stroke="#EAE2CF" stroke-miterlimit="10"/>
</g>
<defs>
<clipPath id="clip0_2680_607">
<rect width="678" height="470" fill="white"/>
</clipPath>
</defs>
</svg>
