<svg width="420" height="330" viewBox="0 0 420 330" fill="none" xmlns="http://www.w3.org/2000/svg">
<path opacity="0.12" d="M32.0069 30.0026L122.929 320.5H208.602L300 29.5L32 30.0026H32.0069Z" fill="#01654D"/>
<path d="M99.5508 204.502H143.469L121.513 189.036L99.5508 204.502Z" stroke="#101727" stroke-linecap="round" stroke-linejoin="round"/>
<path d="M143.469 189.036H99.5508L121.513 204.502L143.469 189.036Z" stroke="#101727" stroke-linecap="round" stroke-linejoin="round"/>
<path d="M99.5508 189.035H143.469L121.513 173.569L99.5508 189.035Z" stroke="#101727" stroke-linecap="round" stroke-linejoin="round"/>
<path d="M143.469 173.569H99.5508L121.513 189.035L143.469 173.569Z" stroke="#101727" stroke-linecap="round" stroke-linejoin="round"/>
<path d="M99.5508 173.569H143.469L121.513 158.098L99.5508 173.569Z" stroke="#101727" stroke-linecap="round" stroke-linejoin="round"/>
<path d="M143.469 158.098H99.5508L121.513 173.569L143.469 158.098Z" stroke="#101727" stroke-linecap="round" stroke-linejoin="round"/>
<path d="M143.469 210.604V158.098" stroke="#101727" stroke-linecap="round" stroke-linejoin="round"/>
<path d="M99.5508 210.604V158.098" stroke="#101727" stroke-linecap="round" stroke-linejoin="round"/>
<mask id="mask0_2680_2748" style="mask-type:luminance" maskUnits="userSpaceOnUse" x="32" y="29" width="269" height="296">
<path d="M32.4132 30.0033L124.459 324.448L208.972 323.483L300.362 29.5L32.4062 30.0033H32.4132Z" fill="white"/>
</mask>
<g mask="url(#mask0_2680_2748)">
<path d="M283.097 323.349H87.2658L77.6055 210.979H273.444L283.097 323.349Z" fill="#DDD2BA" stroke="#101727" stroke-miterlimit="10"/>
<path d="M261.412 41.4651L271.798 47.6627V216.28H261.412" fill="#B7AB65"/>
<path d="M261.412 41.4651L271.798 47.6627V216.28H261.412" stroke="#101727" stroke-miterlimit="10"/>
<path d="M208.082 216.273H261.411V41.4651H208.082V216.28V216.273Z" fill="#EAE2CF" stroke="#101727" stroke-miterlimit="10"/>
<path d="M261.408 41.4651L271.786 47.6627V216.28H208.086V41.4651H261.408Z" stroke="#101727" stroke-miterlimit="10"/>
<path d="M212.016 51.8842H256.913" stroke="#101727" stroke-miterlimit="10"/>
<path d="M212.016 63.8921H256.913" stroke="#101727" stroke-miterlimit="10"/>
<path d="M212.016 75.9153H256.913" stroke="#101727" stroke-miterlimit="10"/>
<path d="M212.016 87.9232H256.913" stroke="#101727" stroke-miterlimit="10"/>
<path d="M212.016 99.8741H256.913" stroke="#101727" stroke-miterlimit="10"/>
<path d="M212.016 111.806H256.913" stroke="#101727" stroke-miterlimit="10"/>
<path d="M212.016 123.822H256.913" stroke="#101727" stroke-miterlimit="10"/>
<path d="M212.016 135.837H256.913" stroke="#101727" stroke-miterlimit="10"/>
<path d="M212.016 146.024H256.913" stroke="#101727" stroke-miterlimit="10"/>
<path d="M212.016 158.032H256.913" stroke="#101727" stroke-miterlimit="10"/>
<path d="M212.016 170.052H256.913" stroke="#101727" stroke-miterlimit="10"/>
<path d="M212.016 182.071H256.913" stroke="#101727" stroke-miterlimit="10"/>
<path d="M212.016 194.083H256.913" stroke="#101727" stroke-miterlimit="10"/>
<path d="M212.016 206.091H256.913" stroke="#101727" stroke-miterlimit="10"/>
<path d="M212.016 51.8842V206.1" stroke="#101727" stroke-miterlimit="10"/>
<path d="M232.428 51.8842V206.1" stroke="#101727" stroke-miterlimit="10"/>
<path d="M256.912 51.8842V206.1" stroke="#101727" stroke-miterlimit="10"/>
<path d="M261.412 216.273V41.4651V216.273Z" fill="#EAE2CF"/>
<path d="M261.412 216.273V41.4651" stroke="#101727" stroke-miterlimit="10"/>
<path d="M261.412 216.273V41.4651" stroke="#101727" stroke-miterlimit="10"/>
<path d="M123.193 205.627C122.882 205.627 122.578 205.599 122.281 205.551L123.193 205.627Z" fill="#978D42" stroke="#101727" stroke-miterlimit="10"/>
<path d="M123.193 205.627C122.882 205.627 122.578 205.599 122.281 205.551" stroke="#101727" stroke-miterlimit="10"/>
<path d="M122.283 205.546C121.365 207.235 118.879 208.683 116.124 208.393C113.942 208.166 112.043 207.07 111.201 205.167C110.545 205.457 109.82 205.615 109.053 205.615C106.077 205.615 103.66 203.175 103.66 200.169C103.66 197.163 106.077 194.723 109.053 194.723C109.219 194.723 109.378 194.723 109.536 194.75C108.818 191.29 110.855 187.815 114.267 186.822C115.765 186.388 117.284 186.505 118.624 187.05C118.403 183.913 120.371 180.942 123.485 180.039C127.062 178.998 130.791 181.087 131.82 184.699C132.082 185.637 132.144 186.581 132.02 187.491C133.449 188.339 134.575 189.732 135.065 191.469C135.383 192.572 135.403 193.689 135.182 194.737C135.341 194.723 135.5 194.716 135.659 194.716C138.635 194.716 141.052 197.156 141.052 200.162C141.052 203.168 138.635 205.608 135.659 205.608C134.892 205.608 134.167 205.45 133.511 205.16C132.669 207.056 130.784 208.386 128.588 208.386C128.588 208.386 125.08 208.662 122.283 205.56V205.546Z" fill="#849465" stroke="#101727" stroke-miterlimit="10"/>
<path d="M122.354 196.858V216.278" stroke="#101727" stroke-miterlimit="10"/>
<path d="M118.127 199.42L122.353 203.694L126.579 199.42" stroke="#101727" stroke-miterlimit="10"/>
<path d="M142.99 216.274H187.667V83.7533H142.99V216.274Z" fill="#E9BE51" stroke="#101727" stroke-miterlimit="10"/>
<path d="M187.666 83.7495L198.045 89.1888V216.278H187.666" fill="#B7AB65"/>
<path d="M187.666 83.7495L198.045 89.1888V216.278H187.666" stroke="#101727" stroke-miterlimit="10"/>
<path d="M187.666 216.278V83.7495V216.278Z" fill="#EAE2CF"/>
<path d="M187.666 216.278V83.7495" stroke="#101727" stroke-miterlimit="10"/>
<path d="M187.666 216.278V83.7495" stroke="#101727" stroke-miterlimit="10"/>
<path d="M187.667 83.7495L198.045 89.1957V216.278H142.99V83.7495H187.674H187.667Z" stroke="#101727" stroke-miterlimit="10"/>
<path d="M146.92 92.8951H183.165" stroke="#101727" stroke-miterlimit="10"/>
<path d="M146.92 103.451H183.165" stroke="#101727" stroke-miterlimit="10"/>
<path d="M146.92 113.999H183.165" stroke="#101727" stroke-miterlimit="10"/>
<path d="M146.92 124.548H183.165" stroke="#101727" stroke-miterlimit="10"/>
<path d="M146.92 135.1H183.165" stroke="#101727" stroke-miterlimit="10"/>
<path d="M146.92 145.644H183.165" stroke="#101727" stroke-miterlimit="10"/>
<path d="M146.92 154.592H183.165" stroke="#101727" stroke-miterlimit="10"/>
<path d="M146.92 165.144H183.165" stroke="#101727" stroke-miterlimit="10"/>
<path d="M146.92 175.685H183.165" stroke="#101727" stroke-miterlimit="10"/>
<path d="M146.92 186.245H183.165" stroke="#101727" stroke-miterlimit="10"/>
<path d="M146.92 196.789H183.165" stroke="#101727" stroke-miterlimit="10"/>
<path d="M146.92 207.334H183.165" stroke="#101727" stroke-miterlimit="10"/>
<path d="M166.082 84.2009V54.047" stroke="#101727" stroke-miterlimit="10"/>
<path d="M177.391 216.275H222.067V129.185H177.391V216.275Z" fill="#EAE2CF" stroke="#101727" stroke-miterlimit="10" stroke-linejoin="round"/>
<path d="M222.066 129.181L232.445 134.627V216.279H222.066" fill="#B7AB65"/>
<path d="M222.066 129.181L232.445 134.627V216.279H222.066" stroke="#101727" stroke-miterlimit="10" stroke-linejoin="round"/>
<path d="M222 216.5L222 129.5L222 216.5Z" fill="#EAE2CF"/>
<path d="M222 216.5L222 129.5" stroke="#101727" stroke-miterlimit="10"/>
<path d="M181.33 138.327H217.575" stroke="#101727" stroke-miterlimit="10"/>
<path d="M181.33 148.883H217.575" stroke="#101727" stroke-miterlimit="10"/>
<path d="M181.33 159.431H217.575" stroke="#101727" stroke-miterlimit="10"/>
<path d="M181.33 169.976H217.575" stroke="#101727" stroke-miterlimit="10"/>
<path d="M181.33 180.528H217.575" stroke="#101727" stroke-miterlimit="10"/>
<path d="M181.33 191.076H217.575" stroke="#101727" stroke-miterlimit="10"/>
<path d="M181.33 200.02H217.575" stroke="#101727" stroke-miterlimit="10"/>
<path d="M142.846 167.273L156.442 180.62L156.422 216.275H129.664V180.613L142.853 167.273H142.846Z" fill="#EAE2CF" stroke="#101727" stroke-miterlimit="10" stroke-linejoin="round"/>
<path d="M165.582 180.596L152.166 167.174H142.857L156.454 180.617V180.645L156.426 216.272H165.603V180.624L165.582 180.603V180.596Z" fill="#B7AB65" stroke="#101727" stroke-miterlimit="10" stroke-linejoin="round"/>
<path d="M141.969 210.077H133.145V186.879H141.969V210.077Z" stroke="#101727" stroke-miterlimit="10"/>
<path d="M141.969 192.581H133.145" stroke="#101727" stroke-miterlimit="10"/>
<path d="M137.551 210.077V186.879" stroke="#101727" stroke-miterlimit="10"/>
<path d="M141.969 198.481H133.145" stroke="#101727" stroke-miterlimit="10"/>
<path d="M141.969 204.376H133.145" stroke="#101727" stroke-miterlimit="10"/>
<path d="M227.662 174.138L241.258 187.484L241.237 216.273H214.473V187.477L227.662 174.138Z" fill="#E9BE51" stroke="#101727" stroke-miterlimit="10" stroke-linejoin="round"/>
<path d="M250.395 187.473L236.978 174.05H227.67L241.266 187.493V187.514L241.246 216.275H250.423V187.493L250.395 187.473Z" fill="#B7AB65" stroke="#101727" stroke-miterlimit="10" stroke-linejoin="round"/>
<path d="M231.082 197.523H222.264V188.236H231.082V197.523Z" stroke="#101727" stroke-miterlimit="10"/>
<path d="M231.082 195.447H222.264" stroke="#101727" stroke-miterlimit="10"/>
<path d="M226.67 197.523V188.236" stroke="#101727" stroke-miterlimit="10"/>
<path d="M231.082 211.249H222.264V201.963H231.082V211.249Z" stroke="#101727" stroke-miterlimit="10"/>
<path d="M231.082 209.173H222.264" stroke="#101727" stroke-miterlimit="10"/>
<path d="M226.67 211.249V201.963" stroke="#101727" stroke-miterlimit="10"/>
<path d="M216.82 205.548C215.522 204.741 214.023 204.252 212.421 204.155C209.583 196.303 202.139 190.684 193.384 190.684C185.16 190.684 178.075 195.648 174.898 202.769C174.546 203.569 174.242 204.396 173.987 205.237C172.654 204.527 171.142 204.134 169.533 204.134C165.473 204.134 162 206.678 160.591 210.277C160.363 210.256 160.142 210.236 159.907 210.236C156.572 210.236 153.865 212.972 153.865 216.337H221.122C221.336 215.537 221.439 214.703 221.439 213.848C221.439 210.318 219.589 207.244 216.813 205.541L216.82 205.548Z" fill="#849465" stroke="#101727" stroke-miterlimit="10"/>
</g>
<path d="M208.946 322.852C208.69 326.232 205.862 328.898 202.409 328.898H135.316L132.479 322.852H208.946Z" fill="#00563B" stroke="#101727"/>
<path d="M330.881 209.75L308.234 186.628H367.127L376.911 306.443L353.489 306.508" fill="#101727"/>
<path d="M301.1 186.628L302.203 306.443L326.669 306.508L335.002 209.75L349.093 186.628H301.094H301.1Z" fill="#101727"/>
<path d="M314.048 43.9158H314.061C317.475 36.6851 325.269 31.6243 334.331 31.6243C346.55 31.6243 356.452 40.8085 356.452 52.1363C356.452 56.6531 354.87 60.8289 352.204 64.2181L352.565 64.4082C346.518 75.7164 338.868 80.987 330.956 85.1169C323.05 89.2534 312.321 86.8935 309.911 77.4536C307.921 69.6657 307.915 55.4469 314.041 43.9158H314.048Z" fill="#EAE2CF" stroke="#101727" stroke-miterlimit="10"/>
<path d="M328.428 64.5573C327.384 64.3147 326.734 63.279 326.977 62.2366C327.22 61.1943 328.257 60.5453 329.301 60.7879C330.345 61.0304 330.995 62.0662 330.752 63.1085C330.509 64.1508 329.472 64.7998 328.428 64.5573Z" stroke="#101727" stroke-miterlimit="10"/>
<path d="M315.205 59.5182C314.161 59.2757 313.511 58.2399 313.754 57.1976C313.997 56.1553 315.034 55.5063 316.078 55.7488C317.122 55.9914 317.773 57.0271 317.53 58.0695C317.287 59.1118 316.249 59.7608 315.205 59.5182Z" stroke="#101727" stroke-miterlimit="10"/>
<path d="M330.197 57.7646C332.279 58.04 333.888 59.1216 334.767 60.5376" stroke="#101727" stroke-miterlimit="10"/>
<path d="M319.156 53.6544C317.659 52.1794 315.827 51.5763 314.152 51.7468" stroke="#101727" stroke-miterlimit="10"/>
<path d="M325.795 55.465C325.795 55.465 324.081 60.9585 320.568 62.3941C317.049 63.8232 314.541 61.5484 314.836 63.7445C315.118 65.8488 318.296 67.0747 320.306 67.0747" stroke="#101727" stroke-miterlimit="10"/>
<path d="M311.102 46.3461C311.102 46.3461 320.163 23.8739 344.018 31.6159C356.454 35.6476 359.705 51.7216 356.454 60.7419C354.189 67.0286 351.766 70.5948 360.526 81.3195C369.397 92.182 386.58 92.8441 386.633 114.903C386.666 128.453 372.857 135.809 372.857 135.809L346.507 99.2225L345.259 70.0245C344.708 61.4302 341.681 57.4052 335.515 55.0518C334.346 54.606 333.295 54.1799 332.376 53.7931C329.599 52.6197 327.602 50.1286 327.077 47.1655L326.933 46.3592C324.628 48.8044 321.108 49.6894 317.924 48.6274L311.108 46.3592L311.102 46.3461Z" fill="#101727" stroke="#101727" stroke-miterlimit="10"/>
<path d="M324.78 75.3823C322.075 76.8508 315.804 75.5921 313.559 71.5933" stroke="#101727" stroke-miterlimit="10"/>
<path d="M278.243 117.976L311.12 101.712C317.457 98.2312 325.113 96.1859 333.36 96.1859C355.167 96.1859 372.836 110.411 372.836 127.96L373.165 191.994C335.586 184.383 294.784 187.766 294.784 187.766L301.212 133.277L281.185 143.864C275.59 146.965 268.578 145.627 264.52 140.684L246.029 114.941L263.463 102.977L278.243 117.97V117.976Z" fill="#E9BE51" stroke="#101727" stroke-miterlimit="10" stroke-linejoin="round"/>
<path d="M235.477 99.9847L255.208 87.7129L256.436 89.6468L263.462 102.987L246.028 114.951L237.282 102.777L235.477 99.9847Z" fill="#EAE2CF" stroke="#101727" stroke-miterlimit="10"/>
<path d="M340.76 164.652L341.424 165.609L340.754 164.659L340.76 164.652Z" fill="#EAE2CF"/>
<path d="M250.316 94.3972L244.873 85.7702C243.711 83.9608 241.307 83.4299 239.495 84.5902C237.683 85.7505 237.151 88.1498 238.313 89.9591L243.862 98.5992" fill="#EAE2CF"/>
<path d="M250.316 94.3972L244.873 85.7702C243.711 83.9608 241.307 83.4299 239.495 84.5902C237.683 85.7505 237.151 88.1498 238.313 89.9591L243.862 98.5992" stroke="#101727" stroke-miterlimit="10"/>
<path d="M255.629 88.3822L246.371 73.6652C245.215 71.8559 242.805 71.3249 240.993 72.4852C239.181 73.6455 238.649 76.0514 239.811 77.8541L248.919 92.1844" fill="#EAE2CF"/>
<path d="M255.629 88.3822L246.371 73.6652C245.215 71.8559 242.805 71.3249 240.993 72.4852C239.181 73.6455 238.649 76.0514 239.811 77.8541L248.919 92.1844" stroke="#101727" stroke-miterlimit="10"/>
<path d="M243.855 98.5868L238.176 89.8286C237.013 88.0193 234.61 87.4883 232.798 88.6487C230.985 89.8024 230.454 92.2083 231.616 94.0176L237.296 102.776" fill="#EAE2CF"/>
<path d="M243.855 98.5868L238.176 89.8286C237.013 88.0193 234.61 87.4883 232.798 88.6487C230.985 89.8024 230.454 92.2083 231.616 94.0176L237.296 102.776" stroke="#101727" stroke-miterlimit="10"/>
<path d="M254.89 94.909L244.673 92.7195C242.572 92.2606 240.49 93.5848 240.03 95.6826C239.571 97.7803 240.897 99.8584 242.998 100.317L253.215 102.507" fill="#EAE2CF"/>
<path d="M254.89 94.909L244.673 92.7195C242.572 92.2606 240.49 93.5848 240.03 95.6826C239.571 97.7803 240.897 99.8584 242.998 100.317L253.215 102.507" stroke="#101727" stroke-miterlimit="10"/>
<path d="M303.221 163.636H317.463" stroke="#101727" stroke-miterlimit="10"/>
<path d="M334.309 163.636H348.551" stroke="#101727" stroke-miterlimit="10"/>
<path d="M321.444 97.5708L321.595 97.5052L322.869 87.0689C333.749 87.1279 345.45 74.5217 345.45 74.5217L346.258 94.1882C346.349 96.3777 347.742 98.2984 349.797 99.072L345.719 101.845C336.631 108.014 324.385 107.024 316.65 99.2555L321.437 97.5773H321.45L321.444 97.5708Z" fill="#EAE2CF" stroke="#101727" stroke-miterlimit="10" stroke-linejoin="round"/>
<path d="M330.808 105.851L323.795 186.621" stroke="#101727" stroke-miterlimit="10"/>
<path d="M365.385 205.755L365.529 217.791C365.549 219.974 367.348 221.724 369.535 221.698C371.728 221.679 373.475 219.882 373.455 217.699L373.297 204.195L373.265 201.468L373.245 199.947L373.028 181.264L349.245 181.539L349.278 184.273C349.042 184.24 348.799 184.214 348.549 184.221C346.363 184.24 344.603 185.8 344.629 187.688V187.754L344.8 202.104V202.156C344.859 204.025 346.632 205.506 348.799 205.48C349.048 205.48 349.291 205.454 349.534 205.414L349.547 206.876L349.679 217.962C349.698 220.151 351.497 221.895 353.684 221.875C355.871 221.856 357.624 220.059 357.604 217.876L357.466 205.978" fill="#EAE2CF"/>
<path d="M365.385 205.755L365.529 217.791C365.549 219.974 367.348 221.724 369.535 221.698C371.728 221.679 373.475 219.882 373.455 217.699L373.297 204.195L373.265 201.468L373.245 199.947L373.028 181.264L349.245 181.539L349.278 184.273C349.042 184.24 348.799 184.214 348.549 184.221C346.363 184.24 344.603 185.8 344.629 187.688V187.754L344.8 202.104V202.156C344.859 204.025 346.632 205.506 348.799 205.48C349.048 205.48 349.291 205.454 349.534 205.414L349.547 206.876L349.679 217.962C349.698 220.151 351.497 221.895 353.684 221.875C355.871 221.856 357.624 220.059 357.604 217.876L357.466 205.978" stroke="#101727" stroke-miterlimit="10"/>
<path d="M365.382 205.755L365.526 217.791C365.546 219.974 363.799 221.771 361.606 221.79C359.413 221.81 357.62 220.066 357.601 217.877L357.463 205.978" fill="#EAE2CF"/>
<path d="M365.382 205.755L365.526 217.791C365.546 219.974 363.799 221.771 361.606 221.79C359.413 221.81 357.62 220.066 357.601 217.877L357.463 205.978" stroke="#101727" stroke-miterlimit="10"/>
<path d="M349.528 205.42L349.469 200.549" stroke="#101727" stroke-miterlimit="10"/>
<path d="M324.773 313.37L324.155 306.493L303.964 306.434C304.22 307.903 304.575 310.695 304.135 313.377C303.984 314.052 303.682 314.707 303.262 315.337C306.893 316.366 313.702 316.982 324.779 313.357V313.37H324.773Z" fill="#EAE2CF" stroke="#101727" stroke-miterlimit="10"/>
<path d="M282.972 326.897C281.842 327.506 282.269 329.211 283.549 329.211H326.197L324.766 313.373C313.688 316.991 306.873 316.375 303.248 315.353C299.643 320.826 287.141 324.668 282.972 326.897Z" fill="#01654D" stroke="#101727" stroke-miterlimit="10"/>
<path d="M376.757 313.37L376.14 306.493L355.949 306.434C356.205 307.903 356.559 310.695 356.119 313.377C355.968 314.052 355.666 314.707 355.246 315.337C358.877 316.366 365.686 316.982 376.764 313.357V313.37H376.757Z" fill="#EAE2CF" stroke="#101727" stroke-miterlimit="10"/>
<path d="M334.962 326.897C333.832 327.506 334.259 329.211 335.54 329.211H378.187L376.756 313.373C365.679 316.991 358.863 316.375 355.238 315.353C351.634 320.826 339.131 324.668 334.962 326.897Z" fill="#01654D" stroke="#101727" stroke-miterlimit="10"/>
<path d="M349.033 127.181L349.237 181.539L373.026 181.263L372.823 127.181" fill="#E9BE51"/>
<path d="M349.033 127.181L349.237 181.539L373.026 181.263L372.823 127.181" stroke="#101727" stroke-miterlimit="10"/>
<path d="M243.007 0.5H175.993C172.131 0.5 169 3.34431 169 6.85294V48.1471C169 51.6557 172.131 54.5 175.993 54.5H243.007C246.869 54.5 250 51.6557 250 48.1471V6.85294C250 3.34431 246.869 0.5 243.007 0.5Z" fill="white" stroke="#101727" stroke-miterlimit="10"/>
<path d="M197.437 16.5V15.8848L200.233 11.8738H197.421V11.0455H201.458V11.6607L198.665 15.6717H201.474V16.5H197.437ZM203.419 11.0455V16.5H202.431V11.0455H203.419ZM204.489 16.5V11.0455H206.534C206.953 11.0455 207.305 11.1236 207.589 11.2798C207.875 11.4361 208.09 11.6509 208.236 11.9244C208.383 12.196 208.457 12.505 208.457 12.8512C208.457 13.201 208.383 13.5117 208.236 13.7834C208.089 14.055 207.871 14.269 207.583 14.4252C207.296 14.5797 206.942 14.657 206.521 14.657H205.165V13.8446H206.388C206.633 13.8446 206.833 13.802 206.99 13.7168C207.146 13.6316 207.261 13.5144 207.336 13.3652C207.412 13.2161 207.45 13.0447 207.45 12.8512C207.45 12.6577 207.412 12.4872 207.336 12.3398C207.261 12.1925 207.145 12.0779 206.987 11.9963C206.831 11.9128 206.629 11.8711 206.382 11.8711H205.477V16.5H204.489ZM213.341 11.0455V16.5H212.353V12.0069H212.321L211.045 12.8219V11.9164L212.401 11.0455H213.341ZM219.604 12.5449C219.579 12.3123 219.474 12.1312 219.29 12.0016C219.107 11.872 218.869 11.8072 218.576 11.8072C218.37 11.8072 218.193 11.8382 218.046 11.9004C217.898 11.9625 217.786 12.0469 217.708 12.1534C217.629 12.2599 217.589 12.3816 217.588 12.5183C217.588 12.6319 217.613 12.7305 217.665 12.8139C217.718 12.8974 217.79 12.9684 217.881 13.027C217.971 13.0838 218.072 13.1317 218.182 13.1708C218.292 13.2099 218.403 13.2427 218.515 13.2694L219.026 13.3972C219.232 13.4451 219.43 13.5099 219.62 13.5916C219.812 13.6733 219.983 13.7763 220.134 13.9006C220.287 14.0249 220.407 14.1749 220.496 14.3507C220.585 14.5265 220.629 14.7324 220.629 14.9686C220.629 15.2882 220.548 15.5696 220.384 15.8129C220.221 16.0543 219.985 16.2434 219.676 16.3801C219.369 16.5151 218.997 16.5826 218.56 16.5826C218.135 16.5826 217.767 16.5169 217.455 16.3855C217.144 16.2541 216.901 16.0623 216.725 15.8102C216.551 15.5581 216.457 15.2509 216.442 14.8887H217.415C217.429 15.0787 217.487 15.2367 217.59 15.3627C217.693 15.4888 217.827 15.5829 217.993 15.6451C218.159 15.7072 218.346 15.7383 218.552 15.7383C218.767 15.7383 218.955 15.7063 219.116 15.6424C219.28 15.5767 219.408 15.4862 219.5 15.3707C219.592 15.2536 219.639 15.1168 219.641 14.9606C219.639 14.8185 219.598 14.7013 219.516 14.609C219.434 14.5149 219.32 14.4368 219.172 14.3746C219.027 14.3107 218.856 14.2539 218.661 14.2042L218.04 14.0444C217.591 13.929 217.236 13.7541 216.975 13.5197C216.716 13.2836 216.586 12.9702 216.586 12.5795C216.586 12.2582 216.673 11.9767 216.847 11.7353C217.023 11.4938 217.262 11.3065 217.564 11.1733C217.866 11.0384 218.207 10.9709 218.589 10.9709C218.976 10.9709 219.315 11.0384 219.607 11.1733C219.9 11.3065 220.129 11.492 220.296 11.7299C220.463 11.9661 220.549 12.2377 220.555 12.5449H219.604ZM226.179 12.8858H225.183C225.155 12.7225 225.102 12.5778 225.026 12.4517C224.949 12.3239 224.854 12.2156 224.741 12.1268C224.627 12.038 224.498 11.9714 224.352 11.927C224.208 11.8809 224.053 11.8578 223.886 11.8578C223.589 11.8578 223.327 11.9324 223.098 12.0815C222.868 12.2289 222.689 12.4455 222.56 12.7314C222.43 13.0154 222.365 13.3626 222.365 13.7727C222.365 14.19 222.43 14.5415 222.56 14.8274C222.691 15.1115 222.87 15.3263 223.098 15.4719C223.327 15.6158 223.588 15.6877 223.883 15.6877C224.047 15.6877 224.199 15.6664 224.341 15.6238C224.485 15.5794 224.614 15.5146 224.727 15.4293C224.843 15.3441 224.94 15.2393 225.018 15.1151C225.098 14.9908 225.153 14.8487 225.183 14.6889L226.179 14.6942C226.142 14.9535 226.061 15.1967 225.937 15.424C225.814 15.6513 225.653 15.8519 225.455 16.0259C225.256 16.1982 225.023 16.3331 224.757 16.4308C224.49 16.5266 224.195 16.5746 223.87 16.5746C223.39 16.5746 222.963 16.4636 222.586 16.2417C222.21 16.0197 221.913 15.6992 221.697 15.2802C221.48 14.8612 221.372 14.3587 221.372 13.7727C221.372 13.185 221.481 12.6825 221.699 12.2653C221.918 11.8462 222.215 11.5257 222.591 11.3038C222.968 11.0819 223.394 10.9709 223.87 10.9709C224.174 10.9709 224.456 11.0135 224.717 11.0987C224.978 11.1839 225.21 11.3091 225.415 11.4743C225.619 11.6376 225.787 11.8382 225.918 12.0762C226.051 12.3123 226.138 12.5822 226.179 12.8858ZM231.958 13.7727C231.958 14.3604 231.848 14.8638 231.628 15.2828C231.409 15.7001 231.111 16.0197 230.733 16.2417C230.356 16.4636 229.929 16.5746 229.452 16.5746C228.974 16.5746 228.546 16.4636 228.168 16.2417C227.791 16.0179 227.493 15.6974 227.273 15.2802C227.055 14.8612 226.945 14.3587 226.945 13.7727C226.945 13.185 227.055 12.6825 227.273 12.2653C227.493 11.8462 227.791 11.5257 228.168 11.3038C228.546 11.0819 228.974 10.9709 229.452 10.9709C229.929 10.9709 230.356 11.0819 230.733 11.3038C231.111 11.5257 231.409 11.8462 231.628 12.2653C231.848 12.6825 231.958 13.185 231.958 13.7727ZM230.964 13.7727C230.964 13.359 230.9 13.0101 230.77 12.726C230.642 12.4402 230.465 12.2244 230.237 12.0788C230.01 11.9315 229.748 11.8578 229.452 11.8578C229.155 11.8578 228.893 11.9315 228.666 12.0788C228.439 12.2244 228.26 12.4402 228.131 12.726C228.003 13.0101 227.939 13.359 227.939 13.7727C227.939 14.1864 228.003 14.5362 228.131 14.8221C228.26 15.1062 228.439 15.3219 228.666 15.4693C228.893 15.6149 229.155 15.6877 229.452 15.6877C229.748 15.6877 230.01 15.6149 230.237 15.4693C230.465 15.3219 230.642 15.1062 230.77 14.8221C230.9 14.5362 230.964 14.1864 230.964 13.7727ZM232.892 16.5V11.0455H234.937C235.356 11.0455 235.708 11.1183 235.992 11.2638C236.278 11.4094 236.494 11.6136 236.639 11.8764C236.787 12.1374 236.86 12.4419 236.86 12.79C236.86 13.1397 236.786 13.4434 236.637 13.7008C236.489 13.9565 236.272 14.1545 235.984 14.2947C235.697 14.4332 235.343 14.5025 234.924 14.5025H233.467V13.6822H234.791C235.036 13.6822 235.237 13.6484 235.393 13.581C235.549 13.5117 235.665 13.4114 235.739 13.28C235.815 13.1468 235.854 12.9835 235.854 12.79C235.854 12.5964 235.815 12.4313 235.739 12.2946C235.663 12.1561 235.546 12.0513 235.39 11.9803C235.234 11.9075 235.032 11.8711 234.786 11.8711H233.88V16.5H232.892ZM235.71 14.0284L237.06 16.5H235.958L234.631 14.0284H235.71ZM237.77 16.5V11.0455H241.318V11.8738H238.758V13.3546H241.134V14.1829H238.758V15.6717H241.339V16.5H237.77Z" fill="#101727"/>
<path d="M202.994 24.8849C203.829 24.8906 204.641 25.0384 205.431 25.3281C206.227 25.6122 206.942 26.0781 207.579 26.7259C208.215 27.3679 208.721 28.2287 209.096 29.3082C209.471 30.3878 209.658 31.723 209.658 33.3139C209.664 34.8139 209.505 36.1548 209.181 37.3366C208.863 38.5128 208.406 39.5071 207.809 40.3196C207.212 41.1321 206.494 41.7514 205.653 42.1776C204.812 42.6037 203.866 42.8168 202.815 42.8168C201.712 42.8168 200.735 42.6009 199.883 42.169C199.036 41.7372 198.352 41.1463 197.829 40.3963C197.306 39.6463 196.985 38.7884 196.866 37.8224H199.977C200.136 38.5156 200.46 39.0668 200.948 39.4759C201.442 39.8793 202.065 40.081 202.815 40.081C204.025 40.081 204.957 39.5554 205.61 38.5043C206.263 37.4531 206.59 35.9929 206.59 34.1236H206.471C206.192 34.6236 205.832 35.0554 205.388 35.419C204.945 35.777 204.442 36.0526 203.88 36.2457C203.323 36.4389 202.732 36.5355 202.107 36.5355C201.085 36.5355 200.164 36.2912 199.346 35.8026C198.533 35.3139 197.888 34.6435 197.411 33.7912C196.94 32.9389 196.701 31.9645 196.695 30.8679C196.695 29.7315 196.957 28.7116 197.479 27.8082C198.008 26.8991 198.744 26.1832 199.687 25.6605C200.63 25.1321 201.732 24.8736 202.994 24.8849ZM203.002 27.4418C202.388 27.4418 201.835 27.5923 201.34 27.8935C200.852 28.1889 200.465 28.5923 200.181 29.1037C199.903 29.6094 199.763 30.1747 199.763 30.7997C199.769 31.419 199.908 31.9815 200.181 32.4872C200.46 32.9929 200.837 33.3935 201.315 33.6889C201.798 33.9844 202.349 34.1321 202.968 34.1321C203.428 34.1321 203.857 34.044 204.255 33.8679C204.653 33.6918 204.999 33.4474 205.295 33.1349C205.596 32.8168 205.829 32.456 205.994 32.0526C206.164 31.6491 206.246 31.223 206.241 30.7741C206.241 30.1776 206.099 29.6264 205.815 29.1207C205.536 28.6151 205.153 28.2088 204.664 27.902C204.181 27.5952 203.627 27.4418 203.002 27.4418ZM212.496 42.5781V40.294L218.556 34.3537C219.136 33.7685 219.619 33.2486 220.005 32.794C220.391 32.3395 220.681 31.8991 220.874 31.473C221.067 31.0469 221.164 30.5923 221.164 30.1094C221.164 29.5582 221.039 29.0866 220.789 28.6946C220.539 28.2969 220.195 27.9901 219.758 27.7741C219.32 27.5582 218.823 27.4503 218.266 27.4503C217.692 27.4503 217.19 27.5696 216.758 27.8082C216.326 28.0412 215.991 28.3736 215.752 28.8054C215.519 29.2372 215.403 29.7514 215.403 30.348H212.394C212.394 29.2401 212.647 28.277 213.153 27.4588C213.658 26.6406 214.354 26.0071 215.241 25.5582C216.133 25.1094 217.156 24.8849 218.309 24.8849C219.479 24.8849 220.508 25.1037 221.394 25.5412C222.281 25.9787 222.968 26.5781 223.457 27.3395C223.951 28.1009 224.198 28.9702 224.198 29.9474C224.198 30.6009 224.073 31.2429 223.823 31.8736C223.573 32.5043 223.133 33.2031 222.502 33.9702C221.877 34.7372 220.999 35.6662 219.869 36.7571L216.86 39.8168V39.9361H224.462V42.5781H212.496Z" fill="#01654D"/>
<path d="M184.108 21.9327C188.39 21.9327 191.86 18.4675 191.86 14.1929C191.86 9.91835 188.39 6.45312 184.108 6.45312C179.826 6.45312 176.355 9.91835 176.355 14.1929C176.355 18.4675 179.826 21.9327 184.108 21.9327Z" fill="#E9BE51"/>
<path d="M182.411 13.3194C182.411 13.3194 182.434 13.3427 182.446 13.3543L184.073 14.9792C184.12 15.0257 184.161 15.0257 184.208 14.9792C184.832 14.356 185.462 13.7329 186.086 13.1039C186.115 13.0748 186.115 13.0631 186.086 13.034C185.882 12.8302 185.678 12.6322 185.479 12.4283C185.392 12.341 185.351 12.2362 185.398 12.1139C185.438 11.9974 185.52 11.9217 185.637 11.8925C185.788 11.8576 185.934 11.8285 186.086 11.7935C186.308 11.747 186.523 11.7004 186.745 11.6538C187.025 11.5897 187.305 11.5315 187.579 11.4732C187.795 11.4266 188.017 11.3801 188.233 11.3335C188.291 11.3218 188.349 11.3043 188.413 11.2985C188.618 11.2694 188.793 11.4208 188.781 11.6072C188.775 11.6945 188.758 11.7819 188.74 11.8693C188.705 12.0381 188.664 12.2012 188.629 12.3643C188.583 12.5623 188.542 12.7603 188.495 12.9641C188.448 13.1854 188.396 13.4067 188.355 13.6222C188.326 13.7503 188.303 13.8785 188.273 14.0066C188.238 14.1638 188.198 14.3211 188.157 14.4725C188.128 14.589 188.04 14.6472 187.929 14.6763C187.813 14.7054 187.719 14.6705 187.638 14.589C187.439 14.3968 187.247 14.1988 187.048 14.0008C186.99 13.9425 186.99 13.9425 186.932 14.0008C186.792 14.1405 186.652 14.2803 186.512 14.4201C185.736 15.1946 184.96 15.9634 184.19 16.7379C184.159 16.769 184.126 16.769 184.091 16.7379C183.648 16.2953 183.204 15.8527 182.761 15.4101C182.656 15.3053 182.551 15.2005 182.446 15.0956C182.405 15.0607 182.399 15.0607 182.364 15.0956C182.259 15.2063 182.148 15.3169 182.038 15.4276C181.367 16.0973 180.696 16.7671 180.025 17.4368C179.978 17.4834 179.978 17.4834 179.938 17.4368C179.827 17.3261 179.722 17.2155 179.611 17.1048C179.453 16.9476 179.296 16.7962 179.138 16.6389C179.109 16.6098 179.121 16.5923 179.144 16.569C179.395 16.3186 179.646 16.0682 179.903 15.8178C180.725 14.9966 181.553 14.1696 182.376 13.3485C182.382 13.3427 182.393 13.3368 182.405 13.3252L182.411 13.3194Z" fill="white"/>
<path d="M145.007 56.5H77.9928C74.1308 56.5 71 59.3443 71 62.8529V104.147C71 107.656 74.1308 110.5 77.9928 110.5H145.007C148.869 110.5 152 107.656 152 104.147V62.8529C152 59.3443 148.869 56.5 145.007 56.5Z" fill="white" stroke="#101727" stroke-miterlimit="10"/>
<path d="M99.4368 72.5V71.8848L102.233 67.8738H99.4208V67.0455H103.458V67.6607L100.665 71.6717H103.474V72.5H99.4368ZM105.419 67.0455V72.5H104.431V67.0455H105.419ZM106.489 72.5V67.0455H108.534C108.953 67.0455 109.305 67.1236 109.589 67.2798C109.875 67.4361 110.09 67.6509 110.236 67.9244C110.383 68.196 110.457 68.505 110.457 68.8512C110.457 69.201 110.383 69.5117 110.236 69.7834C110.089 70.055 109.871 70.269 109.583 70.4252C109.296 70.5797 108.942 70.657 108.521 70.657H107.165V69.8446H108.388C108.633 69.8446 108.833 69.802 108.99 69.7168C109.146 69.6316 109.261 69.5144 109.336 69.3652C109.412 69.2161 109.45 69.0447 109.45 68.8512C109.45 68.6577 109.412 68.4872 109.336 68.3398C109.261 68.1925 109.145 68.0779 108.987 67.9963C108.831 67.9128 108.629 67.8711 108.382 67.8711H107.477V72.5H106.489ZM113.122 72.5V71.7862L115.016 69.9299C115.197 69.747 115.348 69.5845 115.469 69.4425C115.59 69.3004 115.68 69.1628 115.741 69.0297C115.801 68.8965 115.831 68.7544 115.831 68.6035C115.831 68.4313 115.792 68.2839 115.714 68.1614C115.636 68.0371 115.528 67.9412 115.392 67.8738C115.255 67.8063 115.1 67.7725 114.926 67.7725C114.746 67.7725 114.589 67.8098 114.454 67.8844C114.319 67.9572 114.214 68.0611 114.14 68.196C114.067 68.331 114.031 68.4917 114.031 68.6781H113.09C113.09 68.3319 113.169 68.0309 113.328 67.7752C113.486 67.5195 113.703 67.3216 113.98 67.1813C114.259 67.041 114.578 66.9709 114.939 66.9709C115.305 66.9709 115.626 67.0392 115.903 67.176C116.18 67.3127 116.395 67.5 116.547 67.7379C116.702 67.9759 116.779 68.2475 116.779 68.5529C116.779 68.7571 116.74 68.9577 116.662 69.1548C116.584 69.3519 116.446 69.5703 116.249 69.81C116.054 70.0497 115.78 70.34 115.426 70.6809L114.486 71.6371V71.6744H116.862V72.5H113.122ZM124.519 68.5449C124.494 68.3123 124.389 68.1312 124.205 68.0016C124.022 67.872 123.784 67.8072 123.491 67.8072C123.285 67.8072 123.108 67.8382 122.961 67.9004C122.813 67.9625 122.701 68.0469 122.623 68.1534C122.544 68.2599 122.505 68.3816 122.503 68.5183C122.503 68.6319 122.528 68.7305 122.58 68.8139C122.633 68.8974 122.705 68.9684 122.796 69.027C122.886 69.0838 122.987 69.1317 123.097 69.1708C123.207 69.2099 123.318 69.2427 123.43 69.2694L123.941 69.3972C124.147 69.4451 124.345 69.5099 124.535 69.5916C124.727 69.6733 124.898 69.7763 125.049 69.9006C125.202 70.0249 125.322 70.1749 125.411 70.3507C125.5 70.5265 125.544 70.7324 125.544 70.9686C125.544 71.2882 125.463 71.5696 125.299 71.8129C125.136 72.0543 124.9 72.2434 124.591 72.3801C124.284 72.5151 123.912 72.5826 123.475 72.5826C123.051 72.5826 122.682 72.5169 122.37 72.3855C122.059 72.2541 121.816 72.0623 121.64 71.8102C121.466 71.5581 121.372 71.2509 121.358 70.8887H122.33C122.344 71.0787 122.402 71.2367 122.505 71.3627C122.608 71.4888 122.742 71.5829 122.908 71.6451C123.074 71.7072 123.261 71.7383 123.467 71.7383C123.682 71.7383 123.87 71.7063 124.032 71.6424C124.195 71.5767 124.323 71.4862 124.415 71.3707C124.507 71.2536 124.554 71.1168 124.556 70.9606C124.554 70.8185 124.513 70.7013 124.431 70.609C124.349 70.5149 124.235 70.4368 124.087 70.3746C123.942 70.3107 123.771 70.2539 123.576 70.2042L122.956 70.0444C122.506 69.929 122.151 69.7541 121.89 69.5197C121.631 69.2836 121.501 68.9702 121.501 68.5795C121.501 68.2582 121.588 67.9767 121.762 67.7353C121.938 67.4938 122.177 67.3065 122.479 67.1733C122.781 67.0384 123.122 66.9709 123.504 66.9709C123.891 66.9709 124.23 67.0384 124.522 67.1733C124.815 67.3065 125.044 67.492 125.211 67.7299C125.378 67.9661 125.464 68.2377 125.47 68.5449H124.519ZM131.094 68.8858H130.098C130.07 68.7225 130.017 68.5778 129.941 68.4517C129.864 68.3239 129.769 68.2156 129.656 68.1268C129.542 68.038 129.413 67.9714 129.267 67.927C129.123 67.8809 128.968 67.8578 128.801 67.8578C128.504 67.8578 128.242 67.9324 128.013 68.0815C127.784 68.2289 127.604 68.4455 127.475 68.7314C127.345 69.0154 127.28 69.3626 127.28 69.7727C127.28 70.19 127.345 70.5415 127.475 70.8274C127.606 71.1115 127.785 71.3263 128.013 71.4719C128.242 71.6158 128.504 71.6877 128.798 71.6877C128.962 71.6877 129.114 71.6664 129.256 71.6238C129.4 71.5794 129.529 71.5146 129.643 71.4293C129.758 71.3441 129.855 71.2393 129.933 71.1151C130.013 70.9908 130.068 70.8487 130.098 70.6889L131.094 70.6942C131.057 70.9535 130.976 71.1967 130.852 71.424C130.729 71.6513 130.568 71.8519 130.37 72.0259C130.171 72.1982 129.938 72.3331 129.672 72.4308C129.405 72.5266 129.11 72.5746 128.785 72.5746C128.306 72.5746 127.878 72.4636 127.501 72.2417C127.125 72.0197 126.828 71.6992 126.612 71.2802C126.395 70.8612 126.287 70.3587 126.287 69.7727C126.287 69.185 126.396 68.6825 126.614 68.2653C126.833 67.8462 127.13 67.5257 127.507 67.3038C127.883 67.0819 128.309 66.9709 128.785 66.9709C129.089 66.9709 129.371 67.0135 129.632 67.0987C129.893 67.1839 130.125 67.3091 130.33 67.4743C130.534 67.6376 130.702 67.8382 130.833 68.0762C130.966 68.3123 131.053 68.5822 131.094 68.8858ZM136.873 69.7727C136.873 70.3604 136.763 70.8638 136.543 71.2828C136.324 71.7001 136.026 72.0197 135.648 72.2417C135.271 72.4636 134.844 72.5746 134.367 72.5746C133.889 72.5746 133.461 72.4636 133.083 72.2417C132.706 72.0179 132.408 71.6974 132.188 71.2802C131.97 70.8612 131.86 70.3587 131.86 69.7727C131.86 69.185 131.97 68.6825 132.188 68.2653C132.408 67.8462 132.706 67.5257 133.083 67.3038C133.461 67.0819 133.889 66.9709 134.367 66.9709C134.844 66.9709 135.271 67.0819 135.648 67.3038C136.026 67.5257 136.324 67.8462 136.543 68.2653C136.763 68.6825 136.873 69.185 136.873 69.7727ZM135.879 69.7727C135.879 69.359 135.815 69.0101 135.685 68.726C135.557 68.4402 135.38 68.2244 135.152 68.0788C134.925 67.9315 134.663 67.8578 134.367 67.8578C134.07 67.8578 133.808 67.9315 133.581 68.0788C133.354 68.2244 133.175 68.4402 133.046 68.726C132.918 69.0101 132.854 69.359 132.854 69.7727C132.854 70.1864 132.918 70.5362 133.046 70.8221C133.175 71.1062 133.354 71.3219 133.581 71.4693C133.808 71.6149 134.07 71.6877 134.367 71.6877C134.663 71.6877 134.925 71.6149 135.152 71.4693C135.38 71.3219 135.557 71.1062 135.685 70.8221C135.815 70.5362 135.879 70.1864 135.879 69.7727ZM137.807 72.5V67.0455H139.852C140.272 67.0455 140.623 67.1183 140.907 67.2638C141.193 67.4094 141.409 67.6136 141.554 67.8764C141.702 68.1374 141.775 68.4419 141.775 68.79C141.775 69.1397 141.701 69.4434 141.552 69.7008C141.404 69.9565 141.187 70.1545 140.899 70.2947C140.612 70.4332 140.258 70.5025 139.839 70.5025H138.382V69.6822H139.706C139.951 69.6822 140.152 69.6484 140.308 69.581C140.464 69.5117 140.58 69.4114 140.654 69.28C140.731 69.1468 140.769 68.9835 140.769 68.79C140.769 68.5964 140.731 68.4313 140.654 68.2946C140.578 68.1561 140.462 68.0513 140.305 67.9803C140.149 67.9075 139.947 67.8711 139.701 67.8711H138.795V72.5H137.807ZM140.625 70.0284L141.975 72.5H140.873L139.546 70.0284H140.625ZM142.685 72.5V67.0455H146.233V67.8738H143.673V69.3546H146.049V70.1829H143.673V71.6717H146.254V72.5H142.685Z" fill="#101727"/>
<path d="M105.138 98.8168C103.871 98.8168 102.746 98.6037 101.763 98.1776C100.786 97.7514 100.019 97.169 99.4624 96.4304C98.9112 95.6861 98.6385 94.8423 98.6442 93.8991C98.6385 93.1662 98.7976 92.4929 99.1214 91.8793C99.4453 91.2656 99.8828 90.7543 100.434 90.3452C100.991 89.9304 101.61 89.6662 102.292 89.5526V89.4332C101.394 89.2344 100.667 88.777 100.11 88.0611C99.5589 87.3395 99.2862 86.5071 99.2919 85.5639C99.2862 84.6662 99.5362 83.8651 100.042 83.1605C100.548 82.456 101.241 81.902 102.121 81.4986C103.002 81.0895 104.008 80.8849 105.138 80.8849C106.258 80.8849 107.255 81.0895 108.13 81.4986C109.011 81.902 109.704 82.456 110.21 83.1605C110.721 83.8651 110.977 84.6662 110.977 85.5639C110.977 86.5071 110.695 87.3395 110.133 88.0611C109.576 88.777 108.857 89.2344 107.977 89.4332V89.5526C108.658 89.6662 109.272 89.9304 109.817 90.3452C110.369 90.7543 110.806 91.2656 111.13 91.8793C111.46 92.4929 111.624 93.1662 111.624 93.8991C111.624 94.8423 111.346 95.6861 110.789 96.4304C110.232 97.169 109.465 97.7514 108.488 98.1776C107.516 98.6037 106.4 98.8168 105.138 98.8168ZM105.138 96.3793C105.792 96.3793 106.36 96.2685 106.843 96.0469C107.326 95.8196 107.701 95.5014 107.968 95.0923C108.235 94.6832 108.371 94.2116 108.377 93.6776C108.371 93.1207 108.227 92.6293 107.942 92.2031C107.664 91.7713 107.281 91.4332 106.792 91.1889C106.309 90.9446 105.758 90.8224 105.138 90.8224C104.513 90.8224 103.957 90.9446 103.468 91.1889C102.979 91.4332 102.593 91.7713 102.309 92.2031C102.031 92.6293 101.894 93.1207 101.9 93.6776C101.894 94.2116 102.025 94.6832 102.292 95.0923C102.559 95.4957 102.934 95.8111 103.417 96.0384C103.906 96.2656 104.479 96.3793 105.138 96.3793ZM105.138 88.4276C105.673 88.4276 106.144 88.3196 106.553 88.1037C106.968 87.8878 107.295 87.5866 107.533 87.2003C107.772 86.8139 107.894 86.3679 107.9 85.8622C107.894 85.3622 107.775 84.9247 107.542 84.5497C107.309 84.169 106.985 83.8764 106.57 83.6719C106.156 83.4616 105.678 83.3565 105.138 83.3565C104.587 83.3565 104.102 83.4616 103.681 83.6719C103.266 83.8764 102.942 84.169 102.71 84.5497C102.482 84.9247 102.371 85.3622 102.377 85.8622C102.371 86.3679 102.485 86.8139 102.718 87.2003C102.957 87.581 103.283 87.8821 103.698 88.1037C104.119 88.3196 104.599 88.4276 105.138 88.4276ZM114.111 95.3395V92.8253L121.517 81.1236H123.614V84.7031H122.335L117.349 92.6037V92.7401H127.688V95.3395H114.111ZM122.438 98.5781V94.5724L122.472 93.4474V81.1236H125.455V98.5781H122.438Z" fill="#01654D"/>
<path d="M86.108 77.9327C90.3896 77.9327 93.8605 74.4675 93.8605 70.1929C93.8605 65.9184 90.3896 62.4531 86.108 62.4531C81.8264 62.4531 78.3555 65.9184 78.3555 70.1929C78.3555 74.4675 81.8264 77.9327 86.108 77.9327Z" fill="#E9BE51"/>
<path d="M84.4109 69.3194C84.4109 69.3194 84.4342 69.3427 84.4459 69.3543L86.0734 70.9792C86.1201 71.0257 86.1609 71.0257 86.2076 70.9792C86.8317 70.356 87.4617 69.7329 88.0859 69.1039C88.1151 69.0748 88.1151 69.0631 88.0859 69.034C87.8817 68.8302 87.6776 68.6322 87.4792 68.4283C87.3917 68.341 87.3509 68.2362 87.3975 68.1139C87.4384 67.9974 87.5201 67.9217 87.6367 67.8925C87.7884 67.8576 87.9342 67.8285 88.0859 67.7935C88.3076 67.747 88.5234 67.7004 88.7451 67.6538C89.0251 67.5897 89.3051 67.5315 89.5792 67.4732C89.7951 67.4266 90.0167 67.3801 90.2326 67.3335C90.2909 67.3218 90.3492 67.3043 90.4134 67.2985C90.6176 67.2694 90.7926 67.4208 90.7809 67.6072C90.7751 67.6945 90.7576 67.7819 90.7401 67.8693C90.7051 68.0381 90.6642 68.2012 90.6292 68.3643C90.5826 68.5623 90.5417 68.7603 90.4951 68.9641C90.4484 69.1854 90.3959 69.4067 90.3551 69.6222C90.3259 69.7503 90.3026 69.8785 90.2734 70.0066C90.2384 70.1638 90.1976 70.3211 90.1567 70.4725C90.1276 70.589 90.0401 70.6472 89.9292 70.6763C89.8126 70.7054 89.7192 70.6705 89.6376 70.589C89.4392 70.3968 89.2467 70.1988 89.0484 70.0008C88.9901 69.9425 88.9901 69.9425 88.9317 70.0008C88.7917 70.1405 88.6517 70.2803 88.5117 70.4201C87.7359 71.1946 86.9601 71.9634 86.1901 72.7379C86.159 72.769 86.1259 72.769 86.0909 72.7379C85.6476 72.2953 85.2042 71.8527 84.7609 71.4101C84.6559 71.3053 84.5509 71.2005 84.4459 71.0956C84.4051 71.0607 84.3992 71.0607 84.3642 71.0956C84.2592 71.2063 84.1484 71.3169 84.0376 71.4276C83.3667 72.0973 82.6959 72.7671 82.0251 73.4368C81.9784 73.4834 81.9784 73.4834 81.9376 73.4368C81.8267 73.3261 81.7217 73.2155 81.6109 73.1048C81.4534 72.9476 81.2959 72.7962 81.1384 72.6389C81.1092 72.6098 81.1209 72.5923 81.1442 72.569C81.3951 72.3186 81.6459 72.0682 81.9026 71.8178C82.7251 70.9966 83.5534 70.1696 84.3759 69.3485C84.3817 69.3427 84.3934 69.3368 84.4051 69.3252L84.4109 69.3194Z" fill="white"/>
<path fill-rule="evenodd" clip-rule="evenodd" d="M137.523 84.3449C137.523 84.5172 137.665 84.6589 137.838 84.6589C138.01 84.6589 138.152 84.5172 138.152 84.3449V81.814V81.5H137.842C137.842 81.5 137.834 81.5 137.83 81.5H135.303C135.13 81.5 134.988 81.6417 134.988 81.814C134.988 81.9863 135.13 82.128 135.303 82.128H137.075L132.227 86.9639C132.104 87.0865 132.104 87.2856 132.227 87.4081C132.35 87.5306 132.553 87.5306 132.672 87.4081L137.519 82.5683V84.3373L137.523 84.3449Z" fill="#E9BE51" stroke="#ECC146" stroke-width="2" stroke-miterlimit="10"/>
<path fill-rule="evenodd" clip-rule="evenodd" d="M234.387 29.3449C234.387 29.5172 234.528 29.6589 234.701 29.6589C234.874 29.6589 235.016 29.5172 235.016 29.3449V26.814V26.5H234.705C234.705 26.5 234.697 26.5 234.693 26.5H232.166C231.993 26.5 231.851 26.6417 231.851 26.814C231.851 26.9863 231.993 27.128 232.166 27.128H233.938L229.09 31.9639C228.967 32.0865 228.967 32.2856 229.09 32.4081C229.213 32.5306 229.416 32.5306 229.535 32.4081L234.383 27.5683V29.3373L234.387 29.3449Z" fill="#E9BE51" stroke="#ECC146" stroke-width="2" stroke-miterlimit="10"/>
<path d="M125.246 260L157.52 328.862H85.2031C80.8472 328.862 76.8817 326.342 75.0332 322.4H75.0303L45.7871 260H125.246Z" fill="#01654D" stroke="#101727"/>
<circle cx="102" cy="294.5" r="6" fill="#EAE2CF"/>
<path d="M0 329.191H420" stroke="#101727" stroke-miterlimit="10"/>
</svg>
