<svg width="415" height="321" viewBox="0 0 415 321" fill="none" xmlns="http://www.w3.org/2000/svg">
<g clip-path="url(#clip0_2680_5917)">
<path d="M157.061 135.54V174.35" stroke="#01654D" stroke-dasharray="3 3"/>
<path d="M348.441 74.8201H325.871C323.662 74.8201 321.871 76.6109 321.871 78.8201V109.72C321.871 111.929 323.662 113.72 325.871 113.72H348.441C350.65 113.72 352.441 111.929 352.441 109.72V78.8201C352.441 76.6109 350.65 74.8201 348.441 74.8201Z" fill="#F7F5EF" stroke="#DDD2BA"/>
<path d="M345.66 77.6001H323.09C320.881 77.6001 319.09 79.391 319.09 81.6001V112.5C319.09 114.709 320.881 116.5 323.09 116.5H345.66C347.869 116.5 349.66 114.709 349.66 112.5V81.6001C349.66 79.391 347.869 77.6001 345.66 77.6001Z" fill="#F7F5EF" stroke="#DDD2BA"/>
<path d="M342.881 80.3801H320.311C318.101 80.3801 316.311 82.171 316.311 84.3801V115.28C316.311 117.489 318.101 119.28 320.311 119.28H342.881C345.09 119.28 346.881 117.489 346.881 115.28V84.3801C346.881 82.171 345.09 80.3801 342.881 80.3801Z" fill="#F7F5EF" stroke="#DDD2BA"/>
<path d="M323.26 91.49H339.93" stroke="#DDD2BA"/>
<path d="M323.26 97.05H339.93" stroke="#DDD2BA"/>
<path d="M323.26 102.61H337.15" stroke="#DDD2BA"/>
<path opacity="0.12" d="M277.371 5.84009H49.7207C43.0933 5.84009 37.7207 11.2127 37.7207 17.8401V119.54C37.7207 126.168 43.0933 131.54 49.7207 131.54H277.371C283.998 131.54 289.371 126.168 289.371 119.54V17.8401C289.371 11.2127 283.998 5.84009 277.371 5.84009Z" fill="#01654D"/>
<path d="M271.019 0.5H43.3691C36.7417 0.5 31.3691 5.87258 31.3691 12.5V111.59C31.3691 118.217 36.7417 123.59 43.3691 123.59H271.019C277.647 123.59 283.019 118.217 283.019 111.59V12.5C283.019 5.87258 277.647 0.5 271.019 0.5Z" fill="white" stroke="#101727" stroke-miterlimit="10"/>
<path d="M101.401 80.27H47.9007C46.4206 80.27 45.2207 81.4699 45.2207 82.95V82.96C45.2207 84.4401 46.4206 85.64 47.9007 85.64H101.401C102.881 85.64 104.081 84.4401 104.081 82.96V82.95C104.081 81.4699 102.881 80.27 101.401 80.27Z" fill="#E5E7EB"/>
<path d="M82.6307 91.8901H47.9007C46.4206 91.8901 45.2207 93.09 45.2207 94.5701V94.5801C45.2207 96.0603 46.4206 97.2601 47.9007 97.2601H82.6307C84.1108 97.2601 85.3107 96.0603 85.3107 94.5801V94.5701C85.3107 93.09 84.1108 91.8901 82.6307 91.8901Z" fill="#E5E7EB"/>
<path d="M263.619 80.27H210.119C208.639 80.27 207.439 81.4699 207.439 82.95V82.96C207.439 84.4401 208.639 85.64 210.119 85.64H263.619C265.1 85.64 266.299 84.4401 266.299 82.96V82.95C266.299 81.4699 265.1 80.27 263.619 80.27Z" fill="#E5E7EB"/>
<path d="M244.849 91.8901H210.119C208.639 91.8901 207.439 93.09 207.439 94.5701V94.5801C207.439 96.0603 208.639 97.2601 210.119 97.2601H244.849C246.33 97.2601 247.529 96.0603 247.529 94.5801V94.5701C247.529 93.09 246.33 91.8901 244.849 91.8901Z" fill="#E5E7EB"/>
<path d="M227.391 66.95C237.382 66.95 245.481 58.8509 245.481 48.86C245.481 38.8692 237.382 30.77 227.391 30.77C217.4 30.77 209.301 38.8692 209.301 48.86C209.301 58.8509 217.4 66.95 227.391 66.95Z" stroke="#B7AB65" stroke-width="9"/>
<path d="M248.592 56.3601L240.302 53.4301C240.802 52.0001 241.072 50.5101 241.082 48.9901C241.112 45.3301 239.722 41.8801 237.162 39.2701C234.602 36.6601 231.172 35.2001 227.512 35.1701L227.592 26.3701C233.602 26.4301 239.222 28.8201 243.432 33.1101C247.642 37.4001 249.922 43.0701 249.872 49.0801C249.852 51.5701 249.412 54.0201 248.582 56.3701L248.592 56.3601Z" fill="#01654D"/>
<path d="M239.371 67.9702L234.691 60.5202C237.311 58.8702 239.321 56.3502 240.331 53.4302L248.641 56.3202C246.971 61.1202 243.681 65.2602 239.371 67.9602V67.9702Z" fill="#E9BE51"/>
<path d="M58.3993 49.5398H50.7793V70.9398H58.3993V49.5398Z" fill="#01654D"/>
<path d="M71.0887 38.8398H63.4688V70.9298H71.0887V38.8398Z" fill="#A99E53"/>
<path d="M83.7899 28.1399H76.1699V70.9299H83.7899V28.1399Z" fill="#849465"/>
<path d="M96.4794 53.0999H88.8594V70.9299H96.4794V53.0999Z" fill="#E9BE51"/>
<path d="M46.3398 70.9299H100.92" stroke="#101727" stroke-miterlimit="10"/>
<path d="M80.0705 151.78H80.0605C76.4105 144.05 68.1005 138.64 58.4205 138.64C45.3805 138.64 34.8105 148.46 34.8105 160.57C34.8105 165.4 36.5005 169.86 39.3405 173.49L38.9505 173.7C45.4005 185.79 53.5705 191.42 62.0105 195.85C70.4505 200.27 81.9005 197.75 84.4705 187.66C86.5905 179.34 86.6005 164.13 80.0605 151.8" fill="#EAE2CF"/>
<path d="M80.0705 151.78H80.0605C76.4105 144.05 68.1005 138.64 58.4205 138.64C45.3805 138.64 34.8105 148.46 34.8105 160.57C34.8105 165.4 36.5005 169.86 39.3405 173.49L38.9505 173.7C45.4005 185.79 53.5705 191.42 62.0105 195.85C70.4505 200.27 81.9005 197.75 84.4705 187.66C86.5905 179.34 86.6005 164.13 80.0605 151.8L80.0705 151.78Z" stroke="#0F1728" stroke-miterlimit="10"/>
<path d="M64.7198 173.86C65.8298 173.6 66.5298 172.49 66.2698 171.38C66.0098 170.27 64.8998 169.57 63.7898 169.83C62.6798 170.09 61.9798 171.2 62.2398 172.31C62.4998 173.42 63.6098 174.12 64.7198 173.86Z" stroke="#0F1728" stroke-miterlimit="10"/>
<path d="M78.8292 168.47C79.9392 168.21 80.6392 167.1 80.3792 165.99C80.1192 164.88 79.0092 164.18 77.8992 164.44C76.7892 164.7 76.0892 165.81 76.3492 166.92C76.6092 168.03 77.7192 168.73 78.8292 168.47Z" stroke="#0F1728" stroke-miterlimit="10"/>
<path d="M62.8292 166.59C60.6092 166.89 58.8892 168.04 57.9492 169.56" stroke="#0F1728" stroke-miterlimit="10"/>
<path d="M74.6094 162.2C76.2094 160.63 78.1694 159.97 79.9494 160.17" stroke="#0F1728" stroke-miterlimit="10"/>
<path d="M67.5293 164.14C67.5293 164.14 69.3593 170.02 73.1093 171.54C76.8593 173.07 79.5393 170.64 79.2293 172.98C78.9293 175.23 75.5393 176.54 73.3893 176.54" stroke="#0F1728" stroke-miterlimit="10"/>
<path d="M83.2197 154.39C83.2197 154.39 73.5497 130.37 48.0897 138.64C34.8097 142.96 31.3497 160.14 34.8097 169.77C37.2197 176.49 39.8097 180.31 30.4697 191.77C20.9997 203.38 2.65969 204.09 2.59969 227.68C2.55969 242.17 17.3097 250.03 17.3097 250.03L45.4397 210.92L46.7697 179.7C47.3597 170.51 50.5897 166.2 57.1697 163.69C58.4197 163.21 59.5397 162.76 60.5197 162.34C63.4897 161.09 65.6097 158.42 66.1797 155.25L66.3297 154.39C68.7897 157 72.5397 157.95 75.9497 156.82L83.2297 154.39H83.2197Z" fill="#101727"/>
<path d="M83.2197 154.39C83.2197 154.39 73.5497 130.37 48.0897 138.64C34.8097 142.96 31.3497 160.14 34.8097 169.77C37.2197 176.49 39.8097 180.31 30.4697 191.77C20.9997 203.38 2.65969 204.09 2.59969 227.68C2.55969 242.17 17.3097 250.03 17.3097 250.03L45.4397 210.92L46.7697 179.7C47.3597 170.51 50.5897 166.2 57.1697 163.69C58.4197 163.21 59.5397 162.76 60.5197 162.34C63.4897 161.09 65.6097 158.42 66.1797 155.25L66.3297 154.39C68.7897 157 72.5397 157.95 75.9497 156.82L83.2297 154.39H83.2197Z" stroke="#0F1728" stroke-miterlimit="10"/>
<path d="M142.869 198.62L141.559 200.68L134.059 214.95L118.279 230.98L83.189 213.59C76.429 209.86 68.249 207.68 59.449 207.68C36.179 207.68 17.309 222.89 17.309 241.65L16.959 312.96C57.069 304.83 100.619 308.44 100.619 308.44L93.759 247.34L115.139 258.66C121.109 261.98 128.599 260.54 132.929 255.26L161.999 214.73L163.929 211.75L142.869 198.63V198.62Z" fill="#EAE2CF"/>
<path d="M142.869 198.62L141.559 200.68L134.059 214.95L118.279 230.98L83.189 213.59C76.429 209.86 68.249 207.68 59.449 207.68C36.179 207.68 17.309 222.89 17.309 241.65L16.959 312.96C57.069 304.83 100.619 308.44 100.619 308.44L93.759 247.34L115.139 258.66C121.109 261.98 128.599 260.54 132.929 255.26L161.999 214.73L163.929 211.75L142.869 198.63V198.62Z" stroke="#0F1728" stroke-miterlimit="10"/>
<path d="M51.5596 280.88L50.8496 281.9L51.5596 280.88Z" fill="#EAE2CF"/>
<path d="M68.6191 185.43C71.5091 187 78.1991 185.65 80.5991 181.38" stroke="#0F1728" stroke-miterlimit="10"/>
<path d="M72.1704 209.15L72.0104 209.08L70.6504 197.92C59.0404 197.99 46.5504 184.5 46.5504 184.5L45.5204 209.39L41.9004 210.75L46.2504 213.71C55.9504 220.3 69.0204 219.25 77.2804 210.94L72.1704 209.15Z" fill="#EAE2CF"/>
<path d="M72.1704 209.15L72.0104 209.08L70.6504 197.92C59.0404 197.99 46.5504 184.5 46.5504 184.5L45.5204 209.39L41.9004 210.75L46.2504 213.71C55.9504 220.3 69.0204 219.25 77.2804 210.94L72.1704 209.15Z" stroke="#0F1728" stroke-miterlimit="10"/>
<path d="M45.4199 209.15C45.4199 209.15 63.0599 219.99 72.1699 209.15H45.4199Z" fill="#EAE2CF"/>
<path d="M45.4199 209.15C45.4199 209.15 63.0599 219.99 72.1699 209.15" stroke="#0F1728" stroke-miterlimit="10"/>
<path d="M148.1 205.77L153.91 196.55C155.15 194.61 157.72 194.05 159.66 195.29C161.6 196.53 162.16 199.1 160.92 201.04L155 210.28" fill="#EAE2CF"/>
<path d="M148.1 205.77L153.91 196.55C155.15 194.61 157.72 194.05 159.66 195.29C161.6 196.53 162.16 199.1 160.92 201.04L155 210.28" stroke="#0F1728" stroke-miterlimit="10"/>
<path d="M142.42 199.33L152.3 183.6C153.54 181.66 156.11 181.1 158.05 182.34C159.99 183.58 160.55 186.15 159.31 188.09L149.59 203.41" fill="#EAE2CF"/>
<path d="M142.42 199.33L152.3 183.6C153.54 181.66 156.11 181.1 158.05 182.34C159.99 183.58 160.55 186.15 159.31 188.09L149.59 203.41" stroke="#0F1728" stroke-miterlimit="10"/>
<path d="M154.99 210.24L161.05 200.88C162.29 198.94 164.86 198.38 166.8 199.62C168.74 200.86 169.3 203.43 168.06 205.37L162 214.73" fill="#EAE2CF"/>
<path d="M154.99 210.24L161.05 200.88C162.29 198.94 164.86 198.38 166.8 199.62C168.74 200.86 169.3 203.43 168.06 205.37L162 214.73" stroke="#0F1728" stroke-miterlimit="10"/>
<path d="M143.209 206.31L154.109 203.97C156.349 203.48 158.569 204.89 159.069 207.14C159.559 209.38 158.149 211.6 155.899 212.1L144.989 214.44" fill="#EAE2CF"/>
<path d="M143.209 206.31L154.109 203.97C156.349 203.48 158.569 204.89 159.069 207.14C159.559 209.38 158.149 211.6 155.899 212.1L144.989 214.44" stroke="#0F1728" stroke-miterlimit="10"/>
<path d="M131.039 218.01L149.929 231.55" stroke="#0F1728" stroke-miterlimit="10"/>
<path d="M17.4004 255.44V283.81C17.4004 294.85 26.2904 303.8 37.2904 303.92H37.5204H93.7604L98.5104 294.97L97.1704 278.54H85.9304" fill="#EAE2CF"/>
<path d="M17.4004 254.39V282.76C17.4004 293.8 26.2904 302.75 37.2904 302.87H37.5204H93.7604L98.5104 293.92L97.1704 277.49" stroke="#0F1728" stroke-miterlimit="10"/>
<path d="M85.9088 267.6L86.2188 262.36H81.7088C79.3688 262.36 77.4788 264.25 77.4788 266.59C77.4788 266.76 77.4888 266.93 77.5088 267.09H47.0588C44.7088 267.09 42.7988 265.18 42.7988 262.83V243.99" fill="#EAE2CF"/>
<path d="M72.1699 273.82V302.73" stroke="#0F1728" stroke-miterlimit="10"/>
<path d="M61.8301 213.97L66.8701 273.7" stroke="#0F1728" stroke-miterlimit="10"/>
<path d="M105.859 273.8H47.0491C44.6991 273.8 42.7891 271.89 42.7891 269.54V250.7" stroke="#0F1728" stroke-miterlimit="10"/>
<path d="M353.42 302.35H256.86L250.59 232.95C250.59 222.83 255.44 218.23 262.57 217.54L303.36 212.26L345.89 217.4C353.05 218.06 358.83 222.87 358.83 230.06L353.42 302.35Z" fill="#EAE2CF"/>
<path d="M353.42 302.35H256.86L250.59 232.95C250.59 222.83 255.44 218.23 262.57 217.54L303.36 212.26L345.89 217.4C353.05 218.06 358.83 222.87 358.83 230.06L353.42 302.35Z" stroke="#0F1728" stroke-miterlimit="10"/>
<path d="M275.379 285.75H250.409C247.799 285.75 245.689 283.64 245.689 281.03C245.689 278.42 247.799 276.31 250.409 276.31H275.379" fill="#EAE2CF"/>
<path d="M275.379 285.75H250.409C247.799 285.75 245.689 283.64 245.689 281.03C245.689 278.42 247.799 276.31 250.409 276.31H275.379" stroke="#0F1728" stroke-miterlimit="10"/>
<path d="M275.379 295.19H250.409C247.799 295.19 245.689 293.08 245.689 290.47C245.689 287.86 247.799 285.75 250.409 285.75H275.379" fill="#EAE2CF"/>
<path d="M275.379 295.19H250.409C247.799 295.19 245.689 293.08 245.689 290.47C245.689 287.86 247.799 285.75 250.409 285.75H275.379" stroke="#0F1728" stroke-miterlimit="10"/>
<path d="M275.379 304.63H250.409C247.799 304.63 245.689 302.52 245.689 299.91C245.689 297.3 247.799 295.19 250.409 295.19H275.379" fill="#EAE2CF"/>
<path d="M275.379 304.63H250.409C247.799 304.63 245.689 302.52 245.689 299.91C245.689 297.3 247.799 295.19 250.409 295.19H275.379" stroke="#0F1728" stroke-miterlimit="10"/>
<path d="M301.359 238.1C300.249 238.1 299.359 237.2 299.359 236.1C299.359 235 300.259 234.1 301.359 234.1C302.459 234.1 303.359 235 303.359 236.1C303.359 237.2 302.459 238.1 301.359 238.1Z" stroke="#0F1728" stroke-miterlimit="10"/>
<path d="M325.511 215.09L314.631 239.91C314.631 239.91 307.141 226.61 297.701 226.61C288.261 226.61 282.221 237.58 282.221 237.58L284.741 214.97" stroke="#0F1728" stroke-miterlimit="10"/>
<path d="M301.359 238.1C300.249 238.1 299.359 237.2 299.359 236.1C299.359 235 300.259 234.1 301.359 234.1C302.459 234.1 303.359 235 303.359 236.1C303.359 237.2 302.459 238.1 301.359 238.1Z" stroke="#0F1728" stroke-miterlimit="10"/>
<path d="M296.07 251.21C296.13 251.04 297.71 226.46 297.71 226.46" stroke="#0F1728" stroke-miterlimit="10"/>
<path d="M300.881 247.33C299.771 247.33 298.881 246.43 298.881 245.33C298.881 244.23 299.781 243.33 300.881 243.33C301.981 243.33 302.881 244.23 302.881 245.33C302.881 246.43 301.981 247.33 300.881 247.33Z" stroke="#0F1728" stroke-miterlimit="10"/>
<path d="M298.28 276.29H325.73C328.36 276.29 330.49 274.16 330.49 271.53V244.61H358.83V282.17C358.83 294.49 348.91 304.49 336.63 304.62H336.38H280.4" fill="#EAE2CF"/>
<path d="M298.28 276.29H325.73C328.36 276.29 330.49 274.16 330.49 271.53V244.61H358.83V282.17C358.83 294.49 348.91 304.49 336.63 304.62H336.38H280.4" stroke="#0F1728" stroke-miterlimit="10"/>
<path d="M330.489 229.15C330.489 222.66 336.829 217.4 344.659 217.4C352.489 217.4 358.829 222.66 358.829 229.15L358.769 253.4C358.149 249.96 352.069 247.25 344.659 247.25C337.249 247.25 331.169 249.95 330.549 253.4H330.439L330.499 229.15H330.489Z" fill="#EAE2CF"/>
<path d="M330.489 229.15C330.489 222.66 336.829 217.4 344.659 217.4C352.489 217.4 358.829 222.66 358.829 229.15L358.769 253.4C358.149 249.96 352.069 247.25 344.659 247.25C337.249 247.25 331.169 249.95 330.549 253.4H330.439L330.499 229.15H330.489Z" stroke="#0F1728" stroke-miterlimit="10"/>
<path d="M327.831 273.94L331.061 281.5L328.751 304.63H323.681L306.631 276.3H313.771L327.831 273.94Z" fill="#EAE2CF"/>
<path d="M332.349 276.3C332.349 273.69 330.239 271.58 327.629 271.58H313.249C310.639 271.58 308.529 273.69 308.529 276.3" fill="#EAE2CF"/>
<path d="M308.52 276.3C308.52 273.69 310.63 271.58 313.24 271.58H327.62C330.23 271.58 332.34 273.69 332.34 276.3" stroke="#0F1728" stroke-miterlimit="10"/>
<path d="M326.92 295.19H351.89C354.5 295.19 356.61 297.3 356.61 299.91C356.61 302.52 354.5 304.63 351.89 304.63H326.92" fill="#EAE2CF"/>
<path d="M326.92 295.19H351.89C354.5 295.19 356.61 297.3 356.61 299.91C356.61 302.52 354.5 304.63 351.89 304.63H326.92" stroke="#0F1728" stroke-miterlimit="10"/>
<path d="M309.09 276.29H283.69C281.06 276.29 278.93 274.16 278.93 271.53V244.61H250.59V282.17C250.59 294.49 260.51 304.49 272.8 304.62H273.05H329.03" fill="#EAE2CF"/>
<path d="M309.09 276.29H283.69C281.06 276.29 278.93 274.16 278.93 271.53V244.61H250.59V282.17C250.59 294.49 260.51 304.49 272.8 304.62H273.05H329.03" stroke="#0F1728" stroke-miterlimit="10"/>
<path d="M326.92 285.75H351.89C354.5 285.75 356.61 287.86 356.61 290.47C356.61 293.08 354.5 295.19 351.89 295.19H326.92" fill="#EAE2CF"/>
<path d="M326.92 285.75H351.89C354.5 285.75 356.61 287.86 356.61 290.47C356.61 293.08 354.5 295.19 351.89 295.19H326.92" stroke="#0F1728" stroke-miterlimit="10"/>
<path d="M326.92 276.3H351.89C354.5 276.3 356.61 278.41 356.61 281.02C356.61 283.63 354.5 285.74 351.89 285.74H326.92" fill="#EAE2CF"/>
<path d="M326.92 276.3H351.89C354.5 276.3 356.61 278.41 356.61 281.02C356.61 283.63 354.5 285.74 351.89 285.74H326.92" stroke="#0F1728" stroke-miterlimit="10"/>
<path d="M278.93 229.15C278.93 222.66 272.59 217.4 264.76 217.4C256.93 217.4 250.59 222.66 250.59 229.15V253.4C251.21 249.96 257.35 247.25 264.76 247.25C272.17 247.25 278.19 249.95 278.82 253.4H278.93V229.15Z" fill="#EAE2CF"/>
<path d="M278.93 229.15C278.93 222.66 272.59 217.4 264.76 217.4C256.93 217.4 250.59 222.66 250.59 229.15V253.4C251.21 249.96 257.35 247.25 264.76 247.25C272.17 247.25 278.19 249.95 278.82 253.4H278.93V229.15Z" stroke="#0F1728" stroke-miterlimit="10"/>
<path d="M34.8105 297.82C34.8105 301.59 37.8605 304.64 41.6305 304.64H106.791L109.981 297.82H34.8105Z" fill="#047857"/>
<path d="M162.141 298.08C160.271 302.07 156.271 304.61 151.871 304.61H81.2109L112.861 236.97H190.741L162.151 298.08H162.141Z" fill="#01654D"/>
<path d="M139.011 278.06C144.235 278.06 148.471 273.824 148.471 268.6C148.471 263.375 144.235 259.14 139.011 259.14C133.786 259.14 129.551 263.375 129.551 268.6C129.551 273.824 133.786 278.06 139.011 278.06Z" fill="#047857"/>
<path d="M138.469 262.764L136.701 263.238L137.905 267.729L139.673 267.255L138.469 262.764Z" fill="#E9BE51"/>
<path d="M140.751 266.99C141.291 269.66 140.561 271.28 140.031 272.15C139.131 271.65 137.691 270.61 136.821 267.98C136.741 267.98 136.661 267.98 136.581 267.98C135.981 267.98 135.411 267.93 134.861 267.83C136.031 272.18 138.621 273.49 139.591 273.98L139.631 274C139.821 274.1 140.021 274.14 140.211 274.14C140.631 274.14 141.041 273.93 141.291 273.56L141.321 273.51C141.921 272.59 143.511 270.16 142.351 265.82C141.881 266.27 141.341 266.66 140.741 266.98" fill="#EAE2CF"/>
<path d="M306.149 140.7L301.069 140.57L295.739 141.38L291.879 142.7L288.259 145.05L286.439 146.89L285.809 148.08L284.799 150.32L283.569 152.72L282.219 156.26L281.839 160.87L281.789 166.36V170.46L324.739 165.07L324.779 160.61L324.139 155.39L322.989 152.39L321.019 149.39L319.599 148.12L320.059 146.68L318.839 144.62L316.929 143.04L314.919 141.97L311.719 141.25L308.929 140.77L306.129 140.69L306.149 140.7Z" fill="#E8BD51"/>
<path d="M281.85 169.97L281.95 175.57L280.84 174.89L279.32 174.1L277.61 174.67L276.55 175.81L276.24 177.03L276.16 178.95L276.69 180.74L277.68 185.77L278.81 190.06L279.73 191.18H280.93L281.86 190.32L282.41 192.64L283.29 195.49L285.19 199.25L287.15 201.88L288.07 202.87L289.35 216.3L289.83 216.91L291.32 218.77L292.98 219.93L296.06 221.78L298.71 222.79L302.14 223.48L305.6 223.6L308.55 223.15L312 222.23L314.74 220.68L317.49 218.61L319.52 216.6L320.35 215.31V200.79L322.98 196.75L324.01 193.4L324.66 190.36L325.09 190.97L326.11 191.25L327.04 190.81L327.88 188.36L328.79 184.17L329.7 179.02L329.54 176.19L328.47 174.49L327.48 174.22L325.71 174.88L324.86 175.67L324.74 168.47V164.33L323.3 159.95L321.92 156.05L319.98 152.03L317.88 149.44L317.24 149.31L313.81 149.09L309.5 149.22L305.52 149.09H300.94L296.56 149.72L292.64 150.75L288.94 152.52L287.73 153.76L286.69 155.04L285.06 157.92L283.45 162.46L281.83 169.95L281.85 169.97Z" fill="#E9E1CE"/>
<path d="M294.49 178.31C295.72 178.31 296.71 177.32 296.71 176.09C296.71 174.86 295.72 173.87 294.49 173.87C293.26 173.87 292.27 174.86 292.27 176.09C292.27 177.32 293.26 178.31 294.49 178.31Z" stroke="#101727" stroke-miterlimit="10"/>
<path d="M315.74 178.09C316.97 178.09 317.96 177.1 317.96 175.87C317.96 174.64 316.97 173.65 315.74 173.65C314.51 173.65 313.52 174.64 313.52 175.87C313.52 177.1 314.51 178.09 315.74 178.09Z" stroke="#101727" stroke-miterlimit="10"/>
<path d="M296.81 184.77H291.54C288.81 184.77 286.56 182.64 286.4 179.92L286.12 175.13C285.95 172.17 288.3 169.68 291.26 169.68H297.09C300.06 169.68 302.41 172.18 302.23 175.13L301.95 179.92C301.79 182.64 299.53 184.77 296.81 184.77Z" stroke="#101727" stroke-miterlimit="10"/>
<path d="M318.699 184.09H313.429C310.699 184.09 308.449 181.96 308.289 179.24L308.009 174.45C307.839 171.49 310.189 169 313.149 169H318.979C321.949 169 324.299 171.5 324.119 174.45L323.839 179.24C323.679 181.96 321.419 184.09 318.699 184.09Z" stroke="#101727" stroke-miterlimit="10"/>
<path d="M302 173C306.362 170.864 308 172.814 308 172.814" stroke="#101727" stroke-miterlimit="10"/>
<path d="M303.79 174C304.34 177.41 307.11 184.03 308.71 185.41C310.31 186.79 309.66 188.52 307.66 188.79C305.66 189.07 302 188.36 302 188.36" stroke="#101727" stroke-miterlimit="10"/>
<path d="M286 170.59C287.2 169.16 292.09 166.49 294.98 166" stroke="#101727" stroke-miterlimit="10"/>
<path d="M323.413 168.885C322.042 167.619 316.846 165.615 313.912 165.504" stroke="#101727" stroke-miterlimit="10"/>
<path d="M311.08 194.6C307.75 193.79 303.82 194.17 301.52 197" stroke="#101727" stroke-miterlimit="10"/>
<path d="M281.859 176.07C279.679 172.19 275.259 175.04 276.309 179.03C277.099 182.01 278.099 191.25 280.379 191.25C281.839 191.25 281.939 189.77 281.939 189.77" stroke="#101727" stroke-miterlimit="10"/>
<path d="M324.79 176.07C326.71 172.19 330.62 175.04 329.69 179.03C329 182.01 328.09 191.25 326.1 191.25C324.81 191.25 324.65 189.82 324.65 189.82" stroke="#101727" stroke-miterlimit="10"/>
<path d="M287.85 202.63L289.34 216.28C296.97 226.48 313.19 225.82 320.35 215.29V200.77" stroke="#101727" stroke-miterlimit="10"/>
<path d="M286.13 174.35L281.85 174.6" stroke="#101727" stroke-miterlimit="10"/>
<path d="M281.85 173.36C281.85 173.36 282.26 156.55 289.82 152.08C297.37 147.61 310.57 149.4 317.44 149.25C322.54 149.14 320.27 140.84 307.53 140.84C307.53 140.84 288.55 137.96 284.68 150.76C282.9 153.53 281.86 156.83 281.86 160.37V187.76C281.86 199.6 291.46 209.21 303.31 209.21C315.16 209.21 324.76 199.61 324.76 187.76V160.37C324.76 155.57 322.85 151.21 319.76 148.02" stroke="#101727" stroke-miterlimit="10"/>
<path d="M317.699 149.24C321.399 153.46 324.739 161.34 324.739 167.92" stroke="#101727" stroke-miterlimit="10"/>
<path d="M376.959 303.91H315.369L352.199 245.51H413.779L376.959 303.91Z" fill="white" stroke="#101727" stroke-miterlimit="10"/>
<path d="M357.219 259.43H393.329" stroke="#DDD2BA" stroke-miterlimit="10"/>
<path d="M348.738 272.88H384.848" stroke="#DDD2BA" stroke-miterlimit="10"/>
<path d="M352.979 266.16H389.089" stroke="#DDD2BA" stroke-miterlimit="10"/>
<path d="M344.51 279.6H380.61" stroke="#DDD2BA" stroke-miterlimit="10"/>
<path d="M340.27 286.33H376.37" stroke="#DDD2BA" stroke-miterlimit="10"/>
<path d="M357.148 293.05H372.128" stroke="#DDD2BA" stroke-miterlimit="10"/>
<path d="M326.92 295.19H351.89C354.5 295.19 356.61 297.3 356.61 299.91C356.61 302.52 354.5 304.63 351.89 304.63H326.92" fill="#EAE2CF"/>
<path d="M326.92 295.19H351.89C354.5 295.19 356.61 297.3 356.61 299.91C356.61 302.52 354.5 304.63 351.89 304.63H326.92" stroke="#101727" stroke-miterlimit="10"/>
<path d="M326.92 285.75H351.89C354.5 285.75 356.61 287.86 356.61 290.47C356.61 293.08 354.5 295.19 351.89 295.19H326.92" fill="#EAE2CF"/>
<path d="M326.92 285.75H351.89C354.5 285.75 356.61 287.86 356.61 290.47C356.61 293.08 354.5 295.19 351.89 295.19H326.92" stroke="#101727" stroke-miterlimit="10"/>
<path d="M326.92 276.3H351.89C354.5 276.3 356.61 278.41 356.61 281.02C356.61 283.63 354.5 285.74 351.89 285.74H326.92" fill="#EAE2CF"/>
<path d="M326.92 276.3H351.89C354.5 276.3 356.61 278.41 356.61 281.02C356.61 283.63 354.5 285.74 351.89 285.74H326.92" stroke="#101727" stroke-miterlimit="10"/>
<path d="M327.229 283.38H303.039V304.19H327.229V283.38Z" fill="#EAE2CF"/>
<path d="M408.58 303.34H0V320.52H408.58V303.34Z" fill="#E9BE51"/>
<path d="M293.031 284.29H229.801V303.15H293.031V284.29Z" fill="#B7AB65"/>
<path d="M239.89 298.44C242.497 298.44 244.61 296.327 244.61 293.72C244.61 291.113 242.497 289 239.89 289C237.283 289 235.17 291.113 235.17 293.72C235.17 296.327 237.283 298.44 239.89 298.44Z" fill="#A99E53"/>
<path d="M295.871 265.4H232.641V284.26H295.871V265.4Z" fill="#B7AB65"/>
<path d="M292.13 246.51H228.9V265.37H292.13V246.51Z" fill="#B7AB65"/>
<path d="M228.9 265.38H291.99" stroke="#0F1728" stroke-miterlimit="10"/>
<path d="M229.85 303.32H292.93" stroke="#0F1728" stroke-miterlimit="10"/>
<path d="M232.68 284.24H295.76" stroke="#0F1728" stroke-miterlimit="10"/>
<path d="M238.329 260.35C240.936 260.35 243.049 258.237 243.049 255.63C243.049 253.023 240.936 250.91 238.329 250.91C235.723 250.91 233.609 253.023 233.609 255.63C233.609 258.237 235.723 260.35 238.329 260.35Z" fill="#A99E53"/>
<path d="M242.521 279.01C245.128 279.01 247.241 276.897 247.241 274.29C247.241 271.683 245.128 269.57 242.521 269.57C239.914 269.57 237.801 271.683 237.801 274.29C237.801 276.897 239.914 279.01 242.521 279.01Z" fill="#A99E53"/>
<path d="M293.239 151.29C293.239 151.29 290.419 154.54 293.019 153.89" stroke="white" stroke-linecap="round" stroke-linejoin="round"/>
<path d="M290.109 157.29C290.109 157.29 288.339 161.21 290.639 159.84" stroke="white" stroke-linecap="round" stroke-linejoin="round"/>
<path d="M407.7 117.75H373.48C370.167 117.75 367.48 120.436 367.48 123.75V146.42C367.48 149.734 370.167 152.42 373.48 152.42H407.7C411.014 152.42 413.7 149.734 413.7 146.42V123.75C413.7 120.436 411.014 117.75 407.7 117.75Z" fill="#F7F5EF" stroke="#DDD2BA"/>
<path d="M381.93 137.98C385.123 137.98 387.71 135.392 387.71 132.2C387.71 129.008 385.123 126.42 381.93 126.42C378.738 126.42 376.15 129.008 376.15 132.2C376.15 135.392 378.738 137.98 381.93 137.98Z" fill="#F7F5EF" stroke="#DDD2BA"/>
<path d="M374.42 143.75C377.31 137.97 386.55 137.97 389.44 143.75H374.42Z" fill="#F7F5EF"/>
<path d="M374.42 143.75C377.31 137.97 386.55 137.97 389.44 143.75" stroke="#DDD2BA"/>
<path d="M393.48 130.46H406.77" stroke="#DDD2BA"/>
<path d="M393.48 139.71H406.77" stroke="#DDD2BA"/>
<path d="M391.439 169.4H360.369C358.16 169.4 356.369 171.191 356.369 173.4V198.88C356.369 201.089 358.16 202.88 360.369 202.88H391.439C393.648 202.88 395.439 201.089 395.439 198.88V173.4C395.439 171.191 393.648 169.4 391.439 169.4Z" fill="#F7F5EF" stroke="#DDD2BA"/>
<path d="M356.369 180.56H395.439" stroke="#DDD2BA"/>
<path d="M369.209 180.56V202.89" stroke="#DDD2BA"/>
<path d="M382.6 180.56V202.89" stroke="#DDD2BA"/>
<path d="M332.461 152.15L363.001 135.91" stroke="#DDD2BA" stroke-dasharray="3 3"/>
<path d="M349.18 188.49L332.23 186.04" stroke="#DDD2BA" stroke-dasharray="3 3"/>
<path d="M315.56 120.96L311.66 130.71" stroke="#DDD2BA" stroke-dasharray="3 3"/>
<path d="M157.2 163.59C161.535 163.59 165.05 160.075 165.05 155.74C165.05 151.404 161.535 147.89 157.2 147.89C152.864 147.89 149.35 151.404 149.35 155.74C149.35 160.075 152.864 163.59 157.2 163.59Z" fill="#01654D"/>
<path d="M153.27 155.74L156.18 158.65L161.11 153.49" stroke="white" stroke-width="2" stroke-linecap="round"/>
<path d="M183.95 80.2698H130.45C128.969 80.2698 127.77 81.4697 127.77 82.9498V82.9598C127.77 84.4399 128.969 85.6398 130.45 85.6398H183.95C185.43 85.6398 186.63 84.4399 186.63 82.9598V82.9498C186.63 81.4697 185.43 80.2698 183.95 80.2698Z" fill="#E5E7EB"/>
<path d="M165.18 91.8899H130.45C128.969 91.8899 127.77 93.0898 127.77 94.5699V94.5799C127.77 96.06 128.969 97.2599 130.45 97.2599H165.18C166.66 97.2599 167.86 96.06 167.86 94.5799V94.5699C167.86 93.0898 166.66 91.8899 165.18 91.8899Z" fill="#E5E7EB"/>
<path d="M131.289 55.6999C131.499 55.6999 131.619 55.6499 131.789 55.7699C131.869 55.8299 131.949 55.8899 132.029 55.9499C132.179 56.0799 132.329 56.2199 132.449 56.3799C132.699 56.6799 132.899 57.0299 133.019 57.4099C133.079 57.5999 133.149 57.8199 133.329 57.9099C133.419 57.9599 133.529 57.9599 133.639 57.9599C134.209 57.9599 134.769 57.9599 135.339 57.9599L135.409 58.4499C136.419 58.6799 137.299 59.2999 138.219 59.7799C139.139 60.2599 140.239 60.5999 141.209 60.2299L141.259 59.8799C142.529 59.6099 143.829 60.5599 144.309 61.7699C144.459 62.1499 144.549 62.5499 144.729 62.9099C144.909 63.2699 145.219 63.5999 145.619 63.6799C146.019 63.7499 146.489 63.4599 146.489 63.0599C146.489 62.9299 146.439 62.7999 146.469 62.6699C146.519 62.4399 146.759 62.3199 146.989 62.2599C148.459 61.9099 149.489 63.6299 149.929 65.0699C150.089 65.5999 150.149 66.1599 150.379 66.6599C150.609 67.1799 151.519 67.1999 152.099 67.1899C152.129 67.1899 152.159 67.1899 152.189 67.1899C152.589 67.1099 152.549 66.6299 152.359 66.3499C152.189 66.0999 151.929 65.8999 151.839 65.6099C151.749 65.3199 152.009 64.9199 152.279 65.0399C152.279 64.6699 152.289 64.2899 152.299 63.9199C152.729 63.7599 153.209 63.7799 153.639 63.6399C154.069 63.4999 154.489 63.0599 154.339 62.6199C155.119 62.6599 155.909 62.5299 156.639 62.2699C156.789 62.7099 157.309 62.9199 157.769 62.9299C158.229 62.9299 158.689 62.7899 159.149 62.7399C159.659 62.6899 160.169 62.7699 160.639 62.9599C160.699 62.4799 160.479 61.9699 160.099 61.6799C160.319 61.4599 160.679 61.6399 160.979 61.7099C161.639 61.8599 162.279 61.4099 162.799 60.9799C163.079 61.1199 163.389 61.1399 163.699 61.0799C163.759 61.6599 164.439 61.9599 165.029 61.9999C165.619 62.0299 166.239 61.9299 166.759 62.2099C166.979 62.3299 167.169 62.5099 167.349 62.6799C167.629 62.9599 167.929 63.2499 168.059 63.6299C168.179 63.9699 168.149 64.3499 168.289 64.6899C168.589 65.3999 169.569 65.6799 169.749 66.4299C170.129 66.2299 170.519 66.0199 170.899 65.8199C170.969 65.7799 171.049 65.7299 171.079 65.6499C171.109 65.5699 171.059 65.4799 171.019 65.4099C170.639 64.7799 170.969 63.9299 170.319 63.5899C170.259 63.5599 170.209 63.5199 170.159 63.4799C169.759 63.1099 169.359 62.9599 169.419 62.4999C169.479 62.0099 169.059 61.5999 168.729 61.2299C168.399 60.8599 168.129 60.2699 168.469 59.8999C168.579 59.7799 168.729 59.7099 168.849 59.6099C169.109 59.3899 169.209 59.0499 169.309 58.7199C169.439 58.2599 169.569 57.7899 169.699 57.3299C169.799 56.9799 169.929 56.5899 170.259 56.4299C170.489 56.3199 170.769 56.3499 170.989 56.2299C171.359 56.0399 171.449 55.5599 171.679 55.2199C171.949 54.8299 172.409 54.6299 172.729 54.2899C173.059 53.9499 173.179 53.3099 172.779 53.0699C172.379 53.1999 171.899 53.0199 171.679 52.6499C171.439 52.2599 171.539 51.6999 171.899 51.4199C171.939 51.3899 171.969 51.3599 171.999 51.3199C172.349 50.8299 171.329 50.5399 171.499 50.0899C171.989 50.0299 172.489 50.0299 172.989 50.0599C172.999 49.3299 173.179 48.6099 173.509 47.9599C173.579 47.8199 173.669 47.6699 173.829 47.6299C173.939 47.5999 174.069 47.6299 174.189 47.6299C174.409 47.6099 174.609 47.4099 174.609 47.1799C174.609 46.9599 174.419 46.7399 174.199 46.7199C174.419 46.4799 174.629 46.6499 174.849 46.3999C174.939 46.2999 175.019 46.1499 175.159 46.1499C175.619 46.1699 176.069 46.4899 176.519 46.0999C176.799 45.0399 175.659 45.0199 175.009 44.7499C174.729 44.6299 175.469 43.9799 175.579 43.8599C175.829 43.5799 176.269 43.4499 176.359 43.0899C176.419 42.8699 176.359 42.6099 176.499 42.4299C176.639 42.2399 176.899 42.2099 177.079 42.0699C177.439 41.7699 177.269 41.1899 177.069 40.7699C176.779 40.1499 176.359 39.4499 175.679 39.4099C175.369 39.3899 175.009 39.5099 174.789 39.2999C174.519 39.8699 174.539 40.5399 174.389 41.1599C174.239 41.7799 173.789 42.4299 173.149 42.4199C171.209 43.9699 169.149 45.0599 166.819 45.9399V46.5899C167.039 46.6099 167.249 46.7799 167.319 46.9899C166.679 47.0499 166.189 47.5699 165.629 47.8699C165.059 48.1699 164.149 48.1099 164.019 47.4799C163.889 46.8399 164.289 46.3999 164.789 45.9899C165.159 45.6799 164.869 45.2899 165.159 44.8599C165.679 44.0899 165.069 43.0499 164.139 43.1199C163.869 43.1399 163.689 43.1799 163.709 43.1799C162.989 43.2299 162.799 43.1599 162.399 42.5599C162.079 42.0799 162.159 41.4199 161.849 40.9299C161.449 40.3199 160.609 40.2399 159.879 40.2199C159.679 40.2199 159.459 40.2199 159.309 40.3499C159.179 40.4599 159.139 40.6399 159.079 40.7999C158.659 41.9599 156.859 42.2899 156.049 41.3499C155.929 41.2099 155.829 41.0499 155.669 40.9499C155.479 40.8299 155.239 40.8199 155.019 40.8099C154.559 40.7799 154.089 40.6899 153.719 40.4299C153.349 40.1599 153.099 39.6799 153.219 39.2399C152.689 39.3699 152.649 40.0999 152.289 40.5099C151.759 41.1199 150.779 40.8099 150.019 40.5499C148.549 40.0599 146.989 39.9299 145.449 39.8099C142.599 39.5899 139.759 39.3699 136.909 39.1499C136.489 39.1199 136.069 39.0799 135.699 38.8899C135.399 38.7399 135.159 38.4899 134.879 38.3099C134.719 38.2099 134.579 38.1199 134.439 38.0499C133.769 37.7099 132.989 38.2899 133.139 39.0299C133.139 39.0799 133.159 39.1199 133.159 39.1699C133.199 39.4299 132.349 39.8899 132.079 39.8399C131.999 39.8299 131.929 39.7699 131.879 39.7099L130.899 38.2799C130.899 38.7799 130.759 39.2799 130.749 39.7699C130.749 40.0699 130.739 40.3699 130.669 40.6699C130.569 41.0799 130.349 41.4399 130.179 41.8199C129.969 42.2899 129.829 42.7899 129.779 43.3099C129.729 43.7499 129.729 44.2499 129.429 44.5799C129.319 44.6999 129.169 44.7899 129.069 44.9299C128.629 45.4899 129.169 46.4099 128.739 46.9799C128.639 47.1199 128.489 47.2199 128.359 47.3299C127.859 47.7999 127.799 48.6599 128.229 49.1899C128.469 49.4899 128.809 49.6699 129.089 49.9299C129.359 50.1899 129.569 50.5999 129.409 50.9499C129.349 51.0799 129.249 51.1799 129.169 51.2899C128.829 51.7899 129.049 52.5799 129.599 52.8299C129.859 52.9499 130.249 53.0599 130.089 53.4099C130.049 53.4999 129.979 53.5699 129.889 53.6099C129.429 53.8399 129.579 54.5799 130.029 54.6899C130.269 54.7499 130.539 54.6599 130.759 54.7799C131.149 54.9999 130.849 55.6499 131.289 55.7199V55.6999Z" fill="#01654D"/>
</g>
<defs>
<clipPath id="clip0_2680_5917">
<rect width="414.69" height="320.52" fill="white"/>
</clipPath>
</defs>
</svg>
