<svg width="916" height="328" viewBox="0 0 916 328" fill="none" xmlns="http://www.w3.org/2000/svg">
<path fill-rule="evenodd" clip-rule="evenodd" d="M40.9091 77.0847H1.97607V325.024H40.9091V325.022H217.625V285.441H40.9091V77.0847Z" fill="#F87029"/>
<path fill-rule="evenodd" clip-rule="evenodd" d="M4.81829 78.9999H38.5463V85.9238H24.1432V89.0549H38.5463V102.898H29.1779V106.03H38.5463V119.873H24.1432V123.004H38.5463V136.852H29.1779V139.983H38.5463V153.825H24.1432V156.956H38.5463V169.757H29.1779V172.888H38.5463V187.776H24.1432V190.907H38.5463V203.704H29.1779V206.835H38.5463V219.643H24.1432V222.774H38.5463V235.771H29.1779V238.902H38.5463V250.108H24.1432V253.239H38.5463V265.927H29.1779V269.058H38.5463V279.342C38.5463 279.652 38.5609 279.958 38.5894 280.26H24.1432V283.391H39.4355C40.9652 286.69 44.3068 288.979 48.1829 288.979H52.6153V303.815H55.7465V288.979H69.5923V298.78H72.7234V288.979H86.5645V303.815H89.6956V288.979H103.546V298.78H106.677V288.979H120.518V303.815H123.65V288.979H136.451V298.78H139.582V288.979H154.468V303.815H157.599V288.979H170.395V298.78H173.526V288.979H186.337V303.815H189.468V288.979H202.462V298.78H205.593V288.979H215.385V322.707H43.3651C43.3311 322.707 43.2971 322.707 43.2632 322.708H4.81829V78.9999ZM43.3646 78.9999C43.3646 76.3389 41.2074 74.1816 38.5463 74.1816H4.81829C2.15722 74.1816 0 76.3389 0 78.9999V322.708C0 325.369 2.15722 327.526 4.81828 327.526H43.3641C43.3644 327.526 43.3646 327.526 43.3646 327.526L43.3648 327.525L43.3651 327.525H215.385C218.046 327.525 220.203 325.368 220.203 322.707V288.979C220.203 286.318 218.046 284.161 215.385 284.161H48.1829C45.5218 284.161 43.3646 282.003 43.3646 279.342V78.9999Z" fill="#051027"/>
<path d="M93.6885 232.196V0.917962H182.225C198.938 0.917962 212.828 3.55296 223.895 8.82296C235.038 14.0177 243.357 21.1322 248.852 30.1665C254.424 39.2008 257.209 49.4396 257.209 60.8831C257.209 70.2938 255.402 78.3494 251.789 85.0498C248.175 91.6749 243.319 97.0579 237.221 101.199C231.123 105.339 224.309 108.313 216.781 110.12V112.379C224.987 112.83 232.854 115.352 240.383 119.945C247.987 124.462 254.198 130.861 259.016 139.143C263.834 147.424 266.243 157.437 266.243 169.182C266.243 181.152 263.345 191.918 257.548 201.479C251.751 210.965 243.018 218.456 231.349 223.952C219.679 229.448 204.999 232.196 187.306 232.196H93.6885ZM135.585 197.188H180.644C195.851 197.188 206.805 194.289 213.506 188.492C220.282 182.62 223.669 175.092 223.669 165.907C223.669 159.056 221.975 152.882 218.588 147.386C215.2 141.815 210.381 137.449 204.133 134.287C197.884 131.049 190.431 129.431 181.773 129.431H135.585V197.188ZM135.585 99.2788H177.03C184.257 99.2788 190.77 97.9613 196.567 95.3263C202.364 92.616 206.918 88.8141 210.231 83.9205C213.619 78.9516 215.313 73.0794 215.313 66.3036C215.313 57.3446 212.151 49.9666 205.827 44.1696C199.578 38.3726 190.28 35.4741 177.933 35.4741H135.585V99.2788ZM377.676 235.584C360.285 235.584 345.265 231.97 332.617 224.743C320.045 217.44 310.37 207.126 303.595 193.8C296.819 180.399 293.431 164.627 293.431 146.483C293.431 128.64 296.819 112.981 303.595 99.5047C310.446 85.9532 320.007 75.4132 332.278 67.8846C344.55 60.2808 358.967 56.4789 375.53 56.4789C386.221 56.4789 396.309 58.2104 405.795 61.6736C415.356 65.0614 423.788 70.3314 431.091 77.4836C438.469 84.6357 444.266 93.7453 448.482 104.812C452.698 115.804 454.806 128.904 454.806 144.111V156.647H312.629V129.092H415.62C415.545 121.262 413.851 114.298 410.538 108.2C407.225 102.027 402.595 97.1708 396.648 93.6324C390.776 90.0939 383.925 88.3247 376.095 88.3247C367.738 88.3247 360.398 90.3574 354.074 94.4229C347.75 98.413 342.819 103.683 339.28 110.233C335.817 116.707 334.048 123.822 333.972 131.576V155.63C333.972 165.718 335.817 174.376 339.506 181.604C343.195 188.756 348.352 194.252 354.977 198.091C361.602 201.856 369.357 203.738 378.24 203.738C384.188 203.738 389.571 202.91 394.389 201.253C399.208 199.522 403.386 197 406.924 193.687C410.463 190.375 413.135 186.271 414.942 181.378L453.112 185.669C450.703 195.757 446.111 204.566 439.335 212.095C432.634 219.548 424.052 225.345 413.587 229.486C403.122 233.551 391.152 235.584 377.676 235.584ZM539.305 235.697C528.313 235.697 518.413 233.739 509.605 229.824C500.872 225.834 493.945 219.962 488.826 212.207C483.782 204.453 481.26 194.892 481.26 183.524C481.26 173.736 483.066 165.643 486.68 159.244C490.294 152.845 495.225 147.725 501.474 143.886C507.723 140.046 514.762 137.148 522.591 135.19C530.496 133.157 538.665 131.689 547.097 130.786C557.261 129.732 565.504 128.791 571.828 127.963C578.152 127.059 582.745 125.704 585.606 123.897C588.542 122.015 590.01 119.117 590.01 115.202V114.524C590.01 106.017 587.488 99.4294 582.444 94.7617C577.4 90.0939 570.134 87.7601 560.648 87.7601C550.635 87.7601 542.693 89.9434 536.82 94.3099C531.023 98.6765 527.109 103.834 525.076 109.781L486.906 104.361C489.917 93.8206 494.886 85.0121 501.813 77.9353C508.739 70.7831 517.209 65.4378 527.222 61.8994C537.235 58.2857 548.302 56.4789 560.423 56.4789C568.779 56.4789 577.098 57.4576 585.38 59.415C593.661 61.3724 601.227 64.6097 608.078 69.1269C614.929 73.5687 620.425 79.6292 624.566 87.3084C628.782 94.9875 630.89 104.586 630.89 116.105V232.196H591.591V208.368H590.236C587.751 213.186 584.251 217.703 579.733 221.919C575.292 226.06 569.683 229.41 562.907 231.97C556.207 234.454 548.339 235.697 539.305 235.697ZM549.92 205.658C558.126 205.658 565.241 204.039 571.264 200.802C577.287 197.489 581.917 193.122 585.154 187.702C588.467 182.281 590.123 176.371 590.123 169.972V149.532C588.843 150.586 586.66 151.565 583.573 152.468C580.562 153.372 577.174 154.162 573.409 154.84C569.645 155.517 565.918 156.12 562.229 156.647C558.54 157.174 555.341 157.625 552.631 158.002C546.532 158.83 541.074 160.185 536.256 162.067C531.438 163.949 527.636 166.584 524.85 169.972C522.064 173.285 520.672 177.576 520.672 182.846C520.672 190.375 523.42 196.059 528.915 199.898C534.411 203.738 541.413 205.658 549.92 205.658ZM671.996 232.196V58.7374H711.069V88.2118H713.102C716.716 78.2741 722.701 70.5196 731.058 64.9485C739.414 59.3021 749.39 56.4789 760.984 56.4789C772.728 56.4789 782.628 59.3397 790.684 65.0614C798.815 70.7079 804.537 78.4246 807.849 88.2118H809.656C813.496 78.5752 819.97 70.8961 829.08 65.1744C838.265 59.3774 849.143 56.4789 861.716 56.4789C877.677 56.4789 890.701 61.523 900.789 71.6113C910.878 81.6996 915.922 96.4179 915.922 115.766V232.196H874.929V122.09C874.929 111.325 872.068 103.457 866.346 98.4883C860.625 93.4442 853.623 90.9221 845.342 90.9221C835.479 90.9221 827.762 94.0088 822.191 100.182C816.695 106.28 813.947 114.223 813.947 124.01V232.196H773.858V120.396C773.858 111.437 771.147 104.285 765.727 98.94C760.382 93.5947 753.38 90.9221 744.722 90.9221C738.85 90.9221 733.505 92.4278 728.686 95.4392C723.868 98.3754 720.028 102.554 717.168 107.974C714.307 113.32 712.876 119.568 712.876 126.72V232.196H671.996Z" fill="#0B111E"/>
</svg>
