<svg width="122" height="136" viewBox="0 0 122 136" fill="none" xmlns="http://www.w3.org/2000/svg">
<g clip-path="url(#clip0_232_183)">
<path d="M110.46 1.0957H1.10449V134.904H110.46V1.0957Z" fill="#01654D" stroke="#101727" stroke-width="2" stroke-miterlimit="10"/>
<path d="M120.895 1.0957H11.54V134.904H120.895V1.0957Z" fill="#E8BD51" stroke="#101727" stroke-width="2" stroke-miterlimit="10"/>
<path d="M120.895 28.3408H11.54V134.896H120.895V28.3408Z" fill="#E9E1CE" stroke="#101727" stroke-width="2" stroke-miterlimit="10"/>
<path d="M26.9684 21.1735C30.3402 21.1735 33.0736 18.4617 33.0736 15.1165C33.0736 11.7714 30.3402 9.05957 26.9684 9.05957C23.5967 9.05957 20.8633 11.7714 20.8633 15.1165C20.8633 18.4617 23.5967 21.1735 26.9684 21.1735Z" fill="#E8BD51" stroke="#101727" stroke-width="2" stroke-miterlimit="10"/>
<path d="M43.3249 21.1735C46.6967 21.1735 49.43 18.4617 49.43 15.1165C49.43 11.7714 46.6967 9.05957 43.3249 9.05957C39.9531 9.05957 37.2197 11.7714 37.2197 15.1165C37.2197 18.4617 39.9531 21.1735 43.3249 21.1735Z" fill="#E8BD51" stroke="#101727" stroke-width="2" stroke-miterlimit="10"/>
<path d="M59.6813 21.1735C63.0531 21.1735 65.7865 18.4617 65.7865 15.1165C65.7865 11.7714 63.0531 9.05957 59.6813 9.05957C56.3095 9.05957 53.5762 11.7714 53.5762 15.1165C53.5762 18.4617 56.3095 21.1735 59.6813 21.1735Z" fill="#E8BD51" stroke="#101727" stroke-width="2" stroke-miterlimit="10"/>
<path d="M25.1794 38.7529L36.1819 49.6686L24.9658 60.7961" stroke="#101727" stroke-width="2" stroke-miterlimit="10"/>
<path d="M38.8252 60.7959H54.136" stroke="#101727" stroke-width="2" stroke-miterlimit="10"/>
</g>
<defs>
<clipPath id="clip0_232_183">
<rect width="122" height="136" fill="white"/>
</clipPath>
</defs>
</svg>
