<svg width="558" height="128" xmlns="http://www.w3.org/2000/svg"><path d="M312.93 64.24A37.67 37.67 0 0 0 251.68 76a36.16 36.16 0 0 0-2.91 14.46 36.7 36.7 0 0 0 10.87 26.29 38 38 0 0 0 11.9 7.89 38.81 38.81 0 0 0 29.47 0 38 38 0 0 0 11.9-7.89 36.71 36.71 0 0 0 10.89-26.29A36.12 36.12 0 0 0 320.89 76a37.9 37.9 0 0 0-7.96-11.76zm-7.16 35.28a20.23 20.23 0 0 1-4.15 7 19.35 19.35 0 0 1-6.56 4.55 23.82 23.82 0 0 1-17.55 0 19.3 19.3 0 0 1-6.56-4.55 20.12 20.12 0 0 1-4.16-7c-2-5.881-2-12.259 0-18.14a20.14 20.14 0 0 1 4.16-7 19.32 19.32 0 0 1 6.56-4.55 23.75 23.75 0 0 1 17.55 0 19.34 19.34 0 0 1 6.56 4.55 20.27 20.27 0 0 1 4.15 7 28.19 28.19 0 0 1 0 18.14zm175.65-31.04V55.12H425.6v13.95h35.67l-36.96 43.28v13.5h59.12V111.9h-39.24l37.23-43.42zm36.8 43.42l37.23-43.42V55.12h-55.82v13.95h35.67l-36.96 43.28v13.5h59.12V111.9h-39.24zM215.81 55.76c-10.44-4.32-23.25-2.54-31.54 4.14V30.13h-15.66v95.71h15.67V88.21c0-7.16 2.06-19.17 15.83-19.17 12.64 0 17.13 10.33 17.13 19.17v37.62h15.65V83.06c-.01-12.86-6.23-22.81-17.08-27.3zm174.95 37.98a25.33 25.33 0 0 1-.91 6.55 17.93 17.93 0 0 1-2.94 6 15.35 15.35 0 0 1-5.27 4.41 20.35 20.35 0 0 1-16.25 0 15.37 15.37 0 0 1-5.27-4.41 17.82 17.82 0 0 1-2.94-6 25.5 25.5 0 0 1-.92-6.55V55h-15.54v40.3c0 15 6.62 25 19.95 30a37.8 37.8 0 0 0 25.86-.06c16.36-6.18 19.79-19.72 19.79-30V55.17h-15.56v38.57zm-320.48 32.1h42.22V54.36L27.99 30.13V0H0v125.84h42.22V86.22h28.06z"/></svg>