<svg width="133" height="133" viewBox="0 0 133 133" fill="none" xmlns="http://www.w3.org/2000/svg">
<g id="Layer_2" clip-path="url(#clip0_232_224)">
<path id="Vector" d="M57.5515 109.325C85.5183 109.325 108.19 86.6531 108.19 58.6863C108.19 30.7194 85.5183 8.04785 57.5515 8.04785C29.5847 8.04785 6.91309 30.7194 6.91309 58.6863C6.91309 86.6531 29.5847 109.325 57.5515 109.325Z" fill="#01654D" stroke="#101727" stroke-width="2" stroke-miterlimit="10"/>
<g id="Group">
<g id="Group_2">
<path id="Vector_2" d="M55.6557 37.4639C70.2358 37.4639 82.077 49.3051 82.077 63.8852V70.9958H29.2344V63.8852C29.2344 49.3051 41.0756 37.4639 55.6557 37.4639Z" fill="#E8BD51" stroke="#101727" stroke-width="2" stroke-miterlimit="10"/>
<g id="Vector_3">
<path d="M67.1816 68.5352H88.7844C90.7616 68.5352 92.358 70.1389 92.358 72.1088C92.358 74.086 90.7543 75.6824 88.7844 75.6824H27.2933C25.3161 75.6824 23.7197 74.0787 23.7197 72.1088C23.7197 70.1316 25.3235 68.5352 27.2933 68.5352H31.775" fill="#E8BD51"/>
<path d="M67.1816 68.5352H88.7844C90.7616 68.5352 92.358 70.1389 92.358 72.1088C92.358 74.086 90.7543 75.6824 88.7844 75.6824H27.2933C25.3161 75.6824 23.7197 74.0787 23.7197 72.1088C23.7197 70.1316 25.3235 68.5352 27.2933 68.5352H31.775" stroke="#101727" stroke-width="2" stroke-miterlimit="10"/>
</g>
<path id="Vector_4" d="M61.2203 38.0498C69.876 40.5543 75.9102 43.5274 75.9102 58.3345H69.8174C69.8174 46.8081 61.4253 38.0864 49.8916 38.0864" stroke="#101727" stroke-width="2" stroke-miterlimit="10"/>
</g>
<path id="Vector_5" d="M82.1123 106.399L106.403 82.1088L126.872 102.578C133.573 109.278 133.573 120.163 126.872 126.863C120.172 133.564 109.287 133.564 102.587 126.863L82.1175 106.394L82.1123 106.399Z" fill="#01654D" stroke="#101727" stroke-width="2" stroke-miterlimit="10"/>
<path id="Vector_6" d="M105.617 81.3324L81.3262 105.623L93.1168 117.414L117.407 93.123L105.617 81.3324Z" fill="#E9E1CE" stroke="#101727" stroke-width="2" stroke-miterlimit="10"/>
<path id="Vector_7" d="M98.304 17.7727C76.0641 -4.4672 40.0131 -4.4672 17.7805 17.7727C-4.45939 40.0126 -4.45939 76.0636 17.7805 98.2962C40.0204 120.536 76.0714 120.536 98.304 98.2962C120.544 76.0563 120.544 40.0053 98.304 17.7727ZM90.278 90.2702C72.4759 108.072 43.6087 108.072 25.8065 90.2702C8.00433 72.468 8.00433 43.6009 25.8065 25.7987C43.6087 7.99651 72.4759 7.99651 90.278 25.7987C108.08 43.6009 108.08 72.468 90.278 90.2702Z" fill="#E9E1CE" stroke="#101727" stroke-width="2" stroke-miterlimit="10"/>
</g>
</g>
<defs>
<clipPath id="clip0_232_224">
<rect width="133" height="133" fill="white"/>
</clipPath>
</defs>
</svg>
