<svg height="111" viewBox="0 0 599 111" width="599" xmlns="http://www.w3.org/2000/svg" xmlns:xlink="http://www.w3.org/1999/xlink"><mask id="a" fill="#fff"><path d="m.754.76h140.496v88.32h-140.496z" fill="#fff" fill-rule="evenodd"/></mask><g fill="none" fill-rule="evenodd"><path d="m.866 60.243v28.887h89.13v-42.063l-28.226-29.676z" fill="#1c5274"/><path d="m89.997 36.957v-36.957h-89.13v35.975l60.902-23.646zm84.783-16.983h-26.48v69.156h-23.126v-69.156h-26.482v-19.974h76.087v19.974" fill="#8d989d"/><path d="m21.854 35.085c0 2.08.205 4.18.62 6.303.413 2.121 1.116 4.056 2.11 5.803.993 1.748 2.296 3.164 3.91 4.244 1.612 1.081 3.66 1.623 6.143 1.623s4.55-.542 6.206-1.623a12.16 12.16 0 0 0 3.971-4.244c.993-1.747 1.694-3.682 2.11-5.803.414-2.124.62-4.222.62-6.303 0-2.08-.206-4.182-.62-6.303-.416-2.122-1.117-4.057-2.11-5.804a12.747 12.747 0 0 0 -3.971-4.307c-1.657-1.123-3.723-1.684-6.206-1.684-2.482 0-4.53.56-6.144 1.684a13 13 0 0 0 -3.91 4.307c-.993 1.747-1.696 3.682-2.11 5.804a32.783 32.783 0 0 0 -.62 6.303zm-21.1 0c0-4.825.826-9.34 2.483-13.543 1.653-4.2 3.972-7.841 6.95-10.921 2.979-3.077 6.557-5.492 10.735-7.24 4.178-1.745 8.75-2.619 13.715-2.619 4.964 0 9.536.874 13.714 2.62 4.178 1.748 7.777 4.163 10.799 7.24 3.018 3.08 5.356 6.72 7.011 10.92 1.655 4.203 2.483 8.719 2.483 13.544 0 4.91-.828 9.445-2.483 13.604-1.655 4.162-3.993 7.76-7.011 10.796-3.022 3.04-6.62 5.429-10.799 7.178-4.178 1.749-8.75 2.62-13.714 2.62-4.965 0-9.537-.871-13.715-2.62-4.178-1.75-7.756-4.139-10.735-7.178-2.977-3.036-5.297-6.635-6.95-10.796-1.657-4.161-2.483-8.696-2.483-13.605zm106.861-18.098c-1.408 0-2.876.27-4.407.811-1.532.542-2.916 1.479-4.157 2.808-1.24 1.332-2.276 3.12-3.103 5.367-.828 2.247-1.24 5.036-1.24 8.363 0 5.658.93 10.194 2.792 13.606 1.861 3.41 5.19 5.116 9.99 5.116 2.316 0 4.283-.563 5.895-1.685 1.615-1.123 2.918-2.578 3.911-4.368.992-1.788 1.716-3.785 2.171-5.992.454-2.203.684-4.43.684-6.677 0-2.08-.209-4.138-.622-6.178-.414-2.038-1.117-3.89-2.11-5.554a12.2 12.2 0 0 0 -3.909-4.056c-1.614-1.041-3.58-1.561-5.895-1.561zm-33.263-14.354h20.107v7.49h.248c4.22-6.243 10.135-9.363 17.749-9.363 5.046 0 9.388 1 13.031 2.996 3.64 1.997 6.62 4.66 8.936 7.988 2.315 3.33 4.034 7.137 5.15 11.42 1.118 4.287 1.676 8.718 1.676 13.295 0 4.242-.558 8.32-1.675 12.23-1.117 3.913-2.815 7.406-5.09 10.485a25.503 25.503 0 0 1 -8.5 7.364c-3.394 1.83-7.365 2.745-11.915 2.745-7.862 0-13.984-2.952-18.37-8.861h-.247v28.708h-21.1z" fill="#8d989d" mask="url(#a)" transform="translate(155.214 21.74)"/><path d="m326.481 70.532h18.78c3.695 0 6.72-.747 9.071-2.245 2.35-1.497 3.529-4.076 3.529-7.739 0-3.91-1.219-6.634-3.653-8.174-2.44-1.54-5.421-2.31-8.948-2.31h-18.779zm0-35.444h18.147c1.009 0 2.08-.146 3.215-.438a9.067 9.067 0 0 0 3.087-1.435c.922-.665 1.7-1.54 2.33-2.621.632-1.08.948-2.412.948-3.994 0-3.245-.99-5.492-2.963-6.74-1.975-1.248-4.18-1.872-6.617-1.872h-18.148v17.1zm-23.44-35.073h42.09a68.297 68.297 0 0 1 11.596.748c3.862.584 7.35 1.707 10.46 3.37 3.106 1.666 5.626 3.953 7.56 6.865 1.933 2.914 2.9 6.699 2.9 11.358 0 3.995-1.095 7.551-3.279 10.67-2.183 3.122-5.04 5.555-8.568 7.303 4.79 1.416 8.568 4.015 11.342 7.8 2.772 3.788 4.16 8.22 4.16 13.293 0 5.325-.928 9.758-2.775 13.294s-4.345 6.364-7.498 8.486c-3.15 2.122-6.866 3.64-11.152 4.555-4.283.918-8.822 1.373-13.612 1.373h-43.225v-89.115zm147.825 89.398h-20.814v-8.96h-.251c-2.019 3.366-4.901 6.015-8.642 7.949-3.743 1.935-7.505 2.902-11.29 2.902-4.711 0-8.622-.65-11.732-1.954-3.111-1.304-5.593-3.176-7.443-5.618-1.849-2.438-3.154-5.382-3.909-8.833-.759-3.449-1.136-7.321-1.136-11.61v-39.376h21.444v37.988c0 4.375.904 7.426 2.714 9.148 1.807 1.727 4.433 2.586 7.883 2.586 1.177 0 2.439-.208 3.783-.629 1.346-.42 2.607-1.198 3.786-2.334 1.176-1.137 2.166-2.63 2.964-4.482.798-1.849 1.199-4.247 1.199-7.192v-35.085h21.444zm10.87-.283h19.564v-64.788h-19.565v64.788zm0-72.902h19.564v-16.228h-19.565v16.228zm30.434 72.902h19.566v-89.13h-19.566zm60.346-50.303c-2.418 0-4.46.521-6.127 1.566-1.668 1.045-3 2.4-4.001 4.07-1 1.671-1.73 3.529-2.188 5.573a28.298 28.298 0 0 0 -.688 6.2c0 2.255.23 4.49.688 6.7.458 2.215 1.189 4.219 2.188 6.013 1.001 1.796 2.333 3.257 4.001 4.383 1.667 1.126 3.71 1.691 6.127 1.691 2.584 0 4.688-.565 6.315-1.691a12.458 12.458 0 0 0 3.875-4.32c.956-1.753 1.603-3.696 1.939-5.824.331-2.131.498-4.237.498-6.325 0-2.338-.229-4.592-.687-6.764-.458-2.171-1.188-4.09-2.188-5.76-1-1.671-2.294-3.008-3.876-4.008-1.583-1.004-3.544-1.504-5.876-1.504zm33.133 50.6h-20.254v-7.515h-.252c-4.25 6.262-10.211 9.392-17.878 9.392-5.085 0-9.462-1.001-13.128-3.005-3.67-2.003-6.67-4.675-9.002-8.015-2.334-3.339-4.064-7.159-5.189-11.46-1.126-4.3-1.688-8.747-1.688-13.339 0-4.259.562-8.35 1.688-12.275 1.125-3.923 2.833-7.43 5.127-10.52a25.671 25.671 0 0 1 8.563-7.39c3.417-1.836 7.418-2.756 12.004-2.756 7.917 0 14.085 2.965 18.504 8.893h.249v-31.437h21.256zm7.521-84.349c.222 0 .431-.007.63-.022.196-.014.372-.055.527-.124a.819.819 0 0 0 .369-.312c.092-.14.137-.337.137-.59 0-.213-.04-.383-.124-.51a.836.836 0 0 0 -.316-.29 1.38 1.38 0 0 0 -.449-.138 3.65 3.65 0 0 0 -.498-.036h-1.302v2.022zm.434-2.823c.751 0 1.309.151 1.669.45.362.301.542.758.542 1.37 0 .572-.157.991-.476 1.258-.318.267-.712.425-1.184.473l1.806 2.808h-1.056l-1.72-2.736h-1.041v2.736h-.982v-6.359zm-4.459 5.013c.227.568.54 1.06.94 1.477s.872.744 1.415.983a4.38 4.38 0 0 0 1.772.356c.626 0 1.21-.119 1.75-.356a4.377 4.377 0 0 0 1.407-.983c.4-.417.714-.91.94-1.477.228-.568.34-1.186.34-1.855 0-.65-.112-1.257-.34-1.82a4.395 4.395 0 0 0 -2.348-2.437 4.284 4.284 0 0 0 -1.75-.356 4.4 4.4 0 0 0 -3.187 1.332c-.398.412-.712.9-.939 1.462a4.825 4.825 0 0 0 -.34 1.819c0 .67.114 1.287.34 1.855zm-.888-3.994a5.405 5.405 0 0 1 2.912-2.86 5.386 5.386 0 0 1 2.103-.414c.742 0 1.44.138 2.096.414a5.446 5.446 0 0 1 1.72 1.144c.492.484.88 1.056 1.17 1.716s.434 1.373.434 2.139a5.38 5.38 0 0 1 -.433 2.175 5.543 5.543 0 0 1 -1.17 1.732 5.258 5.258 0 0 1 -1.721 1.142 5.409 5.409 0 0 1 -2.096.408 5.455 5.455 0 0 1 -2.103-.408 5.311 5.311 0 0 1 -1.735-1.142 5.482 5.482 0 0 1 -1.177-1.732 5.366 5.366 0 0 1 -.434-2.175c0-.766.143-1.48.434-2.139z" fill="#1c5274"/></g></svg>