<svg width="678" height="470" viewBox="0 0 678 470" fill="none" xmlns="http://www.w3.org/2000/svg">
<g clip-path="url(#clip0_2680_1023)">
<path opacity="0.12" d="M598.33 357.35H554.96C554.55 357.35 554.18 357.56 553.96 357.9L529.66 396.23C529.54 396.42 529.48 396.64 529.48 396.86V459.55C529.22 459.21 528.93 458.9 528.61 458.64C528.35 458.43 528.18 458.1 528.19 457.76C528.2 457.23 528.14 456.7 528 456.16C527.26 453.38 524.55 451.78 521.96 452.58C521.68 452.67 521.42 452.77 521.17 452.9C520.4 453.3 519.48 452.7 519.48 451.83V337.55C519.48 337.19 519.31 336.84 519.03 336.62L458.35 288.84C457.92 288.5 457.31 288.5 456.89 288.84L396.21 336.62C395.92 336.84 395.76 337.19 395.76 337.55V359.23C395.76 360.28 394.48 360.81 393.74 360.07L372.22 338.55C372 338.33 371.87 338.03 371.87 337.71L371.85 194.34C371.85 194.34 371.85 194.27 371.85 194.24L371.56 190.87C371.51 190.26 371 189.79 370.38 189.79H340.23C339.57 189.78 339.04 189.24 339.05 188.59L339.16 175.69L339.53 125.11C339.53 124.45 339 123.92 338.35 123.92L296.99 123.9L287.39 123.98L244.79 124.27C244.14 124.27 243.61 124.8 243.61 125.46L243.68 189.43C243.68 190.08 243.16 190.61 242.51 190.62L220.23 190.88C219.58 190.88 219.06 191.42 219.06 192.06V263.18C219.06 263.83 218.54 264.36 217.88 264.36L192.83 264.38C192.17 264.38 191.64 264.92 191.65 265.58L192.11 299.2C192.11 299.57 191.94 299.93 191.64 300.16L156.87 326.68C156.58 326.9 156.41 327.24 156.4 327.61L156.07 360.37C156.07 361.02 155.54 361.54 154.89 361.54L149.35 361.56C149.08 361.56 148.82 361.47 148.61 361.31L124.26 342.13C123.79 341.76 123.11 341.8 122.68 342.23L88.1504 377.25C87.9304 377.47 87.8104 377.77 87.8104 378.08V427.82C87.8104 428.41 87.3804 428.9 86.8004 428.99C86.2604 429.07 85.7304 429.19 85.1904 429.35C80.3604 430.84 77.1304 435.41 76.8404 440.5C76.8004 441.25 76.1104 441.81 75.3804 441.61C73.4604 441.09 71.4004 441.09 69.3604 441.72C63.5004 443.52 60.0104 449.86 61.2404 456.16C60.9704 456.13 60.6904 456.12 60.4104 456.12C55.3004 456.12 51.1504 460.56 51.1504 466.04C51.1504 466.95 51.2704 467.84 51.4904 468.67C51.6304 469.2 52.1004 469.57 52.6404 469.57H87.8104H114.74H173.64H189.18H217.29H242.97H301.67H339.23V469.55H359.25V469.57H619.99C620.64 469.57 621.17 469.04 621.17 468.39V396.85C621.17 396.65 621.12 396.44 621.02 396.27L599.35 357.97C599.14 357.6 598.75 357.37 598.32 357.37L598.33 357.35Z" fill="#01654D"/>
<path d="M191.75 64.22L180.97 0.729996L169.57 64.22H191.75Z" stroke="#101727" stroke-linejoin="bevel"/>
<path d="M169.57 64.22L186.54 34.47" stroke="#101727" stroke-linejoin="bevel"/>
<path d="M191.75 64.22L174.9 34.67" stroke="#101727" stroke-linejoin="bevel"/>
<path d="M136.779 464.46L164.789 103.39" stroke="#101727" stroke-miterlimit="10"/>
<path d="M144.359 462.08H129.189V469.4H144.359V462.08Z" fill="#01654D"/>
<path d="M196.529 103.39L224.539 464.46" stroke="#101727" stroke-miterlimit="10"/>
<path d="M216.949 469.41H232.119V462.09H216.949V469.41Z" fill="#01654D"/>
<path d="M221.951 437.36H138.971L217.221 369.45L148.271 316.42L209.301 268.07L155.231 226.42L203.521 193.94L160.181 163.05L198.951 135.66L164.431 109.06" stroke="#101727" stroke-linecap="square" stroke-linejoin="bevel"/>
<path d="M222.07 437.36L144.33 369.45L213.05 316.42L152.03 268.07L206.09 226.42L157.78 193.94L201.12 163.05L162.34 135.66L196.97 109.06" stroke="#101727" stroke-linejoin="bevel"/>
<path d="M514.94 93.92H156.17V68.03H489.16L514.94 93.92Z" stroke="#101727" stroke-miterlimit="10"/>
<path d="M411.971 93.92L437.861 68.03L463.741 93.92" stroke="#101727" stroke-linejoin="bevel"/>
<path d="M463.18 93.92L489.06 68.03L514.94 93.92" stroke="#101727" stroke-linejoin="bevel"/>
<path d="M360.199 93.92L386.089 68.03L411.969 93.92" stroke="#101727" stroke-linejoin="bevel"/>
<path d="M308.439 93.92L334.319 68.03L360.199 93.92" stroke="#101727" stroke-linejoin="bevel"/>
<path d="M256.67 93.92L282.55 68.03L308.44 93.92" stroke="#101727" stroke-linejoin="bevel"/>
<path d="M204.9 93.92L230.79 68.03L256.67 93.92" stroke="#101727" stroke-linejoin="bevel"/>
<path d="M193.94 62.48H157.32C155.89 62.48 154.74 63.64 154.74 65.06V101.62C154.74 103.05 155.9 104.2 157.32 104.2H200.95C202.18 104.2 203.23 103.34 203.48 102.13L206.53 87.2C206.64 86.66 206.57 86.1 206.34 85.59L196.29 63.96C195.87 63.05 194.95 62.47 193.95 62.47L193.94 62.48Z" fill="#01654D"/>
<path d="M193.34 66.19V85.65C193.34 86.12 193.72 86.5 194.19 86.5H201.45C202.07 86.5 202.48 85.85 202.22 85.29L193.34 66.19Z" fill="#E9BE51"/>
<path d="M171.321 66.19H159.321C158.851 66.19 158.471 66.5706 158.471 67.04V85.65C158.471 86.1194 158.851 86.5 159.321 86.5H171.321C171.79 86.5 172.171 86.1194 172.171 85.65V67.04C172.171 66.5706 171.79 66.19 171.321 66.19Z" fill="#E9BE51"/>
<path d="M188.76 66.19H176.76C176.291 66.19 175.91 66.5706 175.91 67.04V85.65C175.91 86.1194 176.291 86.5 176.76 86.5H188.76C189.23 86.5 189.61 86.1194 189.61 85.65V67.04C189.61 66.5706 189.23 66.19 188.76 66.19Z" fill="#E9BE51"/>
<path d="M101.47 50.47H66.1797V105.71H101.47V50.47Z" fill="#EAE2CF" stroke="#101727" stroke-miterlimit="10"/>
<path d="M96.7195 55.13H70.9395" stroke="#101727" stroke-miterlimit="10"/>
<path d="M96.7195 60.25H70.9395" stroke="#101727" stroke-miterlimit="10"/>
<path d="M96.7195 65.38H70.9395" stroke="#101727" stroke-miterlimit="10"/>
<path d="M96.7195 70.5H70.9395" stroke="#101727" stroke-miterlimit="10"/>
<path d="M96.7195 75.63H70.9395" stroke="#101727" stroke-miterlimit="10"/>
<path d="M96.7195 85.88H70.9395" stroke="#101727" stroke-miterlimit="10"/>
<path d="M96.7195 80.76H70.9395" stroke="#101727" stroke-miterlimit="10"/>
<path d="M96.7195 91.01H70.9395" stroke="#101727" stroke-miterlimit="10"/>
<path d="M96.7195 101.26H70.9395" stroke="#101727" stroke-miterlimit="10"/>
<path d="M96.7195 96.13H70.9395" stroke="#101727" stroke-miterlimit="10"/>
<path d="M200.499 106.38H162.109C161.237 106.38 160.529 107.087 160.529 107.96V110.33C160.529 111.203 161.237 111.91 162.109 111.91H200.499C201.372 111.91 202.079 111.203 202.079 110.33V107.96C202.079 107.087 201.372 106.38 200.499 106.38Z" fill="#01654D"/>
<path d="M155.059 68.01H63.1495C61.7895 68.01 60.6895 66.91 60.6895 65.55V64.95C60.6895 63.59 61.7895 62.49 63.1495 62.49H158.849" fill="#01654D"/>
<path d="M386.09 68.03L180.97 0.729996L83.8301 50.47L180.97 0.729996" stroke="#101727" stroke-miterlimit="10"/>
<path d="M444.921 236.02L412.721 195.61" stroke="#101727" stroke-miterlimit="10"/>
<path d="M484.869 341.71L483.789 446.36L520.549 446.42L520.339 361.91L532.619 341.71H484.859H484.869Z" fill="#01654D"/>
<path d="M516.74 361.9L496.99 341.7H532.63H552.78L565.99 446.35L529.23 446.41" fill="#01654D"/>
<path d="M522.03 451.76H481.65L480.32 440.44H523.34L522.02 451.76H522.03Z" fill="#01654D"/>
<path d="M527.759 451.76H568.139L569.459 440.44H526.439L527.759 451.76Z" fill="#01654D"/>
<path d="M480.33 440.44H523.35" stroke="#101727" stroke-miterlimit="10"/>
<path d="M481.66 451.76H522.04" stroke="#101727" stroke-miterlimit="10"/>
<path d="M526.43 440.44H569.45" stroke="#101727" stroke-miterlimit="10"/>
<path d="M527.76 451.76H568.14" stroke="#101727" stroke-miterlimit="10"/>
<path d="M497.63 265.53L546.14 268.26L556.81 343.33H476.17L476.87 281.59" fill="#EAE2CF"/>
<path d="M497.63 265.53L546.14 268.26L556.81 343.33H476.23L476.86 281.59" stroke="#101727" stroke-miterlimit="10"/>
<path d="M512.54 285.43C511.64 285.43 510.9 284.7 510.9 283.79C510.9 282.88 511.63 282.15 512.54 282.15C513.45 282.15 514.18 282.88 514.18 283.79C514.18 284.69 513.45 285.43 512.54 285.43Z" stroke="#101727" stroke-miterlimit="10"/>
<path d="M505.66 295.28C505.71 295.14 509.55 275.89 509.55 275.89" stroke="#101727" stroke-miterlimit="10"/>
<path d="M521.36 287.14C521.36 287.14 517.28 275.9 509.56 275.9C501.84 275.9 496.07 283.79 496.07 283.79L498.89 269.93" stroke="#101727" stroke-miterlimit="10"/>
<path d="M490.611 304.19H470.171C468.041 304.19 466.311 305.92 466.311 308.05C466.311 310.18 468.041 311.91 470.171 311.91H490.611" fill="#EAE2CF"/>
<path d="M490.611 304.19H470.171C468.041 304.19 466.311 305.92 466.311 308.05C466.311 310.18 468.041 311.91 470.171 311.91H490.611" stroke="#101727" stroke-miterlimit="10"/>
<path d="M490.611 311.92H470.171C468.041 311.92 466.311 313.65 466.311 315.78C466.311 317.91 468.041 319.64 470.171 319.64H490.611" fill="#EAE2CF"/>
<path d="M490.611 311.92H470.171C468.041 311.92 466.311 313.65 466.311 315.78C466.311 317.91 468.041 319.64 470.171 319.64H490.611" stroke="#101727" stroke-miterlimit="10"/>
<path d="M490.611 319.64H470.171C468.041 319.64 466.311 321.37 466.311 323.5C466.311 325.63 468.041 327.36 470.171 327.36H490.611" fill="#EAE2CF"/>
<path d="M490.611 319.64H470.171C468.041 319.64 466.311 321.37 466.311 323.5C466.311 325.63 468.041 327.36 470.171 327.36H490.611" stroke="#101727" stroke-miterlimit="10"/>
<path d="M531.6 279.15C531.6 272.75 536.79 267.55 543.2 267.55C549.6 267.55 554.8 272.74 554.8 279.15V298.26H554.75C554.24 294.86 549.27 292.19 543.2 292.19C537.13 292.19 532.16 294.86 531.65 298.26H531.6V279.15Z" fill="#EAE2CF" stroke="#101727" stroke-miterlimit="10"/>
<path d="M446.421 277.59L461.741 289.03L484.311 267.6C488.741 263.17 496.801 262 501.511 267.88C505.431 272.77 504.791 279.22 500.361 283.65L471.451 312.56C467.041 316.97 460.101 317.59 454.971 314.04L419.381 285.72L435.001 269.09" fill="#EAE2CF"/>
<path d="M446.421 277.59L461.741 289.03L484.311 267.6C488.741 263.17 496.801 262 501.511 267.88C505.431 272.77 504.791 279.22 500.361 283.65L471.451 312.56C467.041 316.97 460.101 317.59 454.971 314.04L419.381 285.72L435.001 269.09" stroke="#101727" stroke-miterlimit="10"/>
<path d="M467.6 283.46C477.17 284.81 484.66 293.01 484.58 299.84" stroke="#101727" stroke-miterlimit="10"/>
<path d="M484.869 341.71L483.789 446.36L520.549 446.42L520.339 361.91L532.619 341.71H484.859H484.869Z" fill="#01654D"/>
<path d="M511.53 449L515.18 469.55H471.22C471.22 469.55 464.98 455.72 486.57 455.72C487.07 451.5 486.23 448.73 486.23 448.73L511.53 448.99V449Z" fill="#EAE2CF"/>
<path d="M511.53 449L515.18 469.55H471.22C471.22 469.55 464.98 455.72 486.57 455.72C487.07 451.5 486.23 448.73 486.23 448.73L511.53 448.99V449Z" fill="#EAE2CF"/>
<path d="M511.53 449L515.18 469.55H471.22C471.22 469.55 464.98 455.72 486.57 455.72C487.12 452.32 486.23 448.73 486.23 448.73L511.53 448.99V449Z" stroke="#101727" stroke-miterlimit="10"/>
<path d="M561.95 449L565.6 469.55H521.64C521.64 469.55 515.4 455.72 536.99 455.72C537.49 451.5 536.65 448.73 536.65 448.73L561.95 448.99V449Z" fill="#EAE2CF"/>
<path d="M561.95 449L565.6 469.55H521.64C521.64 469.55 515.4 455.72 536.99 455.72C537.49 451.5 536.65 448.73 536.65 448.73L561.95 448.99V449Z" fill="#EAE2CF"/>
<path d="M561.95 449L565.6 469.55H521.64C521.64 469.55 515.4 455.72 536.99 455.72C537.54 452.32 536.65 448.73 536.65 448.73L561.95 448.99V449Z" stroke="#101727" stroke-miterlimit="10"/>
<path d="M517.829 451.76H477.449L476.119 440.44H519.139L517.819 451.76H517.829Z" fill="#01654D"/>
<path d="M527.759 451.76H568.139L569.459 440.44H526.439L527.759 451.76Z" fill="#01654D"/>
<path d="M476.131 440.44H523.351" stroke="#101727" stroke-miterlimit="10"/>
<path d="M477.449 451.76H522.029" stroke="#101727" stroke-miterlimit="10"/>
<path d="M526.43 440.44H569.45" stroke="#101727" stroke-miterlimit="10"/>
<path d="M527.76 451.76H568.14" stroke="#101727" stroke-miterlimit="10"/>
<path d="M497.63 265.53L546.14 268.26L556.81 343.33H476.17L476.87 281.59" fill="#EAE2CF"/>
<path d="M476.86 281.59L476.23 343.33L557.17 343.81L546.14 268.26L498.89 265.53" stroke="#101727" stroke-miterlimit="10"/>
<path d="M503.64 285.43C502.74 285.43 502 284.7 502 283.79C502 282.88 502.73 282.15 503.64 282.15C504.55 282.15 505.28 282.88 505.28 283.79C505.28 284.69 504.55 285.43 503.64 285.43Z" stroke="#101727" stroke-miterlimit="10"/>
<path d="M508.211 296.15C508.261 296.01 509.551 275.89 509.551 275.89" stroke="#101727" stroke-miterlimit="10"/>
<path d="M532.11 267.34L521.36 287.13C521.36 287.13 517.28 275.89 509.56 275.89C501.84 275.89 496.07 283.78 496.07 283.78L498.99 265.53" stroke="#101727" stroke-miterlimit="10"/>
<path d="M490.611 319.64H470.171C468.041 319.64 466.311 321.37 466.311 323.5C466.311 325.63 468.041 327.36 470.171 327.36H490.611" fill="#EAE2CF"/>
<path d="M490.611 319.64H470.171C468.041 319.64 466.311 321.37 466.311 323.5C466.311 325.63 468.041 327.36 470.171 327.36H490.611" stroke="#101727" stroke-miterlimit="10"/>
<path d="M463.961 288.41L464.731 289.02L463.961 288.41Z" fill="#EAE2CF"/>
<path d="M432.18 276.42L416.74 264.31C415.09 263.02 412.7 263.3 411.41 264.96C410.12 266.61 410.4 269 412.06 270.29L427.5 282.4" fill="#EAE2CF"/>
<path d="M432.18 276.42L416.74 264.31C415.09 263.02 412.7 263.3 411.41 264.96C410.12 266.61 410.4 269 412.06 270.29L427.5 282.4" stroke="#101727" stroke-miterlimit="10"/>
<path d="M436.77 270.46L421.33 258.35C419.68 257.06 417.29 257.34 416 259C414.71 260.65 414.99 263.04 416.65 264.33L432.09 276.44" fill="#EAE2CF"/>
<path d="M436.77 270.46L421.33 258.35C419.68 257.06 417.29 257.34 416 259C414.71 260.65 414.99 263.04 416.65 264.33L432.09 276.44" stroke="#101727" stroke-miterlimit="10"/>
<path d="M436.771 270.46L434.111 261.9C433.501 259.89 434.631 257.77 436.641 257.16C438.651 256.55 440.771 257.68 441.381 259.69L446.481 277.68" fill="#EAE2CF"/>
<path d="M436.771 270.46L434.111 261.9C433.501 259.89 434.631 257.77 436.641 257.16C438.651 256.55 440.771 257.68 441.381 259.69L446.481 277.68" stroke="#101727" stroke-miterlimit="10"/>
<path d="M427.331 282.31L411.891 270.2C410.241 268.91 407.851 269.19 406.561 270.85C405.271 272.5 405.551 274.89 407.211 276.18L422.651 288.29" fill="#EAE2CF"/>
<path d="M427.331 282.31L411.891 270.2C410.241 268.91 407.851 269.19 406.561 270.85C405.271 272.5 405.551 274.89 407.211 276.18L422.651 288.29" stroke="#101727" stroke-miterlimit="10"/>
<path d="M498.961 220.17C488.931 239.05 493.691 252.03 495.481 256.92L495.571 257.17C496.301 259.18 497.981 260.58 499.931 261.03C500.841 261.24 501.811 261.24 502.781 261L502.991 260.95C508.031 259.71 521.411 256.41 531.511 237.51L498.961 220.17Z" fill="#EAE2CF" stroke="#101727" stroke-miterlimit="10"/>
<path d="M531.041 206.58L524.891 203.31C517.601 199.43 508.541 202.2 504.661 209.48L498.961 220.19L531.521 237.52L537.221 226.81C541.101 219.52 538.331 210.46 531.041 206.58Z" fill="#E9BE51"/>
<path d="M531.521 237.5L490.381 215.61C489.601 215.19 489.311 214.23 489.721 213.45C490.141 212.67 491.101 212.38 491.881 212.79L509.321 222.07" fill="#E9BE51"/>
<path d="M531.521 237.5L490.381 215.61C489.601 215.19 489.311 214.23 489.721 213.45C490.141 212.67 491.101 212.38 491.881 212.79L509.321 222.07" stroke="#101727" stroke-miterlimit="10"/>
<path d="M531.521 237.5C536.111 236.84 539.051 242.46 535.801 245.81C532.741 248.96 528.081 247.48 525.381 246.45L532.111 267.34L509.561 275.89L498.961 265.73L499.941 261.03L525.381 246.45" fill="#EAE2CF"/>
<path d="M531.521 237.5C536.111 236.84 539.051 242.46 535.801 245.81C532.741 248.96 528.081 247.48 525.381 246.45M525.381 246.45L532.111 267.34L509.561 275.89L498.961 265.73L499.941 261.03L525.381 246.45Z" stroke="#101727" stroke-miterlimit="10"/>
<path d="M509.741 230.19C507.711 234.05 504.031 237.2 499.501 238.43C496.741 239.18 499.891 242.21 504.521 240.07" stroke="#101727" stroke-miterlimit="10"/>
<path d="M510.331 245.82C518.491 245.44 521.881 240.45 525.641 234.39L531.511 237.52C521.421 256.42 508.041 259.72 502.991 260.96L502.781 261.01C501.811 261.25 500.841 261.25 499.931 261.04C497.981 260.59 496.301 259.19 495.571 257.18L495.481 256.93C494.271 253.63 491.711 246.63 493.271 236.62C497.121 242.15 503.311 246.16 510.341 245.83L510.331 245.82Z" fill="#101727"/>
<path d="M511.111 237.65C510.231 237.45 509.681 236.57 509.881 235.69C510.081 234.81 510.961 234.26 511.841 234.46C512.721 234.66 513.271 235.54 513.071 236.42C512.871 237.3 511.991 237.85 511.111 237.65Z" stroke="#101727" stroke-miterlimit="10"/>
<path d="M499.939 233.38C499.059 233.18 498.509 232.3 498.709 231.42C498.909 230.54 499.789 229.99 500.669 230.19C501.549 230.39 502.099 231.27 501.899 232.15C501.699 233.03 500.819 233.58 499.939 233.38Z" stroke="#101727" stroke-miterlimit="10"/>
<path d="M512.961 231.45C514.611 232.11 515.701 233.34 516.121 234.69" stroke="#101727" stroke-miterlimit="10"/>
<path d="M502.01 226.63C500.4 225.89 498.76 225.94 497.48 226.56" stroke="#101727" stroke-miterlimit="10"/>
<path d="M512.47 206.09L510.43 206.96L512.63 212.14L514.67 211.27L512.47 206.09Z" fill="#01654D"/>
<path d="M515.92 210.78C517.02 213.89 516.41 215.95 515.92 217.09C514.76 216.65 512.85 215.64 511.37 212.63C511.28 212.65 511.18 212.66 511.09 212.68C510.37 212.78 509.67 212.81 509.01 212.79C511.15 217.81 514.47 218.94 515.72 219.37L515.77 219.39C516.01 219.47 516.26 219.49 516.49 219.46C516.99 219.39 517.45 219.07 517.68 218.58L517.71 218.52C518.27 217.32 519.77 214.14 517.64 209.13C517.15 209.74 516.58 210.31 515.91 210.79L515.92 210.78Z" fill="white"/>
<path d="M531.039 206.58C526.499 205.24 523.02 207.01 523.02 207.01" stroke="#101727"/>
<path d="M505.66 304.19H527.71C529.86 304.18 531.6 302.44 531.6 300.28V283.07H554.79V308.99C554.79 319.07 546.67 327.25 536.62 327.36H536.41H531.59H490.6" fill="#EAE2CF"/>
<path d="M505.66 304.19H527.71C529.86 304.18 531.6 302.44 531.6 300.28V283.07H554.79V308.99C554.79 319.07 546.67 327.25 536.62 327.36H536.41H531.59H490.6" stroke="#101727" stroke-miterlimit="10"/>
<path d="M490.611 311.92H470.171C468.041 311.92 466.311 313.65 466.311 315.78C466.311 317.91 468.041 319.64 470.171 319.64H490.611" fill="#EAE2CF"/>
<path d="M490.611 311.92H470.171C468.041 311.92 466.311 313.65 466.311 315.78C466.311 317.91 468.041 319.64 470.171 319.64H490.611" stroke="#101727" stroke-miterlimit="10"/>
<path d="M531.6 279.15C531.6 272.75 536.79 267.55 543.2 267.55C549.6 267.55 554.8 272.74 554.8 279.15V298.26H554.75C554.24 294.86 549.27 292.19 543.2 292.19C537.13 292.19 532.16 294.86 531.65 298.26H531.6V279.15Z" fill="#EAE2CF" stroke="#101727" stroke-miterlimit="10"/>
<path d="M486.17 304.19C486.17 302.06 487.9 300.33 490.03 300.33H501.8C503.93 300.33 505.66 302.06 505.66 304.19V304.67" fill="#EAE2CF"/>
<path d="M486.17 304.19C486.17 302.06 487.9 300.33 490.03 300.33H501.8C503.93 300.33 505.66 302.06 505.66 304.19V304.67" stroke="#101727" stroke-miterlimit="10"/>
<path d="M490.611 304.19H470.171C468.041 304.19 466.311 305.92 466.311 308.05C466.311 310.18 468.041 311.91 470.171 311.91H490.611" fill="#EAE2CF"/>
<path d="M490.611 304.19H470.171C468.041 304.19 466.311 305.92 466.311 308.05C466.311 310.18 468.041 311.91 470.171 311.91H490.611" stroke="#101727" stroke-miterlimit="10"/>
<path d="M507.57 250.51C504.78 251.63 499.51 250.57 498.08 247.3" stroke="#EAE2CF" stroke-miterlimit="10"/>
<path d="M413.15 102.56C416.359 102.56 418.96 99.9588 418.96 96.75C418.96 93.5412 416.359 90.94 413.15 90.94C409.941 90.94 407.34 93.5412 407.34 96.75C407.34 99.9588 409.941 102.56 413.15 102.56Z" fill="#E9BE51"/>
<path d="M398.57 140.83H427.73V155.41C427.73 163.46 421.2 169.99 413.15 169.99C405.1 169.99 398.57 163.46 398.57 155.41V140.83Z" fill="#01654D"/>
<path d="M413.15 102.56V140.9" stroke="#101727" stroke-miterlimit="10"/>
<path d="M416.179 174.47V169.68C415.199 169.89 414.189 170 413.159 170C412.119 170 411.109 169.89 410.139 169.68V180.18H413.159C417.379 180.18 420.819 183.62 420.819 187.84C420.819 192.06 417.379 195.5 413.159 195.5C408.939 195.5 405.499 192.06 405.499 187.84H399.449C399.449 195.4 405.599 201.55 413.159 201.55C420.719 201.55 426.869 195.4 426.869 187.84C426.869 181.32 422.289 175.85 416.179 174.47Z" fill="#E9BE51"/>
<path d="M381.24 236.02L413.45 195.61" stroke="#101727" stroke-miterlimit="10"/>
<path d="M447.75 232.54H378.49V321.72H447.75V232.54Z" fill="white" stroke="#101727" stroke-miterlimit="3"/>
<path d="M387.92 274.21H438.32" stroke="#101727" stroke-miterlimit="10"/>
<path d="M387.92 280.55H438.32" stroke="#101727" stroke-miterlimit="10"/>
<path d="M387.92 293.23H438.32" stroke="#101727" stroke-miterlimit="10"/>
<path d="M387.92 286.89H438.32" stroke="#101727" stroke-miterlimit="10"/>
<path d="M387.92 300.14H438.32" stroke="#101727" stroke-miterlimit="10"/>
<path d="M387.92 306.48H438.32" stroke="#101727" stroke-miterlimit="10"/>
<path d="M387.92 312.82H438.32" stroke="#101727" stroke-miterlimit="10"/>
<path d="M419.44 228.56C419.44 228.48 419.45 228.41 419.45 228.33C419.45 224.85 416.63 222.03 413.15 222.03C409.67 222.03 406.85 224.85 406.85 228.33C406.85 228.41 406.85 228.48 406.86 228.56H395.16V241.92H431.12V228.56H419.42H419.44Z" fill="#849465"/>
<path d="M413.81 266.43C418.532 266.43 422.36 262.602 422.36 257.88C422.36 253.158 418.532 249.33 413.81 249.33C409.088 249.33 405.26 253.158 405.26 257.88C405.26 262.602 409.088 266.43 413.81 266.43Z" fill="#E9BE51"/>
<path d="M408.961 257.23L414.111 261.53L418.661 254.24" stroke="#101727" stroke-miterlimit="10"/>
<path d="M503.14 293.76C502.24 293.76 501.5 293.03 501.5 292.12C501.5 291.22 502.23 290.48 503.14 290.48C504.04 290.48 504.78 291.21 504.78 292.12C504.78 293.03 504.05 293.76 503.14 293.76Z" stroke="#101727" stroke-miterlimit="10"/>
<path d="M-0.869141 469.55H568.571H617.651H681.741" stroke="#101727" stroke-miterlimit="10"/>
</g>
<defs>
<clipPath id="clip0_2680_1023">
<rect width="678" height="470" fill="white"/>
</clipPath>
</defs>
</svg>
