<svg width="725" height="675" viewBox="0 0 725 675" fill="none" xmlns="http://www.w3.org/2000/svg">
<g clip-path="url(#clip0_2497_5)">
<path d="M670.211 542.12H617.811L588.711 588.02V661.87C588.271 661.28 587.741 660.79 587.151 660.41C587.251 659.59 587.211 658.74 586.981 657.9C586.111 654.65 582.941 652.77 579.901 653.7C578.701 654.07 577.711 654.82 576.991 655.8V518.25L504.501 461.17L432.011 518.25V623.53C431.531 623.62 431.051 623.74 430.571 623.89C423.971 625.92 419.791 632.62 420.261 639.68C417.411 638.46 414.181 638.2 411.011 639.18C408.181 640.05 405.791 641.79 404.031 644.04L403.991 351.06L403.541 345.78H365.541L365.681 329.26L366.121 268.6L316.261 268.57L305.011 268.66L253.711 269.01L253.801 346.72L224.951 347.06V433.15L192.811 433.17L193.371 474.66L151.541 506.57L151.131 547L142.791 547.04L112.901 523.5L71.1707 565.82V625.92C70.1507 625.97 69.1207 626.15 68.1007 626.47C61.8407 628.4 57.8807 634.74 58.3307 641.44C55.6307 640.28 52.5707 640.04 49.5607 640.97C42.6907 643.08 38.6007 650.51 40.0407 657.89C39.7207 657.86 39.4007 657.84 39.0707 657.84C33.0807 657.84 28.2207 663.05 28.2207 669.47C28.2207 670.93 28.4807 672.32 28.9407 673.61H171.751H189.961H222.901H252.991H321.771H365.781V673.58H389.241C389.241 673.58 389.241 673.6 389.241 673.61H696.151V588.03L670.171 542.13L670.211 542.12Z" fill="#E0E9E6"/>
<path d="M185.79 101.89L170.54 12.13L154.43 101.89H185.79Z" stroke="black" stroke-miterlimit="10"/>
<path d="M154.43 101.89L178.42 59.82" stroke="black" stroke-linejoin="bevel"/>
<path d="M185.791 101.89L161.971 60.11" stroke="black" stroke-linejoin="bevel"/>
<path d="M4.03906 673.6H604.679H656.449H724.039" stroke="#101727" stroke-miterlimit="10"/>
<path d="M108.07 666.6L147.68 156.14" stroke="black" stroke-miterlimit="10"/>
<path d="M118.79 666.6H97.3496V673.6H118.79V666.6Z" fill="#01654D" stroke="black" stroke-miterlimit="10"/>
<path d="M192.539 156.14L232.149 666.6" stroke="black" stroke-miterlimit="10"/>
<path d="M221.425 673.595H242.865V666.595H221.425V673.595Z" fill="#01654D" stroke="black" stroke-miterlimit="10"/>
<path d="M228.49 628.29H111.17L221.79 532.28L124.31 457.31L210.6 388.96L134.15 330.07L202.42 284.15L141.16 240.48L195.97 201.76L147.16 164.15" stroke="black" stroke-linecap="square" stroke-linejoin="bevel"/>
<path d="M228.65 628.29L118.75 532.28L215.9 457.31L129.63 388.96L206.07 330.07L137.77 284.15L199.04 240.48L144.2 201.76L193.16 164.15" stroke="black" stroke-linejoin="bevel"/>
<path d="M642.711 143.87H133.461V107.28H606.111L642.711 143.87Z" stroke="black" stroke-miterlimit="10"/>
<path d="M497.131 143.87L533.721 107.28L570.321 143.87" stroke="black" stroke-linejoin="bevel"/>
<path d="M569.52 143.87L606.109 107.28L642.71 143.87" stroke="black" stroke-linejoin="bevel"/>
<path d="M423.939 143.87L460.539 107.28L497.129 143.87" stroke="black" stroke-linejoin="bevel"/>
<path d="M350.76 143.87L387.35 107.28L423.94 143.87" stroke="black" stroke-linejoin="bevel"/>
<path d="M277.57 143.87L314.16 107.28L350.76 143.87" stroke="black" stroke-linejoin="bevel"/>
<path d="M204.381 143.87L240.971 107.28L277.571 143.87" stroke="black" stroke-linejoin="bevel"/>
<path d="M188.891 99.43H137.111C135.091 99.43 133.461 101.06 133.461 103.08V154.76C133.461 156.78 135.091 158.41 137.111 158.41H198.791C200.521 158.41 202.021 157.19 202.371 155.49L206.681 134.39C206.841 133.62 206.741 132.83 206.411 132.12L192.201 101.54C191.601 100.25 190.311 99.43 188.891 99.43Z" fill="#01654D" stroke="black" stroke-miterlimit="10"/>
<path d="M188.039 104.67V132.18C188.039 132.84 188.579 133.38 189.239 133.38H199.509C200.389 133.38 200.969 132.47 200.599 131.67L188.049 104.66L188.039 104.67Z" fill="#E9BE51"/>
<path d="M156.91 104.67H139.94C139.277 104.67 138.74 105.207 138.74 105.87V132.19C138.74 132.853 139.277 133.39 139.94 133.39H156.91C157.573 133.39 158.11 132.853 158.11 132.19V105.87C158.11 105.207 157.573 104.67 156.91 104.67Z" fill="#E9BE51"/>
<path d="M181.561 104.67H164.591C163.928 104.67 163.391 105.207 163.391 105.87V132.19C163.391 132.853 163.928 133.39 164.591 133.39H181.561C182.223 133.39 182.761 132.853 182.761 132.19V105.87C182.761 105.207 182.223 104.67 181.561 104.67Z" fill="#E9BE51"/>
<path d="M53.5804 87.13H7.15039V159.8H53.5804V87.13Z" fill="#EAE2CF" stroke="black" stroke-miterlimit="10"/>
<path d="M47.3202 93.26H13.4102" stroke="black" stroke-miterlimit="10"/>
<path d="M47.3202 100H13.4102" stroke="black" stroke-miterlimit="10"/>
<path d="M47.3202 106.74H13.4102" stroke="black" stroke-miterlimit="10"/>
<path d="M47.3202 113.49H13.4102" stroke="black" stroke-miterlimit="10"/>
<path d="M47.3202 120.23H13.4102" stroke="black" stroke-miterlimit="10"/>
<path d="M47.3202 133.72H13.4102" stroke="black" stroke-miterlimit="10"/>
<path d="M47.3202 126.97H13.4102" stroke="black" stroke-miterlimit="10"/>
<path d="M47.3202 140.46H13.4102" stroke="black" stroke-miterlimit="10"/>
<path d="M47.3202 153.94H13.4102" stroke="black" stroke-miterlimit="10"/>
<path d="M47.3202 147.2H13.4102" stroke="black" stroke-miterlimit="10"/>
<path d="M198.15 161.5H143.89C142.653 161.5 141.65 162.503 141.65 163.74V167.07C141.65 168.307 142.653 169.31 143.89 169.31H198.15C199.388 169.31 200.39 168.307 200.39 167.07V163.74C200.39 162.503 199.388 161.5 198.15 161.5Z" fill="#01654D"/>
<path d="M133.91 107.25H3.98C2.06 107.25 0.5 105.69 0.5 103.77V102.92C0.5 101 2.06 99.44 3.98 99.44H139.28" fill="#01654D"/>
<path d="M133.91 107.25H3.98C2.06 107.25 0.5 105.69 0.5 103.77V102.92C0.5 101 2.06 99.44 3.98 99.44H139.28" stroke="black" stroke-miterlimit="10"/>
<path d="M170.539 12.13L30.3594 87.13" stroke="black" stroke-miterlimit="10"/>
<path d="M460.539 107.28L170.539 12.13" stroke="black" stroke-miterlimit="10"/>
<path d="M170.54 23.76C176.963 23.76 182.17 18.5531 182.17 12.13C182.17 5.70693 176.963 0.5 170.54 0.5C164.117 0.5 158.91 5.70693 158.91 12.13C158.91 18.5531 164.117 23.76 170.54 23.76Z" fill="#E9BE51" stroke="black" stroke-miterlimit="10"/>
<path d="M469.911 344.1L424.381 286.97" stroke="black" stroke-miterlimit="10"/>
<path d="M513.141 496.21L511.641 641.78L562.781 641.86L562.491 524.3L579.581 496.21H513.141Z" fill="#01654D"/>
<path d="M579.58 496.21H607.61L625.98 641.78L574.84 641.86L557.47 524.3L530 496.21H579.57H579.58Z" fill="#01654D"/>
<path d="M564.83 649.3H508.67L506.83 633.55H566.68L564.84 649.3H564.83Z" fill="#01654D"/>
<path d="M572.789 649.3H628.949L630.789 633.55H570.939L572.779 649.3H572.789Z" fill="#01654D"/>
<path d="M506.82 633.56H566.67" stroke="#101727" stroke-miterlimit="10"/>
<path d="M508.66 649.3H564.82" stroke="#101727" stroke-miterlimit="10"/>
<path d="M570.949 633.56H630.799" stroke="#101727" stroke-miterlimit="10"/>
<path d="M572.789 649.3H628.949" stroke="#101727" stroke-miterlimit="10"/>
<path d="M530.88 390.25L598.36 394.05L613.2 498.48H501.02L501.99 412.59" fill="#EAE2CF"/>
<path d="M530.879 390.25L598.359 394.05L613.199 498.48H501.109L501.989 412.59" stroke="#101727" stroke-miterlimit="10"/>
<path d="M551.63 417.92C550.37 417.92 549.35 416.9 549.35 415.64C549.35 414.38 550.37 413.36 551.63 413.36C552.89 413.36 553.91 414.38 553.91 415.64C553.91 416.9 552.89 417.92 551.63 417.92Z" stroke="#101727" stroke-miterlimit="10"/>
<path d="M549.299 428.58C548.039 428.58 547.02 427.56 547.02 426.3C547.02 425.04 548.039 424.02 549.299 424.02C550.559 424.02 551.58 425.04 551.58 426.3C551.58 427.56 550.559 428.58 549.299 428.58Z" stroke="#101727" stroke-miterlimit="10"/>
<path d="M542.061 431.63C542.121 431.44 547.471 404.66 547.471 404.66" stroke="#101727" stroke-miterlimit="10"/>
<path d="M563.891 420.3C563.891 420.3 558.211 404.66 547.471 404.66C536.731 404.66 528.711 415.64 528.711 415.64L532.631 396.36" stroke="#101727" stroke-miterlimit="10"/>
<path d="M521.12 444H531.07L530.72 437.99H533.69H536.44C539.41 437.99 541.81 440.4 541.81 443.36C541.81 443.58 541.79 443.79 541.77 444H572.72C575.71 444 578.14 441.57 578.14 438.58V414.64H610.4V450.69C610.4 464.71 599.11 476.09 585.12 476.25H584.83H578.13H521.1" fill="#EAE2CF"/>
<path d="M521.12 444H531.07L530.72 437.99H533.69H536.44C539.41 437.99 541.81 440.4 541.81 443.36C541.81 443.58 541.79 443.79 541.77 444H572.72C575.71 444 578.14 441.57 578.14 438.58V414.64H610.4V450.69C610.4 464.71 599.11 476.09 585.12 476.25H584.83H578.13H521.1" stroke="#101727" stroke-miterlimit="10"/>
<path d="M521.12 444.02H492.69C489.72 444.02 487.32 446.43 487.32 449.39C487.32 452.36 489.73 454.76 492.69 454.76H521.12" fill="#EAE2CF"/>
<path d="M521.12 444.02H492.69C489.72 444.02 487.32 446.43 487.32 449.39C487.32 452.36 489.73 454.76 492.69 454.76H521.12" stroke="#101727" stroke-miterlimit="10"/>
<path d="M521.12 454.77H492.69C489.72 454.77 487.32 457.18 487.32 460.14C487.32 463.11 489.73 465.51 492.69 465.51H521.12" fill="#EAE2CF"/>
<path d="M521.12 454.77H492.69C489.72 454.77 487.32 457.18 487.32 460.14C487.32 463.11 489.73 465.51 492.69 465.51H521.12" stroke="#101727" stroke-miterlimit="10"/>
<path d="M521.12 465.52H492.69C489.72 465.52 487.32 467.93 487.32 470.89C487.32 473.86 489.73 476.26 492.69 476.26H521.12" fill="#EAE2CF"/>
<path d="M521.12 465.52H492.69C489.72 465.52 487.32 467.93 487.32 470.89C487.32 473.86 489.73 476.26 492.69 476.26H521.12" stroke="#101727" stroke-miterlimit="10"/>
<path d="M578.141 409.18C578.141 400.27 585.361 393.05 594.271 393.05C603.181 393.05 610.401 400.27 610.401 409.18V435.76H610.341C609.631 431.03 602.711 427.32 594.271 427.32C585.831 427.32 578.911 431.03 578.201 435.76H578.141V409.18Z" fill="#EAE2CF" stroke="#101727" stroke-miterlimit="10"/>
<path d="M459.639 407.01L480.959 422.92L512.349 393.1C518.509 386.94 529.729 385.31 536.279 393.49C541.729 400.3 540.839 409.26 534.679 415.42L494.469 455.63C488.339 461.76 478.689 462.63 471.549 457.68L422.039 418.29L443.769 395.15" fill="#EAE2CF"/>
<path d="M459.639 407.01L480.959 422.92L512.349 393.1C518.509 386.94 529.729 385.31 536.279 393.49C541.729 400.3 540.839 409.26 534.679 415.42L494.469 455.63C488.339 461.76 478.689 462.63 471.549 457.68L422.039 418.29L443.769 395.15" stroke="#101727" stroke-miterlimit="10"/>
<path d="M489.109 415.18C502.419 417.06 512.839 428.46 512.719 437.96" stroke="#101727" stroke-miterlimit="10"/>
<path d="M513.141 496.21L511.641 641.78L562.781 641.86L562.491 524.3L579.581 496.21H513.141Z" fill="#01654D"/>
<path d="M579.58 496.21H607.61L625.98 641.78L574.84 641.86L557.47 524.3L530 496.21H579.57H579.58Z" fill="#01654D"/>
<path d="M550.219 645.46L555.289 674.05H494.139C494.139 674.05 485.459 654.82 515.489 654.82C516.179 648.95 515.019 645.09 515.019 645.09L550.209 645.46H550.219Z" fill="#EAE2CF"/>
<path d="M550.219 645.46L555.289 674.05H494.139C494.139 674.05 485.459 654.82 515.489 654.82C516.179 648.95 515.019 645.09 515.019 645.09L550.209 645.46H550.219Z" fill="#EAE2CF"/>
<path d="M550.219 645.46L555.289 674.05H494.139C494.139 674.05 485.459 654.82 515.489 654.82C516.259 650.09 515.019 645.09 515.019 645.09L550.209 645.46H550.219Z" stroke="#101727" stroke-miterlimit="10"/>
<path d="M620.36 645.46L625.43 674.05H564.28C564.28 674.05 555.6 654.82 585.63 654.82C586.32 648.95 585.16 645.09 585.16 645.09L620.35 645.46H620.36Z" fill="#EAE2CF"/>
<path d="M620.36 645.46L625.43 674.05H564.28C564.28 674.05 555.6 654.82 585.63 654.82C586.32 648.95 585.16 645.09 585.16 645.09L620.35 645.46H620.36Z" fill="#EAE2CF"/>
<path d="M620.36 645.46L625.43 674.05H564.28C564.28 674.05 555.6 654.82 585.63 654.82C586.4 650.09 585.16 645.09 585.16 645.09L620.35 645.46H620.36Z" stroke="#101727" stroke-miterlimit="10"/>
<path d="M564.83 649.3H508.67L506.83 633.55H566.68L564.84 649.3H564.83Z" fill="#01654D"/>
<path d="M572.789 649.3H628.949L630.789 633.55H570.939L572.779 649.3H572.789Z" fill="#01654D"/>
<path d="M506.82 633.56H566.67" stroke="#101727" stroke-miterlimit="10"/>
<path d="M508.66 649.3H564.82" stroke="#101727" stroke-miterlimit="10"/>
<path d="M570.949 633.56H630.799" stroke="#101727" stroke-miterlimit="10"/>
<path d="M572.789 649.3H628.949" stroke="#101727" stroke-miterlimit="10"/>
<path d="M530.88 390.25L598.36 394.05L613.2 498.48H501.02L501.99 412.59" fill="#EAE2CF"/>
<path d="M501.989 412.58L501.109 498.47H613.199L598.359 394.04L532.629 390.24" stroke="#101727" stroke-miterlimit="10"/>
<path d="M551.63 417.92C550.37 417.92 549.35 416.9 549.35 415.64C549.35 414.38 550.37 413.36 551.63 413.36C552.89 413.36 553.91 414.38 553.91 415.64C553.91 416.9 552.89 417.92 551.63 417.92Z" stroke="#101727" stroke-miterlimit="10"/>
<path d="M545.609 432.84C545.669 432.65 547.469 404.66 547.469 404.66" stroke="#101727" stroke-miterlimit="10"/>
<path d="M578.851 392.76L563.891 420.3C563.891 420.3 558.211 404.66 547.471 404.66C536.731 404.66 528.711 415.64 528.711 415.64L532.771 390.25" stroke="#101727" stroke-miterlimit="10"/>
<path d="M521.12 465.52H492.69C489.72 465.52 487.32 467.93 487.32 470.89C487.32 473.86 489.73 476.26 492.69 476.26H521.12" fill="#EAE2CF"/>
<path d="M521.12 465.52H492.69C489.72 465.52 487.32 467.93 487.32 470.89C487.32 473.86 489.73 476.26 492.69 476.26H521.12" stroke="#101727" stroke-miterlimit="10"/>
<path d="M484.039 422.07L485.119 422.92L484.039 422.07Z" fill="#EAE2CF"/>
<path d="M439.84 405.39L418.36 388.55C416.06 386.75 412.74 387.15 410.94 389.45C409.14 391.75 409.54 395.07 411.84 396.87L433.32 413.71" fill="#EAE2CF"/>
<path d="M439.84 405.39L418.36 388.55C416.06 386.75 412.74 387.15 410.94 389.45C409.14 391.75 409.54 395.07 411.84 396.87L433.32 413.71" stroke="#101727" stroke-miterlimit="10"/>
<path d="M446.219 397.1L424.739 380.26C422.439 378.46 419.119 378.86 417.319 381.16C415.519 383.46 415.919 386.78 418.219 388.58L439.699 405.42" fill="#EAE2CF"/>
<path d="M446.219 397.1L424.739 380.26C422.439 378.46 419.119 378.86 417.319 381.16C415.519 383.46 415.919 386.78 418.219 388.58L439.699 405.42" stroke="#101727" stroke-miterlimit="10"/>
<path d="M446.219 397.1L442.519 385.19C441.669 382.4 443.249 379.44 446.039 378.6C448.829 377.75 451.789 379.33 452.629 382.12L459.719 407.14" fill="#EAE2CF"/>
<path d="M446.219 397.1L442.519 385.19C441.669 382.4 443.249 379.44 446.039 378.6C448.829 377.75 451.789 379.33 452.629 382.12L459.719 407.14" stroke="#101727" stroke-miterlimit="10"/>
<path d="M433.09 413.58L411.61 396.74C409.31 394.94 405.99 395.34 404.19 397.64C402.39 399.94 402.79 403.26 405.09 405.06L426.57 421.9" fill="#EAE2CF"/>
<path d="M433.09 413.58L411.61 396.74C409.31 394.94 405.99 395.34 404.19 397.64C402.39 399.94 402.79 403.26 405.09 405.06L426.57 421.9" stroke="#101727" stroke-miterlimit="10"/>
<path d="M532.73 327.15C518.78 353.41 525.4 371.47 527.89 378.27L528.02 378.62C529.04 381.41 531.37 383.36 534.09 383.99C535.36 384.28 536.71 384.29 538.06 383.95L538.35 383.88C545.37 382.15 563.98 377.57 578.02 351.28L532.74 327.15H532.73Z" fill="#EAE2CF" stroke="#101727" stroke-miterlimit="10"/>
<path d="M577.351 308.24L568.791 303.68C558.651 298.28 546.041 302.13 540.651 312.27L532.721 327.17L578.021 351.27L585.951 336.37C591.351 326.23 587.491 313.63 577.361 308.23L577.351 308.24Z" fill="#E9BE51"/>
<path d="M578.03 351.25L520.8 320.8C519.72 320.22 519.31 318.88 519.88 317.79C520.46 316.71 521.8 316.3 522.89 316.87L547.14 329.78" fill="#E9BE51"/>
<path d="M578.03 351.25L520.8 320.8C519.72 320.22 519.31 318.88 519.88 317.79C520.46 316.71 521.8 316.3 522.89 316.87L547.14 329.78" stroke="#101727" stroke-miterlimit="10"/>
<path d="M578.031 351.25C584.421 350.33 588.511 358.15 583.981 362.81C579.731 367.19 573.251 365.13 569.481 363.7L578.851 392.76L547.471 404.66L532.721 390.52L534.091 383.98L569.481 363.7" fill="#EAE2CF"/>
<path d="M578.031 351.25C584.421 350.33 588.511 358.15 583.981 362.81C579.731 367.19 573.251 365.13 569.481 363.7M569.481 363.7L578.851 392.76L547.471 404.66L532.721 390.52L534.091 383.98L569.481 363.7Z" stroke="#101727" stroke-miterlimit="10"/>
<path d="M547.729 341.08C544.909 346.44 539.789 350.83 533.489 352.54C529.649 353.59 534.029 357.8 540.469 354.82" stroke="#101727" stroke-miterlimit="10"/>
<path d="M548.551 362.82C559.901 362.28 564.621 355.35 569.851 346.92L578.021 351.27C563.981 377.56 545.371 382.15 538.351 383.87L538.061 383.94C536.711 384.27 535.361 384.27 534.091 383.98C531.371 383.35 529.041 381.4 528.021 378.61L527.891 378.26C526.211 373.67 522.641 363.94 524.811 350C530.161 357.7 538.781 363.28 548.551 362.81V362.82Z" fill="#101727"/>
<path d="M549.639 351.46C548.409 351.18 547.649 349.95 547.929 348.73C548.209 347.51 549.439 346.74 550.659 347.02C551.879 347.3 552.649 348.53 552.369 349.75C552.089 350.97 550.859 351.74 549.639 351.46Z" stroke="#101727" stroke-miterlimit="10"/>
<path d="M534.09 345.52C532.86 345.24 532.1 344.01 532.38 342.79C532.66 341.57 533.89 340.8 535.11 341.08C536.33 341.36 537.1 342.59 536.82 343.81C536.54 345.03 535.31 345.8 534.09 345.52Z" stroke="#101727" stroke-miterlimit="10"/>
<path d="M552.199 342.84C554.489 343.76 556.009 345.46 556.589 347.34" stroke="#101727" stroke-miterlimit="10"/>
<path d="M536.979 336.13C534.739 335.1 532.459 335.17 530.689 336.03" stroke="#101727" stroke-miterlimit="10"/>
<path d="M544.71 369.35C540.83 370.91 533.49 369.44 531.51 364.89" stroke="#EAE2CF" stroke-miterlimit="10"/>
<path d="M551.529 307.56L548.699 308.76L551.759 315.96L554.589 314.76L551.529 307.56Z" fill="#01654D"/>
<path d="M556.321 314.09C557.841 318.42 557.001 321.29 556.331 322.86C554.721 322.24 552.061 320.84 550.001 316.66C549.871 316.68 549.741 316.71 549.611 316.72C548.611 316.86 547.641 316.91 546.711 316.87C549.681 323.85 554.301 325.42 556.041 326.02L556.111 326.05C556.441 326.16 556.791 326.19 557.121 326.15C557.821 326.05 558.461 325.61 558.781 324.92L558.821 324.84C559.601 323.17 561.681 318.74 558.731 311.78C558.051 312.63 557.251 313.42 556.331 314.1L556.321 314.09Z" fill="white"/>
<path d="M577.349 308.24C571.029 306.37 566.189 308.83 566.189 308.83" stroke="#101727"/>
<path d="M541.77 444H572.72C575.71 444 578.14 441.57 578.14 438.58V414.64H610.4V450.69C610.4 464.71 599.11 476.09 585.12 476.25H584.83H578.13H521.1" fill="#EAE2CF"/>
<path d="M541.77 444H572.72C575.71 444 578.14 441.57 578.14 438.58V414.64H610.4V450.69C610.4 464.71 599.11 476.09 585.12 476.25H584.83H578.13H521.1" stroke="#101727" stroke-miterlimit="10"/>
<path d="M521.12 454.77H492.69C489.72 454.77 487.32 457.18 487.32 460.14C487.32 463.11 489.73 465.51 492.69 465.51H521.12" fill="#EAE2CF"/>
<path d="M521.12 454.77H492.69C489.72 454.77 487.32 457.18 487.32 460.14C487.32 463.11 489.73 465.51 492.69 465.51H521.12" stroke="#101727" stroke-miterlimit="10"/>
<path d="M578.141 409.18C578.141 400.27 585.361 393.05 594.271 393.05C603.181 393.05 610.401 400.27 610.401 409.18V435.76H610.341C609.631 431.03 602.711 427.32 594.271 427.32C585.831 427.32 578.911 431.03 578.201 435.76H578.141V409.18Z" fill="#EAE2CF" stroke="#101727" stroke-miterlimit="10"/>
<path d="M542.059 444.02C542.059 441.05 539.649 438.65 536.689 438.65H520.319C517.349 438.65 514.949 441.06 514.949 444.02" fill="#EAE2CF"/>
<path d="M542.059 444.02C542.059 441.05 539.649 438.65 536.689 438.65H520.319C517.349 438.65 514.949 441.06 514.949 444.02" stroke="#101727" stroke-miterlimit="10"/>
<path d="M521.12 444.02H492.69C489.72 444.02 487.32 446.43 487.32 449.39C487.32 452.36 489.73 454.76 492.69 454.76H521.12" fill="#EAE2CF"/>
<path d="M521.12 444.02H492.69C489.72 444.02 487.32 446.43 487.32 449.39C487.32 452.36 489.73 454.76 492.69 454.76H521.12" stroke="#101727" stroke-miterlimit="10"/>
<path d="M424.999 155.42C429.539 155.42 433.219 151.74 433.219 147.2C433.219 142.66 429.539 138.98 424.999 138.98C420.46 138.98 416.779 142.66 416.779 147.2C416.779 151.74 420.46 155.42 424.999 155.42Z" fill="#E9BE51" stroke="black" stroke-miterlimit="10"/>
<path d="M404.379 209.52H445.609V230.14C445.609 241.52 436.369 250.76 424.989 250.76C413.609 250.76 404.369 241.52 404.369 230.14V209.52H404.379Z" fill="#01654D" stroke="black" stroke-miterlimit="10"/>
<path d="M425 155.42V209.62" stroke="black" stroke-miterlimit="10"/>
<path d="M429.279 257.08V250.31C427.899 250.6 426.469 250.76 424.999 250.76C423.529 250.76 422.099 250.6 420.719 250.31V265.16H424.999C430.969 265.16 435.829 270.02 435.829 275.99C435.829 281.96 430.969 286.82 424.999 286.82C419.029 286.82 414.169 281.96 414.169 275.99H405.619C405.619 286.68 414.309 295.37 424.999 295.37C435.689 295.37 444.379 286.68 444.379 275.99C444.379 266.77 437.909 259.03 429.269 257.08H429.279Z" fill="#E9BE51" stroke="#101727" stroke-miterlimit="10"/>
<path d="M379.891 344.1L425.421 286.97" stroke="black" stroke-miterlimit="10"/>
<path d="M473.92 339.17H376V465.25H473.92V339.17Z" fill="white" stroke="#101727" stroke-miterlimit="3"/>
<path d="M389.32 398.09H460.59" stroke="#101727" stroke-miterlimit="10"/>
<path d="M389.32 407.05H460.59" stroke="#101727" stroke-miterlimit="10"/>
<path d="M389.32 424.97H460.59" stroke="#101727" stroke-miterlimit="10"/>
<path d="M389.32 416.01H460.59" stroke="#101727" stroke-miterlimit="10"/>
<path d="M389.32 434.75H460.59" stroke="#101727" stroke-miterlimit="10"/>
<path d="M389.32 443.71H460.59" stroke="#101727" stroke-miterlimit="10"/>
<path d="M389.32 452.67H460.59" stroke="#101727" stroke-miterlimit="10"/>
<path d="M433.89 333.55C433.89 333.44 433.91 333.34 433.91 333.23C433.91 328.31 429.92 324.33 425.01 324.33C420.1 324.33 416.11 328.32 416.11 333.23C416.11 333.34 416.12 333.45 416.13 333.55H399.59V352.44H450.43V333.55H433.89Z" fill="#849465" stroke="#101727" stroke-miterlimit="10"/>
<path d="M425.93 387.1C432.607 387.1 438.02 381.687 438.02 375.01C438.02 368.333 432.607 362.92 425.93 362.92C419.253 362.92 413.84 368.333 413.84 375.01C413.84 381.687 419.253 387.1 425.93 387.1Z" fill="#E9BE51"/>
<path d="M419.08 374.09L426.36 380.16L432.78 369.86" stroke="#101727" stroke-miterlimit="10"/>
<path d="M551.081 428.42C549.821 428.42 548.801 427.4 548.801 426.14C548.801 424.88 549.821 423.86 551.081 423.86C552.341 423.86 553.361 424.88 553.361 426.14C553.361 427.4 552.341 428.42 551.081 428.42Z" stroke="#101727" stroke-miterlimit="10"/>
<path d="M483.624 599.274L399.57 515.22L334.637 580.154L418.69 664.207L483.624 599.274Z" fill="#E0E9E6"/>
</g>
<defs>
<clipPath id="clip0_2497_5">
<rect width="724.04" height="674.55" fill="white"/>
</clipPath>
</defs>
</svg>
