<svg width="419" height="419" viewBox="0 0 419 419" fill="none" xmlns="http://www.w3.org/2000/svg">
<path d="M280.867 53.9922C310.231 69.4134 334.72 92.8828 351.406 121.459" stroke="#101727" stroke-width="1.01656" stroke-miterlimit="10"/>
<path d="M354.857 127.663L346.379 120.945L351.112 121.005L353.508 116.926L354.857 127.663Z" fill="#101727"/>
<path d="M43 127.812C58.5377 98.4807 82.1009 74.0545 110.77 57.4648" stroke="#101727" stroke-width="1.01656" stroke-miterlimit="10"/>
<path d="M116.99 54.0312L110.244 62.492L110.324 57.758L106.246 55.3407L116.99 54.0312Z" fill="#101727"/>
<path d="M287.098 363.061C315.746 346.501 339.309 322.116 354.867 292.824" stroke="#101727" stroke-width="1.01656" stroke-miterlimit="10"/>
<path d="M280.867 366.498L291.611 365.198L287.543 362.781L287.624 358.047L280.867 366.498Z" fill="#101727"/>
<path d="M46.4531 298.887C63.1287 327.503 87.6183 351.003 116.992 366.454" stroke="#101727" stroke-width="1.01656" stroke-miterlimit="10"/>
<path d="M43 292.676L44.3392 303.413L46.7458 299.334L51.4785 299.404L43 292.676Z" fill="#101727"/>
<path d="M389.437 299.594L389.145 299.887" stroke="#101727" stroke-width="1.01656" stroke-miterlimit="10"/>
<path d="M238.327 76.0204C238.045 76.0204 237.784 76.0001 237.512 75.9492L238.327 76.0204Z" fill="#978D42"/>
<path d="M238.327 76.0204C238.045 76.0204 237.784 76.0001 237.512 75.9492" stroke="#101727" stroke-width="1.01656" stroke-miterlimit="10"/>
<path d="M237.524 75.9497C236.708 77.4405 234.493 78.7197 232.026 78.4679C230.082 78.2664 228.39 77.2995 227.635 75.6173C227.051 75.8691 226.397 76.0202 225.712 76.0202C223.053 76.0202 220.898 73.8647 220.898 71.2055C220.898 68.5463 223.053 66.3908 225.712 66.3908C225.853 66.3908 226.004 66.3908 226.145 66.4109C225.5 63.3589 227.323 60.2867 230.364 59.4104C231.693 59.0276 233.053 59.1284 234.251 59.6018C234.06 56.8318 235.812 54.2028 238.581 53.4071C241.773 52.4905 245.096 54.3338 246.012 57.5268C246.254 58.3528 246.304 59.1888 246.194 59.9946C247.473 60.7501 248.469 61.9689 248.913 63.51C249.194 64.487 249.215 65.4742 249.023 66.4008C249.164 66.3908 249.305 66.3807 249.456 66.3807C252.115 66.3807 254.27 68.5362 254.27 71.1954C254.27 73.8546 252.115 76.0102 249.456 76.0102C248.772 76.0102 248.127 75.8691 247.533 75.6073C246.778 77.2894 245.096 78.4578 243.143 78.4578C243.143 78.4578 240.011 78.7096 237.524 75.9598V75.9497Z" fill="#849465"/>
<path d="M237.586 68.2734V85.4267" stroke="#101727" stroke-width="1.01656" stroke-miterlimit="10"/>
<path d="M233.816 70.5391L237.582 74.3061L241.348 70.5391" stroke="#101727" stroke-width="1.01656" stroke-miterlimit="10"/>
<path d="M202.801 8.96875H143.641V85.1685H202.801V8.96875Z" fill="white" stroke="#101727" stroke-width="1.01656" stroke-miterlimit="3"/>
<path d="M151.691 44.5703H194.76" stroke="#101727" stroke-width="1.01656" stroke-miterlimit="10"/>
<path d="M151.691 49.9883H194.76" stroke="#101727" stroke-width="1.01656" stroke-miterlimit="10"/>
<path d="M151.691 60.8203H194.76" stroke="#101727" stroke-width="1.01656" stroke-miterlimit="10"/>
<path d="M151.691 55.3984H194.76" stroke="#101727" stroke-width="1.01656" stroke-miterlimit="10"/>
<path d="M151.691 66.7344H194.76" stroke="#101727" stroke-width="1.01656" stroke-miterlimit="10"/>
<path d="M151.691 72.1484H194.76" stroke="#101727" stroke-width="1.01656" stroke-miterlimit="10"/>
<path d="M151.691 77.5586H194.76" stroke="#101727" stroke-width="1.01656" stroke-miterlimit="10"/>
<path d="M178.627 5.57018C178.627 5.49968 178.627 5.43924 178.627 5.3788C178.627 2.40737 176.22 0 173.249 0C170.279 0 167.872 2.40737 167.872 5.3788C167.872 5.44931 167.872 5.50975 167.872 5.57018H157.883V16.9926H188.606V5.57018H178.616H178.627Z" fill="#849465"/>
<path d="M173.814 40.1619C179.248 40.1619 183.652 35.7561 183.652 30.3212C183.652 24.8863 179.248 20.4805 173.814 20.4805C168.381 20.4805 163.977 24.8863 163.977 30.3212C163.977 35.7561 168.381 40.1619 173.814 40.1619Z" fill="#E9BE51"/>
<path d="M168.238 29.5636L174.159 34.5091L179.385 26.1289" stroke="#101727" stroke-width="1.01656" stroke-miterlimit="10"/>
<path d="M201.395 39.8867L218.633 51.2987H230.244L213.226 39.9069L201.395 39.8867Z" fill="#00654D"/>
<path d="M218.663 51.3047L218.633 85.169H230.273V51.3047" fill="#A99E53"/>
<path d="M218.663 51.3047L218.633 85.169H230.273V51.3047" stroke="#101727" stroke-width="1.01656" stroke-miterlimit="10"/>
<path d="M201.515 39.9727L218.633 51.3044L218.613 85.1687H184.668V51.3044L201.515 39.9727Z" fill="#E9BE51" stroke="#111726" stroke-width="1.01656" stroke-miterlimit="10"/>
<path d="M230.224 51.2789L213.206 39.8867H201.395L218.251 51.0472L218.634 51.3192L218.614 85.1634H230.244V51.299L230.224 51.2789Z" stroke="#101727" stroke-width="1.01656" stroke-linejoin="bevel"/>
<path d="M226.12 56.3242H222.777V59.4869H226.12V56.3242Z" fill="#E9BE51"/>
<path d="M199.077 56.3242H195.734V59.4869H199.077V56.3242Z" fill="#01654D" stroke="#01664D" stroke-width="1.01656" stroke-miterlimit="10"/>
<path d="M194.054 56.3242H190.711V59.4869H194.054V56.3242Z" fill="#01654D" stroke="#01664D" stroke-width="1.01656" stroke-miterlimit="10"/>
<path d="M199.077 63.9023H195.734V67.0651H199.077V63.9023Z" fill="#01654D" stroke="#01664D" stroke-width="1.01656" stroke-miterlimit="10"/>
<path d="M194.054 63.9023H190.711V67.0651H194.054V63.9023Z" fill="#01654D" stroke="#01664D" stroke-width="1.01656" stroke-miterlimit="10"/>
<path d="M199.077 71.4688H195.734V74.6315H199.077V71.4688Z" fill="#01654D" stroke="#01664D" stroke-width="1.01656" stroke-miterlimit="10"/>
<path d="M194.054 71.4688H190.711V74.6315H194.054V71.4688Z" fill="#01654D" stroke="#01664D" stroke-width="1.01656" stroke-miterlimit="10"/>
<path d="M226.12 63.9023H222.777V67.0651H226.12V63.9023Z" fill="#E9BE51"/>
<path d="M226.12 71.4688H222.777V74.6315H226.12V71.4688Z" fill="#E9BE51"/>
<path d="M218.633 51.3047H230.243" stroke="#101727" stroke-width="1.01656" stroke-miterlimit="10"/>
<path d="M139 85.1641H258.901" stroke="#101727" stroke-width="1.01656" stroke-miterlimit="10"/>
<path d="M158.852 394.8V353.422" stroke="#101727" stroke-width="1.01656" stroke-miterlimit="10"/>
<path d="M185.813 340.997V394.795H150.801V337.703L179.419 337.32L185.813 340.997Z" fill="#E9BE51"/>
<path d="M185.961 340.997V394.795H179.566V337.32L185.961 340.997Z" fill="#B7AB65"/>
<path d="M179.419 337.32L150.801 337.703V394.795H179.419H185.813V340.997L179.419 337.32Z" stroke="#101727" stroke-width="1.01656" stroke-miterlimit="10"/>
<path d="M179.714 394.795L179.422 337.32" stroke="#101727" stroke-width="1.01656" stroke-miterlimit="10"/>
<path d="M172.579 346.25H156.961" stroke="#101727" stroke-width="1.01656" stroke-miterlimit="10"/>
<path d="M172.579 350.516H156.961" stroke="#101727" stroke-width="1.01656" stroke-miterlimit="10"/>
<path d="M172.579 355.445H156.961" stroke="#101727" stroke-width="1.01656" stroke-miterlimit="10"/>
<path d="M172.579 362.336H156.961" stroke="#101727" stroke-width="1.01656" stroke-miterlimit="10"/>
<path d="M172.579 366.605H156.961" stroke="#101727" stroke-width="1.01656" stroke-miterlimit="10"/>
<path d="M172.579 371.527H156.961" stroke="#101727" stroke-width="1.01656" stroke-miterlimit="10"/>
<path d="M172.579 378.07H156.961" stroke="#101727" stroke-width="1.01656" stroke-miterlimit="10"/>
<path d="M172.579 382.355H156.961" stroke="#101727" stroke-width="1.01656" stroke-miterlimit="10"/>
<path d="M172.579 387.273H156.961" stroke="#101727" stroke-width="1.01656" stroke-miterlimit="10"/>
<path d="M218.389 330.687V394.799H172.582V327.383L211.995 327L218.389 330.687Z" fill="#EAE2CF"/>
<path d="M218.533 330.687V394.799H212.148V327L218.533 330.687Z" fill="#B7AB65"/>
<path d="M211.995 327L172.582 327.383V394.799H211.995H218.389V330.687L211.995 327Z" stroke="#101727" stroke-width="1.01656" stroke-miterlimit="10"/>
<path d="M212.292 394.799L212 327" stroke="#101727" stroke-width="1.01656" stroke-miterlimit="10"/>
<path d="M182.406 331.793V390.94" stroke="#101727" stroke-width="1.01656" stroke-miterlimit="10"/>
<path d="M188.371 331.793V390.94" stroke="#101727" stroke-width="1.01656" stroke-miterlimit="10"/>
<path d="M195.25 331.793V390.94" stroke="#101727" stroke-width="1.01656" stroke-miterlimit="10"/>
<path d="M201.664 331.793V390.94" stroke="#101727" stroke-width="1.01656" stroke-miterlimit="10"/>
<path d="M164.625 395.415H170.073C170.073 394.146 169.197 393.068 168.008 392.776C167.797 392.726 167.575 392.695 167.344 392.695C165.843 392.695 164.625 393.914 164.625 395.415Z" fill="#00654D"/>
<path d="M186.371 395.415H191.819C191.819 393.914 190.6 392.695 189.1 392.695C188.778 392.695 188.466 392.756 188.184 392.856C187.126 393.229 186.381 394.236 186.381 395.425L186.371 395.415Z" fill="#00654D"/>
<path d="M167.739 394.294C167.739 394.677 167.789 395.05 167.88 395.402H176.258C176.348 395.05 176.399 394.677 176.399 394.294C176.399 392.723 175.563 391.343 174.314 390.588C173.66 390.185 172.884 389.953 172.059 389.953C170.206 389.953 168.625 391.122 168.001 392.753C167.819 393.227 167.719 393.75 167.719 394.284L167.739 394.294Z" fill="#00654D"/>
<path d="M186.794 394.294C186.794 394.677 186.844 395.05 186.935 395.402H195.312C195.403 395.05 195.453 394.677 195.453 394.294C195.453 392.723 194.618 391.343 193.369 390.588C192.714 390.185 191.939 389.953 191.113 389.953C189.261 389.953 187.68 391.122 187.055 392.753C186.874 393.227 186.773 393.75 186.773 394.284L186.794 394.294Z" fill="#00654D"/>
<path d="M173.688 393.094C173.688 393.9 173.788 394.666 173.99 395.411H191.651C191.853 394.666 191.954 393.9 191.954 393.094C191.954 392.792 191.943 392.48 191.913 392.188C191.45 387.575 187.563 383.969 182.821 383.969C179.115 383.969 175.923 386.185 174.493 389.357C173.98 390.496 173.688 391.765 173.688 393.104V393.094Z" fill="#00654D"/>
<path d="M167.359 392.682C167.591 392.682 167.813 392.712 168.024 392.762C168.638 391.12 170.229 389.962 172.082 389.962C172.807 389.962 173.492 390.143 174.086 390.456C174.197 390.073 174.338 389.71 174.499 389.358C175.929 386.185 179.121 383.969 182.827 383.969C186.774 383.969 190.127 386.477 191.406 389.982C192.131 390.022 192.806 390.244 193.39 390.607C194.638 391.362 195.474 392.742 195.474 394.313C195.474 394.696 195.424 395.069 195.333 395.421H191.658H186.945H176.271H173.995H170.088H167.893H164.641C164.641 393.921 165.859 392.702 167.359 392.702V392.682Z" fill="#00654D"/>
<path d="M242.245 394.04H209.579C207.817 392.912 206.648 390.948 206.648 388.702C206.648 386.627 207.645 384.793 209.186 383.635C209.146 383.293 209.116 382.95 209.116 382.598C209.116 378.025 212.821 374.318 217.393 374.318C218.188 374.318 218.954 374.429 219.679 374.64C220.897 370.581 224.653 367.609 229.114 367.609C234.25 367.609 238.469 371.548 238.922 376.574C243.141 377.682 246.253 381.53 246.253 386.103C246.253 389.356 244.672 392.237 242.245 394.03V394.04Z" fill="#888B54"/>
<path d="M210.696 395.413H189.339C188.191 394.677 187.426 393.388 187.426 391.927C187.426 390.578 188.08 389.369 189.077 388.614C189.047 388.392 189.037 388.17 189.037 387.939C189.037 384.947 191.464 382.53 194.444 382.53C194.968 382.53 195.461 382.6 195.945 382.741C196.74 380.082 199.197 378.148 202.107 378.148C205.47 378.148 208.219 380.727 208.521 384.011C211.28 384.736 213.314 387.254 213.314 390.235C213.314 392.361 212.287 394.244 210.696 395.423V395.413Z" fill="#888B54"/>
<path d="M198.019 395.414C197.827 394.82 197.727 394.195 197.727 393.541C197.727 390.156 200.465 387.417 203.849 387.417C204.433 387.417 205.007 387.497 205.54 387.658C206.437 384.657 209.226 382.461 212.519 382.461C215.791 382.461 218.56 384.616 219.477 387.588C219.658 387.568 219.849 387.558 220.041 387.558C223.424 387.558 226.163 390.297 226.163 393.682C226.163 394.286 226.072 394.86 225.911 395.414H198.029H198.019Z" fill="#B7AB65"/>
<path d="M254.803 395.415H249.355C249.355 394.146 250.232 393.068 251.42 392.776C251.631 392.726 251.853 392.695 252.084 392.695C253.585 392.695 254.803 393.914 254.803 395.415Z" fill="#00654D"/>
<path d="M233.076 395.415H227.629C227.629 393.914 228.847 392.695 230.348 392.695C230.67 392.695 230.982 392.756 231.264 392.856C232.321 393.229 233.066 394.236 233.066 395.425L233.076 395.415Z" fill="#00654D"/>
<path d="M251.703 394.294C251.703 394.677 251.652 395.05 251.562 395.402H243.184C243.093 395.05 243.043 394.677 243.043 394.294C243.043 392.723 243.879 391.343 245.127 390.588C245.782 390.185 246.557 389.953 247.383 389.953C249.236 389.953 250.817 391.122 251.441 392.753C251.622 393.227 251.723 393.75 251.723 394.284L251.703 394.294Z" fill="#00654D"/>
<path d="M232.636 394.294C232.636 394.677 232.586 395.05 232.495 395.402H224.118C224.027 395.05 223.977 394.677 223.977 394.294C223.977 392.723 224.812 391.343 226.061 390.588C226.715 390.185 227.491 389.953 228.317 389.953C230.169 389.953 231.75 391.122 232.375 392.753C232.556 393.227 232.656 393.75 232.656 394.284L232.636 394.294Z" fill="#00654D"/>
<path d="M245.754 393.094C245.754 393.9 245.654 394.666 245.452 395.411H227.79C227.589 394.666 227.488 393.9 227.488 393.094C227.488 392.289 227.498 392.48 227.529 392.188C227.992 387.575 231.879 383.969 236.621 383.969C240.327 383.969 243.519 386.185 244.949 389.357C245.462 390.496 245.754 391.765 245.754 393.104V393.094Z" fill="#00654D"/>
<path d="M252.084 392.682C251.852 392.682 251.63 392.712 251.419 392.762C250.805 391.12 249.214 389.962 247.361 389.962C246.636 389.962 245.951 390.143 245.357 390.456C245.246 390.073 245.105 389.71 244.944 389.358C243.514 386.185 240.322 383.969 236.616 383.969C232.669 383.969 229.316 386.477 228.037 389.982C227.312 390.022 226.637 390.244 226.053 390.607C224.805 391.362 223.969 392.742 223.969 394.313C223.969 394.696 224.019 395.069 224.11 395.421H254.802C254.802 393.921 253.584 392.702 252.084 392.702V392.682Z" fill="#00654D"/>
<path d="M139 394.961H258.901" stroke="#101727" stroke-width="1.01656" stroke-miterlimit="10"/>
<path d="M138.602 103.992V103.034L143.61 95.7066H138.561V94.4698H145.368V95.4276L140.36 102.755H145.409V103.992H138.602ZM150.108 104.136C149.438 104.136 148.854 103.983 148.355 103.676C147.856 103.369 147.468 102.94 147.193 102.388C146.917 101.836 146.779 101.192 146.779 100.454C146.779 99.713 146.917 99.0651 147.193 98.5103C147.468 97.9554 147.856 97.5246 148.355 97.2177C148.854 96.9108 149.438 96.7574 150.108 96.7574C150.777 96.7574 151.362 96.9108 151.861 97.2177C152.36 97.5246 152.747 97.9554 153.023 98.5103C153.299 99.0651 153.437 99.713 153.437 100.454C153.437 101.192 153.299 101.836 153.023 102.388C152.747 102.94 152.36 103.369 151.861 103.676C151.362 103.983 150.777 104.136 150.108 104.136ZM150.113 102.969C150.546 102.969 150.906 102.855 151.191 102.625C151.476 102.396 151.687 102.09 151.824 101.709C151.963 101.328 152.033 100.908 152.033 100.449C152.033 99.9935 151.963 99.575 151.824 99.1938C151.687 98.8094 151.476 98.501 151.191 98.2685C150.906 98.036 150.546 97.9198 150.113 97.9198C149.675 97.9198 149.313 98.036 149.025 98.2685C148.739 98.501 148.527 98.8094 148.388 99.1938C148.251 99.575 148.183 99.9935 148.183 100.449C148.183 100.908 148.251 101.328 148.388 101.709C148.527 102.09 148.739 102.396 149.025 102.625C149.313 102.855 149.675 102.969 150.113 102.969ZM156.379 99.7517V103.992H154.989V96.8504H156.323V98.0128H156.412C156.576 97.6346 156.833 97.3308 157.183 97.1014C157.537 96.8721 157.982 96.7574 158.518 96.7574C159.005 96.7574 159.431 96.8597 159.797 97.0642C160.162 97.2657 160.446 97.5664 160.647 97.9663C160.849 98.3661 160.95 98.8606 160.95 99.4495V103.992H159.559V99.6169C159.559 99.0992 159.425 98.6947 159.155 98.4033C158.885 98.1089 158.515 97.9616 158.044 97.9616C157.721 97.9616 157.435 98.0314 157.183 98.1709C156.935 98.3103 156.739 98.5149 156.593 98.7846C156.45 99.0512 156.379 99.3736 156.379 99.7517ZM162.814 103.992V96.8504H164.204V103.992H162.814ZM163.516 95.7484C163.274 95.7484 163.067 95.6678 162.893 95.5066C162.723 95.3423 162.637 95.1471 162.637 94.9208C162.637 94.6914 162.723 94.4961 162.893 94.3349C163.067 94.1706 163.274 94.0885 163.516 94.0885C163.758 94.0885 163.964 94.1706 164.135 94.3349C164.308 94.4961 164.395 94.6914 164.395 94.9208C164.395 95.1471 164.308 95.3423 164.135 95.5066C163.964 95.6678 163.758 95.7484 163.516 95.7484ZM167.465 99.7517V103.992H166.075V96.8504H167.409V98.0128H167.497C167.662 97.6346 167.919 97.3308 168.269 97.1014C168.623 96.8721 169.067 96.7574 169.604 96.7574C170.09 96.7574 170.517 96.8597 170.882 97.0642C171.248 97.2657 171.532 97.5664 171.733 97.9663C171.935 98.3661 172.035 98.8606 172.035 99.4495V103.992H170.645V99.6169C170.645 99.0992 170.51 98.6947 170.241 98.4033C169.971 98.1089 169.601 97.9616 169.129 97.9616C168.807 97.9616 168.52 98.0314 168.269 98.1709C168.021 98.3103 167.824 98.5149 167.679 98.7846C167.536 99.0512 167.465 99.3736 167.465 99.7517ZM176.894 106.819C176.327 106.819 175.839 106.745 175.43 106.596C175.024 106.447 174.692 106.25 174.435 106.005C174.177 105.761 173.985 105.492 173.858 105.201L175.053 104.708C175.137 104.845 175.248 104.989 175.388 105.141C175.53 105.296 175.723 105.427 175.964 105.536C176.209 105.644 176.524 105.699 176.908 105.699C177.435 105.699 177.871 105.57 178.215 105.313C178.559 105.059 178.731 104.652 178.731 104.094V102.69H178.643C178.559 102.842 178.438 103.011 178.28 103.197C178.125 103.383 177.911 103.544 177.638 103.681C177.366 103.817 177.011 103.885 176.574 103.885C176.009 103.885 175.501 103.754 175.048 103.49C174.599 103.223 174.243 102.831 173.979 102.314C173.719 101.793 173.588 101.153 173.588 100.393C173.588 99.6339 173.717 98.983 173.974 98.4405C174.235 97.8981 174.591 97.4827 175.044 97.1944C175.496 96.9031 176.009 96.7574 176.583 96.7574C177.026 96.7574 177.384 96.8318 177.657 96.9806C177.93 97.1262 178.142 97.2967 178.294 97.492C178.449 97.6873 178.568 97.8593 178.652 98.0081H178.754V96.8504H180.117V104.15C180.117 104.764 179.974 105.268 179.689 105.661C179.404 106.055 179.018 106.346 178.531 106.536C178.047 106.725 177.502 106.819 176.894 106.819ZM176.88 102.732C177.28 102.732 177.618 102.639 177.894 102.453C178.173 102.264 178.384 101.994 178.526 101.644C178.672 101.291 178.745 100.868 178.745 100.375C178.745 99.8943 178.674 99.4712 178.531 99.1054C178.388 98.7397 178.179 98.4545 177.903 98.2499C177.627 98.0422 177.286 97.9384 176.88 97.9384C176.462 97.9384 176.113 98.0469 175.834 98.2639C175.555 98.4777 175.344 98.7691 175.202 99.138C175.062 99.5068 174.993 99.9191 174.993 100.375C174.993 100.843 175.064 101.254 175.207 101.607C175.349 101.96 175.56 102.236 175.839 102.435C176.121 102.633 176.468 102.732 176.88 102.732ZM188.217 104.127C187.579 104.127 187.029 104.011 186.567 103.778C186.108 103.546 185.755 103.23 185.507 102.83C185.259 102.427 185.135 101.971 185.135 101.463C185.135 101.075 185.215 100.731 185.376 100.431C185.538 100.127 185.762 99.8463 186.051 99.589C186.339 99.3317 186.672 99.0729 187.05 98.8125L188.585 97.7291C188.845 97.5587 189.048 97.3789 189.194 97.1898C189.339 96.9976 189.412 96.7605 189.412 96.4784C189.412 96.2552 189.316 96.0413 189.124 95.8367C188.932 95.6322 188.675 95.5299 188.352 95.5299C188.129 95.5299 187.932 95.5841 187.762 95.6926C187.594 95.8011 187.463 95.9406 187.366 96.1111C187.273 96.2785 187.227 96.4551 187.227 96.6411C187.227 96.8581 187.286 97.0766 187.404 97.2967C187.525 97.5168 187.68 97.7446 187.869 97.9802C188.058 98.2127 188.256 98.4545 188.464 98.7056L192.886 103.992H191.314L187.655 99.6913C187.348 99.3286 187.063 98.9876 186.799 98.6684C186.536 98.346 186.322 98.0205 186.158 97.6919C185.996 97.3603 185.916 97.0023 185.916 96.6179C185.916 96.1808 186.015 95.7933 186.213 95.4555C186.415 95.1145 186.695 94.8479 187.055 94.6557C187.415 94.4636 187.836 94.3675 188.32 94.3675C188.809 94.3675 189.229 94.4636 189.58 94.6557C189.933 94.8448 190.204 95.0975 190.393 95.4136C190.586 95.7267 190.682 96.0692 190.682 96.4412C190.682 96.8938 190.569 97.2936 190.342 97.6408C190.119 97.9849 189.811 98.301 189.417 98.5893L187.506 99.9982C187.134 100.271 186.875 100.541 186.729 100.807C186.587 101.071 186.516 101.277 186.516 101.426C186.516 101.698 186.585 101.951 186.725 102.183C186.867 102.416 187.066 102.602 187.32 102.741C187.577 102.881 187.878 102.951 188.222 102.951C188.575 102.951 188.919 102.875 189.254 102.723C189.592 102.568 189.897 102.346 190.17 102.058C190.446 101.77 190.665 101.424 190.826 101.021C190.987 100.618 191.068 100.167 191.068 99.668H192.323C192.323 100.282 192.253 100.801 192.114 101.226C191.974 101.647 191.805 101.991 191.607 102.258C191.412 102.521 191.227 102.727 191.054 102.876C190.998 102.926 190.945 102.975 190.896 103.025C190.846 103.075 190.793 103.124 190.737 103.174C190.415 103.499 190.025 103.74 189.566 103.895C189.11 104.05 188.661 104.127 188.217 104.127ZM198.356 103.992H196.831L200.258 94.4698H201.917L205.344 103.992H203.819L201.127 96.1994H201.053L198.356 103.992ZM198.612 100.263H203.559V101.472H198.612V100.263ZM206.608 106.67V96.8504H207.965V98.0081H208.082C208.162 97.8593 208.279 97.6873 208.43 97.492C208.582 97.2967 208.793 97.1262 209.063 96.9806C209.332 96.8318 209.689 96.7574 210.132 96.7574C210.709 96.7574 211.223 96.9031 211.676 97.1944C212.128 97.4858 212.483 97.9058 212.741 98.4545C213.001 99.0031 213.131 99.6634 213.131 100.435C213.131 101.207 213.003 101.869 212.745 102.421C212.488 102.969 212.135 103.392 211.685 103.69C211.236 103.984 210.723 104.132 210.146 104.132C209.712 104.132 209.357 104.059 209.081 103.913C208.809 103.767 208.595 103.597 208.44 103.402C208.285 103.206 208.165 103.033 208.082 102.881H207.998V106.67H206.608ZM207.97 100.421C207.97 100.923 208.043 101.364 208.189 101.742C208.334 102.12 208.545 102.416 208.821 102.63C209.097 102.841 209.435 102.946 209.835 102.946C210.25 102.946 210.597 102.836 210.876 102.616C211.155 102.393 211.366 102.09 211.508 101.709C211.654 101.328 211.727 100.899 211.727 100.421C211.727 99.9501 211.656 99.527 211.513 99.1519C211.374 98.7769 211.163 98.4808 210.881 98.2639C210.602 98.0469 210.253 97.9384 209.835 97.9384C209.432 97.9384 209.091 98.0422 208.812 98.2499C208.536 98.4576 208.327 98.7474 208.184 99.1194C208.041 99.4914 207.97 99.9253 207.97 100.421ZM214.689 106.67V96.8504H216.047V98.0081H216.163C216.243 97.8593 216.36 97.6873 216.511 97.492C216.663 97.2967 216.874 97.1262 217.144 96.9806C217.414 96.8318 217.77 96.7574 218.213 96.7574C218.79 96.7574 219.304 96.9031 219.757 97.1944C220.209 97.4858 220.564 97.9058 220.822 98.4545C221.082 99.0031 221.212 99.6634 221.212 100.435C221.212 101.207 221.084 101.869 220.826 102.421C220.569 102.969 220.216 103.392 219.766 103.69C219.317 103.984 218.804 104.132 218.227 104.132C217.793 104.132 217.438 104.059 217.162 103.913C216.89 103.767 216.676 103.597 216.521 103.402C216.366 103.206 216.246 103.033 216.163 102.881H216.079V106.67H214.689ZM216.051 100.421C216.051 100.923 216.124 101.364 216.27 101.742C216.415 102.12 216.626 102.416 216.902 102.63C217.178 102.841 217.516 102.946 217.916 102.946C218.331 102.946 218.678 102.836 218.957 102.616C219.236 102.393 219.447 102.09 219.59 101.709C219.735 101.328 219.808 100.899 219.808 100.421C219.808 99.9501 219.737 99.527 219.594 99.1519C219.455 98.7769 219.244 98.4808 218.962 98.2639C218.683 98.0469 218.334 97.9384 217.916 97.9384C217.513 97.9384 217.172 98.0422 216.893 98.2499C216.617 98.4576 216.408 98.7474 216.265 99.1194C216.122 99.4914 216.051 99.9253 216.051 100.421ZM222.77 103.992V96.8504H224.114V97.9849H224.188C224.318 97.6005 224.548 97.2983 224.876 97.0782C225.208 96.855 225.583 96.7434 226.001 96.7434C226.088 96.7434 226.19 96.7465 226.308 96.7527C226.429 96.7589 226.524 96.7667 226.592 96.776V98.1058C226.536 98.0903 226.437 98.0732 226.294 98.0546C226.152 98.0329 226.009 98.0221 225.867 98.0221C225.538 98.0221 225.245 98.0918 224.988 98.2313C224.734 98.3677 224.532 98.5583 224.383 98.8032C224.235 99.045 224.16 99.3209 224.16 99.6308V103.992H222.77ZM230.548 104.136C229.878 104.136 229.294 103.983 228.795 103.676C228.296 103.369 227.908 102.94 227.632 102.388C227.356 101.836 227.218 101.192 227.218 100.454C227.218 99.713 227.356 99.0651 227.632 98.5103C227.908 97.9554 228.296 97.5246 228.795 97.2177C229.294 96.9108 229.878 96.7574 230.548 96.7574C231.217 96.7574 231.801 96.9108 232.3 97.2177C232.8 97.5246 233.187 97.9554 233.463 98.5103C233.739 99.0651 233.877 99.713 233.877 100.454C233.877 101.192 233.739 101.836 233.463 102.388C233.187 102.94 232.8 103.369 232.3 103.676C231.801 103.983 231.217 104.136 230.548 104.136ZM230.552 102.969C230.986 102.969 231.346 102.855 231.631 102.625C231.916 102.396 232.127 102.09 232.263 101.709C232.403 101.328 232.472 100.908 232.472 100.449C232.472 99.9935 232.403 99.575 232.263 99.1938C232.127 98.8094 231.916 98.501 231.631 98.2685C231.346 98.036 230.986 97.9198 230.552 97.9198C230.115 97.9198 229.752 98.036 229.464 98.2685C229.179 98.501 228.967 98.8094 228.827 99.1938C228.691 99.575 228.623 99.9935 228.623 100.449C228.623 100.908 228.691 101.328 228.827 101.709C228.967 102.09 229.179 102.396 229.464 102.625C229.752 102.855 230.115 102.969 230.552 102.969ZM241.295 96.8504L238.705 103.992H237.217L234.623 96.8504H236.115L237.924 102.346H237.999L239.803 96.8504H241.295ZM244.475 104.15C244.023 104.15 243.614 104.067 243.248 103.899C242.882 103.729 242.592 103.482 242.379 103.16C242.168 102.838 242.062 102.442 242.062 101.974C242.062 101.571 242.14 101.24 242.295 100.979C242.45 100.719 242.659 100.513 242.923 100.361C243.186 100.209 243.48 100.094 243.806 100.017C244.131 99.9393 244.463 99.8804 244.801 99.8401C245.229 99.7905 245.576 99.7502 245.842 99.7192C246.109 99.6851 246.303 99.6308 246.424 99.5564C246.545 99.4821 246.605 99.3612 246.605 99.1938V99.1612C246.605 98.7552 246.49 98.4405 246.261 98.2174C246.035 97.9942 245.697 97.8826 245.247 97.8826C244.779 97.8826 244.41 97.9864 244.141 98.1941C243.874 98.3987 243.69 98.6265 243.587 98.8776L242.281 98.58C242.436 98.1461 242.662 97.7958 242.96 97.5292C243.26 97.2595 243.606 97.0642 243.997 96.9434C244.387 96.8194 244.798 96.7574 245.229 96.7574C245.514 96.7574 245.816 96.7915 246.135 96.8597C246.458 96.9248 246.758 97.0456 247.037 97.2223C247.32 97.399 247.55 97.6516 247.73 97.9802C247.91 98.3057 248 98.7288 248 99.2496V103.992H246.642V103.016H246.586C246.497 103.196 246.362 103.372 246.182 103.546C246.002 103.719 245.771 103.864 245.489 103.978C245.207 104.093 244.869 104.15 244.475 104.15ZM244.778 103.034C245.162 103.034 245.491 102.958 245.763 102.807C246.039 102.655 246.249 102.456 246.391 102.211C246.537 101.963 246.61 101.698 246.61 101.416V100.496C246.56 100.545 246.464 100.592 246.321 100.635C246.182 100.675 246.022 100.711 245.842 100.742C245.663 100.77 245.488 100.796 245.317 100.821C245.147 100.843 245.004 100.861 244.889 100.877C244.62 100.911 244.373 100.968 244.15 101.049C243.93 101.13 243.753 101.246 243.62 101.398C243.49 101.546 243.425 101.745 243.425 101.993C243.425 102.337 243.552 102.597 243.806 102.774C244.06 102.948 244.384 103.034 244.778 103.034ZM251.242 94.4698V103.992H249.852V94.4698H251.242ZM258.464 98.594L257.204 98.8172C257.151 98.656 257.067 98.5025 256.953 98.3568C256.841 98.2112 256.689 98.0918 256.497 97.9988C256.305 97.9058 256.065 97.8593 255.776 97.8593C255.383 97.8593 255.054 97.9477 254.791 98.1244C254.527 98.2979 254.395 98.5227 254.395 98.7986C254.395 99.0372 254.484 99.2294 254.66 99.3751C254.837 99.5208 255.122 99.6401 255.516 99.7331L256.651 99.9935C257.308 100.145 257.797 100.379 258.12 100.696C258.442 101.012 258.603 101.422 258.603 101.928C258.603 102.356 258.479 102.737 258.231 103.072C257.987 103.403 257.644 103.664 257.204 103.853C256.767 104.042 256.26 104.136 255.683 104.136C254.884 104.136 254.231 103.966 253.726 103.625C253.221 103.281 252.911 102.793 252.796 102.16L254.14 101.956C254.223 102.306 254.395 102.571 254.656 102.751C254.916 102.927 255.256 103.016 255.674 103.016C256.13 103.016 256.494 102.921 256.767 102.732C257.04 102.54 257.176 102.306 257.176 102.03C257.176 101.807 257.092 101.619 256.925 101.467C256.761 101.316 256.508 101.201 256.167 101.123L254.958 100.858C254.292 100.706 253.799 100.465 253.479 100.133C253.163 99.8013 253.005 99.3813 253.005 98.873C253.005 98.4514 253.123 98.0825 253.359 97.7663C253.594 97.4502 253.92 97.2037 254.335 97.0271C254.75 96.8473 255.226 96.7574 255.762 96.7574C256.534 96.7574 257.142 96.9248 257.585 97.2595C258.028 97.5912 258.321 98.036 258.464 98.594Z" fill="#00654D"/>
<path d="M146.949 406.47H148.391V412.733C148.391 413.399 148.234 413.99 147.921 414.504C147.608 415.016 147.168 415.419 146.6 415.713C146.033 416.005 145.368 416.15 144.606 416.15C143.846 416.15 143.183 416.005 142.616 415.713C142.048 415.419 141.608 415.016 141.295 414.504C140.982 413.99 140.826 413.399 140.826 412.733V406.47H142.262V412.617C142.262 413.047 142.357 413.43 142.546 413.765C142.738 414.1 143.009 414.363 143.36 414.555C143.71 414.745 144.125 414.839 144.606 414.839C145.089 414.839 145.506 414.745 145.857 414.555C146.21 414.363 146.48 414.1 146.666 413.765C146.855 413.43 146.949 413.047 146.949 412.617V406.47ZM150.368 418.67V408.85H151.726V410.008H151.842C151.922 409.859 152.039 409.687 152.19 409.492C152.342 409.297 152.553 409.126 152.823 408.981C153.093 408.832 153.449 408.757 153.892 408.757C154.469 408.757 154.983 408.903 155.436 409.194C155.888 409.486 156.243 409.906 156.501 410.454C156.761 411.003 156.891 411.663 156.891 412.435C156.891 413.207 156.763 413.869 156.505 414.421C156.248 414.969 155.895 415.392 155.445 415.69C154.996 415.984 154.483 416.132 153.906 416.132C153.472 416.132 153.117 416.059 152.841 415.913C152.569 415.767 152.355 415.597 152.2 415.402C152.045 415.206 151.925 415.033 151.842 414.881H151.758V418.67H150.368ZM151.73 412.421C151.73 412.923 151.803 413.364 151.949 413.742C152.094 414.12 152.305 414.416 152.581 414.63C152.857 414.841 153.195 414.946 153.595 414.946C154.01 414.946 154.357 414.836 154.636 414.616C154.915 414.393 155.126 414.09 155.269 413.709C155.414 413.328 155.487 412.899 155.487 412.421C155.487 411.95 155.416 411.527 155.273 411.152C155.134 410.777 154.923 410.481 154.641 410.264C154.362 410.047 154.013 409.938 153.595 409.938C153.192 409.938 152.851 410.042 152.572 410.25C152.296 410.458 152.087 410.747 151.944 411.119C151.801 411.491 151.73 411.925 151.73 412.421ZM161.457 416.136C160.766 416.136 160.171 415.98 159.672 415.667C159.176 415.351 158.795 414.915 158.528 414.36C158.261 413.805 158.128 413.17 158.128 412.454C158.128 411.728 158.264 411.088 158.537 410.534C158.81 409.976 159.194 409.54 159.69 409.227C160.186 408.914 160.771 408.757 161.443 408.757C161.986 408.757 162.469 408.858 162.894 409.06C163.319 409.258 163.661 409.537 163.921 409.897C164.185 410.256 164.342 410.676 164.391 411.157H163.038C162.964 410.822 162.793 410.534 162.527 410.292C162.263 410.05 161.91 409.929 161.466 409.929C161.079 409.929 160.74 410.031 160.448 410.236C160.16 410.437 159.935 410.726 159.774 411.101C159.613 411.473 159.532 411.913 159.532 412.421C159.532 412.942 159.611 413.391 159.769 413.77C159.927 414.148 160.151 414.441 160.439 414.648C160.73 414.856 161.073 414.96 161.466 414.96C161.73 414.96 161.969 414.912 162.183 414.816C162.4 414.717 162.581 414.576 162.727 414.393C162.875 414.21 162.979 413.99 163.038 413.732H164.391C164.342 414.194 164.191 414.607 163.94 414.969C163.689 415.332 163.353 415.617 162.931 415.825C162.513 416.032 162.021 416.136 161.457 416.136ZM168.886 416.136C168.217 416.136 167.632 415.983 167.133 415.676C166.634 415.369 166.247 414.94 165.971 414.388C165.695 413.836 165.557 413.192 165.557 412.454C165.557 411.713 165.695 411.065 165.971 410.51C166.247 409.955 166.634 409.525 167.133 409.218C167.632 408.911 168.217 408.757 168.886 408.757C169.556 408.757 170.14 408.911 170.639 409.218C171.138 409.525 171.526 409.955 171.801 410.51C172.077 411.065 172.215 411.713 172.215 412.454C172.215 413.192 172.077 413.836 171.801 414.388C171.526 414.94 171.138 415.369 170.639 415.676C170.14 415.983 169.556 416.136 168.886 416.136ZM168.891 414.969C169.325 414.969 169.684 414.855 169.969 414.625C170.255 414.396 170.465 414.09 170.602 413.709C170.741 413.328 170.811 412.908 170.811 412.449C170.811 411.994 170.741 411.575 170.602 411.194C170.465 410.809 170.255 410.501 169.969 410.268C169.684 410.036 169.325 409.92 168.891 409.92C168.454 409.92 168.091 410.036 167.803 410.268C167.518 410.501 167.305 410.809 167.166 411.194C167.029 411.575 166.961 411.994 166.961 412.449C166.961 412.908 167.029 413.328 167.166 413.709C167.305 414.09 167.518 414.396 167.803 414.625C168.091 414.855 168.454 414.969 168.891 414.969ZM173.767 415.992V408.85H175.102V410.013H175.19C175.339 409.619 175.582 409.312 175.92 409.092C176.258 408.869 176.662 408.757 177.133 408.757C177.611 408.757 178.011 408.869 178.333 409.092C178.658 409.315 178.899 409.622 179.054 410.013H179.128C179.299 409.632 179.57 409.328 179.942 409.101C180.314 408.872 180.757 408.757 181.272 408.757C181.919 408.757 182.448 408.96 182.857 409.366C183.269 409.773 183.475 410.385 183.475 411.203V415.992H182.085V411.333C182.085 410.85 181.954 410.499 181.69 410.282C181.427 410.065 181.112 409.957 180.746 409.957C180.294 409.957 179.942 410.096 179.691 410.375C179.44 410.651 179.314 411.006 179.314 411.44V415.992H177.928V411.245C177.928 410.857 177.808 410.546 177.566 410.31C177.324 410.075 177.009 409.957 176.622 409.957C176.358 409.957 176.115 410.027 175.892 410.166C175.672 410.303 175.494 410.493 175.357 410.738C175.224 410.983 175.157 411.267 175.157 411.589V415.992H173.767ZM185.339 415.992V408.85H186.729V415.992H185.339ZM186.041 407.748C185.799 407.748 185.591 407.668 185.418 407.507C185.247 407.342 185.162 407.147 185.162 406.921C185.162 406.691 185.247 406.496 185.418 406.335C185.591 406.171 185.799 406.088 186.041 406.088C186.283 406.088 186.489 406.171 186.659 406.335C186.833 406.496 186.92 406.691 186.92 406.921C186.92 407.147 186.833 407.342 186.659 407.507C186.489 407.668 186.283 407.748 186.041 407.748ZM189.99 411.752V415.992H188.599V408.85H189.934V410.013H190.022C190.186 409.635 190.444 409.331 190.794 409.101C191.147 408.872 191.592 408.757 192.128 408.757C192.615 408.757 193.041 408.86 193.407 409.064C193.773 409.266 194.056 409.566 194.258 409.966C194.459 410.366 194.56 410.861 194.56 411.45V415.992H193.17V411.617C193.17 411.099 193.035 410.695 192.765 410.403C192.496 410.109 192.125 409.962 191.654 409.962C191.332 409.962 191.045 410.031 190.794 410.171C190.546 410.31 190.349 410.515 190.203 410.785C190.061 411.051 189.99 411.374 189.99 411.752ZM199.419 418.819C198.852 418.819 198.364 418.745 197.954 418.596C197.548 418.447 197.217 418.25 196.959 418.005C196.702 417.761 196.51 417.492 196.383 417.201L197.578 416.708C197.661 416.845 197.773 416.989 197.913 417.141C198.055 417.296 198.247 417.427 198.489 417.536C198.734 417.644 199.049 417.699 199.433 417.699C199.96 417.699 200.395 417.57 200.74 417.313C201.084 417.059 201.256 416.652 201.256 416.094V414.69H201.167C201.084 414.842 200.963 415.011 200.805 415.197C200.65 415.383 200.436 415.544 200.163 415.681C199.89 415.817 199.535 415.885 199.098 415.885C198.534 415.885 198.026 415.754 197.573 415.49C197.124 415.223 196.767 414.831 196.504 414.314C196.243 413.793 196.113 413.153 196.113 412.393C196.113 411.634 196.242 410.983 196.499 410.441C196.759 409.898 197.116 409.483 197.568 409.194C198.021 408.903 198.534 408.757 199.108 408.757C199.551 408.757 199.909 408.832 200.182 408.981C200.454 409.126 200.667 409.297 200.819 409.492C200.974 409.687 201.093 409.859 201.177 410.008H201.279V408.85H202.641V416.15C202.641 416.764 202.499 417.268 202.213 417.661C201.928 418.055 201.542 418.346 201.056 418.536C200.572 418.725 200.027 418.819 199.419 418.819ZM199.405 414.732C199.805 414.732 200.143 414.639 200.419 414.453C200.698 414.264 200.908 413.994 201.051 413.644C201.197 413.291 201.27 412.868 201.27 412.375C201.27 411.894 201.198 411.471 201.056 411.105C200.913 410.74 200.704 410.454 200.428 410.25C200.152 410.042 199.811 409.938 199.405 409.938C198.987 409.938 198.638 410.047 198.359 410.264C198.08 410.478 197.869 410.769 197.727 411.138C197.587 411.507 197.517 411.919 197.517 412.375C197.517 412.843 197.589 413.254 197.731 413.607C197.874 413.96 198.085 414.236 198.364 414.435C198.646 414.633 198.993 414.732 199.405 414.732ZM208.082 415.992V406.47H211.477C212.218 406.47 212.831 406.605 213.318 406.874C213.805 407.144 214.169 407.513 214.411 407.981C214.652 408.446 214.773 408.97 214.773 409.552C214.773 410.138 214.651 410.665 214.406 411.133C214.164 411.598 213.798 411.967 213.309 412.24C212.822 412.51 212.21 412.644 211.472 412.644H209.138V411.426H211.342C211.81 411.426 212.19 411.346 212.481 411.184C212.772 411.02 212.986 410.797 213.123 410.515C213.259 410.233 213.327 409.912 213.327 409.552C213.327 409.193 213.259 408.874 213.123 408.595C212.986 408.316 212.771 408.097 212.476 407.939C212.185 407.781 211.801 407.702 211.323 407.702H209.519V415.992H208.082ZM216.346 415.992V408.85H217.69V409.985H217.764C217.894 409.601 218.124 409.298 218.452 409.078C218.784 408.855 219.159 408.743 219.577 408.743C219.664 408.743 219.767 408.747 219.884 408.753C220.005 408.759 220.1 408.767 220.168 408.776V410.106C220.112 410.09 220.013 410.073 219.87 410.055C219.728 410.033 219.585 410.022 219.443 410.022C219.114 410.022 218.821 410.092 218.564 410.231C218.31 410.368 218.108 410.558 217.959 410.803C217.811 411.045 217.736 411.321 217.736 411.631V415.992H216.346ZM224.124 416.136C223.454 416.136 222.87 415.983 222.371 415.676C221.872 415.369 221.484 414.94 221.208 414.388C220.932 413.836 220.795 413.192 220.795 412.454C220.795 411.713 220.932 411.065 221.208 410.51C221.484 409.955 221.872 409.525 222.371 409.218C222.87 408.911 223.454 408.757 224.124 408.757C224.793 408.757 225.378 408.911 225.877 409.218C226.376 409.525 226.763 409.955 227.039 410.51C227.315 411.065 227.453 411.713 227.453 412.454C227.453 413.192 227.315 413.836 227.039 414.388C226.763 414.94 226.376 415.369 225.877 415.676C225.378 415.983 224.793 416.136 224.124 416.136ZM224.128 414.969C224.562 414.969 224.922 414.855 225.207 414.625C225.492 414.396 225.703 414.09 225.839 413.709C225.979 413.328 226.049 412.908 226.049 412.449C226.049 411.994 225.979 411.575 225.839 411.194C225.703 410.809 225.492 410.501 225.207 410.268C224.922 410.036 224.562 409.92 224.128 409.92C223.691 409.92 223.329 410.036 223.04 410.268C222.755 410.501 222.543 410.809 222.403 411.194C222.267 411.575 222.199 411.994 222.199 412.449C222.199 412.908 222.267 413.328 222.403 413.709C222.543 414.09 222.755 414.396 223.04 414.625C223.329 414.855 223.691 414.969 224.128 414.969ZM229.005 408.85H230.395V416.457C230.395 416.935 230.308 417.337 230.134 417.666C229.964 417.995 229.71 418.244 229.372 418.415C229.037 418.585 228.623 418.67 228.13 418.67C228.081 418.67 228.034 418.67 227.991 418.67C227.944 418.67 227.896 418.669 227.847 418.666V417.471C227.89 417.471 227.929 417.471 227.963 417.471C227.994 417.471 228.03 417.471 228.07 417.471C228.399 417.471 228.636 417.382 228.781 417.206C228.93 417.032 229.005 416.78 229.005 416.448V408.85ZM229.693 407.748C229.451 407.748 229.243 407.668 229.07 407.507C228.899 407.342 228.814 407.147 228.814 406.921C228.814 406.691 228.899 406.496 229.07 406.335C229.243 406.171 229.451 406.088 229.693 406.088C229.935 406.088 230.141 406.171 230.311 406.335C230.485 406.496 230.572 406.691 230.572 406.921C230.572 407.147 230.485 407.342 230.311 407.507C230.141 407.668 229.935 407.748 229.693 407.748ZM235.343 416.136C234.64 416.136 234.034 415.986 233.525 415.685C233.02 415.382 232.629 414.955 232.353 414.407C232.081 413.855 231.944 413.209 231.944 412.468C231.944 411.736 232.081 411.091 232.353 410.534C232.629 409.976 233.014 409.54 233.507 409.227C234.003 408.914 234.582 408.757 235.246 408.757C235.649 408.757 236.039 408.824 236.417 408.957C236.795 409.091 237.135 409.3 237.436 409.585C237.736 409.87 237.973 410.241 238.147 410.696C238.321 411.149 238.407 411.699 238.407 412.347V412.84H232.73V411.798H237.045C237.045 411.432 236.971 411.109 236.822 410.826C236.673 410.541 236.464 410.317 236.194 410.152C235.928 409.988 235.614 409.906 235.255 409.906C234.864 409.906 234.523 410.002 234.232 410.194C233.944 410.383 233.72 410.631 233.562 410.938C233.407 411.242 233.33 411.572 233.33 411.928V412.742C233.33 413.219 233.414 413.626 233.581 413.96C233.751 414.295 233.989 414.551 234.292 414.727C234.596 414.901 234.951 414.988 235.357 414.988C235.621 414.988 235.861 414.951 236.078 414.876C236.295 414.799 236.482 414.684 236.64 414.532C236.799 414.38 236.919 414.193 237.003 413.97L238.319 414.207C238.214 414.594 238.024 414.934 237.752 415.225C237.482 415.513 237.143 415.738 236.733 415.899C236.327 416.057 235.864 416.136 235.343 416.136ZM242.958 416.136C242.267 416.136 241.672 415.98 241.173 415.667C240.677 415.351 240.295 414.915 240.029 414.36C239.762 413.805 239.629 413.17 239.629 412.454C239.629 411.728 239.765 411.088 240.038 410.534C240.311 409.976 240.695 409.54 241.191 409.227C241.687 408.914 242.272 408.757 242.944 408.757C243.487 408.757 243.97 408.858 244.395 409.06C244.82 409.258 245.162 409.537 245.422 409.897C245.686 410.256 245.842 410.676 245.892 411.157H244.539C244.465 410.822 244.294 410.534 244.028 410.292C243.764 410.05 243.411 409.929 242.967 409.929C242.58 409.929 242.241 410.031 241.949 410.236C241.661 410.437 241.436 410.726 241.275 411.101C241.114 411.473 241.033 411.913 241.033 412.421C241.033 412.942 241.112 413.391 241.27 413.77C241.428 414.148 241.652 414.441 241.94 414.648C242.231 414.856 242.574 414.96 242.967 414.96C243.231 414.96 243.47 414.912 243.683 414.816C243.9 414.717 244.082 414.576 244.227 414.393C244.376 414.21 244.48 413.99 244.539 413.732H245.892C245.842 414.194 245.692 414.607 245.441 414.969C245.19 415.332 244.854 415.617 244.432 415.825C244.014 416.032 243.522 416.136 242.958 416.136ZM250.713 408.85V409.966H246.812V408.85H250.713ZM247.858 407.139H249.248V413.895C249.248 414.165 249.288 414.368 249.369 414.504C249.449 414.638 249.553 414.729 249.68 414.779C249.811 414.825 249.952 414.848 250.103 414.848C250.215 414.848 250.313 414.841 250.396 414.825C250.48 414.81 250.545 414.797 250.592 414.788L250.843 415.936C250.762 415.967 250.647 415.998 250.499 416.029C250.35 416.063 250.164 416.082 249.941 416.085C249.575 416.091 249.234 416.026 248.918 415.89C248.602 415.754 248.346 415.543 248.151 415.258C247.955 414.972 247.858 414.614 247.858 414.183V407.139ZM257.487 410.594L256.227 410.817C256.174 410.656 256.091 410.503 255.976 410.357C255.864 410.211 255.712 410.092 255.52 409.999C255.328 409.906 255.088 409.859 254.8 409.859C254.406 409.859 254.077 409.948 253.814 410.124C253.55 410.298 253.419 410.523 253.419 410.799C253.419 411.037 253.507 411.229 253.684 411.375C253.86 411.521 254.146 411.64 254.539 411.733L255.674 411.994C256.331 412.145 256.821 412.379 257.143 412.696C257.465 413.012 257.627 413.422 257.627 413.928C257.627 414.356 257.503 414.737 257.255 415.072C257.01 415.403 256.667 415.664 256.227 415.853C255.79 416.042 255.283 416.136 254.707 416.136C253.907 416.136 253.254 415.966 252.749 415.625C252.244 415.281 251.934 414.793 251.819 414.16L253.163 413.956C253.247 414.306 253.419 414.571 253.679 414.751C253.939 414.927 254.279 415.016 254.697 415.016C255.153 415.016 255.517 414.921 255.79 414.732C256.063 414.54 256.199 414.306 256.199 414.03C256.199 413.807 256.115 413.619 255.948 413.467C255.784 413.316 255.531 413.201 255.19 413.123L253.981 412.858C253.315 412.706 252.822 412.465 252.503 412.133C252.186 411.801 252.028 411.381 252.028 410.873C252.028 410.451 252.146 410.083 252.382 409.766C252.617 409.45 252.943 409.204 253.358 409.027C253.774 408.847 254.249 408.757 254.786 408.757C255.557 408.757 256.165 408.925 256.608 409.26C257.052 409.591 257.344 410.036 257.487 410.594Z" fill="#00654D"/>
<path d="M341.633 219.621H326.156V248.116H341.633V219.621Z" fill="#EAE2CF" stroke="#111726" stroke-width="1.01656" stroke-miterlimit="10"/>
<path d="M363.137 210.449H347.66V248.111H363.137V210.449Z" fill="#A99E53" stroke="#101727" stroke-width="1.01656" stroke-miterlimit="10"/>
<path d="M384.637 201.281H369.16V248.109H384.637V201.281Z" fill="#E9BE51" stroke="#111726" stroke-width="1.01656" stroke-miterlimit="10"/>
<path d="M406.137 192.121H390.66V248.115H406.137V192.121Z" fill="#01654D" stroke="#101727" stroke-width="1.01656" stroke-miterlimit="10"/>
<path d="M332.855 207.607L353.428 196.184L376.095 190.221L399.104 178.738" stroke="#101727" stroke-width="1.01656" stroke-miterlimit="10"/>
<path d="M332.858 211.457C334.983 211.457 336.705 209.734 336.705 207.609C336.705 205.484 334.983 203.762 332.858 203.762C330.734 203.762 329.012 205.484 329.012 207.609C329.012 209.734 330.734 211.457 332.858 211.457Z" fill="#EAE2CF"/>
<path d="M353.429 200.035C355.553 200.035 357.275 198.312 357.275 196.187C357.275 194.062 355.553 192.34 353.429 192.34C351.304 192.34 349.582 194.062 349.582 196.187C349.582 198.312 351.304 200.035 353.429 200.035Z" fill="#B7AB65"/>
<path d="M376.097 194.07C378.221 194.07 379.943 192.348 379.943 190.223C379.943 188.098 378.221 186.375 376.097 186.375C373.972 186.375 372.25 188.098 372.25 190.223C372.25 192.348 373.972 194.07 376.097 194.07Z" fill="#E9BE51"/>
<path d="M399.104 182.586C401.229 182.586 402.951 180.863 402.951 178.738C402.951 176.613 401.229 174.891 399.104 174.891C396.98 174.891 395.258 176.613 395.258 178.738C395.258 180.863 396.98 182.586 399.104 182.586Z" fill="#01654D"/>
<path d="M323 248.113H409.298" stroke="#101727" stroke-width="1.01656" stroke-miterlimit="10"/>
<path d="M315.285 266.992H313.76L317.187 257.47H318.847L322.274 266.992H320.749L318.057 259.199H317.982L315.285 266.992ZM315.541 263.263H320.488V264.472H315.541V263.263ZM326.431 267.136C325.739 267.136 325.144 266.98 324.645 266.667C324.149 266.351 323.768 265.915 323.501 265.36C323.235 264.805 323.101 264.17 323.101 263.454C323.101 262.728 323.238 262.088 323.511 261.534C323.783 260.976 324.168 260.54 324.664 260.227C325.16 259.914 325.744 259.757 326.417 259.757C326.959 259.757 327.443 259.858 327.867 260.06C328.292 260.258 328.634 260.537 328.895 260.897C329.158 261.256 329.315 261.676 329.364 262.157H328.011C327.937 261.822 327.767 261.534 327.5 261.292C327.236 261.05 326.883 260.929 326.44 260.929C326.052 260.929 325.713 261.031 325.422 261.236C325.133 261.437 324.909 261.726 324.747 262.101C324.586 262.473 324.506 262.913 324.506 263.421C324.506 263.942 324.585 264.391 324.743 264.77C324.901 265.148 325.124 265.441 325.412 265.648C325.704 265.856 326.046 265.96 326.44 265.96C326.703 265.96 326.942 265.912 327.156 265.816C327.373 265.717 327.554 265.576 327.7 265.393C327.849 265.21 327.953 264.99 328.011 264.732H329.364C329.315 265.194 329.165 265.607 328.913 265.969C328.662 266.332 328.326 266.617 327.904 266.825C327.486 267.032 326.995 267.136 326.431 267.136ZM334.185 259.85V260.966H330.284V259.85H334.185ZM331.33 258.139H332.72V264.895C332.72 265.165 332.761 265.368 332.841 265.504C332.922 265.638 333.026 265.729 333.153 265.779C333.283 265.825 333.424 265.848 333.576 265.848C333.687 265.848 333.785 265.841 333.869 265.825C333.952 265.81 334.018 265.797 334.064 265.788L334.315 266.936C334.235 266.967 334.12 266.998 333.971 267.029C333.822 267.063 333.636 267.082 333.413 267.085C333.047 267.091 332.706 267.026 332.39 266.89C332.074 266.754 331.818 266.543 331.623 266.258C331.428 265.972 331.33 265.614 331.33 265.183V258.139ZM335.723 266.992V259.85H337.113V266.992H335.723ZM336.425 258.748C336.183 258.748 335.975 258.668 335.802 258.507C335.631 258.342 335.546 258.147 335.546 257.921C335.546 257.691 335.631 257.496 335.802 257.335C335.975 257.171 336.183 257.088 336.425 257.088C336.667 257.088 336.873 257.171 337.043 257.335C337.217 257.496 337.304 257.691 337.304 257.921C337.304 258.147 337.217 258.342 337.043 258.507C336.873 258.668 336.667 258.748 336.425 258.748ZM345.093 259.85L342.503 266.992H341.015L338.421 259.85H339.913L341.722 265.346H341.796L343.6 259.85H345.093ZM346.4 266.992V259.85H347.79V266.992H346.4ZM347.102 258.748C346.86 258.748 346.652 258.668 346.479 258.507C346.308 258.342 346.223 258.147 346.223 257.921C346.223 257.691 346.308 257.496 346.479 257.335C346.652 257.171 346.86 257.088 347.102 257.088C347.343 257.088 347.55 257.171 347.72 257.335C347.894 257.496 347.98 257.691 347.98 257.921C347.98 258.147 347.894 258.342 347.72 258.507C347.55 258.668 347.343 258.748 347.102 258.748ZM352.994 259.85V260.966H349.093V259.85H352.994ZM350.139 258.139H351.529V264.895C351.529 265.165 351.57 265.368 351.65 265.504C351.731 265.638 351.835 265.729 351.962 265.779C352.092 265.825 352.233 265.848 352.385 265.848C352.496 265.848 352.594 265.841 352.678 265.825C352.761 265.81 352.826 265.797 352.873 265.788L353.124 266.936C353.043 266.967 352.929 266.998 352.78 267.029C352.631 267.063 352.445 267.082 352.222 267.085C351.856 267.091 351.515 267.026 351.199 266.89C350.883 266.754 350.627 266.543 350.432 266.258C350.237 265.972 350.139 265.614 350.139 265.183V258.139ZM355.41 269.67C355.203 269.67 355.014 269.653 354.843 269.619C354.673 269.588 354.546 269.554 354.462 269.517L354.797 268.378C355.051 268.446 355.277 268.475 355.476 268.466C355.674 268.457 355.849 268.382 356.001 268.243C356.156 268.103 356.292 267.876 356.41 267.559L356.582 267.085L353.969 259.85H355.457L357.266 265.393H357.34L359.149 259.85H360.641L357.698 267.945C357.562 268.317 357.388 268.632 357.177 268.889C356.967 269.15 356.715 269.345 356.424 269.475C356.133 269.605 355.795 269.67 355.41 269.67ZM365.055 258.707V257.47H372.425V258.707H369.454V266.992H368.021V258.707H365.055ZM373.2 266.992V259.85H374.544V260.985H374.618C374.748 260.601 374.978 260.298 375.306 260.078C375.638 259.855 376.013 259.743 376.431 259.743C376.518 259.743 376.621 259.747 376.738 259.753C376.859 259.759 376.954 259.767 377.022 259.776V261.106C376.966 261.09 376.867 261.073 376.724 261.055C376.582 261.033 376.439 261.022 376.297 261.022C375.968 261.022 375.675 261.092 375.418 261.231C375.164 261.368 374.962 261.558 374.813 261.803C374.665 262.045 374.59 262.321 374.59 262.631V266.992H373.2ZM380.239 267.15C379.787 267.15 379.378 267.067 379.012 266.899C378.646 266.729 378.356 266.482 378.142 266.16C377.932 265.838 377.826 265.442 377.826 264.974C377.826 264.571 377.904 264.24 378.059 263.979C378.214 263.719 378.423 263.513 378.686 263.361C378.95 263.209 379.244 263.094 379.57 263.017C379.895 262.939 380.227 262.88 380.565 262.84C380.993 262.79 381.34 262.75 381.606 262.719C381.873 262.685 382.067 262.631 382.188 262.556C382.309 262.482 382.369 262.361 382.369 262.194V262.161C382.369 261.755 382.254 261.441 382.025 261.217C381.799 260.994 381.461 260.883 381.011 260.883C380.543 260.883 380.174 260.986 379.905 261.194C379.638 261.399 379.454 261.627 379.351 261.878L378.045 261.58C378.2 261.146 378.426 260.796 378.724 260.529C379.024 260.26 379.37 260.064 379.761 259.943C380.151 259.819 380.562 259.757 380.993 259.757C381.278 259.757 381.58 259.791 381.899 259.86C382.222 259.925 382.522 260.046 382.801 260.222C383.083 260.399 383.314 260.652 383.494 260.98C383.674 261.306 383.764 261.729 383.764 262.25V266.992H382.406V266.016H382.35C382.261 266.196 382.126 266.372 381.946 266.546C381.766 266.719 381.535 266.864 381.253 266.978C380.971 267.093 380.633 267.15 380.239 267.15ZM380.542 266.034C380.926 266.034 381.255 265.958 381.527 265.807C381.803 265.655 382.013 265.456 382.155 265.211C382.301 264.963 382.374 264.698 382.374 264.416V263.496C382.324 263.545 382.228 263.592 382.085 263.635C381.946 263.675 381.786 263.711 381.606 263.742C381.427 263.77 381.252 263.796 381.081 263.821C380.911 263.843 380.768 263.861 380.653 263.877C380.384 263.911 380.137 263.968 379.914 264.049C379.694 264.13 379.517 264.246 379.384 264.398C379.254 264.546 379.189 264.745 379.189 264.993C379.189 265.337 379.316 265.597 379.57 265.774C379.824 265.948 380.148 266.034 380.542 266.034ZM388.624 267.136C387.933 267.136 387.338 266.98 386.838 266.667C386.342 266.351 385.961 265.915 385.695 265.36C385.428 264.805 385.295 264.17 385.295 263.454C385.295 262.728 385.431 262.088 385.704 261.534C385.977 260.976 386.361 260.54 386.857 260.227C387.353 259.914 387.937 259.757 388.61 259.757C389.152 259.757 389.636 259.858 390.061 260.06C390.485 260.258 390.828 260.537 391.088 260.897C391.352 261.256 391.508 261.676 391.558 262.157H390.205C390.13 261.822 389.96 261.534 389.693 261.292C389.43 261.05 389.076 260.929 388.633 260.929C388.246 260.929 387.906 261.031 387.615 261.236C387.327 261.437 387.102 261.726 386.941 262.101C386.78 262.473 386.699 262.913 386.699 263.421C386.699 263.942 386.778 264.391 386.936 264.77C387.094 265.148 387.317 265.441 387.606 265.648C387.897 265.856 388.24 265.96 388.633 265.96C388.897 265.96 389.135 265.912 389.349 265.816C389.566 265.717 389.748 265.576 389.893 265.393C390.042 265.21 390.146 264.99 390.205 264.732H391.558C391.508 265.194 391.358 265.607 391.107 265.969C390.856 266.332 390.519 266.617 390.098 266.825C389.679 267.032 389.188 267.136 388.624 267.136ZM394.323 264.57L394.314 262.873H394.556L397.401 259.85H399.066L395.82 263.291H395.602L394.323 264.57ZM393.045 266.992V257.47H394.435V266.992H393.045ZM397.555 266.992L394.997 263.598L395.955 262.626L399.261 266.992H397.555ZM400.333 266.992V259.85H401.723V266.992H400.333ZM401.035 258.748C400.793 258.748 400.585 258.668 400.412 258.507C400.241 258.342 400.156 258.147 400.156 257.921C400.156 257.691 400.241 257.496 400.412 257.335C400.585 257.171 400.793 257.088 401.035 257.088C401.277 257.088 401.483 257.171 401.653 257.335C401.827 257.496 401.914 257.691 401.914 257.921C401.914 258.147 401.827 258.342 401.653 258.507C401.483 258.668 401.277 258.748 401.035 258.748ZM404.984 262.752V266.992H403.593V259.85H404.928V261.013H405.016C405.18 260.635 405.438 260.331 405.788 260.101C406.141 259.872 406.586 259.757 407.122 259.757C407.609 259.757 408.035 259.86 408.401 260.064C408.767 260.266 409.05 260.566 409.252 260.966C409.453 261.366 409.554 261.861 409.554 262.45V266.992H408.164V262.617C408.164 262.099 408.029 261.695 407.759 261.403C407.49 261.109 407.119 260.962 406.648 260.962C406.326 260.962 406.039 261.031 405.788 261.171C405.54 261.31 405.343 261.515 405.197 261.785C405.055 262.051 404.984 262.374 404.984 262.752ZM414.413 269.819C413.846 269.819 413.358 269.745 412.948 269.596C412.542 269.447 412.211 269.25 411.953 269.005C411.696 268.761 411.504 268.492 411.377 268.201L412.572 267.708C412.655 267.845 412.767 267.989 412.907 268.141C413.049 268.296 413.241 268.427 413.483 268.536C413.728 268.644 414.043 268.699 414.427 268.699C414.954 268.699 415.389 268.57 415.734 268.313C416.078 268.059 416.25 267.652 416.25 267.094V265.69H416.161C416.078 265.842 415.957 266.011 415.799 266.197C415.644 266.383 415.43 266.544 415.157 266.681C414.884 266.817 414.529 266.885 414.092 266.885C413.528 266.885 413.02 266.754 412.567 266.49C412.118 266.223 411.761 265.831 411.498 265.314C411.237 264.793 411.107 264.153 411.107 263.393C411.107 262.634 411.236 261.983 411.493 261.441C411.753 260.898 412.11 260.483 412.562 260.194C413.015 259.903 413.528 259.757 414.102 259.757C414.545 259.757 414.903 259.832 415.176 259.981C415.448 260.126 415.661 260.297 415.813 260.492C415.968 260.687 416.087 260.859 416.171 261.008H416.273V259.85H417.635V267.15C417.635 267.764 417.493 268.268 417.207 268.661C416.922 269.055 416.536 269.346 416.05 269.536C415.566 269.725 415.021 269.819 414.413 269.819ZM414.399 265.732C414.799 265.732 415.137 265.639 415.413 265.453C415.692 265.264 415.902 264.994 416.045 264.644C416.191 264.291 416.264 263.868 416.264 263.375C416.264 262.894 416.192 262.471 416.05 262.105C415.907 261.74 415.698 261.454 415.422 261.25C415.146 261.042 414.805 260.938 414.399 260.938C413.981 260.938 413.632 261.047 413.353 261.264C413.074 261.478 412.863 261.769 412.721 262.138C412.581 262.507 412.511 262.919 412.511 263.375C412.511 263.843 412.583 264.254 412.725 264.607C412.868 264.96 413.079 265.236 413.358 265.435C413.64 265.633 413.987 265.732 414.399 265.732Z" fill="#00654D"/>
<path d="M3.78291 266.992V257.47H9.75303V258.707H5.21964V261.608H9.4415V262.84H5.21964V265.755H9.80882V266.992H3.78291ZM12.9508 262.752V266.992H11.5606V259.85H12.895V261.013H12.9834C13.1476 260.635 13.4049 260.331 13.7552 260.101C14.1086 259.872 14.5534 259.757 15.0896 259.757C15.5763 259.757 16.0025 259.86 16.3683 260.064C16.7341 260.266 17.0177 260.566 17.2192 260.966C17.4206 261.366 17.5214 261.861 17.5214 262.45V266.992H16.1311V262.617C16.1311 262.099 15.9963 261.695 15.7266 261.403C15.457 261.109 15.0865 260.962 14.6154 260.962C14.293 260.962 14.0063 261.031 13.7552 261.171C13.5072 261.31 13.3104 261.515 13.1647 261.785C13.0221 262.051 12.9508 262.374 12.9508 262.752ZM22.3802 269.819C21.813 269.819 21.3248 269.745 20.9156 269.596C20.5095 269.447 20.1779 269.25 19.9206 269.005C19.6633 268.761 19.4711 268.492 19.344 268.201L20.539 267.708C20.6227 267.845 20.7343 267.989 20.8738 268.141C21.0164 268.296 21.2085 268.427 21.4503 268.536C21.6952 268.644 22.0098 268.699 22.3942 268.699C22.9211 268.699 23.3567 268.57 23.7007 268.313C24.0448 268.059 24.2168 267.652 24.2168 267.094V265.69H24.1285C24.0448 265.842 23.9239 266.011 23.7658 266.197C23.6108 266.383 23.397 266.544 23.1242 266.681C22.8514 266.817 22.4965 266.885 22.0594 266.885C21.4953 266.885 20.9869 266.754 20.5343 266.49C20.0849 266.223 19.7284 265.831 19.4649 265.314C19.2046 264.793 19.0744 264.153 19.0744 263.393C19.0744 262.634 19.203 261.983 19.4603 261.441C19.7207 260.898 20.0771 260.483 20.5297 260.194C20.9823 259.903 21.4953 259.757 22.0687 259.757C22.512 259.757 22.87 259.832 23.1428 259.981C23.4156 260.126 23.6279 260.297 23.7798 260.492C23.9348 260.687 24.0541 260.859 24.1378 261.008H24.2401V259.85H25.6024V267.15C25.6024 267.764 25.4598 268.268 25.1747 268.661C24.8895 269.055 24.5036 269.346 24.0169 269.536C23.5334 269.725 22.9878 269.819 22.3802 269.819ZM22.3663 265.732C22.7662 265.732 23.104 265.639 23.3799 265.453C23.6589 265.264 23.8697 264.994 24.0123 264.644C24.158 264.291 24.2308 263.868 24.2308 263.375C24.2308 262.894 24.1595 262.471 24.0169 262.105C23.8743 261.74 23.6651 261.454 23.3892 261.25C23.1133 261.042 22.7724 260.938 22.3663 260.938C21.9478 260.938 21.5991 261.047 21.3201 261.264C21.0412 261.478 20.8304 261.769 20.6878 262.138C20.5483 262.507 20.4785 262.919 20.4785 263.375C20.4785 263.843 20.5498 264.254 20.6924 264.607C20.835 264.96 21.0458 265.236 21.3248 265.435C21.6069 265.633 21.954 265.732 22.3663 265.732ZM29.5453 267.15C29.0928 267.15 28.6836 267.067 28.3178 266.899C27.952 266.729 27.6622 266.482 27.4483 266.16C27.2376 265.838 27.1322 265.442 27.1322 264.974C27.1322 264.571 27.2097 264.24 27.3646 263.979C27.5196 263.719 27.7289 263.513 27.9923 263.361C28.2558 263.209 28.5503 263.094 28.8758 263.017C29.2012 262.939 29.5329 262.88 29.8708 262.84C30.2986 262.79 30.6457 262.75 30.9123 262.719C31.1789 262.685 31.3726 262.631 31.4935 262.556C31.6144 262.482 31.6748 262.361 31.6748 262.194V262.161C31.6748 261.755 31.5602 261.441 31.3308 261.217C31.1045 260.994 30.7666 260.883 30.3172 260.883C29.8491 260.883 29.4802 260.986 29.2105 261.194C28.944 261.399 28.7595 261.627 28.6572 261.878L27.3507 261.58C27.5057 261.146 27.732 260.796 28.0295 260.529C28.3302 260.26 28.6758 260.064 29.0664 259.943C29.457 259.819 29.8677 259.757 30.2986 259.757C30.5837 259.757 30.886 259.791 31.2052 259.86C31.5276 259.925 31.8283 260.046 32.1073 260.222C32.3893 260.399 32.6203 260.652 32.8001 260.98C32.9798 261.306 33.0697 261.729 33.0697 262.25V266.992H31.712V266.016H31.6562C31.5664 266.196 31.4315 266.372 31.2517 266.546C31.0719 266.719 30.841 266.864 30.5589 266.978C30.2769 267.093 29.939 267.15 29.5453 267.15ZM29.8475 266.034C30.2319 266.034 30.5605 265.958 30.8333 265.807C31.1091 265.655 31.3184 265.456 31.461 265.211C31.6066 264.963 31.6795 264.698 31.6795 264.416V263.496C31.6299 263.545 31.5338 263.592 31.3912 263.635C31.2517 263.675 31.0921 263.711 30.9123 263.742C30.7325 263.77 30.5574 263.796 30.3869 263.821C30.2164 263.843 30.0738 263.861 29.9591 263.877C29.6895 263.911 29.443 263.968 29.2198 264.049C28.9998 264.13 28.8231 264.246 28.6898 264.398C28.5596 264.546 28.4945 264.745 28.4945 264.993C28.4945 265.337 28.6216 265.597 28.8758 265.774C29.1299 265.948 29.4539 266.034 29.8475 266.034ZM37.9158 269.819C37.3485 269.819 36.8603 269.745 36.4512 269.596C36.0451 269.447 35.7134 269.25 35.4562 269.005C35.1989 268.761 35.0067 268.492 34.8796 268.201L36.0746 267.708C36.1582 267.845 36.2698 267.989 36.4093 268.141C36.5519 268.296 36.7441 268.427 36.9859 268.536C37.2308 268.644 37.5454 268.699 37.9298 268.699C38.4567 268.699 38.8922 268.57 39.2363 268.313C39.5804 268.059 39.7524 267.652 39.7524 267.094V265.69H39.6641C39.5804 265.842 39.4595 266.011 39.3014 266.197C39.1464 266.383 38.9325 266.544 38.6597 266.681C38.387 266.817 38.032 266.885 37.595 266.885C37.0308 266.885 36.5225 266.754 36.0699 266.49C35.6204 266.223 35.264 265.831 35.0005 265.314C34.7401 264.793 34.6099 264.153 34.6099 263.393C34.6099 262.634 34.7386 261.983 34.9958 261.441C35.2562 260.898 35.6127 260.483 36.0653 260.194C36.5178 259.903 37.0308 259.757 37.6043 259.757C38.0475 259.757 38.4056 259.832 38.6783 259.981C38.9511 260.126 39.1635 260.297 39.3153 260.492C39.4703 260.687 39.5897 260.859 39.6734 261.008H39.7757V259.85H41.138V267.15C41.138 267.764 40.9954 268.268 40.7102 268.661C40.425 269.055 40.0391 269.346 39.5525 269.536C39.0689 269.725 38.5234 269.819 37.9158 269.819ZM37.9019 265.732C38.3017 265.732 38.6396 265.639 38.9155 265.453C39.1944 265.264 39.4052 264.994 39.5478 264.644C39.6935 264.291 39.7664 263.868 39.7664 263.375C39.7664 262.894 39.6951 262.471 39.5525 262.105C39.4099 261.74 39.2006 261.454 38.9248 261.25C38.6489 261.042 38.3079 260.938 37.9019 260.938C37.4834 260.938 37.1347 261.047 36.8557 261.264C36.5767 261.478 36.3659 261.769 36.2233 262.138C36.0839 262.507 36.0141 262.919 36.0141 263.375C36.0141 263.843 36.0854 264.254 36.228 264.607C36.3706 264.96 36.5814 265.236 36.8603 265.435C37.1424 265.633 37.4896 265.732 37.9019 265.732ZM46.0805 267.136C45.3769 267.136 44.7709 266.986 44.2625 266.685C43.7573 266.382 43.3667 265.955 43.0908 265.407C42.8181 264.855 42.6817 264.209 42.6817 263.468C42.6817 262.736 42.8181 262.091 43.0908 261.534C43.3667 260.976 43.7511 260.54 44.2439 260.227C44.7399 259.914 45.3196 259.757 45.9829 259.757C46.3859 259.757 46.7764 259.824 47.1546 259.957C47.5328 260.091 47.8722 260.3 48.1729 260.585C48.4735 260.87 48.7107 261.241 48.8843 261.696C49.0579 262.149 49.1446 262.699 49.1446 263.347V263.84H43.4675V262.798H47.7823C47.7823 262.432 47.7079 262.109 47.5591 261.826C47.4103 261.541 47.2011 261.317 46.9314 261.152C46.6648 260.988 46.3518 260.906 45.9922 260.906C45.6016 260.906 45.2607 261.002 44.9693 261.194C44.681 261.383 44.4578 261.631 44.2997 261.938C44.1447 262.242 44.0673 262.572 44.0673 262.928V263.742C44.0673 264.219 44.1509 264.626 44.3183 264.96C44.4888 265.295 44.726 265.551 45.0297 265.727C45.3335 265.901 45.6884 265.988 46.0945 265.988C46.358 265.988 46.5982 265.951 46.8152 265.876C47.0322 265.799 47.2197 265.684 47.3778 265.532C47.5359 265.38 47.6568 265.193 47.7405 264.97L49.0563 265.207C48.9509 265.594 48.7618 265.934 48.489 266.225C48.2194 266.513 47.8799 266.738 47.4708 266.899C47.0647 267.057 46.6013 267.136 46.0805 267.136ZM54.2639 266.992V257.47H60.234V258.707H55.7006V261.608H59.9225V262.84H55.7006V265.755H60.2898V266.992H54.2639ZM64.1199 267.15C63.6674 267.15 63.2582 267.067 62.8924 266.899C62.5266 266.729 62.2368 266.482 62.0229 266.16C61.8122 265.838 61.7068 265.442 61.7068 264.974C61.7068 264.571 61.7843 264.24 61.9392 263.979C62.0942 263.719 62.3035 263.513 62.5669 263.361C62.8304 263.209 63.1249 263.094 63.4504 263.017C63.7758 262.939 64.1075 262.88 64.4454 262.84C64.8732 262.79 65.2203 262.75 65.4869 262.719C65.7535 262.685 65.9472 262.631 66.0681 262.556C66.189 262.482 66.2494 262.361 66.2494 262.194V262.161C66.2494 261.755 66.1348 261.441 65.9054 261.217C65.6791 260.994 65.3412 260.883 64.8918 260.883C64.4237 260.883 64.0548 260.986 63.7851 261.194C63.5186 261.399 63.3341 261.627 63.2318 261.878L61.9253 261.58C62.0803 261.146 62.3066 260.796 62.6041 260.529C62.9048 260.26 63.2504 260.064 63.641 259.943C64.0316 259.819 64.4423 259.757 64.8732 259.757C65.1583 259.757 65.4606 259.791 65.7798 259.86C66.1022 259.925 66.4029 260.046 66.6819 260.222C66.9639 260.399 67.1949 260.652 67.3747 260.98C67.5544 261.306 67.6443 261.729 67.6443 262.25V266.992H66.2866V266.016H66.2309C66.141 266.196 66.0061 266.372 65.8263 266.546C65.6465 266.719 65.4156 266.864 65.1335 266.978C64.8515 267.093 64.5136 267.15 64.1199 267.15ZM64.4221 266.034C64.8065 266.034 65.1351 265.958 65.4079 265.807C65.6837 265.655 65.893 265.456 66.0356 265.211C66.1813 264.963 66.2541 264.698 66.2541 264.416V263.496C66.2045 263.545 66.1084 263.592 65.9658 263.635C65.8263 263.675 65.6667 263.711 65.4869 263.742C65.3071 263.77 65.132 263.796 64.9615 263.821C64.791 263.843 64.6484 263.861 64.5337 263.877C64.2641 263.911 64.0176 263.968 63.7944 264.049C63.5744 264.13 63.3977 264.246 63.2644 264.398C63.1342 264.546 63.0691 264.745 63.0691 264.993C63.0691 265.337 63.1962 265.597 63.4504 265.774C63.7046 265.948 64.0285 266.034 64.4221 266.034ZM69.4961 266.992V259.85H70.8398V260.985H70.9142C71.0444 260.601 71.2738 260.298 71.6023 260.078C71.934 259.855 72.3091 259.743 72.7275 259.743C72.8143 259.743 72.9166 259.747 73.0344 259.753C73.1553 259.759 73.2498 259.767 73.318 259.776V261.106C73.2622 261.09 73.1631 261.073 73.0205 261.055C72.8779 261.033 72.7353 261.022 72.5927 261.022C72.2641 261.022 71.9712 261.092 71.7139 261.231C71.4597 261.368 71.2583 261.558 71.1095 261.803C70.9607 262.045 70.8863 262.321 70.8863 262.631V266.992H69.4961ZM75.9114 257.47V266.992H74.5211V257.47H75.9114ZM78.6605 269.67C78.4528 269.67 78.2637 269.653 78.0932 269.619C77.9227 269.588 77.7956 269.554 77.7119 269.517L78.0467 268.378C78.3009 268.446 78.5272 268.475 78.7256 268.466C78.9239 268.457 79.0991 268.382 79.251 268.243C79.406 268.103 79.5423 267.876 79.6601 267.559L79.8322 267.085L77.2191 259.85H78.707L80.5157 265.393H80.5901L82.3988 259.85H83.8913L80.9481 267.945C80.8117 268.317 80.6381 268.632 80.4273 268.889C80.2165 269.15 79.9655 269.345 79.6741 269.475C79.3827 269.605 79.0448 269.67 78.6605 269.67Z" fill="#00654D"/>
<path d="M160.127 266.719V257.196H166.097V258.433H161.564V261.334H165.785V262.567H161.564V265.482H166.153V266.719H160.127ZM169.983 266.877C169.53 266.877 169.121 266.793 168.755 266.626C168.39 266.455 168.1 266.209 167.886 265.886C167.675 265.564 167.57 265.169 167.57 264.701C167.57 264.298 167.647 263.966 167.802 263.706C167.957 263.445 168.166 263.239 168.43 263.087C168.693 262.936 168.988 262.821 169.313 262.743C169.639 262.666 169.97 262.607 170.308 262.567C170.736 262.517 171.083 262.477 171.35 262.446C171.616 262.412 171.81 262.357 171.931 262.283C172.052 262.209 172.112 262.088 172.112 261.92V261.888C172.112 261.482 171.998 261.167 171.768 260.944C171.542 260.721 171.204 260.609 170.755 260.609C170.287 260.609 169.918 260.713 169.648 260.921C169.382 261.125 169.197 261.353 169.095 261.604L167.788 261.307C167.943 260.873 168.17 260.522 168.467 260.256C168.768 259.986 169.113 259.791 169.504 259.67C169.895 259.546 170.305 259.484 170.736 259.484C171.021 259.484 171.323 259.518 171.643 259.586C171.965 259.651 172.266 259.772 172.545 259.949C172.827 260.126 173.058 260.378 173.238 260.707C173.417 261.032 173.507 261.455 173.507 261.976V266.719H172.15V265.742H172.094C172.004 265.922 171.869 266.099 171.689 266.272C171.509 266.446 171.279 266.59 170.996 266.705C170.714 266.819 170.377 266.877 169.983 266.877ZM170.285 265.761C170.669 265.761 170.998 265.685 171.271 265.533C171.547 265.381 171.756 265.183 171.899 264.938C172.044 264.69 172.117 264.425 172.117 264.143V263.222C172.067 263.272 171.971 263.318 171.829 263.362C171.689 263.402 171.53 263.438 171.35 263.469C171.17 263.497 170.995 263.523 170.824 263.548C170.654 263.569 170.511 263.588 170.397 263.604C170.127 263.638 169.881 263.695 169.657 263.776C169.437 263.856 169.261 263.972 169.127 264.124C168.997 264.273 168.932 264.471 168.932 264.719C168.932 265.063 169.059 265.324 169.313 265.501C169.567 265.674 169.891 265.761 170.285 265.761ZM175.359 266.719V259.577H176.703V260.711H176.777C176.907 260.327 177.137 260.025 177.465 259.805C177.797 259.582 178.172 259.47 178.59 259.47C178.677 259.47 178.78 259.473 178.897 259.479C179.018 259.485 179.113 259.493 179.181 259.503V260.832C179.125 260.817 179.026 260.8 178.883 260.781C178.741 260.759 178.598 260.749 178.456 260.749C178.127 260.749 177.834 260.818 177.577 260.958C177.323 261.094 177.121 261.285 176.972 261.53C176.824 261.772 176.749 262.047 176.749 262.357V266.719H175.359ZM181.774 257.196V266.719H180.384V257.196H181.774ZM184.523 269.397C184.316 269.397 184.127 269.38 183.956 269.346C183.786 269.315 183.659 269.281 183.575 269.243L183.91 268.104C184.164 268.173 184.39 268.202 184.588 268.193C184.787 268.183 184.962 268.109 185.114 267.969C185.269 267.83 185.405 267.602 185.523 267.286L185.695 266.812L183.082 259.577H184.57L186.379 265.119H186.453L188.262 259.577H189.754L186.811 267.672C186.675 268.044 186.501 268.359 186.29 268.616C186.079 268.876 185.828 269.071 185.537 269.202C185.246 269.332 184.908 269.397 184.523 269.397ZM199.831 259.698C199.782 259.258 199.577 258.917 199.217 258.675C198.858 258.43 198.405 258.308 197.86 258.308C197.469 258.308 197.131 258.37 196.846 258.494C196.561 258.614 196.339 258.782 196.181 258.996C196.026 259.207 195.949 259.447 195.949 259.716C195.949 259.943 196.001 260.138 196.107 260.302C196.215 260.467 196.356 260.604 196.53 260.716C196.707 260.825 196.896 260.916 197.097 260.99C197.299 261.062 197.492 261.121 197.678 261.167L198.608 261.409C198.912 261.483 199.224 261.584 199.543 261.711C199.862 261.838 200.158 262.006 200.431 262.213C200.704 262.421 200.924 262.678 201.091 262.985C201.262 263.292 201.347 263.659 201.347 264.087C201.347 264.626 201.207 265.105 200.928 265.524C200.653 265.942 200.251 266.272 199.724 266.514C199.2 266.756 198.566 266.877 197.822 266.877C197.11 266.877 196.493 266.764 195.972 266.537C195.451 266.311 195.044 265.99 194.749 265.575C194.455 265.156 194.292 264.661 194.261 264.087H195.702C195.73 264.431 195.842 264.718 196.037 264.947C196.235 265.174 196.488 265.342 196.795 265.454C197.105 265.563 197.444 265.617 197.813 265.617C198.219 265.617 198.58 265.553 198.897 265.426C199.216 265.296 199.467 265.116 199.65 264.887C199.833 264.654 199.924 264.383 199.924 264.073C199.924 263.791 199.844 263.56 199.682 263.38C199.524 263.201 199.309 263.052 199.036 262.934C198.766 262.816 198.461 262.712 198.12 262.622L196.995 262.316C196.232 262.108 195.628 261.803 195.181 261.4C194.738 260.997 194.517 260.463 194.517 259.8C194.517 259.251 194.665 258.773 194.963 258.363C195.261 257.954 195.664 257.636 196.172 257.41C196.68 257.181 197.254 257.066 197.892 257.066C198.537 257.066 199.106 257.179 199.599 257.406C200.095 257.632 200.485 257.943 200.77 258.34C201.056 258.734 201.204 259.186 201.217 259.698H199.831ZM202.952 266.719V259.577H204.342V266.719H202.952ZM203.654 258.475C203.412 258.475 203.205 258.394 203.031 258.233C202.861 258.069 202.775 257.874 202.775 257.647C202.775 257.418 202.861 257.223 203.031 257.061C203.205 256.897 203.412 256.815 203.654 256.815C203.896 256.815 204.102 256.897 204.273 257.061C204.446 257.223 204.533 257.418 204.533 257.647C204.533 257.874 204.446 258.069 204.273 258.233C204.102 258.394 203.896 258.475 203.654 258.475ZM209.207 269.546C208.64 269.546 208.152 269.471 207.742 269.323C207.336 269.174 207.005 268.977 206.747 268.732C206.49 268.487 206.298 268.219 206.171 267.928L207.366 267.435C207.45 267.571 207.561 267.715 207.701 267.867C207.843 268.022 208.035 268.154 208.277 268.262C208.522 268.371 208.837 268.425 209.221 268.425C209.748 268.425 210.184 268.297 210.528 268.039C210.872 267.785 211.044 267.379 211.044 266.821V265.417H210.955C210.872 265.569 210.751 265.738 210.593 265.924C210.438 266.11 210.224 266.271 209.951 266.407C209.678 266.544 209.323 266.612 208.886 266.612C208.322 266.612 207.814 266.48 207.361 266.217C206.912 265.95 206.555 265.558 206.292 265.04C206.031 264.519 205.901 263.879 205.901 263.12C205.901 262.361 206.03 261.71 206.287 261.167C206.548 260.625 206.904 260.209 207.357 259.921C207.809 259.63 208.322 259.484 208.896 259.484C209.339 259.484 209.697 259.558 209.97 259.707C210.242 259.853 210.455 260.023 210.607 260.219C210.762 260.414 210.881 260.586 210.965 260.735H211.067V259.577H212.429V266.877C212.429 267.491 212.287 267.994 212.002 268.388C211.716 268.782 211.33 269.073 210.844 269.262C210.36 269.451 209.815 269.546 209.207 269.546ZM209.193 265.459C209.593 265.459 209.931 265.366 210.207 265.18C210.486 264.991 210.697 264.721 210.839 264.371C210.985 264.017 211.058 263.594 211.058 263.101C211.058 262.621 210.986 262.198 210.844 261.832C210.701 261.466 210.492 261.181 210.216 260.976C209.94 260.769 209.599 260.665 209.193 260.665C208.775 260.665 208.426 260.773 208.147 260.99C207.868 261.204 207.657 261.496 207.515 261.865C207.375 262.233 207.305 262.646 207.305 263.101C207.305 263.569 207.377 263.98 207.519 264.333C207.662 264.687 207.873 264.963 208.152 265.161C208.434 265.36 208.781 265.459 209.193 265.459ZM215.684 262.478V266.719H214.294V259.577H215.628V260.739H215.717C215.881 260.361 216.138 260.057 216.488 259.828C216.842 259.599 217.287 259.484 217.823 259.484C218.31 259.484 218.736 259.586 219.101 259.791C219.467 259.992 219.751 260.293 219.952 260.693C220.154 261.093 220.255 261.587 220.255 262.176V266.719H218.864V262.343C218.864 261.826 218.73 261.421 218.46 261.13C218.19 260.835 217.82 260.688 217.349 260.688C217.026 260.688 216.739 260.758 216.488 260.897C216.24 261.037 216.044 261.241 215.898 261.511C215.755 261.778 215.684 262.1 215.684 262.478ZM224.197 266.877C223.745 266.877 223.336 266.793 222.97 266.626C222.604 266.455 222.314 266.209 222.101 265.886C221.89 265.564 221.784 265.169 221.784 264.701C221.784 264.298 221.862 263.966 222.017 263.706C222.172 263.445 222.381 263.239 222.645 263.087C222.908 262.936 223.202 262.821 223.528 262.743C223.853 262.666 224.185 262.607 224.523 262.567C224.951 262.517 225.298 262.477 225.564 262.446C225.831 262.412 226.025 262.357 226.146 262.283C226.267 262.209 226.327 262.088 226.327 261.92V261.888C226.327 261.482 226.212 261.167 225.983 260.944C225.757 260.721 225.419 260.609 224.969 260.609C224.501 260.609 224.132 260.713 223.863 260.921C223.596 261.125 223.412 261.353 223.309 261.604L222.003 261.307C222.158 260.873 222.384 260.522 222.682 260.256C222.982 259.986 223.328 259.791 223.719 259.67C224.109 259.546 224.52 259.484 224.951 259.484C225.236 259.484 225.538 259.518 225.857 259.586C226.18 259.651 226.48 259.772 226.759 259.949C227.042 260.126 227.272 260.378 227.452 260.707C227.632 261.032 227.722 261.455 227.722 261.976V266.719H226.364V265.742H226.308C226.219 265.922 226.084 266.099 225.904 266.272C225.724 266.446 225.493 266.59 225.211 266.705C224.929 266.819 224.591 266.877 224.197 266.877ZM224.5 265.761C224.884 265.761 225.213 265.685 225.485 265.533C225.761 265.381 225.971 265.183 226.113 264.938C226.259 264.69 226.332 264.425 226.332 264.143V263.222C226.282 263.272 226.186 263.318 226.043 263.362C225.904 263.402 225.744 263.438 225.564 263.469C225.385 263.497 225.21 263.523 225.039 263.548C224.869 263.569 224.726 263.588 224.611 263.604C224.342 263.638 224.095 263.695 223.872 263.776C223.652 263.856 223.475 263.972 223.342 264.124C223.212 264.273 223.147 264.471 223.147 264.719C223.147 265.063 223.274 265.324 223.528 265.501C223.782 265.674 224.106 265.761 224.5 265.761ZM230.964 257.196V266.719H229.574V257.196H230.964ZM238.186 261.321L236.926 261.544C236.873 261.383 236.789 261.229 236.675 261.083C236.563 260.938 236.411 260.818 236.219 260.725C236.027 260.632 235.787 260.586 235.498 260.586C235.105 260.586 234.776 260.674 234.513 260.851C234.249 261.025 234.117 261.249 234.117 261.525C234.117 261.764 234.206 261.956 234.382 262.102C234.559 262.247 234.844 262.367 235.238 262.46L236.373 262.72C237.03 262.872 237.519 263.106 237.842 263.422C238.164 263.738 238.325 264.149 238.325 264.654C238.325 265.082 238.201 265.463 237.953 265.798C237.709 266.13 237.366 266.39 236.926 266.579C236.489 266.768 235.982 266.863 235.405 266.863C234.606 266.863 233.953 266.692 233.448 266.351C232.943 266.007 232.633 265.519 232.518 264.887L233.862 264.682C233.945 265.032 234.117 265.298 234.378 265.477C234.638 265.654 234.978 265.742 235.396 265.742C235.852 265.742 236.216 265.648 236.489 265.459C236.762 265.267 236.898 265.032 236.898 264.757C236.898 264.533 236.814 264.346 236.647 264.194C236.483 264.042 236.23 263.927 235.889 263.85L234.68 263.585C234.014 263.433 233.521 263.191 233.201 262.86C232.885 262.528 232.727 262.108 232.727 261.6C232.727 261.178 232.845 260.809 233.081 260.493C233.316 260.177 233.642 259.93 234.057 259.754C234.472 259.574 234.948 259.484 235.484 259.484C236.256 259.484 236.864 259.651 237.307 259.986C237.75 260.318 238.043 260.763 238.186 261.321Z" fill="#00654D"/>
<path d="M198.321 151.992C182.018 151.992 168.797 165.218 168.797 181.525C168.797 209.97 198.321 239.927 198.321 239.927C198.321 239.927 227.846 209.698 227.846 181.525C227.846 165.218 214.624 151.992 198.321 151.992ZM198.321 195.969C190.719 195.969 184.566 189.805 184.566 182.21C184.566 174.615 190.729 168.451 198.321 168.451C205.914 168.451 212.077 174.615 212.077 182.21C212.077 189.805 205.914 195.969 198.321 195.969Z" fill="#00654D"/>
<path d="M198.324 195.824C206.004 195.824 212.23 189.596 212.23 181.914C212.23 174.232 206.004 168.004 198.324 168.004C190.644 168.004 184.418 174.232 184.418 181.914C184.418 189.596 190.644 195.824 198.324 195.824Z" fill="white"/>
<path opacity="0.12" d="M198.32 248.109C222.245 248.109 241.64 243.893 241.64 238.691C241.64 233.49 222.245 229.273 198.32 229.273C174.395 229.273 155 233.49 155 238.691C155 243.893 174.395 248.109 198.32 248.109Z" fill="#2B664E"/>
<path d="M211.301 238.689C211.301 238.689 215.711 229.453 223.817 222.281" stroke="#00654D" stroke-width="1.01656" stroke-miterlimit="10"/>
<path d="M216.891 236.181C216.891 236.181 224.09 228.899 234.089 224.789" stroke="#00654D" stroke-width="1.01656" stroke-miterlimit="10"/>
<path d="M185.798 238.689C185.798 238.689 181.387 229.453 173.281 222.281" stroke="#00654D" stroke-width="1.01656" stroke-miterlimit="10"/>
<path d="M180.218 236.181C180.218 236.181 173.019 228.899 163.02 224.789" stroke="#00654D" stroke-width="1.01656" stroke-miterlimit="10"/>
<path d="M0 248.113H86.2979" stroke="#101727" stroke-width="1.01656" stroke-miterlimit="10"/>
<path d="M42.4775 197.034C46.9264 197.034 50.533 193.426 50.533 188.976C50.533 184.526 46.9264 180.918 42.4775 180.918C38.0285 180.918 34.4219 184.526 34.4219 188.976C34.4219 193.426 38.0285 197.034 42.4775 197.034Z" fill="#E9BE51" stroke="#101727" stroke-width="1.01656" stroke-miterlimit="10"/>
<path d="M28.191 214.831C28.191 205.625 34.7059 200.559 42.4997 200.559C50.2935 200.559 56.8084 205.585 56.8084 214.831V218.175H28.1406V214.831H28.1809H28.191Z" fill="#E9BE51" stroke="#101727" stroke-width="1.01656" stroke-miterlimit="10"/>
<path d="M76.8625 204.25C76.8625 213.748 73.0158 222.35 66.7927 228.575C60.5696 234.8 51.97 238.648 42.4742 238.648C32.9784 238.648 24.3788 234.8 18.1557 228.575C11.9326 222.35 8.08594 213.748 8.08594 204.25C8.08594 194.751 11.9326 186.149 18.1557 179.924C24.3788 173.699 32.9784 169.852 42.4742 169.852C51.97 169.852 60.5696 173.699 66.7927 179.924C73.0158 186.149 76.8625 194.751 76.8625 204.25Z" stroke="#101727" stroke-width="1.01656" stroke-miterlimit="10"/>
<path d="M8.08613 210.57C11.1281 210.57 13.5941 208.103 13.5941 205.06C13.5941 202.018 11.1281 199.551 8.08613 199.551C5.04414 199.551 2.57812 202.018 2.57812 205.06C2.57812 208.103 5.04414 210.57 8.08613 210.57Z" fill="#849465"/>
<path d="M17.965 185.855C21.007 185.855 23.473 183.388 23.473 180.346C23.473 177.303 21.007 174.836 17.965 174.836C14.923 174.836 12.457 177.303 12.457 180.346C12.457 183.388 14.923 185.855 17.965 185.855Z" fill="#EAE2CF"/>
<path d="M76.8596 210.57C79.9016 210.57 82.3676 208.103 82.3676 205.06C82.3676 202.018 79.9016 199.551 76.8596 199.551C73.8176 199.551 71.3516 202.018 71.3516 205.06C71.3516 208.103 73.8176 210.57 76.8596 210.57Z" fill="#EAE2CF"/>
<path d="M66.9728 185.855C70.0148 185.855 72.4809 183.388 72.4809 180.346C72.4809 177.303 70.0148 174.836 66.9728 174.836C63.9309 174.836 61.4648 177.303 61.4648 180.346C61.4648 183.388 63.9309 185.855 66.9728 185.855Z" fill="#849465"/>
<path d="M17.965 233.488C21.007 233.488 23.473 231.021 23.473 227.978C23.473 224.935 21.007 222.469 17.965 222.469C14.923 222.469 12.457 224.935 12.457 227.978C12.457 231.021 14.923 233.488 17.965 233.488Z" fill="#00654D"/>
<path d="M66.9728 233.488C70.0148 233.488 72.4809 231.021 72.4809 227.978C72.4809 224.935 70.0148 222.469 66.9728 222.469C63.9309 222.469 61.4648 224.935 61.4648 227.978C61.4648 231.021 63.9309 233.488 66.9728 233.488Z" fill="#FCD34C"/>
<path d="M42.4768 175.355C45.5187 175.355 47.9848 172.888 47.9848 169.846C47.9848 166.803 45.5187 164.336 42.4768 164.336C39.4348 164.336 36.9688 166.803 36.9688 169.846C36.9688 172.888 39.4348 175.355 42.4768 175.355Z" fill="#B7AB65"/>
<path d="M42.4768 244.152C45.5187 244.152 47.9848 241.685 47.9848 238.642C47.9848 235.6 45.5187 233.133 42.4768 233.133C39.4348 233.133 36.9688 235.6 36.9688 238.642C36.9688 241.685 39.4348 244.152 42.4768 244.152Z" fill="#EAE2CF"/>
</svg>
