<svg width="678" height="470" viewBox="0 0 678 470" fill="none" xmlns="http://www.w3.org/2000/svg">
<g clip-path="url(#clip0_2727_16483)">
<path opacity="0.12" d="M141.099 225.37H139.569V208.1H119.339V170.25H100.189V154.78H97.6087V170.25H78.4587V349.16L69.8187 342.59L50.5687 366.17V376.95L38.5987 371.02L12.9688 384.69V469.97H50.5687V470H89.6687V469.86H109.039H122.709H139.569H141.099V225.37Z" fill="#01654D"/>
<path opacity="0.12" d="M277.228 78.14C277.228 77.27 276.598 76 275.728 75.69L237.928 61.94L180.678 41.14L165.208 35.67C164.938 35.57 164.708 35.37 164.608 35.1C164.148 33.82 163.108 33.13 161.838 33.25C160.608 33.37 159.848 33.89 159.518 35.09C159.438 35.4 159.208 35.64 158.918 35.76L124.818 48.92L72.4384 69.7L54.0184 77.01C53.8984 77.06 53.7684 77.08 53.6484 77.08L37.2084 77.04C36.0584 77.04 34.7184 77.56 34.5684 78.83L32.6584 94.52C32.5684 95.24 32.3784 96.16 32.5984 96.68C32.7784 97.1 33.7284 97.61 34.2184 97.61L39.4584 97.67C40.0084 97.67 40.4584 98.13 40.4584 98.68V124.46C40.4584 125.41 41.4584 126.52 42.5084 126.52H71.6784C72.4984 126.53 73.6384 125.53 73.6384 124.73V98.63C73.6384 98.07 74.0884 97.62 74.6484 97.62L90.4284 97.6H111.098L131.778 97.62L145.098 97.65C145.658 97.65 146.108 98.1 146.108 98.66L146.138 119.16C146.138 119.7 146.568 120.14 147.108 120.17L150.718 120.33C151.258 120.35 151.688 120.8 151.688 121.34V269.92H151.888V288.33C151.888 288.65 151.678 288.93 151.378 289.03C151.298 289.06 151.228 289.11 151.158 289.17V403.04H171.468V269.3V261.38V203.34H171.488L171.518 121.33C171.518 120.77 171.968 120.32 172.518 120.32L176.708 120.29C176.808 120.29 176.918 120.29 177.018 120.24C177.498 120.04 177.948 119.42 177.948 118.82V98.62C177.948 98.06 178.398 97.61 178.958 97.61H275.528C276.668 97.62 277.258 96.9 277.258 95.9V78.14H277.228ZM40.4984 79.82H48.8284C49.7684 79.8 50.1984 80.98 49.4884 81.59L45.2384 85.2C44.8684 85.52 44.3184 85.52 43.9384 85.21C42.4384 83.98 41.0884 82.84 39.7884 81.55C39.1484 80.91 39.5984 79.82 40.4984 79.82ZM36.3384 90.16L37.1384 84.13C37.2484 83.33 38.1984 82.97 38.7984 83.5L42.0384 86.31C42.5184 86.72 42.4984 87.47 42.0084 87.86L37.9784 91.08C37.2684 91.65 36.2284 91.06 36.3484 90.16H36.3384ZM48.2984 94.29L40.4584 94.24C39.5184 94.24 39.0984 93.06 39.8184 92.46L43.8284 89.09C44.2084 88.77 44.7784 88.78 45.1484 89.11L48.9784 92.53C49.6684 93.15 49.2284 94.3 48.2984 94.29ZM53.8684 91.59C53.8684 92.46 52.8384 92.92 52.1884 92.34L47.1884 87.91C46.7184 87.5 46.7384 86.77 47.2184 86.37L52.2484 82.22C52.9084 81.68 53.9084 82.15 53.8984 83L53.8684 91.58V91.59ZM270.398 81.56L266.528 85.07C266.148 85.41 265.578 85.42 265.188 85.09C263.808 83.91 262.508 82.79 261.228 81.62C260.548 81 260.978 79.87 261.898 79.86L269.718 79.81C270.648 79.81 271.088 80.95 270.408 81.57L270.398 81.56ZM182.858 44.45L237.278 64.25L266.698 74.92C267.758 75.3 267.488 76.88 266.358 76.88L233.178 77.01C232.998 77.01 232.808 76.96 232.658 76.87L207.738 61.93L181.998 46.27C180.958 45.64 181.718 44.04 182.868 44.46L182.858 44.45ZM249.788 81.59L245.838 85.07C245.478 85.39 244.928 85.41 244.548 85.11L240.098 81.63C239.338 81.04 239.758 79.82 240.718 79.82H249.118C250.048 79.82 250.488 80.97 249.788 81.59ZM229.038 81.57L225.378 84.89C224.998 85.24 224.408 85.24 224.028 84.89L220.368 81.59C219.678 80.97 220.118 79.83 221.038 79.83L228.358 79.81C229.288 79.81 229.728 80.95 229.038 81.57ZM161.048 46.71C161.288 45.64 162.818 45.66 163.028 46.74L165.718 60.62L168.808 75.82C168.938 76.45 168.458 77.03 167.818 77.03L155.578 77.01C154.928 77.01 154.458 76.41 154.598 75.78L161.038 46.71H161.048ZM159.768 130.32L156.198 134.47C155.588 135.18 154.428 134.75 154.418 133.82L154.358 125.44C154.358 124.5 155.518 124.06 156.138 124.78L159.768 129.01C160.088 129.39 160.088 129.95 159.768 130.33V130.32ZM160.958 132.2C161.358 131.72 162.088 131.72 162.498 132.2L166.628 136.99C167.188 137.65 166.728 138.66 165.858 138.66L157.708 138.64C156.848 138.64 156.388 137.63 156.938 136.98L160.958 132.21V132.2ZM157.198 140.97H165.868C166.748 140.96 167.208 142.01 166.608 142.66L162.368 147.26C161.978 147.69 161.298 147.7 160.898 147.28L156.468 142.68C155.848 142.04 156.308 140.97 157.198 140.97ZM168.718 172.24C168.718 173.18 167.538 173.6 166.938 172.89L163.758 169.13C163.438 168.75 163.438 168.19 163.758 167.82L166.978 164.12C167.598 163.41 168.758 163.85 168.748 164.79L168.708 172.25L168.718 172.24ZM168.738 184.58L168.718 191.12C168.718 192.03 167.598 192.47 166.968 191.81L163.868 188.5C163.498 188.11 163.508 187.49 163.878 187.11L167.008 183.88C167.638 183.23 168.748 183.68 168.748 184.59L168.738 184.58ZM168.738 152.82C168.738 153.74 167.618 154.18 166.988 153.51L163.758 150.06C163.398 149.67 163.398 149.07 163.758 148.68L166.988 145.22C167.618 144.55 168.738 144.99 168.738 145.91V152.82ZM160.948 151.51C161.348 151.08 162.028 151.09 162.428 151.52L166.088 155.51C166.688 156.16 166.218 157.21 165.338 157.2L157.938 157.18C157.058 157.18 156.598 156.12 157.208 155.48L160.948 151.52V151.51ZM157.228 159.58L166.108 159.56C166.978 159.56 167.448 160.59 166.868 161.24L162.468 166.23C162.068 166.68 161.368 166.69 160.958 166.23L156.478 161.26C155.888 160.61 156.348 159.57 157.228 159.57V159.58ZM160.978 170.88C161.378 170.42 162.098 170.42 162.498 170.88L166.768 175.82C167.338 176.48 166.868 177.49 165.998 177.49L157.428 177.45C156.558 177.45 156.098 176.42 156.678 175.77L160.988 170.87L160.978 170.88ZM157.778 179.87H165.598C166.478 179.86 166.938 180.91 166.338 181.56L162.548 185.64C162.158 186.06 161.498 186.07 161.088 185.66L157.058 181.59C156.428 180.95 156.878 179.87 157.778 179.87ZM162.518 190.01L166.398 194.21C166.998 194.86 166.538 195.91 165.658 195.91H157.968C157.088 195.89 156.628 194.85 157.218 194.2L161.028 190.02C161.428 189.58 162.118 189.58 162.518 190.02V190.01ZM157.498 198.38L165.908 198.36C166.788 198.36 167.248 199.4 166.658 200.05L162.428 204.68C162.028 205.12 161.338 205.12 160.938 204.68L156.758 200.07C156.168 199.42 156.628 198.38 157.508 198.38H157.498ZM159.618 206.32C159.978 206.71 159.978 207.31 159.618 207.7L156.158 211.36C155.528 212.02 154.418 211.58 154.418 210.67V203.24C154.408 202.32 155.538 201.88 156.158 202.55L159.628 206.32H159.618ZM156.788 213.87L161.018 209.21C161.428 208.76 162.128 208.77 162.528 209.23L166.608 213.93C167.178 214.59 166.708 215.61 165.838 215.6L157.528 215.56C156.658 215.56 156.198 214.52 156.788 213.87ZM163.818 242.51L166.968 239.24C167.598 238.59 168.708 239.03 168.708 239.94V246.76C168.718 247.69 167.568 248.13 166.958 247.43L163.798 243.88C163.448 243.49 163.458 242.89 163.828 242.51H163.818ZM162.408 241.11C162.008 241.53 161.338 241.52 160.948 241.11L157.898 237.87C157.288 237.22 157.748 236.17 158.638 236.17H164.808C165.698 236.18 166.148 237.25 165.538 237.89L162.418 241.12L162.408 241.11ZM168.708 228.65C168.708 229.56 167.588 230.01 166.958 229.34L163.838 226.03C163.468 225.63 163.468 225.01 163.858 224.62L166.988 221.48C167.628 220.84 168.718 221.29 168.718 222.2V228.65H168.708ZM158.148 217.95L165.128 217.98C166.018 217.98 166.468 219.05 165.858 219.69L162.488 223.22C162.098 223.63 161.448 223.64 161.048 223.24L157.438 219.68C156.788 219.04 157.248 217.95 158.148 217.95ZM161.058 227.6C161.458 227.18 162.128 227.18 162.528 227.6L166.708 232.04C167.318 232.69 166.858 233.75 165.968 233.74L157.608 233.68C156.718 233.68 156.268 232.61 156.888 231.97L161.068 227.59L161.058 227.6ZM159.598 242.64C159.978 243.03 159.968 243.65 159.598 244.04L156.138 247.61C155.508 248.26 154.398 247.81 154.398 246.9L154.428 239.75C154.428 238.84 155.538 238.4 156.168 239.06L159.598 242.63V242.64ZM156.768 250L160.978 245.5C161.378 245.07 162.068 245.07 162.468 245.52L166.528 250.04C167.108 250.69 166.648 251.73 165.778 251.73L157.508 251.71C156.628 251.71 156.168 250.65 156.778 250.01L156.768 250ZM157.678 254.12H165.708C166.588 254.12 167.048 255.15 166.458 255.8L162.478 260.21C162.078 260.65 161.388 260.66 160.978 260.21L156.928 255.8C156.338 255.15 156.788 254.11 157.668 254.11L157.678 254.12ZM161.058 264.69C161.458 264.3 162.088 264.31 162.478 264.71L165.288 267.58C165.918 268.22 165.458 269.3 164.568 269.3H158.788C157.878 269.3 157.428 268.19 158.088 267.56L161.058 264.69ZM158.048 269.93H159.178L167.588 269.92L164.118 269.87L167.518 269.84L167.598 269.92H168.058L162.598 275.65C162.198 276.07 161.528 276.07 161.128 275.65L157.338 271.64C156.728 271 157.178 269.94 158.058 269.94L158.048 269.93ZM166.998 266.35L163.938 263.19C163.568 262.81 163.558 262.21 163.908 261.81L166.988 258.36C167.608 257.67 168.758 258.11 168.748 259.04L168.718 265.64C168.718 266.55 167.608 266.99 166.978 266.34L166.998 266.35ZM168.758 210.65C168.758 211.58 167.608 212.01 166.988 211.32L163.698 207.63C163.358 207.24 163.358 206.66 163.698 206.28L166.988 202.66C167.608 201.98 168.748 202.42 168.748 203.34V210.65H168.758ZM168.738 133.46C168.738 134.39 167.568 134.82 166.958 134.11L163.758 130.39C163.438 130.02 163.428 129.48 163.728 129.1L166.978 125.02C167.578 124.27 168.788 124.7 168.778 125.65L168.738 133.45V133.46ZM166.808 121.96L162.518 127.19C162.118 127.67 161.388 127.68 160.978 127.21L156.448 121.99C155.878 121.34 156.348 120.32 157.208 120.32H166.028C166.878 120.32 167.348 121.31 166.808 121.97V121.96ZM165.178 94.29L158.318 94.26C157.408 94.26 156.968 93.15 157.628 92.52L161.038 89.27C161.428 88.9 162.038 88.9 162.428 89.27L165.878 92.55C166.538 93.18 166.088 94.3 165.178 94.29ZM162.188 84.98C161.798 85.35 161.178 85.35 160.788 84.98L157.208 81.55C156.548 80.92 156.998 79.81 157.908 79.81L165.108 79.79C166.018 79.79 166.468 80.9 165.808 81.53L162.188 84.98ZM60.5684 79.83H67.0784C67.9784 79.81 68.4284 80.9 67.7984 81.54L64.5284 84.85C64.1284 85.25 63.4884 85.25 63.0884 84.85L59.8484 81.56C59.2184 80.92 59.6684 79.84 60.5684 79.84V79.83ZM56.3984 90.71L56.3384 83.47C56.3384 82.58 57.3984 82.12 58.0384 82.73L61.7184 86.21C62.1284 86.6 62.1384 87.24 61.7484 87.64L58.1284 91.4C57.4984 92.05 56.3984 91.61 56.3884 90.71H56.3984ZM67.1983 94.27L60.7484 94.2C59.8684 94.2 59.4184 93.14 60.0284 92.5L63.2484 89.09C63.6484 88.66 64.3284 88.67 64.7284 89.09L67.9584 92.57C68.5583 93.22 68.0984 94.28 67.2084 94.27H67.1983ZM71.6384 90.8C71.6384 91.7 70.5484 92.14 69.9184 91.51L66.0284 87.63C65.6283 87.23 65.6384 86.58 66.0284 86.19L69.9584 82.36C70.5984 81.73 71.6784 82.19 71.6784 83.09L71.6384 90.8ZM74.0684 90.78L74.1584 83.51C74.1684 82.64 75.2084 82.19 75.8484 82.78L79.5384 86.15C79.9584 86.53 79.9784 87.19 79.5784 87.6L75.8083 91.5C75.1684 92.16 74.0584 91.7 74.0684 90.79V90.78ZM78.1784 79.8H85.1384C86.0484 79.8 86.4883 80.91 85.8383 81.54L82.3783 84.9C81.9883 85.28 81.3684 85.28 80.9784 84.9L77.4784 81.53C76.8184 80.9 77.2684 79.79 78.1784 79.79V79.8ZM85.4883 94.26H78.5684C77.6784 94.25 77.2283 93.19 77.8383 92.54L81.1983 89.01C81.5883 88.6 82.2383 88.59 82.6384 88.99L86.2084 92.54C86.8484 93.18 86.3984 94.27 85.4984 94.27L85.4883 94.26ZM89.9284 90.86C89.9284 91.74 88.8684 92.2 88.2284 91.6L84.0384 87.68C83.6084 87.28 83.6084 86.61 84.0384 86.21L88.2383 82.24C88.8884 81.63 89.9484 82.09 89.9384 82.98V90.86H89.9284ZM92.2984 91.42V82.8C92.2984 81.94 93.2984 81.47 93.9584 82.03L98.9483 86.27C99.4184 86.67 99.4284 87.39 98.9584 87.8L93.9684 92.17C93.3184 92.74 92.2884 92.28 92.2884 91.41L92.2984 91.42ZM97.3383 79.82H105.398C106.318 79.82 106.758 80.93 106.088 81.56L103.428 84.06C103.178 84.29 102.838 84.38 102.508 84.3C101.998 84.18 101.538 84.23 101.068 84.45C100.698 84.62 100.268 84.59 99.9483 84.33L96.6884 81.61C95.9684 81 96.3883 79.83 97.3383 79.82ZM104.848 94.22L97.6184 94.19C96.6884 94.19 96.2584 93.03 96.9584 92.42L99.7584 89.99C99.9784 89.8 100.278 89.71 100.568 89.75C101.118 89.83 101.528 89.83 102.038 89.76C102.328 89.72 102.628 89.81 102.848 90.01L105.538 92.46C106.218 93.08 105.778 94.22 104.858 94.22H104.848ZM109.138 90.31C109.138 91.21 108.058 91.66 107.418 91.03L104.088 87.76C103.678 87.35 103.688 86.68 104.118 86.29L107.448 83.26C108.098 82.67 109.138 83.13 109.138 84.01V90.31ZM111.488 90.92L111.438 83.18C111.438 82.33 112.418 81.85 113.078 82.38L117.778 86.12C118.278 86.51 118.288 87.26 117.808 87.68L113.158 91.68C112.508 92.24 111.498 91.78 111.488 90.92ZM116.388 79.86L124.208 79.82C125.148 79.82 125.588 80.99 124.868 81.6L120.978 84.93C120.608 85.25 120.048 85.25 119.678 84.93L115.748 81.64C115.028 81.04 115.448 79.86 116.388 79.85V79.86ZM124.508 94.23L116.288 94.18C115.358 94.18 114.928 93.03 115.618 92.42L119.698 88.78C120.078 88.44 120.658 88.44 121.038 88.78L125.178 92.46C125.878 93.08 125.428 94.23 124.498 94.22L124.508 94.23ZM129.708 91.31C129.708 92.18 128.678 92.64 128.028 92.06L122.878 87.53C122.408 87.12 122.418 86.39 122.898 85.99L128.088 81.7C128.748 81.15 129.748 81.63 129.738 82.48L129.688 91.29L129.708 91.31ZM132.368 91.03L132.348 82.89C132.348 82.03 133.338 81.56 133.998 82.11L139.008 86.24C139.508 86.65 139.498 87.41 139.008 87.81L134.018 91.82C133.358 92.35 132.378 91.88 132.378 91.04L132.368 91.03ZM137.428 79.83H145.858C146.808 79.83 147.228 81.01 146.508 81.61L142.288 85.11C141.918 85.42 141.368 85.42 140.998 85.11L136.788 81.62C136.058 81.02 136.488 79.83 137.428 79.83ZM145.658 94.26L137.398 94.24C136.458 94.24 136.028 93.06 136.758 92.45L140.928 88.97C141.308 88.65 141.858 88.66 142.228 88.97L146.318 92.47C147.028 93.08 146.598 94.25 145.658 94.25V94.26ZM151.088 91.42C151.088 92.28 150.078 92.74 149.428 92.19L144.148 87.75C143.658 87.34 143.668 86.58 144.178 86.18L149.518 82C150.188 81.48 151.158 81.96 151.148 82.8L151.088 91.42ZM151.848 76.21C151.748 76.67 151.338 77 150.858 77L66.4384 76.92C65.3284 76.92 65.0284 75.38 66.0684 74.97L125.378 51.4L158.468 38.45C159.218 38.16 159.998 38.82 159.828 39.61L153.978 66.51L151.848 76.2V76.21ZM153.818 90.76L153.758 83.54C153.758 82.65 154.808 82.19 155.458 82.79L159.308 86.35C159.738 86.74 159.738 87.42 159.318 87.82L155.528 91.48C154.888 92.1 153.828 91.65 153.818 90.76ZM156.078 145.16L159.568 148.73C159.948 149.12 159.948 149.75 159.568 150.15L156.118 153.63C155.488 154.27 154.398 153.82 154.388 152.92L154.348 145.86C154.348 144.95 155.448 144.5 156.078 145.15V145.16ZM156.128 164L159.728 167.91C160.078 168.29 160.088 168.88 159.728 169.27L156.168 173.23C155.548 173.92 154.408 173.48 154.408 172.56L154.378 164.69C154.378 163.77 155.508 163.32 156.128 164ZM156.098 183.43L159.698 187C160.088 187.38 160.098 188 159.728 188.4L156.158 192.25C155.538 192.92 154.408 192.48 154.408 191.57L154.378 184.15C154.378 183.25 155.458 182.79 156.098 183.43ZM156.108 221.24L159.518 224.69C159.908 225.08 159.908 225.72 159.518 226.11L156.118 229.55C155.488 230.19 154.388 229.74 154.388 228.84L154.368 221.96C154.368 221.06 155.458 220.6 156.098 221.25L156.108 221.24ZM154.388 258.75C154.388 257.83 155.528 257.39 156.148 258.07L159.508 261.77C159.878 262.18 159.858 262.8 159.458 263.18L156.098 266.38C155.458 266.99 154.388 266.54 154.388 265.65V258.75ZM154.578 281.4V274.24C154.568 273.33 155.678 272.88 156.308 273.54L159.768 277.13C160.148 277.52 160.148 278.14 159.768 278.53L156.328 282.09C155.698 282.74 154.588 282.3 154.588 281.39L154.578 281.4ZM167.558 288.46V288.31H167.698L167.558 288.46ZM167.558 286.04V285.82C167.308 285.73 165.988 285.42 165.888 285.68L165.748 286.04L157.858 286.06C156.978 286.06 156.518 285.01 157.118 284.36L161.138 280.06C161.538 279.63 162.228 279.63 162.618 280.06L168.078 286.03H167.558V286.04ZM167.188 282.05L164.018 278.55C163.668 278.16 163.668 277.56 164.028 277.18L167.178 273.82C167.808 273.15 168.918 273.59 168.928 274.51L168.948 281.37C168.948 282.3 167.808 282.74 167.188 282.05ZM167.798 91.65L163.958 87.85C163.548 87.45 163.558 86.78 163.978 86.39L167.738 82.89C168.378 82.29 169.428 82.74 169.438 83.62L169.518 90.92C169.528 91.82 168.438 92.28 167.798 91.65ZM171.588 76.19L164.768 40.68C164.608 39.82 165.528 39.17 166.278 39.62L184.638 50.57L205.108 62.94L225.378 75.06C226.258 75.59 225.888 76.94 224.858 76.94L172.578 77C172.088 77 171.678 76.66 171.588 76.18V76.19ZM207.928 81.65L203.938 84.98C203.558 85.3 203.008 85.29 202.638 84.98L198.738 81.64C198.028 81.03 198.458 79.86 199.398 79.86H207.298C208.238 79.87 208.668 81.05 207.948 81.66L207.928 81.65ZM186.228 81.59L182.098 85.08C181.738 85.39 181.208 85.4 180.828 85.11L176.338 81.64C175.578 81.05 175.988 79.83 176.958 79.83H185.578C186.518 79.82 186.948 80.99 186.228 81.6V81.59ZM172.118 91.53L171.968 83.06C171.958 82.22 172.918 81.73 173.588 82.24L178.938 86.28C179.458 86.67 179.478 87.44 178.988 87.86L173.788 92.3C173.138 92.85 172.138 92.4 172.118 91.55V91.53ZM185.938 94.25H177.398C176.458 94.26 176.028 93.09 176.738 92.48L180.888 88.94C181.258 88.62 181.798 88.62 182.178 88.92L186.558 92.45C187.298 93.05 186.878 94.25 185.928 94.25H185.938ZM189.988 92.28L184.168 87.7C183.658 87.3 183.658 86.54 184.148 86.13L189.948 81.32C190.608 80.77 191.598 81.24 191.598 82.1V91.49C191.608 92.33 190.638 92.81 189.978 92.29L189.988 92.28ZM194.138 91.09L194.158 82.86C194.158 82.01 195.158 81.54 195.818 82.08L200.668 86.1C201.148 86.5 201.158 87.23 200.688 87.64L195.818 91.84C195.158 92.41 194.148 91.94 194.148 91.07L194.138 91.09ZM207.948 94.27H199.058C198.118 94.26 197.688 93.08 198.408 92.48L202.778 88.8C203.148 88.49 203.688 88.48 204.068 88.8L208.588 92.49C209.328 93.09 208.898 94.28 207.948 94.28V94.27ZM212.228 92.29L206.128 87.6C205.608 87.2 205.598 86.42 206.118 86.01L212.208 81.15C212.868 80.62 213.848 81.09 213.848 81.94V91.48C213.848 92.32 212.898 92.79 212.228 92.28V92.29ZM216.178 91.13V82.94C216.178 82.07 217.188 81.61 217.848 82.18L222.398 86.15C222.848 86.54 222.858 87.24 222.418 87.65L217.878 91.87C217.228 92.47 216.178 92.01 216.178 91.13ZM228.838 94.26H220.918C220.008 94.26 219.558 93.14 220.218 92.51L224.068 88.84C224.448 88.48 225.048 88.47 225.438 88.82L229.508 92.49C230.198 93.11 229.758 94.25 228.828 94.25L228.838 94.26ZM233.398 90.93C233.398 91.8 232.368 92.25 231.718 91.68L227.108 87.6C226.648 87.2 226.658 86.48 227.108 86.08L231.788 82.01C232.448 81.44 233.468 81.91 233.458 82.78L233.398 90.92V90.93ZM235.788 91.43L235.728 82.79C235.728 81.93 236.718 81.46 237.378 82L242.678 86.33C243.168 86.73 243.178 87.49 242.678 87.89L237.438 92.21C236.778 92.75 235.788 92.29 235.788 91.44V91.43ZM249.418 94.24L241.088 94.28C240.148 94.28 239.708 93.12 240.428 92.5L244.578 88.93C244.958 88.61 245.508 88.6 245.888 88.93L250.068 92.46C250.788 93.07 250.358 94.24 249.418 94.24ZM254.568 91.18C254.568 92.04 253.568 92.5 252.908 91.95L247.818 87.69C247.338 87.29 247.338 86.55 247.818 86.15L252.938 81.76C253.598 81.2 254.608 81.67 254.608 82.53L254.578 91.18H254.568ZM257.168 91.12V82.96C257.168 82.09 258.188 81.62 258.848 82.2L263.508 86.34C263.968 86.75 263.958 87.46 263.498 87.86L258.848 91.88C258.198 92.45 257.178 91.98 257.178 91.12H257.168ZM269.698 94.25L262.308 94.23C261.378 94.23 260.948 93.08 261.638 92.46L265.398 89.13C265.788 88.79 266.368 88.79 266.748 89.14L270.378 92.48C271.058 93.1 270.608 94.24 269.688 94.23L269.698 94.25ZM274.558 91.16C274.558 92.03 273.518 92.49 272.868 91.9L268.308 87.76C267.858 87.36 267.868 86.65 268.318 86.25L272.908 82.2C273.558 81.62 274.588 82.09 274.588 82.96L274.558 91.15V91.16Z" fill="#01654D"/>
<path opacity="0.12" d="M612.512 297.15H586.662V91.98H556.202V21.62H492.872V245.09H481.412V163.07H450.192V178.66H438.982V155.69H412.082V105.37H386.622V84.8H383.192V105.37H357.732V256.56L346.242 247.83L320.642 267.88V288.41L293.422 274.33L259.352 292.5V469.96H320.642V470H372.642V469.81H398.382H416.562H438.982H446.282V469.98H480.612V470H509.722V469.89H524.142H534.322H546.872H553.152H557.052H568.182H570.642H577.052H591.502H594.782H612.512H629.572V318.64H612.512V297.15Z" fill="#01654D"/>
<path opacity="0.12" d="M665.029 343H635.699V469.89H665.029V343Z" fill="#01654D"/>
<path opacity="0.12" d="M406.81 222.88H371.34V376.17H364.93V270.04H347.44V322.99H341.17V304.6H326.1V264.32H325.15V129.55H272.78V409.29L259.65 399.58L240.57 414.13V469.97H274.9V470H304.01V469.85H318.43H328.61H341.17H347.44H351.34H362.47H364.93H371.34H385.79H389.07H406.81H423.86V253.6H406.81V222.88Z" fill="#01654D"/>
<path d="M0.648438 470H678.648" stroke="#101727" stroke-miterlimit="10"/>
<path d="M-0.648438 469.58H677.352" stroke="#101727" stroke-miterlimit="10"/>
<path d="M539.592 417.46C538.902 417.08 538.462 416.38 538.422 415.6C537.762 403.35 535.502 389.33 523.862 389.33C512.222 389.33 509.962 403.35 509.302 415.6C509.262 416.38 508.822 417.08 508.132 417.46C503.002 420.28 499.582 425.81 499.812 432.13C500.132 440.81 507.532 447.56 516.222 447.56H531.492C540.182 447.56 547.582 440.81 547.902 432.13C548.132 425.81 544.712 420.28 539.582 417.46H539.592Z" fill="#A99E53"/>
<path d="M523.871 410.82V469.51" stroke="#101727" stroke-miterlimit="10"/>
<path d="M531.632 422.28L523.872 430.04L516.102 422.28" stroke="#101727" stroke-miterlimit="10"/>
<path d="M564.859 442.49C564.259 442.49 563.679 442.44 563.109 442.34L564.859 442.49Z" fill="#A99E53" fill-opacity="0.6"/>
<path d="M564.859 442.49C564.259 442.49 563.679 442.44 563.109 442.34" stroke="#101727" stroke-miterlimit="10"/>
<path d="M563.109 442.34C561.349 445.55 556.589 448.29 551.289 447.75C547.099 447.32 543.459 445.24 541.849 441.63C540.589 442.18 539.189 442.49 537.719 442.49C532.009 442.49 527.379 437.86 527.379 432.15C527.379 426.44 532.009 421.81 537.719 421.81C538.029 421.81 538.339 421.83 538.649 421.85C537.269 415.29 541.179 408.68 547.719 406.8C550.589 405.98 553.509 406.19 556.079 407.22C555.659 401.26 559.429 395.62 565.399 393.91C572.259 391.94 579.409 395.9 581.379 402.76C581.889 404.54 581.999 406.34 581.769 408.06C584.509 409.68 586.669 412.31 587.619 415.61C588.219 417.7 588.269 419.82 587.849 421.81C588.149 421.78 588.459 421.77 588.769 421.77C594.479 421.77 599.109 426.4 599.109 432.11C599.109 437.82 594.479 442.45 588.769 442.45C587.299 442.45 585.909 442.14 584.639 441.59C583.019 445.2 579.409 447.71 575.199 447.71C575.199 447.71 568.469 448.24 563.109 442.34Z" fill="#849465"/>
<path d="M563.25 425.84V469.51" stroke="#101727" stroke-miterlimit="10"/>
<path d="M555.148 430.71L563.248 438.81L571.348 430.71" stroke="#101727" stroke-miterlimit="10"/>
<path opacity="0.12" d="M208.021 343H178.691V469.89H208.021V343Z" fill="#01654D"/>
<path d="M118.131 228.66H449.251C456.811 228.66 462.941 234.8 462.941 242.35V451.3C462.941 455.08 459.871 458.15 456.091 458.15H111.291C107.511 458.15 104.441 455.08 104.441 451.3V242.35C104.441 234.79 110.581 228.66 118.131 228.66Z" fill="#EAE2CF" stroke="#101727" stroke-linecap="square" stroke-linejoin="bevel"/>
<path d="M448.97 235.51H305.95V246.29H260.87V235.51H117.85C114.08 235.51 111 238.58 111 242.36V447.04H455.81V242.36C455.81 238.59 452.74 235.51 448.96 235.51H448.97Z" fill="#01654D"/>
<path d="M150.48 389.26H118.75C118.148 389.26 117.66 389.748 117.66 390.35C117.66 390.952 118.148 391.44 118.75 391.44H150.48C151.082 391.44 151.57 390.952 151.57 390.35C151.57 389.748 151.082 389.26 150.48 389.26Z" fill="#849465"/>
<path d="M143.28 397.62H118.63C118.094 397.62 117.66 398.054 117.66 398.59V398.83C117.66 399.366 118.094 399.8 118.63 399.8H143.28C143.816 399.8 144.25 399.366 144.25 398.83V398.59C144.25 398.054 143.816 397.62 143.28 397.62Z" fill="#849465"/>
<path d="M150.48 405.99H118.75C118.148 405.99 117.66 406.478 117.66 407.08C117.66 407.682 118.148 408.17 118.75 408.17H150.48C151.082 408.17 151.57 407.682 151.57 407.08C151.57 406.478 151.082 405.99 150.48 405.99Z" fill="#849465"/>
<path d="M146.86 414.35H118.69C118.121 414.35 117.66 414.811 117.66 415.38V415.5C117.66 416.069 118.121 416.53 118.69 416.53H146.86C147.429 416.53 147.89 416.069 147.89 415.5V415.38C147.89 414.811 147.429 414.35 146.86 414.35Z" fill="#849465"/>
<path d="M138.82 350.44H118.75C118.148 350.44 117.66 350.928 117.66 351.53C117.66 352.132 118.148 352.62 118.75 352.62H138.82C139.422 352.62 139.91 352.132 139.91 351.53C139.91 350.928 139.422 350.44 138.82 350.44Z" fill="#849465"/>
<path d="M141.51 380.89H118.7C118.126 380.89 117.66 381.356 117.66 381.93V382.03C117.66 382.604 118.126 383.07 118.7 383.07H141.51C142.085 383.07 142.55 382.604 142.55 382.03V381.93C142.55 381.356 142.085 380.89 141.51 380.89Z" fill="#849465"/>
<path d="M143.28 358.05H118.63C118.094 358.05 117.66 358.484 117.66 359.02V359.26C117.66 359.796 118.094 360.23 118.63 360.23H143.28C143.816 360.23 144.25 359.796 144.25 359.26V359.02C144.25 358.484 143.816 358.05 143.28 358.05Z" fill="#849465"/>
<path d="M144.65 365.67H118.75C118.148 365.67 117.66 366.158 117.66 366.76C117.66 367.362 118.148 367.85 118.75 367.85H144.65C145.252 367.85 145.74 367.362 145.74 366.76C145.74 366.158 145.252 365.67 144.65 365.67Z" fill="#849465"/>
<path d="M146.86 373.28H118.69C118.121 373.28 117.66 373.741 117.66 374.31V374.43C117.66 374.999 118.121 375.46 118.69 375.46H146.86C147.429 375.46 147.89 374.999 147.89 374.43V374.31C147.89 373.741 147.429 373.28 146.86 373.28Z" fill="#849465"/>
<path d="M133.721 270.32C139.338 270.32 143.891 265.767 143.891 260.15C143.891 254.533 139.338 249.98 133.721 249.98C128.104 249.98 123.551 254.533 123.551 260.15C123.551 265.767 128.104 270.32 133.721 270.32Z" fill="white"/>
<path d="M133.352 254.136L131.488 254.636L132.76 259.378L134.624 258.879L133.352 254.136Z" fill="#E9BE51"/>
<path d="M135.761 258.6C136.331 261.42 135.551 263.13 135.001 264.05C134.051 263.52 132.531 262.42 131.611 259.65C131.531 259.65 131.441 259.65 131.361 259.65C130.721 259.65 130.121 259.59 129.551 259.49C130.791 264.08 133.521 265.46 134.541 265.99L134.581 266.01C134.781 266.11 134.991 266.16 135.201 266.16C135.641 266.16 136.081 265.94 136.341 265.54L136.371 265.49C137.001 264.52 138.681 261.95 137.461 257.37C136.961 257.84 136.401 258.26 135.761 258.6Z" fill="#01654D"/>
<path d="M159.26 301.93H130C129.448 301.93 129 302.378 129 302.93V302.94C129 303.492 129.448 303.94 130 303.94H159.26C159.812 303.94 160.26 303.492 160.26 302.94V302.93C160.26 302.378 159.812 301.93 159.26 301.93Z" fill="#849465"/>
<path d="M156.35 291.12H129.96C129.43 291.12 129 291.55 129 292.08V292.17C129 292.7 129.43 293.13 129.96 293.13H156.35C156.88 293.13 157.31 292.7 157.31 292.17V292.08C157.31 291.55 156.88 291.12 156.35 291.12Z" fill="#849465"/>
<path d="M152.62 309.64H129.89C129.398 309.64 129 310.038 129 310.53V310.76C129 311.252 129.398 311.65 129.89 311.65H152.62C153.112 311.65 153.51 311.252 153.51 310.76V310.53C153.51 310.038 153.112 309.64 152.62 309.64Z" fill="#849465"/>
<path d="M155.92 283.41H129.95C129.425 283.41 129 283.835 129 284.36V284.47C129 284.995 129.425 285.42 129.95 285.42H155.92C156.445 285.42 156.87 284.995 156.87 284.47V284.36C156.87 283.835 156.445 283.41 155.92 283.41Z" fill="#849465"/>
<path d="M126.69 283.41H116.93V293.17H126.69V283.41Z" fill="#849465"/>
<path d="M126.69 301.93H116.93V311.69H126.69V301.93Z" fill="#849465"/>
<path d="M125.19 321.61H116.93V328.96H125.19V321.61Z" fill="#849465"/>
<path d="M136.838 321.61H128.578V328.96H136.838V321.61Z" fill="#849465"/>
<path d="M148.612 321.61H140.352V328.96H148.612V321.61Z" fill="#849465"/>
<path d="M160.26 321.61H152V328.96H160.26V321.61Z" fill="#849465"/>
<path d="M125.19 332.52H116.93V339.87H125.19V332.52Z" fill="#849465"/>
<path d="M136.838 332.52H128.578V339.87H136.838V332.52Z" fill="#849465"/>
<path d="M148.612 332.52H140.352V339.87H148.612V332.52Z" fill="#849465"/>
<path d="M160.26 332.52H152V339.87H160.26V332.52Z" fill="#849465"/>
<path d="M133.442 424.98H119.962C118.056 424.98 116.512 426.525 116.512 428.43C116.512 430.335 118.056 431.88 119.962 431.88H133.442C135.347 431.88 136.892 430.335 136.892 428.43C136.892 426.525 135.347 424.98 133.442 424.98Z" fill="#849465"/>
<mask id="mask0_2727_16483" style="mask-type:luminance" maskUnits="userSpaceOnUse" x="119" y="235" width="345" height="212">
<path d="M456.97 235.205H125.85C122.08 235.205 119 238.275 119 242.055V446.735H463.81V242.055C463.81 238.285 460.74 235.205 456.96 235.205H456.97Z" fill="white"/>
</mask>
<g mask="url(#mask0_2727_16483)">
<path d="M166.262 235.205H449.652C453.212 235.205 456.102 238.095 456.102 241.655V446.735H166.262V235.205Z" fill="#A99E53"/>
<mask id="mask1_2727_16483" style="mask-type:luminance" maskUnits="userSpaceOnUse" x="166" y="235" width="291" height="212">
<path d="M166.262 235.205H449.652C453.212 235.205 456.102 238.095 456.102 241.655V446.735H166.262V235.205Z" fill="white"/>
</mask>
<g mask="url(#mask1_2727_16483)">
<path d="M525.471 313.515L583.571 352.375L589.891 342.925L535.901 306.815L541.781 303.035L535.631 293.465L525.591 299.915L431.681 237.105L456.151 223.125L449.991 213.565L421.381 230.215L378.521 201.545L393.001 192.205L378.991 170.485L355.111 185.885L338.291 174.635L362.181 159.235L356.021 149.675L327.991 167.745L287.831 140.885L281.511 150.335L317.571 174.455L276.921 200.665L246.351 180.775L240.151 190.305L266.451 207.415L226.841 232.955L196.141 212.195L182.681 216.825L216.451 239.655L177.631 264.685L153.851 248.235L147.381 257.585L167.281 271.355L135.771 291.675L121.171 281.575L117.641 286.675L130.131 295.315L87.5113 322.795L81.5713 318.685L71.6413 333.025L49.0312 347.605L55.1912 357.165L74.1213 344.955L90.6413 356.385L71.9912 368.405L86.0013 390.125L113.641 372.295L155.761 401.445L123.601 422.185L129.761 431.745L165.881 408.455L213.801 441.615L170.771 469.365L176.931 478.925L223.921 448.625L257.661 471.975L206.351 504.935L212.501 514.505L267.801 478.985L306.391 505.685L246.021 544.615L252.181 554.175L316.511 512.695L347.491 534.135L362.201 512.885L340.021 497.545L382.641 470.065L398.271 480.875L401.801 475.775L388.281 466.425L419.791 446.105L428.011 451.795L434.481 442.445L430.141 439.435L471.981 412.455L500.621 431.815L506.991 422.395L482.381 405.755L559.171 356.235L553.011 346.675L472.141 398.825L433.411 372.635L525.451 313.515H525.471ZM279.551 335.215L319.591 309.395L345.041 326.605L303.561 351.825L279.561 335.215H279.551ZM349.751 329.785L368.091 342.185L327.481 368.375L308.211 355.045L349.751 329.785ZM360.441 323.295L403.931 296.855L421.091 308.015L378.481 335.495L360.441 323.295ZM355.731 320.105L329.981 302.695L371.631 275.835L399.121 293.715L355.731 320.095V320.105ZM319.741 295.775L277.111 266.955L317.711 240.775L361.181 269.055L319.731 295.785L319.741 295.775ZM309.351 302.475L269.431 328.215L227.311 299.065L266.731 273.645L309.361 302.465L309.351 302.475ZM259.081 334.885L227.571 355.205L185.451 326.055L216.961 305.735L259.081 334.885ZM269.211 341.885L317.131 375.045L285.621 395.365L237.701 362.205L269.211 341.885ZM327.251 382.055L361.181 405.535L329.621 425.815L295.751 402.375L327.261 382.055H327.251ZM337.601 375.385L378.331 349.115L412.771 372.395L371.551 398.875L337.601 375.385ZM388.721 342.415L431.531 314.805L466.751 337.715L423.171 365.705L388.711 342.405L388.721 342.415ZM477.251 330.975L442.011 308.055L480.351 283.335L515.171 306.625L477.261 330.975H477.251ZM470.051 276.445L431.571 301.255L382.111 269.085L421.281 243.825L470.051 276.445ZM410.981 236.935L371.661 262.295L328.191 234.015L368.121 208.265L410.981 236.935ZM327.901 181.365L344.721 192.615L304.461 218.575L287.411 207.485L327.911 181.365H327.901ZM276.921 214.235L293.971 225.325L253.831 251.205L237.111 239.895L276.921 214.225V214.235ZM226.721 246.605L243.441 257.915L204.301 283.155L187.771 271.725L226.711 246.615L226.721 246.605ZM177.431 278.385L193.961 289.815L162.451 310.135L145.921 298.705L177.431 278.385ZM97.6613 329.825L140.281 302.345L156.811 313.775L114.191 341.255L97.6712 329.825H97.6613ZM137.191 357.175L179.811 329.695L221.931 358.845L179.311 386.325L137.191 357.175ZM189.441 393.325L232.061 365.845L279.981 399.005L237.361 426.485L189.441 393.325ZM247.481 433.495L290.101 406.015L323.961 429.445L281.261 456.875L247.481 433.495ZM329.941 490.545L291.401 463.875L334.101 436.445L372.561 463.055L329.941 490.535V490.545ZM378.201 459.425L339.751 432.815L371.311 412.535L409.701 439.105L378.191 459.425H378.201ZM461.771 405.535L420.051 432.435L381.681 405.885L423.021 379.335L461.771 405.535Z" fill="#849465"/>
</g>
</g>
<path d="M449.251 235.51H118.131C114.361 235.51 111.281 238.58 111.281 242.36V447.04H456.091V242.36C456.091 238.59 453.021 235.51 449.241 235.51H449.251Z" stroke="#101727" stroke-miterlimit="10"/>
<path d="M81.5312 453.91H485.861V454.7C485.861 463.14 479.011 470 470.561 470H96.8313C88.3913 470 81.5312 463.15 81.5312 454.7V453.91Z" fill="#01654D" stroke="#101727" stroke-miterlimit="10" stroke-linecap="square"/>
<path d="M127.89 224.65L246.33 223.6L265.03 132.09C265.03 118.6 258.56 112.46 249.05 111.53L219.48 106.86L165.12 108.06L137.94 111.35C128.39 112.23 120.68 118.65 120.68 128.24L127.89 224.65Z" fill="#EAE2CF" stroke="#101727" stroke-miterlimit="10"/>
<path d="M197.318 138.96C198.788 138.96 199.988 137.77 199.988 136.29C199.988 134.81 198.798 133.62 197.318 133.62C195.848 133.62 194.648 134.81 194.648 136.29C194.648 137.76 195.848 138.96 197.318 138.96Z" stroke="#101727" stroke-miterlimit="10"/>
<path d="M165.109 108.06L176.699 141.98C176.699 141.98 183.809 123.43 202.199 123.43C214.779 123.43 222.369 133.63 222.369 133.63L219.479 106.87" stroke="#101727" stroke-miterlimit="10"/>
<path d="M197.318 138.96C198.788 138.96 199.988 137.77 199.988 136.29C199.988 134.81 198.798 133.62 197.318 133.62C195.848 133.62 194.648 134.81 194.648 136.29C194.648 137.76 195.848 138.96 197.318 138.96Z" stroke="#101727" stroke-miterlimit="10"/>
<path d="M204.379 156.44C204.299 156.21 202.199 123.43 202.199 123.43" stroke="#101727" stroke-miterlimit="10"/>
<path d="M219.46 32.61C235.8 63.38 228.05 84.53 225.13 92.5L224.98 92.91C223.78 96.18 221.05 98.47 217.87 99.2C216.38 99.54 214.8 99.55 213.22 99.16L212.88 99.08C204.66 97.06 182.85 91.68 166.41 60.88L219.46 32.61Z" fill="#EAE2CF" stroke="#101727" stroke-miterlimit="10"/>
<path d="M167.179 10.46L177.209 5.12001C189.089 -1.2 203.859 3.31001 210.179 15.18L219.469 32.64L166.399 60.88L157.109 43.42C150.789 31.55 155.299 16.78 167.179 10.46Z" fill="#E9BE51"/>
<path d="M166.391 60.85L233.441 25.17C234.711 24.49 235.191 22.92 234.521 21.65C233.841 20.38 232.271 19.9 231.001 20.57L202.581 35.69" fill="#E9BE51"/>
<path d="M166.391 60.85L233.441 25.17C234.711 24.49 235.191 22.92 234.521 21.65C233.841 20.38 232.271 19.9 231.001 20.57L202.581 35.69" stroke="#101727" stroke-miterlimit="10"/>
<path d="M166.388 60.85C158.908 59.77 154.118 68.93 159.418 74.39C164.398 79.52 171.988 77.11 176.408 75.44L165.108 108.06L202.188 123.42L219.468 106.86L217.868 99.2L176.408 75.44" fill="#EAE2CF"/>
<path d="M166.388 60.85C158.908 59.77 154.118 68.93 159.418 74.39C164.398 79.52 171.988 77.11 176.408 75.44M176.408 75.44L165.108 108.06L202.188 123.42L219.468 106.86L217.868 99.2L176.408 75.44Z" stroke="#101727" stroke-miterlimit="10"/>
<path d="M201.891 48.93C205.191 55.21 211.191 60.35 218.571 62.35C223.071 63.57 217.941 68.51 210.391 65.02" stroke="#101727" stroke-miterlimit="10"/>
<path d="M200.93 74.4C187.64 73.77 182.1 65.64 175.98 55.77L166.41 60.87C182.86 91.67 204.66 97.04 212.88 99.07L213.22 99.15C214.8 99.54 216.38 99.54 217.87 99.19C221.05 98.45 223.78 96.17 224.98 92.9L225.13 92.49C227.1 87.11 231.28 75.71 228.74 59.38C222.47 68.4 212.38 74.93 200.93 74.39V74.4Z" fill="#101727"/>
<path d="M217.87 54.14C219.31 53.81 220.2 52.37 219.87 50.94C219.54 49.5 218.1 48.61 216.67 48.94C215.23 49.27 214.34 50.71 214.67 52.14C215 53.57 216.44 54.47 217.87 54.14Z" stroke="#101727" stroke-miterlimit="10"/>
<path d="M196.652 51C193.972 52.08 192.192 54.08 191.512 56.28" stroke="#101727" stroke-miterlimit="10"/>
<path d="M214.488 43.14C217.118 41.94 219.788 42.01 221.858 43.03" stroke="#101727" stroke-miterlimit="10"/>
<path d="M187.821 12.43L185.641 15.31L192.951 20.84L195.131 17.96L187.821 12.43Z" fill="#01654D"/>
<path d="M196.492 16.26C200.562 19.77 201.382 23.17 201.622 25.17C199.622 25.48 196.112 25.6 191.572 22.57C191.452 22.67 191.342 22.77 191.212 22.86C190.272 23.59 189.322 24.2 188.352 24.7C195.442 30.05 201.052 28.96 203.162 28.55L203.252 28.53C203.652 28.45 204.022 28.28 204.332 28.04C204.992 27.53 205.372 26.71 205.302 25.83V25.72C205.112 23.57 204.642 17.86 197.582 12.5C197.392 13.77 197.032 15.03 196.492 16.26Z" fill="white"/>
<path d="M167.18 10.46C174.58 8.26999 180.25 11.16 180.25 11.16" stroke="#101727"/>
<path d="M197.971 151.26C199.441 151.26 200.641 150.07 200.641 148.59C200.641 147.12 199.451 145.92 197.971 145.92C196.501 145.92 195.301 147.11 195.301 148.59C195.301 150.07 196.501 151.26 197.971 151.26Z" stroke="#101727" stroke-miterlimit="10"/>
<path d="M205.43 82.06C209.97 83.89 218.57 82.16 220.89 76.84" stroke="#EAE2CF" stroke-miterlimit="10"/>
<path d="M156.148 191.28C156.148 187.8 158.968 184.98 162.448 184.98H167.338H176.748H181.638C185.118 184.98 187.938 187.8 187.938 191.28" fill="#EAE2CF"/>
<path d="M156.148 191.28C156.148 187.8 158.968 184.98 162.448 184.98H167.338H176.748H181.638C185.118 184.98 187.938 187.8 187.938 191.28" stroke="#101727" stroke-miterlimit="10"/>
<path d="M161.36 216.16H128.05C124.57 216.16 121.75 218.98 121.75 222.46C121.75 225.94 124.57 228.76 128.05 228.76H161.36" fill="#EAE2CF"/>
<path d="M161.36 216.16H128.05C124.57 216.16 121.75 218.98 121.75 222.46C121.75 225.94 124.57 228.76 128.05 228.76H161.36" stroke="#101727" stroke-miterlimit="10"/>
<path d="M161.36 203.57H128.05C124.57 203.57 121.75 206.39 121.75 209.87C121.75 213.35 124.57 216.17 128.05 216.17H161.36" fill="#EAE2CF"/>
<path d="M161.36 203.57H128.05C124.57 203.57 121.75 206.39 121.75 209.87C121.75 213.35 124.57 216.17 128.05 216.17H161.36" stroke="#101727" stroke-miterlimit="10"/>
<path d="M161.36 190.97H128.05C124.57 190.97 121.75 193.79 121.75 197.27C121.75 200.75 124.57 203.57 128.05 203.57H161.36" fill="#EAE2CF"/>
<path d="M161.36 190.97H128.05C124.57 190.97 121.75 193.79 121.75 197.27C121.75 200.75 124.57 203.57 128.05 203.57H161.36" stroke="#101727" stroke-miterlimit="10"/>
<path d="M187.159 190.95H221.039C224.549 190.95 227.389 188.11 227.389 184.6V148.7H265.189V198.8C265.189 215.23 251.959 228.56 235.569 228.74H235.239H227.389H154.539" fill="#EAE2CF"/>
<path d="M187.159 190.95H221.039C224.549 190.95 227.389 188.11 227.389 184.6V148.7H265.189V198.8C265.189 215.23 251.959 228.56 235.569 228.74H235.239H227.389H154.539" stroke="#101727" stroke-miterlimit="10"/>
<path d="M227.461 126.89C227.461 118.23 235.921 111.22 246.361 111.22C256.801 111.22 265.261 118.24 265.261 126.89L265.181 159.24C264.351 154.65 256.241 151.04 246.361 151.04C236.471 151.04 228.371 154.65 227.541 159.24H227.391L227.471 126.89H227.461Z" fill="#EAE2CF" stroke="#101727" stroke-miterlimit="10"/>
<path d="M194.059 59.33C197.009 54.68 201.529 56.83 201.529 56.83C201.529 56.83 198.349 56.57 196.669 61.98" stroke="#101727" stroke-linejoin="round"/>
<path d="M210.839 168.76L178.819 179.83C175.509 180.98 171.889 179.22 170.749 175.91L159.009 141.98L123.289 154.34L139.669 201.68C145.039 217.21 161.899 225.48 177.449 220.3L177.769 220.2L185.189 217.63L248.329 195.79L236.679 167.72" fill="#EAE2CF"/>
<path d="M210.839 168.76L178.819 179.83C175.509 180.98 171.889 179.22 170.749 175.91L159.009 141.98L123.289 154.34L139.669 201.68C145.039 217.21 161.899 225.48 177.449 220.3L177.769 220.2L185.189 217.63L248.329 195.79L236.679 167.72" stroke="#101727" stroke-miterlimit="10"/>
<path d="M241.02 184.99L249.96 182.05C253.25 180.91 256.83 182.66 257.97 185.94C259.11 189.23 257.36 192.81 254.08 193.95L245.14 196.89" fill="#EAE2CF"/>
<path d="M241.02 184.99L249.96 182.05C253.25 180.91 256.83 182.66 257.97 185.94C259.11 189.23 257.36 192.81 254.08 193.95L245.14 196.89" stroke="#101727" stroke-miterlimit="10"/>
<path d="M236.91 173.08L245.85 170.14C249.14 169 252.72 170.75 253.86 174.03C255 177.32 253.25 180.9 249.97 182.04L241.03 184.98" fill="#EAE2CF"/>
<path d="M236.91 173.08L245.85 170.14C249.14 169 252.72 170.75 253.86 174.03C255 177.32 253.25 180.9 249.97 182.04L241.03 184.98" stroke="#101727" stroke-miterlimit="10"/>
<path d="M236.911 173.08L245.851 170.14C249.141 169 250.881 165.42 249.741 162.13C248.601 158.84 245.021 157.1 241.731 158.24L232.791 161.18C231.611 161.59 230.371 160.76 230.301 159.51L229.491 145.3C229.231 141.83 226.201 139.23 222.741 139.5C219.271 139.76 216.671 142.79 216.941 146.25L217.831 155.84C217.961 157.25 217.841 158.67 217.481 160.04C216.501 163.76 213.801 166.79 210.211 168.19L192.281 175.2" fill="#EAE2CF"/>
<path d="M236.911 173.08L245.851 170.14C249.141 169 250.881 165.42 249.741 162.13C248.601 158.84 245.021 157.1 241.731 158.24L232.791 161.18C231.611 161.59 230.371 160.76 230.301 159.51L229.491 145.3C229.231 141.83 226.201 139.23 222.741 139.5C219.271 139.76 216.671 142.79 216.941 146.25L217.831 155.84C217.961 157.25 217.841 158.67 217.481 160.04C216.501 163.76 213.801 166.79 210.211 168.19L192.281 175.2" stroke="#101727" stroke-miterlimit="10"/>
<path d="M116.14 134.07C113.29 125.9 119 116.49 128.89 113.04C138.78 109.59 149.11 113.42 151.96 121.58L162.6 152.1C160.3 148.04 151.36 147.34 141.99 150.61C132.62 153.88 126.2 159.93 126.92 164.54L126.78 164.59L116.14 134.07Z" fill="#EAE2CF" stroke="#101727" stroke-miterlimit="10"/>
<path d="M208.712 413.63C215.538 413.63 221.072 408.096 221.072 401.27C221.072 394.444 215.538 388.91 208.712 388.91C201.885 388.91 196.352 394.444 196.352 401.27C196.352 408.096 201.885 413.63 208.712 413.63Z" fill="#01654D" stroke="#101727" stroke-miterlimit="10"/>
<path d="M208.6 392.51L215.93 397.36V407.86H201.5V397.36L208.6 392.51Z" fill="#E9BE51" stroke="#101727" stroke-miterlimit="10"/>
<path d="M246.391 368.11C253.217 368.11 258.751 362.576 258.751 355.75C258.751 348.924 253.217 343.39 246.391 343.39C239.565 343.39 234.031 348.924 234.031 355.75C234.031 362.576 239.565 368.11 246.391 368.11Z" fill="#01654D" stroke="#101727" stroke-miterlimit="10"/>
<path d="M246.282 346.98L253.602 351.83V362.33H239.172V351.83L246.282 346.98Z" fill="#E9BE51" stroke="#101727" stroke-miterlimit="10"/>
<path d="M198.001 287.78C204.827 287.78 210.361 282.246 210.361 275.42C210.361 268.594 204.827 263.06 198.001 263.06C191.174 263.06 185.641 268.594 185.641 275.42C185.641 282.246 191.174 287.78 198.001 287.78Z" fill="#01654D" stroke="#101727" stroke-miterlimit="10"/>
<path d="M197.891 266.65L205.211 271.5V282H190.781V271.5L197.891 266.65Z" fill="#E9BE51" stroke="#101727" stroke-miterlimit="10"/>
<path d="M192.93 349.06C199.757 349.06 205.29 343.526 205.29 336.7C205.29 329.874 199.757 324.34 192.93 324.34C186.104 324.34 180.57 329.874 180.57 336.7C180.57 343.526 186.104 349.06 192.93 349.06Z" fill="#01654D" stroke="#101727" stroke-miterlimit="10"/>
<path d="M192.819 327.93L200.149 332.78V343.28H185.719V332.78L192.819 327.93Z" fill="#E9BE51" stroke="#101727" stroke-miterlimit="10"/>
<path d="M405.479 421.9C481.159 421.9 542.509 360.729 542.509 285.27C542.509 209.811 481.159 148.64 405.479 148.64C329.8 148.64 268.449 209.811 268.449 285.27C268.449 360.729 329.8 421.9 405.479 421.9Z" fill="#A99E53"/>
<mask id="mask2_2727_16483" style="mask-type:luminance" maskUnits="userSpaceOnUse" x="268" y="149" width="275" height="274">
<path d="M405.479 422.26C481.159 422.26 542.509 361.089 542.509 285.63C542.509 210.171 481.159 149 405.479 149C329.8 149 268.449 210.171 268.449 285.63C268.449 361.089 329.8 422.26 405.479 422.26Z" fill="white"/>
</mask>
<g mask="url(#mask2_2727_16483)">
<path d="M660.721 299.43L676.001 276.04L521.901 175.41L586.521 136.23L582.741 130L515.131 170.99L488.251 153.44L537.361 123.67L522.881 99.78L462.311 136.5L430.081 115.45L480.881 84.65L471.441 69.07L413.161 104.4L348.891 62.43L333.611 85.82L386.661 120.47L323.741 158.61L263.981 119.85L256.051 132.08L309.901 167L194.721 236.82L191.841 234.91L187.791 241.02L106.501 290.3L90.1311 279.07L74.3311 302.11L80.2811 306.19L60.3711 318.26L69.8111 333.84L96.7711 317.5L128.181 339.05L99.9911 356.14L114.471 380.03L153.461 356.39L179.661 374.36L173.901 377.85L177.681 384.08L186.261 378.88L298.111 455.6L234.661 494.06L237.811 499.25L303.611 459.36L367.901 503.46L383.701 480.42L329.821 443.46L395.591 403.58L518.721 485.27L534.161 461.99L415.361 380.95L533.221 309.5L629.351 374.18L637.281 361.95L553.691 307.74L581.811 290.7L619.611 317.41L630.121 302.53L598.801 280.4L615.791 270.1L660.701 299.43H660.721ZM302.581 308.37L419.031 237.77L458.701 263.5L346.211 337.31L302.571 308.36L302.581 308.37ZM434.041 186.29L459.831 204.51L426.081 224.97L399.101 207.47L434.041 186.29ZM412.231 233.36L295.861 303.91L257.221 274.24L373.281 203.88L412.241 233.36H412.231ZM432.871 229.38L466.321 209.1L502.571 234.71L472.011 254.76L432.871 229.37V229.38ZM483.311 198.8L495.401 191.47L532.021 215.39L518.941 223.97L483.311 198.8ZM476.821 194.21L451.031 175.99L461.741 169.5L488.621 187.06L476.811 194.22L476.821 194.21ZM373.061 190.59L340.711 169.61L403.571 131.5L435.801 152.55L373.061 190.59ZM359.221 198.98L243.471 269.15L211.501 247.94L326.871 178L359.221 198.98ZM217.071 285.16L154.401 323.15L122.991 301.6L185.101 263.95L217.071 285.16ZM242.801 302.23L269.461 319.92L205.881 358.46L179.681 340.49L242.791 302.23H242.801ZM276.171 324.37L390.001 399.89L324.321 439.71L212.471 362.99L276.171 324.38V324.37ZM362.721 348.27L475.391 274.33L522.451 300.72L404.661 372.13L362.721 348.26V348.27ZM488.711 265.6L518.561 246.01L576.411 286.88L548.041 304.08L488.711 265.6ZM534.931 235.27L543.471 229.66L535.671 217.77L610.161 266.42L593.401 276.58L534.931 235.27Z" fill="#849465"/>
</g>
<path d="M315.73 236.61L316.13 274.55L348.34 255.65V216.92L315.73 236.61Z" fill="#A99E53"/>
<path d="M315.929 274.02L283.719 254.91L283.929 216.92L315.899 197.94L348.339 216.92L315.729 236.61L315.929 274.02Z" fill="#DDD2BA"/>
<path d="M315.9 197.94L283.93 216.92V255.44L316.13 274.55L348.34 255.65V216.92L315.9 197.94Z" stroke="#101727" stroke-miterlimit="10"/>
<path d="M315.73 236.61L316.13 274.55" stroke="#101727" stroke-miterlimit="10"/>
<path d="M283.93 216.92L315.73 236.61L348.34 216.92" stroke="#101727" stroke-miterlimit="10"/>
<path d="M294.332 243.63L287.192 239.21L287.102 245.46L294.332 249.85V243.63Z" fill="#EAE2CF"/>
<path d="M302.73 248.85L295.59 244.43L295.5 250.68L302.73 255.06V248.85Z" fill="#EAE2CF"/>
<path d="M311.289 253.98L304.149 249.56L304.059 255.81L311.289 260.2V253.98Z" fill="#EAE2CF"/>
<path d="M294.332 235.7L287.192 231.28L287.102 237.53L294.332 241.92V235.7Z" fill="#EAE2CF"/>
<path d="M302.73 240.92L295.59 236.5L295.5 242.75L302.73 247.13V240.92Z" fill="#EAE2CF"/>
<path d="M311.289 246.05L304.149 241.63L304.059 247.88L311.289 252.27V246.05Z" fill="#EAE2CF"/>
<path d="M372.889 314.28L336.469 292.66V249.09L372.429 219.37L409.319 249.09L372.429 271.36L372.889 314.28Z" fill="#E9BE51"/>
<path d="M336.469 249.09L372.429 271.36L409.319 249.09L372.429 219.37L336.469 249.09Z" fill="#01654D"/>
<path d="M372.43 271.36L372.89 314.28L409.32 292.9V249.09L372.43 271.36Z" fill="#A99E53"/>
<path d="M372.429 219.37L336.469 249.09V292.66L372.889 314.28L409.319 292.9V249.09L372.429 219.37Z" stroke="#101727" stroke-miterlimit="10"/>
<path d="M372.43 271.36L372.89 314.28" stroke="#101727" stroke-miterlimit="10"/>
<path d="M336.469 249.09L372.429 271.36L409.319 249.09" stroke="#101727" stroke-miterlimit="10"/>
<path d="M348.231 271.72L340.161 266.72L340.051 279.98L348.231 284.94V271.72Z" fill="#EAE2CF"/>
<path d="M357.739 277.62L349.659 272.62L349.559 285.88L357.739 290.84V277.62Z" fill="#EAE2CF"/>
<path d="M367.418 283.43L359.338 278.43L359.238 291.69L367.418 296.64V283.43Z" fill="#EAE2CF"/>
<path d="M372.43 219.37V271.36" stroke="#101727" stroke-miterlimit="10"/>
<path d="M430.969 268.08L431.449 353.56L469.369 331.31V244.9L430.969 268.08Z" fill="#A99E53"/>
<path d="M431.211 352.93L393.301 330.43L393.531 244.9L431.181 222.56L469.371 244.9L430.971 268.08L431.211 352.93Z" fill="#DDD2BA"/>
<path d="M431.181 222.56L393.531 244.9V331.05L431.451 353.56L469.371 331.31V244.9L431.181 222.56Z" stroke="#101727" stroke-miterlimit="10"/>
<path d="M430.969 268.08L431.449 353.56" stroke="#101727" stroke-miterlimit="10"/>
<path d="M393.531 244.9L430.971 268.08L469.371 244.9" stroke="#101727" stroke-miterlimit="10"/>
<path d="M415.25 315.4L406.84 310.2L406.73 324L415.25 329.16V315.4Z" fill="#EAE2CF"/>
<path d="M415.25 295.02L406.84 289.82L406.73 303.62L415.25 308.78V295.02Z" fill="#EAE2CF"/>
<path d="M415.25 265.9L406.84 260.7L406.73 274.5L415.25 279.66V265.9Z" fill="#EAE2CF"/>
<path d="M449.328 326.39L483.618 306.17H496.488L518.298 319.02L485.958 339.04L464.638 325.58L449.328 326.39Z" fill="#01654D"/>
<path d="M485.961 339.04L486.431 383.01L518.301 363.9V319.02L485.961 339.04Z" fill="#A99E53"/>
<path d="M449.432 326.33L483.622 306.17C483.622 306.17 483.622 306.17 483.632 306.17H496.482C496.482 306.17 496.482 306.17 496.492 306.17L518.252 318.99C518.252 318.99 518.272 319.03 518.252 319.04L485.972 339.03C485.972 339.03 485.952 339.03 485.942 339.03L464.642 325.58C464.642 325.58 464.632 325.58 464.622 325.58L449.432 326.38C449.432 326.38 449.392 326.34 449.412 326.33H449.432Z" stroke="#101727" stroke-miterlimit="10"/>
<path d="M464.642 325.58L485.962 339.04L486.432 383.01L448.852 361.03L449.332 326.39L464.642 325.58L485.962 339.04L464.642 325.58Z" fill="#DDD2BA"/>
<path d="M485.961 339.04L486.431 383.01" stroke="#101727" stroke-miterlimit="10"/>
<path d="M485.961 339.04L518.301 319.02" stroke="#101727" stroke-miterlimit="10"/>
<path d="M462.001 342.27L453.731 337.15L453.621 350.73L462.001 355.81V342.27Z" fill="#EAE2CF"/>
<path d="M471.739 348.31L463.459 343.19L463.359 356.77L471.739 361.85V348.31Z" fill="#EAE2CF"/>
<path d="M481.661 354.26L473.381 349.14L473.281 362.73L481.661 367.81V354.26Z" fill="#EAE2CF"/>
<path d="M485.961 339.08L486.431 382.89C486.431 382.95 486.491 382.98 486.541 382.95L518.271 363.92C518.271 363.92 518.311 363.88 518.311 363.86V319.15C518.311 319.09 518.251 319.06 518.201 319.09L486.011 339.02C486.011 339.02 485.981 339.06 485.981 339.08H485.961Z" stroke="#101727" stroke-miterlimit="10"/>
<path d="M496.492 306.17L464.642 325.58L485.962 339.04L486.432 382.76C486.432 382.87 486.312 382.94 486.222 382.88L448.852 361.02L449.332 326.49C449.332 326.43 449.382 326.37 449.442 326.37L464.642 325.57L485.962 339.03" stroke="#101727" stroke-miterlimit="10"/>
<path d="M552.892 64.36C539.742 55.41 521.812 58.81 512.862 71.97L490.922 104.21L538.562 136.63L560.502 104.39C569.452 91.24 566.052 73.31 552.892 64.36Z" fill="#DDD2BA" stroke="#101727" stroke-miterlimit="10"/>
<path d="M377.079 145.06C300.029 159.7 249.449 234.03 264.089 311.08C278.729 388.13 353.059 438.71 430.109 424.07C507.159 409.43 557.739 335.1 543.099 258.05C528.459 181 454.129 130.42 377.079 145.06ZM426.139 403.22C360.709 415.66 297.359 372.54 284.929 307.11C272.489 241.68 315.609 178.33 381.039 165.9C446.469 153.46 509.819 196.58 522.249 262.01C534.689 327.44 491.569 390.79 426.139 403.22Z" fill="#EAE2CF" stroke="#101727" stroke-miterlimit="10"/>
<path d="M505.299 185.49L538.549 136.63L490.909 104.21L457.539 153.24C475.469 160.63 491.749 171.61 505.289 185.49H505.299Z" fill="#EAE2CF" stroke="#101727" stroke-miterlimit="10"/>
<path d="M372.431 87.54C396.164 87.54 415.401 106.776 415.401 130.51C415.401 151.091 404.604 172.477 393.75 188.764C388.329 196.897 382.908 203.74 378.842 208.548C376.809 210.952 375.114 212.846 373.93 214.14C373.338 214.786 372.873 215.282 372.557 215.616C372.511 215.664 372.468 215.708 372.429 215.749C372.39 215.709 372.349 215.666 372.305 215.619C371.988 215.288 371.523 214.796 370.931 214.154C369.746 212.871 368.052 210.991 366.02 208.603C361.953 203.826 356.532 197.021 351.111 188.913C340.258 172.678 329.461 151.292 329.461 130.51C329.461 106.776 348.697 87.5402 372.431 87.54ZM372.431 110.73C360.965 110.731 351.671 120.024 351.671 131.49C351.671 142.956 360.965 152.25 372.431 152.25C383.897 152.25 393.191 142.956 393.191 131.49C393.191 120.024 383.897 110.73 372.431 110.73Z" fill="#01654D" stroke="#101727"/>
<path d="M372.429 151.56C383.74 151.56 392.909 142.391 392.909 131.08C392.909 119.769 383.74 110.6 372.429 110.6C361.118 110.6 351.949 119.769 351.949 131.08C351.949 142.391 361.118 151.56 372.429 151.56Z" fill="white"/>
</g>
<defs>
<clipPath id="clip0_2727_16483">
<rect width="678" height="470" fill="white"/>
</clipPath>
</defs>
</svg>
