<svg width="80" height="81" viewBox="0 0 80 81" fill="none" xmlns="http://www.w3.org/2000/svg">
<path d="M35.1629 14.9619H0L5.28801 27.2395H40.4509L35.1629 14.9619Z" fill="#01654D"/>
<path d="M63.7227 0.5H16.9727V27.2395H63.7227V0.5Z" fill="#E9BE51" stroke="#E9BE51" stroke-miterlimit="10"/>
<path d="M79.8891 14.9619H45.7408L40.4492 27.2395H74.5976L79.8891 14.9619Z" fill="#01654D"/>
<path d="M74.778 27.0634H40.2773V80.3239H74.778V27.0634Z" fill="#01654D"/>
<path d="M74.6022 27.2395V80.1477H40.4539V27.2395H74.6022ZM74.9545 26.8872H40.1016V80.5H74.9545V26.8872Z" fill="#101727"/>
<path d="M40.6246 27.0634H5.10938V80.3239H40.6246V27.0634Z" fill="#EAE2CF"/>
<path d="M40.4488 27.2395V80.1477H5.28589V27.2395H40.4488ZM40.8011 26.8872H4.93359V80.5H40.8011V26.8872Z" fill="#101727"/>
<path d="M40.3475 64.4633C46.2974 64.4633 51.1208 59.64 51.1208 53.69C51.1208 47.7401 46.2974 42.9167 40.3475 42.9167C34.3976 42.9167 29.5742 47.7401 29.5742 53.69C29.5742 59.64 34.3976 64.4633 40.3475 64.4633Z" fill="#E9BE51"/>
<path d="M38.8775 57.8507L34.5195 54.1022L35.4637 53.0066L38.8035 55.8884L45.1554 49.5364L46.1736 50.5581L38.8775 57.8507Z" fill="#101727"/>
</svg>
