<svg width="81" height="86" viewBox="0 0 81 86" fill="none" xmlns="http://www.w3.org/2000/svg">
<path d="M38.8789 72.6608V43.6968" stroke="#E8BD51" stroke-miterlimit="10"/>
<path d="M13.1758 65.6395V53.1362H31.6922V38.1644" stroke="#E8BD51" stroke-miterlimit="10"/>
<path d="M13.5312 65.6395V53.1362H32.0477V38.1644" stroke="#E8BD51" stroke-miterlimit="10"/>
<path d="M64.5754 65.6395V53.1362H46.0625V38.1644" stroke="#E8BD51" stroke-miterlimit="10"/>
<path d="M38.8781 85.4404C42.4071 85.4404 45.2679 82.5796 45.2679 79.0506C45.2679 75.5216 42.4071 72.6608 38.8781 72.6608C35.3491 72.6608 32.4883 75.5216 32.4883 79.0506C32.4883 82.5796 35.3491 85.4404 38.8781 85.4404Z" fill="#01654D"/>
<path d="M13.175 73.9093C16.704 73.9093 19.5648 71.0485 19.5648 67.5195C19.5648 63.9905 16.704 61.1297 13.175 61.1297C9.64597 61.1297 6.78516 63.9905 6.78516 67.5195C6.78516 71.0485 9.64597 73.9093 13.175 73.9093Z" fill="#EAE2CF"/>
<path d="M64.5773 73.9093C68.1063 73.9093 70.9671 71.0485 70.9671 67.5195C70.9671 63.9905 68.1063 61.1297 64.5773 61.1297C61.0483 61.1297 58.1875 63.9905 58.1875 67.5195C58.1875 71.0485 61.0483 73.9093 64.5773 73.9093Z" fill="#EAE2CF"/>
<path d="M30.6882 0.5H44.7594C57.8727 0.5 68.5176 11.3566 68.5176 24.7282V40.3565H6.93359V24.7282C6.93359 11.3566 17.5785 0.5 30.6918 0.5H30.6882Z" fill="#E8BD51" stroke="#101727" stroke-miterlimit="10"/>
<path d="M51.1593 37.4289H76.3346C78.638 37.4289 80.5 39.334 80.5 41.6768C80.5 44.0196 78.6344 45.9247 76.3346 45.9247H4.66539C2.36205 45.9247 0.5 44.0196 0.5 41.6768C0.5 39.334 2.36563 37.4289 4.66539 37.4289H9.88918" fill="#E8BD51"/>
<path d="M51.1593 37.4289H76.3346C78.638 37.4289 80.5 39.334 80.5 41.6768C80.5 44.0196 78.6344 45.9247 76.3346 45.9247H4.66539C2.36205 45.9247 0.5 44.0196 0.5 41.6768C0.5 39.334 2.36563 37.4289 4.66539 37.4289H9.88918" stroke="#101727" stroke-miterlimit="10"/>
<path d="M40.9667 0.5C50.1801 0.5 61.3309 7.71141 61.3309 25.3094H54.2271C54.2271 11.6077 43.3346 0.5 29.8984 0.5" stroke="#101727" stroke-miterlimit="10"/>
</svg>
