<svg width="678" height="470" viewBox="0 0 678 470" fill="none" xmlns="http://www.w3.org/2000/svg">
<g clip-path="url(#clip0_3056_411)">
<path opacity="0.12" d="M98.416 166.558C139.687 166.558 173.145 133.068 173.145 91.757C173.145 50.4456 139.687 16.9561 98.416 16.9561C57.1446 16.9561 23.6875 50.4456 23.6875 91.757C23.6875 133.068 57.1446 166.558 98.416 166.558Z" fill="#01654D"/>
<path d="M68.1197 432.559C69.1085 431.789 69.7077 430.609 69.7077 429.349V427.53C69.7077 419.922 75.6205 413.443 83.2212 413.174C91.2014 412.884 97.7634 419.272 97.7634 427.19V429.349C97.7634 430.599 98.3527 431.789 99.3514 432.559C102.577 435.068 104.685 438.957 104.785 443.336C104.955 451.224 98.2927 457.672 90.4124 457.672H84.6794V469.019H82.8117V457.672H77.0787C69.1984 457.672 62.5365 451.214 62.7063 443.336C62.8062 438.947 64.9036 435.068 68.1397 432.559" fill="#01654D" fill-opacity="0.13"/>
<path d="M13.3437 440.277C13.7832 440.037 14.0728 439.577 14.1028 439.077C14.5323 431.169 15.9905 422.102 23.5113 422.102C31.0321 422.102 32.4903 431.159 32.9198 439.067C32.9497 439.567 33.2294 440.027 33.6788 440.267C36.9948 442.086 39.2021 445.666 39.0522 449.744C38.8425 455.353 34.0683 459.722 28.4452 459.722H24.4401V469.499H22.5724V459.722H18.5673C12.9542 459.722 8.17005 455.363 7.96031 449.744C7.81049 445.666 10.0178 442.086 13.3337 440.267L13.3437 440.277Z" fill="#01654D" fill-opacity="0.13"/>
<path d="M50.0879 454.344C50.3076 454.224 50.4574 453.994 50.4574 453.744C50.6672 449.785 51.4063 445.256 55.1617 445.256C58.9171 445.256 59.6562 449.785 59.8659 453.744C59.8859 453.994 60.0257 454.224 60.2454 454.344C61.9034 455.253 63.0121 457.043 62.9322 459.082C62.8323 461.882 60.4352 464.071 57.6287 464.071H55.9807V468.96H54.3227V464.071H52.6747C49.8682 464.071 47.4811 461.892 47.3712 459.082C47.2913 457.033 48.4099 455.253 50.0579 454.344H50.0779H50.0879Z" fill="#01654D" fill-opacity="0.13"/>
<path d="M146.331 412.304L175.445 383.191L204.549 412.304H233.134V469.02H117.766V412.304H146.331Z" fill="#01654D" fill-opacity="0.13"/>
<path d="M638.68 299.193H624.418V193.48H612.203V154.01H601.396V132.756H591.878V96.2949H587.823V132.756H579.313V137.564H571.792V154.01H560.985V171.866H550.648V193.48H537.025V311.88H522.463V395.529H513.074V361.077H498.052V372.814H485.967V336.903H477.168V351.56H470.576V360.717H458.481V333.974H438.336V301.742H395.838V314.189H385.211V292.945H384.112V314.189H374.953V340.203H370.189V394.419H365.065V328.486H362.129V303.932H360.661V328.486H357.734V339.473H353.709V394.419H317.803V362.547H306.078V376.103H299.486V416.403H287.031V346.801H271.28V365.846H258.815V374.274H247.09V379.033H223.648V469.02H638.68V299.193Z" fill="#01654D" fill-opacity="0.13"/>
<path d="M402.06 239.759L400.133 427.651L466.072 427.761L465.703 276.01L487.736 239.759H402.06Z" fill="#01654D"/>
<path d="M487.734 239.759H523.88L572.291 427.651L506.351 427.761L459.229 276.01L423.812 239.759H487.734Z" fill="#01654D"/>
<path d="M458.217 432.389L457.148 469.29H378.305C378.305 469.29 367.118 444.466 405.841 444.466C406.74 436.888 405.242 431.909 405.242 431.909L458.227 432.379L458.217 432.389Z" fill="#EAE2CF"/>
<path d="M458.217 432.389L457.148 469.29H378.305C378.305 469.29 367.118 444.466 405.841 444.466C406.83 438.368 405.242 431.909 405.242 431.909L458.227 432.379L458.217 432.389Z" stroke="#101727" stroke-miterlimit="10"/>
<path d="M510.766 432.439L517.278 469.29H596.121C596.121 469.29 607.307 444.466 568.585 444.466C567.227 437.348 565.828 431.939 565.828 431.939L510.766 432.429V432.439Z" fill="#EAE2CF"/>
<path d="M510.766 432.439L517.278 469.29H596.121C596.121 469.29 607.307 444.466 568.585 444.466C567.227 437.348 565.828 431.939 565.828 431.939L510.766 432.429V432.439Z" stroke="#101727" stroke-miterlimit="10"/>
<path d="M468.705 437.348H396.283L393.906 417.023H471.072L468.705 437.348Z" fill="#01654D"/>
<path d="M503.715 437.348H576.127L578.504 417.023H501.328L503.715 437.348Z" fill="#01654D"/>
<path d="M393.914 417.023H471.08" stroke="#101727" stroke-miterlimit="10"/>
<path d="M396.281 437.348H468.703" stroke="#101727" stroke-miterlimit="10"/>
<path d="M501.328 417.023H578.504" stroke="#101727" stroke-miterlimit="10"/>
<path d="M503.711 437.348H576.122" stroke="#101727" stroke-miterlimit="10"/>
<path d="M531.083 242.668H386.43L387.678 131.806C387.788 122.349 393.791 113.971 402.69 110.822L424.923 102.974H476.489L511.936 107.872L531.063 242.658L531.083 242.668Z" fill="#EAE2CF"/>
<path d="M531.083 242.668H386.43L387.678 131.806C387.788 122.349 393.791 113.971 402.69 110.822L424.923 102.974H476.489L511.936 107.872L531.063 242.658L531.083 242.668Z" stroke="#101727" stroke-miterlimit="10"/>
<path d="M479.44 111.011L465.707 76.3103L470.341 76.6402L476.544 75.7304L481.098 73.331L483.915 69.522L484.494 65.2131L482.756 61.0742L477.712 57.845H474.157L470.761 58.005L408.617 41.0293L406.879 45.1682L404.981 54.9357L404.062 64.8832L404.642 74.4108L417.226 95.3554L440.008 103.083L465.058 115.07L479.45 111.001L479.44 111.011Z" fill="#EAE2CF"/>
<path d="M408.091 40.9189C398.203 77.9995 411.756 98.7842 416.86 106.612L417.119 107.012C419.217 110.231 422.713 112.001 426.308 112.001C427.986 112.001 429.684 111.611 431.282 110.801L431.632 110.631C439.942 106.422 461.995 95.2351 471.992 58.0946L408.091 40.9289V40.9189Z" stroke="#101727" stroke-miterlimit="10"/>
<path d="M458.662 4.1587L446.587 0.919523C432.284 -2.9195 417.562 5.58833 413.727 19.9047L408.094 40.9493L472.005 58.0849L477.639 37.0403C481.474 22.724 472.974 7.99772 458.662 4.1587Z" fill="#E9BE51"/>
<path d="M472.002 58.045L391.251 36.4005C389.723 35.9906 388.814 34.421 389.223 32.8914C389.633 31.3618 391.201 30.4521 392.739 30.862L426.957 40.0396" fill="#E9BE51"/>
<path d="M472.002 58.045L391.251 36.4005C389.723 35.9906 388.814 34.421 389.223 32.8914C389.633 31.3618 391.201 30.4521 392.739 30.862L426.957 40.0396" stroke="#101727" stroke-miterlimit="10"/>
<path d="M472.004 58.0447C479.755 55.0355 487.176 63.6732 482.841 70.8514C478.776 77.5897 470.027 76.8899 464.883 76.1901" stroke="#101727" stroke-miterlimit="10"/>
<path d="M430.982 54.0664C429.005 61.6345 423.841 68.6327 416.42 72.6117C411.896 75.041 418.628 79.07 425.849 73.4415" stroke="#101727" stroke-miterlimit="10"/>
<path d="M438.322 81.1687C452.415 77.1897 456.34 67.0923 460.455 54.9854L471.981 58.0846C461.983 95.2251 439.93 106.412 431.621 110.621L431.271 110.791C429.683 111.601 427.975 111.991 426.297 111.991C422.702 111.991 419.206 110.221 417.108 107.002L416.849 106.602C413.403 101.314 406.092 90.1164 404.773 71.961C413.732 80.0889 426.177 84.5978 438.322 81.1687Z" fill="#101727"/>
<path d="M438.322 81.1687C452.415 77.1897 456.34 67.0923 460.455 54.9854L471.981 58.0846C461.983 95.2251 439.93 106.412 431.621 110.621L431.271 110.791C429.683 111.601 427.975 111.991 426.297 111.991C422.702 111.991 419.206 110.221 417.108 107.002L416.849 106.602C413.403 101.314 406.092 90.1164 404.773 71.961C413.732 80.0889 426.177 84.5978 438.322 81.1687Z" stroke="#101727" stroke-miterlimit="10"/>
<path d="M436.397 66.5631C438.019 66.5631 439.334 65.2471 439.334 63.6238C439.334 62.0005 438.019 60.6846 436.397 60.6846C434.776 60.6846 433.461 62.0005 433.461 63.6238C433.461 65.2471 434.776 66.5631 436.397 66.5631Z" stroke="#101727" stroke-miterlimit="10"/>
<path d="M436.21 138.634C437.832 138.634 439.146 137.318 439.146 135.695C439.146 134.072 437.832 132.756 436.21 132.756C434.588 132.756 433.273 134.072 433.273 135.695C433.273 137.318 434.588 138.634 436.21 138.634Z" stroke="#101727" stroke-miterlimit="10"/>
<path d="M433.202 152.401C434.824 152.401 436.138 151.085 436.138 149.462C436.138 147.838 434.824 146.522 433.202 146.522C431.58 146.522 430.266 147.838 430.266 149.462C430.266 151.085 431.58 152.401 433.202 152.401Z" stroke="#101727" stroke-miterlimit="10"/>
<path d="M416.265 63.397C417.763 62.7758 418.475 61.0565 417.854 59.5567C417.234 58.057 415.516 57.3448 414.018 57.966C412.519 58.5872 411.808 60.3066 412.428 61.8063C413.049 63.3061 414.767 64.0183 416.265 63.397Z" stroke="#101727" stroke-miterlimit="10"/>
<path d="M437.102 54.9854C440.248 55.4852 442.645 57.1748 443.933 59.3742" stroke="#101727" stroke-miterlimit="10"/>
<path d="M416.032 50.9764C412.916 50.3366 410.069 51.0764 408.102 52.686" stroke="#101727" stroke-miterlimit="10"/>
<path d="M435.399 90.5068C430.985 93.5961 421.327 93.876 417.531 88.7373" stroke="#EAE2CF" stroke-miterlimit="10"/>
<path d="M464.85 73.9912L476.506 102.984L446.333 121.579L430.492 101.924L464.85 73.9912Z" stroke="#101727" stroke-miterlimit="10"/>
<path d="M439.352 156.39C439.441 156.14 446.333 121.579 446.333 121.579" stroke="#101727" stroke-miterlimit="10"/>
<path d="M476.524 103.094L467.505 141.774C467.505 141.774 460.184 121.589 446.331 121.589C432.478 121.589 422.141 135.765 422.141 135.765L427.194 110.882" stroke="#101727" stroke-miterlimit="10"/>
<path d="M429.526 9.64277L425.766 10.9336L429.038 20.4849L432.798 19.1941L429.526 9.64277Z" fill="#01654D"/>
<path d="M426.789 21.3439C429.056 26.8125 432.332 28.842 434.34 29.7818C435.349 27.7923 436.687 24.1632 435.069 18.3747C435.219 18.2847 435.359 18.2047 435.498 18.0947C436.577 17.3649 437.556 16.5751 438.405 15.7354C441.561 25.003 438.495 30.4916 437.336 32.5711L437.286 32.661C437.057 33.0609 436.767 33.3808 436.407 33.6208C435.658 34.1307 434.659 34.2606 433.761 33.8707L433.651 33.8307C431.463 32.901 425.65 30.4416 422.484 21.214C423.873 21.4439 425.321 21.5039 426.789 21.3639H426.779L426.789 21.3439Z" fill="white"/>
<path d="M406.986 92.7363H103.367V469.5H406.986V92.7363Z" fill="#01654D" stroke="#101727" stroke-miterlimit="10"/>
<path d="M400 92H101V470H400V92Z" fill="white" stroke="#101727" stroke-miterlimit="10"/>
<path d="M257.195 91.8965L257.565 89.0872L260.421 83.5286L264.926 80.8393L270.968 80.3894L273.625 81.3392L276.721 80.4294L281.226 80.2195L285.87 81.4192L287.808 79.9695L293.261 79.8096L298.605 81.919L301.461 85.3881L302.859 91.5266L303.029 103.114L301.132 106.303L297.446 107.483L293.231 106.303L291.703 103.693L290.794 106.383L288.767 108.372L286.16 109.362L282.854 108.492L280.736 105.753L280.287 103.234L278.18 106.133L276.272 107.173L272.467 107.043L269.9 105.093L269.031 94.0859L268.851 91.5766L257.195 91.8965Z" fill="#EAE2CF"/>
<path d="M291.367 90.9769L291.667 102.014C291.757 105.123 294.344 107.573 297.45 107.493C300.556 107.403 303.013 104.813 302.923 101.704L302.623 90.667" stroke="#101727" stroke-miterlimit="10"/>
<path d="M280.109 91.2865L280.439 103.543C280.529 106.653 283.116 109.102 286.222 109.022C289.328 108.932 291.785 106.343 291.695 103.233L291.366 90.9766" stroke="#101727" stroke-miterlimit="10"/>
<path d="M280.108 91.2861L280.388 101.324C280.478 104.433 278.021 107.022 274.915 107.112C271.808 107.202 269.212 104.743 269.132 101.633L269.022 91.906C265.516 91.906 257.5 91.906 257.5 91.906" stroke="#101727" stroke-miterlimit="10"/>
<path d="M257.606 91.8965C257.436 85.6781 262.34 80.4894 268.552 80.3295C274.765 80.1595 279.948 85.0683 280.108 91.2867" stroke="#101727" stroke-miterlimit="10"/>
<path d="M274.211 81.6785C275.839 80.6688 277.747 80.0689 279.804 80.0189C286.016 79.849 291.2 84.7577 291.36 90.9761" stroke="#101727" stroke-miterlimit="10"/>
<path d="M285.469 81.3689C287.097 80.3592 289.004 79.7593 291.062 79.7094C297.274 79.5394 302.458 84.4482 302.618 90.6666" stroke="#101727" stroke-miterlimit="10"/>
<path d="M398.275 210.087L410.709 208.657L410.659 208.267L384.072 211.146C380.626 211.536 377.5 209.117 377.031 205.678C376.531 202.139 379.118 198.939 382.664 198.51L409.081 195.4L412.527 194.97L411.928 191.111L426.63 193.251L487.935 185.783V127.928C487.935 116.68 497.044 107.553 508.29 107.553C519.526 107.553 528.655 116.67 528.655 127.928V201.339C528.655 212.536 520.645 222.133 509.628 224.133L428.567 233.361L403.998 236.22C400.452 236.62 396.487 233.9 396.067 230.351C395.658 226.792 398.205 223.583 401.75 223.173L412.327 221.854L412.297 221.604L399.753 222.953C396.207 223.353 393.001 220.814 392.591 217.265C392.182 213.716 394.729 210.496 398.275 210.087Z" fill="#EAE2CF"/>
<path d="M398.424 209.677L410.799 208.247H410.659L384.072 211.146C380.626 211.536 377.5 209.107 377.031 205.678C376.531 202.139 379.118 198.939 382.664 198.51L409.081 195.4L412.527 194.97L426.62 193.251L487.925 185.783V127.928C487.925 116.68 497.034 107.553 508.28 107.553C519.516 107.553 528.645 116.67 528.645 127.928V201.339C528.645 212.536 520.635 222.133 509.618 224.133L428.557 233.361L403.988 236.16C400.442 236.56 396.477 233.841 396.057 230.291C395.648 226.732 398.195 223.523 401.74 223.113L412.317 221.844L411.678 221.924L399.193 223.273C395.648 223.673 393.051 220.804 392.641 217.255C392.232 213.696 394.859 210.077 398.414 209.667L398.424 209.677Z" stroke="#101727" stroke-miterlimit="10"/>
<path d="M487.93 159.799C501.783 149.362 520.09 151.851 528.64 160.629L487.93 159.799Z" fill="#EAE2CF"/>
<path d="M487.93 159.799C501.783 149.362 520.09 151.851 528.64 160.629" stroke="#101727" stroke-miterlimit="10"/>
<path d="M135.819 130.863H132.552C132.493 130.441 132.371 130.065 132.187 129.737C132.003 129.404 131.767 129.121 131.478 128.887C131.19 128.653 130.857 128.474 130.479 128.35C130.106 128.226 129.701 128.164 129.263 128.164C128.473 128.164 127.784 128.36 127.198 128.753C126.611 129.141 126.156 129.707 125.833 130.453C125.51 131.194 125.348 132.094 125.348 133.153C125.348 134.241 125.51 135.156 125.833 135.897C126.161 136.638 126.619 137.197 127.205 137.575C127.792 137.953 128.471 138.142 129.241 138.142C129.674 138.142 130.074 138.085 130.442 137.97C130.815 137.856 131.145 137.689 131.434 137.471C131.722 137.247 131.961 136.976 132.15 136.658C132.343 136.339 132.478 135.977 132.552 135.569L135.819 135.584C135.734 136.285 135.523 136.961 135.185 137.612C134.852 138.259 134.402 138.838 133.835 139.35C133.273 139.857 132.602 140.26 131.821 140.558C131.046 140.851 130.168 140.998 129.189 140.998C127.827 140.998 126.609 140.69 125.535 140.073C124.466 139.457 123.621 138.564 122.999 137.396C122.383 136.228 122.075 134.813 122.075 133.153C122.075 131.487 122.388 130.07 123.014 128.902C123.641 127.734 124.491 126.844 125.565 126.232C126.638 125.616 127.847 125.308 129.189 125.308C130.074 125.308 130.894 125.432 131.65 125.68C132.411 125.929 133.084 126.292 133.671 126.769C134.257 127.241 134.735 127.821 135.103 128.507C135.475 129.193 135.714 129.978 135.819 130.863ZM141.363 125.516V140.789H138.134V125.516H141.363ZM143.438 128.179V125.516H155.981V128.179H151.306V140.789H148.114V128.179H143.438ZM157.152 125.516H160.769L164.252 132.094H164.401L167.883 125.516H171.5L165.93 135.39V140.789H162.723V135.39L157.152 125.516ZM191.6 130.863H188.333C188.274 130.441 188.152 130.065 187.968 129.737C187.784 129.404 187.548 129.121 187.26 128.887C186.971 128.653 186.638 128.474 186.26 128.35C185.887 128.226 185.482 128.164 185.045 128.164C184.254 128.164 183.566 128.36 182.979 128.753C182.392 129.141 181.938 129.707 181.614 130.453C181.291 131.194 181.13 132.094 181.13 133.153C181.13 134.241 181.291 135.156 181.614 135.897C181.942 136.638 182.4 137.197 182.987 137.575C183.573 137.953 184.252 138.142 185.022 138.142C185.455 138.142 185.855 138.085 186.223 137.97C186.596 137.856 186.926 137.689 187.215 137.471C187.503 137.247 187.742 136.976 187.931 136.658C188.125 136.339 188.259 135.977 188.333 135.569L191.6 135.584C191.515 136.285 191.304 136.961 190.966 137.612C190.633 138.259 190.183 138.838 189.616 139.35C189.054 139.857 188.383 140.26 187.603 140.558C186.827 140.851 185.95 140.998 184.97 140.998C183.608 140.998 182.39 140.69 181.316 140.073C180.247 139.457 179.402 138.564 178.781 137.396C178.164 136.228 177.856 134.813 177.856 133.153C177.856 131.487 178.169 130.07 178.795 128.902C179.422 127.734 180.272 126.844 181.346 126.232C182.42 125.616 183.628 125.308 184.97 125.308C185.855 125.308 186.675 125.432 187.431 125.68C188.192 125.929 188.865 126.292 189.452 126.769C190.039 127.241 190.516 127.821 190.884 128.507C191.257 129.193 191.495 129.978 191.6 130.863ZM207.95 133.153C207.95 134.818 207.634 136.235 207.003 137.403C206.377 138.572 205.521 139.464 204.438 140.081C203.359 140.692 202.146 140.998 200.798 140.998C199.441 140.998 198.223 140.69 197.144 140.073C196.066 139.457 195.213 138.564 194.586 137.396C193.96 136.228 193.647 134.813 193.647 133.153C193.647 131.487 193.96 130.07 194.586 128.902C195.213 127.734 196.066 126.844 197.144 126.232C198.223 125.616 199.441 125.308 200.798 125.308C202.146 125.308 203.359 125.616 204.438 126.232C205.521 126.844 206.377 127.734 207.003 128.902C207.634 130.07 207.95 131.487 207.95 133.153ZM204.676 133.153C204.676 132.074 204.515 131.164 204.192 130.423C203.873 129.683 203.423 129.121 202.842 128.738C202.26 128.355 201.579 128.164 200.798 128.164C200.018 128.164 199.337 128.355 198.755 128.738C198.173 129.121 197.721 129.683 197.398 130.423C197.08 131.164 196.921 132.074 196.921 133.153C196.921 134.232 197.08 135.141 197.398 135.882C197.721 136.623 198.173 137.185 198.755 137.567C199.337 137.95 200.018 138.142 200.798 138.142C201.579 138.142 202.26 137.95 202.842 137.567C203.423 137.185 203.873 136.623 204.192 135.882C204.515 135.141 204.676 134.232 204.676 133.153ZM219.776 125.516H223.005V135.435C223.005 136.548 222.739 137.523 222.207 138.358C221.68 139.193 220.941 139.844 219.992 140.312C219.042 140.774 217.936 141.005 216.673 141.005C215.406 141.005 214.297 140.774 213.347 140.312C212.398 139.844 211.66 139.193 211.133 138.358C210.606 137.523 210.342 136.548 210.342 135.435V125.516H213.571V135.159C213.571 135.74 213.698 136.257 213.951 136.71C214.21 137.162 214.573 137.518 215.04 137.776C215.508 138.035 216.052 138.164 216.673 138.164C217.3 138.164 217.844 138.035 218.307 137.776C218.774 137.518 219.134 137.162 219.388 136.71C219.646 136.257 219.776 135.74 219.776 135.159V125.516ZM238.436 125.516V140.789H235.647L229.002 131.176H228.89V140.789H225.661V125.516H228.495L235.088 135.121H235.222V125.516H238.436ZM254.579 130.863H251.313C251.253 130.441 251.131 130.065 250.948 129.737C250.764 129.404 250.527 129.121 250.239 128.887C249.951 128.653 249.618 128.474 249.24 128.35C248.867 128.226 248.462 128.164 248.024 128.164C247.234 128.164 246.545 128.36 245.959 128.753C245.372 129.141 244.917 129.707 244.594 130.453C244.271 131.194 244.109 132.094 244.109 133.153C244.109 134.241 244.271 135.156 244.594 135.897C244.922 136.638 245.379 137.197 245.966 137.575C246.553 137.953 247.231 138.142 248.002 138.142C248.434 138.142 248.835 138.085 249.203 137.97C249.575 137.856 249.906 137.689 250.194 137.471C250.483 137.247 250.721 136.976 250.91 136.658C251.104 136.339 251.238 135.977 251.313 135.569L254.579 135.584C254.495 136.285 254.283 136.961 253.945 137.612C253.612 138.259 253.162 138.838 252.596 139.35C252.034 139.857 251.363 140.26 250.582 140.558C249.807 140.851 248.929 140.998 247.95 140.998C246.587 140.998 245.369 140.69 244.296 140.073C243.227 139.457 242.381 138.564 241.76 137.396C241.144 136.228 240.835 134.813 240.835 133.153C240.835 131.487 241.149 130.07 241.775 128.902C242.401 127.734 243.252 126.844 244.325 126.232C245.399 125.616 246.607 125.308 247.95 125.308C248.835 125.308 249.655 125.432 250.411 125.68C251.171 125.929 251.845 126.292 252.432 126.769C253.018 127.241 253.495 127.821 253.863 128.507C254.236 129.193 254.475 129.978 254.579 130.863ZM260.124 125.516V140.789H256.895V125.516H260.124ZM262.781 140.789V125.516H266.01V138.127H272.557V140.789H262.781Z" fill="#01654D"/>
<path d="M122.343 150.71H126.325L130.531 160.971H130.71L134.916 150.71H138.898V165.982H135.766V156.042H135.64L131.687 165.908H129.554L125.602 156.004H125.475V165.982H122.343V150.71ZM141.559 165.982V150.71H151.85V153.372H144.788V157.011H151.321V159.673H144.788V163.32H151.88V165.982H141.559ZM154.417 165.982V150.71H164.708V153.372H157.646V157.011H164.179V159.673H157.646V163.32H164.738V165.982H154.417ZM166.694 153.372V150.71H179.237V153.372H174.562V165.982H171.37V153.372H166.694ZM184.532 150.71V165.982H181.303V150.71H184.532ZM199.963 150.71V165.982H197.174L190.53 156.37H190.418V165.982H187.189V150.71H190.023L196.615 160.315H196.749V150.71H199.963ZM212.758 155.646C212.654 155.284 212.507 154.963 212.318 154.684C212.129 154.401 211.898 154.162 211.625 153.969C211.356 153.77 211.048 153.618 210.7 153.514C210.357 153.409 209.977 153.357 209.559 153.357C208.778 153.357 208.092 153.551 207.501 153.939C206.914 154.327 206.457 154.891 206.129 155.632C205.801 156.367 205.636 157.267 205.636 158.331C205.636 159.395 205.798 160.3 206.121 161.046C206.444 161.791 206.902 162.361 207.493 162.753C208.085 163.141 208.783 163.335 209.589 163.335C210.32 163.335 210.944 163.206 211.461 162.947C211.983 162.684 212.38 162.313 212.654 161.836C212.932 161.359 213.071 160.795 213.071 160.143L213.728 160.24H209.79V157.809H216.181V159.733C216.181 161.075 215.898 162.229 215.331 163.193C214.764 164.153 213.984 164.894 212.989 165.416C211.995 165.933 210.857 166.191 209.574 166.191C208.142 166.191 206.884 165.876 205.801 165.244C204.717 164.608 203.872 163.705 203.265 162.537C202.663 161.364 202.363 159.972 202.363 158.361C202.363 157.123 202.542 156.019 202.9 155.05C203.263 154.075 203.77 153.25 204.421 152.574C205.072 151.898 205.83 151.383 206.695 151.03C207.56 150.677 208.498 150.501 209.507 150.501C210.372 150.501 211.177 150.628 211.923 150.881C212.669 151.13 213.33 151.483 213.907 151.94C214.488 152.398 214.963 152.942 215.331 153.573C215.699 154.2 215.935 154.891 216.04 155.646H212.758ZM226.1 165.982H222.639L227.912 150.71H232.073L237.338 165.982H233.878L230.052 154.2H229.933L226.1 165.982ZM225.883 159.979H234.057V162.5H225.883V159.979ZM248.585 155.646C248.481 155.284 248.334 154.963 248.145 154.684C247.956 154.401 247.725 154.162 247.452 153.969C247.183 153.77 246.875 153.618 246.527 153.514C246.184 153.409 245.804 153.357 245.386 153.357C244.606 153.357 243.92 153.551 243.328 153.939C242.741 154.327 242.284 154.891 241.956 155.632C241.628 156.367 241.464 157.267 241.464 158.331C241.464 159.395 241.625 160.3 241.948 161.046C242.271 161.791 242.729 162.361 243.32 162.753C243.912 163.141 244.611 163.335 245.416 163.335C246.147 163.335 246.771 163.206 247.288 162.947C247.81 162.684 248.208 162.313 248.481 161.836C248.759 161.359 248.899 160.795 248.899 160.143L249.555 160.24H245.617V157.809H252.008V159.733C252.008 161.075 251.725 162.229 251.158 163.193C250.591 164.153 249.811 164.894 248.817 165.416C247.822 165.933 246.684 166.191 245.401 166.191C243.969 166.191 242.711 165.876 241.628 165.244C240.544 164.608 239.699 163.705 239.092 162.537C238.491 161.364 238.19 159.972 238.19 158.361C238.19 157.123 238.369 156.019 238.727 155.05C239.09 154.075 239.597 153.25 240.248 152.574C240.899 151.898 241.657 151.383 242.523 151.03C243.388 150.677 244.325 150.501 245.334 150.501C246.199 150.501 247.004 150.628 247.75 150.881C248.496 151.13 249.157 151.483 249.734 151.94C250.316 152.398 250.79 152.942 251.158 153.573C251.526 154.2 251.762 154.891 251.867 155.646H248.585ZM254.434 165.982V150.71H264.725V153.372H257.663V157.011H264.196V159.673H257.663V163.32H264.755V165.982H254.434ZM280.067 150.71V165.982H277.278L270.633 156.37H270.521V165.982H267.292V150.71H270.126L276.718 160.315H276.853V150.71H280.067ZM288.149 165.982H282.735V150.71H288.193C289.73 150.71 291.052 151.015 292.161 151.627C293.269 152.233 294.122 153.106 294.719 154.244C295.32 155.383 295.621 156.745 295.621 158.331C295.621 159.922 295.32 161.289 294.719 162.433C294.122 163.576 293.264 164.454 292.146 165.065C291.032 165.677 289.7 165.982 288.149 165.982ZM285.964 163.216H288.014C288.969 163.216 289.772 163.047 290.423 162.709C291.079 162.366 291.572 161.836 291.9 161.12C292.233 160.399 292.399 159.47 292.399 158.331C292.399 157.203 292.233 156.28 291.9 155.564C291.572 154.849 291.082 154.322 290.431 153.983C289.779 153.645 288.976 153.476 288.022 153.476H285.964V163.216ZM299.784 165.982H296.324L301.596 150.71H305.757L311.022 165.982H307.562L303.737 154.2H303.617L299.784 165.982ZM299.568 159.979H307.741V162.5H299.568V159.979Z" fill="#01654D"/>
<path d="M359.83 106.973H351.57V111.591H359.83V106.973Z" fill="#E9BE51"/>
<path d="M359.83 106.973H351.57V111.591H359.83V106.973Z" stroke="#101727" stroke-miterlimit="10"/>
<path d="M351.57 106.973V117.99" stroke="#101727" stroke-miterlimit="10"/>
<path d="M332.039 138.345C332.039 125.768 341.448 117.91 351.655 117.91C361.863 117.91 371.271 125.778 371.271 138.345" fill="#EAE2CF"/>
<path d="M332.039 138.345C332.039 125.768 341.448 117.91 351.655 117.91C361.863 117.91 371.271 125.778 371.271 138.345" fill="#849465"/>
<path d="M332.039 138.345C332.039 125.768 341.448 117.91 351.655 117.91C361.863 117.91 371.271 125.778 371.271 138.345" stroke="#101727" stroke-miterlimit="10"/>
<path d="M376.827 138.345H326.578V144.653H376.827V138.345Z" fill="#01654D"/>
<path d="M376.827 138.345H326.578V144.653H376.827V138.345Z" stroke="#101727" stroke-miterlimit="10"/>
<path d="M338.341 144.653H332.039V168.247H338.341V144.653Z" fill="#E9BE51"/>
<path d="M338.341 144.653H332.039V168.247H338.341V144.653Z" stroke="#101727" stroke-miterlimit="10"/>
<path d="M349.349 144.653H343.047V168.247H349.349V144.653Z" fill="#E9BE51"/>
<path d="M349.349 144.653H343.047V168.247H349.349V144.653Z" stroke="#101727" stroke-miterlimit="10"/>
<path d="M360.357 144.653H354.055V168.247H360.357V144.653Z" fill="#E9BE51"/>
<path d="M360.357 144.653H354.055V168.247H360.357V144.653Z" stroke="#101727" stroke-miterlimit="10"/>
<path d="M371.326 144.653H365.023V168.247H371.326V144.653Z" fill="#E9BE51"/>
<path d="M371.326 144.653H365.023V168.247H371.326V144.653Z" stroke="#101727" stroke-miterlimit="10"/>
<path d="M376.827 168.247H326.578V174.555H376.827V168.247Z" fill="#01654D"/>
<path d="M376.827 168.247H326.578V174.555H376.827V168.247Z" stroke="#101727" stroke-miterlimit="10"/>
<path d="M159.528 226.312V253.296C159.528 254.965 158.419 256.325 157.061 256.325H123.522C122.163 256.325 121.055 254.965 121.055 253.296V226.312C121.055 224.643 122.163 223.283 123.522 223.283H157.061C158.439 223.303 159.528 224.643 159.528 226.312Z" fill="#E9BE51" stroke="#101727" stroke-linejoin="round"/>
<path d="M121.055 231.9H159.528" stroke="#101727" stroke-miterlimit="10"/>
<path d="M130.125 226.202V220.394" stroke="#101727" stroke-width="0.7" stroke-miterlimit="10"/>
<path d="M130.125 226.202V220.394" stroke="#101727" stroke-width="0.7" stroke-miterlimit="10"/>
<path d="M130.125 226.202V220.394" stroke="#101727" stroke-width="0.7" stroke-miterlimit="10"/>
<path d="M130.125 226.202V220.394" stroke="#101727" stroke-width="0.7" stroke-miterlimit="10"/>
<path d="M150.367 226.202V220.394" stroke="#101727" stroke-width="0.7" stroke-miterlimit="10"/>
<path d="M150.367 226.202V220.394" stroke="#101727" stroke-width="0.7" stroke-miterlimit="10"/>
<path d="M150.367 226.202V220.394" stroke="#101727" stroke-width="0.7" stroke-miterlimit="10"/>
<path d="M150.367 226.202V220.394" stroke="#101727" stroke-width="0.7" stroke-miterlimit="10"/>
<path d="M171.656 252.195C171.656 260.443 164.974 267.131 156.734 267.131C148.494 267.131 141.812 260.443 141.812 252.195C141.812 243.947 148.494 237.259 156.734 237.259C164.974 237.259 171.656 243.947 171.656 252.195Z" fill="#849465" stroke="#101727" stroke-miterlimit="10"/>
<path d="M167.834 252.196C167.834 258.344 162.86 263.323 156.718 263.323C150.575 263.323 145.602 258.344 145.602 252.196C145.602 246.047 150.575 241.068 156.718 241.068C162.86 241.068 167.834 246.047 167.834 252.196Z" fill="#EAE2CF"/>
<path d="M156.738 242.857H156.728C156.606 242.857 156.508 242.956 156.508 243.077V252.265C156.508 252.386 156.606 252.485 156.728 252.485H156.738C156.859 252.485 156.957 252.386 156.957 252.265V243.077C156.957 242.956 156.859 242.857 156.738 242.857Z" stroke="#101727" stroke-width="0.57"/>
<path d="M156.944 252.385C156.885 252.495 156.755 252.535 156.645 252.475L151.211 249.546C151.102 249.486 151.062 249.356 151.122 249.246C151.182 249.136 151.311 249.096 151.421 249.156L156.855 252.085C156.964 252.145 157.004 252.275 156.944 252.385Z" stroke="#101727" stroke-width="0.57"/>
<path d="M132.937 400.558C135.863 400.558 138.17 402.867 138.17 405.796C138.17 408.726 135.863 411.035 132.937 411.035C130.01 411.035 127.703 408.726 127.703 405.796C127.703 402.867 130.01 400.558 132.937 400.558Z" fill="#849465"/>
<path d="M125.549 420.433C125.549 415.814 128.935 413.045 132.93 413.045C136.925 413.045 140.311 415.814 140.311 420.433V422.283H125.539V420.433H125.549Z" fill="#849465"/>
<path d="M145.866 397.639C149.102 397.639 151.709 400.258 151.709 403.487C151.709 406.716 149.092 409.336 145.866 409.336C142.64 409.336 140.023 406.716 140.023 403.487C140.023 400.258 142.64 397.639 145.866 397.639Z" fill="#E9BE51"/>
<path d="M145.866 409.336C149.093 409.336 151.709 406.717 151.709 403.487C151.709 400.257 149.093 397.639 145.866 397.639C142.639 397.639 140.023 400.257 140.023 403.487C140.023 406.717 142.639 409.336 145.866 409.336Z" stroke="#101727" stroke-linejoin="round"/>
<path d="M135.398 422.432C135.398 415.654 140.173 411.955 145.866 411.955C151.559 411.955 156.333 415.654 156.333 422.432V424.892H135.408V422.432H135.398Z" fill="#E9BE51"/>
<path d="M135.398 422.432C135.398 415.654 140.173 411.955 145.866 411.955C151.559 411.955 156.333 415.654 156.333 422.432V424.892H135.408V422.432H135.398Z" stroke="#101727" stroke-linejoin="round"/>
<path d="M193.883 223.402H344.538" stroke="#101727" stroke-miterlimit="10"/>
<path d="M193.883 239.698H321.057" stroke="#101727" stroke-miterlimit="10"/>
<path d="M193.883 255.994H288.557" stroke="#101727" stroke-miterlimit="10"/>
<path d="M193.883 309.511H344.538" stroke="#101727" stroke-miterlimit="10"/>
<path d="M193.883 325.807H321.057" stroke="#101727" stroke-miterlimit="10"/>
<path d="M193.883 342.103H288.557" stroke="#101727" stroke-miterlimit="10"/>
<path d="M193.883 394.619H344.538" stroke="#101727" stroke-miterlimit="10"/>
<path d="M193.883 410.915H321.057" stroke="#101727" stroke-miterlimit="10"/>
<path d="M193.883 427.211H288.557" stroke="#101727" stroke-miterlimit="10"/>
<path d="M142.267 349.421C146.944 349.421 150.736 347.679 150.736 345.532C150.736 343.384 146.944 341.643 142.267 341.643C137.589 341.643 133.797 343.384 133.797 345.532C133.797 347.679 137.589 349.421 142.267 349.421Z" fill="#EAE2CF"/>
<path d="M142.267 306.932C135.115 306.932 129.312 312.74 129.312 319.898C129.312 332.385 142.267 345.532 142.267 345.532C142.267 345.532 155.221 332.265 155.221 319.898C155.221 312.74 149.418 306.932 142.267 306.932ZM142.267 326.237C138.931 326.237 136.234 323.527 136.234 320.198C136.234 316.869 138.941 314.16 142.267 314.16C145.593 314.16 148.299 316.869 148.299 320.198C148.299 323.527 145.593 326.237 142.267 326.237Z" fill="#01654D" stroke="#101727" stroke-miterlimit="10"/>
<path d="M142.267 326.177C145.632 326.177 148.369 323.438 148.369 320.068C148.369 316.699 145.632 313.96 142.267 313.96C138.901 313.96 136.164 316.699 136.164 320.068C136.164 323.438 138.901 326.177 142.267 326.177Z" fill="white" stroke="#101727" stroke-miterlimit="10"/>
<path d="M120.344 193.49H377.02" stroke="#101727" stroke-miterlimit="10"/>
<path d="M120.344 366.846H377.02" stroke="#101727" stroke-miterlimit="10"/>
<path d="M120.344 285.067H377.02" stroke="#101727" stroke-miterlimit="10"/>
<path d="M0 469.5H678" stroke="#101727" stroke-miterlimit="10"/>
<path d="M457 3.53837C450 2 446.5 5.00023 446.5 5.00023" stroke="#101727"/>
</g>
<defs>
<clipPath id="clip0_3056_411">
<rect width="678" height="470" fill="white"/>
</clipPath>
</defs>
</svg>
