<svg width="580" height="466" viewBox="0 0 580 466" fill="none" xmlns="http://www.w3.org/2000/svg">
<g clip-path="url(#clip0_496_264)">
<path d="M579.172 465.169H0.830078V155.608L213.571 0.831055H366.439L579.172 155.608V465.169Z" fill="#01654D" stroke="#101727" stroke-width="2" stroke-miterlimit="10"/>
<path d="M300.951 439.286C300.951 425.758 290.005 414.782 276.496 414.782C262.987 414.782 252.041 425.75 252.041 439.286C252.041 452.822 262.987 463.79 276.496 463.79C276.679 463.79 276.861 463.781 277.035 463.773V463.79H289.988V459.718C296.589 455.331 300.943 447.819 300.943 439.286H300.951Z" fill="#101727" stroke="#101727" stroke-width="2" stroke-miterlimit="10"/>
<path d="M406.615 439.286C406.615 425.758 395.669 414.782 382.16 414.782C368.651 414.782 357.705 425.75 357.705 439.286C357.705 452.822 368.651 463.79 382.16 463.79C382.343 463.79 382.525 463.781 382.699 463.773V463.79H395.652V459.718C402.253 455.331 406.607 447.819 406.607 439.286H406.615Z" fill="#101727" stroke="#101727" stroke-width="2" stroke-miterlimit="10"/>
<path d="M218.123 439.286C218.123 425.758 207.177 414.782 193.668 414.782C180.159 414.782 169.213 425.75 169.213 439.286C169.213 452.822 180.159 463.79 193.668 463.79C193.851 463.79 194.033 463.781 194.207 463.773V463.79H207.16V459.718C213.761 455.331 218.115 447.819 218.115 439.286H218.123Z" fill="#101727" stroke="#101727" stroke-width="2" stroke-miterlimit="10"/>
<path d="M389.317 410.104H220.76V439.277H389.317V410.104Z" fill="#101727" stroke="#101727" stroke-width="2" stroke-miterlimit="10"/>
<path d="M206.008 463.79C219.514 463.79 230.463 452.819 230.463 439.286C230.463 425.753 219.514 414.782 206.008 414.782C192.502 414.782 181.553 425.753 181.553 439.286C181.553 452.819 192.502 463.79 206.008 463.79Z" fill="#101727" stroke="#101727" stroke-width="2" stroke-miterlimit="10"/>
<path d="M394.916 463.79C408.422 463.79 419.371 452.819 419.371 439.286C419.371 425.753 408.422 414.782 394.916 414.782C381.41 414.782 370.461 425.753 370.461 439.286C370.461 452.819 381.41 463.79 394.916 463.79Z" fill="#101727" stroke="#101727" stroke-width="2" stroke-miterlimit="10"/>
<path d="M372.177 261.675H265.068V295.253H372.177V261.675Z" fill="#01654D" stroke="#101727" stroke-width="2" stroke-miterlimit="10"/>
<path d="M159.071 295.245H289.648L251.75 439.286H144.625L122.359 370.011L159.071 295.245Z" fill="#01654D" stroke="#101727" stroke-width="2" stroke-miterlimit="10"/>
<path d="M214.955 321.951H178.393V369.629H214.955V321.951Z" fill="#E8BD51" stroke="#101727" stroke-width="2" stroke-miterlimit="10"/>
<path d="M184.661 329.811H154.119V369.637H184.661V329.811Z" fill="#E8BD51" stroke="#101727" stroke-width="2" stroke-miterlimit="10"/>
<path d="M239.045 321.951H202.482V369.629H239.045V321.951Z" fill="#E8BD51" stroke="#101727" stroke-width="2" stroke-miterlimit="10"/>
<path d="M266.047 321.951H229.484V369.629H266.047V321.951Z" fill="#E8BD51" stroke="#101727" stroke-width="2" stroke-miterlimit="10"/>
<path d="M202.525 298.868H184.82V321.959H202.525V298.868Z" fill="#E8BD51" stroke="#101727" stroke-width="2" stroke-miterlimit="10"/>
<path d="M230.413 282.448H200.111V321.959H230.413V282.448Z" fill="#E8BD51" stroke="#101727" stroke-width="2" stroke-miterlimit="10"/>
<path d="M254.494 274.28H217.932V321.959H254.494V274.28Z" fill="#E8BD51" stroke="#101727" stroke-width="2" stroke-miterlimit="10"/>
<path d="M281.496 274.28H244.934V321.959H281.496V274.28Z" fill="#E8BD51" stroke="#101727" stroke-width="2" stroke-miterlimit="10"/>
<path d="M304.758 274.28H268.195V321.959H304.758V274.28Z" fill="#E8BD51" stroke="#101727" stroke-width="2" stroke-miterlimit="10"/>
<path d="M264.877 256.058H228.314V274.28H264.877V256.058Z" fill="#E8BD51" stroke="#101727" stroke-width="2" stroke-miterlimit="10"/>
<path d="M291.879 256.058H255.316V274.28H291.879V256.058Z" fill="#E8BD51" stroke="#101727" stroke-width="2" stroke-miterlimit="10"/>
<path d="M315.139 256.058H278.576V274.28H315.139V256.058Z" fill="#E8BD51" stroke="#101727" stroke-width="2" stroke-miterlimit="10"/>
<path d="M271.727 237.836H235.164V256.058H271.727V237.836Z" fill="#E8BD51" stroke="#101727" stroke-width="2" stroke-miterlimit="10"/>
<path d="M298.736 237.836H262.174V256.058H298.736V237.836Z" fill="#E8BD51" stroke="#101727" stroke-width="2" stroke-miterlimit="10"/>
<path d="M310.538 243.544H285.436V256.058H310.538V243.544Z" fill="#E8BD51" stroke="#101727" stroke-width="2" stroke-miterlimit="10"/>
<path d="M342.58 256.058H306.018V274.28H342.58V256.058Z" fill="#E8BD51" stroke="#101727" stroke-width="2" stroke-miterlimit="10"/>
<path d="M330.141 274.28H293.578V321.959H330.141V274.28Z" fill="#E8BD51" stroke="#101727" stroke-width="2" stroke-miterlimit="10"/>
<path d="M361.486 274.28H324.924V321.959H361.486V274.28Z" fill="#E8BD51" stroke="#101727" stroke-width="2" stroke-miterlimit="10"/>
<path d="M290.791 463.79C304.297 463.79 315.246 452.819 315.246 439.286C315.246 425.753 304.297 414.782 290.791 414.782C277.285 414.782 266.336 425.753 266.336 439.286C266.336 452.819 277.285 463.79 290.791 463.79Z" fill="#01654D" stroke="#101727" stroke-width="2" stroke-miterlimit="10"/>
<path d="M411.418 261.675H372.094V295.253H266.188L229.484 370.02L251.75 439.294H261.461C261.461 423.058 274.597 409.904 290.792 409.904C306.988 409.904 320.124 423.066 320.124 439.294H396.765V276.565H411.418V261.684V261.675Z" fill="#E9E1CE" stroke="#101727" stroke-width="2" stroke-miterlimit="10"/>
<path d="M229.485 370.011H122.359" stroke="#101727" stroke-width="2" stroke-miterlimit="10"/>
<path d="M290.793 451.783C297.681 451.783 303.265 446.188 303.265 439.286C303.265 432.384 297.681 426.789 290.793 426.789C283.904 426.789 278.32 432.384 278.32 439.286C278.32 446.188 283.904 451.783 290.793 451.783Z" fill="#E9E1CE" stroke="#101727" stroke-width="2" stroke-miterlimit="10"/>
<path d="M288.096 325.723C288.096 322.493 285.482 319.874 282.258 319.874C279.034 319.874 276.42 322.493 276.42 325.723V373.718C276.42 376.948 279.034 379.567 282.258 379.567C285.482 379.567 288.096 376.948 288.096 373.718V325.723Z" fill="#E9E1CE" stroke="#101727" stroke-width="2" stroke-miterlimit="10"/>
<path d="M330.141 325.723C330.141 322.493 327.527 319.874 324.303 319.874C321.079 319.874 318.465 322.493 318.465 325.723V373.718C318.465 376.948 321.079 379.567 324.303 379.567C327.527 379.567 330.141 376.948 330.141 373.718V325.723Z" fill="#E9E1CE" stroke="#101727" stroke-width="2" stroke-miterlimit="10"/>
<path d="M372.184 325.723C372.184 322.493 369.57 319.874 366.346 319.874C363.122 319.874 360.508 322.493 360.508 325.723V373.718C360.508 376.948 363.122 379.567 366.346 379.567C369.57 379.567 372.184 376.948 372.184 373.718V325.723Z" fill="#E9E1CE" stroke="#101727" stroke-width="2" stroke-miterlimit="10"/>
<path d="M133.355 404.229H396.765" stroke="#101727" stroke-width="2" stroke-miterlimit="10"/>
<path d="M144.625 439.286H131.199" stroke="#101727" stroke-width="2" stroke-miterlimit="10"/>
<path d="M203.776 410.328H160.455V432.713H203.776V410.328Z" fill="#E9E1CE" stroke="#101727" stroke-width="2" stroke-miterlimit="10"/>
<path d="M195.567 417.623C195.285 417.565 195.011 417.457 194.762 417.316C194.762 417.274 194.779 417.224 194.779 417.183C194.779 417.075 194.713 416.925 194.605 416.875C194.381 416.776 194.157 416.676 193.933 416.568C193.792 416.502 193.626 416.502 193.51 416.626C193.411 416.726 193.361 416.934 193.452 417.05C193.585 417.224 193.734 417.391 193.892 417.532C193.85 417.573 193.809 417.607 193.767 417.632C193.709 417.665 193.676 417.681 193.643 417.698C193.61 417.706 193.585 417.715 193.552 417.723C193.552 417.723 193.51 417.723 193.502 417.731C193.477 417.731 193.444 417.731 193.419 417.731C193.419 417.731 193.369 417.731 193.361 417.731C193.336 417.731 193.303 417.715 193.278 417.715C193.278 417.715 193.237 417.698 193.228 417.698C193.062 417.615 192.963 417.465 192.921 417.283C192.921 417.258 192.913 417.233 192.905 417.208C192.905 417.2 192.905 417.166 192.905 417.158C192.905 417.116 192.905 417.008 192.905 417.008C192.905 417.008 192.93 416.917 192.938 416.892C192.938 416.892 192.963 416.834 192.971 416.834C192.971 416.826 193.029 416.743 193.004 416.784C193.021 416.759 193.046 416.734 193.062 416.709C193.295 416.385 192.764 415.97 192.507 416.285C192.49 416.31 192.474 416.335 192.457 416.36C192.084 416.867 191.611 417.291 191.08 417.615C191.08 417.191 191.072 416.759 191.064 416.335C191.064 416.036 190.674 415.862 190.467 416.086C189.961 416.626 189.356 417.067 188.692 417.374C188.551 416.917 188.17 416.543 187.664 416.493C187.407 416.468 187.158 416.535 186.942 416.668C186.801 416.518 186.619 416.418 186.403 416.385C185.997 416.319 185.599 416.46 185.284 416.726C185.226 416.776 185.168 416.834 185.118 416.892C185.093 416.859 185.068 416.826 185.043 416.792C184.927 416.668 184.778 416.568 184.62 416.51C184.297 416.244 183.75 416.294 183.6 416.767C183.526 417 183.783 417.308 184.032 417.2C184.081 417.183 184.131 417.166 184.181 417.158C184.181 417.158 184.181 417.166 184.181 417.175C184.148 417.374 184.015 417.607 183.841 417.715C183.692 417.806 183.484 417.823 183.368 417.698C183.335 417.657 183.318 417.607 183.327 417.549C183.327 417.499 183.343 417.465 183.393 417.432C183.733 417.224 183.509 416.693 183.119 416.792C182.63 416.917 182.157 417.125 181.735 417.391C181.934 416.992 182.141 416.601 182.34 416.202C182.58 415.845 182.779 415.463 182.92 415.047C183.053 414.674 182.464 414.424 182.282 414.773C182.091 415.139 181.909 415.504 181.718 415.87C181.278 416.493 180.665 416.992 179.968 417.308C180.043 417.067 180.109 416.834 180.184 416.593C180.292 416.244 179.844 416.02 179.595 416.252C179.255 416.568 178.874 416.834 178.467 417.058C178.086 417.266 177.63 417.49 177.198 417.532C177.174 417.532 177.149 417.532 177.116 417.532C177.124 417.532 177.132 417.515 177.14 417.507C177.613 417.083 178.028 416.618 178.409 416.111C178.6 415.853 178.824 415.579 178.857 415.247C178.898 414.89 178.675 414.574 178.326 414.474C178.011 414.391 177.696 414.499 177.439 414.673C177.19 414.84 176.958 415.023 176.734 415.214C176.286 415.588 175.913 416.069 175.847 416.668C175.814 416.95 175.863 417.241 175.979 417.499C175.963 417.507 175.946 417.515 175.93 417.524C175.565 417.715 175.092 417.798 174.744 417.557C174.595 417.449 174.52 417.324 174.495 417.141C174.495 417.091 174.495 417.042 174.495 416.992C174.561 416.892 174.628 416.792 174.686 416.684C174.843 416.394 174.578 416.119 174.313 416.169C174.313 416.128 174.296 416.086 174.271 416.045C174.196 415.92 174.022 415.828 173.873 415.887C173.342 416.078 172.853 416.369 172.447 416.767C172.322 416.892 172.19 417.033 172.082 417.183C171.858 417.283 171.626 417.357 171.394 417.416C171.153 417.474 170.855 417.548 170.622 417.424C170.44 417.332 170.365 417.108 170.357 416.9C170.357 416.626 170.49 416.344 170.647 416.086C170.805 415.828 170.987 415.579 171.195 415.355C171.369 415.164 171.584 414.973 171.833 414.923C172.04 414.881 172.273 415.006 172.347 415.23C172.405 415.43 172.306 415.679 172.09 415.762C171.916 415.828 171.792 416.003 171.841 416.194C171.891 416.369 172.098 416.51 172.273 416.443C172.671 416.294 172.977 415.961 173.044 415.529C173.11 415.097 172.919 414.674 172.563 414.424C171.8 413.876 170.946 414.516 170.465 415.122C169.975 415.745 169.42 416.56 169.727 417.382C169.876 417.798 170.208 418.097 170.647 418.163C171.062 418.23 171.493 418.122 171.891 417.989C171.916 417.989 171.941 417.972 171.966 417.964C172.015 418.072 172.098 418.172 172.206 418.23C172.662 418.496 173.193 418.197 173.558 417.922C173.674 417.839 173.782 417.74 173.89 417.648C173.915 417.69 173.931 417.731 173.964 417.773C174.304 418.28 174.943 418.454 175.523 418.371C175.838 418.321 176.137 418.197 176.402 418.03C176.991 418.413 177.754 418.114 178.335 417.864C178.616 417.74 178.89 417.59 179.147 417.424C179.114 417.54 179.081 417.648 179.039 417.765C178.956 418.022 179.222 418.263 179.471 418.197C179.927 418.08 180.35 417.889 180.748 417.648C180.507 418.114 180.275 418.579 180.035 419.036C179.827 419.435 180.408 419.784 180.64 419.393C181.096 418.629 181.784 418.03 182.589 417.673C182.614 417.839 182.68 418.006 182.796 418.138C183.177 418.579 183.857 418.537 184.28 418.205C184.372 418.138 184.455 418.047 184.529 417.947C184.554 418.03 184.604 418.105 184.687 418.155C184.844 418.246 185.076 418.197 185.168 418.03C185.367 417.648 185.624 417.108 186.097 417.05C186.271 417.025 186.37 417.075 186.437 417.166C186.354 417.332 186.304 417.524 186.312 417.715C186.312 418.039 186.677 418.147 186.909 417.964C187.108 417.806 187.191 417.557 187.191 417.308C187.299 417.208 187.44 417.141 187.589 417.166C187.838 417.2 188.062 417.524 188.02 417.765C187.971 418.006 188.178 418.296 188.452 418.197C189.14 417.939 189.778 417.573 190.342 417.108C190.342 417.465 190.342 417.814 190.351 418.172C190.351 418.454 190.641 418.587 190.881 418.479C191.387 418.246 191.852 417.939 192.258 417.565C192.366 417.881 192.598 418.172 192.905 418.321C193.46 418.579 194.082 418.371 194.447 417.947C194.729 418.114 195.036 418.238 195.368 418.305C195.55 418.346 195.749 418.246 195.799 418.055C195.849 417.881 195.741 417.665 195.55 417.623H195.567ZM176.535 417.058C176.502 416.934 176.502 416.767 176.535 416.643C176.576 416.452 176.668 416.285 176.784 416.128C177.041 415.795 177.406 415.529 177.746 415.297C177.829 415.239 177.912 415.18 178.003 415.155C178.053 415.139 178.094 415.131 178.136 415.155C178.136 415.18 178.119 415.222 178.111 415.247C178.069 415.347 177.995 415.438 177.936 415.529C177.655 415.928 177.339 416.302 176.991 416.643C176.85 416.784 176.701 416.934 176.543 417.067C176.543 417.067 176.543 417.058 176.543 417.05L176.535 417.058Z" fill="#E86554"/>
<path d="M164.893 425.193L165.904 425.077C166.02 425.875 166.394 426.274 167.024 426.274C167.339 426.274 167.579 426.19 167.762 426.033C167.944 425.866 168.027 425.667 168.027 425.426C168.027 425.285 167.994 425.16 167.936 425.06C167.87 424.961 167.778 424.878 167.654 424.819C167.53 424.753 167.215 424.645 166.725 424.495C166.286 424.362 165.962 424.221 165.755 424.063C165.548 423.905 165.39 423.698 165.266 423.448C165.141 423.199 165.083 422.917 165.083 422.626C165.083 422.285 165.158 421.978 165.316 421.703C165.473 421.429 165.68 421.222 165.954 421.089C166.228 420.947 166.559 420.881 166.966 420.881C167.571 420.881 168.036 421.047 168.376 421.371C168.716 421.695 168.89 422.169 168.915 422.775L167.878 422.834C167.836 422.501 167.737 422.26 167.588 422.127C167.438 421.994 167.223 421.928 166.941 421.928C166.659 421.928 166.452 421.986 166.294 422.102C166.145 422.219 166.07 422.36 166.07 422.534C166.07 422.709 166.136 422.85 166.277 422.966C166.41 423.083 166.725 423.207 167.223 423.349C167.745 423.498 168.118 423.656 168.351 423.822C168.583 423.989 168.757 424.205 168.881 424.47C169.006 424.736 169.064 425.052 169.064 425.426C169.064 425.966 168.898 426.423 168.566 426.797C168.235 427.171 167.712 427.354 166.999 427.354C165.747 427.354 165.042 426.639 164.901 425.21L164.893 425.193Z" fill="#01654D"/>
<path d="M169.926 427.237V420.98H170.954V423.44H172.986V420.98H174.014V427.237H172.986V424.504H170.954V427.237H169.926Z" fill="#01654D"/>
<path d="M174.877 424.138C174.877 423.39 174.985 422.775 175.209 422.293C175.433 421.812 175.715 421.454 176.071 421.213C176.428 420.972 176.859 420.856 177.365 420.856C178.095 420.856 178.692 421.138 179.156 421.695C179.62 422.252 179.853 423.058 179.853 424.088C179.853 425.119 179.612 425.958 179.123 426.548C178.692 427.071 178.111 427.329 177.373 427.329C176.635 427.329 176.046 427.071 175.615 426.556C175.126 425.966 174.885 425.16 174.885 424.13L174.877 424.138ZM175.938 424.097C175.938 424.819 176.079 425.36 176.345 425.717C176.618 426.074 176.958 426.257 177.365 426.257C177.771 426.257 178.111 426.082 178.376 425.725C178.642 425.368 178.775 424.819 178.775 424.08C178.775 423.34 178.642 422.817 178.385 422.468C178.128 422.119 177.788 421.944 177.365 421.944C176.942 421.944 176.602 422.119 176.336 422.468C176.071 422.817 175.938 423.357 175.938 424.097Z" fill="#01654D"/>
<path d="M181.975 427.237L180.143 420.98H181.262L182.556 425.617L183.808 420.98H184.911L183.07 427.237H181.967H181.975Z" fill="#01654D"/>
<path d="M185.434 427.237V420.98H189.232V422.036H186.462V423.423H189.033V424.479H186.462V426.174H189.323V427.229H185.426L185.434 427.237Z" fill="#01654D"/>
<path d="M190.235 427.237V421.03H191.263V426.182H193.834V427.237H190.227H190.235Z" fill="#01654D"/>
<path d="M194.314 425.193L195.326 425.077C195.442 425.875 195.815 426.274 196.446 426.274C196.761 426.274 197.001 426.19 197.184 426.033C197.366 425.866 197.449 425.667 197.449 425.426C197.449 425.285 197.416 425.16 197.358 425.06C197.292 424.961 197.2 424.878 197.076 424.819C196.952 424.753 196.636 424.645 196.147 424.495C195.708 424.362 195.384 424.221 195.177 424.063C194.97 423.905 194.812 423.698 194.688 423.448C194.563 423.199 194.505 422.917 194.505 422.626C194.505 422.285 194.58 421.978 194.737 421.703C194.895 421.429 195.102 421.222 195.376 421.089C195.65 420.947 195.981 420.881 196.388 420.881C196.993 420.881 197.457 421.047 197.797 421.371C198.137 421.695 198.312 422.169 198.336 422.775L197.3 422.834C197.258 422.501 197.159 422.26 197.01 422.127C196.86 421.994 196.645 421.928 196.363 421.928C196.081 421.928 195.873 421.986 195.716 422.102C195.567 422.219 195.492 422.36 195.492 422.534C195.492 422.709 195.558 422.85 195.699 422.966C195.832 423.083 196.147 423.207 196.645 423.349C197.167 423.498 197.54 423.656 197.773 423.822C198.005 423.989 198.179 424.205 198.303 424.47C198.428 424.736 198.486 425.052 198.486 425.426C198.486 425.966 198.32 426.423 197.988 426.797C197.656 427.171 197.134 427.354 196.421 427.354C195.169 427.354 194.464 426.639 194.323 425.21L194.314 425.193Z" fill="#01654D"/>
<path d="M237.627 395.338C238.539 395.039 239.509 394.881 240.513 394.881C245.663 394.881 249.834 399.06 249.834 404.22C249.834 408.234 247.313 411.649 243.772 412.978" stroke="#101727" stroke-width="2" stroke-miterlimit="10"/>
<path d="M426.303 155.607H579.17" stroke="#101727" stroke-width="2" stroke-linejoin="round"/>
<path d="M213.571 0.831055L0.830078 155.608V465.169H69.9332V204.84H357.201V465.169H426.304V155.608L213.571 0.831055Z" fill="#E9E1CE" stroke="#101727" stroke-width="2" stroke-linejoin="round"/>
<path d="M483.665 204.74H445.51V246.12H483.665V204.74Z" fill="#E8BD51" stroke="#101727" stroke-width="2" stroke-miterlimit="10"/>
<path d="M521.819 204.74H483.664V246.12H521.819V204.74Z" fill="#E8BD51" stroke="#101727" stroke-width="2" stroke-miterlimit="10"/>
<path d="M559.973 204.74H521.818V246.12H559.973V204.74Z" fill="#E8BD51" stroke="#101727" stroke-width="2" stroke-miterlimit="10"/>
<path d="M259.977 0.831055L472.709 155.608" stroke="#101727" stroke-width="2" stroke-miterlimit="10"/>
<path d="M315.248 0.831055L527.981 155.608" stroke="#101727" stroke-width="2" stroke-miterlimit="10"/>
<path d="M220.343 130.609L214.912 132.068L218.615 145.905L224.045 144.446L220.343 130.609Z" fill="#E8BD51"/>
<path d="M139.026 158.142C139.35 160.252 140.718 161.482 143.231 161.482C145.428 161.482 146.979 160.385 146.979 158.549C146.979 157.087 146.2 156.306 144.508 155.849L141.125 154.935C137.194 153.929 134.996 152.001 134.996 148.337C134.996 144.166 138.562 141.557 143.09 141.557C147.983 141.557 150.728 144.398 151.184 148.379H146.291C146.2 146.958 145.238 145.587 143.231 145.587C141.448 145.587 140.262 146.551 140.262 148.063C140.262 149.484 141.083 150.032 142.733 150.489L146.805 151.636C150.462 152.641 152.245 154.752 152.245 158.051C152.245 162.587 147.949 165.512 143.289 165.512C138.628 165.512 134.739 163.31 134.15 158.142H139.043H139.026Z" fill="#01654D"/>
<path d="M161.957 164.964H156.193V130.655H161.957V145.82C163.192 143.119 165.846 141.557 169.362 141.557C174.844 141.557 177.912 145.587 177.912 151.271V164.964H172.149V152.234C172.149 148.986 170.689 146.601 167.256 146.601C164.146 146.601 161.957 148.844 161.957 152.185V164.964Z" fill="#01654D"/>
<path d="M181.867 153.564C181.867 147.332 186.528 141.565 194.389 141.565C202.251 141.565 206.911 147.34 206.911 153.564C206.911 159.787 202.251 165.521 194.389 165.521C186.528 165.521 181.867 159.746 181.867 153.564ZM187.49 153.564C187.49 157.278 189.961 160.709 194.389 160.709C198.817 160.709 201.289 157.278 201.289 153.564C201.289 149.849 198.817 146.376 194.389 146.376C189.961 146.376 187.49 149.858 187.49 153.564Z" fill="#01654D"/>
<path d="M242.976 155.483C243.341 158.915 245.539 161.258 249.602 161.258C252.389 161.258 254.536 160.02 255.639 158.283H260.988C259.437 162.363 255.042 165.521 249.611 165.521C241.84 165.521 237.312 160.344 237.312 153.522C237.312 146.7 242.296 141.565 249.337 141.565C256.377 141.565 261.312 146.559 261.312 153.613V155.491H242.985L242.976 155.483ZM242.927 151.686H255.814C255.449 148.163 253.118 145.686 249.412 145.686C245.705 145.686 243.374 147.98 242.918 151.686H242.927Z" fill="#01654D"/>
<path d="M265.242 164.964V130.655H271.006V164.964H265.242Z" fill="#01654D"/>
<path d="M279.786 158.142C280.11 160.252 281.478 161.482 283.991 161.482C286.188 161.482 287.739 160.385 287.739 158.549C287.739 157.087 286.959 156.306 285.268 155.849L281.884 154.935C277.954 153.929 275.756 152.001 275.756 148.337C275.756 144.166 279.322 141.557 283.85 141.557C288.742 141.557 291.487 144.398 291.943 148.379H287.051C286.959 146.958 285.997 145.587 283.991 145.587C282.208 145.587 281.022 146.551 281.022 148.063C281.022 149.484 281.843 150.032 283.493 150.489L287.565 151.636C291.222 152.641 293.005 154.752 293.005 158.051C293.005 162.587 288.709 165.512 284.049 165.512C279.388 165.512 275.499 163.31 274.91 158.142H279.803H279.786Z" fill="#01654D"/>
<path d="M227.386 143.642C229.036 151.877 226.789 156.862 225.172 159.555C222.419 158.017 217.966 154.802 215.295 146.708C215.055 146.708 214.814 146.725 214.566 146.725C212.716 146.725 210.958 146.559 209.283 146.26C212.891 159.663 220.835 163.701 223.829 165.221L223.953 165.288C224.525 165.579 225.139 165.72 225.744 165.72C227.038 165.72 228.298 165.08 229.053 163.917L229.144 163.776C230.985 160.951 235.87 153.456 232.304 140.069C230.853 141.449 229.202 142.662 227.361 143.659L227.386 143.642Z" fill="#01654D"/>
</g>
<defs>
<clipPath id="clip0_496_264">
<rect width="580" height="466" fill="white"/>
</clipPath>
</defs>
</svg>
