<svg width="380" height="480" viewBox="0 0 380 480" fill="none" xmlns="http://www.w3.org/2000/svg">
<g clip-path="url(#clip0_1893_187)">
<path d="M272.895 198.839C277.472 198.839 281.188 202.544 281.188 207.12C281.188 211.696 277.472 215.411 272.895 215.411C268.319 215.411 264.613 211.696 264.613 207.12C264.613 202.969 267.661 199.54 271.632 198.934C271.823 198.903 272.003 198.881 272.195 198.871C272.428 198.849 272.662 198.839 272.895 198.839Z" fill="#E9E1CE"/>
<path d="M183.206 203.521C187.188 204.126 190.235 207.555 190.235 211.706C190.235 216.282 186.519 219.998 181.942 219.998C177.366 219.998 173.66 216.282 173.66 211.706C173.66 207.131 177.366 203.425 181.942 203.425C182.176 203.425 182.409 203.436 182.643 203.457C182.834 203.468 183.015 203.489 183.206 203.521Z" fill="#E9E1CE"/>
<path d="M257.309 478.938H172.853C170.114 459.669 149.663 420.727 136.953 388.792L136.316 321.345C155.652 355.732 200.333 379.354 231.709 379.354C249.548 379.354 267.588 370.702 282.517 357.027C267.673 385.862 246.458 457.822 257.309 478.938Z" fill="#E9E1CE"/>
<path d="M226.507 302.543C247.255 302.543 270.052 291.841 269.765 303.615C269.468 315.389 237.985 318.733 226.507 318.733C215.029 318.733 188.24 315.792 187.953 304.018C187.656 292.244 205.759 302.543 226.507 302.543Z" fill="#E9E1CE"/>
<path d="M271.634 198.935C267.663 199.54 264.615 202.969 264.615 207.12C264.615 211.696 268.321 215.412 272.897 215.412C277.474 215.412 281.19 211.696 281.19 207.12C281.19 202.544 277.474 198.839 272.897 198.839C272.664 198.839 272.43 198.85 272.197 198.871C272.006 198.882 271.825 198.903 271.634 198.935ZM282.517 357.027C267.588 370.701 249.548 379.354 231.71 379.354C200.333 379.354 155.653 355.732 136.317 321.345C131.826 313.371 128.704 304.825 127.43 295.854C131.263 258.483 141.159 213.968 159.454 177.149C191.244 113.195 197.721 100.37 260.241 100.37C260.241 100.37 308.755 136.742 310.029 198.839C320.923 239.225 323.28 270.661 315.041 303.233C309.838 323.797 297.807 343.045 282.517 357.027ZM183.206 203.521C183.015 203.489 182.835 203.468 182.644 203.457C182.41 203.436 182.177 203.425 181.943 203.425C177.367 203.425 173.661 207.131 173.661 211.706C173.661 216.282 177.367 219.998 181.943 219.998C186.519 219.998 190.236 216.282 190.236 211.706C190.236 207.555 187.188 204.126 183.206 203.521ZM301.672 287.042C301.672 285.832 300.696 284.845 299.485 284.845C298.275 284.845 297.287 285.832 297.287 287.042C297.287 288.252 298.264 289.229 299.485 289.229C300.706 289.229 301.672 288.252 301.672 287.042ZM269.765 303.615C270.052 291.841 247.255 302.542 226.507 302.542C205.759 302.542 187.655 292.244 187.953 304.018C188.239 315.792 215.029 318.733 226.507 318.733C237.985 318.733 269.468 315.389 269.765 303.615Z" fill="#E9E1CE"/>
<path d="M332.835 453.182C333.366 463.576 334.587 472.303 336.764 478.938H257.309C246.457 457.822 267.672 385.862 282.516 357.027C297.806 343.045 309.836 323.797 315.039 303.233C323.279 270.661 320.922 239.225 310.028 198.839C308.753 136.742 260.239 100.37 260.239 100.37C197.72 100.37 191.243 113.195 159.452 177.149C141.158 213.968 131.261 258.483 127.428 295.854C124.604 323.404 125.071 347.069 127.906 360.892C129.541 368.854 132.844 378.452 136.953 388.792C149.663 420.727 170.113 459.669 172.852 478.938H67.8715C49.8208 422.394 36.8773 422.489 24.709 432.299C41.974 413.858 36.4844 278.103 69.443 176.852C102.402 75.6116 152.232 41.9143 211.885 44.2712C254.399 45.9486 264.412 63.7846 264.879 76.4397H264.901C283.79 78.4037 339.11 92.5239 343.825 198.457C347.807 288.104 329.873 395.958 332.835 453.182Z" fill="#101727"/>
<path d="M136.317 321.345L136.954 388.793C132.845 378.452 129.542 368.855 127.907 360.892C125.072 347.069 124.605 323.405 127.429 295.854C128.704 304.826 131.825 313.372 136.317 321.345Z" fill="#101727"/>
<path d="M67.8715 478.938L2 478.5L1.0625 444.413C1.0625 444.413 11.3196 442.64 24.709 432.299C36.8773 422.489 49.8207 422.394 67.8715 478.938Z" fill="#E8BD51"/>
<path d="M378.94 474.204L377.5 478.5L336.765 478.939C334.588 472.303 333.367 463.576 332.836 453.183C345.153 456.421 361.834 459.022 378.94 474.204Z" fill="#E8BD51"/>
<path d="M378.5 1.5L378.939 474.203C361.833 459.021 345.152 456.42 332.835 453.182C329.873 395.958 347.807 288.104 343.825 198.457C339.11 92.524 283.79 78.4038 264.901 76.4397H264.879C264.412 63.7847 254.399 45.9487 211.885 44.2713C152.232 41.9144 102.402 75.6116 69.443 176.852C36.4844 278.103 41.974 413.858 24.709 432.299C11.3196 442.64 1.0625 444.413 1.0625 444.413L1.5 1.5H378.5Z" fill="#01654D"/>
<path d="M299.483 284.845C300.694 284.845 301.67 285.832 301.67 287.042C301.67 288.253 300.694 289.229 299.483 289.229C298.273 289.229 297.285 288.253 297.285 287.042C297.285 285.832 298.262 284.845 299.483 284.845Z" fill="#101727"/>
<path d="M378.939 474.203V474.938C378.939 477.147 377.148 478.938 374.939 478.938H336.764H257.309H172.852H67.8715H5.06249C2.85336 478.938 1.0625 477.147 1.0625 474.938V444.413V5.06152C1.0625 2.85238 2.85336 1.06152 5.0625 1.06152H374.939C377.148 1.06152 378.939 2.85238 378.939 5.06152V474.203Z" stroke="#101727" stroke-width="2" stroke-miterlimit="10"/>
<path d="M271.632 198.934C267.661 199.54 264.613 202.969 264.613 207.12C264.613 211.696 268.319 215.411 272.895 215.411C277.472 215.411 281.188 211.696 281.188 207.12C281.188 202.544 277.472 198.839 272.895 198.839C272.662 198.839 272.428 198.849 272.195 198.871" stroke="#101727" stroke-width="2" stroke-miterlimit="10"/>
<path d="M272.898 198.839C272.664 198.839 272.431 198.849 272.197 198.871C272.006 198.881 271.825 198.903 271.634 198.934C264.287 199.901 255.633 208.808 255.633 208.808" stroke="#101727" stroke-width="2" stroke-miterlimit="10"/>
<path d="M183.206 203.521C187.188 204.126 190.235 207.555 190.235 211.706C190.235 216.282 186.519 219.998 181.942 219.998C177.366 219.998 173.66 216.282 173.66 211.706C173.66 207.131 177.366 203.425 181.942 203.425C182.176 203.425 182.409 203.436 182.643 203.457" stroke="#101727" stroke-width="2" stroke-miterlimit="10"/>
<path d="M181.941 203.425C182.175 203.425 182.409 203.436 182.642 203.457C182.833 203.468 183.014 203.489 183.205 203.521C190.553 204.487 199.206 213.394 199.206 213.394" stroke="#101727" stroke-width="2" stroke-miterlimit="10"/>
<path d="M226.507 318.733C237.985 318.733 269.468 315.389 269.765 303.615C270.052 291.841 247.255 302.543 226.507 302.543C205.759 302.543 187.656 292.244 187.953 304.018C188.24 315.792 215.029 318.733 226.507 318.733Z" stroke="#101727" stroke-width="2" stroke-miterlimit="10"/>
<path d="M206.141 265.851C209.188 269.748 216.1 270.034 220.709 269.599C225.317 269.153 228.916 272.168 233.726 271.807C238.536 271.436 242.465 269.525 247.965 270.183C253.455 270.852 262.395 267.391 259.412 258.632C256.428 249.884 242.401 244.077 242.539 213.395" stroke="#101727" stroke-width="2" stroke-miterlimit="10"/>
<path d="M181.941 285.726C172.873 293.826 173.712 307.288 173.712 307.288" stroke="#101727" stroke-width="2" stroke-miterlimit="10"/>
<path d="M262.31 87.8207C263.711 85.7929 265.071 81.5357 264.879 76.4397C264.412 63.7846 254.399 45.9486 211.885 44.2712C152.232 41.9143 102.402 75.6116 69.443 176.852C36.4844 278.103 41.974 413.858 24.709 432.299C36.8773 422.489 49.8207 422.394 67.8715 478.938" stroke="#101727" stroke-width="2" stroke-miterlimit="10"/>
<path d="M264.902 76.4399C283.792 78.404 339.112 92.5242 343.827 198.457C347.808 288.104 329.874 395.959 332.837 453.182C333.368 463.576 334.589 472.303 336.766 478.938" stroke="#101727" stroke-width="2" stroke-miterlimit="10"/>
<path d="M172.854 478.938C170.114 459.669 149.664 420.727 136.954 388.792C132.845 378.452 129.542 368.854 127.907 360.892C125.072 347.069 124.605 323.404 127.429 295.854M127.429 295.854C131.262 258.483 141.159 213.968 159.453 177.149C191.244 113.195 197.721 100.37 260.24 100.37C260.24 100.37 308.754 136.742 310.029 198.839C320.923 239.225 323.28 270.661 315.04 303.233C309.837 323.797 297.807 343.045 282.517 357.027C267.588 370.701 249.548 379.354 231.71 379.354C200.333 379.354 155.652 355.732 136.317 321.345C131.825 313.371 128.704 304.825 127.429 295.854Z" stroke="#101727" stroke-width="2" stroke-miterlimit="10"/>
<path d="M282.675 356.72C282.622 356.826 282.569 356.921 282.516 357.028C267.672 385.862 246.457 457.822 257.308 478.939" stroke="#101727" stroke-width="2" stroke-miterlimit="10"/>
<path d="M136.316 321.249V321.345L136.953 388.792" stroke="#101727" stroke-width="2" stroke-miterlimit="10"/>
<path d="M24.709 432.299C11.3196 442.639 1.0625 444.412 1.0625 444.412" stroke="#101727" stroke-width="2" stroke-miterlimit="10"/>
<path d="M332.824 453.183H332.835C345.152 456.421 361.833 459.022 378.939 474.204" stroke="#101727" stroke-width="2" stroke-miterlimit="10"/>
<path d="M199.205 189.953C185.136 180.536 163.645 181.321 154.758 187.182" stroke="#101727" stroke-width="2" stroke-miterlimit="10"/>
<path d="M252.309 186.471C263.245 180.78 286.446 173.911 305.431 185.239" stroke="#101727" stroke-width="2" stroke-miterlimit="10"/>
</g>
<defs>
<clipPath id="clip0_1893_187">
<rect width="380" height="480" fill="white"/>
</clipPath>
</defs>
</svg>