<?xml version="1.0" encoding="UTF-8"?><svg id="Layer_2" xmlns="http://www.w3.org/2000/svg" viewBox="0 0 360 460"><rect x="2.06" y="4.94" width="355.88" height="450.12" rx="4" ry="4" fill="#01654d"/><path d="M6.06,455.06h347.88c2.21,0,4-1.79,4-4v-76.65l-100.08-16.49H104.14L2.06,380.56v70.5c0,2.21,1.79,4,4,4Z" fill="#738452" stroke="#101727" stroke-miterlimit="10" stroke-width="2"/><rect x="2.06" y="4.94" width="355.88" height="450.12" rx="4" ry="4" fill="none" stroke="#101727" stroke-miterlimit="10" stroke-width="2"/><path d="M257.86,357.92h-12.04l-1.03,13.43c-.11,1.49-.77,2.87-1.86,3.89l-5.37,5.06c-12.88,12.13-29.7,19.25-47.38,20.05-17.67.8-35.07-4.78-48.99-15.71l-22.47-17.64c-1.34-1.05-2.17-2.63-2.27-4.33l-.29-4.75h-12.02l-11.86,2.63.22,3.61c.53,8.53,4.69,16.44,11.41,21.72l22.47,17.64c17.28,13.56,38.6,20.91,60.49,20.91,1.46,0,2.93-.03,4.4-.1,23.41-1.05,45.7-10.49,62.75-26.56l5.37-5.06c5.44-5.13,8.76-12.06,9.33-19.52l1.02-13.31-11.89-1.96Z" fill="#a99e53" stroke="#101727" stroke-miterlimit="10" stroke-width="2"/><path d="M263.09,289.87l-6.33,82.4c-.34,4.46-2.34,8.64-5.6,11.71l-5.37,5.06c-30.95,29.16-78.56,31.3-112,5.04l-22.47-17.64c-4.03-3.17-6.52-7.91-6.84-13.02l-5.41-87.32" fill="#e9e1ce" stroke="#101727" stroke-miterlimit="10" stroke-width="2"/><path d="M272.94,183.54c9.81-17.47,31.28-9.81,27.56,8.37-3.68,17.96-.9,31.06-3.4,40.59-3.37,12.83-18.71,25.09-23.34,25.09-7.86,0-9.22-13.69-9.22-13.69l-6.01-37.09,14.41-23.27Z" fill="#e9e1ce" stroke="#101727" stroke-miterlimit="10" stroke-width="2"/><path d="M82.64,219.11c1.16-39.01-7.21-18.17-17.2-46.57-4.06-11.54-7.94-36.38-4.61-50.19,3.34-13.82,12.42-34.61,13.16-47.37.74-12.76,15.98-26.44,33.44-33.15,17.46-6.71,23-.54,42.35-8.64,22-9.21,62.41-10.99,85.28-1.84,22.88,9.15,30.39,22.46,44.67,30.89,14.28,8.43,13.7,56.47,14.08,65.31s-2.71,30.34-5.79,42.83-7.21,5.04-8.85,43.33c-.34,7.98-196.54,5.39-196.54,5.39Z" fill="#101727"/><path d="M81.35,189.02c-9.81-17.47-33.01-8.75-29.29,9.43,3.68,17.96.06,27.4,2.56,36.93,3.37,12.83,19.55,27.68,24.18,27.68,7.86,0,9.22-13.69,9.22-13.69l6.01-37.09-12.68-23.27Z" fill="#e9e1ce" stroke="#101727" stroke-miterlimit="10" stroke-width="2"/><path d="M279.73,225.66s-1.9,52.33-19.06,78.56c-8.82,13.48-29.18,52.73-75.53,52.73-38.33,0-84.34-54.44-93.37-71.72-8.09-15.48-9.13-46.64-9.13-62.26,0-41.89-2.28-37.28,10.02-60.73,10.1-19.24,23.06-48.47,64.8-58.01,9.11-2.08,31.13-.38,43.26-.28,0,0,32.49-.01,43.74.96,12.42,1.07,11.9,20.56,17.25,33.53,2.65,6.41,7.36,9.51,8.69,15.14,9.71,40.89,10.01,59.44,9.33,72.08Z" fill="#e9e1ce" stroke="#101727" stroke-miterlimit="10" stroke-width="2"/><circle cx="144.31" cy="197.35" r="8.33" fill="none" stroke="#101727" stroke-miterlimit="10" stroke-width="2"/><circle cx="227.93" cy="197.35" r="8.33" fill="none" stroke="#101727" stroke-miterlimit="10" stroke-width="2"/><path d="M166.54,258.14c-1.67,6.34,1.97,7.57,4.04,7.57s5.03-3.04,7.84-3.01c3.03.04,6.77,3.83,8.62,3.73,4.01-.22,5.53-4.03,9.01-4.06,2.58-.03,6.46,3.87,11.03.19,5.72-4.61,0-13.18-4.8-21.06-9.35-15.33-8.65-33.05-12.18-56.62" fill="none" stroke="#101727" stroke-miterlimit="10" stroke-width="2"/><path d="M116.57,190.94c12.22-10.88,28.86-13.72,53.88-8.57" fill="none" stroke="#101727" stroke-miterlimit="10" stroke-width="2"/><path d="M257.94,190.65c-10.9-9.78-31.21-13.99-53.56-7.08" fill="none" stroke="#101727" stroke-miterlimit="10" stroke-width="2"/><path d="M155.2,289.52c14.1,7.88,46.37,9.9,65.35,3.65" fill="none" stroke="#101727" stroke-miterlimit="10" stroke-width="2"/><path d="M180.5,306.25c5.26,2.06,11.89,2.99,17.2.7" fill="none" stroke="#101727" stroke-miterlimit="10" stroke-width="2"/><path d="M156.99,283.9c.29,3.88-1.79,7.95-5.29,9.28" fill="none" stroke="#101727" stroke-miterlimit="10" stroke-width="2"/><path d="M61.18,187.71c6.53,6.34,19.85,16.87,21.45,31.4" fill="none" stroke="#101727" stroke-miterlimit="10" stroke-width="2"/><path d="M279.36,204.44c3.35-13.07,12.43-20.87,12.43-20.87" fill="none" stroke="#101727" stroke-miterlimit="10" stroke-width="2"/><path d="M94.94,157.84c-12.31,25.26-8.36,65.27-12.31,64.38s-.27-35.11-7.7-40.22c-6.83-4.69,20.01-24.16,20.01-24.16Z" fill="#101727" stroke="#101727" stroke-linejoin="round" stroke-width="2"/><path d="M269.37,110.98c-1.45,7.06-11.25,16.75-11.52,14.26-1.46-13.92-10.4-26.38-22.24-16.48-32.57,27.23-94.86,22.72-91.21,19.24,3.57-3.37,49.25,5.91,68.28-31.76,9-17.81,56.69,14.74,56.69,14.74Z" fill="#101727" stroke="#101727" stroke-linejoin="round" stroke-width="2"/><path d="M230.05,82c-26.93,44.7-100.09,39.67-95.25,35.38,3.66-3.81,30.84,5.67,45.29-26.32,8.65-19.15,49.95-9.06,49.95-9.06Z" fill="#101727" stroke="#101727" stroke-linejoin="round" stroke-width="2"/><path d="M165.71,109.35c3.26-2.48-.31-8.02-8.25-5.12s10.6-12.81,10.6-12.81l8.65,1.68,2.83,7.28-13.83,8.96Z" fill="#101727" stroke="#101727" stroke-linejoin="round" stroke-width="2"/></svg>