<?xml version="1.0" encoding="UTF-8"?><svg id="Layer_2" xmlns="http://www.w3.org/2000/svg" viewBox="0 0 360 460"><rect x="2.06" y="4.94" width="355.88" height="450.12" rx="4" ry="4" fill="#01654d"/><path d="M6.06,455.06h347.88c2.21,0,4-1.79,4-4v-47.86s-71.38-37.24-88.44-50.06l-199.96,9.08c-17.06,12.83-67.49,45.11-67.49,45.11v43.73c0,2.21,1.79,4,4,4Z" fill="#738452" stroke="#101727" stroke-miterlimit="10" stroke-width="2"/><path d="M233.91,420.74c49-7.45,66.56,1.29,70.78,1.29,8.6,0-19.89-39.54-27.72-54.82-11.67-22.76-16.65-30.97-27.41-33.25l-32.6,39.21,16.94,47.57Z" fill="#738452" stroke="#101727" stroke-miterlimit="10" stroke-width="2"/><path d="M249.57,333.96s9.32,5.09,11.63,17.78-14.01,49.73-22.08,62.99c-8.07,13.26-22.26,12.96-56.85,5.01l2.35-41.58,46.84-30.43,18.11-13.77Z" fill="#738452" stroke="#101727" stroke-miterlimit="10" stroke-width="2"/><path d="M128.93,421.02c-46.64,3.89-63.13,12.54-67.36,12.54-8.6,0-1.35-11.73,1.21-24.1,2.73-13.18,1.29-30.62,6.77-47.24,4.9-14.87,17.79-28.64,26.23-27.14l63.63,53.06-30.48,32.88Z" fill="#738452" stroke="#101727" stroke-miterlimit="10" stroke-width="2"/><path d="M182.26,419.74c-20.47,4.74-45.26,14.54-53.33,1.28s-44.97-55.54-42.66-68.22,9.51-17.72,9.51-17.72l49.94,18.05,28.71,40.63,7.83,25.99Z" fill="#738452" stroke="#101727" stroke-miterlimit="10" stroke-width="2"/><path d="M92.07,270.45l4.11,71.77c.54,9.38,4.53,18.28,11.33,24.77,25.72,24.55,74.74,52.75,74.74,52.75,0,0,35.39-24.41,56.08-45.61,6.44-6.6,10.1-15.43,10.32-24.65l1.44-58.78" fill="#e9e1ce" stroke="#101727" stroke-miterlimit="10" stroke-width="2"/><path d="M75.35,188.41c-9.81-17.47-29.08-4.23-23.01,13.31,11.24,32.48-2.16,56.12,19.6,56.12,7.86,0,10.34-10.53,10.34-10.53" fill="#e9e1ce" stroke="#101727" stroke-miterlimit="10" stroke-width="2"/><path d="M276.83,186.01c9.81-18.08,29.08-4.38,23.01,13.77-11.24,33.6,2.16,58.06-19.6,58.06-7.86,0-10.34-10.89-10.34-10.89" fill="#e9e1ce" stroke="#101727" stroke-miterlimit="10" stroke-width="2"/><path d="M76.75,215.75c2.03,11.96,9.96,66.39,19.46,78.79,22.68,29.6,19.41,28.12,55.46,51.58,4.54,2.95,13.84,9.13,21.91,9.13,9.79,0,17.87-.38,29.98-.38,10.09,0,22.04-9.88,24.6-12.78,7.93-8.99,25.73-24.05,40.98-45.11,13.23-18.26,9.87-107.98,10.64-124.12l13.98-46.84-20.18-29.98-45.35-17.49-79.23-8.07-53.95,9.61-33.25,24.98,5.08,52.65,9.87,58.04" fill="#e9e1ce" stroke="#101727" stroke-miterlimit="10" stroke-width="2"/><rect x="2.06" y="4.94" width="355.88" height="450.12" rx="4" ry="4" fill="none" stroke="#101727" stroke-miterlimit="10" stroke-width="2"/><path d="M160.61,213.79l-45.83-1.91c-5.03-.21-9.07-4.14-9.31-9.07l-.75-15.31c-.27-5.44,4.17-9.99,9.73-9.99h51.15c6.37,0,11.03,5.89,9.43,11.93l-4.57,17.22c-1.15,4.35-5.26,7.32-9.84,7.13Z" fill="none" stroke="#101727" stroke-linecap="round" stroke-linejoin="round" stroke-width="2"/><path d="M214,213.79l45.83-1.91c5.03-.21,9.07-4.14,9.31-9.07l.75-15.31c.27-5.44-4.17-9.99-9.73-9.99h-51.15c-6.37,0-11.03,5.89-9.43,11.93l4.57,17.22c1.15,4.35,5.26,7.32,9.84,7.13Z" fill="none" stroke="#101727" stroke-linecap="round" stroke-linejoin="round" stroke-width="2"/><line x1="175.34" y1="188.08" x2="199.26" y2="188.08" fill="none" stroke="#101727" stroke-linecap="round" stroke-linejoin="round" stroke-width="2"/><circle cx="140.68" cy="191.66" r="8.33" fill="none" stroke="#101727" stroke-miterlimit="10" stroke-width="2"/><circle cx="234.05" cy="191.66" r="8.33" fill="none" stroke="#101727" stroke-miterlimit="10" stroke-width="2"/><path d="M168.35,238.57c-2.9,9.03,4.81,7.7,10.37,7.86,3.18.09,8.62,7.47,14.72,7.9,6.1.43,7.48-5.32,12.46-7.24,2.99-1.16,9.12-.87,10.3-6.69,1.11-5.46-16.94-16.63-24.2-44.74" fill="none" stroke="#101727" stroke-miterlimit="10" stroke-width="2"/><path d="M231.65,275.72c.02,4.61-18.23,16.49-41.24,16.38-20.16-.09-39.95-10.15-39.91-15.92.02-3.36,15.03.95,39.35,1.65,27.89.8,41.78-6.68,41.8-2.11Z" fill="none" stroke="#101727" stroke-miterlimit="10" stroke-width="2"/><path d="M241.16,259.66c3.17,3.36,5.77,10.95,4.9,16.72" fill="none" stroke="#101727" stroke-miterlimit="10" stroke-width="2"/><path d="M140.02,260.82c-3.17,3.36-5.77,10.95-4.9,16.72" fill="none" stroke="#101727" stroke-miterlimit="10" stroke-width="2"/><path d="M175.12,324.29c3.65-3.56,25.18-5.19,31.9-.29" fill="none" stroke="#101727" stroke-miterlimit="10" stroke-width="2"/><path d="M112.54,170.16c6.92-6.05,17.06-8.94,28.13-8.22" fill="none" stroke="#101727" stroke-linecap="round" stroke-linejoin="round" stroke-width="2"/><path d="M238.19,166.21c12.18-.95,19.25.63,29.9,6.65" fill="none" stroke="#101727" stroke-linecap="round" stroke-linejoin="round" stroke-width="2"/><path d="M73.48,69.51c-15.37,1.15-24.99,14.15-22.3,40.47s-2.55,56.18,5.95,67.52,12.4-1.21,19.61,38.24c.56,3.05,7.21-1.95,5.57-14.03-2.45-18.09-2.69-62.26,0-77.06s11.34-30.17,20.76-32.67,24.9-4.23,32.92-9.8,27.81-2.11,41.07,4.23,28.25,5.19,44.97,1.15,23.25,12.11,26.33,16.53,13.07,21.52,22.48,26.9c8.46,19.22,7.64,33.9,7.64,33.9,0,0-1.06,19.84,1.17,32.17,11.48-25.14,20.1-46.05,26.55-81.25,1.86-10.16-11.15-40.16-28.25-46.31-2.11-17.68-10.95-20.75-29.02-20.36-3.46-19.22-55.92-46.89-101.28-25.75-18.06.77-69.38,7.37-74.18,46.12Z" fill="#101727" stroke="#101727" stroke-linejoin="round" stroke-width="2"/><path d="M224.16,89.17c12.61-2.22,16.91-3.4,24.19-9.82" fill="none" stroke="#e9e1ce" stroke-miterlimit="10" stroke-width="2"/><line x1="184.87" y1="455.06" x2="182.26" y2="419.74" fill="none" stroke="#101727" stroke-miterlimit="10" stroke-width="2"/><polyline points="104.78 188.85 99.07 188.85 74.35 183.32" fill="#e9e1ce" stroke="#101727" stroke-miterlimit="10" stroke-width="2"/><polyline points="269.9 188.85 275.44 188.85 282.12 185.98" fill="none" stroke="#101727" stroke-miterlimit="10" stroke-width="2"/></svg>