<?xml version="1.0" encoding="UTF-8"?><svg id="Layer_2" xmlns="http://www.w3.org/2000/svg" viewBox="0 0 360 460"><path d="M118.51,82.17c-.13-.16-.27-.3-.44-.41.15.16.3.3.46.44,0,0-.01-.02-.02-.03ZM118.51,82.17c-.13-.16-.27-.3-.44-.41.15.16.3.3.46.44,0,0-.01-.02-.02-.03ZM118.51,82.17c-.13-.16-.27-.3-.44-.41.15.16.3.3.46.44,0,0-.01-.02-.02-.03ZM118.51,82.17c-.13-.16-.27-.3-.44-.41.15.16.3.3.46.44,0,0-.01-.02-.02-.03ZM118.51,82.17c-.13-.16-.27-.3-.44-.41.15.16.3.3.46.44,0,0-.01-.02-.02-.03ZM118.51,82.17c-.13-.16-.27-.3-.44-.41.15.16.3.3.46.44,0,0-.01-.02-.02-.03ZM118.51,82.17c-.13-.16-.27-.3-.44-.41.15.16.3.3.46.44,0,0-.01-.02-.02-.03ZM118.51,82.17c-.13-.16-.27-.3-.44-.41.15.16.3.3.46.44,0,0-.01-.02-.02-.03ZM118.51,82.17c-.13-.16-.27-.3-.44-.41.15.16.3.3.46.44,0,0-.01-.02-.02-.03ZM118.51,82.17c-.13-.16-.27-.3-.44-.41.15.16.3.3.46.44,0,0-.01-.02-.02-.03Z" fill="none" stroke="#101727" stroke-miterlimit="10" stroke-width="2"/><path d="M357.94,8.94v385.22l-96.03-12.17h-.01c-5.29-5.2-11.5-7.88-19.36-14.23l.86-20.25c.7-.86,1.4-1.73,2.09-2.61,2.02-2.59,3.98-5.25,5.85-7.95h0c3.53-5.13,6.75-10.4,9.51-15.6,1.73-3.24,3.28-6.45,4.63-9.57.09-.22.19-.44.28-.66,1.69-4,3.31-7.68,4.84-11.11,7.34-16.49,12.55-27.34,13.31-41.29h.01c6.78-.02,5.82-18.42,6.39-25.53.58-7.11,3.85-26.71,2.26-34.59-.59-2.92-2.07-4.21-3.93-4.38,1.01-4.98,2.09-8.79,4.15-9.17,5.56-1.01,5.89-6.96,1.32-8.23-1.12-.31-4.37-.64-8.79-.95,1.32-.03,8.4-2.03,8.4-41.46,0-43.53-30.55-65.15-58.58-77.83-28.03-12.68-67.97-12.6-92.18-3.17-20.97,8.17-30.26,22.72-24.89,28.35-6.69-5.12-42.27,16.27-51.28,37.52-9.23,21.76-11.69,51.79,3.63,77.49-9.59-3.45-19.32-.53-19.9,18.74-.96,32.09,18.84,62.26,32.29,66.3,13.45,4.04,14.89-8.74,14.89-8.74l2.86,83.4c-5.02,4.99-9.57,10.48-13.5,16.37l-85,15.49V8.94c0-2.21,1.79-4,4-4h347.88c2.21,0,4,1.79,4,4Z" fill="#01654d" stroke="#101727" stroke-miterlimit="10" stroke-width="2"/><path d="M183.52,455.06H6.06c-2.21,0-4-1.79-4-4v-62.73l85-15.49c-7.18,10.73.51,24.53-1.85,37.21l-3.06,34.4,68.78-34.21,31.05,33.14,1.54,11.68Z" fill="#738452" stroke="#101727" stroke-miterlimit="10" stroke-width="2"/><path d="M357.94,394.16v56.9c0,2.21-1.79,4-4,4h-170.42l-1.54-11.68,27.41-34.72,59.45,25.42,5.65-27.13c-3.77-13.45-7.78-20.24-12.57-24.95l96.03,12.17Z" fill="#738452" stroke="#101727" stroke-miterlimit="10" stroke-width="2"/><path d="M292.79,185.05c-2.06.38-3.14,4.19-4.15,9.17-3.16-.29-7.45,2.61-10.53,6.14h-.08c-.34-4.47-.52-8.87-.45-13.24.04-2.77.09-6.81.05-11.73,2.7.14,5.23.3,7.47.46,0,0,.08.02.22.02,4.42.31,7.67.64,8.79.95,4.57,1.27,4.24,7.22-1.32,8.23Z" fill="#01654d" stroke="#101727" stroke-miterlimit="10" stroke-width="2"/><line x1="191.24" y1="183.09" x2="191.23" y2="183.1" fill="none" stroke="#101727" stroke-miterlimit="10" stroke-width="2"/><path d="M277.63,175.39c-13.78-.78-31.91-1.36-37.82-1.27-8.45.14-19.23,1.45-20.94,10.2l-.24-.04c-5.86-5.48-21.5-6.05-27.39-1.19-3.32-6.38-13.08-7.43-20.92-7.54-9.81-.14-51.87,1.48-56.64,2.75-2.16.58-3.28,2.12-3.31,3.73l-17.84,7.05c8.34-11.86,14.8-31.58,12.93-44.12-1.88-12.54-7.32-19.34-2.86-26.26,4.46-6.91,21.25-29.89,15.93-36.5.79.66,1.82,1.16,3.1,1.48,11.53,2.88,23.64-10.67,36.34-10.67s23.91,6.92,39.47,12.68c15.57,5.77,32.43-14.14,56.64-2.9,20.58,9.55,23.36,64.88,23.55,92.6Z" fill="#e9e1ce" stroke="#101727" stroke-linejoin="round" stroke-width="2"/><path d="M293.72,134.41c0,39.43-7.08,41.43-8.4,41.46-.14,0-.22-.02-.22-.02-2.24-.16-4.77-.32-7.47-.46-.19-27.72-2.97-83.05-23.55-92.6-24.21-11.24-41.07,8.67-56.64,2.9-15.56-5.76-26.77-12.68-39.47-12.68s-24.81,13.55-36.34,10.67c-1.28-.32-2.31-.82-3.1-1.48,0,0-.01-.02-.02-.03-.13-.16-.27-.3-.44-.41-5.37-5.63,3.92-20.18,24.89-28.35,24.21-9.43,64.15-9.51,92.18,3.17,28.03,12.68,58.58,34.3,58.58,77.83Z" fill="#222b38" stroke="#101727" stroke-linejoin="round" stroke-width="2"/><path d="M191.24,183.09c-3.32-6.38-13.08-7.43-20.92-7.54-9.81-.14-51.87,1.48-56.64,2.75-2.16.58-3.28,2.12-3.31,3.73-.03,1.93,1.51,3.96,4.67,4.51,5.79,1.01,4.13,27,13.52,33.3,9.38,6.3,36.61,3.65,43.9,2.92,7.29-.74,18.7-8.92,19.92-33.78.11-2.35-.31-4.29-1.14-5.89ZM157.97,198.33c-4.6,0-8.33-3.73-8.33-8.33s3.73-8.33,8.33-8.33,8.33,3.73,8.33,8.33-3.73,8.33-8.33,8.33Z" fill="#e9e1ce" stroke="#101727" stroke-linejoin="round" stroke-width="2"/><path d="M278.03,200.37c-.34-4.48-.52-8.88-.45-13.25.04-2.77.09-6.81.05-11.73-13.78-.78-31.91-1.36-37.82-1.27-8.45.14-19.23,1.45-20.94,10.2-.2.99-.27,2.07-.22,3.26,1.14,24.86,12.07,33.02,19.06,33.75,6.98.73,33.09,3.35,42.09-2.96.06-.04.12-.09.18-.14-.8-6.17-1.51-12.08-1.95-17.86ZM241.59,198.33c-4.6,0-8.33-3.73-8.33-8.33s3.73-8.33,8.33-8.33,8.33,3.73,8.33,8.33-3.73,8.33-8.33,8.33Z" fill="#e9e1ce" stroke="#101727" stroke-linejoin="round" stroke-width="2"/><circle cx="241.59" cy="190" r="8.33" fill="#e9e1ce" stroke="#101727" stroke-linejoin="round" stroke-width="2"/><circle cx="157.97" cy="190" r="8.33" fill="#e9e1ce" stroke="#101727" stroke-linejoin="round" stroke-width="2"/><path d="M283.63,247.67c-1.05-10.62-2.45-20.31-3.65-29.44-.06.05-.12.1-.18.14-9,6.31-35.11,3.69-42.09,2.96-6.99-.73-17.92-8.89-19.06-33.75-.05-1.19.02-2.27.22-3.26l-.24-.04c-5.86-5.48-21.5-6.05-27.39-1.19.83,1.6,1.25,3.54,1.14,5.89-1.22,24.86-12.63,33.04-19.92,33.78-7.29.73-34.52,3.38-43.9-2.92-9.39-6.3-7.73-32.29-13.52-33.3-3.16-.55-4.7-2.58-4.67-4.51l-17.84,7.05-20.76,8.22h-.01c-.44-.19-.89-.37-1.34-.53-9.59-3.45-19.32-.53-19.9,18.74-.96,32.09,18.84,62.26,32.29,66.3,13.45,4.04,14.89-8.74,14.89-8.74,1.5,3.54,3.19,7.47,5.01,11.69v.02c2.67,6.21,5.64,12.98,8.76,19.82h0c2.84,6.24,5.81,12.5,8.79,18.44h0c3.08,6.12,6.17,11.86,9.16,16.84,3.51,5.82,6.89,10.58,9.95,13.62.54.53,1.06,1.01,1.57,1.43,4.98,4.1,12.06,8.63,20.14,12.49h.01c4,1.92,8.24,3.68,12.6,5.14,5.47,1.83,11.11,3.21,16.68,3.87,4.37.53,8.7.61,12.85.12.61-.07,1.23-.17,1.85-.29,3.18-.61,6.48-1.85,9.82-3.6,4.87-2.54,9.85-6.18,14.73-10.56,2.07-1.86,4.13-3.87,6.16-5.98,2.61-2.71,5.16-5.6,7.62-8.61.7-.86,1.4-1.73,2.09-2.61,2.02-2.59,3.98-5.25,5.85-7.95h0c3.53-5.13,6.75-10.4,9.51-15.6,1.73-3.24,3.28-6.45,4.63-9.57.09-.22.19-.44.28-.66,1.69-4,3.31-7.68,4.84-11.11,7.34-16.49,12.55-27.34,13.31-41.29.2-3.45.11-7.09-.28-11.05ZM245.96,277.82c-1.01,6.78-22.2,19.89-39.93,20.47-18.37.6-51.38-11.18-50.15-21.33.63-5.24,33.29,2.36,50.16,3.08,16.86.72,40.93-8.99,39.92-2.22Z" fill="#e9e1ce" stroke="#101727" stroke-linejoin="round" stroke-width="2"/><path d="M245.96,277.82c-1.01,6.78-22.2,19.89-39.93,20.47-18.37.6-51.38-11.18-50.15-21.33.63-5.24,33.29,2.36,50.16,3.08,16.86.72,40.93-8.99,39.92-2.22Z" fill="#e9e1ce" stroke="#101727" stroke-linejoin="round" stroke-width="2"/><path d="M71.77,197.3c5.91,2.49,11.6,7.24,14.88,11.87l5.88-20.09-20.76,8.22Z" fill="#222b38" stroke="#101727" stroke-linejoin="round" stroke-width="2"/><path d="M78.82,213.83c-4.04-4.18-20.12-20.32-24.07,7.64" fill="none" stroke="#101727" stroke-linejoin="round" stroke-width="2"/><path d="M105.46,144.96c1.87,12.54-4.59,32.26-12.93,44.12l-20.76,8.22h-.01c-.44-.19-.89-.37-1.34-.53-15.32-25.7-12.86-55.73-3.63-77.49,9.01-21.25,44.59-42.64,51.28-37.52.15.16.3.3.46.44,5.32,6.61-11.47,29.59-15.93,36.5-4.46,6.92.98,13.72,2.86,26.26Z" fill="#222b38" stroke="#101727" stroke-linejoin="round" stroke-width="2"/><path d="M290.31,233.19c-.57,7.11.39,25.51-6.39,25.53h-.01c.2-3.45.11-7.09-.28-11.05-1.05-10.62-2.45-20.31-3.65-29.44,5.51-4.08,6.98-15.67,8.66-24.01,1.86.17,3.34,1.46,3.93,4.38,1.59,7.88-1.68,27.48-2.26,34.59Z" fill="#e9e1ce" stroke="#101727" stroke-linejoin="round" stroke-width="2"/><path d="M288.64,194.22c-1.68,8.34-3.15,19.93-8.66,24.01-.8-6.17-1.51-12.08-1.95-17.86h.08c3.08-3.54,7.37-6.44,10.53-6.15Z" fill="#e9e1ce" stroke="#101727" stroke-linejoin="round" stroke-width="2"/><path d="M243.4,347.51l-.86,20.25-.95,22.56-45.75,24.48-13.87,28.58-22.19-26.47-57.9-22.11-1.32-38.33-2.86-83.4c1.5,3.54,3.19,7.47,5.01,11.69v.02c2.67,6.21,5.64,12.98,8.76,19.82h0c2.84,6.24,5.81,12.5,8.79,18.44h0c3.08,6.12,6.17,11.86,9.16,16.84,3.51,5.82,6.89,10.58,9.95,13.62.54.53,1.06,1.01,1.57,1.43,4.98,4.1,12.06,8.63,20.14,12.49h.01c4,1.92,8.24,3.68,12.6,5.14,5.47,1.83,11.11,3.21,16.68,3.87,4.37.53,8.7.61,12.85.12.61-.07,1.23-.17,1.85-.29,3.18-.61,6.48-1.85,9.82-3.6,4.87-2.54,9.85-6.18,14.73-10.56,2.07-1.86,4.13-3.87,6.16-5.98,2.61-2.71,5.16-5.6,7.62-8.61Z" fill="#e9e1ce" stroke="#101727" stroke-miterlimit="10" stroke-width="2"/><path d="M181.97,443.38l-32.33-29.43-71.73,35.69-3.11-23.14c-2.51-18.65,1.64-37.66,12.05-53.34.07-.11.14-.21.21-.32,3.93-5.89,8.48-11.38,13.5-16.37l1.32,38.33,53.97,11.6,26.13,36.98Z" fill="#a99e53" stroke="#101727" stroke-linejoin="round" stroke-width="2"/><line x1="100.57" y1="356.46" x2="100.56" y2="356.47" fill="none" stroke="#101727" stroke-linejoin="round" stroke-width="2"/><path d="M274.7,445.38l-66.22-29.76-26.51,27.76,16.45-34.67,43.16-18.39.95-22.56c7.86,6.35,14.07,9.03,19.36,14.22h.01c.05.06.1.1.14.15.46.44.91.89,1.35,1.34,12.62,12.98,17.6,31.59,13.91,49.31l-2.62,12.59Z" fill="#a99e53" stroke="#101727" stroke-linejoin="round" stroke-width="2"/><line x1="261.9" y1="381.98" x2="261.55" y2="381.94" fill="none" stroke="#101727" stroke-linejoin="round" stroke-width="2"/><path d="M90.66,213.16c.08,2.37.16,4.73.24,7.1l.07,1.99c0,.28.11.56.31.76.19.19.49.33.76.31s.56-.1.76-.31.32-.47.31-.76c-.08-2.37-.16-4.73-.24-7.1l-.07-1.99c0-.28-.11-.56-.31-.76-.19-.19-.49-.33-.76-.31s-.56.1-.76.31-.32.47-.31.76h0Z" fill="#101727"/><path d="M95.61,230.97c.72,2.13,1.32,4.31,1.77,6.51.13.62.24,1.24.35,1.86.04.25.28.52.49.64.23.13.57.19.83.11s.51-.24.64-.49l.11-.26c.05-.19.05-.38,0-.57-.38-2.22-.89-4.41-1.54-6.57-.18-.6-.37-1.2-.58-1.8-.09-.27-.25-.5-.49-.64-.23-.13-.57-.19-.83-.11s-.51.24-.64.49-.2.55-.11.83h0Z" fill="#101727"/><path d="M104.54,239.34c.39,1.67.72,3.35.98,5.04.08.48.15.96.21,1.45l-.04-.28c.02.15.04.29.06.44,0,.15.03.29.09.41.04.13.12.25.22.34.19.19.49.33.76.31s.56-.1.76-.31l.17-.22c.1-.17.15-.35.15-.54-.24-1.91-.55-3.8-.95-5.68-.11-.51-.22-1.02-.34-1.53-.06-.26-.27-.51-.49-.64s-.57-.19-.83-.11-.51.24-.64.49c-.14.26-.18.54-.11.83h0Z" fill="#101727"/><path d="M110.76,255.03c.03,1.27.05,2.55.08,3.82l.02,1.07c0,.28.12.56.31.76.1.1.21.18.34.22.13.07.27.1.41.09.28-.01.56-.1.76-.31s.32-.47.31-.76c-.03-1.27-.05-2.55-.08-3.82l-.02-1.07c0-.28-.12-.56-.31-.76-.1-.1-.21-.18-.34-.22-.13-.07-.27-.1-.41-.09-.28.01-.56.1-.76.31s-.32.47-.31.76h0Z" fill="#101727"/><path d="M99.5,249.6c.03,1.27.05,2.55.08,3.82l.02,1.07c0,.28.12.56.31.76.1.1.21.18.34.22.13.07.27.1.41.09.28-.01.56-.1.76-.31s.32-.47.31-.76c-.03-1.27-.05-2.55-.08-3.82l-.02-1.07c0-.28-.12-.56-.31-.76-.1-.1-.21-.18-.34-.22-.13-.07-.27-.1-.41-.09-.28.01-.56.1-.76.31s-.32.47-.31.76h0Z" fill="#101727"/><path d="M101.26,258.65c-.61,2.28-1.24,4.56-1.89,6.83-.18.64-.37,1.28-.55,1.92-.08.27-.03.59.11.83.13.22.38.43.64.49.27.06.58.05.83-.11s.41-.37.49-.64c.65-2.27,1.29-4.55,1.91-6.83.18-.64.35-1.29.52-1.93.07-.27.03-.58-.11-.83-.13-.22-.38-.43-.64-.49-.27-.06-.58-.05-.83.11s-.42.37-.49.64h0Z" fill="#101727"/><path d="M106.43,265.55v6.42c.01.6.01,1.2.01,1.8,0,.28.12.56.31.76s.49.33.76.31.56-.1.76-.31.31-.47.31-.76v-6.42c-.01-.6-.01-1.2-.01-1.8,0-.28-.12-.56-.31-.76s-.49-.33-.76-.31-.56.1-.76.31-.31.47-.31.76h0Z" fill="#101727"/><path d="M115.14,266.05c.19.77.39,1.54.58,2.3l.44,1.75c.12.49.25.99.37,1.48.03.14.1.26.19.36.08.12.18.21.3.28.12.08.26.12.4.13.14.03.28.03.43-.02.26-.08.51-.24.64-.49s.18-.54.11-.83c-.19-.77-.39-1.54-.58-2.3l-.44-1.75c-.12-.49-.25-.99-.37-1.48-.03-.14-.1-.26-.19-.36-.08-.12-.18-.21-.3-.28-.12-.08-.26-.12-.4-.13-.14-.03-.28-.03-.43.02-.26.08-.51.24-.64.49s-.18.54-.11.83h0Z" fill="#101727"/><path d="M91.5,203.03c.17.67.34,1.33.58,1.98.15.41.31.81.44,1.23.14.45.26.9.37,1.36.03.14.1.26.19.36.08.12.18.21.3.28.12.08.26.12.4.13.14.03.28.03.43-.02.26-.08.51-.24.64-.49l.11-.26c.05-.19.05-.38,0-.57-.17-.67-.34-1.33-.58-1.98-.15-.41-.31-.81-.44-1.23-.14-.45-.26-.9-.37-1.36-.03-.14-.1-.26-.19-.36-.08-.12-.18-.21-.3-.28-.12-.08-.26-.12-.4-.13-.14-.03-.28-.03-.43.02-.26.08-.51.24-.64.49l-.11.26c-.05.19-.05.38,0,.57h0Z" fill="#101727"/><path d="M122.8,275.13c.2.94.4,1.88.56,2.83.02.15.05.3.07.46l-.04-.28c.11.79.17,1.59.26,2.38.05.43.1.85.16,1.28,0,.15.03.29.09.41.04.13.12.25.22.34.19.19.49.33.76.31s.56-.1.76-.31l.17-.22c.1-.17.15-.35.15-.54-.13-1-.24-2.01-.35-3.02-.08-.73-.19-1.45-.32-2.17-.13-.68-.27-1.36-.42-2.04-.05-.25-.27-.51-.49-.64-.23-.13-.57-.19-.83-.11s-.51.24-.64.49l-.11.26c-.05.19-.05.38,0,.57h0Z" fill="#101727"/><path d="M108.35,282.73c.13.84.26,1.68.37,2.52l-.04-.28c.16,1.23.31,2.45.42,3.68.03.35.07.7.1,1.05,0,.15.03.29.09.41.04.13.12.25.22.34.19.19.49.33.76.31s.56-.1.76-.31c.18-.2.34-.48.31-.76-.17-1.99-.4-3.97-.69-5.94-.08-.53-.16-1.06-.24-1.59-.03-.14-.1-.26-.19-.36-.08-.12-.18-.21-.3-.28-.23-.13-.57-.19-.83-.11s-.51.24-.64.49l-.11.26c-.05.19-.05.38,0,.57h0Z" fill="#101727"/><path d="M116.14,286.52c.27,2.31.47,4.64.61,6.96.04.66.07,1.32.1,1.97.01.28.11.56.31.76.19.19.49.33.76.31s.56-.1.76-.31.33-.47.31-.76c-.1-2.33-.26-4.65-.49-6.97-.07-.66-.14-1.31-.21-1.96,0-.15-.03-.29-.09-.41-.04-.13-.12-.25-.22-.34-.19-.19-.49-.33-.76-.31s-.56.1-.76.31c-.18.2-.35.48-.31.76h0Z" fill="#101727"/><path d="M130.34,279.83c-.26.82-.53,1.65-.72,2.49-.14.58-.22,1.17-.32,1.76s-.2,1.14-.3,1.71c-.04.14-.05.28-.02.43,0,.14.05.28.13.4.07.12.16.23.28.3.1.09.22.16.36.19.27.06.58.05.83-.11.22-.14.44-.37.49-.64.16-.85.3-1.7.44-2.56.1-.59.24-1.17.4-1.74s.33-1.11.5-1.66c.04-.14.05-.28.02-.43,0-.14-.05-.28-.13-.4-.07-.12-.16-.23-.28-.3-.1-.09-.22-.16-.36-.19-.27-.06-.58-.05-.83.11s-.41.37-.49.64h0Z" fill="#101727"/><path d="M138.62,286.81c-.03,2.44-.11,4.88-.24,7.32-.04.68-.08,1.37-.12,2.05-.02.26.13.58.31.76s.49.33.76.31.56-.1.76-.31.29-.46.31-.76c.16-2.44.27-4.88.33-7.32.02-.68.03-1.37.04-2.05,0-.27-.12-.57-.31-.76s-.49-.33-.76-.31c-.59.03-1.06.47-1.07,1.07h0Z" fill="#101727"/><path d="M132.02,299.78c.49,2.66.98,5.32,1.48,7.97.14.75.28,1.5.42,2.26.05.25.28.52.49.64.23.13.57.19.83.11s.51-.24.64-.49c.14-.27.16-.53.11-.83-.49-2.66-.98-5.32-1.48-7.97-.14-.75-.28-1.5-.42-2.26-.05-.25-.28-.52-.49-.64-.23-.13-.57-.19-.83-.11s-.51.24-.64.49c-.14.27-.16.53-.11.83h0Z" fill="#101727"/><path d="M119.18,301.51l-.68,7.54-.19,2.11c-.02.26.14.58.31.76s.49.33.76.31.56-.1.76-.31.29-.46.31-.76c.23-2.51.45-5.03.68-7.54l.19-2.11c.02-.26-.14-.58-.31-.76s-.49-.33-.76-.31-.56.1-.76.31-.29.46-.31.76h0Z" fill="#101727"/><path d="M127.1,315.92c-.05,2.93-.04,5.86.05,8.78.02.82.05,1.64.08,2.46.01.28.11.56.31.76.19.19.49.33.76.31.56-.03,1.1-.47,1.07-1.07-.12-2.93-.17-5.85-.16-8.78,0-.82.01-1.64.03-2.46,0-.56-.5-1.1-1.07-1.07s-1.06.47-1.07,1.07h0Z" fill="#101727"/><path d="M119.22,322.76c-.31,1.41-.63,2.81-.94,4.22-.09.39-.18.79-.27,1.18-.06.28-.04.58.11.83.07.13.16.23.28.3.1.1.23.16.37.19.28.06.59.05.83-.11.23-.15.43-.37.5-.65.32-1.41.63-2.81.95-4.22.09-.39.17-.79.26-1.18.06-.28.04-.58-.11-.83-.07-.13-.16-.23-.28-.3-.1-.1-.23-.16-.37-.19-.28-.06-.59-.05-.83.11-.23.15-.44.37-.5.65h0Z" fill="#101727"/><path d="M120.37,317.65c-.3,1.33-.59,2.66-.9,3.99-.08.37-.17.74-.25,1.11-.06.28-.04.58.11.83.07.13.16.23.28.3.1.1.23.16.37.19.28.06.59.05.83-.11.23-.15.43-.37.5-.65.3-1.33.6-2.66.9-3.99.08-.37.17-.74.25-1.11.05-.14.05-.29.02-.43,0-.14-.05-.28-.13-.4-.07-.13-.16-.23-.28-.3-.1-.1-.23-.16-.37-.19-.28-.06-.59-.05-.83.11-.23.15-.43.37-.5.65h0Z" fill="#101727"/><path d="M110.43,304.32c-.45,1.37-.91,2.73-1.36,4.1-.13.39-.26.78-.39,1.16-.05.14-.05.29-.02.43,0,.14.05.28.13.4.07.13.16.23.28.3.1.1.23.16.37.19.28.06.59.05.83-.11l.22-.17c.13-.13.23-.29.28-.48.45-1.36.91-2.73,1.36-4.09.13-.39.26-.78.39-1.17.05-.14.05-.29.02-.43,0-.14-.05-.28-.13-.4-.07-.13-.16-.23-.28-.3-.1-.1-.23-.16-.37-.19-.28-.06-.59-.05-.83.11l-.22.17c-.13.13-.23.29-.28.48h0Z" fill="#101727"/><path d="M110.84,303.09c-.11.32-.21.64-.32.96-.03.09-.06.18-.09.26-.05.14-.05.29-.02.43,0,.14.05.28.13.4.07.13.16.23.28.3.1.1.23.16.37.19l.29.04c.19,0,.38-.05.55-.15l.22-.17c.13-.13.23-.29.28-.48.11-.32.21-.63.32-.95.03-.09.06-.18.09-.27.05-.14.05-.29.02-.43,0-.14-.05-.28-.13-.4-.07-.13-.16-.23-.28-.3-.1-.1-.23-.16-.37-.19l-.29-.04c-.19,0-.38.05-.55.15l-.22.17c-.13.13-.23.29-.28.48h0Z" fill="#101727"/><path d="M131,332.63c-.98,2.6-1.95,5.19-2.93,7.79-.27.73-.55,1.46-.82,2.19-.09.25-.02.61.11.83s.38.43.64.49c.27.06.58.05.83-.11s.39-.37.49-.64c.98-2.6,1.95-5.19,2.93-7.79.27-.73.55-1.46.82-2.19.09-.25.02-.61-.11-.83s-.38-.43-.64-.49c-.27-.06-.58-.05-.83.11s-.39.37-.49.64h0Z" fill="#101727"/><path d="M136.61,326.88c-.04,2.81-.02,5.63.06,8.44.02.79.05,1.58.08,2.37.01.28.11.56.31.76.19.19.49.33.76.31.56-.03,1.1-.47,1.07-1.07-.11-2.81-.16-5.63-.16-8.44,0-.79,0-1.58.02-2.37,0-.56-.5-1.1-1.07-1.07s-1.06.47-1.07,1.07h0Z" fill="#101727"/><path d="M141.11,314.04c.81,2.83,1.57,5.69,2.27,8.55.2.8.39,1.61.57,2.41.13.55.78.92,1.32.75.57-.18.88-.73.75-1.32-.67-2.87-1.39-5.73-2.17-8.57-.22-.8-.44-1.59-.67-2.39-.07-.26-.26-.5-.49-.64s-.57-.19-.83-.11c-.55.18-.91.74-.75,1.32h0Z" fill="#101727"/><path d="M150.91,310.59c.45,1.31.9,2.62,1.35,3.93l.38,1.12c.03.14.1.26.19.36.08.12.18.21.3.28.12.08.26.12.4.13.14.03.28.03.43-.02.26-.08.51-.24.64-.49s.2-.55.11-.83c-.45-1.31-.9-2.62-1.35-3.93l-.38-1.12c-.03-.14-.1-.26-.19-.36-.08-.12-.18-.21-.3-.28-.12-.08-.26-.12-.4-.13-.14-.03-.28-.03-.43.02-.26.08-.51.24-.64.49s-.2.55-.11.83h0Z" fill="#101727"/><path d="M147.73,296.47c-.72,2.16-1.4,4.33-2.04,6.51-.18.62-.36,1.24-.53,1.86-.07.27-.03.59.11.83.13.22.38.43.64.49.27.06.58.05.83-.11s.42-.37.49-.64c.61-2.19,1.27-4.37,1.97-6.53.2-.61.4-1.22.6-1.84.09-.26.03-.6-.11-.83s-.38-.43-.64-.49c-.27-.06-.58-.05-.83.11s-.4.37-.49.64h0Z" fill="#101727"/><path d="M152.79,328.6c.34,2.31.87,4.59,1.6,6.8.21.63.43,1.25.66,1.86.1.27.24.49.49.64.23.13.57.19.83.11s.51-.24.64-.49.21-.56.11-.83c-.83-2.18-1.48-4.43-1.93-6.72-.13-.65-.24-1.3-.33-1.95-.04-.25-.29-.52-.49-.64-.23-.13-.57-.19-.83-.11s-.51.24-.64.49l-.11.26c-.05.19-.05.38,0,.57h0Z" fill="#101727"/><path d="M148.69,338.98c0,1.54,0,3.07,0,4.61v1.3c0,.27.12.56.31.76.1.1.21.18.34.22.13.07.27.1.41.09.28-.01.56-.1.76-.31s.31-.47.31-.76c0-1.54,0-3.07,0-4.61v-1.3c0-.27-.12-.56-.31-.76-.1-.1-.21-.18-.34-.22-.13-.07-.27-.1-.41-.09-.28.01-.56.1-.76.31s-.31.47-.31.76h0Z" fill="#101727"/><path d="M140.02,346.79c-.54,2.52-1.2,5.01-2.01,7.46-.23.69-.46,1.38-.71,2.06-.09.25-.02.6.11.83s.38.43.64.49c.27.06.58.05.83-.11s.39-.37.49-.64c.87-2.42,1.62-4.89,2.23-7.4.17-.71.33-1.41.48-2.12.06-.28.04-.57-.11-.83-.13-.22-.38-.43-.64-.49-.27-.06-.58-.05-.83.11-.23.15-.43.37-.49.64h0Z" fill="#101727"/><path d="M149.34,351.23c.27,1.99.53,3.98.8,5.97l.23,1.69c0,.15.03.29.09.41.04.13.12.25.22.34.19.19.49.33.76.31s.56-.1.76-.31c.18-.19.35-.48.31-.76-.27-1.99-.53-3.98-.8-5.97l-.23-1.69c0-.15-.03-.29-.09-.41-.04-.13-.12-.25-.22-.34-.19-.19-.49-.33-.76-.31s-.56.1-.76.31c-.18.19-.35.48-.31.76h0Z" fill="#101727"/><path d="M159,348.49c.36,2.72.6,5.45.72,8.19.03.78.06,1.56.07,2.34,0,.28.12.56.31.76.19.19.49.33.76.31.57-.03,1.08-.47,1.07-1.07-.05-2.74-.22-5.48-.52-8.2-.08-.78-.18-1.55-.28-2.33,0-.15-.03-.29-.09-.41-.04-.13-.12-.25-.22-.34-.19-.19-.49-.33-.76-.31s-.56.1-.76.31c-.18.19-.35.48-.31.76h0Z" fill="#101727"/><path d="M145,330.2c0,.05-.01.1-.02.15l.04-.28c-.19,1.41-.5,2.8-.93,4.16-.12.39-.25.77-.4,1.15-.04.14-.05.28-.02.43,0,.14.05.28.13.4.07.12.16.23.28.3.1.09.22.16.36.19.27.06.58.05.83-.11l.22-.17c.13-.13.22-.29.28-.47.51-1.38.9-2.81,1.16-4.26.09-.49.16-.99.22-1.49,0-.15-.03-.29-.09-.41-.04-.13-.12-.25-.22-.34-.1-.1-.21-.18-.34-.22-.13-.07-.27-.1-.41-.09-.28.01-.56.1-.76.31l-.17.22c-.1.17-.15.35-.15.54h0Z" fill="#101727"/><path d="M163.77,331.94c.51,2.78,1.06,5.54,1.66,8.3.17.79.35,1.57.53,2.36.13.55.78.92,1.32.75.57-.19.88-.73.75-1.32-.63-2.75-1.21-5.51-1.75-8.28-.15-.79-.3-1.58-.45-2.38-.05-.25-.28-.52-.49-.64-.23-.13-.57-.19-.83-.11s-.51.24-.64.49c-.14.27-.16.53-.11.83h0Z" fill="#101727"/><path d="M165.59,352.96c.07,2.47.03,4.95-.15,7.42-.05.7-.11,1.39-.18,2.09-.03.26.14.58.31.76.19.19.49.33.76.31s.56-.1.76-.31l.17-.22c.1-.17.15-.35.15-.54.24-2.46.37-4.94.36-7.41,0-.7-.01-1.4-.03-2.1,0-.28-.11-.56-.31-.76-.19-.19-.49-.33-.76-.31s-.56.1-.76.31-.32.47-.31.76h0Z" fill="#101727"/><path d="M160.71,371.1c.43-.89.81-1.8,1.16-2.72.08-.22.17-.45.25-.67.05-.14.05-.29.02-.43,0-.14-.05-.28-.13-.4-.07-.13-.16-.23-.28-.3-.1-.1-.23-.16-.37-.19l-.29-.04c-.19,0-.38.05-.55.15l-.22.17c-.13.13-.23.29-.28.48-.17.47-.35.95-.54,1.42-.06.14-.11.28-.17.41l.11-.26c-.19.44-.38.87-.59,1.3-.08.12-.12.26-.13.4-.03.14-.03.29.02.43.03.14.1.26.19.37.08.12.18.21.3.28l.26.11c.19.05.38.05.57,0l.26-.11c.16-.1.29-.23.39-.39h0Z" fill="#101727"/><path d="M161.43,363.68c-.23.53-.46,1.07-.67,1.61-.16.4-.31.8-.46,1.21-.08.22-.16.43-.24.65-.05.14-.05.29-.02.43,0,.14.05.28.13.4.07.13.16.23.28.3.1.1.23.16.37.19l.29.04c.19,0,.38-.05.55-.15l.22-.17c.13-.13.23-.29.28-.48.25-.67.5-1.34.76-2,.09-.21.17-.42.26-.64l-.11.26c.08-.19.16-.38.24-.57.08-.12.12-.26.13-.4.03-.14.03-.29-.02-.43-.03-.14-.1-.26-.19-.37-.08-.12-.18-.21-.3-.28l-.26-.11c-.19-.05-.38-.05-.57,0l-.26.11c-.16.1-.29.23-.39.39h0Z" fill="#101727"/><path d="M175.29,339.99c.23.95.42,1.92.55,2.89l-.04-.28c.18,1.37.3,2.74.59,4.09.11.51.24,1.02.38,1.53.07.26.26.5.49.64s.57.19.83.11.51-.24.64-.49.18-.54.11-.83c-.29-1.07-.53-2.16-.68-3.26l.04.28c-.17-1.27-.28-2.55-.53-3.82-.09-.48-.2-.96-.31-1.43-.06-.26-.27-.51-.49-.64s-.57-.19-.83-.11c-.57.18-.89.73-.75,1.32h0Z" fill="#101727"/><path d="M172.34,327.31c.03,1.69-.04,3.38-.21,5.06-.05.48-.11.96-.17,1.44l.04-.28c-.04.29-.08.57-.12.86-.04.14-.05.28-.02.43,0,.14.05.28.13.4.13.22.38.43.64.49.27.06.58.05.83-.11.22-.14.45-.37.49-.64.31-1.99.5-4,.54-6.02.01-.54.01-1.09,0-1.63,0-.28-.12-.56-.31-.76-.19-.19-.49-.33-.76-.31s-.56.1-.76.31-.32.47-.31.76h0Z" fill="#101727"/><path d="M172.38,352.53c.52,2.13,1.14,4.23,1.85,6.3.2.59.41,1.17.63,1.76.1.27.24.49.49.64.23.13.57.19.83.11s.51-.24.64-.49.21-.56.11-.83c-.77-2.05-1.44-4.14-2.02-6.25-.16-.6-.32-1.2-.47-1.81-.06-.26-.27-.51-.49-.64s-.57-.19-.83-.11-.51.24-.64.49-.18.54-.11.83h0Z" fill="#101727"/><path d="M172.38,367.38c.26,2.24.33,4.5.18,6.74-.04.64-.1,1.27-.17,1.9-.03.25.14.58.31.76.19.19.49.33.76.31s.56-.1.76-.31l.17-.22c.1-.17.15-.35.15-.54.26-2.24.32-4.5.17-6.74-.04-.64-.1-1.27-.18-1.9,0-.15-.03-.29-.09-.41-.04-.13-.12-.25-.22-.34-.19-.19-.49-.33-.76-.31s-.56.1-.76.31c-.18.2-.35.48-.31.76h0Z" fill="#101727"/><path d="M183.78,361.18c.51,2.07,1.02,4.14,1.52,6.21l.43,1.74c.06.26.27.51.49.64s.57.19.83.11.51-.24.64-.49.18-.54.11-.83c-.51-2.07-1.02-4.14-1.52-6.21l-.43-1.74c-.06-.26-.27-.51-.49-.64s-.57-.19-.83-.11-.51.24-.64.49-.18.54-.11.83h0Z" fill="#101727"/><path d="M187.17,342.88c.08,2.85.16,5.7.24,8.56l.07,2.4c0,.28.11.56.31.76.19.19.49.33.76.31.57-.03,1.09-.47,1.07-1.07-.08-2.85-.16-5.7-.24-8.56l-.07-2.4c0-.28-.11-.56-.31-.76-.19-.19-.49-.33-.76-.31-.57.03-1.09.47-1.07,1.07h0Z" fill="#101727"/><path d="M183.49,334.52c-.52,1.61-1.05,3.22-1.57,4.83l-.44,1.37c-.04.14-.05.28-.02.43,0,.14.05.28.13.4.13.22.38.43.64.49.27.06.58.05.83-.11s.4-.37.49-.64c.52-1.61,1.05-3.22,1.57-4.83l.44-1.37c.04-.14.05-.28.02-.43,0-.14-.05-.28-.13-.4-.13-.22-.38-.43-.64-.49-.27-.06-.58-.05-.83.11s-.4.37-.49.64h0Z" fill="#101727"/><path d="M193.08,315.38c-.3.68-.6,1.37-.92,2.04-.25.52-.5,1.03-.78,1.53-.16.29-.32.57-.48.86-.08.12-.12.26-.13.4-.03.14-.03.28.02.43.03.14.1.26.19.36.08.12.18.21.3.28.25.13.55.2.83.11s.5-.25.64-.49c.29-.5.56-1,.83-1.51.28-.55.55-1.12.8-1.68.19-.41.37-.83.55-1.24.08-.12.12-.26.13-.4.03-.14.03-.28-.02-.43-.03-.14-.1-.26-.19-.36-.08-.12-.18-.21-.3-.28-.25-.13-.55-.2-.83-.11l-.26.11c-.16.1-.29.22-.38.38h0Z" fill="#101727"/><path d="M197.65,316.76l-.17,2.26-.12,1.66-.11,1.47c0,.15.03.29.09.41.04.13.12.25.22.34.1.1.21.18.34.22.13.07.27.1.41.09.28-.01.56-.1.76-.31l.17-.22c.1-.17.15-.35.15-.54.06-.75.11-1.51.17-2.26l.12-1.66.11-1.47c0-.15-.03-.29-.09-.41-.04-.13-.12-.25-.22-.34-.1-.1-.21-.18-.34-.22-.13-.07-.27-.1-.41-.09-.28.01-.56.1-.76.31l-.17.22c-.1.17-.15.35-.15.54h0Z" fill="#101727"/><path d="M202.58,317.26c.08.8.16,1.6.28,2.4.1.63.24,1.26.42,1.88.12.41.26.82.41,1.22.03.14.1.26.19.36.08.12.18.21.3.28.12.08.26.12.4.13.14.03.28.03.43-.02.26-.08.51-.24.64-.49s.21-.56.11-.83c-.33-.89-.61-1.8-.77-2.73-.04-.24-.08-.49-.11-.73l.04.28c-.08-.58-.13-1.16-.19-1.75,0-.15-.03-.29-.09-.41-.04-.13-.12-.25-.22-.34-.1-.1-.21-.18-.34-.22-.13-.07-.27-.1-.41-.09-.28.01-.56.1-.76.31l-.17.22c-.1.17-.15.35-.15.54h0Z" fill="#101727"/><path d="M206.94,317.27c.32.68.63,1.38,1.02,2.03.33.55.75,1.04,1.19,1.5.32.34.65.68.98,1.02.1.1.21.18.34.22.13.07.27.1.41.09.15,0,.29-.03.41-.09.13-.04.25-.12.34-.22.19-.2.33-.47.31-.76l-.04-.28c-.05-.18-.14-.34-.28-.47-.46-.48-.94-.96-1.38-1.46-.09-.1-.17-.2-.25-.31l.17.22c-.41-.53-.72-1.14-1.01-1.75-.13-.27-.26-.54-.39-.81-.07-.12-.16-.23-.28-.3-.1-.09-.22-.16-.36-.19-.14-.04-.28-.05-.43-.02-.14,0-.28.05-.4.13l-.22.17c-.13.13-.22.29-.28.47l-.04.28c0,.19.05.37.15.54h0Z" fill="#101727"/><path d="M197.7,341.86c-.07.85-.15,1.69-.22,2.54-.05.62-.09,1.25-.1,1.87-.02.55-.02,1.1-.03,1.66,0,.27.12.57.31.76.1.1.21.18.34.22.13.07.27.1.41.09.28-.01.56-.1.76-.31s.31-.47.31-.76c0-.85.02-1.7.06-2.54.03-.62.09-1.25.15-1.87.05-.55.1-1.1.14-1.65,0-.15-.03-.29-.09-.41-.04-.13-.12-.25-.22-.34-.1-.1-.21-.18-.34-.22-.13-.07-.27-.1-.41-.09-.28.01-.56.1-.76.31l-.17.22c-.1.17-.15.35-.15.54h0Z" fill="#101727"/><path d="M194.39,360.75c.19,1.87.39,3.74.58,5.62l.17,1.59c0,.15.03.29.09.41.04.13.12.25.22.34.19.19.49.33.76.31s.56-.1.76-.31c.18-.2.34-.48.31-.76-.19-1.87-.39-3.74-.58-5.62l-.17-1.59c0-.15-.03-.29-.09-.41-.04-.13-.12-.25-.22-.34-.19-.19-.49-.33-.76-.31s-.56.1-.76.31c-.18.2-.34.48-.31.76h0Z" fill="#101727"/><path d="M201.48,354.7c.67,2.03,1.33,4.05,2,6.08l.56,1.72c.09.26.25.5.49.64.23.13.57.19.83.11s.51-.24.64-.49.2-.55.11-.83c-.67-2.03-1.33-4.05-2-6.08l-.56-1.72c-.09-.26-.25-.5-.49-.64-.23-.13-.57-.19-.83-.11s-.51.24-.64.49-.2.55-.11.83h0Z" fill="#101727"/><path d="M189.22,372.64c.04,1.76.08,3.53.11,5.29l.03,1.48c0,.28.12.56.31.76.19.19.49.33.76.31s.56-.1.76-.31.32-.47.31-.76c-.04-1.76-.08-3.53-.11-5.29l-.03-1.48c0-.28-.12-.56-.31-.76-.19-.19-.49-.33-.76-.31s-.56.1-.76.31-.32.47-.31.76h0Z" fill="#101727"/><path d="M201.32,371.09c1.09,2.07,2.12,4.16,3.09,6.29.27.59.54,1.19.8,1.79.1.23.41.43.64.49.26.07.6.04.83-.11s.43-.37.49-.64l.04-.28c0-.19-.05-.37-.15-.54-.94-2.14-1.93-4.25-2.99-6.34-.29-.58-.59-1.16-.9-1.74-.12-.23-.39-.42-.64-.49s-.6-.04-.83.11-.43.37-.49.64c-.07.29-.03.56.11.83h0Z" fill="#101727"/><path d="M211.86,371.31c.52.49,1.05.97,1.57,1.46s1.05.97,1.57,1.46c.3.27.59.55.89.82.1.1.21.18.34.22.13.07.27.1.41.09.15,0,.29-.03.41-.09.13-.04.25-.12.34-.22l.17-.22c.1-.17.15-.35.15-.54l-.04-.28c-.05-.18-.14-.34-.28-.47-.52-.49-1.05-.97-1.57-1.46s-1.05-.97-1.57-1.46c-.3-.27-.59-.55-.89-.82-.1-.1-.21-.18-.34-.22-.13-.07-.27-.1-.41-.09-.15,0-.29.03-.41.09-.13.04-.25.12-.34.22l-.17.22c-.1.17-.15.35-.15.54l.04.28c.05.18.14.34.28.47h0Z" fill="#101727"/><path d="M209.84,359.42c.92,1.24,1.8,2.51,2.63,3.81.23.36.46.73.69,1.09.14.23.37.42.64.49.14.04.28.05.43.02.14,0,.28-.05.4-.13.23-.15.43-.37.49-.64s.04-.58-.11-.83c-.81-1.31-1.66-2.6-2.56-3.86-.25-.35-.5-.7-.76-1.04-.07-.12-.16-.23-.28-.3-.1-.09-.22-.16-.36-.19-.14-.04-.28-.05-.43-.02-.14,0-.28.05-.4.13-.23.15-.43.37-.49.64l-.04.28c0,.19.05.37.15.54h0Z" fill="#101727"/><path d="M206.22,343.02c.23,1.27.43,2.55.61,3.83l-.04-.28c.23,1.69.4,3.39.53,5.09.03.48.07.97.09,1.45.02.28.11.55.31.76.19.19.49.33.76.31s.56-.1.76-.31.33-.47.31-.76c-.15-2.81-.45-5.61-.88-8.39-.12-.76-.24-1.51-.38-2.26-.05-.25-.28-.52-.49-.64-.23-.13-.57-.19-.83-.11s-.51.24-.64.49c-.14.27-.16.53-.11.83h0Z" fill="#101727"/><path d="M218.76,339.67c.49.9,1,1.79,1.51,2.69.38.68.75,1.37,1.08,2.07.29.6.56,1.2.84,1.8.07.12.16.23.28.3.1.09.22.16.36.19.14.04.28.05.43.02.14,0,.28-.05.4-.13.23-.15.43-.37.49-.64l.04-.28c0-.19-.05-.37-.15-.54-.42-.93-.85-1.87-1.32-2.78-.36-.69-.75-1.36-1.14-2.04-.33-.58-.65-1.16-.97-1.74-.13-.23-.39-.42-.64-.49-.14-.04-.28-.05-.43-.02-.14,0-.28.05-.4.13-.23.15-.43.37-.49.64s-.03.57.11.83h0Z" fill="#101727"/><path d="M227.57,333.07c.13,2.43.4,4.85.79,7.25.11.66.23,1.32.35,1.98.05.25.28.51.49.64.23.13.57.19.83.11s.51-.24.64-.49c.14-.27.17-.53.11-.83-.24-1.25-.45-2.5-.62-3.76l.04.28c-.23-1.72-.39-3.45-.49-5.19-.02-.28-.11-.55-.31-.76-.19-.19-.49-.33-.76-.31s-.56.1-.76.31-.33.47-.31.76h0Z" fill="#101727"/><path d="M214.87,348.35c.09.71.18,1.42.26,2.14.11.86.22,1.71.32,2.57.04.35.09.71.13,1.06,0,.15.03.29.09.41.04.13.12.25.22.34.1.1.21.18.34.22.13.07.27.1.41.09.28-.01.56-.1.76-.31l.17-.22c.1-.17.15-.35.15-.54-.09-.71-.18-1.42-.26-2.14-.11-.86-.22-1.71-.32-2.57-.04-.35-.09-.71-.13-1.06,0-.15-.03-.29-.09-.41-.04-.13-.12-.25-.22-.34-.1-.1-.21-.18-.34-.22-.13-.07-.27-.1-.41-.09-.28.01-.56.1-.76.31l-.17.22c-.1.17-.15.35-.15.54h0Z" fill="#101727"/><path d="M219.77,355.8c.11.92.35,1.81.57,2.71.25,1.03.52,2.05.76,3.08.09.4.19.8.24,1.2l-.04-.28s0,.03,0,.05c0,.15.03.29.09.41.04.13.12.25.22.34.19.19.49.33.76.31s.56-.1.76-.31l.17-.22c.1-.17.15-.35.15-.54-.11-.92-.35-1.81-.57-2.71-.25-1.03-.52-2.05-.76-3.08-.09-.4-.19-.8-.24-1.2l.04.28s0-.03,0-.05c0-.15-.03-.29-.09-.41-.04-.13-.12-.25-.22-.34-.19-.19-.49-.33-.76-.31s-.56.1-.76.31l-.17.22c-.1.17-.15.35-.15.54h0Z" fill="#101727"/><path d="M223.86,353.8c1.7,2.96,3.33,5.95,4.9,8.97.44.85.87,1.7,1.3,2.55.12.23.4.43.64.49.26.07.6.04.83-.11.51-.33.65-.93.38-1.47-1.53-3.04-3.13-6.06-4.79-9.03-.47-.83-.94-1.67-1.41-2.49-.28-.49-.98-.7-1.47-.38s-.68.95-.38,1.47h0Z" fill="#101727"/><path d="M232.36,350.65c.74,2.09,1.6,4.15,2.56,6.15.26.55.54,1.09.82,1.62.12.23.39.42.64.49s.6.04.83-.11.43-.37.49-.64c.07-.29.03-.56-.11-.83-.58-1.1-1.12-2.22-1.62-3.36-.14-.32-.28-.64-.42-.97l.11.26c-.44-1.05-.86-2.12-1.24-3.19-.09-.27-.24-.49-.49-.64-.23-.13-.57-.19-.83-.11s-.51.24-.64.49-.2.56-.11.83h0Z" fill="#101727"/><path d="M235.45,334.23c.15,2.66.37,5.32.67,7.96.09.75.18,1.51.27,2.26,0,.15.03.29.09.41.04.13.12.25.22.34.19.19.49.33.76.31s.56-.1.76-.31c.18-.19.35-.48.31-.76-.34-2.64-.61-5.3-.8-7.95-.05-.76-.1-1.51-.15-2.27-.02-.28-.11-.55-.31-.76-.19-.19-.49-.33-.76-.31s-.56.1-.76.31-.33.47-.31.76h0Z" fill="#101727"/><path d="M239.72,326.67c.46,1.96.98,3.9,1.56,5.82.17.55.34,1.09.51,1.64.08.26.25.5.49.64.23.13.57.19.83.11s.51-.24.64-.49.2-.55.11-.83c-.61-1.91-1.17-3.84-1.66-5.79-.14-.55-.28-1.11-.41-1.67-.06-.26-.27-.51-.49-.64s-.57-.19-.83-.11-.51.24-.64.49c-.14.26-.18.54-.11.83h0Z" fill="#101727"/><path d="M244.41,318.81c.18,1.69.37,3.37.55,5.06l.16,1.43c0,.15.03.29.09.41.04.13.12.25.22.34.19.19.49.33.76.31s.56-.1.76-.31c.18-.2.34-.48.31-.76-.18-1.69-.37-3.37-.55-5.06l-.16-1.43c0-.15-.03-.29-.09-.41-.04-.13-.12-.25-.22-.34-.19-.19-.49-.33-.76-.31s-.56.1-.76.31c-.18.2-.34.48-.31.76h0Z" fill="#101727"/><path d="M248.06,306.7c-.3,1.3-.55,2.61-.75,3.94-.07.46-.13.92-.19,1.39,0,.15.03.29.09.41.04.13.12.25.22.34.1.1.21.18.34.22.13.07.27.1.41.09.28-.01.56-.1.76-.31l.17-.22c.1-.17.15-.35.15-.54.02-.17.04-.34.07-.52l-.04.28c.16-1.19.36-2.36.61-3.53.07-.33.14-.66.22-.99.06-.28.04-.58-.11-.83-.07-.12-.16-.23-.28-.3-.1-.09-.22-.16-.36-.19-.27-.06-.58-.05-.83.11-.23.15-.43.37-.49.64h0Z" fill="#101727"/><path d="M254.54,300.64c.42,2.53.92,5.04,1.5,7.54.17.71.34,1.42.51,2.12.07.26.26.51.49.64s.57.19.83.11c.56-.18.9-.74.75-1.32-.63-2.48-1.17-4.99-1.64-7.51-.13-.72-.26-1.43-.38-2.15-.04-.25-.28-.52-.49-.64-.23-.13-.57-.19-.83-.11s-.51.24-.64.49l-.11.26c-.05.19-.05.38,0,.57h0Z" fill="#101727"/><path d="M251.66,315.92c.2,2.37.41,4.73.61,7.1l.17,1.99c.02.29.1.55.31.76.19.19.49.33.76.31s.56-.1.76-.31c.18-.2.34-.48.31-.76-.2-2.37-.41-4.73-.61-7.1l-.17-1.99c-.02-.29-.1-.55-.31-.76-.19-.19-.49-.33-.76-.31s-.56.1-.76.31c-.18.2-.34.48-.31.76h0Z" fill="#101727"/><path d="M253.34,339.03c-.05-.12-.1-.23-.15-.35l.11.26c-.25-.59-.49-1.18-.73-1.77-.07-.17-.13-.34-.2-.51-.03-.14-.1-.26-.19-.37-.08-.12-.18-.21-.3-.28-.12-.08-.26-.12-.4-.13-.14-.03-.29-.03-.43.02l-.26.11c-.16.1-.29.23-.39.39l-.11.26c-.05.19-.05.38,0,.57.27.69.55,1.37.83,2.05.12.28.23.55.35.82.07.13.16.23.28.3.1.1.23.16.37.19.14.05.29.05.43.02.14,0,.28-.05.4-.13l.22-.17c.13-.13.23-.29.28-.48l.04-.29c0-.19-.05-.38-.15-.55h0Z" fill="#101727"/><path d="M252.38,336.65c-.81-2.06-1.53-4.15-2.17-6.26-.18-.6-.35-1.2-.52-1.8-.07-.26-.26-.51-.5-.65s-.57-.19-.83-.11-.51.25-.65.5-.19.55-.11.83c.59,2.13,1.26,4.23,2.02,6.31.21.59.44,1.17.67,1.75.03.14.1.26.19.37.08.12.18.21.3.28.23.14.57.19.83.11s.51-.25.65-.5.21-.57.11-.83h0Z" fill="#101727"/><path d="M243.49,342.88c.5,1.19,1,2.38,1.5,3.58l.43,1.02c.03.14.1.26.19.36.08.12.18.21.3.28.12.08.26.12.4.13.14.03.28.03.43-.02.26-.08.51-.24.64-.49l.11-.26c.05-.19.05-.38,0-.57-.5-1.19-1-2.38-1.5-3.58l-.43-1.02c-.03-.14-.1-.26-.19-.36-.08-.12-.18-.21-.3-.28-.12-.08-.26-.12-.4-.13-.14-.03-.28-.03-.43.02-.26.08-.51.24-.64.49l-.11.26c-.05.19-.05.38,0,.57h0Z" fill="#101727"/><path d="M256.67,317.39c.59.88,1.19,1.75,1.82,2.61.68.92,1.37,1.83,2.09,2.73.38.47.76.93,1.14,1.38.1.1.21.18.34.22.13.07.27.1.41.09.26,0,.58-.12.76-.31s.33-.47.31-.76l-.04-.28c-.05-.18-.14-.34-.28-.47-.68-.8-1.33-1.61-1.97-2.43l.17.22c-.79-1.03-1.56-2.08-2.3-3.15-.21-.3-.41-.61-.62-.92-.15-.23-.37-.42-.64-.49-.14-.04-.28-.05-.43-.02-.14,0-.28.05-.4.13-.23.15-.43.37-.49.64s-.05.59.11.83h0Z" fill="#101727"/><path d="M263.19,308.07c.57,1.83,1.15,3.67,1.72,5.5l.48,1.54c.08.26.25.5.49.64s.57.19.83.11.51-.24.64-.49.19-.55.11-.83c-.57-1.83-1.15-3.67-1.72-5.5l-.48-1.54c-.08-.26-.25-.5-.49-.64s-.57-.19-.83-.11-.51.24-.64.49-.19.55-.11.83h0Z" fill="#101727"/><path d="M260.13,296.75c.04,1.84.12,3.68.25,5.52.04.52.07,1.03.12,1.55,0,.15.03.29.09.41.04.13.12.25.22.34.19.19.49.33.76.31s.56-.1.76-.31c.18-.2.34-.48.31-.76-.15-1.84-.26-3.68-.32-5.52-.02-.52-.03-1.03-.04-1.55,0-.28-.12-.56-.31-.76-.19-.19-.49-.33-.76-.31s-.56.1-.76.31-.32.47-.31.76h0Z" fill="#101727"/><path d="M265.5,284.07c.44,1.68.88,3.37,1.31,5.05l.38,1.44c.07.26.26.51.49.64s.57.19.83.11.51-.24.64-.49.18-.54.11-.83c-.44-1.68-.88-3.37-1.31-5.05l-.38-1.44c-.07-.26-.26-.51-.49-.64s-.57-.19-.83-.11-.51.24-.64.49-.18.54-.11.83h0Z" fill="#101727"/><path d="M271.25,278.38c.07.83.11,1.66.14,2.49.02.7.04,1.41.08,2.11.03.51.06,1.02.1,1.53,0,.15.03.29.09.41.04.13.12.25.22.34.1.1.21.18.34.22.13.07.27.1.41.09.28-.01.56-.1.76-.31s.34-.48.31-.76c-.07-.83-.11-1.66-.14-2.49-.02-.7-.04-1.41-.08-2.11-.03-.51-.06-1.02-.1-1.53,0-.15-.03-.29-.09-.41-.04-.13-.12-.25-.22-.34-.1-.1-.21-.18-.34-.22-.13-.07-.27-.1-.41-.09-.28.01-.56.1-.76.31s-.34.48-.31.76h0Z" fill="#101727"/><path d="M275.93,267.79c.06.71.12,1.42.15,2.14.02.49.02.98.03,1.47s.01.95.02,1.43c0,.28.12.56.31.76.1.1.21.18.34.22.13.07.27.1.41.09.28-.01.56-.1.76-.31s.32-.47.31-.76c-.01-.71-.02-1.43-.03-2.14,0-.49-.03-.98-.06-1.47s-.07-.95-.11-1.42c0-.15-.03-.29-.09-.41-.04-.13-.12-.25-.22-.34-.1-.1-.21-.18-.34-.22-.13-.07-.27-.1-.41-.09-.28.01-.56.1-.76.31-.18.2-.34.48-.31.76h0Z" fill="#101727"/><path d="M98.06,221.83c.25.67.49,1.34.71,2.02.15.47.28.94.42,1.41s.26.91.4,1.37c.08.26.26.5.49.64.12.08.26.12.4.13.14.03.28.03.43-.02.26-.08.51-.24.64-.49s.19-.55.11-.83c-.2-.68-.4-1.37-.6-2.06-.14-.47-.29-.94-.45-1.4s-.32-.89-.48-1.34c-.03-.14-.1-.26-.19-.36-.08-.12-.18-.21-.3-.28-.12-.08-.26-.12-.4-.13-.14-.03-.28-.03-.43.02-.26.08-.51.24-.64.49l-.11.26c-.05.19-.05.38,0,.57h0Z" fill="#101727"/><path d="M261.56,274.12c-.05.95-.13,1.91-.26,2.85l.04-.28c-.13,1-.31,1.99-.59,2.96-.06.22-.13.44-.21.65-.04.14-.05.28-.02.43,0,.14.05.28.13.4.13.22.38.43.64.49.27.06.58.05.83-.11l.22-.17c.13-.13.22-.29.28-.47.24-.67.42-1.37.55-2.07.19-.97.32-1.95.42-2.93.06-.58.1-1.16.13-1.75.01-.27-.13-.57-.31-.76s-.49-.33-.76-.31-.56.1-.76.31l-.17.22c-.1.17-.15.35-.15.54h0Z" fill="#101727"/><path d="M267.91,296.86c.76,1.69,1.57,3.36,2.44,4.99.24.45.48.9.73,1.35.13.23.39.42.64.49.14.04.28.05.43.02.14,0,.28-.05.4-.13.23-.15.43-.37.49-.64s.04-.57-.11-.83c-.89-1.61-1.72-3.24-2.51-4.9-.23-.48-.45-.96-.66-1.44-.07-.12-.16-.23-.28-.3-.1-.09-.22-.16-.36-.19-.14-.04-.28-.05-.43-.02-.14,0-.28.05-.4.13-.23.15-.43.37-.49.64l-.04.28c0,.19.05.37.15.54h0Z" fill="#101727"/><path d="M164.97,260.81c-1.03,1.69-2.06,3.39-3.1,5.08-.29.48-.59.96-.88,1.44-.14.23-.18.56-.11.83.07.25.26.52.49.64.25.13.55.2.83.11s.49-.25.64-.49c1.03-1.69,2.06-3.39,3.1-5.08.29-.48.59-.96.88-1.44.14-.23.18-.56.11-.83-.07-.25-.26-.52-.49-.64-.25-.13-.55-.2-.83-.11s-.49.25-.64.49h0Z" fill="#101727"/><path d="M175.42,261.36c-.79,2.03-1.58,4.06-2.37,6.09l-.66,1.7c-.09.24-.02.61.11.83s.38.43.64.49c.27.06.58.05.83-.11l.22-.17c.13-.13.22-.29.28-.47.79-2.03,1.58-4.06,2.37-6.09l.66-1.7c.09-.24.02-.61-.11-.83s-.38-.43-.64-.49c-.27-.06-.58-.05-.83.11l-.22.17c-.13.13-.22.29-.28.47h0Z" fill="#101727"/><path d="M185.43,263.68c-.8,1.77-1.6,3.55-2.41,5.32-.23.5-.45,1-.68,1.51-.08.12-.12.26-.13.4-.03.14-.03.28.02.43.07.25.26.52.49.64.25.13.55.2.83.11.25-.08.53-.24.64-.49.8-1.77,1.6-3.55,2.41-5.32.23-.5.45-1,.68-1.51.08-.12.12-.26.13-.4.03-.14.03-.28-.02-.43-.07-.25-.26-.52-.49-.64-.25-.13-.55-.2-.83-.11-.25.08-.53.24-.64.49h0Z" fill="#101727"/><path d="M196.63,264.88c-.16.4-.32.8-.49,1.19l.11-.26c-.38.89-.77,1.78-1.16,2.67s-.78,1.78-1.16,2.67c-.21.49-.41.98-.61,1.47-.1.24-.02.61.11.83s.38.43.64.49c.27.06.58.05.83-.11l.22-.17c.13-.13.22-.29.28-.47.16-.4.32-.8.49-1.19l-.11.26c.38-.89.77-1.78,1.16-2.67s.78-1.78,1.16-2.67c.21-.49.41-.98.61-1.47.1-.24.02-.61-.11-.83s-.38-.43-.64-.49c-.27-.06-.58-.05-.83.11l-.22.17c-.13.13-.22.29-.28.47h0Z" fill="#101727"/><path d="M206.76,265.55c.51,1.96,1.02,3.93,1.54,5.89l.44,1.68c.07.26.26.51.49.64s.57.19.83.11.51-.24.64-.49.18-.54.11-.83c-.51-1.96-1.02-3.93-1.54-5.89l-.44-1.68c-.07-.26-.26-.51-.49-.64s-.57-.19-.83-.11-.51.24-.64.49-.18.54-.11.83h0Z" fill="#101727"/><path d="M217.48,264.1c.61,2.11,1.22,4.21,1.83,6.32.17.59.34,1.19.52,1.78.08.26.26.5.49.64s.57.19.83.11.51-.24.64-.49.19-.54.11-.83c-.61-2.11-1.22-4.21-1.83-6.32-.17-.59-.34-1.19-.52-1.78-.08-.26-.26-.5-.49-.64s-.57-.19-.83-.11-.51.24-.64.49-.19.54-.11.83h0Z" fill="#101727"/><path d="M228.28,263.6c.44,1.89.94,3.78,1.47,5.65.15.53.31,1.06.47,1.58.08.26.25.5.49.64s.57.19.83.11.51-.24.64-.49.19-.55.11-.83c-.56-1.86-1.08-3.74-1.55-5.63-.13-.53-.26-1.07-.39-1.6-.06-.26-.27-.51-.49-.64s-.57-.19-.83-.11-.51.24-.64.49c-.14.26-.18.54-.11.83h0Z" fill="#101727"/><path d="M239.21,263.42c.27,1.46.53,2.92.8,4.38l.23,1.24c.03.14.1.26.19.36.08.12.18.21.3.28.12.08.26.12.4.13.14.03.28.03.43-.02.26-.08.51-.24.64-.49l.11-.26c.05-.19.05-.38,0-.57-.27-1.46-.53-2.92-.8-4.38l-.23-1.24c-.03-.14-.1-.26-.19-.36-.08-.12-.18-.21-.3-.28-.12-.08-.26-.12-.4-.13-.14-.03-.28-.03-.43.02-.26.08-.51.24-.64.49l-.11.26c-.05.19-.05.38,0,.57h0Z" fill="#101727"/><path d="M249.03,265.76c0,1.95,0,3.9,0,5.85v1.64c0,.27.12.56.31.76s.49.33.76.31.56-.1.76-.31.31-.47.31-.76c0-1.95,0-3.9,0-5.85v-1.64c0-.27-.12-.56-.31-.76s-.49-.33-.76-.31-.56.1-.76.31-.31.47-.31.76h0Z" fill="#101727"/><path d="M148.63,279.03l-1.22,6.63-.35,1.88c-.05.29-.04.57.11.83.13.22.38.43.64.49.27.06.58.05.83-.11.22-.14.44-.37.49-.64l1.22-6.63.35-1.88c.05-.29.04-.57-.11-.83-.13-.22-.38-.43-.64-.49-.27-.06-.58-.05-.83.11-.22.14-.44.37-.49.64h0Z" fill="#101727"/><path d="M252.47,290.24c.2,1.13.39,2.26.59,3.39l.17.97c.03.14.1.26.19.36.08.12.18.21.3.28.12.08.26.12.4.13.14.03.28.03.43-.02l.26-.11c.16-.1.29-.22.38-.38l.11-.26c.05-.19.05-.38,0-.57-.2-1.13-.39-2.26-.59-3.39l-.17-.97c-.03-.14-.1-.26-.19-.36-.08-.12-.18-.21-.3-.28-.12-.08-.26-.12-.4-.13-.14-.03-.28-.03-.43.02l-.26.11c-.16.1-.29.22-.38.38l-.11.26c-.05.19-.05.38,0,.57h0Z" fill="#101727"/><path d="M155.84,263.31c-12.93,5.77-12.28,18.31-12.1,18.88" fill="none" stroke="#101727" stroke-miterlimit="10" stroke-width="2"/><path d="M252.71,261.27c4.07,4.64,5.71,17.76,2.52,22.93" fill="none" stroke="#101727" stroke-miterlimit="10" stroke-width="2"/><path d="M184.67,310.01c7.01,3.17,22.53,3.6,31.56.29" fill="none" stroke="#101727" stroke-miterlimit="10" stroke-width="2"/><path d="M101.67,284.49c-.25,1.2-.45,2.41-.61,3.63-.04.32-.08.64-.11.97,0,.15.03.29.09.42.04.13.12.25.22.35.1.11.21.18.35.22.13.07.27.1.42.09l.29-.04c.18-.05.34-.14.48-.28l.17-.22c.1-.17.15-.35.15-.55.04-.41.09-.81.14-1.22l-.04.29c.11-.81.24-1.61.4-2.41.04-.23.09-.45.14-.68.05-.14.05-.29.02-.43,0-.14-.05-.28-.13-.4-.07-.13-.16-.23-.28-.3-.1-.1-.23-.16-.37-.19l-.29-.04c-.19,0-.38.05-.55.15l-.22.17c-.13.13-.23.29-.28.48h0Z" fill="#101727"/><path d="M102.71,280.48c-.32,1.02-.6,2.06-.84,3.1-.07.3-.13.59-.2.89-.05.14-.05.29-.02.43,0,.14.05.28.13.4.07.13.16.23.28.3.1.1.23.16.37.19l.29.04c.19,0,.38-.05.55-.15l.22-.17c.13-.13.23-.29.28-.48.22-1.05.48-2.09.78-3.12.08-.29.17-.58.26-.87.05-.14.05-.29.02-.43,0-.14-.05-.28-.13-.4-.07-.13-.16-.23-.28-.3-.1-.1-.23-.16-.37-.19l-.29-.04c-.19,0-.38.05-.55.15l-.22.17c-.13.13-.23.29-.28.48h0Z" fill="#101727"/><path d="M111.92,276.13l2.29,4.35.65,1.24c.07.12.16.23.28.3.1.09.22.16.36.19.14.04.28.05.43.02.14,0,.28-.05.4-.13.23-.15.43-.37.49-.64l.04-.28c0-.19-.05-.37-.15-.54l-2.29-4.35-.65-1.24c-.07-.12-.16-.23-.28-.3-.1-.09-.22-.16-.36-.19-.14-.04-.28-.05-.43-.02-.14,0-.28.05-.4.13-.23.15-.43.37-.49.64l-.04.28c0,.19.05.37.15.54h0Z" fill="#101727"/><path d="M124.79,294.41c.07.15.13.3.19.46l-.11-.26c.8,1.9,1.52,3.84,2.15,5.8.18.56.35,1.12.52,1.68.08.26.26.5.49.64s.57.19.83.11.51-.24.64-.49.19-.54.11-.83c-.62-2.11-1.34-4.2-2.16-6.24-.26-.65-.53-1.3-.81-1.95-.1-.23-.41-.43-.64-.49-.26-.07-.6-.04-.83.11s-.43.37-.49.64l-.04.28c0,.19.05.37.15.54h0Z" fill="#101727"/><path d="M124.95,177.2c12.02-7.89,32.41-15.06,48.55-11.05" fill="none" stroke="#101727" stroke-miterlimit="10" stroke-width="2"/><path d="M272.64,171.64c-12.02-7.89-23.24-9.51-39.38-5.5" fill="none" stroke="#101727" stroke-miterlimit="10" stroke-width="2"/><path d="M189.39,231.92c-5.19.96-8.46,5.96-7.11,10.76" fill="none" stroke="#101727" stroke-miterlimit="10" stroke-width="2"/><path d="M186.36,246.93c7.55.96,16.09,10.55,23.21,10.55s9.8-7.3,14.8-7.88,10.76-6.53,8.07-11.53-12.46-17.13-13.81-30.39-7.33-19.39-7.33-19.39" fill="none" stroke="#101727" stroke-miterlimit="10" stroke-width="2"/><path d="M286.08,176.5c-.29,7.01-8.11,23.05-8.11,23.05l-.34-24.16,8.45,1.11Z" fill="#222b38" stroke="#101727" stroke-linejoin="round" stroke-width="2"/></svg>