<svg width="380" height="480" viewBox="0 0 380 480" fill="none" xmlns="http://www.w3.org/2000/svg">
<g clip-path="url(#clip0_366_336)">
<path d="M374.939 1.06152H5.0625C2.85336 1.06152 1.0625 2.85237 1.0625 5.06151V474.938C1.0625 477.147 2.85337 478.938 5.06251 478.938H374.939C377.148 478.938 378.939 477.147 378.939 474.938V5.06152C378.939 2.85238 377.148 1.06152 374.939 1.06152Z" fill="#01654D" stroke="#101727" stroke-width="2" stroke-miterlimit="10"/>
<path d="M306.808 289.091C305.629 294.856 308.411 299.092 305.682 298.944C302.953 298.795 301.17 304.22 297.729 304.592C297.591 294.155 297.729 289.601 297.729 289.601L306.808 289.091Z" fill="#101727" stroke="#101727" stroke-width="2" stroke-miterlimit="10"/>
<path d="M85.8479 290.355C84.5206 296.077 83.6393 304.167 85.8479 305.792C88.0564 307.416 90.2969 303.626 95.3511 310.962C100.405 318.298 93.2699 302.543 93.2699 302.543L93.0894 293.253L92.6435 289.24L85.8373 290.355H85.8479Z" fill="#101727" stroke="#101727" stroke-width="2" stroke-miterlimit="10"/>
<path d="M92.4614 245.829C90.4758 253.186 87.1629 252.082 82.7564 246.71C79.2525 253.207 73.8054 245.871 73.8054 245.871C64.6632 231.199 57.3792 215.263 58.6852 196.854C59.9913 178.445 65.5764 113.598 91.442 94.4566C117.308 75.3041 164.887 43.2206 193.62 44.4628C222.352 45.7049 303.475 65.2395 312.882 96.8241C322.29 128.409 316.79 154.08 317.31 162.032C317.83 169.983 327.493 212.503 319.614 232.654C315.399 243.44 310.982 239.416 309.654 235C306.766 247.166 300.279 245.627 299.259 241.051" fill="#101727"/>
<path d="M92.4624 248.844L88.2046 251.052L85.4014 249.502L82.7575 246.72L79.2854 249.396L75.6434 248.557L73.3711 243.567L76.7689 272.625L79.1049 281.681L82.9592 288.104L85.8473 290.355L92.9084 290.514V305.632L97.1981 316.249L101.371 324.179L111.171 335.996L116.236 341.601V399.43L118.785 410.525L123.414 418.922L133.002 428.753L144.565 439.147L153.835 445.4L164.74 452.874L181.569 458.862L186.05 458.83L194.884 478.938L206.586 478.811L208.083 469.723L213.87 456.75L231.156 449.891L245.501 438.319L263.966 421.98L270.581 411.501L272.874 402.881L274.488 389.196L274.966 341.198L287.75 327.97L293.654 318.16L297.413 309.051L298.804 289.559L306.236 290.355L312.342 284.112L315.474 269.599L317.279 250.755L320.029 227.504L317.438 236.985L313.924 239.554L310.834 238.259L309.655 234.065L308.413 240L306.194 242.718L303.189 244.947L298.772 242.813L299.653 206.94L299.26 191.1L297.232 183.01L294.503 170.28L289.003 157.912L282.632 145.905L275.412 135.734L262.479 120.287L254.24 112.919L244.248 105.965L235.499 102.822L227.185 104.001L209.229 103.353L178.968 104.893L169.327 102.897L161.48 112.144L152.943 122.612L139.617 136.987L121.429 151.086L108.029 156.925L99.3854 160.566L93.3225 201.27L93.2057 205.793L92.4624 212.46V248.844Z" fill="#E9E1CE"/>
<path d="M299.261 192.002V292.892C299.261 308.382 293.06 323.224 282.049 334.106L234.862 380.745C213.254 402.105 178.469 402.105 156.862 380.745L109.675 334.106C98.6639 323.213 92.4629 308.371 92.4629 292.892V207.046" stroke="#101727" stroke-width="2" stroke-miterlimit="10"/>
<path d="M194.279 203.213C192.952 221.251 203.825 241.699 212.351 252.23C219.614 261.202 222.831 284.526 191.094 277.668" stroke="#101727" stroke-width="2" stroke-miterlimit="10"/>
<path d="M239.002 306.821C238.673 315.58 212.096 323.924 196.35 323.341C180.603 322.757 157.041 314.688 157.371 305.94C157.7 297.192 180.603 307.479 196.35 308.063C212.096 308.647 239.321 298.062 239.002 306.821Z" stroke="#101727" stroke-width="2" stroke-miterlimit="10"/>
<path d="M116.449 205.082C122.289 199.933 127.078 189.22 162.776 193.796" stroke="#101727" stroke-width="2" stroke-miterlimit="10"/>
<path d="M228.066 194.901C269.519 190.208 271.409 200.4 278.152 206.685" stroke="#101727" stroke-width="2" stroke-miterlimit="10"/>
<path d="M139.639 295.95C136.697 298.986 136.305 304.677 138.269 307.522" stroke="#101727" stroke-width="2" stroke-miterlimit="10"/>
<path d="M257.244 307.564C260.345 303.615 259.538 298.604 256.734 295.918" stroke="#101727" stroke-width="2" stroke-miterlimit="10"/>
<path d="M115.525 355.562L1.0625 379.822" stroke="#101727" stroke-width="2" stroke-miterlimit="10"/>
<path d="M274.148 358.715L378.938 387.805" stroke="#101727" stroke-width="2" stroke-miterlimit="10"/>
<path d="M238.695 225.328C244.565 225.328 249.324 220.57 249.324 214.701C249.324 208.831 244.565 204.073 238.695 204.073C232.825 204.073 228.066 208.831 228.066 214.701C228.066 220.57 232.825 225.328 238.695 225.328Z" stroke="#101727" stroke-width="2" stroke-miterlimit="10"/>
<path d="M152.148 224.468C158.018 224.468 162.777 219.71 162.777 213.841C162.777 207.971 158.018 203.213 152.148 203.213C146.278 203.213 141.52 207.971 141.52 213.841C141.52 219.71 146.278 224.468 152.148 224.468Z" stroke="#101727" stroke-width="2" stroke-miterlimit="10"/>
<path d="M213.871 456.75C223.045 454.127 231.784 449.552 239.461 443.044L259.327 426.184C268.735 418.201 274.15 406.491 274.15 394.154V341.931" stroke="#101727" stroke-width="2" stroke-miterlimit="10"/>
<path d="M115.633 339.372V394.143C115.633 406.48 121.059 418.19 130.456 426.174L150.322 443.033C160.76 451.898 173.193 457.164 185.988 458.82" stroke="#101727" stroke-width="2" stroke-miterlimit="10"/>
<path d="M299.262 207.046C307.894 201.748 323.354 204.912 319.436 234.14C315.507 263.367 316.728 294.591 299.655 289.367" stroke="#101727" stroke-width="2" stroke-miterlimit="10"/>
<path d="M92.4629 207.046C83.8304 201.748 68.3704 204.912 72.2885 234.14C76.2066 263.367 74.9961 294.591 92.07 289.367" stroke="#101727" stroke-width="2" stroke-miterlimit="10"/>
<path d="M92.4629 207.046L99.3859 160.577C133.523 146.159 136.953 142.337 169.327 102.907C184.777 106.443 228.873 103.438 236.816 103.151C244.758 102.865 290.618 134.343 299.25 192.013" stroke="#101727" stroke-width="2" stroke-miterlimit="10"/>
<path d="M92.4614 245.829C90.4758 253.186 87.1629 252.082 82.7564 246.71C79.2525 253.207 73.8054 245.871 73.8054 245.871C64.6632 231.199 57.3792 215.263 58.6852 196.854C59.9913 178.445 65.5764 113.598 91.442 94.4566C117.308 75.3041 164.887 43.2206 193.62 44.4628C222.352 45.7049 303.475 65.2395 312.882 96.8241C322.29 128.409 316.79 154.08 317.31 162.032C317.83 169.983 327.493 212.503 319.614 232.654C315.399 243.44 310.982 239.416 309.654 235C306.766 247.166 300.278 245.627 299.259 241.051" stroke="#101727" stroke-width="2" stroke-miterlimit="10"/>
<path d="M274.149 358.716C329.236 379.822 305.355 440.4 297.594 466.591C243.548 452.832 225.423 456.612 213.87 456.739C208.412 465.137 206.586 478.811 206.586 478.811L200.183 478.875L194.896 478.928L186.061 458.831C174.222 457.312 140.595 448.352 109.845 471.74C59.6637 411.863 86.4531 358.705 115.536 355.562" stroke="#101727" stroke-width="2" stroke-miterlimit="10"/>
</g>
<defs>
<clipPath id="clip0_366_336">
<rect width="380" height="480" fill="white"/>
</clipPath>
</defs>
</svg>
