<?xml version="1.0" encoding="UTF-8"?><svg id="Layer_2" xmlns="http://www.w3.org/2000/svg" viewBox="0 0 360 460"><rect x="2.06" y="4.94" width="355.88" height="450.12" rx="4" ry="4" fill="#01654d"/><polygon points="129.75 354.13 118.4 455.06 31.09 455.06 46.11 392.07 58.51 387.64 69.96 383.7 79.6 378.89 106.21 369.85 113.42 365.2 121.03 361.07 129.75 354.13" fill="#01654d"/><polygon points="358.32 307.98 356.16 300.38 343.62 283.05 334.44 274.06 322.96 265.1 313.73 258.76 306.89 253.46 298.5 225.47 294.51 211.17 292.43 200.88 289.42 177.9 286.11 157.44 285.74 148.86 282.96 132.41 279.89 120.54 276.86 111.62 271.91 101.22 264.82 88.1 258.36 78.74 249.14 70.74 241.93 63.46 229.69 56.23 211.83 48.55 201.57 46.02 183.56 42.52 169.86 42 156.31 43.05 144.6 45.27 131.09 48.76 122.07 53.33 108.39 60.51 94.4 72.82 83.82 84.5 76.68 98.41 71.81 114.23 68.59 127.32 65.3 140.72 62.81 163.99 60.37 180.16 53.84 211.2 52.41 220.64 47.98 248.9 43.46 273.41 39.06 293.56 36.76 306.18 36.33 319.44 36.88 330.95 39.35 347.62 44.69 361.02 50.6 369.24 57.76 378.71 67.26 383.83 73.94 382.64 87.78 377.98 95.74 374.33 105.89 370.29 116.01 364.82 121.03 361.07 126.81 357.16 129.69 354.65 129.1 350.88 134.14 353.36 145.07 358.84 154.06 361.79 165.12 363.66 173.29 363.69 181.54 362.78 189.98 360.95 207.29 354.13 214.54 348.84 226.22 341.22 233.85 335.99 232.51 338.78 230.06 341.61 227.37 347.91 221.84 359.15 216.46 369.91 209.35 388.12 204.02 409.16 203.35 421.75 205.85 435.44 210.29 445.11 217.28 455.06 264.17 454.73 330.72 455.06 345.89 455.72 345.71 453.19 343.54 451.37 341.23 447.26 339.35 444.96 336.87 439.2 334.47 430.11 332.92 422.97 333.34 417.64 336.14 403.69 339.63 394.79 344.78 384.15 350.87 375.34 357.35 367.37 358.32 354.65 358.32 307.98" fill="#685c3e"/><polygon points="185.14 113.15 180.93 115.93 170.37 117.62 159.77 114.89 146.39 112.58 137.18 112.07 123.38 114.84 115.82 119.28 111.81 123.61 108.19 128.67 104.45 135.32 94.77 155.06 89.29 167.06 80.29 181.83 78.27 184.89 71.41 180.91 63.28 179.6 57.08 182.51 51.39 190.15 50.6 195.31 50.6 202.19 51.86 207.42 54.96 215.99 60.14 223.85 65.65 232.17 75.4 243.56 83.04 246.16 87.14 244.94 90.08 263.02 93.87 278.93 104.63 295.5 117.87 309.6 122.17 314.48 128.83 348.98 134.14 353.36 140.31 356.81 147.88 360.22 152.5 361.64 163.28 365.2 171.54 365.68 183.94 364.96 196.62 361.94 211.03 355.83 222.04 348.39 230.11 340.89 233.08 335.02 235.76 299.14 241.2 292.5 249.17 280.01 253.88 268.24 259.74 250.8 261.11 235.65 263.2 207.13 261.2 201.04 251.81 182.76 241.53 164.99 225.48 142.72 215.45 132.04 202.09 125.21 193.87 120.79 189.69 117.52 185.14 113.15" fill="#e9e1ce"/><rect x="2.06" y="4.94" width="355.88" height="450.12" rx="4" ry="4" fill="none" stroke="#101727" stroke-miterlimit="10" stroke-width="2"/><circle cx="131.03" cy="195.65" r="7.8" fill="none" stroke="#101727" stroke-miterlimit="10" stroke-width="2"/><circle cx="211.4" cy="197.67" r="7.8" fill="none" stroke="#101727" stroke-miterlimit="10" stroke-width="2"/><path d="M148.26,241.6c-.43,3.32,5.4,5.48,8.22,5.69s5.19,3.46,10.59,3.89,9.66-2.38,12.18-2.45c2.52-.07,11.57.16,12.62-5.67,1.37-7.61-16.73-18.45-14.42-57.08" fill="none" stroke="#101727" stroke-miterlimit="10" stroke-width="2"/><path d="M203.18,271.85c-.5,8.24-20.55,18.02-36.71,16.61-18.05-1.58-37.21-10.58-36.71-18.82.5-8.24,15.53-.38,40.46,1.63,13.06,1.06,33.46-7.66,32.96.58Z" fill="none" stroke="#101727" stroke-miterlimit="10" stroke-width="2"/><path d="M122.69,258.78c-4.52,3.56-6.82,16.05,0,21.52" fill="none" stroke="#101727" stroke-miterlimit="10" stroke-width="2"/><path d="M214.09,264.06c4.9,5.77,4.13,14.61,1.06,18.64" fill="none" stroke="#101727" stroke-miterlimit="10" stroke-width="2"/><path d="M307.78,254.18c-11.34-26.46-18.09-60.91-21.23-97.54-6.34-74.06-47.13-104.97-94.61-113-41.86-7.08-82.79,9.06-104.99,37.6-22.2,28.54-23.37,89.81-26.82,99.68" fill="none" stroke="#101727" stroke-linejoin="round" stroke-width="2"/><path d="M77.27,185.03c8.17-7.88,22.15-42.28,31.42-57.17,14.53-23.35,45.24-13.79,49.33-13.26,6.63.86,18.72,5.84,27.22-2.38,9.66,13.99,18.86,11.94,30.2,19.82s40.04,54.89,45.04,67.38c5,12.49,31.29,45.9,62.47,65.68,20.95,13.29,34.98,38.95,34.98,38.95" fill="none" stroke="#101727" stroke-linejoin="round" stroke-width="2"/><path d="M81.6,193.2c-2.02-7.93-7.77-13.54-16.79-13.33-12.32.29-20.47,18.52-7.93,38.77,12.54,20.25,19.75,30.34,30.84,26.09,0,0,1.08,29.98,11.75,43.82,10.67,13.84,39.7,51.53,68.12,50.94,41.65-.86,66.19-38.21,75.87-51.08,14.17-18.86,16.86-43.67,16.86-43.67,2.31-24.79,2.35-40.86,2.35-40.86" fill="none" stroke="#101727" stroke-miterlimit="10" stroke-width="2"/><line x1="121.86" y1="314.63" x2="136.08" y2="385.81" fill="none" stroke="#101727" stroke-miterlimit="10" stroke-width="2"/><path d="M128.83,349.53c40.5,32.63,89.42,9,104.56-13.67l1.45-35.48" fill="none" stroke="#101727" stroke-miterlimit="10" stroke-width="2"/><path d="M216.79,455.06c-29.11-33.66-3.87-78.17,16.6-119.2" fill="none" stroke="#101727" stroke-miterlimit="10" stroke-width="2"/><path d="M357.94,365.87c-18.92,21.58-38.53,60.43-10.85,89.19" fill="none" stroke="#101727" stroke-miterlimit="10" stroke-width="2"/><path d="M53.12,211.2c-2.37,39.56-17.28,80.75-16.79,110.47.58,34.98,17.18,58.5,32.15,62.54" fill="none" stroke="#101727" stroke-miterlimit="10" stroke-width="2"/><path d="M129.75,354.13c-24.42,28.65-127.69,39-127.69,69.96" fill="none" stroke="#101727" stroke-miterlimit="10" stroke-width="2"/><polyline points="129.75 354.13 118.4 455.06 31.09 455.06 46.11 392.07" fill="none" stroke="#101727" stroke-miterlimit="10" stroke-width="2"/><path d="M79.23,237.06l3.96-.58s-6.05,20.38,6.31,24.44c0,0,1.21,7.95,2.79,12.28-2.3.57-27.59,2.09-13.06-36.14Z" fill="#e8bd51" stroke="#101727" stroke-linejoin="round" stroke-width="2"/><path d="M154.99,181.88c-15.13-10.95-42.09-14.27-52.32,1.3" fill="none" stroke="#101727" stroke-miterlimit="10" stroke-width="2"/><path d="M191.94,184c12.83-13.87,44.11-16.74,60.85.5" fill="none" stroke="#101727" stroke-miterlimit="10" stroke-width="2"/></svg>