<svg width="610" height="527" viewBox="0 0 610 527" fill="none" xmlns="http://www.w3.org/2000/svg">
<g clip-path="url(#clip0_493_202)">
<path d="M609.037 69.4725L73.7266 2.86621L16.9553 459.472L552.266 526.079L609.037 69.4725Z" fill="#01654D" stroke="#101727" stroke-width="2" stroke-miterlimit="10"/>
<path d="M588.121 105.916L52.8105 39.3096L0.819731 457.467L536.13 524.073L588.121 105.916Z" fill="#E9E1CE" stroke="#101727" stroke-width="2" stroke-linejoin="round"/>
<path d="M592.897 67.472L57.5859 0.865723L52.8044 39.3233L588.115 105.93L592.897 67.472Z" fill="#E9E1CE" stroke="#101727" stroke-width="2" stroke-linejoin="round"/>
<path d="M80.4661 33.9C86.3596 33.9 91.1372 29.1206 91.1372 23.2249C91.1372 17.3292 86.3596 12.5498 80.4661 12.5498C74.5725 12.5498 69.7949 17.3292 69.7949 23.2249C69.7949 29.1206 74.5725 33.9 80.4661 33.9Z" fill="#01654D" stroke="#101727" stroke-width="2" stroke-miterlimit="10"/>
<path d="M112.796 37.9234C118.69 37.9234 123.467 33.144 123.467 27.2483C123.467 21.3526 118.69 16.5732 112.796 16.5732C106.903 16.5732 102.125 21.3526 102.125 27.2483C102.125 33.144 106.903 37.9234 112.796 37.9234Z" fill="#01654D" stroke="#101727" stroke-width="2" stroke-miterlimit="10"/>
<path d="M145.126 41.9386C151.02 41.9386 155.797 37.1592 155.797 31.2635C155.797 25.3678 151.02 20.5884 145.126 20.5884C139.233 20.5884 134.455 25.3678 134.455 31.2635C134.455 37.1592 139.233 41.9386 145.126 41.9386Z" fill="#01654D" stroke="#101727" stroke-width="2" stroke-miterlimit="10"/>
<path d="M96.7419 363.406L104.786 386.349L128.336 392.795L108.893 407.459L110.04 431.72L89.9729 417.843L67.1417 426.387L74.1844 403.145L58.918 384.166L83.3323 383.678L96.7419 363.406Z" fill="#E8BD51" stroke="#101727" stroke-width="2" stroke-miterlimit="10"/>
<path d="M189.111 374.895L197.155 397.828L220.705 404.283L201.263 418.947L202.409 443.2L182.351 429.323L159.511 437.866L166.554 414.633L151.287 395.645L175.71 395.166L189.111 374.895Z" fill="#E8BD51" stroke="#101727" stroke-width="2" stroke-miterlimit="10"/>
<path d="M281.48 386.383L289.524 409.317L313.074 415.763L293.632 430.427L294.778 454.688L274.72 440.811L251.88 449.355L258.923 426.113L243.656 407.134L268.079 406.654L281.48 386.383Z" fill="#E8BD51" stroke="#101727" stroke-width="2" stroke-miterlimit="10"/>
<path d="M373.849 397.863L381.893 420.805L405.443 427.251L386.001 441.916L387.148 466.176L367.089 452.3L344.249 460.843L351.3 437.601L336.025 418.622L360.448 418.134L373.849 397.863Z" fill="#E8BD51" stroke="#101727" stroke-width="2" stroke-miterlimit="10"/>
<path d="M466.218 409.351L474.262 432.294L497.812 438.74L478.369 453.404L479.516 477.665L459.457 463.779L436.617 472.332L443.669 449.089L428.402 430.111L452.817 429.623L466.218 409.351Z" fill="#E8BD51" stroke="#101727" stroke-width="2" stroke-miterlimit="10"/>
<path d="M175.334 339.163C236.859 339.163 286.735 289.269 286.735 227.721C286.735 166.173 236.859 116.279 175.334 116.279C113.809 116.279 63.9336 166.173 63.9336 227.721C63.9336 289.269 113.809 339.163 175.334 339.163Z" fill="#01654D"/>
<path d="M175.333 327.863C230.62 327.863 275.438 283.028 275.438 227.721C275.438 172.414 230.62 127.579 175.333 127.579C120.047 127.579 75.2285 172.414 75.2285 227.721C75.2285 283.028 120.047 327.863 175.333 327.863Z" fill="#01654D"/>
<path d="M249.218 222.884L245.504 215.222L239.608 209.923L231.666 204.693L210.709 199.565L205.215 178.514L210.872 167.985L214.432 168.704L220.781 167.771L224.538 163.73L226.07 159.775L226.6 154.63L223.511 150.949L218.805 150.341L156.216 134.701L154.068 145.873L153.058 160.16L155.009 168.661L159.493 187.238L160.751 192.443L148.531 195.482L141.249 198.392L136.499 202.929L129.508 209.88L122.474 229.031L115.183 253.394L99.668 293.269L110.827 304.304L127.531 316.143L146.794 324.071L167.76 328.128L182.393 327.64L204.539 324.105L217.701 318.917L233.147 310.04L244.665 299.981L254.498 289.314L264.228 273.863L268.053 264.78L249.218 222.884ZM224.915 282.363C224.915 282.363 224.504 268.572 224.512 268.495L231.033 282.774L224.915 282.363Z" fill="#E9E1CE"/>
<path d="M119.641 240.408C119.641 240.408 104.58 281.43 100.053 293.723" stroke="#101727" stroke-width="2" stroke-miterlimit="10"/>
<path d="M163.217 145.29C165.938 143.852 168.771 143.767 171.038 144.717" stroke="#101727" stroke-width="2" stroke-miterlimit="10"/>
<path d="M210.162 321.631L169.189 316.537" stroke="#101727" stroke-width="2" stroke-miterlimit="10"/>
<path d="M210.197 198.589L228.801 203.982C233.046 205.215 236.982 207.338 240.345 210.214C243.528 212.945 246.13 216.284 247.987 220.05L267.909 265.901" stroke="#101727" stroke-width="2" stroke-miterlimit="10"/>
<path d="M105.119 299.099L123.689 224.082C127.677 207.98 140.829 195.79 157.183 193.042L160.751 192.442L185.011 195.456" stroke="#101727" stroke-width="2" stroke-miterlimit="10"/>
<path d="M156.217 134.693C146.992 170.604 160.265 190.551 165.262 198.058L165.519 198.444C167.573 201.525 170.961 203.212 174.436 203.186C176.062 203.169 177.705 202.784 179.236 201.979L179.57 201.808C187.563 197.665 208.777 186.673 218.113 150.71L156.225 134.684L156.217 134.693Z" stroke="#101727" stroke-width="2" stroke-miterlimit="10"/>
<path d="M218.104 150.724L156.202 134.732L160.263 119C164.502 102.581 181.266 92.6943 197.679 96.9346L200.099 97.5596C216.513 101.8 226.395 118.57 222.156 134.99L218.095 150.722L218.104 150.724Z" fill="#E8BD51"/>
<path d="M218.121 150.684L139.914 130.472C138.434 130.087 137.544 128.58 137.92 127.091C138.305 125.61 139.811 124.719 141.3 125.096L174.443 133.665" fill="#E8BD51"/>
<path d="M218.121 150.684L139.914 130.472C138.434 130.087 137.544 128.58 137.92 127.091C138.305 125.61 139.811 124.719 141.3 125.096L174.443 133.665" stroke="#101727" stroke-width="2" stroke-miterlimit="10"/>
<path d="M218.112 150.709C225.66 149.134 228.895 157.678 224.539 163.722C220.192 169.765 215.288 168.901 211.395 168.267" stroke="#101727" stroke-width="2" stroke-miterlimit="10"/>
<path d="M182.633 147.739C180.784 155.058 175.855 161.872 168.727 165.785C164.38 168.173 170.918 172.008 177.849 166.504" stroke="#101727" stroke-width="2" stroke-miterlimit="10"/>
<path d="M186.124 171.572C199.713 167.617 203.068 159.561 206.944 147.825L218.112 150.718C208.775 186.681 187.57 197.673 179.569 201.817L179.235 201.988C177.703 202.792 176.06 203.178 174.434 203.195C170.96 203.229 167.571 201.543 165.518 198.452L165.261 198.067C161.881 192.991 154.727 182.238 153.289 164.715C162.018 172.479 174.417 174.988 186.115 171.572H186.124Z" fill="#101727" stroke="#101727" stroke-width="2" stroke-miterlimit="10"/>
<path d="M169.421 226.967C170.99 226.967 172.262 225.695 172.262 224.125C172.262 222.556 170.99 221.283 169.421 221.283C167.852 221.283 166.58 222.556 166.58 224.125C166.58 225.695 167.852 226.967 169.421 226.967Z" stroke="#101727" stroke-width="2" stroke-miterlimit="10"/>
<path d="M167.409 239.714C168.979 239.714 170.25 238.442 170.25 236.872C170.25 235.302 168.979 234.03 167.409 234.03C165.84 234.03 164.568 235.302 164.568 236.872C164.568 238.442 165.84 239.714 167.409 239.714Z" stroke="#101727" stroke-width="2" stroke-miterlimit="10"/>
<path d="M167.718 154.938C169.287 154.938 170.559 153.666 170.559 152.096C170.559 150.526 169.287 149.254 167.718 149.254C166.149 149.254 164.877 150.526 164.877 152.096C164.877 153.666 166.149 154.938 167.718 154.938Z" stroke="#101727" stroke-width="2" stroke-miterlimit="10"/>
<path d="M190.078 148.664C193.125 149.117 195.452 150.735 196.71 152.841" stroke="#101727" stroke-width="2" stroke-miterlimit="10"/>
<path d="M183.044 182.349C178.799 185.371 169.48 185.722 165.758 180.8" stroke="#E9E1CE" stroke-width="2" stroke-miterlimit="10"/>
<path d="M203.239 98.2756C195.649 96.2638 189.787 100.638 189.787 100.638" stroke="#101727" stroke-width="2" stroke-miterlimit="10"/>
<path d="M202.469 169.415L210.196 198.589L179.038 212.825L171.26 198.264L202.469 169.415Z" stroke="#101727" stroke-width="2" stroke-miterlimit="10"/>
<path d="M172.475 248.172C172.586 247.941 179.038 212.825 179.038 212.825" stroke="#101727" stroke-width="2" stroke-miterlimit="10"/>
<path d="M210.197 198.7L196.933 234.698C196.933 234.698 192.321 214.478 179.039 212.825C165.758 211.173 157.047 226.274 157.047 226.274L163.046 194.625" stroke="#101727" stroke-width="2" stroke-miterlimit="10"/>
<path d="M179.434 104.523L175.615 104.858L176.468 114.572L180.287 114.236L179.434 104.523Z" fill="#01654D"/>
<path d="M174.153 114.815C175.018 120.473 177.619 123.127 179.279 124.471C180.691 122.845 182.788 119.746 182.608 113.942C182.762 113.89 182.916 113.839 183.079 113.779C184.268 113.342 185.355 112.829 186.356 112.247C187.169 121.663 183.019 126.106 181.453 127.776L181.384 127.844C181.085 128.169 180.725 128.4 180.34 128.537C179.51 128.837 178.552 128.726 177.799 128.161L177.705 128.092C175.865 126.714 170.987 123.059 170.148 113.668C171.398 114.207 172.741 114.601 174.153 114.806V114.815Z" fill="white"/>
<path d="M169.24 172.453C158.988 168.815 154.384 163.67 153.246 152.413C153.144 162.6 155.001 168.653 155.001 168.653L169.24 172.453Z" fill="#101727" stroke="#101727" stroke-width="2" stroke-miterlimit="10"/>
<path d="M224.599 282.32L223.803 265.156" stroke="#101727" stroke-width="2" stroke-miterlimit="10"/>
<path d="M222.135 261.099C230.264 251.382 243.999 244.594 259.728 247.085" stroke="#101727" stroke-width="2" stroke-miterlimit="10"/>
<path d="M221.09 138.622C257.399 157.284 279.999 197.194 274.677 240.074C267.856 294.956 217.855 333.924 162.985 327.101C108.115 320.278 69.1697 270.259 75.99 215.368C81.0046 175.013 109.364 143.27 145.836 131.996" stroke="#101727" stroke-width="2" stroke-miterlimit="10"/>
<path d="M223.948 127.425C265.691 147.671 291.92 192.854 285.878 241.469C278.288 302.541 222.648 345.9 161.59 338.307C100.541 330.714 57.198 275.053 64.7884 213.973C71.1808 162.54 111.649 123.675 160.726 117.212" stroke="#101727" stroke-width="2" stroke-miterlimit="10"/>
<path d="M162.087 288.253L150.697 286.832C146.975 286.37 144.331 282.971 144.793 279.247C145.255 275.523 148.652 272.878 152.375 273.34L161.976 274.53C165.373 274.95 168.317 272.176 168.086 268.761L167.187 255.235C166.948 251.485 169.78 248.249 173.529 248.01C177.277 247.77 180.511 250.603 180.751 254.353L181.555 266.766C181.555 266.766 190.293 269.077 193.288 278.434L231.197 283.151L213.321 239.586" stroke="#101727" stroke-width="2" stroke-miterlimit="10"/>
<path d="M162.181 301.967L147.564 300.152C143.842 299.69 141.198 296.291 141.66 292.567C142.122 288.843 145.519 286.198 149.242 286.66L162.086 288.261" stroke="#101727" stroke-width="2" stroke-miterlimit="10"/>
<path d="M170.337 316.682L149.688 314.114C145.965 313.652 143.321 310.253 143.783 306.53C144.245 302.806 147.642 300.16 151.365 300.623L163.328 302.112" stroke="#101727" stroke-width="2" stroke-miterlimit="10"/>
<path d="M192.475 157.061C188.504 153.14 184.533 156.291 184.533 156.291C184.533 156.291 187.605 155.315 190.506 160.271" stroke="#101727" stroke-width="2" stroke-linejoin="round"/>
<path d="M341.124 236.504L329.195 208.562L326.038 234.013L318.516 233.079L323.838 190.259L329.401 190.953L342.75 223.423L363.639 195.207L369.201 195.901L363.879 238.721L356.357 237.788L359.514 212.337L341.116 236.512L341.124 236.504Z" fill="#01654D"/>
<path d="M382.584 195.635C385.211 195.961 386.923 198.221 386.606 200.729C386.29 203.237 384.09 205.009 381.455 204.684C378.819 204.359 377.116 202.159 377.433 199.59C377.749 197.022 380.017 195.319 382.584 195.635ZM373.18 239.877L376.971 209.35L384.672 210.308L380.881 240.836L373.18 239.877Z" fill="#01654D"/>
<path d="M389.559 241.906L395.104 197.253L402.805 198.212L399.237 226.959L412.92 213.818L421.726 214.914L407.384 228.414L418.611 245.527L409.438 244.388L399.1 228.132L397.269 242.873L389.567 241.914L389.559 241.906Z" fill="#01654D"/>
<path d="M429.292 233.987C429.215 238.635 431.756 242.12 437.199 242.796C440.93 243.258 444.011 241.965 445.765 239.825L452.919 240.716C450.163 245.903 443.771 249.396 436.489 248.489C426.091 247.196 420.897 239.534 422.035 230.417C423.173 221.3 430.687 215.282 440.1 216.455C449.513 217.628 455.289 225.118 454.126 234.535L453.817 237.043L429.3 233.996L429.292 233.987ZM429.865 228.902L447.108 231.042C447.203 226.274 444.498 222.584 439.544 221.968C434.589 221.352 431.089 224.022 429.865 228.902Z" fill="#01654D"/>
<path d="M316.761 247.17L324.711 248.155L320.261 283.998L339.764 286.421L338.9 293.398L311.447 289.982L316.77 247.162L316.761 247.17Z" fill="#01654D"/>
<path d="M344.95 278.69C345.986 270.369 353.182 263.435 363.7 264.745C374.217 266.055 379.497 274.538 378.461 282.859C377.426 291.18 370.237 298.046 359.72 296.745C349.203 295.435 343.923 286.951 344.95 278.699V278.69ZM352.472 279.623C351.856 284.58 354.586 289.579 360.516 290.316C366.446 291.052 370.323 286.874 370.939 281.918C371.555 276.961 368.834 271.902 362.895 271.166C356.965 270.429 353.088 274.667 352.472 279.623Z" fill="#01654D"/>
<path d="M389.217 312.642L381.516 311.683L386.898 268.375L394.3 269.291L393.65 274.556C395.815 271.654 400.205 269.282 405.528 269.942C414.582 271.063 420.041 279.076 418.946 287.885C417.851 296.694 410.602 303.063 401.549 301.933C396.226 301.273 392.589 298.089 391.468 294.596L389.226 312.642H389.217ZM403.192 276.114C398.177 275.489 393.428 278.75 392.692 284.623C391.956 290.496 395.781 294.759 400.796 295.384C406.298 296.069 410.56 292.251 411.219 286.926C411.877 281.601 408.686 276.799 403.183 276.114H403.192Z" fill="#01654D"/>
<path d="M459.414 277.398L455.623 307.925L448.221 307.009L448.871 301.744C446.715 304.646 442.316 307.017 436.993 306.358C427.94 305.237 422.48 297.224 423.567 288.475C424.654 279.726 431.919 273.237 440.964 274.367C446.287 275.026 450.103 278.297 451.224 281.729L451.875 276.465L459.397 277.398H459.414ZM439.261 300.169C444.336 300.802 449.076 297.601 449.812 291.728C450.548 285.856 446.732 281.532 441.657 280.899C436.155 280.214 431.944 284.101 431.286 289.425C430.627 294.75 433.759 299.484 439.261 300.169Z" fill="#01654D"/>
<path d="M471.241 269.607L478.943 270.566L477.813 279.683L485.703 280.668L484.916 287.028L477.026 286.044L475.297 299.929C474.904 303.114 475.948 304.672 478.943 305.04C480.226 305.202 481.296 305.083 482.374 304.911L481.604 311.092C480.577 311.34 478.079 311.46 476.127 311.221C468.913 310.322 466.757 305.648 467.638 298.611L469.316 285.094L463.625 284.383L464.412 278.022L470.103 278.733L471.233 269.616L471.241 269.607Z" fill="#01654D"/>
<path d="M523.672 285.385L519.881 315.912L512.479 314.996L513.129 309.731C510.972 312.633 506.574 315.005 501.251 314.346C492.197 313.224 486.738 305.211 487.825 296.462C488.911 287.713 496.177 281.225 505.222 282.355C510.545 283.014 514.361 286.284 515.482 289.717L516.133 284.452L523.655 285.385H523.672ZM503.519 308.156C508.593 308.79 513.334 305.588 514.07 299.715C514.806 293.843 510.99 289.52 505.915 288.886C500.413 288.201 496.202 292.088 495.543 297.413C494.884 302.737 498.016 307.471 503.519 308.156Z" fill="#01654D"/>
</g>
<defs>
<clipPath id="clip0_493_202">
<rect width="610" height="527" fill="white"/>
</clipPath>
</defs>
</svg>
