<svg width="678" height="470" viewBox="0 0 678 470" fill="none" xmlns="http://www.w3.org/2000/svg">
<g clip-path="url(#clip0_2680_931)">
<path d="M0 469.43H565.89H614.67H678.35" stroke="#101727" stroke-miterlimit="10"/>
<path opacity="0.12" d="M628 396.6L626.45 397.57C625.72 398.03 624.76 397.52 624.74 396.65L624.68 393.15C624.67 392.54 624.17 392.05 623.56 392.06L616.69 392.1C616.08 392.1 615.59 392.59 615.58 393.2L615.47 404.09C615.47 404.48 615.26 404.84 614.93 405.03L608.07 409.14C607.33 409.59 606.38 409.05 606.38 408.18L606.56 344.61C606.56 344.01 606.09 343.52 605.49 343.49L602.38 343.37C601.78 343.35 601.31 342.86 601.31 342.26L601.29 331.74C601.29 331.12 600.79 330.63 600.17 330.63L577.7 330.66C577.09 330.66 576.59 331.16 576.59 331.77L576.53 342.29C576.53 342.9 576.04 343.39 575.43 343.4L571.3 343.44C570.69 343.44 570.2 343.94 570.2 344.54L569.83 383.56C569.83 384.17 569.33 384.66 568.72 384.66H563.85C563.23 384.66 562.73 384.16 562.73 383.55L562.91 350.14L563.53 263.43C563.53 262.82 563.04 262.32 562.43 262.31L556.73 262.24C556.12 262.24 555.63 261.74 555.63 261.13V251.31C555.63 250.7 555.14 250.2 554.53 250.2L551.37 250.16C550.76 250.16 550.27 249.65 550.27 249.04L550.31 234.6C550.31 233.99 549.83 233.5 549.22 233.48L544.01 233.37C543.4 233.36 542.92 232.86 542.92 232.26V211.04C542.92 210.43 542.43 209.93 541.82 209.93H540.68C540.06 209.91 539.56 210.41 539.56 211.03V232.29C539.56 232.9 539.06 233.4 538.45 233.4L533.06 233.45C532.45 233.45 531.96 233.95 531.96 234.56L531.94 249.08C531.94 249.69 531.45 250.18 530.84 250.19L527.68 250.24C527.07 250.24 526.59 250.74 526.58 251.35L526.54 261.11C526.54 261.7 526.07 262.19 525.48 262.22L520.88 262.45C520.29 262.48 519.82 262.97 519.82 263.56V392.48C519.82 393.09 519.32 393.59 518.71 393.59L514.45 393.64C513.83 393.64 513.32 393.15 513.32 392.53L513.35 183.88C513.35 183.27 512.85 182.77 512.24 182.77H508.96C508.35 182.77 507.85 182.27 507.85 181.66L507.8 171.6C507.8 170.99 507.31 170.5 506.71 170.49L499.71 170.36C499.1 170.35 498.62 169.85 498.62 169.25V153.32C498.62 152.71 498.12 152.21 497.5 152.21L472.77 152.19C472.15 152.19 471.66 152.69 471.65 153.3L471.63 169.29C471.63 169.9 471.14 170.39 470.53 170.4L463.05 170.5C462.44 170.5 461.95 171 461.95 171.61V181.72C461.95 182.32 461.48 182.81 460.88 182.83L457.54 182.96C456.94 182.98 456.47 183.47 456.47 184.07V320.15C456.47 320.76 455.96 321.26 455.35 321.26L439.77 321.34C439.16 321.34 438.66 321.84 438.66 322.45L438.64 370.37C438.64 370.98 438.14 371.48 437.53 371.48H433C432.38 371.5 431.88 371 431.88 370.38L431.91 301.6C431.91 301 431.44 300.51 430.84 300.49L428.47 300.39C427.87 300.36 427.4 299.87 427.4 299.28V273.68C427.4 273.1 426.95 272.61 426.37 272.57L425.76 272.52C425.18 272.48 424.73 271.99 424.73 271.41L424.71 264.51C424.71 264.26 424.62 264.02 424.47 263.82L417.33 254.84C417.17 254.64 417.09 254.4 417.09 254.15V248.07C417.09 247.45 416.6 246.96 415.98 246.95H415.7C415.09 246.95 414.59 247.44 414.58 248.05L414.53 254.09C414.53 254.34 414.44 254.58 414.29 254.78L407.13 263.74C406.97 263.94 406.89 264.18 406.89 264.44V271.42C406.91 272 406.45 272.49 405.87 272.53L404.6 272.62C404.02 272.66 403.57 273.15 403.57 273.73L403.63 299.2C403.63 299.8 403.16 300.29 402.56 300.32L400.52 300.41C399.92 300.44 399.45 300.92 399.45 301.52L399.41 314.38C399.41 315 398.89 315.51 398.27 315.49L393.49 315.37C392.89 315.36 392.4 314.86 392.4 314.26V233.96C392.4 233.35 391.91 232.86 391.31 232.85L384.33 232.69C383.73 232.68 383.24 232.18 383.24 231.58L383.19 221.71C383.19 221.1 382.69 220.6 382.07 220.6H375.36C374.75 220.6 374.25 220.11 374.24 219.5L374.2 208.96C374.2 208.35 373.7 207.85 373.08 207.85H366.98C366.36 207.85 365.87 208.36 365.87 208.97L365.9 219.48C365.9 220.09 365.41 220.59 364.8 220.6L358.58 220.66C357.97 220.66 357.48 221.16 357.48 221.77V231.63C357.48 232.24 356.98 232.74 356.37 232.74L346.9 232.8C346.29 232.8 345.79 233.3 345.79 233.91L345.77 363.84L345.66 377.08C345.66 377.69 345.16 378.19 344.54 378.19H340.65C340.04 378.18 339.54 377.68 339.54 377.07L339.45 366.53C339.45 365.93 338.97 365.44 338.37 365.43L336.53 365.38C335.93 365.36 335.45 364.87 335.45 364.27V331.6C335.45 331.4 335.38 331.21 335.25 331.06C335.17 330.97 335.09 330.88 335.01 330.79C334.86 330.62 334.65 330.52 334.42 330.51L330.1 330.39C329.5 330.37 329.02 329.88 329.02 329.28V273.4C329.02 272.79 328.54 272.3 327.93 272.29L324.49 272.22C323.89 272.21 323.4 271.72 323.4 271.11L323.35 264.62C323.35 264.01 322.85 263.51 322.23 263.51L301.35 263.55C300.74 263.55 300.24 264.04 300.24 264.66L300.19 271.11C300.19 271.71 299.71 272.2 299.11 272.21L292.94 272.38C292.34 272.4 291.86 272.89 291.86 273.49V397.3C291.85 397.65 291.69 397.97 291.41 398.18L284.86 403.21C284.13 403.77 283.07 403.25 283.07 402.33L283.11 336.85C283.11 336.24 282.61 335.74 282 335.74L275.16 335.72C274.55 335.72 274.05 335.22 274.05 334.61V219.11C274.05 218.51 273.56 218.02 272.96 218L267.41 217.81C266.81 217.79 266.34 217.3 266.33 216.7L266.28 205.64C266.28 205.03 265.79 204.54 265.18 204.53L260.52 204.46C259.91 204.46 259.42 203.96 259.42 203.35V197.76C259.41 197.14 258.9 194.67 258.28 194.68L249.3 195.22C248.94 195.22 248.6 196.93 248.39 197.23L235.04 204.04C234.83 204.34 234.5 204.52 234.13 204.52L235.01 215.01C234.4 215.01 223.52 215.97 223.52 216.58L223.57 346.66C223.57 347.28 223.07 347.78 222.45 347.77H215.7C215.09 347.76 214.59 347.26 214.59 346.64L214.57 321.52C214.57 320.9 214.07 320.41 213.46 320.41H199.35C198.73 320.41 198.24 319.92 198.24 319.3V309.46C198.23 308.85 197.73 308.35 197.11 308.35H170.11C169.49 308.35 169 308.84 169 309.46V319.28C169 319.89 168.5 320.39 167.89 320.39L160.91 320.45C160.3 320.45 159.8 320.95 159.8 321.56V385.69C159.8 386.54 158.89 387.08 158.15 386.67L149.92 382.13C149.6 381.95 149.22 381.95 148.89 382.11L137.23 387.86C136.85 388.05 136.61 388.44 136.61 388.86V390.91C136.61 391.73 135.76 392.27 135.02 391.92L119.76 384.66L99.09 374.35C98.8 374.2 98.46 374.19 98.16 374.32L71.15 385.79C70.74 385.96 70.47 386.37 70.47 386.82V413.49C70.47 413.74 70.35 413.98 70.15 414.14C70.11 414.17 70.06 414.21 70.02 414.24C69.63 414.55 69.07 414.44 68.81 414.02L66.88 410.83C66.68 410.5 66.32 410.29 65.93 410.29H42.19C41.82 410.29 41.48 410.47 41.27 410.78L27.94 430.41C27.81 430.59 27.75 430.81 27.75 431.04V467.62C27.75 468.24 28.25 468.73 28.86 468.73H149.48L646.46 468.72C647.07 468.72 647.57 468.22 647.57 467.61L647.65 416.68C647.65 416.12 648.07 415.65 648.63 415.58L649.34 415.49C650.31 415.37 650.67 414.14 649.91 413.52L629.33 396.72C628.96 396.42 628.44 396.39 628.03 396.64L628 396.6Z" fill="#01654D"/>
<path d="M518.291 150.38L314.341 15.42L116.591 150.32L109.811 140.37L314.241 0.910004L524.931 140.34L518.291 150.38Z" fill="#01654D" stroke="#101727" stroke-miterlimit="10"/>
<path d="M155.74 423.4V186.2L315.39 77.3L479.85 186.13L479.61 423.43L155.74 423.4Z" fill="white" stroke="#101727" stroke-miterlimit="10"/>
<path d="M154.68 125.89V181.3" stroke="#101727" stroke-miterlimit="10" stroke-dasharray="7 7"/>
<path d="M480.199 125.89V181.3" stroke="#101727" stroke-miterlimit="10" stroke-dasharray="7 7"/>
<path d="M171.361 439.71V353.16H222.571V439.71H482.061V451.58H73.6406V439.71H171.361Z" fill="#E9BE51" stroke="#101727" stroke-miterlimit="10"/>
<path d="M186.01 401.25H177.32V405.05H186.01V401.25Z" fill="#E9BE51" stroke="#101727" stroke-miterlimit="10"/>
<path d="M391.551 383.29V339.62H347.951V383.29H391.551Z" fill="#849465" stroke="#101727" stroke-miterlimit="10"/>
<path d="M370.17 345.58C369.75 346.74 360.24 363.8 360.24 363.8H369.33L366.58 377.32L379.26 360.21H367.43L370.18 345.58H370.17Z" fill="#E9BE51" stroke="#101727" stroke-miterlimit="10"/>
<path d="M313.67 290.84V231.8L71.7499 231.8V290.84H313.67Z" stroke="#101727" stroke-miterlimit="10" stroke-dasharray="7 7"/>
<path d="M400.961 290.84V231.8H342.171V290.84H400.961Z" stroke="#101727" stroke-miterlimit="10" stroke-dasharray="7 7"/>
<path d="M111.85 291.24V231.5H52.1996L52.1996 291.24H111.85Z" fill="#849465" stroke="#101727" stroke-miterlimit="10"/>
<path d="M103.06 240.28H84.5195V258.82H103.06V240.28Z" fill="#E9BE51" stroke="#101727" stroke-miterlimit="10"/>
<path d="M79.5107 240.28H60.9707V258.82H79.5107V240.28Z" fill="#E9BE51" stroke="#101727" stroke-miterlimit="10"/>
<path d="M79.5107 263.91H60.9707V282.45H79.5107V263.91Z" fill="#E9BE51" stroke="#101727" stroke-miterlimit="10"/>
<path d="M103.06 263.91H84.5195V282.45H103.06V263.91Z" fill="#E9BE51" stroke="#101727" stroke-miterlimit="10"/>
<path d="M52.8495 242.84C59.7973 242.84 65.4295 237.208 65.4295 230.26C65.4295 223.312 59.7973 217.68 52.8495 217.68C45.9018 217.68 40.2695 223.312 40.2695 230.26C40.2695 237.208 45.9018 242.84 52.8495 242.84Z" fill="#E9BE51"/>
<path d="M52.8509 224.19L54.8209 228.19L59.2309 228.83L56.0409 231.94L56.7909 236.33L52.8509 234.26L48.9009 236.33L49.6609 231.94L46.4609 228.83L50.8709 228.19L52.8509 224.19Z" fill="white"/>
<path d="M421.6 89.05C428.547 89.05 434.18 83.4178 434.18 76.47C434.18 69.5223 428.547 63.89 421.6 63.89C414.652 63.89 409.02 69.5223 409.02 76.47C409.02 83.4178 414.652 89.05 421.6 89.05Z" fill="#E9BE51"/>
<path d="M421.601 70.39L423.571 74.39L427.981 75.03L424.791 78.14L425.551 82.54L421.601 80.46L417.651 82.54L418.411 78.14L415.211 75.03L419.631 74.39L421.601 70.39Z" fill="white"/>
<path d="M393.76 351.02C400.707 351.02 406.34 345.388 406.34 338.44C406.34 331.492 400.707 325.86 393.76 325.86C386.812 325.86 381.18 331.492 381.18 338.44C381.18 345.388 386.812 351.02 393.76 351.02Z" fill="#E9BE51"/>
<path d="M393.759 332.36L395.729 336.36L400.139 337L396.949 340.12L397.699 344.51L393.759 342.43L389.809 344.51L390.559 340.12L387.369 337L391.779 336.36L393.759 332.36Z" fill="white"/>
<path d="M254.561 239.56V283.66" stroke="#101727" stroke-miterlimit="10" stroke-dasharray="7 7"/>
<path d="M547.289 372.74L547.27 375.94L568.159 371.04L579.4 440.42L579.99 444.03L615.109 443.98L614.75 440.42L604.43 338.74L604.26 337.04L598.9 336.86H597.77L596.84 336.46C596.84 336.46 596.84 336.46 596.83 336.46L594.539 335.48L594.469 335.45L594 335.5L566.75 338.56L561.96 346.17L559.099 350.7L546.52 370.64C547.01 371.2 547.31 371.94 547.31 372.75V372.77L547.289 372.74Z" fill="#01654D" stroke="#101727" stroke-miterlimit="10"/>
<path d="M539.57 341.56C540.11 349.64 541.44 356.34 542.22 359.75C542.58 361.32 542.82 362.2 542.82 362.2L555.02 342.88L557.08 339.61L539.57 341.55V341.56Z" fill="#01654D" stroke="#101727" stroke-miterlimit="10"/>
<path d="M471.85 406.41L503.6 422.35L503.81 421.83L519.89 382.36L525.45 381.06C524.42 377.6 523.05 372.63 521.72 366.76C520.37 360.8 519.05 353.9 518.18 346.68L493.59 352.56L471.88 406.36L471.86 406.41H471.85Z" fill="#01654D" stroke="#101727" stroke-miterlimit="10"/>
<path d="M554.24 263.98L556.22 266.01L571.2 252.2L571.22 252.18L566.19 243.9C563.87 253.88 559.01 259.48 556.68 262.15L556.53 262.32C555.88 263.07 555.09 263.63 554.24 263.98Z" fill="#EAE2CF" stroke="#101727" stroke-miterlimit="10"/>
<path d="M549.25 258.87L554.24 263.98C555.1 263.63 555.88 263.07 556.53 262.32L556.68 262.15C559.01 259.47 563.87 253.88 566.19 243.9L561.69 236.5L553.32 251.57L549.26 258.88L549.25 258.87Z" stroke="#101727" stroke-miterlimit="10"/>
<path d="M560.279 225.47L529.529 228.64C529.989 232.65 530.729 236.22 531.659 239.4C531.659 239.4 531.659 239.41 531.659 239.42C534.679 245.62 538.309 247.59 544.729 247.52C547.959 246.96 551.089 245.58 553.839 243.46C560.489 238.33 560.629 233.02 560.269 225.48L560.279 225.47ZM551.139 232.21C551.999 231.87 552.969 232.32 553.319 233.22C553.669 234.12 553.239 235.12 552.379 235.45C551.519 235.79 550.539 235.34 550.199 234.44C549.859 233.55 550.279 232.55 551.139 232.21ZM538.639 234.63C539.499 234.29 540.479 234.74 540.819 235.64C541.159 236.54 540.739 237.54 539.879 237.87C539.019 238.21 538.049 237.75 537.699 236.86C537.359 235.96 537.779 234.96 538.639 234.63Z" fill="#EAE2CF" stroke="#101727" stroke-miterlimit="10"/>
<path d="M560.28 225.47C560.64 233.01 560.499 238.33 553.849 243.45C551.099 245.57 547.96 246.94 544.74 247.51C538.32 247.58 534.689 245.61 531.669 239.41V239.44C532.439 242.02 533.329 244.34 534.299 246.42C534.509 246.88 534.73 247.32 534.95 247.75C535.01 247.87 535.07 247.98 535.12 248.1C535.8 249.41 536.499 250.63 537.219 251.74C537.449 252.1 537.69 252.46 537.93 252.8C539.04 254.41 540.16 255.81 541.27 257.02C541.43 257.19 541.58 257.36 541.74 257.53C541.89 257.7 542.05 257.86 542.21 258.02C542.36 258.18 542.519 258.33 542.669 258.49C543.189 259.01 543.7 259.49 544.18 259.92C544.55 260.25 544.91 260.56 545.25 260.85C545.38 260.96 545.51 261.07 545.64 261.18C545.77 261.29 545.9 261.39 546.02 261.49C546.77 262.09 547.44 262.59 547.99 263L548.21 263.16C550 264.49 552.22 264.75 554.13 264C554.16 263.99 554.199 263.97 554.229 263.96C555.089 263.61 555.87 263.05 556.52 262.3L556.669 262.13C558.999 259.45 563.86 253.86 566.18 243.88C566.72 241.56 567.12 239 567.32 236.18C567.56 232.76 567.499 228.96 567.039 224.76L529.52 228.6V228.62L560.27 225.45L560.28 225.47Z" stroke="#101727" stroke-miterlimit="10"/>
<path d="M528.101 215.86L529.161 225.25L529.541 228.62V228.64L560.291 225.47L567.061 224.78V224.76L565.631 212C564.651 203.3 557.051 196.96 548.651 197.82L544.971 198.2L544.331 198.27L541.551 198.55C533.151 199.41 527.131 207.16 528.101 215.86Z" fill="#E9BE51"/>
<path d="M567.05 224.76L519.651 229.63C518.751 229.72 517.941 229.04 517.831 228.11C517.721 227.18 518.371 226.35 519.271 226.26L539.36 224.19" fill="#E9BE51"/>
<path d="M567.05 224.76L519.651 229.63C518.751 229.72 517.941 229.04 517.831 228.11C517.721 227.18 518.371 226.35 519.271 226.26L539.36 224.19" stroke="#101727" stroke-miterlimit="10"/>
<path d="M567.331 236.2C569.571 235.75 572.291 235.1 573.361 230.88C574.471 226.51 570.871 222.29 567.051 224.78C567.521 228.99 567.571 232.78 567.331 236.2Z" fill="#EAE2CF" stroke="#101727" stroke-miterlimit="10"/>
<path d="M567.09 236.25C567.17 236.23 567.25 236.22 567.34 236.2" stroke="#101727" stroke-miterlimit="10"/>
<path d="M546.41 230.53C546.95 235.11 545.68 240.05 542.58 243.79C540.69 246.07 545.11 246.89 547.76 242.28" stroke="#101727" stroke-miterlimit="10"/>
<path d="M534.299 246.59C534.509 247.05 534.729 247.49 534.949 247.92C535.009 248.04 535.069 248.15 535.119 248.27C535.799 249.58 536.499 250.8 537.219 251.91C537.449 252.27 537.689 252.63 537.929 252.97C539.039 254.58 540.159 255.98 541.269 257.19C541.429 257.36 541.579 257.53 541.739 257.7C541.889 257.87 542.049 258.03 542.209 258.19C542.359 258.35 542.519 258.5 542.669 258.66C543.189 259.18 543.699 259.66 544.179 260.09C544.549 260.42 544.909 260.73 545.249 261.02C545.379 261.13 545.509 261.24 545.639 261.35C545.769 261.46 545.899 261.56 546.019 261.66C546.769 262.26 547.439 262.76 547.989 263.17L548.209 263.33C549.999 264.66 552.219 264.92 554.129 264.17C554.159 264.16 554.199 264.14 554.229 264.13C555.089 263.78 555.869 263.22 556.519 262.47L556.669 262.3C558.999 259.62 563.859 254.03 566.179 244.05C566.719 241.73 567.119 239.17 567.319 236.35C567.559 232.93 567.499 229.13 567.039 224.93L560.269 225.62C560.629 233.16 560.489 238.48 553.839 243.6C551.089 245.72 547.949 247.09 544.729 247.66C543.719 247.84 542.699 247.93 541.679 247.95H541.659C539.419 247.98 537.179 247.63 535.019 246.86C534.769 246.77 534.529 246.68 534.279 246.58L534.299 246.59Z" fill="#101727"/>
<path d="M550.2 234.44C550.54 235.34 551.51 235.79 552.38 235.45C553.24 235.11 553.66 234.12 553.32 233.22C552.98 232.32 552 231.87 551.14 232.21C550.28 232.55 549.86 233.55 550.2 234.44Z" fill="#EAE2CF" stroke="#101727" stroke-miterlimit="10"/>
<path d="M537.699 236.86C538.039 237.75 539.019 238.2 539.879 237.87C540.739 237.53 541.159 236.53 540.819 235.64C540.479 234.74 539.509 234.29 538.639 234.63C537.769 234.97 537.359 235.97 537.699 236.86Z" fill="#EAE2CF" stroke="#101727" stroke-miterlimit="10"/>
<path d="M550.891 229.5C552.661 229.12 554.291 229.55 555.441 230.5" stroke="#101727" stroke-miterlimit="10"/>
<path d="M554.45 250.28C552.76 252.9 547.69 255.07 544.59 253.03" stroke="#EAE2CF" stroke-miterlimit="10"/>
<path d="M544.18 259.93L544.54 263.04L546.24 277.76C546.24 277.76 548.46 267.4 556.23 266.01L554.25 263.98C554.25 263.98 554.18 264.01 554.15 264.02C552.24 264.77 550.01 264.51 548.23 263.18L548.01 263.02C547.46 262.61 546.79 262.11 546.04 261.51C545.91 261.41 545.79 261.3 545.66 261.2C545.53 261.1 545.4 260.98 545.27 260.87C544.92 260.58 544.57 260.27 544.2 259.94L544.18 259.93Z" fill="#EAE2CF" stroke="#101727" stroke-miterlimit="10"/>
<path d="M531.67 239.41V239.44C532.9 242.8 533.53 245.24 534.39 246.7C535.02 247.77 535.43 248.32 535.43 248.32L540.93 249.21L541.94 248.7L544.74 247.5C538.32 247.57 534.69 245.6 531.67 239.4V239.41Z" fill="#101727"/>
<path d="M487.41 450.01L498.51 432.43" stroke="#101727" stroke-miterlimit="10"/>
<path d="M566.74 338.54L593.99 335.48C593.6 335.31 593.23 335.13 592.86 334.93C592.18 334.57 591.54 334.16 590.94 333.71C577.43 323.47 574.55 326.15 574.55 326.15L566.93 338.23L566.74 338.53V338.54Z" fill="#EAE2CF" stroke="#101727" stroke-miterlimit="10"/>
<path d="M460.409 457.03L471.109 440.19L487.409 450.01H487.429L496.129 436.32L502.279 440.67L502.339 440.71L493.659 454.38L509.909 464.3L506.649 469.43H455.029C456.109 465.16 457.919 460.95 460.409 457.03Z" fill="#EAE2CF" stroke="#101727" stroke-miterlimit="10"/>
<path d="M487.409 450.01L471.359 439.81L471.109 440.19" stroke="#101727" stroke-miterlimit="10"/>
<path d="M484.58 453.91L480.49 460.34C480.03 461.06 479.82 461.85 479.82 462.6C479.82 463.7 480.3 464.72 481.2 465.29C482.71 466.25 484.85 465.59 485.97 463.83L490.05 457.4" fill="#EAE2CF"/>
<path d="M484.58 453.91L480.49 460.34C480.03 461.06 479.82 461.85 479.82 462.6C479.82 463.7 480.3 464.72 481.2 465.29C482.71 466.25 484.85 465.59 485.97 463.83L490.05 457.4" stroke="#101727" stroke-miterlimit="10"/>
<path d="M587.45 327.07C589.41 328.32 592.01 327.74 593.25 325.78C594.49 323.82 593.91 321.22 591.95 319.98C589.99 318.73 587.4 319.32 586.15 321.27C584.9 323.23 585.48 325.83 587.44 327.07H587.45Z" fill="#E9BE51" stroke="#101727" stroke-miterlimit="10"/>
<path d="M447.5 425.96L471.11 440.19L487.41 450.01H487.43L498.51 432.42L499.14 431.43L475 417.93C475 417.93 474.27 418.65 473.24 419.73C472.13 420.89 470.67 422.46 469.41 423.98C449.6 413.69 447.51 425.95 447.51 425.95L447.5 425.96Z" fill="#EAE2CF" stroke="#101727" stroke-miterlimit="10"/>
<path d="M465.01 415.6L473.23 419.73L498.51 432.43L499.14 431.44L504.87 422.35L503.81 421.83L471.87 406.36L468.85 404.9L465.01 415.6Z" fill="#01654D" stroke="#101727" stroke-miterlimit="10"/>
<path d="M465.01 415.6L498.51 432.43" stroke="#101727" stroke-miterlimit="10"/>
<path d="M468.85 404.9L504.87 422.35" stroke="#101727" stroke-miterlimit="10"/>
<path d="M583.26 448.95L584.32 469.43H629.77C629.77 469.43 636.22 455.65 613.9 455.65C612.44 451.48 612.31 448.69 612.31 448.69L583.27 448.95H583.26Z" fill="#EAE2CF" stroke="#101727" stroke-miterlimit="10"/>
<path d="M577.13 451.7H618.88L620.25 440.41H575.76L577.13 451.7Z" fill="#01654D" stroke="#101727" stroke-miterlimit="10"/>
<path d="M569.68 315.1L573.56 309.82" stroke="#101727" stroke-miterlimit="10"/>
<path d="M586.16 321.27C587.41 319.31 590 318.73 591.96 319.98L585.36 315.78L580.38 322.32C580.34 322.38 580.29 322.44 580.24 322.49L587.45 327.07C585.49 325.82 584.91 323.23 586.16 321.27Z" fill="#E9BE51" stroke="#101727" stroke-miterlimit="10" stroke-linecap="round"/>
<path d="M536.09 295.83L537.08 308.88" stroke="#101727" stroke-miterlimit="10"/>
<path d="M594.531 335.46L594.06 335.51L566.73 338.55" stroke="#101727" stroke-miterlimit="10"/>
<path d="M592.859 334.94C593.229 335.14 593.599 335.32 593.989 335.49L594.459 335.44L594.529 335.47L596.819 336.45C596.819 336.45 596.819 336.45 596.829 336.45C597.499 336.62 598.189 336.75 598.899 336.85L604.259 337.03C619.819 335.93 639.319 321.42 637.649 292.12C636.819 277.61 630.239 268.32 621.259 262.38C609.929 265.72 606.289 279.22 606.109 279.91C621.149 290.43 612.929 307.59 602.349 313.01C601.089 313.65 599.799 314.13 598.519 314.41L598.539 314.5C601.359 324.92 593.089 334.7 592.889 334.94H592.859Z" fill="#EAE2CF" stroke="#101727" stroke-miterlimit="10"/>
<path d="M593.99 335.48C593.99 335.48 594.04 335.5 594.06 335.51C594.93 335.89 595.85 336.2 596.81 336.44" stroke="#101727" stroke-miterlimit="10"/>
<path d="M604.251 337.03C602.401 337.16 600.601 337.1 598.891 336.85" stroke="#101727" stroke-miterlimit="10"/>
<path d="M531.05 395.1L531.09 385.6C531.1 383.83 532.54 382.39 534.31 382.39H534.33C534.99 382.39 535.6 382.6 536.11 382.93L536.13 378.55V377.44C536.14 375.66 537.59 374.23 539.36 374.23H539.38C539.9 374.23 540.39 374.36 540.83 374.58V372.69C540.85 370.91 542.3 369.47 544.08 369.48C545.05 369.48 545.91 369.91 546.5 370.59C546.99 371.15 547.29 371.89 547.29 372.7V372.72L547.27 375.92L547.24 380.43C547.26 390.62 537.16 403.63 529.42 397.65L531.05 395.07V395.1Z" fill="#E9BE51" stroke="#101727" stroke-miterlimit="10"/>
<path d="M542.54 385.2L542.58 377.49C542.58 377.34 542.58 377.19 542.55 377.05C542.37 376.04 541.7 375.05 540.82 374.6" stroke="#101727" stroke-miterlimit="10"/>
<path d="M531.051 395.28V395.1" stroke="#101727" stroke-miterlimit="10"/>
<path d="M536.109 382.93C536.979 383.51 537.549 384.51 537.539 385.63L537.499 393.34" stroke="#101727" stroke-miterlimit="10"/>
<path d="M532.341 379.03L532.29 379.11C532.13 379.36 531.94 379.59 531.73 379.78" stroke="#101727" stroke-miterlimit="10"/>
<path d="M539.57 341.56C540.11 349.64 541.44 356.34 542.22 359.75C535.98 359.22 524.25 365.01 521.71 366.75C520.36 360.79 519.04 353.89 518.17 346.67" fill="#EAE2CF"/>
<path d="M539.57 341.56C540.11 349.64 541.44 356.34 542.22 359.75C535.98 359.22 524.25 365.01 521.71 366.75C520.36 360.79 519.04 353.89 518.17 346.67" stroke="#101727" stroke-miterlimit="10"/>
<path d="M521.709 366.76C523.039 372.63 524.409 377.6 525.439 381.06C526.429 384.42 527.099 386.36 527.099 386.36L527.439 386.57L531.719 379.78L531.869 379.54L542.809 362.2C542.809 362.2 542.569 361.32 542.209 359.75C535.969 359.22 524.239 365.01 521.699 366.75L521.709 366.76Z" fill="#E9BE51" stroke="#101727" stroke-miterlimit="10"/>
<path d="M518.171 346.68C517.911 344.48 517.681 342.25 517.511 340.01C516.761 330.38 518.001 318.94 520.931 307.54C520.931 307.54 532.091 306.36 537.091 308.88L539.571 341.42V341.56" fill="#EAE2CF"/>
<path d="M518.171 346.68C517.911 344.48 517.681 342.25 517.511 340.01C516.761 330.38 518.001 318.94 520.931 307.54C520.931 307.54 532.091 306.36 537.091 308.88L539.571 341.42V341.56" stroke="#101727" stroke-miterlimit="10"/>
<path d="M543.98 263.1C533.26 273.85 525.25 290.66 520.92 307.53C520.92 307.53 532.08 306.35 537.08 308.87L539.56 341.41C539.56 341.41 539.56 341.51 539.57 341.55L557.08 339.61L557.3 339.26L557.33 339.2L569.53 319.87C568.92 319.26 568.6 318.43 568.6 317.6C568.6 316.94 568.81 316.27 569.23 315.69L569.27 315.63C568.19 316.93 566.27 317.17 564.88 316.16C564.02 315.53 563.57 314.55 563.57 313.56C563.57 313.07 563.68 312.58 563.91 312.12L561.22 310.41C559.57 309.37 559.09 307.18 560.14 305.53L560.86 304.4C561.91 302.75 564.09 302.27 565.74 303.32L568.92 305.34L569.29 304.85C571.4 301.98 575.56 301.21 578.31 303.48C579.63 304.57 579.69 305.74 580.05 306.21V306.26C581.21 306.35 582.35 306.76 583.34 307.52C584.47 308.38 584.92 309.55 585.36 310.55C587.09 310.92 588.77 312.18 590.92 313.41C593.24 314.74 595.87 314.99 598.5 314.41C599.79 314.13 601.08 313.65 602.33 313.01L593.28 274.32C598.71 275.77 602.92 277.7 606.09 279.91C606.27 279.22 609.92 265.72 621.24 262.38C606.03 252.33 583.95 251.91 571.22 252.18L571.2 252.2L571.24 252.24L570.18 275.63C570.18 275.63 563.99 264.63 556.22 266.01C548.45 267.39 546.23 277.76 546.23 277.76L544.53 263.04L543.97 263.11L543.98 263.1ZM552.31 282.42C552.14 281.48 552.74 280.58 553.65 280.42C554.56 280.26 555.43 280.89 555.6 281.83C555.77 282.77 555.17 283.67 554.26 283.84C553.35 284 552.47 283.37 552.31 282.42ZM552.52 272.61C553.43 272.45 554.31 273.08 554.47 274.03C554.64 274.97 554.04 275.87 553.13 276.03C552.22 276.19 551.35 275.56 551.18 274.61C551.01 273.67 551.61 272.77 552.52 272.61Z" fill="#EAE2CF" stroke="#101727" stroke-miterlimit="10"/>
<path d="M561.229 310.41L563.919 312.12C563.999 311.96 564.089 311.8 564.199 311.65L568.919 305.34L565.739 303.32C564.089 302.27 561.909 302.76 560.859 304.4L560.139 305.53C559.089 307.18 559.579 309.36 561.219 310.41H561.229Z" fill="#E9BE51" stroke="#101727" stroke-miterlimit="10"/>
<path d="M576.359 323.3L574.559 326.16C574.559 326.16 577.439 323.47 590.949 333.72C591.549 334.18 592.189 334.58 592.869 334.94C593.069 334.71 601.339 324.93 598.519 314.5L598.499 314.41C595.869 314.99 593.239 314.74 590.919 313.41C588.769 312.18 587.099 310.92 585.359 310.55C583.429 310.13 581.419 310.82 578.589 313.87L575.679 317.83L575.179 318.5C575.049 318.68 574.939 318.87 574.849 319.07C574.219 320.43 574.619 322.09 575.869 323.01C576.019 323.12 576.189 323.22 576.359 323.3ZM587.449 327.07L580.239 322.49C580.289 322.44 580.329 322.38 580.379 322.32L585.359 315.78L591.959 319.98C593.919 321.23 594.499 323.82 593.259 325.78C592.009 327.74 589.409 328.32 587.459 327.07H587.449Z" fill="#E9BE51" stroke="#101727" stroke-miterlimit="10"/>
<path d="M566.219 313.9L570.959 314.11L572.599 318.17L569.919 321.5C564.609 323.37 563.079 314.27 566.209 313.9H566.219Z" fill="#E9BE51" stroke="#101727" stroke-miterlimit="10"/>
<path d="M563.58 313.56C563.58 314.55 564.04 315.53 564.89 316.16C566.27 317.17 568.2 316.93 569.28 315.63C569.29 315.62 569.3 315.6 569.31 315.59C569.34 315.55 569.37 315.51 569.4 315.47L569.67 315.1L574.31 308.88C575.68 307.02 577.89 306.08 580.05 306.25V306.2C579.69 305.72 579.63 304.56 578.31 303.47C575.56 301.2 571.4 301.97 569.29 304.84L568.92 305.33L564.2 311.64C564.09 311.79 563.99 311.95 563.92 312.11C563.69 312.57 563.58 313.06 563.58 313.55V313.56Z" fill="#E9BE51" stroke="#101727" stroke-miterlimit="10"/>
<path d="M568.61 317.61C568.61 318.44 568.93 319.27 569.54 319.88C569.66 320 569.78 320.11 569.92 320.21C571.36 321.27 573.38 320.96 574.43 319.52L574.79 319.03L575.18 318.5L575.67 317.83L578.58 313.87C581.41 310.82 583.42 310.13 585.35 310.55C584.91 309.54 584.46 308.38 583.33 307.52C582.34 306.76 581.2 306.35 580.04 306.26C577.89 306.09 575.68 307.03 574.3 308.89L569.66 315.11L569.39 315.48C569.39 315.48 569.33 315.56 569.3 315.6C569.29 315.61 569.28 315.63 569.27 315.64L569.23 315.7C568.81 316.28 568.6 316.95 568.6 317.61H568.61Z" fill="#E9BE51" stroke="#101727" stroke-miterlimit="10"/>
<path d="M487.43 450.02L496.13 436.32L502.28 440.67L529.42 397.67L531.05 395.09L531.09 385.59C531.1 383.82 532.54 382.38 534.31 382.38H534.33C534.99 382.38 535.6 382.59 536.11 382.92L536.13 378.54V377.43C536.14 375.65 537.59 374.22 539.36 374.22H539.38C539.9 374.22 540.39 374.35 540.83 374.57V372.68C540.85 370.9 542.3 369.46 544.08 369.47C545.05 369.47 545.91 369.9 546.5 370.58L559.08 350.64L561.94 346.11L566.73 338.51L566.92 338.2L574.54 326.12L576.34 323.26C576.17 323.18 576.01 323.08 575.85 322.97C574.6 322.05 574.2 320.39 574.83 319.03L574.77 318.99L574.41 319.48C573.36 320.92 571.34 321.23 569.9 320.17C569.76 320.07 569.64 319.96 569.52 319.84L557.32 339.17L557.29 339.23L557.07 339.58L555.01 342.85L542.81 362.17L531.87 379.51L531.72 379.75L527.44 386.54L504.87 422.31L499.14 431.4L498.51 432.39L487.43 449.99V450.02Z" fill="#E9BE51" stroke="#101727" stroke-miterlimit="10"/>
<path d="M552.31 282.42C552.48 283.36 553.35 284 554.26 283.84C555.17 283.68 555.77 282.78 555.6 281.83C555.43 280.89 554.56 280.25 553.65 280.42C552.74 280.58 552.14 281.48 552.31 282.42Z" fill="#EAE2CF" stroke="#101727" stroke-miterlimit="10"/>
<path d="M551.169 274.61C551.339 275.55 552.209 276.19 553.119 276.03C554.029 275.87 554.629 274.97 554.459 274.03C554.289 273.09 553.419 272.45 552.509 272.61C551.599 272.77 550.999 273.67 551.169 274.61Z" fill="#EAE2CF" stroke="#101727" stroke-miterlimit="10"/>
<path d="M556.221 266.01C563.991 264.63 570.181 275.63 570.181 275.63L571.241 252.24L571.201 252.2L556.221 266.01Z" fill="#EAE2CF" stroke="#101727" stroke-miterlimit="10"/>
<path d="M606.09 279.94C606.09 279.94 606.09 279.93 606.09 279.91" stroke="#101727" stroke-miterlimit="10"/>
<path d="M535.07 233.22C536.26 231.82 537.81 231.18 539.26 231.25" stroke="#101727" stroke-miterlimit="10"/>
<path d="M542.221 359.76C542.221 359.76 542.271 359.76 542.291 359.76" stroke="#101727" stroke-miterlimit="10"/>
<path d="M580.24 322.49C579.61 323.24 578.7 323.63 577.77 323.63C577.29 323.63 576.8 323.52 576.35 323.29" stroke="#101727" stroke-miterlimit="10" stroke-linecap="round"/>
<path d="M531.541 366.76L526.501 375.64C526.201 376.17 526.061 376.74 526.061 377.31C526.061 378.37 526.561 379.42 527.491 380.07C527.701 380.22 527.911 380.34 528.141 380.43C529.361 380.94 530.771 380.68 531.731 379.79" stroke="#101727" stroke-miterlimit="10"/>
<path d="M556.221 266.01L558.471 288.31" stroke="#101727" stroke-miterlimit="10"/>
<path d="M620.25 440.41H575.76" stroke="#101727" stroke-miterlimit="10"/>
<path d="M618.881 451.7H577.131" stroke="#101727" stroke-miterlimit="10"/>
<path d="M544.53 198.32C539.9 198.42 537.33 201.98 537.33 201.98" stroke="#101727" stroke-miterlimit="10"/>
<path d="M536.701 212.79L533.98 207.52L536.021 206.53L538.74 211.8L536.701 212.79Z" fill="#01654D"/>
<path d="M540.01 211.23C541.41 214.41 540.95 216.57 540.54 217.77C539.3 217.36 537.23 216.4 535.43 213.36C535.33 213.38 535.241 213.4 535.141 213.42C534.401 213.56 533.68 213.62 532.98 213.63C535.62 218.74 539.17 219.76 540.5 220.15L540.55 220.17C540.81 220.25 541.06 220.26 541.31 220.21C541.83 220.11 542.28 219.76 542.48 219.24L542.5 219.17C542.99 217.9 544.281 214.53 541.651 209.43C541.191 210.09 540.64 210.7 539.99 211.24L540.01 211.23Z" fill="white"/>
</g>
<defs>
<clipPath id="clip0_2680_931">
<rect width="678" height="470" fill="white"/>
</clipPath>
</defs>
</svg>
