<?xml version="1.0" encoding="UTF-8"?>
<svg id="Capa_2" data-name="Capa 2" xmlns="http://www.w3.org/2000/svg" viewBox="0 0 867.97 575.37">
  <defs>
    <style>
      .cls-1 {
        stroke: #ede6d7;
      }

      .cls-1, .cls-2, .cls-3, .cls-4, .cls-5, .cls-6, .cls-7, .cls-8, .cls-9, .cls-10, .cls-11, .cls-12, .cls-13 {
        stroke-miterlimit: 10;
      }

      .cls-1, .cls-3, .cls-8, .cls-9 {
        fill: none;
      }

      .cls-14, .cls-15, .cls-11 {
        fill: #0f5339;
      }

      .cls-15 {
        opacity: .12;
      }

      .cls-2 {
        fill: #e3b241;
      }

      .cls-2, .cls-3, .cls-4, .cls-7, .cls-8, .cls-9, .cls-11 {
        stroke: #0e121d;
      }

      .cls-3 {
        stroke-dasharray: 7;
      }

      .cls-4, .cls-16 {
        fill: #fff;
      }

      .cls-5, .cls-6, .cls-17, .cls-13 {
        fill: #e6b537;
      }

      .cls-5, .cls-6, .cls-10, .cls-12 {
        stroke: #0e121d;
      }

      .cls-18 {
        fill: #0e121d;
      }

      .cls-6, .cls-9 {
        stroke-linecap: round;
      }

      .cls-7 {
        fill: #a99e53;
      }

      .cls-10 {
        fill: #eae2cf;
      }

      .cls-12 {
        fill: #e4dbc3;
      }

      .cls-13 {
        stroke: #131f34;
      }
    </style>
  </defs>
  <g id="Layer_6" data-name="Layer 6">
    <g>
      <path class="cls-15" d="M266.96,203.25l-15.72.17.07,201.18-12.62-.02-.03-38.43h-22.96s-.02-16.95-.02-16.95h-41.07s-.01,16.91-.01,16.91l-12.92.1v115.96s-9.97,9.61-9.97,9.61l.04,50.14h-4.56s.01-38.05.01-38.05l-17.06-1.93c-5.11-.58-10.12,1.74-15.24,2.77-16.09,3.22-29.3-.96-43.47,1.73l-.11,17.05-1.36.8-.4-14.07-9.81-.32c.07-3.03-.29-8.64-2.44-9.98l-11.43-7.11c-6,1.66-15.48,6.71-15.66,14.04l-1.03,40.37-6.57,1.31c-1.3.26-1.92,3.43-2.52,4.6l-.88,1.72v19.73h127.97s700.02-.02,700.02-.02l.12-74.52,6-.74-32.63-26.65-5.48,3.45-.17-9.23-12.74.07-.18,17.72-12.76,7.65.26-93.63-7.38-.28-.04-17.85-34.7.04-.1,17.88-8.89.08-.55,57.92h-9.97s.26-48.52.26-48.52l.88-123.42-11.11-.14v-16.9s-7.54-.1-7.54-.1l.06-23.37-10.4-.21v-32.9s-4.74-.05-4.74-.05v33s-10.69.11-10.69.11l-.03,23.49-7.52.11-.07,16.74-9.44.46v184.22s-9.13.11-9.13.11l.04-296.39h-7.73s-.09-17.24-.09-17.24l-12.9-.24v-25.49s-37.89-.03-37.89-.03l-.04,25.58-13.61.18v17.26s-7.7.29-7.7.29v194.32s-25.03.12-25.03.12l-.03,70.47-9.5.03.04-99.74-6.33-.28v-38.92s-3.75-.29-3.75-.29l-.03-11.69-10.71-13.47v-10.66s-3.51,0-3.51,0l-.09,10.58-10.75,13.44.02,11.82-4.69.34.09,38.76-5.87.25-.07,21.18-9.85-.24v-115.91s-12.87-.29-12.87-.29l-.08-16.96h-12.55s-.06-17.93-.06-17.93h-11.7s.05,17.91.05,17.91l-11.85.11v16.96s-16.43.11-16.43.11l-.03,184.16-.16,20.16-8.58-.03-.16-17.87-5.61-.16v-47.87c-.25-.3-.96-1.09-.95-1.08l-8.09-.22v-81.59s-7.89-.16-7.89-.16l-.09-12.2-32.45.07-.1,12.12-11.71.31-.02,176.31-12.34,9.47.06-96.76-12.73-.04v-165.39s-10.84-.36-10.84-.36l-.08-18.58-9.63-.14-.02-28.73-15.01.16"/>
      <polyline class="cls-8" points="0 574.74 712.42 574.74 771.1 574.74 867.97 574.74"/>
      <polygon class="cls-11" points="666.91 191.37 406.62 19.12 154.24 191.28 145.58 178.59 406.49 .6 675.39 178.55 666.91 191.37"/>
      <polygon class="cls-4" points="204.2 514.79 204.2 233.05 407.96 94.06 617.86 232.96 617.55 514.83 204.2 514.79"/>
      <line class="cls-3" x1="202.85" y1="156.07" x2="202.85" y2="226.8"/>
      <line class="cls-3" x1="618.31" y1="156.07" x2="618.31" y2="226.8"/>
      <polygon class="cls-13" points="224.14 535.61 224.14 425.16 289.5 425.16 289.5 535.61 620.67 535.61 620.67 550.76 99.42 550.76 99.42 535.61 224.14 535.61"/>
      <rect class="cls-13" x="231.74" y="486.53" width="11.09" height="4.85"/>
      <g>
        <rect class="cls-7" x="449.47" y="407.92" width="55.73" height="55.65" transform="translate(913.07 -41.59) rotate(90)"/>
        <path class="cls-2" d="M477.87,415.48c-.54,1.48-12.67,23.26-12.67,23.26h11.6l-3.51,17.26,16.18-21.84h-15.1l3.51-18.67Z"/>
      </g>
      <rect class="cls-3" x="213.72" y="171.65" width="75.35" height="308.75" transform="translate(577.42 74.63) rotate(90)"/>
      <rect class="cls-3" x="441.99" y="288.51" width="75.35" height="75.03" transform="translate(805.69 -153.64) rotate(90)"/>
      <g>
        <rect class="cls-7" x="71.99" y="288.02" width="76.25" height="76.13" transform="translate(436.2 215.98) rotate(90)"/>
        <rect class="cls-13" x="113.31" y="299.18" width="23.67" height="23.67"/>
        <rect class="cls-13" x="83.25" y="299.18" width="23.67" height="23.67"/>
        <rect class="cls-13" x="83.25" y="329.33" width="23.67" height="23.67"/>
        <rect class="cls-13" x="113.31" y="329.33" width="23.67" height="23.67"/>
      </g>
      <g>
        <circle class="cls-17" cx="72.88" cy="286.39" r="16.06"/>
        <polygon class="cls-16" points="72.88 278.64 75.4 283.74 81.03 284.56 76.96 288.53 77.92 294.14 72.88 291.49 67.84 294.14 68.81 288.53 64.73 284.56 70.36 283.74 72.88 278.64"/>
      </g>
      <g>
        <circle class="cls-17" cx="543.51" cy="85.43" r="16.06"/>
        <polygon class="cls-16" points="543.51 77.68 546.03 82.78 551.66 83.6 547.59 87.57 548.55 93.18 543.51 90.53 538.48 93.18 539.44 87.57 535.36 83.6 540.99 82.78 543.51 77.68"/>
      </g>
      <g>
        <circle class="cls-17" cx="507.98" cy="406.36" r="16.06"/>
        <polygon class="cls-16" points="507.98 398.61 510.5 403.71 516.13 404.53 512.05 408.5 513.02 414.11 507.98 411.46 502.94 414.11 503.9 408.5 499.83 404.53 505.46 403.71 507.98 398.61"/>
      </g>
      <line class="cls-3" x1="330.33" y1="298.26" x2="330.33" y2="354.54"/>
      <g>
        <path class="cls-14" d="M682.43,460.06l-.02,3.8,24.81-5.82,13.34,82.38.69,4.28,41.7-.06-.43-4.22-12.26-120.74-.2-2.02-6.36-.21h-1.34s-1.11-.48-1.11-.48c0,0,0,0-.01,0l-2.71-1.17h0l-.08-.04-.56.06-32.36,3.63h0s-5.69,9.03-5.69,9.03l-3.4,5.38-14.94,23.67c.58.67.93,1.55.93,2.51v.02s0,0,0,0Z"/>
        <path class="cls-14" d="M673.27,423.04c.65,9.59,2.22,17.55,3.14,21.6.43,1.87.72,2.91.72,2.91l14.48-22.94h0l2.45-3.88-20.79,2.31h0Z"/>
        <path class="cls-14" d="M592.86,500.04l37.7,18.93.25-.61,19.09-46.87,6.6-1.55c-1.22-4.11-2.84-10.01-4.43-16.98-1.61-7.08-3.17-15.27-4.21-23.85l-29.2,6.98-25.78,63.89h0l-.02.06h0Z"/>
        <path class="cls-10" d="M690.69,330.91l2.36,2.41,17.78-16.4.02-.02-5.98-9.83c-2.75,11.85-8.53,18.5-11.29,21.67l-.17.2c-.77.89-1.71,1.55-2.72,1.97h0Z"/>
        <path class="cls-8" d="M684.77,324.85l5.92,6.06c1.02-.42,1.95-1.08,2.72-1.97l.17-.2c2.76-3.18,8.54-9.82,11.29-21.67l-5.35-8.79-9.94,17.89-4.82,8.68h0Z"/>
        <path class="cls-10" d="M697.87,285.19l-36.51,3.76c.54,4.76,1.42,9,2.53,12.77,0,0,0,.01,0,.02,3.59,7.36,7.9,9.7,15.52,9.62,3.83-.67,7.55-2.3,10.82-4.82,7.89-6.09,8.06-12.4,7.63-21.35h0ZM687.01,293.18c1.02-.4,2.18.13,2.58,1.2.41,1.06-.1,2.25-1.12,2.65-1.02.4-2.18-.13-2.58-1.2-.41-1.06.09-2.25,1.12-2.65ZM672.16,296.06c1.02-.4,2.18.13,2.58,1.2.41,1.06-.09,2.25-1.12,2.65-1.02.4-2.18-.14-2.58-1.2-.41-1.06.09-2.25,1.12-2.65Z"/>
        <path class="cls-8" d="M697.87,285.19c.43,8.95.26,15.27-7.63,21.35-3.27,2.52-6.99,4.15-10.82,4.82-7.62.09-11.93-2.26-15.52-9.62v.04c.91,3.06,1.97,5.82,3.12,8.29.25.54.51,1.07.77,1.58.07.14.14.28.21.41.8,1.56,1.64,3,2.5,4.33.28.43.56.85.84,1.26,1.31,1.91,2.65,3.57,3.96,5.01.19.21.37.41.56.61.18.2.37.39.55.58.18.19.37.37.54.55.61.62,1.22,1.18,1.8,1.7.44.39.87.76,1.28,1.11.16.13.31.26.47.39s.3.25.46.37c.89.72,1.68,1.31,2.34,1.8l.26.2c2.12,1.58,4.77,1.89,7.03,1,.04-.02.08-.03.11-.05,1.02-.42,1.95-1.08,2.72-1.97l.17-.2c2.76-3.18,8.54-9.82,11.29-21.67.64-2.76,1.12-5.8,1.36-9.14.29-4.06.22-8.57-.33-13.56l-44.55,4.56v.02l36.52-3.76h0Z"/>
        <path class="cls-17" d="M659.65,273.77l1.26,11.15.45,4v.02l36.52-3.76,8.04-.82v-.02l-1.7-15.15c-1.16-10.32-10.19-17.86-20.17-16.84l-4.37.45-.76.08-3.3.34c-9.98,1.02-17.13,10.23-15.97,20.56Z"/>
        <path class="cls-5" d="M705.9,284.34h0l-56.29,5.79c-1.07.11-2.03-.69-2.16-1.8h0c-.13-1.11.64-2.09,1.71-2.2l23.86-2.45"/>
        <path class="cls-10" d="M706.24,297.93c2.66-.53,5.89-1.31,7.16-6.32,1.32-5.19-2.96-10.2-7.5-7.24.55,4.99.62,9.5.33,13.56Z"/>
        <path class="cls-8" d="M705.94,297.98c.1-.02.2-.04.29-.06"/>
        <path class="cls-8" d="M681.39,291.2c.64,5.44-.87,11.3-4.54,15.75-2.24,2.71,3,3.69,6.15-1.79"/>
        <path class="cls-18" d="M667.02,310.26c.25.54.51,1.07.77,1.58.07.14.14.28.21.41.8,1.56,1.64,3,2.5,4.33.28.43.56.85.84,1.26,1.31,1.91,2.65,3.57,3.96,5.01.19.21.37.41.56.61.18.2.37.39.55.58.18.19.37.37.54.55.61.62,1.22,1.18,1.8,1.7.44.39.87.76,1.28,1.11.16.13.31.26.47.39s.3.25.46.37c.89.72,1.68,1.31,2.34,1.8l.26.2c2.12,1.58,4.77,1.89,7.03,1,.04-.02.08-.03.11-.05,1.02-.42,1.95-1.08,2.72-1.97l.17-.2c2.76-3.18,8.54-9.82,11.29-21.67.64-2.76,1.12-5.8,1.36-9.14.29-4.06.22-8.57-.33-13.56l-8.04.82c.43,8.95.26,15.27-7.63,21.35-3.27,2.52-6.99,4.15-10.82,4.82-1.2.21-2.41.33-3.62.34h-.02c-2.66.04-5.32-.38-7.88-1.3h0c-.29-.11-.59-.22-.87-.33h0Z"/>
        <path class="cls-10" d="M685.9,295.83c.4,1.06,1.56,1.6,2.58,1.2,1.02-.4,1.52-1.58,1.12-2.65-.41-1.06-1.56-1.6-2.58-1.2-1.02.4-1.52,1.59-1.12,2.65Z"/>
        <path class="cls-10" d="M671.05,298.71c.41,1.06,1.56,1.6,2.58,1.2,1.02-.4,1.52-1.59,1.12-2.65-.4-1.06-1.56-1.6-2.58-1.2s-1.52,1.59-1.12,2.65Z"/>
        <path class="cls-8" d="M686.71,289.97c2.1-.45,4.04.07,5.4,1.19"/>
        <path class="cls-1" d="M690.94,314.64c-2.01,3.12-8.02,5.68-11.71,3.26"/>
        <path class="cls-10" d="M678.75,326.1l.43,3.69,2.02,17.48s2.64-12.31,11.86-13.95l-2.36-2.41s-.08.03-.11.05c-2.27.89-4.91.59-7.03-1l-.26-.2c-.65-.49-1.45-1.08-2.34-1.8-.15-.12-.3-.24-.46-.37s-.31-.26-.47-.39c-.41-.35-.84-.72-1.28-1.11h0Z"/>
        <path class="cls-18" d="M663.89,301.74v.04c1.45,3.99,2.2,6.89,3.23,8.63h0c.75,1.27,1.24,1.92,1.24,1.92l6.53,1.06,1.21-.6,3.32-1.42c-7.62.09-11.93-2.26-15.52-9.62Z"/>
        <line class="cls-8" x1="611.34" y1="551.82" x2="624.52" y2="530.93"/>
        <path class="cls-10" d="M705.53,419.45l32.36-3.63c-.46-.2-.9-.41-1.34-.65-.81-.43-1.57-.91-2.28-1.45-16.04-12.16-19.46-8.97-19.46-8.97h0l-9.05,14.34-.23.36h0Z"/>
        <path class="cls-10" d="M579.28,560.15l12.71-20,19.35,11.67h.02s10.33-16.25,10.33-16.25l7.31,5.16.07.05-10.31,16.23,19.3,11.78-3.87,6.09h-61.29c1.29-5.07,3.43-10.07,6.39-14.73h0Z"/>
        <polyline class="cls-8" points="611.34 551.82 592.27 539.7 591.98 540.15"/>
        <path class="cls-10" d="M607.98,556.44l-4.85,7.63c-.54.85-.8,1.79-.8,2.68,0,1.31.56,2.52,1.63,3.19,1.79,1.14,4.33.36,5.67-1.74l4.85-7.63"/>
        <path class="cls-5" d="M730.13,405.83c2.32,1.48,5.41.79,6.89-1.54,1.47-2.33.79-5.41-1.54-6.89-2.32-1.48-5.41-.79-6.89,1.54-1.48,2.33-.79,5.41,1.54,6.89h0Z"/>
        <path class="cls-10" d="M563.95,523.25l28.03,16.9,19.35,11.67h.02s13.16-20.88,13.16-20.88l.74-1.18-28.67-16.03s-.87.86-2.09,2.14c-1.32,1.37-3.05,3.24-4.55,5.05-23.52-12.21-26,2.34-26,2.34h0Z"/>
        <polygon class="cls-14" points="584.74 510.96 594.5 515.86 624.52 530.93 625.26 529.76 632.07 518.97 630.8 518.35 592.88 499.98 592.88 499.98 589.3 498.25 584.74 510.96"/>
        <line class="cls-8" x1="584.74" y1="510.96" x2="624.51" y2="530.93"/>
        <line class="cls-8" x1="589.3" y1="498.25" x2="632.07" y2="518.97"/>
        <path class="cls-10" d="M725.15,550.55l1.26,24.32h53.97s7.66-16.37-18.85-16.37c-1.74-4.96-1.89-8.26-1.89-8.26l-34.49.3h0Z"/>
        <polygon class="cls-14" points="717.87 553.81 767.44 553.81 769.07 540.41 716.25 540.41 717.87 553.81"/>
        <line class="cls-8" x1="709.02" y1="391.62" x2="713.64" y2="385.34"/>
        <path class="cls-6" d="M728.59,398.94c1.48-2.32,4.56-3.01,6.89-1.54l-7.84-4.98-5.91,7.76c-.05.07-.11.14-.16.2l8.56,5.44c-2.33-1.48-3.01-4.56-1.54-6.89h0Z"/>
        <line class="cls-8" x1="669.14" y1="368.73" x2="670.32" y2="384.23"/>
        <polyline class="cls-8" points="738.53 415.79 737.98 415.85 705.53 419.46"/>
        <line class="cls-8" x1="708.57" y1="379.44" x2="708.57" y2="379.44"/>
        <path class="cls-10" d="M736.55,415.17c.43.24.88.45,1.34.65l.56-.06.08.04h0l2.71,1.17s0,0,.01,0c.8.2,1.61.36,2.45.48l6.36.21c18.48-1.3,41.64-18.53,39.65-53.32-.99-17.22-8.8-28.26-19.46-35.31-13.45,3.97-17.78,19.99-17.99,20.81,17.86,12.49,8.1,32.86-4.47,39.3-1.49.76-3.02,1.33-4.55,1.66l.02.11c3.34,12.38-6.47,23.99-6.71,24.27h0Z"/>
        <path class="cls-8" d="M737.89,415.82s.06.03.09.04c1.03.45,2.13.82,3.27,1.11"/>
        <path class="cls-8" d="M750.07,417.65c-2.2.15-4.34.09-6.36-.21"/>
        <path class="cls-5" d="M663.15,486.6l.05-11.28c.01-2.1,1.73-3.81,3.83-3.81h.02c.78,0,1.5.24,2.11.65l.02-5.2v-1.31c.02-2.11,1.73-3.81,3.83-3.81h.02c.62,0,1.2.15,1.72.41v-2.24c.02-2.12,1.75-3.82,3.86-3.81,1.15,0,2.17.52,2.87,1.32.58.67.93,1.55.93,2.51v.02s-.02,3.8-.02,3.8l-.03,5.36c.02,12.1-11.97,27.55-21.16,20.45l1.93-3.06h0Z"/>
        <path class="cls-8" d="M676.8,474.85l.05-9.15c0-.18,0-.35-.03-.52h0c-.22-1.19-1.01-2.38-2.06-2.91"/>
        <line class="cls-8" x1="663.15" y1="486.83" x2="663.15" y2="486.6"/>
        <path class="cls-8" d="M669.16,472.16c1.03.69,1.71,1.87,1.7,3.21l-.05,9.15"/>
        <path class="cls-8" d="M664.69,467.53l-.06.1c-.19.3-.41.57-.66.8"/>
        <path class="cls-10" d="M673.27,423.04c.65,9.59,2.22,17.55,3.14,21.6-7.41-.63-21.34,6.24-24.35,8.32-1.61-7.08-3.17-15.27-4.21-23.85"/>
        <path class="cls-5" d="M652.07,452.96c1.58,6.97,3.21,12.87,4.43,16.98,1.18,3.99,1.97,6.3,1.97,6.3l.4.25,5.09-8.06h0l.17-.28,12.99-20.59s-.29-1.04-.72-2.91c-7.41-.63-21.34,6.24-24.35,8.32h0Z"/>
        <path class="cls-10" d="M647.86,429.11c-.31-2.61-.58-5.26-.79-7.92-.89-11.43.59-25.02,4.06-38.56,0,0,13.25-1.4,19.19,1.59l2.94,38.64v.17"/>
        <path class="cls-12" d="M678.51,329.87c-12.73,12.77-22.24,32.72-27.38,52.76,0,0,13.25-1.4,19.19,1.59l2.94,38.64c0,.06,0,.11.01.17l20.79-2.31.26-.42.04-.07,14.49-22.96c-.73-.73-1.11-1.71-1.11-2.69,0-.79.24-1.58.75-2.27l.05-.07c-1.28,1.54-3.57,1.83-5.21.63-1.02-.75-1.56-1.91-1.56-3.09,0-.58.13-1.17.41-1.71l-3.19-2.03c-1.95-1.24-2.53-3.84-1.29-5.79l.85-1.34c1.24-1.95,3.84-2.53,5.79-1.29l3.78,2.4.44-.59h0c2.51-3.41,7.44-4.33,10.71-1.63,1.56,1.29,1.64,2.68,2.06,3.24v.06c1.37.11,2.73.6,3.9,1.5,1.34,1.02,1.87,2.41,2.39,3.6,2.06.44,4.05,1.94,6.6,3.4,2.75,1.58,5.88,1.87,9,1.19,1.53-.33,3.06-.9,4.55-1.66l-10.74-45.94c6.45,1.73,11.45,4.01,15.21,6.64.22-.82,4.54-16.85,17.99-20.81-18.06-11.93-44.28-12.43-59.4-12.12l-.02.02.05.05-1.26,27.77s-7.35-13.06-16.58-11.42c-9.22,1.64-11.86,13.95-11.86,13.95l-2.02-17.48-.66.08h0ZM688.4,352.81c-.2-1.12.52-2.19,1.6-2.38,1.08-.2,2.12.56,2.32,1.68.2,1.12-.51,2.19-1.59,2.38-1.08.19-2.12-.56-2.32-1.68h0ZM688.64,341.16c1.08-.19,2.12.56,2.32,1.68.2,1.12-.52,2.19-1.6,2.38-1.08.19-2.12-.56-2.32-1.68-.2-1.12.51-2.19,1.59-2.38Z"/>
        <path class="cls-5" d="M698.99,386.05l3.19,2.03c.09-.19.21-.38.34-.56l5.6-7.5-3.78-2.4c-1.95-1.24-4.55-.67-5.79,1.29l-.85,1.34c-1.24,1.95-.67,4.55,1.29,5.79Z"/>
        <path class="cls-5" d="M716.95,401.35l-2.14,3.4h0s3.42-3.19,19.46,8.97c.71.54,1.47,1.02,2.28,1.45.24-.28,10.06-11.89,6.71-24.27l-.02-.11c-3.13.69-6.25.39-9-1.19-2.55-1.46-4.54-2.96-6.6-3.4-2.29-.5-4.67.32-8.03,3.94l-3.46,4.7-.59.8c-.16.22-.29.44-.39.67-.74,1.61-.28,3.58,1.21,4.68.18.13.38.25.58.35h0ZM730.13,405.83l-8.56-5.44c.06-.07.11-.13.16-.2l5.91-7.76,7.84,4.98c2.33,1.48,3.01,4.56,1.54,6.89-1.48,2.33-4.57,3.01-6.89,1.54h0Z"/>
        <path class="cls-5" d="M704.92,390.19l5.63.25,1.95,4.82-3.18,3.95c-6.31,2.22-8.13-8.59-4.4-9.02h0Z"/>
        <path class="cls-5" d="M701.78,389.78c0,1.18.54,2.34,1.56,3.09,1.64,1.2,3.93.91,5.21-.63.01-.02.03-.03.04-.05.04-.04.07-.09.11-.14l.33-.44,5.51-7.38c1.63-2.21,4.25-3.33,6.81-3.12v-.06c-.43-.56-.5-1.95-2.06-3.24-3.26-2.7-8.2-1.78-10.71,1.63h0l-.44.59-5.6,7.5c-.13.18-.24.37-.34.56-.27.54-.41,1.13-.41,1.71h0Z"/>
        <path class="cls-5" d="M707.75,394.59c0,.99.38,1.97,1.11,2.69.14.14.29.27.45.39,1.71,1.26,4.1.89,5.36-.82l.43-.58.47-.63.59-.8h0l3.46-4.7c3.36-3.62,5.75-4.44,8.03-3.94-.52-1.19-1.06-2.58-2.39-3.6-1.17-.9-2.53-1.39-3.9-1.5-2.56-.2-5.18.91-6.81,3.12l-5.51,7.38-.33.44s-.07.09-.11.14c-.01.02-.03.03-.04.05l-.05.07c-.5.69-.75,1.48-.75,2.27h0Z"/>
        <path class="cls-5" d="M611.36,551.83l10.33-16.27,7.31,5.16,32.23-51.06,1.93-3.06.05-11.28c.01-2.1,1.73-3.81,3.83-3.81h.02c.78,0,1.5.24,2.11.65l.02-5.2v-1.31c.02-2.11,1.73-3.81,3.83-3.81h.02c.62,0,1.2.15,1.72.41v-2.24c.02-2.12,1.75-3.82,3.86-3.81,1.15,0,2.17.52,2.87,1.32l14.94-23.67,3.4-5.38,5.69-9.02h0s.23-.37.23-.37l9.05-14.34,2.14-3.4c-.2-.09-.39-.21-.58-.35-1.49-1.1-1.95-3.07-1.21-4.68l-.07-.04-.43.58c-1.25,1.71-3.65,2.07-5.36.82-.16-.12-.31-.25-.45-.39l-14.49,22.96-.04.07-.26.42-2.45,3.88h0l-14.48,22.95-12.99,20.59-.17.28h0l-5.09,8.07-26.81,42.48-6.81,10.79-.74,1.18-13.16,20.89h0Z"/>
        <path class="cls-10" d="M688.4,352.81c.2,1.12,1.24,1.87,2.32,1.68,1.08-.2,1.79-1.26,1.59-2.38-.2-1.12-1.24-1.87-2.32-1.68-1.08.19-1.8,1.26-1.6,2.38h0Z"/>
        <path class="cls-10" d="M687.05,343.54c.2,1.12,1.24,1.87,2.32,1.68,1.08-.19,1.8-1.26,1.6-2.38-.2-1.12-1.24-1.87-2.32-1.68-1.08.19-1.8,1.26-1.59,2.38Z"/>
        <path class="cls-10" d="M693.05,333.32c9.22-1.64,16.58,11.42,16.58,11.42l1.26-27.77-.05-.05-17.78,16.4h0Z"/>
        <path class="cls-8" d="M752.25,349.86s0-.01,0-.03"/>
        <path class="cls-8" d="M667.92,294.39c1.41-1.66,3.25-2.43,4.97-2.34"/>
        <path class="cls-8" d="M676.42,444.64s.06,0,.09,0"/>
        <path class="cls-9" d="M721.57,400.39c-.75.89-1.83,1.36-2.93,1.36-.57,0-1.15-.13-1.69-.4"/>
        <path class="cls-8" d="M663.74,452.96l-5.99,10.54c-.35.63-.52,1.31-.52,1.98,0,1.26.6,2.5,1.7,3.28.25.17.5.32.77.43,1.45.6,3.12.3,4.27-.76"/>
        <line class="cls-8" x1="693.05" y1="333.32" x2="695.72" y2="359.8"/>
        <line class="cls-8" x1="769.07" y1="540.41" x2="716.25" y2="540.41"/>
        <line class="cls-8" x1="767.44" y1="553.81" x2="717.87" y2="553.81"/>
        <path class="cls-8" d="M679.16,252.95c-5.5.12-8.55,4.35-8.55,4.35"/>
        <polygon class="cls-14" points="669.86 270.13 666.63 263.87 669.06 262.7 672.29 268.95 669.86 270.13"/>
        <path class="cls-16" d="M673.79,268.27c1.66,3.77,1.12,6.35.63,7.77-1.47-.49-3.93-1.63-6.06-5.24-.11.02-.23.05-.35.07-.88.16-1.74.24-2.56.24,3.14,6.06,7.35,7.28,8.94,7.74l.07.02c.3.09.61.1.9.05.62-.11,1.15-.53,1.39-1.15l.03-.08c.58-1.51,2.11-5.51-1.01-11.57-.54.78-1.2,1.51-1.97,2.15h0Z"/>
      </g>
    </g>
  </g>
</svg>