<svg width="420" height="342" viewBox="0 0 420 342" fill="none" xmlns="http://www.w3.org/2000/svg">
<path opacity="0.12" d="M412.507 304.889C412.308 305.176 412.1 305.464 411.872 305.752C409.361 309.076 405.571 312.728 399.895 316.985C396.56 319.495 393.335 321.589 390.031 323.385C389.713 323.554 389.396 323.733 389.068 323.891C388.979 323.941 388.9 323.991 388.82 324.02C388.334 324.278 387.848 324.517 387.362 324.755C375.335 330.639 361.472 333.021 336.386 336.414C330.849 337.169 324.737 337.734 318.227 338.191C317.126 338.26 316.024 338.34 314.903 338.399H314.883C281.849 340.394 239.516 339.342 208.517 340.741C199.893 341.128 189.534 341.505 178.062 341.704C176.713 341.723 175.353 341.743 173.964 341.763C135.026 342.249 84.6458 340.503 45.6478 330.371C39.1878 328.694 33.6408 326.799 28.8578 324.755C28.193 324.467 27.548 324.189 26.903 323.891C14.5288 318.255 7.76122 311.676 4.1095 305.742C3.94081 305.444 3.76219 305.166 3.60342 304.879C2.64087 303.202 1.9264 301.574 1.40048 300.056C1.29132 299.738 1.18217 299.421 1.09286 299.113C-0.742924 293.13 0.289084 288.892 0.289084 288.892C0.289084 288.892 175.264 233.591 176.127 232.301C176.991 231.001 416.615 280.11 416.764 288.892C416.853 294.32 416.556 299.143 412.517 304.879L412.507 304.889Z" fill="#01654D"/>
<path d="M389.076 323.89C388.986 323.94 388.907 323.989 388.828 324.019C388.341 324.277 387.855 324.515 387.369 324.753H28.8553C28.1904 324.466 27.5454 324.188 26.9004 323.89H389.076Z" fill="white"/>
<path d="M412.509 304.889C412.31 305.177 412.102 305.464 411.874 305.752H4.11155C3.94286 305.455 3.76424 305.177 3.60547 304.889H412.519H412.509Z" fill="white"/>
<path d="M182.379 324.548C182.379 324.548 182.319 324.548 182.289 324.548L88.1086 305.754C87.8705 305.704 87.7216 305.476 87.7712 305.248C87.8209 305.009 88.0491 304.861 88.2773 304.91L183.966 324.022C184.204 324.072 182.845 323.982 182.795 324.211C182.756 324.419 182.577 324.558 182.369 324.558L182.379 324.548Z" fill="white"/>
<path d="M390.031 323.384C389.713 323.553 389.395 323.731 389.068 323.89C388.979 323.94 388.899 323.989 388.82 324.019L388.185 323.89L297.249 305.741H297.209C296.971 305.691 296.832 305.453 296.872 305.225C296.902 305.026 297.09 304.877 297.289 304.877C297.319 304.877 297.348 304.877 297.388 304.877L301.675 305.731L390.04 323.364L390.031 323.384Z" fill="white"/>
<path d="M178.061 341.703C176.712 341.722 175.352 341.742 173.963 341.762L88.4252 324.764C88.4252 324.764 88.4054 324.764 88.3955 324.764C88.1772 324.714 88.0283 324.486 88.0779 324.258C88.1275 324.02 88.3657 323.881 88.584 323.92L92.7815 324.754L178.051 341.703H178.061Z" fill="white"/>
<path d="M29.363 305.206C29.3233 305.414 29.1348 305.553 28.9363 305.553C28.9066 305.553 28.8768 305.553 28.847 305.553L25.5525 304.898L1.38965 300.075C1.28049 299.758 1.17134 299.44 1.08203 299.133L29.0157 304.71C29.1447 304.729 29.2439 304.809 29.2936 304.898C29.363 304.997 29.3829 305.107 29.363 305.216V305.206Z" fill="white"/>
<path d="M276.156 205.361C278.375 205.361 280.174 203.561 280.174 201.342C280.174 199.122 278.375 197.323 276.156 197.323C273.936 197.323 272.137 199.122 272.137 201.342C272.137 203.561 273.936 205.361 276.156 205.361Z" fill="#01654D"/>
<path d="M278.588 199.435H275.849C274.966 199.435 274.262 200.289 274.262 201.341C274.262 202.392 274.976 203.246 275.849 203.246H278.588C279.471 203.246 280.176 202.392 280.176 201.341C280.176 200.289 279.461 199.435 278.588 199.435Z" fill="#101727"/>
<path d="M279.68 201.341C279.68 202.075 279.124 202.68 278.449 202.68C277.774 202.68 277.219 202.085 277.219 201.341C277.219 200.597 277.774 200.001 278.449 200.001C279.124 200.001 279.68 200.597 279.68 201.341Z" fill="white"/>
<path d="M301.452 201.342C301.452 203.564 299.646 205.361 297.433 205.361C295.22 205.361 293.414 203.554 293.414 201.342C293.414 199.129 295.22 197.323 297.433 197.323C299.646 197.323 301.452 199.129 301.452 201.342Z" fill="#01654D"/>
<path d="M299.852 199.435H297.113C296.23 199.435 295.525 200.289 295.525 201.341C295.525 202.392 296.24 203.246 297.113 203.246H299.852C300.735 203.246 301.44 202.392 301.44 201.341C301.44 200.289 300.725 199.435 299.852 199.435Z" fill="#101727"/>
<path d="M300.953 201.341C300.953 202.075 300.397 202.68 299.723 202.68C299.048 202.68 298.492 202.085 298.492 201.341C298.492 200.597 299.048 200.001 299.723 200.001C300.397 200.001 300.953 200.597 300.953 201.341Z" fill="white"/>
<path d="M312.452 102.984H60.543V182.617H312.452V102.984Z" fill="#B7AB65"/>
<path d="M60.5127 143.091C60.344 143.091 60.2051 142.952 60.2051 142.783C60.2051 142.614 60.344 142.475 60.5127 142.475L310.834 142.366C311.003 142.366 311.142 142.505 311.142 142.674C311.142 142.843 311.003 142.981 310.834 142.981L60.5127 143.091Z" fill="#849465"/>
<path d="M60.6197 123.345C60.3915 123.345 60.2129 123.156 60.2129 122.938C60.2129 122.72 60.4014 122.531 60.6197 122.531L395.149 122.392C395.377 122.392 395.556 122.581 395.556 122.799C395.556 123.017 395.367 123.206 395.149 123.206L60.6197 123.345Z" fill="#849465"/>
<path d="M60.5127 163.941C60.344 163.941 60.2051 163.802 60.2051 163.633C60.2051 163.465 60.344 163.326 60.5127 163.326L311.807 163.217C311.975 163.217 312.114 163.355 312.114 163.524C312.114 163.693 311.975 163.832 311.807 163.832L60.5127 163.941Z" fill="#849465"/>
<path d="M80.776 182.459C80.5478 182.459 80.3691 182.27 80.3691 182.052V103.282C80.3691 103.054 80.5577 102.875 80.776 102.875C80.9943 102.875 81.1828 103.064 81.1828 103.282V182.052C81.1828 182.28 80.9943 182.459 80.776 182.459Z" fill="#849465"/>
<path d="M101.801 182.459C101.573 182.459 101.395 182.27 101.395 182.052V103.282C101.395 103.054 101.583 102.875 101.801 102.875C102.02 102.875 102.208 103.064 102.208 103.282V182.052C102.208 182.28 102.02 182.459 101.801 182.459Z" fill="#849465"/>
<path d="M122.831 182.459C122.602 182.459 122.424 182.27 122.424 182.052V103.282C122.424 103.054 122.612 102.875 122.831 102.875C123.049 102.875 123.238 103.064 123.238 103.282V182.052C123.238 182.28 123.049 182.459 122.831 182.459Z" fill="#849465"/>
<path d="M143.858 182.459C143.63 182.459 143.451 182.27 143.451 182.052V103.282C143.451 103.054 143.64 102.875 143.858 102.875C144.076 102.875 144.265 103.064 144.265 103.282V182.052C144.265 182.28 144.076 182.459 143.858 182.459Z" fill="#849465"/>
<path d="M164.883 182.459C164.655 182.459 164.477 182.27 164.477 182.052V103.282C164.477 103.054 164.665 102.875 164.883 102.875C165.102 102.875 165.29 103.064 165.29 103.282V182.052C165.29 182.28 165.102 182.459 164.883 182.459Z" fill="#849465"/>
<path d="M185.901 182.459C185.673 182.459 185.494 182.27 185.494 182.052V103.282C185.494 103.054 185.683 102.875 185.901 102.875C186.119 102.875 186.308 103.064 186.308 103.282V182.052C186.308 182.28 186.119 182.459 185.901 182.459Z" fill="#849465"/>
<path d="M206.928 182.459C206.7 182.459 206.521 182.27 206.521 182.052V103.282C206.521 103.054 206.71 102.875 206.928 102.875C207.147 102.875 207.335 103.064 207.335 103.282V182.052C207.335 182.28 207.147 182.459 206.928 182.459Z" fill="#849465"/>
<path d="M227.958 182.459C227.729 182.459 227.551 182.27 227.551 182.052V103.282C227.551 103.054 227.739 102.875 227.958 102.875C228.176 102.875 228.364 103.064 228.364 103.282V182.052C228.364 182.28 228.176 182.459 227.958 182.459Z" fill="#849465"/>
<path d="M248.981 182.459C248.753 182.459 248.574 182.27 248.574 182.052V103.282C248.574 103.054 248.763 102.875 248.981 102.875C249.199 102.875 249.388 103.064 249.388 103.282V182.052C249.388 182.28 249.199 182.459 248.981 182.459Z" fill="#849465"/>
<path d="M270.01 182.459C269.782 182.459 269.604 182.27 269.604 182.052V103.282C269.604 103.054 269.792 102.875 270.01 102.875C270.229 102.875 270.417 103.064 270.417 103.282V182.052C270.417 182.28 270.229 182.459 270.01 182.459Z" fill="#849465"/>
<path d="M291.04 182.459C290.811 182.459 290.633 182.27 290.633 182.052V103.282C290.633 103.054 290.821 102.875 291.04 102.875C291.258 102.875 291.446 103.064 291.446 103.282V182.052C291.446 182.28 291.258 182.459 291.04 182.459Z" fill="#849465"/>
<path d="M312.055 182.459C311.827 182.459 311.648 182.27 311.648 182.052V103.282C311.648 103.054 311.837 102.875 312.055 102.875C312.274 102.875 312.462 103.064 312.462 103.282V182.052C312.462 182.28 312.274 182.459 312.055 182.459Z" fill="#849465"/>
<path d="M89.3894 45.5473L60.8306 49.7448C60.3245 49.8142 59.9375 50.2509 59.9375 50.7669V102.794C59.9375 103.36 142.955 102.705 142.955 102.705C146.467 102.705 146.517 102.705 146.567 102.695L169.092 98.6659C169.588 98.5865 169.965 98.1599 169.965 97.6538V46.4205C169.965 45.8549 169.509 45.3984 168.943 45.3984L89.5383 45.5572C89.5383 45.5572 89.449 45.5572 89.4093 45.5572L89.3894 45.5473Z" fill="#EAE2CF"/>
<path d="M89.3111 98.5179C89.0829 98.5179 88.9043 98.3293 88.9043 98.111C88.9043 97.8828 89.0829 97.7042 89.3111 97.7042L169.232 97.5454C169.46 97.5454 169.639 97.7339 169.639 97.9523C169.639 98.1805 169.46 98.3591 169.232 98.3591L89.3111 98.5179Z" fill="#101727"/>
<path d="M89.3111 98.3769C89.0829 98.3769 88.9043 98.1883 88.9043 97.97V46.2704C88.9043 46.0421 89.0928 45.8635 89.3111 45.8635C89.5295 45.8635 89.718 46.0521 89.718 46.2704V97.97C89.718 98.1982 89.5295 98.3769 89.3111 98.3769Z" fill="#101727"/>
<path d="M60.5161 102.765C60.3176 102.765 60.139 102.616 60.1092 102.418C60.0795 102.19 60.2283 101.981 60.4566 101.952L89.3131 97.6151C89.5413 97.5853 89.7497 97.7342 89.7795 97.9624C89.8093 98.1907 89.6604 98.399 89.4322 98.4288L60.5756 102.765C60.5756 102.765 60.5359 102.765 60.5161 102.765Z" fill="#101727"/>
<path d="M142.161 94.4868H119.407C119.179 94.4868 119 94.2983 119 94.0799C119 93.8616 119.189 93.6731 119.407 93.6731H142.161C142.389 93.6731 142.567 93.8616 142.567 94.0799C142.567 94.2983 142.379 94.4868 142.161 94.4868Z" fill="#101727"/>
<path d="M319.689 302.964L291.06 299.213C290.544 299.154 290.157 298.727 290.148 298.211L289.403 250.302L289.344 246.194C289.344 245.628 372.351 244.993 372.351 244.993C375.864 244.944 375.913 244.944 375.963 244.954L398.548 248.635C399.044 248.705 399.421 249.131 399.431 249.637L400.225 300.861C400.225 301.426 399.779 301.893 399.213 301.903L319.808 302.974C319.808 302.974 319.719 302.974 319.679 302.974L319.689 302.964Z" fill="#EAE2CF"/>
<path d="M318.796 250.827C318.567 250.827 318.389 250.648 318.389 250.42C318.389 250.192 318.567 250.003 318.796 250.003L398.717 248.922C398.945 248.922 399.123 249.1 399.123 249.328C399.123 249.557 398.945 249.745 398.717 249.745L318.796 250.827Z" fill="#101727"/>
<path d="M319.599 302.668C319.371 302.668 319.192 302.489 319.192 302.261L318.389 250.571C318.389 250.343 318.567 250.154 318.796 250.154C319.034 250.154 319.212 250.333 319.212 250.561L320.016 302.251C320.016 302.479 319.837 302.668 319.609 302.668H319.599Z" fill="#101727"/>
<path d="M318.854 250.916C318.854 250.916 318.814 250.916 318.794 250.916L289.878 247.026C289.65 246.996 289.491 246.788 289.521 246.56C289.551 246.332 289.759 246.163 289.988 246.203L318.904 250.092C319.132 250.122 319.291 250.331 319.261 250.559C319.231 250.767 319.052 250.916 318.854 250.916Z" fill="#101727"/>
<path d="M351.553 299.324C351.325 299.324 351.146 299.146 351.146 298.917C351.146 298.689 351.325 298.501 351.553 298.501L374.307 298.143C374.496 298.124 374.724 298.322 374.724 298.55C374.724 298.779 374.545 298.967 374.317 298.967L351.563 299.324H351.553Z" fill="#101727"/>
<path d="M253.779 300.526H86.2266L60.6645 296.993C60.3073 296.993 60.0195 296.705 60.0195 296.348V184.812C60.0195 184.455 60.3073 184.167 60.6645 184.167H253.779C254.136 184.167 254.424 184.455 254.424 184.812V299.871C254.424 300.228 254.136 300.516 253.779 300.516V300.526Z" fill="#EAE2CF"/>
<path d="M254.107 184.275L217.56 181L61.2205 181.268C60.0496 181.268 60 181.714 60 182.885V186.775L254.107 184.275Z" fill="#EAE2CF"/>
<path d="M247.191 187.055H178.572C176.325 187.055 174.504 188.876 174.504 191.123V293.262C174.504 295.509 176.325 297.331 178.572 297.331H247.191C249.438 297.331 251.26 295.509 251.26 293.262V191.123C251.26 188.876 249.438 187.055 247.191 187.055Z" fill="#01654D"/>
<path d="M163.091 187.055H94.4728C92.2258 187.055 90.4043 188.876 90.4043 191.123V293.262C90.4043 295.509 92.2258 297.331 94.4728 297.331H163.091C165.338 297.331 167.16 295.509 167.16 293.262V191.123C167.16 188.876 165.338 187.055 163.091 187.055Z" fill="#01654D"/>
<path d="M139.566 187.055H138.742V297.341H139.566V187.055Z" fill="#101727"/>
<path d="M88.3917 293.977H139.039L169.533 297.43L130.724 299.236L87.9551 297.797L88.3917 293.977Z" fill="#EAE2CF"/>
<path d="M171.454 184.167H170.631V300.546H171.454V184.167Z" fill="#101727"/>
<path d="M86.2643 299.571C86.036 299.571 85.8574 299.382 85.8574 299.164V184.174C85.8574 183.946 86.046 183.768 86.2643 183.768C86.4826 183.768 86.6711 183.956 86.6711 184.174V299.164C86.6711 299.392 86.4826 299.571 86.2643 299.571Z" fill="#101727"/>
<path d="M252.339 185.088L86.8699 184.513L60.7819 182.717C60.5537 182.697 60.385 182.508 60.3949 182.28C60.4148 182.052 60.6033 181.873 60.8316 181.893L86.8997 183.689L252.339 184.265C252.567 184.265 252.745 184.453 252.745 184.682C252.745 184.91 252.557 185.088 252.339 185.088Z" fill="#101727"/>
<path d="M223.226 187.055H222.402V297.341H223.226V187.055Z" fill="#101727"/>
<path d="M165.144 297.695H90.5514C90.3232 297.695 90.1445 297.506 90.1445 297.288V294.341C90.1445 294.113 90.3331 293.934 90.5514 293.934C90.7697 293.934 90.9582 294.123 90.9582 294.341V296.881H165.144C165.372 296.881 165.551 297.07 165.551 297.288C165.551 297.506 165.362 297.695 165.144 297.695Z" fill="#101727"/>
<path d="M172.677 293.977H223.335L253.828 297.43L215.009 299.236L172.24 297.797L172.677 293.977Z" fill="#EAE2CF"/>
<path d="M249.433 297.695H174.84C174.612 297.695 174.434 297.506 174.434 297.288V294.341C174.434 294.113 174.622 293.934 174.84 293.934C175.059 293.934 175.247 294.123 175.247 294.341V296.881H249.433C249.661 296.881 249.84 297.07 249.84 297.288C249.84 297.506 249.651 297.695 249.433 297.695Z" fill="#101727"/>
<path d="M88.3028 236.52H128.865L153 239.467L122.205 241.769L87.9531 240.33L88.3028 236.52Z" fill="#EAE2CF"/>
<path d="M152.475 239.109H89.1602V242.563H152.475V239.109Z" fill="#EAE2CF"/>
<path d="M149.775 239.736H90.2907C90.1079 239.736 89.9648 239.547 89.9648 239.329C89.9648 239.11 90.1158 238.922 90.2907 238.922H149.775C149.957 238.922 150.1 239.11 150.1 239.329C150.1 239.547 149.949 239.736 149.775 239.736Z" fill="#101727"/>
<path d="M90.5834 236.52H89.9238V242.573H90.5834V236.52Z" fill="#101727"/>
<path d="M172.491 219.988H223.149L253.276 222.945L214.823 225.247L172.055 223.808L172.491 219.988Z" fill="#EAE2CF"/>
<path d="M252.632 222.589H173.574V226.042H252.632V222.589Z" fill="#EAE2CF"/>
<path d="M249.824 223.612L174.973 223.215C174.745 223.215 174.566 223.026 174.566 222.798C174.566 222.57 174.755 222.391 174.973 222.391L249.824 222.788C250.052 222.788 250.23 222.977 250.23 223.205C250.23 223.433 250.042 223.612 249.824 223.612Z" fill="#101727"/>
<path d="M175.339 219.988H174.516V226.041H175.339V219.988Z" fill="#101727"/>
<path d="M172.491 258.301H223.149L253.276 261.248L214.823 263.55L172.055 262.111L172.491 258.301Z" fill="#EAE2CF"/>
<path d="M252.632 260.89H173.574V264.343H252.632V260.89Z" fill="#EAE2CF"/>
<path d="M249.427 261.736L174.973 261.518C174.745 261.518 174.566 261.329 174.566 261.111C174.566 260.883 174.755 260.704 174.973 260.704L249.427 260.922C249.655 260.922 249.834 261.111 249.834 261.329C249.834 261.557 249.645 261.736 249.427 261.736Z" fill="#101727"/>
<path d="M175.339 258.301H174.516V264.354H175.339V258.301Z" fill="#101727"/>
<path d="M90.4369 219.522C89.9804 219.522 89.6133 219.155 89.6133 218.698V207.356C89.6133 206.9 89.9804 206.532 90.4369 206.532C90.8934 206.532 91.2605 206.9 91.2605 207.356V218.698C91.2605 219.155 90.8934 219.522 90.4369 219.522Z" fill="#101727"/>
<path d="M90.4369 282.883C89.9804 282.883 89.6133 282.516 89.6133 282.059V270.717C89.6133 270.26 89.9804 269.893 90.4369 269.893C90.8934 269.893 91.2605 270.26 91.2605 270.717V282.059C91.2605 282.516 90.8934 282.883 90.4369 282.883Z" fill="#101727"/>
<path d="M174.542 219.522C174.086 219.522 173.719 219.155 173.719 218.698V207.356C173.719 206.9 174.086 206.532 174.542 206.532C174.999 206.532 175.366 206.9 175.366 207.356V218.698C175.366 219.155 174.999 219.522 174.542 219.522Z" fill="#101727"/>
<path d="M174.542 282.883C174.086 282.883 173.719 282.516 173.719 282.059V270.717C173.719 270.26 174.086 269.893 174.542 269.893C174.999 269.893 175.366 270.26 175.366 270.717V282.059C175.366 282.516 174.999 282.883 174.542 282.883Z" fill="#101727"/>
<path d="M80.3625 191.422C80.164 191.422 79.9953 191.283 79.9556 191.085C79.9159 190.866 80.0648 190.648 80.2831 190.608L83.5974 189.993C83.8157 189.954 84.0341 190.102 84.0737 190.321C84.1134 190.539 83.9646 190.757 83.7463 190.797L80.4319 191.412C80.4319 191.412 80.3823 191.412 80.3526 191.412L80.3625 191.422Z" fill="#101727"/>
<path d="M41.8328 186.192H38.4887C38.2307 186.192 38.0123 186.38 37.9826 186.638L25.0031 296.14C24.9733 296.408 25.1619 296.656 25.4298 296.696L66.6903 303.047C66.6903 303.047 66.7399 303.047 66.7696 303.047H70.0939C70.3519 303.047 70.5702 302.858 70.6 302.6L83.8077 190.598C83.8375 190.32 83.639 190.062 83.3512 190.032L41.8725 186.182C41.8725 186.182 41.8427 186.182 41.8228 186.182L41.8328 186.192Z" fill="#EAE2CF"/>
<path d="M71.1338 298.275C71.1338 298.275 71.104 298.275 71.0842 298.275C70.8559 298.245 70.6972 298.047 70.7269 297.819L83.3988 190.559L83.3095 190.45L60.5954 187.93C60.3672 187.9 60.2084 187.702 60.2282 187.473C60.258 187.245 60.4465 187.086 60.6847 187.106L83.3988 189.627C83.637 189.646 83.8652 189.766 84.014 189.964C84.1728 190.162 84.2423 190.401 84.2125 190.649L71.5406 297.908C71.5208 298.116 71.3422 298.275 71.1338 298.275Z" fill="#101727"/>
<path d="M66.9761 303.066C66.9761 303.066 66.9464 303.066 66.9265 303.066C66.6983 303.037 66.5395 302.838 66.5693 302.61L79.9159 191.381L38.318 186.926C38.0898 186.906 37.931 186.698 37.9509 186.469C37.9707 186.241 38.1791 186.082 38.4074 186.102L80.422 190.607C80.5311 190.617 80.6304 190.677 80.6998 190.756C80.7693 190.846 80.7991 190.955 80.7892 191.064L67.3929 302.709C67.3631 302.918 67.1944 303.066 66.986 303.066H66.9761Z" fill="#101727"/>
<path d="M69.2815 254.286C69.2815 254.286 69.2418 254.286 69.2319 254.286C69.0037 254.256 68.8449 254.047 68.8747 253.829L70.8891 238.418C70.9188 238.19 71.1372 238.031 71.3455 238.061C71.5738 238.091 71.7325 238.299 71.7028 238.518L69.6884 253.928C69.6586 254.137 69.48 254.286 69.2815 254.286Z" fill="#101727"/>
<path d="M325.055 243.524C325.055 243.524 325.015 243.524 324.996 243.524L317.513 243.475C317.315 243.475 317.156 243.633 317.156 243.822C317.156 244.02 317.315 244.169 317.504 244.179L324.986 244.229C325.184 244.229 325.343 244.07 325.343 243.881C325.343 243.713 325.224 243.564 325.055 243.534V243.524Z" fill="#B7AB65"/>
<path d="M324.253 244.883C324.124 244.347 324.193 243.682 324.253 243.285C324.312 242.779 324.481 242.104 325.096 242.055L325.483 242.025L326.098 241.985L330.177 241.678C330.663 241.648 331.07 242.025 331.06 242.501L331.04 245.339C331.04 245.816 330.623 246.193 330.147 246.153L326.079 245.786L325.463 245.736C325.463 245.736 325.106 245.706 325.076 245.706C324.6 245.667 324.362 245.329 324.263 244.893L324.253 244.883Z" fill="#101727"/>
<path d="M330.632 242.312L333.738 242.332L333.718 245.438L330.612 245.418C329.759 245.418 329.064 244.713 329.074 243.85C329.074 242.997 329.779 242.302 330.642 242.312H330.632Z" fill="#B7AB65"/>
<path d="M325.352 245.409C324.687 244.446 324.697 243.325 325.352 242.332C325.6 241.955 326.235 242.263 325.987 242.64C325.461 243.434 325.422 244.327 325.968 245.111C326.226 245.488 325.62 245.786 325.362 245.419L325.352 245.409Z" fill="#B7AB65"/>
<path d="M331.704 245.805C331.466 244.376 331.367 243.076 331.962 241.419C332.468 240.01 333.947 239.504 335.008 239.514L346.946 239.603C348.008 239.603 348.841 240.476 348.841 241.518L348.812 246.212C348.812 247.274 347.948 248.117 346.896 248.107L334.542 248.018C333.48 248.018 331.962 247.224 331.714 245.795L331.704 245.805Z" fill="#101727"/>
<path d="M337.5 246.231H338.571C338.899 246.241 339.157 246.509 339.157 246.837C339.157 247.164 338.889 247.422 338.561 247.422H337.49C337.162 247.412 336.904 247.144 336.904 246.817C336.904 246.489 337.172 246.231 337.5 246.231Z" fill="#E9BE51"/>
<path d="M348.423 240.824C348.423 240.824 347.292 239.216 347.222 237.381C347.173 235.942 347.093 232.211 347.064 229.611C347.064 228.966 346.538 228.44 345.883 228.44L343.729 228.42C343.074 228.42 342.539 228.936 342.539 229.591C342.509 232.409 342.41 236.954 342.102 238.105C341.705 239.554 338.877 240.447 338.877 240.447L348.423 240.824Z" fill="#101727"/>
<path d="M343.172 243.999C343.152 246.251 344.968 248.097 347.231 248.117C349.483 248.137 351.329 246.321 351.349 244.058C351.369 241.796 349.553 239.96 347.29 239.94C345.038 239.92 343.192 241.736 343.172 243.999Z" fill="#101727"/>
<path d="M347.361 239.464C347.361 239.464 347.322 239.464 347.302 239.464L341.685 239.424C341.487 239.424 341.328 239.583 341.328 239.771C341.328 239.97 341.487 240.118 341.675 240.128L347.292 240.168C347.49 240.168 347.649 240.009 347.649 239.821C347.649 239.652 347.53 239.503 347.361 239.473V239.464Z" fill="#B7AB65"/>
<path d="M343.254 231.953L338.977 231.357C338.322 231.268 337.836 230.702 337.836 230.037V229.71C337.836 228.976 338.441 228.39 339.166 228.4L345.02 228.44L343.244 231.953H343.254Z" fill="#B7AB65"/>
<path d="M361.528 308.788L358.7 308.232C358.561 308.203 358.422 308.212 358.293 308.262L352.875 310.267C352.677 310.336 352.706 310.624 352.905 310.664L355.604 311.239C355.743 311.269 355.892 311.259 356.021 311.209L361.568 309.175C361.766 309.106 361.736 308.818 361.538 308.778L361.528 308.788ZM355.673 310.475C355.247 310.505 354.889 310.415 354.88 310.276C354.87 310.138 355.207 309.999 355.644 309.969C356.08 309.939 356.428 310.028 356.447 310.167C356.457 310.306 356.12 310.445 355.683 310.475H355.673ZM358.66 309.254C358.224 309.284 357.866 309.195 357.866 309.056C357.856 308.917 358.194 308.778 358.621 308.748C359.057 308.719 359.414 308.808 359.424 308.947C359.424 309.086 359.087 309.225 358.66 309.254Z" fill="#B7AB65"/>
<path d="M365.983 310.009L363.155 309.453C363.016 309.423 362.877 309.433 362.748 309.483L357.33 311.488C357.132 311.557 357.161 311.845 357.36 311.884L360.059 312.46C360.198 312.49 360.337 312.48 360.476 312.43L366.023 310.396C366.221 310.326 366.191 310.039 365.993 309.999L365.983 310.009ZM360.188 311.656C359.751 311.686 359.404 311.597 359.394 311.458C359.384 311.319 359.722 311.18 360.158 311.15C360.585 311.12 360.942 311.21 360.952 311.349C360.962 311.488 360.625 311.626 360.188 311.656ZM363.175 310.436C362.748 310.465 362.391 310.376 362.381 310.237C362.381 310.098 362.708 309.959 363.145 309.93C363.582 309.9 363.929 309.989 363.939 310.128C363.949 310.267 363.611 310.406 363.175 310.436Z" fill="#B7AB65"/>
<path d="M356.529 311.865C356.34 311.865 356.162 311.746 356.092 311.568C356.003 311.33 356.122 311.062 356.36 310.972L362.036 308.819C362.274 308.73 362.542 308.849 362.632 309.087C362.721 309.325 362.602 309.593 362.364 309.682L356.688 311.836C356.638 311.855 356.578 311.865 356.519 311.865H356.529Z" fill="#101727"/>
<path d="M349.877 312.607C347.614 312.369 345.352 312.2 343.08 312.081C343 311.754 342.792 311.506 342.514 311.466C342.117 311.406 341.73 311.803 341.651 312.339C341.571 312.875 341.839 313.361 342.246 313.411C342.534 313.45 342.802 313.262 342.97 312.954C343.457 312.974 343.943 313.014 344.429 313.044L349.857 313.51C349.857 313.51 349.877 313.51 349.887 313.51C349.946 313.51 349.996 313.49 350.046 313.47C350.433 313.361 350.373 312.657 349.877 312.607Z" fill="#101727"/>
<path d="M387.23 308.163C387.101 308.123 386.952 308.113 386.823 308.103C384.72 307.974 382.606 307.835 380.502 307.706C380.383 307.706 380.264 307.686 380.175 307.607C380.095 307.528 380.076 307.419 380.026 307.319C379.887 307.061 379.51 306.992 379.252 307.131C378.994 307.27 378.835 307.557 378.776 307.845C378.706 308.153 378.746 308.51 378.954 308.748C379.163 308.996 379.569 309.076 379.808 308.857C379.917 308.758 379.986 308.619 380.115 308.56C380.195 308.52 380.294 308.53 380.383 308.54C381.822 308.659 383.271 308.778 384.71 308.887C385.434 308.947 386.148 309.016 386.873 309.056C387.111 309.066 387.29 309.115 387.478 308.957C387.746 308.728 387.567 308.58 387.567 308.341C387.478 308.242 387.359 308.183 387.23 308.143V308.163Z" fill="#101727"/>
<path d="M337.068 307.549C336.83 307.549 336.631 307.727 336.502 307.966C334.161 308.174 331.819 308.372 329.477 308.581C328.931 308.63 328.921 309.454 329.437 309.454C329.477 309.474 329.526 309.484 329.576 309.484C329.586 309.484 329.596 309.484 329.606 309.484L336.413 308.879C336.532 309.256 336.8 309.524 337.118 309.514C337.524 309.504 337.832 309.047 337.812 308.511C337.792 307.966 337.445 307.539 337.038 307.559L337.068 307.549Z" fill="#101727"/>
<path d="M373.764 313.362C372.335 313.362 371.174 313.729 371.174 314.176V316.607C371.174 317.054 372.335 317.421 373.764 317.421C375.193 317.421 376.354 317.054 376.354 316.607V314.176C376.354 313.729 375.193 313.362 373.764 313.362Z" fill="#B7AB65"/>
<path d="M375.522 313.89C374.371 314.217 373.309 314.148 372.158 313.88C371.612 313.751 371.384 314.584 371.93 314.713C373.23 315.011 374.46 315.09 375.75 314.723C376.286 314.574 376.058 313.741 375.522 313.89Z" fill="#101727"/>
<path d="M306.549 35.6051C304.704 35.6051 303.195 34.0968 303.195 32.251V27.2101C303.195 26.8727 303.473 26.5948 303.811 26.5948C304.148 26.5948 304.426 26.8727 304.426 27.2101V32.251C304.426 33.422 305.378 34.3746 306.549 34.3746C307.72 34.3746 308.673 33.422 308.673 32.251V31.6755C308.673 31.3381 308.951 31.0603 309.288 31.0603C309.626 31.0603 309.903 31.3381 309.903 31.6755V32.251C309.903 34.0968 308.395 35.6051 306.549 35.6051Z" fill="#01654D"/>
<path opacity="0.12" d="M414.46 16.819H236.18C234.255 16.819 232.697 18.6349 232.697 20.8676V143.796C232.697 146.028 234.255 147.844 236.18 147.844H414.46C416.385 147.844 417.943 146.028 417.943 143.796V20.8676C417.943 18.6349 416.385 16.819 414.46 16.819Z" fill="#01654D"/>
<path d="M409.312 11.0551H228.364C225.972 11.0551 224.027 13.3175 224.027 16.1159V135.521C224.027 138.32 225.972 140.582 228.364 140.582H409.312C411.704 140.582 413.649 138.32 413.649 135.521V16.1159C413.649 13.3175 411.704 11.0551 409.312 11.0551Z" fill="white" stroke="#101727" stroke-miterlimit="10"/>
<path d="M409.61 20.7791C415.348 20.7791 420 16.1275 420 10.3895C420 4.65156 415.348 0 409.61 0C403.872 0 399.221 4.65156 399.221 10.3895C399.221 16.1275 403.872 20.7791 409.61 20.7791Z" fill="#E9BE51"/>
<path d="M410.97 5.70315V14.4304H409.389V7.2415H409.338L407.297 8.54548V7.09661L409.466 5.70315H410.97Z" fill="white"/>
<path d="M249.586 44.4766C255.308 44.4766 259.946 39.8384 259.946 34.1169C259.946 28.3953 255.308 23.7571 249.586 23.7571C243.865 23.7571 239.227 28.3953 239.227 34.1169C239.227 39.8384 243.865 44.4766 249.586 44.4766Z" fill="#01654D"/>
<path d="M249.232 28.6416L247.535 29.0964L248.694 33.4191L250.391 32.9642L249.232 28.6416Z" fill="#E9BE51"/>
<path d="M251.437 32.7106C251.953 35.2807 251.249 36.8387 250.743 37.6722C249.88 37.1959 248.49 36.1837 247.657 33.6632C247.577 33.6632 247.508 33.6632 247.428 33.6632C246.853 33.6632 246.297 33.6136 245.781 33.5144C246.912 37.702 249.393 38.9622 250.326 39.4286L250.366 39.4484C250.544 39.5378 250.733 39.5874 250.931 39.5874C251.338 39.5874 251.735 39.3889 251.963 39.0217L251.993 38.9721C252.569 38.089 254.097 35.7471 252.985 31.5695C252.529 31.9962 252.013 32.3732 251.437 32.6908V32.7106Z" fill="#EAE2CF"/>
<path d="M269.248 37L267.195 29.7273H268.612L269.923 35.0717H269.99L271.389 29.7273H272.678L274.081 35.0753H274.145L275.455 29.7273H276.872L274.82 37H273.52L272.064 31.897H272.007L270.548 37H269.248ZM279.587 37.1065C279.04 37.1065 278.568 36.9929 278.17 36.7656C277.775 36.536 277.471 36.2116 277.257 35.7926C277.044 35.3712 276.938 34.8752 276.938 34.3047C276.938 33.7436 277.044 33.2512 277.257 32.8274C277.473 32.4013 277.774 32.0698 278.159 31.8331C278.545 31.594 278.999 31.4744 279.52 31.4744C279.856 31.4744 280.173 31.5289 280.471 31.6378C280.772 31.7443 281.037 31.91 281.267 32.1349C281.499 32.3598 281.681 32.6463 281.814 32.9943C281.946 33.34 282.012 33.7519 282.012 34.2301V34.6243H277.542V33.7578H280.78C280.778 33.5116 280.725 33.2926 280.62 33.1009C280.516 32.9067 280.371 32.754 280.184 32.6428C279.999 32.5315 279.783 32.4759 279.537 32.4759C279.275 32.4759 279.044 32.5398 278.845 32.6676C278.646 32.7931 278.491 32.9588 278.38 33.1648C278.271 33.3684 278.215 33.5921 278.213 33.8359V34.5923C278.213 34.9096 278.271 35.1818 278.387 35.4091C278.503 35.634 278.665 35.8068 278.873 35.9276C279.082 36.0459 279.325 36.1051 279.605 36.1051C279.792 36.1051 279.961 36.0791 280.113 36.027C280.264 35.9725 280.395 35.8932 280.507 35.7891C280.618 35.6849 280.702 35.5559 280.759 35.402L281.959 35.5369C281.883 35.8542 281.739 36.1312 281.526 36.3679C281.315 36.6023 281.045 36.7846 280.716 36.9148C280.387 37.0426 280.011 37.1065 279.587 37.1065ZM285.58 31.5455H286.866V37.3125C286.866 37.7055 286.791 38.0298 286.642 38.2855C286.493 38.5412 286.278 38.7318 285.996 38.8572C285.714 38.9827 285.372 39.0455 284.97 39.0455C284.922 39.0455 284.878 39.0443 284.838 39.0419C284.798 39.0419 284.754 39.0407 284.707 39.0384V37.9908C284.742 37.9931 284.774 37.9943 284.803 37.9943C284.831 37.9967 284.861 37.9979 284.892 37.9979C285.138 37.9979 285.314 37.9375 285.421 37.8168C285.527 37.6984 285.58 37.5244 285.58 37.2947V31.5455ZM286.22 30.7713C286.014 30.7713 285.837 30.7038 285.691 30.5689C285.546 30.4316 285.474 30.267 285.474 30.0753C285.474 29.8812 285.546 29.7166 285.691 29.5817C285.837 29.4444 286.014 29.3757 286.22 29.3757C286.423 29.3757 286.597 29.4444 286.742 29.5817C286.888 29.7166 286.962 29.8812 286.962 30.0753C286.962 30.267 286.888 30.4316 286.742 30.5689C286.597 30.7038 286.423 30.7713 286.22 30.7713ZM291.664 34.706V31.5455H292.95V37H291.703V36.0305H291.647C291.524 36.3359 291.321 36.5857 291.039 36.7798C290.76 36.974 290.416 37.071 290.006 37.071C289.649 37.071 289.333 36.9917 289.058 36.8331C288.786 36.6721 288.573 36.4389 288.419 36.1335C288.265 35.8258 288.188 35.4541 288.188 35.0185V31.5455H289.473V34.8196C289.473 35.1652 289.568 35.4399 289.757 35.6435C289.947 35.8471 290.195 35.9489 290.503 35.9489C290.693 35.9489 290.876 35.9027 291.054 35.8104C291.231 35.718 291.377 35.5807 291.49 35.3984C291.606 35.2138 291.664 34.983 291.664 34.706ZM298.583 32.9872L297.411 33.1151C297.378 32.9967 297.32 32.8854 297.237 32.7812C297.157 32.6771 297.048 32.593 296.91 32.5291C296.773 32.4652 296.605 32.4332 296.406 32.4332C296.139 32.4332 295.914 32.4912 295.731 32.6072C295.551 32.7232 295.463 32.8736 295.465 33.0582C295.463 33.2169 295.521 33.3459 295.639 33.4453C295.76 33.5447 295.959 33.6264 296.236 33.6903L297.166 33.8892C297.682 34.0005 298.066 34.1768 298.317 34.4183C298.57 34.6598 298.698 34.9759 298.7 35.3665C298.698 35.7098 298.597 36.0128 298.398 36.2756C298.202 36.536 297.928 36.7396 297.578 36.8864C297.228 37.0331 296.825 37.1065 296.371 37.1065C295.703 37.1065 295.166 36.9669 294.758 36.6875C294.351 36.4058 294.108 36.014 294.03 35.5121L295.284 35.3913C295.341 35.6375 295.461 35.8234 295.646 35.9489C295.831 36.0743 296.071 36.1371 296.367 36.1371C296.672 36.1371 296.917 36.0743 297.102 35.9489C297.289 35.8234 297.383 35.6683 297.383 35.4837C297.383 35.3274 297.322 35.1984 297.202 35.0966C297.083 34.9948 296.898 34.9167 296.648 34.8622L295.717 34.6669C295.194 34.558 294.807 34.3745 294.556 34.1165C294.305 33.8561 294.181 33.527 294.183 33.1293C294.181 32.7931 294.272 32.5019 294.456 32.2557C294.644 32.0071 294.903 31.8153 295.234 31.6804C295.568 31.5431 295.953 31.4744 296.388 31.4744C297.028 31.4744 297.531 31.6106 297.898 31.8828C298.267 32.1551 298.495 32.5232 298.583 32.9872ZM302.484 31.5455V32.5398H299.348V31.5455H302.484ZM300.122 30.2386H301.408V35.3594C301.408 35.5322 301.434 35.6648 301.486 35.7571C301.54 35.8471 301.611 35.9086 301.699 35.9418C301.787 35.9749 301.884 35.9915 301.99 35.9915C302.071 35.9915 302.144 35.9856 302.21 35.9737C302.279 35.9619 302.331 35.9512 302.367 35.9418L302.583 36.9467C302.515 36.9704 302.416 36.9964 302.289 37.0249C302.163 37.0533 302.009 37.0698 301.827 37.0746C301.505 37.084 301.215 37.0355 300.957 36.929C300.699 36.8201 300.494 36.652 300.343 36.4247C300.193 36.1974 300.12 35.9134 300.122 35.5724V30.2386ZM308.802 31.5455V32.5398H305.578V31.5455H308.802ZM306.384 37V31.0305C306.384 30.6636 306.46 30.3582 306.611 30.1143C306.765 29.8705 306.971 29.6882 307.229 29.5675C307.487 29.4467 307.774 29.3864 308.088 29.3864C308.311 29.3864 308.509 29.4041 308.681 29.4396C308.854 29.4751 308.982 29.5071 309.065 29.5355L308.809 30.5298C308.755 30.5133 308.686 30.4967 308.603 30.4801C308.52 30.4612 308.428 30.4517 308.326 30.4517C308.087 30.4517 307.918 30.5097 307.819 30.6257C307.721 30.7393 307.673 30.9027 307.673 31.1158V37H306.384ZM311.983 37.1065C311.45 37.1065 310.989 36.9893 310.598 36.755C310.208 36.5206 309.905 36.1927 309.689 35.7713C309.476 35.3499 309.369 34.8575 309.369 34.294C309.369 33.7306 309.476 33.237 309.689 32.8132C309.905 32.3894 310.208 32.0604 310.598 31.826C310.989 31.5916 311.45 31.4744 311.983 31.4744C312.516 31.4744 312.977 31.5916 313.368 31.826C313.759 32.0604 314.061 32.3894 314.274 32.8132C314.489 33.237 314.597 33.7306 314.597 34.294C314.597 34.8575 314.489 35.3499 314.274 35.7713C314.061 36.1927 313.759 36.5206 313.368 36.755C312.977 36.9893 312.516 37.1065 311.983 37.1065ZM311.99 36.0767C312.279 36.0767 312.521 35.9974 312.715 35.8388C312.909 35.6778 313.053 35.4624 313.148 35.1925C313.245 34.9226 313.294 34.6219 313.294 34.2905C313.294 33.9567 313.245 33.6548 313.148 33.3849C313.053 33.1127 312.909 32.8961 312.715 32.7351C312.521 32.5741 312.279 32.4936 311.99 32.4936C311.694 32.4936 311.448 32.5741 311.252 32.7351C311.057 32.8961 310.912 33.1127 310.815 33.3849C310.72 33.6548 310.673 33.9567 310.673 34.2905C310.673 34.6219 310.72 34.9226 310.815 35.1925C310.912 35.4624 311.057 35.6778 311.252 35.8388C311.448 35.9974 311.694 36.0767 311.99 36.0767ZM319.164 34.706V31.5455H320.45V37H319.203V36.0305H319.147C319.024 36.3359 318.821 36.5857 318.539 36.7798C318.26 36.974 317.916 37.071 317.506 37.071C317.149 37.071 316.833 36.9917 316.558 36.8331C316.286 36.6721 316.073 36.4389 315.919 36.1335C315.765 35.8258 315.688 35.4541 315.688 35.0185V31.5455H316.973V34.8196C316.973 35.1652 317.068 35.4399 317.257 35.6435C317.447 35.8471 317.695 35.9489 318.003 35.9489C318.193 35.9489 318.376 35.9027 318.554 35.8104C318.731 35.718 318.877 35.5807 318.99 35.3984C319.106 35.2138 319.164 34.983 319.164 34.706ZM323.057 33.804V37H321.772V31.5455H323.001V32.4723H323.064C323.19 32.1669 323.39 31.9242 323.665 31.7443C323.942 31.5644 324.284 31.4744 324.691 31.4744C325.067 31.4744 325.395 31.5549 325.675 31.7159C325.956 31.8769 326.174 32.1101 326.328 32.4155C326.484 32.7209 326.561 33.0914 326.559 33.527V37H325.273V33.7259C325.273 33.3613 325.179 33.076 324.989 32.87C324.802 32.6641 324.543 32.5611 324.211 32.5611C323.987 32.5611 323.787 32.6108 323.611 32.7102C323.439 32.8073 323.302 32.9482 323.203 33.1328C323.106 33.3175 323.057 33.5412 323.057 33.804ZM329.89 37.0959C329.461 37.0959 329.078 36.9858 328.739 36.7656C328.401 36.5455 328.133 36.2259 327.937 35.8068C327.74 35.3878 327.642 34.8788 327.642 34.2798C327.642 33.6738 327.741 33.1624 327.94 32.7457C328.141 32.3267 328.412 32.0107 328.753 31.7976C329.094 31.5821 329.474 31.4744 329.893 31.4744C330.213 31.4744 330.476 31.5289 330.682 31.6378C330.888 31.7443 331.051 31.8733 331.172 32.0249C331.292 32.174 331.386 32.3149 331.452 32.4474H331.506V29.7273H332.795V37H331.53V36.1406H331.452C331.386 36.2732 331.29 36.4141 331.165 36.5632C331.039 36.71 330.873 36.8355 330.667 36.9396C330.461 37.0438 330.202 37.0959 329.89 37.0959ZM330.248 36.0412C330.521 36.0412 330.753 35.9678 330.944 35.821C331.136 35.6719 331.282 35.4647 331.381 35.1996C331.481 34.9344 331.53 34.6255 331.53 34.2727C331.53 33.92 331.481 33.6134 331.381 33.353C331.284 33.0926 331.14 32.8902 330.948 32.7457C330.759 32.6013 330.525 32.5291 330.248 32.5291C329.962 32.5291 329.723 32.6037 329.531 32.7528C329.339 32.902 329.195 33.108 329.098 33.3707C329.001 33.6335 328.952 33.9342 328.952 34.2727C328.952 34.6136 329.001 34.9179 329.098 35.1854C329.197 35.4505 329.343 35.66 329.535 35.8139C329.729 35.9654 329.967 36.0412 330.248 36.0412ZM337.444 39.0455C337.269 39.0455 337.107 39.0313 336.957 39.0028C336.811 38.9768 336.693 38.946 336.606 38.9105L336.904 37.9091C337.091 37.9635 337.258 37.9896 337.405 37.9872C337.552 37.9848 337.681 37.9387 337.792 37.8487C337.906 37.7611 338.001 37.6143 338.08 37.4084L338.19 37.1136L336.212 31.5455H337.575L338.832 35.6648H338.889L340.15 31.5455H341.517L339.333 37.6605C339.231 37.9493 339.096 38.1967 338.928 38.4027C338.76 38.611 338.554 38.7696 338.31 38.8786C338.069 38.9898 337.78 39.0455 337.444 39.0455ZM344.6 37.1065C344.068 37.1065 343.606 36.9893 343.215 36.755C342.825 36.5206 342.522 36.1927 342.306 35.7713C342.093 35.3499 341.987 34.8575 341.987 34.294C341.987 33.7306 342.093 33.237 342.306 32.8132C342.522 32.3894 342.825 32.0604 343.215 31.826C343.606 31.5916 344.068 31.4744 344.6 31.4744C345.133 31.4744 345.595 31.5916 345.985 31.826C346.376 32.0604 346.678 32.3894 346.891 32.8132C347.106 33.237 347.214 33.7306 347.214 34.294C347.214 34.8575 347.106 35.3499 346.891 35.7713C346.678 36.1927 346.376 36.5206 345.985 36.755C345.595 36.9893 345.133 37.1065 344.6 37.1065ZM344.607 36.0767C344.896 36.0767 345.138 35.9974 345.332 35.8388C345.526 35.6778 345.67 35.4624 345.765 35.1925C345.862 34.9226 345.911 34.6219 345.911 34.2905C345.911 33.9567 345.862 33.6548 345.765 33.3849C345.67 33.1127 345.526 32.8961 345.332 32.7351C345.138 32.5741 344.896 32.4936 344.607 32.4936C344.311 32.4936 344.065 32.5741 343.869 32.7351C343.675 32.8961 343.529 33.1127 343.432 33.3849C343.337 33.6548 343.29 33.9567 343.29 34.2905C343.29 34.6219 343.337 34.9226 343.432 35.1925C343.529 35.4624 343.675 35.6778 343.869 35.8388C344.065 35.9974 344.311 36.0767 344.607 36.0767ZM351.782 34.706V31.5455H353.067V37H351.821V36.0305H351.764C351.641 36.3359 351.438 36.5857 351.157 36.7798C350.877 36.974 350.533 37.071 350.123 37.071C349.766 37.071 349.45 36.9917 349.175 36.8331C348.903 36.6721 348.69 36.4389 348.536 36.1335C348.382 35.8258 348.305 35.4541 348.305 35.0185V31.5455H349.591V34.8196C349.591 35.1652 349.685 35.4399 349.875 35.6435C350.064 35.8471 350.313 35.9489 350.62 35.9489C350.81 35.9489 350.993 35.9027 351.171 35.8104C351.348 35.718 351.494 35.5807 351.608 35.3984C351.724 35.2138 351.782 34.983 351.782 34.706ZM354.389 37V31.5455H355.635V32.4545H355.692C355.792 32.1397 355.962 31.897 356.204 31.7266C356.448 31.5537 356.726 31.4673 357.038 31.4673C357.109 31.4673 357.189 31.4709 357.276 31.478C357.366 31.4827 357.441 31.491 357.5 31.5028V32.6854C357.445 32.6664 357.359 32.6499 357.241 32.6357C357.125 32.6191 357.012 32.6108 356.903 32.6108C356.669 32.6108 356.458 32.6617 356.271 32.7635C356.086 32.8629 355.941 33.0014 355.834 33.179C355.728 33.3565 355.675 33.5613 355.675 33.7933V37H354.389ZM360.834 39.0455V31.5455H362.099V32.4474H362.173C362.239 32.3149 362.333 32.174 362.454 32.0249C362.574 31.8733 362.738 31.7443 362.944 31.6378C363.15 31.5289 363.412 31.4744 363.732 31.4744C364.153 31.4744 364.533 31.5821 364.872 31.7976C365.213 32.0107 365.483 32.3267 365.682 32.7457C365.883 33.1624 365.983 33.6738 365.983 34.2798C365.983 34.8788 365.885 35.3878 365.689 35.8068C365.492 36.2259 365.225 36.5455 364.886 36.7656C364.548 36.9858 364.164 37.0959 363.736 37.0959C363.423 37.0959 363.164 37.0438 362.958 36.9396C362.752 36.8355 362.586 36.71 362.461 36.5632C362.338 36.4141 362.242 36.2732 362.173 36.1406H362.12V39.0455H360.834ZM362.095 34.2727C362.095 34.6255 362.145 34.9344 362.244 35.1996C362.346 35.4647 362.492 35.6719 362.681 35.821C362.873 35.9678 363.105 36.0412 363.377 36.0412C363.661 36.0412 363.899 35.9654 364.091 35.8139C364.282 35.66 364.427 35.4505 364.524 35.1854C364.623 34.9179 364.673 34.6136 364.673 34.2727C364.673 33.9342 364.625 33.6335 364.528 33.3707C364.43 33.108 364.286 32.902 364.094 32.7528C363.903 32.6037 363.663 32.5291 363.377 32.5291C363.102 32.5291 362.869 32.6013 362.677 32.7457C362.486 32.8902 362.34 33.0926 362.241 33.353C362.144 33.6134 362.095 33.92 362.095 34.2727ZM367.084 37V31.5455H368.331V32.4545H368.388C368.487 32.1397 368.657 31.897 368.899 31.7266C369.143 31.5537 369.421 31.4673 369.733 31.4673C369.805 31.4673 369.884 31.4709 369.971 31.478C370.061 31.4827 370.136 31.491 370.195 31.5028V32.6854C370.141 32.6664 370.054 32.6499 369.936 32.6357C369.82 32.6191 369.707 32.6108 369.599 32.6108C369.364 32.6108 369.153 32.6617 368.966 32.7635C368.782 32.8629 368.636 33.0014 368.53 33.179C368.423 33.3565 368.37 33.5613 368.37 33.7933V37H367.084ZM373.204 37.1065C372.671 37.1065 372.21 36.9893 371.819 36.755C371.428 36.5206 371.125 36.1927 370.91 35.7713C370.697 35.3499 370.59 34.8575 370.59 34.294C370.59 33.7306 370.697 33.237 370.91 32.8132C371.125 32.3894 371.428 32.0604 371.819 31.826C372.21 31.5916 372.671 31.4744 373.204 31.4744C373.737 31.4744 374.198 31.5916 374.589 31.826C374.979 32.0604 375.281 32.3894 375.494 32.8132C375.71 33.237 375.817 33.7306 375.817 34.294C375.817 34.8575 375.71 35.3499 375.494 35.7713C375.281 36.1927 374.979 36.5206 374.589 36.755C374.198 36.9893 373.737 37.1065 373.204 37.1065ZM373.211 36.0767C373.5 36.0767 373.741 35.9974 373.935 35.8388C374.129 35.6778 374.274 35.4624 374.369 35.1925C374.466 34.9226 374.514 34.6219 374.514 34.2905C374.514 33.9567 374.466 33.6548 374.369 33.3849C374.274 33.1127 374.129 32.8961 373.935 32.7351C373.741 32.5741 373.5 32.4936 373.211 32.4936C372.915 32.4936 372.669 32.5741 372.472 32.7351C372.278 32.8961 372.133 33.1127 372.036 33.3849C371.941 33.6548 371.893 33.9567 371.893 34.2905C371.893 34.6219 371.941 34.9226 372.036 35.1925C372.133 35.4624 372.278 35.6778 372.472 35.8388C372.669 35.9974 372.915 36.0767 373.211 36.0767ZM376.909 31.5455H378.194V37.3125C378.194 37.7055 378.119 38.0298 377.97 38.2855C377.821 38.5412 377.606 38.7318 377.324 38.8572C377.042 38.9827 376.7 39.0455 376.298 39.0455C376.25 39.0455 376.207 39.0443 376.166 39.0419C376.126 39.0419 376.082 39.0407 376.035 39.0384V37.9908C376.07 37.9931 376.102 37.9943 376.131 37.9943C376.159 37.9967 376.189 37.9979 376.22 37.9979C376.466 37.9979 376.642 37.9375 376.749 37.8168C376.855 37.6984 376.909 37.5244 376.909 37.2947V31.5455ZM377.548 30.7713C377.342 30.7713 377.165 30.7038 377.019 30.5689C376.874 30.4316 376.802 30.267 376.802 30.0753C376.802 29.8812 376.874 29.7166 377.019 29.5817C377.165 29.4444 377.342 29.3757 377.548 29.3757C377.751 29.3757 377.925 29.4444 378.07 29.5817C378.217 29.7166 378.29 29.8812 378.29 30.0753C378.29 30.267 378.217 30.4316 378.07 30.5689C377.925 30.7038 377.751 30.7713 377.548 30.7713ZM381.931 37.1065C381.384 37.1065 380.912 36.9929 380.514 36.7656C380.118 36.536 379.814 36.2116 379.601 35.7926C379.388 35.3712 379.282 34.8752 379.282 34.3047C379.282 33.7436 379.388 33.2512 379.601 32.8274C379.817 32.4013 380.117 32.0698 380.503 31.8331C380.889 31.594 381.342 31.4744 381.863 31.4744C382.199 31.4744 382.517 31.5289 382.815 31.6378C383.116 31.7443 383.381 31.91 383.61 32.1349C383.842 32.3598 384.025 32.6463 384.157 32.9943C384.29 33.34 384.356 33.7519 384.356 34.2301V34.6243H379.885V33.7578H383.124C383.122 33.5116 383.068 33.2926 382.964 33.1009C382.86 32.9067 382.714 32.754 382.527 32.6428C382.343 32.5315 382.127 32.4759 381.881 32.4759C381.618 32.4759 381.387 32.5398 381.189 32.6676C380.99 32.7931 380.835 32.9588 380.723 33.1648C380.614 33.3684 380.559 33.5921 380.556 33.8359V34.5923C380.556 34.9096 380.614 35.1818 380.73 35.4091C380.846 35.634 381.009 35.8068 381.217 35.9276C381.425 36.0459 381.669 36.1051 381.949 36.1051C382.136 36.1051 382.305 36.0791 382.456 36.027C382.608 35.9725 382.739 35.8932 382.85 35.7891C382.962 35.6849 383.046 35.5559 383.103 35.402L384.303 35.5369C384.227 35.8542 384.083 36.1312 383.87 36.3679C383.659 36.6023 383.389 36.7846 383.06 36.9148C382.731 37.0426 382.355 37.1065 381.931 37.1065ZM387.823 37.1065C387.278 37.1065 386.811 36.987 386.42 36.7479C386.032 36.5088 385.733 36.1785 385.522 35.7571C385.314 35.3333 385.209 34.8456 385.209 34.294C385.209 33.7401 385.316 33.2512 385.529 32.8274C385.742 32.4013 386.043 32.0698 386.431 31.8331C386.822 31.594 387.283 31.4744 387.816 31.4744C388.259 31.4744 388.65 31.5561 388.991 31.7195C389.335 31.8804 389.608 32.1089 389.812 32.4048C390.015 32.6984 390.131 33.0417 390.16 33.4347H388.931C388.881 33.1719 388.763 32.9529 388.576 32.7777C388.391 32.6001 388.144 32.5114 387.834 32.5114C387.571 32.5114 387.34 32.5824 387.141 32.7244C386.942 32.8641 386.787 33.0653 386.676 33.3281C386.567 33.5909 386.513 33.9058 386.513 34.2727C386.513 34.6444 386.567 34.964 386.676 35.2315C386.785 35.4967 386.938 35.7015 387.134 35.8459C387.333 35.9879 387.566 36.0589 387.834 36.0589C388.023 36.0589 388.192 36.0234 388.341 35.9524C388.493 35.879 388.62 35.7737 388.721 35.6364C388.823 35.4991 388.893 35.3321 388.931 35.1357H390.16C390.129 35.5215 390.015 35.8636 389.819 36.1619C389.622 36.4579 389.355 36.6899 389.016 36.858C388.678 37.0237 388.28 37.1065 387.823 37.1065ZM393.939 31.5455V32.5398H390.803V31.5455H393.939ZM391.577 30.2386H392.863V35.3594C392.863 35.5322 392.889 35.6648 392.941 35.7571C392.996 35.8471 393.067 35.9086 393.154 35.9418C393.242 35.9749 393.339 35.9915 393.445 35.9915C393.526 35.9915 393.599 35.9856 393.665 35.9737C393.734 35.9619 393.786 35.9512 393.822 35.9418L394.038 36.9467C393.97 36.9704 393.871 36.9964 393.744 37.0249C393.618 37.0533 393.464 37.0698 393.282 37.0746C392.96 37.084 392.67 37.0355 392.412 36.929C392.154 36.8201 391.949 36.652 391.798 36.4247C391.648 36.1974 391.575 35.9134 391.577 35.5724V30.2386Z" fill="#101727"/>
<path d="M240.631 75.2774V68.0632H241.286V71.9531H241.346L244.868 68.0632H245.732L242.646 71.3974L245.712 75.2774H244.908L242.229 71.8539L241.266 72.9355V75.2774H240.611H240.631Z" fill="#101727"/>
<path d="M247.515 68.9369C247.386 68.9369 247.277 68.8972 247.188 68.8079C247.098 68.7186 247.049 68.6094 247.049 68.4904C247.049 68.3713 247.098 68.2621 247.188 68.1728C247.277 68.0835 247.386 68.0438 247.515 68.0438C247.644 68.0438 247.753 68.0835 247.843 68.1728C247.932 68.2621 247.982 68.3713 247.982 68.4904C247.982 68.6094 247.932 68.7186 247.843 68.8079C247.753 68.8972 247.634 68.9369 247.515 68.9369ZM247.198 75.2778V69.8697H247.833V75.2778H247.198Z" fill="#101727"/>
<path d="M251.627 69.8709V70.4166H249.047V69.8709H251.627ZM249.851 68.5709H250.486V73.8699C250.486 74.0981 250.525 74.2767 250.605 74.3958C250.684 74.5149 250.783 74.6141 250.903 74.6637C251.032 74.7134 251.161 74.7431 251.299 74.7431C251.379 74.7431 251.448 74.7431 251.508 74.7233C251.567 74.7134 251.617 74.7034 251.667 74.6935L251.796 75.2591C251.736 75.279 251.657 75.3088 251.567 75.3286C251.478 75.3484 251.369 75.3584 251.24 75.3584C251.012 75.3584 250.783 75.3087 250.575 75.2095C250.367 75.1103 250.188 74.9614 250.049 74.763C249.91 74.5645 249.841 74.3164 249.841 74.0187V68.5709H249.851Z" fill="#101727"/>
<path d="M255.108 75.3963C254.622 75.3963 254.205 75.2773 253.848 75.0292C253.491 74.791 253.213 74.4536 253.014 74.0369C252.816 73.6201 252.717 73.1339 252.717 72.598C252.717 72.0622 252.816 71.5759 253.014 71.1492C253.213 70.7225 253.491 70.3951 253.848 70.1569C254.205 69.9188 254.622 69.7997 255.088 69.7997C255.456 69.7997 255.783 69.8692 256.071 70.0081C256.369 70.147 256.607 70.3455 256.795 70.5935C256.984 70.8416 257.103 71.1393 257.152 71.4767H256.517C256.448 71.1691 256.289 70.9111 256.041 70.6928C255.793 70.4745 255.475 70.3653 255.088 70.3653C254.741 70.3653 254.434 70.4546 254.176 70.6432C253.908 70.8317 253.699 71.0897 253.55 71.4271C253.402 71.7645 253.322 72.1416 253.322 72.5782C253.322 73.0148 253.392 73.4018 253.54 73.7392C253.689 74.0766 253.888 74.3445 254.156 74.533C254.424 74.7216 254.731 74.8208 255.088 74.8208C255.327 74.8208 255.545 74.7712 255.743 74.6819C255.942 74.5926 256.111 74.4636 256.24 74.2949C256.378 74.1262 256.468 73.9277 256.517 73.6995H257.152C257.103 74.0269 256.994 74.3147 256.805 74.5727C256.617 74.8307 256.378 75.0292 256.091 75.178C255.803 75.3269 255.466 75.3963 255.088 75.3963H255.108Z" fill="#101727"/>
<path d="M259.137 71.8936V75.2774H258.512V68.0632H259.137V70.7127H259.196C259.325 70.4349 259.524 70.2066 259.782 70.0479C260.04 69.8891 260.387 69.7998 260.794 69.7998C261.161 69.7998 261.479 69.8792 261.757 70.028C262.034 70.1769 262.253 70.4051 262.402 70.6929C262.55 70.9806 262.63 71.3478 262.63 71.7745V75.2774H261.995V71.8142C261.995 71.3676 261.876 71.0203 261.618 70.7623C261.37 70.5043 261.032 70.3753 260.615 70.3753C260.328 70.3753 260.07 70.4349 259.841 70.5539C259.613 70.673 259.435 70.8516 259.306 71.0799C259.177 71.3081 259.107 71.576 259.107 71.8936H259.137Z" fill="#101727"/>
<path d="M266.492 75.3981C265.986 75.3981 265.549 75.2791 265.182 75.0409C264.815 74.8028 264.527 74.4753 264.329 74.0585C264.13 73.6417 264.031 73.1555 264.031 72.6097C264.031 72.064 264.13 71.5777 264.329 71.161C264.527 70.7442 264.805 70.4068 265.163 70.1686C265.52 69.9305 265.927 69.8114 266.403 69.8114C266.701 69.8114 266.978 69.861 267.256 69.9702C267.524 70.0793 267.772 70.2381 267.991 70.4564C268.209 70.6747 268.378 70.9526 268.507 71.28C268.636 71.6075 268.695 72.0044 268.695 72.4609V72.7685H264.468V72.2128H268.05C268.05 71.8655 267.981 71.548 267.842 71.2701C267.703 70.9923 267.504 70.774 267.256 70.6053C267.008 70.4366 266.72 70.3572 266.403 70.3572C266.056 70.3572 265.758 70.4465 265.5 70.635C265.242 70.8236 265.034 71.0617 264.885 71.3594C264.736 71.6571 264.666 71.9846 264.656 72.3418V72.6693C264.656 73.096 264.736 73.473 264.885 73.7906C265.034 74.1081 265.242 74.3562 265.52 74.5348C265.798 74.7134 266.125 74.8027 266.492 74.8027C266.75 74.8027 266.969 74.7631 267.167 74.6837C267.365 74.6043 267.524 74.4951 267.653 74.3562C267.782 74.2173 267.881 74.0684 267.951 73.9097L268.546 74.1081C268.467 74.3364 268.328 74.5447 268.139 74.7432C267.951 74.9318 267.723 75.0905 267.445 75.2096C267.167 75.3287 266.849 75.3882 266.482 75.3882L266.492 75.3981Z" fill="#101727"/>
<path d="M270.688 71.8953V75.2791H270.062V69.8709H270.668V70.7243H270.727C270.856 70.4465 271.055 70.2282 271.323 70.0595C271.591 69.8908 271.928 69.8114 272.325 69.8114C272.692 69.8114 273.01 69.8908 273.288 70.0396C273.565 70.1885 273.784 70.4167 273.933 70.7045C274.091 71.0022 274.161 71.3594 274.161 71.7861V75.289H273.536V71.8258C273.536 71.3793 273.417 71.032 273.159 70.7739C272.91 70.5159 272.583 70.3869 272.166 70.3869C271.878 70.3869 271.63 70.4465 271.412 70.5656C271.194 70.6846 271.015 70.8633 270.886 71.0915C270.757 71.3197 270.698 71.5876 270.698 71.9052L270.688 71.8953Z" fill="#101727"/>
<path d="M278.605 75.2795V69.8714H279.211V70.7049H279.26C279.37 70.437 279.558 70.2088 279.826 70.0401C280.094 69.8714 280.402 69.792 280.739 69.792C280.789 69.792 280.848 69.792 280.908 69.792C280.967 69.792 281.027 69.792 281.066 69.792V70.4271C281.066 70.4271 280.987 70.4171 280.918 70.4072C280.848 70.4072 280.769 70.3973 280.689 70.3973C280.411 70.3973 280.153 70.4568 279.935 70.5759C279.717 70.695 279.538 70.8637 279.419 71.0721C279.29 71.2805 279.231 71.5186 279.231 71.7865V75.2795H278.605Z" fill="#101727"/>
<path d="M284.164 75.3981C283.658 75.3981 283.221 75.2791 282.854 75.0409C282.487 74.8028 282.199 74.4753 282.001 74.0585C281.802 73.6417 281.703 73.1555 281.703 72.6097C281.703 72.064 281.802 71.5777 282.001 71.161C282.199 70.7442 282.477 70.4068 282.834 70.1686C283.192 69.9305 283.598 69.8114 284.075 69.8114C284.372 69.8114 284.65 69.861 284.928 69.9702C285.196 70.0793 285.444 70.2381 285.662 70.4564C285.881 70.6747 286.049 70.9526 286.178 71.28C286.307 71.6075 286.367 72.0044 286.367 72.4609V72.7685H282.14V72.2128H285.722C285.722 71.8655 285.653 71.548 285.514 71.2701C285.375 70.9923 285.176 70.774 284.928 70.6053C284.68 70.4366 284.392 70.3572 284.075 70.3572C283.727 70.3572 283.43 70.4465 283.172 70.635C282.914 70.8236 282.705 71.0617 282.557 71.3594C282.408 71.6571 282.338 71.9846 282.328 72.3418V72.6693C282.328 73.096 282.408 73.473 282.557 73.7906C282.705 74.1081 282.914 74.3562 283.192 74.5348C283.469 74.7134 283.797 74.8027 284.164 74.8027C284.422 74.8027 284.64 74.7631 284.839 74.6837C285.037 74.6043 285.196 74.4951 285.325 74.3562C285.454 74.2173 285.553 74.0684 285.623 73.9097L286.218 74.1081C286.139 74.3364 286 74.5447 285.811 74.7432C285.623 74.9318 285.395 75.0905 285.117 75.2096C284.839 75.3287 284.521 75.3882 284.154 75.3882L284.164 75.3981Z" fill="#101727"/>
<path d="M287.736 75.2773V69.8692H288.342V70.7027H288.401C288.511 70.4248 288.689 70.2065 288.937 70.0378C289.185 69.8692 289.493 69.7997 289.85 69.7997C290.227 69.7997 290.535 69.889 290.773 70.0577C291.011 70.2363 291.19 70.4745 291.309 70.7821H291.358C291.478 70.4844 291.676 70.2462 291.954 70.0676C292.232 69.889 292.569 69.7997 292.956 69.7997C293.462 69.7997 293.859 69.9585 294.147 70.276C294.435 70.5935 294.583 71.05 294.583 71.6553V75.2773H293.958V71.6553C293.958 71.2286 293.849 70.9111 293.631 70.6928C293.413 70.4844 293.125 70.3752 292.768 70.3752C292.351 70.3752 292.033 70.5042 291.815 70.7523C291.597 71.0004 291.478 71.3278 291.478 71.7149V75.2773H290.833V71.5958C290.833 71.2286 290.733 70.9309 290.525 70.7126C290.317 70.4844 290.029 70.3752 289.662 70.3752C289.414 70.3752 289.185 70.4348 288.987 70.5538C288.788 70.6729 288.63 70.8416 288.52 71.0599C288.411 71.2782 288.352 71.5263 288.352 71.8042V75.2673H287.727L287.736 75.2773Z" fill="#101727"/>
<path d="M298.356 75.3963C297.89 75.3963 297.473 75.2773 297.116 75.0391C296.759 74.801 296.481 74.4735 296.272 74.0567C296.074 73.6399 295.965 73.1537 295.965 72.6079C295.965 72.0622 296.064 71.566 296.272 71.1393C296.471 70.7225 296.759 70.3851 297.116 70.1569C297.473 69.9188 297.89 69.7997 298.356 69.7997C298.823 69.7997 299.239 69.9188 299.597 70.1569C299.954 70.3951 300.232 70.7225 300.44 71.1492C300.649 71.5759 300.748 72.0622 300.748 72.6079C300.748 73.1537 300.649 73.6399 300.44 74.0567C300.242 74.4735 299.954 74.801 299.597 75.0391C299.239 75.2773 298.823 75.3963 298.356 75.3963ZM298.356 74.8208C298.733 74.8208 299.051 74.7216 299.309 74.5132C299.567 74.3147 299.765 74.0468 299.904 73.7094C300.043 73.372 300.103 73.0049 300.103 72.598C300.103 72.1912 300.033 71.824 299.904 71.4866C299.765 71.1492 299.567 70.8813 299.309 70.6729C299.051 70.4645 298.733 70.3653 298.356 70.3653C297.979 70.3653 297.662 70.4645 297.404 70.6729C297.146 70.8813 296.947 71.1492 296.808 71.4866C296.669 71.824 296.61 72.1912 296.61 72.598C296.61 73.0049 296.679 73.372 296.808 73.7094C296.947 74.0468 297.146 74.3147 297.404 74.5132C297.662 74.7116 297.979 74.8208 298.356 74.8208Z" fill="#101727"/>
<path d="M304.059 75.3981C303.612 75.3981 303.225 75.279 302.898 75.0508C302.56 74.8126 302.302 74.4852 302.114 74.0684C301.925 73.6516 301.836 73.1555 301.836 72.5998C301.836 72.0441 301.925 71.5579 302.114 71.1312C302.302 70.7144 302.56 70.3869 302.898 70.1488C303.235 69.9106 303.622 69.8015 304.069 69.8015C304.396 69.8015 304.674 69.861 304.892 69.9801C305.111 70.0992 305.289 70.2381 305.418 70.4167C305.547 70.5854 305.656 70.7541 305.726 70.9129H305.785V68.0748H306.42V75.289H305.805V74.2867H305.736C305.666 74.4554 305.557 74.6142 305.428 74.7928C305.299 74.9615 305.12 75.1103 304.902 75.2294C304.684 75.3485 304.406 75.408 304.079 75.408L304.059 75.3981ZM304.138 74.8226C304.485 74.8226 304.783 74.7233 305.031 74.5348C305.279 74.3463 305.468 74.0783 305.597 73.7409C305.726 73.4036 305.795 73.0166 305.795 72.5799C305.795 72.1433 305.726 71.7662 305.597 71.4289C305.468 71.0915 305.279 70.8335 305.031 70.6449C304.783 70.4564 304.485 70.3572 304.128 70.3572C303.771 70.3572 303.463 70.4564 303.215 70.6548C302.967 70.8533 302.779 71.1113 302.65 71.4487C302.521 71.7861 302.461 72.1532 302.461 72.57C302.461 72.9868 302.531 73.3738 302.66 73.7112C302.789 74.0486 302.977 74.3165 303.225 74.515C303.473 74.7134 303.781 74.8127 304.138 74.8127V74.8226Z" fill="#101727"/>
<path d="M310.391 75.3981C309.885 75.3981 309.448 75.2791 309.081 75.0409C308.714 74.8028 308.426 74.4753 308.227 74.0585C308.029 73.6417 307.93 73.1555 307.93 72.6097C307.93 72.064 308.029 71.5777 308.227 71.161C308.426 70.7442 308.704 70.4068 309.061 70.1686C309.418 69.9305 309.825 69.8114 310.301 69.8114C310.599 69.8114 310.877 69.861 311.155 69.9702C311.423 70.0793 311.671 70.2381 311.889 70.4564C312.107 70.6747 312.276 70.9526 312.405 71.28C312.534 71.6075 312.594 72.0044 312.594 72.4609V72.7685H308.366V72.2128H311.949C311.949 71.8655 311.879 71.548 311.74 71.2701C311.601 70.9923 311.403 70.774 311.155 70.6053C310.907 70.4366 310.619 70.3572 310.301 70.3572C309.954 70.3572 309.656 70.4465 309.398 70.635C309.14 70.8236 308.932 71.0617 308.783 71.3594C308.634 71.6571 308.565 71.9846 308.555 72.3418V72.6693C308.555 73.096 308.634 73.473 308.783 73.7906C308.932 74.1081 309.14 74.3562 309.418 74.5348C309.696 74.7134 310.023 74.8027 310.391 74.8027C310.649 74.8027 310.867 74.7631 311.065 74.6837C311.264 74.6043 311.423 74.4951 311.552 74.3562C311.681 74.2173 311.78 74.0684 311.849 73.9097L312.445 74.1081C312.365 74.3364 312.226 74.5447 312.038 74.7432C311.849 74.9318 311.621 75.0905 311.343 75.2096C311.065 75.3287 310.748 75.3882 310.381 75.3882L310.391 75.3981Z" fill="#101727"/>
<path d="M314.59 68.0632V75.2774H313.965V68.0632H314.59Z" fill="#101727"/>
<path d="M319.026 77.3115V69.8692H319.631V70.9012H319.71C319.78 70.7424 319.889 70.5737 320.018 70.405C320.147 70.2363 320.325 70.0875 320.544 69.9783C320.762 69.8691 321.04 69.7997 321.367 69.7997C321.814 69.7997 322.201 69.9188 322.538 70.147C322.876 70.3752 323.134 70.7027 323.322 71.1294C323.511 71.5561 323.6 72.0324 323.6 72.598C323.6 73.1636 323.511 73.6499 323.322 74.0666C323.134 74.4834 322.876 74.8109 322.538 75.049C322.201 75.2872 321.814 75.3963 321.377 75.3963C321.05 75.3963 320.772 75.3368 320.554 75.2177C320.335 75.0987 320.157 74.9597 320.018 74.7811C319.879 74.6124 319.78 74.4437 319.71 74.275H319.651V77.3115H319.016H319.026ZM319.651 72.5782C319.651 73.0148 319.72 73.4018 319.849 73.7392C319.978 74.0766 320.167 74.3445 320.415 74.533C320.663 74.7216 320.961 74.8208 321.308 74.8208C321.655 74.8208 321.973 74.7216 322.221 74.5231C322.469 74.3246 322.657 74.0567 322.786 73.7193C322.915 73.3819 322.985 73.0049 322.985 72.5782C322.985 72.1515 322.925 71.7843 322.796 71.4569C322.667 71.1294 322.479 70.8615 322.231 70.663C321.983 70.4645 321.675 70.3653 321.318 70.3653C320.961 70.3653 320.663 70.4645 320.415 70.6531C320.167 70.8416 319.978 71.0996 319.849 71.437C319.72 71.7744 319.661 72.1515 319.661 72.5881L319.651 72.5782Z" fill="#101727"/>
<path d="M327.172 75.3981C326.666 75.3981 326.229 75.2791 325.862 75.0409C325.495 74.8028 325.207 74.4753 325.009 74.0585C324.81 73.6417 324.711 73.1555 324.711 72.6097C324.711 72.064 324.81 71.5777 325.009 71.161C325.207 70.7442 325.485 70.4068 325.842 70.1686C326.199 69.9305 326.606 69.8114 327.083 69.8114C327.38 69.8114 327.658 69.861 327.936 69.9702C328.204 70.0793 328.452 70.2381 328.67 70.4564C328.889 70.6747 329.057 70.9526 329.186 71.28C329.315 71.6075 329.375 72.0044 329.375 72.4609V72.7685H325.148V72.2128H328.73C328.73 71.8655 328.66 71.548 328.521 71.2701C328.383 70.9923 328.184 70.774 327.936 70.6053C327.688 70.4366 327.4 70.3572 327.083 70.3572C326.735 70.3572 326.438 70.4465 326.18 70.635C325.922 70.8236 325.713 71.0617 325.564 71.3594C325.415 71.6571 325.346 71.9846 325.336 72.3418V72.6693C325.336 73.096 325.415 73.473 325.564 73.7906C325.713 74.1081 325.922 74.3562 326.199 74.5348C326.477 74.7134 326.805 74.8027 327.172 74.8027C327.43 74.8027 327.648 74.7631 327.847 74.6837C328.045 74.6043 328.204 74.4951 328.333 74.3562C328.462 74.2173 328.561 74.0684 328.631 73.9097L329.226 74.1081C329.147 74.3364 329.008 74.5447 328.819 74.7432C328.631 74.9318 328.402 75.0905 328.125 75.2096C327.847 75.3287 327.529 75.3882 327.162 75.3882L327.172 75.3981Z" fill="#101727"/>
<path d="M330.742 75.2795V69.8714H331.348V70.7049H331.397C331.506 70.437 331.695 70.2088 331.963 70.0401C332.231 69.8714 332.538 69.792 332.876 69.792C332.925 69.792 332.985 69.792 333.044 69.792C333.104 69.792 333.163 69.792 333.203 69.792V70.4271C333.203 70.4271 333.124 70.4171 333.054 70.4072C332.985 70.4072 332.905 70.3973 332.826 70.3973C332.548 70.3973 332.29 70.4568 332.072 70.5759C331.854 70.695 331.675 70.8637 331.556 71.0721C331.427 71.2805 331.367 71.5186 331.367 71.7865V75.2795H330.742Z" fill="#101727"/>
<path d="M334.276 75.2773V69.8692H334.881V70.7027H334.94C335.05 70.4248 335.228 70.2065 335.476 70.0378C335.724 69.8692 336.032 69.7997 336.389 69.7997C336.766 69.7997 337.074 69.889 337.312 70.0577C337.55 70.2363 337.729 70.4745 337.848 70.7821H337.898C338.017 70.4844 338.215 70.2462 338.493 70.0676C338.771 69.889 339.108 69.7997 339.495 69.7997C340.001 69.7997 340.398 69.9585 340.686 70.276C340.974 70.5935 341.123 71.05 341.123 71.6553V75.2773H340.497V71.6553C340.497 71.2286 340.388 70.9111 340.17 70.6928C339.952 70.4844 339.664 70.3752 339.307 70.3752C338.89 70.3752 338.572 70.5042 338.354 70.7523C338.136 71.0004 338.017 71.3278 338.017 71.7149V75.2773H337.372V71.5958C337.372 71.2286 337.272 70.9309 337.064 70.7126C336.856 70.4844 336.568 70.3752 336.201 70.3752C335.953 70.3752 335.724 70.4348 335.526 70.5538C335.327 70.6729 335.169 70.8416 335.059 71.0599C334.95 71.2782 334.891 71.5263 334.891 71.8042V75.2673H334.266L334.276 75.2773Z" fill="#101727"/>
<path d="M343.115 68.9369C342.986 68.9369 342.877 68.8972 342.787 68.8079C342.698 68.7186 342.648 68.6094 342.648 68.4904C342.648 68.3713 342.698 68.2621 342.787 68.1728C342.877 68.0835 342.986 68.0438 343.115 68.0438C343.244 68.0438 343.353 68.0835 343.442 68.1728C343.532 68.2621 343.581 68.3713 343.581 68.4904C343.581 68.6094 343.532 68.7186 343.442 68.8079C343.353 68.8972 343.234 68.9369 343.115 68.9369ZM342.797 75.2778V69.8697H343.432V75.2778H342.797Z" fill="#101727"/>
<path d="M347.227 69.8709V70.4166H344.646V69.8709H347.227ZM345.45 68.5709H346.085V73.8699C346.085 74.0981 346.125 74.2767 346.204 74.3958C346.284 74.5149 346.383 74.6141 346.502 74.6637C346.631 74.7134 346.76 74.7431 346.899 74.7431C346.978 74.7431 347.048 74.7431 347.107 74.7233C347.167 74.7134 347.217 74.7034 347.266 74.6935L347.395 75.2591C347.336 75.279 347.256 75.3088 347.167 75.3286C347.078 75.3484 346.968 75.3584 346.839 75.3584C346.611 75.3584 346.383 75.3087 346.175 75.2095C345.966 75.1103 345.788 74.9614 345.649 74.763C345.51 74.5645 345.44 74.3164 345.44 74.0187V68.5709H345.45Z" fill="#101727"/>
<path d="M352.187 71.0506L351.612 71.2093C351.552 71.0506 351.473 70.9017 351.373 70.7727C351.274 70.6437 351.135 70.5346 350.967 70.4552C350.798 70.3758 350.599 70.3361 350.351 70.3361C349.984 70.3361 349.686 70.4254 349.448 70.5941C349.21 70.7727 349.101 70.991 349.101 71.2689C349.101 71.4971 349.18 71.6856 349.339 71.8345C349.498 71.9833 349.746 72.0925 350.083 72.1818L350.897 72.3803C351.354 72.4894 351.691 72.668 351.919 72.9062C352.147 73.1443 352.257 73.442 352.257 73.8092C352.257 74.1168 352.177 74.3847 351.999 74.6229C351.83 74.861 351.592 75.0496 351.294 75.1786C350.996 75.3175 350.639 75.3771 350.242 75.3771C349.716 75.3771 349.28 75.258 348.932 75.0198C348.585 74.7817 348.367 74.4344 348.277 73.9878L348.883 73.839C348.962 74.1565 349.111 74.4046 349.339 74.5733C349.567 74.742 349.865 74.8214 350.232 74.8214C350.649 74.8214 350.976 74.7321 351.225 74.5435C351.473 74.355 351.602 74.1267 351.602 73.839C351.602 73.6207 351.532 73.4321 351.383 73.2833C351.234 73.1344 351.016 73.0253 350.718 72.9558L349.835 72.7474C349.369 72.6383 349.022 72.4596 348.793 72.2116C348.565 71.9635 348.456 71.6658 348.456 71.2986C348.456 71.0009 348.535 70.733 348.704 70.5147C348.873 70.2964 349.091 70.1079 349.369 69.9789C349.657 69.8499 349.974 69.7804 350.341 69.7804C350.838 69.7804 351.234 69.8896 351.532 70.1178C351.83 70.346 352.038 70.6536 352.177 71.0406L352.187 71.0506Z" fill="#101727"/>
<path d="M240.83 80.8446C240.701 80.8446 240.592 80.8049 240.502 80.7156C240.413 80.6263 240.363 80.5172 240.363 80.3981C240.363 80.279 240.413 80.1698 240.502 80.0805C240.592 79.9912 240.701 79.9515 240.83 79.9515C240.959 79.9515 241.068 79.9912 241.157 80.0805C241.246 80.1698 241.296 80.279 241.296 80.3981C241.296 80.5172 241.246 80.6263 241.157 80.7156C241.068 80.8049 240.949 80.8446 240.83 80.8446ZM240.502 87.1855V81.7774H241.137V87.1855H240.502Z" fill="#101727"/>
<path d="M243.43 83.803V87.1868H242.805V81.7787H243.41V82.632H243.47C243.599 82.3542 243.797 82.1359 244.065 81.9672C244.333 81.7985 244.67 81.7191 245.067 81.7191C245.434 81.7191 245.752 81.7985 246.03 81.9474C246.308 82.0962 246.526 82.3244 246.675 82.6122C246.833 82.9099 246.903 83.2671 246.903 83.6938V87.1967H246.278V83.7335C246.278 83.287 246.159 82.9397 245.901 82.6817C245.653 82.4237 245.325 82.2947 244.908 82.2947C244.621 82.2947 244.373 82.3542 244.154 82.4733C243.936 82.5924 243.757 82.771 243.628 82.9992C243.499 83.2274 243.44 83.4954 243.44 83.8129L243.43 83.803Z" fill="#101727"/>
<path d="M251.776 89.208C251.656 89.208 251.537 89.1981 251.428 89.1683C251.319 89.1485 251.23 89.1187 251.17 89.0889L251.339 88.5332C251.656 88.6324 251.924 88.6424 252.143 88.5332C252.361 88.4241 252.55 88.176 252.698 87.7791L252.897 87.2333L250.902 81.7656H251.587L253.195 86.3501H253.244L254.852 81.7656H255.536L253.244 88.0371C253.145 88.2951 253.026 88.5134 252.887 88.6821C252.748 88.8508 252.579 88.9897 252.401 89.0691C252.222 89.1584 252.014 89.1981 251.786 89.1981L251.776 89.208Z" fill="#101727"/>
<path d="M258.663 87.3042C258.197 87.3042 257.78 87.1851 257.423 86.947C257.065 86.7088 256.787 86.3813 256.579 85.9646C256.381 85.5478 256.271 85.0615 256.271 84.5158C256.271 83.97 256.371 83.4738 256.579 83.0472C256.778 82.6304 257.065 82.293 257.423 82.0648C257.78 81.8266 258.197 81.7075 258.663 81.7075C259.129 81.7075 259.546 81.8266 259.903 82.0648C260.261 82.3029 260.538 82.6304 260.747 83.0571C260.955 83.4838 261.054 83.97 261.054 84.5158C261.054 85.0615 260.955 85.5478 260.747 85.9646C260.548 86.3813 260.261 86.7088 259.903 86.947C259.546 87.1851 259.129 87.3042 258.663 87.3042ZM258.663 86.7286C259.04 86.7286 259.358 86.6294 259.616 86.421C259.874 86.2226 260.072 85.9546 260.211 85.6172C260.35 85.2799 260.409 84.9127 260.409 84.5059C260.409 84.099 260.34 83.7318 260.211 83.3945C260.072 83.0571 259.874 82.7891 259.616 82.5808C259.358 82.3724 259.04 82.2731 258.663 82.2731C258.286 82.2731 257.968 82.3724 257.71 82.5808C257.452 82.7891 257.254 83.0571 257.115 83.3945C256.976 83.7318 256.916 84.099 256.916 84.5059C256.916 84.9127 256.986 85.2799 257.115 85.6172C257.254 85.9546 257.452 86.2226 257.71 86.421C257.968 86.6195 258.286 86.7286 258.663 86.7286Z" fill="#101727"/>
<path d="M265.865 85.1214V81.7773H266.491V87.1855H265.865V86.2824H265.816C265.687 86.5603 265.488 86.7885 265.21 86.9771C264.933 87.1656 264.595 87.2549 264.198 87.2549C263.851 87.2549 263.543 87.1755 263.275 87.0267C263.007 86.8778 262.799 86.6496 262.64 86.3618C262.491 86.0641 262.412 85.7069 262.412 85.2802V81.7773H263.037V85.2405C263.037 85.6672 263.156 86.0046 263.414 86.2626C263.662 86.5206 263.98 86.6496 264.377 86.6496C264.625 86.6496 264.853 86.5901 265.081 86.471C265.31 86.3519 265.488 86.1832 265.637 85.955C265.786 85.7268 265.855 85.4489 265.855 85.1214H265.865Z" fill="#101727"/>
<path d="M268.148 87.1873V81.7792H268.754V82.6128H268.803C268.913 82.3448 269.101 82.1166 269.369 81.9479C269.637 81.7792 269.945 81.6998 270.282 81.6998C270.332 81.6998 270.391 81.6998 270.451 81.6998C270.51 81.6998 270.57 81.6998 270.609 81.6998V82.3349C270.609 82.3349 270.53 82.325 270.461 82.3151C270.391 82.3151 270.312 82.3051 270.232 82.3051C269.954 82.3051 269.696 82.3647 269.478 82.4838C269.26 82.6028 269.081 82.7715 268.962 82.9799C268.833 83.1883 268.774 83.4265 268.774 83.6944V87.1873H268.148Z" fill="#101727"/>
<path d="M275.987 87.3145C275.66 87.3145 275.362 87.255 275.094 87.126C274.826 86.997 274.608 86.8085 274.449 86.5703C274.29 86.3222 274.211 86.0345 274.211 85.6871C274.211 85.4192 274.261 85.191 274.36 85.0124C274.459 84.8337 274.608 84.675 274.786 84.5559C274.975 84.4368 275.193 84.3475 275.441 84.2781C275.689 84.2086 275.977 84.159 276.285 84.1193C276.583 84.0796 276.841 84.0498 277.059 84.0201C277.277 83.9903 277.426 83.9506 277.545 83.8811C277.654 83.8216 277.714 83.7224 277.714 83.5834V83.4544C277.714 83.0873 277.605 82.7995 277.386 82.5812C277.168 82.3728 276.85 82.2637 276.444 82.2637C276.057 82.2637 275.739 82.353 275.491 82.5217C275.243 82.6904 275.074 82.8987 274.975 83.127L274.38 82.9087C274.499 82.611 274.667 82.3728 274.886 82.1942C275.104 82.0156 275.342 81.8866 275.61 81.8072C275.878 81.7278 276.146 81.6881 276.424 81.6881C276.632 81.6881 276.851 81.7179 277.069 81.7675C277.297 81.8171 277.505 81.9163 277.694 82.0453C277.883 82.1743 278.041 82.3629 278.16 82.601C278.279 82.8392 278.339 83.1369 278.339 83.4941V87.1657H277.714V86.3123H277.674C277.595 86.4711 277.486 86.6298 277.337 86.7787C277.188 86.9275 276.999 87.0565 276.781 87.1458C276.563 87.2451 276.295 87.2947 275.997 87.2947L275.987 87.3145ZM276.076 86.739C276.414 86.739 276.702 86.6596 276.94 86.5207C277.188 86.3718 277.376 86.1734 277.505 85.9352C277.634 85.6871 277.704 85.4192 277.704 85.1215V84.3376C277.704 84.3376 277.575 84.417 277.466 84.4567C277.357 84.4964 277.228 84.5261 277.089 84.546C276.95 84.5757 276.801 84.5956 276.662 84.6154C276.523 84.6353 276.394 84.6551 276.285 84.6651C275.977 84.7047 275.719 84.7643 275.501 84.8437C275.283 84.9231 275.124 85.0322 275.005 85.1711C274.886 85.3101 274.836 85.4887 274.836 85.707C274.836 86.0345 274.955 86.2925 275.193 86.4711C275.431 86.6497 275.719 86.739 276.076 86.739Z" fill="#101727"/>
<path d="M279.998 87.1873V81.7792H280.603V82.6128H280.653C280.762 82.3448 280.951 82.1166 281.219 81.9479C281.487 81.7792 281.794 81.6998 282.132 81.6998C282.181 81.6998 282.241 81.6998 282.3 81.6998C282.36 81.6998 282.419 81.6998 282.459 81.6998V82.3349C282.459 82.3349 282.38 82.325 282.31 82.3151C282.241 82.3151 282.161 82.3051 282.082 82.3051C281.804 82.3051 281.546 82.3647 281.328 82.4838C281.109 82.6028 280.931 82.7715 280.812 82.9799C280.683 83.1883 280.623 83.4265 280.623 83.6944V87.1873H279.998Z" fill="#101727"/>
<path d="M285.553 87.3059C285.047 87.3059 284.61 87.1868 284.243 86.9486C283.876 86.7105 283.588 86.383 283.389 85.9662C283.191 85.5495 283.092 85.0632 283.092 84.5174C283.092 83.9717 283.191 83.4854 283.389 83.0687C283.588 82.6519 283.866 82.3145 284.223 82.0764C284.58 81.8382 284.987 81.7191 285.463 81.7191C285.761 81.7191 286.039 81.7687 286.317 81.8779C286.585 81.987 286.833 82.1458 287.051 82.3641C287.269 82.5824 287.438 82.8603 287.567 83.1877C287.696 83.5152 287.756 83.9121 287.756 84.3686V84.6762H283.528V84.1205H287.111C287.111 83.7732 287.041 83.4557 286.902 83.1778C286.763 82.9 286.565 82.6817 286.317 82.513C286.069 82.3443 285.781 82.2649 285.463 82.2649C285.116 82.2649 284.818 82.3542 284.56 82.5427C284.302 82.7313 284.094 82.9694 283.945 83.2671C283.796 83.5648 283.727 83.8923 283.717 84.2495V84.577C283.717 85.0037 283.796 85.3808 283.945 85.6983C284.094 86.0158 284.302 86.2639 284.58 86.4425C284.858 86.6212 285.186 86.7105 285.553 86.7105C285.811 86.7105 286.029 86.6708 286.228 86.5914C286.426 86.512 286.585 86.4028 286.714 86.2639C286.843 86.125 286.942 85.9762 287.011 85.8174L287.607 86.0158C287.527 86.2441 287.389 86.4525 287.2 86.6509C287.011 86.8395 286.783 86.9982 286.505 87.1173C286.228 87.2364 285.91 87.2959 285.543 87.2959L285.553 87.3059Z" fill="#101727"/>
<path d="M290.643 87.3145C290.316 87.3145 290.018 87.255 289.75 87.126C289.482 86.997 289.264 86.8085 289.105 86.5703C288.947 86.3222 288.867 86.0345 288.867 85.6871C288.867 85.4192 288.917 85.191 289.016 85.0124C289.115 84.8337 289.264 84.675 289.443 84.5559C289.631 84.4368 289.85 84.3475 290.098 84.2781C290.346 84.2086 290.634 84.159 290.941 84.1193C291.239 84.0796 291.497 84.0498 291.715 84.0201C291.933 83.9903 292.082 83.9506 292.201 83.8811C292.311 83.8216 292.37 83.7224 292.37 83.5834V83.4544C292.37 83.0873 292.261 82.7995 292.043 82.5812C291.824 82.3728 291.507 82.2637 291.1 82.2637C290.713 82.2637 290.395 82.353 290.147 82.5217C289.899 82.6904 289.731 82.8987 289.631 83.127L289.036 82.9087C289.155 82.611 289.324 82.3728 289.542 82.1942C289.76 82.0156 289.998 81.8866 290.266 81.8072C290.534 81.7278 290.802 81.6881 291.08 81.6881C291.288 81.6881 291.507 81.7179 291.725 81.7675C291.953 81.8171 292.162 81.9163 292.35 82.0453C292.539 82.1743 292.698 82.3629 292.817 82.601C292.936 82.8392 292.995 83.1369 292.995 83.4941V87.1657H292.37V86.3123H292.33C292.251 86.4711 292.142 86.6298 291.993 86.7787C291.844 86.9275 291.656 87.0565 291.437 87.1458C291.219 87.2451 290.951 87.2947 290.653 87.2947L290.643 87.3145ZM290.723 86.739C291.06 86.739 291.348 86.6596 291.586 86.5207C291.834 86.3718 292.023 86.1734 292.152 85.9352C292.281 85.6871 292.35 85.4192 292.35 85.1215V84.3376C292.35 84.3376 292.221 84.417 292.112 84.4567C292.003 84.4964 291.874 84.5261 291.735 84.546C291.596 84.5757 291.447 84.5956 291.308 84.6154C291.169 84.6353 291.04 84.6551 290.931 84.6651C290.624 84.7047 290.366 84.7643 290.147 84.8437C289.929 84.9231 289.77 85.0322 289.651 85.1711C289.532 85.3101 289.482 85.4887 289.482 85.707C289.482 86.0345 289.602 86.2925 289.84 86.4711C290.078 86.6497 290.366 86.739 290.723 86.739Z" fill="#101727"/>
<path d="M295.149 87.2432C295.01 87.2432 294.891 87.1936 294.791 87.0944C294.692 86.9952 294.643 86.8761 294.643 86.7372C294.643 86.5982 294.692 86.4792 294.791 86.3799C294.891 86.2807 295.01 86.2311 295.149 86.2311C295.288 86.2311 295.407 86.2807 295.506 86.3799C295.605 86.4792 295.655 86.5982 295.655 86.7372C295.655 86.8265 295.635 86.9158 295.585 86.9952C295.536 87.0745 295.476 87.1341 295.407 87.1837C295.327 87.2333 295.248 87.2532 295.149 87.2532V87.2432Z" fill="#101727"/>
<path d="M239.688 52.5035H398.17" stroke="#E5E7EB" stroke-miterlimit="10"/>
<path opacity="0.12" d="M328.398 101.453H251.414C245.019 101.453 239.834 106.637 239.834 113.033C239.834 119.429 245.019 124.613 251.414 124.613H328.398C334.794 124.613 339.978 119.429 339.978 113.033C339.978 106.637 334.794 101.453 328.398 101.453Z" fill="#01654D"/>
<path d="M273.326 111.168C273.28 111.02 273.217 110.887 273.137 110.77C273.058 110.651 272.963 110.549 272.851 110.465C272.741 110.381 272.614 110.317 272.471 110.275C272.329 110.231 272.173 110.209 272.004 110.209C271.702 110.209 271.432 110.285 271.196 110.437C270.96 110.589 270.774 110.813 270.638 111.108C270.504 111.401 270.438 111.759 270.438 112.18C270.438 112.605 270.504 112.965 270.638 113.26C270.772 113.555 270.958 113.78 271.196 113.934C271.434 114.086 271.711 114.162 272.026 114.162C272.312 114.162 272.559 114.107 272.768 113.997C272.979 113.887 273.141 113.731 273.255 113.53C273.368 113.326 273.425 113.088 273.425 112.815L273.656 112.851H272.128V112.054H274.412V112.73C274.412 113.212 274.309 113.628 274.104 113.98C273.899 114.332 273.617 114.603 273.258 114.794C272.898 114.983 272.486 115.077 272.021 115.077C271.502 115.077 271.047 114.961 270.655 114.728C270.264 114.493 269.959 114.161 269.739 113.73C269.521 113.298 269.412 112.785 269.412 112.191C269.412 111.737 269.476 111.331 269.605 110.973C269.735 110.616 269.916 110.313 270.149 110.064C270.382 109.813 270.655 109.622 270.968 109.492C271.281 109.36 271.622 109.294 271.99 109.294C272.302 109.294 272.592 109.34 272.862 109.431C273.131 109.521 273.37 109.649 273.579 109.816C273.79 109.983 273.963 110.181 274.099 110.41C274.234 110.639 274.323 110.892 274.365 111.168H273.326ZM277.223 115.082C276.8 115.082 276.434 114.995 276.126 114.819C275.82 114.641 275.585 114.39 275.42 114.065C275.255 113.739 275.173 113.355 275.173 112.914C275.173 112.48 275.255 112.098 275.42 111.77C275.587 111.441 275.819 111.184 276.118 111.001C276.417 110.816 276.768 110.723 277.171 110.723C277.431 110.723 277.677 110.765 277.907 110.85C278.14 110.932 278.345 111.06 278.523 111.234C278.703 111.409 278.844 111.63 278.946 111.9C279.049 112.167 279.1 112.486 279.1 112.856V113.161H275.64V112.491H278.147C278.145 112.3 278.104 112.13 278.023 111.982C277.942 111.832 277.83 111.714 277.685 111.627C277.542 111.541 277.375 111.498 277.185 111.498C276.981 111.498 276.803 111.548 276.649 111.647C276.495 111.744 276.375 111.872 276.289 112.032C276.204 112.189 276.161 112.362 276.159 112.551V113.136C276.159 113.382 276.204 113.593 276.294 113.769C276.384 113.943 276.509 114.076 276.671 114.17C276.832 114.262 277.021 114.307 277.237 114.307C277.382 114.307 277.513 114.287 277.63 114.247C277.747 114.205 277.849 114.143 277.935 114.063C278.021 113.982 278.086 113.882 278.13 113.763L279.059 113.868C279 114.113 278.889 114.328 278.724 114.511C278.561 114.692 278.352 114.833 278.097 114.934C277.842 115.033 277.551 115.082 277.223 115.082ZM282.05 110.778V111.548H279.623V110.778H282.05ZM280.222 109.767H281.217V113.73C281.217 113.864 281.238 113.967 281.278 114.038C281.32 114.108 281.375 114.155 281.443 114.181C281.511 114.207 281.586 114.219 281.668 114.219C281.731 114.219 281.787 114.215 281.839 114.206C281.892 114.196 281.932 114.188 281.96 114.181L282.127 114.959C282.074 114.977 281.998 114.997 281.899 115.019C281.802 115.041 281.683 115.054 281.542 115.058C281.293 115.065 281.068 115.027 280.868 114.945C280.669 114.861 280.51 114.731 280.393 114.555C280.277 114.379 280.221 114.159 280.222 113.895V109.767ZM285.421 116.583C285.285 116.583 285.16 116.572 285.044 116.55C284.931 116.53 284.84 116.506 284.772 116.479L285.003 115.704C285.148 115.746 285.277 115.766 285.39 115.764C285.504 115.762 285.604 115.727 285.69 115.657C285.778 115.589 285.852 115.476 285.913 115.316L285.998 115.088L284.467 110.778H285.522L286.495 113.967H286.539L287.515 110.778H288.573L286.883 115.511C286.804 115.735 286.7 115.926 286.57 116.086C286.44 116.247 286.28 116.37 286.091 116.454C285.904 116.54 285.681 116.583 285.421 116.583ZM290.96 115.082C290.547 115.082 290.19 114.992 289.888 114.81C289.585 114.629 289.351 114.375 289.184 114.049C289.019 113.723 288.937 113.342 288.937 112.906C288.937 112.469 289.019 112.087 289.184 111.759C289.351 111.431 289.585 111.177 289.888 110.995C290.19 110.814 290.547 110.723 290.96 110.723C291.372 110.723 291.729 110.814 292.032 110.995C292.334 111.177 292.568 111.431 292.733 111.759C292.899 112.087 292.983 112.469 292.983 112.906C292.983 113.342 292.899 113.723 292.733 114.049C292.568 114.375 292.334 114.629 292.032 114.81C291.729 114.992 291.372 115.082 290.96 115.082ZM290.965 114.285C291.189 114.285 291.376 114.224 291.526 114.101C291.676 113.977 291.788 113.81 291.861 113.601C291.936 113.392 291.974 113.159 291.974 112.903C291.974 112.644 291.936 112.411 291.861 112.202C291.788 111.991 291.676 111.824 291.526 111.699C291.376 111.574 291.189 111.512 290.965 111.512C290.736 111.512 290.546 111.574 290.394 111.699C290.243 111.824 290.131 111.991 290.055 112.202C289.982 112.411 289.946 112.644 289.946 112.903C289.946 113.159 289.982 113.392 290.055 113.601C290.131 113.81 290.243 113.977 290.394 114.101C290.546 114.224 290.736 114.285 290.965 114.285ZM296.518 113.224V110.778H297.513V115H296.548V114.25H296.504C296.409 114.486 296.252 114.679 296.034 114.83C295.818 114.98 295.552 115.055 295.235 115.055C294.958 115.055 294.713 114.994 294.501 114.871C294.29 114.746 294.125 114.566 294.006 114.329C293.887 114.091 293.827 113.803 293.827 113.466V110.778H294.822V113.312C294.822 113.58 294.896 113.792 295.042 113.95C295.189 114.108 295.381 114.186 295.619 114.186C295.766 114.186 295.908 114.151 296.045 114.079C296.183 114.008 296.295 113.901 296.383 113.76C296.473 113.617 296.518 113.439 296.518 113.224ZM298.536 115V110.778H299.501V111.482H299.545C299.622 111.238 299.754 111.05 299.941 110.918C300.129 110.785 300.345 110.718 300.587 110.718C300.642 110.718 300.703 110.72 300.771 110.726C300.84 110.73 300.898 110.736 300.944 110.745V111.66C300.902 111.646 300.835 111.633 300.743 111.622C300.654 111.609 300.567 111.603 300.482 111.603C300.301 111.603 300.138 111.642 299.993 111.721C299.85 111.798 299.737 111.905 299.655 112.043C299.572 112.18 299.531 112.338 299.531 112.518V115H298.536ZM306.342 116.583V114.335H306.301C306.25 114.437 306.175 114.546 306.078 114.662C305.981 114.776 305.853 114.873 305.694 114.953C305.534 115.034 305.333 115.074 305.092 115.074C304.76 115.074 304.463 114.989 304.201 114.819C303.939 114.648 303.732 114.401 303.58 114.076C303.428 113.752 303.352 113.358 303.352 112.895C303.352 112.425 303.429 112.03 303.583 111.707C303.738 111.383 303.948 111.138 304.212 110.973C304.476 110.807 304.77 110.723 305.094 110.723C305.342 110.723 305.545 110.765 305.705 110.85C305.864 110.932 305.99 111.032 306.084 111.149C306.177 111.265 306.25 111.374 306.301 111.476H306.361V110.778H307.34V116.583H306.342ZM305.369 114.258C305.58 114.258 305.76 114.201 305.908 114.087C306.056 113.972 306.169 113.812 306.246 113.606C306.323 113.401 306.361 113.162 306.361 112.889C306.361 112.616 306.323 112.379 306.246 112.177C306.171 111.976 306.059 111.819 305.911 111.707C305.764 111.595 305.584 111.54 305.369 111.54C305.147 111.54 304.962 111.597 304.814 111.713C304.666 111.828 304.554 111.988 304.479 112.191C304.404 112.394 304.366 112.627 304.366 112.889C304.366 113.153 304.404 113.388 304.479 113.595C304.556 113.801 304.668 113.963 304.817 114.082C304.967 114.199 305.151 114.258 305.369 114.258ZM311.053 113.224V110.778H312.048V115H311.083V114.25H311.04C310.944 114.486 310.788 114.679 310.57 114.83C310.353 114.98 310.087 115.055 309.77 115.055C309.493 115.055 309.248 114.994 309.036 114.871C308.825 114.746 308.66 114.566 308.541 114.329C308.422 114.091 308.362 113.803 308.362 113.466V110.778H309.357V113.312C309.357 113.58 309.431 113.792 309.577 113.95C309.724 114.108 309.916 114.186 310.154 114.186C310.301 114.186 310.443 114.151 310.581 114.079C310.718 114.008 310.831 113.901 310.919 113.76C311.008 113.617 311.053 113.439 311.053 113.224ZM314.913 115.082C314.501 115.082 314.143 114.992 313.841 114.81C313.539 114.629 313.304 114.375 313.137 114.049C312.972 113.723 312.89 113.342 312.89 112.906C312.89 112.469 312.972 112.087 313.137 111.759C313.304 111.431 313.539 111.177 313.841 110.995C314.143 110.814 314.501 110.723 314.913 110.723C315.325 110.723 315.683 110.814 315.985 110.995C316.287 111.177 316.521 111.431 316.686 111.759C316.853 112.087 316.936 112.469 316.936 112.906C316.936 113.342 316.853 113.723 316.686 114.049C316.521 114.375 316.287 114.629 315.985 114.81C315.683 114.992 315.325 115.082 314.913 115.082ZM314.918 114.285C315.142 114.285 315.329 114.224 315.479 114.101C315.629 113.977 315.741 113.81 315.814 113.601C315.89 113.392 315.927 113.159 315.927 112.903C315.927 112.644 315.89 112.411 315.814 112.202C315.741 111.991 315.629 111.824 315.479 111.699C315.329 111.574 315.142 111.512 314.918 111.512C314.689 111.512 314.499 111.574 314.347 111.699C314.196 111.824 314.084 111.991 314.009 112.202C313.935 112.411 313.899 112.644 313.899 112.903C313.899 113.159 313.935 113.392 314.009 113.601C314.084 113.81 314.196 113.977 314.347 114.101C314.499 114.224 314.689 114.285 314.918 114.285ZM319.889 110.778V111.548H317.462V110.778H319.889ZM318.061 109.767H319.056V113.73C319.056 113.864 319.076 113.967 319.116 114.038C319.158 114.108 319.213 114.155 319.281 114.181C319.349 114.207 319.424 114.219 319.507 114.219C319.569 114.219 319.626 114.215 319.677 114.206C319.73 114.196 319.77 114.188 319.798 114.181L319.966 114.959C319.912 114.977 319.836 114.997 319.737 115.019C319.64 115.041 319.521 115.054 319.38 115.058C319.131 115.065 318.906 115.027 318.707 114.945C318.507 114.861 318.348 114.731 318.231 114.555C318.116 114.379 318.059 114.159 318.061 113.895V109.767ZM322.544 115.082C322.121 115.082 321.756 114.995 321.448 114.819C321.142 114.641 320.906 114.39 320.741 114.065C320.576 113.739 320.494 113.355 320.494 112.914C320.494 112.48 320.576 112.098 320.741 111.77C320.908 111.441 321.141 111.184 321.439 111.001C321.738 110.816 322.089 110.723 322.492 110.723C322.752 110.723 322.998 110.765 323.229 110.85C323.461 110.932 323.667 111.06 323.844 111.234C324.024 111.409 324.165 111.63 324.268 111.9C324.37 112.167 324.422 112.486 324.422 112.856V113.161H320.961V112.491H323.468C323.466 112.3 323.425 112.13 323.344 111.982C323.264 111.832 323.151 111.714 323.006 111.627C322.863 111.541 322.696 111.498 322.506 111.498C322.303 111.498 322.124 111.548 321.97 111.647C321.816 111.744 321.696 111.872 321.61 112.032C321.526 112.189 321.483 112.362 321.481 112.551V113.136C321.481 113.382 321.526 113.593 321.615 113.769C321.705 113.943 321.831 114.076 321.992 114.17C322.153 114.262 322.342 114.307 322.558 114.307C322.703 114.307 322.834 114.287 322.951 114.247C323.068 114.205 323.17 114.143 323.256 114.063C323.342 113.982 323.407 113.882 323.451 113.763L324.38 113.868C324.322 114.113 324.21 114.328 324.045 114.511C323.882 114.692 323.673 114.833 323.418 114.934C323.164 115.033 322.872 115.082 322.544 115.082Z" fill="#01654D"/>
<path fill-rule="evenodd" clip-rule="evenodd" d="M258.459 115.145C258.31 115.294 258.31 115.532 258.459 115.681C258.608 115.83 258.846 115.83 258.995 115.681L261.158 113.518L261.426 113.25L261.158 112.982C261.158 112.982 261.158 112.982 261.148 112.982L258.985 110.819C258.836 110.67 258.598 110.67 258.449 110.819C258.301 110.968 258.301 111.206 258.449 111.355L259.968 112.873H251.682C251.473 112.873 251.305 113.042 251.305 113.25C251.305 113.458 251.473 113.627 251.682 113.627H259.968L258.449 115.145H258.459Z" fill="#01654D"/>
<path d="M139.979 307.101L121.621 307.051L129.292 212.969H143.422H175.454L157.702 231.129" fill="#101727"/>
<path d="M181.05 212.97H143.422L154.466 231.129L160.996 307.101L180.177 307.051L181.041 212.97H181.05Z" fill="#101727"/>
<path d="M170.899 100.907C175.702 109.957 175.692 121.131 174.134 127.243C172.249 134.656 163.834 136.511 157.642 133.257C151.44 130.012 145.446 125.874 140.703 116.993L140.981 116.844C138.887 114.184 137.646 110.91 137.646 107.357C137.646 98.4661 145.406 91.252 154.982 91.252C162.087 91.252 168.2 95.2311 170.879 100.907H170.889H170.899Z" fill="#EAE2CF" stroke="#101727" stroke-width="0.86" stroke-miterlimit="10"/>
<path d="M157.803 115.98C157.615 115.166 158.121 114.342 158.944 114.154C159.758 113.965 160.572 114.471 160.77 115.295C160.959 116.109 160.453 116.932 159.629 117.121C158.815 117.309 158.002 116.803 157.803 115.98Z" stroke="#101727" stroke-width="0.86" stroke-miterlimit="10"/>
<path d="M168.172 112.021C167.984 111.208 168.49 110.384 169.313 110.196C170.127 110.007 170.941 110.513 171.139 111.337C171.328 112.15 170.822 112.974 169.998 113.163C169.174 113.351 168.371 112.845 168.172 112.021Z" stroke="#101727" stroke-width="0.86" stroke-miterlimit="10"/>
<path d="M154.654 113.967C155.339 112.856 156.609 112.002 158.237 111.784" stroke="#101727" stroke-width="0.86" stroke-miterlimit="10"/>
<path d="M170.82 107.071C169.51 106.932 168.071 107.409 166.9 108.57" stroke="#101727" stroke-width="0.86" stroke-miterlimit="10"/>
<path d="M165.996 119.097C167.574 119.097 170.065 118.135 170.283 116.478C170.511 114.761 168.546 116.537 165.788 115.416C163.029 114.295 161.689 109.978 161.689 109.978" stroke="#101727" stroke-width="0.86" stroke-miterlimit="10"/>
<path d="M173.212 102.823L167.873 104.609C165.372 105.442 162.614 104.748 160.808 102.823L160.689 103.458C160.272 105.79 158.714 107.745 156.531 108.667C155.806 108.975 154.983 109.302 154.07 109.66C149.237 111.505 146.866 114.671 146.429 121.419L145.456 144.341L124.796 173.069C124.796 173.069 113.97 167.293 114 156.656C114.04 139.33 127.515 138.814 134.472 130.29C141.338 121.875 139.433 119.067 137.657 114.135C135.107 107.05 137.657 94.4376 147.411 91.2721C166.116 85.1991 173.221 102.842 173.221 102.842L173.212 102.823Z" fill="#101727" stroke="#101727" stroke-width="0.86" stroke-miterlimit="10"/>
<path d="M171.286 122.638C169.53 125.774 164.608 126.766 162.484 125.615" stroke="#101727" stroke-width="0.86" stroke-miterlimit="10"/>
<path d="M210.553 147.3L224.217 156.697L209.719 176.91C206.534 180.79 201.036 181.842 196.65 179.411L180.952 171.095L185.993 213.874C185.993 213.874 154.011 211.215 124.549 217.188L124.807 166.908C124.807 153.124 138.66 141.961 155.757 141.961C162.227 141.961 168.221 143.559 173.192 146.297L198.963 159.068L210.553 147.3Z" fill="#E9BE51" stroke="#101727" stroke-width="0.86" stroke-miterlimit="10"/>
<path d="M231.076 147.128L224.219 156.684L210.555 147.287L216.062 136.808L217.025 135.29L232.495 144.925L231.076 147.118V147.128Z" fill="#EAE2CF" stroke="#101727" stroke-width="0.86" stroke-miterlimit="10"/>
<path d="M149.963 195.722L149.438 196.467L149.954 195.712L149.963 195.722Z" fill="#EAE2CF"/>
<path d="M225.926 143.856L230.272 137.069C231.185 135.65 230.769 133.764 229.35 132.851C227.931 131.939 226.045 132.355 225.132 133.774L220.865 140.542" fill="#EAE2CF"/>
<path d="M225.926 143.856L230.272 137.069C231.185 135.65 230.769 133.764 229.35 132.851C227.931 131.939 226.045 132.355 225.132 133.774L220.865 140.542" stroke="#101727" stroke-width="0.86" stroke-miterlimit="10"/>
<path d="M221.964 138.813L229.099 127.56C230.012 126.141 229.595 124.256 228.176 123.343C226.757 122.43 224.872 122.847 223.959 124.266L216.705 135.817" fill="#EAE2CF"/>
<path d="M221.964 138.813L229.099 127.56C230.012 126.141 229.595 124.256 228.176 123.343C226.757 122.43 224.872 122.847 223.959 124.266L216.705 135.817" stroke="#101727" stroke-width="0.86" stroke-miterlimit="10"/>
<path d="M231.076 147.128L235.531 140.251C236.444 138.832 236.027 136.947 234.608 136.034C233.189 135.121 231.304 135.538 230.391 136.957L225.936 143.834" fill="#EAE2CF"/>
<path d="M231.076 147.128L235.531 140.251C236.444 138.832 236.027 136.947 234.608 136.034C233.189 135.121 231.304 135.538 230.391 136.957L225.936 143.834" stroke="#101727" stroke-width="0.86" stroke-miterlimit="10"/>
<path d="M218.591 146.92L226.599 145.203C228.247 144.846 229.288 143.209 228.921 141.562C228.564 139.914 226.927 138.872 225.279 139.24L217.271 140.956" fill="#EAE2CF"/>
<path d="M218.591 146.92L226.599 145.203C228.247 144.846 229.288 143.209 228.921 141.562C228.564 139.914 226.927 138.872 225.279 139.24L217.271 140.956" stroke="#101727" stroke-width="0.86" stroke-miterlimit="10"/>
<path d="M168.229 194.918H179.392" stroke="#101727" stroke-width="0.86" stroke-miterlimit="10"/>
<path d="M143.859 194.918H155.023" stroke="#101727" stroke-width="0.86" stroke-miterlimit="10"/>
<path d="M165.115 143.042L168.866 144.362C162.802 150.465 153.207 151.239 146.082 146.396L142.887 144.223C144.494 143.618 145.596 142.109 145.665 140.393L146.3 124.952C146.3 124.952 155.469 134.855 164.003 134.806L165.005 143.002L165.125 143.052L165.115 143.042Z" fill="#EAE2CF" stroke="#101727" stroke-width="0.86" stroke-miterlimit="10"/>
<path d="M163.261 212.97L157.764 149.551" stroke="#101727" stroke-width="0.86" stroke-miterlimit="10"/>
<path d="M148.961 223.726H121.881C120.522 223.726 119.42 224.828 119.42 226.187V236.14C119.42 237.499 120.522 238.601 121.881 238.601H148.961C150.32 238.601 151.422 237.499 151.422 236.14V226.187C151.422 224.828 150.32 223.726 148.961 223.726Z" fill="white"/>
<path d="M136.861 228.163L136.752 237.501C136.732 239.218 138.111 240.627 139.818 240.647C141.535 240.667 142.944 239.297 142.964 237.581L143.063 228.878V227.727C143.262 227.757 143.46 227.776 143.658 227.776C145.355 227.796 146.745 226.625 146.794 225.167V225.127L146.923 213.854V213.805C146.943 212.326 145.564 211.096 143.847 211.086C143.649 211.086 143.46 211.096 143.281 211.125L143.311 208.982L124.666 208.764L124.497 223.43V224.621L124.457 226.764L124.338 237.362C124.318 239.079 125.688 240.488 127.404 240.508C129.121 240.528 130.53 239.158 130.55 237.442L130.659 227.995" fill="#EAE2CF"/>
<path d="M136.861 228.161L136.752 237.499C136.732 239.216 138.111 240.625 139.818 240.645C141.535 240.664 142.944 239.295 142.964 237.578L143.063 228.876V223.845C143.262 223.875 143.46 227.784 143.658 227.784C145.355 227.804 146.745 226.633 146.794 225.174V225.135L146.923 213.862V213.812C146.943 212.334 145.564 211.103 143.847 211.093C143.649 211.093 143.46 211.103 143.281 211.133L143.311 208.99L124.666 208.771L124.497 223.438V224.629L124.457 226.772L124.338 237.37C124.318 239.087 125.688 240.496 127.404 240.516C129.121 240.536 130.53 239.166 130.55 237.449L130.659 228.003" stroke="#101727" stroke-width="0.86" stroke-miterlimit="10"/>
<path d="M136.862 228.171L136.753 237.509C136.733 239.225 135.324 240.595 133.607 240.575C131.891 240.555 130.521 239.146 130.541 237.429L130.65 227.982" fill="#EAE2CF"/>
<path d="M136.862 228.171L136.753 237.509C136.733 239.225 135.324 240.595 133.607 240.575C131.891 240.555 130.521 239.146 130.541 237.429L130.65 227.982" stroke="#101727" stroke-width="0.86" stroke-miterlimit="10"/>
<path d="M143.5 228.5L148.962 230.545L148.068 223.728L143.643 223.668H143.459" fill="white"/>
<path d="M162.496 312.48C171.179 315.328 176.518 314.841 179.365 314.028C179.038 313.531 178.8 313.015 178.681 312.49C178.333 310.386 178.611 308.193 178.81 307.042L162.982 307.081L162.496 312.48Z" fill="#EAE2CF" stroke="#101727" stroke-width="0.86" stroke-miterlimit="10"/>
<path d="M179.364 314.048C176.526 314.851 171.177 315.338 162.494 312.5L161.373 324.933H194.804C195.806 324.933 196.144 323.594 195.261 323.117C191.996 321.361 182.192 318.344 179.364 314.048Z" fill="#01654D" stroke="#101727" stroke-width="0.86" stroke-miterlimit="10"/>
<path d="M121.742 312.48C130.425 315.328 135.764 314.842 138.612 314.028C138.284 313.532 138.046 313.016 137.927 312.49C137.58 310.386 137.857 308.193 138.056 307.042L122.228 307.082L121.742 312.48Z" fill="#EAE2CF" stroke="#101727" stroke-width="0.86" stroke-miterlimit="10"/>
<path d="M138.612 314.048C135.774 314.851 130.425 315.338 121.742 312.5L120.621 324.933H154.052C155.054 324.933 155.392 323.594 154.509 323.117C151.244 321.361 141.44 318.344 138.612 314.048Z" fill="#01654D" stroke="#101727" stroke-width="0.86" stroke-miterlimit="10"/>
<path d="M124.827 166.292L124.668 208.753L143.314 208.971L143.472 166.292" fill="#E9BE51"/>
<path d="M124.827 166.292L124.668 208.753L143.314 208.971L143.472 166.292" stroke="#101727" stroke-width="0.86" stroke-miterlimit="10"/>
</svg>
