<svg width="840" height="570" viewBox="0 0 840 570" fill="none" xmlns="http://www.w3.org/2000/svg">
<g clip-path="url(#clip0_2384_629)">
<path opacity="0.12" d="M820.782 539.819V265.219H799.702V251.649H789.912V227.629H754.412V173.339H709.512V371.719H674.012V256.869H655.222V218.239H621.812V309.069H593.312V152.459H581.832V121.139H573.472V51.1794H569.302V121.139H560.952V309.069H472.512V154.549H458.932V80.4194H432.832V19.8594H429.702V80.4194H399.422V108.659H278.312V136.799H220.882V213.019H186.432V186.919H167.632V145.149H142.582V247.469H108.452V150.989L83.5417 135.329L58.4917 152.029V262.709H29.4417V410.349H7.51172V538.899" fill="#01654D"/>
<path d="M9 541H833" stroke="#00081C" stroke-miterlimit="10"/>
<path d="M92.5313 458.48V445.65C92.5313 430.04 80.3913 416.74 64.7913 416.19C48.4113 415.61 34.9513 428.71 34.9513 444.96V458.47C34.9513 461.26 33.6313 463.86 31.4413 465.6C24.9613 470.75 20.7513 478.63 20.5613 487.5C20.2113 503.68 33.8813 516.92 50.0613 516.92H77.4113C93.5913 516.92 107.261 503.68 106.911 487.5C106.721 478.63 102.511 470.75 96.0313 465.6C93.8413 463.86 92.5213 461.26 92.5213 458.47L92.5313 458.48Z" fill="#A99E53" stroke="#00081C" stroke-miterlimit="10"/>
<path d="M63.7383 463.121V540.241" stroke="#00081C" stroke-miterlimit="10"/>
<path d="M77.6686 471.27L63.7386 485.21L49.8086 471.27" stroke="#101727" stroke-miterlimit="10"/>
<path d="M163.26 458.82V455.08C163.26 439.47 151.12 426.17 135.52 425.62C119.14 425.04 105.68 438.14 105.68 454.39V458.82C105.68 461.4 104.47 463.82 102.44 465.41C95.8095 470.56 91.4895 478.53 91.2995 487.52C90.9495 503.7 104.62 516.94 120.8 516.94H148.15C164.33 516.94 178 503.7 177.65 487.52C177.46 478.53 173.13 470.55 166.51 465.41C164.47 463.83 163.27 461.4 163.27 458.82H163.26Z" fill="#A99E53" stroke="#00081C" stroke-miterlimit="10"/>
<path d="M134.469 476.828V540.238" stroke="#00081C" stroke-miterlimit="10"/>
<path d="M148.409 485.211L134.469 499.141L120.539 485.211" stroke="#101727" stroke-miterlimit="10"/>
<path d="M610.549 540.66H740.969V157.73H610.549V540.66Z" fill="#DDD2BA"/>
<path d="M741.09 157.738L771.38 173.468V540.668H741.09" fill="#A99E53"/>
<path d="M683.259 477.691C694.419 477.691 703.459 486.731 703.459 497.891V540.671H663.059V497.891C663.059 486.731 672.099 477.691 683.259 477.691Z" fill="#EAE2CF" stroke="#00081C" stroke-miterlimit="3"/>
<path d="M689.909 478.821C682.019 481.561 676.359 489.071 676.359 497.891V540.671H663.059V497.891C663.059 486.731 672.099 477.691 683.259 477.691C685.589 477.691 687.829 478.081 689.919 478.821H689.909Z" fill="#DDD2BA" stroke="#00081C" stroke-miterlimit="3"/>
<path d="M741.09 540.668V333.678V157.738" fill="#EAE2CF"/>
<path d="M741.09 540.668V333.678V157.738" stroke="#00081C" stroke-miterlimit="3"/>
<path d="M741.09 157.738L771.38 173.468V540.658H741.09H610.66V157.738H741.09Z" stroke="#101727" stroke-miterlimit="10"/>
<path d="M662.52 157.738H719.52V136.168H662.52V157.738Z" fill="#DDD2BA" stroke="#00081C" stroke-miterlimit="3"/>
<path d="M691.02 136.168V61.8281" stroke="#00081C" stroke-miterlimit="3"/>
<path d="M622.212 540.67H608.012C608.012 536.75 611.192 533.57 615.112 533.57C615.952 533.57 616.762 533.72 617.502 533.99C620.252 534.97 622.212 537.59 622.212 540.68V540.67Z" fill="#E9BE51"/>
<path d="M637.731 537.771C637.731 538.771 637.601 539.741 637.351 540.661H615.501C615.251 539.741 615.121 538.771 615.121 537.771C615.121 533.671 617.301 530.091 620.561 528.111C622.271 527.061 624.281 526.461 626.431 526.461C631.271 526.461 635.391 529.501 637.001 533.771C637.471 535.021 637.731 536.361 637.731 537.771Z" fill="#E9BE51"/>
<path d="M647.318 290.039L570.078 291.479V540.789H647.318V290.039Z" fill="#DDD2BA"/>
<path d="M647.319 290.039H633.219V540.789H647.319V290.039Z" fill="#A99E53"/>
<path d="M647.318 290.039L570.078 291.479V540.789H647.318V290.039Z" stroke="#101727" stroke-miterlimit="10"/>
<path d="M634.161 486.949L633.531 290.039" stroke="#101727" stroke-miterlimit="10"/>
<path d="M621.969 481.448C621.059 480.948 620.479 480.018 620.419 478.988C619.549 462.748 616.539 444.148 601.119 444.148C585.699 444.148 582.689 462.748 581.819 478.978C581.759 480.018 581.179 480.938 580.269 481.438C573.469 485.168 568.929 492.518 569.229 500.888C569.649 512.398 579.469 521.358 590.989 521.358H611.239C622.759 521.358 632.579 512.408 632.999 500.888C633.309 492.508 628.769 485.168 621.959 481.438L621.969 481.448Z" fill="#A99E53" stroke="#00081C" stroke-miterlimit="10"/>
<path d="M601.121 472.641V541.451" stroke="#00081C" stroke-miterlimit="10"/>
<path d="M611.41 487.828L601.12 498.128L590.82 487.828" stroke="#101727" stroke-miterlimit="10"/>
<path d="M758.321 423.98L802.771 453.4V540.67H715.211V453.4L758.321 423.98Z" fill="#DDD2BA" stroke="#00081C" stroke-miterlimit="3"/>
<path d="M683.148 540.67H697.348C697.348 537.35 695.058 534.55 691.978 533.78C691.428 533.64 690.848 533.57 690.248 533.57C686.318 533.57 683.148 536.75 683.148 540.67Z" fill="#A99E53"/>
<path d="M739.809 540.67H754.009C754.009 536.75 750.829 533.57 746.909 533.57C746.069 533.57 745.259 533.72 744.519 533.99C741.769 534.97 739.809 537.59 739.809 540.68V540.67Z" fill="#E9BE51"/>
<path d="M691.25 537.771C691.25 538.771 691.38 539.741 691.63 540.661H713.48C713.73 539.741 713.86 538.771 713.86 537.771C713.86 533.671 711.68 530.091 708.42 528.111C706.71 527.061 704.7 526.461 702.55 526.461C697.71 526.461 693.59 529.501 691.98 533.771C691.51 535.021 691.25 536.361 691.25 537.771Z" fill="#A99E53"/>
<path d="M740.93 537.771C740.93 538.771 741.06 539.741 741.31 540.661H763.16C763.41 539.741 763.54 538.771 763.54 537.771C763.54 533.671 761.36 530.091 758.1 528.111C756.39 527.061 754.38 526.461 752.23 526.461C747.39 526.461 743.27 529.501 741.66 533.771C741.19 535.021 740.93 536.361 740.93 537.771Z" fill="#A99E53"/>
<path d="M706.762 534.628C706.762 536.718 707.032 538.728 707.542 540.668H753.602C754.112 538.738 754.382 536.718 754.382 534.628C754.382 533.828 754.342 533.038 754.272 532.258C753.072 520.228 742.932 510.828 730.572 510.828C720.912 510.828 712.582 516.598 708.852 524.878C707.502 527.858 706.762 531.158 706.762 534.638V534.628Z" fill="#A99E53"/>
<path d="M690.248 533.568C690.848 533.568 691.418 533.638 691.978 533.778C693.588 529.498 697.718 526.468 702.548 526.468C704.438 526.468 706.208 526.928 707.778 527.748C708.078 526.758 708.428 525.798 708.848 524.878C712.578 516.598 720.898 510.828 730.568 510.828C740.858 510.828 749.618 517.358 752.938 526.498C754.818 526.618 756.578 527.188 758.098 528.118C761.358 530.098 763.538 533.678 763.538 537.778C763.538 538.778 763.408 539.748 763.158 540.668H753.588H741.308H713.478H707.538H697.348H691.628H683.148C683.148 536.748 686.328 533.568 690.248 533.568Z" stroke="#101727" stroke-miterlimit="10"/>
<path d="M788.44 424L832.37 453.41V540.68H802.45V453.41L758 424H788.44Z" fill="#A99E53" stroke="#00081C" stroke-miterlimit="3"/>
<path d="M81.6195 366.23C80.2095 340.38 82.1895 314.54 87.5595 289.01C95.5095 251.18 110.52 215.68 132.17 183.5C153.83 151.32 181.06 124.05 213.11 102.44C246.33 80.0397 283.24 64.7597 322.81 57.0197C341.8 53.3097 361.18 51.4297 380.4 51.4297C427.33 51.4297 473.61 62.6797 515.23 83.7597" stroke="#101727" stroke-miterlimit="10" stroke-dasharray="12 12"/>
<mask id="mask0_2384_629" style="mask-type:luminance" maskUnits="userSpaceOnUse" x="168" y="161" width="405" height="405">
<path d="M370.52 565.329C481.954 565.329 572.29 474.994 572.29 363.559C572.29 252.125 481.954 161.789 370.52 161.789C259.085 161.789 168.75 252.125 168.75 363.559C168.75 474.994 259.085 565.329 370.52 565.329Z" fill="white"/>
</mask>
<g mask="url(#mask0_2384_629)">
<path d="M573.328 259.777H456.168V540.357H573.328V259.777Z" fill="#E9BE51" stroke="#00081C" stroke-miterlimit="10"/>
<path d="M456.167 295.898H218.547V540.368H456.167V295.898Z" fill="#E9BE51" stroke="#00081C" stroke-miterlimit="10"/>
<path d="M514.717 321.02C502.737 321.02 493.027 330.73 493.027 342.71V375.99H536.407V342.71C536.407 330.73 526.697 321.02 514.717 321.02Z" fill="#E9BE51" stroke="#00081C" stroke-miterlimit="10"/>
<path d="M514.717 321.02C502.737 321.02 493.027 330.73 493.027 342.71V375.99H536.407V342.71C536.407 330.73 526.697 321.02 514.717 321.02Z" stroke="#101727" stroke-miterlimit="10"/>
<path d="M515.26 430.16C497.68 430.16 483.43 444.41 483.43 461.99V527.86H547.09V461.99C547.09 444.41 532.84 430.16 515.26 430.16Z" fill="#E9BE51" stroke="#00081C" stroke-miterlimit="10"/>
<path d="M515.258 430.16V531.71" stroke="#00081C" stroke-miterlimit="10"/>
<path d="M523.289 484.359V492.399" stroke="#00081C" stroke-linejoin="round"/>
<path d="M507.887 484.359V492.399" stroke="#00081C" stroke-linejoin="round"/>
<path d="M583.787 277.84H449.527V295.9H583.787V277.84Z" fill="#EAE2CF" stroke="#00081C" stroke-miterlimit="10"/>
<path d="M595.818 259.777H437.488V277.837H595.818V259.777Z" fill="#EAE2CF" stroke="#00081C" stroke-miterlimit="10"/>
<path d="M467.069 277.84H212.109V295.9H467.069V277.84Z" fill="#EAE2CF" stroke="#00081C" stroke-miterlimit="10"/>
<path d="M479.108 259.777H200.078V277.837H479.108V259.777Z" fill="#EAE2CF" stroke="#00081C" stroke-miterlimit="10"/>
<path d="M441.568 189.709L339.938 189.719L205.188 259.779L473.978 259.299H573.838L441.568 189.709Z" fill="#A99E53" stroke="#00081C" stroke-miterlimit="10"/>
<path d="M339.477 189.709L473.507 259.299" stroke="#101727" stroke-miterlimit="10"/>
<path d="M540.6 375.98H488.84V387.41H540.6V375.98Z" fill="#E9BE51" stroke="#00081C" stroke-miterlimit="10"/>
<path d="M287.819 321.02C275.839 321.02 266.129 330.73 266.129 342.71V375.99H309.509V342.71C309.509 330.73 299.799 321.02 287.819 321.02Z" fill="#E9BE51" stroke="#00081C" stroke-miterlimit="10"/>
<path d="M287.819 321.02C275.839 321.02 266.129 330.73 266.129 342.71V375.99H309.509V342.71C309.509 330.73 299.799 321.02 287.819 321.02Z" stroke="#101727" stroke-miterlimit="10"/>
<path d="M313.698 375.98H261.938V387.41H313.698V375.98Z" fill="#E9BE51" stroke="#00081C" stroke-miterlimit="10"/>
<path d="M386.889 321.02C374.909 321.02 365.199 330.73 365.199 342.71V375.99H408.579V342.71C408.579 330.73 398.869 321.02 386.889 321.02Z" fill="#E9BE51" stroke="#00081C" stroke-miterlimit="10"/>
<path d="M386.889 321.02C374.909 321.02 365.199 330.73 365.199 342.71V375.99H408.579V342.71C408.579 330.73 398.869 321.02 386.889 321.02Z" stroke="#101727" stroke-miterlimit="10"/>
<path d="M412.768 375.98H361.008V387.41H412.768V375.98Z" fill="#E9BE51" stroke="#00081C" stroke-miterlimit="10"/>
<path d="M287.819 407.508C275.839 407.508 266.129 417.218 266.129 429.198V462.478H309.509V429.198C309.509 417.218 299.799 407.508 287.819 407.508Z" fill="#E9BE51" stroke="#00081C" stroke-miterlimit="10"/>
<path d="M287.819 407.508C275.839 407.508 266.129 417.218 266.129 429.198V462.478H309.509V429.198C309.509 417.218 299.799 407.508 287.819 407.508Z" stroke="#101727" stroke-miterlimit="10"/>
<path d="M313.698 462.48H261.938V473.91H313.698V462.48Z" fill="#E9BE51" stroke="#00081C" stroke-miterlimit="10"/>
<path d="M386.889 407.508C374.909 407.508 365.199 417.218 365.199 429.198V462.478H408.579V429.198C408.579 417.218 398.869 407.508 386.889 407.508Z" fill="#E9BE51" stroke="#00081C" stroke-miterlimit="10"/>
<path d="M386.889 407.508C374.909 407.508 365.199 417.218 365.199 429.198V462.478H408.579V429.198C408.579 417.218 398.869 407.508 386.889 407.508Z" stroke="#101727" stroke-miterlimit="10"/>
<path d="M412.768 462.48H361.008V473.91H412.768V462.48Z" fill="#E9BE51" stroke="#00081C" stroke-miterlimit="10"/>
<path d="M550.049 527.859H479.379V540.369H550.049V527.859Z" fill="#E9BE51" stroke="#00081C" stroke-miterlimit="10"/>
<path d="M479.379 534.109H550.049" stroke="#00081C" stroke-miterlimit="10"/>
</g>
<path d="M370.52 565.329C481.954 565.329 572.29 474.994 572.29 363.559C572.29 252.125 481.954 161.789 370.52 161.789C259.085 161.789 168.75 252.125 168.75 363.559C168.75 474.994 259.085 565.329 370.52 565.329Z" stroke="#101727" stroke-miterlimit="10"/>
<path d="M607.731 8.06921C587.391 -5.62079 559.801 -0.230789 546.111 20.1192L510.031 73.7392L583.691 123.309L619.771 69.6892C633.461 49.3492 628.071 21.7592 607.721 8.06921H607.731Z" fill="#DDD2BA" stroke="#00081C" stroke-miterlimit="10"/>
<path d="M586.217 119.554L512.555 69.9805L457.978 151.076L531.641 200.65L586.217 119.554Z" fill="#EAE2CF" stroke="#00081C" stroke-miterlimit="10"/>
<path d="M336.248 135.631C217.648 158.821 140.288 273.761 163.478 392.361C186.668 510.961 301.608 588.321 420.208 565.131C538.808 541.941 616.168 427.001 592.978 308.401C569.788 189.801 454.848 112.441 336.248 135.631ZM413.938 533.051C313.218 552.741 215.258 486.821 195.568 386.091C175.878 285.371 241.798 187.411 342.528 167.721C443.248 148.031 541.208 213.951 560.898 314.681C580.588 415.401 514.668 513.361 413.948 533.051H413.938Z" fill="#EAE2CF" stroke="#00081C" stroke-miterlimit="10"/>
<path d="M644.719 417.28H493.429C480.599 417.28 470.199 406.88 470.199 394.05C470.199 381.22 480.599 370.82 493.429 370.82H644.719C657.549 370.82 667.949 381.22 667.949 394.05C667.949 406.88 657.549 417.28 644.719 417.28Z" fill="#01654D" stroke="#00081C" stroke-miterlimit="10"/>
<path d="M507.881 381.92L511.831 389.91L520.641 391.19L514.261 397.41L515.771 406.19L507.881 402.04L500.001 406.19L501.501 397.41L495.121 391.19L503.941 389.91L507.881 381.92Z" fill="white"/>
<path d="M538.959 381.92L542.899 389.91L551.719 391.19L545.339 397.41L546.849 406.19L538.959 402.04L531.079 406.19L532.579 397.41L526.199 391.19L535.019 389.91L538.959 381.92Z" fill="white"/>
<path d="M570.041 381.92L573.981 389.91L582.801 391.19L576.421 397.41L577.921 406.19L570.041 402.04L562.151 406.19L563.661 397.41L557.281 391.19L566.101 389.91L570.041 381.92Z" fill="white"/>
<path d="M601.119 381.92L605.059 389.91L613.879 391.19L607.499 397.41L608.999 406.19L601.119 402.04L593.229 406.19L594.739 397.41L588.359 391.19L597.169 389.91L601.119 381.92Z" fill="white"/>
<path d="M632.201 381.92L636.141 389.91L644.951 391.19L638.571 397.41L640.081 406.19L632.201 402.04L624.311 406.19L625.821 397.41L619.441 391.19L628.251 389.91L632.201 381.92Z" fill="white"/>
<path d="M194.729 157.532C218.206 157.532 237.239 138.499 237.239 115.022C237.239 91.5441 218.206 72.5117 194.729 72.5117C171.251 72.5117 152.219 91.5441 152.219 115.022C152.219 138.499 171.251 157.532 194.729 157.532Z" fill="#E9BE51"/>
<path d="M187.901 145.45C187.901 145.45 163.271 140.62 177.761 103.91L180.551 112.12C180.551 112.12 196.111 99.5598 189.841 84.5898C189.841 84.5898 204.811 91.3498 202.881 115.02C202.881 115.02 209.891 113.83 209.811 103.43C209.811 103.43 228.961 133.37 201.431 145.45C201.431 145.45 209.161 139.17 202.721 126.13L198.051 132.25C198.051 132.25 200.631 124.2 193.221 116.63C193.221 116.63 191.911 119.59 188.551 124.23C186.481 127.08 181.791 136.44 187.911 145.45H187.901Z" fill="#01654D"/>
<path d="M113.819 255.95C137.296 255.95 156.329 236.917 156.329 213.44C156.329 189.962 137.296 170.93 113.819 170.93C90.341 170.93 71.3086 189.962 71.3086 213.44C71.3086 236.917 90.341 255.95 113.819 255.95Z" fill="#E9BE51"/>
<path d="M104.399 224.74H83.3789V222.52H104.399C108.059 222.52 111.039 219.54 111.039 215.88C111.039 212.22 108.059 209.24 104.399 209.24C101.979 209.24 99.7489 210.56 98.5789 212.69L96.6389 211.62C98.1989 208.78 101.169 207.02 104.409 207.02C109.289 207.02 113.269 210.99 113.269 215.88C113.269 220.77 109.299 224.73 104.409 224.73L104.399 224.74Z" fill="#EAE2CF"/>
<path d="M116.641 244.54C113.411 244.54 110.431 242.78 108.871 239.94L110.811 238.87C111.981 241 114.211 242.32 116.631 242.32C120.291 242.32 123.271 239.34 123.271 235.68C123.271 232.02 120.291 229.04 116.631 229.04H83.3711V226.82H116.631C121.511 226.82 125.491 230.79 125.491 235.67C125.491 240.55 121.521 244.53 116.631 244.53L116.641 244.54Z" fill="#EAE2CF"/>
<path d="M133.319 194.5C132.949 194.5 132.579 194.52 132.209 194.56C130.139 187.5 123.609 182.34 115.879 182.34C109.789 182.34 104.449 185.54 101.439 190.35C100.379 190.07 99.2589 189.93 98.1089 189.93C90.7989 189.93 84.8789 195.85 84.8789 203.16C84.8789 208.69 88.2689 213.42 93.0889 215.4C93.2989 209.32 98.2789 204.45 104.409 204.45C110.539 204.45 115.749 209.53 115.749 215.79C115.749 215.99 115.729 216.18 115.719 216.38C115.769 216.38 115.829 216.38 115.879 216.38C119.529 216.38 122.909 215.23 125.679 213.27C127.649 215.19 130.339 216.38 133.309 216.38C139.349 216.38 144.249 211.48 144.249 205.44C144.249 199.4 139.349 194.5 133.309 194.5H133.319Z" fill="#01654D"/>
<path d="M81.1897 377.629C104.667 377.629 123.7 358.597 123.7 335.119C123.7 311.642 104.667 292.609 81.1897 292.609C57.7121 292.609 38.6797 311.642 38.6797 335.119C38.6797 358.597 57.7121 377.629 81.1897 377.629Z" fill="#E9BE51"/>
<path d="M78.5802 326.429C78.5802 329.309 76.2502 331.639 73.3702 331.639C70.4902 331.639 68.1602 329.309 68.1602 326.429C68.1602 323.549 73.3702 316.449 73.3702 316.449C73.3702 316.449 78.5802 323.549 78.5802 326.429Z" fill="#01654D"/>
<path d="M94.338 326.371C94.338 329.251 92.008 331.581 89.128 331.581C86.248 331.581 83.918 329.251 83.918 326.371C83.918 323.491 89.128 316.391 89.128 316.391C89.128 316.391 94.338 323.491 94.338 326.371Z" fill="#01654D"/>
<path d="M86.4005 312.261C86.4005 315.141 84.0705 317.471 81.1905 317.471C78.3105 317.471 75.9805 315.141 75.9805 312.261C75.9805 309.381 81.1905 302.281 81.1905 302.281C81.1905 302.281 86.4005 309.381 86.4005 312.261Z" fill="#01654D"/>
<mask id="mask1_2384_629" style="mask-type:luminance" maskUnits="userSpaceOnUse" x="38" y="292" width="86" height="86">
<path d="M81.1897 377.629C104.667 377.629 123.7 358.597 123.7 335.119C123.7 311.642 104.667 292.609 81.1897 292.609C57.7121 292.609 38.6797 311.642 38.6797 335.119C38.6797 358.597 57.7121 377.629 81.1897 377.629Z" fill="white"/>
</mask>
<g mask="url(#mask1_2384_629)">
<path d="M97.3378 344.76C95.8778 344.76 94.4078 344.2 93.2978 343.09L88.9178 338.71C88.2878 338.08 87.4578 337.73 86.5678 337.73C85.6778 337.73 84.8378 338.08 84.2178 338.71L79.9878 342.94C77.7578 345.17 74.1278 345.17 71.8978 342.94L67.6678 338.71C66.3678 337.41 64.2578 337.41 62.9578 338.71L58.7278 342.94C57.6478 344.02 56.2078 344.62 54.6878 344.62C53.1678 344.62 51.7278 344.03 50.6478 342.94L46.4178 338.71C45.1178 337.41 43.0078 337.41 41.7078 338.71L37.4778 342.94C35.2478 345.17 31.6178 345.17 29.3878 342.94L25.1578 338.71C23.8578 337.41 21.7478 337.41 20.4478 338.71L18.7578 337.02C20.9878 334.79 24.6178 334.79 26.8478 337.02L31.0778 341.25C32.3778 342.55 34.4878 342.55 35.7878 341.25L40.0178 337.02C42.2478 334.79 45.8778 334.79 48.1078 337.02L52.3378 341.25C53.6378 342.55 55.7478 342.55 57.0478 341.25L61.2778 337.02C63.5078 334.79 67.1378 334.79 69.3678 337.02L73.5978 341.25C74.8978 342.55 77.0078 342.55 78.3078 341.25L82.5378 337.02C83.6178 335.94 85.0578 335.34 86.5778 335.34C88.0978 335.34 89.5378 335.93 90.6178 337.02L94.9978 341.4C96.2978 342.7 98.4078 342.7 99.7078 341.4L104.088 337.02C105.168 335.94 106.608 335.34 108.128 335.34C109.648 335.34 111.088 335.93 112.168 337.02L116.398 341.25C117.028 341.88 117.858 342.23 118.748 342.23C119.638 342.23 120.478 341.88 121.098 341.25L125.328 337.02C127.558 334.79 131.188 334.79 133.418 337.02L137.648 341.25C138.278 341.88 139.108 342.23 139.998 342.23C140.888 342.23 141.728 341.88 142.348 341.25L146.578 337.02C148.808 334.79 152.438 334.79 154.668 337.02L158.898 341.25C160.198 342.55 162.308 342.55 163.608 341.25L167.838 337.02C170.068 334.79 173.698 334.79 175.928 337.02L174.238 338.71C172.938 337.41 170.828 337.41 169.528 338.71L165.298 342.94C163.068 345.17 159.438 345.17 157.208 342.94L152.978 338.71C151.678 337.41 149.568 337.41 148.268 338.71L144.038 342.94C141.808 345.17 138.178 345.17 135.948 342.94L131.718 338.71C130.418 337.41 128.308 337.41 127.008 338.71L122.778 342.94C120.548 345.17 116.918 345.17 114.688 342.94L110.458 338.71C109.828 338.08 108.998 337.73 108.108 337.73C107.218 337.73 106.378 338.08 105.758 338.71L101.378 343.09C100.268 344.2 98.7978 344.76 97.3378 344.76Z" fill="#EAE2CF"/>
<path d="M78.5778 357.99C77.1178 357.99 75.6478 357.43 74.5378 356.32L70.1578 351.94C69.5278 351.31 68.6978 350.96 67.8078 350.96C66.9178 350.96 66.0778 351.31 65.4578 351.94L61.2278 356.17C58.9978 358.4 55.3678 358.4 53.1378 356.17L48.9078 351.94C48.2778 351.31 47.4478 350.96 46.5578 350.96C45.6678 350.96 44.8278 351.31 44.2078 351.94L39.9778 356.17C37.7478 358.4 34.1178 358.4 31.8878 356.17L27.6578 351.94C27.0278 351.31 26.1978 350.96 25.3078 350.96C24.4178 350.96 23.5778 351.31 22.9578 351.94L18.7278 356.17C16.4978 358.4 12.8678 358.4 10.6378 356.17L6.40781 351.94C5.10781 350.64 2.99781 350.64 1.69781 351.94L0.0078125 350.25C1.08781 349.17 2.52781 348.57 4.04781 348.57C5.56781 348.57 7.00781 349.16 8.08781 350.25L12.3178 354.48C13.6178 355.78 15.7278 355.78 17.0278 354.48L21.2578 350.25C23.4878 348.02 27.1178 348.02 29.3478 350.25L33.5778 354.48C34.8778 355.78 36.9878 355.78 38.2878 354.48L42.5178 350.25C44.7478 348.02 48.3778 348.02 50.6078 350.25L54.8378 354.48C56.1378 355.78 58.2478 355.78 59.5478 354.48L63.7778 350.25C64.8578 349.17 66.2978 348.57 67.8178 348.57C69.3478 348.57 70.7778 349.16 71.8578 350.25L76.2378 354.63C77.5378 355.93 79.6478 355.93 80.9478 354.63L85.3278 350.25C87.5578 348.02 91.1878 348.02 93.4178 350.25L97.6478 354.48C98.9478 355.78 101.058 355.78 102.358 354.48L106.588 350.25C108.818 348.02 112.448 348.02 114.678 350.25L118.908 354.48C120.208 355.78 122.318 355.78 123.618 354.48L127.848 350.25C130.078 348.02 133.708 348.02 135.938 350.25L140.168 354.48C141.468 355.78 143.578 355.78 144.878 354.48L149.108 350.25C150.188 349.17 151.628 348.57 153.148 348.57C154.668 348.57 156.108 349.16 157.188 350.25L155.498 351.94C154.198 350.64 152.088 350.64 150.788 351.94L146.558 356.17C144.328 358.4 140.698 358.4 138.468 356.17L134.238 351.94C133.608 351.31 132.778 350.96 131.888 350.96C130.998 350.96 130.158 351.31 129.538 351.94L125.308 356.17C123.078 358.4 119.448 358.4 117.218 356.17L112.988 351.94C112.358 351.31 111.528 350.96 110.638 350.96C109.748 350.96 108.908 351.31 108.288 351.94L104.058 356.17C101.828 358.4 98.1978 358.4 95.9678 356.17L91.7378 351.94C90.4378 350.64 88.3278 350.64 87.0278 351.94L82.6478 356.32C81.5378 357.43 80.0678 357.99 78.6078 357.99H78.5778Z" fill="#EAE2CF"/>
</g>
<path d="M313.819 101.969C337.296 101.969 356.329 82.9368 356.329 59.4592C356.329 35.9816 337.296 16.9492 313.819 16.9492C290.341 16.9492 271.309 35.9816 271.309 59.4592C271.309 82.9368 290.341 101.969 313.819 101.969Z" fill="#E9BE51"/>
<path d="M331.348 41.7591C326.558 41.2691 321.938 39.6791 317.868 37.0991L313.818 34.5391L309.768 37.0991C305.698 39.6791 301.078 41.2691 296.288 41.7591L291.758 42.2191V50.8991C291.758 78.8891 313.818 84.3891 313.818 84.3891C313.818 84.3891 335.878 78.8891 335.878 50.8991V42.2191L331.348 41.7591Z" fill="#01654D"/>
<path d="M314.24 72.3619L303.59 61.7119L305.41 59.8919L313.67 68.1519L323.49 50.6719L325.73 51.9319L314.24 72.3619Z" fill="#EAE2CF"/>
</g>
<defs>
<clipPath id="clip0_2384_629">
<rect width="839.69" height="569.74" fill="white"/>
</clipPath>
</defs>
</svg>
