<?xml version="1.0" encoding="UTF-8"?>
<svg id="Capa_2" data-name="Capa 2" xmlns="http://www.w3.org/2000/svg" xmlns:xlink="http://www.w3.org/1999/xlink" viewBox="0 0 876.63 594.58">
  <defs>
    <style>
      .cls-1, .cls-2, .cls-3, .cls-4, .cls-5 {
        fill: none;
      }

      .cls-2, .cls-3, .cls-4, .cls-5 {
        stroke: #0d121e;
        stroke-width: 1.04px;
      }

      .cls-2, .cls-4 {
        stroke-miterlimit: 10;
      }

      .cls-6 {
        fill: #0e533a;
      }

      .cls-7 {
        fill: #d6c7a8;
      }

      .cls-8 {
        clip-path: url(#clippath-1);
      }

      .cls-9 {
        clip-path: url(#clippath-3);
      }

      .cls-10 {
        clip-path: url(#clippath-4);
      }

      .cls-11 {
        clip-path: url(#clippath-2);
      }

      .cls-12 {
        clip-path: url(#clippath-7);
      }

      .cls-13 {
        clip-path: url(#clippath-6);
      }

      .cls-14 {
        clip-path: url(#clippath-8);
      }

      .cls-15 {
        clip-path: url(#clippath-5);
      }

      .cls-16 {
        fill: #00563b;
      }

      .cls-17 {
        fill: #fff;
      }

      .cls-18 {
        fill: #e5dbc1;
      }

      .cls-19 {
        fill: #a99c48;
      }

      .cls-20 {
        opacity: .12;
      }

      .cls-3 {
        stroke-linejoin: round;
      }

      .cls-4 {
        stroke-dasharray: 12.52 12.52;
      }

      .cls-21 {
        clip-path: url(#clippath);
      }

      .cls-5 {
        stroke-miterlimit: 3;
      }

      .cls-22 {
        fill: #deb328;
      }
    </style>
    <clipPath id="clippath">
      <rect class="cls-1" width="876.63" height="594.58"/>
    </clipPath>
    <clipPath id="clippath-1">
      <rect class="cls-1" width="876.63" height="594.58"/>
    </clipPath>
    <clipPath id="clippath-2">
      <rect class="cls-1" width="876.63" height="594.58"/>
    </clipPath>
    <clipPath id="clippath-3">
      <rect class="cls-1" x="25.43" y="70.67" width="789.47" height="494.23"/>
    </clipPath>
    <clipPath id="clippath-4">
      <rect class="cls-1" width="876.63" height="594.58"/>
    </clipPath>
    <clipPath id="clippath-5">
      <path class="cls-1" d="M158.39,379.41c0,116.29,94.27,210.57,210.57,210.57s210.57-94.28,210.57-210.57-94.28-210.57-210.57-210.57-210.57,94.28-210.57,210.57"/>
    </clipPath>
    <clipPath id="clippath-6">
      <rect class="cls-1" width="876.63" height="594.58"/>
    </clipPath>
    <clipPath id="clippath-7">
      <path class="cls-1" d="M22.65,349.73c0,24.5,19.86,44.36,44.36,44.36s44.36-19.86,44.36-44.36-19.86-44.36-44.36-44.36-44.36,19.86-44.36,44.36"/>
    </clipPath>
    <clipPath id="clippath-8">
      <rect class="cls-1" width="876.63" height="594.58"/>
    </clipPath>
  </defs>
  <g id="Layer_6" data-name="Layer 6">
    <g id="hero-insurance">
      <g class="cls-21">
        <g class="cls-8">
          <g class="cls-11">
            <g class="cls-20">
              <g class="cls-9">
                <path class="cls-6" d="M814.9,564.9v-259.49c0-.84-.68-1.52-1.52-1.52h-17.43c-.84,0-1.52-.68-1.52-1.52v-9.86c0-.84-.68-1.52-1.52-1.52h-6.46c-.84,0-1.52-.68-1.52-1.52v-19.79c0-.84-.68-1.52-1.52-1.52h-31.42c-.84,0-1.52-.68-1.52-1.52v-48.57c0-.84-.68-1.52-1.52-1.52h-40.54c-.84,0-1.52.68-1.52,1.52v185.52c0,.84-.68,1.52-1.52,1.52h-31.42c-.84,0-1.52-.68-1.52-1.52v-106.13c0-.84-.68-1.52-1.52-1.52h-15.2c-.84,0-1.52-.68-1.52-1.52v-33.68c0-.84-.68-1.52-1.52-1.52h-29.39c-.84,0-1.52.68-1.52,1.52v83.3c0,.84-.68,1.52-1.52,1.52h-24.62c-.84,0-1.52-.68-1.52-1.52v-145.82c0-.84-.68-1.52-1.52-1.52h-8.11c-.84,0-1.52-.68-1.52-1.52v-26.73c0-.84-.68-1.52-1.52-1.52h-5.07c-.84,0-1.52-.68-1.52-1.52v-63.45c0-.84-.68-1.52-1.52-1.52h-1.01c-.84,0-1.52.68-1.52,1.52v63.45c0,.84-.68,1.52-1.52,1.52h-5.07c-.84,0-1.52.68-1.52,1.52v175.6c0,.84-.68,1.52-1.52,1.52h-82.81c-.84,0-1.52-.68-1.52-1.52v-143.84c0-.84-.68-1.52-1.52-1.52h-10.14c-.84,0-1.52-.68-1.52-1.52v-67.42c0-.84-.68-1.52-1.52-1.52h-22.3c-.84,0-1.52-.68-1.52-1.52v-54.52c0-.84-.68-1.52-1.52-1.52s-1.52.68-1.52,1.52v54.52c0,.84-.68,1.52-1.52,1.52h-26.35c-.84,0-1.52.68-1.52,1.52v23.8c0,.84-.68,1.52-1.52,1.52h-114.53c-.84,0-1.52.68-1.52,1.52v23.71c0,.84-.68,1.52-1.52,1.52h-52.7c-.84,0-1.52.68-1.52,1.52v69.41c0,.84-.68,1.52-1.52,1.52h-30.41c-.84,0-1.52-.68-1.52-1.52v-21.77c0-.84-.68-1.52-1.52-1.52h-15.2c-.84,0-1.52-.68-1.52-1.52v-36.66c0-.84-.68-1.52-1.52-1.52h-21.28c-.84,0-1.52.68-1.52,1.52v94.22c0,.84-.68,1.52-1.52,1.52h-30.09c-.84,0-1.52-.68-1.52-1.52v-89.34c0-.53-.27-1.02-.72-1.3l-22.63-13.94c-.5-.31-1.14-.3-1.63.02l-22.83,14.9c-.43.28-.69.76-.69,1.27v102.86c0,.84-.68,1.52-1.52,1.52h-25.16c-.84,0-1.52.68-1.52,1.52v137.3c0,.84-.68,1.52-1.52,1.52h-18.24c-.84,0-1.52.68-1.52,1.52v120.67"/>
              </g>
            </g>
          </g>
          <g class="cls-10">
            <line class="cls-2" y1="564.24" x2="876.63" y2="564.24"/>
            <path class="cls-19" d="M78.85,478.47v-13.39c0-16.29-12.67-30.17-28.95-30.74-17.09-.61-31.14,13.07-31.14,30.03v14.1c0,2.92-1.38,5.63-3.66,7.44-6.76,5.37-11.15,13.6-11.35,22.86-.37,16.88,13.9,30.7,30.79,30.7h28.54c16.89,0,31.15-13.82,30.79-30.7-.2-9.26-4.59-17.48-11.35-22.86-2.28-1.81-3.66-4.53-3.66-7.44"/>
            <path class="cls-2" d="M78.85,478.47v-13.39c0-16.29-12.67-30.17-28.95-30.74-17.09-.61-31.14,13.07-31.14,30.03v14.1c0,2.92-1.38,5.63-3.66,7.44-6.76,5.37-11.15,13.6-11.35,22.86-.37,16.88,13.9,30.7,30.79,30.7h28.54c16.89,0,31.15-13.82,30.79-30.7-.2-9.26-4.59-17.48-11.35-22.86-2.28-1.81-3.66-4.53-3.66-7.44Z"/>
            <line class="cls-2" x1="48.8" y1="483.31" x2="48.8" y2="563.79"/>
            <polyline class="cls-2" points="63.35 491.82 48.8 506.36 34.26 491.82"/>
            <path class="cls-19" d="M152.67,478.83v-3.9c0-16.29-12.67-30.17-28.95-30.74-17.09-.61-31.14,13.07-31.14,30.03v4.62c0,2.69-1.26,5.22-3.39,6.87-6.92,5.37-11.43,13.69-11.63,23.08-.36,16.88,13.9,30.71,30.79,30.71h28.54c16.89,0,31.15-13.82,30.79-30.71-.2-9.39-4.71-17.71-11.63-23.08-2.13-1.65-3.39-4.18-3.39-6.87"/>
            <path class="cls-2" d="M152.67,478.83v-3.9c0-16.29-12.67-30.17-28.95-30.74-17.09-.61-31.14,13.07-31.14,30.03v4.62c0,2.69-1.26,5.22-3.39,6.87-6.92,5.37-11.43,13.69-11.63,23.08-.36,16.88,13.9,30.71,30.79,30.71h28.54c16.89,0,31.15-13.82,30.79-30.71-.2-9.39-4.71-17.71-11.63-23.08-2.13-1.65-3.39-4.18-3.39-6.87Z"/>
            <line class="cls-2" x1="122.62" y1="497.62" x2="122.62" y2="563.79"/>
            <polyline class="cls-2" points="137.16 506.36 122.62 520.9 108.08 506.36"/>
            <rect class="cls-7" x="619.45" y="164.62" width="136.11" height="399.62"/>
            <polyline class="cls-19" points="755.69 164.62 787.3 181.03 787.3 564.24 755.69 564.24"/>
            <path class="cls-18" d="M695.33,498.52c11.64,0,21.08,9.44,21.08,21.08v44.64h-42.16v-44.64c0-11.64,9.44-21.08,21.08-21.08"/>
            <path class="cls-5" d="M695.33,498.52c11.64,0,21.08,9.44,21.08,21.08v44.64h-42.16v-44.64c0-11.64,9.44-21.08,21.08-21.08Z"/>
            <path class="cls-7" d="M702.28,499.7c-8.24,2.86-14.14,10.69-14.14,19.9v44.64h-13.89v-44.64c0-11.64,9.44-21.08,21.08-21.08,2.43,0,4.77.41,6.95,1.18"/>
            <path class="cls-5" d="M702.28,499.7c-8.24,2.86-14.14,10.69-14.14,19.9v44.64h-13.89v-44.64c0-11.64,9.44-21.08,21.08-21.08,2.43,0,4.77.41,6.95,1.18Z"/>
            <polyline class="cls-5" points="755.69 564.24 755.69 348.23 755.69 164.62"/>
            <polygon class="cls-2" points="755.69 164.62 787.3 181.03 787.3 564.24 755.69 564.24 619.58 564.24 619.58 164.62 755.69 164.62"/>
            <rect class="cls-7" x="673.7" y="142.11" width="59.48" height="22.51"/>
            <rect class="cls-5" x="673.7" y="142.11" width="59.48" height="22.51"/>
            <line class="cls-5" x1="703.44" y1="142.11" x2="703.44" y2="64.52"/>
            <path class="cls-22" d="M631.63,564.24h-14.82c0-4.09,3.32-7.41,7.41-7.41.87,0,1.72.15,2.49.43,2.87,1.03,4.92,3.76,4.92,6.98"/>
            <path class="cls-22" d="M647.82,561.22c0,1.04-.14,2.05-.4,3.02h-22.81c-.26-.97-.39-1.98-.39-3.02,0-4.28,2.27-8.02,5.68-10.08,1.79-1.09,3.88-1.72,6.13-1.72,5.05,0,9.36,3.17,11.04,7.63.49,1.3.76,2.71.76,4.17"/>
            <polygon class="cls-7" points="657.83 302.69 577.23 304.19 577.23 564.37 657.83 564.37 657.83 302.69"/>
            <rect class="cls-19" x="643.12" y="302.69" width="14.72" height="261.68"/>
            <polygon class="cls-2" points="657.83 302.69 577.23 304.19 577.23 564.37 657.83 564.37 657.83 302.69"/>
            <line class="cls-2" x1="643.8" y1="564.24" x2="643.44" y2="302.69"/>
            <path class="cls-19" d="M631.38,502.45c-.95-.52-1.56-1.49-1.62-2.57-.91-16.95-4.04-36.35-20.14-36.35s-19.23,19.41-20.14,36.35c-.06,1.08-.67,2.05-1.62,2.57-7.1,3.9-11.84,11.56-11.52,20.3.44,12.02,10.69,21.36,22.71,21.36h21.13c12.03,0,22.27-9.34,22.71-21.36.32-8.74-4.42-16.4-11.52-20.3"/>
            <path class="cls-2" d="M631.38,502.45c-.95-.52-1.56-1.49-1.62-2.57-.91-16.95-4.04-36.35-20.14-36.35s-19.23,19.41-20.14,36.35c-.06,1.08-.67,2.05-1.62,2.57-7.1,3.9-11.84,11.56-11.52,20.3.44,12.02,10.69,21.36,22.71,21.36h21.13c12.03,0,22.27-9.34,22.71-21.36.32-8.74-4.42-16.4-11.52-20.3Z"/>
            <line class="cls-2" x1="609.61" y1="493.25" x2="609.61" y2="565.06"/>
            <polyline class="cls-2" points="620.36 509.1 609.61 519.85 598.87 509.1"/>
            <polygon class="cls-7" points="773.67 442.47 820.06 473.17 820.06 564.24 728.68 564.24 728.68 473.17 773.67 442.47"/>
            <polygon class="cls-5" points="773.67 442.47 820.06 473.17 820.06 564.24 728.68 564.24 728.68 473.17 773.67 442.47"/>
            <path class="cls-19" d="M695.22,564.24h14.82c0-3.47-2.39-6.38-5.61-7.19-.58-.14-1.18-.22-1.8-.22-4.1,0-7.41,3.32-7.41,7.41"/>
            <path class="cls-22" d="M754.36,564.24h14.82c0-4.09-3.32-7.41-7.41-7.41-.87,0-1.72.15-2.49.43-2.87,1.03-4.92,3.76-4.92,6.98"/>
            <path class="cls-19" d="M703.67,561.22c0,1.04.14,2.05.4,3.02h22.81c.26-.97.39-1.98.39-3.02,0-4.28-2.27-8.02-5.68-10.08-1.79-1.09-3.88-1.72-6.13-1.72-5.05,0-9.35,3.17-11.04,7.63-.49,1.3-.76,2.71-.76,4.17"/>
            <path class="cls-19" d="M755.53,561.22c0,1.04.14,2.05.4,3.02h22.81c.26-.97.39-1.98.39-3.02,0-4.28-2.27-8.02-5.68-10.08-1.79-1.09-3.88-1.72-6.13-1.72-5.05,0-9.35,3.17-11.04,7.63-.49,1.3-.76,2.71-.76,4.17"/>
            <path class="cls-19" d="M719.86,557.94c0,2.18.28,4.28.81,6.3h48.06c.54-2.02.81-4.12.81-6.3,0-.83-.04-1.66-.11-2.48-1.25-12.55-11.83-22.37-24.73-22.37-10.09,0-18.77,6.02-22.66,14.66-1.41,3.11-2.18,6.56-2.18,10.18"/>
            <path class="cls-2" d="M702.63,556.83c.62,0,1.22.08,1.8.22,1.68-4.46,5.99-7.63,11.04-7.63,1.97,0,3.82.48,5.46,1.34.31-1.03.68-2.03,1.12-3,3.89-8.64,12.58-14.66,22.66-14.66,10.74,0,19.88,6.82,23.35,16.35,1.97.12,3.8.72,5.39,1.69,3.4,2.07,5.68,5.81,5.68,10.08,0,1.04-.14,2.05-.4,3.02h-83.5c0-4.09,3.31-7.41,7.41-7.41Z"/>
            <polygon class="cls-19" points="805.44 442.47 851.29 473.16 851.29 564.24 820.06 564.24 820.06 473.16 773.67 442.47 805.44 442.47"/>
            <polygon class="cls-5" points="805.44 442.47 851.29 473.16 851.29 564.24 820.06 564.24 820.06 473.16 773.67 442.47 805.44 442.47"/>
            <path class="cls-4" d="M67.47,382.19c-1.47-26.97.6-53.94,6.2-80.59,8.3-39.48,23.96-76.53,46.56-110.11,22.6-33.58,51.02-62.05,84.47-84.6,34.67-23.38,73.19-39.32,114.49-47.4,19.82-3.87,40.04-5.84,60.1-5.84,48.98,0,97.27,11.74,140.71,33.74"/>
          </g>
          <g class="cls-15">
            <rect class="cls-22" x="458.34" y="271.11" width="122.27" height="292.82"/>
            <rect class="cls-2" x="458.34" y="271.11" width="122.27" height="292.82"/>
            <rect class="cls-22" x="210.37" y="308.8" width="247.98" height="255.13"/>
            <rect class="cls-2" x="210.37" y="308.8" width="247.98" height="255.13"/>
            <path class="cls-22" d="M519.45,335.01c-12.5,0-22.64,10.13-22.64,22.64v34.73h45.27v-34.73c0-12.5-10.13-22.64-22.64-22.64"/>
            <path class="cls-2" d="M519.45,335.01c-12.5,0-22.64,10.13-22.64,22.64v34.73h45.27v-34.73c0-12.5-10.13-22.64-22.64-22.64Z"/>
            <path class="cls-2" d="M519.45,335.01c-12.5,0-22.64,10.13-22.64,22.64v34.73h45.27v-34.73c0-12.5-10.13-22.64-22.64-22.64Z"/>
            <path class="cls-22" d="M520.01,448.91c-18.35,0-33.22,14.87-33.22,33.22v68.74h66.44v-68.74c0-18.35-14.87-33.22-33.22-33.22"/>
            <path class="cls-2" d="M520.01,448.91c-18.35,0-33.22,14.87-33.22,33.22v68.74h66.44v-68.74c0-18.35-14.87-33.22-33.22-33.22Z"/>
            <path class="cls-2" d="M520.01,448.91v105.98-105.98Z"/>
            <path class="cls-3" d="M528.39,505.48v8.39-8.39Z"/>
            <path class="cls-3" d="M512.32,505.48v8.39-8.39Z"/>
            <rect class="cls-18" x="451.41" y="289.95" width="140.11" height="18.85"/>
            <rect class="cls-2" x="451.41" y="289.95" width="140.11" height="18.85"/>
            <rect class="cls-18" x="438.86" y="271.11" width="165.23" height="18.85"/>
            <rect class="cls-2" x="438.86" y="271.11" width="165.23" height="18.85"/>
            <rect class="cls-18" x="203.64" y="289.96" width="266.07" height="18.85"/>
            <rect class="cls-2" x="203.64" y="289.96" width="266.07" height="18.85"/>
            <rect class="cls-18" x="191.08" y="271.11" width="291.19" height="18.85"/>
            <rect class="cls-2" x="191.08" y="271.11" width="291.19" height="18.85"/>
            <polygon class="cls-19" points="443.11 197.98 337.05 197.99 196.43 271.11 476.94 270.6 581.15 270.6 443.11 197.98"/>
            <polygon class="cls-2" points="443.11 197.98 337.05 197.99 196.43 271.11 476.94 270.6 581.15 270.6 443.11 197.98"/>
            <line class="cls-2" x1="336.57" y1="197.98" x2="476.44" y2="270.61"/>
            <rect class="cls-22" x="492.44" y="392.38" width="54.02" height="11.93"/>
            <rect class="cls-2" x="492.44" y="392.38" width="54.02" height="11.93"/>
            <path class="cls-22" d="M282.66,335.01c-12.5,0-22.64,10.13-22.64,22.64v34.73h45.27v-34.73c0-12.5-10.13-22.64-22.64-22.64"/>
            <path class="cls-2" d="M282.66,335.01c-12.5,0-22.64,10.13-22.64,22.64v34.73h45.27v-34.73c0-12.5-10.13-22.64-22.64-22.64Z"/>
            <path class="cls-2" d="M282.66,335.01c-12.5,0-22.64,10.13-22.64,22.64v34.73h45.27v-34.73c0-12.5-10.13-22.64-22.64-22.64Z"/>
            <rect class="cls-22" x="255.65" y="392.38" width="54.02" height="11.93"/>
            <rect class="cls-2" x="255.65" y="392.38" width="54.02" height="11.93"/>
            <path class="cls-22" d="M386.05,335.01c-12.5,0-22.64,10.13-22.64,22.64v34.73h45.27v-34.73c0-12.5-10.13-22.64-22.64-22.64"/>
            <path class="cls-2" d="M386.05,335.01c-12.5,0-22.64,10.13-22.64,22.64v34.73h45.27v-34.73c0-12.5-10.13-22.64-22.64-22.64Z"/>
            <path class="cls-2" d="M386.05,335.01c-12.5,0-22.64,10.13-22.64,22.64v34.73h45.27v-34.73c0-12.5-10.13-22.64-22.64-22.64Z"/>
            <rect class="cls-22" x="359.04" y="392.38" width="54.02" height="11.93"/>
            <rect class="cls-2" x="359.04" y="392.38" width="54.02" height="11.93"/>
            <path class="cls-22" d="M282.66,425.28c-12.5,0-22.64,10.13-22.64,22.64v34.73h45.27v-34.73c0-12.5-10.13-22.64-22.64-22.64"/>
            <path class="cls-2" d="M282.66,425.28c-12.5,0-22.64,10.13-22.64,22.64v34.73h45.27v-34.73c0-12.5-10.13-22.64-22.64-22.64Z"/>
            <path class="cls-2" d="M282.66,425.28c-12.5,0-22.64,10.13-22.64,22.64v34.73h45.27v-34.73c0-12.5-10.13-22.64-22.64-22.64Z"/>
            <rect class="cls-22" x="255.65" y="482.65" width="54.02" height="11.93"/>
            <rect class="cls-2" x="255.65" y="482.65" width="54.02" height="11.93"/>
            <path class="cls-22" d="M386.05,425.28c-12.5,0-22.64,10.13-22.64,22.64v34.73h45.27v-34.73c0-12.5-10.13-22.64-22.64-22.64"/>
            <path class="cls-2" d="M386.05,425.28c-12.5,0-22.64,10.13-22.64,22.64v34.73h45.27v-34.73c0-12.5-10.13-22.64-22.64-22.64Z"/>
            <path class="cls-2" d="M386.05,425.28c-12.5,0-22.64,10.13-22.64,22.64v34.73h45.27v-34.73c0-12.5-10.13-22.64-22.64-22.64Z"/>
            <rect class="cls-22" x="359.04" y="482.65" width="54.02" height="11.93"/>
            <rect class="cls-2" x="359.04" y="482.65" width="54.02" height="11.93"/>
            <rect class="cls-22" x="482.57" y="550.87" width="73.75" height="13.06"/>
            <rect class="cls-2" x="482.57" y="550.87" width="73.75" height="13.06"/>
            <line class="cls-2" x1="482.57" y1="557.4" x2="556.32" y2="557.4"/>
          </g>
          <g class="cls-13">
            <circle class="cls-2" cx="368.96" cy="379.41" r="210.57"/>
            <path class="cls-7" d="M616.51,8.42c-21.23-14.29-50.02-8.66-64.31,12.57l-37.66,55.96,76.88,51.73,37.66-55.96c14.29-21.23,8.66-50.02-12.57-64.31"/>
            <path class="cls-2" d="M616.51,8.42c-21.23-14.29-50.02-8.66-64.31,12.57l-37.66,55.96,76.88,51.73,37.66-55.96c14.29-21.23,8.66-50.02-12.57-64.31Z"/>
            <rect class="cls-18" x="476.15" y="94.88" width="102.01" height="92.66" transform="translate(115.69 499.71) rotate(-56.06)"/>
            <rect class="cls-2" x="476.15" y="94.88" width="102.01" height="92.66" transform="translate(115.69 499.71) rotate(-56.06)"/>
            <path class="cls-18" d="M333.2,141.55c-123.78,24.2-204.5,144.15-180.3,267.93,24.2,123.78,144.15,204.5,267.93,180.3,123.78-24.2,204.5-144.15,180.3-267.93-24.2-123.78-144.15-204.5-267.93-180.3M414.28,556.29c-105.11,20.55-207.35-48.25-227.9-153.36-20.55-105.11,48.25-207.35,153.36-227.9,105.11-20.55,207.35,48.25,227.89,153.36,20.55,105.11-48.25,207.35-153.36,227.9"/>
            <path class="cls-2" d="M333.2,141.55c-123.78,24.2-204.5,144.15-180.3,267.93,24.2,123.78,144.15,204.5,267.93,180.3,123.78-24.2,204.5-144.15,180.3-267.93-24.2-123.78-144.15-204.5-267.93-180.3ZM414.28,556.29c-105.11,20.55-207.35-48.25-227.9-153.36-20.55-105.11,48.25-207.35,153.36-227.9,105.11-20.55,207.35,48.25,227.89,153.36,20.55,105.11-48.25,207.35-153.36,227.9Z"/>
            <path class="cls-16" d="M655.11,435.48h-157.89c-13.39,0-24.24-10.85-24.24-24.24s10.85-24.24,24.24-24.24h157.89c13.39,0,24.24,10.85,24.24,24.24s-10.85,24.24-24.24,24.24"/>
            <path class="cls-2" d="M655.11,435.48h-157.89c-13.39,0-24.24-10.85-24.24-24.24s10.85-24.24,24.24-24.24h157.89c13.39,0,24.24,10.85,24.24,24.24s-10.85,24.24-24.24,24.24Z"/>
            <polygon class="cls-17" points="512.31 398.57 516.43 406.91 525.63 408.25 518.97 414.74 520.54 423.9 512.31 419.57 504.08 423.9 505.66 414.74 499 408.25 508.2 406.91 512.31 398.57"/>
            <polygon class="cls-17" points="544.75 398.57 548.86 406.91 558.06 408.25 551.4 414.74 552.98 423.9 544.75 419.57 536.52 423.9 538.09 414.74 531.43 408.25 540.63 406.91 544.75 398.57"/>
            <polygon class="cls-17" points="577.18 398.57 581.29 406.91 590.49 408.25 583.84 414.74 585.41 423.9 577.18 419.57 568.95 423.9 570.52 414.74 563.87 408.25 573.07 406.91 577.18 398.57"/>
            <polygon class="cls-17" points="609.61 398.57 613.73 406.91 622.93 408.25 616.27 414.74 617.84 423.9 609.61 419.57 601.38 423.9 602.96 414.74 596.3 408.25 605.5 406.91 609.61 398.57"/>
            <polygon class="cls-17" points="642.05 398.57 646.16 406.91 655.36 408.25 648.7 414.74 650.28 423.9 642.05 419.57 633.82 423.9 635.39 414.74 628.73 408.25 637.93 406.91 642.05 398.57"/>
            <path class="cls-22" d="M229.88,120.03c0,24.5-19.86,44.36-44.36,44.36s-44.36-19.86-44.36-44.36,19.86-44.36,44.36-44.36,44.36,19.86,44.36,44.36"/>
            <path class="cls-16" d="M178.37,151.79s-25.71-5.04-10.58-43.35l2.91,8.57s16.24-13.11,9.69-28.73c0,0,15.62,7.06,13.61,31.75,0,0,7.31-1.24,7.23-12.1,0,0,19.98,31.25-8.75,43.85,0,0,8.06-6.55,1.34-20.16l-4.87,6.38s2.69-8.4-5.04-16.3c0,0-1.37,3.09-4.87,7.93-2.16,2.98-7.06,12.74-.67,22.15"/>
            <path class="cls-22" d="M145.43,222.74c0,24.5-19.86,44.36-44.36,44.36s-44.36-19.86-44.36-44.36,19.86-44.36,44.36-44.36,44.36,19.86,44.36,44.36"/>
            <path class="cls-18" d="M91.24,234.54h-21.94v-2.31h21.94c3.82,0,6.93-3.11,6.93-6.93s-3.11-6.93-6.93-6.93c-2.53,0-4.86,1.38-6.08,3.6l-2.03-1.11c1.62-2.96,4.73-4.8,8.1-4.8,5.1,0,9.24,4.15,9.24,9.24s-4.15,9.24-9.24,9.24"/>
            <path class="cls-18" d="M104.01,255.2c-3.37,0-6.48-1.84-8.1-4.8l2.03-1.11c1.22,2.22,3.55,3.6,6.08,3.6,3.82,0,6.93-3.11,6.93-6.93s-3.11-6.93-6.93-6.93h-34.71v-2.31h34.71c5.1,0,9.24,4.15,9.24,9.24s-4.15,9.24-9.24,9.24"/>
            <path class="cls-16" d="M121.42,202.98c-.39,0-.78.02-1.16.06-2.16-7.37-8.97-12.75-17.04-12.75-6.36,0-11.93,3.34-15.07,8.36-1.11-.29-2.28-.44-3.48-.44-7.62,0-13.8,6.18-13.8,13.8,0,5.77,3.54,10.71,8.57,12.77.22-6.34,5.41-11.42,11.81-11.42s11.83,5.3,11.83,11.83c0,.21-.02.41-.03.62.06,0,.11,0,.17,0,3.81,0,7.34-1.2,10.23-3.25,2.06,2.01,4.87,3.25,7.97,3.25,6.31,0,11.42-5.11,11.42-11.42s-5.11-11.42-11.42-11.42"/>
            <path class="cls-22" d="M111.37,349.73c0,24.5-19.86,44.36-44.36,44.36s-44.36-19.86-44.36-44.36,19.86-44.36,44.36-44.36,44.36,19.86,44.36,44.36"/>
            <path class="cls-16" d="M64.29,340.67c0,3-2.43,5.44-5.44,5.44s-5.44-2.43-5.44-5.44,5.44-10.41,5.44-10.41c0,0,5.44,7.41,5.44,10.41"/>
            <path class="cls-16" d="M80.74,340.6c0,3-2.43,5.44-5.44,5.44s-5.44-2.43-5.44-5.44,5.44-10.41,5.44-10.41c0,0,5.44,7.41,5.44,10.41"/>
            <path class="cls-16" d="M72.45,325.88c0,3-2.43,5.44-5.44,5.44s-5.44-2.43-5.44-5.44,5.44-10.41,5.44-10.41c0,0,5.44,7.41,5.44,10.41"/>
          </g>
          <g class="cls-12">
            <path class="cls-18" d="M83.87,359.79c-1.53,0-3.06-.58-4.22-1.75l-4.57-4.57c-.66-.66-1.53-1.02-2.46-1.02s-1.8.36-2.46,1.02l-4.41,4.41c-2.33,2.33-6.11,2.33-8.44,0l-4.41-4.41c-1.35-1.35-3.56-1.35-4.91,0l-4.41,4.41c-1.13,1.13-2.63,1.75-4.22,1.75s-3.09-.62-4.22-1.75l-4.41-4.41c-1.35-1.35-3.56-1.35-4.91,0l-4.41,4.41c-2.33,2.33-6.11,2.33-8.44,0l-4.41-4.41c-1.35-1.35-3.56-1.35-4.91,0l-1.76-1.76c2.33-2.33,6.11-2.33,8.44,0l4.41,4.41c1.36,1.36,3.56,1.35,4.91,0l4.41-4.41c2.33-2.33,6.11-2.33,8.44,0l4.41,4.41c1.36,1.36,3.56,1.35,4.91,0l4.41-4.41c2.33-2.33,6.11-2.33,8.44,0l4.41,4.41c1.35,1.36,3.56,1.35,4.91,0l4.41-4.41c1.13-1.13,2.63-1.75,4.22-1.75s3.09.62,4.22,1.75l4.57,4.57c1.36,1.36,3.56,1.36,4.91,0l4.57-4.57c1.13-1.13,2.63-1.75,4.22-1.75s3.09.62,4.22,1.75l4.41,4.41c.66.66,1.53,1.02,2.46,1.02s1.8-.36,2.46-1.02l4.41-4.41c2.33-2.33,6.11-2.33,8.44,0l4.41,4.41c.66.66,1.53,1.02,2.46,1.02s1.8-.36,2.46-1.02l4.41-4.41c2.33-2.33,6.12-2.33,8.44,0l4.41,4.41c1.36,1.36,3.56,1.35,4.91,0l4.41-4.41c2.33-2.33,6.11-2.33,8.44,0l-1.76,1.76c-1.35-1.35-3.56-1.35-4.91,0l-4.41,4.41c-2.33,2.33-6.11,2.33-8.44,0l-4.41-4.41c-1.35-1.35-3.56-1.35-4.91,0l-4.41,4.41c-2.33,2.33-6.11,2.33-8.44,0l-4.41-4.41c-1.35-1.35-3.56-1.35-4.91,0l-4.41,4.41c-2.33,2.33-6.12,2.33-8.44,0l-4.41-4.41c-.66-.66-1.53-1.02-2.46-1.02s-1.8.36-2.46,1.02l-4.57,4.57c-1.16,1.16-2.69,1.75-4.22,1.75"/>
            <path class="cls-18" d="M64.29,373.6c-1.53,0-3.06-.58-4.22-1.75l-4.57-4.57c-.66-.66-1.53-1.02-2.46-1.02s-1.8.36-2.46,1.02l-4.41,4.41c-2.33,2.33-6.11,2.33-8.44,0l-4.41-4.41c-.66-.66-1.53-1.02-2.46-1.02s-1.8.36-2.46,1.02l-4.41,4.41c-2.33,2.33-6.11,2.33-8.44,0l-4.41-4.41c-.66-.66-1.53-1.02-2.46-1.02s-1.8.36-2.46,1.02l-4.41,4.41c-2.33,2.33-6.11,2.33-8.44,0l-4.41-4.41c-1.35-1.35-3.56-1.35-4.91,0l-1.76-1.76c1.13-1.13,2.63-1.75,4.22-1.75s3.09.62,4.22,1.75l4.41,4.41c1.35,1.35,3.56,1.35,4.91,0l4.41-4.41c2.33-2.33,6.11-2.33,8.44,0l4.41,4.41c1.35,1.35,3.56,1.35,4.91,0l4.41-4.41c2.33-2.33,6.11-2.33,8.44,0l4.41,4.41c1.35,1.35,3.56,1.35,4.91,0l4.41-4.41c1.13-1.13,2.63-1.75,4.22-1.75s3.09.62,4.22,1.75l4.57,4.57c1.35,1.36,3.56,1.36,4.91,0l4.57-4.57c2.33-2.33,6.11-2.33,8.44,0l4.41,4.41c1.35,1.35,3.56,1.35,4.91,0l4.41-4.41c2.33-2.33,6.11-2.33,8.44,0l4.41,4.41c1.35,1.35,3.56,1.35,4.91,0l4.41-4.41c2.33-2.33,6.11-2.33,8.44,0l4.41,4.41c1.36,1.35,3.56,1.35,4.91,0l4.41-4.41c1.13-1.13,2.63-1.75,4.22-1.75s3.09.62,4.22,1.75l-1.76,1.76c-1.36-1.35-3.56-1.35-4.91,0l-4.41,4.41c-2.33,2.33-6.11,2.33-8.44,0l-4.41-4.41c-.66-.66-1.53-1.02-2.46-1.02s-1.8.36-2.46,1.02l-4.41,4.41c-2.33,2.33-6.11,2.33-8.44,0l-4.41-4.41c-.66-.66-1.53-1.02-2.46-1.02s-1.8.36-2.46,1.02l-4.41,4.41c-2.33,2.33-6.11,2.33-8.44,0l-4.41-4.41c-1.36-1.35-3.56-1.35-4.91,0l-4.57,4.57c-1.16,1.16-2.69,1.74-4.22,1.74"/>
          </g>
          <g class="cls-14">
            <circle class="cls-2" cx="67.01" cy="349.73" r="44.36"/>
            <path class="cls-22" d="M354.15,62.05c0,24.5-19.86,44.36-44.36,44.36s-44.36-19.86-44.36-44.36,19.86-44.36,44.36-44.36,44.36,19.86,44.36,44.36"/>
            <path class="cls-16" d="M328.08,43.58c-5-.51-9.82-2.17-14.07-4.86l-4.22-2.67-4.22,2.67c-4.25,2.69-9.07,4.35-14.07,4.86l-4.73.48v9.06c0,29.21,23.02,34.95,23.02,34.95,0,0,23.02-5.74,23.02-34.95v-9.06l-4.73-.48Z"/>
            <polygon class="cls-18" points="310.23 75.52 299.11 64.4 301.01 62.51 309.63 71.13 319.88 52.88 322.22 54.2 310.23 75.52"/>
          </g>
        </g>
      </g>
    </g>
  </g>
</svg>