<svg width="678" height="470" viewBox="0 0 678 470" fill="none" xmlns="http://www.w3.org/2000/svg">
<g clip-path="url(#clip0_2680_509)">
<path opacity="0.12" d="M630.009 446.41V245.8C630.009 245.15 629.479 244.62 628.829 244.62H615.359C614.709 244.62 614.179 244.09 614.179 243.44V235.82C614.179 235.17 613.649 234.64 612.999 234.64H608.009C607.359 234.64 606.829 234.11 606.829 233.46V218.16C606.829 217.51 606.299 216.98 605.649 216.98H581.359C580.709 216.98 580.179 216.45 580.179 215.8V178.25C580.179 177.6 579.649 177.07 578.999 177.07H547.659C547.009 177.07 546.479 177.6 546.479 178.25V321.68C546.479 322.33 545.949 322.86 545.299 322.86H521.009C520.359 322.86 519.829 322.33 519.829 321.68V239.63C519.829 238.98 519.299 238.45 518.649 238.45H506.899C506.249 238.45 505.719 237.92 505.719 237.27V211.23C505.719 210.58 505.189 210.05 504.539 210.05H481.819C481.169 210.05 480.639 210.58 480.639 211.23V275.63C480.639 276.28 480.109 276.81 479.459 276.81H460.419C459.769 276.81 459.239 276.28 459.239 275.63V162.89C459.239 162.24 458.709 161.71 458.059 161.71H451.789C451.139 161.71 450.609 161.18 450.609 160.53V139.86C450.609 139.21 450.079 138.68 449.429 138.68H445.509C444.859 138.68 444.329 138.15 444.329 137.5V88.44C444.329 87.79 443.799 87.26 443.149 87.26H442.369C441.719 87.26 441.189 87.79 441.189 88.44V137.5C441.189 138.15 440.659 138.68 440.009 138.68H436.089C435.439 138.68 434.909 139.21 434.909 139.86V275.62C434.909 276.27 434.379 276.8 433.729 276.8H369.709C369.059 276.8 368.529 276.27 368.529 275.62V164.42C368.529 163.77 367.999 163.24 367.349 163.24H359.509C358.859 163.24 358.329 162.71 358.329 162.06V109.94C358.329 109.29 357.799 108.76 357.149 108.76H339.909C339.259 108.76 338.729 108.23 338.729 107.58V65.43C338.729 64.78 338.199 64.25 337.549 64.25C336.899 64.25 336.369 64.78 336.369 65.43V107.58C336.369 108.23 335.839 108.76 335.189 108.76H314.819C314.169 108.76 313.639 109.29 313.639 109.94V128.34C313.639 128.99 313.109 129.52 312.459 129.52H223.919C223.269 129.52 222.739 130.05 222.739 130.7V149.03C222.739 149.68 222.209 150.21 221.559 150.21H180.809C180.159 150.21 179.629 150.74 179.629 151.39V205.05C179.629 205.7 179.099 206.23 178.449 206.23H154.939C154.289 206.23 153.759 205.7 153.759 205.05V188.22C153.759 187.57 153.229 187.04 152.579 187.04H140.829C140.179 187.04 139.649 186.51 139.649 185.86V157.52C139.649 156.87 139.119 156.34 138.469 156.34H122.019C121.369 156.34 120.839 156.87 120.839 157.52V230.36C120.839 231.01 120.309 231.54 119.659 231.54H96.3992C95.7492 231.54 95.2192 231.01 95.2192 230.36V161.29C95.2192 160.88 95.0092 160.5 94.6592 160.29L77.1592 149.52C76.7692 149.28 76.2792 149.29 75.8992 149.54L58.2492 161.06C57.9192 161.28 57.7192 161.65 57.7192 162.04V241.56C57.7192 242.21 57.1892 242.74 56.5392 242.74H37.0892C36.4392 242.74 35.9092 243.27 35.9092 243.92V350.07C35.9092 350.72 35.3792 351.25 34.7292 351.25H20.6292C19.9792 351.25 19.4492 351.78 19.4492 352.43V445.72" fill="#01654D"/>
<path d="M0 445.9H677.73" stroke="#101727" stroke-miterlimit="10"/>
<path d="M69.4597 379.59V369.24C69.4597 356.64 59.6698 345.92 47.0798 345.47C33.8698 345 23.0097 355.57 23.0097 368.68V379.58C23.0097 381.83 21.9397 383.93 20.1797 385.33C14.9497 389.49 11.5597 395.84 11.3997 403C11.1197 416.05 22.1497 426.74 35.1997 426.74H57.2697C70.3298 426.74 81.3497 416.05 81.0697 403C80.9197 395.84 77.5198 389.48 72.2897 385.33C70.5298 383.93 69.4597 381.83 69.4597 379.58V379.59Z" fill="#B7AB65" stroke="#101727" stroke-miterlimit="10"/>
<path d="M46.2402 383.33V445.55" stroke="#101727" stroke-miterlimit="10"/>
<path d="M57.4802 389.91L46.2402 401.16L34.9902 389.91" stroke="#101727" stroke-miterlimit="10"/>
<path d="M126.53 379.87V376.85C126.53 364.25 116.74 353.53 104.15 353.08C90.9401 352.61 80.0801 363.18 80.0801 376.29V379.86C80.0801 381.94 79.1101 383.9 77.4601 385.17C72.1101 389.32 68.6301 395.75 68.4701 403.01C68.1901 416.06 79.2201 426.75 92.2701 426.75H114.34C127.4 426.75 138.42 416.06 138.14 403.01C137.98 395.75 134.5 389.32 129.15 385.17C127.51 383.89 126.53 381.94 126.53 379.86V379.87Z" fill="#B7AB65" stroke="#101727" stroke-miterlimit="10"/>
<path d="M103.301 394.4V445.55" stroke="#101727" stroke-miterlimit="10"/>
<path d="M114.551 401.16L103.301 412.4L92.0605 401.16" stroke="#101727" stroke-miterlimit="10"/>
<path d="M478.903 445.902H584.133V136.952H478.903L478.903 445.902Z" fill="#DDD2BA"/>
<path d="M584.23 136.95L608.67 149.64V445.9H584.23" fill="#B7AB65"/>
<path d="M537.57 395.09C546.57 395.09 553.87 402.39 553.87 411.39V445.9H521.27V411.39C521.27 402.39 528.57 395.09 537.57 395.09Z" fill="#EAE2CF" stroke="#101727" stroke-miterlimit="3"/>
<path d="M542.939 396C536.569 398.21 532.009 404.27 532.009 411.39V445.9H521.279V411.39C521.279 402.39 528.579 395.09 537.579 395.09C539.459 395.09 541.269 395.41 542.949 396H542.939Z" fill="#DDD2BA" stroke="#101727" stroke-miterlimit="3"/>
<path d="M584.23 445.9V278.91V136.95" fill="#EAE2CF"/>
<path d="M584.23 445.9V278.91V136.95" stroke="#101727" stroke-miterlimit="3"/>
<path d="M584.23 136.95L608.67 149.64V445.9H584.23H479V136.95H584.23Z" stroke="#101727" stroke-miterlimit="10"/>
<path d="M520.848 136.948H566.828V119.548H520.848V136.948Z" fill="#DDD2BA" stroke="#101727" stroke-miterlimit="3"/>
<path d="M543.83 119.55V59.57" stroke="#101727" stroke-miterlimit="3"/>
<path d="M488.319 445.9H476.859C476.859 442.74 479.429 440.17 482.589 440.17C483.269 440.17 483.919 440.29 484.519 440.5C486.739 441.29 488.319 443.41 488.319 445.89V445.9Z" fill="#E9BE51"/>
<path d="M500.83 443.57C500.83 444.37 500.72 445.16 500.52 445.9H482.89C482.69 445.15 482.58 444.37 482.58 443.57C482.58 440.26 484.34 437.37 486.97 435.77C488.35 434.92 489.97 434.44 491.71 434.44C495.61 434.44 498.94 436.89 500.24 440.34C500.62 441.34 500.83 442.43 500.83 443.57Z" fill="#E9BE51"/>
<path d="M508.58 243.69L446.26 244.85V446H508.58V243.69Z" fill="#DDD2BA"/>
<path d="M508.579 243.69H497.199V446H508.579V243.69Z" fill="#B7AB65"/>
<path d="M508.58 243.69L446.26 244.85V446H508.58V243.69Z" stroke="#101727" stroke-miterlimit="10"/>
<path d="M497.729 445.9L497.449 243.69" stroke="#101727" stroke-miterlimit="10"/>
<path d="M488.12 398.13C487.39 397.73 486.91 396.98 486.87 396.14C486.17 383.04 483.74 368.03 471.3 368.03C458.86 368.03 456.43 383.03 455.73 396.13C455.69 396.97 455.21 397.71 454.48 398.12C448.99 401.13 445.33 407.06 445.58 413.81C445.92 423.1 453.84 430.32 463.14 430.32H479.48C488.78 430.32 496.7 423.1 497.04 413.81C497.29 407.05 493.62 401.13 488.14 398.12L488.12 398.13Z" fill="#B7AB65" stroke="#101727" stroke-miterlimit="10"/>
<path d="M471.301 391.02V446.53" stroke="#101727" stroke-miterlimit="10"/>
<path d="M479.6 403.28L471.3 411.58L462.99 403.28" stroke="#101727" stroke-miterlimit="10"/>
<path d="M609.751 351.76L645.621 375.49V445.9H574.971V375.49L609.751 351.76Z" fill="#DDD2BA" stroke="#101727" stroke-miterlimit="3"/>
<path d="M537.48 445.9H548.94C548.94 443.22 547.1 440.96 544.6 440.34C544.15 440.23 543.691 440.17 543.211 440.17C540.041 440.17 537.48 442.74 537.48 445.9Z" fill="#B7AB65"/>
<path d="M583.199 445.9H594.659C594.659 442.74 592.089 440.17 588.929 440.17C588.249 440.17 587.599 440.29 586.999 440.5C584.779 441.29 583.199 443.41 583.199 445.89V445.9Z" fill="#E9BE51"/>
<path d="M544.02 443.57C544.02 444.37 544.13 445.16 544.33 445.9H561.96C562.16 445.15 562.27 444.37 562.27 443.57C562.27 440.26 560.51 437.37 557.88 435.77C556.5 434.92 554.88 434.44 553.14 434.44C549.24 434.44 545.909 436.89 544.609 440.34C544.229 441.34 544.02 442.43 544.02 443.57Z" fill="#B7AB65"/>
<path d="M584.1 443.57C584.1 444.37 584.21 445.16 584.41 445.9H602.04C602.24 445.15 602.35 444.37 602.35 443.57C602.35 440.26 600.59 437.37 597.96 435.77C596.58 434.92 594.96 434.44 593.22 434.44C589.32 434.44 585.99 436.89 584.69 440.34C584.31 441.34 584.1 442.43 584.1 443.57Z" fill="#B7AB65"/>
<path d="M556.529 441.03C556.529 442.71 556.739 444.34 557.159 445.9H594.319C594.729 444.34 594.949 442.71 594.949 441.03C594.949 440.39 594.919 439.74 594.859 439.12C593.889 429.42 585.709 421.83 575.739 421.83C567.939 421.83 561.229 426.49 558.219 433.17C557.129 435.57 556.529 438.24 556.529 441.04V441.03Z" fill="#B7AB65"/>
<path d="M543.211 440.17C543.691 440.17 544.161 440.23 544.601 440.34C545.901 436.89 549.231 434.44 553.131 434.44C554.651 434.44 556.091 434.81 557.351 435.47C557.591 434.67 557.871 433.9 558.211 433.15C561.221 426.47 567.941 421.81 575.731 421.81C584.041 421.81 591.101 427.08 593.781 434.45C595.301 434.54 596.721 435.01 597.951 435.76C600.581 437.36 602.341 440.25 602.341 443.56C602.341 444.37 602.231 445.15 602.031 445.89H594.311H584.401H561.941H557.151H548.931H544.311H537.471C537.471 442.73 540.031 440.16 543.201 440.16L543.211 440.17Z" stroke="#101727" stroke-miterlimit="10"/>
<path d="M634.31 351.76L669.76 375.49V445.9H645.62V375.49L609.75 351.76H634.31Z" fill="#B7AB65" stroke="#101727" stroke-miterlimit="3"/>
<path d="M52.1605 285.32C51.0305 264.47 52.6205 243.62 56.9505 223.02C63.3605 192.5 75.4705 163.85 92.9505 137.89C110.42 111.93 132.39 89.92 158.26 72.49C185.07 54.42 214.851 42.09 246.771 35.85C262.091 32.85 277.721 31.34 293.231 31.34C329.651 31.34 365.58 39.74 398.16 55.51" stroke="#101727" stroke-miterlimit="10" stroke-dasharray="12 12"/>
<mask id="mask0_2680_509" style="mask-type:luminance" maskUnits="userSpaceOnUse" x="122" y="133" width="333" height="333">
<path d="M288.699 465.97C380.472 465.97 454.869 391.573 454.869 299.8C454.869 208.027 380.472 133.63 288.699 133.63C196.926 133.63 122.529 208.027 122.529 299.8C122.529 391.573 196.926 465.97 288.699 465.97Z" fill="white"/>
</mask>
<g mask="url(#mask0_2680_509)">
<path d="M455.72 214.34H359.23V445.41H455.72V214.34Z" fill="#E9BE51" stroke="#101727" stroke-miterlimit="10"/>
<path d="M359.231 244.08H163.541V445.41H359.231V244.08Z" fill="#E9BE51" stroke="#101727" stroke-miterlimit="10"/>
<path d="M407.45 264.77C397.58 264.77 389.59 272.77 389.59 282.63V310.03H425.32V282.63C425.32 272.76 417.32 264.77 407.46 264.77H407.45Z" fill="#E9BE51" stroke="#101727" stroke-miterlimit="10"/>
<path d="M407.45 264.77C397.58 264.77 389.59 272.77 389.59 282.63V310.03H425.32V282.63C425.32 272.76 417.32 264.77 407.46 264.77H407.45Z" stroke="#101727" stroke-miterlimit="10"/>
<path d="M407.9 354.65C393.42 354.65 381.68 366.39 381.68 380.87V435.12H434.11V380.87C434.11 366.39 422.37 354.65 407.89 354.65H407.9Z" fill="#E9BE51" stroke="#101727" stroke-miterlimit="10"/>
<path d="M407.9 354.65V438.28" stroke="#101727" stroke-miterlimit="10"/>
<path d="M414.51 399.29V405.91" stroke="#101727" stroke-linejoin="round"/>
<path d="M401.82 399.29V405.91" stroke="#101727" stroke-linejoin="round"/>
<path d="M464.33 229.21H353.76V244.08H464.33V229.21Z" fill="#EAE2CF" stroke="#101727" stroke-miterlimit="10"/>
<path d="M474.24 214.34H343.85V229.21H474.24V214.34Z" fill="#EAE2CF" stroke="#101727" stroke-miterlimit="10"/>
<path d="M368.21 229.21H158.24V244.08H368.21V229.21Z" fill="#EAE2CF" stroke="#101727" stroke-miterlimit="10"/>
<path d="M378.12 214.34H148.33V229.21H378.12V214.34Z" fill="#EAE2CF" stroke="#101727" stroke-miterlimit="10"/>
<path d="M347.211 156.63L263.511 156.64L152.541 214.34L373.901 213.94H456.141L347.211 156.63Z" fill="#B7AB65" stroke="#101727" stroke-miterlimit="10"/>
<path d="M263.131 156.63L373.511 213.94" stroke="#101727" stroke-miterlimit="10"/>
<path d="M428.761 310.04H386.131V319.45H428.761V310.04Z" fill="#E9BE51" stroke="#101727" stroke-miterlimit="10"/>
<path d="M220.59 264.77C210.72 264.77 202.73 272.77 202.73 282.63V310.03H238.46V282.63C238.46 272.76 230.46 264.77 220.6 264.77H220.59Z" fill="#E9BE51" stroke="#101727" stroke-miterlimit="10"/>
<path d="M220.59 264.77C210.72 264.77 202.73 272.77 202.73 282.63V310.03H238.46V282.63C238.46 272.76 230.46 264.77 220.6 264.77H220.59Z" stroke="#101727" stroke-miterlimit="10"/>
<path d="M241.909 310.04H199.279V319.45H241.909V310.04Z" fill="#E9BE51" stroke="#101727" stroke-miterlimit="10"/>
<path d="M302.18 264.77C292.31 264.77 284.32 272.77 284.32 282.63V310.03H320.05V282.63C320.05 272.76 312.05 264.77 302.19 264.77H302.18Z" fill="#E9BE51" stroke="#101727" stroke-miterlimit="10"/>
<path d="M302.18 264.77C292.31 264.77 284.32 272.77 284.32 282.63V310.03H320.05V282.63C320.05 272.76 312.05 264.77 302.19 264.77H302.18Z" stroke="#101727" stroke-miterlimit="10"/>
<path d="M323.489 310.04H280.859V319.45H323.489V310.04Z" fill="#E9BE51" stroke="#101727" stroke-miterlimit="10"/>
<path d="M220.59 336C210.72 336 202.73 344 202.73 353.86V381.26H238.46V353.86C238.46 343.99 230.46 336 220.6 336H220.59Z" fill="#E9BE51" stroke="#101727" stroke-miterlimit="10"/>
<path d="M220.59 336C210.72 336 202.73 344 202.73 353.86V381.26H238.46V353.86C238.46 343.99 230.46 336 220.6 336H220.59Z" stroke="#101727" stroke-miterlimit="10"/>
<path d="M241.909 381.27H199.279V390.68H241.909V381.27Z" fill="#E9BE51" stroke="#101727" stroke-miterlimit="10"/>
<path d="M302.18 336C292.31 336 284.32 344 284.32 353.86V381.26H320.05V353.86C320.05 343.99 312.05 336 302.19 336H302.18Z" fill="#E9BE51" stroke="#101727" stroke-miterlimit="10"/>
<path d="M302.18 336C292.31 336 284.32 344 284.32 353.86V381.26H320.05V353.86C320.05 343.99 312.05 336 302.19 336H302.18Z" stroke="#101727" stroke-miterlimit="10"/>
<path d="M323.489 381.27H280.859V390.68H323.489V381.27Z" fill="#E9BE51" stroke="#101727" stroke-miterlimit="10"/>
<path d="M436.55 435.11H378.35V445.41H436.55V435.11Z" fill="#E9BE51" stroke="#101727" stroke-miterlimit="10"/>
<path d="M378.35 440.26H436.55" stroke="#101727" stroke-miterlimit="10"/>
</g>
<path d="M288.699 465.97C380.472 465.97 454.869 391.573 454.869 299.8C454.869 208.027 380.472 133.63 288.699 133.63C196.926 133.63 122.529 208.027 122.529 299.8C122.529 391.573 196.926 465.97 288.699 465.97Z" stroke="#101727" stroke-miterlimit="10"/>
<path d="M484.05 7.04001C467.3 -4.22999 444.58 0.210007 433.3 16.96L403.58 61.12L464.25 101.95L493.97 57.79C505.24 41.04 500.8 18.32 484.05 7.04001Z" fill="#DDD2BA" stroke="#101727" stroke-miterlimit="10"/>
<path d="M466.33 98.8606L405.668 58.0359L360.723 124.821L421.385 165.645L466.33 98.8606Z" fill="#EAE2CF" stroke="#101727" stroke-miterlimit="10"/>
<path d="M260.47 112.1C162.79 131.19 99.0901 225.86 118.19 323.53C137.28 421.21 231.95 484.91 329.62 465.81C427.3 446.72 491 352.05 471.9 254.38C452.81 156.71 358.14 93 260.47 112.1ZM324.46 439.38C241.51 455.6 160.84 401.3 144.62 318.36C128.4 235.41 182.7 154.74 265.64 138.52C348.59 122.3 429.26 176.6 445.48 259.54C461.7 342.49 407.4 423.16 324.46 439.38Z" fill="#EAE2CF" stroke="#101727" stroke-miterlimit="10"/>
<path d="M506.47 346.36H384.4C374.05 346.36 365.66 337.97 365.66 327.62C365.66 317.27 374.05 308.88 384.4 308.88H506.47C516.82 308.88 525.21 317.27 525.21 327.62C525.21 337.97 516.82 346.36 506.47 346.36Z" fill="#01654D" stroke="#101727" stroke-miterlimit="10"/>
<path d="M396.069 317.82L399.249 324.27L406.369 325.3L401.219 330.32L402.439 337.4L396.069 334.06L389.709 337.4L390.929 330.32L385.779 325.3L392.889 324.27L396.069 317.82Z" fill="white"/>
<path d="M421.15 317.82L424.33 324.27L431.44 325.3L426.29 330.32L427.51 337.4L421.15 334.06L414.79 337.4L416 330.32L410.85 325.3L417.97 324.27L421.15 317.82Z" fill="white"/>
<path d="M446.22 317.82L449.4 324.27L456.52 325.3L451.37 330.32L452.58 337.4L446.22 334.06L439.86 337.4L441.08 330.32L435.93 325.3L443.04 324.27L446.22 317.82Z" fill="white"/>
<path d="M471.3 317.82L474.48 324.27L481.59 325.3L476.44 330.32L477.66 337.4L471.3 334.06L464.94 337.4L466.15 330.32L461 325.3L468.12 324.27L471.3 317.82Z" fill="white"/>
<path d="M496.37 317.82L499.55 324.27L506.66 325.3L501.52 330.32L502.73 337.4L496.37 334.06L490.01 337.4L491.22 330.32L486.08 325.3L493.19 324.27L496.37 317.82Z" fill="white"/>
<path d="M143.419 116.94C162.363 116.94 177.719 101.583 177.719 82.64C177.719 63.6966 162.363 48.34 143.419 48.34C124.476 48.34 109.119 63.6966 109.119 82.64C109.119 101.583 124.476 116.94 143.419 116.94Z" fill="#E9BE51"/>
<path d="M137.901 107.19C137.901 107.19 118.031 103.29 129.721 73.68L131.971 80.3C131.971 80.3 144.531 70.17 139.461 58.09C139.461 58.09 151.541 63.55 149.981 82.64C149.981 82.64 155.631 81.68 155.571 73.29C155.571 73.29 171.021 97.45 148.811 107.19C148.811 107.19 155.041 102.12 149.851 91.6L146.081 96.54C146.081 96.54 148.161 90.05 142.181 83.94C142.181 83.94 141.121 86.33 138.411 90.07C136.741 92.37 132.951 99.92 137.891 107.19H137.901Z" fill="#01654D"/>
<path d="M78.1398 196.35C97.0832 196.35 112.44 180.993 112.44 162.05C112.44 143.107 97.0832 127.75 78.1398 127.75C59.1965 127.75 43.8398 143.107 43.8398 162.05C43.8398 180.993 59.1965 196.35 78.1398 196.35Z" fill="#E9BE51"/>
<path d="M70.5401 171.17H53.5801V169.38H70.5401C73.4901 169.38 75.8901 166.98 75.8901 164.03C75.8901 161.08 73.4901 158.68 70.5401 158.68C68.5901 158.68 66.7901 159.75 65.8401 161.46L64.2701 160.6C65.5301 158.31 67.9301 156.89 70.5401 156.89C74.4801 156.89 77.6801 160.09 77.6801 164.03C77.6801 167.97 74.4801 171.17 70.5401 171.17Z" fill="#EAE2CF"/>
<path d="M80.4101 187.14C77.8001 187.14 75.4001 185.72 74.1401 183.43L75.7101 182.57C76.6501 184.29 78.4501 185.35 80.4101 185.35C83.3601 185.35 85.7601 182.95 85.7601 180C85.7601 177.05 83.3601 174.65 80.4101 174.65H53.5801V172.86H80.4101C84.3501 172.86 87.5501 176.06 87.5501 180C87.5501 183.94 84.3501 187.14 80.4101 187.14Z" fill="#EAE2CF"/>
<path d="M93.8708 146.77C93.5708 146.77 93.2708 146.79 92.9808 146.82C91.3108 141.12 86.0408 136.96 79.8108 136.96C74.9008 136.96 70.5908 139.54 68.1608 143.42C67.3008 143.2 66.4008 143.08 65.4708 143.08C59.5808 143.08 54.8008 147.86 54.8008 153.75C54.8008 158.21 57.5408 162.03 61.4308 163.63C61.6008 158.73 65.6208 154.8 70.5608 154.8C75.5008 154.8 79.7108 158.9 79.7108 163.95C79.7108 164.11 79.6908 164.27 79.6908 164.43C79.7308 164.43 79.7808 164.43 79.8208 164.43C82.7708 164.43 85.4908 163.5 87.7308 161.92C89.3208 163.47 91.4908 164.43 93.8908 164.43C98.7708 164.43 102.721 160.48 102.721 155.6C102.721 150.72 98.7708 146.77 93.8908 146.77H93.8708Z" fill="#01654D"/>
<path d="M51.8098 294.52C70.7531 294.52 86.1098 279.163 86.1098 260.22C86.1098 241.277 70.7531 225.92 51.8098 225.92C32.8664 225.92 17.5098 241.277 17.5098 260.22C17.5098 279.163 32.8664 294.52 51.8098 294.52Z" fill="#E9BE51"/>
<path d="M49.7008 253.21C49.7008 255.53 47.8208 257.41 45.5008 257.41C43.1808 257.41 41.3008 255.53 41.3008 253.21C41.3008 250.89 45.5008 245.16 45.5008 245.16C45.5008 245.16 49.7008 250.89 49.7008 253.21Z" fill="#01654D"/>
<path d="M62.4195 253.16C62.4195 255.48 60.5395 257.36 58.2195 257.36C55.8995 257.36 54.0195 255.48 54.0195 253.16C54.0195 250.84 58.2195 245.11 58.2195 245.11C58.2195 245.11 62.4195 250.84 62.4195 253.16Z" fill="#01654D"/>
<path d="M56.0094 241.78C56.0094 244.1 54.1294 245.98 51.8094 245.98C49.4894 245.98 47.6094 244.1 47.6094 241.78C47.6094 239.46 51.8094 233.73 51.8094 233.73C51.8094 233.73 56.0094 239.46 56.0094 241.78Z" fill="#01654D"/>
<mask id="mask1_2680_509" style="mask-type:luminance" maskUnits="userSpaceOnUse" x="17" y="225" width="70" height="70">
<path d="M51.8098 294.52C70.7531 294.52 86.1098 279.163 86.1098 260.22C86.1098 241.277 70.7531 225.92 51.8098 225.92C32.8664 225.92 17.5098 241.277 17.5098 260.22C17.5098 279.163 32.8664 294.52 51.8098 294.52Z" fill="white"/>
</mask>
<g mask="url(#mask1_2680_509)">
<path d="M64.8392 268C63.6592 268 62.4792 267.55 61.5792 266.65L58.0492 263.12C57.5392 262.61 56.8692 262.33 56.1492 262.33C55.4292 262.33 54.7592 262.61 54.2492 263.12L50.8392 266.53C49.0392 268.33 46.1092 268.33 44.3092 266.53L40.8992 263.12C39.8492 262.07 38.1492 262.07 37.0992 263.12L33.6892 266.53C32.8192 267.4 31.6592 267.88 30.4292 267.88C29.1992 267.88 28.0392 267.4 27.1692 266.53L23.7592 263.12C22.7092 262.07 21.0092 262.07 19.9592 263.12L16.5492 266.53C14.7492 268.33 11.8192 268.33 10.0192 266.53L6.60922 263.12C5.55922 262.07 3.85922 262.07 2.80922 263.12L1.44922 261.76C3.24922 259.96 6.17922 259.96 7.97922 261.76L11.3892 265.17C12.4392 266.22 14.1392 266.22 15.1892 265.17L18.5992 261.76C20.3992 259.96 23.3292 259.96 25.1292 261.76L28.5392 265.17C29.5892 266.22 31.2892 266.22 32.3392 265.17L35.7492 261.76C37.5492 259.96 40.4792 259.96 42.2792 261.76L45.6892 265.17C46.7392 266.22 48.4392 266.22 49.4892 265.17L52.8992 261.76C53.7692 260.89 54.9292 260.41 56.1592 260.41C57.3892 260.41 58.5492 260.89 59.4192 261.76L62.9492 265.29C63.9992 266.34 65.6992 266.34 66.7492 265.29L70.2792 261.76C71.1492 260.89 72.3092 260.41 73.5392 260.41C74.7692 260.41 75.9292 260.89 76.7992 261.76L80.2092 265.17C80.7192 265.68 81.3892 265.96 82.1092 265.96C82.8292 265.96 83.4992 265.68 84.0092 265.17L87.4192 261.76C89.2192 259.96 92.1492 259.96 93.9492 261.76L97.3592 265.17C97.8692 265.68 98.5392 265.96 99.2592 265.96C99.9792 265.96 100.649 265.68 101.159 265.17L104.569 261.76C106.369 259.96 109.299 259.96 111.099 261.76L114.509 265.17C115.559 266.22 117.259 266.22 118.309 265.17L121.719 261.76C123.519 259.96 126.449 259.96 128.249 261.76L126.889 263.12C125.839 262.07 124.139 262.07 123.089 263.12L119.679 266.53C117.879 268.33 114.949 268.33 113.149 266.53L109.739 263.12C108.689 262.07 106.989 262.07 105.939 263.12L102.529 266.53C100.729 268.33 97.7992 268.33 95.9992 266.53L92.5892 263.12C91.5392 262.07 89.8392 262.07 88.7892 263.12L85.3792 266.53C83.5792 268.33 80.6492 268.33 78.8492 266.53L75.4392 263.12C74.9292 262.61 74.2592 262.33 73.5392 262.33C72.8192 262.33 72.1492 262.61 71.6392 263.12L68.1092 266.65C67.2092 267.55 66.0292 268 64.8492 268H64.8392Z" fill="#EAE2CF"/>
<path d="M49.6988 278.67C48.5188 278.67 47.3388 278.22 46.4388 277.32L42.9088 273.79C42.3988 273.28 41.7288 273 41.0088 273C40.2888 273 39.6188 273.28 39.1088 273.79L35.6988 277.2C33.8988 279 30.9688 279 29.1688 277.2L25.7588 273.79C25.2488 273.28 24.5788 273 23.8588 273C23.1388 273 22.4688 273.28 21.9588 273.79L18.5488 277.2C16.7488 279 13.8188 279 12.0188 277.2L8.60883 273.79C8.09883 273.28 7.42883 273 6.70883 273C5.98883 273 5.31883 273.28 4.80883 273.79L1.39883 277.2C-0.401173 279 -3.33117 279 -5.13117 277.2L-8.54117 273.79C-9.59117 272.74 -11.2912 272.74 -12.3412 273.79L-13.7012 272.43C-12.8312 271.56 -11.6712 271.08 -10.4412 271.08C-9.21117 271.08 -8.05117 271.56 -7.18117 272.43L-3.77117 275.84C-2.72117 276.89 -1.02117 276.89 0.0288277 275.84L3.43883 272.43C5.23883 270.63 8.16883 270.63 9.96883 272.43L13.3788 275.84C14.4288 276.89 16.1288 276.89 17.1788 275.84L20.5888 272.43C22.3888 270.63 25.3188 270.63 27.1188 272.43L30.5288 275.84C31.5788 276.89 33.2788 276.89 34.3288 275.84L37.7388 272.43C38.6088 271.56 39.7688 271.08 40.9988 271.08C42.2288 271.08 43.3888 271.56 44.2588 272.43L47.7888 275.96C48.8388 277.01 50.5388 277.01 51.5888 275.96L55.1188 272.43C56.9188 270.63 59.8488 270.63 61.6488 272.43L65.0588 275.84C66.1088 276.89 67.8088 276.89 68.8588 275.84L72.2688 272.43C74.0688 270.63 76.9988 270.63 78.7988 272.43L82.2088 275.84C83.2588 276.89 84.9588 276.89 86.0088 275.84L89.4188 272.43C91.2188 270.63 94.1488 270.63 95.9488 272.43L99.3588 275.84C100.409 276.89 102.109 276.89 103.159 275.84L106.569 272.43C107.439 271.56 108.599 271.08 109.829 271.08C111.059 271.08 112.219 271.56 113.089 272.43L111.729 273.79C110.679 272.74 108.979 272.74 107.929 273.79L104.519 277.2C102.719 279 99.7888 279 97.9888 277.2L94.5788 273.79C94.0688 273.28 93.3988 273 92.6788 273C91.9588 273 91.2888 273.28 90.7788 273.79L87.3688 277.2C85.5688 279 82.6388 279 80.8388 277.2L77.4288 273.79C76.9188 273.28 76.2488 273 75.5288 273C74.8088 273 74.1388 273.28 73.6288 273.79L70.2188 277.2C68.4188 279 65.4888 279 63.6888 277.2L60.2788 273.79C59.2288 272.74 57.5288 272.74 56.4788 273.79L52.9488 277.32C52.0488 278.22 50.8688 278.67 49.6888 278.67H49.6988Z" fill="#EAE2CF"/>
</g>
<path d="M51.8098 294.52C70.7531 294.52 86.1098 279.163 86.1098 260.22C86.1098 241.277 70.7531 225.92 51.8098 225.92C32.8664 225.92 17.5098 241.277 17.5098 260.22C17.5098 279.163 32.8664 294.52 51.8098 294.52Z" stroke="#101727" stroke-miterlimit="10"/>
<path d="M240.181 72.12C259.124 72.12 274.481 56.7634 274.481 37.82C274.481 18.8766 259.124 3.52 240.181 3.52C221.237 3.52 205.881 18.8766 205.881 37.82C205.881 56.7634 221.237 72.12 240.181 72.12Z" fill="#E9BE51"/>
<path d="M254.319 23.53C250.449 23.14 246.729 21.85 243.439 19.77L240.169 17.7L236.899 19.77C233.609 21.85 229.889 23.13 226.019 23.53L222.359 23.9V30.9C222.359 53.48 240.159 57.92 240.159 57.92C240.159 57.92 257.959 53.49 257.959 30.9V23.9L254.299 23.53H254.319Z" fill="#01654D"/>
<path d="M240.52 48.23L231.93 39.63L233.39 38.17L240.06 44.83L247.98 30.72L249.79 31.74L240.52 48.23Z" fill="#EAE2CF"/>
</g>
<defs>
<clipPath id="clip0_2680_509">
<rect width="678" height="470" fill="white"/>
</clipPath>
</defs>
</svg>
