<?xml version="1.0" encoding="UTF-8"?>
<svg id="Capa_1" xmlns="http://www.w3.org/2000/svg" version="1.1" viewBox="0 0 619 638">
  <!-- Generator: Adobe Illustrator 29.8.2, SVG Export Plug-In . SVG Version: 2.1.1 Build 3)  -->
  <defs>
    <style>
      .st0 {
        stroke: #101727;
      }

      .st0, .st1, .st2, .st3, .st4, .st5, .st6, .st7, .st8, .st9, .st10 {
        stroke-miterlimit: 10;
      }

      .st0, .st2, .st7, .st9 {
        fill: none;
      }

      .st1, .st3, .st4, .st5, .st6, .st7, .st8, .st10 {
        stroke: #111726;
      }

      .st1, .st11 {
        fill: #047857;
      }

      .st12, .st3 {
        fill: #ecc146;
      }

      .st2 {
        stroke: #587a51;
      }

      .st13 {
        fill: #01654d;
      }

      .st14, .st4 {
        fill: #a99e53;
      }

      .st15, .st10 {
        fill: #04654d;
      }

      .st5 {
        fill: #ddd2ba;
      }

      .st6 {
        fill: #cec0a5;
      }

      .st8 {
        fill: #eae2cf;
      }

      .st9 {
        stroke: #09644a;
      }
    </style>
  </defs>
  <path d="M34.2,369.7v-13.1h8.1v1.7h-6.1v4h5.6v1.7h-5.6v5.7h-2ZM48,369.9c-.9,0-1.7-.2-2.4-.6-.7-.4-1.2-1-1.6-1.8-.4-.8-.6-1.6-.6-2.7s.2-1.9.6-2.7c.4-.8.9-1.4,1.6-1.8.7-.4,1.5-.6,2.4-.6s1.7.2,2.4.6c.7.4,1.2,1,1.6,1.8.4.8.6,1.7.6,2.7s-.2,1.9-.6,2.7c-.4.8-.9,1.3-1.6,1.8-.7.4-1.5.6-2.4.6ZM48,368.2c.6,0,1.1-.2,1.5-.5.4-.3.7-.7.9-1.3.2-.5.3-1.1.3-1.7s0-1.2-.3-1.7c-.2-.5-.5-1-.9-1.3-.4-.3-.9-.5-1.5-.5s-1.1.2-1.5.5c-.4.3-.7.7-.9,1.3-.2.5-.3,1.1-.3,1.7s0,1.2.3,1.7c.2.5.5.9.9,1.3.4.3.9.5,1.5.5ZM54.7,369.7v-9.8h1.8v1.6h.1c.2-.5.5-.9.9-1.2.5-.3,1-.5,1.5-.5s.3,0,.4,0c.2,0,.3,0,.4,0v1.8c0,0-.2,0-.4,0-.2,0-.4,0-.6,0-.5,0-.9,0-1.2.3-.3.2-.6.4-.8.8-.2.3-.3.7-.3,1.1v6h-1.9ZM65.5,369.9c-1,0-1.8-.2-2.5-.6-.7-.4-1.2-1-1.6-1.8-.4-.8-.6-1.6-.6-2.7s.2-1.9.6-2.7c.4-.8.9-1.4,1.6-1.8.7-.4,1.5-.6,2.4-.6s1.1,0,1.6.3c.5.2,1,.5,1.4.9.4.4.7.9,1,1.5.2.6.4,1.4.4,2.3v.7h-7.8v-1.4h5.9c0-.5-.1-.9-.3-1.3-.2-.4-.5-.7-.9-.9-.4-.2-.8-.3-1.3-.3s-1,.1-1.4.4c-.4.3-.7.6-.9,1-.2.4-.3.9-.3,1.4v1.1c0,.7.1,1.2.3,1.7.2.5.6.8,1,1.1.4.2.9.4,1.5.4s.7,0,1-.2c.3-.1.6-.3.8-.5.2-.2.4-.5.5-.8l1.8.3c-.1.5-.4,1-.8,1.4-.4.4-.8.7-1.4.9-.6.2-1.2.3-1.9.3ZM76,369.9c-1,0-1.8-.2-2.5-.6-.7-.4-1.2-1-1.6-1.8-.4-.8-.5-1.6-.5-2.6s.2-1.9.6-2.6c.4-.8.9-1.4,1.6-1.8.7-.4,1.5-.6,2.4-.6s1.4.1,2,.4c.6.3,1.1.7,1.4,1.1.4.5.6,1.1.6,1.7h-1.9c-.1-.5-.3-.9-.7-1.2-.4-.3-.8-.5-1.5-.5s-1,.1-1.4.4c-.4.3-.7.7-.9,1.2-.2.5-.3,1.1-.3,1.8s.1,1.3.3,1.9c.2.5.5.9.9,1.2.4.3.9.4,1.4.4s.7,0,1-.2c.3-.1.5-.3.7-.6.2-.3.3-.6.4-.9h1.9c0,.6-.3,1.2-.6,1.7-.3.5-.8.9-1.4,1.2-.6.3-1.3.4-2,.4ZM84.9,369.9c-.6,0-1.2-.1-1.7-.3-.5-.2-.9-.6-1.2-1-.3-.4-.4-1-.4-1.6s.1-1,.3-1.4c.2-.4.5-.6.9-.9.4-.2.8-.4,1.2-.5.4-.1.9-.2,1.4-.2.6,0,1.1-.1,1.4-.2.4,0,.6-.1.8-.2.2-.1.2-.3.2-.5h0c0-.6-.2-1-.5-1.3-.3-.3-.8-.5-1.4-.5s-1.2.1-1.5.4c-.4.3-.6.6-.8.9l-1.8-.4c.2-.6.5-1.1.9-1.4.4-.4.9-.6,1.4-.8.5-.2,1.1-.3,1.7-.3s.8,0,1.2.1c.4,0,.9.3,1.2.5.4.2.7.6,1,1,.2.4.4,1,.4,1.7v6.5h-1.9v-1.3h0c-.1.2-.3.5-.6.7-.2.2-.6.4-1,.6-.4.2-.9.2-1.4.2ZM85.3,368.3c.5,0,1-.1,1.4-.3.4-.2.7-.5.9-.8.2-.3.3-.7.3-1.1v-1.3c0,0-.2.1-.4.2-.2,0-.4.1-.7.1-.2,0-.5,0-.7.1-.2,0-.4,0-.6,0-.4,0-.7.1-1,.2-.3.1-.5.3-.7.5-.2.2-.3.5-.3.8s.2.8.5,1.1c.3.2.8.4,1.3.4ZM99.6,362.2l-1.7.3c0-.2-.2-.4-.3-.6-.2-.2-.4-.4-.6-.5s-.6-.2-1-.2-1,.1-1.4.4c-.4.2-.5.5-.5.9s.1.6.4.8c.2.2.6.4,1.2.5l1.6.4c.9.2,1.6.5,2,1,.4.4.7,1,.7,1.7s-.2,1.1-.5,1.6c-.3.5-.8.8-1.4,1.1-.6.3-1.3.4-2.1.4s-2-.2-2.7-.7c-.7-.5-1.1-1.1-1.3-2l1.8-.3c.1.5.4.8.7,1.1.4.2.8.4,1.4.4s1.1-.1,1.5-.4c.4-.3.6-.6.6-1s-.1-.6-.3-.8c-.2-.2-.6-.4-1-.5l-1.7-.4c-.9-.2-1.6-.5-2-1-.4-.5-.7-1-.7-1.7s.2-1.1.5-1.5c.3-.4.8-.8,1.3-1,.6-.2,1.2-.4,2-.4,1.1,0,1.9.2,2.5.7.6.5,1,1.1,1.2,1.8ZM106.5,359.8v1.5h-5.4v-1.5h5.4ZM102.6,357.5h1.9v9.3c0,.4,0,.6.2.8.1.2.3.3.4.4.2,0,.4,0,.6,0s.3,0,.4,0c.1,0,.2,0,.3,0l.3,1.6c-.1,0-.3,0-.5.1-.2,0-.5,0-.8,0-.5,0-1,0-1.4-.3-.4-.2-.8-.5-1.1-.9-.3-.4-.4-.9-.4-1.5v-9.7ZM112.8,369.9c-1,0-1.8-.2-2.5-.6-.7-.4-1.2-1-1.6-1.8-.4-.8-.6-1.6-.6-2.7s.2-1.9.6-2.7c.4-.8.9-1.4,1.6-1.8.7-.4,1.5-.6,2.4-.6s1.1,0,1.6.3c.5.2,1,.5,1.4.9s.7.9,1,1.5c.2.6.4,1.4.4,2.3v.7h-7.8v-1.4h5.9c0-.5-.1-.9-.3-1.3-.2-.4-.5-.7-.9-.9-.4-.2-.8-.3-1.3-.3s-1,.1-1.4.4c-.4.3-.7.6-.9,1-.2.4-.3.9-.3,1.4v1.1c0,.7.1,1.2.3,1.7.2.5.6.8,1,1.1.4.2.9.4,1.5.4s.7,0,1-.2c.3-.1.6-.3.8-.5.2-.2.4-.5.5-.8l1.8.3c-.1.5-.4,1-.8,1.4-.4.4-.8.7-1.4.9-.6.2-1.2.3-1.9.3ZM122.8,369.8c-.8,0-1.5-.2-2.1-.6-.6-.4-1.1-1-1.5-1.7-.3-.8-.5-1.7-.5-2.7s.2-2,.5-2.7c.4-.8.8-1.3,1.5-1.7.6-.4,1.3-.6,2.1-.6s1.1.1,1.5.3c.4.2.7.4.9.7.2.3.4.5.5.7h.1v-4.9h1.9v13.1h-1.9v-1.5h-.2c-.1.2-.3.4-.5.7-.2.3-.5.5-.9.7-.4.2-.9.3-1.5.3ZM123.2,368.2c.5,0,1-.1,1.4-.4.4-.3.7-.7.9-1.2.2-.5.3-1.1.3-1.8s0-1.3-.3-1.8c-.2-.5-.5-.9-.9-1.2-.4-.3-.8-.4-1.4-.4s-1.1.1-1.4.4c-.4.3-.7.7-.9,1.2-.2.5-.3,1.1-.3,1.7s0,1.2.3,1.8c.2.5.5.9.9,1.2.4.3.9.5,1.4.5ZM51,379.8h-2c0-.4-.2-.8-.4-1.1-.2-.3-.5-.6-.8-.8-.3-.2-.6-.4-1-.5-.4-.1-.8-.2-1.2-.2-.8,0-1.4.2-2,.6-.6.4-1.1.9-1.4,1.7-.3.7-.5,1.6-.5,2.7s.2,2,.5,2.7c.3.7.8,1.3,1.4,1.7s1.3.6,2,.6.8,0,1.2-.2c.4-.1.7-.3,1-.5.3-.2.6-.5.8-.8.2-.3.4-.7.4-1.1h2c-.1.6-.3,1.2-.6,1.8-.3.5-.7,1-1.2,1.4-.5.4-1,.7-1.6.9-.6.2-1.3.3-2,.3-1.1,0-2.1-.3-3-.8-.9-.5-1.6-1.3-2.1-2.3-.5-1-.8-2.2-.8-3.6s.3-2.6.8-3.6c.5-1,1.2-1.8,2.1-2.3.9-.5,1.9-.8,3-.8s1.3.1,1.9.3c.6.2,1.1.5,1.6.9.5.4.9.8,1.2,1.4.3.5.5,1.2.6,1.9ZM56.1,388.9c-.6,0-1.2-.1-1.7-.3-.5-.2-.9-.6-1.2-1-.3-.4-.4-1-.4-1.6s.1-1,.3-1.4.5-.6.9-.9c.4-.2.8-.4,1.2-.5.4-.1.9-.2,1.4-.2.6,0,1.1-.1,1.4-.2.4,0,.6-.1.8-.2.2-.1.2-.3.2-.5h0c0-.6-.2-1-.5-1.3-.3-.3-.8-.5-1.4-.5s-1.2.1-1.5.4c-.4.3-.6.6-.8.9l-1.8-.4c.2-.6.5-1.1.9-1.4.4-.4.9-.6,1.4-.8.5-.2,1.1-.3,1.7-.3s.8,0,1.2.1c.4,0,.9.3,1.2.5.4.2.7.6,1,1,.2.4.4,1,.4,1.7v6.5h-1.9v-1.3h0c-.1.2-.3.5-.6.7-.2.2-.6.4-1,.6s-.9.2-1.4.2ZM56.5,387.3c.5,0,1-.1,1.4-.3.4-.2.7-.5.9-.8.2-.3.3-.7.3-1.1v-1.3c0,0-.2.1-.4.2-.2,0-.4.1-.7.1-.2,0-.5,0-.7.1-.2,0-.4,0-.6,0-.4,0-.7.1-1,.2-.3.1-.5.3-.7.5-.2.2-.3.5-.3.8s.2.8.5,1.1c.3.2.8.4,1.3.4ZM70.8,381.2l-1.7.3c0-.2-.2-.4-.3-.6-.2-.2-.4-.4-.6-.5-.3-.1-.6-.2-1-.2s-1,.1-1.4.4c-.4.2-.5.5-.5.9s.1.6.4.8c.2.2.6.4,1.2.5l1.6.4c.9.2,1.6.5,2,1,.4.4.7,1,.7,1.7s-.2,1.1-.5,1.6c-.3.5-.8.8-1.4,1.1-.6.3-1.3.4-2.1.4s-2-.2-2.7-.7c-.7-.5-1.1-1.1-1.3-2l1.8-.3c.1.5.4.8.7,1.1.4.2.8.4,1.4.4s1.1-.1,1.5-.4c.4-.3.6-.6.6-1s-.1-.6-.3-.8c-.2-.2-.6-.4-1-.5l-1.7-.4c-.9-.2-1.6-.5-2-1-.4-.5-.7-1-.7-1.7s.2-1.1.5-1.5c.3-.4.8-.8,1.3-1,.6-.2,1.2-.4,2-.4,1.1,0,1.9.2,2.5.7.6.5,1,1.1,1.2,1.8ZM75.1,382.8v5.8h-1.9v-13.1h1.9v4.9h.1c.2-.5.6-.9,1.1-1.3.5-.3,1.1-.5,1.9-.5s1.3.1,1.8.4c.5.3.9.7,1.2,1.2.3.5.4,1.2.4,2v6.2h-1.9v-6c0-.7-.2-1.3-.6-1.7-.4-.4-.9-.6-1.5-.6s-.9,0-1.2.3c-.4.2-.6.5-.8.8-.2.4-.3.8-.3,1.3ZM88.9,388.7v-13.1h8.1v1.7h-6.1v4h5.6v1.7h-5.6v5.7h-2ZM101.2,375.6v13.1h-1.9v-13.1h1.9ZM107.9,388.9c-.9,0-1.7-.2-2.4-.6-.7-.4-1.2-1-1.6-1.8-.4-.8-.6-1.6-.6-2.7s.2-1.9.6-2.7c.4-.8.9-1.4,1.6-1.8s1.5-.6,2.4-.6,1.7.2,2.4.6,1.2,1,1.6,1.8.6,1.7.6,2.7-.2,1.9-.6,2.7c-.4.8-.9,1.3-1.6,1.8-.7.4-1.5.6-2.4.6ZM107.9,387.2c.6,0,1.1-.2,1.5-.5.4-.3.7-.7.9-1.3.2-.5.3-1.1.3-1.7s0-1.2-.3-1.7c-.2-.5-.5-1-.9-1.3-.4-.3-.9-.5-1.5-.5s-1.1.2-1.5.5c-.4.3-.7.7-.9,1.3-.2.5-.3,1.1-.3,1.7s0,1.2.3,1.7c.2.5.5.9.9,1.3.4.3.9.5,1.5.5ZM116.4,388.7l-2.9-9.8h2l1.9,7.2h0l1.9-7.2h2l1.9,7.2h0l1.9-7.2h2l-2.9,9.8h-1.9l-2-7.1h-.1l-2,7.1h-1.9Z"/>
  <path class="st13" d="M34.2,369.7v-13.1h8.1v1.7h-6.1v4h5.6v1.7h-5.6v5.7h-2ZM48,369.9c-.9,0-1.7-.2-2.4-.6-.7-.4-1.2-1-1.6-1.8-.4-.8-.6-1.6-.6-2.7s.2-1.9.6-2.7c.4-.8.9-1.4,1.6-1.8.7-.4,1.5-.6,2.4-.6s1.7.2,2.4.6c.7.4,1.2,1,1.6,1.8.4.8.6,1.7.6,2.7s-.2,1.9-.6,2.7c-.4.8-.9,1.3-1.6,1.8-.7.4-1.5.6-2.4.6ZM48,368.2c.6,0,1.1-.2,1.5-.5.4-.3.7-.7.9-1.3.2-.5.3-1.1.3-1.7s0-1.2-.3-1.7c-.2-.5-.5-1-.9-1.3-.4-.3-.9-.5-1.5-.5s-1.1.2-1.5.5c-.4.3-.7.7-.9,1.3-.2.5-.3,1.1-.3,1.7s0,1.2.3,1.7c.2.5.5.9.9,1.3.4.3.9.5,1.5.5ZM54.7,369.7v-9.8h1.8v1.6h.1c.2-.5.5-.9.9-1.2.5-.3,1-.5,1.5-.5s.3,0,.4,0c.2,0,.3,0,.4,0v1.8c0,0-.2,0-.4,0-.2,0-.4,0-.6,0-.5,0-.9,0-1.2.3-.3.2-.6.4-.8.8-.2.3-.3.7-.3,1.1v6h-1.9ZM65.5,369.9c-1,0-1.8-.2-2.5-.6-.7-.4-1.2-1-1.6-1.8-.4-.8-.6-1.6-.6-2.7s.2-1.9.6-2.7c.4-.8.9-1.4,1.6-1.8.7-.4,1.5-.6,2.4-.6s1.1,0,1.6.3c.5.2,1,.5,1.4.9.4.4.7.9,1,1.5.2.6.4,1.4.4,2.3v.7h-7.8v-1.4h5.9c0-.5-.1-.9-.3-1.3-.2-.4-.5-.7-.9-.9-.4-.2-.8-.3-1.3-.3s-1,.1-1.4.4c-.4.3-.7.6-.9,1-.2.4-.3.9-.3,1.4v1.1c0,.7.1,1.2.3,1.7.2.5.6.8,1,1.1.4.2.9.4,1.5.4s.7,0,1-.2c.3-.1.6-.3.8-.5.2-.2.4-.5.5-.8l1.8.3c-.1.5-.4,1-.8,1.4-.4.4-.8.7-1.4.9-.6.2-1.2.3-1.9.3ZM76,369.9c-1,0-1.8-.2-2.5-.6-.7-.4-1.2-1-1.6-1.8-.4-.8-.5-1.6-.5-2.6s.2-1.9.6-2.6c.4-.8.9-1.4,1.6-1.8.7-.4,1.5-.6,2.4-.6s1.4.1,2,.4c.6.3,1.1.7,1.4,1.1.4.5.6,1.1.6,1.7h-1.9c-.1-.5-.3-.9-.7-1.2-.4-.3-.8-.5-1.5-.5s-1,.1-1.4.4c-.4.3-.7.7-.9,1.2-.2.5-.3,1.1-.3,1.8s.1,1.3.3,1.9c.2.5.5.9.9,1.2.4.3.9.4,1.4.4s.7,0,1-.2c.3-.1.5-.3.7-.6.2-.3.3-.6.4-.9h1.9c0,.6-.3,1.2-.6,1.7-.3.5-.8.9-1.4,1.2-.6.3-1.3.4-2,.4ZM84.9,369.9c-.6,0-1.2-.1-1.7-.3-.5-.2-.9-.6-1.2-1-.3-.4-.4-1-.4-1.6s.1-1,.3-1.4c.2-.4.5-.6.9-.9.4-.2.8-.4,1.2-.5.4-.1.9-.2,1.4-.2.6,0,1.1-.1,1.4-.2.4,0,.6-.1.8-.2.2-.1.2-.3.2-.5h0c0-.6-.2-1-.5-1.3-.3-.3-.8-.5-1.4-.5s-1.2.1-1.5.4c-.4.3-.6.6-.8.9l-1.8-.4c.2-.6.5-1.1.9-1.4.4-.4.9-.6,1.4-.8.5-.2,1.1-.3,1.7-.3s.8,0,1.2.1c.4,0,.9.3,1.2.5.4.2.7.6,1,1,.2.4.4,1,.4,1.7v6.5h-1.9v-1.3h0c-.1.2-.3.5-.6.7-.2.2-.6.4-1,.6-.4.2-.9.2-1.4.2ZM85.3,368.3c.5,0,1-.1,1.4-.3.4-.2.7-.5.9-.8.2-.3.3-.7.3-1.1v-1.3c0,0-.2.1-.4.2-.2,0-.4.1-.7.1-.2,0-.5,0-.7.1-.2,0-.4,0-.6,0-.4,0-.7.1-1,.2-.3.1-.5.3-.7.5-.2.2-.3.5-.3.8s.2.8.5,1.1c.3.2.8.4,1.3.4ZM99.6,362.2l-1.7.3c0-.2-.2-.4-.3-.6-.2-.2-.4-.4-.6-.5s-.6-.2-1-.2-1,.1-1.4.4c-.4.2-.5.5-.5.9s.1.6.4.8c.2.2.6.4,1.2.5l1.6.4c.9.2,1.6.5,2,1,.4.4.7,1,.7,1.7s-.2,1.1-.5,1.6c-.3.5-.8.8-1.4,1.1-.6.3-1.3.4-2.1.4s-2-.2-2.7-.7c-.7-.5-1.1-1.1-1.3-2l1.8-.3c.1.5.4.8.7,1.1.4.2.8.4,1.4.4s1.1-.1,1.5-.4c.4-.3.6-.6.6-1s-.1-.6-.3-.8c-.2-.2-.6-.4-1-.5l-1.7-.4c-.9-.2-1.6-.5-2-1-.4-.5-.7-1-.7-1.7s.2-1.1.5-1.5c.3-.4.8-.8,1.3-1,.6-.2,1.2-.4,2-.4,1.1,0,1.9.2,2.5.7.6.5,1,1.1,1.2,1.8ZM106.5,359.8v1.5h-5.4v-1.5h5.4ZM102.6,357.5h1.9v9.3c0,.4,0,.6.2.8.1.2.3.3.4.4.2,0,.4,0,.6,0s.3,0,.4,0c.1,0,.2,0,.3,0l.3,1.6c-.1,0-.3,0-.5.1-.2,0-.5,0-.8,0-.5,0-1,0-1.4-.3-.4-.2-.8-.5-1.1-.9-.3-.4-.4-.9-.4-1.5v-9.7ZM112.8,369.9c-1,0-1.8-.2-2.5-.6-.7-.4-1.2-1-1.6-1.8-.4-.8-.6-1.6-.6-2.7s.2-1.9.6-2.7c.4-.8.9-1.4,1.6-1.8.7-.4,1.5-.6,2.4-.6s1.1,0,1.6.3c.5.2,1,.5,1.4.9s.7.9,1,1.5c.2.6.4,1.4.4,2.3v.7h-7.8v-1.4h5.9c0-.5-.1-.9-.3-1.3-.2-.4-.5-.7-.9-.9-.4-.2-.8-.3-1.3-.3s-1,.1-1.4.4c-.4.3-.7.6-.9,1-.2.4-.3.9-.3,1.4v1.1c0,.7.1,1.2.3,1.7.2.5.6.8,1,1.1.4.2.9.4,1.5.4s.7,0,1-.2c.3-.1.6-.3.8-.5.2-.2.4-.5.5-.8l1.8.3c-.1.5-.4,1-.8,1.4-.4.4-.8.7-1.4.9-.6.2-1.2.3-1.9.3ZM122.8,369.8c-.8,0-1.5-.2-2.1-.6-.6-.4-1.1-1-1.5-1.7-.3-.8-.5-1.7-.5-2.7s.2-2,.5-2.7c.4-.8.8-1.3,1.5-1.7.6-.4,1.3-.6,2.1-.6s1.1.1,1.5.3c.4.2.7.4.9.7.2.3.4.5.5.7h.1v-4.9h1.9v13.1h-1.9v-1.5h-.2c-.1.2-.3.4-.5.7-.2.3-.5.5-.9.7-.4.2-.9.3-1.5.3ZM123.2,368.2c.5,0,1-.1,1.4-.4.4-.3.7-.7.9-1.2.2-.5.3-1.1.3-1.8s0-1.3-.3-1.8c-.2-.5-.5-.9-.9-1.2-.4-.3-.8-.4-1.4-.4s-1.1.1-1.4.4c-.4.3-.7.7-.9,1.2-.2.5-.3,1.1-.3,1.7s0,1.2.3,1.8c.2.5.5.9.9,1.2.4.3.9.5,1.4.5ZM51,379.8h-2c0-.4-.2-.8-.4-1.1-.2-.3-.5-.6-.8-.8-.3-.2-.6-.4-1-.5-.4-.1-.8-.2-1.2-.2-.8,0-1.4.2-2,.6-.6.4-1.1.9-1.4,1.7-.3.7-.5,1.6-.5,2.7s.2,2,.5,2.7c.3.7.8,1.3,1.4,1.7s1.3.6,2,.6.8,0,1.2-.2c.4-.1.7-.3,1-.5.3-.2.6-.5.8-.8.2-.3.4-.7.4-1.1h2c-.1.6-.3,1.2-.6,1.8-.3.5-.7,1-1.2,1.4-.5.4-1,.7-1.6.9-.6.2-1.3.3-2,.3-1.1,0-2.1-.3-3-.8-.9-.5-1.6-1.3-2.1-2.3-.5-1-.8-2.2-.8-3.6s.3-2.6.8-3.6c.5-1,1.2-1.8,2.1-2.3.9-.5,1.9-.8,3-.8s1.3.1,1.9.3c.6.2,1.1.5,1.6.9.5.4.9.8,1.2,1.4.3.5.5,1.2.6,1.9ZM56.1,388.9c-.6,0-1.2-.1-1.7-.3-.5-.2-.9-.6-1.2-1-.3-.4-.4-1-.4-1.6s.1-1,.3-1.4.5-.6.9-.9c.4-.2.8-.4,1.2-.5.4-.1.9-.2,1.4-.2.6,0,1.1-.1,1.4-.2.4,0,.6-.1.8-.2.2-.1.2-.3.2-.5h0c0-.6-.2-1-.5-1.3-.3-.3-.8-.5-1.4-.5s-1.2.1-1.5.4c-.4.3-.6.6-.8.9l-1.8-.4c.2-.6.5-1.1.9-1.4.4-.4.9-.6,1.4-.8.5-.2,1.1-.3,1.7-.3s.8,0,1.2.1c.4,0,.9.3,1.2.5.4.2.7.6,1,1,.2.4.4,1,.4,1.7v6.5h-1.9v-1.3h0c-.1.2-.3.5-.6.7-.2.2-.6.4-1,.6s-.9.2-1.4.2ZM56.5,387.3c.5,0,1-.1,1.4-.3.4-.2.7-.5.9-.8.2-.3.3-.7.3-1.1v-1.3c0,0-.2.1-.4.2-.2,0-.4.1-.7.1-.2,0-.5,0-.7.1-.2,0-.4,0-.6,0-.4,0-.7.1-1,.2-.3.1-.5.3-.7.5-.2.2-.3.5-.3.8s.2.8.5,1.1c.3.2.8.4,1.3.4ZM70.8,381.2l-1.7.3c0-.2-.2-.4-.3-.6-.2-.2-.4-.4-.6-.5-.3-.1-.6-.2-1-.2s-1,.1-1.4.4c-.4.2-.5.5-.5.9s.1.6.4.8c.2.2.6.4,1.2.5l1.6.4c.9.2,1.6.5,2,1,.4.4.7,1,.7,1.7s-.2,1.1-.5,1.6c-.3.5-.8.8-1.4,1.1-.6.3-1.3.4-2.1.4s-2-.2-2.7-.7c-.7-.5-1.1-1.1-1.3-2l1.8-.3c.1.5.4.8.7,1.1.4.2.8.4,1.4.4s1.1-.1,1.5-.4c.4-.3.6-.6.6-1s-.1-.6-.3-.8c-.2-.2-.6-.4-1-.5l-1.7-.4c-.9-.2-1.6-.5-2-1-.4-.5-.7-1-.7-1.7s.2-1.1.5-1.5c.3-.4.8-.8,1.3-1,.6-.2,1.2-.4,2-.4,1.1,0,1.9.2,2.5.7.6.5,1,1.1,1.2,1.8ZM75.1,382.8v5.8h-1.9v-13.1h1.9v4.9h.1c.2-.5.6-.9,1.1-1.3.5-.3,1.1-.5,1.9-.5s1.3.1,1.8.4c.5.3.9.7,1.2,1.2.3.5.4,1.2.4,2v6.2h-1.9v-6c0-.7-.2-1.3-.6-1.7-.4-.4-.9-.6-1.5-.6s-.9,0-1.2.3c-.4.2-.6.5-.8.8-.2.4-.3.8-.3,1.3ZM88.9,388.7v-13.1h8.1v1.7h-6.1v4h5.6v1.7h-5.6v5.7h-2ZM101.2,375.6v13.1h-1.9v-13.1h1.9ZM107.9,388.9c-.9,0-1.7-.2-2.4-.6-.7-.4-1.2-1-1.6-1.8-.4-.8-.6-1.6-.6-2.7s.2-1.9.6-2.7c.4-.8.9-1.4,1.6-1.8s1.5-.6,2.4-.6,1.7.2,2.4.6,1.2,1,1.6,1.8.6,1.7.6,2.7-.2,1.9-.6,2.7c-.4.8-.9,1.3-1.6,1.8-.7.4-1.5.6-2.4.6ZM107.9,387.2c.6,0,1.1-.2,1.5-.5.4-.3.7-.7.9-1.3.2-.5.3-1.1.3-1.7s0-1.2-.3-1.7c-.2-.5-.5-1-.9-1.3-.4-.3-.9-.5-1.5-.5s-1.1.2-1.5.5c-.4.3-.7.7-.9,1.3-.2.5-.3,1.1-.3,1.7s0,1.2.3,1.7c.2.5.5.9.9,1.3.4.3.9.5,1.5.5ZM116.4,388.7l-2.9-9.8h2l1.9,7.2h0l1.9-7.2h2l1.9,7.2h0l1.9-7.2h2l-2.9,9.8h-1.9l-2-7.1h-.1l-2,7.1h-1.9Z"/>
  <path d="M487.2,360.8h-2c0-.4-.2-.8-.4-1.1-.2-.3-.5-.6-.8-.8-.3-.2-.6-.4-1-.5-.4-.1-.8-.2-1.2-.2-.8,0-1.4.2-2,.6-.6.4-1.1.9-1.4,1.7-.3.7-.5,1.6-.5,2.7s.2,2,.5,2.7c.3.7.8,1.3,1.4,1.7.6.4,1.3.6,2,.6s.8,0,1.2-.2c.4-.1.7-.3,1-.5.3-.2.6-.5.8-.8.2-.3.4-.7.4-1.1h2c-.1.6-.3,1.2-.6,1.8-.3.5-.7,1-1.2,1.4-.5.4-1,.7-1.6.9-.6.2-1.3.3-2,.3-1.1,0-2.1-.3-3-.8-.9-.5-1.6-1.3-2.1-2.3-.5-1-.8-2.2-.8-3.6s.3-2.6.8-3.6c.5-1,1.2-1.8,2.1-2.3.9-.5,1.9-.8,3-.8s1.3.1,1.9.3c.6.2,1.1.5,1.6.9.5.4.9.8,1.2,1.4.3.5.5,1.2.6,1.9ZM493.5,369.9c-.9,0-1.7-.2-2.4-.6-.7-.4-1.2-1-1.6-1.8-.4-.8-.6-1.6-.6-2.7s.2-1.9.6-2.7.9-1.4,1.6-1.8c.7-.4,1.5-.6,2.4-.6s1.7.2,2.4.6,1.2,1,1.6,1.8c.4.8.6,1.7.6,2.7s-.2,1.9-.6,2.7c-.4.8-.9,1.3-1.6,1.8-.7.4-1.5.6-2.4.6ZM493.5,368.2c.6,0,1.1-.2,1.5-.5s.7-.7.9-1.3c.2-.5.3-1.1.3-1.7s0-1.2-.3-1.7c-.2-.5-.5-1-.9-1.3-.4-.3-.9-.5-1.5-.5s-1.1.2-1.5.5c-.4.3-.7.7-.9,1.3-.2.5-.3,1.1-.3,1.7s0,1.2.3,1.7c.2.5.5.9.9,1.3.4.3.9.5,1.5.5ZM502.1,363.8v5.8h-1.9v-9.8h1.8v1.6h.1c.2-.5.6-.9,1.1-1.3.5-.3,1.1-.5,1.8-.5s1.3.1,1.8.4c.5.3.9.7,1.2,1.2.3.5.4,1.2.4,2v6.2h-1.9v-6c0-.7-.2-1.3-.6-1.7-.4-.4-.9-.6-1.5-.6s-.8,0-1.2.3c-.3.2-.6.5-.8.8-.2.4-.3.8-.3,1.3ZM518.3,362.2l-1.7.3c0-.2-.2-.4-.3-.6-.2-.2-.4-.4-.6-.5-.3-.1-.6-.2-1-.2s-1,.1-1.4.4c-.4.2-.5.5-.5.9s.1.6.4.8c.2.2.6.4,1.2.5l1.6.4c.9.2,1.6.5,2,1,.4.4.7,1,.7,1.7s-.2,1.1-.5,1.6c-.3.5-.8.8-1.4,1.1-.6.3-1.3.4-2.1.4s-2-.2-2.7-.7c-.7-.5-1.1-1.1-1.3-2l1.8-.3c.1.5.4.8.7,1.1.4.2.8.4,1.4.4s1.1-.1,1.5-.4c.4-.3.6-.6.6-1s-.1-.6-.3-.8c-.2-.2-.6-.4-1-.5l-1.7-.4c-.9-.2-1.6-.5-2-1-.4-.5-.7-1-.7-1.7s.2-1.1.5-1.5c.3-.4.8-.8,1.3-1,.6-.2,1.2-.4,2-.4,1.1,0,1.9.2,2.5.7.6.5,1,1.1,1.2,1.8ZM525.2,359.8v1.5h-5.4v-1.5h5.4ZM521.3,357.5h1.9v9.3c0,.4,0,.6.2.8.1.2.3.3.4.4.2,0,.4,0,.6,0s.3,0,.4,0,.2,0,.3,0l.3,1.6c-.1,0-.3,0-.5.1-.2,0-.5,0-.8,0-.5,0-1,0-1.4-.3-.4-.2-.8-.5-1.1-.9-.3-.4-.4-.9-.4-1.5v-9.7ZM527.3,369.7v-9.8h1.8v1.6h.1c.2-.5.5-.9.9-1.2.5-.3,1-.5,1.5-.5s.3,0,.4,0c.2,0,.3,0,.4,0v1.8c0,0-.2,0-.4,0-.2,0-.4,0-.6,0-.5,0-.9,0-1.2.3-.3.2-.6.4-.8.8-.2.3-.3.7-.3,1.1v6h-1.9ZM540.5,365.6v-5.7h1.9v9.8h-1.9v-1.7h-.1c-.2.5-.6,1-1.1,1.3-.5.3-1.1.5-1.8.5s-1.2-.1-1.7-.4c-.5-.3-.9-.7-1.1-1.2-.3-.5-.4-1.2-.4-2v-6.2h1.9v6c0,.7.2,1.2.6,1.6.4.4.9.6,1.4.6s.7,0,1.1-.3c.4-.2.7-.4.9-.8.2-.4.4-.8.4-1.4ZM549.1,369.9c-1,0-1.8-.2-2.5-.6-.7-.4-1.2-1-1.6-1.8-.4-.8-.5-1.6-.5-2.6s.2-1.9.6-2.6c.4-.8.9-1.4,1.6-1.8.7-.4,1.5-.6,2.4-.6s1.4.1,2,.4c.6.3,1.1.7,1.4,1.1.4.5.6,1.1.6,1.7h-1.9c-.1-.5-.3-.9-.7-1.2-.4-.3-.8-.5-1.5-.5s-1,.1-1.4.4c-.4.3-.7.7-.9,1.2-.2.5-.3,1.1-.3,1.8s.1,1.3.3,1.9c.2.5.5.9.9,1.2.4.3.9.4,1.4.4s.7,0,1-.2c.3-.1.5-.3.7-.6.2-.3.3-.6.4-.9h1.9c0,.6-.3,1.2-.6,1.7-.3.5-.8.9-1.4,1.2-.6.3-1.3.4-2,.4ZM559.7,359.8v1.5h-5.4v-1.5h5.4ZM555.8,357.5h1.9v9.3c0,.4,0,.6.2.8.1.2.3.3.4.4.2,0,.4,0,.6,0s.3,0,.4,0c.1,0,.2,0,.3,0l.3,1.6c-.1,0-.3,0-.5.1-.2,0-.5,0-.8,0-.5,0-1,0-1.4-.3-.4-.2-.8-.5-1.1-.9-.3-.4-.4-.9-.4-1.5v-9.7ZM561.8,369.7v-9.8h1.9v9.8h-1.9ZM562.8,358.3c-.3,0-.6-.1-.9-.3-.2-.2-.4-.5-.4-.8s.1-.6.4-.8c.2-.2.5-.3.9-.3s.6.1.8.3c.2.2.4.5.4.8s-.1.6-.4.8c-.2.2-.5.3-.8.3ZM570.5,369.9c-.9,0-1.7-.2-2.4-.6-.7-.4-1.2-1-1.6-1.8-.4-.8-.6-1.6-.6-2.7s.2-1.9.6-2.7c.4-.8.9-1.4,1.6-1.8.7-.4,1.5-.6,2.4-.6s1.7.2,2.4.6c.7.4,1.2,1,1.6,1.8.4.8.6,1.7.6,2.7s-.2,1.9-.6,2.7c-.4.8-.9,1.3-1.6,1.8-.7.4-1.5.6-2.4.6ZM570.5,368.2c.6,0,1.1-.2,1.5-.5.4-.3.7-.7.9-1.3.2-.5.3-1.1.3-1.7s0-1.2-.3-1.7c-.2-.5-.5-1-.9-1.3-.4-.3-.9-.5-1.5-.5s-1.1.2-1.5.5c-.4.3-.7.7-.9,1.3-.2.5-.3,1.1-.3,1.7s0,1.2.3,1.7c.2.5.5.9.9,1.3.4.3.9.5,1.5.5ZM579.1,363.8v5.8h-1.9v-9.8h1.8v1.6h.1c.2-.5.6-.9,1.1-1.3.5-.3,1.1-.5,1.8-.5s1.3.1,1.8.4c.5.3.9.7,1.2,1.2.3.5.4,1.2.4,2v6.2h-1.9v-6c0-.7-.2-1.3-.6-1.7-.4-.4-.9-.6-1.5-.6s-.8,0-1.2.3c-.3.2-.6.5-.8.8-.2.4-.3.8-.3,1.3Z"/>
  <path class="st13" d="M487.2,360.8h-2c0-.4-.2-.8-.4-1.1-.2-.3-.5-.6-.8-.8-.3-.2-.6-.4-1-.5-.4-.1-.8-.2-1.2-.2-.8,0-1.4.2-2,.6-.6.4-1.1.9-1.4,1.7-.3.7-.5,1.6-.5,2.7s.2,2,.5,2.7c.3.7.8,1.3,1.4,1.7.6.4,1.3.6,2,.6s.8,0,1.2-.2c.4-.1.7-.3,1-.5.3-.2.6-.5.8-.8.2-.3.4-.7.4-1.1h2c-.1.6-.3,1.2-.6,1.8-.3.5-.7,1-1.2,1.4-.5.4-1,.7-1.6.9-.6.2-1.3.3-2,.3-1.1,0-2.1-.3-3-.8-.9-.5-1.6-1.3-2.1-2.3-.5-1-.8-2.2-.8-3.6s.3-2.6.8-3.6c.5-1,1.2-1.8,2.1-2.3.9-.5,1.9-.8,3-.8s1.3.1,1.9.3c.6.2,1.1.5,1.6.9.5.4.9.8,1.2,1.4.3.5.5,1.2.6,1.9ZM493.5,369.9c-.9,0-1.7-.2-2.4-.6-.7-.4-1.2-1-1.6-1.8-.4-.8-.6-1.6-.6-2.7s.2-1.9.6-2.7.9-1.4,1.6-1.8c.7-.4,1.5-.6,2.4-.6s1.7.2,2.4.6,1.2,1,1.6,1.8c.4.8.6,1.7.6,2.7s-.2,1.9-.6,2.7c-.4.8-.9,1.3-1.6,1.8-.7.4-1.5.6-2.4.6ZM493.5,368.2c.6,0,1.1-.2,1.5-.5s.7-.7.9-1.3c.2-.5.3-1.1.3-1.7s0-1.2-.3-1.7c-.2-.5-.5-1-.9-1.3-.4-.3-.9-.5-1.5-.5s-1.1.2-1.5.5c-.4.3-.7.7-.9,1.3-.2.5-.3,1.1-.3,1.7s0,1.2.3,1.7c.2.5.5.9.9,1.3.4.3.9.5,1.5.5ZM502.1,363.8v5.8h-1.9v-9.8h1.8v1.6h.1c.2-.5.6-.9,1.1-1.3.5-.3,1.1-.5,1.8-.5s1.3.1,1.8.4c.5.3.9.7,1.2,1.2.3.5.4,1.2.4,2v6.2h-1.9v-6c0-.7-.2-1.3-.6-1.7-.4-.4-.9-.6-1.5-.6s-.8,0-1.2.3c-.3.2-.6.5-.8.8-.2.4-.3.8-.3,1.3ZM518.3,362.2l-1.7.3c0-.2-.2-.4-.3-.6-.2-.2-.4-.4-.6-.5-.3-.1-.6-.2-1-.2s-1,.1-1.4.4c-.4.2-.5.5-.5.9s.1.6.4.8c.2.2.6.4,1.2.5l1.6.4c.9.2,1.6.5,2,1,.4.4.7,1,.7,1.7s-.2,1.1-.5,1.6c-.3.5-.8.8-1.4,1.1-.6.3-1.3.4-2.1.4s-2-.2-2.7-.7c-.7-.5-1.1-1.1-1.3-2l1.8-.3c.1.5.4.8.7,1.1.4.2.8.4,1.4.4s1.1-.1,1.5-.4c.4-.3.6-.6.6-1s-.1-.6-.3-.8c-.2-.2-.6-.4-1-.5l-1.7-.4c-.9-.2-1.6-.5-2-1-.4-.5-.7-1-.7-1.7s.2-1.1.5-1.5c.3-.4.8-.8,1.3-1,.6-.2,1.2-.4,2-.4,1.1,0,1.9.2,2.5.7.6.5,1,1.1,1.2,1.8ZM525.2,359.8v1.5h-5.4v-1.5h5.4ZM521.3,357.5h1.9v9.3c0,.4,0,.6.2.8.1.2.3.3.4.4.2,0,.4,0,.6,0s.3,0,.4,0,.2,0,.3,0l.3,1.6c-.1,0-.3,0-.5.1-.2,0-.5,0-.8,0-.5,0-1,0-1.4-.3-.4-.2-.8-.5-1.1-.9-.3-.4-.4-.9-.4-1.5v-9.7ZM527.3,369.7v-9.8h1.8v1.6h.1c.2-.5.5-.9.9-1.2.5-.3,1-.5,1.5-.5s.3,0,.4,0c.2,0,.3,0,.4,0v1.8c0,0-.2,0-.4,0-.2,0-.4,0-.6,0-.5,0-.9,0-1.2.3-.3.2-.6.4-.8.8-.2.3-.3.7-.3,1.1v6h-1.9ZM540.5,365.6v-5.7h1.9v9.8h-1.9v-1.7h-.1c-.2.5-.6,1-1.1,1.3-.5.3-1.1.5-1.8.5s-1.2-.1-1.7-.4c-.5-.3-.9-.7-1.1-1.2-.3-.5-.4-1.2-.4-2v-6.2h1.9v6c0,.7.2,1.2.6,1.6.4.4.9.6,1.4.6s.7,0,1.1-.3c.4-.2.7-.4.9-.8.2-.4.4-.8.4-1.4ZM549.1,369.9c-1,0-1.8-.2-2.5-.6-.7-.4-1.2-1-1.6-1.8-.4-.8-.5-1.6-.5-2.6s.2-1.9.6-2.6c.4-.8.9-1.4,1.6-1.8.7-.4,1.5-.6,2.4-.6s1.4.1,2,.4c.6.3,1.1.7,1.4,1.1.4.5.6,1.1.6,1.7h-1.9c-.1-.5-.3-.9-.7-1.2-.4-.3-.8-.5-1.5-.5s-1,.1-1.4.4c-.4.3-.7.7-.9,1.2-.2.5-.3,1.1-.3,1.8s.1,1.3.3,1.9c.2.5.5.9.9,1.2.4.3.9.4,1.4.4s.7,0,1-.2c.3-.1.5-.3.7-.6.2-.3.3-.6.4-.9h1.9c0,.6-.3,1.2-.6,1.7-.3.5-.8.9-1.4,1.2-.6.3-1.3.4-2,.4ZM559.7,359.8v1.5h-5.4v-1.5h5.4ZM555.8,357.5h1.9v9.3c0,.4,0,.6.2.8.1.2.3.3.4.4.2,0,.4,0,.6,0s.3,0,.4,0c.1,0,.2,0,.3,0l.3,1.6c-.1,0-.3,0-.5.1-.2,0-.5,0-.8,0-.5,0-1,0-1.4-.3-.4-.2-.8-.5-1.1-.9-.3-.4-.4-.9-.4-1.5v-9.7ZM561.8,369.7v-9.8h1.9v9.8h-1.9ZM562.8,358.3c-.3,0-.6-.1-.9-.3-.2-.2-.4-.5-.4-.8s.1-.6.4-.8c.2-.2.5-.3.9-.3s.6.1.8.3c.2.2.4.5.4.8s-.1.6-.4.8c-.2.2-.5.3-.8.3ZM570.5,369.9c-.9,0-1.7-.2-2.4-.6-.7-.4-1.2-1-1.6-1.8-.4-.8-.6-1.6-.6-2.7s.2-1.9.6-2.7c.4-.8.9-1.4,1.6-1.8.7-.4,1.5-.6,2.4-.6s1.7.2,2.4.6c.7.4,1.2,1,1.6,1.8.4.8.6,1.7.6,2.7s-.2,1.9-.6,2.7c-.4.8-.9,1.3-1.6,1.8-.7.4-1.5.6-2.4.6ZM570.5,368.2c.6,0,1.1-.2,1.5-.5.4-.3.7-.7.9-1.3.2-.5.3-1.1.3-1.7s0-1.2-.3-1.7c-.2-.5-.5-1-.9-1.3-.4-.3-.9-.5-1.5-.5s-1.1.2-1.5.5c-.4.3-.7.7-.9,1.3-.2.5-.3,1.1-.3,1.7s0,1.2.3,1.7c.2.5.5.9.9,1.3.4.3.9.5,1.5.5ZM579.1,363.8v5.8h-1.9v-9.8h1.8v1.6h.1c.2-.5.6-.9,1.1-1.3.5-.3,1.1-.5,1.8-.5s1.3.1,1.8.4c.5.3.9.7,1.2,1.2.3.5.4,1.2.4,2v6.2h-1.9v-6c0-.7-.2-1.3-.6-1.7-.4-.4-.9-.6-1.5-.6s-.8,0-1.2.3c-.3.2-.6.5-.8.8-.2.4-.3.8-.3,1.3Z"/>
  <g>
    <path class="st14" d="M338,606.3h32.2v-93.8h-32.1v93.8Z"/>
    <path class="st11" d="M290.3,481l47.8,31.6h32.1l-47.1-31.5h-32.8Z"/>
    <path class="st0" d="M417.6,96.7c40.6,21.3,74.3,54.1,96.9,94"/>
    <path d="M517.5,196l-7.3-5.9h4.1c0,0,2.1-3.4,2.1-3.4l1.1,9.3Z"/>
    <path class="st0" d="M96.7,196.2c21.5-40.6,54.4-74.2,94.4-96.6"/>
    <path d="M196.5,96.7l-5.9,7.3v-4.1c0,0-3.4-2.1-3.4-2.1l9.3-1.1Z"/>
    <path class="st0" d="M423,515.2c40-22.3,72.9-55.9,94.4-96.4"/>
    <path d="M417.6,518.1l9.3-1.1-3.5-2.1v-4.1c0,0-5.8,7.3-5.8,7.3Z"/>
    <path class="st0" d="M99.7,424c22.5,39.9,56.2,72.7,96.9,94.1"/>
    <path d="M96.7,418.6l1.1,9.3,2.1-3.5h4.1c0,0-7.3-5.8-7.3-5.8Z"/>
    <path class="st3" d="M290.3,481l47.8,31.6v93.8c0,0-94.1,0-94.1,0v-93.7l46.3-31.6Z"/>
    <path class="st7" d="M370.1,512.5l-47.1-31.5h-32.7s47.8,31.6,47.8,31.6h0c0,0,0,93.8,0,93.8h32.2v-93.8h0Z"/>
    <path class="st12" d="M360.1,526.5h-9.2v8.7h9.2v-8.7Z"/>
    <path class="st11" d="M283.9,526.5h-9.2v8.7h9.2v-8.7Z"/>
    <path class="st11" d="M270,526.5h-9.2v8.7h9.2v-8.7Z"/>
    <path class="st11" d="M321.3,526.5h-9.2v8.7h9.2v-8.7Z"/>
    <path class="st11" d="M307.4,526.5h-9.2v8.7h9.2v-8.7Z"/>
    <path class="st11" d="M283.9,547.5h-9.2v8.7h9.2v-8.7Z"/>
    <path class="st11" d="M270,547.5h-9.2v8.7h9.2v-8.7Z"/>
    <path class="st11" d="M321.3,547.5h-9.2v8.7h9.2v-8.7Z"/>
    <path class="st11" d="M307.4,547.5h-9.2v8.7h9.2v-8.7Z"/>
    <path class="st11" d="M283.9,568.4h-9.2v8.7h9.2v-8.7Z"/>
    <path class="st11" d="M270,568.4h-9.2v8.7h9.2v-8.7Z"/>
    <path class="st11" d="M321.3,568.4h-9.2v8.7h9.2v-8.7Z"/>
    <path class="st11" d="M307.4,568.4h-9.2v8.7h9.2v-8.7Z"/>
    <path class="st12" d="M360.1,547.5h-9.2v8.7h9.2v-8.7Z"/>
    <path class="st12" d="M360.1,568.4h-9.2v8.7h9.2v-8.7Z"/>
    <path class="st11" d="M297,586.1h-11.9v20.3h11.9v-20.3Z"/>
    <path class="st10" d="M370,19.3h-125.2v152.1h125.2V19.3Z"/>
    <path class="st6" d="M354.1,28.5l-105.4,9.9,11.9,126.9,105.4-9.9-11.9-126.9Z"/>
    <path class="st8" d="M359.8,30.5h-105.3v127.5h105.3V30.5Z"/>
    <path class="st3" d="M320.4,12.4c-.4-6.7-7.3-11.9-12.7-11.9s-12.3,5.3-12.7,11.9h-21.7v25.7h68.9V12.4h-21.7ZM307.6,18c-2.7,0-5-2.2-5-5s2.2-5,5-5,5,2.2,5,5-2.2,5-5,5Z"/>
    <path class="st2" d="M260.8,64.6h93.6"/>
    <path class="st2" d="M260.8,77.7h93.6"/>
    <path class="st2" d="M260.8,90.9h93.6"/>
    <path class="st2" d="M260.8,104h93.6"/>
    <path class="st2" d="M260.8,117.1h93.6"/>
    <path class="st2" d="M354.5,130.3h-93.6v20.2h93.6s0-21.6,0-20.2Z"/>
    <path class="st14" d="M265.2,53.5c1,.2,1.6.8,1.6,1.8s-1,2-2.5,2h-3.3v-7.3h3.1c1.1,0,2,.8,2,1.8s-.4,1.3-1.1,1.6ZM262.5,53h1.4c.6,0,1.1-.4,1.1-1s-.5-.9-1.1-.9h-1.4v1.9h0ZM264.2,56.2c.8,0,1.3-.5,1.3-1.1s-.5-1.1-1.3-1.1h-1.8v2.1h1.8Z"/>
    <path class="st14" d="M273,50h1.4v4.4c0,1.8-1.3,3-3.1,3s-3.1-1.2-3.1-3v-4.4h1.4v4.4c0,1.2.7,1.8,1.8,1.8s1.8-.6,1.8-1.8v-4.4h0Z"/>
    <path class="st14" d="M276,50h1.4v7.3h-1.4v-7.3Z"/>
    <path class="st14" d="M279.1,50h1.4v6.1h3.3v1.2h-4.7v-7.3Z"/>
    <path class="st14" d="M284.9,57.3v-7.3h2.1c2.9,0,4.4,1.7,4.4,3.6s-1.5,3.6-4.4,3.6h-2.1ZM286.3,56.2h.7c2,0,3.1-1,3.1-2.5s-1.1-2.5-3.1-2.5h-.7v5h0Z"/>
    <path class="st14" d="M292.8,50h1.4v7.3h-1.4v-7.3Z"/>
    <path class="st14" d="M295.8,50h1.1l4.2,5.2v-5.2h1.3v7.3h-1.1l-4.2-5.2v5.2h-1.3v-7.3Z"/>
    <path class="st14" d="M309.9,52.3c-.4-.7-1.1-1.3-2.2-1.3s-2.6,1.1-2.6,2.6,1,2.7,2.6,2.7,2.1-.7,2.4-1.6h-2.8v-1.1h4.2c0,2.2-1.5,3.8-3.8,3.8s-3.9-1.7-3.9-3.8,1.6-3.8,3.9-3.8,3,.9,3.6,2.5h-1.3Z"/>
    <path class="st14" d="M318.1,55.2v2h-1.4v-7.3h3.1c1.6,0,2.6,1.2,2.6,2.6s-1.1,2.6-2.6,2.6h-1.7ZM319.7,54c.9,0,1.5-.7,1.5-1.5s-.6-1.4-1.5-1.4h-1.6v2.9h1.6Z"/>
    <path class="st14" d="M323.5,50h4.9v1.2h-3.5v1.8h3.4v1.2h-3.4v1.9h3.6v1.2h-4.9v-7.3h0Z"/>
    <path class="st14" d="M332.2,55.2h-1.1v2.1h-1.4v-7.3h3.2c1.6,0,2.6,1.2,2.6,2.6s-.7,2.1-1.8,2.5l2.1,2.2h-1.8l-1.9-2.1ZM332.8,54c.9,0,1.5-.6,1.5-1.4s-.6-1.4-1.5-1.4h-1.7v2.9h1.7Z"/>
    <path class="st14" d="M340.9,57.3l-2.6-4.4v4.3h-1.3v-7.3h1l2.9,5.2,2.9-5.2h1v7.3h-1.3v-4.3l-2.6,4.4Z"/>
    <path class="st14" d="M346.5,50h1.4v7.3h-1.4v-7.3Z"/>
    <path class="st14" d="M354.8,51.1h-2.2v6.1h-1.4v-6.1h-2.2v-1.2h5.7v1.2Z"/>
    <path class="st3" d="M40.3,277.6c18.1,0,32.8-14.7,32.8-32.8s-14.7-32.8-32.8-32.8-32.8,14.7-32.8,32.8,14.7,32.8,32.8,32.8Z"/>
    <path class="st11" d="M49.1,233.3l-2,3.2c-1.8-1.5-4.1-2.6-7.1-2.6s-5.3,1.4-5.3,4.4,1.6,3.4,6.3,4.4c6.8,1.5,9.3,3.8,9.3,8.1s-3.8,8.5-10,8.5-7.6-1.3-10.2-3.6l2.2-3.2c2,2,5.1,3.2,8.2,3.2s6-1.6,6-4.6-1.8-3.7-6.5-4.6c-6.8-1.5-9.1-3.8-9.1-8s3.7-8.1,9.2-8.1,6.9,1.2,9.1,3h0Z"/>
    <path class="st11" d="M41.9,230.4v-3.2h-3.3v3.1c.5,0,.9,0,1.4,0s1.3,0,1.9.1Z"/>
    <path class="st11" d="M38.6,259.2v3.1h3.3v-3.1c-.5,0-1,0-1.5,0s-1.2,0-1.8,0h0Z"/>
    <path class="st5" d="M49.5,305.7h-20.9v38.4h20.9v-38.4Z"/>
    <path class="st4" d="M78.5,293.4h-20.9v50.8h20.9v-50.8Z"/>
    <path class="st3" d="M107.5,281h-20.9v63.2h20.9v-63.2Z"/>
    <path class="st1" d="M136.5,268.7h-20.9v75.5h20.9v-75.5Z"/>
    <path class="st0" d="M15.6,344.2h135"/>
    <path class="st9" d="M258.9,330.1l23.8-27.3,41.8-9.5,40.3-19.4"/>
    <path class="st0" d="M243.6,255.4v90.6h128"/>
    <path class="st14" d="M258.9,335.3c2.9,0,5.2-2.3,5.2-5.2s-2.3-5.2-5.2-5.2-5.2,2.3-5.2,5.2,2.3,5.2,5.2,5.2Z"/>
    <path class="st12" d="M282.7,308c2.9,0,5.2-2.3,5.2-5.2s-2.3-5.2-5.2-5.2-5.2,2.3-5.2,5.2,2.3,5.2,5.2,5.2Z"/>
    <path class="st14" d="M324.5,298.6c2.9,0,5.2-2.3,5.2-5.2s-2.3-5.2-5.2-5.2-5.2,2.3-5.2,5.2,2.3,5.2,5.2,5.2Z"/>
    <path class="st11" d="M364.8,279.2c2.9,0,5.2-2.3,5.2-5.2s-2.3-5.2-5.2-5.2-5.2,2.3-5.2,5.2,2.3,5.2,5.2,5.2Z"/>
    <path class="st7" d="M607.5,250.1l-47.8-31.7h-32.2"/>
    <path class="st0" d="M455.6,343.7v-91.2"/>
    <path class="st0" d="M475.4,343.7v-91.2"/>
    <path class="st0" d="M455.6,257.6h25.7"/>
    <path class="st0" d="M455.6,277.6h25.7"/>
    <path class="st0" d="M475.4,257.6l-19.8,19.9"/>
    <path class="st0" d="M455.6,257.6l19.8,19.9"/>
    <path class="st0" d="M455.6,297.6h25.7"/>
    <path class="st0" d="M475.4,277.7l-19.8,19.9"/>
    <path class="st0" d="M455.6,277.7l19.8,19.9"/>
    <path class="st0" d="M455.6,317.6h25.7"/>
    <path class="st0" d="M475.4,297.7l-19.8,19.9"/>
    <path class="st0" d="M455.6,297.7l19.8,19.9"/>
    <path class="st0" d="M475.4,317.7l-19.8,19.9"/>
    <path class="st0" d="M455.6,317.7l19.8,19.9"/>
    <path class="st3" d="M527.6,218.3l47.8,31.6v93.8h-94.1v-93.8l46.3-31.6Z"/>
    <path class="st4" d="M575.3,249.9v93.8h32.2v-93.8h0s-32.2,0-32.2,0Z"/>
    <path class="st0" d="M443.5,343.7h175.2"/>
    <path class="st0" d="M217.7,606.4h175.2"/>
    <path class="st9" d="M424.2,275.4h0"/>
    <path class="st9" d="M564.8,427.4l-.4.4"/>
  </g>
  <path d="M237.7,358.3v-1.7h10.1v1.7h-4.1v11.4h-2v-11.4h-4.1ZM248.9,369.7v-9.8h1.8v1.6h.1c.2-.5.5-.9.9-1.2.5-.3,1-.5,1.5-.5s.3,0,.4,0c.2,0,.3,0,.4,0v1.8c0,0-.2,0-.4,0-.2,0-.4,0-.6,0-.5,0-.9,0-1.2.3-.3.2-.6.4-.8.8-.2.3-.3.7-.3,1.1v6h-1.9ZM258.6,369.9c-.6,0-1.2-.1-1.7-.3-.5-.2-.9-.6-1.2-1-.3-.4-.4-1-.4-1.6s.1-1,.3-1.4c.2-.4.5-.6.9-.9.4-.2.8-.4,1.2-.5.4-.1.9-.2,1.4-.2.6,0,1.1-.1,1.4-.2.4,0,.6-.1.8-.2.2-.1.2-.3.2-.5h0c0-.6-.2-1-.5-1.3-.3-.3-.8-.5-1.4-.5s-1.1.1-1.5.4c-.4.3-.6.6-.8.9l-1.8-.4c.2-.6.5-1.1.9-1.4.4-.4.9-.6,1.4-.8.5-.2,1.1-.3,1.7-.3s.8,0,1.2.1c.4,0,.9.3,1.2.5.4.2.7.6,1,1,.2.4.4,1,.4,1.7v6.5h-1.9v-1.3h0c-.1.2-.3.5-.6.7-.2.2-.6.4-1,.6s-.9.2-1.4.2ZM259,368.3c.5,0,1-.1,1.4-.3.4-.2.7-.5.9-.8.2-.3.3-.7.3-1.1v-1.3c0,0-.2.1-.4.2-.2,0-.4.1-.7.1-.2,0-.5,0-.7.1-.2,0-.4,0-.6,0-.4,0-.7.1-1,.2-.3.1-.5.3-.7.5-.2.2-.3.5-.3.8s.2.8.5,1.1c.3.2.8.4,1.3.4ZM270.1,369.9c-1,0-1.8-.2-2.5-.6-.7-.4-1.2-1-1.6-1.8-.4-.8-.6-1.6-.6-2.6s.2-1.9.6-2.6c.4-.8.9-1.4,1.6-1.8.7-.4,1.5-.6,2.4-.6s1.4.1,2,.4c.6.3,1.1.7,1.4,1.1.4.5.6,1.1.6,1.7h-1.9c-.1-.5-.3-.9-.7-1.2-.4-.3-.8-.5-1.5-.5s-1,.1-1.4.4c-.4.3-.7.7-.9,1.2-.2.5-.3,1.1-.3,1.8s.1,1.3.3,1.9c.2.5.5.9.9,1.2.4.3.9.4,1.4.4s.7,0,1-.2c.3-.1.5-.3.7-.6.2-.3.3-.6.4-.9h1.9c0,.6-.3,1.2-.6,1.7-.3.5-.8.9-1.4,1.2-.6.3-1.3.4-2,.4ZM278,366.3v-2.3s.3,0,.3,0l3.9-4.2h2.3l-4.5,4.7h-.3l-1.8,1.8ZM276.2,369.7v-13.1h1.9v13.1h-1.9ZM282.4,369.7l-3.5-4.7,1.3-1.3,4.5,6h-2.3ZM290.5,358.3v-1.7h10.1v1.7h-4.1v11.4h-2v-11.4h-4.1ZM302.7,369.7v-9.8h1.9v9.8h-1.9ZM303.7,358.3c-.3,0-.6-.1-.9-.3-.2-.2-.4-.5-.4-.8s.1-.6.4-.8c.2-.2.5-.3.9-.3s.6.1.9.3c.2.2.4.5.4.8s-.1.6-.4.8c-.2.2-.5.3-.9.3ZM307.2,369.7v-9.8h1.8v1.6h.1c.2-.5.5-1,1-1.3.5-.3,1-.5,1.7-.5s1.2.2,1.6.5c.4.3.8.7,1,1.3h.1c.2-.5.6-.9,1.1-1.3.5-.3,1.1-.5,1.8-.5s1.6.3,2.2.8c.6.6.9,1.4.9,2.5v6.6h-1.9v-6.4c0-.7-.2-1.1-.5-1.4-.4-.3-.8-.4-1.3-.4s-1.1.2-1.5.6c-.3.4-.5.9-.5,1.5v6.3h-1.9v-6.5c0-.5-.2-1-.5-1.3-.3-.3-.8-.5-1.3-.5s-.7,0-1,.3c-.3.2-.5.4-.7.8-.2.3-.3.7-.3,1.2v6.1h-1.9ZM327.4,369.9c-1,0-1.8-.2-2.5-.6-.7-.4-1.2-1-1.6-1.8-.4-.8-.6-1.6-.6-2.7s.2-1.9.6-2.7c.4-.8.9-1.4,1.6-1.8.7-.4,1.5-.6,2.4-.6s1.1,0,1.6.3c.5.2,1,.5,1.4.9.4.4.7.9,1,1.5.2.6.4,1.4.4,2.3v.7h-7.8v-1.4h5.9c0-.5-.1-.9-.3-1.3-.2-.4-.5-.7-.9-.9-.4-.2-.8-.3-1.3-.3s-1,.1-1.4.4c-.4.3-.7.6-.9,1-.2.4-.3.9-.3,1.4v1.1c0,.7.1,1.2.3,1.7.2.5.6.8,1,1.1.4.2.9.4,1.5.4s.7,0,1-.2c.3-.1.6-.3.8-.5.2-.2.4-.5.5-.8l1.8.3c-.1.5-.4,1-.8,1.4-.4.4-.8.7-1.4.9-.6.2-1.2.3-1.9.3ZM335.6,356.6v13.1h-1.9v-13.1h1.9ZM338.2,369.7v-9.8h1.9v9.8h-1.9ZM339.1,358.3c-.3,0-.6-.1-.9-.3-.2-.2-.4-.5-.4-.8s.1-.6.4-.8c.2-.2.5-.3.9-.3s.6.1.9.3c.2.2.4.5.4.8s-.1.6-.4.8c-.2.2-.5.3-.9.3ZM344.6,363.8v5.8h-1.9v-9.8h1.8v1.6h.1c.2-.5.6-.9,1.1-1.3.5-.3,1.1-.5,1.8-.5s1.3.1,1.8.4c.5.3.9.7,1.2,1.2.3.5.4,1.2.4,2v6.2h-1.9v-6c0-.7-.2-1.3-.6-1.7-.4-.4-.9-.6-1.5-.6s-.8,0-1.2.3c-.3.2-.6.5-.8.8-.2.4-.3.8-.3,1.3ZM357.6,369.9c-1,0-1.8-.2-2.5-.6-.7-.4-1.2-1-1.6-1.8-.4-.8-.6-1.6-.6-2.7s.2-1.9.6-2.7c.4-.8.9-1.4,1.6-1.8.7-.4,1.5-.6,2.4-.6s1.1,0,1.6.3c.5.2,1,.5,1.4.9.4.4.7.9,1,1.5.2.6.4,1.4.4,2.3v.7h-7.8v-1.4h5.9c0-.5-.1-.9-.3-1.3-.2-.4-.5-.7-.9-.9-.4-.2-.8-.3-1.3-.3s-1,.1-1.4.4c-.4.3-.7.6-.9,1-.2.4-.3.9-.3,1.4v1.1c0,.7.1,1.2.3,1.7.2.5.6.8,1,1.1.4.2.9.4,1.5.4s.7,0,1-.2c.3-.1.6-.3.8-.5.2-.2.4-.5.5-.8l1.8.3c-.1.5-.4,1-.8,1.4-.4.4-.8.7-1.4.9-.6.2-1.2.3-1.9.3ZM371.3,362.2l-1.7.3c0-.2-.2-.4-.3-.6-.2-.2-.4-.4-.6-.5-.3-.1-.6-.2-1-.2s-1,.1-1.4.4c-.4.2-.5.5-.5.9s.1.6.4.8c.2.2.6.4,1.2.5l1.6.4c.9.2,1.6.5,2,1,.4.4.7,1,.7,1.7s-.2,1.1-.5,1.6c-.3.5-.8.8-1.4,1.1-.6.3-1.3.4-2.1.4s-2-.2-2.7-.7c-.7-.5-1.1-1.1-1.3-2l1.8-.3c.1.5.4.8.7,1.1.4.2.8.4,1.4.4s1.1-.1,1.5-.4c.4-.3.6-.6.6-1s-.1-.6-.3-.8c-.2-.2-.6-.4-1-.5l-1.7-.4c-.9-.2-1.6-.5-2-1-.4-.5-.7-1-.7-1.7s.2-1.1.5-1.5c.3-.4.8-.8,1.3-1,.6-.2,1.2-.4,2-.4,1.1,0,1.9.2,2.5.7.6.5,1,1.1,1.2,1.8ZM281.2,388.7v-13.1h4.8c.9,0,1.7.2,2.3.5.6.3,1.1.7,1.4,1.2.3.5.5,1.1.5,1.7s-.1,1-.3,1.4c-.2.4-.5.7-.8.9-.3.2-.7.4-1.1.5h0c.4.1.9.3,1.3.5.4.3.8.6,1,1.1.3.5.4,1,.4,1.7s-.2,1.3-.5,1.8c-.3.5-.8.9-1.4,1.3-.7.3-1.5.5-2.5.5h-5ZM283.1,387h2.9c.9,0,1.6-.2,2-.5.4-.4.6-.8.6-1.4s-.1-.8-.3-1.1c-.2-.3-.5-.6-.9-.8-.4-.2-.8-.3-1.4-.3h-2.9v4.2ZM283.1,381.2h2.6c.4,0,.8,0,1.2-.3.4-.2.6-.4.9-.7.2-.3.3-.7.3-1.1s-.2-1-.6-1.4c-.4-.4-1-.5-1.7-.5h-2.7v4ZM294,392.3c-.3,0-.5,0-.8,0-.2,0-.4,0-.5-.1l.5-1.6c.3,0,.7.1.9.1.3,0,.5-.1.7-.3.2-.2.4-.5.6-.9l.2-.7-3.6-9.9h2l2.5,7.6h.1l2.5-7.6h2.1l-4,11.1c-.2.5-.4.9-.7,1.3-.3.4-.6.6-1,.8-.4.2-.9.3-1.4.3ZM307.6,388.7v-1.3l6.9-10.1h-6.9v-1.7h9.4v1.3l-6.9,10.1h6.9v1.7h-9.4ZM321.4,375.6v13.1h-2v-13.1h2ZM324.2,388.7v-13.1h4.7c1,0,1.9.2,2.5.6.7.4,1.2.9,1.5,1.5.3.6.5,1.4.5,2.2s-.2,1.5-.5,2.2c-.3.6-.8,1.1-1.5,1.5-.7.4-1.5.6-2.5.6h-3.2v-1.7h3c.6,0,1.2-.1,1.6-.3.4-.2.7-.5.9-.9.2-.4.3-.8.3-1.3s0-.9-.3-1.3c-.2-.4-.5-.7-.9-.9-.4-.2-.9-.3-1.6-.3h-2.5v11.4h-2Z"/>
  <path class="st15" d="M237.7,358.3v-1.7h10.1v1.7h-4.1v11.4h-2v-11.4h-4.1ZM248.9,369.7v-9.8h1.8v1.6h.1c.2-.5.5-.9.9-1.2.5-.3,1-.5,1.5-.5s.3,0,.4,0c.2,0,.3,0,.4,0v1.8c0,0-.2,0-.4,0-.2,0-.4,0-.6,0-.5,0-.9,0-1.2.3-.3.2-.6.4-.8.8-.2.3-.3.7-.3,1.1v6h-1.9ZM258.6,369.9c-.6,0-1.2-.1-1.7-.3-.5-.2-.9-.6-1.2-1-.3-.4-.4-1-.4-1.6s.1-1,.3-1.4c.2-.4.5-.6.9-.9.4-.2.8-.4,1.2-.5.4-.1.9-.2,1.4-.2.6,0,1.1-.1,1.4-.2.4,0,.6-.1.8-.2.2-.1.2-.3.2-.5h0c0-.6-.2-1-.5-1.3-.3-.3-.8-.5-1.4-.5s-1.1.1-1.5.4c-.4.3-.6.6-.8.9l-1.8-.4c.2-.6.5-1.1.9-1.4.4-.4.9-.6,1.4-.8.5-.2,1.1-.3,1.7-.3s.8,0,1.2.1c.4,0,.9.3,1.2.5.4.2.7.6,1,1,.2.4.4,1,.4,1.7v6.5h-1.9v-1.3h0c-.1.2-.3.5-.6.7-.2.2-.6.4-1,.6s-.9.2-1.4.2ZM259,368.3c.5,0,1-.1,1.4-.3.4-.2.7-.5.9-.8.2-.3.3-.7.3-1.1v-1.3c0,0-.2.1-.4.2-.2,0-.4.1-.7.1-.2,0-.5,0-.7.1-.2,0-.4,0-.6,0-.4,0-.7.1-1,.2-.3.1-.5.3-.7.5-.2.2-.3.5-.3.8s.2.8.5,1.1c.3.2.8.4,1.3.4ZM270.1,369.9c-1,0-1.8-.2-2.5-.6-.7-.4-1.2-1-1.6-1.8-.4-.8-.6-1.6-.6-2.6s.2-1.9.6-2.6c.4-.8.9-1.4,1.6-1.8.7-.4,1.5-.6,2.4-.6s1.4.1,2,.4c.6.3,1.1.7,1.4,1.1.4.5.6,1.1.6,1.7h-1.9c-.1-.5-.3-.9-.7-1.2-.4-.3-.8-.5-1.5-.5s-1,.1-1.4.4c-.4.3-.7.7-.9,1.2-.2.5-.3,1.1-.3,1.8s.1,1.3.3,1.9c.2.5.5.9.9,1.2.4.3.9.4,1.4.4s.7,0,1-.2c.3-.1.5-.3.7-.6.2-.3.3-.6.4-.9h1.9c0,.6-.3,1.2-.6,1.7-.3.5-.8.9-1.4,1.2-.6.3-1.3.4-2,.4ZM278,366.3v-2.3s.3,0,.3,0l3.9-4.2h2.3l-4.5,4.7h-.3l-1.8,1.8ZM276.2,369.7v-13.1h1.9v13.1h-1.9ZM282.4,369.7l-3.5-4.7,1.3-1.3,4.5,6h-2.3ZM290.5,358.3v-1.7h10.1v1.7h-4.1v11.4h-2v-11.4h-4.1ZM302.7,369.7v-9.8h1.9v9.8h-1.9ZM303.7,358.3c-.3,0-.6-.1-.9-.3-.2-.2-.4-.5-.4-.8s.1-.6.4-.8c.2-.2.5-.3.9-.3s.6.1.9.3c.2.2.4.5.4.8s-.1.6-.4.8c-.2.2-.5.3-.9.3ZM307.2,369.7v-9.8h1.8v1.6h.1c.2-.5.5-1,1-1.3.5-.3,1-.5,1.7-.5s1.2.2,1.6.5c.4.3.8.7,1,1.3h.1c.2-.5.6-.9,1.1-1.3.5-.3,1.1-.5,1.8-.5s1.6.3,2.2.8c.6.6.9,1.4.9,2.5v6.6h-1.9v-6.4c0-.7-.2-1.1-.5-1.4-.4-.3-.8-.4-1.3-.4s-1.1.2-1.5.6c-.3.4-.5.9-.5,1.5v6.3h-1.9v-6.5c0-.5-.2-1-.5-1.3-.3-.3-.8-.5-1.3-.5s-.7,0-1,.3c-.3.2-.5.4-.7.8-.2.3-.3.7-.3,1.2v6.1h-1.9ZM327.4,369.9c-1,0-1.8-.2-2.5-.6-.7-.4-1.2-1-1.6-1.8-.4-.8-.6-1.6-.6-2.7s.2-1.9.6-2.7c.4-.8.9-1.4,1.6-1.8.7-.4,1.5-.6,2.4-.6s1.1,0,1.6.3c.5.2,1,.5,1.4.9.4.4.7.9,1,1.5.2.6.4,1.4.4,2.3v.7h-7.8v-1.4h5.9c0-.5-.1-.9-.3-1.3-.2-.4-.5-.7-.9-.9-.4-.2-.8-.3-1.3-.3s-1,.1-1.4.4c-.4.3-.7.6-.9,1-.2.4-.3.9-.3,1.4v1.1c0,.7.1,1.2.3,1.7.2.5.6.8,1,1.1.4.2.9.4,1.5.4s.7,0,1-.2c.3-.1.6-.3.8-.5.2-.2.4-.5.5-.8l1.8.3c-.1.5-.4,1-.8,1.4-.4.4-.8.7-1.4.9-.6.2-1.2.3-1.9.3ZM335.6,356.6v13.1h-1.9v-13.1h1.9ZM338.2,369.7v-9.8h1.9v9.8h-1.9ZM339.1,358.3c-.3,0-.6-.1-.9-.3-.2-.2-.4-.5-.4-.8s.1-.6.4-.8c.2-.2.5-.3.9-.3s.6.1.9.3c.2.2.4.5.4.8s-.1.6-.4.8c-.2.2-.5.3-.9.3ZM344.6,363.8v5.8h-1.9v-9.8h1.8v1.6h.1c.2-.5.6-.9,1.1-1.3.5-.3,1.1-.5,1.8-.5s1.3.1,1.8.4c.5.3.9.7,1.2,1.2.3.5.4,1.2.4,2v6.2h-1.9v-6c0-.7-.2-1.3-.6-1.7-.4-.4-.9-.6-1.5-.6s-.8,0-1.2.3c-.3.2-.6.5-.8.8-.2.4-.3.8-.3,1.3ZM357.6,369.9c-1,0-1.8-.2-2.5-.6-.7-.4-1.2-1-1.6-1.8-.4-.8-.6-1.6-.6-2.7s.2-1.9.6-2.7c.4-.8.9-1.4,1.6-1.8.7-.4,1.5-.6,2.4-.6s1.1,0,1.6.3c.5.2,1,.5,1.4.9.4.4.7.9,1,1.5.2.6.4,1.4.4,2.3v.7h-7.8v-1.4h5.9c0-.5-.1-.9-.3-1.3-.2-.4-.5-.7-.9-.9-.4-.2-.8-.3-1.3-.3s-1,.1-1.4.4c-.4.3-.7.6-.9,1-.2.4-.3.9-.3,1.4v1.1c0,.7.1,1.2.3,1.7.2.5.6.8,1,1.1.4.2.9.4,1.5.4s.7,0,1-.2c.3-.1.6-.3.8-.5.2-.2.4-.5.5-.8l1.8.3c-.1.5-.4,1-.8,1.4-.4.4-.8.7-1.4.9-.6.2-1.2.3-1.9.3ZM371.3,362.2l-1.7.3c0-.2-.2-.4-.3-.6-.2-.2-.4-.4-.6-.5-.3-.1-.6-.2-1-.2s-1,.1-1.4.4c-.4.2-.5.5-.5.9s.1.6.4.8c.2.2.6.4,1.2.5l1.6.4c.9.2,1.6.5,2,1,.4.4.7,1,.7,1.7s-.2,1.1-.5,1.6c-.3.5-.8.8-1.4,1.1-.6.3-1.3.4-2.1.4s-2-.2-2.7-.7c-.7-.5-1.1-1.1-1.3-2l1.8-.3c.1.5.4.8.7,1.1.4.2.8.4,1.4.4s1.1-.1,1.5-.4c.4-.3.6-.6.6-1s-.1-.6-.3-.8c-.2-.2-.6-.4-1-.5l-1.7-.4c-.9-.2-1.6-.5-2-1-.4-.5-.7-1-.7-1.7s.2-1.1.5-1.5c.3-.4.8-.8,1.3-1,.6-.2,1.2-.4,2-.4,1.1,0,1.9.2,2.5.7.6.5,1,1.1,1.2,1.8ZM281.2,388.7v-13.1h4.8c.9,0,1.7.2,2.3.5.6.3,1.1.7,1.4,1.2.3.5.5,1.1.5,1.7s-.1,1-.3,1.4c-.2.4-.5.7-.8.9-.3.2-.7.4-1.1.5h0c.4.1.9.3,1.3.5.4.3.8.6,1,1.1.3.5.4,1,.4,1.7s-.2,1.3-.5,1.8c-.3.5-.8.9-1.4,1.3-.7.3-1.5.5-2.5.5h-5ZM283.1,387h2.9c.9,0,1.6-.2,2-.5.4-.4.6-.8.6-1.4s-.1-.8-.3-1.1c-.2-.3-.5-.6-.9-.8-.4-.2-.8-.3-1.4-.3h-2.9v4.2ZM283.1,381.2h2.6c.4,0,.8,0,1.2-.3.4-.2.6-.4.9-.7.2-.3.3-.7.3-1.1s-.2-1-.6-1.4c-.4-.4-1-.5-1.7-.5h-2.7v4ZM294,392.3c-.3,0-.5,0-.8,0-.2,0-.4,0-.5-.1l.5-1.6c.3,0,.7.1.9.1.3,0,.5-.1.7-.3.2-.2.4-.5.6-.9l.2-.7-3.6-9.9h2l2.5,7.6h.1l2.5-7.6h2.1l-4,11.1c-.2.5-.4.9-.7,1.3-.3.4-.6.6-1,.8-.4.2-.9.3-1.4.3ZM307.6,388.7v-1.3l6.9-10.1h-6.9v-1.7h9.4v1.3l-6.9,10.1h6.9v1.7h-9.4ZM321.4,375.6v13.1h-2v-13.1h2ZM324.2,388.7v-13.1h4.7c1,0,1.9.2,2.5.6.7.4,1.2.9,1.5,1.5.3.6.5,1.4.5,2.2s-.2,1.5-.5,2.2c-.3.6-.8,1.1-1.5,1.5-.7.4-1.5.6-2.5.6h-3.2v-1.7h3c.6,0,1.2-.1,1.6-.3.4-.2.7-.5.9-.9.2-.4.3-.8.3-1.3s0-.9-.3-1.3c-.2-.4-.5-.7-.9-.9-.4-.2-.9-.3-1.6-.3h-2.5v11.4h-2Z"/>
  <path d="M281.4,195.7v-13.1h4.7c1,0,1.9.2,2.5.6.7.4,1.2.9,1.5,1.5.3.6.5,1.4.5,2.2s-.2,1.5-.5,2.2c-.3.6-.8,1.1-1.5,1.5-.7.4-1.5.6-2.5.6h-3.2v-1.7h3c.6,0,1.2-.1,1.6-.3.4-.2.7-.5.9-.9.2-.4.3-.8.3-1.3s0-.9-.3-1.3c-.2-.4-.5-.7-.9-.9-.4-.2-.9-.3-1.6-.3h-2.5v11.4h-2ZM296.8,195.9c-1,0-1.8-.2-2.5-.6-.7-.4-1.2-1-1.6-1.8-.4-.8-.6-1.6-.6-2.7s.2-1.9.6-2.7c.4-.8.9-1.4,1.6-1.8.7-.4,1.5-.6,2.4-.6s1.1,0,1.6.3c.5.2,1,.5,1.4.9.4.4.7.9,1,1.5.2.6.4,1.4.4,2.3v.7h-7.8v-1.4h5.9c0-.5-.1-.9-.3-1.3-.2-.4-.5-.7-.9-.9-.4-.2-.8-.3-1.3-.3s-1,.1-1.4.4c-.4.3-.7.6-.9,1-.2.4-.3.9-.3,1.4v1.1c0,.7.1,1.2.3,1.7.2.5.6.8,1,1.1.4.2.9.4,1.5.4s.7,0,1-.2c.3-.1.6-.3.8-.5.2-.2.4-.5.5-.8l1.8.3c-.1.5-.4,1-.8,1.4-.4.4-.8.7-1.4.9-.6.2-1.2.3-1.9.3ZM303.2,195.7v-9.8h1.8v1.6h.1c.2-.5.5-.9.9-1.2.5-.3,1-.5,1.5-.5s.3,0,.4,0c.2,0,.3,0,.4,0v1.8c0,0-.2,0-.4,0-.2,0-.4,0-.6,0-.5,0-.9,0-1.2.3-.4.2-.6.4-.8.8-.2.3-.3.7-.3,1.1v6h-1.9ZM310.1,195.7v-9.8h1.8v1.6h.1c.2-.5.5-1,1-1.3.5-.3,1-.5,1.7-.5s1.2.2,1.6.5c.4.3.8.7,1,1.3h.1c.2-.5.6-.9,1.1-1.3.5-.3,1.1-.5,1.8-.5s1.6.3,2.2.8c.6.6.9,1.4.9,2.5v6.6h-1.9v-6.4c0-.7-.2-1.1-.5-1.4-.4-.3-.8-.4-1.3-.4s-1.1.2-1.5.6c-.3.4-.5.9-.5,1.5v6.3h-1.9v-6.5c0-.5-.2-1-.5-1.3-.3-.3-.8-.5-1.3-.5s-.7,0-1,.3c-.3.2-.5.4-.7.8-.2.3-.3.7-.3,1.2v6.1h-1.9ZM326,195.7v-9.8h1.9v9.8h-1.9ZM326.9,184.4c-.3,0-.6-.1-.9-.3-.2-.2-.4-.5-.4-.8s.1-.6.4-.8c.2-.2.5-.3.9-.3s.6.1.9.3c.2.2.4.5.4.8s-.1.6-.4.8c-.2.2-.5.3-.9.3ZM335,185.9v1.5h-5.4v-1.5h5.4ZM331.1,183.5h1.9v9.3c0,.4,0,.6.2.8.1.2.3.3.4.4.2,0,.4,0,.6,0s.3,0,.4,0c.1,0,.2,0,.3,0l.3,1.6c-.1,0-.3,0-.5.1-.2,0-.5,0-.8,0-.5,0-1,0-1.4-.3-.4-.2-.8-.5-1.1-.9-.3-.4-.4-.9-.4-1.5v-9.7Z"/>
  <path class="st11" d="M281.4,195.7v-13.1h4.7c1,0,1.9.2,2.5.6.7.4,1.2.9,1.5,1.5.3.6.5,1.4.5,2.2s-.2,1.5-.5,2.2c-.3.6-.8,1.1-1.5,1.5-.7.4-1.5.6-2.5.6h-3.2v-1.7h3c.6,0,1.2-.1,1.6-.3.4-.2.7-.5.9-.9.2-.4.3-.8.3-1.3s0-.9-.3-1.3c-.2-.4-.5-.7-.9-.9-.4-.2-.9-.3-1.6-.3h-2.5v11.4h-2ZM296.8,195.9c-1,0-1.8-.2-2.5-.6-.7-.4-1.2-1-1.6-1.8-.4-.8-.6-1.6-.6-2.7s.2-1.9.6-2.7c.4-.8.9-1.4,1.6-1.8.7-.4,1.5-.6,2.4-.6s1.1,0,1.6.3c.5.2,1,.5,1.4.9.4.4.7.9,1,1.5.2.6.4,1.4.4,2.3v.7h-7.8v-1.4h5.9c0-.5-.1-.9-.3-1.3-.2-.4-.5-.7-.9-.9-.4-.2-.8-.3-1.3-.3s-1,.1-1.4.4c-.4.3-.7.6-.9,1-.2.4-.3.9-.3,1.4v1.1c0,.7.1,1.2.3,1.7.2.5.6.8,1,1.1.4.2.9.4,1.5.4s.7,0,1-.2c.3-.1.6-.3.8-.5.2-.2.4-.5.5-.8l1.8.3c-.1.5-.4,1-.8,1.4-.4.4-.8.7-1.4.9-.6.2-1.2.3-1.9.3ZM303.2,195.7v-9.8h1.8v1.6h.1c.2-.5.5-.9.9-1.2.5-.3,1-.5,1.5-.5s.3,0,.4,0c.2,0,.3,0,.4,0v1.8c0,0-.2,0-.4,0-.2,0-.4,0-.6,0-.5,0-.9,0-1.2.3-.4.2-.6.4-.8.8-.2.3-.3.7-.3,1.1v6h-1.9ZM310.1,195.7v-9.8h1.8v1.6h.1c.2-.5.5-1,1-1.3.5-.3,1-.5,1.7-.5s1.2.2,1.6.5c.4.3.8.7,1,1.3h.1c.2-.5.6-.9,1.1-1.3.5-.3,1.1-.5,1.8-.5s1.6.3,2.2.8c.6.6.9,1.4.9,2.5v6.6h-1.9v-6.4c0-.7-.2-1.1-.5-1.4-.4-.3-.8-.4-1.3-.4s-1.1.2-1.5.6c-.3.4-.5.9-.5,1.5v6.3h-1.9v-6.5c0-.5-.2-1-.5-1.3-.3-.3-.8-.5-1.3-.5s-.7,0-1,.3c-.3.2-.5.4-.7.8-.2.3-.3.7-.3,1.2v6.1h-1.9ZM326,195.7v-9.8h1.9v9.8h-1.9ZM326.9,184.4c-.3,0-.6-.1-.9-.3-.2-.2-.4-.5-.4-.8s.1-.6.4-.8c.2-.2.5-.3.9-.3s.6.1.9.3c.2.2.4.5.4.8s-.1.6-.4.8c-.2.2-.5.3-.9.3ZM335,185.9v1.5h-5.4v-1.5h5.4ZM331.1,183.5h1.9v9.3c0,.4,0,.6.2.8.1.2.3.3.4.4.2,0,.4,0,.6,0s.3,0,.4,0c.1,0,.2,0,.3,0l.3,1.6c-.1,0-.3,0-.5.1-.2,0-.5,0-.8,0-.5,0-1,0-1.4-.3-.4-.2-.8-.5-1.1-.9-.3-.4-.4-.9-.4-1.5v-9.7Z"/>
  <path d="M267.4,622.6h-2c0-.4-.2-.8-.4-1.1-.2-.3-.5-.6-.8-.8-.3-.2-.6-.4-1-.5-.4-.1-.8-.2-1.2-.2-.8,0-1.4.2-2,.6-.6.4-1.1.9-1.4,1.7-.3.7-.5,1.6-.5,2.7s.2,2,.5,2.7c.3.7.8,1.3,1.4,1.7.6.4,1.3.6,2,.6s.8,0,1.2-.2c.4-.1.7-.3,1-.5.3-.2.6-.5.8-.8.2-.3.4-.7.4-1.1h2c-.1.6-.3,1.2-.6,1.8-.3.5-.7,1-1.2,1.4-.5.4-1,.7-1.6.9-.6.2-1.3.3-2,.3-1.1,0-2.1-.3-3-.8-.9-.5-1.6-1.3-2.1-2.3-.5-1-.8-2.2-.8-3.6s.3-2.6.8-3.6c.5-1,1.2-1.8,2.1-2.3.9-.5,1.9-.8,3-.8s1.3,0,1.9.3c.6.2,1.1.5,1.6.9.5.4.9.8,1.2,1.4.3.5.5,1.2.6,1.9ZM273.7,631.7c-.9,0-1.7-.2-2.4-.6-.7-.4-1.2-1-1.6-1.8-.4-.8-.6-1.6-.6-2.7s.2-1.9.6-2.7c.4-.8.9-1.4,1.6-1.8.7-.4,1.5-.6,2.4-.6s1.7.2,2.4.6c.7.4,1.2,1,1.6,1.8.4.8.6,1.7.6,2.7s-.2,1.9-.6,2.7c-.4.8-.9,1.3-1.6,1.8s-1.5.6-2.4.6ZM273.8,630.1c.6,0,1.1-.2,1.5-.5.4-.3.7-.7.9-1.3.2-.5.3-1.1.3-1.7s0-1.2-.3-1.7c-.2-.5-.5-1-.9-1.3s-.9-.5-1.5-.5-1.1.2-1.5.5c-.4.3-.7.7-.9,1.3-.2.5-.3,1.1-.3,1.7s0,1.2.3,1.7c.2.5.5.9.9,1.3.4.3.9.5,1.5.5ZM280.5,631.5v-9.8h1.8v1.6h.1c.2-.5.5-1,1-1.3.5-.3,1-.5,1.7-.5s1.2.2,1.6.5c.4.3.8.7,1,1.3h.1c.2-.5.6-.9,1.1-1.3.5-.3,1.1-.5,1.8-.5s1.6.3,2.2.8c.6.6.9,1.4.9,2.5v6.6h-1.9v-6.4c0-.7-.2-1.1-.5-1.4-.4-.3-.8-.4-1.3-.4s-1.1.2-1.5.6c-.3.4-.5.9-.5,1.5v6.3h-1.9v-6.5c0-.5-.2-1-.5-1.3-.3-.3-.8-.5-1.3-.5s-.7,0-1,.3c-.3.2-.5.5-.7.8-.2.3-.3.7-.3,1.2v6.1h-1.9ZM296.4,635.2v-13.5h1.9v1.6h.2c.1-.2.3-.4.5-.7.2-.3.5-.5.9-.7.4-.2.9-.3,1.5-.3s1.5.2,2.1.6c.6.4,1.1,1,1.5,1.7.4.8.5,1.7.5,2.7s-.2,2-.5,2.7c-.4.8-.8,1.3-1.5,1.7-.6.4-1.3.6-2.1.6s-1.1,0-1.5-.3c-.4-.2-.7-.4-.9-.7-.2-.3-.4-.5-.5-.7h-.1v5.2h-1.9ZM298.2,626.6c0,.7.1,1.3.3,1.8.2.5.5.9.9,1.2.4.3.8.4,1.4.4s1-.2,1.4-.5c.4-.3.7-.7.9-1.2.2-.5.3-1.1.3-1.8s0-1.2-.3-1.7c-.2-.5-.5-.9-.9-1.2-.4-.3-.9-.4-1.4-.4s-1,.1-1.4.4c-.4.3-.7.7-.9,1.2-.2.5-.3,1.1-.3,1.8ZM309.4,618.4v13.1h-1.9v-13.1h1.9ZM316.2,631.7c-1,0-1.8-.2-2.5-.6-.7-.4-1.2-1-1.6-1.8-.4-.8-.6-1.6-.6-2.7s.2-1.9.6-2.7c.4-.8.9-1.4,1.6-1.8.7-.4,1.5-.6,2.4-.6s1.1,0,1.6.3c.5.2,1,.5,1.4.9.4.4.7.9,1,1.5.2.6.4,1.4.4,2.3v.7h-7.8v-1.4h5.9c0-.5-.1-.9-.3-1.3-.2-.4-.5-.7-.9-.9-.4-.2-.8-.3-1.3-.3s-1,.1-1.4.4c-.4.3-.7.6-.9,1-.2.4-.3.9-.3,1.4v1.1c0,.7.1,1.2.3,1.7.2.5.6.8,1,1.1.4.2.9.4,1.5.4s.7,0,1-.2c.3-.1.6-.3.8-.5.2-.2.4-.5.5-.8l1.8.3c-.1.5-.4,1-.8,1.4-.4.4-.8.7-1.4.9-.6.2-1.2.3-1.9.3ZM327.1,621.7v1.5h-5.4v-1.5h5.4ZM323.2,619.3h1.9v9.3c0,.4,0,.6.2.8.1.2.3.3.4.4.2,0,.4,0,.6,0s.3,0,.4,0c.1,0,.2,0,.3,0l.3,1.6c-.1,0-.3,0-.5.1-.2,0-.5,0-.8,0-.5,0-1,0-1.4-.3-.4-.2-.8-.5-1.1-.9-.3-.4-.4-.9-.4-1.5v-9.7ZM329.2,631.5v-9.8h1.9v9.8h-1.9ZM330.2,620.1c-.3,0-.6-.1-.9-.3-.2-.2-.4-.5-.4-.8s.1-.6.4-.8c.2-.2.5-.3.9-.3s.6.1.9.3c.2.2.4.5.4.8s-.1.6-.4.8c-.2.2-.5.3-.9.3ZM337.8,631.7c-.9,0-1.7-.2-2.4-.6-.7-.4-1.2-1-1.6-1.8-.4-.8-.6-1.6-.6-2.7s.2-1.9.6-2.7c.4-.8.9-1.4,1.6-1.8.7-.4,1.5-.6,2.4-.6s1.7.2,2.4.6c.7.4,1.2,1,1.6,1.8.4.8.6,1.7.6,2.7s-.2,1.9-.6,2.7c-.4.8-.9,1.3-1.6,1.8-.7.4-1.5.6-2.4.6ZM337.8,630.1c.6,0,1.1-.2,1.5-.5.4-.3.7-.7.9-1.3.2-.5.3-1.1.3-1.7s0-1.2-.3-1.7c-.2-.5-.5-1-.9-1.3s-.9-.5-1.5-.5-1.1.2-1.5.5c-.4.3-.7.7-.9,1.3-.2.5-.3,1.1-.3,1.7s0,1.2.3,1.7c.2.5.5.9.9,1.3.4.3.9.5,1.5.5ZM346.5,625.6v5.8h-1.9v-9.8h1.8v1.6h.1c.2-.5.6-.9,1.1-1.3.5-.3,1.1-.5,1.8-.5s1.3.1,1.8.4c.5.3.9.7,1.2,1.2.3.5.4,1.2.4,2v6.2h-1.9v-6c0-.7-.2-1.3-.6-1.7-.4-.4-.9-.6-1.5-.6s-.8,0-1.2.3c-.3.2-.6.5-.8.8-.2.4-.3.8-.3,1.3Z"/>
  <path class="st11" d="M267.4,622.6h-2c0-.4-.2-.8-.4-1.1-.2-.3-.5-.6-.8-.8-.3-.2-.6-.4-1-.5-.4-.1-.8-.2-1.2-.2-.8,0-1.4.2-2,.6-.6.4-1.1.9-1.4,1.7-.3.7-.5,1.6-.5,2.7s.2,2,.5,2.7c.3.7.8,1.3,1.4,1.7.6.4,1.3.6,2,.6s.8,0,1.2-.2c.4-.1.7-.3,1-.5.3-.2.6-.5.8-.8.2-.3.4-.7.4-1.1h2c-.1.6-.3,1.2-.6,1.8-.3.5-.7,1-1.2,1.4-.5.4-1,.7-1.6.9-.6.2-1.3.3-2,.3-1.1,0-2.1-.3-3-.8-.9-.5-1.6-1.3-2.1-2.3-.5-1-.8-2.2-.8-3.6s.3-2.6.8-3.6c.5-1,1.2-1.8,2.1-2.3.9-.5,1.9-.8,3-.8s1.3,0,1.9.3c.6.2,1.1.5,1.6.9.5.4.9.8,1.2,1.4.3.5.5,1.2.6,1.9ZM273.7,631.7c-.9,0-1.7-.2-2.4-.6-.7-.4-1.2-1-1.6-1.8-.4-.8-.6-1.6-.6-2.7s.2-1.9.6-2.7c.4-.8.9-1.4,1.6-1.8.7-.4,1.5-.6,2.4-.6s1.7.2,2.4.6c.7.4,1.2,1,1.6,1.8.4.8.6,1.7.6,2.7s-.2,1.9-.6,2.7c-.4.8-.9,1.3-1.6,1.8s-1.5.6-2.4.6ZM273.8,630.1c.6,0,1.1-.2,1.5-.5.4-.3.7-.7.9-1.3.2-.5.3-1.1.3-1.7s0-1.2-.3-1.7c-.2-.5-.5-1-.9-1.3s-.9-.5-1.5-.5-1.1.2-1.5.5c-.4.3-.7.7-.9,1.3-.2.5-.3,1.1-.3,1.7s0,1.2.3,1.7c.2.5.5.9.9,1.3.4.3.9.5,1.5.5ZM280.5,631.5v-9.8h1.8v1.6h.1c.2-.5.5-1,1-1.3.5-.3,1-.5,1.7-.5s1.2.2,1.6.5c.4.3.8.7,1,1.3h.1c.2-.5.6-.9,1.1-1.3.5-.3,1.1-.5,1.8-.5s1.6.3,2.2.8c.6.6.9,1.4.9,2.5v6.6h-1.9v-6.4c0-.7-.2-1.1-.5-1.4-.4-.3-.8-.4-1.3-.4s-1.1.2-1.5.6c-.3.4-.5.9-.5,1.5v6.3h-1.9v-6.5c0-.5-.2-1-.5-1.3-.3-.3-.8-.5-1.3-.5s-.7,0-1,.3c-.3.2-.5.5-.7.8-.2.3-.3.7-.3,1.2v6.1h-1.9ZM296.4,635.2v-13.5h1.9v1.6h.2c.1-.2.3-.4.5-.7.2-.3.5-.5.9-.7.4-.2.9-.3,1.5-.3s1.5.2,2.1.6c.6.4,1.1,1,1.5,1.7.4.8.5,1.7.5,2.7s-.2,2-.5,2.7c-.4.8-.8,1.3-1.5,1.7-.6.4-1.3.6-2.1.6s-1.1,0-1.5-.3c-.4-.2-.7-.4-.9-.7-.2-.3-.4-.5-.5-.7h-.1v5.2h-1.9ZM298.2,626.6c0,.7.1,1.3.3,1.8.2.5.5.9.9,1.2.4.3.8.4,1.4.4s1-.2,1.4-.5c.4-.3.7-.7.9-1.2.2-.5.3-1.1.3-1.8s0-1.2-.3-1.7c-.2-.5-.5-.9-.9-1.2-.4-.3-.9-.4-1.4-.4s-1,.1-1.4.4c-.4.3-.7.7-.9,1.2-.2.5-.3,1.1-.3,1.8ZM309.4,618.4v13.1h-1.9v-13.1h1.9ZM316.2,631.7c-1,0-1.8-.2-2.5-.6-.7-.4-1.2-1-1.6-1.8-.4-.8-.6-1.6-.6-2.7s.2-1.9.6-2.7c.4-.8.9-1.4,1.6-1.8.7-.4,1.5-.6,2.4-.6s1.1,0,1.6.3c.5.2,1,.5,1.4.9.4.4.7.9,1,1.5.2.6.4,1.4.4,2.3v.7h-7.8v-1.4h5.9c0-.5-.1-.9-.3-1.3-.2-.4-.5-.7-.9-.9-.4-.2-.8-.3-1.3-.3s-1,.1-1.4.4c-.4.3-.7.6-.9,1-.2.4-.3.9-.3,1.4v1.1c0,.7.1,1.2.3,1.7.2.5.6.8,1,1.1.4.2.9.4,1.5.4s.7,0,1-.2c.3-.1.6-.3.8-.5.2-.2.4-.5.5-.8l1.8.3c-.1.5-.4,1-.8,1.4-.4.4-.8.7-1.4.9-.6.2-1.2.3-1.9.3ZM327.1,621.7v1.5h-5.4v-1.5h5.4ZM323.2,619.3h1.9v9.3c0,.4,0,.6.2.8.1.2.3.3.4.4.2,0,.4,0,.6,0s.3,0,.4,0c.1,0,.2,0,.3,0l.3,1.6c-.1,0-.3,0-.5.1-.2,0-.5,0-.8,0-.5,0-1,0-1.4-.3-.4-.2-.8-.5-1.1-.9-.3-.4-.4-.9-.4-1.5v-9.7ZM329.2,631.5v-9.8h1.9v9.8h-1.9ZM330.2,620.1c-.3,0-.6-.1-.9-.3-.2-.2-.4-.5-.4-.8s.1-.6.4-.8c.2-.2.5-.3.9-.3s.6.1.9.3c.2.2.4.5.4.8s-.1.6-.4.8c-.2.2-.5.3-.9.3ZM337.8,631.7c-.9,0-1.7-.2-2.4-.6-.7-.4-1.2-1-1.6-1.8-.4-.8-.6-1.6-.6-2.7s.2-1.9.6-2.7c.4-.8.9-1.4,1.6-1.8.7-.4,1.5-.6,2.4-.6s1.7.2,2.4.6c.7.4,1.2,1,1.6,1.8.4.8.6,1.7.6,2.7s-.2,1.9-.6,2.7c-.4.8-.9,1.3-1.6,1.8-.7.4-1.5.6-2.4.6ZM337.8,630.1c.6,0,1.1-.2,1.5-.5.4-.3.7-.7.9-1.3.2-.5.3-1.1.3-1.7s0-1.2-.3-1.7c-.2-.5-.5-1-.9-1.3s-.9-.5-1.5-.5-1.1.2-1.5.5c-.4.3-.7.7-.9,1.3-.2.5-.3,1.1-.3,1.7s0,1.2.3,1.7c.2.5.5.9.9,1.3.4.3.9.5,1.5.5ZM346.5,625.6v5.8h-1.9v-9.8h1.8v1.6h.1c.2-.5.6-.9,1.1-1.3.5-.3,1.1-.5,1.8-.5s1.3.1,1.8.4c.5.3.9.7,1.2,1.2.3.5.4,1.2.4,2v6.2h-1.9v-6c0-.7-.2-1.3-.6-1.7-.4-.4-.9-.6-1.5-.6s-.8,0-1.2.3c-.3.2-.6.5-.8.8-.2.4-.3.8-.3,1.3Z"/>
</svg>