<svg width="421" height="442" viewBox="0 0 421 442" fill="none" xmlns="http://www.w3.org/2000/svg">
<path d="M217.411 330.73L195.621 331.18L227.701 352.41L227.651 416.83H249.791V352.41L217.411 330.73Z" fill="#B7AB65" stroke="#101727" stroke-miterlimit="10"/>
<path d="M282.371 66.6211C309.451 80.8411 332.061 102.441 347.521 128.731" stroke="#101727" stroke-miterlimit="10"/>
<path d="M350.971 134.89L342.531 128.24L347.231 128.29L349.601 124.23L350.971 134.89Z" fill="#101727"/>
<path d="M61.8711 135.03C76.2011 107.98 97.9011 85.4403 124.291 70.0703" stroke="#101727" stroke-miterlimit="10"/>
<path d="M130.461 66.6484L123.771 75.0684L123.841 70.3684L119.801 67.9784L130.461 66.6484Z" fill="#101727"/>
<path d="M288.551 352.809C314.931 337.469 336.621 314.959 350.961 287.949" stroke="#101727" stroke-miterlimit="10"/>
<path d="M282.371 356.23L293.041 354.91L288.991 352.52L289.071 347.82L282.371 356.23Z" fill="#101727"/>
<path d="M65.3086 293.98C80.7586 320.32 103.369 341.95 130.469 356.19" stroke="#101727" stroke-miterlimit="10"/>
<path d="M61.8711 287.809L63.2211 298.469L65.6011 294.419L70.3011 294.469L61.8711 287.809Z" fill="#101727"/>
<path d="M194.889 330.691L227.699 352.411L227.649 416.831L163.059 416.821V352.401L194.889 330.691Z" fill="#E9BE51"/>
<path d="M194.889 330.691L227.699 352.411L227.649 416.831L163.059 416.821V352.401L194.889 330.691Z" fill="#E9BE51"/>
<path d="M194.889 330.691L227.699 352.411L227.649 416.831L163.059 416.821V352.401L194.889 330.691Z" fill="#E9BE51"/>
<path d="M194.889 330.691L227.699 352.411L227.649 416.831L163.059 416.821V352.401L194.889 330.691Z" fill="#E9BE51"/>
<path d="M194.889 330.691L227.699 352.411L227.649 416.831L163.059 416.821V352.401L194.889 330.691Z" fill="#E9BE51"/>
<path d="M194.889 330.691L227.699 352.411L227.649 416.831L163.059 416.821V352.401L194.889 330.691Z" fill="#E9BE51"/>
<path d="M194.889 330.691L227.699 352.411L227.649 416.831L163.059 416.821V352.401L194.889 330.691Z" fill="#E9BE51"/>
<path d="M194.889 330.691L227.699 352.411L227.649 416.831L163.059 416.821V352.401L194.889 330.691Z" fill="#E9BE51"/>
<path d="M194.889 330.691L227.699 352.411L227.649 416.831L163.059 416.821V352.401L194.889 330.691Z" stroke="#101727" stroke-miterlimit="10"/>
<path d="M194.889 330.691L227.699 352.411L227.649 416.831L163.059 416.821V352.401L194.889 330.691Z" stroke="#101727" stroke-miterlimit="10"/>
<path d="M194.889 330.691L227.699 352.411L227.649 416.831L163.059 416.821V352.401L194.889 330.691Z" stroke="#101727" stroke-miterlimit="10"/>
<path d="M194.889 330.691L227.699 352.411L227.649 416.831L163.059 416.821V352.401L194.889 330.691Z" stroke="#101727" stroke-miterlimit="10"/>
<path d="M194.889 330.691L227.699 352.411L227.649 416.831L163.059 416.821V352.401L194.889 330.691Z" stroke="#101727" stroke-miterlimit="10"/>
<path d="M194.889 330.691L227.699 352.411L227.649 416.831L163.059 416.821V352.401L194.889 330.691Z" stroke="#101727" stroke-miterlimit="10"/>
<path d="M194.889 330.691L227.699 352.411L227.649 416.831L163.059 416.821V352.401L194.889 330.691Z" stroke="#101727" stroke-miterlimit="10"/>
<path d="M194.889 330.691L227.699 352.411L227.649 416.831L163.059 416.821V352.401L194.889 330.691Z" stroke="#101727" stroke-miterlimit="10"/>
<path d="M249.751 352.371L217.361 330.701L194.891 330.691L226.961 351.921L227.701 352.451L227.651 416.831H249.791V352.411L249.751 352.371Z" stroke="#101727" stroke-linejoin="bevel"/>
<path d="M242.85 361.969H236.5V367.979H242.85V361.969Z" fill="#E9BE51"/>
<path d="M190.479 361.969H184.129V367.979H190.479V361.969Z" fill="#01654D" stroke="#01654D" stroke-miterlimit="10"/>
<path d="M180.909 361.969H174.559V367.979H180.909V361.969Z" fill="#01654D" stroke="#01654D" stroke-miterlimit="10"/>
<path d="M216.202 361.969H209.852V367.979H216.202V361.969Z" fill="#01654D" stroke="#01654D" stroke-miterlimit="10"/>
<path d="M206.631 361.969H200.281V367.979H206.631V361.969Z" fill="#01654D" stroke="#01654D" stroke-miterlimit="10"/>
<path d="M190.479 376.371H184.129V382.381H190.479V376.371Z" fill="#01654D" stroke="#01654D" stroke-miterlimit="10"/>
<path d="M180.909 376.371H174.559V382.381H180.909V376.371Z" fill="#01654D" stroke="#01654D" stroke-miterlimit="10"/>
<path d="M216.202 376.371H209.852V382.381H216.202V376.371Z" fill="#01654D" stroke="#01654D" stroke-miterlimit="10"/>
<path d="M206.631 376.371H200.281V382.381H206.631V376.371Z" fill="#01654D" stroke="#01654D" stroke-miterlimit="10"/>
<path d="M190.479 390.77H184.129V396.78H190.479V390.77Z" fill="#01654D" stroke="#01654D" stroke-miterlimit="10"/>
<path d="M180.909 390.77H174.559V396.78H180.909V390.77Z" fill="#01654D" stroke="#01654D" stroke-miterlimit="10"/>
<path d="M216.202 390.77H209.852V396.78H216.202V390.77Z" fill="#01654D" stroke="#01654D" stroke-miterlimit="10"/>
<path d="M206.631 390.77H200.281V396.78H206.631V390.77Z" fill="#01654D" stroke="#01654D" stroke-miterlimit="10"/>
<path d="M242.85 376.371H236.5V382.381H242.85V376.371Z" fill="#E9BE51"/>
<path d="M242.85 390.77H236.5V396.78H242.85V390.77Z" fill="#E9BE51"/>
<path d="M199.471 402.898H191.281V416.858H199.471V402.898Z" fill="#01654D" stroke="#01654D" stroke-miterlimit="10"/>
<path d="M249.632 13.4414H163.602V117.941H249.632V13.4414Z" fill="#01654D" stroke="#01654D" stroke-miterlimit="10"/>
<path d="M238.728 19.7725L166.316 26.5664L174.5 113.793L246.912 106.999L238.728 19.7725Z" fill="#DDD2BA" stroke="#101727" stroke-miterlimit="10"/>
<path d="M242.63 21.1484H170.25V108.758H242.63V21.1484Z" fill="#EAE2CF" stroke="#101727" stroke-miterlimit="10"/>
<path d="M215.539 8.69C215.229 4.12 210.509 0.5 206.789 0.5C202.139 0.5 198.349 4.12 198.039 8.69H183.129V26.37H230.449V8.69H215.539ZM206.789 12.55C204.909 12.55 203.389 11.03 203.389 9.15C203.389 7.27 204.909 5.75 206.789 5.75C208.669 5.75 210.189 7.27 210.189 9.15C210.189 11.03 208.669 12.55 206.789 12.55Z" fill="#E9BE51" stroke="#101727" stroke-miterlimit="10"/>
<path d="M174.621 44.6094H238.961" stroke="#101727" stroke-miterlimit="10"/>
<path d="M174.621 53.6289H238.961" stroke="#101727" stroke-miterlimit="10"/>
<path d="M174.621 62.6484H238.961" stroke="#101727" stroke-miterlimit="10"/>
<path d="M174.621 71.668H238.961" stroke="#101727" stroke-miterlimit="10"/>
<path d="M174.621 80.6914H238.961" stroke="#101727" stroke-miterlimit="10"/>
<path d="M238.961 89.7508H174.621V103.621H238.961C238.961 103.621 238.961 88.8008 238.961 89.7508Z" stroke="#101727" stroke-miterlimit="10"/>
<path d="M177.648 36.9286C178.348 37.0586 178.778 37.4986 178.778 38.1786C178.778 38.9586 178.108 39.5686 177.098 39.5686H174.828V34.5586H176.978C177.748 34.5586 178.368 35.0686 178.368 35.8286C178.368 36.3286 178.068 36.7386 177.648 36.9286ZM175.748 36.6386H176.738C177.178 36.6386 177.458 36.3386 177.458 35.9486C177.458 35.5586 177.148 35.3086 176.698 35.3086H175.758V36.6386H175.748ZM176.958 38.8286C177.508 38.8286 177.848 38.5186 177.848 38.0886C177.848 37.6586 177.488 37.3686 176.968 37.3686H175.748V38.8286H176.958Z" fill="#B7AB65"/>
<path d="M182.98 34.5586H183.91V37.5986C183.91 38.8486 183.01 39.6786 181.75 39.6786C180.49 39.6786 179.59 38.8586 179.59 37.5986V34.5586H180.52V37.6186C180.52 38.4086 181.03 38.8586 181.75 38.8586C182.47 38.8586 182.98 38.4186 182.98 37.6186V34.5586Z" fill="#B7AB65"/>
<path d="M185.051 34.5586H185.981V39.5686H185.051V34.5586Z" fill="#B7AB65"/>
<path d="M187.148 34.5586H188.078V38.7486H190.358V39.5686H187.148V34.5586Z" fill="#B7AB65"/>
<path d="M191.191 39.5686V34.5586H192.661C194.631 34.5586 195.671 35.7086 195.671 37.0686C195.671 38.4286 194.631 39.5786 192.661 39.5786H191.191V39.5686ZM192.121 38.7886H192.591C193.991 38.7886 194.741 38.1386 194.741 37.0686C194.741 35.9986 193.991 35.3486 192.591 35.3486H192.121V38.7886Z" fill="#B7AB65"/>
<path d="M196.59 34.5586H197.52V39.5686H196.59V34.5586Z" fill="#B7AB65"/>
<path d="M198.691 34.5586H199.471L202.351 38.1186V34.5586H203.261V39.5686H202.481L199.601 36.0186V39.5686H198.691V34.5586Z" fill="#B7AB65"/>
<path d="M208.361 36.1587C208.101 35.6487 207.601 35.2687 206.831 35.2687C205.761 35.2687 205.071 36.0287 205.071 37.0687C205.071 38.1787 205.781 38.8988 206.821 38.8988C207.711 38.8988 208.241 38.4387 208.441 37.8187H206.541V37.0588H209.441C209.441 38.5487 208.421 39.6887 206.831 39.6887C205.241 39.6887 204.141 38.5288 204.141 37.0788C204.141 35.6288 205.211 34.4688 206.831 34.4688C208.021 34.4688 208.911 35.1088 209.281 36.1688H208.361V36.1587Z" fill="#B7AB65"/>
<path d="M213.989 38.1313V39.5413H213.059V34.5312H215.179C216.249 34.5312 216.999 35.3413 216.999 36.3313C216.999 37.3213 216.249 38.1313 215.179 38.1313H213.989ZM215.049 37.3213C215.669 37.3213 216.059 36.8713 216.059 36.3213C216.059 35.7713 215.669 35.3213 215.049 35.3213H213.979V37.3213H215.049Z" fill="#B7AB65"/>
<path d="M217.719 34.5312H221.069V35.3512H218.649V36.6012H221.009V37.4113H218.649V38.7313H221.099V39.5513H217.719V34.5413V34.5312Z" fill="#B7AB65"/>
<path d="M223.69 38.1012H222.93V39.5413H222V34.5312H224.21C225.28 34.5312 226.03 35.3213 226.03 36.3113C226.03 37.1013 225.55 37.7613 224.82 38.0113L226.25 39.5413H225.02L223.7 38.1012H223.69ZM224.07 37.3013C224.69 37.3013 225.08 36.8613 225.08 36.3113C225.08 35.7613 224.69 35.3313 224.07 35.3313H222.92V37.3013H224.07Z" fill="#B7AB65"/>
<path d="M229.66 39.6113L227.88 36.5613V39.5413H227V34.5312H227.65L229.65 38.0813L231.65 34.5312H232.3V39.5413H231.42V36.5613L229.65 39.6113H229.66Z" fill="#B7AB65"/>
<path d="M233.48 34.5312H234.41V39.5413H233.48V34.5312Z" fill="#B7AB65"/>
<path d="M239.18 35.3413H237.67V39.5413H236.74V35.3413H235.23V34.5312H239.18V35.3413Z" fill="#B7AB65"/>
<path d="M23.07 196.058C35.5351 196.058 45.64 185.953 45.64 173.488C45.64 161.023 35.5351 150.918 23.07 150.918C10.6049 150.918 0.5 161.023 0.5 173.488C0.5 185.953 10.6049 196.058 23.07 196.058Z" fill="#E9BE51" stroke="#101727" stroke-miterlimit="10"/>
<path d="M29.1489 165.581L27.7389 167.781C26.5089 166.761 24.8889 166.001 22.8789 166.001C20.8689 166.001 19.2689 166.941 19.2689 169.011C19.2689 170.711 20.3689 171.361 23.6089 172.041C28.2889 173.061 30.0089 174.651 30.0089 177.611C30.0089 181.091 27.3689 183.441 23.1589 183.441C20.3089 183.441 17.9289 182.551 16.1289 180.981L17.6189 178.761C18.9789 180.121 21.1489 180.981 23.2389 180.981C25.6389 180.981 27.3389 179.881 27.3389 177.821C27.3389 176.151 26.0889 175.311 22.8489 174.631C18.1689 173.611 16.5989 171.991 16.5989 169.121C16.5989 165.751 19.1089 163.551 22.8989 163.551C25.4889 163.551 27.6289 164.391 29.1489 165.591V165.581Z" fill="#01654D" stroke="#01654D" stroke-miterlimit="10"/>
<path d="M24.2219 163.619V161.449H21.9219V163.599C22.2419 163.569 22.5619 163.549 22.9019 163.549C23.3519 163.549 23.7919 163.579 24.2219 163.629V163.619Z" fill="#01654D" stroke="#01654D" stroke-miterlimit="10"/>
<path d="M21.9219 183.371V185.531H24.2219V183.381C23.8819 183.411 23.5319 183.431 23.1619 183.431C22.7319 183.431 22.3219 183.411 21.9219 183.371Z" fill="#01654D" stroke="#01654D" stroke-miterlimit="10"/>
<path d="M29.4398 215.379H15.0898V241.789H29.4398V215.379Z" fill="#EAE2CF" stroke="#101727" stroke-miterlimit="10"/>
<path d="M49.3813 206.891H35.0312V241.791H49.3813V206.891Z" fill="#B7AB65" stroke="#101727" stroke-miterlimit="10"/>
<path d="M69.3109 198.391H54.9609V241.791H69.3109V198.391Z" fill="#E9BE51" stroke="#101727" stroke-miterlimit="10"/>
<path d="M89.2406 189.898H74.8906V241.788H89.2406V189.898Z" fill="#01654D" stroke="#101727" stroke-miterlimit="10"/>
<path d="M6.12109 241.84H98.9011" stroke="#101727" stroke-miterlimit="10"/>
<path d="M173.32 232.15L189.63 213.4L218.37 206.89L246.06 193.57" stroke="#101727" stroke-miterlimit="10"/>
<path d="M162.801 180.781V243.051H250.771" stroke="#101727" stroke-miterlimit="10"/>
<path d="M173.322 235.71C175.288 235.71 176.882 234.116 176.882 232.15C176.882 230.184 175.288 228.59 173.322 228.59C171.356 228.59 169.762 230.184 169.762 232.15C169.762 234.116 171.356 235.71 173.322 235.71Z" fill="#B7AB65"/>
<path d="M189.63 216.96C191.596 216.96 193.19 215.366 193.19 213.4C193.19 211.434 191.596 209.84 189.63 209.84C187.664 209.84 186.07 211.434 186.07 213.4C186.07 215.366 187.664 216.96 189.63 216.96Z" fill="#E9BE51"/>
<path d="M218.369 210.448C220.335 210.448 221.929 208.854 221.929 206.888C221.929 204.922 220.335 203.328 218.369 203.328C216.402 203.328 214.809 204.922 214.809 206.888C214.809 208.854 216.402 210.448 218.369 210.448Z" fill="#B7AB65"/>
<path d="M246.06 197.128C248.026 197.128 249.62 195.534 249.62 193.568C249.62 191.602 248.026 190.008 246.06 190.008C244.094 190.008 242.5 191.602 242.5 193.568C242.5 195.534 244.094 197.128 246.06 197.128Z" fill="#01654D" stroke="#01654D" stroke-miterlimit="10"/>
<path d="M308.461 237.319L326.101 237.289" stroke="#101727" stroke-miterlimit="10"/>
<path d="M412.818 177.142L379.998 155.352L357.898 155.362" stroke="#101727" stroke-miterlimit="10"/>
<path d="M308.461 241.461V178.781" stroke="#101727" stroke-miterlimit="10"/>
<path d="M322.09 241.461V178.781" stroke="#101727" stroke-miterlimit="10"/>
<path d="M308.461 182.311L326.101 182.281" stroke="#101727" stroke-miterlimit="10"/>
<path d="M308.461 196.059L326.101 196.039" stroke="#101727" stroke-miterlimit="10"/>
<path d="M322.091 182.328L308.461 196.038" stroke="#101727" stroke-miterlimit="10"/>
<path d="M308.461 182.328L322.091 196.038" stroke="#101727" stroke-miterlimit="10"/>
<path d="M308.461 209.809L326.101 209.789" stroke="#101727" stroke-miterlimit="10"/>
<path d="M322.091 196.078L308.461 209.788" stroke="#101727" stroke-miterlimit="10"/>
<path d="M308.461 196.078L322.091 209.788" stroke="#101727" stroke-miterlimit="10"/>
<path d="M308.461 223.559L326.101 223.539" stroke="#101727" stroke-miterlimit="10"/>
<path d="M322.091 209.84L308.461 223.54" stroke="#101727" stroke-miterlimit="10"/>
<path d="M308.461 209.84L322.091 223.54" stroke="#101727" stroke-miterlimit="10"/>
<path d="M322.091 223.59L308.461 237.29" stroke="#101727" stroke-miterlimit="10"/>
<path d="M308.461 223.59L322.091 237.29" stroke="#101727" stroke-miterlimit="10"/>
<path d="M357.932 155.328L390.742 177.038V241.458H326.102V177.038L357.932 155.328Z" fill="#E9BE51" stroke="#101727" stroke-miterlimit="10"/>
<path d="M390.738 177.038V241.458H412.878V177.038L412.838 177.008L390.738 177.038Z" fill="#B7AB65" stroke="#101727" stroke-miterlimit="10"/>
<path d="M300.121 241.461H420.501" stroke="#101727" stroke-miterlimit="10"/>
<path d="M144.961 416.859H265.341" stroke="#101727" stroke-miterlimit="10"/>
<path d="M286.871 194.539L286.931 194.609" stroke="#101727" stroke-miterlimit="10"/>
<path d="M383.459 293.879L383.199 294.149" stroke="#101727" stroke-miterlimit="10"/>
<path d="M227.699 352.41H249.789" stroke="#101727" stroke-miterlimit="10"/>
<path d="M194.891 330.691L227.701 352.411H249.791L217.411 330.731L194.891 330.691Z" fill="#01654D" stroke="#101727" stroke-linejoin="bevel"/>
<path d="M18.9375 262.59V253.699H24.5036V254.853H20.3118V257.568H24.16V258.721H20.3118V262.59H18.9375ZM28.4205 262.726C27.802 262.726 27.2523 262.59 26.7713 262.318C26.2902 262.047 25.9467 261.64 25.6718 261.097C25.3969 260.554 25.2595 260.011 25.2595 259.264C25.2595 258.518 25.3969 257.975 25.6718 257.432C25.9467 256.889 26.2902 256.482 26.7713 256.21C27.2523 255.939 27.802 255.803 28.4205 255.803C29.0389 255.803 29.5887 255.939 30.0697 256.21C30.5507 256.482 30.8943 256.889 31.1692 257.432C31.444 257.975 31.5815 258.586 31.5815 259.264C31.5815 259.943 31.444 260.554 31.1692 261.097C30.8943 261.64 30.5507 261.979 30.0697 262.318C29.5887 262.59 29.0389 262.726 28.4205 262.726ZM28.4205 261.572C28.8328 261.572 29.1764 261.436 29.4512 261.233C29.7261 261.029 29.9323 260.758 30.0697 260.35C30.2071 260.011 30.2759 259.604 30.2759 259.197C30.2759 258.789 30.2759 258.382 30.0697 258.043C29.9323 257.703 29.7261 257.364 29.4512 257.161C29.1764 256.957 28.8328 256.821 28.4205 256.821C28.0082 256.821 27.6646 256.957 27.3897 257.161C27.1149 257.364 26.9087 257.636 26.7713 258.043C26.6338 258.382 26.5651 258.789 26.5651 259.197C26.5651 259.604 26.5651 260.011 26.7713 260.35C26.9087 260.69 27.1149 260.961 27.3897 261.233C27.6646 261.436 28.0082 261.572 28.4205 261.572ZM33.0245 262.59V255.939H34.2615V257.025H34.3302C34.4676 256.685 34.6738 256.414 34.9486 256.21C35.2922 256.007 35.6358 255.871 35.9794 255.871C36.323 255.871 36.1855 255.871 36.2543 255.871C36.3917 255.871 36.4604 255.871 36.5291 255.871V257.093C36.5291 257.093 36.3917 257.093 36.2543 257.093C36.1168 257.093 35.9794 257.093 35.8419 257.093C35.4984 257.093 35.2235 257.093 35.0173 257.296C34.8112 257.432 34.605 257.568 34.4676 257.839C34.3302 258.043 34.2615 258.314 34.2615 258.586V262.658H32.9558L33.0245 262.59ZM40.446 262.726C39.7588 262.726 39.2091 262.59 38.7281 262.318C38.2471 262.047 37.9035 261.64 37.6286 261.097C37.3537 260.554 37.2163 260.011 37.2163 259.264C37.2163 258.518 37.3537 257.975 37.6286 257.432C37.9035 256.889 38.2471 256.482 38.7281 256.21C39.2091 255.939 39.7588 255.803 40.3773 255.803C40.9957 255.803 41.1332 255.803 41.4768 256.007C41.8204 256.142 42.1639 256.346 42.4388 256.618C42.7137 256.889 42.9198 257.228 43.126 257.636C43.2634 258.043 43.4009 258.586 43.4009 259.197V259.672H38.0409V258.721H42.0952C42.0952 258.382 42.0265 258.111 41.8891 257.839C41.7516 257.568 41.5455 257.364 41.2706 257.228C40.9957 257.093 40.7209 257.025 40.3773 257.025C40.0337 257.025 39.6901 257.093 39.4152 257.296C39.1404 257.5 38.9342 257.703 38.7968 257.975C38.6594 258.246 38.5906 258.586 38.5906 258.925V259.672C38.5906 260.147 38.6594 260.486 38.7968 260.825C38.9342 261.165 39.2091 261.368 39.484 261.572C39.7588 261.708 40.1024 261.843 40.5147 261.843C40.927 261.843 40.9957 261.843 41.2019 261.708C41.408 261.64 41.6142 261.504 41.7516 261.368C41.8891 261.233 42.0265 261.029 42.0952 260.825L43.3321 261.029C43.2634 261.368 43.0573 261.708 42.7824 261.979C42.5075 262.251 42.2327 262.454 41.8204 262.59C41.408 262.726 40.9957 262.794 40.5147 262.794L40.446 262.726ZM47.6613 262.726C46.9741 262.726 46.4244 262.59 45.9434 262.318C45.4624 262.047 45.1188 261.64 44.8439 261.097C44.569 260.554 44.5003 260.011 44.5003 259.332C44.5003 258.654 44.6378 258.043 44.9126 257.568C45.1875 257.025 45.5311 256.618 46.0121 256.346C46.4931 256.075 47.0429 255.939 47.6613 255.939C48.2798 255.939 48.6234 256.007 49.0357 256.21C49.448 256.414 49.7916 256.685 49.9977 256.957C50.2726 257.296 50.41 257.703 50.41 258.111H49.1044C49.0357 257.771 48.8982 257.5 48.6234 257.296C48.3485 257.093 48.0736 256.957 47.5926 256.957C47.1116 256.957 46.9054 257.025 46.6306 257.228C46.3557 257.432 46.1495 257.703 46.0121 258.043C45.8747 258.382 45.806 258.789 45.806 259.264C45.806 259.739 45.8747 260.147 46.0121 260.554C46.1495 260.893 46.3557 261.165 46.6306 261.368C46.9054 261.572 47.249 261.64 47.5926 261.64C47.9362 261.64 48.0736 261.64 48.2798 261.504C48.4859 261.436 48.6234 261.3 48.7608 261.097C48.8982 260.893 48.9669 260.69 49.0357 260.486H50.3413C50.3413 260.893 50.1351 261.3 49.929 261.64C49.7228 261.979 49.3793 262.251 48.967 262.454C48.5546 262.658 48.0736 262.726 47.5926 262.726H47.6613ZM53.7772 262.726C53.3649 262.726 52.9525 262.658 52.609 262.522C52.2654 262.386 51.9905 262.115 51.7844 261.843C51.5782 261.572 51.5095 261.165 51.5095 260.758C51.5095 260.35 51.5782 260.079 51.7156 259.807C51.8531 259.536 52.0592 259.4 52.3341 259.197C52.609 259.061 52.8838 258.925 53.1587 258.857C53.4336 258.789 53.7772 258.721 54.1207 258.721C54.5331 258.721 54.8766 258.654 55.0828 258.586C55.3577 258.586 55.4951 258.518 55.6325 258.45C55.77 258.382 55.77 258.246 55.77 258.111C55.77 257.703 55.6325 257.432 55.4264 257.228C55.2202 257.025 54.8766 256.889 54.4643 256.889C54.052 256.889 53.6397 256.957 53.4336 257.161C53.1587 257.364 53.0213 257.568 52.8838 257.771L51.6469 257.5C51.7844 257.093 51.9905 256.753 52.2654 256.55C52.5402 256.278 52.8838 256.142 53.2274 256.007C53.571 255.871 53.9833 255.803 54.3956 255.803C54.8079 255.803 54.9454 255.803 55.2202 255.871C55.4951 255.871 55.8387 256.075 56.0448 256.21C56.3197 256.346 56.5258 256.618 56.732 256.889C56.8694 257.16 57.0069 257.568 57.0069 258.043V262.454H55.7012V261.572C55.6325 261.708 55.4951 261.911 55.2889 262.047C55.1515 262.183 54.8766 262.318 54.6018 262.454C54.3269 262.59 53.9833 262.59 53.6397 262.59L53.7772 262.726ZM54.052 261.64C54.3956 261.64 54.7392 261.572 55.0141 261.436C55.2889 261.3 55.4951 261.097 55.6325 260.893C55.77 260.69 55.8387 260.418 55.8387 260.147V259.264C55.8387 259.264 55.7012 259.332 55.5638 259.4C55.4264 259.4 55.2889 259.468 55.0828 259.468C54.9454 259.468 54.7392 259.468 54.6018 259.536C54.4643 259.536 54.3269 259.536 54.1895 259.536C53.9146 259.536 53.7084 259.604 53.5023 259.672C53.2961 259.739 53.1587 259.875 53.0213 260.011C52.8838 260.147 52.8151 260.35 52.8151 260.554C52.8151 260.758 52.9526 261.097 53.1587 261.3C53.3649 261.436 53.7084 261.572 54.052 261.572V261.64ZM63.8786 257.5L62.7104 257.703C62.7104 257.568 62.573 257.432 62.5043 257.296C62.3668 257.16 62.2294 257.025 62.0919 256.957C61.9545 256.889 61.6796 256.821 61.4048 256.821C61.1299 256.821 60.7176 256.889 60.4427 257.093C60.1679 257.228 60.0991 257.432 60.0991 257.703C60.0991 257.975 60.1679 258.111 60.374 258.246C60.5115 258.382 60.7863 258.518 61.1986 258.586L62.2981 258.857C62.9166 258.993 63.3976 259.197 63.6725 259.536C63.9473 259.807 64.1535 260.215 64.1535 260.69C64.1535 261.165 64.016 261.436 63.8099 261.776C63.6037 262.115 63.2601 262.318 62.8478 262.522C62.4355 262.726 61.9545 262.794 61.4048 262.794C60.855 262.794 60.0304 262.658 59.5494 262.318C59.0684 261.979 58.7935 261.572 58.6561 260.961L59.893 260.758C59.9617 261.097 60.1679 261.3 60.374 261.504C60.6489 261.64 60.9238 261.776 61.3361 261.776C61.7484 261.776 62.0919 261.708 62.3668 261.504C62.6417 261.3 62.7791 261.097 62.7791 260.825C62.7791 260.554 62.7104 260.418 62.573 260.282C62.4355 260.147 62.1607 260.011 61.8858 259.943L60.7176 259.672C60.0991 259.536 59.6181 259.332 59.3433 258.993C59.0684 258.654 58.8622 258.314 58.8622 257.839C58.8622 257.364 58.9997 257.093 59.2058 256.821C59.412 256.55 59.7556 256.278 60.0991 256.142C60.5115 256.007 60.9238 255.871 61.4735 255.871C62.2294 255.871 62.7791 256.007 63.1914 256.346C63.6037 256.685 63.8786 257.093 64.016 257.568L63.8786 257.5ZM68.6201 255.871V256.889H64.9094V255.871H68.6201ZM65.9401 254.31H67.2457V260.622C67.2457 260.893 67.2457 261.029 67.3832 261.165C67.4519 261.3 67.5893 261.368 67.658 261.436C67.7955 261.436 67.9329 261.436 68.0704 261.436C68.2078 261.436 68.2765 261.436 68.3452 261.436C68.4139 261.436 68.4827 261.436 68.5514 261.436L68.7575 262.522C68.6888 262.522 68.5514 262.522 68.4139 262.59C68.2765 262.59 68.0704 262.59 67.8642 262.59C67.5206 262.59 67.177 262.59 66.9022 262.386C66.6273 262.251 66.3524 262.047 66.1463 261.776C65.9401 261.504 65.8714 261.165 65.8714 260.758V254.174L65.9401 254.31ZM72.9493 262.726C72.2621 262.726 71.7124 262.59 71.2314 262.318C70.7503 262.047 70.4067 261.64 70.1319 261.097C69.857 260.554 69.7196 260.011 69.7196 259.264C69.7196 258.518 69.857 257.975 70.1319 257.432C70.4067 256.889 70.7503 256.482 71.2314 256.21C71.7124 255.939 72.2621 255.803 72.8806 255.803C73.499 255.803 73.6365 255.803 73.98 256.007C74.3236 256.142 74.6672 256.346 74.9421 256.618C75.2169 256.889 75.4231 257.228 75.6293 257.636C75.7667 258.043 75.9041 258.586 75.9041 259.197V259.672H70.5442V258.721H74.5985C74.5985 258.382 74.5298 258.111 74.3923 257.839C74.2549 257.568 74.0488 257.364 73.7739 257.228C73.499 257.093 73.2241 257.025 72.8806 257.025C72.537 257.025 72.1934 257.093 71.9185 257.296C71.6437 257.5 71.4375 257.703 71.3001 257.975C71.1626 258.246 71.0939 258.586 71.0939 258.925V259.672C71.0939 260.147 71.1626 260.486 71.3001 260.825C71.4375 261.165 71.7124 261.368 71.9872 261.572C72.2621 261.708 72.6057 261.843 73.018 261.843C73.4303 261.843 73.499 261.843 73.7052 261.708C73.9113 261.64 74.1175 261.504 74.2549 261.368C74.3923 261.233 74.5298 261.029 74.5985 260.825L75.8354 261.029C75.7667 261.368 75.5605 261.708 75.2857 261.979C75.0108 262.251 74.7359 262.454 74.3236 262.59C73.9113 262.726 73.499 262.794 73.018 262.794L72.9493 262.726ZM79.821 262.658C79.2713 262.658 78.7902 262.522 78.3779 262.251C77.9656 261.979 77.6221 261.572 77.3472 261.097C77.141 260.554 77.0036 259.943 77.0036 259.264C77.0036 258.586 77.141 257.907 77.3472 257.432C77.6221 256.889 77.8969 256.55 78.3779 256.278C78.7902 256.007 79.2713 255.871 79.821 255.871C80.3708 255.871 80.5769 255.939 80.8518 256.075C81.1266 256.21 81.3328 256.346 81.4702 256.55C81.6077 256.753 81.7451 256.889 81.8138 257.025H81.8825V253.699H83.1882V262.59H81.8825V261.572H81.7451C81.6764 261.708 81.5389 261.843 81.4015 262.047C81.2641 262.251 81.0579 262.386 80.7831 262.522C80.5082 262.658 80.1646 262.726 79.7523 262.726L79.821 262.658ZM80.0959 261.572C80.4395 261.572 80.783 261.504 81.0579 261.3C81.3328 261.097 81.5389 260.825 81.6764 260.486C81.8138 260.147 81.8825 259.739 81.8825 259.264C81.8825 258.789 81.8825 258.382 81.6764 258.043C81.5389 257.703 81.3328 257.432 81.0579 257.228C80.783 257.025 80.5082 256.957 80.0959 256.957C79.6836 256.957 79.34 257.025 79.1338 257.228C78.859 257.432 78.6528 257.703 78.5154 258.043C78.3779 258.382 78.3092 258.789 78.3092 259.197C78.3092 259.604 78.3092 260.011 78.5154 260.418C78.6528 260.758 78.859 261.029 79.1338 261.233C79.4087 261.436 79.7523 261.572 80.0959 261.572ZM30.482 269.445H29.1077C29.1077 269.173 28.9702 268.902 28.8328 268.698C28.6954 268.495 28.4892 268.291 28.283 268.155C28.0769 268.019 27.8707 267.884 27.5959 267.816C27.321 267.748 27.0461 267.68 26.7713 267.68C26.2215 267.68 25.8092 267.816 25.3969 268.087C24.9846 268.359 24.641 268.698 24.4349 269.241C24.2287 269.716 24.0913 270.327 24.0913 271.074C24.0913 271.82 24.2287 272.431 24.4349 272.906C24.641 273.381 24.9846 273.788 25.3969 274.06C25.8092 274.331 26.2902 274.467 26.7713 274.467C27.2523 274.467 27.321 274.467 27.5959 274.331C27.8707 274.263 28.0769 274.128 28.283 273.992C28.4892 273.856 28.6954 273.653 28.8328 273.449C28.9702 273.245 29.1077 272.974 29.1077 272.702H30.482C30.4133 273.11 30.2759 273.517 30.0697 273.924C29.8635 274.263 29.5887 274.603 29.2451 274.874C28.9015 275.146 28.5579 275.349 28.1456 275.485C27.7333 275.621 27.2523 275.689 26.7713 275.689C26.0154 275.689 25.3282 275.485 24.7097 275.146C24.0913 274.806 23.6103 274.263 23.2667 273.585C22.9231 272.906 22.717 272.092 22.717 271.141C22.717 270.191 22.9231 269.377 23.2667 268.698C23.6103 268.019 24.0913 267.476 24.7097 267.137C25.3282 266.798 26.0154 266.594 26.7713 266.594C27.5272 266.594 27.6646 266.662 28.0769 266.798C28.4892 266.934 28.8328 267.137 29.1764 267.409C29.52 267.68 29.7948 267.952 30.001 268.359C30.2071 268.698 30.3446 269.173 30.4133 269.648L30.482 269.445ZM33.9866 275.621C33.5743 275.621 33.162 275.553 32.8184 275.417C32.4748 275.281 32.1999 275.01 31.9938 274.738C31.7876 274.467 31.7189 274.06 31.7189 273.653C31.7189 273.245 31.7876 272.974 31.9251 272.702C32.0625 272.431 32.2687 272.295 32.5435 272.092C32.8184 271.956 33.0933 271.82 33.3681 271.752C33.643 271.684 33.9866 271.616 34.3302 271.616C34.7425 271.616 35.0861 271.549 35.2922 271.481C35.5671 271.481 35.7045 271.413 35.8419 271.345C35.9794 271.277 35.9794 271.141 35.9794 271.006C35.9794 270.598 35.8419 270.327 35.6358 270.123C35.4296 269.92 35.0861 269.784 34.6738 269.784C34.2615 269.784 33.8491 269.852 33.643 270.055C33.3681 270.259 33.2307 270.463 33.0933 270.666L31.8563 270.395C31.9938 269.988 32.1999 269.648 32.4748 269.445C32.7497 269.173 33.0933 269.037 33.4368 268.902C33.7804 268.766 34.1927 268.698 34.605 268.698C35.0173 268.698 35.1548 268.698 35.4296 268.766C35.7045 268.766 36.0481 268.97 36.2543 269.105C36.5291 269.241 36.7353 269.513 36.9414 269.784C37.0789 270.055 37.2163 270.463 37.2163 270.938V275.349H35.9107V274.467C35.842 274.603 35.7045 274.806 35.4984 274.942C35.3609 275.078 35.0861 275.213 34.8112 275.349C34.5363 275.485 34.1927 275.485 33.8491 275.485L33.9866 275.621ZM34.2615 274.535C34.605 274.535 34.9486 274.467 35.2235 274.331C35.4984 274.195 35.7045 273.992 35.8419 273.788C35.9794 273.585 36.0481 273.313 36.0481 273.042V272.159C36.0481 272.159 35.9107 272.227 35.7732 272.295C35.6358 272.295 35.4984 272.363 35.2922 272.363C35.1548 272.363 34.9486 272.363 34.8112 272.431C34.6738 272.431 34.5363 272.431 34.3989 272.431C34.124 272.431 33.9179 272.499 33.7117 272.567C33.5056 272.634 33.3681 272.77 33.2307 272.906C33.0933 273.042 33.0245 273.245 33.0245 273.449C33.0245 273.653 33.162 273.992 33.3681 274.195C33.5743 274.331 33.9179 274.467 34.2615 274.467V274.535ZM44.088 270.395L42.9198 270.598C42.9198 270.463 42.7824 270.327 42.7137 270.191C42.5762 270.055 42.4388 269.92 42.3014 269.852C42.0952 269.784 41.8891 269.716 41.6142 269.716C41.3393 269.716 40.927 269.784 40.6522 269.988C40.3773 270.123 40.3086 270.327 40.3086 270.598C40.3086 270.87 40.3773 271.006 40.5834 271.141C40.7209 271.277 40.9957 271.413 41.4081 271.481L42.5075 271.752C43.126 271.888 43.607 272.092 43.8819 272.431C44.1567 272.702 44.3629 273.11 44.3629 273.585C44.3629 274.06 44.2255 274.331 44.0193 274.671C43.8132 275.01 43.4696 275.213 43.0573 275.417C42.645 275.621 42.1639 275.689 41.6142 275.689C41.0645 275.689 40.2399 275.553 39.7588 275.213C39.2778 274.874 39.0029 274.467 38.8655 273.856L40.1024 273.653C40.1711 273.992 40.3773 274.195 40.5834 274.399C40.8583 274.535 41.1332 274.671 41.5455 274.671C41.9578 274.671 42.3014 274.603 42.5762 274.399C42.8511 274.195 42.9885 273.992 42.9885 273.72C42.9885 273.449 42.9198 273.313 42.7824 273.177C42.645 273.042 42.3701 272.906 42.0952 272.838L40.927 272.567C40.3086 272.431 39.8275 272.227 39.5527 271.888C39.2778 271.549 39.0717 271.209 39.0717 270.734C39.0717 270.259 39.2091 269.988 39.4152 269.716C39.6214 269.445 39.965 269.173 40.3086 269.037C40.7209 268.902 41.1332 268.766 41.6829 268.766C42.4388 268.766 42.9885 268.902 43.4009 269.241C43.8132 269.58 44.088 269.988 44.2255 270.463L44.088 270.395ZM47.0429 271.481V275.417H45.7372V266.526H47.0429V269.852H47.1116C47.249 269.513 47.5239 269.241 47.8675 268.97C48.2111 268.766 48.6234 268.63 49.1731 268.63C49.7228 268.63 50.0664 268.698 50.41 268.902C50.7536 269.105 51.0285 269.377 51.2346 269.716C51.4408 270.055 51.5095 270.531 51.5095 271.074V275.281H50.2039V271.209C50.2039 270.734 50.0664 270.327 49.7916 270.055C49.5167 269.784 49.1731 269.648 48.7608 269.648C48.3485 269.648 48.1423 269.648 47.9362 269.852C47.6613 269.988 47.5239 270.191 47.3865 270.395C47.249 270.666 47.1803 270.938 47.1803 271.277L47.0429 271.481ZM56.5259 275.485V266.594H62.0919V267.748H57.9002V270.463H61.7484V271.616H57.9002V275.485H56.5259ZM64.9781 266.594V275.485H63.6725V266.594H64.9781ZM69.5821 275.621C68.9637 275.621 68.4139 275.485 67.9329 275.213C67.4519 274.942 67.1083 274.535 66.8334 273.992C66.5586 273.449 66.4211 272.906 66.4211 272.159C66.4211 271.413 66.5586 270.87 66.8334 270.327C67.1083 269.784 67.4519 269.377 67.9329 269.105C68.4139 268.834 68.9637 268.698 69.5821 268.698C70.2006 268.698 70.7503 268.834 71.2314 269.105C71.7124 269.377 72.056 269.784 72.3308 270.327C72.6057 270.87 72.7431 271.481 72.7431 272.159C72.7431 272.838 72.6057 273.449 72.3308 273.992C72.056 274.535 71.7124 274.874 71.2314 275.213C70.7503 275.485 70.2006 275.621 69.5821 275.621ZM69.5821 274.467C69.9944 274.467 70.338 274.331 70.6129 274.128C70.8878 273.924 71.0939 273.653 71.2314 273.245C71.3688 272.906 71.4375 272.499 71.4375 272.092C71.4375 271.684 71.4375 271.277 71.2314 270.938C71.0939 270.598 70.8878 270.259 70.6129 270.055C70.338 269.852 69.9944 269.716 69.5821 269.716C69.1698 269.716 68.8262 269.852 68.5514 270.055C68.2765 270.259 68.0704 270.531 67.9329 270.938C67.7955 271.277 67.7268 271.684 67.7268 272.092C67.7268 272.499 67.7268 272.906 67.9329 273.245C68.0704 273.585 68.2765 273.856 68.5514 274.128C68.8262 274.331 69.1698 274.467 69.5821 274.467ZM75.4231 275.485L73.4303 268.834H74.8046L76.1103 273.72L77.4159 268.834H78.7903L80.0959 273.72L81.4015 268.834H82.7758L80.7831 275.485H79.4774L78.1031 270.666H78.0344L76.66 275.485H75.3544H75.4231Z" fill="#101727"/>
<path d="M18.9375 262.59V253.699H24.5036V254.853H20.3118V257.568H24.16V258.721H20.3118V262.59H18.9375ZM28.4205 262.726C27.802 262.726 27.2523 262.59 26.7713 262.318C26.2902 262.047 25.9467 261.64 25.6718 261.097C25.3969 260.554 25.2595 260.011 25.2595 259.264C25.2595 258.518 25.3969 257.975 25.6718 257.432C25.9467 256.889 26.2902 256.482 26.7713 256.21C27.2523 255.939 27.802 255.803 28.4205 255.803C29.0389 255.803 29.5887 255.939 30.0697 256.21C30.5507 256.482 30.8943 256.889 31.1692 257.432C31.444 257.975 31.5815 258.586 31.5815 259.264C31.5815 259.943 31.444 260.554 31.1692 261.097C30.8943 261.64 30.5507 261.979 30.0697 262.318C29.5887 262.59 29.0389 262.726 28.4205 262.726ZM28.4205 261.572C28.8328 261.572 29.1764 261.436 29.4512 261.233C29.7261 261.029 29.9323 260.758 30.0697 260.35C30.2071 260.011 30.2759 259.604 30.2759 259.197C30.2759 258.789 30.2759 258.382 30.0697 258.043C29.9323 257.703 29.7261 257.364 29.4512 257.161C29.1764 256.957 28.8328 256.821 28.4205 256.821C28.0082 256.821 27.6646 256.957 27.3897 257.161C27.1149 257.364 26.9087 257.636 26.7713 258.043C26.6338 258.382 26.5651 258.789 26.5651 259.197C26.5651 259.604 26.5651 260.011 26.7713 260.35C26.9087 260.69 27.1149 260.961 27.3897 261.233C27.6646 261.436 28.0082 261.572 28.4205 261.572ZM33.0245 262.59V255.939H34.2615V257.025H34.3302C34.4676 256.685 34.6738 256.414 34.9486 256.21C35.2922 256.007 35.6358 255.871 35.9794 255.871C36.323 255.871 36.1855 255.871 36.2543 255.871C36.3917 255.871 36.4604 255.871 36.5291 255.871V257.093C36.5291 257.093 36.3917 257.093 36.2543 257.093C36.1168 257.093 35.9794 257.093 35.8419 257.093C35.4984 257.093 35.2235 257.093 35.0173 257.296C34.8112 257.432 34.605 257.568 34.4676 257.839C34.3302 258.043 34.2615 258.314 34.2615 258.586V262.658H32.9558L33.0245 262.59ZM40.446 262.726C39.7588 262.726 39.2091 262.59 38.7281 262.318C38.2471 262.047 37.9035 261.64 37.6286 261.097C37.3537 260.554 37.2163 260.011 37.2163 259.264C37.2163 258.518 37.3537 257.975 37.6286 257.432C37.9035 256.889 38.2471 256.482 38.7281 256.21C39.2091 255.939 39.7588 255.803 40.3773 255.803C40.9957 255.803 41.1332 255.803 41.4768 256.007C41.8204 256.142 42.1639 256.346 42.4388 256.618C42.7137 256.889 42.9198 257.228 43.126 257.636C43.2634 258.043 43.4009 258.586 43.4009 259.197V259.672H38.0409V258.721H42.0952C42.0952 258.382 42.0265 258.111 41.8891 257.839C41.7516 257.568 41.5455 257.364 41.2706 257.228C40.9957 257.093 40.7209 257.025 40.3773 257.025C40.0337 257.025 39.6901 257.093 39.4152 257.296C39.1404 257.5 38.9342 257.703 38.7968 257.975C38.6594 258.246 38.5906 258.586 38.5906 258.925V259.672C38.5906 260.147 38.6594 260.486 38.7968 260.825C38.9342 261.165 39.2091 261.368 39.484 261.572C39.7588 261.708 40.1024 261.843 40.5147 261.843C40.927 261.843 40.9957 261.843 41.2019 261.708C41.408 261.64 41.6142 261.504 41.7516 261.368C41.8891 261.233 42.0265 261.029 42.0952 260.825L43.3321 261.029C43.2634 261.368 43.0573 261.708 42.7824 261.979C42.5075 262.251 42.2327 262.454 41.8204 262.59C41.408 262.726 40.9957 262.794 40.5147 262.794L40.446 262.726ZM47.6613 262.726C46.9741 262.726 46.4244 262.59 45.9434 262.318C45.4624 262.047 45.1188 261.64 44.8439 261.097C44.569 260.554 44.5003 260.011 44.5003 259.332C44.5003 258.654 44.6378 258.043 44.9126 257.568C45.1875 257.025 45.5311 256.618 46.0121 256.346C46.4931 256.075 47.0429 255.939 47.6613 255.939C48.2798 255.939 48.6234 256.007 49.0357 256.21C49.448 256.414 49.7916 256.685 49.9977 256.957C50.2726 257.296 50.41 257.703 50.41 258.111H49.1044C49.0357 257.771 48.8982 257.5 48.6234 257.296C48.3485 257.093 48.0736 256.957 47.5926 256.957C47.1116 256.957 46.9054 257.025 46.6306 257.228C46.3557 257.432 46.1495 257.703 46.0121 258.043C45.8747 258.382 45.806 258.789 45.806 259.264C45.806 259.739 45.8747 260.147 46.0121 260.554C46.1495 260.893 46.3557 261.165 46.6306 261.368C46.9054 261.572 47.249 261.64 47.5926 261.64C47.9362 261.64 48.0736 261.64 48.2798 261.504C48.4859 261.436 48.6234 261.3 48.7608 261.097C48.8982 260.893 48.9669 260.69 49.0357 260.486H50.3413C50.3413 260.893 50.1351 261.3 49.929 261.64C49.7228 261.979 49.3793 262.251 48.967 262.454C48.5546 262.658 48.0736 262.726 47.5926 262.726H47.6613ZM53.7772 262.726C53.3649 262.726 52.9525 262.658 52.609 262.522C52.2654 262.386 51.9905 262.115 51.7844 261.843C51.5782 261.572 51.5095 261.165 51.5095 260.758C51.5095 260.35 51.5782 260.079 51.7156 259.807C51.8531 259.536 52.0592 259.4 52.3341 259.197C52.609 259.061 52.8838 258.925 53.1587 258.857C53.4336 258.789 53.7772 258.721 54.1207 258.721C54.5331 258.721 54.8766 258.654 55.0828 258.586C55.3577 258.586 55.4951 258.518 55.6325 258.45C55.77 258.382 55.77 258.246 55.77 258.111C55.77 257.703 55.6325 257.432 55.4264 257.228C55.2202 257.025 54.8766 256.889 54.4643 256.889C54.052 256.889 53.6397 256.957 53.4336 257.161C53.1587 257.364 53.0213 257.568 52.8838 257.771L51.6469 257.5C51.7844 257.093 51.9905 256.753 52.2654 256.55C52.5402 256.278 52.8838 256.142 53.2274 256.007C53.571 255.871 53.9833 255.803 54.3956 255.803C54.8079 255.803 54.9454 255.803 55.2202 255.871C55.4951 255.871 55.8387 256.075 56.0448 256.21C56.3197 256.346 56.5258 256.618 56.732 256.889C56.8694 257.16 57.0069 257.568 57.0069 258.043V262.454H55.7012V261.572C55.6325 261.708 55.4951 261.911 55.2889 262.047C55.1515 262.183 54.8766 262.318 54.6018 262.454C54.3269 262.59 53.9833 262.59 53.6397 262.59L53.7772 262.726ZM54.052 261.64C54.3956 261.64 54.7392 261.572 55.0141 261.436C55.2889 261.3 55.4951 261.097 55.6325 260.893C55.77 260.69 55.8387 260.418 55.8387 260.147V259.264C55.8387 259.264 55.7012 259.332 55.5638 259.4C55.4264 259.4 55.2889 259.468 55.0828 259.468C54.9454 259.468 54.7392 259.468 54.6018 259.536C54.4643 259.536 54.3269 259.536 54.1895 259.536C53.9146 259.536 53.7084 259.604 53.5023 259.672C53.2961 259.739 53.1587 259.875 53.0213 260.011C52.8838 260.147 52.8151 260.35 52.8151 260.554C52.8151 260.758 52.9526 261.097 53.1587 261.3C53.3649 261.436 53.7084 261.572 54.052 261.572V261.64ZM63.8786 257.5L62.7104 257.703C62.7104 257.568 62.573 257.432 62.5043 257.296C62.3668 257.16 62.2294 257.025 62.0919 256.957C61.9545 256.889 61.6796 256.821 61.4048 256.821C61.1299 256.821 60.7176 256.889 60.4427 257.093C60.1679 257.228 60.0991 257.432 60.0991 257.703C60.0991 257.975 60.1679 258.111 60.374 258.246C60.5115 258.382 60.7863 258.518 61.1986 258.586L62.2981 258.857C62.9166 258.993 63.3976 259.197 63.6725 259.536C63.9473 259.807 64.1535 260.215 64.1535 260.69C64.1535 261.165 64.016 261.436 63.8099 261.776C63.6037 262.115 63.2601 262.318 62.8478 262.522C62.4355 262.726 61.9545 262.794 61.4048 262.794C60.855 262.794 60.0304 262.658 59.5494 262.318C59.0684 261.979 58.7935 261.572 58.6561 260.961L59.893 260.758C59.9617 261.097 60.1679 261.3 60.374 261.504C60.6489 261.64 60.9238 261.776 61.3361 261.776C61.7484 261.776 62.0919 261.708 62.3668 261.504C62.6417 261.3 62.7791 261.097 62.7791 260.825C62.7791 260.554 62.7104 260.418 62.573 260.282C62.4355 260.147 62.1607 260.011 61.8858 259.943L60.7176 259.672C60.0991 259.536 59.6181 259.332 59.3433 258.993C59.0684 258.654 58.8622 258.314 58.8622 257.839C58.8622 257.364 58.9997 257.093 59.2058 256.821C59.412 256.55 59.7556 256.278 60.0991 256.142C60.5115 256.007 60.9238 255.871 61.4735 255.871C62.2294 255.871 62.7791 256.007 63.1914 256.346C63.6037 256.685 63.8786 257.093 64.016 257.568L63.8786 257.5ZM68.6201 255.871V256.889H64.9094V255.871H68.6201ZM65.9401 254.31H67.2457V260.622C67.2457 260.893 67.2457 261.029 67.3832 261.165C67.4519 261.3 67.5893 261.368 67.658 261.436C67.7955 261.436 67.9329 261.436 68.0704 261.436C68.2078 261.436 68.2765 261.436 68.3452 261.436C68.4139 261.436 68.4827 261.436 68.5514 261.436L68.7575 262.522C68.6888 262.522 68.5514 262.522 68.4139 262.59C68.2765 262.59 68.0704 262.59 67.8642 262.59C67.5206 262.59 67.177 262.59 66.9022 262.386C66.6273 262.251 66.3524 262.047 66.1463 261.776C65.9401 261.504 65.8714 261.165 65.8714 260.758V254.174L65.9401 254.31ZM72.9493 262.726C72.2621 262.726 71.7124 262.59 71.2314 262.318C70.7503 262.047 70.4067 261.64 70.1319 261.097C69.857 260.554 69.7196 260.011 69.7196 259.264C69.7196 258.518 69.857 257.975 70.1319 257.432C70.4067 256.889 70.7503 256.482 71.2314 256.21C71.7124 255.939 72.2621 255.803 72.8806 255.803C73.499 255.803 73.6365 255.803 73.98 256.007C74.3236 256.142 74.6672 256.346 74.9421 256.618C75.2169 256.889 75.4231 257.228 75.6293 257.636C75.7667 258.043 75.9041 258.586 75.9041 259.197V259.672H70.5442V258.721H74.5985C74.5985 258.382 74.5298 258.111 74.3923 257.839C74.2549 257.568 74.0488 257.364 73.7739 257.228C73.499 257.093 73.2241 257.025 72.8806 257.025C72.537 257.025 72.1934 257.093 71.9185 257.296C71.6437 257.5 71.4375 257.703 71.3001 257.975C71.1626 258.246 71.0939 258.586 71.0939 258.925V259.672C71.0939 260.147 71.1626 260.486 71.3001 260.825C71.4375 261.165 71.7124 261.368 71.9872 261.572C72.2621 261.708 72.6057 261.843 73.018 261.843C73.4303 261.843 73.499 261.843 73.7052 261.708C73.9113 261.64 74.1175 261.504 74.2549 261.368C74.3923 261.233 74.5298 261.029 74.5985 260.825L75.8354 261.029C75.7667 261.368 75.5605 261.708 75.2857 261.979C75.0108 262.251 74.7359 262.454 74.3236 262.59C73.9113 262.726 73.499 262.794 73.018 262.794L72.9493 262.726ZM79.821 262.658C79.2713 262.658 78.7902 262.522 78.3779 262.251C77.9656 261.979 77.6221 261.572 77.3472 261.097C77.141 260.554 77.0036 259.943 77.0036 259.264C77.0036 258.586 77.141 257.907 77.3472 257.432C77.6221 256.889 77.8969 256.55 78.3779 256.278C78.7902 256.007 79.2713 255.871 79.821 255.871C80.3708 255.871 80.5769 255.939 80.8518 256.075C81.1266 256.21 81.3328 256.346 81.4702 256.55C81.6077 256.753 81.7451 256.889 81.8138 257.025H81.8825V253.699H83.1882V262.59H81.8825V261.572H81.7451C81.6764 261.708 81.5389 261.843 81.4015 262.047C81.2641 262.251 81.0579 262.386 80.7831 262.522C80.5082 262.658 80.1646 262.726 79.7523 262.726L79.821 262.658ZM80.0959 261.572C80.4395 261.572 80.783 261.504 81.0579 261.3C81.3328 261.097 81.5389 260.825 81.6764 260.486C81.8138 260.147 81.8825 259.739 81.8825 259.264C81.8825 258.789 81.8825 258.382 81.6764 258.043C81.5389 257.703 81.3328 257.432 81.0579 257.228C80.783 257.025 80.5082 256.957 80.0959 256.957C79.6836 256.957 79.34 257.025 79.1338 257.228C78.859 257.432 78.6528 257.703 78.5154 258.043C78.3779 258.382 78.3092 258.789 78.3092 259.197C78.3092 259.604 78.3092 260.011 78.5154 260.418C78.6528 260.758 78.859 261.029 79.1338 261.233C79.4087 261.436 79.7523 261.572 80.0959 261.572ZM30.482 269.445H29.1077C29.1077 269.173 28.9702 268.902 28.8328 268.698C28.6954 268.495 28.4892 268.291 28.283 268.155C28.0769 268.019 27.8707 267.884 27.5959 267.816C27.321 267.748 27.0461 267.68 26.7713 267.68C26.2215 267.68 25.8092 267.816 25.3969 268.087C24.9846 268.359 24.641 268.698 24.4349 269.241C24.2287 269.716 24.0913 270.327 24.0913 271.074C24.0913 271.82 24.2287 272.431 24.4349 272.906C24.641 273.381 24.9846 273.788 25.3969 274.06C25.8092 274.331 26.2902 274.467 26.7713 274.467C27.2523 274.467 27.321 274.467 27.5959 274.331C27.8707 274.263 28.0769 274.128 28.283 273.992C28.4892 273.856 28.6954 273.653 28.8328 273.449C28.9702 273.245 29.1077 272.974 29.1077 272.702H30.482C30.4133 273.11 30.2759 273.517 30.0697 273.924C29.8635 274.263 29.5887 274.603 29.2451 274.874C28.9015 275.146 28.5579 275.349 28.1456 275.485C27.7333 275.621 27.2523 275.689 26.7713 275.689C26.0154 275.689 25.3282 275.485 24.7097 275.146C24.0913 274.806 23.6103 274.263 23.2667 273.585C22.9231 272.906 22.717 272.092 22.717 271.141C22.717 270.191 22.9231 269.377 23.2667 268.698C23.6103 268.019 24.0913 267.476 24.7097 267.137C25.3282 266.798 26.0154 266.594 26.7713 266.594C27.5272 266.594 27.6646 266.662 28.0769 266.798C28.4892 266.934 28.8328 267.137 29.1764 267.409C29.52 267.68 29.7948 267.952 30.001 268.359C30.2071 268.698 30.3446 269.173 30.4133 269.648L30.482 269.445ZM33.9866 275.621C33.5743 275.621 33.162 275.553 32.8184 275.417C32.4748 275.281 32.1999 275.01 31.9938 274.738C31.7876 274.467 31.7189 274.06 31.7189 273.653C31.7189 273.245 31.7876 272.974 31.9251 272.702C32.0625 272.431 32.2687 272.295 32.5435 272.092C32.8184 271.956 33.0933 271.82 33.3681 271.752C33.643 271.684 33.9866 271.616 34.3302 271.616C34.7425 271.616 35.0861 271.549 35.2922 271.481C35.5671 271.481 35.7045 271.413 35.8419 271.345C35.9794 271.277 35.9794 271.141 35.9794 271.006C35.9794 270.598 35.8419 270.327 35.6358 270.123C35.4296 269.92 35.0861 269.784 34.6738 269.784C34.2615 269.784 33.8491 269.852 33.643 270.055C33.3681 270.259 33.2307 270.463 33.0933 270.666L31.8563 270.395C31.9938 269.988 32.1999 269.648 32.4748 269.445C32.7497 269.173 33.0933 269.037 33.4368 268.902C33.7804 268.766 34.1927 268.698 34.605 268.698C35.0173 268.698 35.1548 268.698 35.4296 268.766C35.7045 268.766 36.0481 268.97 36.2543 269.105C36.5291 269.241 36.7353 269.513 36.9414 269.784C37.0789 270.055 37.2163 270.463 37.2163 270.938V275.349H35.9107V274.467C35.842 274.603 35.7045 274.806 35.4984 274.942C35.3609 275.078 35.0861 275.213 34.8112 275.349C34.5363 275.485 34.1927 275.485 33.8491 275.485L33.9866 275.621ZM34.2615 274.535C34.605 274.535 34.9486 274.467 35.2235 274.331C35.4984 274.195 35.7045 273.992 35.8419 273.788C35.9794 273.585 36.0481 273.313 36.0481 273.042V272.159C36.0481 272.159 35.9107 272.227 35.7732 272.295C35.6358 272.295 35.4984 272.363 35.2922 272.363C35.1548 272.363 34.9486 272.363 34.8112 272.431C34.6738 272.431 34.5363 272.431 34.3989 272.431C34.124 272.431 33.9179 272.499 33.7117 272.567C33.5056 272.634 33.3681 272.77 33.2307 272.906C33.0933 273.042 33.0245 273.245 33.0245 273.449C33.0245 273.653 33.162 273.992 33.3681 274.195C33.5743 274.331 33.9179 274.467 34.2615 274.467V274.535ZM44.088 270.395L42.9198 270.598C42.9198 270.463 42.7824 270.327 42.7137 270.191C42.5762 270.055 42.4388 269.92 42.3014 269.852C42.0952 269.784 41.8891 269.716 41.6142 269.716C41.3393 269.716 40.927 269.784 40.6522 269.988C40.3773 270.123 40.3086 270.327 40.3086 270.598C40.3086 270.87 40.3773 271.006 40.5834 271.141C40.7209 271.277 40.9957 271.413 41.4081 271.481L42.5075 271.752C43.126 271.888 43.607 272.092 43.8819 272.431C44.1567 272.702 44.3629 273.11 44.3629 273.585C44.3629 274.06 44.2255 274.331 44.0193 274.671C43.8132 275.01 43.4696 275.213 43.0573 275.417C42.645 275.621 42.1639 275.689 41.6142 275.689C41.0645 275.689 40.2399 275.553 39.7588 275.213C39.2778 274.874 39.0029 274.467 38.8655 273.856L40.1024 273.653C40.1711 273.992 40.3773 274.195 40.5834 274.399C40.8583 274.535 41.1332 274.671 41.5455 274.671C41.9578 274.671 42.3014 274.603 42.5762 274.399C42.8511 274.195 42.9885 273.992 42.9885 273.72C42.9885 273.449 42.9198 273.313 42.7824 273.177C42.645 273.042 42.3701 272.906 42.0952 272.838L40.927 272.567C40.3086 272.431 39.8275 272.227 39.5527 271.888C39.2778 271.549 39.0717 271.209 39.0717 270.734C39.0717 270.259 39.2091 269.988 39.4152 269.716C39.6214 269.445 39.965 269.173 40.3086 269.037C40.7209 268.902 41.1332 268.766 41.6829 268.766C42.4388 268.766 42.9885 268.902 43.4009 269.241C43.8132 269.58 44.088 269.988 44.2255 270.463L44.088 270.395ZM47.0429 271.481V275.417H45.7372V266.526H47.0429V269.852H47.1116C47.249 269.513 47.5239 269.241 47.8675 268.97C48.2111 268.766 48.6234 268.63 49.1731 268.63C49.7228 268.63 50.0664 268.698 50.41 268.902C50.7536 269.105 51.0285 269.377 51.2346 269.716C51.4408 270.055 51.5095 270.531 51.5095 271.074V275.281H50.2039V271.209C50.2039 270.734 50.0664 270.327 49.7916 270.055C49.5167 269.784 49.1731 269.648 48.7608 269.648C48.3485 269.648 48.1423 269.648 47.9362 269.852C47.6613 269.988 47.5239 270.191 47.3865 270.395C47.249 270.666 47.1803 270.938 47.1803 271.277L47.0429 271.481ZM56.5259 275.485V266.594H62.0919V267.748H57.9002V270.463H61.7484V271.616H57.9002V275.485H56.5259ZM64.9781 266.594V275.485H63.6725V266.594H64.9781ZM69.5821 275.621C68.9637 275.621 68.4139 275.485 67.9329 275.213C67.4519 274.942 67.1083 274.535 66.8334 273.992C66.5586 273.449 66.4211 272.906 66.4211 272.159C66.4211 271.413 66.5586 270.87 66.8334 270.327C67.1083 269.784 67.4519 269.377 67.9329 269.105C68.4139 268.834 68.9637 268.698 69.5821 268.698C70.2006 268.698 70.7503 268.834 71.2314 269.105C71.7124 269.377 72.056 269.784 72.3308 270.327C72.6057 270.87 72.7431 271.481 72.7431 272.159C72.7431 272.838 72.6057 273.449 72.3308 273.992C72.056 274.535 71.7124 274.874 71.2314 275.213C70.7503 275.485 70.2006 275.621 69.5821 275.621ZM69.5821 274.467C69.9944 274.467 70.338 274.331 70.6129 274.128C70.8878 273.924 71.0939 273.653 71.2314 273.245C71.3688 272.906 71.4375 272.499 71.4375 272.092C71.4375 271.684 71.4375 271.277 71.2314 270.938C71.0939 270.598 70.8878 270.259 70.6129 270.055C70.338 269.852 69.9944 269.716 69.5821 269.716C69.1698 269.716 68.8262 269.852 68.5514 270.055C68.2765 270.259 68.0704 270.531 67.9329 270.938C67.7955 271.277 67.7268 271.684 67.7268 272.092C67.7268 272.499 67.7268 272.906 67.9329 273.245C68.0704 273.585 68.2765 273.856 68.5514 274.128C68.8262 274.331 69.1698 274.467 69.5821 274.467ZM75.4231 275.485L73.4303 268.834H74.8046L76.1103 273.72L77.4159 268.834H78.7903L80.0959 273.72L81.4015 268.834H82.7758L80.7831 275.485H79.4774L78.1031 270.666H78.0344L76.66 275.485H75.3544H75.4231Z" fill="#01654D"/>
<path d="M330.226 256.549H328.852C328.852 256.278 328.714 256.006 328.577 255.803C328.439 255.599 328.233 255.395 328.027 255.26C327.821 255.124 327.615 254.988 327.34 254.92C327.065 254.852 326.79 254.785 326.515 254.785C325.966 254.785 325.553 254.92 325.141 255.192C324.729 255.463 324.385 255.803 324.179 256.346C323.973 256.821 323.835 257.431 323.835 258.178C323.835 258.925 323.973 259.535 324.179 260.01C324.385 260.486 324.729 260.893 325.141 261.164C325.553 261.436 326.034 261.571 326.515 261.571C326.996 261.571 327.065 261.571 327.34 261.436C327.615 261.368 327.821 261.232 328.027 261.096C328.233 260.961 328.439 260.757 328.577 260.553C328.714 260.35 328.852 260.078 328.852 259.807H330.226C330.157 260.214 330.02 260.621 329.814 261.028C329.608 261.368 329.333 261.707 328.989 261.979C328.645 262.25 328.302 262.454 327.89 262.589C327.477 262.725 326.996 262.793 326.515 262.793C325.759 262.793 325.072 262.589 324.454 262.25C323.835 261.911 323.354 261.368 323.011 260.689C322.667 260.01 322.461 259.196 322.461 258.246C322.461 257.296 322.667 256.481 323.011 255.803C323.354 255.124 323.835 254.581 324.454 254.242C325.072 253.902 325.759 253.699 326.515 253.699C327.271 253.699 327.409 253.767 327.821 253.902C328.233 254.038 328.577 254.242 328.92 254.513C329.264 254.785 329.539 255.056 329.745 255.463C329.951 255.803 330.089 256.278 330.157 256.753L330.226 256.549ZM334.555 262.725C333.937 262.725 333.387 262.589 332.906 262.318C332.425 262.047 332.081 261.639 331.806 261.096C331.532 260.553 331.394 260.01 331.394 259.264C331.394 258.517 331.532 257.974 331.806 257.431C332.081 256.889 332.425 256.481 332.906 256.21C333.387 255.938 333.937 255.803 334.555 255.803C335.174 255.803 335.723 255.938 336.204 256.21C336.685 256.481 337.029 256.889 337.304 257.431C337.579 257.974 337.716 258.585 337.716 259.264C337.716 259.943 337.579 260.553 337.304 261.096C337.029 261.639 336.685 261.979 336.204 262.318C335.723 262.589 335.174 262.725 334.555 262.725ZM334.555 261.571C334.967 261.571 335.311 261.436 335.586 261.232C335.861 261.029 336.067 260.757 336.204 260.35C336.342 260.01 336.411 259.603 336.411 259.196C336.411 258.789 336.411 258.382 336.204 258.042C336.067 257.703 335.861 257.364 335.586 257.16C335.311 256.956 334.967 256.821 334.555 256.821C334.143 256.821 333.799 256.956 333.524 257.16C333.25 257.364 333.043 257.635 332.906 258.042C332.769 258.382 332.7 258.789 332.7 259.196C332.7 259.603 332.7 260.01 332.906 260.35C333.043 260.689 333.25 260.961 333.524 261.232C333.799 261.436 334.143 261.571 334.555 261.571ZM340.465 258.585V262.522H339.159V255.87H340.396V256.956H340.465C340.602 256.617 340.877 256.346 341.221 256.074C341.564 255.871 341.977 255.735 342.458 255.735C342.939 255.735 343.351 255.803 343.695 256.006C344.038 256.21 344.313 256.481 344.519 256.821C344.725 257.16 344.794 257.635 344.794 258.178V262.386H343.488V258.314C343.488 257.839 343.351 257.431 343.076 257.16C342.801 256.889 342.458 256.753 342.045 256.753C341.633 256.753 341.496 256.753 341.221 256.956C341.015 257.092 340.808 257.296 340.671 257.499C340.534 257.771 340.465 258.042 340.465 258.382V258.585ZM351.597 257.499L350.429 257.703C350.429 257.567 350.291 257.431 350.223 257.296C350.085 257.16 349.948 257.024 349.81 256.956C349.604 256.889 349.398 256.821 349.123 256.821C348.848 256.821 348.436 256.889 348.161 257.092C347.886 257.228 347.818 257.431 347.818 257.703C347.818 257.974 347.886 258.11 348.092 258.246C348.23 258.382 348.505 258.517 348.917 258.585L350.017 258.857C350.635 258.992 351.116 259.196 351.391 259.535C351.666 259.807 351.872 260.214 351.872 260.689C351.872 261.164 351.735 261.436 351.528 261.775C351.322 262.114 350.979 262.318 350.566 262.522C350.154 262.725 349.673 262.793 349.123 262.793C348.574 262.793 347.749 262.657 347.268 262.318C346.787 261.979 346.512 261.571 346.375 260.961L347.611 260.757C347.68 261.096 347.886 261.3 348.092 261.504C348.367 261.639 348.642 261.775 349.055 261.775C349.467 261.775 349.81 261.707 350.085 261.504C350.36 261.3 350.498 261.096 350.498 260.825C350.498 260.553 350.429 260.418 350.291 260.282C350.154 260.146 349.879 260.01 349.604 259.943L348.436 259.671C347.818 259.535 347.337 259.332 347.062 258.992C346.787 258.653 346.581 258.314 346.581 257.839C346.581 257.364 346.718 257.092 346.924 256.821C347.13 256.549 347.474 256.278 347.818 256.142C348.23 256.006 348.642 255.87 349.192 255.87C349.948 255.87 350.498 256.006 350.91 256.346C351.322 256.685 351.597 257.092 351.735 257.567L351.597 257.499ZM356.339 255.87V256.889H352.628V255.87H356.339ZM353.659 254.31H354.964V260.621C354.964 260.893 354.964 261.028 355.102 261.164C355.17 261.3 355.308 261.368 355.377 261.436C355.514 261.436 355.651 261.436 355.789 261.436C355.926 261.436 355.995 261.436 356.064 261.436C356.132 261.436 356.201 261.436 356.27 261.436L356.476 262.522C356.407 262.522 356.27 262.522 356.132 262.589C355.995 262.589 355.789 262.589 355.583 262.589C355.239 262.589 354.896 262.589 354.621 262.386C354.346 262.25 354.071 262.047 353.865 261.775C353.659 261.504 353.59 261.164 353.59 260.757V254.174L353.659 254.31ZM357.782 262.589V255.938H359.019V257.024H359.087C359.225 256.685 359.431 256.413 359.706 256.21C360.049 256.006 360.393 255.87 360.736 255.87C361.08 255.87 360.943 255.87 361.011 255.87C361.149 255.87 361.218 255.87 361.286 255.87V257.092C361.286 257.092 361.149 257.092 361.011 257.092C360.874 257.092 360.736 257.092 360.599 257.092C360.255 257.092 359.981 257.092 359.774 257.296C359.568 257.431 359.362 257.567 359.225 257.839C359.087 258.042 359.019 258.314 359.019 258.585V262.657H357.713L357.782 262.589ZM366.852 259.807V255.938H368.158V262.589H366.852V261.436H366.784C366.646 261.775 366.371 262.114 366.028 262.318C365.684 262.522 365.272 262.657 364.791 262.657C364.31 262.657 363.966 262.589 363.623 262.386C363.279 262.182 363.004 261.911 362.867 261.571C362.661 261.232 362.592 260.757 362.592 260.214V256.006H363.897V260.078C363.897 260.553 364.035 260.893 364.31 261.164C364.585 261.436 364.928 261.571 365.272 261.571C365.615 261.571 365.753 261.571 366.028 261.368C366.303 261.232 366.509 261.096 366.646 260.825C366.784 260.553 366.921 260.282 366.921 259.875L366.852 259.807ZM372.762 262.725C372.075 262.725 371.525 262.589 371.044 262.318C370.563 262.047 370.219 261.639 369.945 261.096C369.67 260.553 369.601 260.01 369.601 259.332C369.601 258.653 369.738 258.042 370.013 257.567C370.288 257.024 370.632 256.617 371.113 256.346C371.594 256.074 372.144 255.938 372.762 255.938C373.38 255.938 373.724 256.006 374.136 256.21C374.549 256.413 374.892 256.685 375.098 256.956C375.373 257.296 375.511 257.703 375.511 258.11H374.205C374.136 257.771 373.999 257.499 373.724 257.296C373.449 257.092 373.174 256.956 372.693 256.956C372.212 256.956 372.006 257.024 371.731 257.228C371.456 257.431 371.25 257.703 371.113 258.042C370.975 258.382 370.907 258.789 370.907 259.264C370.907 259.739 370.975 260.146 371.113 260.553C371.25 260.893 371.456 261.164 371.731 261.368C372.006 261.571 372.35 261.639 372.693 261.639C373.037 261.639 373.174 261.639 373.38 261.504C373.587 261.436 373.724 261.3 373.861 261.096C373.999 260.893 374.068 260.689 374.136 260.486H375.442C375.442 260.893 375.236 261.3 375.03 261.639C374.824 261.979 374.48 262.25 374.068 262.454C373.655 262.657 373.174 262.725 372.693 262.725H372.762ZM380.046 255.87V256.889H376.335V255.87H380.046ZM377.366 254.31H378.672V260.621C378.672 260.893 378.672 261.028 378.809 261.164C378.878 261.3 379.015 261.368 379.084 261.436C379.221 261.436 379.359 261.436 379.496 261.436C379.634 261.436 379.702 261.436 379.771 261.436C379.84 261.436 379.909 261.436 379.977 261.436L380.183 262.522C380.115 262.522 379.977 262.522 379.84 262.589C379.702 262.589 379.496 262.589 379.29 262.589C378.947 262.589 378.603 262.589 378.328 262.386C378.053 262.25 377.778 262.047 377.572 261.775C377.366 261.504 377.297 261.164 377.297 260.757V254.174L377.366 254.31ZM381.489 262.589V255.938H382.795V262.589H381.489ZM382.176 254.852C381.97 254.852 381.764 254.785 381.558 254.649C381.42 254.513 381.283 254.31 381.283 254.106C381.283 253.902 381.352 253.699 381.558 253.563C381.695 253.427 381.901 253.359 382.176 253.359C382.451 253.359 382.589 253.427 382.726 253.563C382.863 253.699 383.001 253.902 383.001 254.106C383.001 254.31 382.932 254.513 382.726 254.649C382.589 254.785 382.382 254.852 382.176 254.852ZM387.467 262.725C386.849 262.725 386.299 262.589 385.818 262.318C385.337 262.047 384.994 261.639 384.719 261.096C384.444 260.553 384.307 260.01 384.307 259.264C384.307 258.517 384.444 257.974 384.719 257.431C384.994 256.889 385.337 256.481 385.818 256.21C386.299 255.938 386.849 255.803 387.467 255.803C388.086 255.803 388.636 255.938 389.117 256.21C389.598 256.481 389.941 256.889 390.216 257.431C390.491 257.974 390.628 258.585 390.628 259.264C390.628 259.943 390.491 260.553 390.216 261.096C389.941 261.639 389.598 261.979 389.117 262.318C388.636 262.589 388.086 262.725 387.467 262.725ZM387.467 261.571C387.88 261.571 388.223 261.436 388.498 261.232C388.773 261.029 388.979 260.757 389.117 260.35C389.254 260.01 389.323 259.603 389.323 259.196C389.323 258.789 389.323 258.382 389.117 258.042C388.979 257.703 388.773 257.364 388.498 257.16C388.223 256.956 387.88 256.821 387.467 256.821C387.055 256.821 386.712 256.956 386.437 257.16C386.162 257.364 385.956 257.635 385.818 258.042C385.681 258.382 385.612 258.789 385.612 259.196C385.612 259.603 385.612 260.01 385.818 260.35C385.956 260.689 386.162 260.961 386.437 261.232C386.712 261.436 387.055 261.571 387.467 261.571ZM393.377 258.585V262.522H392.072V255.87H393.308V256.956H393.377C393.515 256.617 393.789 256.346 394.133 256.074C394.477 255.871 394.889 255.735 395.37 255.735C395.851 255.735 396.263 255.803 396.607 256.006C396.95 256.21 397.225 256.481 397.431 256.821C397.638 257.16 397.706 257.635 397.706 258.178V262.386H396.401V258.314C396.401 257.839 396.263 257.431 395.988 257.16C395.714 256.889 395.37 256.753 394.958 256.753C394.545 256.753 394.408 256.753 394.133 256.956C393.927 257.092 393.721 257.296 393.583 257.499C393.446 257.771 393.377 258.042 393.377 258.382V258.585Z" fill="#101727"/>
<path d="M330.226 256.549H328.852C328.852 256.278 328.714 256.006 328.577 255.803C328.439 255.599 328.233 255.395 328.027 255.26C327.821 255.124 327.615 254.988 327.34 254.92C327.065 254.852 326.79 254.785 326.515 254.785C325.966 254.785 325.553 254.92 325.141 255.192C324.729 255.463 324.385 255.803 324.179 256.346C323.973 256.821 323.835 257.431 323.835 258.178C323.835 258.925 323.973 259.535 324.179 260.01C324.385 260.486 324.729 260.893 325.141 261.164C325.553 261.436 326.034 261.571 326.515 261.571C326.996 261.571 327.065 261.571 327.34 261.436C327.615 261.368 327.821 261.232 328.027 261.096C328.233 260.961 328.439 260.757 328.577 260.553C328.714 260.35 328.852 260.078 328.852 259.807H330.226C330.157 260.214 330.02 260.621 329.814 261.028C329.608 261.368 329.333 261.707 328.989 261.979C328.645 262.25 328.302 262.454 327.89 262.589C327.477 262.725 326.996 262.793 326.515 262.793C325.759 262.793 325.072 262.589 324.454 262.25C323.835 261.911 323.354 261.368 323.011 260.689C322.667 260.01 322.461 259.196 322.461 258.246C322.461 257.296 322.667 256.481 323.011 255.803C323.354 255.124 323.835 254.581 324.454 254.242C325.072 253.902 325.759 253.699 326.515 253.699C327.271 253.699 327.409 253.767 327.821 253.902C328.233 254.038 328.577 254.242 328.92 254.513C329.264 254.785 329.539 255.056 329.745 255.463C329.951 255.803 330.089 256.278 330.157 256.753L330.226 256.549ZM334.555 262.725C333.937 262.725 333.387 262.589 332.906 262.318C332.425 262.047 332.081 261.639 331.806 261.096C331.532 260.553 331.394 260.01 331.394 259.264C331.394 258.517 331.532 257.974 331.806 257.431C332.081 256.889 332.425 256.481 332.906 256.21C333.387 255.938 333.937 255.803 334.555 255.803C335.174 255.803 335.723 255.938 336.204 256.21C336.685 256.481 337.029 256.889 337.304 257.431C337.579 257.974 337.716 258.585 337.716 259.264C337.716 259.943 337.579 260.553 337.304 261.096C337.029 261.639 336.685 261.979 336.204 262.318C335.723 262.589 335.174 262.725 334.555 262.725ZM334.555 261.571C334.967 261.571 335.311 261.436 335.586 261.232C335.861 261.029 336.067 260.757 336.204 260.35C336.342 260.01 336.411 259.603 336.411 259.196C336.411 258.789 336.411 258.382 336.204 258.042C336.067 257.703 335.861 257.364 335.586 257.16C335.311 256.956 334.967 256.821 334.555 256.821C334.143 256.821 333.799 256.956 333.524 257.16C333.25 257.364 333.043 257.635 332.906 258.042C332.769 258.382 332.7 258.789 332.7 259.196C332.7 259.603 332.7 260.01 332.906 260.35C333.043 260.689 333.25 260.961 333.524 261.232C333.799 261.436 334.143 261.571 334.555 261.571ZM340.465 258.585V262.522H339.159V255.87H340.396V256.956H340.465C340.602 256.617 340.877 256.346 341.221 256.074C341.564 255.871 341.977 255.735 342.458 255.735C342.939 255.735 343.351 255.803 343.695 256.006C344.038 256.21 344.313 256.481 344.519 256.821C344.725 257.16 344.794 257.635 344.794 258.178V262.386H343.488V258.314C343.488 257.839 343.351 257.431 343.076 257.16C342.801 256.889 342.458 256.753 342.045 256.753C341.633 256.753 341.496 256.753 341.221 256.956C341.015 257.092 340.808 257.296 340.671 257.499C340.534 257.771 340.465 258.042 340.465 258.382V258.585ZM351.597 257.499L350.429 257.703C350.429 257.567 350.291 257.431 350.223 257.296C350.085 257.16 349.948 257.024 349.81 256.956C349.604 256.889 349.398 256.821 349.123 256.821C348.848 256.821 348.436 256.889 348.161 257.092C347.886 257.228 347.818 257.431 347.818 257.703C347.818 257.974 347.886 258.11 348.092 258.246C348.23 258.382 348.505 258.517 348.917 258.585L350.017 258.857C350.635 258.992 351.116 259.196 351.391 259.535C351.666 259.807 351.872 260.214 351.872 260.689C351.872 261.164 351.735 261.436 351.528 261.775C351.322 262.114 350.979 262.318 350.566 262.522C350.154 262.725 349.673 262.793 349.123 262.793C348.574 262.793 347.749 262.657 347.268 262.318C346.787 261.979 346.512 261.571 346.375 260.961L347.611 260.757C347.68 261.096 347.886 261.3 348.092 261.504C348.367 261.639 348.642 261.775 349.055 261.775C349.467 261.775 349.81 261.707 350.085 261.504C350.36 261.3 350.498 261.096 350.498 260.825C350.498 260.553 350.429 260.418 350.291 260.282C350.154 260.146 349.879 260.01 349.604 259.943L348.436 259.671C347.818 259.535 347.337 259.332 347.062 258.992C346.787 258.653 346.581 258.314 346.581 257.839C346.581 257.364 346.718 257.092 346.924 256.821C347.13 256.549 347.474 256.278 347.818 256.142C348.23 256.006 348.642 255.87 349.192 255.87C349.948 255.87 350.498 256.006 350.91 256.346C351.322 256.685 351.597 257.092 351.735 257.567L351.597 257.499ZM356.339 255.87V256.889H352.628V255.87H356.339ZM353.659 254.31H354.964V260.621C354.964 260.893 354.964 261.028 355.102 261.164C355.17 261.3 355.308 261.368 355.377 261.436C355.514 261.436 355.651 261.436 355.789 261.436C355.926 261.436 355.995 261.436 356.064 261.436C356.132 261.436 356.201 261.436 356.27 261.436L356.476 262.522C356.407 262.522 356.27 262.522 356.132 262.589C355.995 262.589 355.789 262.589 355.583 262.589C355.239 262.589 354.896 262.589 354.621 262.386C354.346 262.25 354.071 262.047 353.865 261.775C353.659 261.504 353.59 261.164 353.59 260.757V254.174L353.659 254.31ZM357.782 262.589V255.938H359.019V257.024H359.087C359.225 256.685 359.431 256.413 359.706 256.21C360.049 256.006 360.393 255.87 360.736 255.87C361.08 255.87 360.943 255.87 361.011 255.87C361.149 255.87 361.218 255.87 361.286 255.87V257.092C361.286 257.092 361.149 257.092 361.011 257.092C360.874 257.092 360.736 257.092 360.599 257.092C360.255 257.092 359.981 257.092 359.774 257.296C359.568 257.431 359.362 257.567 359.225 257.839C359.087 258.042 359.019 258.314 359.019 258.585V262.657H357.713L357.782 262.589ZM366.852 259.807V255.938H368.158V262.589H366.852V261.436H366.784C366.646 261.775 366.371 262.114 366.028 262.318C365.684 262.522 365.272 262.657 364.791 262.657C364.31 262.657 363.966 262.589 363.623 262.386C363.279 262.182 363.004 261.911 362.867 261.571C362.661 261.232 362.592 260.757 362.592 260.214V256.006H363.897V260.078C363.897 260.553 364.035 260.893 364.31 261.164C364.585 261.436 364.928 261.571 365.272 261.571C365.615 261.571 365.753 261.571 366.028 261.368C366.303 261.232 366.509 261.096 366.646 260.825C366.784 260.553 366.921 260.282 366.921 259.875L366.852 259.807ZM372.762 262.725C372.075 262.725 371.525 262.589 371.044 262.318C370.563 262.047 370.219 261.639 369.945 261.096C369.67 260.553 369.601 260.01 369.601 259.332C369.601 258.653 369.738 258.042 370.013 257.567C370.288 257.024 370.632 256.617 371.113 256.346C371.594 256.074 372.144 255.938 372.762 255.938C373.38 255.938 373.724 256.006 374.136 256.21C374.549 256.413 374.892 256.685 375.098 256.956C375.373 257.296 375.511 257.703 375.511 258.11H374.205C374.136 257.771 373.999 257.499 373.724 257.296C373.449 257.092 373.174 256.956 372.693 256.956C372.212 256.956 372.006 257.024 371.731 257.228C371.456 257.431 371.25 257.703 371.113 258.042C370.975 258.382 370.907 258.789 370.907 259.264C370.907 259.739 370.975 260.146 371.113 260.553C371.25 260.893 371.456 261.164 371.731 261.368C372.006 261.571 372.35 261.639 372.693 261.639C373.037 261.639 373.174 261.639 373.38 261.504C373.587 261.436 373.724 261.3 373.861 261.096C373.999 260.893 374.068 260.689 374.136 260.486H375.442C375.442 260.893 375.236 261.3 375.03 261.639C374.824 261.979 374.48 262.25 374.068 262.454C373.655 262.657 373.174 262.725 372.693 262.725H372.762ZM380.046 255.87V256.889H376.335V255.87H380.046ZM377.366 254.31H378.672V260.621C378.672 260.893 378.672 261.028 378.809 261.164C378.878 261.3 379.015 261.368 379.084 261.436C379.221 261.436 379.359 261.436 379.496 261.436C379.634 261.436 379.702 261.436 379.771 261.436C379.84 261.436 379.909 261.436 379.977 261.436L380.183 262.522C380.115 262.522 379.977 262.522 379.84 262.589C379.702 262.589 379.496 262.589 379.29 262.589C378.947 262.589 378.603 262.589 378.328 262.386C378.053 262.25 377.778 262.047 377.572 261.775C377.366 261.504 377.297 261.164 377.297 260.757V254.174L377.366 254.31ZM381.489 262.589V255.938H382.795V262.589H381.489ZM382.176 254.852C381.97 254.852 381.764 254.785 381.558 254.649C381.42 254.513 381.283 254.31 381.283 254.106C381.283 253.902 381.352 253.699 381.558 253.563C381.695 253.427 381.901 253.359 382.176 253.359C382.451 253.359 382.589 253.427 382.726 253.563C382.863 253.699 383.001 253.902 383.001 254.106C383.001 254.31 382.932 254.513 382.726 254.649C382.589 254.785 382.382 254.852 382.176 254.852ZM387.467 262.725C386.849 262.725 386.299 262.589 385.818 262.318C385.337 262.047 384.994 261.639 384.719 261.096C384.444 260.553 384.307 260.01 384.307 259.264C384.307 258.517 384.444 257.974 384.719 257.431C384.994 256.889 385.337 256.481 385.818 256.21C386.299 255.938 386.849 255.803 387.467 255.803C388.086 255.803 388.636 255.938 389.117 256.21C389.598 256.481 389.941 256.889 390.216 257.431C390.491 257.974 390.628 258.585 390.628 259.264C390.628 259.943 390.491 260.553 390.216 261.096C389.941 261.639 389.598 261.979 389.117 262.318C388.636 262.589 388.086 262.725 387.467 262.725ZM387.467 261.571C387.88 261.571 388.223 261.436 388.498 261.232C388.773 261.029 388.979 260.757 389.117 260.35C389.254 260.01 389.323 259.603 389.323 259.196C389.323 258.789 389.323 258.382 389.117 258.042C388.979 257.703 388.773 257.364 388.498 257.16C388.223 256.956 387.88 256.821 387.467 256.821C387.055 256.821 386.712 256.956 386.437 257.16C386.162 257.364 385.956 257.635 385.818 258.042C385.681 258.382 385.612 258.789 385.612 259.196C385.612 259.603 385.612 260.01 385.818 260.35C385.956 260.689 386.162 260.961 386.437 261.232C386.712 261.436 387.055 261.571 387.467 261.571ZM393.377 258.585V262.522H392.072V255.87H393.308V256.956H393.377C393.515 256.617 393.789 256.346 394.133 256.074C394.477 255.871 394.889 255.735 395.37 255.735C395.851 255.735 396.263 255.803 396.607 256.006C396.95 256.21 397.225 256.481 397.431 256.821C397.638 257.16 397.706 257.635 397.706 258.178V262.386H396.401V258.314C396.401 257.839 396.263 257.431 395.988 257.16C395.714 256.889 395.37 256.753 394.958 256.753C394.545 256.753 394.408 256.753 394.133 256.956C393.927 257.092 393.721 257.296 393.583 257.499C393.446 257.771 393.377 258.042 393.377 258.382V258.585Z" fill="#01654D"/>
<path d="M158.776 254.852V253.699H165.716V254.852H162.899V262.589H161.524V254.852H158.707H158.776ZM166.472 262.589V255.938H167.709V257.024H167.778C167.915 256.685 168.121 256.413 168.396 256.21C168.74 256.006 169.083 255.87 169.427 255.87C169.771 255.87 169.633 255.87 169.702 255.87C169.839 255.87 169.908 255.87 169.977 255.87V257.092C169.977 257.092 169.839 257.092 169.702 257.092C169.564 257.092 169.427 257.092 169.289 257.092C168.946 257.092 168.671 257.092 168.465 257.296C168.259 257.431 168.053 257.567 167.915 257.839C167.778 258.042 167.709 258.314 167.709 258.585V262.657H166.403L166.472 262.589ZM173.138 262.725C172.725 262.725 172.313 262.657 171.969 262.522C171.626 262.386 171.351 262.114 171.145 261.843C170.939 261.571 170.87 261.164 170.87 260.757C170.87 260.35 170.939 260.078 171.076 259.807C171.214 259.535 171.42 259.4 171.695 259.196C171.969 259.06 172.244 258.925 172.519 258.857C172.794 258.789 173.138 258.721 173.481 258.721C173.894 258.721 174.237 258.653 174.443 258.585C174.718 258.585 174.856 258.517 174.993 258.45C175.13 258.382 175.13 258.246 175.13 258.11C175.13 257.703 174.993 257.431 174.787 257.228C174.581 257.024 174.237 256.889 173.825 256.889C173.413 256.889 173.069 256.956 172.794 257.16C172.519 257.364 172.382 257.567 172.244 257.771L171.007 257.499C171.145 257.092 171.351 256.753 171.626 256.549C171.901 256.278 172.244 256.142 172.588 256.006C172.931 255.87 173.344 255.803 173.756 255.803C174.168 255.803 174.306 255.803 174.581 255.87C174.856 255.87 175.199 256.074 175.405 256.21C175.68 256.346 175.886 256.617 176.092 256.889C176.23 257.16 176.367 257.567 176.367 258.042V262.454H175.062V261.571C174.993 261.707 174.856 261.911 174.649 262.047C174.512 262.182 174.237 262.318 173.962 262.454C173.687 262.589 173.344 262.589 173 262.589L173.138 262.725ZM173.413 261.639C173.756 261.639 174.1 261.571 174.375 261.436C174.649 261.3 174.856 261.096 174.993 260.893C175.13 260.689 175.199 260.418 175.199 260.146V259.264C175.199 259.264 175.062 259.332 174.924 259.4C174.787 259.4 174.649 259.468 174.443 259.468C174.306 259.468 174.1 259.468 173.962 259.535C173.825 259.535 173.687 259.535 173.55 259.535C173.275 259.535 173.069 259.603 172.863 259.671C172.657 259.739 172.519 259.875 172.382 260.01C172.244 260.146 172.176 260.35 172.176 260.553C172.176 260.757 172.313 261.096 172.519 261.3C172.725 261.436 173.069 261.571 173.413 261.571V261.639ZM181.04 262.725C180.353 262.725 179.803 262.589 179.322 262.318C178.841 262.047 178.498 261.639 178.223 261.096C177.948 260.553 177.81 260.01 177.81 259.332C177.81 258.653 177.948 258.042 178.223 257.567C178.498 257.024 178.841 256.617 179.322 256.346C179.803 256.074 180.353 255.938 180.971 255.938C181.59 255.938 181.933 256.006 182.346 256.21C182.758 256.413 183.102 256.685 183.308 256.956C183.583 257.296 183.72 257.703 183.72 258.11H182.414C182.346 257.771 182.208 257.499 181.933 257.296C181.659 257.092 181.384 256.956 180.903 256.956C180.422 256.956 180.216 257.024 179.941 257.228C179.666 257.431 179.46 257.703 179.322 258.042C179.185 258.382 179.116 258.789 179.116 259.264C179.116 259.739 179.185 260.146 179.322 260.553C179.46 260.893 179.666 261.164 179.941 261.368C180.216 261.571 180.559 261.639 180.903 261.639C181.246 261.639 181.384 261.639 181.59 261.504C181.796 261.436 181.933 261.3 182.071 261.096C182.208 260.893 182.277 260.689 182.346 260.486H183.651C183.651 260.893 183.445 261.3 183.239 261.639C183.033 261.979 182.689 262.25 182.277 262.454C181.865 262.657 181.384 262.725 180.903 262.725H181.04ZM186.469 260.282V258.721H186.675L189.355 255.87H190.935L187.843 259.06H187.637L186.4 260.282H186.469ZM185.232 262.589V253.699H186.538V262.589H185.232ZM189.492 262.589L187.087 259.4L187.981 258.517L191.073 262.589H189.492ZM195.058 254.852V253.699H201.999V254.852H199.182V262.589H197.807V254.852H194.99H195.058ZM203.442 262.589V255.938H204.748V262.589H203.442ZM204.129 254.852C203.923 254.852 203.717 254.785 203.511 254.649C203.373 254.513 203.236 254.31 203.236 254.106C203.236 253.902 203.305 253.699 203.511 253.563C203.648 253.427 203.854 253.359 204.129 253.359C204.404 253.359 204.541 253.427 204.748 253.563C204.885 253.699 205.022 253.902 205.022 254.106C205.022 254.31 204.954 254.513 204.748 254.649C204.61 254.785 204.404 254.852 204.129 254.852ZM206.534 262.589V255.938H207.771V257.024H207.84C207.977 256.685 208.183 256.346 208.527 256.142C208.871 255.938 209.214 255.803 209.695 255.803C210.176 255.803 210.52 255.938 210.795 256.142C211.07 256.346 211.344 256.617 211.482 257.024H211.551C211.688 256.685 211.963 256.413 212.307 256.142C212.65 255.938 213.062 255.803 213.543 255.803C214.024 255.803 214.643 256.006 215.055 256.346C215.468 256.753 215.674 257.296 215.674 258.042V262.522H214.368V258.178C214.368 257.703 214.231 257.431 214.024 257.228C213.75 257.024 213.475 256.956 213.131 256.956C212.788 256.956 212.375 257.092 212.1 257.364C211.894 257.635 211.757 257.974 211.757 258.382V262.657H210.451V258.246C210.451 257.907 210.314 257.567 210.108 257.364C209.901 257.16 209.558 257.024 209.214 257.024C208.871 257.024 208.733 257.024 208.527 257.228C208.321 257.364 208.183 257.499 208.046 257.771C207.909 257.974 207.84 258.246 207.84 258.585V262.725H206.534V262.589ZM220.415 262.725C219.728 262.725 219.178 262.589 218.697 262.318C218.216 262.047 217.873 261.639 217.598 261.096C217.323 260.553 217.185 260.01 217.185 259.264C217.185 258.517 217.323 257.974 217.598 257.431C217.873 256.889 218.216 256.481 218.697 256.21C219.178 255.938 219.728 255.803 220.346 255.803C220.965 255.803 221.102 255.803 221.446 256.006C221.789 256.142 222.133 256.346 222.408 256.617C222.683 256.889 222.889 257.228 223.095 257.635C223.233 258.042 223.37 258.585 223.37 259.196V259.671H218.01V258.721H222.064C222.064 258.382 221.996 258.11 221.858 257.839C221.721 257.567 221.515 257.364 221.24 257.228C220.965 257.092 220.69 257.024 220.346 257.024C220.003 257.024 219.659 257.092 219.384 257.296C219.11 257.499 218.903 257.703 218.766 257.974C218.628 258.246 218.56 258.585 218.56 258.925V259.671C218.56 260.146 218.628 260.486 218.766 260.825C218.903 261.164 219.178 261.368 219.453 261.571C219.728 261.707 220.072 261.843 220.484 261.843C220.896 261.843 220.965 261.843 221.171 261.707C221.377 261.639 221.583 261.504 221.721 261.368C221.858 261.232 221.996 261.028 222.064 260.825L223.301 261.028C223.233 261.368 223.026 261.707 222.752 261.979C222.477 262.25 222.202 262.454 221.789 262.589C221.377 262.725 220.965 262.793 220.484 262.793L220.415 262.725ZM226.05 253.699V262.589H224.744V253.699H226.05ZM227.837 262.589V255.938H229.142V262.589H227.837ZM228.455 254.852C228.249 254.852 228.043 254.785 227.837 254.649C227.699 254.513 227.562 254.31 227.562 254.106C227.562 253.902 227.63 253.699 227.837 253.563C227.974 253.427 228.18 253.359 228.455 253.359C228.73 253.359 228.867 253.427 229.074 253.563C229.211 253.699 229.348 253.902 229.348 254.106C229.348 254.31 229.28 254.513 229.074 254.649C228.936 254.785 228.73 254.852 228.455 254.852ZM232.235 258.585V262.522H230.929V255.87H232.166V256.956H232.235C232.372 256.617 232.647 256.346 232.99 256.074C233.334 255.871 233.746 255.735 234.227 255.735C234.708 255.735 235.121 255.803 235.464 256.006C235.808 256.21 236.083 256.481 236.289 256.821C236.495 257.16 236.564 257.635 236.564 258.178V262.386H235.258V258.314C235.258 257.839 235.121 257.431 234.846 257.16C234.571 256.889 234.227 256.753 233.815 256.753C233.403 256.753 233.265 256.753 232.99 256.956C232.784 257.092 232.578 257.296 232.441 257.499C232.303 257.771 232.235 258.042 232.235 258.382V258.585ZM241.168 262.725C240.481 262.725 239.931 262.589 239.45 262.318C238.969 262.047 238.625 261.639 238.35 261.096C238.075 260.553 237.938 260.01 237.938 259.264C237.938 258.517 238.075 257.974 238.35 257.431C238.625 256.889 238.969 256.481 239.45 256.21C239.931 255.938 240.481 255.803 241.099 255.803C241.718 255.803 241.855 255.803 242.199 256.006C242.542 256.142 242.886 256.346 243.161 256.617C243.435 256.889 243.642 257.228 243.848 257.635C243.985 258.042 244.123 258.585 244.123 259.196V259.671H238.763V258.721H242.817C242.817 258.382 242.748 258.11 242.611 257.839C242.473 257.567 242.267 257.364 241.992 257.228C241.717 257.092 241.443 257.024 241.099 257.024C240.755 257.024 240.412 257.092 240.137 257.296C239.862 257.499 239.656 257.703 239.519 257.974C239.381 258.246 239.312 258.585 239.312 258.925V259.671C239.312 260.146 239.381 260.486 239.519 260.825C239.656 261.164 239.931 261.368 240.206 261.571C240.481 261.707 240.824 261.843 241.236 261.843C241.649 261.843 241.718 261.843 241.924 261.707C242.13 261.639 242.336 261.504 242.473 261.368C242.611 261.232 242.748 261.028 242.817 260.825L244.054 261.028C243.985 261.368 243.779 261.707 243.504 261.979C243.229 262.25 242.954 262.454 242.542 262.589C242.13 262.725 241.718 262.793 241.236 262.793L241.168 262.725ZM250.582 257.499L249.414 257.703C249.414 257.567 249.276 257.431 249.208 257.296C249.07 257.16 248.933 257.024 248.795 256.956C248.589 256.889 248.383 256.821 248.108 256.821C247.833 256.821 247.421 256.889 247.146 257.092C246.871 257.228 246.803 257.431 246.803 257.703C246.803 257.974 246.871 258.11 247.077 258.246C247.215 258.382 247.49 258.517 247.902 258.585L249.002 258.857C249.62 258.992 250.101 259.196 250.376 259.535C250.651 259.807 250.857 260.214 250.857 260.689C250.857 261.164 250.719 261.436 250.513 261.775C250.307 262.114 249.964 262.318 249.551 262.522C249.139 262.725 248.658 262.793 248.108 262.793C247.558 262.793 246.734 262.657 246.253 262.318C245.772 261.979 245.497 261.571 245.36 260.961L246.596 260.757C246.665 261.096 246.871 261.3 247.077 261.504C247.352 261.639 247.627 261.775 248.039 261.775C248.452 261.775 248.795 261.707 249.07 261.504C249.345 261.3 249.483 261.096 249.483 260.825C249.483 260.553 249.414 260.418 249.276 260.282C249.139 260.146 248.864 260.01 248.589 259.943L247.421 259.671C246.803 259.535 246.322 259.332 246.047 258.992C245.772 258.653 245.566 258.314 245.566 257.839C245.566 257.364 245.703 257.092 245.909 256.821C246.115 256.549 246.459 256.278 246.803 256.142C247.215 256.006 247.627 255.87 248.177 255.87C248.933 255.87 249.483 256.006 249.895 256.346C250.307 256.685 250.582 257.092 250.719 257.567L250.582 257.499ZM188.668 275.484V266.594H191.966C192.585 266.594 193.134 266.729 193.547 266.933C193.959 267.137 194.303 267.408 194.509 267.747C194.715 268.087 194.852 268.494 194.852 268.901C194.852 269.308 194.784 269.58 194.646 269.851C194.509 270.123 194.303 270.326 194.096 270.462C193.89 270.598 193.615 270.734 193.341 270.802C193.615 270.869 193.959 271.005 194.234 271.141C194.509 271.344 194.784 271.548 194.921 271.887C195.127 272.227 195.196 272.566 195.196 273.041C195.196 273.516 195.058 273.923 194.852 274.263C194.646 274.602 194.303 274.874 193.89 275.145C193.409 275.349 192.86 275.484 192.172 275.484H188.736H188.668ZM189.973 274.331H191.966C192.585 274.331 193.066 274.195 193.341 273.991C193.615 273.72 193.753 273.448 193.753 273.041C193.753 272.634 193.684 272.498 193.547 272.295C193.409 272.091 193.203 271.887 192.928 271.752C192.653 271.616 192.378 271.548 191.966 271.548H189.973V274.399V274.331ZM189.973 270.394H191.76C192.035 270.394 192.31 270.394 192.585 270.191C192.86 270.055 192.997 269.919 193.203 269.716C193.341 269.512 193.409 269.241 193.409 268.969C193.409 268.698 193.272 268.29 192.997 268.019C192.722 267.747 192.31 267.68 191.829 267.68H189.973V270.394ZM197.464 277.928C197.257 277.928 197.12 277.928 196.914 277.928C196.776 277.928 196.639 277.928 196.57 277.86L196.914 276.774C197.12 276.774 197.395 276.842 197.532 276.842C197.738 276.842 197.876 276.774 198.013 276.638C198.151 276.502 198.288 276.299 198.426 276.027L198.563 275.552L196.089 268.833H197.464L199.182 273.991H199.25L200.968 268.833H202.411L199.663 276.367C199.525 276.706 199.388 276.978 199.182 277.249C198.975 277.52 198.769 277.656 198.494 277.792C198.219 277.928 197.876 277.996 197.532 277.996L197.464 277.928ZM206.809 275.484V274.602L211.551 267.747H206.809V266.594H213.269V267.476L208.527 274.331H213.269V275.484H206.809ZM216.292 266.594V275.484H214.918V266.594H216.292ZM218.216 275.484V266.594H221.446C222.133 266.594 222.752 266.729 223.164 267.001C223.645 267.272 223.988 267.612 224.195 268.019C224.401 268.426 224.538 268.969 224.538 269.512C224.538 270.055 224.401 270.53 224.195 271.005C223.988 271.412 223.645 271.752 223.164 272.023C222.683 272.295 222.133 272.43 221.446 272.43H219.247V271.277H221.308C221.721 271.277 222.133 271.209 222.408 271.073C222.683 270.937 222.889 270.734 223.026 270.462C223.164 270.191 223.233 269.919 223.233 269.58C223.233 269.241 223.233 268.969 223.026 268.698C222.889 268.426 222.683 268.223 222.408 268.087C222.133 267.951 221.79 267.883 221.308 267.883H219.591V275.62H218.216V275.484Z" fill="#01654D"/>
<path d="M188.805 139.498V130.607H192.034C192.722 130.607 193.34 130.743 193.752 131.015C194.233 131.286 194.577 131.625 194.783 132.033C194.989 132.44 195.127 132.983 195.127 133.526C195.127 134.069 194.989 134.544 194.783 135.019C194.577 135.426 194.233 135.765 193.752 136.037C193.271 136.308 192.722 136.444 192.034 136.444H189.835V135.29H191.897C192.309 135.29 192.722 135.222 192.996 135.087C193.271 134.951 193.477 134.747 193.615 134.476C193.752 134.204 193.821 133.933 193.821 133.594C193.821 133.254 193.821 132.983 193.615 132.711C193.477 132.44 193.271 132.236 192.996 132.101C192.722 131.965 192.378 131.897 191.897 131.897H190.179V139.634H188.805V139.498ZM199.387 139.634C198.7 139.634 198.15 139.498 197.669 139.227C197.188 138.955 196.845 138.548 196.57 138.005C196.295 137.462 196.157 136.919 196.157 136.173C196.157 135.426 196.295 134.883 196.57 134.34C196.845 133.797 197.188 133.39 197.669 133.119C198.15 132.847 198.7 132.711 199.318 132.711C199.937 132.711 200.074 132.711 200.418 132.915C200.761 133.051 201.105 133.254 201.38 133.526C201.655 133.797 201.861 134.137 202.067 134.544C202.205 134.951 202.342 135.494 202.342 136.105V136.58H196.982V135.63H201.036C201.036 135.29 200.968 135.019 200.83 134.747C200.693 134.476 200.487 134.272 200.212 134.137C199.937 134.001 199.662 133.933 199.318 133.933C198.975 133.933 198.631 134.001 198.356 134.204C198.082 134.408 197.875 134.612 197.738 134.883C197.601 135.155 197.532 135.494 197.532 135.833V136.58C197.532 137.055 197.601 137.394 197.738 137.734C197.875 138.073 198.15 138.277 198.425 138.48C198.7 138.616 199.044 138.752 199.456 138.752C199.868 138.752 199.937 138.752 200.143 138.616C200.349 138.548 200.555 138.412 200.693 138.277C200.83 138.141 200.968 137.937 201.036 137.734L202.273 137.937C202.205 138.277 201.998 138.616 201.724 138.887C201.449 139.159 201.174 139.362 200.761 139.498C200.349 139.634 199.937 139.702 199.456 139.702L199.387 139.634ZM203.785 139.498V132.847H205.022V133.933H205.091C205.228 133.594 205.434 133.322 205.709 133.119C206.053 132.915 206.396 132.779 206.74 132.779C207.083 132.779 206.946 132.779 207.015 132.779C207.152 132.779 207.221 132.779 207.29 132.779V134.001C207.29 134.001 207.152 134.001 207.015 134.001C206.877 134.001 206.74 134.001 206.602 134.001C206.259 134.001 205.984 134.001 205.778 134.204C205.503 134.34 205.366 134.476 205.228 134.747C205.091 134.951 205.022 135.222 205.022 135.494V139.566H203.716L203.785 139.498ZM208.527 139.498V132.847H209.763V133.933H209.832C209.97 133.594 210.176 133.254 210.519 133.051C210.863 132.847 211.207 132.711 211.688 132.711C212.169 132.711 212.512 132.847 212.787 133.051C213.062 133.254 213.337 133.526 213.474 133.933H213.543C213.68 133.594 213.955 133.322 214.299 133.051C214.642 132.847 215.055 132.711 215.536 132.711C216.017 132.711 216.635 132.915 217.047 133.254C217.46 133.661 217.666 134.204 217.666 134.951V139.43H216.36V135.087C216.36 134.612 216.223 134.34 216.017 134.137C215.742 133.933 215.467 133.865 215.123 133.865C214.78 133.865 214.368 134.001 214.093 134.272C213.887 134.544 213.749 134.883 213.749 135.29V139.566H212.443V135.155C212.443 134.815 212.306 134.476 212.1 134.272C211.894 134.069 211.55 133.933 211.207 133.933C210.863 133.933 210.726 133.933 210.519 134.137C210.313 134.272 210.176 134.408 210.038 134.68C209.901 134.883 209.832 135.155 209.832 135.494V139.634H208.527V139.498ZM219.453 139.498V132.847H220.758V139.498H219.453ZM220.071 131.829C219.865 131.829 219.659 131.761 219.453 131.625C219.315 131.49 219.178 131.286 219.178 131.082C219.178 130.879 219.246 130.675 219.453 130.54C219.59 130.404 219.796 130.336 220.071 130.336C220.346 130.336 220.483 130.404 220.69 130.54C220.827 130.675 220.964 130.879 220.964 131.082C220.964 131.286 220.896 131.49 220.69 131.625C220.552 131.761 220.346 131.829 220.071 131.829ZM225.637 132.847V133.865H221.926V132.847H225.637ZM222.957 131.218H224.263V137.53C224.263 137.801 224.263 137.937 224.4 138.073C224.469 138.209 224.606 138.277 224.675 138.344C224.813 138.344 224.95 138.344 225.087 138.344C225.225 138.344 225.294 138.344 225.362 138.344C225.431 138.344 225.5 138.344 225.568 138.344L225.775 139.43C225.706 139.43 225.568 139.43 225.431 139.498C225.294 139.498 225.087 139.498 224.881 139.498C224.538 139.498 224.194 139.498 223.919 139.295C223.644 139.159 223.369 138.955 223.163 138.684C222.957 138.412 222.888 138.073 222.888 137.666V131.082L222.957 131.218Z" fill="#01654D"/>
<path d="M179.265 432.869H177.891C177.891 432.598 177.753 432.327 177.616 432.123C177.478 431.919 177.272 431.716 177.066 431.58C176.86 431.444 176.654 431.309 176.379 431.241C176.104 431.173 175.829 431.105 175.554 431.105C175.005 431.105 174.592 431.241 174.18 431.512C173.768 431.784 173.424 432.123 173.218 432.666C173.012 433.141 172.874 433.752 172.874 434.498C172.874 435.245 173.012 435.856 173.218 436.331C173.424 436.806 173.768 437.213 174.18 437.485C174.592 437.756 175.073 437.892 175.554 437.892C176.035 437.892 176.104 437.892 176.379 437.756C176.654 437.688 176.86 437.552 177.066 437.417C177.272 437.281 177.478 437.077 177.616 436.874C177.753 436.67 177.891 436.399 177.891 436.127H179.265C179.196 436.534 179.059 436.942 178.853 437.349C178.647 437.688 178.372 438.027 178.028 438.299C177.685 438.57 177.341 438.774 176.929 438.91C176.516 439.046 176.035 439.113 175.554 439.113C174.798 439.113 174.111 438.91 173.493 438.57C172.874 438.231 172.393 437.688 172.05 437.009C171.706 436.331 171.5 435.516 171.5 434.566C171.5 433.616 171.706 432.802 172.05 432.123C172.393 431.444 172.874 430.901 173.493 430.562C174.111 430.223 174.798 430.019 175.554 430.019C176.31 430.019 176.448 430.019 176.86 430.223C177.272 430.358 177.616 430.562 177.959 430.833C178.303 431.105 178.578 431.376 178.784 431.784C178.99 432.123 179.128 432.598 179.196 433.073L179.265 432.869ZM183.594 439.046C182.976 439.046 182.426 438.91 181.945 438.638C181.464 438.367 181.12 437.96 180.846 437.417C180.571 436.874 180.433 436.331 180.433 435.584C180.433 434.838 180.571 434.295 180.846 433.752C181.12 433.209 181.464 432.802 181.945 432.53C182.426 432.259 182.976 432.123 183.594 432.123C184.213 432.123 184.762 432.259 185.243 432.53C185.724 432.802 186.068 433.209 186.343 433.752C186.618 434.295 186.755 434.906 186.755 435.584C186.755 436.263 186.618 436.874 186.343 437.417C186.068 437.96 185.724 438.299 185.243 438.638C184.762 438.978 184.213 439.046 183.594 439.046ZM183.663 437.96C184.075 437.96 184.419 437.824 184.694 437.62C184.969 437.417 185.175 437.145 185.312 436.738C185.45 436.399 185.518 435.991 185.518 435.584C185.518 435.177 185.518 434.77 185.312 434.43C185.175 434.091 184.969 433.752 184.694 433.548C184.419 433.345 184.075 433.209 183.663 433.209C183.251 433.209 182.907 433.345 182.632 433.548C182.357 433.752 182.151 434.023 182.014 434.43C181.876 434.77 181.808 435.177 181.808 435.584C181.808 435.991 181.808 436.399 182.014 436.738C182.151 437.077 182.357 437.349 182.632 437.62C182.907 437.824 183.251 437.96 183.663 437.96ZM188.267 438.91V432.259H189.504V433.345H189.573C189.71 433.005 189.916 432.666 190.26 432.462C190.603 432.259 190.947 432.123 191.428 432.123C191.909 432.123 192.253 432.259 192.527 432.462C192.802 432.666 193.077 432.937 193.215 433.345H193.283C193.421 433.005 193.696 432.734 194.039 432.462C194.383 432.259 194.795 432.123 195.276 432.123C195.757 432.123 196.376 432.327 196.788 432.666C197.2 433.073 197.406 433.616 197.406 434.363V438.842H196.101V434.498C196.101 434.023 195.963 433.752 195.757 433.548C195.482 433.345 195.207 433.277 194.864 433.277C194.52 433.277 194.108 433.412 193.833 433.684C193.627 433.955 193.49 434.295 193.49 434.702V438.978H192.184V434.566C192.184 434.227 192.046 433.887 191.84 433.684C191.634 433.48 191.291 433.345 190.947 433.345C190.603 433.345 190.466 433.345 190.26 433.548C190.054 433.684 189.916 433.888 189.779 434.091C189.641 434.295 189.573 434.566 189.573 434.906V439.046H188.267V438.91ZM199.193 441.421V432.259H200.499V433.345H200.636C200.705 433.209 200.842 433.073 200.98 432.869C201.117 432.666 201.323 432.53 201.598 432.394C201.873 432.259 202.217 432.191 202.629 432.191C203.041 432.191 203.66 432.327 204.072 432.598C204.484 432.869 204.828 433.277 205.103 433.752C205.378 434.295 205.446 434.906 205.446 435.584C205.446 436.263 205.309 436.942 205.103 437.417C204.828 437.96 204.553 438.299 204.072 438.57C203.66 438.842 203.179 438.978 202.629 438.978C202.079 438.978 201.873 438.978 201.598 438.774C201.323 438.638 201.117 438.503 200.98 438.299C200.842 438.095 200.705 437.96 200.636 437.824H200.567V441.353H199.262L199.193 441.421ZM200.43 435.584C200.43 436.059 200.499 436.467 200.636 436.806C200.774 437.145 200.98 437.417 201.255 437.62C201.529 437.824 201.804 437.892 202.217 437.892C202.629 437.892 202.904 437.756 203.179 437.552C203.454 437.349 203.66 437.077 203.797 436.738C203.935 436.399 204.003 435.991 204.003 435.516C204.003 435.041 204.003 434.702 203.797 434.363C203.66 434.023 203.454 433.752 203.179 433.548C202.904 433.345 202.56 433.277 202.217 433.277C201.873 433.277 201.529 433.345 201.255 433.548C200.98 433.752 200.774 434.023 200.636 434.363C200.499 434.702 200.43 435.109 200.43 435.584ZM208.126 430.019V438.91H206.821V430.019H208.126ZM212.799 439.046C212.112 439.046 211.562 438.91 211.081 438.638C210.6 438.367 210.257 437.96 209.982 437.417C209.707 436.874 209.569 436.331 209.569 435.584C209.569 434.838 209.707 434.295 209.982 433.752C210.257 433.209 210.6 432.802 211.081 432.53C211.562 432.259 212.112 432.123 212.73 432.123C213.349 432.123 213.486 432.123 213.83 432.327C214.173 432.462 214.517 432.666 214.792 432.937C215.067 433.209 215.273 433.548 215.479 433.955C215.616 434.363 215.754 434.906 215.754 435.516V435.991H210.394V435.041H214.448C214.448 434.702 214.38 434.43 214.242 434.159C214.105 433.888 213.899 433.684 213.624 433.548C213.349 433.412 213.074 433.345 212.73 433.345C212.387 433.345 212.043 433.412 211.768 433.616C211.493 433.82 211.287 434.023 211.15 434.295C211.012 434.566 210.944 434.906 210.944 435.245V435.991C210.944 436.467 211.012 436.806 211.15 437.145C211.287 437.485 211.562 437.688 211.837 437.892C212.112 438.027 212.455 438.163 212.868 438.163C213.28 438.163 213.349 438.163 213.555 438.027C213.761 437.96 213.967 437.824 214.105 437.688C214.242 437.552 214.38 437.349 214.448 437.145L215.685 437.349C215.616 437.688 215.41 438.027 215.135 438.299C214.861 438.57 214.586 438.774 214.173 438.91C213.761 439.046 213.349 439.113 212.868 439.113L212.799 439.046ZM220.289 432.259V433.277H216.579V432.259H220.289ZM217.609 430.63H218.915V436.942C218.915 437.213 218.915 437.349 219.052 437.485C219.121 437.62 219.259 437.688 219.327 437.756C219.465 437.756 219.602 437.756 219.74 437.756C219.877 437.756 219.946 437.756 220.014 437.756C220.083 437.756 220.152 437.756 220.221 437.756L220.427 438.842C220.358 438.842 220.221 438.842 220.083 438.91C219.946 438.91 219.74 438.91 219.533 438.91C219.19 438.91 218.846 438.91 218.571 438.706C218.296 438.57 218.022 438.367 217.815 438.095C217.609 437.824 217.541 437.485 217.541 437.077V430.494L217.609 430.63ZM221.732 438.91V432.259H223.038V438.91H221.732ZM222.42 431.173C222.213 431.173 222.007 431.105 221.801 430.969C221.664 430.833 221.526 430.63 221.526 430.426C221.526 430.223 221.595 430.019 221.801 429.883C221.938 429.748 222.145 429.68 222.42 429.68C222.694 429.68 222.832 429.748 223.038 429.883C223.175 430.019 223.313 430.223 223.313 430.426C223.313 430.63 223.244 430.833 223.038 430.969C222.901 431.105 222.694 431.173 222.42 431.173ZM227.642 439.046C227.024 439.046 226.474 438.91 225.993 438.638C225.512 438.367 225.168 437.96 224.893 437.417C224.618 436.874 224.481 436.331 224.481 435.584C224.481 434.838 224.618 434.295 224.893 433.752C225.168 433.209 225.512 432.802 225.993 432.53C226.474 432.259 227.024 432.123 227.642 432.123C228.26 432.123 228.81 432.259 229.291 432.53C229.772 432.802 230.116 433.209 230.391 433.752C230.666 434.295 230.803 434.906 230.803 435.584C230.803 436.263 230.666 436.874 230.391 437.417C230.116 437.96 229.772 438.299 229.291 438.638C228.81 438.91 228.26 439.046 227.642 439.046ZM227.642 437.96C228.054 437.96 228.398 437.824 228.673 437.62C228.948 437.417 229.154 437.145 229.291 436.738C229.429 436.399 229.497 435.991 229.497 435.584C229.497 435.177 229.497 434.77 229.291 434.43C229.154 434.091 228.948 433.752 228.673 433.548C228.398 433.345 228.054 433.209 227.642 433.209C227.23 433.209 226.886 433.345 226.611 433.548C226.336 433.752 226.13 434.023 225.993 434.43C225.855 434.77 225.787 435.177 225.787 435.584C225.787 435.991 225.787 436.399 225.993 436.738C226.13 437.077 226.336 437.349 226.611 437.62C226.886 437.824 227.23 437.96 227.642 437.96ZM233.62 434.906V438.842H232.315V432.191H233.552V433.277H233.62C233.758 432.937 234.033 432.666 234.376 432.394C234.72 432.191 235.132 432.055 235.613 432.055C236.094 432.055 236.507 432.123 236.85 432.327C237.194 432.53 237.469 432.802 237.675 433.141C237.881 433.48 237.95 433.955 237.95 434.498V438.706H236.644V434.634C236.644 434.159 236.507 433.752 236.232 433.48C235.957 433.209 235.613 433.073 235.201 433.073C234.789 433.073 234.651 433.073 234.376 433.277C234.17 433.412 233.964 433.616 233.827 433.82C233.689 434.091 233.62 434.363 233.62 434.702V434.906Z" fill="#01654D"/>
</svg>
