<svg version="1.2" xmlns="http://www.w3.org/2000/svg" viewBox="0 0 1588 405" width="1588" height="405">
	<title>beacon-logo-freelogovectors</title>
	<defs>
		<clipPath clipPathUnits="userSpaceOnUse" id="cp1">
			<path d="m-9.03-601.07h1606.06v1607.14h-1606.06z"/>
		</clipPath>
	</defs>
	<style>
		.s0 { fill: #005f9f } 
	</style>
	<g id="Clip-Path: Page 1" clip-path="url(#cp1)">
		<g id="Page 1">
			<path id="Path 1" fill-rule="evenodd" class="s0" d="m178.1 1.8c41.7-5 85.1 3 122 23.8 33.4 18.3 61.4 46.4 79.7 80 19.6 35.5 27.6 77.1 23.6 117.5-4.5 44.7-24.2 87.7-55.7 119.7-27.2 28.6-63 48.7-101.4 57.1-42.5 9.4-88.1 4.8-127.8-13.4-45.3-20.6-82.6-58.6-102-104.4-15.3-35.6-19.6-75.4-13.3-113.5 7.4-44.8 30.7-86.8 64.7-117 30.4-27.5 69.4-45 110.2-49.8zm24.4 162.3v16.4c16.9 0 33.6 0 50.4 0 3.7 65.6 7.1 131.3 10.5 196.9 43.8-15.3 81.5-47.6 103.1-88.9 16.3-30.4 23.3-65.6 21-100-44.6-8.5-89.6-16.1-134.3-24.1-16.8-0.6-33.8-0.2-50.7-0.3zm-169.5-37.3c-8.5 19.3-13.8 39.9-15.5 60.9 44.8-7.7 89.6-16.1 134.4-23.8 16.7-0.3 33.6 0 50.3-0.1v-13.5c-17.4-0.2-34.7 0.3-51.9-0.2-39.2-7.7-78.2-15.6-117.3-23.3zm119.1-8.4q0 8.2 0 16.4c16.7-0.1 33.4 0 50.1-0.1v-16.3zm0.6-18.3c16.4 0.2 32.9 0 49.3 0.2 0.2-17.9 0-35.4 0.2-53-16.6 17.5-33.1 35.1-49.5 52.8zm49.8-82.9q0 14.5 0 29.1c16.7 18.1 33.7 36 50.4 54.1-16.8 0.4-33.5 0.2-50.4 0.2v17.5q25.2 0 50.4 0 0 8.5 0 17.1-25.2 0-50.4 0v14.6q23.8 0 47.5 0.1c4.7 0 9.2-1.4 13.7-2.2 35.8-7.1 71.8-14.1 107.6-21.4-12.1-26-29.9-49.5-52.4-67.5-32.6-26.8-74.3-41.4-116.4-41.6zm-60.9 360.3c19.5 6.8 39.9 10.1 60.4 10.5 0-69.1 0-138.1 0-207.2-16.5 0-33.2 0-49.9 0-3.6 65.6-6.9 131.1-10.5 196.7zm912.6-234.9c15.1-18.7 38.1-30.4 61.8-32.5 18.5-1.3 37.8 0.3 54.5 8.8 9.8 4.7 18.4 11.3 26 18.8-6.8 7.9-13.7 15.6-20.4 23.7-11.4-10.5-24.9-19.5-40.3-21.7-18.3-3.1-37.9 2.9-50.8 16.2-21.5 21.7-23.9 58.7-7.2 83.9 8.4 13.2 22.3 22.6 37.6 25.4 14.9 2.4 30.8-0.2 43.7-8.2 6.6-4.2 12.5-9.2 18.3-14.5 6.6 7.3 13.6 14 20.5 21.1-13.5 14.1-30.5 25.8-49.9 29.5-24.4 5-50.9 2.1-72.1-11.4-20.7-12.7-35.5-34.4-40.3-58-6-28 0.3-59 18.6-81.1zm235.4-31.2c23.3-4.2 48.4-1 68.9 11.4 19.5 11.6 34.1 30.8 40.2 52.7 7.5 26.7 3.5 56.9-12.2 79.9-13.3 19.9-35 33.7-58.5 38.1-23.3 4.3-48.5 1.3-69-11-21.6-12.5-37.1-34.4-42.3-58.8-4.3-21.5-2.1-44.8 8.2-64.4 12.5-25.1 37.3-43.1 64.7-47.9zm7.7 28.4c-17.8 2.9-33.7 15-41.9 31-13.1 25.4-8.6 59.3 12.4 79.3 14.3 13.5 35.3 18.9 54.4 14.4 16.6-3.3 30.9-14.6 38.7-29.4 14.5-26.5 9.2-63.1-14.6-82.6-13.3-11.2-31.8-15.7-49-12.7zm-616.8-27.3c44.4 0 88.8 0 133.3 0q0 14.3 0 28.6-50.6 0-101.2 0 0 23.3 0 46.5 44.8 0 89.8 0v28.6q-45 0-89.8 0 0 23.9 0 47.7 51.2 0 102.4 0v28.6q-67.2 0-134.5 0c0-59.9 0-120.1 0-180z"/>
			<path id="Path 2" fill-rule="evenodd" class="s0" d="m839.1 292.5c26-60.4 52.7-120.7 78.9-181.1q14.8 0 29.5 0c26.5 60.2 52.7 120.7 79.2 180.9-11.4 0.2-22.8 0.4-34 0-5.8-14.4-12.1-28.7-18-43.2q-42.3 0.2-84.5 0c-6.1 14.5-12.4 28.9-18.3 43.4-10.9 0-21.8-0.2-32.8 0zm93.2-142.7c-10 23.6-20.1 47.2-30.2 70.7 20.2 0.2 40.5 0 60.9 0.2-10.3-23.7-20.6-47.3-30.7-70.9zm498.5-37.3q14.8 0 29.7 0c32 41.3 63.8 82.6 95.9 123.7-0.2-41.3-0.2-82.4-0.2-123.7q15.8 0 31.4 0 0 90 0 180c-8.9 0-17.9 0-26.7 0-32.9-42.4-65.7-85-98.8-127.3q0 63.7 0 127.3-15.6 0-31.3 0 0-90 0-180zm-927.8 0q40.3 0 80.6 0c16.4 0.2 33.7 3.5 46.1 14.9 17.5 15.8 17.5 46.5 0.5 62.6-3.7 3.7-8 6.4-12.5 9 12.5 4.1 25.3 11.5 31.1 24.1 5 11.2 5.2 24.4 1.3 36.1-4.2 12.6-14.8 22-27 26.7-12.4 5.3-26 6.4-39.3 6.6-26.9 0-53.8 0-80.8 0q0-90 0-180zm31.5 28.6v47.3c15.2-0.2 30.6 0.4 45.9-0.4 9.8-0.3 20.7-3 26.8-11.4 5.6-8.5 5-21.4-3-28.3-5.5-4.9-13.2-6.7-20.6-7.2q-24.6 0-49.1 0zm0 74.3q0 24.2 0 48.5 27.7 0 55.5 0c8.1-0.3 16.4-2.1 22.8-7.1 10.6-8 11-26.3 0-34.4-6.9-5.1-15.9-6.7-24.4-7q-27 0-53.9 0z"/>
		</g>
	</g>
</svg>