<?xml version="1.0" encoding="UTF-8"?> <svg xmlns="http://www.w3.org/2000/svg" id="Layer_1" data-name="Layer 1" viewBox="0 0 406.86 149.31"><defs><style>.cls-1{fill:#000111;}</style></defs><path class="cls-1" d="M0,0H29.16V62.6h.39A27.2,27.2,0,0,1,42.48,53a50.09,50.09,0,0,1,17-2.82,38.32,38.32,0,0,1,18.08,4.18A41.78,41.78,0,0,1,91.08,65.52a52.22,52.22,0,0,1,8.55,16,59.56,59.56,0,0,1,3,19,56.28,56.28,0,0,1-3.31,19.63,44.84,44.84,0,0,1-9.43,15.46,42.51,42.51,0,0,1-14.67,10.11,48.72,48.72,0,0,1-19.06,3.6,32.41,32.41,0,0,1-9.52-1.37,40.6,40.6,0,0,1-8.26-3.49,34.39,34.39,0,0,1-6.61-4.77,31.68,31.68,0,0,1-4.57-5.15h-.39V147H0ZM26.83,99.73q0,10.69,6.12,17.3t17.21,6.61q11.07,0,17.2-6.61t6.13-17.3q0-10.68-6.13-17.3t-17.2-6.61q-11.08,0-17.21,6.61T26.83,99.73Z"></path><path class="cls-1" d="M115.4,22.75a16.27,16.27,0,0,1,5-12,16.89,16.89,0,0,1,23.91,0,16.31,16.31,0,0,1,5,12,16.3,16.3,0,0,1-5,12,16.89,16.89,0,0,1-23.91,0A16.26,16.26,0,0,1,115.4,22.75Zm2.33,29.74h29.16V147H117.73Z"></path><path class="cls-1" d="M166.84,0H196V147H166.84Z"></path><path class="cls-1" d="M215.91,0h29.16V147H215.91Z"></path><path class="cls-1" d="M363.38,147H336.55V134.53h-.38a32.66,32.66,0,0,1-4.57,5.15,35,35,0,0,1-6.61,4.77,40.55,40.55,0,0,1-8.36,3.49,32.79,32.79,0,0,1-9.43,1.37,48.63,48.63,0,0,1-19.05-3.6,42.46,42.46,0,0,1-14.68-10.11A45,45,0,0,1,264,120.14a56,56,0,0,1-3.3-19.63,59.56,59.56,0,0,1,3-19,52.22,52.22,0,0,1,8.55-16,41.88,41.88,0,0,1,13.51-11.18,38.32,38.32,0,0,1,18.08-4.18,50.05,50.05,0,0,1,17,2.82,27.2,27.2,0,0,1,12.93,9.62h.39V0h29.16ZM336.55,99.73q0-10.68-6.12-17.3t-17.2-6.61q-11.09,0-17.21,6.61t-6.12,17.3q0,10.69,6.12,17.3t17.21,6.61q11.07,0,17.2-6.61T336.55,99.73Z"></path><path class="cls-1" d="M379.79,134h-6v-9.33h6Zm2.26,0h16.54v-9.33H382.05Zm7.14-21.21H373.77v9.34h15.42Zm-15.42,33.09h15.42v-9.33H373.77Zm17.68-33.09v9.34h15.41v-9.34Zm0,33.09h15.41v-9.33H391.45Zm9.4-11.88h6v-9.33h-6Zm0,0"></path></svg> 