<?xml version="1.0" encoding="UTF-8"?>
<svg id="Layer_1" data-name="Layer 1" xmlns="http://www.w3.org/2000/svg" viewBox="0 0 1920 1080">
  <defs>
    <style>
      .cls-1 {
        fill: #231f20;
        stroke-width: 0px;
      }
    </style>
  </defs>
  <path class="cls-1" d="m463.83,623.93c0,116.87-66.67,195.31-167.07,195.31-51.77,0-90.99-21.96-112.16-61.97v52.55h-105.1V260.77h108.24v228.25c21.18-38.43,59.61-60.4,110.6-60.4,95.69,0,165.5,82.36,165.5,195.31Zm-111.38,0c0-65.1-34.51-109.03-85.5-109.03s-83.93,43.92-83.93,109.03,33.73,109.03,83.93,109.03,85.5-43.92,85.5-109.03Z"/>
  <path class="cls-1" d="m517.96,623.93c0-117.65,78.44-195.31,197.66-195.31s197.66,77.65,197.66,195.31-78.44,195.31-197.66,195.31-197.66-77.65-197.66-195.31Zm283.94,0c0-65.89-34.51-109.03-86.28-109.03s-86.28,43.14-86.28,109.03,34.51,109.03,86.28,109.03,86.28-43.14,86.28-109.03Z"/>
  <path class="cls-1" d="m975.51,809.82V260.77h108.24v549.06h-108.24Z"/>
  <path class="cls-1" d="m1421.34,260.77h108.24v549.06h-105.11v-52.55c-21.18,40-60.4,61.97-112.16,61.97-100.4,0-167.07-78.44-167.07-195.31s69.81-195.31,165.5-195.31c50.98,0,89.42,21.96,110.6,60.4v-228.25Zm4.71,363.16c0-65.1-33.73-109.03-83.93-109.03s-85.5,43.92-85.5,109.03,34.51,109.03,85.5,109.03,83.93-43.92,83.93-109.03Z"/>
  <path class="cls-1" d="m1711.09,512.55c19.61-61.97,69.02-87.85,129.42-83.93v102.75c-83.93-3.14-124.71,30.59-124.71,121.58v156.87h-108.24v-371.79h103.54v74.51Z"/>
</svg>