<?xml version="1.0" encoding="UTF-8"?><svg id="Layer_1" xmlns="http://www.w3.org/2000/svg" viewBox="0 0 1300 1000"><path d="M846.15,238.39l-3.14,8.92-58.09-32.08-.06-.03,10.29-26.52c14.09,27.67,32.58,40.27,41.32,46.23l.54.36c2.49,1.71,5.23,2.71,8.01,3.03.38.04.76.08,1.13.09Z" fill="#e9e1ce" stroke="#101727" stroke-miterlimit="10" stroke-width="3"/><path d="M851.5,223.2l-5.35,15.19c-.37,0-.75-.05-1.13-.09-2.78-.32-5.52-1.32-8.01-3.03l-.54-.36c-8.74-5.96-27.23-18.56-41.32-46.23h0s9.12-23.5,9.12-23.5l47.23,58.02Z" fill="none" stroke="#101727" stroke-miterlimit="10" stroke-width="3"/><path d="M883.33,133.84c-4.4-3.07-9.25-3.74-13.3-2.47" fill="none" stroke="#101727" stroke-miterlimit="10" stroke-width="4"/><path d="M888.31,120.02l-89.26,13.9c4.57,21.57,8.92,36.49,31.51,46.04,9.36,3.96,19.23,5.51,28.77,4.71,22.01-5.47,27-12.85,30.93-32.62.29-9.69-.26-20.34-1.95-32.03ZM841.88,148.42c-.3,2.78-2.71,4.78-5.4,4.47-2.68-.32-4.62-2.83-4.32-5.62.3-2.78,2.72-4.78,5.41-4.47,2.68.32,4.61,2.83,4.31,5.62ZM879.29,145.67c-.3,2.78-2.72,4.79-5.4,4.47-2.69-.32-4.62-2.83-4.32-5.61.3-2.79,2.72-4.79,5.4-4.47,2.69.31,4.62,2.83,4.32,5.61Z" fill="#e9e1ce" stroke="#101727" stroke-miterlimit="10" stroke-width="3"/><path d="M890.27,152.06s-.01.03-.01.05c-.23,7.88-1.03,15.11-2.22,21.74v.02c-.18.96-.36,1.9-.55,2.83-.19.94-.38,1.87-.59,2.78-.2.92-.42,1.82-.64,2.71,0,.03,0,.06-.02.09-.21.86-.43,1.7-.66,2.54-.23.86-.47,1.71-.71,2.55-.25.84-.5,1.67-.76,2.48-.04.15-.09.3-.14.45-.2.65-.42,1.3-.63,1.93-.01.04-.02.07-.04.1-.25.77-.52,1.53-.79,2.27-.02.06-.04.12-.06.17-.25.71-.51,1.41-.78,2.1-.25.66-.51,1.31-.77,1.95-.39.96-.78,1.91-1.18,2.83-.23.54-.47,1.07-.71,1.6-.53,1.17-1.07,2.31-1.61,3.41-.19.39-.38.77-.57,1.14-.99,1.97-2,3.84-3.01,5.59-.57.98-1.13,1.93-1.69,2.85-1.09,1.76-2.16,3.4-3.2,4.92-.43.63-.85,1.24-1.27,1.83-2.3,3.24-4.38,5.85-6.02,7.91l-.5.63c-3.8,4.78-9.4,7.16-14.99,6.86-.37,0-.75-.05-1.13-.09-2.78-.32-5.52-1.32-8.01-3.03l-.54-.36c-8.74-5.96-27.23-18.56-41.32-46.23h0c-2.92-5.74-5.65-12.12-8.06-19.22-3.22-9.48-5.89-20.25-7.69-32.48l19.65-3.07,89.25-13.94v.05s-89.25,13.9-89.25,13.9c4.57,21.57,8.92,36.49,31.51,46.04,9.36,3.96,19.23,5.51,28.77,4.71,22.01-5.47,27-12.85,30.93-32.62h.01Z" fill="none" stroke="#101727" stroke-miterlimit="10" stroke-width="3"/><path d="M888.31,120.02l-89.26,13.9-19.65,3.06v-.06s-5.44-37.12-5.44-37.12c-3.69-25.3,13.08-48.9,37.47-52.69l5.4-.84,15.18-2.37c24.39-3.8,47.17,13.64,50.86,38.94l4,27.32,1.43,9.8h0s.01.06.01.06Z" fill="#e8bd51"/><path d="M779.38,136.92h0s137.6-21.43,137.6-21.43c2.61-.41,4.4-2.93,4.01-5.63h0c-.4-2.71-2.83-4.57-5.44-4.16l-58.32,9.08" fill="#e8bd51" stroke="#101727" stroke-miterlimit="10" stroke-width="3"/><path d="M787.08,169.46c-6.66.4-14.84.58-21-10.55-6.39-11.54.65-26.12,13.31-21.93,1.8,12.23,4.47,23,7.69,32.48Z" fill="#e9e1ce" stroke="#101727" stroke-miterlimit="10" stroke-width="3"/><path d="M787.81,169.42c-.24,0-.48.03-.73.04" fill="none" stroke="#101727" stroke-miterlimit="10" stroke-width="3"/><path d="M852.33,136c1.88,13.35,9.13,26.37,20.66,34.64,7.04,5.04-4.84,10.65-15.76-.41" fill="none" stroke="#101727" stroke-miterlimit="10" stroke-width="3"/><path d="M888.04,173.85v.02c-.18.96-.36,1.9-.55,2.83-.19.94-.38,1.87-.59,2.78-.2.92-.42,1.82-.64,2.71,0,.03,0,.06-.02.09-.21.86-.43,1.7-.66,2.54-.23.86-.47,1.71-.71,2.55-.25.84-.5,1.67-.76,2.48-.04.15-.09.3-.14.45-.2.65-.42,1.3-.63,1.93-.01.04-.02.07-.04.1-.25.77-.52,1.53-.79,2.27-.02.06-.04.12-.06.17-.25.71-.51,1.41-.78,2.1-.25.66-.51,1.31-.77,1.95-.39.96-.78,1.91-1.18,2.83-.23.54-.47,1.07-.71,1.6-.53,1.17-1.07,2.31-1.61,3.41-.19.39-.38.77-.57,1.14-.99,1.97-2,3.84-3.01,5.59-.57.98-1.13,1.93-1.69,2.85-1.09,1.76-2.16,3.4-3.2,4.92-.43.63-.85,1.24-1.27,1.83-2.3,3.24-4.38,5.85-6.02,7.91l-.5.63c-3.8,4.78-9.4,7.16-14.99,6.86-.37,0-.75-.05-1.13-.09-2.78-.32-5.52-1.32-8.01-3.03l-.54-.36c-8.74-5.96-27.23-18.56-41.32-46.23h0c-2.92-5.74-5.65-12.12-8.06-19.22-3.22-9.48-5.89-20.25-7.69-32.48l19.65-3.07h0c4.57,21.58,8.92,36.5,31.51,46.05,9.36,3.96,19.23,5.51,28.77,4.71,3.01-.25,5.99-.74,8.91-1.47,6.34-1.56,12.4-4.23,17.91-8,.64-.43,1.27-.88,1.89-1.35Z" fill="#101727" stroke="#101727" stroke-miterlimit="10" stroke-width="3"/><path d="M841.88,148.42c-.3,2.78-2.71,4.78-5.4,4.47-2.68-.32-4.62-2.83-4.32-5.62.3-2.78,2.72-4.78,5.41-4.47,2.68.32,4.61,2.83,4.31,5.62Z" fill="#e9e1ce" stroke="#101727" stroke-miterlimit="10" stroke-width="3"/><path d="M879.29,145.67c-.3,2.78-2.72,4.79-5.4,4.47-2.69-.32-4.62-2.83-4.32-5.61.3-2.79,2.72-4.79,5.4-4.47,2.69.31,4.62,2.83,4.32,5.61Z" fill="#e9e1ce" stroke="#101727" stroke-miterlimit="10" stroke-width="3"/><path d="M836.7,134.85c-5.29.24-9.58,2.69-12.11,6.2" fill="none" stroke="#101727" stroke-miterlimit="10" stroke-width="4"/><path d="M814.1,46.56c13.37-2.17,22.65,6.69,22.65,6.69" fill="none" stroke="#101727" stroke-miterlimit="10" stroke-width="3"/><line x1="867.65" y1="222.99" x2="866.3" y2="218.56" fill="none" stroke="#101727" stroke-linejoin="round" stroke-width="3"/><line x1="882.92" y1="273.18" x2="882.91" y2="273.16" fill="none" stroke="#101727" stroke-linejoin="round" stroke-width="3"/><polygon points="851.42 78.84 857.57 62.63 863.72 65.15 857.57 81.36 851.42 78.84" fill="#01654d"/><path d="M861.29,82.99c-4.18,9.25-9.78,12.48-13.19,13.93-1.53-3.5-3.49-9.88-.37-19.72-.23-.17-.47-.33-.7-.51-1.75-1.34-3.3-2.78-4.66-4.29-5.95,15.71-1.25,25.43.52,29.09l.07.15c.34.7.82,1.29,1.39,1.73,1.22.94,2.86,1.23,4.38.64l.19-.07c3.71-1.42,13.55-5.2,19.52-20.86-2.33.29-4.73.28-7.17-.08Z" fill="#fff"/><path d="M890.27,152.02s-.01.06-.01.09c-.94,10.44-2.75,18.31-4.11,23.09-1,3.49-1.75,5.34-1.75,5.34l-16.16,2.66-8.91,1.47c22.01-5.47,27-12.85,30.93-32.62.01-.01.01-.02.01-.03Z" fill="#101727" stroke="#101727" stroke-miterlimit="10" stroke-width="3"/><path d="M862.2,197.03c-.7,4.67-6.98,9.17-13.01,8.26-6.03-.91-10.35-5.43-9.64-10.1.7-4.67,5.1-.65,11.12.26,6.03.91,12.23-3.09,11.52,1.58Z" fill="none" stroke="#e9e1ce" stroke-miterlimit="10" stroke-width="2"/><line x1="968.87" y1="423.32" x2="966.98" y2="423.32" fill="none" stroke="#101727" stroke-miterlimit="10" stroke-width="3"/><path d="M1074.44,380.21v43.11h-48.22v-9.29h-58.93c-16.31-22.3-49.44-27.03-71.06-8.33-2.91,2.52-5.52,5.32-7.89,8.33h-104.06v9.29h-78.07c-.62-1.18-1.22-2.36-1.82-3.55-6.28-12.52-10.4-27.72-18.56-39.56h46.23s26.17.02,82.92,0h18.85l.36,16.86c.12,5.14,4.32,9.22,9.43,9.22h.2c5.14-.11,9.22-4.3,9.22-9.41l.08,3.49c.12,5.21,4.43,9.33,9.63,9.22,5.14-.11,9.22-4.3,9.22-9.41v-.22l-.04-2.03c.11,5.2,4.42,9.33,9.63,9.22,5.13-.12,9.22-4.32,9.22-9.43v-.2l-.37-17.31h184.03Z" fill="#e8bd51" stroke="#101727" stroke-miterlimit="10" stroke-width="3"/><path d="M699.75,423.32h-87.69v-43.11h66.69c1.94,2.61,3.56,5.47,4.89,7.94,6.12,11.35,10.49,23.55,16.11,35.17Z" fill="#587a51" stroke="#101727" stroke-miterlimit="10" stroke-width="3"/><line x1="685.83" y1="380.21" x2="678.74" y2="380.21" fill="none" stroke="#101727" stroke-miterlimit="10" stroke-width="3"/><line x1="706.21" y1="423.32" x2="699.74" y2="423.32" fill="none" stroke="#101727" stroke-miterlimit="10" stroke-width="3"/><line x1="889.05" y1="423.32" x2="882.02" y2="423.32" fill="none" stroke="#101727" stroke-miterlimit="10" stroke-width="3"/><path d="M814.98,380.21c0,.15,0,.31,0,.47" fill="none" stroke="#101727" stroke-miterlimit="10" stroke-width="3"/><line x1="706.21" y1="423.32" x2="699.74" y2="423.32" fill="none" stroke="#101727" stroke-miterlimit="10" stroke-width="3"/><line x1="968.87" y1="423.32" x2="966.98" y2="423.32" fill="none" stroke="#101727" stroke-miterlimit="10" stroke-width="3"/><path d="M1041.85,423.32l-41.58,384.56h-207.28l-33.54-310.21c10.49,7.92,21.97,14.69,34.18,19.55,13.93,5.54,29.02,7.48,42.03-1.34,9.98-6.77,16.78-17.28,22.38-27.95h119.78c16.89,0,31.45-12.86,34.87-30.78l5-26.25h8.53v-7.58h15.63Z" fill="#e8bd51" stroke="#101727" stroke-miterlimit="10" stroke-width="3"/><path d="M793,807.88h-111.14l-19.01-175.79h82.63l-17.89-165.38c8.71,10.69,18.47,20.5,29.32,29,.84.66,1.69,1.31,2.55,1.96l33.54,310.21Z" fill="#01654d" stroke="#101727" stroke-miterlimit="10" stroke-width="3"/><line x1="889.05" y1="423.32" x2="882.02" y2="423.32" fill="none" stroke="#101727" stroke-miterlimit="10" stroke-width="3"/><line x1="759.45" y1="497.67" x2="758.61" y2="489.95" fill="none" stroke="#101727" stroke-miterlimit="10" stroke-width="3"/><line x1="727.58" y1="466.71" x2="726.41" y2="455.85" fill="none" stroke="#101727" stroke-miterlimit="10" stroke-width="3"/><line x1="706.21" y1="423.32" x2="699.74" y2="423.32" fill="none" stroke="#101727" stroke-miterlimit="10" stroke-width="3"/><path d="M765.83,379.86v.35h-74.08l-4.6-27.26c19.03-19.66,50.37-23.08,69.48-15.04l9.2,41.95Z" fill="#e9e1ce" stroke="#101727" stroke-miterlimit="10" stroke-width="3"/><line x1="1094.67" y1="193.1" x2="1094.55" y2="193.22" fill="none" stroke="#101727" stroke-miterlimit="10" stroke-width="3"/><path d="M853.04,396.66v.22c0,5.11-4.08,9.3-9.22,9.41h-.2c-5.11,0-9.31-4.08-9.43-9.22l-.36-16.86h-18.85c.03-10.2,8.19-18.56,18.44-18.79,3.43-.08,6.67.77,9.47,2.32,5.71,3.13,9.64,9.14,9.79,16.12l.36,16.8Z" fill="#a99e53" stroke="#101727" stroke-miterlimit="10" stroke-width="3"/><path d="M871.98,399.96v.22c0,5.11-4.08,9.3-9.22,9.41-5.2.11-9.51-4.01-9.63-9.22l-.08-3.49v-.22l-.36-16.8c-.15-6.98-4.08-12.99-9.79-16.12,2.74-1.67,5.94-2.65,9.38-2.73,3.43-.08,6.67.77,9.47,2.32,5.71,3.13,9.64,9.14,9.79,16.12l.4,18.48.04,2.03Z" fill="#a99e53" stroke="#101727" stroke-miterlimit="10" stroke-width="3"/><path d="M843,247.31c-23.05,0-31.56,33.08-31.56,33.08l-26.62-65,.09-.16,58.09,32.08Z" fill="#e9e1ce" stroke="#101727" stroke-miterlimit="10" stroke-width="3"/><path d="M882.92,273.16c-.52-.78-17.22-25.85-39.91-25.85l3.14-8.92c5.59.3,11.19-2.08,14.99-6.86l.5-.63c1.64-2.06,3.72-4.67,6.02-7.91l15.26,50.17Z" fill="#e9e1ce" stroke="#101727" stroke-miterlimit="10" stroke-width="3"/><path d="M985.31,260.13c-24.13-18.97-61.7-44.97-83.47-42.42l-32.92,3.45c-.43.63-.85,1.24-1.27,1.83l15.26,50.17c-.52-.78-17.22-25.85-39.91-25.85s-31.56,33.08-31.56,33.08l-26.62-65c-13.29,3.88-43.74,7.19-79.69,19.96,0,0-38.19,12.54-27.04,63.9l9.06,53.7c19.03-19.66,50.37-23.08,69.48-15.04l9.2,41.95v.35h49.15c.03-10.2,8.19-18.56,18.44-18.79,3.43-.08,6.67.77,9.47,2.32,2.74-1.67,5.94-2.65,9.38-2.73,3.43-.08,6.67.77,9.47,2.32,2.74-1.67,5.94-2.65,9.38-2.73,10.41-.23,19.03,8.03,19.26,18.44l.03,1.17h63.48v-.35l-21.98-70.5,10.85,8.87c-.31-19.61,19.76-50.74,42.55-58.1ZM850.81,270.79c-.48-2.76,1.29-5.37,3.95-5.83,2.66-.46,5.21,1.4,5.69,4.16.47,2.76-1.3,5.38-3.96,5.83-2.66.46-5.21-1.4-5.68-4.16ZM861.15,297.54c-2.67.46-5.21-1.41-5.69-4.17-.47-2.76,1.3-5.37,3.96-5.83,2.66-.46,5.2,1.41,5.68,4.17.48,2.76-1.29,5.37-3.95,5.83Z" fill="#e9e1ce" stroke="#101727" stroke-miterlimit="10" stroke-width="3"/><path d="M890.79,397.52v.2c0,5.11-4.09,9.31-9.22,9.43-5.21.11-9.52-4.02-9.63-9.22l-.4-18.48c-.15-6.98-4.08-12.99-9.79-16.12,2.74-1.67,5.94-2.65,9.38-2.73,10.41-.23,19.03,8.03,19.26,18.44l.03,1.17.37,17.31Z" fill="#a99e53" stroke="#101727" stroke-miterlimit="10" stroke-width="3"/><path d="M861.15,297.54c-2.67.46-5.21-1.41-5.69-4.17-.47-2.76,1.3-5.37,3.96-5.83,2.66-.46,5.2,1.41,5.68,4.17.48,2.76-1.29,5.37-3.95,5.83Z" fill="#e9e1ce" stroke="#101727" stroke-miterlimit="10" stroke-width="3"/><path d="M856.5,274.95c-2.66.46-5.21-1.4-5.68-4.16-.48-2.76,1.29-5.37,3.95-5.83,2.66-.46,5.21,1.4,5.69,4.16.47,2.76-1.3,5.38-3.96,5.83Z" fill="#e9e1ce" stroke="#101727" stroke-miterlimit="10" stroke-width="3"/><line x1="868.92" y1="221.16" x2="868.46" y2="221.21" fill="none" stroke="#101727" stroke-miterlimit="10" stroke-width="3"/><polygon points="643.86 589.13 589.06 519.09 589.06 519.09 643.86 589.13" fill="none" stroke="#101727" stroke-miterlimit="10" stroke-width="3"/><polygon points="643.86 589.13 589.06 519.09 589.06 519.09 643.86 589.13" fill="none" stroke="#101727" stroke-miterlimit="10" stroke-width="3"/><path d="M888.35,414.03c-2.31,2.93-4.4,6.05-6.32,9.29-1.45,2.47-2.82,5.01-4.12,7.58h-93.62v-16.87h104.06Z" fill="#a99e53" stroke="#101727" stroke-miterlimit="10" stroke-width="3"/><path d="M967.29,414.03h58.93v16.87h-141.64c1.39-2.59,2.87-5.14,4.47-7.58,2.14-3.31,4.48-6.44,7.09-9.29h63.79" fill="#a99e53" stroke="#101727" stroke-miterlimit="10" stroke-width="3"/><path d="M888.35,414.03h7.8c-2.61,2.85-4.95,5.98-7.09,9.29-1.6,2.44-3.08,4.99-4.47,7.58h-6.68c1.3-2.57,2.67-5.11,4.12-7.58,1.92-3.24,4.01-6.36,6.32-9.29Z" fill="none" stroke="#101727" stroke-miterlimit="10" stroke-width="3"/><line x1="967.29" y1="414.03" x2="959.93" y2="414.03" fill="none" stroke="#101727" stroke-miterlimit="10" stroke-width="3"/><path d="M1017.69,430.9l-5,26.25c-3.42,17.92-17.98,30.78-34.87,30.78h-119.78c1.32-2.5,2.57-5.01,3.78-7.48,7.53-15.39,13.54-31.48,21.3-46.76.48-.93.96-1.86,1.46-2.79h133.11Z" fill="#a99e53" stroke="#101727" stroke-miterlimit="10" stroke-width="3"/><path d="M877.9,430.9c-2.57,5.07-4.87,10.26-7.13,15.31-6.23,13.95-11.83,28.38-19.36,41.72h-18.73c-16.89,0-31.45-12.86-34.87-30.78l-5-26.25h85.09Z" fill="#a99e53" stroke="#101727" stroke-miterlimit="10" stroke-width="3"/><path d="M884.58,430.9c-.5.93-.98,1.86-1.46,2.79-7.76,15.28-13.77,31.37-21.3,46.76-1.21,2.47-2.46,4.98-3.78,7.48h-6.63c7.53-13.34,13.13-27.77,19.36-41.72,2.26-5.05,4.56-10.24,7.13-15.31h6.68Z" fill="none" stroke="#101727" stroke-miterlimit="10" stroke-width="3"/><path d="M684.59,607.34c-.06,9.31-.88,18.58-2.69,27.72-1.67,8.42-3.51,18.13-8.76,25.13-11.08,14.75-32.77,13.52-49.09,12.26-9.53-.74-18.61-2.71-27.33-6.69-7.78-3.56-15.05-8.1-22.37-12.52-6.83-4.13-13.75-8.4-21.5-10.54-7.56-2.09-15.69-1.99-23.46-1.66-16.82.7-33.64,4.42-47.17,14.91-3.02,2.34,1.57,5.81,4.24,3.73,13.57-10.53,31.01-13.32,47.76-13.49,9.85-.1,18.55,1.26,27.33,5.93,7.76,4.13,15.06,9.08,22.73,13.37,7.39,4.14,15.14,7.78,23.39,9.83,8.64,2.15,17.7,2.68,26.57,2.96,15.33.5,32.72-1.6,43.14-14.24,5.89-7.15,8.07-16.91,9.94-25.76,2.15-10.18,3.21-20.53,3.28-30.93.02-3.45-5.98-3.46-6,0Z" fill="#587a51" stroke="#101727" stroke-miterlimit="10" stroke-width="3"/><path d="M700.94,607.37c-.31-3.42-6.31-3.42-6,0,1.8,19.92.84,40.49-7.38,59.01-7.53,16.97-21,30.73-38.77,36.74-17.84,6.03-37.04,4.7-54.75-1.06-9.53-3.1-18.62-7.47-27.29-12.49-8.06-4.67-15.57-10.33-23.88-14.57-20.22-10.31-41.97-5.7-63.6-4.78-3.78.16-3.82,5.44,0,5.28,21.93-.93,43.45-5.66,63.63,5.71,8.92,5.02,17.18,11.09,26.22,15.92,8.76,4.67,17.96,8.58,27.52,11.3,17.98,5.11,37.53,5.6,55.26-.75,16.68-5.97,30.02-18.01,38.36-33.57,10.96-20.45,12.73-44,10.67-66.74Z" fill="#587a51" stroke="#101727" stroke-miterlimit="10" stroke-width="3"/><path d="M851.42,487.93c-1.39,2.49-2.86,4.94-4.41,7.35-4.41,6.83-9.78,13.49-16.89,17.65-8.29,4.84-17.65,4.63-26.65,2.06-15.31-4.36-29.87-13.26-42.32-23.02-.85-.67-1.69-1.34-2.53-2.02l-7.2-66.63h32.87v7.58h8.53l5,26.25c3.42,17.92,17.98,30.78,34.87,30.78h18.73Z" fill="#e8bd51" stroke="#101727" stroke-miterlimit="10" stroke-width="3"/><path d="M726.42,455.85c-7.61-10.26-14.32-21.21-20.2-32.53h16.68l3.52,32.53Z" fill="#587a51" stroke="#101727" stroke-miterlimit="10" stroke-width="3"/><path d="M959.94,414.03h-63.79c6.45-7.09,14.45-12.42,24.78-14.25,14.91-2.63,29.44,3.26,39.01,14.25Z" fill="#e8bd51" stroke="#101727" stroke-miterlimit="10" stroke-width="3"/><path d="M758.61,489.95c-12.16-9.93-22.86-21.49-32.2-34.1l-3.52-32.53h28.52l7.2,66.63Z" fill="#01654d" stroke="#101727" stroke-miterlimit="10" stroke-width="3"/><path d="M959.93,414.03c-9.57-10.99-24.1-16.88-39.01-14.25-10.33,1.83-18.33,7.16-24.78,14.25-2.61,2.85-4.95,5.98-7.09,9.29-1.6,2.44-3.08,4.99-4.47,7.58-.5.93-.98,1.86-1.46,2.79-7.76,15.28-13.77,31.37-21.3,46.76-1.21,2.47-2.46,4.98-3.78,7.48-5.6,10.67-12.4,21.18-22.38,27.95-13.01,8.82-28.1,6.88-42.03,1.34-12.21-4.86-23.69-11.63-34.18-19.55-.86-.65-1.71-1.3-2.55-1.96-10.85-8.5-20.61-18.31-29.32-29-9.49-11.63-17.74-24.29-24.82-37.44-1.06-1.96-2.06-3.95-3.02-5.95-5.62-11.62-9.99-23.82-16.11-35.17-1.33-2.47-2.95-5.33-4.89-7.94-3.37-4.55-7.74-8.38-13.32-8.2-6,.18-10.64,3.77-14.37,8.2h-7.24c3.87-5.32,8.55-9.99,14.93-12.23,7.35-2.57,14.76-.98,20.41,4.35,2.52,2.37,4.72,5.03,6.68,7.88,8.16,11.84,12.28,27.04,18.56,39.56.6,1.19,1.2,2.37,1.82,3.55,5.88,11.32,12.59,22.27,20.2,32.53,9.34,12.61,20.04,24.17,32.2,34.1.84.68,1.68,1.35,2.53,2.02,12.45,9.76,27.01,18.66,42.32,23.02,9,2.57,18.36,2.78,26.65-2.06,7.11-4.16,12.48-10.82,16.89-17.65,1.55-2.41,3.02-4.86,4.41-7.35,7.53-13.34,13.13-27.77,19.36-41.72,2.26-5.05,4.56-10.24,7.13-15.31,1.3-2.57,2.67-5.11,4.12-7.58,1.92-3.24,4.01-6.36,6.32-9.29,2.37-3.01,4.98-5.81,7.89-8.33,21.62-18.7,54.75-13.97,71.06,8.33" fill="#587a51" stroke="#101727" stroke-miterlimit="10" stroke-width="3"/><path d="M1108.1,277.2l-13.55,12.35-68.96,69.71c-9.03,7.99-22.52,8.25-31.85.62l-50.98-41.65c-.31-19.61,19.76-50.74,42.55-58.1h0c13.47,10.59,22.75,18.98,22.75,18.98l50.09-49.75.22.22,49.72,47.62Z" fill="#e9e1ce" stroke="#101727" stroke-miterlimit="10" stroke-width="3"/><path d="M1174.42,153.17c0,2.94-1.27,5.85-3.71,7.86l-29.94,24.48-7.78,6.36-16.41,13.42c-4.26,3.5-4.96,9.76-1.59,14.13,2.02,2.62,5.04,3.97,8.09,3.97,2.38,0,4.77-.82,6.72-2.52l8.38-7.32c.99-.86,2.09-1.51,3.26-1.93,2.44-.9,5.13-.85,7.53.14,1.27.51,2.45,1.29,3.46,2.31,2,2.02,3.02,4.67,3.02,7.33,0,2.24-.72,4.48-2.18,6.37l-18.13,23.44c-2.38,3.07-5.02,5.93-7.89,8.55l-19.14,17.44-49.72-47.62-.22-.22,36.39-36.14.12.12,63.42-48.27c4.48-3.39,10.86-2.52,14.25,1.96,1.4,1.83,2.07,3.99,2.07,6.14Z" fill="#a99e53" stroke="#101727" stroke-miterlimit="10" stroke-width="3"/><path d="M1142.58,208.31l-1.15,3.31c-1.17.42-2.27,1.07-3.26,1.93l-8.38,7.32c-1.95,1.7-4.34,2.52-6.72,2.52-3.05,0-6.07-1.35-8.09-3.97-3.37-4.37-2.67-10.63,1.59-14.13l16.41-13.42c7.55,1.35,12.15,9.16,9.6,16.44Z" fill="#a99e53" stroke="#101727" stroke-miterlimit="10" stroke-width="3"/><path d="M1132.98,191.87c-.1-.02-.2-.03-.3-.05" fill="none" stroke="#101727" stroke-miterlimit="10" stroke-width="3"/><path d="M1153.69,203.03l-3.15,8.59-1.57.14c-2.4-.99-5.09-1.04-7.53-.14l1.15-3.31c2.55-7.28-2.05-15.09-9.6-16.44l7.78-6.36,4.25,1.08c7.19,1.83,11.22,9.48,8.67,16.44Z" fill="#a99e53" stroke="#101727" stroke-miterlimit="10" stroke-width="3"/><line x1="1140.76" y1="185.51" x2="1140.11" y2="185.34" fill="none" stroke="#101727" stroke-miterlimit="10" stroke-width="3"/><path d="M850.5,313.25c-.14-.43-7.49-65.94-7.49-65.94" fill="none" stroke="#101727" stroke-miterlimit="10" stroke-width="3"/><line x1="746.78" y1="292.88" x2="756.64" y2="337.91" fill="none" stroke="#101727" stroke-linejoin="round" stroke-width="3"/><line x1="941.95" y1="414.03" x2="987.07" y2="414.03" fill="none" stroke="#101727" stroke-miterlimit="10" stroke-width="3"/><path d="M414.69,768.45l-54.81-70.05-9.77-12.49-224.53,175.68,74.35,95.03,224.53-175.68-9.77-12.49ZM369.54,757.5l-57.07,44.65-9.89-12.63,57.07-44.66c1.47-1.15,3.21-1.7,4.93-1.7,2.39,0,4.75,1.06,6.33,3.08,2.73,3.48,2.12,8.53-1.37,11.26Z" fill="#e9e1ce" stroke="#101727" stroke-miterlimit="10" stroke-width="3"/><path d="M698.56,423.32h-133.66l11.43,105.73,12.72-9.96-3.85-4.92,33.45-26.17c8.19-6.41,17.99-9.35,27.63-9.04,12.22.37,24.19,5.97,32.32,16.36l9.87,12.62c14.54,18.57,11.26,45.41-7.32,59.95l-23.28,18.21h0s-10.16,7.95-10.16,7.95l-3.85-4.92-54.9,42.96h132.18l-22.58-208.77ZM587.6,448.1c-3.98,0-7.21-3.23-7.21-7.21s3.23-7.2,7.21-7.2,7.21,3.22,7.21,7.2-3.23,7.21-7.21,7.21ZM608.11,448.1c-3.98,0-7.21-3.23-7.21-7.21s3.23-7.2,7.21-7.2,7.2,3.22,7.2,7.2-3.22,7.21-7.2,7.21Z" fill="#01654d" stroke="#101727" stroke-miterlimit="10" stroke-width="3"/><path d="M688.48,507.94l-9.87-12.62c-8.13-10.39-20.1-15.99-32.32-16.36-9.64-.31-19.44,2.63-27.63,9.04l-33.45,26.17,3.85,4.92h0l54.8,70.04,3.85,4.92,10.16-7.94h0s23.28-18.22,23.28-18.22c18.58-14.54,21.86-41.38,7.32-59.95ZM659.35,550.11c-10.13,7.92-24.76,6.14-32.68-3.99-7.92-10.12-6.14-24.75,3.99-32.68,10.12-7.92,24.75-6.13,32.68,3.99,7.92,10.13,6.13,24.76-3.99,32.68Z" fill="#e9e1ce" stroke="#101727" stroke-miterlimit="10" stroke-width="3"/><path d="M659.35,550.11c-10.13,7.92-24.76,6.14-32.68-3.99-7.92-10.12-6.14-24.75,3.99-32.68,10.12-7.92,24.75-6.13,32.68,3.99,7.92,10.13,6.13,24.76-3.99,32.68Z" fill="#a99e53" stroke="#101727" stroke-miterlimit="10" stroke-width="3"/><path d="M745.48,632.09h-24.33l-22.58-208.77h1.18c.96,2,1.96,3.99,3.02,5.95,7.08,13.15,15.33,25.81,24.82,37.44l17.89,165.38Z" fill="#587a51" stroke="#101727" stroke-miterlimit="10" stroke-width="3"/><path d="M594.81,440.89c0,3.98-3.23,7.21-7.21,7.21s-7.21-3.23-7.21-7.21,3.23-7.2,7.21-7.2,7.21,3.22,7.21,7.2Z" fill="#a99e53" stroke="#101727" stroke-miterlimit="10" stroke-width="3"/><path d="M615.31,440.89c0,3.98-3.22,7.21-7.2,7.21s-7.21-3.23-7.21-7.21,3.23-7.2,7.21-7.2,7.2,3.22,7.2,7.2Z" fill="#a99e53" stroke="#101727" stroke-miterlimit="10" stroke-width="3"/><polygon points="643.86 589.13 588.96 632.09 414.69 768.45 359.88 698.4 576.33 529.05 589.06 519.09 643.86 589.13" fill="#e9e1ce" stroke="#101727" stroke-miterlimit="10" stroke-width="3"/><path d="M369.54,757.5l-57.07,44.65-9.89-12.63,57.07-44.66c1.47-1.15,3.21-1.7,4.93-1.7,2.39,0,4.75,1.06,6.33,3.08,2.73,3.48,2.12,8.53-1.37,11.26Z" fill="#a99e53" stroke="#101727" stroke-miterlimit="10" stroke-width="3"/></svg>