<svg width="216" height="50" viewBox="0 0 216 50" fill="none" xmlns="http://www.w3.org/2000/svg">
<path d="M42.1305 21.0652L21.0652 0L0 21.0652L4.08742 25.1526L21.0652 8.17483L38.0431 25.1526L42.1305 21.0652Z" fill="black"/>
<path fill-rule="evenodd" clip-rule="evenodd" d="M11.1928 45.9341C5.77163 40.5129 5.77164 31.7234 11.1928 26.3022L21.0088 16.4862L30.8248 26.3022C36.246 31.7234 36.246 40.5129 30.8248 45.9341C25.4036 51.3553 16.6141 51.3553 11.1928 45.9341ZM15.2803 30.3896L21.0088 24.661L26.7374 30.3896C29.9012 33.5534 29.9012 38.6829 26.7374 41.8467C23.5736 45.0105 18.4441 45.0105 15.2803 41.8467C12.1165 38.6829 12.1165 33.5534 15.2803 30.3896Z" fill="black"/>
<path d="M76.718 7.71277H82.4544V41.8966H76.718V26.5627H60.6756V41.8966H54.9878V7.71277H60.6756V21.5328H76.718V7.71277Z" fill="black"/>
<path d="M101.651 25.9767C101.651 22.949 99.5611 21.0933 96.3526 21.0933C93.3872 21.0933 91.2968 22.8513 90.9565 25.7814L86.1924 24.9024C86.9702 20.0678 91.151 16.8936 96.3526 16.8936C102.575 16.8936 106.853 20.4096 106.853 26.5627V41.8966H101.651V38.1364C100.242 40.6269 97.2277 42.2873 93.9706 42.2873C89.1092 42.2873 85.7549 39.2107 85.7549 35.011C85.7549 30.1764 89.4981 27.5882 97.0332 26.8069L101.651 26.3186V25.9767ZM90.9565 34.8645C90.9565 36.8179 92.5608 38.1852 95.0401 38.1852C99.1722 38.1852 101.603 35.304 101.651 31.2996V30.2741L96.9846 30.8113C92.9983 31.2508 90.9565 32.7158 90.9565 34.8645Z" fill="black"/>
<path d="M126.034 22.4607C125.159 22.07 123.992 21.8747 122.874 21.8747C119.277 21.8747 116.117 25.0977 116.117 32.7159V41.8967H110.818V17.2843H116.117V21.9724C117.429 19.0423 120.638 16.8936 123.603 16.8936C124.527 16.8936 125.596 17.0401 126.325 17.3331L126.034 22.4607Z" fill="black"/>
<path d="M136.953 41.8967L128.008 17.2843H133.404L139.481 35.6947L145.558 17.2843H151.422L142.058 41.8967H136.953Z" fill="black"/>
<path d="M151.16 29.5905C151.16 22.949 155.341 16.8936 163.119 16.8936C170.994 16.8936 175.175 22.656 175.175 28.6626C175.175 29.3951 175.127 30.4207 175.078 30.8602H156.362C156.848 35.1087 159.57 37.7458 163.459 37.7458C166.668 37.7458 168.953 36.2319 169.585 33.546L174.592 34.8157C173.279 39.5526 169.099 42.2873 163.362 42.2873C155.584 42.2873 151.16 36.2319 151.16 29.5905ZM156.605 26.8069H169.536C169.196 23.4862 167.008 21.0934 163.119 21.0934C159.765 21.0934 157.383 23.1444 156.605 26.8069Z" fill="black"/>
<path d="M187.832 42.2873C181.853 42.2873 178.45 38.5759 177.332 35.0599L181.707 33.2042C182.533 35.8412 184.429 38.0388 187.832 38.0388C190.36 38.0388 192.062 36.5738 192.062 34.8157C192.062 29.4928 178.401 32.96 178.401 23.6327C178.401 19.7748 181.756 16.8936 187.054 16.8936C191.673 16.8936 195.562 19.3353 196.631 22.949L192.256 24.8047C191.624 22.363 189.339 20.9957 187.103 20.9957C184.77 20.9957 183.311 21.9235 183.311 23.5351C183.311 28.272 197.069 24.6582 197.069 34.7669C197.069 39.0155 193.374 42.2873 187.832 42.2873Z" fill="black"/>
<path d="M215.246 41.7013C214.079 42.092 212.718 42.2873 211.357 42.2873C206.739 42.2873 203.287 39.748 203.287 34.132V21.8259H199.009V17.2843H203.287V9.95918H208.586V17.2843H214.906V21.8259H208.586V33.839C208.586 36.2808 209.947 37.5504 211.94 37.5504C212.864 37.5504 213.982 37.4039 214.906 36.9644L215.246 41.7013Z" fill="black"/>
</svg>
