<svg width="176" height="54" viewBox="0 0 176 54" fill="none" xmlns="http://www.w3.org/2000/svg">
<path d="M16.1 8L24 20.2H43.9L36 8H16.1Z" fill="#0F1A42"/>
<path d="M23.7 20.1001V43.2001H39.8C42 43.2001 43.8 41.4001 43.8 39.2001V20.2001H23.7V20.1001Z" fill="#8DF7BD"/>
<path d="M24.2 20.2L16.1 8L8 20.1V39.1C8 41.3 9.8 43.1 12 43.1H24.1V20.1H24.2V20.2Z" fill="#007979"/>
<path d="M53.16 25.0001V10.8201H56.74V25.0001H53.16ZM61.84 25.0001V10.8201H65.42V25.0001H61.84ZM55.2 19.2401V16.2401H63.14V19.2401H55.2Z" fill="#0F1A42"/>
<path d="M74.8451 25.2601C73.7518 25.2601 72.7451 25.0734 71.8251 24.7001C70.9051 24.3267 70.0985 23.8067 69.4051 23.1401C68.7251 22.4734 68.1918 21.6934 67.8051 20.8001C67.4185 19.8934 67.2251 18.9201 67.2251 17.8801C67.2251 16.8401 67.4118 15.8801 67.7851 15.0001C68.1718 14.1067 68.7051 13.3267 69.3851 12.6601C70.0651 11.9934 70.8651 11.4801 71.7851 11.1201C72.7051 10.7467 73.7118 10.5601 74.8051 10.5601C75.8985 10.5601 76.9051 10.7467 77.8251 11.1201C78.7451 11.4801 79.5451 11.9934 80.2251 12.6601C80.9051 13.3267 81.4318 14.1067 81.8051 15.0001C82.1918 15.8934 82.3851 16.8601 82.3851 17.9001C82.3851 18.9401 82.1918 19.9067 81.8051 20.8001C81.4318 21.6934 80.9051 22.4801 80.2251 23.1601C79.5451 23.8267 78.7451 24.3467 77.8251 24.7201C76.9185 25.0801 75.9251 25.2601 74.8451 25.2601ZM74.8051 22.0601C75.6051 22.0601 76.2985 21.8867 76.8851 21.5401C77.4718 21.1934 77.9251 20.7067 78.2451 20.0801C78.5651 19.4534 78.7251 18.7201 78.7251 17.8801C78.7251 17.2667 78.6318 16.7067 78.4451 16.2001C78.2718 15.6934 78.0118 15.2601 77.6651 14.9001C77.3185 14.5267 76.9051 14.2401 76.4251 14.0401C75.9451 13.8401 75.4051 13.7401 74.8051 13.7401C74.0051 13.7401 73.3118 13.9134 72.7251 14.2601C72.1385 14.5934 71.6851 15.0734 71.3651 15.7001C71.0451 16.3267 70.8851 17.0534 70.8851 17.8801C70.8851 18.5201 70.9718 19.1001 71.1451 19.6201C71.3318 20.1267 71.5985 20.5667 71.9451 20.9401C72.2918 21.3001 72.7051 21.5801 73.1851 21.7801C73.6651 21.9667 74.2051 22.0601 74.8051 22.0601Z" fill="#0F1A42"/>
<path d="M84.1756 25.0001V10.8201H86.7556L92.1956 19.0401H90.9756L96.3956 10.8201H98.9756V25.0001H95.4356V16.7401L95.9956 16.9001L92.7356 21.8001H90.4156L87.1756 16.9001L87.7356 16.7401V25.0001H84.1756Z" fill="#0F1A42"/>
<path d="M101.5 25.0001V10.8201H105.08V25.0001H101.5ZM104.34 25.0001V21.9801H112.02V25.0001H104.34ZM104.34 19.2401V16.3001H111.3V19.2401H104.34ZM104.34 13.8401V10.8201H111.9V13.8401H104.34Z" fill="#0F1A42"/>
<path d="M57.6 44.2201C56.4133 44.2201 55.38 44.0401 54.5 43.6801C53.6333 43.3201 52.84 42.7534 52.12 41.9801L54.38 39.7001C54.8733 40.2201 55.4 40.6201 55.96 40.9001C56.52 41.1667 57.1533 41.3001 57.86 41.3001C58.46 41.3001 58.92 41.2001 59.24 41.0001C59.5733 40.7867 59.74 40.5001 59.74 40.1401C59.74 39.8067 59.62 39.5334 59.38 39.3201C59.14 39.0934 58.82 38.9001 58.42 38.7401C58.0333 38.5667 57.6 38.4067 57.12 38.2601C56.6533 38.1001 56.18 37.9134 55.7 37.7001C55.2333 37.4734 54.8 37.2001 54.4 36.8801C54.0133 36.5601 53.7 36.1601 53.46 35.6801C53.22 35.2001 53.1 34.6067 53.1 33.9001C53.1 32.9934 53.3133 32.2201 53.74 31.5801C54.18 30.9401 54.7867 30.4467 55.56 30.1001C56.3333 29.7534 57.2333 29.5801 58.26 29.5801C59.2867 29.5801 60.2333 29.7534 61.1 30.1001C61.9667 30.4467 62.68 30.9267 63.24 31.5401L60.96 33.8001C60.5333 33.3734 60.1 33.0534 59.66 32.8401C59.22 32.6267 58.74 32.5201 58.22 32.5201C57.7267 32.5201 57.34 32.6067 57.06 32.7801C56.78 32.9534 56.64 33.2001 56.64 33.5201C56.64 33.8401 56.76 34.1001 57 34.3001C57.24 34.5001 57.5533 34.6801 57.94 34.8401C58.34 34.9867 58.7733 35.1401 59.24 35.3001C59.72 35.4601 60.1933 35.6467 60.66 35.8601C61.1267 36.0734 61.5533 36.3467 61.94 36.6801C62.34 37.0134 62.66 37.4334 62.9 37.9401C63.14 38.4467 63.26 39.0601 63.26 39.7801C63.26 41.1934 62.76 42.2867 61.76 43.0601C60.7733 43.8334 59.3867 44.2201 57.6 44.2201Z" fill="#007979"/>
<path d="M72.0912 44.2601C70.9979 44.2601 69.9912 44.0734 69.0712 43.7001C68.1512 43.3267 67.3446 42.8067 66.6512 42.1401C65.9712 41.4734 65.4379 40.6934 65.0512 39.8001C64.6646 38.8934 64.4712 37.9201 64.4712 36.8801C64.4712 35.8401 64.6579 34.8801 65.0312 34.0001C65.4179 33.1067 65.9512 32.3267 66.6312 31.6601C67.3112 30.9934 68.1112 30.4801 69.0312 30.1201C69.9512 29.7467 70.9579 29.5601 72.0512 29.5601C73.1446 29.5601 74.1512 29.7467 75.0712 30.1201C75.9912 30.4801 76.7912 30.9934 77.4712 31.6601C78.1512 32.3267 78.6779 33.1067 79.0512 34.0001C79.4379 34.8934 79.6312 35.8601 79.6312 36.9001C79.6312 37.9401 79.4379 38.9067 79.0512 39.8001C78.6779 40.6934 78.1512 41.4801 77.4712 42.1601C76.7912 42.8267 75.9912 43.3467 75.0712 43.7201C74.1646 44.0801 73.1712 44.2601 72.0912 44.2601ZM72.0512 41.0601C72.8512 41.0601 73.5446 40.8867 74.1312 40.5401C74.7179 40.1934 75.1712 39.7067 75.4912 39.0801C75.8112 38.4534 75.9712 37.7201 75.9712 36.8801C75.9712 36.2667 75.8779 35.7067 75.6912 35.2001C75.5179 34.6934 75.2579 34.2601 74.9112 33.9001C74.5646 33.5267 74.1512 33.2401 73.6712 33.0401C73.1912 32.8401 72.6512 32.7401 72.0512 32.7401C71.2512 32.7401 70.5579 32.9134 69.9712 33.2601C69.3846 33.5934 68.9312 34.0734 68.6112 34.7001C68.2912 35.3267 68.1312 36.0534 68.1312 36.8801C68.1312 37.5201 68.2179 38.1001 68.3912 38.6201C68.5779 39.1267 68.8446 39.5667 69.1912 39.9401C69.5379 40.3001 69.9512 40.5801 70.4312 40.7801C70.9112 40.9667 71.4512 41.0601 72.0512 41.0601Z" fill="#007979"/>
<path d="M81.4217 44.0001V29.8201H85.0017V44.0001H81.4217ZM84.2617 44.0001V40.9201H91.1017V44.0001H84.2617Z" fill="#007979"/>
<path d="M98.1211 44.2201C96.9211 44.2201 95.8611 43.9734 94.9411 43.4801C94.0344 42.9734 93.3278 42.2734 92.8211 41.3801C92.3144 40.4867 92.0611 39.4734 92.0611 38.3401V29.8201H95.6211V38.6001C95.6211 39.1067 95.7278 39.5467 95.9411 39.9201C96.1678 40.2801 96.4678 40.5601 96.8411 40.7601C97.2278 40.9467 97.6544 41.0401 98.1211 41.0401C98.6011 41.0401 99.0211 40.9467 99.3811 40.7601C99.7411 40.5601 100.028 40.2801 100.241 39.9201C100.454 39.5601 100.561 39.1267 100.561 38.6201V29.8201H104.161V38.3601C104.161 39.4934 103.908 40.5067 103.401 41.4001C102.894 42.2801 102.188 42.9734 101.281 43.4801C100.388 43.9734 99.3344 44.2201 98.1211 44.2201Z" fill="#007979"/>
<path d="M109.842 44.0001V29.9201H113.422V44.0001H109.842ZM105.502 32.9001V29.8201H117.762V32.9001H105.502Z" fill="#007979"/>
<path d="M119.39 44.0001V29.8201H122.97V44.0001H119.39Z" fill="#007979"/>
<path d="M132.384 44.2601C131.291 44.2601 130.284 44.0734 129.364 43.7001C128.444 43.3267 127.638 42.8067 126.944 42.1401C126.264 41.4734 125.731 40.6934 125.344 39.8001C124.958 38.8934 124.764 37.9201 124.764 36.8801C124.764 35.8401 124.951 34.8801 125.324 34.0001C125.711 33.1067 126.244 32.3267 126.924 31.6601C127.604 30.9934 128.404 30.4801 129.324 30.1201C130.244 29.7467 131.251 29.5601 132.344 29.5601C133.438 29.5601 134.444 29.7467 135.364 30.1201C136.284 30.4801 137.084 30.9934 137.764 31.6601C138.444 32.3267 138.971 33.1067 139.344 34.0001C139.731 34.8934 139.924 35.8601 139.924 36.9001C139.924 37.9401 139.731 38.9067 139.344 39.8001C138.971 40.6934 138.444 41.4801 137.764 42.1601C137.084 42.8267 136.284 43.3467 135.364 43.7201C134.458 44.0801 133.464 44.2601 132.384 44.2601ZM132.344 41.0601C133.144 41.0601 133.838 40.8867 134.424 40.5401C135.011 40.1934 135.464 39.7067 135.784 39.0801C136.104 38.4534 136.264 37.7201 136.264 36.8801C136.264 36.2667 136.171 35.7067 135.984 35.2001C135.811 34.6934 135.551 34.2601 135.204 33.9001C134.858 33.5267 134.444 33.2401 133.964 33.0401C133.484 32.8401 132.944 32.7401 132.344 32.7401C131.544 32.7401 130.851 32.9134 130.264 33.2601C129.678 33.5934 129.224 34.0734 128.904 34.7001C128.584 35.3267 128.424 36.0534 128.424 36.8801C128.424 37.5201 128.511 38.1001 128.684 38.6201C128.871 39.1267 129.138 39.5667 129.484 39.9401C129.831 40.3001 130.244 40.5801 130.724 40.7801C131.204 40.9667 131.744 41.0601 132.344 41.0601Z" fill="#007979"/>
<path d="M141.715 44.0001V29.8201H144.215L145.295 32.7201V44.0001H141.715ZM151.495 44.0001L143.215 33.4801L144.215 29.8201L152.515 40.3401L151.495 44.0001ZM151.495 44.0001L150.575 41.0201V29.8201H154.155V44.0001H151.495Z" fill="#007979"/>
<path d="M160.842 44.2201C159.656 44.2201 158.622 44.0401 157.742 43.6801C156.876 43.3201 156.082 42.7534 155.362 41.9801L157.622 39.7001C158.116 40.2201 158.642 40.6201 159.202 40.9001C159.762 41.1667 160.396 41.3001 161.102 41.3001C161.702 41.3001 162.162 41.2001 162.482 41.0001C162.816 40.7867 162.982 40.5001 162.982 40.1401C162.982 39.8067 162.862 39.5334 162.622 39.3201C162.382 39.0934 162.062 38.9001 161.662 38.7401C161.276 38.5667 160.842 38.4067 160.362 38.2601C159.896 38.1001 159.422 37.9134 158.942 37.7001C158.476 37.4734 158.042 37.2001 157.642 36.8801C157.256 36.5601 156.942 36.1601 156.702 35.6801C156.462 35.2001 156.342 34.6067 156.342 33.9001C156.342 32.9934 156.556 32.2201 156.982 31.5801C157.422 30.9401 158.029 30.4467 158.802 30.1001C159.576 29.7534 160.476 29.5801 161.502 29.5801C162.529 29.5801 163.476 29.7534 164.342 30.1001C165.209 30.4467 165.922 30.9267 166.482 31.5401L164.202 33.8001C163.776 33.3734 163.342 33.0534 162.902 32.8401C162.462 32.6267 161.982 32.5201 161.462 32.5201C160.969 32.5201 160.582 32.6067 160.302 32.7801C160.022 32.9534 159.882 33.2001 159.882 33.5201C159.882 33.8401 160.002 34.1001 160.242 34.3001C160.482 34.5001 160.796 34.6801 161.182 34.8401C161.582 34.9867 162.016 35.1401 162.482 35.3001C162.962 35.4601 163.436 35.6467 163.902 35.8601C164.369 36.0734 164.796 36.3467 165.182 36.6801C165.582 37.0134 165.902 37.4334 166.142 37.9401C166.382 38.4467 166.502 39.0601 166.502 39.7801C166.502 41.1934 166.002 42.2867 165.002 43.0601C164.016 43.8334 162.629 44.2201 160.842 44.2201Z" fill="#007979"/>
</svg>
