<?xml version="1.0" encoding="utf-8"?>
<!-- Generator: Adobe Illustrator 25.0.1, SVG Export Plug-In . SVG Version: 6.00 Build 0)  -->
<svg version="1.0" id="Layer_1" xmlns="http://www.w3.org/2000/svg" xmlns:xlink="http://www.w3.org/1999/xlink" x="0px" y="0px"
	 viewBox="44 166 774 160" style="enable-background:new 44 166 774 160;" xml:space="preserve">
<style type="text/css">
	.st0{fill:currentColor;}
	.st1{fill:none;}
</style>
<polygon class="st0" points="166.9,241.8 202.4,241.8 202.4,205.2 214.9,205.2 214.9,288.2 202.4,288.2 202.4,253.5 166.9,253.5 
	166.9,288.2 154.2,288.2 154.2,205.2 166.9,205.2 "/>
<path class="st0" d="M238.2,262.1c0,5.3,1.4,9.4,4.2,12.5c2.9,3.1,7.1,4.9,11.4,4.7c4.7,0,8.6-1.4,11.4-4.4c2.8-3,4.2-7.2,4.2-12.2
	s-1.4-9.1-4.2-12.2c-2.9-3.1-7.1-4.9-11.4-4.7c-4.2-0.1-8.3,1.6-11.1,4.7C239.7,253.2,238.2,257.1,238.2,262.1z M225.8,261.8
	c-0.1-7.2,2.8-14.1,8.1-19.1c5.2-5.2,12.3-8.1,19.7-8c7.5-0.1,14.7,2.8,20,8c10.7,10.9,10.7,28.4,0,39.4c-5.4,5.2-12.6,7.9-20,7.8
	c-15.2,0.1-27.6-12-27.7-27.2C225.7,262.3,225.7,262.1,225.8,261.8L225.8,261.8z"/>
<path class="st0" d="M304.2,236v30c0,8.6,3.3,13,10.3,13s10.3-4.4,10.3-13v-30H337v30.2c0.1,3.7-0.5,7.3-1.7,10.8
	c-1.1,2.9-2.9,5.4-5.3,7.5c-4.2,3.6-9.1,5.3-15.5,5.3s-11.4-1.7-15.5-5.3c-2.3-2-4.1-4.6-5.3-7.5c-1.1-2.5-1.4-6.1-1.4-10.8V236
	H304.2z"/>
<path class="st0" d="M381.6,244.9l-10,5.3c-1.7-3.3-3.6-4.7-5.8-4.7c-2.1-0.1-3.8,1.6-3.9,3.7c0,0.1,0,0.1,0,0.2
	c0,1.9,2.2,3.9,6.9,5.8c6.4,2.8,10.8,5.3,13,7.5s3.3,5.5,3.3,9.4c0,4.8-2,9.5-5.5,12.8c-3.6,3.2-8.2,4.9-13,4.7
	c-8.9,0-15-4.2-18.6-12.8l10.3-4.7c1.4,2.5,2.5,4.2,3.3,4.7c1.4,1.3,3.3,2,5.3,1.9c4.2,0,6.1-1.9,6.1-5.5c0-2.2-1.7-4.2-4.7-6.1
	c-1.1-0.6-2.5-1.1-3.6-1.7s-2.5-1.1-3.6-1.7c-3.6-1.7-6.1-3.3-7.5-5.3c-1.9-2.3-2.9-5.3-2.8-8.3c0-4.3,1.7-8.4,4.7-11.4
	c3-3,6.9-4.4,11.6-4.4C373.3,234.6,378.3,238,381.6,244.9L381.6,244.9z"/>
<path class="st0" d="M433.5,255.1c-1.7-6.4-5.8-9.7-12.2-9.7c-1.4,0-2.8,0.2-4.2,0.5c-1.3,0.5-2.5,1.1-3.6,1.9c-1.1,0.9-2,1.9-2.8,3
	c-0.9,1.2-1.4,2.7-1.7,4.2L433.5,255.1z M445.7,265.1h-37.4c0.1,3.8,1.6,7.5,4.2,10.3c4.5,4.5,11.6,5.2,16.9,1.7
	c1.9-1.4,4.2-4.2,6.6-8l10.3,5.8c-1.5,2.5-3.1,4.8-5,6.9c-1.6,1.9-3.4,3.5-5.5,4.7c-2,1.2-4.1,2.1-6.4,2.8c-2.5,0.6-5,0.9-7.5,0.8
	c-7.8,0-14.1-2.5-18.9-7.5s-7.2-11.6-7.2-20s2.2-15,6.9-20s10.8-7.5,18.3-7.5c7.8,0,13.9,2.5,18.3,7.5c4.4,5,6.7,11.6,6.7,20.2
	L445.7,265.1L445.7,265.1z"/>
<path class="st0" d="M521.1,262.1c0,5,1.4,9.1,4.2,12.2c2.6,3.1,6.5,4.8,10.5,4.7c4.1,0.1,8.1-1.6,10.8-4.7c2.8-3,4.2-7.2,4.2-12.2
	c0.2-4.4-1.3-8.8-4.2-12.2c-2.7-3.1-6.7-4.8-10.8-4.7c-4.2,0-7.5,1.7-10.5,4.7C522.5,253.3,521.1,257.7,521.1,262.1L521.1,262.1z
	 M550,236h12.2v52.1H550v-5.5c-5,4.7-10.3,6.9-16.1,6.9c-7.2,0-13.3-2.5-18-7.8c-4.7-5.3-6.9-11.9-6.9-20c0-7.8,2.2-14.4,6.9-19.7
	c4.4-5.1,10.8-7.9,17.5-7.8c6.1,0,11.7,2.5,16.4,7.5V236H550z"/>
<polygon class="st0" points="587.7,205.2 587.7,288.4 575.8,288.4 575.8,205.2 "/>
<polygon class="st0" points="613.8,205.2 613.8,288.4 601.6,288.4 601.6,205.2 "/>
<path class="st0" d="M663.2,243h4.7c11.4,0,17.2-4.4,17.2-13.3c0-8.6-5.8-12.8-17.8-12.8h-4.2V243z M663.2,254.6v33.6h-12.5v-83
	h14.2c5.3-0.1,10.6,0.4,15.8,1.4c3.6,0.9,6.9,2.8,9.4,5.5c4.7,4.6,7.3,10.9,7.2,17.5c0,7.5-2.5,13.6-7.5,18s-11.9,6.7-20.5,6.7
	L663.2,254.6L663.2,254.6z"/>
<path class="st0" d="M707.5,236h12.2v4.7c1.7-1.9,3.7-3.4,5.8-4.7c1.9-0.9,4-1.4,6.1-1.4c3,0,6.4,1.1,10,3l-5.5,11.1
	c-1.9-1.5-4.2-2.4-6.7-2.5c-6.7,0-10,5-10,15v27.2h-12.2L707.5,236L707.5,236z"/>
<path class="st0" d="M757.7,262.1c0,5.3,1.4,9.4,4.2,12.5c2.9,3.1,7.1,4.9,11.4,4.7c4.7,0,8.6-1.4,11.4-4.4s4.2-7.2,4.2-12.2
	s-1.4-9.1-4.2-12.2c-2.9-3.1-7.1-4.9-11.4-4.7c-4.2-0.1-8.3,1.6-11.1,4.7C759.2,253.2,757.7,257.1,757.7,262.1L757.7,262.1z
	 M745.2,261.8c-0.1-7.2,2.8-14.1,8-19.1c5.2-5.2,12.3-8.1,19.7-8c7.5-0.1,14.7,2.8,20,8c10.7,10.9,10.7,28.4,0,39.4
	c-5.4,5.2-12.6,7.9-20,7.8c-15.2,0.2-27.6-12-27.7-27.2C745.2,262.4,745.2,262.1,745.2,261.8L745.2,261.8z"/>
<path class="st0" d="M485.4,245.5L485.4,245.5z"/>
<path class="st0" d="M484.5,245.5h2.2c4.5,0.2,8.8,1.4,12.8,3.6v-10.8c-4.5-2.4-9.6-3.7-14.7-3.6c-7.5-0.1-14.8,2.7-20.2,8
	c-5.4,5.1-8.5,12.2-8.3,19.7c-0.1,7.4,2.8,14.5,8,19.7c5.5,5.3,12.2,7.8,20.2,7.8c5.1-0.1,10.2-1.4,14.7-3.9v-10.8
	c-4,2.1-8.3,3.3-12.8,3.6c-0.8,0-1.7,0.3-2.5,0.3c-4.2,0.1-8.2-1.6-11.1-4.7c-3-3.4-4.6-7.7-4.4-12.2c0-4.7,1.4-8.9,4.4-11.9
	C476.4,247.1,480,245.4,484.5,245.5L484.5,245.5z"/>
<path class="st0" d="M485.1,245.5"/>
<polygon class="st0" points="61,213.3 61,280.4 93.7,297.9 93.7,288.4 93.7,278.2 93.7,216.1 93.7,205.8 93.7,194.1 "/>
<polygon class="st0" points="116.8,288.2 103.2,288.2 103.2,280.4 109,280.4 109.3,213 103.2,213 103.2,205.2 117,205.2 "/>
</svg>
