<?xml version="1.0" encoding="UTF-8" standalone="no"?>
<svg
   xmlns:dc="http://purl.org/dc/elements/1.1/"
   xmlns:cc="http://creativecommons.org/ns#"
   xmlns:rdf="http://www.w3.org/1999/02/22-rdf-syntax-ns#"
   xmlns:svg="http://www.w3.org/2000/svg"
   xmlns="http://www.w3.org/2000/svg"
   xmlns:sodipodi="http://sodipodi.sourceforge.net/DTD/sodipodi-0.dtd"
   xmlns:inkscape="http://www.inkscape.org/namespaces/inkscape"
   version="1.1"
   width="448.23926"
   height="97.364738"
   id="svg2"
   inkscape:version="0.48.5 r10040"
   sodipodi:docname="Kohler.svg">
  <metadata
     id="metadata49">
    <rdf:RDF>
      <cc:Work
         rdf:about="">
        <dc:format>image/svg+xml</dc:format>
        <dc:type
           rdf:resource="http://purl.org/dc/dcmitype/StillImage" />
      </cc:Work>
    </rdf:RDF>
  </metadata>
  <defs
     id="defs47" />
  <sodipodi:namedview
     pagecolor="#ffffff"
     bordercolor="#666666"
     borderopacity="1"
     objecttolerance="10"
     gridtolerance="10"
     guidetolerance="10"
     inkscape:pageopacity="0"
     inkscape:pageshadow="2"
     inkscape:window-width="640"
     inkscape:window-height="480"
     id="namedview45"
     showgrid="false"
     fit-margin-top="0.5"
     fit-margin-left="1"
     fit-margin-right="0"
     fit-margin-bottom="0"
     inkscape:zoom="0.76780673"
     inkscape:cx="234.58829"
     inkscape:cy="181.53202"
     inkscape:window-x="0"
     inkscape:window-y="0"
     inkscape:window-maximized="0"
     inkscape:current-layer="svg2" />
  <path
     d="m 162.403,3.179625 24.56125,0 0,31.078125 24.2275,0 0,-31.078125 24.56125,0 0,89.056215 -24.56125,0 0,-33.41696 -24.2275,0 0,33.41696 -24.56125,0 0,-89.056215"
     id="path4"
     inkscape:connector-curvature="0" />
  <path
     d="m 242.103,3.179625 24.56125,0 0,66.082125 27.0675,0 0,22.97409 c -17.21,0 -34.42,0 -51.62875,0 l 0,-89.056215"
     id="path6"
     inkscape:connector-curvature="0" />
  <path
     d="m 298.74425,3.179625 c 16.54125,0 33.0825,0 49.62375,0 l 0,20.467875 -25.0625,0 0,13.70113 25.0625,0 0,20.46824 -25.0625,0 0,13.95113 25.0625,0 0,20.46784 c -16.54125,0 -33.0825,0 -49.62375,0 l 0,-89.056215"
     id="path8"
     inkscape:connector-curvature="0" />
  <path
     d="m 353.88175,3.179625 24.56125,0 c 4.53875,0.101125 9.05875,0.423875 13.53375,1.254875 14.035,2.99375 25.3975,18.126 21.72125,32.59337 -1.67,8.48038 -7.8525,14.96576 -14.70375,19.95451 8.53625,11.66024 16.88,23.45999 25.23,35.25346 l -26.39875,0 C 391.1505,83.64838 384.793,74.74512 378.443,65.98775 l 0,26.24809 -24.56125,0 0,-89.056215 z M 378.443,23.768 l 0,17.376 c 4.03375,-0.18113 8.69,0.69675 11.69625,-2.45312 3.67625,-2.82763 3.67625,-9.146 0.1675,-12.13913 -3.1725,-2.9985 -7.6975,-2.55225 -11.86375,-2.78375"
     id="path10"
     inkscape:connector-curvature="0" />
  <path
     d="M 158.8955,46.8725 C 158.8955,21.263625 138.308,0.5 112.923,0.5 87.53675,0.5 66.94925,21.263625 66.94925,46.8725 c 0,25.60888 20.5875,46.37261 45.97375,46.37261 25.385,0 45.9725,-20.76373 45.9725,-46.37261 z M 112.923,24.076125 c 11.36375,0 20.58,10.207125 20.58,22.795875 0,12.58937 -9.21625,22.79687 -20.58,22.79687 -11.365,0 -20.58125,-10.2075 -20.58125,-22.79687 0,-12.58875 9.21625,-22.795875 20.58125,-22.795875"
     id="path12"
     inkscape:connector-curvature="0" />
  <path
     d="m 80.0305,3.21625 c -11.58,14.183125 -23.3825,28.189 -34.92,42.40287 l 40.1,46.61672 -32.415,0 -27.235,-31.90334 0,31.90334 -24.5605,0 0,-89.056215 24.5605,0 0,26.287625 23.2775,-26.251 31.1925,0"
     id="path14"
     inkscape:connector-curvature="0" />
  <path
     d="m 439.20425,79.29387 c 2.495,0 4.75375,1.01175 6.38875,2.6465 1.635,1.63438 2.64625,3.89409 2.64625,6.38872 0,2.49512 -1.01125,4.7544 -2.64625,6.38916 -1.635,1.63428 -3.89375,2.64649 -6.38875,2.64649 -2.495,0 -4.755,-1.01221 -6.38875,-2.64649 -1.635,-1.63476 -2.6475,-3.89404 -2.6475,-6.38916 0,-2.49463 1.0125,-4.75434 2.6475,-6.38872 1.63375,-1.63475 3.89375,-2.6465 6.38875,-2.6465 z m 5.13625,3.8995 c -1.315,-1.3145 -3.13125,-2.128 -5.13625,-2.128 -2.00625,0 -3.8225,0.8135 -5.13625,2.128 -1.315,1.314 -2.1275,3.13035 -2.1275,5.13572 0,2.00586 0.8125,3.82179 2.1275,5.13623 1.31375,1.31397 3.13,2.12744 5.13625,2.12744 2.005,0 3.82125,-0.81347 5.13625,-2.12744 1.31375,-1.31444 2.1275,-3.13037 2.1275,-5.13623 0,-2.00537 -0.81375,-3.82172 -2.1275,-5.13572"
     id="path41"
     inkscape:connector-curvature="0" />
  <path
     d="m 442.99175,92.91161 -1.74625,0 -1.42375,-3.76757 -2.3225,0 0,3.76757 -1.6525,0 0,-9.16461 3.975,0 c 1.105,0 1.91875,0.24962 2.4375,0.74962 0.52,0.49752 0.77875,1.14351 0.77875,1.93599 0,1.17823 -0.55,1.9873 -1.6525,2.42969 l 1.60625,4.04931 z m -5.4925,-5.08984 2.055,0 c 0.59375,0 1.0375,-0.12402 1.33,-0.37598 0.29,-0.24952 0.435,-0.5957 0.435,-1.03369 0,-0.40283 -0.1425,-0.72851 -0.42875,-0.97608 -0.28625,-0.24951 -0.6875,-0.37353 -1.2025,-0.37353 l -2.18875,0 0,2.75928"
     id="path43"
     inkscape:connector-curvature="0" />
</svg>
