<svg width="1024" height="427" viewBox="0 0 1024 427" fill="none" xmlns="http://www.w3.org/2000/svg">
<path fill-rule="evenodd" clip-rule="evenodd" d="M474.775 76.5025C455.573 86.256 446.749 91.3641 446.466 92.8888C446.24 94.107 446.385 96.414 446.787 98.015C447.19 99.6172 449.937 103.645 452.893 106.968C455.849 110.291 458.839 115.068 459.54 117.585C460.377 120.596 460.815 154.106 460.819 215.56C460.822 266.93 460.504 310.564 460.111 312.524C459.718 314.485 456.444 319.767 452.834 324.261C448.477 329.686 446.271 333.55 446.271 335.754C446.271 337.58 447.045 340.132 447.991 341.425C449.622 343.653 451.69 343.792 487.714 344.087C516.748 344.326 526.433 344.033 528.75 342.846C530.418 341.992 531.964 340.025 532.186 338.475C532.408 336.926 532.287 334.451 531.916 332.977C531.546 331.502 528.576 327.519 525.315 324.125C521.202 319.841 518.965 316.274 518.005 312.465C517.015 308.54 516.621 272.923 516.621 187.289C516.621 80.9191 516.411 67.2988 514.732 64.9071C513.277 62.8314 511.679 62.2283 507.758 62.2731C503.729 62.3179 496.876 65.2752 474.775 76.5025ZM580.785 75.3387C566.374 82.4413 553.685 89.0002 552.584 89.9133C551.443 90.8615 550.583 93.3465 550.583 95.6935C550.583 98.7828 551.754 101.089 555.272 104.93C557.852 107.747 560.99 111.957 562.247 114.289C564.418 118.316 564.551 123.158 564.915 211.775C565.19 278.894 564.907 306.827 563.901 311.457C562.872 316.197 561.098 319.472 557.168 323.891C554.233 327.19 551.506 331.187 551.107 332.774C550.708 334.36 550.564 336.926 550.786 338.475C551.008 340.025 552.554 341.98 554.222 342.819C556.46 343.945 566.785 344.346 593.642 344.346C620.465 344.346 630.827 343.945 633.063 342.822C635.316 341.689 636.189 340.169 636.464 336.904C636.787 333.053 636.003 331.581 630.118 324.995C626.424 320.863 622.85 315.496 622.174 313.069C621.384 310.23 620.944 265.701 620.941 188.128C620.934 81.0063 620.723 67.2988 619.045 64.9071C617.577 62.8144 616.024 62.238 612.07 62.3203C608.182 62.4003 600.818 65.4653 580.785 75.3387ZM3.54965 79.4332C1.88186 80.3209 0.335364 82.3142 0.113397 83.8643C-0.10857 85.4132 0.00546375 87.8594 0.366918 89.2981C0.729586 90.7368 3.48412 94.79 6.48856 98.3044C9.49421 101.82 12.5145 106.717 13.2022 109.189C14.0149 112.108 14.4454 148.283 14.4321 212.381C14.4139 306.388 14.3047 311.309 12.1348 315.922C10.8818 318.587 7.59234 323.448 4.82322 326.725C0.657999 331.654 -0.148573 333.426 0.153448 336.99C0.421506 340.166 1.31421 341.699 3.54965 342.822C5.79115 343.948 16.4868 344.35 44.5407 344.363L82.5008 344.381L85.4773 341.408C87.1147 339.773 88.4551 337.348 88.4551 336.017C88.4551 334.687 85.2299 329.97 81.2878 325.537C76.4179 320.059 73.6973 315.794 72.7973 312.228C72.061 309.308 71.474 296.271 71.474 282.858V258.74L97.2488 258.067C112.235 257.678 127.339 256.611 133.334 255.52C139.004 254.487 146.814 252.55 150.69 251.217C154.566 249.883 161.116 247.128 165.245 245.096C169.375 243.063 176.407 238.665 180.872 235.322C185.337 231.98 191.538 225.863 194.649 221.73C197.761 217.595 201.924 211.018 203.899 207.113C205.872 203.207 208.597 195.847 209.955 190.757C211.746 184.035 212.445 177.522 212.506 166.968C212.563 156.932 211.951 150.024 210.53 144.644C209.398 140.359 206.989 133.547 205.176 129.506C203.364 125.466 199.488 119.221 196.563 115.629C193.638 112.037 189.362 107.405 187.059 105.336C184.757 103.266 178.565 99.0577 173.299 95.9841C168.032 92.9106 158.612 88.7047 152.367 86.6363C146.122 84.5691 135.874 81.9945 129.592 80.9155C120.609 79.3714 106.267 78.8325 62.377 78.3869C17.3856 77.9291 5.99492 78.1326 3.54965 79.4332ZM115.413 107.345C121.699 110.447 126.592 114.085 131.895 119.599C136.832 124.731 140.891 130.504 143.644 136.305C145.958 141.18 148.95 149.479 150.295 154.749C151.975 161.327 152.741 168.27 152.741 176.914C152.741 184.061 151.907 193.157 150.812 197.966C149.504 203.704 147.256 208.851 143.838 213.928C141.062 218.05 136.119 223.425 132.852 225.874C129.585 228.323 123.853 231.288 120.116 232.464C114.859 234.117 109.637 234.557 97.0645 234.409C84.8393 234.264 80.1137 233.761 78.0032 232.381C76.4603 231.372 74.4966 229.32 73.639 227.821C72.4322 225.71 72.0804 212.548 72.0804 169.39C72.0804 138.751 72.5038 112.171 73.0205 110.323C73.5384 108.473 75.1055 105.819 76.504 104.422C78.8546 102.076 80.0724 101.924 92.7585 102.409C105.567 102.899 107.059 103.224 115.413 107.345ZM727.065 162.235C722.395 163.277 714.537 165.806 709.601 167.855C704.667 169.904 696.636 174.247 691.758 177.505C686.878 180.764 680.146 186.499 676.797 190.251C673.448 194.002 668.569 201.197 665.955 206.24C663.341 211.282 660.065 219.114 658.676 223.644C657.286 228.174 655.522 236.757 654.757 242.718C653.699 250.955 653.709 256.242 654.801 264.757C655.59 270.918 657.851 280.778 659.825 286.667C661.799 292.556 664.873 299.913 666.656 303.015C668.438 306.118 672.005 311.381 674.581 314.711C677.156 318.042 682.365 323.352 686.154 326.513C689.943 329.672 696.605 334.113 700.957 336.38C705.31 338.647 713.51 341.96 719.181 343.742C726.45 346.026 733.247 347.17 742.227 347.624C752.184 348.127 757.477 347.742 766.485 345.859C772.823 344.534 781.01 342.102 784.679 340.456C788.348 338.809 794.625 334.979 798.628 331.944C802.631 328.909 807.889 323.79 810.312 320.569C812.737 317.348 816.072 311.987 817.727 308.656C819.381 305.326 821.402 299.772 822.218 296.314C823.033 292.855 823.335 288.873 822.887 287.465C822.439 286.055 820.814 284.425 819.275 283.84C817.735 283.257 815.39 283.062 814.061 283.409C812.733 283.756 809.196 286.853 806.202 290.293C803.208 293.732 797.823 298.294 794.235 300.431C790.647 302.567 784.459 305.155 780.483 306.184C776.507 307.21 770.453 308.051 767.031 308.051C763.608 308.051 756.611 306.979 751.48 305.669C745.768 304.211 739.527 301.547 735.381 298.8C731.657 296.332 726.445 291.577 723.799 288.235C721.152 284.893 717.657 279.536 716.031 276.333L713.075 270.509L726.135 270.502C733.318 270.499 744.397 269.713 750.756 268.755C757.114 267.798 766.484 265.693 771.577 264.079C776.672 262.463 784.466 259.117 788.898 256.642C793.331 254.167 799.859 249.245 803.406 245.705C806.951 242.166 811.421 236.08 813.337 232.182C816.503 225.744 816.822 223.933 816.822 212.381C816.822 200.763 816.514 199.037 813.255 192.399C811.293 188.403 807.052 182.568 803.829 179.434C800.606 176.3 794.024 171.812 789.202 169.461C784.38 167.111 777.159 164.324 773.156 163.268C769.154 162.212 759.056 161.121 750.717 160.844C739.789 160.48 733.184 160.869 727.065 162.235ZM254.745 165.61C233.083 169.087 229.718 169.927 227.757 172.345C226.525 173.864 225.517 176.328 225.517 177.82C225.517 179.31 227.118 182.739 229.075 185.436C231.033 188.134 233.22 190.702 233.936 191.144C234.651 191.585 236.189 193.684 237.351 195.806C239.208 199.196 239.556 205.031 240.215 243.867C240.832 280.259 241.331 289.353 243.035 295.335C244.174 299.332 247.061 306.688 249.451 311.684C252.429 317.909 256.137 323.103 261.233 328.191C265.872 332.825 271.892 337.236 277.242 339.926C282.022 342.33 290.297 345.144 295.941 346.285C303.217 347.758 308.81 348.117 315.824 347.563C321.192 347.139 328.384 346.043 331.809 345.129C335.231 344.213 341.365 341.692 345.438 339.524C349.511 337.357 355.264 332.999 358.224 329.841L363.604 324.097L364.398 327.276C364.834 329.024 366.039 332.245 367.075 334.432C368.139 336.68 371.179 339.708 374.066 341.397C377.28 343.278 382.768 344.894 388.865 345.755C395.975 346.759 401.55 346.769 409.794 345.796C415.975 345.067 423.026 343.496 425.464 342.306C429.587 340.294 429.896 339.762 429.896 334.693C429.896 329.365 429.761 329.176 423.831 326.216C419.671 324.139 417.101 321.858 415.647 318.95C413.696 315.054 413.525 308.74 413.524 240.768C413.521 183.424 413.181 166.359 412.002 164.749C411.165 163.608 408.539 162.359 406.164 161.975C403.759 161.585 390.414 162.971 376.038 165.105C361.843 167.212 348.941 169.522 347.367 170.237C345.794 170.954 344.007 172.966 343.398 174.71C342.756 176.547 342.737 179.08 343.35 180.736C343.932 182.308 346.853 186.308 349.84 189.625C352.829 192.943 355.862 197.649 356.584 200.083C357.457 203.029 357.754 219.698 357.473 249.922C357.098 290.24 356.801 296.033 354.824 301.553C353.599 304.972 350.613 310.383 348.187 313.576C345.762 316.768 341.373 320.645 338.432 322.192C334.596 324.211 331.073 325.005 325.961 325.005C322.041 325.005 317.079 324.253 314.932 323.333C312.785 322.413 309.283 319.824 307.148 317.58C305.015 315.336 302.186 311.048 300.864 308.051C299.541 305.054 297.794 298.787 296.983 294.124C295.875 287.768 295.718 270.8 296.354 226.307C297.074 176.055 296.94 166.61 295.486 164.635C294.188 162.874 292.016 162.221 286.629 161.97C282.704 161.787 268.356 163.425 254.745 165.61ZM867.765 165.663C854.423 167.825 842.59 170 841.469 170.497C840.348 170.994 838.922 172.858 838.3 174.639C837.628 176.564 837.607 179.061 838.246 180.789C838.839 182.389 841.19 185.76 843.47 188.279C845.749 190.798 848.58 194.664 849.762 196.868C851.661 200.415 851.873 204.01 851.608 228.124C851.443 243.11 851.846 263.001 852.503 272.326C853.262 283.081 854.549 291.725 856.023 295.967C857.301 299.646 859.862 305.641 861.712 309.289C863.588 312.991 868.886 319.714 873.698 324.5C879.35 330.122 885.037 334.403 890.205 336.921C894.541 339.036 902.182 341.63 907.186 342.685C913.658 344.049 919.167 344.379 926.28 343.824C931.778 343.396 939.146 342.195 942.654 341.156C946.162 340.117 951.546 337.996 954.62 336.442C957.695 334.888 961.937 332.165 964.05 330.389L967.892 327.162L967.114 340.919C966.687 348.484 965.638 358.762 964.784 363.758C963.93 368.753 962.018 376.045 960.533 379.962C959.05 383.879 955.892 389.231 953.516 391.857C951.141 394.482 947.135 397.68 944.614 398.964C941.514 400.543 937.542 401.299 932.337 401.299C926.457 401.299 923.132 400.547 918.229 398.108C914.319 396.163 910.394 392.971 908.175 389.934C906.174 387.193 901.092 377.832 896.882 369.133C891.621 358.263 887.869 352.125 884.883 349.509C882.495 347.415 878.403 345.062 875.79 344.281C873.008 343.448 868.765 343.199 865.549 343.681C862.529 344.133 858.245 345.706 856.028 347.176C853.81 348.648 850.73 352.299 849.179 355.29C846.883 359.725 846.46 362.077 846.894 368.012C847.252 372.916 848.637 377.688 851.137 382.631C853.428 387.164 857.595 392.509 862.029 396.61C865.98 400.261 873.253 405.231 878.192 407.656C883.131 410.079 891.266 413.22 896.269 414.635C902.279 416.335 910.601 417.443 920.792 417.903C930.558 418.343 939.603 418.053 945.443 417.112C950.517 416.295 958.445 414.344 963.063 412.776C967.682 411.207 974.873 408.146 979.046 405.973C983.912 403.439 990.344 398.311 996.984 391.67C1005.2 383.456 1008.38 379.191 1012.41 371.024C1015.2 365.362 1018.73 355.825 1020.26 349.831C1023.01 338.985 1023.02 338.504 1023.02 251.945C1023.02 167.235 1022.96 164.913 1020.67 163.238C1019.37 162.292 1015.82 161.521 1012.78 161.524C1009.74 161.528 996.882 163.163 984.207 165.157C971.532 167.153 959.707 169.376 957.93 170.099C956.152 170.822 954.059 172.953 953.28 174.833C952.182 177.478 952.201 178.895 953.362 181.087C954.187 182.647 957.156 186.482 959.959 189.61C962.831 192.817 965.698 197.589 966.527 200.549C967.596 204.357 967.886 217.764 967.584 249.357C967.182 291.407 967.073 293.153 964.394 299.841C962.795 303.833 959.327 309.125 956.21 312.327C953.235 315.382 948.919 318.668 946.619 319.628C944.32 320.587 939.592 321.372 936.112 321.372C932.156 321.372 927.806 320.415 924.505 318.82C921.601 317.417 917.867 314.284 916.206 311.857C914.546 309.43 912.016 303.903 910.584 299.574C908.04 291.875 907.99 290.31 908.299 228.571L908.614 165.439L905.811 163.479C904.148 162.316 900.772 161.562 897.515 161.626C894.495 161.685 881.108 163.502 867.765 165.663ZM752.186 182.736C754.785 184.454 758.46 188.297 760.354 191.278C762.247 194.258 764.435 200.09 765.216 204.237C766.274 209.85 766.296 213.902 765.3 220.102C764.565 224.682 763.138 230.404 762.128 232.818C761.118 235.231 758.82 238.754 757.021 240.645C755.222 242.536 752.171 244.906 750.243 245.911C748.314 246.916 742.037 248.5 736.294 249.432C730.551 250.363 721.881 251.126 717.028 251.128C708.532 251.133 708.155 251.01 706.872 247.803C706.138 245.972 705.488 237.933 705.425 229.94C705.333 218.202 705.818 213.775 707.948 206.914C709.399 202.243 712.215 195.967 714.205 192.966C716.196 189.966 719.586 186.211 721.741 184.619C723.896 183.029 727.885 181.001 730.607 180.113C733.344 179.22 738.215 178.747 741.508 179.056C745.117 179.395 749.322 180.845 752.186 182.736Z" fill="#4F46E5"/>
</svg>
