<svg xmlns="http://www.w3.org/2000/svg" xmlns:xlink="http://www.w3.org/1999/xlink" width="1698" zoomAndPan="magnify" viewBox="0 0 1273.5 201.75" height="269" preserveAspectRatio="xMidYMid meet" version="1.0"><defs><clipPath id="dac6b26c58"><path d="M 1233.761719 165.878906 L 1265.984375 165.878906 L 1265.984375 198.101562 L 1233.761719 198.101562 Z M 1233.761719 165.878906 " clip-rule="nonzero"/></clipPath></defs><path fill="#00665e" d="M 522.902344 3.140625 L 519.320312 3.140625 C 466.496094 3.140625 423.554688 46.074219 423.554688 98.882812 L 423.554688 102.464844 C 423.554688 155.273438 466.496094 198.207031 519.320312 198.207031 L 522.902344 198.207031 C 575.722656 198.207031 618.664062 155.273438 618.664062 102.464844 L 618.664062 98.882812 C 618.625 46.074219 575.683594 3.140625 522.902344 3.140625 Z M 577.410156 111.355469 C 577.410156 141.363281 556.949219 160.542969 523.476562 160.542969 C 489.222656 160.542969 464.769531 135.476562 464.769531 100.734375 C 464.769531 65.953125 489.222656 40.886719 523.476562 40.886719 C 550.691406 40.886719 571.03125 56.609375 576.257812 79.742188 L 556.289062 84.804688 C 552.007812 69.082031 540.027344 59.574219 523.476562 59.574219 C 501.492188 59.574219 486.09375 76.121094 486.09375 100.734375 C 486.09375 125.308594 501.492188 141.691406 523.476562 141.691406 C 543.816406 141.691406 556.289062 130.867188 556.621094 115.800781 L 525.289062 115.800781 L 525.289062 98.757812 L 577.410156 98.757812 Z M 577.410156 111.355469 " fill-opacity="1" fill-rule="nonzero"/><path fill="#00665e" d="M 213.996094 3.140625 L 213.996094 198.207031 L 409.144531 198.207031 L 409.144531 3.140625 Z M 354.222656 62.042969 L 290.078125 62.042969 L 290.078125 90.570312 L 348.460938 90.570312 L 348.460938 108.433594 L 290.078125 108.433594 L 290.078125 139.261719 L 354.058594 139.261719 L 354.058594 158.113281 L 268.957031 158.113281 L 268.957031 43.355469 L 354.222656 43.355469 Z M 354.222656 62.042969 " fill-opacity="1" fill-rule="nonzero"/><path fill="#00665e" d="M 109.585938 95.753906 L 73.683594 95.753906 L 73.683594 62.003906 L 109.257812 62.003906 C 123.667969 62.003906 130.417969 67.558594 130.417969 78.714844 C 130.417969 89.910156 123.007812 95.753906 109.585938 95.753906 Z M 109.585938 95.753906 " fill-opacity="1" fill-rule="nonzero"/><path fill="#00665e" d="M 123.007812 3.140625 L 4.4375 3.140625 L 4.4375 198.207031 L 199.542969 198.207031 L 199.542969 79.660156 C 199.585938 37.511719 165.207031 3.140625 123.007812 3.140625 Z M 149.441406 158.113281 L 125.3125 158.113281 L 97.605469 114.648438 L 73.683594 114.648438 L 73.683594 158.113281 L 52.523438 158.113281 L 52.523438 43.355469 L 111.398438 43.355469 C 136.304688 43.355469 151.582031 57.105469 151.582031 78.917969 C 151.582031 98.101562 140.09375 110.902344 120.742188 113.824219 L 120.742188 114.152344 Z M 149.441406 158.113281 " fill-opacity="1" fill-rule="nonzero"/><path fill="#00665e" d="M 738.511719 95.753906 L 702.613281 95.753906 L 702.613281 62.003906 L 738.183594 62.003906 C 752.632812 62.003906 759.34375 67.558594 759.34375 78.714844 C 759.386719 89.910156 751.976562 95.753906 738.511719 95.753906 Z M 738.511719 95.753906 " fill-opacity="1" fill-rule="nonzero"/><path fill="#00665e" d="M 752.058594 3.140625 L 633.484375 3.140625 L 633.484375 198.207031 L 828.59375 198.207031 L 828.59375 79.660156 C 828.59375 37.511719 794.257812 3.140625 752.058594 3.140625 Z M 778.40625 158.113281 L 754.324219 158.113281 L 726.613281 114.648438 L 702.652344 114.648438 L 702.652344 158.113281 L 681.492188 158.113281 L 681.492188 43.355469 L 740.367188 43.355469 C 765.316406 43.355469 780.546875 57.105469 780.546875 78.917969 C 780.546875 98.101562 769.0625 110.902344 749.710938 113.824219 L 749.710938 114.152344 Z M 778.40625 158.113281 " fill-opacity="1" fill-rule="nonzero"/><path fill="#00665e" d="M 1180.566406 100.695312 C 1180.566406 128.394531 1167.636719 139.179688 1143.511719 139.179688 L 1119.425781 139.179688 L 1119.425781 62.042969 L 1143.675781 62.042969 C 1167.761719 62.042969 1180.566406 74.105469 1180.566406 100.695312 Z M 1180.566406 100.695312 " fill-opacity="1" fill-rule="nonzero"/><path fill="#00665e" d="M 1150.058594 3.140625 L 1052.480469 3.140625 L 1052.480469 198.207031 L 1150.058594 198.207031 C 1203.828125 198.207031 1247.589844 154.453125 1247.589844 100.695312 C 1247.632812 46.894531 1203.828125 3.140625 1150.058594 3.140625 Z M 1143.800781 158.03125 L 1098.265625 158.03125 L 1098.265625 43.355469 L 1144.171875 43.355469 C 1179.453125 43.355469 1201.890625 62.867188 1201.890625 100.734375 C 1201.890625 140.003906 1179.289062 158.03125 1143.800781 158.03125 Z M 1143.800781 158.03125 " fill-opacity="1" fill-rule="nonzero"/><path fill="#00665e" d="M 843.003906 3.140625 L 843.003906 198.207031 L 1038.113281 198.207031 L 1038.113281 3.140625 Z M 977.796875 62.207031 L 951.121094 62.207031 L 951.121094 139.261719 L 977.796875 139.261719 L 977.796875 158.113281 L 903.320312 158.113281 L 903.320312 139.261719 L 930 139.261719 L 930 62.207031 L 903.320312 62.207031 L 903.320312 43.355469 L 977.796875 43.355469 Z M 977.796875 62.207031 " fill-opacity="1" fill-rule="nonzero"/><g clip-path="url(#dac6b26c58)"><path fill="#00685e" d="M 1249.871094 167.863281 C 1242.082031 167.863281 1235.746094 174.199219 1235.746094 181.988281 C 1235.746094 189.777344 1242.082031 196.113281 1249.871094 196.113281 C 1257.660156 196.113281 1263.996094 189.777344 1263.996094 181.988281 C 1263.996094 174.199219 1257.660156 167.863281 1249.871094 167.863281 Z M 1249.871094 198.097656 C 1240.988281 198.097656 1233.761719 190.871094 1233.761719 181.988281 C 1233.761719 173.105469 1240.988281 165.878906 1249.871094 165.878906 C 1258.753906 165.878906 1265.984375 173.105469 1265.984375 181.988281 C 1265.984375 190.871094 1258.753906 198.097656 1249.871094 198.097656 " fill-opacity="1" fill-rule="nonzero"/></g><path fill="#00685e" d="M 1247.050781 181.570312 L 1250.078125 181.570312 C 1251.074219 181.570312 1251.851562 181.316406 1252.410156 180.816406 C 1252.96875 180.316406 1253.25 179.628906 1253.25 178.761719 C 1253.25 177.851562 1252.992188 177.148438 1252.476562 176.652344 C 1251.957031 176.152344 1251.1875 175.898438 1250.160156 175.882812 L 1247.050781 175.882812 Z M 1250.335938 183.945312 L 1247.050781 183.945312 L 1247.050781 190.472656 L 1244.101562 190.472656 L 1244.101562 173.503906 L 1250.066406 173.503906 C 1252.027344 173.503906 1253.535156 173.941406 1254.601562 174.820312 C 1255.667969 175.699219 1256.199219 176.972656 1256.199219 178.636719 C 1256.199219 179.773438 1255.925781 180.722656 1255.375 181.488281 C 1254.828125 182.253906 1254.066406 182.84375 1253.085938 183.253906 L 1256.898438 190.320312 L 1256.898438 190.472656 L 1253.738281 190.472656 L 1250.335938 183.945312 " fill-opacity="1" fill-rule="nonzero"/></svg>