<?xml version="1.0" encoding="UTF-8"?><svg id="Layer_1" xmlns="http://www.w3.org/2000/svg" viewBox="0 0 1300 1000"><rect x="83.83" y="499.76" width="672.52" height="385.94" fill="#01654d"/><path d="M757.85,887.2H82.33v-388.94h675.52v388.94ZM85.33,884.2h669.52v-382.94H85.33v382.94Z" fill="#101727"/><rect x="222.95" y="499.76" width="598.88" height="385.94" fill="#e9e1ce"/><path d="M823.32,887.2H221.45v-388.94h601.88v388.94ZM224.45,884.2h595.88v-382.94H224.45v382.94Z" fill="#101727"/><rect x="639.82" y="517.53" width="164.88" height="350.42" fill="#e9e1ce"/><path d="M806.2,869.44h-167.88v-353.42h167.88v353.42ZM641.32,866.44h161.88v-347.42h-161.88v347.42Z" fill="#101727"/><circle cx="426.83" cy="692.73" r="159.52" fill="#587a51"/><path d="M426.83,853.76c-88.79,0-161.02-72.23-161.02-161.02s72.23-161.02,161.02-161.02,161.02,72.23,161.02,161.02-72.23,161.02-161.02,161.02ZM426.83,534.71c-87.13,0-158.02,70.89-158.02,158.02s70.89,158.02,158.02,158.02,158.02-70.89,158.02-158.02-70.89-158.02-158.02-158.02Z" fill="#101727"/><path d="M426.83,839c-80.65,0-146.26-65.61-146.26-146.26s65.61-146.26,146.26-146.26,146.26,65.61,146.26,146.26-65.61,146.26-146.26,146.26ZM426.83,549.47c-78.99,0-143.26,64.27-143.26,143.26s64.27,143.26,143.26,143.26,143.26-64.27,143.26-143.26-64.27-143.26-143.26-143.26Z" fill="#101727"/><path d="M426.83,824.24c-72.51,0-131.5-58.99-131.5-131.5s58.99-131.5,131.5-131.5,131.5,58.99,131.5,131.5-58.99,131.5-131.5,131.5ZM426.83,564.23c-70.86,0-128.5,57.65-128.5,128.5s57.65,128.5,128.5,128.5,128.5-57.65,128.5-128.5-57.65-128.5-128.5-128.5Z" fill="#101727"/><path d="M426.83,809.47c-64.37,0-116.74-52.37-116.74-116.74s52.37-116.74,116.74-116.74,116.74,52.37,116.74,116.74-52.37,116.74-116.74,116.74ZM426.83,578.99c-62.72,0-113.74,51.02-113.74,113.74s51.02,113.74,113.74,113.74,113.74-51.02,113.74-113.74-51.02-113.74-113.74-113.74Z" fill="#101727"/><path d="M426.83,794.71c-56.23,0-101.98-45.75-101.98-101.98s45.75-101.98,101.98-101.98,101.98,45.75,101.98,101.98-45.75,101.98-101.98,101.98ZM426.83,593.75c-54.58,0-98.98,44.4-98.98,98.98s44.4,98.98,98.98,98.98,98.98-44.4,98.98-98.98-44.4-98.98-98.98-98.98Z" fill="#101727"/><path d="M426.83,779.95c-48.09,0-87.22-39.13-87.22-87.22s39.13-87.22,87.22-87.22,87.22,39.13,87.22,87.22-39.13,87.22-87.22,87.22ZM426.83,608.51c-46.44,0-84.22,37.78-84.22,84.22s37.78,84.22,84.22,84.22,84.22-37.78,84.22-84.22-37.78-84.22-84.22-84.22Z" fill="#101727"/><path d="M426.83,765.19c-39.95,0-72.46-32.5-72.46-72.46s32.5-72.46,72.46-72.46,72.46,32.5,72.46,72.46-32.5,72.46-72.46,72.46ZM426.83,623.28c-38.3,0-69.46,31.16-69.46,69.46s31.16,69.46,69.46,69.46,69.46-31.16,69.46-69.46-31.16-69.46-69.46-69.46Z" fill="#101727"/><path d="M426.83,750.43c-31.81,0-57.7-25.88-57.7-57.7s25.88-57.7,57.7-57.7,57.7,25.88,57.7,57.7-25.88,57.7-57.7,57.7ZM426.83,638.04c-30.16,0-54.7,24.54-54.7,54.7s24.54,54.7,54.7,54.7,54.7-24.54,54.7-54.7-24.54-54.7-54.7-54.7Z" fill="#101727"/><rect x="420.29" y="533.32" width="3" height="318.83" fill="#101727"/><rect x="430.37" y="533.32" width="3" height="318.83" fill="#101727"/><rect x="263.86" y="687.67" width="318.83" height="3" transform="translate(-363.34 501.15) rotate(-45)" fill="#101727"/><rect x="270.98" y="694.8" width="318.83" height="3" transform="translate(-366.31 508.32) rotate(-45)" fill="#101727"/><rect x="267.42" y="686.2" width="318.83" height="3" fill="#101727"/><rect x="267.42" y="696.27" width="318.83" height="3" fill="#101727"/><rect x="428.89" y="529.76" width="3" height="318.83" transform="translate(-361.26 506.19) rotate(-45)" fill="#101727"/><rect x="421.77" y="536.88" width="3" height="318.83" transform="translate(-368.38 503.24) rotate(-45)" fill="#101727"/><circle cx="426.83" cy="692.73" r="56.2" fill="#e9e1ce"/><path d="M426.83,750.43c-31.81,0-57.7-25.88-57.7-57.7s25.88-57.7,57.7-57.7,57.7,25.88,57.7,57.7-25.88,57.7-57.7,57.7ZM426.83,638.04c-30.16,0-54.7,24.54-54.7,54.7s24.54,54.7,54.7,54.7,54.7-24.54,54.7-54.7-24.54-54.7-54.7-54.7Z" fill="#101727"/><circle cx="426.83" cy="692.73" r="56.2" fill="#e9e1ce"/><path d="M426.83,750.43c-31.81,0-57.7-25.88-57.7-57.7s25.88-57.7,57.7-57.7,57.7,25.88,57.7,57.7-25.88,57.7-57.7,57.7ZM426.83,638.04c-30.16,0-54.7,24.54-54.7,54.7s24.54,54.7,54.7,54.7,54.7-24.54,54.7-54.7-24.54-54.7-54.7-54.7Z" fill="#101727"/><rect x="122.96" y="885.7" width="76.24" height="22.86" fill="#01654d"/><path d="M200.7,910.07h-79.24v-25.86h79.24v25.86ZM124.46,907.07h73.24v-19.86h-73.24v19.86Z" fill="#101727"/><rect x="248.75" y="885.7" width="76.24" height="22.86" fill="#01654d"/><path d="M326.49,910.07h-79.24v-25.86h79.24v25.86ZM250.25,907.07h73.24v-19.86h-73.24v19.86Z" fill="#101727"/><rect x="575.29" y="885.7" width="76.24" height="22.86" fill="#01654d"/><path d="M653.04,910.07h-79.24v-25.86h79.24v25.86ZM576.79,907.07h73.24v-19.86h-73.24v19.86Z" fill="#101727"/><rect x="701.09" y="885.7" width="76.24" height="22.86" fill="#01654d"/><path d="M778.83,910.07h-79.24v-25.86h79.24v25.86ZM702.59,907.07h73.24v-19.86h-73.24v19.86Z" fill="#101727"/><rect x="83.83" y="91.41" width="725.25" height="385.94" fill="#01654d"/><path d="M810.58,478.85H82.33V89.91h728.25v388.94ZM85.33,475.85h722.25V92.91H85.33v382.94Z" fill="#101727"/><path d="M677,408.7c-1.68-2.43-3.27-4.93-4.63-7.55,0,.01-.15-.31-.27-.54-.1-.23-.29-.63-.29-.62-.29-.65-.56-1.3-.8-1.96-.51-1.37-.94-2.78-1.25-4.22-.05-.22-.09-.44-.13-.65-.02-.15-.07-.41-.08-.54-.07-.63-.12-1.26-.13-1.89-.02-.71,0-1.41.04-2.12.03-.42.07-.84.12-1.26,0-.07.01-.12.02-.18.01-.05.03-.12.04-.19.59-2.85,1.59-5.48,2.74-8.15.01-.03.02-.05.03-.08.02-.04.04-.07.06-.12.19-.38.38-.77.58-1.15.4-.76.8-1.52,1.22-2.27.8-1.44,1.62-2.87,2.44-4.31,1.78-3.11,3.48-6.27,4.86-9.59,2.69-6.49,3.98-14.07,1.28-20.78-1.04-2.59-3.99-4.17-6.75-3.37-2.39.68-4.94,3.2-3.83,5.94.26.65.49,1.31.68,1.98.09.33.17.67.24,1.01.02.11.05.33.07.48.11,1.26.15,2.51.05,3.78-.03.39-.08.77-.12,1.16,0,.02,0,.03,0,.05-.14.7-.28,1.39-.46,2.08-.36,1.39-.81,2.76-1.33,4.1-.26.68-.54,1.35-.83,2.01-.15.33-.3.66-.45.99,0,.02-.01.03-.02.04-.03.05-.05.1-.09.17-.65,1.27-1.32,2.53-2.03,3.77-1.44,2.56-2.94,5.09-4.3,7.69-2.87,5.5-5.24,11.35-5.23,17.66.01,6.29,2.33,12.22,5.38,17.62,2.82,4.99,6.41,9.47,9.64,14.19,1.64,2.39,3.2,4.84,4.52,7.42.06.12.12.24.18.37.04.09.19.42.25.56.25.57.49,1.15.71,1.73.54,1.41.99,2.86,1.31,4.34.06.27.11.54.16.81,0,.04.01.07.02.1,0,.02,0,.03,0,.05.05.62.13,1.24.16,1.87.03.63.03,1.26,0,1.88-.01.31-.04.63-.07.94-.02.17-.02.28-.03.36,0,.02,0,.03,0,.04-.24,1.11-.51,2.19-.93,3.25-.02.06-.05.14-.07.23-.05.18-.27.5-.35.63-.28.49-.77,1.53-1.26,1.82.08-.05.82-.81.11-.15-.23.21-.44.43-.68.64-.11.1-.3.3-.47.44-.04.02-.06.02-.1.05-.55.31-1.09.62-1.67.88-.03.02-.25.1-.43.17-.28.09-.68.22-.75.24-1.12.32-2.26.54-3.41.71-.06,0-.15.03-.25.05-.21.03-.44.04-.64.06-.79.08-1.57.14-2.36.2-6.99.52-13.92,1.36-20.72,3.11-6.88,1.77-13.6,4.28-19.98,7.42-2.35,1.16-3.61,4.35-1.97,6.61,1.71,2.35,4.93,3,7.51,1.73,2.82-1.39,5.7-2.63,8.64-3.76.02,0,.04-.01.05-.02.43-.15.85-.3,1.28-.45.71-.25,1.43-.48,2.15-.71,1.44-.46,2.89-.88,4.35-1.27,3.07-.82,6.17-1.49,9.3-2,.75-.12,1.49-.24,2.24-.34.3-.04.6-.08.9-.12.08-.01.15-.02.21-.03.04,0,.08,0,.14-.01,1.44-.15,2.88-.28,4.32-.38,6.22-.44,12.51-.93,17.81-4.53,5.27-3.58,7.87-9.75,8.11-15.98.48-12.47-8.1-22.51-14.76-32.15Z" fill="#e8bd51"/><path d="M629.48,472.62c-2.32,0-4.55-1.06-5.96-3-.96-1.32-1.26-2.96-.85-4.61.45-1.83,1.71-3.41,3.37-4.23,6.52-3.21,13.34-5.75,20.27-7.53,6.05-1.56,12.52-2.53,20.98-3.15.78-.06,1.55-.12,2.33-.19l.23-.02c.11,0,.22-.02.33-.03.04-.01.17-.04.26-.05,1.21-.18,2.26-.4,3.22-.67l1.01-.35c.46-.21.93-.48,1.43-.76l.09-.05h0s.07-.07.1-.1c.09-.08.16-.16.22-.21.13-.11.25-.23.38-.35l.27-.25c.08-.07.17-.16.26-.24.13-.22.32-.56.41-.73.07-.13.14-.25.2-.35l.11-.18c.03-.05.08-.12.11-.18.03-.12.07-.22.1-.3.38-.96.63-1.98.84-2.95,0-.08.01-.17.02-.29.03-.29.05-.58.06-.87.03-.57.03-1.16,0-1.75-.02-.35-.05-.69-.09-1.03-.02-.25-.05-.5-.07-.75l-.06-.31c-.03-.16-.06-.33-.1-.49-.29-1.34-.71-2.72-1.24-4.12-.21-.56-.44-1.11-.68-1.66l-.4-.85c-1.12-2.19-2.52-4.49-4.42-7.26-1.01-1.47-2.05-2.92-3.1-4.37-2.28-3.16-4.64-6.43-6.61-9.93-3.74-6.62-5.56-12.62-5.58-18.35-.01-7.06,2.88-13.52,5.4-18.35.99-1.91,2.07-3.79,3.12-5.62.4-.71.81-1.41,1.21-2.12.69-1.23,1.36-2.48,2-3.72l.52-1.13c.28-.64.55-1.29.81-1.95.53-1.37.95-2.66,1.28-3.94.17-.66.31-1.32.44-1.99.04-.31.08-.68.11-1.04.08-1.07.07-2.23-.05-3.53,0-.06-.03-.22-.05-.31-.06-.31-.14-.61-.22-.91-.15-.56-.36-1.16-.63-1.82-.55-1.38-.49-2.83.17-4.19.84-1.71,2.66-3.19,4.64-3.75,3.44-.98,7.2.88,8.56,4.26,3.17,7.9,1.05,16.28-1.29,21.92-1.48,3.56-3.33,6.93-4.94,9.76l-.48.84c-.66,1.15-1.31,2.29-1.95,3.45-.41.74-.81,1.49-1.2,2.24-.13.25-.26.51-.39.76l-.24.48c-.96,2.22-2.03,4.89-2.65,7.85l-.06.46c-.03.32-.06.63-.09.95-.04.65-.05,1.32-.03,1.98.02.57.06,1.17.13,1.76.01.11.05.33.07.46l.02.1c.03.16.06.32.09.48.28,1.29.68,2.64,1.19,4.01.24.63.5,1.26.77,1.88h-.02c.12.21.22.42.3.6.08.17.17.33.23.48h0c1.15,2.23,2.59,4.58,4.53,7.38.87,1.27,1.78,2.54,2.7,3.82,6.27,8.8,12.76,17.9,12.33,29.24-.28,7.31-3.47,13.57-8.77,17.16-5.7,3.87-12.53,4.36-18.55,4.79-1.37.1-2.76.22-4.28.38l-1.19.16c-.74.1-1.47.21-2.21.33-3.07.5-6.15,1.16-9.16,1.97-1.43.38-2.87.8-4.28,1.25-.71.23-1.41.46-2.12.7l-1.28.45c-2.99,1.15-5.86,2.39-8.52,3.71-1.1.54-2.28.8-3.43.8ZM677.58,450.64c-.59.34-1.13.64-1.72.9-.03.01-.14.06-.28.11l-.67.24c-.21.07-.4.12-.45.14-1.08.3-2.25.55-3.6.75l-.15.03c-.27.04-.45.06-.62.07l-.18.02c-.8.08-1.6.14-2.4.2-8.28.61-14.58,1.56-20.45,3.07-6.73,1.73-13.35,4.19-19.69,7.31-.86.43-1.55,1.29-1.79,2.25-.14.55-.18,1.37.37,2.13,1.23,1.7,3.66,2.24,5.63,1.27,2.75-1.35,5.7-2.64,8.77-3.81l1.38-.49c.73-.25,1.46-.49,2.19-.72,1.46-.46,2.95-.9,4.42-1.29,3.11-.83,6.29-1.51,9.45-2.03.76-.12,1.52-.24,2.28-.34l1.31-.17c1.53-.16,2.96-.28,4.35-.38,5.92-.42,12.05-.86,17.08-4.28,4.5-3.06,7.21-8.45,7.45-14.8.39-10.32-5.79-18.99-11.77-27.38-.92-1.3-1.84-2.58-2.72-3.86h0c-1.98-2.86-3.46-5.28-4.66-7.59l-.05.02-.61-1.39c-.3-.67-.58-1.35-.84-2.04-.56-1.5-1-2.99-1.31-4.43-.04-.19-.08-.38-.11-.56l-.02-.13c-.03-.2-.08-.5-.1-.64-.08-.68-.12-1.36-.14-2.01-.02-.75,0-1.51.04-2.26.02-.36.06-.71.09-1.06l.11-.77c.67-3.22,1.81-6.07,2.83-8.43l.31-.64c.13-.27.27-.53.4-.79.4-.78.82-1.54,1.24-2.31.64-1.17,1.31-2.33,1.97-3.49l.48-.84c1.57-2.75,3.36-6.01,4.78-9.42,2.13-5.12,4.07-12.69,1.28-19.65-.78-1.93-2.99-3.05-4.95-2.49-1.16.33-2.3,1.23-2.77,2.19-.29.6-.32,1.17-.09,1.75.31.77.55,1.47.74,2.14.1.36.19.73.26,1.1.03.14.07.41.09.6.14,1.53.16,2.85.06,4.09-.03.4-.08.8-.13,1.2l-.02.15c-.15.75-.3,1.47-.48,2.19-.36,1.39-.81,2.79-1.39,4.27-.27.7-.56,1.39-.86,2.08-.08.18-.17.37-.25.55l-.32.68c-.68,1.33-1.37,2.62-2.08,3.88-.4.71-.81,1.42-1.22,2.13-1.03,1.8-2.09,3.66-3.06,5.51-2.51,4.82-5.07,10.6-5.06,16.96.01,5.2,1.71,10.72,5.19,16.88,1.89,3.35,4.2,6.56,6.43,9.65,1.06,1.47,2.12,2.94,3.14,4.43,1.97,2.88,3.44,5.29,4.61,7.59l.47.99c.26.6.51,1.2.74,1.8.59,1.54,1.05,3.08,1.37,4.56.04.18.07.37.11.55l.1.59c.02.26.04.5.07.74.04.4.08.8.1,1.2.03.67.03,1.35,0,2.02-.02.34-.04.68-.07,1.02-.01.14-.02.23-.02.29l-.03.24c-.25,1.15-.54,2.34-1.01,3.53-.1.39-.28.68-.46.98l-.21.36c-.25.46-.49.89-.77,1.25-.21.32-.49.56-.68.69-.05.04-.11.08-.17.11-.12.12-.24.23-.37.34l-.1.1c-.12.12-.27.26-.41.37l-.38.23ZM677.54,450.65h-.03s.02,0,.03,0Z" fill="#101727"/><path d="M734,416.82c-1.47-4.18-3.32-8.25-5.46-12.12-2.09-3.78-4.56-7.32-6.95-10.9-1.18-1.77-2.34-3.54-3.43-5.36-.54-.91-1.06-1.82-1.56-2.75-.23-.43-.45-.87-.68-1.31,0-.01-.02-.04-.03-.06.01.03.02.04.03.07-.01-.03-.03-.06-.04-.09-.04-.09-.09-.2-.12-.27-.06-.13-.12-.27-.18-.4-.92-2.07-1.65-4.22-2.19-6.42-.12-.51-.24-1.03-.34-1.54-.06-.29-.11-.59-.16-.89,0-.04-.02-.12-.03-.2-.14-1.06-.25-2.13-.32-3.2-.16-2.56-.1-5.13.13-7.69.11-1.27.26-2.54.44-3.8,0-.05.01-.08.02-.14.06-.38.13-.76.2-1.14.11-.61.22-1.21.35-1.82,1.05-5.23,2.55-10.35,4.15-15.43,1.96-6.23-8.73-8.47-10.58-2.57-2.88,9.17-5.49,18.63-5.75,28.3-.13,4.76.4,9.63,1.72,14.22,1.27,4.43,3.41,8.62,5.8,12.55,2.21,3.64,4.69,7.1,7,10.67,1.18,1.83,2.32,3.68,3.35,5.6.41.76.79,1.52,1.18,2.29-.14-.25.41.85.48,1.02.23.5.45,1.01.67,1.52,1.63,3.82,2.93,7.77,3.89,11.81.24,1.01.46,2.02.66,3.04.09.48.18.95.27,1.43.05.27.09.55.14.82.01.06.02.08.02.12,0,.01,0,.01,0,.03.27,2.06.51,4.12.64,6.19.29,4.69.14,9.42-.45,14.08-.03.23-.27,1.8-.16,1.19-.08.47-.16.95-.24,1.42-.21,1.16-.45,2.31-.72,3.45-.55,2.36-1.23,4.68-2.01,6.98-.9,2.63,1.27,5.42,3.83,5.94,2.73.55,5.79-.57,6.75-3.37,5.61-16.45,5.44-34.87-.31-51.25Z" fill="#e8bd51"/><path d="M728.92,473.08c-.56,0-1.12-.05-1.65-.16-1.82-.37-3.48-1.58-4.44-3.25-.85-1.48-1.03-3.13-.52-4.65.78-2.29,1.44-4.59,1.97-6.83.26-1.12.5-2.26.7-3.38.07-.39.14-.79.2-1.18l.02-.14h0,0v-.07s.02,0,.02,0c.02-.21.04-.41.07-.58.04-.25.07-.48.08-.56.58-4.54.73-9.19.44-13.8-.14-2.23-.41-4.42-.63-6.09l-.16-.91c-.08-.47-.17-.93-.26-1.4-.2-1-.41-1.99-.65-2.98-.95-3.97-2.23-7.86-3.81-11.57-.21-.5-.43-.99-.65-1.49-.03-.07-.13-.27-.23-.47-.06-.12-.14-.28-.21-.46h0s0,0,0,0c0,0,0-.02-.01-.03h-.01s-.2-.4-.2-.4c-.31-.62-.63-1.24-.96-1.85-.92-1.7-1.97-3.45-3.29-5.5-.89-1.38-1.81-2.74-2.72-4.1-1.44-2.14-2.93-4.35-4.3-6.61-2.91-4.78-4.8-8.89-5.96-12.92-1.31-4.58-1.91-9.52-1.78-14.67.27-10.26,3.14-20.2,5.82-28.71.69-2.2,2.45-3.77,4.82-4.3,2.74-.61,5.74.25,7.47,2.13,1.4,1.53,1.81,3.53,1.15,5.63-1.5,4.78-3.04,9.93-4.11,15.28-.12.59-.23,1.19-.34,1.79-.07.37-.13.73-.19,1.1l-1.51-.08,1.48.21c-.19,1.29-.33,2.54-.43,3.72-.23,2.6-.27,5.11-.12,7.47.06.9.15,1.89.31,3.1l.18.99c.1.5.21.99.33,1.48.5,2.07,1.21,4.14,2.1,6.16l.29.64-1.12.56,1.12-.56.18.35c.17.32.33.65.5.97.46.86.96,1.74,1.53,2.69,1.12,1.88,2.34,3.74,3.39,5.3l1.15,1.71c2.01,2.98,4.08,6.07,5.87,9.3,2.23,4.03,4.1,8.19,5.57,12.35h0c5.94,16.9,6.05,35.45.32,52.24-1.06,3.11-3.99,4.52-6.82,4.52ZM728.17,453.91h0s-.04.21-.04.21c-.07.41-.14.82-.21,1.23-.21,1.17-.46,2.35-.73,3.52-.55,2.34-1.24,4.74-2.05,7.12-.3.88-.01,1.67.28,2.18.53.91,1.46,1.61,2.43,1.8,1.96.4,4.32-.3,5.03-2.39,5.51-16.15,5.4-34.01-.31-50.27h0c-1.41-4-3.21-8.01-5.36-11.89-1.72-3.11-3.76-6.15-5.73-9.08l-1.15-1.72c-1.07-1.6-2.31-3.49-3.47-5.43-.59-.99-1.11-1.91-1.6-2.82-.18-.34-.35-.67-.53-1.01l-.16-.32.59-.34-.62.28,1.15-.58-1.15.58-.04-.09c-.03-.07-.09-.2-.13-.28l-.18-.39c-.97-2.19-1.73-4.43-2.27-6.67-.13-.53-.25-1.07-.35-1.6l-.17-.9s-.03-.16-.04-.27c-.17-1.3-.27-2.35-.33-3.32-.15-2.5-.11-5.16.13-7.91.11-1.24.26-2.54.45-3.89l.02-.11c.08-.47.14-.85.21-1.22.11-.62.23-1.23.35-1.85,1.1-5.48,2.67-10.73,4.19-15.58.34-1.07.17-1.98-.5-2.7-1-1.09-2.94-1.6-4.61-1.23-.93.21-2.14.77-2.61,2.27-2.61,8.32-5.42,18.02-5.68,27.89-.13,4.85.43,9.48,1.66,13.76,1.08,3.76,2.87,7.64,5.64,12.18,1.34,2.2,2.81,4.38,4.23,6.49.93,1.38,1.85,2.75,2.75,4.14,1.35,2.09,2.47,3.95,3.41,5.7.34.64.67,1.28,1,1.93l.2.4-.6.31.62-.27c.03.07.13.28.23.49.11.24.23.47.26.54.23.51.46,1.03.68,1.55,1.65,3.86,2.98,7.91,3.97,12.05.25,1.03.47,2.06.67,3.1.09.49.19.97.27,1.46l.17,1c.23,1.74.51,4.01.65,6.33.3,4.8.14,9.64-.46,14.37-.01.09-.05.35-.09.62-.04.25-.08.51-.09.63Z" fill="#101727"/><path d="M715.89,384.31c-.18-.4-.18-.41-.13-.29.04.09.08.18.12.27,0,0,0,.01,0,.02Z" fill="#e8bd51"/><path d="M716.34,385.33l-.45-1-1.35.64v-.02s-.01,0-.01,0l-.77-1.68,1.36-.68c.47-.21,1.33-.36,1.98.8h.01s.11.23.11.23c.01.03.02.05.04.08l-1.37.62.45,1Z" fill="#101727"/><path d="M783.81,463.56c-3.44-3.3-6.95-6.54-10.34-9.91-1.69-1.68-3.35-3.38-4.95-5.15-.19-.21-.39-.43-.58-.64-.05-.05-.2-.23-.31-.35-.1-.12-.22-.25-.25-.29-.19-.22-.37-.44-.56-.66-.78-.93-1.55-1.88-2.29-2.85-1.44-1.88-2.79-3.84-4.01-5.87-.57-.94-1.1-1.9-1.6-2.88-.02-.04-.08-.16-.14-.28-.07-.14-.17-.36-.2-.42-.26-.56-.51-1.13-.74-1.71-.86-2.1-1.57-4.27-2.1-6.48-.13-.53-.24-1.07-.35-1.61-.05-.27-.1-.54-.15-.81-.01-.07-.04-.28-.07-.44-.02-.12-.03-.25-.04-.3-.02-.2-.05-.41-.07-.61-.07-.67-.12-1.35-.15-2.03-.05-1.08-.05-2.15,0-3.23.03-.53.07-1.07.12-1.6.03-.27.06-.53.09-.8,0-.04,0-.05,0-.08,0-.01,0-.01,0-.02.47-2.19,1.03-4.26,1.9-6.32.02-.04.04-.08.06-.14-.03.06-.06.11-.1.19.04-.08.09-.16.13-.24.04-.08.08-.15.1-.19.05-.09.09-.18.14-.27.24-.45.49-.89.76-1.32.56-.92,1.17-1.8,1.82-2.66.57-.76,1.18-1.49,1.79-2.22.11-.13.17-.2.21-.25.08-.08.16-.15.2-.2.43-.47.87-.94,1.31-1.4,3.14-3.28,6.42-6.39,9.38-9.84,3.07-3.58,5.49-7.67,6.93-12.18,3.7-11.6,1.05-23.8-1.62-35.31-.63-2.72-4.28-4.08-6.75-3.37-2.74.78-4.5,3.07-3.83,5.94.62,2.65,1.23,5.31,1.76,7.98.25,1.25.47,2.5.68,3.76,0,.05.01.1.02.16.04.32.09.63.13.95.09.71.17,1.43.24,2.14.23,2.47.32,4.97.18,7.45-.06,1.06-.16,2.11-.3,3.16-.02.06-.17.97-.21,1.19-.15.71-.31,1.42-.5,2.12-.3,1.12-.67,2.22-1.1,3.3-.11.27-.23.53-.34.8-.02.05-.06.13-.1.22-.24.48-.49.96-.76,1.42-1.05,1.81-2.3,3.5-3.65,5.09-.11.13-.23.26-.34.4-.02.02-.04.05-.06.06-.35.38-.69.75-1.04,1.13-.79.84-1.6,1.66-2.41,2.48-1.49,1.5-3,2.99-4.46,4.53-3.4,3.59-6.4,7.32-8.5,11.81-1.99,4.26-2.9,9.04-2.9,13.74,0,9.88,3.8,19.46,9.39,27.48,6.37,9.14,14.78,16.57,22.77,24.23,1.97,1.89,5.79,1.9,7.76,0,2.06-1.99,2.06-4.85,0-6.83Z" fill="#e8bd51"/><path d="M779.94,473.3c-1.83,0-3.66-.61-4.92-1.82-1.19-1.14-2.39-2.28-3.59-3.42-6.82-6.46-13.87-13.14-19.37-21.04-4.4-6.31-9.64-16.36-9.66-28.34,0-5.14,1.05-10.11,3.04-14.38,2.41-5.16,5.95-9.23,8.77-12.21,1.1-1.16,2.23-2.3,3.36-3.43l1.12-1.12c.8-.81,1.6-1.62,2.38-2.46.26-.28.52-.56.78-.85l.6-.68c1.43-1.7,2.57-3.29,3.5-4.88.26-.44.49-.89.72-1.34l.38-.9c.4-1,.75-2.06,1.05-3.13.18-.65.34-1.34.48-2.03.02-.1.06-.33.1-.56.03-.19.07-.38.1-.52h0c.14-1.09.24-2.09.29-3.05.13-2.27.07-4.64-.18-7.22-.07-.7-.14-1.4-.23-2.1l-.14-1.04c-.19-1.21-.42-2.46-.67-3.73-.53-2.65-1.15-5.34-1.75-7.93-.81-3.49,1.2-6.67,4.88-7.72,1.81-.52,4.03-.19,5.8.85,1.48.87,2.48,2.16,2.82,3.63,2.46,10.59,5.53,23.77,1.59,36.1-1.44,4.51-3.87,8.78-7.22,12.7-2.05,2.4-4.28,4.65-6.43,6.83-1.01,1.02-2.01,2.04-3,3.07-.44.45-.87.91-1.29,1.37-.05.05-.12.12-.2.2-.04.05-.1.12-.17.21-.49.58-1.14,1.35-1.73,2.15-.66.88-1.23,1.71-1.73,2.54-.25.41-.49.83-.72,1.25l-.24.47h0c-.76,1.79-1.32,3.65-1.84,6.07l-.09.77c-.05.51-.09,1.02-.11,1.53-.05,1.02-.05,2.06,0,3.08.03.65.08,1.3.15,1.94l.16,1.25c.05.26.09.52.14.78.1.52.21,1.03.34,1.55.5,2.09,1.18,4.2,2.03,6.26.23.56.47,1.11.72,1.65l.29.6c.5.98,1.02,1.92,1.57,2.84,1.13,1.88,2.45,3.81,3.91,5.73.7.91,1.45,1.85,2.25,2.8l1.66,1.9c1.44,1.58,3.04,3.24,4.9,5.09,2.2,2.18,4.49,4.35,6.7,6.45,1.21,1.14,2.42,2.29,3.62,3.44h0c1.29,1.24,2,2.83,2.01,4.48,0,1.66-.71,3.26-2,4.51-1.26,1.22-3.09,1.83-4.92,1.83ZM771.72,370.79c-.02.1-.05.27-.08.44-.05.26-.09.54-.12.65-.15.75-.33,1.5-.53,2.21-.32,1.18-.71,2.35-1.16,3.46-.06.16-.13.32-.2.48l-.14.33c-.03.06-.08.17-.13.28-.28.55-.54,1.05-.83,1.54-1.01,1.74-2.26,3.48-3.8,5.31l-.68.77c-.27.29-.54.59-.81.88-.8.85-1.62,1.68-2.44,2.51l-1.12,1.13c-1.11,1.12-2.23,2.23-3.31,3.37-2.66,2.81-6,6.65-8.23,11.42-1.81,3.87-2.76,8.4-2.76,13.1,0,11.21,4.96,20.67,9.12,26.63,5.33,7.65,12.26,14.22,18.97,20.58,1.21,1.14,2.41,2.28,3.6,3.43,1.39,1.33,4.31,1.33,5.68,0,.71-.69,1.09-1.5,1.09-2.34,0-.84-.38-1.64-1.08-2.32h0c-1.2-1.15-2.4-2.29-3.6-3.43-2.23-2.11-4.53-4.29-6.75-6.5-1.9-1.88-3.53-3.58-5-5.2l-1.74-1.99c-.82-.98-1.61-1.96-2.33-2.91-1.53-2-2.91-4.02-4.1-6-.59-.97-1.14-1.97-1.65-2.97l-.37-.76c-.27-.58-.52-1.17-.77-1.76-.91-2.21-1.64-4.46-2.17-6.7-.13-.55-.25-1.11-.36-1.67-.05-.28-.11-.56-.16-.84l-.19-1.45c-.07-.7-.13-1.41-.16-2.11-.05-1.13-.05-2.26,0-3.37.03-.56.07-1.12.12-1.68.02-.18.04-.37.06-.55l.08-.55c.57-2.62,1.18-4.64,1.98-6.55,0-.02.02-.04.03-.06h0s.37-.72.37-.72c.25-.47.52-.94.8-1.39.56-.92,1.18-1.83,1.9-2.78.64-.86,1.32-1.67,1.84-2.29l.45-.5c.44-.48.88-.95,1.33-1.42,1-1.05,2.02-2.08,3.03-3.1,2.12-2.14,4.31-4.36,6.29-6.68,3.09-3.61,5.33-7.53,6.64-11.66,3.68-11.55.72-24.28-1.65-34.51-.2-.85-.88-1.41-1.42-1.72-1.05-.62-2.44-.84-3.46-.55-1.62.46-3.33,1.83-2.79,4.16.61,2.62,1.24,5.33,1.77,8.03.26,1.31.49,2.59.69,3.81l.05.34.11.82c.09.73.18,1.46.24,2.19.26,2.74.32,5.25.19,7.67-.06,1.04-.16,2.11-.31,3.28l-.04.2Z" fill="#101727"/><path d="M757.11,408.1c.13-.25.15-.3.13-.25-.03.06-.07.13-.1.19,0,.02-.02.04-.03.06Z" fill="#e8bd51"/><path d="M756.55,409.17l.54-1.04-1.34-.67,1.35.64-1.35-.65.16-.31c.4-.75,1.29-1.03,2.03-.63.29.16,1.16.74.6,2.05h0s-.06.13-.06.13c-.02.04-.03.07-.05.11l-1.34-.67-.54,1.04ZM757.11,408.11h0,0Z" fill="#101727"/><path d="M222.95,91.41v385.94h598.88V91.41H222.95ZM804.7,459.59h-164.88V109.17h164.88v350.42Z" fill="#e9e1ce"/><path d="M823.32,478.85H221.45V89.91h601.88v388.94ZM224.45,475.85h595.88V92.91H224.45v382.94ZM806.2,461.09h-167.88V107.67h167.88v353.42ZM641.32,458.09h161.88V110.67h-161.88v347.42Z" fill="#101727"/><rect x="804.7" y="109.17" width="111.5" height="350.42" transform="translate(1720.89 568.76) rotate(180)" fill="#e9e1ce"/><path d="M917.7,461.09h-114.5V107.67h114.5v353.42ZM806.2,458.09h108.5V110.67h-108.5v347.42Z" fill="#101727"/><rect x="815.84" y="121.61" width="89.21" height="325.54" transform="translate(1720.89 568.76) rotate(180)" fill="#587a51"/><path d="M906.55,448.65h-92.21V120.11h92.21v328.54ZM817.34,445.65h86.21V123.11h-86.21v322.54Z" fill="#101727"/><circle cx="426.83" cy="284.38" r="159.52" fill="#587a51"/><path d="M426.83,445.4c-88.79,0-161.02-72.23-161.02-161.02s72.23-161.02,161.02-161.02,161.02,72.23,161.02,161.02-72.23,161.02-161.02,161.02ZM426.83,126.36c-87.13,0-158.02,70.89-158.02,158.02s70.89,158.02,158.02,158.02,158.02-70.89,158.02-158.02-70.89-158.02-158.02-158.02Z" fill="#101727"/><path d="M426.83,430.64c-80.65,0-146.26-65.61-146.26-146.26s65.61-146.26,146.26-146.26,146.26,65.61,146.26,146.26-65.61,146.26-146.26,146.26ZM426.83,141.12c-78.99,0-143.26,64.27-143.26,143.26s64.27,143.26,143.26,143.26,143.26-64.27,143.26-143.26-64.27-143.26-143.26-143.26Z" fill="#101727"/><path d="M426.83,415.88c-72.51,0-131.5-58.99-131.5-131.5s58.99-131.5,131.5-131.5,131.5,58.99,131.5,131.5-58.99,131.5-131.5,131.5ZM426.83,155.88c-70.86,0-128.5,57.65-128.5,128.5s57.65,128.5,128.5,128.5,128.5-57.65,128.5-128.5-57.65-128.5-128.5-128.5Z" fill="#101727"/><path d="M426.83,401.12c-64.37,0-116.74-52.37-116.74-116.74s52.37-116.74,116.74-116.74,116.74,52.37,116.74,116.74-52.37,116.74-116.74,116.74ZM426.83,170.64c-62.72,0-113.74,51.02-113.74,113.74s51.02,113.74,113.74,113.74,113.74-51.02,113.74-113.74-51.02-113.74-113.74-113.74Z" fill="#101727"/><path d="M426.83,386.36c-56.23,0-101.98-45.75-101.98-101.98s45.75-101.98,101.98-101.98,101.98,45.75,101.98,101.98-45.75,101.98-101.98,101.98ZM426.83,185.4c-54.58,0-98.98,44.4-98.98,98.98s44.4,98.98,98.98,98.98,98.98-44.4,98.98-98.98-44.4-98.98-98.98-98.98Z" fill="#101727"/><path d="M426.83,371.6c-48.09,0-87.22-39.13-87.22-87.22s39.13-87.22,87.22-87.22,87.22,39.13,87.22,87.22-39.13,87.22-87.22,87.22ZM426.83,200.16c-46.44,0-84.22,37.78-84.22,84.22s37.78,84.22,84.22,84.22,84.22-37.78,84.22-84.22-37.78-84.22-84.22-84.22Z" fill="#101727"/><path d="M426.83,356.84c-39.95,0-72.46-32.5-72.46-72.46s32.5-72.46,72.46-72.46,72.46,32.5,72.46,72.46-32.5,72.46-72.46,72.46ZM426.83,214.92c-38.3,0-69.46,31.16-69.46,69.46s31.16,69.46,69.46,69.46,69.46-31.16,69.46-69.46-31.16-69.46-69.46-69.46Z" fill="#101727"/><path d="M426.83,342.08c-31.81,0-57.7-25.88-57.7-57.7s25.88-57.7,57.7-57.7,57.7,25.88,57.7,57.7-25.88,57.7-57.7,57.7ZM426.83,229.68c-30.16,0-54.7,24.54-54.7,54.7s24.54,54.7,54.7,54.7,54.7-24.54,54.7-54.7-24.54-54.7-54.7-54.7Z" fill="#101727"/><rect x="420.29" y="124.96" width="3" height="318.83" fill="#101727"/><rect x="430.37" y="124.96" width="3" height="318.83" fill="#101727"/><rect x="263.86" y="279.32" width="318.83" height="3" transform="translate(-74.59 381.55) rotate(-45)" fill="#101727"/><rect x="270.98" y="286.44" width="318.83" height="3" transform="translate(-77.55 388.67) rotate(-45)" fill="#101727"/><rect x="267.42" y="277.84" width="318.83" height="3" fill="#101727"/><rect x="267.42" y="287.92" width="318.83" height="3" fill="#101727"/><rect x="428.89" y="121.4" width="3" height="318.83" transform="translate(-72.51 386.58) rotate(-45)" fill="#101727"/><rect x="421.77" y="128.53" width="3" height="318.83" transform="translate(-79.63 383.63) rotate(-45)" fill="#101727"/><circle cx="426.83" cy="284.38" r="56.2" fill="#e9e1ce"/><path d="M426.83,342.08c-31.81,0-57.7-25.88-57.7-57.7s25.88-57.7,57.7-57.7,57.7,25.88,57.7,57.7-25.88,57.7-57.7,57.7ZM426.83,229.68c-30.16,0-54.7,24.54-54.7,54.7s24.54,54.7,54.7,54.7,54.7-24.54,54.7-54.7-24.54-54.7-54.7-54.7Z" fill="#101727"/><circle cx="426.83" cy="284.38" r="56.2" fill="#e9e1ce"/><path d="M426.83,342.08c-31.81,0-57.7-25.88-57.7-57.7s25.88-57.7,57.7-57.7,57.7,25.88,57.7,57.7-25.88,57.7-57.7,57.7ZM426.83,229.68c-30.16,0-54.7,24.54-54.7,54.7s24.54,54.7,54.7,54.7,54.7-24.54,54.7-54.7-24.54-54.7-54.7-54.7Z" fill="#101727"/><rect x="122.96" y="477.35" width="76.24" height="22.41" fill="#01654d"/><path d="M200.7,501.26h-79.24v-25.41h79.24v25.41ZM124.46,498.26h73.24v-19.41h-73.24v19.41Z" fill="#101727"/><rect x="248.75" y="477.35" width="76.24" height="22.41" fill="#01654d"/><path d="M326.49,501.26h-79.24v-25.41h79.24v25.41ZM250.25,498.26h73.24v-19.41h-73.24v19.41Z" fill="#101727"/><rect x="575.29" y="477.35" width="76.24" height="22.41" fill="#01654d"/><path d="M653.04,501.26h-79.24v-25.41h79.24v25.41ZM576.79,498.26h73.24v-19.41h-73.24v19.41Z" fill="#101727"/><rect x="701.09" y="477.35" width="76.24" height="22.41" fill="#01654d"/><path d="M778.83,501.26h-79.24v-25.41h79.24v25.41ZM702.59,498.26h73.24v-19.41h-73.24v19.41Z" fill="#101727"/><rect x="660.96" y="132.34" width="55.35" height="56.52" fill="#587a51"/><path d="M717.81,190.36h-58.35v-59.52h58.35v59.52ZM662.46,187.36h52.35v-53.52h-52.35v53.52Z" fill="#101727"/><rect x="728.21" y="132.34" width="55.35" height="56.52" fill="#587a51"/><path d="M785.05,190.36h-58.35v-59.52h58.35v59.52ZM729.71,187.36h52.35v-53.52h-52.35v53.52Z" fill="#101727"/><rect x="660.96" y="207.57" width="11.53" height="11.53" rx="5.77" ry="5.77" fill="#01654d"/><path d="M666.73,220.61c-4.01,0-7.27-3.26-7.27-7.27s3.26-7.26,7.27-7.26,7.27,3.26,7.27,7.26-3.26,7.27-7.27,7.27ZM666.73,209.08c-2.35,0-4.27,1.91-4.27,4.26s1.91,4.27,4.27,4.27,4.27-1.91,4.27-4.27-1.91-4.26-4.27-4.26Z" fill="#101727"/><rect x="682.87" y="207.57" width="11.53" height="11.53" rx="5.77" ry="5.77" fill="#01654d"/><path d="M688.64,220.61c-4.01,0-7.27-3.26-7.27-7.27s3.26-7.26,7.27-7.26,7.27,3.26,7.27,7.26-3.26,7.27-7.27,7.27ZM688.64,209.08c-2.35,0-4.27,1.91-4.27,4.26s1.91,4.27,4.27,4.27,4.27-1.91,4.27-4.27-1.91-4.26-4.27-4.26Z" fill="#101727"/><rect x="704.78" y="207.57" width="11.53" height="11.53" rx="5.77" ry="5.77" fill="#01654d"/><path d="M710.54,220.61c-4.01,0-7.27-3.26-7.27-7.27s3.26-7.26,7.27-7.26,7.27,3.26,7.27,7.26-3.26,7.27-7.27,7.27ZM710.54,209.08c-2.35,0-4.27,1.91-4.27,4.26s1.91,4.27,4.27,4.27,4.27-1.91,4.27-4.27-1.91-4.26-4.27-4.26Z" fill="#101727"/><rect x="726.69" y="207.57" width="11.53" height="11.53" rx="5.77" ry="5.77" fill="#01654d"/><path d="M732.45,220.61c-4.01,0-7.27-3.26-7.27-7.27s3.26-7.26,7.27-7.26,7.27,3.26,7.27,7.26-3.26,7.27-7.27,7.27ZM732.45,209.08c-2.35,0-4.27,1.91-4.27,4.26s1.91,4.27,4.27,4.27,4.27-1.91,4.27-4.27-1.91-4.26-4.27-4.26Z" fill="#101727"/><rect x="748.59" y="207.57" width="11.53" height="11.53" rx="5.77" ry="5.77" fill="#01654d"/><path d="M754.36,220.61c-4.01,0-7.27-3.26-7.27-7.27s3.26-7.26,7.27-7.26,7.27,3.26,7.27,7.26-3.26,7.27-7.27,7.27ZM754.36,209.08c-2.35,0-4.27,1.91-4.27,4.26s1.91,4.27,4.27,4.27,4.27-1.91,4.27-4.27-1.91-4.26-4.27-4.26Z" fill="#101727"/><rect x="770.5" y="207.57" width="11.53" height="11.53" rx="5.77" ry="5.77" fill="#01654d"/><path d="M776.27,220.61c-4.01,0-7.27-3.26-7.27-7.27s3.26-7.26,7.27-7.26,7.27,3.26,7.27,7.26-3.26,7.27-7.27,7.27ZM776.27,209.08c-2.35,0-4.27,1.91-4.27,4.26s1.91,4.27,4.27,4.27,4.27-1.91,4.27-4.27-1.91-4.26-4.27-4.26Z" fill="#101727"/><rect x="660.96" y="225.88" width="11.53" height="11.53" rx="5.77" ry="5.77" fill="#01654d"/><path d="M666.73,238.91c-4.01,0-7.27-3.26-7.27-7.26s3.26-7.27,7.27-7.27,7.27,3.26,7.27,7.27-3.26,7.26-7.27,7.26ZM666.73,227.38c-2.35,0-4.27,1.91-4.27,4.27s1.91,4.26,4.27,4.26,4.27-1.91,4.27-4.26-1.91-4.27-4.27-4.27Z" fill="#101727"/><rect x="682.87" y="225.88" width="11.53" height="11.53" rx="5.77" ry="5.77" fill="#01654d"/><path d="M688.64,238.91c-4.01,0-7.27-3.26-7.27-7.26s3.26-7.27,7.27-7.27,7.27,3.26,7.27,7.27-3.26,7.26-7.27,7.26ZM688.64,227.38c-2.35,0-4.27,1.91-4.27,4.27s1.91,4.26,4.27,4.26,4.27-1.91,4.27-4.26-1.91-4.27-4.27-4.27Z" fill="#101727"/><rect x="704.78" y="225.88" width="11.53" height="11.53" rx="5.77" ry="5.77" fill="#01654d"/><path d="M710.54,238.91c-4.01,0-7.27-3.26-7.27-7.26s3.26-7.27,7.27-7.27,7.27,3.26,7.27,7.27-3.26,7.26-7.27,7.26ZM710.54,227.38c-2.35,0-4.27,1.91-4.27,4.27s1.91,4.26,4.27,4.26,4.27-1.91,4.27-4.26-1.91-4.27-4.27-4.27Z" fill="#101727"/><rect x="726.69" y="225.88" width="11.53" height="11.53" rx="5.77" ry="5.77" fill="#01654d"/><path d="M732.45,238.91c-4.01,0-7.27-3.26-7.27-7.26s3.26-7.27,7.27-7.27,7.27,3.26,7.27,7.27-3.26,7.26-7.27,7.26ZM732.45,227.38c-2.35,0-4.27,1.91-4.27,4.27s1.91,4.26,4.27,4.26,4.27-1.91,4.27-4.26-1.91-4.27-4.27-4.27Z" fill="#101727"/><rect x="748.59" y="225.88" width="11.53" height="11.53" rx="5.77" ry="5.77" fill="#01654d"/><path d="M754.36,238.91c-4.01,0-7.27-3.26-7.27-7.26s3.26-7.27,7.27-7.27,7.27,3.26,7.27,7.27-3.26,7.26-7.27,7.26ZM754.36,227.38c-2.35,0-4.27,1.91-4.27,4.27s1.91,4.26,4.27,4.26,4.27-1.91,4.27-4.26-1.91-4.27-4.27-4.27Z" fill="#101727"/><rect x="770.5" y="225.88" width="11.53" height="11.53" rx="5.77" ry="5.77" fill="#01654d"/><path d="M776.27,238.91c-4.01,0-7.27-3.26-7.27-7.26s3.26-7.27,7.27-7.27,7.27,3.26,7.27,7.27-3.26,7.26-7.27,7.26ZM776.27,227.38c-2.35,0-4.27,1.91-4.27,4.27s1.91,4.26,4.27,4.26,4.27-1.91,4.27-4.26-1.91-4.27-4.27-4.27Z" fill="#101727"/><rect x="660.96" y="244.19" width="11.53" height="11.53" rx="5.77" ry="5.77" fill="#01654d"/><path d="M666.73,257.22c-4.01,0-7.27-3.26-7.27-7.26s3.26-7.27,7.27-7.27,7.27,3.26,7.27,7.27-3.26,7.26-7.27,7.26ZM666.73,245.69c-2.35,0-4.27,1.91-4.27,4.27s1.91,4.26,4.27,4.26,4.27-1.91,4.27-4.26-1.91-4.27-4.27-4.27Z" fill="#101727"/><rect x="682.87" y="244.19" width="11.53" height="11.53" rx="5.77" ry="5.77" fill="#01654d"/><path d="M688.64,257.22c-4.01,0-7.27-3.26-7.27-7.26s3.26-7.27,7.27-7.27,7.27,3.26,7.27,7.27-3.26,7.26-7.27,7.26ZM688.64,245.69c-2.35,0-4.27,1.91-4.27,4.27s1.91,4.26,4.27,4.26,4.27-1.91,4.27-4.26-1.91-4.27-4.27-4.27Z" fill="#101727"/><rect x="704.78" y="244.19" width="11.53" height="11.53" rx="5.77" ry="5.77" fill="#01654d"/><path d="M710.54,257.22c-4.01,0-7.27-3.26-7.27-7.26s3.26-7.27,7.27-7.27,7.27,3.26,7.27,7.27-3.26,7.26-7.27,7.26ZM710.54,245.69c-2.35,0-4.27,1.91-4.27,4.27s1.91,4.26,4.27,4.26,4.27-1.91,4.27-4.26-1.91-4.27-4.27-4.27Z" fill="#101727"/><rect x="726.69" y="244.19" width="11.53" height="11.53" rx="5.77" ry="5.77" fill="#01654d"/><path d="M732.45,257.22c-4.01,0-7.27-3.26-7.27-7.26s3.26-7.27,7.27-7.27,7.27,3.26,7.27,7.27-3.26,7.26-7.27,7.26ZM732.45,245.69c-2.35,0-4.27,1.91-4.27,4.27s1.91,4.26,4.27,4.26,4.27-1.91,4.27-4.26-1.91-4.27-4.27-4.27Z" fill="#101727"/><rect x="748.59" y="244.19" width="11.53" height="11.53" rx="5.77" ry="5.77" fill="#01654d"/><path d="M754.36,257.22c-4.01,0-7.27-3.26-7.27-7.26s3.26-7.27,7.27-7.27,7.27,3.26,7.27,7.27-3.26,7.26-7.27,7.26ZM754.36,245.69c-2.35,0-4.27,1.91-4.27,4.27s1.91,4.26,4.27,4.26,4.27-1.91,4.27-4.26-1.91-4.27-4.27-4.27Z" fill="#101727"/><rect x="770.5" y="244.19" width="11.53" height="11.53" rx="5.77" ry="5.77" fill="#01654d"/><path d="M776.27,257.22c-4.01,0-7.27-3.26-7.27-7.26s3.26-7.27,7.27-7.27,7.27,3.26,7.27,7.27-3.26,7.26-7.27,7.26ZM776.27,245.69c-2.35,0-4.27,1.91-4.27,4.27s1.91,4.26,4.27,4.26,4.27-1.91,4.27-4.26-1.91-4.27-4.27-4.27Z" fill="#101727"/><rect x="639.82" y="319.61" width="164.88" height="37.67" fill="#587a51"/><path d="M806.2,358.78h-167.88v-40.67h167.88v40.67ZM641.32,355.78h161.88v-34.67h-161.88v34.67Z" fill="#101727"/><rect x="639.82" y="294.95" width="164.88" height="16.47" fill="#587a51"/><path d="M806.2,312.91h-167.88v-19.47h167.88v19.47ZM641.32,309.91h161.88v-13.47h-161.88v13.47Z" fill="#101727"/><circle cx="677.37" cy="338.45" r="8.55" fill="#587a51"/><path d="M677.37,348.5c-5.54,0-10.05-4.51-10.05-10.05s4.51-10.05,10.05-10.05,10.05,4.51,10.05,10.05-4.51,10.05-10.05,10.05ZM677.37,331.39c-3.89,0-7.05,3.16-7.05,7.05s3.16,7.05,7.05,7.05,7.05-3.16,7.05-7.05-3.16-7.05-7.05-7.05Z" fill="#101727"/><circle cx="709.64" cy="338.45" r="8.55" fill="#587a51"/><path d="M709.64,348.5c-5.54,0-10.05-4.51-10.05-10.05s4.51-10.05,10.05-10.05,10.05,4.51,10.05,10.05-4.51,10.05-10.05,10.05ZM709.64,331.39c-3.89,0-7.05,3.16-7.05,7.05s3.16,7.05,7.05,7.05,7.05-3.16,7.05-7.05-3.16-7.05-7.05-7.05Z" fill="#101727"/><circle cx="776.27" cy="338.45" r="8.55" fill="#587a51"/><path d="M776.27,348.5c-5.54,0-10.05-4.51-10.05-10.05s4.51-10.05,10.05-10.05,10.05,4.51,10.05,10.05-4.51,10.05-10.05,10.05ZM776.27,331.39c-3.89,0-7.05,3.16-7.05,7.05s3.16,7.05,7.05,7.05,7.05-3.16,7.05-7.05-3.16-7.05-7.05-7.05Z" fill="#101727"/><path d="M724.21,250.25c-.67-1.59-1.65-2.95-2.9-4.14-2.46-2.34-5.68-3.63-8.95-4.38-3.59-.82-7.3-1.11-10.79-2.34-1.55-.6-3.04-1.36-4.44-2.28-1.2-.84-2.31-1.81-3.3-2.89-.86-1.01-1.6-2.12-2.19-3.3-.07-.15-.13-.29-.2-.44-.24-.57-.58-1.02-1.14-1.31-.54-.28-1.32-.39-1.92-.22-.58.16-1.17.47-1.49,1.01-.29.48-.48,1.14-.25,1.69.42,1,.91,1.98,1.49,2.9.58.92,1.27,1.76,1.99,2.57,1.35,1.53,2.94,2.78,4.65,3.89,1.72,1.12,3.58,1.95,5.51,2.63,2.03.72,4.14,1.12,6.26,1.49,2.45.42,4.91.81,7.26,1.63.91.36,1.78.8,2.6,1.33.68.49,1.31,1.03,1.88,1.65.42.51.78,1.05,1.09,1.63.21.5.37,1.01.48,1.54.06.52.05,1.04,0,1.57-.12.62-.31,1.23-.57,1.81-.35.67-.77,1.3-1.25,1.88-.62.67-1.31,1.27-2.06,1.81-1.62,1.05-3.39,1.81-5.19,2.49-2.8,1.02-5.68,1.91-8.27,3.42-1.34.78-2.65,1.69-3.72,2.83-1.17,1.25-2.09,2.61-2.73,4.2-.34.85-.52,1.74-.63,2.65-.11.92-.01,1.8.15,2.71.09.53.7,1.08,1.14,1.31.54.28,1.32.39,1.92.22.58-.16,1.17-.47,1.49-1.01.08-.17.17-.35.25-.52.08-.27.09-.55.05-.82-.08-.6-.08-1.19-.02-1.79.12-.64.32-1.26.58-1.86.35-.68.77-1.31,1.26-1.9.62-.67,1.31-1.25,2.05-1.78,1.63-1.05,3.41-1.82,5.23-2.5,3.16-1.15,6.43-2.15,9.25-4.04,1.57-1.05,2.95-2.27,4.05-3.82.93-1.3,1.64-2.83,1.9-4.41.28-1.72.18-3.47-.5-5.09Z" fill="#a99e53"/><path d="M698.01,281.37c-.68,0-1.4-.16-1.99-.47-.62-.32-1.72-1.18-1.93-2.38-.16-.9-.3-1.98-.16-3.16.15-1.19.38-2.15.73-3.02.68-1.69,1.67-3.21,3.03-4.67,1.03-1.1,2.35-2.11,4.06-3.1,2.24-1.3,4.66-2.16,7-2.99.5-.18,1.01-.36,1.51-.54,1.4-.53,3.24-1.28,4.89-2.34.62-.44,1.24-.98,1.77-1.56.36-.44.71-.97,1-1.51.2-.46.34-.92.44-1.38.04-.37.04-.75,0-1.12-.08-.38-.2-.76-.35-1.12-.24-.46-.54-.9-.89-1.32-.42-.45-.98-.93-1.6-1.38-.67-.43-1.45-.83-2.27-1.15-2.05-.71-4.25-1.08-6.57-1.48l-.39-.07c-1.99-.34-4.31-.77-6.51-1.55-2.27-.81-4.18-1.72-5.82-2.79-2.03-1.31-3.65-2.67-4.96-4.15-.63-.71-1.43-1.66-2.13-2.76-.59-.93-1.11-1.95-1.6-3.12-.38-.92-.26-2.02.35-3.04.47-.79,1.29-1.37,2.36-1.68.93-.27,2.12-.13,3.02.33.83.43,1.43,1.11,1.83,2.06l.18.4c.5,1,1.18,2.01,1.97,2.95.85.93,1.88,1.83,3.02,2.63,1.24.81,2.64,1.53,4.12,2.11,2.08.73,4.28,1.12,6.62,1.52,1.3.22,2.64.46,3.96.76,4.12.94,7.27,2.49,9.65,4.75,1.43,1.36,2.52,2.92,3.25,4.64h0c.75,1.77.95,3.76.6,5.92-.28,1.71-1.02,3.46-2.16,5.04-1.12,1.57-2.57,2.94-4.44,4.19-2.54,1.7-5.37,2.71-8.11,3.68-.49.17-.97.35-1.46.52-1.42.53-3.27,1.29-4.93,2.35-.63.45-1.24.98-1.76,1.54-.35.44-.71.97-1,1.53-.2.47-.35.95-.45,1.44-.05.5-.04.94.02,1.36.07.55.03,1.02-.1,1.47l-.4.85c-.47.79-1.29,1.37-2.36,1.68-.32.09-.67.14-1.03.14ZM697.03,277.92c.07.09.24.25.37.32.24.13.63.16.81.11.35-.1.53-.23.59-.3l.13-.27s0-.08,0-.14c-.09-.65-.1-1.36-.02-2.13l.02-.13c.14-.74.37-1.47.68-2.18l.04-.09c.39-.76.87-1.49,1.43-2.17.72-.78,1.49-1.45,2.34-2.05,1.95-1.26,4-2.09,5.57-2.68.51-.18,1-.36,1.5-.54,2.68-.95,5.22-1.85,7.44-3.34,1.56-1.05,2.76-2.17,3.67-3.45.87-1.21,1.43-2.51,1.64-3.77.26-1.59.12-3.03-.4-4.27h0c-.57-1.36-1.41-2.55-2.55-3.64-1.98-1.88-4.68-3.19-8.25-4-1.25-.28-2.55-.51-3.8-.73-2.35-.41-4.79-.83-7.15-1.66-1.72-.67-3.31-1.48-4.76-2.44-1.36-.95-2.55-2-3.59-3.13-.99-1.17-1.79-2.38-2.42-3.64l-.08-.18c-.05-.12-.11-.23-.16-.35-.14-.34-.28-.47-.45-.56-.24-.13-.63-.16-.81-.11-.34.1-.56.24-.61.33-.11.19-.14.35-.14.39.41.96.86,1.84,1.36,2.62.58.92,1.29,1.76,1.85,2.38,1.13,1.28,2.55,2.46,4.34,3.62,1.45.94,3.15,1.75,5.2,2.48,1.98.7,4.05,1.09,6.01,1.42l.39.07c2.34.4,4.77.81,7.11,1.62,1.06.42,2.02.91,2.92,1.49.84.6,1.55,1.22,2.17,1.88.55.67.98,1.3,1.32,1.96l.05.11c.25.59.44,1.21.57,1.83l.02.14c.07.62.07,1.26,0,1.88l-.02.13c-.14.72-.36,1.43-.67,2.13l-.05.09c-.39.75-.87,1.46-1.42,2.14-.73.8-1.5,1.47-2.35,2.08-1.95,1.26-3.98,2.09-5.53,2.67-.52.19-1.03.37-1.55.55-2.31.82-4.5,1.59-6.5,2.76-1.45.84-2.55,1.68-3.38,2.56-1.1,1.18-1.9,2.4-2.43,3.73-.25.62-.42,1.35-.53,2.27-.09.75,0,1.52.12,2.19Z" fill="#101727"/><path d="M733.24,237.06c-.67-1.11-1.79-1.93-2.89-2.58-.98-.58-2.05-1.05-3.1-1.51-4.75-2.06-9.77-3.3-14.93-3.73-.6-.05-1.21-.09-1.81-.11-.6-.03-1.31.25-1.76.64-.41.36-.76.98-.73,1.55.07,1.35,1.22,2.14,2.49,2.19.96.04,1.92.12,2.87.22,3.28.41,6.51,1.19,9.61,2.32.9.35,1.8.71,2.67,1.12.83.38,1.65.78,2.42,1.26.22.16.43.34.62.53.07.09.14.19.2.29.02.05.04.1.05.16,0,.04,0,.07,0,.11-.02.08-.04.17-.07.25-.09.15-.2.3-.31.45-.92.99-2.02,1.84-3.13,2.61-2.11,1.41-4.41,2.52-6.78,3.43-3.9,1.41-7.96,2.28-12.03,3.02-4.52.82-9.07,1.52-13.51,2.74-4.18,1.15-8.26,2.75-12.1,4.77-1.84.97-3.63,2.03-5.36,3.18-1.86,1.24-3.69,2.55-5.39,4-3.45,2.95-6.41,6.9-6.51,11.61-.01.5.02.99.09,1.48-.01.31.06.59.21.84.1.28.28.51.51.7.45.4,1.16.67,1.76.64.62-.02,1.3-.19,1.76-.64.39-.38.81-.97.73-1.55-.12-.81-.11-1.63,0-2.44.17-.86.43-1.7.79-2.51.52-1.02,1.16-1.96,1.9-2.83,1.88-2.08,4.15-3.8,6.45-5.38,2.98-2,6.13-3.74,9.43-5.17.87-.38,1.76-.73,2.65-1.07,4.56-1.65,9.3-2.62,14.07-3.47,4.78-.85,9.6-1.63,14.24-3.13,4.56-1.47,8.96-3.53,12.62-6.67.91-.78,1.88-1.65,2.42-2.74.37-.74.66-1.54.58-2.39-.07-.82-.29-1.5-.72-2.21Z" fill="#a99e53"/><path d="M666.26,280.75c-.93,0-1.97-.39-2.68-1.02-.36-.29-.67-.7-.87-1.17-.23-.43-.36-.9-.36-1.4-.07-.54-.1-1.08-.09-1.61.1-4.47,2.54-8.87,7.04-12.72,1.52-1.3,3.23-2.57,5.53-4.11,1.77-1.18,3.62-2.28,5.5-3.27,3.93-2.06,8.1-3.7,12.4-4.88,3.64-1,7.37-1.66,10.99-2.29.88-.16,1.77-.31,2.65-.47,3.79-.69,7.84-1.52,11.78-2.95,2.44-.93,4.56-2,6.46-3.27,1.03-.71,1.83-1.36,2.49-2-.66-.4-1.38-.74-2.06-1.05-.8-.37-1.64-.72-2.58-1.08-2.98-1.08-6.1-1.84-9.26-2.23-.96-.1-1.86-.17-2.75-.21-2.17-.09-3.82-1.61-3.92-3.61-.06-1.17.6-2.18,1.23-2.75.74-.66,1.85-1.07,2.82-1.02.63.03,1.25.07,1.87.12,5.35.45,10.53,1.74,15.4,3.85,1.13.49,2.22.97,3.27,1.59,1.03.61,2.5,1.59,3.41,3.09h0s0,0,0,0c.54.88.83,1.79.93,2.85.12,1.29-.33,2.38-.73,3.19-.65,1.31-1.73,2.3-2.78,3.21-3.42,2.94-7.72,5.21-13.14,6.96-4.34,1.4-8.86,2.19-13.23,2.96l-1.21.21c-4.5.8-9.29,1.76-13.82,3.4-.98.37-1.8.7-2.56,1.03-3.17,1.37-6.26,3.07-9.19,5.04-2,1.37-4.3,3.06-6.18,5.14-.66.79-1.24,1.65-1.67,2.51-.28.63-.5,1.35-.65,2.06-.08.72-.08,1.37,0,1.99.19,1.31-.65,2.34-1.17,2.84-.67.65-1.62,1.02-2.74,1.06-.04,0-.09,0-.13,0ZM710.43,230.63c-.2,0-.52.13-.68.27-.12.11-.22.29-.23.37.04.68.95.74,1.05.75.95.04,1.92.12,2.97.23,3.41.43,6.75,1.23,9.96,2.4,1.02.39,1.93.77,2.79,1.17.8.37,1.73.81,2.6,1.36l.1.07c.26.2.52.42.77.66l.15.17c.1.13.19.27.28.41l.14.29c.03.08.06.16.08.24l.06.56-.06.38c-.04.15-.07.26-.11.36l-.13.26c-.12.2-.26.4-.41.59l-.08.1c-.86.93-1.94,1.83-3.37,2.82-2.11,1.4-4.42,2.58-7.1,3.6-4.18,1.52-8.56,2.41-12.29,3.09-.89.16-1.78.32-2.66.47-3.55.62-7.21,1.27-10.71,2.23-4.1,1.13-8.07,2.69-11.81,4.65-1.79.94-3.55,1.98-5.23,3.1-2.2,1.47-3.82,2.67-5.25,3.89-2.67,2.29-5.89,5.97-5.99,10.51,0,.4.02.81.08,1.23l.02.13v.13s.22.37.22.37c.16.15.5.29.7.26.42-.02.68-.12.78-.22.15-.15.24-.28.27-.35-.12-.87-.12-1.77,0-2.74l.02-.1c.18-.95.48-1.91.89-2.83.57-1.13,1.28-2.18,2.12-3.19,2.12-2.36,4.6-4.18,6.75-5.66,3.09-2.08,6.35-3.87,9.68-5.31.81-.35,1.67-.7,2.72-1.09,4.76-1.72,9.7-2.72,14.33-3.54l1.21-.21c4.27-.75,8.68-1.53,12.83-2.86,5.03-1.62,8.99-3.71,12.1-6.38.85-.73,1.65-1.46,2.05-2.26.34-.69.47-1.16.43-1.59-.06-.61-.2-1.07-.5-1.57h0c-.56-.92-1.62-1.62-2.37-2.06-.89-.53-1.9-.97-2.93-1.42-4.57-1.98-9.44-3.19-14.46-3.61-.58-.05-1.17-.08-1.75-.11,0,0-.01,0-.02,0Z" fill="#101727"/><path d="M754.59,262.89c-.42-1.5-1.53-2.76-2.78-3.66-1.32-.96-2.75-1.75-4.15-2.58-1.44-.86-2.89-1.71-4.33-2.57-3.23-1.91-6.45-3.82-9.68-5.73-.53-.31-1.34-.36-1.92-.22-.55.13-1.19.51-1.49,1.01-.3.5-.46,1.12-.25,1.69.21.59.61.99,1.14,1.31,4.62,2.73,9.23,5.47,13.85,8.2,1.08.64,2.17,1.25,3.22,1.94.41.29.79.61,1.14.97.12.15.22.31.32.48.06.15.1.3.14.46.02.22.02.45,0,.67-.09.4-.22.79-.38,1.17-.7,1.33-1.67,2.53-2.65,3.66-2.19,2.47-4.68,4.67-7.4,6.54-.41.27-.82.54-1.24.8-.51.32-.96.71-1.14,1.31-.16.53-.08,1.23.25,1.69.72.99,2.3,1.46,3.4.79,2.6-1.6,5.06-3.45,7.28-5.56,1.15-1.1,2.23-2.27,3.26-3.48.93-1.09,1.86-2.21,2.53-3.48.88-1.68,1.4-3.51.87-5.4Z" fill="#a99e53"/><path d="M739.48,282.63c-1.3,0-2.64-.61-3.44-1.72-.6-.82-.78-2-.47-3.01.27-.87.85-1.57,1.79-2.14.4-.25.8-.51,1.19-.77,2.6-1.8,5-3.92,7.11-6.29.88-1.01,1.79-2.12,2.42-3.31.11-.25.19-.5.25-.75,0-.07,0-.14,0-.21,0-.02-.01-.04-.02-.05-.03-.05-.06-.1-.1-.15-.25-.25-.54-.49-.87-.73-.69-.45-1.5-.92-2.27-1.37l-2.42-1.43-12.27-7.26c-.88-.53-1.47-1.21-1.79-2.09-.34-.94-.21-1.99.37-2.97.57-.95,1.62-1.5,2.42-1.7.78-.19,2.04-.2,3.04.39l14.85,8.79c1.14.66,2.31,1.35,3.43,2.16,1.69,1.22,2.88,2.81,3.34,4.47h0c.57,2.03.24,4.16-.99,6.5-.73,1.38-1.7,2.57-2.71,3.76-1.16,1.37-2.26,2.54-3.36,3.59-2.19,2.1-4.73,4.03-7.52,5.76-.59.36-1.27.54-1.96.54ZM732.39,249.56c-.1,0-.21,0-.31.03-.25.06-.5.23-.56.32-.13.22-.14.37-.13.4.07.18.18.34.5.53l14.67,8.69c.81.47,1.64.96,2.45,1.49.57.4,1.01.78,1.4,1.19l.12.14c.15.2.29.41.42.63l.1.21c.08.21.14.41.2.63l.04.25c.02.3.02.6,0,.9l-.03.21c-.11.48-.26.97-.47,1.44l-.05.1c-.78,1.49-1.83,2.78-2.85,3.95-2.27,2.56-4.85,4.85-7.68,6.79-.44.3-.87.58-1.3.84-.43.27-.48.42-.5.48-.03.1,0,.3.03.36.3.41,1.03.61,1.4.39,2.62-1.62,4.99-3.42,7.03-5.37,1.02-.98,2.05-2.08,3.15-3.37.9-1.06,1.76-2.1,2.34-3.21.87-1.66,1.11-3.02.76-4.29h0c-.28-1.01-1.07-2.03-2.21-2.85-.99-.72-2.06-1.34-3.18-2l-14.87-8.8c-.08-.05-.28-.09-.49-.09Z" fill="#101727"/><path d="M787.42,252.08c-.41-2.45-1.53-4.79-2.92-6.84-1.45-2.15-3.27-4.05-5.18-5.8-1.87-1.72-3.86-3.31-5.75-5.01-1.78-1.6-3.49-3.29-5.11-5.05-.3-.33-.6-.67-.9-1-3.21-3.69-6.07-7.68-8.46-11.95-.67-1.19-1.3-2.41-1.89-3.64,0-.02-.01-.03-.02-.05-.27-.58-.56-1-1.14-1.31-.54-.28-1.32-.39-1.92-.22-.58.16-1.17.47-1.49,1.01-.28.47-.5,1.16-.25,1.69,2.28,4.84,5.05,9.41,8.34,13.62,3.33,4.26,7.1,8.12,11.19,11.63,2.28,1.96,4.61,3.89,6.62,6.14,1.14,1.34,2.15,2.78,2.94,4.36.5,1.11.88,2.27,1.1,3.48.15,1.2.14,2.41-.01,3.61-.25,1.44-.7,2.83-1.3,4.16-.77,1.53-1.73,2.95-2.84,4.25-1.83,2.04-3.96,3.77-6.22,5.33-3.45,2.31-7.15,4.22-11.04,5.69-1.85.67-3.73,1.25-5.64,1.72-.57.14-1.16.51-1.49,1.01-.3.46-.45,1.15-.25,1.69.45,1.23,1.82,1.83,3.06,1.53,5-1.23,9.86-3.14,14.35-5.67,4.47-2.53,8.76-5.6,11.99-9.63,1.59-1.98,2.86-4.26,3.64-6.68.42-1.3.68-2.67.8-4.03.12-1.36.01-2.69-.22-4.03Z" fill="#a99e53"/><path d="M756.19,283.7c-1.68,0-3.22-1-3.8-2.6-.34-.94-.18-2.13.41-3.03.52-.79,1.41-1.4,2.38-1.64,1.8-.44,3.65-1.01,5.49-1.67,3.76-1.43,7.38-3.29,10.71-5.53,2.42-1.67,4.36-3.33,5.93-5.08,1.05-1.24,1.94-2.57,2.61-3.92.54-1.2.94-2.48,1.17-3.75.13-1.03.14-2.12,0-3.16-.18-.96-.51-2.01-.98-3.05-.66-1.32-1.56-2.65-2.71-4-1.72-1.92-3.79-3.69-5.78-5.4l-.67-.58c-4.31-3.69-8.14-7.68-11.4-11.85-3.28-4.2-6.15-8.88-8.52-13.91-.43-.91-.31-2.04.32-3.09.47-.79,1.29-1.37,2.36-1.68.93-.26,2.12-.13,3.02.33,1.01.52,1.48,1.3,1.81,2,.61,1.26,1.23,2.46,1.87,3.59,2.29,4.08,5.07,8.02,8.28,11.7.28.32.58.65.87.97,1.58,1.72,3.27,3.38,5.01,4.95.86.77,1.73,1.52,2.6,2.26,1.04.89,2.12,1.81,3.15,2.76,2.34,2.15,4.06,4.08,5.4,6.06,1.68,2.48,2.74,4.98,3.15,7.43h0c.28,1.65.35,3.05.23,4.41-.14,1.53-.43,3-.87,4.36-.81,2.51-2.16,4.99-3.89,7.15-2.94,3.67-7,6.94-12.42,10-4.58,2.59-9.53,4.55-14.73,5.82-.34.08-.69.12-1.03.12ZM753.79,213.35c2.27,4.79,5,9.26,8.13,13.26,3.14,4.01,6.83,7.85,10.99,11.42l.67.57c2.07,1.77,4.21,3.6,6.09,5.7,1.34,1.57,2.36,3.09,3.16,4.68.6,1.31,1,2.6,1.24,3.88.18,1.38.17,2.72,0,4.07-.28,1.59-.75,3.11-1.42,4.59-.81,1.62-1.83,3.15-3.06,4.6-1.76,1.96-3.88,3.78-6.51,5.59-3.54,2.38-7.36,4.34-11.36,5.86-1.96.71-3.91,1.31-5.82,1.78-.24.06-.49.22-.59.37-.07.11-.1.29-.09.36.18.5.81.69,1.29.57,4.93-1.21,9.63-3.07,13.97-5.52,5.08-2.87,8.86-5.9,11.56-9.26,1.51-1.88,2.68-4.03,3.38-6.2.37-1.15.62-2.39.73-3.7.1-1.1.03-2.26-.2-3.65h0c-.34-2.02-1.24-4.12-2.68-6.25-1.21-1.79-2.78-3.55-4.95-5.53-1-.91-2.05-1.82-3.07-2.69-.89-.76-1.79-1.53-2.66-2.31-1.82-1.63-3.57-3.37-5.21-5.15-.31-.34-.62-.68-.92-1.02-3.35-3.84-6.26-7.95-8.65-12.21-.67-1.19-1.32-2.44-1.94-3.72-.24-.5-.34-.59-.51-.68-.24-.13-.63-.16-.81-.11-.34.1-.56.24-.61.33-.09.15-.13.29-.15.36Z" fill="#101727"/><path d="M670.12,213.78c-.02-1.27-1.26-2.24-2.49-2.19-1.19.05-2.51.85-2.49,2.19.07,4.04.13,8.09-.44,12.1-.41,2.53-1.1,5.02-2.18,7.36-.75,1.5-1.67,2.89-2.76,4.16-3.97,4.37-9.42,7.39-12.35,12.69-.75,1.35-1.37,2.8-1.64,4.33-.16.9-.27,1.8-.25,2.71.02.92.15,1.83.33,2.73.63,3.18,2.28,6.12,4.09,8.77,1.95,2.86,4.15,5.58,5.66,8.71l-.13-.28c.26.55.55.97,1.12,1.26.54.28,1.32.39,1.92.22.58-.16,1.17-.47,1.49-1.01.28-.47.5-1.15.25-1.69-.92-1.97-2.04-3.8-3.29-5.59-1.15-1.65-2.37-3.26-3.45-4.96-.57-.89-1.09-1.8-1.55-2.75-.61-1.33-1.09-2.72-1.35-4.17-.12-.94-.13-1.89-.02-2.84.17-.94.46-1.84.85-2.71.65-1.29,1.48-2.46,2.41-3.56,1.6-1.78,3.44-3.31,5.26-4.86,2.04-1.74,4.02-3.54,5.67-5.66,3.37-4.36,4.74-9.9,5.19-15.3.27-3.22.21-6.46.16-9.69Z" fill="#a99e53"/><path d="M657.88,280.13c-.68,0-1.4-.16-1.99-.47-.86-.45-1.32-1.07-1.64-1.67h0s0,0,0,0h0c-1.05-2.19-2.45-4.15-3.94-6.23-.54-.76-1.09-1.52-1.61-2.29-1.63-2.39-3.59-5.61-4.32-9.32-.22-1.11-.34-2.09-.36-2.99-.02-.89.07-1.84.27-3.01.27-1.52.86-3.09,1.81-4.8,1.98-3.56,4.97-6.12,7.86-8.6,1.69-1.45,3.29-2.81,4.7-4.37.97-1.13,1.83-2.43,2.53-3.83.93-2.01,1.62-4.35,2.04-6.92.56-3.93.49-7.95.42-11.83-.04-2.23,1.97-3.64,3.93-3.72,1.05-.03,2.1.36,2.88,1.1.73.69,1.15,1.6,1.16,2.56l-1.5.03,1.5-.02c.06,3.21.12,6.54-.16,9.83-.58,6.79-2.38,12.05-5.5,16.09-1.74,2.25-3.86,4.16-5.88,5.88l-.37.31c-1.71,1.45-3.32,2.83-4.75,4.41-.91,1.07-1.64,2.14-2.19,3.23-.32.72-.57,1.52-.71,2.31-.08.7-.07,1.53.03,2.38.21,1.15.61,2.39,1.22,3.73.42.85.92,1.73,1.45,2.56.72,1.13,1.52,2.25,2.3,3.33.38.52.75,1.05,1.12,1.58,1.42,2.04,2.54,3.94,3.42,5.81.42.91.31,2.03-.32,3.09-.47.79-1.29,1.38-2.36,1.68-.32.09-.67.14-1.03.14ZM656.83,276.44c.19.4.3.48.45.56.24.13.63.16.81.11.34-.1.56-.24.61-.33.09-.15.13-.29.14-.36-.8-1.69-1.82-3.42-3.12-5.29-.36-.52-.73-1.03-1.1-1.55-.8-1.12-1.62-2.27-2.39-3.46-.6-.93-1.15-1.9-1.63-2.89-.74-1.61-1.22-3.09-1.48-4.57-.15-1.16-.15-2.24-.03-3.28.2-1.12.52-2.14.97-3.14.69-1.37,1.54-2.63,2.64-3.92,1.59-1.76,3.35-3.27,5.06-4.72l.36-.31c2.2-1.87,3.97-3.52,5.45-5.44,2.76-3.57,4.36-8.32,4.89-14.51.27-3.14.21-6.38.15-9.52l1.5-.04-1.5.03c0-.2-.14-.36-.22-.44-.19-.18-.47-.31-.71-.28-.43.02-1.05.28-1.05.66.07,3.82.15,8.15-.45,12.34-.46,2.87-1.24,5.48-2.3,7.78-.83,1.65-1.83,3.16-2.98,4.51-1.57,1.73-3.31,3.22-5,4.67-2.81,2.41-5.47,4.68-7.19,7.77-.78,1.41-1.27,2.68-1.48,3.86-.17.98-.24,1.72-.23,2.42.02.72.11,1.53.3,2.47.49,2.48,1.68,5.02,3.86,8.22.51.75,1.04,1.49,1.57,2.24,1.44,2.01,2.92,4.09,4.07,6.4v.02Z" fill="#101727"/><rect x="639.82" y="270.28" width="164.88" height="16.47" fill="#587a51"/><path d="M806.2,288.25h-167.88v-19.47h167.88v19.47ZM641.32,285.25h161.88v-13.47h-161.88v13.47Z" fill="#101727"/><polygon points="1083.04 530.68 1049.91 585.14 1048.42 625.37 1041.19 821.13 1040.53 839.08 930.11 838.9 930.86 821.13 943.32 524.88 943.34 524.46 1067.93 524.46 1083.04 530.68" fill="#01654d"/><path d="M1208.42,838.9l-110.42.18-4.16-17.95-45.42-195.76-9.33-40.23-59.18-60.54-.14-.14h88.16l15.11,6.22,29.08,11.98c13.23,5.45,27.39,3.07,37.86-4.59l54.99,283.06,3.45,17.77Z" fill="#01654d"/><path d="M1027.4,846.84l-1.79,61.76h-132.04s-18.74-41.54,46.11-41.54c1.5-12.67-1.01-21.01-1.01-21.01l88.73.79Z" fill="#e9e1ce"/><path d="M1027.07,910.09h-134.47l-.4-.88c-.27-.61-6.64-15.07,1.33-27.4,6.84-10.59,21.92-16.05,44.85-16.25,1.19-9.41-1.14-19.06-1.16-19.16l-.46-1.88,92.19.82-1.88,64.74ZM894.59,907.09h129.57l1.71-58.77-85.33-.76c.69,3.59,1.92,11.77.63,19.73l-.2,1.26h-1.28c-22.56,0-37.23,5-43.62,14.86-6.04,9.33-2.65,20.49-1.47,23.68Z" fill="#101727"/><path d="M1105.39,846.92l10.9,61.67h132.04s18.74-41.54-46.11-41.54c-2.28-11.91-4.62-20.96-4.62-20.96l-92.21.82Z" fill="#e9e1ce"/><path d="M1249.31,910.09h-134.27l-11.43-64.66,95.16-.85.29,1.13c.02.09,2.22,8.61,4.41,19.84,22.96.19,38.07,5.65,44.91,16.25,7.97,12.33,1.6,26.79,1.33,27.4l-.4.88ZM1117.55,907.09h129.77c1.17-3.18,4.57-14.35-1.47-23.68-6.39-9.86-21.06-14.86-43.62-14.86h-1.24l-.23-1.22c-1.78-9.31-3.62-16.95-4.32-19.73l-89.26.8,10.38,58.69Z" fill="#101727"/><polygon points="1044.96 855.15 923.68 855.15 919.71 821.13 1048.94 821.13 1044.96 855.15" fill="#01654d"/><polygon points="1093.57 855.15 1214.85 855.15 1218.83 821.13 1089.59 821.13 1093.57 855.15" fill="#01654d"/><rect x="919.71" y="819.63" width="129.23" height="3" fill="#101727"/><rect x="923.68" y="853.65" width="121.28" height="3" fill="#101727"/><rect x="1089.59" y="819.63" width="129.23" height="3" fill="#101727"/><rect x="1093.57" y="853.65" width="121.28" height="3" fill="#101727"/><rect x="49.1" y="907.07" width="1209.21" height="3" fill="#101727"/><path d="M968.3,193.17c-2.97,20.6-2.19,37.87.57,52.21,16.5,11.75,38.07,16.8,57.59,8.74,22.68-9.35,27.22-26.89,31.7-47.84h0s-89.86-13.11-89.86-13.11ZM988.29,225.96c-2.7.32-5.14-1.61-5.46-4.31-.32-2.7,1.61-5.14,4.31-5.46,2.7-.32,5.14,1.61,5.46,4.31s-1.61,5.14-4.31,5.46ZM1024.21,226.69c-2.7.32-5.15-1.61-5.46-4.31-.32-2.7,1.61-5.14,4.31-5.46,2.7-.32,5.14,1.61,5.46,4.31.32,2.7-1.61,5.14-4.31,5.46Z" fill="#e9e1ce" stroke="#101727" stroke-miterlimit="10" stroke-width="3"/><path d="M1010.32,309.32c-4.2,0-8.3-1.34-11.72-3.86-1.28-.94-2.47-2.05-3.5-3.3l-.51-.63c-.66-.79-1.41-1.69-2.22-2.68l-.08-.1c-.19-.24-.39-.48-.58-.72-.26-.32-.56-.69-.86-1.07-.29-.37-.54-.69-.79-1.01-.32-.41-.65-.84-.99-1.29l-.22-.29c-1.34-1.79-2.57-3.5-3.74-5.25-.41-.61-.81-1.22-1.22-1.86-.39-.59-.78-1.21-1.17-1.84l-.13-.2c-.6-.99-1.2-2-1.8-3.04l-.17-.3c-.63-1.09-1.19-2.11-1.7-3.1l-.23-.45c-.63-1.2-1.26-2.45-1.86-3.72-.07-.13-.14-.29-.21-.45l-.1-.22c-.49-1.04-.97-2.11-1.44-3.21-.35-.81-.7-1.65-1.05-2.51l-.2-.5c-.19-.48-.39-.96-.57-1.45-.24-.62-.49-1.29-.73-1.96l-.38-1.04c-.54-1.53-1.07-3.16-1.63-4.99-.19-.61-.37-1.23-.56-1.88l-.07-.25c-.1-.37-.21-.74-.3-1.11-.14-.5-.28-1.04-.43-1.59-.15-.57-.3-1.14-.43-1.73-.14-.54-.27-1.11-.4-1.69-.22-.96-.43-1.94-.64-2.93-.1-.47-.2-.96-.29-1.45l-.69-3.66,3.03,2.16c17.68,12.59,38.67,15.79,56.15,8.58,21.18-8.73,25.96-24.13,30.77-46.61v-1.58l1.72.24,19.64,2.87h1.63l-.22,1.72c-1.65,11.28-4.22,21.97-7.62,31.77-1.32,3.84-2.8,7.61-4.39,11.2-14.45,32.65-36.22,47.1-45.51,53.27l-.55.36c-.85.57-1.68,1.03-2.49,1.41-1.92.94-4.02,1.55-6.2,1.8-.78.09-1.57.14-2.35.14ZM971.1,248.69c.05.23.1.45.15.68.13.56.26,1.11.39,1.66.13.58.27,1.12.41,1.67.14.54.28,1.06.42,1.58.1.38.2.73.29,1.07l.07.25c.17.61.35,1.21.54,1.81.54,1.79,1.06,3.38,1.58,4.84l.37,1.03c.24.66.48,1.3.72,1.92.18.49.37.95.55,1.4l.2.5c.33.82.67,1.63,1.01,2.42.46,1.07.93,2.11,1.4,3.12l.11.23c.06.14.13.27.2.41.6,1.26,1.21,2.47,1.82,3.63l.24.45c.5.96,1.04,1.94,1.66,3.02l.16.29c.58,1,1.17,1.99,1.75,2.95l.12.19c.38.61.75,1.21,1.13,1.78.41.63.81,1.24,1.21,1.84,1.14,1.7,2.33,3.37,3.64,5.11l.21.28c.33.44.65.86.97,1.27.25.33.49.63.73.94.33.42.61.77.88,1.1.2.26.39.49.57.71l.08.1c.8.98,1.54,1.86,2.2,2.66l.52.63c.88,1.05,1.87,2,2.96,2.79,3.45,2.55,7.69,3.67,11.95,3.16,1.84-.21,3.61-.72,5.26-1.53.71-.32,1.39-.71,2.13-1.2l.56-.36c9.83-6.53,30.32-20.13,44.41-51.98,1.55-3.51,3-7.19,4.29-10.96,3.19-9.2,5.63-19.2,7.26-29.74l-16.9-2.47c-4.01,18.7-8.6,37.78-32.3,47.55-17.42,7.2-38.09,4.62-55.93-6.81Z" fill="#101727"/><polygon points="1057.94 207.75 966.52 194.42 967.11 191.47 969.52 191.79 1058.38 204.79 1057.94 207.75" fill="#101727"/><path d="M1083.2,173.08l-5.25,36.02v.06h-.04l-8.96-1.31-1.88-.28-8.91-1.29h0s-89.86-13.11-89.86-13.11v-.05s1.39-9.51,1.39-9.51l3.87-26.51c3.58-24.56,26.39-41.56,50.94-37.98l2.37.35h.01l18.34,2.67c24.56,3.58,41.56,26.39,37.98,50.94Z" fill="#e8bd51"/><path d="M1077.95,209.1h0s-138.53-20.19-138.53-20.19c-2.63-.38-4.44-2.82-4.06-5.45h0c.38-2.63,2.82-4.44,5.45-4.06l58.71,8.56" fill="#e8bd51"/><path d="M1077.74,210.58l-138.53-20.19c-3.44-.5-5.83-3.71-5.33-7.15.5-3.44,3.71-5.83,7.15-5.33l58.71,8.56-.43,2.97-58.71-8.56c-1.8-.26-3.48.99-3.75,2.79-.26,1.8.99,3.48,2.79,3.75l138.53,20.19-.43,2.97Z" fill="#101727"/><path d="M1098.47,228.26c-5.3,11.67-19.31,12.51-28.08,12.4,3.19-9.2,5.81-19.64,7.55-31.5v-.06c12.33-6.53,26.33,6.39,20.53,19.16Z" fill="#e9e1ce"/><path d="M1071.6,242.17c-.42,0-.83,0-1.23,0l-2.08-.03.68-1.96c3.34-9.63,5.86-20.13,7.48-31.23l.11-.75.68-.42c6.23-3.31,13.64-2.27,18.85,2.64,5.16,4.85,6.62,12.1,3.73,18.46-5.3,11.67-18.35,13.29-28.23,13.29ZM1079.32,210.09c-1.55,10.27-3.84,20.03-6.84,29.07,8.92-.1,20.18-1.73,24.62-11.52h0c2.85-6.28.29-11.89-3.06-15.04-4.08-3.84-9.79-4.79-14.73-2.5Z" fill="#101727"/><polygon points="1070.39 242.16 1069.65 242.15 1069.65 239.15 1070.39 239.16 1070.39 242.16" fill="#101727"/><path d="M991.23,251.48c-1.18,0-2.25-.17-3.17-.48-1.86-.63-3.05-1.85-3.26-3.35-.14-.95.04-2.82,2.72-4.7,10.84-7.57,18.11-19.47,19.96-32.66l2.97.42c-1.96,14.01-9.7,26.66-21.22,34.7-1.24.86-1.5,1.54-1.46,1.81.04.27.44.66,1.25.93,2.21.75,8.01.55,14.15-5.51l2.11,2.13c-4.84,4.78-10.05,6.7-14.04,6.7Z" fill="#101727"/><path d="M1077.94,209.16c-1.74,11.86-4.36,22.3-7.55,31.5-1.35,3.92-2.8,7.6-4.34,11.08-14.27,32.25-35.42,46.29-44.97,52.63l-.54.35c-.75.5-1.51.94-2.3,1.3-1.84.9-3.78,1.45-5.74,1.67-4.56.54-9.23-.65-13.01-3.44-1.18-.86-2.27-1.88-3.24-3.05l-.51-.62c-.67-.8-1.41-1.69-2.22-2.68-.21-.26-.43-.53-.64-.8-.28-.34-.57-.7-.86-1.07-.26-.33-.52-.66-.78-1-.39-.5-.79-1.03-1.2-1.57-1.18-1.57-2.42-3.29-3.69-5.18-.4-.6-.8-1.21-1.21-1.84-.43-.65-.85-1.33-1.28-2.02-.59-.97-1.18-1.97-1.78-3-.05-.09-.1-.18-.15-.27-.56-.99-1.12-2-1.68-3.06-.08-.15-.16-.31-.24-.46-.62-1.18-1.23-2.4-1.83-3.66-.11-.22-.21-.44-.32-.67-.48-1.02-.95-2.08-1.42-3.16-.35-.8-.69-1.63-1.03-2.47-.25-.63-.51-1.26-.75-1.91-.25-.64-.49-1.29-.73-1.95-.13-.35-.25-.7-.38-1.05-.56-1.58-1.09-3.22-1.6-4.9-.19-.61-.37-1.22-.55-1.85-.12-.43-.25-.88-.36-1.32-.15-.53-.29-1.06-.43-1.6-.15-.56-.29-1.12-.42-1.69-.14-.56-.27-1.12-.4-1.69-.22-.95-.43-1.92-.63-2.9-.1-.47-.2-.95-.29-1.43,16.5,11.75,38.07,16.8,57.59,8.74,22.68-9.35,27.22-26.89,31.7-47.84v-.02l8.91,1.31,1.88.28,8.96,1.31h.03Z" fill="#101727"/><path d="M1010.32,309.32c-4.2,0-8.3-1.34-11.72-3.86-1.28-.94-2.47-2.05-3.5-3.3l-.51-.63c-.66-.79-1.41-1.69-2.22-2.68l-.08-.1c-.19-.24-.39-.48-.58-.72-.26-.32-.56-.69-.86-1.07-.29-.37-.54-.69-.79-1.01-.32-.41-.65-.84-.99-1.29l-.22-.29c-1.34-1.79-2.57-3.5-3.74-5.25-.41-.61-.81-1.22-1.22-1.86-.39-.59-.78-1.21-1.17-1.84l-.13-.2c-.6-.99-1.2-2-1.8-3.04l-.17-.3c-.56-.99-1.13-2.01-1.69-3.09l-.24-.46c-.63-1.2-1.26-2.45-1.86-3.72-.07-.13-.14-.29-.21-.45l-.1-.22c-.49-1.04-.97-2.11-1.44-3.21-.35-.81-.7-1.65-1.05-2.51l-.2-.5c-.19-.48-.39-.96-.57-1.45-.24-.62-.49-1.29-.73-1.96l-.38-1.04c-.54-1.53-1.07-3.16-1.63-4.99-.19-.61-.37-1.23-.56-1.88l-.07-.25c-.1-.37-.21-.74-.3-1.11-.14-.5-.28-1.04-.43-1.59-.15-.57-.3-1.14-.43-1.73-.14-.54-.27-1.11-.4-1.69-.22-.96-.43-1.94-.64-2.93-.1-.47-.2-.96-.29-1.45l-.69-3.66,3.03,2.16c17.68,12.59,38.67,15.79,56.15,8.58,21.18-8.73,25.96-24.13,30.77-46.61v-1.58l1.72.23,19.64,2.88h1.63l-.22,1.72c-1.65,11.28-4.22,21.97-7.62,31.77-1.32,3.84-2.8,7.61-4.39,11.2-14.45,32.65-36.22,47.1-45.51,53.27l-.55.36c-.85.57-1.68,1.03-2.49,1.41-1.92.94-4.02,1.55-6.2,1.8-.78.09-1.57.14-2.35.14ZM971.1,248.69c.05.23.1.45.15.68.13.56.26,1.11.39,1.66.13.58.27,1.12.41,1.67.14.54.28,1.06.42,1.58.1.38.2.73.29,1.07l.07.25c.17.61.35,1.21.54,1.81.54,1.79,1.06,3.38,1.58,4.84l.37,1.03c.24.66.48,1.3.72,1.92.18.49.37.95.55,1.4l.2.5c.33.82.67,1.63,1.01,2.42.46,1.07.93,2.11,1.4,3.12l.11.23c.06.14.13.27.2.41.6,1.26,1.21,2.47,1.82,3.63l.24.45c.56,1.05,1.11,2.05,1.66,3.03l.15.28c.58,1,1.17,1.99,1.75,2.95l.12.19c.38.61.75,1.21,1.13,1.78.41.63.81,1.24,1.21,1.84,1.14,1.7,2.33,3.37,3.64,5.11l.21.28c.33.44.65.86.97,1.27.25.33.49.63.73.94.33.42.61.77.88,1.1.2.26.39.49.57.71l.08.1c.8.98,1.54,1.86,2.2,2.66l.52.63c.88,1.05,1.87,2,2.96,2.79,3.45,2.55,7.69,3.67,11.95,3.16,1.84-.21,3.61-.72,5.26-1.53.71-.32,1.39-.71,2.13-1.2l.56-.36c9.83-6.53,30.32-20.13,44.41-51.98,1.55-3.51,3-7.19,4.29-10.96,3.19-9.2,5.63-19.2,7.26-29.74l-16.9-2.48c-4.01,18.7-8.6,37.79-32.3,47.56-17.42,7.2-38.09,4.62-55.93-6.81Z" fill="#101727"/><path d="M1024.21,226.69c-2.7.32-5.15-1.61-5.46-4.31-.32-2.7,1.61-5.14,4.31-5.46,2.7-.32,5.14,1.61,5.46,4.31.32,2.7-1.61,5.14-4.31,5.46Z" fill="#e9e1ce"/><path d="M1023.62,228.22c-1.44,0-2.83-.48-3.97-1.39-1.34-1.06-2.19-2.59-2.39-4.29-.42-3.51,2.11-6.7,5.62-7.12,3.52-.42,6.71,2.11,7.13,5.62.42,3.51-2.11,6.71-5.62,7.13h0c-.26.03-.51.05-.77.05ZM1023.64,218.38c-.13,0-.27,0-.4.02-1.87.22-3.22,1.92-3,3.79.1.91.56,1.72,1.27,2.28.72.57,1.61.82,2.52.71h0c1.87-.22,3.22-1.92,3-3.79-.21-1.74-1.69-3.02-3.39-3.02Z" fill="#101727"/><path d="M988.29,225.96c-2.7.32-5.14-1.61-5.46-4.31-.32-2.7,1.61-5.14,4.31-5.46,2.7-.32,5.14,1.61,5.46,4.31s-1.61,5.14-4.31,5.46Z" fill="#e9e1ce"/><path d="M987.7,227.49c-1.43,0-2.82-.48-3.96-1.38-1.34-1.06-2.2-2.58-2.4-4.29-.2-1.7.27-3.38,1.33-4.73,1.06-1.34,2.58-2.2,4.29-2.4,1.7-.21,3.38.27,4.73,1.33,1.34,1.06,2.2,2.58,2.4,4.29.2,1.7-.27,3.38-1.33,4.73-1.06,1.34-2.58,2.2-4.29,2.4h0c-.26.03-.51.05-.77.05ZM987.73,217.65c-.14,0-.27,0-.41.02-.91.11-1.72.56-2.29,1.28-.57.72-.82,1.61-.71,2.52.11.91.56,1.72,1.28,2.29.72.57,1.61.82,2.52.71h0c.91-.11,1.72-.56,2.29-1.28.57-.72.82-1.61.71-2.52-.11-.91-.56-1.72-1.28-2.29-.61-.48-1.34-.73-2.11-.73Z" fill="#101727"/><path d="M1033.76,214.46c-2.34-3.11-6.24-4.99-10.7-5.17l.16-4c5.66.22,10.66,2.68,13.73,6.75l-3.19,2.41Z" fill="#101727"/><path d="M975.87,210.54l-2.87-2.79c3.55-3.65,8.83-5.47,14.47-4.98l-.34,3.98c-4.44-.37-8.54,1-11.26,3.79Z" fill="#101727"/><path d="M1081.95,291.21l-.07.04-50.47,31.1-13.17-16.33c.79-.36,1.55-.8,2.3-1.3l.54-.35c9.55-6.34,30.7-20.38,44.97-52.63l15.9,39.47Z" fill="#e9e1ce"/><path d="M1031.07,324.32l-15.21-18.86,1.76-.8c.67-.31,1.35-.69,2.09-1.18l.56-.36c9.83-6.53,30.32-20.13,44.41-51.98l1.44-3.25,17.72,43.98-1.21.69-51.55,31.77ZM1020.55,306.49l11.2,13.89,48.34-29.79-14.12-35.06c-14.42,30.41-35.06,44.12-44.05,50.08l-.55.36c-.27.18-.54.35-.81.51Z" fill="#101727"/><path d="M1017.8,307.87l-15.02-18.63,60.27-48.98,4.62,11.51-.26.58c-14.45,32.65-36.22,47.1-45.51,53.27l-.55.36c-.85.57-1.68,1.03-2.49,1.41l-1.06.48ZM1007,289.68l11.65,14.45c.34-.2.7-.41,1.06-.66l.56-.36c9.77-6.49,30.07-19.96,44.16-51.4l-2.63-6.55-54.79,44.52Z" fill="#101727"/><rect x="997.01" y="137.6" width="6.65" height="16.9" transform="translate(-2.77 271.64) rotate(-15.44)" fill="#01654d"/><path d="M995.49,156.25c3.24,9.37,8.51,13.08,11.77,14.85,1.89-3.21,4.5-9.15,2.38-18.98.25-.14.5-.27.75-.42,1.89-1.11,3.58-2.33,5.1-3.64,4.34,15.79-1.34,24.66-3.49,28l-.09.14c-.41.64-.95,1.15-1.57,1.52-1.32.78-2.99.88-4.45.15l-.18-.09c-3.56-1.77-13.03-6.47-17.4-22.22,2.3.53,4.71.78,7.18.69Z" fill="#fff"/><path d="M1066.67,523.94l-68.44.52h-54.89l-.02.42-12.22.09,6.4-56,3.2-27.96,14.3,1.26.22.34c-5.75,3.92-9.93,10.04-11.26,17.3l-.15.78c-2.44,13.28,5.37,26.31,18.24,30.41h.41c-.1,9.86,6.16,18.92,15.82,22.11l4.97,1.65c11.62,3.84,24.23-2.06,28.72-13.45l54.7,22.53Z" fill="#e9e1ce"/><path d="M929.42,526.48l9.96-87.09,16.48,1.45,1.42,2.18-1.21.83c-5.63,3.84-9.4,9.64-10.63,16.33l-.15.79c-2.28,12.43,5.03,24.7,17.02,28.63l1.67.04v1.48c-.11,9.4,5.83,17.71,14.78,20.66l4.97,1.65c10.86,3.59,22.66-1.93,26.85-12.58l.56-1.42,62.98,25.94-75.87.58h-53.47l-.02.41-15.33.11ZM942.03,442.63l-9.24,80.82,9.11-.07.02-.43h56.32l61-.46-46.46-19.14c-5.23,11.2-18.1,16.85-29.98,12.92l-4.97-1.65c-9.79-3.23-16.43-12.1-16.83-22.31-13.18-4.53-21.17-18.13-18.64-31.91l.15-.79c1.16-6.34,4.37-11.96,9.16-16.15l-9.62-.85Z" fill="#101727"/><rect x="943.32" y="523.17" width="54.91" height="3" transform="translate(-3.99 7.44) rotate(-.44)" fill="#101727"/><path d="M1008.86,282.15c-5.08,0-9.04-2.04-9.6-5.27-.16-.9,0-1.64.47-2.22.98-1.2,2.93-1.27,5.62-1.36,1.65-.06,3.51-.12,5.45-.46,2.26-.39,4.33-1.27,6.17-2.05,2.34-1,4.04-1.72,5.31-1.02.61.33,1,.93,1.15,1.79h0c.71,4.1-4.77,9.19-11.06,10.28-1.21.21-2.38.31-3.51.31ZM1021.11,271.49c-.65,0-2.19.65-3.35,1.15-1.84.78-4.12,1.75-6.61,2.18-2.08.36-4.02.43-5.73.48-1.75.06-3.73.13-4.14.62-.11.13-.09.41-.05.61.47,2.74,5.42,4.26,10.79,3.33,5.56-.96,9.9-5.26,9.43-7.97-.05-.27-.12-.36-.13-.37-.05-.03-.13-.04-.22-.04Z" fill="#e9e1ce"/><path d="M1161.64,311.17c-35.95-12.77-66.4-16.08-79.69-19.96l-.07.04.09.15-15.11,64.72s-12.26-33.77-35.45-33.77-34.96,27.81-34.96,27.81l2.92-45.74.12-.17c-1.18-.86-2.27-1.88-3.24-3.05l-.51-.62c-.67-.8-1.41-1.69-2.22-2.68-.21-.26-.43-.53-.64-.8-.28-.34-.57-.7-.86-1.07-.26-.33-.52-.66-.78-1-.4-.5-.8-1.03-1.2-1.57-13.5,6.12-32.04,19.1-49.07,43.53l-29.02,45.27c14.6-6.03,30.31,1.96,34.32,8.27l.2.02-2.86,25,44.42,2.14,111.4,44.91,10.71-48.87c19.11-8.04,50.45-4.62,69.48,15.04l9.06-53.7c11.15-51.36-27.04-63.9-27.04-63.9ZM1017.57,372.22c-2.72,0-4.92-2.21-4.92-4.92s2.2-4.92,4.92-4.92,4.92,2.2,4.92,4.92-2.21,4.92-4.92,4.92ZM1018.31,349.87c-2.72,0-4.92-2.2-4.92-4.92s2.2-4.92,4.92-4.92,4.92,2.2,4.92,4.92-2.21,4.92-4.92,4.92Z" fill="#e9e1ce" stroke="#101727" stroke-miterlimit="10" stroke-width="3"/><path d="M1081.97,291.4l-15.11,64.72s-12.26-33.77-35.45-33.77l50.47-31.1.09.15Z" fill="#e9e1ce"/><path d="M1067.18,361.37l-1.72-4.74c-.12-.33-12.18-32.78-34.04-32.78h-5.29l56.27-34.67,1.18,1.97-16.39,70.22ZM1036.01,321.28c8.31,1.57,16.21,7.4,23.05,17.09,3.41,4.83,5.87,9.61,7.39,12.91l13.3-56.96-43.74,26.96Z" fill="#101727"/><path d="M1031.41,322.35c-23.19,0-34.96,27.81-34.96,27.81l2.92-45.74.12-.17c3.78,2.79,8.45,3.98,13.01,3.44,1.96-.22,3.9-.77,5.74-1.67l13.17,16.33Z" fill="#e9e1ce"/><path d="M994.39,358.84l3.51-54.95,1.25-1.77,1.23.91c3.44,2.54,7.68,3.66,11.94,3.16,1.84-.21,3.61-.72,5.26-1.53l1.07-.53,15.89,19.7h-3.14c-21.91,0-33.46,26.63-33.58,26.89l-3.44,8.1ZM1000.72,306.82l-2.33,36.45c1.43-2.37,3.33-5.17,5.69-7.98,7.13-8.49,15.48-13.38,24.31-14.29l-10.6-13.14c-1.64.68-3.36,1.12-5.13,1.32-4.17.49-8.33-.34-11.95-2.36Z" fill="#101727"/><path d="M1022.49,367.3c0,2.71-2.21,4.92-4.92,4.92s-4.92-2.21-4.92-4.92,2.2-4.92,4.92-4.92,4.92,2.2,4.92,4.92Z" fill="#e9e1ce"/><path d="M1017.57,373.72c-3.54,0-6.42-2.88-6.42-6.42s2.88-6.42,6.42-6.42,6.42,2.88,6.42,6.42-2.88,6.42-6.42,6.42ZM1017.57,363.88c-1.89,0-3.42,1.53-3.42,3.42s1.53,3.42,3.42,3.42,3.42-1.53,3.42-3.42-1.53-3.42-3.42-3.42Z" fill="#101727"/><path d="M1023.23,344.95c0,2.72-2.21,4.92-4.92,4.92s-4.92-2.2-4.92-4.92,2.2-4.92,4.92-4.92,4.92,2.2,4.92,4.92Z" fill="#e9e1ce"/><path d="M1018.31,351.37c-3.54,0-6.42-2.88-6.42-6.42s2.88-6.42,6.42-6.42,6.42,2.88,6.42,6.42-2.88,6.42-6.42,6.42ZM1018.31,341.53c-1.89,0-3.42,1.53-3.42,3.42s1.53,3.42,3.42,3.42,3.42-1.53,3.42-3.42-1.53-3.42-3.42-3.42Z" fill="#101727"/><path d="M1179.62,428.77l-14.24,84.35c-1.79,10.56-7.56,19.23-15.4,24.95-10.47,7.66-24.63,10.04-37.86,4.59l-29.08-11.98-15.11-6.22-1.26-.52-54.7-22.53c-4.49,11.39-17.1,17.29-28.72,13.45l-4.97-1.65c-9.66-3.19-15.92-12.25-15.82-22.1h-.41c-12.87-4.11-20.68-17.14-18.24-30.42l.15-.78c1.33-7.26,5.51-13.38,11.26-17.3l-.22-.34-14.3-1.26-23.19-2.04c-6.55-.58-11.5-6.2-11.24-12.77.25-6.65,5.73-11.84,12.31-11.84.2,0,.4,0,.6.01l24.43,1.18,44.42,2.14,111.4,44.91,10.71-48.87c19.11-8.04,50.45-4.62,69.48,15.04Z" fill="#e9e1ce"/><path d="M1127.03,547.13c-5.21,0-10.46-1.02-15.48-3.09l-98.78-40.69c-5.23,11.2-18.1,16.85-29.98,12.92l-4.97-1.65c-9.79-3.23-16.43-12.1-16.83-22.31-13.18-4.53-21.17-18.13-18.64-31.91l.15-.79c1.16-6.34,4.37-11.96,9.16-16.15l-34.27-3.02c-7.36-.65-12.9-6.94-12.61-14.32.28-7.45,6.35-13.28,13.81-13.28.22,0,.45,0,.67.01l69.1,3.33,109.99,44.34,10.5-47.9.72-.3c19.65-8.27,51.63-4.77,71.14,15.38l.53.54-14.37,85.1c-1.78,10.48-7.46,19.68-16,25.91-7.09,5.19-15.41,7.85-23.84,7.85ZM1011.13,499.44l101.56,41.83c12.17,5.01,25.78,3.36,36.4-4.41,7.9-5.77,13.16-14.29,14.81-23.99l14.11-83.59c-18.42-18.52-47.98-21.88-66.58-14.46l-10.92,49.83-112.81-45.48-68.6-3.31c-.18,0-.35-.01-.53,0-5.84,0-10.59,4.57-10.81,10.4-.23,5.78,4.11,10.71,9.87,11.22l38.22,3.37,1.42,2.18-1.21.83c-5.63,3.84-9.4,9.64-10.63,16.33l-.15.79c-2.28,12.43,5.03,24.7,17.02,28.63l1.67.04v1.48c-.11,9.4,5.83,17.71,14.78,20.66l4.97,1.65c10.86,3.59,22.66-1.93,26.85-12.58l.56-1.42Z" fill="#101727"/><rect x="1000.15" y="486" width="3" height="22.32" transform="translate(160.52 1234.03) rotate(-67.62)" fill="#101727"/><rect x="1178.62" y="428.57" width="3" height="1.44" transform="translate(27.14 926.9) rotate(-43.33)" fill="#101727"/><path d="M963.96,491.11h-3c0-1.53.15-3.06.46-4.57l1.56-7.9c2.11-10.73,10.85-18.65,21.74-19.71l11.76-1.14.29,2.99-11.76,1.14c-9.56.93-17.23,7.89-19.08,17.31l-1.56,7.91c-.27,1.32-.4,2.65-.4,3.98Z" fill="#101727"/><path d="M956.07,443.85l-1.69-2.48c4.72-3.23,10.24-4.93,15.97-4.93h13.78v3h-13.78c-5.12,0-10.05,1.52-14.27,4.41Z" fill="#101727"/><rect x="1092.02" y="389.71" width="46.1" height="3" transform="translate(494.12 1396.62) rotate(-77.63)" fill="#101727"/><polygon points="894.02 428.02 889.29 430.84 886.68 432.4 868.08 398.36 870.91 397.21 876.92 394.78 888.94 418.15 894.02 428.02" fill="#01654d"/><path d="M886.11,434.49l-20.15-36.88,11.67-4.73,18.37,35.71-9.89,5.9ZM870.2,399.12l17.05,31.2,4.79-2.86-15.83-30.77-6.01,2.43Z" fill="#101727"/><path d="M813.88,420.61c-.09.04-.18.07-.28.1l-25.77,8.41v-.03s26.05-8.48,26.05-8.48Z" fill="#e8bd51"/><path d="M786.88,431.01l-.94-2.85,1.42-.5,26.06-8.48,1.07,2.8c-.15.06-.29.12-.45.16l-27.16,8.86Z" fill="#101727"/><path d="M833.34,434.61c-.11.05-.23.09-.35.13l-35.71,11.66-.03-.04,36.09-11.75Z" fill="#e8bd51"/><path d="M796.73,448.16l-1.9-2.54,1.96-.69,36.09-11.75,1.08,2.79c-.16.07-.32.13-.49.19l-36.74,12Z" fill="#101727"/><path d="M892.71,462.89l-15.27.35-61.24,1.42c.79-1.39,1.52-2.97,2.24-4.82l26.69-8.72c4.08-1.33,6.68-5.12,6.68-9.2,0-.99-.15-2-.48-3-1.66-5.08-7.12-7.86-12.2-6.2l-5.7,1.86c3.83-1.45,6.24-5.11,6.24-9.04,0-1-.15-2.01-.48-3.01-1.66-5.08-7.13-7.85-12.21-6.19l-13.04,4.25c4.86-1.78,7.47-7.13,5.85-12.09-1.33-4.08-5.12-6.67-9.19-6.67-1,0-2.01.15-3.01.48l-29.21,9.51-25.52-46.7c-3.85-7.03.5-16.14,7.77-16.31l53.59-1.24,24.68-.57c2.79-.06,5.41,1.55,6.89,4.25l25.12,45.96,18.38,33.63,9.99,18.28c3.24,5.94-.43,13.63-6.57,13.77Z" fill="#e8bd51"/><path d="M813.59,466.22l1.31-2.3c.74-1.3,1.44-2.82,2.15-4.62l.26-.66,27.36-8.94c3.38-1.1,5.65-4.23,5.65-7.77,0-.87-.14-1.72-.4-2.53-1.4-4.29-6.03-6.64-10.31-5.24l-5.7,1.86-1-2.83c3.15-1.19,5.27-4.26,5.27-7.64,0-.87-.14-1.73-.4-2.54-1.4-4.29-6.03-6.63-10.32-5.23l-13.04,4.25-.98-2.83c4.15-1.52,6.31-6,4.94-10.22-1.1-3.37-4.22-5.64-7.76-5.64-.87,0-1.73.14-2.54.41l-30.4,9.9-26.12-47.79c-2.21-4.03-2.15-9,.14-12.98,1.98-3.44,5.23-5.46,8.91-5.55l78.27-1.81c3.36-.06,6.5,1.86,8.24,5.03l53.49,97.87c1.9,3.48,1.85,7.77-.14,11.2-1.72,2.97-4.53,4.72-7.72,4.79l-79.16,1.83ZM819.58,461.05c-.29.73-.59,1.41-.89,2.06l73.99-1.71.03,1.5-.03-1.5c2.11-.05,4-1.25,5.19-3.29,1.46-2.53,1.5-5.69.1-8.26l-53.49-97.87c-1.2-2.19-3.3-3.53-5.54-3.47l-78.27,1.81c-2.6.06-4.93,1.54-6.38,4.05-1.77,3.08-1.82,6.92-.11,10.04l24.92,45.61,28.03-9.12c1.11-.37,2.28-.55,3.47-.55,4.85,0,9.11,3.1,10.62,7.71,1,3.07.62,6.26-.81,8.87l6.11-1.99c5.86-1.92,12.19,1.29,14.1,7.15.37,1.11.55,2.28.55,3.48,0,1.95-.52,3.82-1.44,5.46,5.54-1.23,11.23,1.95,13.03,7.45.37,1.11.55,2.28.55,3.47,0,4.85-3.1,9.12-7.72,10.63l-26.02,8.5Z" fill="#101727"/><path d="M813.88,420.61c-.09.04-.18.07-.28.1l-25.77,8.41v-.03s26.05-8.48,26.05-8.48Z" fill="#01654d"/><path d="M786.88,431.01l-.94-2.85,1.42-.5,26.06-8.48,1.07,2.8c-.15.06-.29.12-.45.16l-27.16,8.86Z" fill="#101727"/><path d="M833.34,434.61c-.11.05-.23.09-.35.13l-35.71,11.66-.03-.04,36.09-11.75Z" fill="#01654d"/><path d="M796.73,448.16l-1.9-2.54,1.96-.69,36.09-11.75,1.08,2.79c-.16.07-.32.13-.49.19l-36.74,12Z" fill="#101727"/><path d="M851.81,441.92c0-.99-.15-2-.48-3-1.66-5.08-7.12-7.86-12.2-6.2l-5.7,1.86c3.83-1.45,6.24-5.11,6.24-9.04,0-1-.15-2.01-.48-3.01-1.66-5.08-7.13-7.85-12.21-6.19l-13.04,4.25c4.86-1.78,7.47-7.13,5.85-12.09-1.33-4.08-5.12-6.67-9.19-6.67-1,0-2.01.15-3.01.48l-29.21,9.51-25.52-46.7c-3.85-7.03.5-16.14,7.77-16.31l53.59-1.24,63.22,115.67-61.24,1.42c.79-1.39,1.52-2.97,2.24-4.82l26.69-8.72c4.08-1.33,6.68-5.12,6.68-9.2Z" fill="#01654d"/><path d="M813.59,466.22l1.31-2.3c.74-1.3,1.44-2.82,2.15-4.62l.26-.66,27.36-8.94c3.38-1.1,5.65-4.23,5.65-7.77,0-.87-.14-1.72-.4-2.53-1.4-4.29-6.03-6.64-10.31-5.24l-5.7,1.86-1-2.83c3.15-1.19,5.27-4.26,5.27-7.64,0-.87-.14-1.73-.4-2.54-1.4-4.29-6.03-6.63-10.32-5.23l-13.04,4.25-.98-2.83c4.15-1.52,6.31-6,4.94-10.22-1.1-3.37-4.22-5.64-7.76-5.64-.87,0-1.73.14-2.54.41l-30.4,9.9-26.12-47.79c-2.21-4.03-2.15-9,.14-12.98,1.99-3.44,5.23-5.46,8.91-5.55l54.5-1.26,64.84,118.63-66.35,1.54ZM819.58,461.05c-.29.73-.59,1.41-.89,2.06l56.26-1.3-61.6-112.71-52.68,1.22c-2.6.06-4.93,1.54-6.38,4.05-1.77,3.08-1.82,6.92-.11,10.04l24.92,45.61,28.03-9.12c1.11-.37,2.28-.55,3.47-.55,4.85,0,9.11,3.1,10.62,7.71,1,3.07.62,6.26-.81,8.87l6.11-1.99c2.84-.93,5.87-.7,8.53.66,2.66,1.35,4.64,3.66,5.57,6.5.37,1.11.55,2.28.55,3.48,0,1.95-.52,3.82-1.44,5.46,5.54-1.23,11.23,1.95,13.03,7.45.37,1.11.55,2.28.55,3.47,0,4.85-3.1,9.12-7.72,10.63l-26.02,8.5Z" fill="#101727"/><path d="M918.58,414.36c.2,0,.4,0,.6.01l24.43,1.18,2.86-25-.2-.02c-4.01-6.31-19.72-14.3-34.32-8.27l-23.01,35.89,5.08,9.87-4.73,2.82,9.99,18.28c3.24,5.94-.43,13.63-6.57,13.77l-15.27.35-61.24,1.42c.79-1.39,1.52-2.97,2.24-4.82l26.69-8.72c4.08-1.33,6.68-5.12,6.68-9.2,0-.99-.15-2-.48-3-1.66-5.08-7.12-7.86-12.2-6.2l-5.7,1.86c3.83-1.45,6.24-5.11,6.24-9.04,0-1-.15-2.01-.48-3.01-1.66-5.08-7.13-7.85-12.21-6.19l-13.04,4.25c4.86-1.78,7.47-7.13,5.85-12.09-1.33-4.08-5.12-6.67-9.19-6.67-1,0-2.01.15-3.01.48l-29.21,9.51-20.39,6.64c-16.6,5.29-15.28,13.75-13.14,32.39,3.41,29.78,69.58,53.13,115.32,66.39,13.32,3.86,27.37,3.74,36.88-6.34l40.45-41.93,3.2-27.96-23.19-2.04c-6.55-.58-11.5-6.2-11.24-12.77.25-6.65,5.73-11.84,12.31-11.84ZM787.82,429.09l26.06-8.48c-.09.04-.18.07-.28.1l-25.77,8.41v-.03ZM797.25,446.36l36.09-11.75c-.11.05-.23.09-.35.13l-35.71,11.66-.03-.04Z" fill="#e9e1ce" stroke="#101727" stroke-miterlimit="10" stroke-width="3"/><path d="M990.66,294.83l-1.24-2.73c1.98-.9,3.88-1.67,5.66-2.3l1,2.83c-1.7.6-3.52,1.34-5.42,2.2Z" fill="#101727"/><rect x="773.99" y="429.82" width="14.19" height="3" transform="translate(-95.25 263.49) rotate(-18.07)" fill="#101727"/><polygon points="814.37 422.03 813.4 419.19 814.43 422.01 814.37 422.03" fill="#101727"/><rect x="777.11" y="429.29" width="10.98" height="3" transform="translate(-94.96 263.66) rotate(-18.05)" fill="#101727"/><polygon points="814.37 422.03 813.4 419.19 814.43 422.01 814.37 422.03" fill="#101727"/><polygon points="833.82 436.03 832.86 433.19 833.91 436 833.82 436.03" fill="#101727"/><rect x="793.65" y="445.48" width="3.73" height="3" transform="translate(-99.62 269.85) rotate(-18.14)" fill="#101727"/><rect x="789.33" y="446.11" width="8.12" height="3" transform="translate(-99.52 267.24) rotate(-18.01)" fill="#101727"/><polygon points="833.82 436.03 832.86 433.19 833.91 436 833.82 436.03" fill="#101727"/><path d="M805.6,475.5l-1.31-2.7c3.75-1.82,6.14-3.41,7.97-5.32.99-1.03,1.85-2.2,2.62-3.56l.43-.76h.87v1.5s1.3.74,1.3.74c-.9,1.58-1.9,2.94-3.06,4.16-2.1,2.19-4.74,3.96-8.83,5.94Z" fill="#101727"/><path d="M1029.65,388.14l-1.42-.47-1.49-.2c.16-1.54,2.35-47.58,3.17-65.19l3,.14c-3.06,65.11-3.18,65.46-3.26,65.72Z" fill="#101727"/><rect x="926.8" y="367" width="44.39" height="3" transform="translate(475.35 1269.63) rotate(-83.5)" fill="#101727"/><path d="M1013.13,127.9l-2.07-2.17c10.24-9.8,23.1-8.16,23.64-8.09l-.41,2.97c-.12-.02-11.99-1.49-21.15,7.28Z" fill="#101727"/><path d="M852.2,463.83c.28,3.81.53,7.63.7,11.45.3,6.76.36,13.53-.05,20.28-.23,3.68-.6,7.35-1.14,10.99-.41,2.6-.9,5.17-1.52,7.73-.16.71-.34,1.42-.53,2.13-.87,3.32-1.93,6.59-3.18,9.79-.67,1.69-1.39,3.35-2.17,4.99-2.03,4.2-4.44,8.22-7.29,11.93-.76.99-1.56,1.96-2.38,2.91-2.4,2.69-5.03,5.17-7.9,7.36-.77.59-1.56,1.15-2.35,1.7-.84.57-1.7,1.11-2.57,1.64-2.56,1.54-5.24,2.9-8,4.08-1,.42-2,.82-3.01,1.2-2.01.73-4.05,1.38-6.11,1.95-3.49.97-7.04,1.73-10.62,2.31-1.56.25-3.12.46-4.68.65-4.67.53-9.36.82-14.05.91-5.06.1-10.12,0-15.17-.31-1.28-.08-2.56-.18-3.83-.29-1.51-.13-3.02-.29-4.53-.46-3.46-.42-6.91-.96-10.33-1.65-3.49-.7-6.93-1.56-10.34-2.58-.04-.01-.09-.03-.13-.04-1.73-.53-3.43-1.1-5.13-1.72-.1-.03-.21-.07-.31-.11-4.96-1.86-9.77-4.12-14.31-6.84-1.14-.68-2.26-1.4-3.37-2.14-3.74-2.58-7.24-5.51-10.42-8.75-.86-.87-1.69-1.77-2.51-2.69-3.01-3.46-5.7-7.22-7.95-11.23-.6-1.08-1.17-2.18-1.72-3.3-1.25-2.65-2.31-5.38-3.14-8.19-.36-1.18-.67-2.37-.94-3.57-.24-1.06-.44-2.12-.61-3.2-.54-3.63-.69-7.32-.4-10.98v-.02c.1-1.18.24-2.37.41-3.54.62-3.88,1.6-7.69,2.71-11.45.73-2.48,1.52-4.95,2.29-7.42.43-1.37.85-2.73,1.26-4.11.4-1.34.78-2.69,1.13-4.05.38-1.43.72-2.86,1.01-4.31.22-1.04.41-2.08.58-3.13.11-.72.22-1.44.31-2.16.42-3.28.58-6.61.28-9.92-.03-.32-.06-.64-.11-.96-.39-3.48-1.26-6.9-2.75-10.08-1.39-2.97-3.14-5.71-5.28-8.2-2.17-2.52-4.57-4.8-7.17-6.87-.22-.18-.43-.34-.66-.5,0,0-.01,0-.01,0-2.46-1.93-5.06-3.67-7.69-5.34-2.75-1.73-5.56-3.36-8.37-4.98-2.79-1.6-5.58-3.2-8.28-4.95-.57-.36-1.13-.74-1.69-1.11-2.18-1.5-4.32-3.09-6.34-4.81-.69-.58-1.36-1.18-2.02-1.8-.32-.3-.64-.61-.96-.92-.31-.31-.62-.62-.92-.94-.42-.44-.84-.88-1.24-1.34-1.92-2.23-3.61-4.66-4.91-7.3-1.04-2.24-1.78-4.6-2.19-7.04-.32-2.36-.31-4.75.02-7.11.45-2.73,1.31-5.38,2.48-7.9,1.43-2.89,3.25-5.58,5.36-8.02.75-.84,1.54-1.66,2.36-2.43,1.57-1.51,3.27-2.88,5.06-4.12,3.09-2.07,6.39-3.79,9.81-5.23.9-.38,1.8-.73,2.7-1.07,4.14-1.52,8.38-2.71,12.66-3.74h0c.66-.17,1.33-.32,2-.47.54-.13,1.09-.26,1.64-.38,1.6-.36,3.2-.7,4.8-1.04.56-.12,1.16-.52,1.48-1.01.31-.46.45-1.15.25-1.69-.14-.38-.36-.7-.64-.94-.63-.57-1.55-.77-2.42-.59-2.79.59-5.58,1.2-8.35,1.87-1.95.47-3.89.97-5.82,1.52-4.81,1.37-9.56,3.04-14.05,5.23-3.2,1.55-6.29,3.38-9.12,5.55-.96.73-1.88,1.49-2.77,2.3-3.34,3.02-6.28,6.58-8.46,10.54-2.23,4.03-3.71,8.4-4.12,13.01-.37,4.25.33,8.63,1.93,12.58,1.64,4.05,4.08,7.6,7,10.83.93,1.03,1.9,2.01,2.91,2.95,1.12,1.06,2.3,2.07,3.51,3.03.21.18.44.35.66.52.75.6,1.52,1.17,2.29,1.73,3.53,2.55,7.23,4.84,11,7.01,3.64,2.09,7.3,4.17,10.83,6.43.78.49,1.55,1,2.31,1.52,3.09,2.11,6.07,4.41,8.74,7.03.7.68,1.36,1.39,2.01,2.12.97,1.12,1.87,2.29,2.69,3.51.01,0,.01.01.01.01.8,1.2,1.53,2.44,2.17,3.74,1.2,2.57,2.01,5.3,2.47,8.1.36,2.53.43,5.09.29,7.64-.06,1.35-.19,2.7-.37,4.04-.03.31-.08.62-.12.93-.16,1.05-.35,2.1-.57,3.14-.3,1.44-.64,2.88-1.01,4.3-.82,3.16-1.78,6.28-2.76,9.39-.06.2-.13.4-.19.6-1.89,6.04-3.73,12.1-4.64,18.38-.17,1.14-.29,2.29-.38,3.43-.31,4.19-.08,8.39.62,12.55.29,1.76.68,3.5,1.15,5.22.84,3.07,1.95,6.07,3.29,8.95,2.19,4.72,4.89,9.17,8.11,13.26,3.24,4.13,6.92,7.94,10.97,11.28,4.21,3.48,8.83,6.48,13.67,9,4.39,2.28,8.98,4.18,13.67,5.75.82.27,1.64.54,2.46.79.97.3,1.95.59,2.93.86,4.47,1.25,9.04,2.2,13.63,2.92,3.51.55,7.05.97,10.6,1.27,2.34.21,4.68.36,7.03.46,5.54.24,11.1.25,16.64-.02,5.55-.26,11.11-.81,16.59-1.76,2.72-.47,5.42-1.05,8.09-1.75,2.47-.64,4.92-1.4,7.32-2.27,3.37-1.22,6.66-2.64,9.8-4.34,1.63-.87,3.22-1.81,4.76-2.84,2.35-1.55,4.6-3.23,6.7-5.09,2.1-1.85,4.03-3.86,5.86-5.98,3.42-3.98,6.31-8.4,8.7-13.06,2.49-4.85,4.49-9.93,6-15.16.4-1.36.76-2.73,1.09-4.1,1.01-4.19,1.73-8.44,2.24-12.72.75-6.39,1-12.83.94-19.26-.06-6.47-.43-12.94-.9-19.39-.02-.21-.03-.41-.05-.62l-4.96.12Z" fill="#e8bd51"/><path d="M771.61,573.75c-2.73,0-5.5-.06-8.3-.18-2.42-.1-4.81-.26-7.1-.46-3.62-.31-7.23-.74-10.7-1.28-4.87-.76-9.52-1.76-13.8-2.96-.99-.27-1.98-.57-2.97-.87-.79-.24-1.58-.5-2.37-.76l-.11-.04c-4.93-1.65-9.6-3.62-13.89-5.84-5.08-2.65-9.77-5.73-13.93-9.17-4.07-3.35-7.83-7.23-11.19-11.51-3.23-4.11-6.02-8.67-8.29-13.55-1.39-2.99-2.53-6.08-3.38-9.19-.5-1.82-.9-3.63-1.18-5.37-.73-4.36-.95-8.7-.64-12.91.1-1.3.23-2.46.39-3.54.9-6.22,2.66-12.11,4.69-18.61l.19-.58c.89-2.81,1.9-6.07,2.74-9.33.37-1.43.71-2.85.99-4.23.21-1,.4-2.03.56-3.06l.04-.29c.03-.19.05-.37.07-.56.19-1.42.31-2.73.36-3.96.14-2.6.05-5.07-.28-7.36-.45-2.71-1.24-5.3-2.34-7.68-.52-1.07-1.14-2.14-1.87-3.25l-.2-.3c-.77-1.15-1.64-2.28-2.58-3.37-.72-.8-1.33-1.45-1.92-2.02-2.34-2.29-5.13-4.54-8.54-6.87-.75-.51-1.5-1.01-2.26-1.49-3.24-2.07-6.65-4.03-9.94-5.92l-.84-.48c-4.4-2.53-7.93-4.79-11.13-7.09-.76-.55-1.56-1.14-2.35-1.78l-.13-.1c-.19-.15-.39-.3-.57-.45-1.26-1-2.47-2.05-3.57-3.08-1.04-.97-2.05-1.99-2.99-3.03-3.31-3.66-5.69-7.34-7.28-11.27-1.72-4.24-2.42-8.83-2.03-13.27.41-4.61,1.86-9.19,4.3-13.61,2.18-3.96,5.13-7.64,8.77-10.93.9-.82,1.84-1.6,2.87-2.38,2.74-2.1,5.89-4.02,9.37-5.71,4.15-2.02,8.82-3.77,14.29-5.32,1.82-.52,3.74-1.02,5.88-1.54,3.07-.74,6.1-1.39,8.39-1.88,1.38-.28,2.77.07,3.74.95.44.38.81.92,1.04,1.53.35.95.19,2.15-.41,3.05-.52.8-1.45,1.43-2.41,1.64l-.24.05c-1.51.32-3.03.64-4.54.99-.55.12-1.09.25-1.62.38-.42.09-.84.19-1.24.28l-.76.19c-4.85,1.17-8.82,2.34-12.49,3.69-.87.33-1.75.67-2.63,1.04-3.49,1.47-6.71,3.18-9.56,5.09-1.76,1.22-3.4,2.55-4.85,3.96-.76.71-1.52,1.5-2.28,2.35-2.06,2.38-3.79,4.98-5.13,7.69-1.14,2.45-1.93,4.98-2.34,7.48-.31,2.2-.31,4.45-.01,6.67.38,2.24,1.07,4.48,2.06,6.61,1.15,2.33,2.73,4.68,4.69,6.95.37.43.77.84,1.17,1.26.31.33.59.61.88.9.35.34.66.64.97.93.67.63,1.31,1.2,1.96,1.74,1.81,1.54,3.84,3.08,6.22,4.72l.43.29c.4.27.8.53,1.21.79,2.67,1.73,5.47,3.34,8.18,4.89,2.92,1.68,5.73,3.31,8.46,5.03,3.05,1.93,5.35,3.53,7.41,5.11h.99v.76s.08.06.12.09c2.7,2.15,5.18,4.53,7.35,7.05,2.19,2.55,4.04,5.42,5.5,8.54,1.48,3.17,2.45,6.71,2.88,10.55.05.29.08.63.11.98.29,3.17.19,6.52-.29,10.25-.09.73-.2,1.46-.32,2.2-.19,1.15-.38,2.19-.6,3.21-.28,1.4-.62,2.84-1.03,4.38-.33,1.3-.71,2.64-1.14,4.09-.41,1.39-.83,2.75-1.27,4.13l-.56,1.78c-.59,1.87-1.17,3.74-1.73,5.62-1.29,4.38-2.14,7.95-2.67,11.26-.17,1.14-.3,2.28-.39,3.38v.07c-.28,3.48-.15,7.06.38,10.64.17,1.07.36,2.09.59,3.09.27,1.2.58,2.37.91,3.46.79,2.66,1.81,5.34,3.06,7.99.56,1.14,1.11,2.2,1.67,3.21,2.14,3.81,4.76,7.51,7.77,10.97.9,1.01,1.68,1.85,2.45,2.62,3.09,3.14,6.52,6.03,10.21,8.57,1.2.8,2.28,1.49,3.29,2.09,4.29,2.57,9.02,4.83,14.07,6.72.09.04.16.06.22.08,1.77.64,3.43,1.2,5.13,1.72l.1.03c3.37,1.01,6.81,1.87,10.22,2.55,3.23.65,6.67,1.2,10.22,1.63,1.48.17,2.98.33,4.48.46,1.26.11,2.53.21,3.8.29,4.95.3,10.02.41,15.05.31,4.77-.09,9.45-.39,13.91-.9,1.71-.21,3.22-.42,4.61-.64,3.62-.59,7.14-1.35,10.46-2.27,2.03-.56,4.04-1.2,6-1.92.98-.37,1.96-.76,2.94-1.17,2.72-1.17,5.35-2.51,7.81-3.98.99-.61,1.79-1.11,2.5-1.6.76-.53,1.53-1.07,2.28-1.65,2.7-2.06,5.29-4.47,7.69-7.17.85-.99,1.61-1.92,2.31-2.82,2.67-3.47,5.06-7.4,7.13-11.67.75-1.57,1.46-3.22,2.13-4.89,1.22-3.11,2.27-6.35,3.12-9.62.19-.7.36-1.39.52-2.08.58-2.38,1.07-4.87,1.5-7.63.51-3.45.89-7.1,1.12-10.85.37-6.03.38-12.61.05-20.12-.15-3.31-.37-6.93-.7-11.41l-.12-1.57,7.93-.19.18,2.01c.58,7.9.85,13.91.91,19.52.07,7.08-.24,13.44-.95,19.45-.55,4.62-1.29,8.84-2.27,12.9-.36,1.49-.72,2.85-1.11,4.17-1.55,5.35-3.6,10.54-6.1,15.42-2.53,4.93-5.52,9.43-8.9,13.35-2.03,2.35-3.99,4.36-6.01,6.13-2.05,1.81-4.29,3.52-6.87,5.22-1.51,1.01-3.15,1.99-4.88,2.91-3.03,1.64-6.3,3.09-10,4.43-2.44.88-4.95,1.66-7.45,2.31-2.65.7-5.42,1.29-8.21,1.78-5.21.9-10.86,1.5-16.78,1.78-2.76.14-5.6.2-8.48.2ZM681.86,435.62c.78,1.19,1.44,2.35,2.02,3.53,1.24,2.65,2.11,5.51,2.6,8.52.36,2.52.46,5.19.31,7.96-.06,1.3-.19,2.71-.38,4.16-.02.17-.05.4-.08.63l-.04.29c-.17,1.12-.37,2.21-.59,3.26-.29,1.42-.64,2.89-1.03,4.37-.86,3.33-1.89,6.63-2.78,9.46l-.18.58c-2,6.39-3.72,12.16-4.59,18.16-.15,1.02-.27,2.11-.37,3.33-.29,3.96-.09,8.06.6,12.18.27,1.65.65,3.35,1.12,5.07.81,2.95,1.88,5.88,3.2,8.71,2.17,4.68,4.84,9.04,7.93,12.96,3.23,4.12,6.84,7.83,10.75,11.05,4,3.31,8.51,6.28,13.41,8.83,4.15,2.16,8.68,4.06,13.45,5.66l.1.03c.77.25,1.54.51,2.32.74.96.3,1.93.58,2.89.85,4.18,1.17,8.71,2.14,13.46,2.88,3.4.53,6.93.96,10.49,1.26,2.26.2,4.6.36,6.97.46,5.66.25,11.21.24,16.5-.02,5.8-.27,11.31-.86,16.41-1.74,2.71-.47,5.39-1.05,7.97-1.72,2.42-.63,4.84-1.38,7.19-2.23,3.55-1.29,6.69-2.68,9.6-4.25,1.65-.88,3.21-1.81,4.64-2.77,2.46-1.62,4.6-3.25,6.54-4.97,1.91-1.68,3.78-3.59,5.72-5.84,3.22-3.74,6.08-8.04,8.5-12.76,2.42-4.71,4.4-9.72,5.89-14.89.38-1.28.73-2.59,1.07-4.04.95-3.94,1.67-8.04,2.21-12.55.69-5.88.99-12.12.93-19.07-.05-5.35-.31-11.08-.84-18.49l-1.96.05c.27,3.79.46,6.98.59,9.92.34,7.62.32,14.3-.05,20.44-.24,3.83-.63,7.57-1.15,11.12-.45,2.86-.96,5.43-1.55,7.86-.16.71-.34,1.43-.54,2.16-.88,3.37-1.97,6.72-3.23,9.95-.69,1.74-1.43,3.45-2.21,5.09-2.16,4.47-4.67,8.57-7.46,12.2-.73.95-1.53,1.92-2.43,2.98-2.55,2.86-5.28,5.4-8.13,7.57-.82.63-1.68,1.23-2.4,1.74-.77.52-1.6,1.05-2.65,1.69-2.58,1.55-5.33,2.96-8.19,4.18-1.03.43-2.04.84-3.07,1.22-2.05.74-4.14,1.41-6.24,1.99-3.42.95-7.05,1.74-10.78,2.35-1.43.23-2.98.44-4.74.66-4.56.52-9.34.83-14.2.92-5.11.1-10.26,0-15.29-.31-1.29-.08-2.59-.18-3.87-.29-1.52-.13-3.05-.29-4.57-.46-3.64-.44-7.15-1-10.46-1.67-3.5-.7-7.03-1.58-10.47-2.61l-.11-.04c-1.79-.54-3.49-1.12-5.23-1.75-.06-.02-.21-.07-.35-.13-5.18-1.94-10.08-4.28-14.52-6.95-1.05-.62-2.17-1.34-3.43-2.18-3.86-2.67-7.44-5.67-10.66-8.95-.79-.8-1.61-1.68-2.56-2.74-3.16-3.63-5.9-7.5-8.14-11.49-.59-1.06-1.16-2.16-1.76-3.37-1.32-2.8-2.41-5.63-3.23-8.43-.35-1.16-.68-2.39-.96-3.67-.24-1.06-.45-2.14-.63-3.3-.57-3.8-.71-7.59-.42-11.27v-.09c.1-1.17.25-2.39.43-3.63.55-3.46,1.43-7.16,2.76-11.66.56-1.89,1.15-3.78,1.74-5.67l.56-1.77c.43-1.37.85-2.72,1.25-4.09.42-1.42.79-2.72,1.12-4,.4-1.5.72-2.88.99-4.23.21-.99.39-1.99.57-3.08.11-.69.21-1.4.3-2.11.45-3.52.54-6.66.27-9.6-.03-.29-.05-.58-.1-.86-.4-3.57-1.28-6.81-2.63-9.67-1.34-2.87-3.05-5.52-5.06-7.86-2.05-2.38-4.39-4.63-6.97-6.67-.08-.07-.16-.13-.23-.18h-.02l-.97-.76c-1.94-1.48-4.13-2.99-7-4.82-2.69-1.69-5.47-3.3-8.32-4.95-2.78-1.6-5.63-3.23-8.35-4.99-.41-.26-.83-.54-1.25-.82l-.45-.3c-2.49-1.71-4.6-3.32-6.49-4.92-.68-.58-1.36-1.18-2.07-1.85-.32-.3-.63-.6-.95-.91l-.08-.08c-.31-.31-.61-.62-.91-.93-.44-.46-.87-.91-1.28-1.38-2.13-2.47-3.85-5.03-5.12-7.62-1.12-2.41-1.9-4.91-2.32-7.45-.34-2.53-.34-5.06.01-7.57.46-2.8,1.34-5.59,2.6-8.32,1.47-2.97,3.34-5.78,5.59-8.37.83-.93,1.66-1.78,2.47-2.54,1.56-1.5,3.32-2.94,5.23-4.26,3.03-2.03,6.41-3.83,10.08-5.38.92-.39,1.83-.74,2.75-1.09,3.5-1.29,7.24-2.41,11.69-3.51h0s1.15-.29,1.15-.29c.67-.16,1.35-.31,2.03-.47.52-.13,1.09-.26,1.65-.38,1.52-.34,3.04-.67,4.57-.99l.24-.05c.18-.04.44-.21.54-.36.08-.12.11-.29.1-.36-.05-.13-.12-.24-.21-.31-.28-.25-.72-.35-1.14-.26-2.27.48-5.27,1.13-8.3,1.86-2.1.51-3.98,1-5.76,1.5-5.3,1.51-9.81,3.19-13.8,5.14-3.3,1.6-6.28,3.41-8.87,5.39-.96.73-1.84,1.46-2.67,2.22-3.39,3.07-6.13,6.48-8.16,10.15-2.24,4.05-3.57,8.23-3.94,12.42-.35,3.97.29,8.08,1.83,11.88,1.46,3.6,3.66,7,6.72,10.39.88.98,1.83,1.94,2.82,2.86,1.04.98,2.19,1.98,3.42,2.95.18.16.33.27.48.38l.16.12c.75.6,1.5,1.16,2.26,1.71,3.11,2.24,6.56,4.45,10.87,6.92l.84.48c3.33,1.91,6.76,3.88,10.05,5.99.79.49,1.57,1.01,2.35,1.55,3.56,2.43,6.48,4.78,8.94,7.2.64.62,1.3,1.32,2.08,2.19.85.98,1.64,1.99,2.36,3.01h.71v1.06Z" fill="#101727"/><path d="M867.88,463.46s.01.11.02.16c.89,6.83,1.6,13.67,2.11,20.53.52,6.91.85,13.82.98,20.74.09,4.83.09,9.66,0,14.49-.05,2.07-.11,4.14-.18,6.21-.26,6.9-.7,13.79-1.34,20.66-.63,6.76-1.42,13.52-2.45,20.23-.88,5.76-2.02,11.49-3.75,17.06-1.75,5.63-4.13,11.12-7.42,16.02-3.09,4.62-7.01,8.69-11.53,11.92-4.61,3.3-9.65,5.78-15,7.62-2.46.85-4.97,1.53-7.5,2.08-2.88.64-5.8,1.1-8.74,1.43-2.78.31-5.57.49-8.38.53-2.62.05-5.26-.03-7.88-.2-5.81-.38-11.61-1.21-17.28-2.59-5.65-1.38-11.2-3.31-16.44-5.83-2.31-1.11-4.57-2.35-6.75-3.71-2.69-1.67-5.26-3.52-7.67-5.56-4.37-3.69-8.21-8.03-11.37-12.8-3.12-4.71-5.61-9.86-7.49-15.19-1.33-3.75-2.34-7.59-3.09-11.49-.33-1.65-.6-3.32-.84-4.99l-.03-.21c-.78-5.55-1.04-11.17-.84-16.77.22-6.33,1.14-12.6,1.83-18.89.27-2.45.51-4.91.64-7.38.23-4,.19-8.02-.38-12-.31-1.96-.76-3.89-1.37-5.77-.07-.26-.16-.51-.25-.76-.42-1.24-.9-2.45-1.46-3.64-1.51-3.09-3.45-5.96-5.7-8.56-.56-.63-1.13-1.25-1.72-1.85-2.31-2.32-4.86-4.38-7.55-6.24-.69-.47-1.4-.93-2.11-1.36-.28-.18-.55-.35-.83-.51-3.72-2.21-7.65-4.05-11.69-5.57-1.1-.4-2.2-.79-3.32-1.15-1.03-.33-2.06-.64-3.1-.93-1.59-.44-3.18-.85-4.79-1.23-2.26-.56-4.52-1.07-6.78-1.59-4.92-1.14-9.85-2.3-14.64-3.89-.54-.18-1.07-.36-1.6-.55-1.95-.68-3.87-1.44-5.74-2.31l-.06-.03c-2.3-1.06-4.48-2.31-6.57-3.74-.49-.34-.98-.69-1.46-1.06-2.48-1.89-4.71-4.13-6.55-6.65-.77-1.06-1.48-2.18-2.1-3.34-2.92-5.45-4.14-11.55-4.36-17.69-.22-5.87.4-11.81,1.47-17.59.4-2.14.89-4.27,1.48-6.36.47-1.67,1.01-3.33,1.63-4.96.56-1.51,1.18-3,1.88-4.46.06-.14.12-.27.19-.41,2.43-5.04,5.77-9.67,10-13.37,4.17-3.64,9.07-6.31,14.15-8.45h.01c.26-.11.51-.22.77-.33,4.76-1.95,9.65-3.54,14.49-5.28.61-.22,1.23-.44,1.84-.67,1.06-.39,2.11-.79,3.16-1.22,3.59-1.46,7.04-3.24,10.25-5.4.62-.43,1.23-.87,1.83-1.33,1.92-1.47,3.72-3.09,5.34-4.9.86-1,1.66-2.05,2.37-3.16.54-.83,1.03-1.68,1.47-2.57.08-.16.15-.33.22-.5.69-1.59,1.19-3.24,1.48-4.94.12-.9.2-1.81.2-2.72.01-.37.1-.68.26-.96,0-.01,0-.02.01-.03,0,0,0-.01,0-.01.09-.16.21-.3.34-.43.01,0,.01-.02.02-.02h.01s.01-.02.01-.02c.48-.44,1.15-.69,1.83-.72,1.21-.05,2.5.92,2.49,2.19,0,.43-.02.87-.05,1.31-.16,2.46-.73,4.85-1.65,7.11-.46,1.18-1.03,2.33-1.67,3.44-1.48,2.56-3.41,4.87-5.55,6.93-.44.43-.89.83-1.35,1.23h-.01c-.05.07-.11.11-.16.16-2.87,2.5-6.08,4.64-9.44,6.44-3.47,1.85-7.13,3.27-10.82,4.62-1.87.67-3.74,1.32-5.62,1.98-1.77.61-3.53,1.23-5.29,1.88-1.03.39-2.06.78-3.08,1.2-2.31.94-4.59,1.96-6.79,3.14-1.4.75-2.77,1.56-4.09,2.44-2.43,1.69-4.66,3.63-6.64,5.84-2.4,2.78-4.38,5.9-5.98,9.21-.54,1.14-1.03,2.29-1.49,3.46-.38.98-.73,1.98-1.05,2.98-.52,1.6-.97,3.22-1.36,4.85-.25.99-.47,1.99-.66,3-.21,1.04-.39,2.08-.56,3.13-.2,1.33-.37,2.67-.51,4.01-.55,5.16-.68,10.4.06,15.55.24,1.54.57,3.07,1.01,4.57.46,1.64,1.05,3.24,1.78,4.79,1.06,2.13,2.38,4.12,3.92,5.92,1.66,1.85,3.54,3.47,5.57,4.89.45.3.9.59,1.36.87.17.11.34.22.52.32,2.52,1.48,5.19,2.68,7.92,3.71.9.33,1.79.64,2.69.94,1.3.42,2.61.81,3.93,1.18,1.51.43,3.03.83,4.55,1.2h.01c1.4.35,2.79.68,4.19,1.01,2.65.62,5.32,1.22,7.97,1.86,1.56.37,3.12.77,4.67,1.19l.12.03c4.49,1.24,8.91,2.83,13.13,4.78,4.23,1.95,8.27,4.31,12.02,7.08.27.2.54.4.81.61,3.34,2.56,6.38,5.53,8.98,8.84,2.78,3.55,4.99,7.58,6.43,11.86.11.32.21.63.3.95.08.25.15.51.22.76,1.39,4.91,1.8,10.08,1.67,15.17-.02.87-.06,1.73-.11,2.6-.26,4.82-.9,9.62-1.47,14.41-.6,5.11-1.07,10.22-1.07,15.37,0,4.75.34,9.49,1.04,14.19.06.35.11.69.18,1.04.2,1.21.42,2.42.68,3.63.09.42.18.83.29,1.25,1.2,5.27,2.92,10.44,5.24,15.33.5,1.04,1.03,2.07,1.59,3.09,2.06,3.75,4.51,7.28,7.32,10.52.66.75,1.34,1.48,2.04,2.2,2.47,2.5,5.17,4.76,8.04,6.79.22.16.45.32.68.48.97.66,1.96,1.29,2.96,1.89,3.77,2.26,7.75,4.13,11.86,5.67,1.35.49,2.72.96,4.09,1.38,5.23,1.6,10.6,2.7,16.03,3.35,1.51.18,3.03.32,4.55.43,2.72.19,5.45.26,8.18.2,2.85-.03,5.7-.22,8.54-.54,1.14-.14,2.27-.3,3.4-.49,1.74-.29,3.47-.63,5.18-1.05,2.47-.59,4.91-1.33,7.3-2.2.8-.31,1.6-.62,2.4-.96,2.99-1.29,5.88-2.83,8.59-4.65,2.96-2.04,5.68-4.42,8.08-7.1.56-.66,1.12-1.33,1.65-2.02,2.03-2.65,3.75-5.52,5.22-8.52.81-1.72,1.55-3.48,2.2-5.26,1.23-3.34,2.2-6.77,3-10.24.79-3.41,1.41-6.85,1.94-10.31.1-.63.19-1.27.28-1.9,1-7.03,1.78-14.08,2.36-21.15.58-7.19.96-14.39,1.13-21.59.02-.7.03-1.41.04-2.11.13-6.5.08-13-.15-19.51-.25-7.22-.71-14.43-1.38-21.63-.44-4.66-.96-9.3-1.58-13.94l4.98-.12Z" fill="#587a51"/><path d="M803.16,624.65c-2.04,0-4.2-.07-6.44-.22-6.11-.4-12.01-1.28-17.54-2.63-5.92-1.45-11.55-3.44-16.74-5.94-2.37-1.14-4.69-2.41-6.89-3.79-2.8-1.74-5.44-3.65-7.85-5.69-4.46-3.76-8.38-8.18-11.65-13.12-3.09-4.67-5.67-9.89-7.65-15.52-1.3-3.67-2.36-7.61-3.15-11.71-.3-1.51-.57-3.12-.85-5.06l-.03-.21c-.77-5.51-1.06-11.24-.85-17.04.17-4.82.74-9.66,1.3-14.35.18-1.55.37-3.1.54-4.65.24-2.14.5-4.68.63-7.3.25-4.39.13-8.22-.37-11.71-.3-1.9-.74-3.77-1.31-5.52-.08-.29-.16-.5-.23-.71-.43-1.26-.89-2.4-1.41-3.51-1.4-2.87-3.25-5.64-5.48-8.22-.53-.6-1.08-1.2-1.65-1.78-2.12-2.13-4.52-4.11-7.33-6.06-.69-.47-1.38-.91-2.03-1.31-.29-.19-.54-.34-.8-.49-3.52-2.09-7.37-3.92-11.47-5.47-1.07-.39-2.15-.77-3.25-1.13-1.01-.32-2.02-.63-3.04-.91-1.62-.45-3.17-.85-4.73-1.22-1.87-.46-3.72-.89-5.57-1.31l-1.2-.28c-5.52-1.28-10.11-2.38-14.78-3.93-.55-.19-1.09-.37-1.63-.56-2.12-.74-4.04-1.51-5.87-2.36l-.14-.07c-2.24-1.03-4.52-2.33-6.71-3.82-.52-.36-1.03-.73-1.53-1.11-2.64-2.01-4.95-4.35-6.85-6.95-.83-1.15-1.58-2.33-2.21-3.52-2.76-5.15-4.28-11.32-4.54-18.34-.21-5.51.28-11.37,1.49-17.92.42-2.24.93-4.42,1.51-6.49.5-1.76,1.06-3.48,1.67-5.09.6-1.63,1.24-3.13,1.93-4.58.05-.11.12-.26.2-.43,2.64-5.47,6.13-10.13,10.36-13.83,3.83-3.34,8.59-6.19,14.56-8.7l.78-.33c3.42-1.4,6.93-2.63,10.32-3.81,1.42-.5,2.83-.99,4.24-1.5l.33-.12c.5-.18,1-.36,1.49-.54,1.05-.39,2.09-.78,3.12-1.2,3.64-1.48,7-3.25,9.98-5.26.58-.4,1.17-.83,1.75-1.28,1.94-1.48,3.67-3.07,5.14-4.71.84-.97,1.59-1.98,2.22-2.97.53-.82.98-1.61,1.39-2.43.07-.13.12-.27.18-.41.66-1.52,1.12-3.07,1.39-4.62.12-.89.18-1.71.18-2.47.01-.47.1-.9.26-1.3v-.29l.33-.34c.09-.14.2-.28.33-.42l.36-.59h.35c.68-.46,1.47-.71,2.3-.75,1.07-.08,2.16.38,2.95,1.14.72.7,1.12,1.61,1.11,2.56,0,.45-.02.93-.05,1.4-.17,2.57-.76,5.12-1.76,7.57-.45,1.16-1.05,2.39-1.76,3.62-1.45,2.5-3.4,4.94-5.81,7.26-.43.42-.88.82-1.34,1.22-.05.05-.12.11-.19.17-2.87,2.5-6.14,4.74-9.77,6.68-3.36,1.79-6.83,3.18-11.01,4.71-1.4.5-2.79.99-4.18,1.47l-1.46.51c-1.77.61-3.52,1.23-5.27,1.87-1.06.4-2.05.78-3.03,1.18-2.61,1.06-4.72,2.04-6.65,3.08-1.41.76-2.75,1.55-3.97,2.37-2.36,1.64-4.51,3.53-6.35,5.59-2.2,2.55-4.14,5.54-5.75,8.86-.49,1.04-.97,2.15-1.44,3.36-.35.91-.7,1.88-1.02,2.89-.49,1.51-.94,3.1-1.33,4.74-.25.97-.46,1.95-.64,2.93-.21,1.04-.39,2.06-.55,3.09-.19,1.28-.36,2.6-.5,3.93-.61,5.72-.59,10.69.05,15.18.24,1.51.56,2.99.96,4.36.45,1.59,1.02,3.13,1.7,4.57.99,1.98,2.24,3.87,3.7,5.58,1.49,1.66,3.28,3.23,5.29,4.63.4.27.84.55,1.28.82.19.12.32.21.47.29,2.27,1.33,4.79,2.51,7.72,3.62.87.32,1.75.62,2.63.92,1.22.39,2.49.77,3.86,1.16,1.4.4,2.85.78,4.33,1.14l.19.04c1.39.35,2.78.68,4.17,1l2.83.66c1.72.4,3.44.79,5.15,1.21,1.48.35,3.07.76,4.71,1.2l.13.03c4.67,1.29,9.17,2.93,13.36,4.87,4.39,2.02,8.52,4.46,12.28,7.23.28.21.56.42.84.63,3.49,2.67,6.6,5.73,9.24,9.1,2.94,3.76,5.19,7.9,6.67,12.31.12.34.22.68.32,1.02.06.17.12.4.18.63l.04.13c1.31,4.63,1.88,9.74,1.73,15.61-.02.88-.06,1.76-.11,2.65-.22,4.13-.73,8.29-1.21,12.31l-.26,2.19c-.52,4.46-1.06,9.76-1.06,15.19,0,4.71.34,9.41,1.02,13.97l.05.29c.04.22.07.45.12.67.23,1.38.45,2.55.68,3.61.09.4.17.79.27,1.18,1.23,5.41,2.96,10.46,5.14,15.07.48,1.01,1.01,2.02,1.55,3.01,2.02,3.67,4.42,7.12,7.14,10.26.61.69,1.26,1.39,1.98,2.14,2.33,2.36,4.97,4.58,7.83,6.61.23.16.45.32.67.47.9.61,1.87,1.23,2.88,1.83,3.54,2.12,7.45,3.99,11.61,5.55,1.48.54,2.8.98,4,1.35,5.02,1.54,10.32,2.64,15.77,3.29,1.42.17,2.93.31,4.48.42,2.7.19,5.4.25,8.04.2,2.71-.03,5.53-.21,8.4-.53,1.17-.14,2.26-.3,3.32-.48,1.85-.31,3.51-.64,5.07-1.03,2.37-.57,4.78-1.29,7.15-2.15.8-.31,1.56-.61,2.32-.93,3-1.29,5.81-2.81,8.34-4.51,2.87-1.98,5.5-4.29,7.8-6.86.52-.61,1.06-1.26,1.58-1.93,1.86-2.43,3.57-5.22,5.06-8.27.8-1.69,1.52-3.42,2.14-5.12,1.13-3.07,2.09-6.36,2.95-10.06.71-3.06,1.34-6.39,1.92-10.2.09-.58.17-1.16.26-1.73l.02-.16c.98-6.86,1.77-13.94,2.35-21.06.58-7.18.96-14.42,1.13-21.5.02-.69.03-1.38.04-2.07.13-6.48.08-13.01-.15-19.46-.25-7.16-.71-14.41-1.37-21.54-.45-4.76-.98-9.43-1.57-13.88l-.22-1.66,7.91-.19.28,1.47c.91,6.97,1.62,13.91,2.12,20.63.52,6.97.86,13.97.98,20.82.09,4.83.09,9.72,0,14.55-.05,2.08-.11,4.16-.18,6.23-.26,7.03-.72,14-1.35,20.75-.68,7.34-1.49,13.99-2.46,20.32-1.03,6.77-2.24,12.26-3.8,17.28-1.95,6.28-4.51,11.8-7.61,16.41-3.23,4.83-7.23,8.97-11.9,12.3-4.51,3.23-9.68,5.86-15.38,7.82-2.38.82-4.96,1.54-7.67,2.13-2.79.62-5.7,1.1-8.89,1.45-2.86.32-5.72.5-8.53.54-.51,0-1.03.01-1.56.01ZM664.47,373.01c-5.53,2.36-9.94,5-13.47,8.08-3.92,3.43-7.17,7.77-9.64,12.89-.06.13-.11.24-.16.35-.68,1.42-1.27,2.83-1.85,4.39-.59,1.54-1.12,3.17-1.59,4.84-.56,1.99-1.05,4.08-1.45,6.23-1.17,6.32-1.64,11.97-1.45,17.26.24,6.57,1.64,12.3,4.18,17.04.57,1.07,1.24,2.13,1.99,3.17,1.72,2.36,3.83,4.49,6.25,6.34.47.36.94.7,1.41,1.02,2.04,1.39,4.17,2.61,6.34,3.61l.09.04c1.71.79,3.54,1.53,5.58,2.24.53.19,1.05.37,1.58.54,4.54,1.51,9.06,2.59,14.5,3.85l1.2.28c1.87.43,3.73.86,5.6,1.32,1.58.37,3.17.78,4.83,1.24,1.06.3,2.11.61,3.16.95,1.24.4,2.46.83,3.38,1.17,4.28,1.61,8.3,3.52,11.94,5.69.28.16.57.34.88.54.66.4,1.4.87,2.14,1.38,2.97,2.06,5.51,4.16,7.77,6.42.61.62,1.2,1.26,1.78,1.91,2.41,2.79,4.4,5.78,5.93,8.9.58,1.23,1.08,2.47,1.53,3.82.09.26.2.55.28.85.59,1.83,1.07,3.85,1.4,5.93.53,3.71.66,7.73.4,12.32-.14,2.68-.41,5.28-.65,7.46-.17,1.56-.36,3.12-.54,4.68-.55,4.62-1.12,9.4-1.28,14.1-.2,5.63.08,11.18.83,16.51l.03.21c.27,1.88.53,3.44.83,4.91.76,3.96,1.78,7.75,3.03,11.28,1.9,5.4,4.37,10.4,7.33,14.86,3.11,4.7,6.84,8.9,11.09,12.48,2.29,1.94,4.82,3.77,7.49,5.43,2.12,1.32,4.34,2.54,6.61,3.63,5,2.4,10.43,4.33,16.15,5.72,5.36,1.3,11.09,2.16,17.02,2.55,2.73.18,5.34.25,7.75.2,2.71-.04,5.48-.21,8.24-.52,3.08-.35,5.89-.8,8.58-1.4,2.6-.57,5.07-1.25,7.34-2.03,5.43-1.87,10.35-4.36,14.62-7.42,4.38-3.13,8.13-7.01,11.16-11.53,2.94-4.37,5.37-9.63,7.23-15.63,1.51-4.87,2.69-10.22,3.7-16.84.96-6.27,1.76-12.86,2.44-20.14.62-6.69,1.07-13.61,1.33-20.58.07-2.06.13-4.12.18-6.19.09-4.78.09-9.64,0-14.42-.13-6.79-.46-13.75-.98-20.66-.47-6.29-1.12-12.77-1.95-19.27l-1.96.05c.51,3.98.97,8.13,1.37,12.34.67,7.2,1.14,14.5,1.39,21.72.23,6.51.28,13.1.15,19.59-.01.72-.02,1.42-.04,2.12-.17,7.14-.55,14.43-1.13,21.67-.59,7.18-1.39,14.32-2.37,21.24l-.02.16c-.08.59-.17,1.18-.26,1.77-.59,3.88-1.24,7.29-1.96,10.42-.88,3.83-1.88,7.23-3.05,10.42-.65,1.77-1.41,3.59-2.25,5.38-1.59,3.25-3.4,6.2-5.39,8.79-.55.71-1.12,1.4-1.7,2.08-2.48,2.77-5.29,5.24-8.37,7.37-2.7,1.81-5.67,3.42-8.85,4.79-.8.34-1.59.65-2.38.95l-.1.04c-2.48.9-4.99,1.66-7.46,2.25-1.63.4-3.36.75-5.28,1.07-1.11.19-2.24.35-3.46.5-2.99.34-5.92.52-8.71.55-2.71.06-5.51,0-8.3-.2-1.6-.12-3.16-.26-4.62-.44-5.62-.67-11.1-1.82-16.29-3.4-1.26-.39-2.62-.84-4.16-1.4-4.35-1.63-8.42-3.58-12.12-5.79-1.05-.63-2.07-1.28-3.03-1.94-.25-.17-.49-.34-.72-.5-2.99-2.12-5.77-4.46-8.23-6.95-.77-.79-1.45-1.53-2.1-2.26-2.87-3.31-5.39-6.93-7.51-10.79-.57-1.04-1.12-2.1-1.63-3.16-2.28-4.81-4.08-10.07-5.35-15.65-.1-.39-.2-.83-.29-1.27-.24-1.11-.47-2.32-.69-3.7-.04-.21-.09-.47-.13-.73l-.05-.31c-.71-4.74-1.06-9.58-1.06-14.44,0-5.59.55-11,1.08-15.54l.26-2.2c.48-3.97.98-8.08,1.2-12.12.05-.86.09-1.7.11-2.55.14-5.57-.39-10.39-1.61-14.73l-.04-.14c-.05-.19-.11-.38-.17-.57-.1-.34-.19-.63-.29-.92-1.38-4.09-3.46-7.93-6.19-11.42-2.48-3.16-5.42-6.05-8.71-8.57-.27-.21-.53-.4-.79-.6-3.59-2.65-7.55-4.98-11.75-6.92-4.04-1.87-8.38-3.45-12.9-4.7l-.11-.03c-1.61-.44-3.17-.83-4.62-1.18-1.71-.41-3.42-.81-5.13-1.2l-2.84-.66c-1.37-.32-2.72-.64-4.09-.98l-.13-.03c-1.57-.38-3.12-.79-4.61-1.21-1.41-.39-2.71-.78-3.98-1.19-.93-.31-1.83-.62-2.74-.96-3.11-1.17-5.78-2.42-8.16-3.83-.17-.09-.36-.21-.55-.33-.47-.29-.94-.59-1.41-.9-2.23-1.56-4.19-3.28-5.85-5.14-1.65-1.93-3.04-4.02-4.15-6.25-.77-1.62-1.39-3.31-1.88-5.05-.44-1.48-.79-3.08-1.05-4.75-.68-4.76-.71-9.97-.07-15.94.14-1.37.32-2.74.52-4.07.18-1.09.36-2.15.57-3.2.19-1.02.42-2.05.68-3.07.41-1.7.87-3.37,1.39-4.95.34-1.06.7-2.09,1.08-3.06.5-1.28,1-2.44,1.53-3.56,1.73-3.57,3.81-6.78,6.2-9.55,2.02-2.26,4.34-4.3,6.92-6.09,1.32-.88,2.74-1.73,4.24-2.53,2.03-1.09,4.23-2.11,6.93-3.21,1-.41,2.01-.8,3.03-1.18l.1-.04c1.77-.65,3.54-1.28,5.32-1.89l1.45-.51c1.39-.49,2.77-.97,4.15-1.46,4.05-1.48,7.42-2.83,10.62-4.53,3.42-1.83,6.51-3.94,9.16-6.25h0s.17-.16.17-.16c.44-.38.87-.76,1.29-1.17,2.22-2.13,4-4.35,5.3-6.61.64-1.1,1.16-2.19,1.57-3.23.89-2.17,1.4-4.41,1.55-6.66.03-.41.05-.82.05-1.21,0-.18-.12-.32-.2-.39-.2-.19-.49-.32-.73-.3-.29.01-.57.1-.77.24v.95h-.29c-.02.73-.09,1.53-.21,2.42-.31,1.85-.85,3.62-1.59,5.34-.07.18-.16.38-.25.57-.46.92-.97,1.81-1.55,2.72-.7,1.1-1.54,2.22-2.49,3.32-1.61,1.8-3.48,3.52-5.57,5.11-.62.47-1.25.93-1.89,1.37-3.17,2.13-6.71,4-10.54,5.56-1.06.44-2.13.84-3.21,1.24-.5.19-1.01.37-1.52.56l-.33.12c-1.42.51-2.85,1.01-4.27,1.51-3.36,1.17-6.83,2.39-10.16,3.75l-1.04.44ZM701.15,357.54l1.07,1.05-.99-1.13s-.05.05-.08.08Z" fill="#101727"/><rect x="728.36" y="829.02" width="64.46" height="18.1" rx="8.03" ry="8.03" transform="translate(129.47 -101.37) rotate(8.33)" fill="#01654d"/><rect x="762.13" y="832.51" width="1.95" height="4.95" transform="translate(-91.9 94.38) rotate(-6.68)" fill="#e8bd51"/><path d="M734.53,837.75c0,.74.41,1.23,1.27,1.36.75.11,1.34-.19,1.43-.81.07-.5-.15-.81-.71-1.05l-1.11-.48c-1.3-.54-1.95-1.31-1.77-2.56.21-1.43,1.56-2.14,3.11-1.91,1.68.25,2.48,1.36,2.43,2.74l-1.68-.25c.04-.49-.22-1.01-.91-1.11-.61-.09-1.07.18-1.14.7-.07.49.18.72.72.95l1.34.6c1.2.53,1.71,1.34,1.54,2.47-.23,1.55-1.85,2.34-3.45,2.1s-2.82-1.18-2.77-2.98l1.68.25Z" fill="#e9e1ce"/><path d="M742.05,841.23l-1.97-.29,1.72-11.74,1.97.29-.76,5.19c.56-.86,1.55-1.26,2.75-1.09,1.88.28,2.73,1.81,2.44,3.75l-.69,4.69-1.97-.29.64-4.36c.16-1.11-.22-2-1.39-2.17-1.07-.16-1.93.5-2.1,1.65l-.64,4.37Z" fill="#e9e1ce"/><path d="M749.45,838.33c.31-2.13,2.2-3.87,4.9-3.48,2.7.39,4.01,2.6,3.69,4.73s-2.2,3.86-4.89,3.46-4.01-2.6-3.7-4.72ZM751.37,838.61c-.19,1.27.49,2.57,2.01,2.79s2.54-.83,2.72-2.1-.49-2.58-2.01-2.81-2.54.84-2.73,2.11Z" fill="#e9e1ce"/><path d="M770.3,842.06c-.05,1.19.59,2.1,1.98,2.31.96.14,1.75-.18,2.22-.72l1.83.27c-.74,1.32-2.4,2.18-4.26,1.9-2.66-.39-3.96-2.39-3.61-4.72.35-2.37,2.31-3.84,4.72-3.49s3.86,2.31,3.5,4.72l-.09.64-6.28-.92ZM770.47,840.75l4.42.65c.05-1.23-.62-2.19-1.89-2.37s-2.18.48-2.53,1.73Z" fill="#e9e1ce"/><path d="M777.46,846.42l1.72-11.74,1.97.29-1.72,11.74-1.97-.29Z" fill="#e9e1ce"/><path d="M782.79,844.81c0,.74.41,1.23,1.27,1.36.75.11,1.34-.19,1.43-.81.07-.5-.15-.81-.71-1.05l-1.11-.48c-1.3-.54-1.95-1.31-1.77-2.56.21-1.43,1.56-2.14,3.11-1.91,1.68.25,2.48,1.36,2.43,2.74l-1.68-.25c.04-.49-.22-1.01-.91-1.11-.61-.09-1.07.18-1.14.7-.07.49.18.72.72.95l1.34.6c1.2.53,1.71,1.34,1.54,2.47-.23,1.55-1.85,2.34-3.45,2.1-1.63-.24-2.82-1.18-2.77-2.98l1.68.25Z" fill="#e9e1ce"/><path d="M765.55,837.22c.15,2.9-.87,4.49-1.56,5.33-.87-.66-2.23-1.99-2.74-4.89-.08-.01-.17-.02-.25-.03-.63-.09-1.23-.24-1.79-.43.56,4.77,3.09,6.55,4.04,7.22l.04.03c.18.13.39.21.59.24.44.07.91-.09,1.23-.45l.04-.04c.77-.87,2.82-3.19,2.27-7.95-.57.4-1.19.73-1.87.98Z" fill="#e9e1ce"/></svg>