<?xml version="1.0" encoding="UTF-8"?><svg xmlns="http://www.w3.org/2000/svg" viewBox="0 0 1300 1000"><g isolation="isolate"><g id="Layer_1"><path d="M835.63,752.79l-18.49,56.99,125.04,44.77s31.32-31.57-30.09-53.56c3.4-8.91,7.82-18.84,7.82-18.84l-84.29-29.37Z" fill="#e9e1ce"/><path d="M942.57,856.29l-.9-.32-126.41-45.26,19.41-59.83,87.28,30.41-.66,1.49c-.04.09-3.98,8.96-7.24,17.34,21.83,8.06,34.3,18.31,37.05,30.49,3.12,13.76-7.4,24.56-7.85,25.01l-.67.68ZM819.01,808.86l122.73,43.95c2.12-2.48,8.78-11.26,6.43-21.56-2.59-11.37-14.9-21.07-36.58-28.83l-1.44-.52.55-1.43c2.6-6.82,5.83-14.3,7.19-17.42l-81.31-28.33-17.57,54.15Z" fill="#101727"/><path d="M999.46,682.36l18.62,56.95,127.43-37.46s6.72-43.96-55.86-25.57c-2.5-9.21-4.78-19.83-4.78-19.83l-85.41,25.91Z" fill="#e9e1ce"/><path d="M1017.1,741.16l-19.55-59.79,88.44-26.83.34,1.59c.02.1,2.06,9.58,4.36,18.28,22.39-6.34,38.5-5.4,47.9,2.82,10.62,9.28,8.48,24.21,8.38,24.84l-.14.94-.92.27-128.82,37.87ZM1001.36,683.35l17.69,54.11,125.07-36.76c.26-3.25.46-14.27-7.51-21.21-8.79-7.66-24.45-8.25-46.54-1.76l-1.47.43-.4-1.48c-1.91-7.04-3.71-15-4.45-18.32l-82.39,24.99Z" fill="#101727"/><path d="M921.66,507.87l91.13-14.54c18.15-2.9,35.51,8.54,40.02,26.37l31.64,125.25-99.66,21.42-17.01-69.23-150.75-61.06,104.63-28.22Z" fill="#01654d"/><path d="M716.48,563.2l4.05,16.5c5.01,20.4,20.77,36.43,41.08,41.8l99.15,26.17-31.52,86.22,103.99,29.42,36.86-151.38c4.51-18.52-6.41-37.29-24.73-42.53l-101.62-29.08-20.39-5.94-106.87,28.82Z" fill="#01654d"/><path d="M959.37,662.26l-2.92-.71,12.17-49.97c4.33-17.8-6.07-35.7-23.68-40.74l-95.51-27.33.83-2.88,95.51,27.33c19.17,5.49,30.49,24.96,25.77,44.33l-12.17,49.97Z" fill="#101727"/><polygon points="1098.67 658.05 981.33 691.42 968.46 660.79 1093.49 625.23 1098.67 658.05" fill="#01654d"/><polygon points="934.83 791.73 817.89 757 823.45 724.24 948.06 761.25 934.83 791.73" fill="#01654d"/><path d="M747.1,253.87l-86.39-27.51c-3.46,10.91-5.64,21.02-6.83,30.33h.01c.88,19.58,8.35,28.93,25.74,36.2,9.36,2.3,19.4,2.38,29.3.09,23.89-5.54,30.47-19.14,38.3-39.07l-.13-.04ZM678.02,259.69c-2.72-.13-4.81-2.43-4.69-5.15.13-2.71,2.43-4.81,5.15-4.68,2.71.12,4.81,2.43,4.68,5.14-.12,2.71-2.43,4.81-5.14,4.69ZM714.75,268.28c-2.72-.12-4.81-2.42-4.69-5.14.13-2.71,2.43-4.81,5.15-4.68,2.71.12,4.81,2.42,4.68,5.14-.12,2.71-2.43,4.81-5.14,4.68Z" fill="#e9e1ce" stroke="#101727" stroke-miterlimit="10" stroke-width="3"/><path d="M686.49,348.07c-.3,0-.59,0-.89-.02-3.4-.16-6.7-1.2-9.57-3-2.7-1.67-4.99-4.03-6.63-6.8l-.41-.68c-1.08-1.83-2.71-4.6-4.42-7.85-.18-.34-.36-.69-.54-1.05l-.17-.34c-.24-.48-.49-.97-.73-1.46-.17-.34-.35-.71-.53-1.09l-.15-.32c-.19-.39-.37-.79-.56-1.2l-.28-.6c-.24-.52-.48-1.04-.7-1.58-.38-.86-.76-1.77-1.14-2.7-.17-.42-.35-.84-.52-1.28-.44-1.14-.88-2.32-1.32-3.53-.22-.64-.42-1.21-.61-1.79-.26-.76-.51-1.55-.77-2.35-.16-.52-.33-1.05-.48-1.59-.01-.03-.03-.11-.06-.2l-.03-.12c-.13-.44-.25-.84-.36-1.25l-.39-1.43c-.31-1.19-.67-2.59-1.01-4.08-.16-.68-.31-1.38-.46-2.08-.1-.49-.19-.92-.27-1.35-.12-.55-.23-1.13-.33-1.72-.19-1.04-.36-2.11-.53-3.19-.2-1.32-.39-2.69-.55-4.07-.22-1.92-.4-3.84-.54-5.7-.06-.93-.12-1.86-.16-2.81-.05-.93-.09-1.89-.11-2.85-.18-6.99.2-14.22,1.12-21.49l.17-1.31h2.76l.07,1.43c.83,18.4,7.3,27.53,24.71,34.84,9.16,2.23,19.01,2.25,28.49.06,22.83-5.3,29.3-17.95,37.24-38.16l.37-.95h1.26l.23.07,19.22,6.14,1.17.57-.38,1.25c-3.5,10.93-7.77,21.07-12.7,30.14-3.22,5.93-6.78,11.54-10.58,16.67-18.54,25.02-39.18,34.31-49.11,38.77l-.62.28c-2.57,1.17-5.39,1.78-8.2,1.78ZM654.31,269.77c-.1,2.75-.11,5.47-.04,8.15.02.94.06,1.86.11,2.78.04.94.1,1.84.16,2.74.13,1.81.31,3.68.52,5.56.16,1.35.34,2.68.53,3.95.17,1.05.33,2.1.52,3.13.1.56.21,1.12.32,1.67.08.45.17.86.25,1.27.15.73.3,1.4.45,2.06.33,1.46.68,2.83.98,3.98l.38,1.39c.11.4.22.77.33,1.15.02.05.04.13.06.22l.03.12c.17.57.32,1.08.48,1.58.25.78.49,1.54.75,2.29.2.58.39,1.14.58,1.7.44,1.23.88,2.38,1.3,3.49.16.41.33.82.5,1.22.38.91.75,1.8,1.13,2.66.22.52.44,1.02.67,1.5l.28.6c.18.39.36.78.54,1.15l.16.33c.17.36.34.71.51,1.04.25.51.48.98.72,1.44l.18.35c.17.34.34.68.52,1.01,1.68,3.19,3.22,5.81,4.35,7.72l.41.68c1.39,2.36,3.34,4.36,5.63,5.78,2.44,1.53,5.24,2.41,8.12,2.55,2.66.12,5.27-.38,7.73-1.5l.6-.27c9.71-4.37,29.87-13.44,47.94-37.83,3.72-5.02,7.2-10.5,10.36-16.31,4.62-8.51,8.66-17.99,12.02-28.2l-16.28-5.19c-7.85,19.79-15.15,33.19-38.84,38.68-9.98,2.31-20.35,2.28-30-.09l-.22-.07c-13.92-5.82-21.47-13-24.74-24.5Z" fill="#101727"/><polygon points="746.77 255.34 658.97 227.38 659.48 224.86 660.95 224.81 661.19 224.88 747.69 252.48 746.77 255.34" fill="#101727"/><path d="M777.35,225.24l-11.05,34.68-.02.06h-.02s-19.02-6.07-19.02-6.07h-.01l-86.52-27.55v-.05h.02l2.91-9.16,8.13-25.53c7.53-23.65,32.8-36.71,56.45-29.18l19.95,6.35c23.64,7.53,36.71,32.81,29.18,56.45Z" fill="#e8bd51"/><path d="M766.3,259.92h0s-133.39-42.48-133.39-42.48c-2.53-.81-3.93-3.51-3.12-6.04h0c.81-2.53,3.51-3.93,6.04-3.12l56.54,18" fill="#e8bd51"/><path d="M765.85,261.35l-133.39-42.48c-3.31-1.06-5.15-4.61-4.09-7.92.51-1.6,1.62-2.91,3.11-3.69,1.5-.77,3.2-.92,4.81-.41l56.53,18-.91,2.86-56.53-18c-.84-.27-1.74-.19-2.52.21-.78.41-1.36,1.09-1.63,1.93-.55,1.74.41,3.6,2.15,4.15l133.39,42.48-.91,2.86Z" fill="#101727"/><path d="M776.16,283.11c-7.82,9.67-15.91,8.19-22.47,6.75,4.65-8.56,8.93-18.45,12.59-29.88,13.21-2,17.99,13.09,9.88,23.13Z" fill="#e9e1ce"/><path d="M761.31,292.42c-2.95,0-5.66-.6-7.94-1.1l-1.95-.43.95-1.75c4.84-8.91,9.04-18.87,12.48-29.62l.28-.89.92-.14c5.95-.9,10.92,1.31,13.64,6.05,3.32,5.8,2.37,13.63-2.37,19.5h0c-5.4,6.68-11.05,8.37-16.02,8.37ZM755.95,288.81c5.66,1.14,12.38,1.6,19.04-6.64h0c3.91-4.84,4.77-11.47,2.1-16.12-1.97-3.43-5.38-5.06-9.68-4.69-3.21,9.88-7.06,19.1-11.46,27.46Z" fill="#101727"/><polygon points="753.39 291.33 752.66 291.17 753.28 288.23 753.99 288.39 753.39 291.33" fill="#101727"/><path d="M682.59,286.38c-2.11,0-3.94-.43-5.32-1.17-1.73-.92-2.71-2.32-2.68-3.84.02-.96.5-2.78,3.44-4.19,12.28-5.87,16.76-12.91,20.35-23.08l2.83,1c-3.75,10.64-8.72,18.5-21.89,24.79-1.36.65-1.73,1.28-1.74,1.55,0,.27.33.72,1.08,1.12,2.06,1.09,7.81,1.85,14.86-3.13l1.73,2.45c-4.55,3.22-9.04,4.5-12.68,4.5Z" fill="#101727"/><path d="M766.28,259.98c-3.66,11.43-7.94,21.32-12.59,29.88-3.34,6.15-6.86,11.62-10.47,16.49-18.32,24.73-38.87,33.96-48.54,38.31l-.59.26c-2.73,1.24-5.61,1.76-8.42,1.63-3.13-.15-6.18-1.1-8.84-2.77-2.45-1.52-4.57-3.64-6.13-6.29l-.41-.69c-1.22-2.07-2.74-4.66-4.38-7.78-.24-.45-.47-.91-.71-1.38-.24-.47-.48-.95-.72-1.44-.23-.45-.45-.92-.68-1.4-.28-.58-.55-1.18-.83-1.78-.23-.5-.46-1.01-.68-1.53-.38-.87-.76-1.77-1.14-2.69-.17-.41-.34-.83-.51-1.26-.43-1.12-.87-2.28-1.3-3.48-.2-.58-.4-1.16-.6-1.76-.26-.76-.51-1.54-.76-2.33-.16-.51-.32-1.03-.47-1.55-.04-.12-.07-.25-.11-.37-.12-.39-.23-.78-.34-1.18-.13-.47-.26-.94-.39-1.42-.34-1.3-.68-2.64-.99-4.02-.16-.68-.31-1.36-.45-2.05-.09-.44-.18-.88-.26-1.32-.12-.57-.23-1.14-.33-1.71-.19-1.04-.36-2.1-.53-3.17-.2-1.31-.38-2.65-.54-4.01-.21-1.83-.39-3.71-.53-5.63-.06-.91-.12-1.83-.16-2.76-.05-.93-.09-1.87-.11-2.82.54.54,1.1,1.07,1.66,1.58,4.9,4.48,10.5,8.01,16.55,10.52,2.8,1.17,5.69,2.11,8.65,2.83,9.36,2.3,19.4,2.38,29.3.09,23.89-5.54,30.47-19.14,38.3-39.07h.01s19.02,6.06,19.02,6.06h.02Z" fill="#101727"/><path d="M686.49,348.07c-.3,0-.59,0-.89-.02-3.4-.16-6.7-1.2-9.57-3-2.7-1.67-4.99-4.03-6.63-6.8l-.41-.68c-1.08-1.83-2.71-4.6-4.42-7.85-.18-.34-.36-.69-.54-1.05l-.17-.34c-.24-.48-.49-.97-.73-1.46-.17-.34-.35-.71-.53-1.09l-.15-.32c-.19-.39-.37-.79-.56-1.2l-.28-.6c-.24-.52-.48-1.04-.7-1.58-.38-.86-.76-1.77-1.14-2.7-.17-.42-.35-.84-.52-1.28-.44-1.14-.88-2.32-1.32-3.53-.22-.64-.42-1.21-.61-1.79-.26-.76-.51-1.55-.77-2.35-.16-.52-.33-1.05-.48-1.59-.01-.03-.03-.11-.06-.2l-.03-.12c-.13-.44-.25-.84-.36-1.25l-.39-1.43c-.31-1.19-.67-2.59-1.01-4.08-.16-.68-.31-1.38-.46-2.08-.1-.49-.19-.92-.27-1.35-.12-.55-.23-1.13-.33-1.72-.19-1.04-.36-2.11-.53-3.19-.2-1.32-.39-2.69-.55-4.07-.22-1.92-.4-3.84-.54-5.7-.06-.93-.12-1.86-.16-2.81-.05-.93-.09-1.89-.11-2.85l-.08-3.73,2.64,2.64c.52.52,1.07,1.04,1.61,1.53,4.73,4.32,10.15,7.77,16.11,10.24,2.69,1.12,5.53,2.05,8.43,2.76,9.19,2.26,19.09,2.29,28.61.09,22.74-5.27,29.25-17.85,37.15-37.92v-1.74l1.96.62,19.22,6.15,1.17.57-.38,1.25c-3.5,10.93-7.77,21.07-12.7,30.14-3.22,5.93-6.78,11.54-10.58,16.67-18.54,25.02-39.18,34.31-49.11,38.77l-.62.28c-2.57,1.17-5.39,1.78-8.2,1.78ZM654.42,281.54c.03.64.08,1.27.12,1.9.13,1.81.31,3.68.52,5.56.16,1.35.34,2.68.53,3.95.17,1.05.33,2.1.52,3.13.1.56.21,1.12.32,1.67.08.45.17.86.25,1.27.15.73.3,1.4.45,2.06.33,1.46.68,2.83.98,3.98l.38,1.39c.11.4.22.77.33,1.15.02.05.04.13.06.22l.03.12c.17.57.32,1.08.48,1.58.25.78.49,1.54.75,2.29.2.58.39,1.14.58,1.7.44,1.23.88,2.38,1.3,3.49.16.41.33.82.5,1.22.38.91.75,1.8,1.13,2.66.22.52.44,1.02.67,1.5l.28.6c.18.39.36.78.54,1.15l.16.33c.17.36.34.71.51,1.04.25.51.48.98.72,1.44l.18.35c.17.34.34.68.52,1.01,1.68,3.19,3.22,5.81,4.35,7.72l.41.68c1.39,2.36,3.34,4.36,5.63,5.78,2.44,1.53,5.24,2.41,8.12,2.55,2.66.12,5.27-.38,7.73-1.5l.6-.27c9.71-4.37,29.87-13.44,47.94-37.83,3.72-5.02,7.2-10.5,10.36-16.31,4.62-8.51,8.66-17.99,12.02-28.2l-16.27-5.19c-7.85,19.8-15.15,33.19-38.85,38.69-9.98,2.31-20.35,2.28-30-.09-3.05-.74-6.04-1.72-8.87-2.9-5.87-2.43-11.24-5.76-15.98-9.9Z" fill="#101727"/><path d="M719.89,263.6c-.12,2.71-2.43,4.81-5.14,4.68-2.72-.12-4.81-2.42-4.69-5.14.13-2.71,2.43-4.81,5.15-4.68,2.71.12,4.81,2.42,4.68,5.14Z" fill="#e9e1ce"/><path d="M714.99,269.79c-.1,0-.21,0-.31,0-1.71-.08-3.29-.82-4.45-2.08-1.15-1.26-1.75-2.91-1.67-4.62.17-3.54,3.18-6.29,6.72-6.11,1.71.08,3.29.81,4.44,2.08,1.16,1.27,1.75,2.91,1.67,4.63-.08,1.71-.82,3.28-2.08,4.44-1.19,1.09-2.71,1.68-4.31,1.68ZM714.98,259.95c-1.82,0-3.33,1.43-3.42,3.26-.04.91.28,1.79.89,2.46.61.67,1.45,1.07,2.37,1.11.92.04,1.79-.27,2.47-.89.67-.61,1.07-1.45,1.11-2.36h0c.04-.92-.27-1.79-.89-2.47-.61-.67-1.45-1.07-2.36-1.11-.06,0-.11,0-.17,0Z" fill="#101727"/><path d="M683.16,255c-.12,2.71-2.43,4.81-5.14,4.69-2.72-.13-4.81-2.43-4.69-5.15.13-2.71,2.43-4.81,5.15-4.68,2.71.12,4.81,2.43,4.68,5.14Z" fill="#e9e1ce"/><path d="M678.24,261.19c-.1,0-.19,0-.29,0-3.53-.17-6.28-3.18-6.12-6.71.17-3.54,3.18-6.28,6.72-6.11,1.7.08,3.28.82,4.44,2.08,1.16,1.27,1.75,2.91,1.67,4.63-.08,1.71-.82,3.29-2.09,4.44-1.2,1.09-2.72,1.68-4.33,1.68ZM678.25,251.35c-1.82,0-3.33,1.43-3.42,3.26-.08,1.88,1.38,3.49,3.26,3.58.91.04,1.78-.28,2.46-.89.68-.62,1.07-1.46,1.11-2.36h0c.04-.92-.27-1.79-.89-2.47-.61-.67-1.45-1.07-2.36-1.11-.06,0-.11,0-.17,0Z" fill="#101727"/><path d="M726.58,259.77c-1.81-3.45-5.35-5.94-9.71-6.84l.81-3.92c5.54,1.14,10.08,4.38,12.45,8.9l-3.54,1.86Z" fill="#101727"/><path d="M690.01,315.95c-1.04,0-2.08-.05-3.12-.16-6.92-.7-12.37-3.53-15.35-7.97l2.49-1.67c5.48,8.16,20.93,8.21,27.72,3.91l1.6,2.54c-3.39,2.14-8.3,3.35-13.34,3.35Z" fill="#e9e1ce"/><path d="M726.26,171.42l-1.53-2.58c.47-.28,11.67-6.79,24.92-1.75l-1.07,2.8c-11.86-4.52-22.22,1.47-22.32,1.53Z" fill="#101727"/><path d="M753.7,326.38l-22.58,35.41-57.04-16.11-.08-.02,2.83-1.88c2.66,1.67,5.71,2.62,8.84,2.77,2.81.13,5.69-.39,8.42-1.63l.59-.26c9.67-4.35,30.22-13.58,48.54-38.31l10.48,20.03Z" fill="#e9e1ce"/><path d="M731.79,363.54l-61.25-17.3,2.64-1.83,3.64-2.42.82.51c2.43,1.53,5.24,2.4,8.11,2.54,2.66.12,5.27-.38,7.73-1.5l.6-.27c9.71-4.37,29.87-13.44,47.94-37.83l1.42-1.92,11.99,22.92-23.65,37.08ZM687.88,348.02l42.57,12.02,21.51-33.74-8.98-17.16c-18.16,23.6-38,32.52-47.67,36.87l-.62.28c-2.15.97-4.47,1.56-6.81,1.73Z" fill="#101727"/><path d="M686.49,348.07c-.3,0-.59,0-.89-.02-3.4-.16-6.7-1.2-9.57-3l-1.97-1.24,67.15-44.52,3.77,7.2-.56.75c-18.54,25.02-39.18,34.31-49.11,38.77l-.62.28c-2.57,1.17-5.39,1.78-8.2,1.78ZM679.76,343.64c1.88.83,3.91,1.31,5.99,1.41,2.67.12,5.27-.38,7.73-1.5l.6-.27c9.61-4.32,29.45-13.25,47.38-37.08l-1.35-2.58-60.35,40.01Z" fill="#101727"/><rect x="697.29" y="176.59" width="6.65" height="16.9" transform="translate(-9.54 40.87) rotate(-3.32)" fill="#01654d"/><path d="M693.74,194c1.2,9.84,5.57,14.58,8.38,16.99,2.52-2.74,6.32-8,6.31-18.06.27-.08.55-.16.82-.25,2.08-.69,3.99-1.53,5.75-2.49.93,16.35-6.49,23.83-9.29,26.64l-.12.12c-.54.54-1.17.93-1.85,1.15-1.45.48-3.11.23-4.38-.79l-.16-.13c-3.11-2.48-11.38-9.06-12.34-25.37,2.14,1,4.44,1.75,6.88,2.18Z" fill="#fff"/><path d="M679.63,292.89l-8.65-2.83-15.62-5.11s-.47-1.89-.93-5.41c-.62-4.81-1.22-12.67-.54-22.85.88,19.58,8.35,28.93,25.74,36.2Z" fill="#101727"/><path d="M679.16,294.32l-25.06-8.2-.2-.81c-.02-.08-.5-2.01-.96-5.58-.63-4.89-1.24-12.87-.55-23.14l3,.03c.83,18.44,7.32,27.57,24.82,34.88l-1.05,2.81ZM656.64,283.79l8.98,2.94c-4.86-3.82-8.2-8.33-10.32-13.95.16,2.59.38,4.79.61,6.57.27,2.09.55,3.59.72,4.44Z" fill="#101727"/><path d="M660.11,467.07l-22.33,61.93c-4.08,11.34-15.79,18.05-27.64,15.84l-94.98-24.37-44.12-2.47-.09-.32h0s10.73-2.84,10.73-2.84c4.47-1.18,7.43-5.22,7.43-9.64,0-.85-.11-1.7-.33-2.55-1.41-5.33-6.87-8.51-12.2-7.1l2.08-.55c4.47-1.18,7.43-5.22,7.43-9.64,0-.84-.1-1.7-.33-2.55-.96-3.64-3.8-6.27-7.21-7.13l-.54,1c-1.79,3.34-5.24,5.3-8.85,5.3-1.07,0-2.15-.17-3.21-.53-1.63-.55-3.03-1.47-4.12-2.64-2.61-2.77-3.54-6.92-1.98-10.71l4.33-10.55,3.59-8.74-2.28-11.02,118.49,29.28s3.65-11.97,9.77-27.97c23.32-5.4,56.55,10.99,66.36,27.97Z" fill="#e9e1ce"/><path d="M614.72,546.77c-1.6,0-3.23-.15-4.86-.45l-.1-.02-94.84-24.33-45.04-2.52-.44-1.55v-1.36l1.12-.3,10.73-2.83c3.72-.98,6.31-4.35,6.31-8.19,0-.72-.09-1.45-.28-2.17-.58-2.18-1.97-4.02-3.93-5.16-1.96-1.14-4.24-1.45-6.42-.87h0s-.77-2.9-.77-2.9c0,0,0,0,.01,0l2.07-.55c3.72-.98,6.31-4.35,6.31-8.19,0-.75-.09-1.48-.28-2.16-.69-2.62-2.57-4.72-5.04-5.71-2.03,3.7-5.89,5.99-10.12,5.99-1.26,0-2.5-.21-3.69-.61-1.82-.61-3.45-1.66-4.73-3.04-3.1-3.29-3.99-8.12-2.27-12.3l7.75-18.86-2.67-12.9,119.43,29.51c1.13-3.59,4.49-13.92,9.38-26.71l.29-.75.78-.18c24-5.56,58.02,11.41,68,28.68l.35.6-22.57,62.59c-3.79,10.54-13.64,17.26-24.47,17.26ZM610.46,543.37c11.17,2.06,22.06-4.19,25.91-14.88l22.09-61.27c-9.8-16.03-41.07-31.54-63.6-26.84-5.86,15.39-9.41,27-9.45,27.12l-.41,1.36-117.56-29.05,1.89,9.14-8.09,19.71c-1.28,3.1-.61,6.67,1.68,9.11.95,1.02,2.16,1.79,3.51,2.25.88.3,1.8.45,2.73.45,3.15,0,6.04-1.73,7.53-4.51l1.1-2.03,1.13.29c4.05,1.02,7.23,4.16,8.29,8.2.25.93.38,1.92.38,2.93,0,3.63-1.71,6.95-4.46,9.08.61.23,1.2.51,1.77.84,2.65,1.54,4.54,4.03,5.33,6.99.25.98.38,1.96.38,2.93,0,5.2-3.51,9.76-8.55,11.09l-2.58.68,35.91,2.01.14.04,94.93,24.36Z" fill="#101727"/><path d="M733.04,541.43l-31.9,9.17-36.28-96.71-4.75,13.18c-9.81-16.98-43.04-33.37-66.36-27.97,10.95-28.66,29.82-70.28,49.81-79.28l12.89-6,76.59,187.61Z" fill="#e9e1ce"/><path d="M700.22,552.42l-35.33-94.19-4.46,12.38-1.62-2.8c-9.49-16.42-41.87-32.54-64.72-27.26l-2.75.64,1.01-2.63c12.07-31.59,30.64-71.13,50.6-80.11l14.3-6.66,77.82,190.62-34.84,10.01ZM664.83,449.54l37.23,99.23,28.96-8.33-75.36-184.61-11.46,5.34c-8.49,3.82-25.9,18.77-48.07,75.93,22.54-3.57,52.37,10.92,63.6,26.61l5.11-14.17Z" fill="#101727"/><path d="M776.5,375.61l-3.65-7.88c-10.47-4.5-27.5-9.99-41.73-5.94-22.3,6.34-24.85,42.18-24.85,42.18l-32.24-58.12.05-.17-.08-.02-7.36,3.43,29.74,70.33h0s69.09,24.22,69.09,24.22l19.66-52.91-8.63-15.12ZM747.72,381.25c-.74-2.61.77-5.34,3.39-6.08,2.61-.74,5.33.77,6.08,3.39.74,2.61-.78,5.33-3.39,6.08-2.61.74-5.34-.78-6.08-3.39ZM761.83,401.2c-2.62.75-5.34-.77-6.08-3.38-.74-2.61.77-5.34,3.39-6.08,2.61-.74,5.33.77,6.07,3.39.75,2.61-.77,5.33-3.38,6.07Z" fill="#e9e1ce" stroke="#101727" stroke-miterlimit="10" stroke-width="3"/><path d="M761.83,401.2c-2.62.75-5.34-.77-6.08-3.38-.74-2.61.77-5.34,3.39-6.08,2.61-.74,5.33.77,6.07,3.39.75,2.61-.77,5.33-3.38,6.07Z" fill="#e9e1ce"/><path d="M760.46,402.89c-1.08,0-2.14-.27-3.11-.81-1.5-.83-2.58-2.2-3.05-3.85-.47-1.65-.27-3.38.57-4.88.84-1.5,2.21-2.59,3.86-3.05,1.65-.47,3.38-.26,4.87.57,1.5.84,2.58,2.21,3.05,3.86.47,1.64.27,3.37-.56,4.87-.83,1.5-2.2,2.58-3.85,3.05-.59.17-1.18.25-1.77.25ZM760.49,393.05c-.31,0-.63.04-.94.13-.88.25-1.61.83-2.05,1.62-.44.8-.55,1.72-.3,2.6.25.88.82,1.61,1.62,2.05.8.44,1.72.55,2.6.3h0c.88-.25,1.61-.83,2.05-1.62.44-.79.55-1.71.3-2.59-.25-.89-.83-1.62-1.62-2.06-.52-.29-1.08-.43-1.66-.43Z" fill="#101727"/><path d="M753.8,384.64c-2.61.74-5.34-.78-6.08-3.39-.74-2.61.77-5.34,3.39-6.08,2.61-.74,5.33.77,6.08,3.39.74,2.61-.78,5.33-3.39,6.08Z" fill="#e9e1ce"/><path d="M752.45,386.33c-1.08,0-2.15-.28-3.12-.82-1.5-.84-2.58-2.2-3.05-3.85-.47-1.65-.26-3.39.57-4.89.84-1.5,2.2-2.58,3.85-3.04,3.4-.96,6.96,1.02,7.93,4.42.96,3.4-1.02,6.96-4.42,7.93h0c-.58.17-1.17.25-1.76.25ZM752.45,376.48c-.31,0-.62.04-.93.13-.88.25-1.6.82-2.05,1.62-.45.8-.56,1.73-.31,2.61.25.88.83,1.6,1.63,2.05.8.45,1.72.55,2.6.31,1.81-.52,2.87-2.42,2.36-4.23-.43-1.5-1.81-2.49-3.3-2.49Z" fill="#101727"/><path d="M731.12,361.79c-22.3,6.34-24.85,42.18-24.85,42.18l-32.24-58.12.05-.17,57.04,16.11Z" fill="#e9e1ce"/><path d="M706.27,405.47c-.54,0-1.04-.29-1.31-.77l-32.24-58.12c-.19-.35-.24-.77-.13-1.15l.05-.17c.23-.79,1.06-1.25,1.85-1.02l57.04,16.11c.65.18,1.09.77,1.09,1.44s-.44,1.26-1.09,1.44c-21.02,5.98-23.74,40.5-23.76,40.84-.05.66-.52,1.21-1.17,1.36-.11.02-.22.04-.32.04ZM676.97,348.05l28.37,51.15c.56-3.59,1.62-8.87,3.58-14.44,3.93-11.2,9.93-18.96,17.49-22.74l-49.44-13.96Z" fill="#101727"/><polygon points="762.51 451.61 737.94 517.72 700.85 430.01 762.51 451.61" fill="#e9e1ce"/><path d="M738.03,521.78l-39.88-94.31,66.3,23.22-26.42,71.08ZM703.55,432.55l34.3,81.11,22.72-61.14-57.02-19.97Z" fill="#101727"/><rect x="655.93" y="349.96" width="11.23" height="3" transform="translate(-86.48 311.27) rotate(-24.9)" fill="#101727"/><path d="M911.45,335.3c-.23-2.7.54-5.37,2.18-7.53.08-.1.16-.2.26-.31l2.26,1.97s-.08.09-.12.14c-1.19,1.57-1.76,3.51-1.59,5.46l-2.99.26Z" fill="#101727"/><path d="M913.07,325.1c-.55-.32-1.08-.72-1.6-1.18l2.01-2.22c.36.33.73.6,1.1.82l-1.51,2.59Z" fill="#101727"/><rect x="927.28" y="284.74" width="9.46" height="3" transform="translate(-21.98 85.04) rotate(-5.16)" fill="#101727"/><path d="M953.8,293.82c-2.77,5.9-8.51,10.2-15.47,10.79l-17.07,1.46-3.37.29c-.39.03-.78.09-1.15.18h-.03l-2.98.27c-.48.04-.96.05-1.43.02-3.64-.24-6.78-2.57-8.11-5.88l8.12-3.62,8.6-3.83c.12-.06.25-.12.37-.19,2.85-1.41,4.94-3.82,6.02-6.64.54-1.41.83-2.92.83-4.46,0-1.05-.13-2.12-.41-3.17-.94-3.6-3.36-6.38-6.4-7.93v-2.2h.89l12.9-1.87c10.38-.89,19.51,6.8,20.4,17.17.29,3.42-.35,6.71-1.71,9.61Z" fill="#e9e1ce"/><path d="M912.85,308.35c-.22,0-.44,0-.65-.02-4.16-.27-7.85-2.95-9.41-6.82l-.54-1.34,18.09-8.06c.06-.03.12-.06.17-.09l.09-.05c2.43-1.2,4.3-3.27,5.28-5.83.48-1.27.73-2.59.73-3.92,0-.95-.12-1.89-.36-2.78-.79-3.02-2.84-5.56-5.63-6.98l-.82-.42v-4.62h2.28l12.79-1.85c11.27-.97,21.15,7.35,22.11,18.53.3,3.57-.34,7.15-1.85,10.37h0c-3.09,6.57-9.49,11.04-16.7,11.65l-20.44,1.75c-.33.03-.64.07-.92.14l-.32.04-2.91.26c-.35.03-.68.04-1.01.04ZM906.24,301.68c1.34,2.1,3.63,3.49,6.16,3.66.37.02.78.02,1.21-.02l2.91-.26c.4-.09.82-.15,1.26-.19l20.43-1.75c6.15-.52,11.61-4.33,14.24-9.93,1.29-2.74,1.83-5.8,1.57-8.84-.82-9.53-9.24-16.61-18.78-15.8l-12.27,1.78c3.06,1.88,5.29,4.87,6.2,8.35.3,1.14.46,2.33.46,3.55,0,1.71-.31,3.39-.93,5-1.25,3.25-3.63,5.89-6.71,7.43-.1.06-.21.11-.31.16l-.15.07-15.28,6.81Z" fill="#101727"/><path d="M955.41,312.6c-2.77,5.9-8.51,10.2-15.47,10.79l-18.72,1.61-.15.02-1.57.13c-.27.02-.54.03-.81.03-1.76,0-3.43-.49-4.86-1.37-.61-.43-1.09-.8-1.35-1-.04-.03-.07-.06-.1-.08-.07-.06-.11-.09-.11-.09-1.65-1.53-2.75-3.65-2.96-6.08-.26-3.01.92-5.81,2.98-7.71,1.21-1.13,2.72-1.95,4.42-2.31h.03l4.52-.4,17.07-1.53c6.96-.59,12.7-4.89,15.47-10.79,1.84,2.63,3.03,5.76,3.32,9.18s-.35,6.71-1.71,9.6Z" fill="#e9e1ce"/><path d="M918.69,326.68c-2,0-3.95-.55-5.65-1.59-.7-.49-1.2-.87-1.47-1.08l-.33-.27c-1.98-1.84-3.2-4.34-3.43-7.05-.29-3.39.97-6.64,3.46-8.94,1.44-1.34,3.21-2.27,5.13-2.67l.27-.03,21.52-1.92c6.16-.52,11.61-4.33,14.25-9.93l1.1-2.35,1.49,2.12c2.04,2.92,3.28,6.35,3.59,9.91.3,3.57-.34,7.15-1.85,10.36h0c-3.09,6.57-9.49,11.04-16.7,11.65l-20.44,1.76c-.32.02-.63.04-.93.04ZM913.29,321.53l.11.09c.26.2.72.55,1.3.96,1.33.81,3.01,1.2,4.69,1.07l1.64-.14,18.79-1.62c6.15-.52,11.61-4.33,14.24-9.93h0c1.29-2.74,1.83-5.79,1.57-8.83-.19-2.2-.79-4.35-1.78-6.3-3.39,5.26-9.08,8.75-15.39,9.28l-21.54,1.93c-1.34.3-2.58.96-3.6,1.92-1.81,1.67-2.72,4.03-2.51,6.48.17,1.95,1.04,3.75,2.44,5.07.01,0,.02.02.04.03Z" fill="#101727"/><path d="M949.77,339.49c-2.42,1.48-5.21,2.43-8.22,2.69l-18.41,1.58c-.27.02-.54.03-.81.03-.39,0-.77-.02-1.14-.07-4.34-.53-7.85-4.02-8.25-8.55-.14-1.58.84-4.48,2.07-6.72,0,0,.01,0,.01-.02,1.46-1.81,3.59-3.08,6.05-3.41l.15-.02,18.72-1.61c6.96-.59,12.7-4.89,15.47-10.79,1.84,2.63,3.03,5.76,3.32,9.18.63,7.36-3.06,14.1-8.96,17.71Z" fill="#e9e1ce"/><path d="M922.33,345.29c-.48,0-.92-.03-1.34-.08-5.07-.62-9.09-4.79-9.54-9.9-.17-1.97.88-4.98,2.06-7.23v-.25l.38-.37c1.76-2.15,4.23-3.54,6.98-3.91l.16-.02,18.79-1.62c6.15-.52,11.61-4.33,14.24-9.93l1.1-2.35,1.49,2.12c2.04,2.92,3.28,6.35,3.59,9.91.66,7.74-3.04,15.06-9.67,19.12-2.7,1.65-5.69,2.63-8.87,2.91l-18.41,1.58c-.33.02-.63.04-.94.04ZM916.23,329.35c-1.24,2.31-1.88,4.69-1.79,5.69.33,3.72,3.25,6.74,6.94,7.19.51.07,1.08.07,1.66.03l18.39-1.58c2.72-.24,5.26-1.07,7.57-2.48h0c5.65-3.46,8.81-9.71,8.25-16.3-.19-2.2-.79-4.35-1.78-6.3-3.39,5.26-9.08,8.75-15.39,9.28l-18.8,1.62c-1.83.25-3.5,1.12-4.74,2.48v.08l-.29.29Z" fill="#101727"/><path d="M949.77,339.49l-2.07,78.13c-.45,16.94-11.93,30.36-26.71,34.73l.2-108.63c.37.05.75.07,1.14.07.27,0,.54-.01.81-.03l18.41-1.58c3.01-.26,5.8-1.21,8.22-2.69Z" fill="#e9e1ce"/><path d="M919.49,454.36l.21-112.35,1.7.23c.48.06,1.06.07,1.64.03l18.39-1.58c2.72-.24,5.26-1.07,7.57-2.48l2.36-1.44-2.14,80.89c-.45,16.83-11.61,31.35-27.78,36.13l-1.93.57ZM922.69,345.28l-.19,105c13.87-4.96,23.31-17.86,23.71-32.7l2-75.58c-2.05.91-4.24,1.47-6.52,1.67l-18.41,1.58c-.2.01-.39.03-.58.03Z" fill="#101727"/><path d="M912.09,455.33l-.12-3c2.89-.11,5.78-.59,8.59-1.42l.85,2.88c-3.05.9-6.19,1.42-9.33,1.54Z" fill="#101727"/><path d="M921.19,343.72l-.2,108.63-.06,37.9-.03,16.4v4.34s-8.97-.02-8.97-.02v-.48l.03-18.17v-2.35s.07-36.14.07-36.14l.24-131.19s.04.03.11.09c.03.02.06.05.1.08.26.2.74.57,1.35,1,.89.63,2.07,1.38,3.23,1.91-.66.5-1.38,1.51-2.04,2.71,0,.01-.01.01-.01.02-1.23,2.24-2.21,5.14-2.07,6.72.4,4.53,3.91,8.02,8.25,8.55Z" fill="#e8bd51"/><path d="M920.89,512.49h0l-8.96-.02c-.83,0-1.5-.67-1.5-1.5l.04-21.01.3-167.33c0-.57.33-1.08.83-1.33.51-.25,1.12-.2,1.57.14,0,0,.06.04.16.13.03.02.05.04.07.05.26.2.72.55,1.3.96,1.04.74,2.1,1.37,2.99,1.77.48.22.81.67.87,1.2.06.52-.16,1.04-.59,1.36-.16.12-.75.64-1.62,2.22,0,.01-.01.02-.02.04-1.3,2.37-1.98,4.84-1.89,5.87.33,3.72,3.25,6.74,6.94,7.19.75.09,1.32.73,1.32,1.49l-.2,108.63-.1,58.64c0,.83-.67,1.5-1.5,1.5ZM913.43,509.47h5.96s.03-19.23.03-19.23l.06-37.9.2-107.38c-2.39-.6-4.47-2-5.95-3.89l-.3,168.4ZM913.76,325.58v2.03c.3-.55.6-1.03.9-1.46-.32-.19-.62-.38-.9-.57Z" fill="#101727"/><polygon points="919.76 306.14 919.76 306.07 922.76 306.07 919.76 306.14" fill="#101727"/><path d="M921.64,91.94l-.03,14.48-.29,162.49v2.2c-2.68-1.37-5.86-1.77-8.96-.9l.29-163.79.03-14.49h8.96Z" fill="#e8bd51"/><path d="M922.82,273.56l-2.18-1.12c-2.44-1.25-5.24-1.53-7.87-.79l-1.91.54.33-181.76h11.96s-.03,16-.03,16l-.29,167.14ZM915.7,268.25c1.4,0,2.78.21,4.12.63l.32-175.44h-5.96s-.31,174.93-.31,174.93c.61-.08,1.22-.12,1.83-.12Z" fill="#101727"/><polygon points="851.69 507.31 845.15 509.19 808.08 519.85 746.34 537.6 742.77 529.14 770.54 454.43 834.24 476.75 851.69 507.31" fill="#e9e1ce"/><path d="M745.48,539.41l-4.32-10.23,28.49-76.65,65.62,22.99,18.67,32.7-108.46,31.19ZM744.38,529.1l2.82,6.69,102.24-29.39-16.23-28.42-61.78-21.65-27.05,72.77Z" fill="#101727"/><polygon points="827.81 465.48 773.5 446.45 790.63 400.36 827.81 465.48" fill="#e9e1ce"/><path d="M831.1,468.22l-59.54-20.86,18.78-50.53,40.76,71.39ZM775.44,445.54l49.08,17.2-33.6-58.85-15.48,41.65Z" fill="#101727"/><path d="M910.72,490.33l-47.65,13.7-98.98-177.36c17.38.93,31.41,4.23,43.24,11.56,9.71,6,17.94,14.69,25.35,26.98l15,24.05,36.16,57.98,26.88,43.09Z" fill="#e9e1ce"/><path d="M862.34,505.8l-100.89-180.77,2.71.15c18.62,1,32.58,4.74,43.95,11.78,9.95,6.15,18.4,15.14,25.84,27.48l79.08,126.79-50.7,14.58ZM766.74,328.34l97.06,173.92,44.6-12.82-76.99-123.43c-7.2-11.95-15.33-20.61-24.87-26.5-10.37-6.42-23.07-10-39.8-11.17Z" fill="#101727"/><polygon points="705.91 567.6 699.74 551.13 702.54 550.07 707.77 564 919.32 506.95 909.45 491.12 911.99 489.54 924.01 508.8 921.29 509.53 705.91 567.6" fill="#101727"/><path d="M763.92,328.16h-.3c-3.18-.18-6.52-.27-9.93-.28v-3c3.47,0,6.85.1,10.07.27h.21c.08,0,.23.02.38.04l-.53,2.95s.07.01.1.01Z" fill="#101727"/><path d="M479.87,476.39l-2.64-1.42,8.73-16.24,3.04,4.78c3.22,5.05,8.94,8.16,14.93,8.05l.05,3c-7.03.09-13.74-3.51-17.51-9.43l-.29-.46-6.31,11.74Z" fill="#101727"/><polygon points="465.49 437.79 467.77 448.81 464.18 457.55 445.44 462.5 441.17 443.03 435.82 418.6 403.05 403.44 481.77 384.44 460.19 412.19 465.49 437.79" fill="#01654d"/><path d="M444.31,464.35l-9.8-44.7-36-16.66,87.08-21.02-23.79,30.59,7.53,36.39-4.05,9.85-20.97,5.54ZM407.59,403.89l29.54,13.66,9.44,43.1,16.51-4.36,3.13-7.63-7.63-36.85,19.37-24.91-70.36,16.98Z" fill="#101727"/><path d="M461.83,478.81l-9.26,2.44c-7.14,1.88-14.39-.35-19.25-5.24-2.39-2.39-4.2-5.44-5.13-8.96-2.71-10.24,3.06-20.72,12.98-24.02l4.27,19.47,18.74-4.95-4.33,10.55c-1.56,3.79-.63,7.94,1.98,10.71Z" fill="#e9e1ce"/><path d="M447.52,483.4c-5.65,0-11.19-2.23-15.26-6.33-2.64-2.64-4.55-5.97-5.52-9.63-2.89-10.92,3.24-22.26,13.96-25.83l1.58-.53,4.29,19.57,20.14-5.32-5.47,13.34c-1.28,3.1-.61,6.67,1.68,9.11l1.73,1.84-11.7,3.08c-1.79.47-3.62.7-5.43.7ZM440.08,445.05c-8.24,3.6-12.78,12.77-10.44,21.61.83,3.15,2.47,6.01,4.74,8.28,4.64,4.67,11.46,6.52,17.81,4.85l7.1-1.87c-1.89-3.1-2.23-6.97-.82-10.4l3.18-7.76-17.34,4.58-4.23-19.3Z" fill="#101727"/><path d="M441.66,444.45l-.99-2.83c.43-.15.88-.28,1.32-.4l.78,2.9c-.38.1-.75.21-1.12.34Z" fill="#101727"/><path d="M486.09,485.36c0,4.42-2.96,8.46-7.43,9.64l-2.08.55-18.91,4.99c-7.14,1.89-14.4-.34-19.26-5.23-2.39-2.4-4.2-5.45-5.13-8.97-.93-3.51-.86-7.05.04-10.33,4.86,4.89,12.11,7.12,19.25,5.24l9.26-2.44c1.09,1.17,2.49,2.09,4.12,2.64,1.06.36,2.14.53,3.21.53,3.61,0,7.06-1.96,8.85-5.3l.54-1c3.41.86,6.25,3.49,7.21,7.13.23.85.33,1.71.33,2.55Z" fill="#e9e1ce"/><path d="M452.6,502.7c-5.65,0-11.18-2.23-15.25-6.33-2.64-2.65-4.55-5.99-5.52-9.64-.97-3.64-.95-7.49.04-11.11l.69-2.5,1.83,1.84c4.63,4.66,11.45,6.52,17.8,4.85l10.13-2.67.61.66c.94,1.01,2.15,1.79,3.5,2.24.88.3,1.8.45,2.73.45,3.15,0,6.04-1.73,7.53-4.51l1.1-2.03,1.13.29c4.05,1.02,7.23,4.16,8.29,8.2.25.93.38,1.92.38,2.93,0,5.2-3.51,9.76-8.55,11.09l-20.99,5.54c-1.8.48-3.63.71-5.45.71ZM434.27,478.85c-.31,2.36-.16,4.78.46,7.1.83,3.15,2.47,6.01,4.74,8.29,4.64,4.67,11.46,6.52,17.81,4.84l20.99-5.54c3.72-.98,6.31-4.35,6.31-8.19,0-.75-.09-1.48-.28-2.16-.69-2.62-2.57-4.72-5.04-5.71-2.03,3.7-5.89,5.99-10.12,5.99-1.26,0-2.5-.21-3.69-.61-1.52-.51-2.92-1.33-4.08-2.39l-8.43,2.22c-6.51,1.71-13.44.24-18.68-3.85Z" fill="#101727"/><path d="M489.11,505.2c0,4.42-2.96,8.46-7.43,9.64l-10.73,2.83h0s-8.19,2.17-8.19,2.17c-10.65,2.81-21.57-3.55-24.38-14.2-.93-3.52-.86-7.06.03-10.33,4.86,4.89,12.12,7.12,19.26,5.23l18.91-4.99c5.33-1.41,10.79,1.77,12.2,7.1.22.85.33,1.7.33,2.55Z" fill="#e9e1ce"/><path d="M457.67,522c-9.5,0-18.21-6.37-20.74-15.98-.96-3.65-.95-7.49.03-11.11l.68-2.5,1.83,1.84c4.64,4.67,11.46,6.52,17.81,4.84l18.91-4.99c2.96-.79,6.06-.37,8.71,1.18,2.65,1.54,4.54,4.03,5.33,6.99.25.98.38,1.96.38,2.93,0,5.2-3.51,9.76-8.55,11.09l-18.92,5c-1.83.48-3.66.71-5.47.71ZM439.37,498.16c-.31,2.36-.15,4.77.46,7.1,2.6,9.84,12.71,15.73,22.55,13.13l18.92-5c3.72-.98,6.31-4.35,6.31-8.19,0-.72-.09-1.45-.28-2.17-.58-2.18-1.97-4.02-3.93-5.16-1.96-1.14-4.24-1.45-6.43-.87l-18.91,4.99c-6.51,1.72-13.44.25-18.69-3.83Z" fill="#101727"/><polygon points="554.76 365.04 481.77 384.44 403.05 403.44 332.07 420.18 328.52 404.69 551.26 352.6 554.76 365.04" fill="#e8bd51"/><path d="M330.94,421.99l-4.22-18.42,1.45-.34,224.14-52.42,4.3,15.29-74.46,19.79-78.75,19.01-72.46,17.09ZM330.32,405.81l2.88,12.56,69.51-16.39,78.71-19,71.49-19-2.7-9.59-219.89,51.42Z" fill="#101727"/><path d="M928.13,282.21c0,1.54-.29,3.05-.83,4.46-1.08,2.82-3.17,5.23-6.02,6.64-.12.07-.25.13-.37.19l-8.6,3.83-8.12,3.62c1.33,3.31,4.47,5.64,8.11,5.88v2.02c-2.07,1.9-3.25,4.7-2.99,7.71.21,2.43,1.31,4.55,2.96,6.08l-.24,131.19c-4.16.17-8.43-.37-12.69-1.71l-15.5-4.88-36.16-57.98s3.21-14.17,17.36-22.39h.01l13.2,6.56,2.07-47.91.64-37.67c.05-3.36,2.15-6.36,5.3-7.55l25-9.73c.37-.14.73-.26,1.1-.36,3.1-.87,6.28-.47,8.96.9,3.04,1.55,5.46,4.33,6.4,7.93.28,1.05.41,2.12.41,3.17Z" fill="#e9e1ce"/><path d="M910.54,455.36c-3.92,0-7.83-.61-11.65-1.81l-16.03-5.05-36.78-58.97.14-.6c.14-.6,3.52-14.91,18.07-23.36l.35-.2h.76l.33.16,11.13,5.53,1.97-45.6.64-37.63c.06-4.01,2.52-7.51,6.27-8.93l24.99-9.72c.43-.16.84-.3,1.25-.41,3.35-.94,6.92-.58,10.03,1.01,3.55,1.81,6.17,5.05,7.17,8.89.3,1.14.46,2.33.46,3.55,0,1.71-.31,3.39-.93,5-1.25,3.25-3.63,5.89-6.71,7.43-.1.06-.21.11-.31.16l-.15.07-15.28,6.81c1.34,2.1,3.63,3.49,6.16,3.66l1.41.09-.02,4.08-.48.44c-1.8,1.66-2.71,4.02-2.5,6.48.17,1.97,1.05,3.78,2.49,5.11l.48.45-.24,133.28-1.44.06c-.52.02-1.03.03-1.55.03ZM884.82,445.97l14.97,4.71c3.53,1.11,7.13,1.67,10.74,1.67l.24-129.1c-1.7-1.78-2.74-4.09-2.95-6.58-.27-3.16.81-6.21,2.98-8.47v-.08c-3.57-.72-6.62-3.21-8-6.63l-.54-1.34,18.09-8.06c.06-.03.12-.06.17-.09l.09-.05c2.43-1.2,4.3-3.27,5.28-5.83.48-1.27.73-2.59.73-3.92,0-.95-.12-1.89-.36-2.78-.79-3.02-2.84-5.56-5.63-6.98-2.44-1.25-5.24-1.53-7.87-.79-.34.09-.65.2-.98.32l-24.99,9.72c-2.6.98-4.3,3.41-4.34,6.17l-.64,37.67-2.17,50.25-14.54-7.22c-11.27,6.89-15.05,17.83-15.81,20.44l35.52,56.96Z" fill="#101727"/><rect x="897.59" y="300.85" width="6.9" height="3" transform="translate(-45.02 393.24) rotate(-24.04)" fill="#101727"/><path d="M865.04,366.87c-14.15,8.22-17.36,22.39-17.36,22.39l-15-24.05c-7.41-12.29-15.64-20.98-25.35-26.98h.01s57.7,28.64,57.7,28.64Z" fill="#e9e1ce"/><path d="M848.33,393.13l-16.92-27.13c-7.2-11.95-15.33-20.61-24.87-26.5l-1.63-1.01,2.14-2.08.96.46,60.2,29.89-2.41,1.4c-13.38,7.77-16.62,21.29-16.65,21.43l-.81,3.54ZM819.67,346.02c5.18,5.05,9.91,11.15,14.3,18.42l13.27,21.28c1.69-4.46,5.82-12.64,14.74-18.69l-42.31-21.01Z" fill="#101727"/><polygon points="840.02 469.76 837.21 477.79 834.24 476.75 770.54 454.43 762.51 451.61 700.85 430.01 690.13 426.25 692.94 418.22 696.38 419.42 696.38 419.43 765.47 443.64 773.5 446.45 827.81 465.48 840.02 469.76" fill="#01654d"/><path d="M838.13,479.7l-149.91-52.53,3.8-10.86,5.86,2.06,144.05,50.47-3.8,10.86ZM692.04,425.33l144.25,50.55,1.82-5.2-144.25-50.55-1.82,5.2Z" fill="#101727"/><polygon points="794.77 389.23 790.63 400.36 773.5 446.45 770.54 454.43 742.77 529.14 740.47 535.32 732.5 532.35 737.94 517.72 762.51 451.61 765.47 443.64 785.13 390.73 786.79 386.27 794.77 389.23" fill="#01654d"/><path d="M741.35,537.25l-10.78-4.02,55.34-148.89,10.79,4-55.35,148.9ZM734.43,531.47l5.16,1.92,53.25-143.28-5.17-1.92-53.24,143.27Z" fill="#101727"/><polygon points="753 553.35 739.41 557.02 733.04 541.43 656.45 353.82 666.64 349.09 696.38 419.42 696.38 419.43 700.85 430.01 737.94 517.72 742.77 529.14 746.34 537.6 753 553.35" fill="#01654d"/><path d="M738.52,558.81l-6.87-16.82-77.13-188.94,12.9-5.99,87.63,207.27-16.53,4.46ZM658.38,354.58l81.92,200.65,10.65-2.88-85.09-201.25-7.48,3.47Z" fill="#101727"/><path d="M872.6,521.1l-11.3,3.04-9.61-16.83-17.45-30.56-6.43-11.27-37.18-65.12-5.5-9.63-8.63-15.12-3.65-7.88c.56.24,1.1.48,1.62.72.26.11.52.23.77.35,1.26.57,2.38,1.11,3.35,1.6.01,0,.03,0,.04,0,.22.11.43.22.63.32.92.47,1.87-.58,1.33-1.45l-.41-.64-.04-.07-26.44-42.19,9.99.27h.22s.17,0,.17,0h.01s98.98,177.37,98.98,177.37l9.53,17.07Z" fill="#01654d"/><path d="M861.3,525.64c-.53,0-1.03-.28-1.3-.76l-84.8-148.53s-.04-.07-.06-.11l-3.65-7.88c-.26-.56-.15-1.23.29-1.68.43-.45,1.1-.58,1.67-.33.57.25,1.12.49,1.66.74.24.1.52.23.79.36.86.39,1.71.79,2.52,1.19l-25.98-41.46c-.29-.47-.31-1.06-.03-1.54.27-.48.8-.78,1.34-.75l10.24.28h.1c.42,0,.81.17,1.1.48.08.09.16.2.22.3l108.51,194.43c.23.4.25.89.07,1.31-.18.43-.55.75-.99.87l-11.3,3.04c-.13.04-.26.05-.39.05ZM777.83,374.92l84.19,147.47,8.32-2.24-107.16-192.01-6.73-.18,24.95,39.82s.06.11.07.13l.37.57c.61.99.5,2.21-.28,3.06-.77.84-1.98,1.06-3,.54l-.54-.27s-.08-.04-.12-.06h0c-.64-.32-1.31-.65-2.01-.98l1.93,4.16Z" fill="#101727"/><path d="M778.63,370.41s-.03,0-.04,0c-.97-.49-2.09-1.03-3.35-1.6-.25-.12-.51-.24-.77-.35-.52-.24-1.06-.48-1.62-.72-10.47-4.5-27.5-9.99-41.73-5.94l22.58-35.41,26.44,42.19.04.07c.66,1.05-.45,2.28-1.55,1.77Z" fill="#e9e1ce"/><path d="M779.15,372.03c-.35,0-.71-.07-1.05-.21-.06-.02-.13-.05-.19-.08h0c-1.03-.52-2.14-1.05-3.29-1.57-.26-.12-.5-.23-.74-.34-.55-.25-1.08-.49-1.63-.72-11.15-4.79-27.27-9.71-40.73-5.88-.6.17-1.24-.05-1.61-.55-.37-.5-.4-1.18-.06-1.7l22.58-35.41c.28-.43.75-.69,1.26-.69h0c.51,0,.99.27,1.27.7l26.44,42.19s.06.11.07.13c.62.98.51,2.28-.29,3.2-.53.61-1.28.93-2.04.93ZM742.02,358.87c11.24,0,22.78,3.77,31.42,7.49.57.25,1.12.49,1.65.74.24.1.52.23.79.36.86.39,1.71.79,2.52,1.19l-24.72-39.45-19.34,30.33c2.51-.45,5.08-.65,7.67-.65Z" fill="#101727"/><rect x="798.2" y="520.94" width="18.27" height="107.38" transform="translate(1673.65 93.49) rotate(115.51)" fill="#01654d"/><path d="M852.56,607.99l-99.61-47.54,9.16-19.19,99.61,47.54-9.16,19.19ZM756.95,559.04l94.2,44.95,6.58-13.78-94.2-44.95-6.58,13.78Z" fill="#101727"/><polygon points="946.74 569.83 928.13 564.47 924.61 503.95 942.85 502.89 946.74 569.83" fill="#01654d"/><path d="M948.36,571.85l-21.67-6.24-3.67-63.08,21.23-1.24,4.1,70.55ZM929.56,563.32l15.55,4.48-3.68-63.33-15.24.89,3.37,57.96Z" fill="#101727"/><path d="M929.47,502.74c0,.31-.01.62-.03.93-.07,1.04-.27,2.06-.58,3.05-.7,2.26-1.99,4.31-3.75,5.91-1.47,1.37-3.28,2.41-5.34,3l-67.22,19.33-13.7,3.94-8.69,2.5h-.01l-14.66,4.21-29.79,8.57-26.47,7.61-34.45,9.91-3.45,1-2.35.67-3.06.88-4.16,1.2-5.02,1.44c-7.11,2.04-14.54-2.06-16.59-9.18-.35-1.23-.52-2.48-.52-3.7,0-5.83,3.82-11.2,9.7-12.89l1.81-.52,31.9-9.17,13.3-3.83,61.74-17.75,37.07-10.66,6.54-1.88,11.38-3.28,47.65-13.7,1.25-.36.39-.11c2.94-.85,5.93-.64,8.57.39,3.76,1.47,6.82,4.61,8.02,8.79.35,1.23.52,2.48.52,3.7Z" fill="#e8bd51"/><path d="M703.05,578.91c-6.48,0-12.46-4.26-14.34-10.79-.38-1.35-.58-2.73-.58-4.12,0-6.61,4.44-12.51,10.79-14.33l213.04-61.26c3.16-.91,6.45-.76,9.52.44,4.37,1.71,7.62,5.27,8.92,9.77.38,1.35.58,2.73.58,4.11,0,.34-.01.68-.03,1.03-.08,1.13-.29,2.28-.65,3.4-.78,2.53-2.23,4.8-4.17,6.57-1.67,1.56-3.67,2.69-5.94,3.33l-213.03,61.26c-1.37.39-2.75.58-4.11.58ZM916.08,490.83c-1.1,0-2.21.16-3.3.47l-1.64.47-211.39,60.79c-5.07,1.46-8.61,6.17-8.61,11.45,0,1.1.16,2.21.46,3.29,1.81,6.3,8.42,9.95,14.73,8.15l213.03-61.26c1.8-.52,3.4-1.41,4.73-2.66,1.56-1.42,2.71-3.24,3.34-5.26.28-.9.46-1.81.52-2.71.02-.27.03-.55.03-.83,0-1.1-.16-2.21-.46-3.29-1.03-3.59-3.63-6.44-7.12-7.8-1.39-.54-2.85-.82-4.31-.82Z" fill="#101727"/><polygon points="852.55 534.96 838.85 538.9 830.16 541.4 830.15 541.4 815.49 545.61 813.06 537.16 808.08 519.85 845.15 509.19 850.3 527.11 852.55 534.96" fill="#e8bd51"/><path d="M814.46,547.47l-8.24-28.64,39.95-11.49,8.23,28.65-39.94,11.48ZM809.94,520.88l6.58,22.88,34.18-9.82-6.57-22.89-34.19,9.83Z" fill="#101727"/><rect x="847.23" y="541.7" width="18.27" height="107.38" transform="translate(226.55 -235.99) rotate(18.05)" fill="#01654d"/><path d="M849.38,651.15l-20.22-6.59,34.19-104.95,20.22,6.59-34.19,104.95ZM832.94,642.64l14.52,4.73,32.33-99.24-14.52-4.73-32.33,99.24Z" fill="#101727"/><rect x="885.34" y="675.43" width="3" height="135.51" transform="translate(-74.68 1386.83) rotate(-73.76)" fill="#101727"/><rect x="875.25" y="709.44" width="3" height="128.82" transform="translate(-110 1401.44) rotate(-73.89)" fill="#101727"/><rect x="963.96" y="642.07" width="135.36" height="3" transform="translate(-135.72 303.37) rotate(-15.71)" fill="#101727"/><rect x="976.19" y="673.1" width="129.16" height="3" transform="translate(-147.61 319.57) rotate(-16.32)" fill="#101727"/><path d="M781.58,759.73c0,5.73-24.95,10.37-55.73,10.37s-55.73-4.64-55.73-10.37l-15.55-107.23h142.57l-15.55,107.23Z" fill="#587a51"/><path d="M725.84,771.6c-14.98,0-29.07-1.09-39.68-3.06-17.1-3.18-17.54-7.22-17.55-8.7l-15.54-107.13c-.06-.43.07-.87.35-1.2s.7-.52,1.13-.52h142.57c.44,0,.85.19,1.13.52s.41.77.35,1.2l-15.54,107.13c-.01,1.47-.45,5.51-17.55,8.7-10.61,1.97-24.71,3.06-39.68,3.06ZM656.29,654l15.3,105.52c.01.07.02.14.02.21,0,3.09,18.63,8.87,54.23,8.87s54.23-5.77,54.23-8.87c0-.07,0-.14.02-.21l15.3-105.52h-139.1Z" fill="#101727"/><path d="M728.02,747.76c-15.96-2.34-31.93-4.68-47.89-7.01-4.39-.64-7.42-4.72-6.78-9.1.12-.81.18-1.22.3-2.03.64-4.39,4.72-7.42,9.1-6.78,15.96,2.34,31.93,4.68,47.89,7.01,4.39.64,7.42,4.72,6.78,9.1-.12.81-.18,1.22-.3,2.03-.64,4.39-4.72,7.42-9.1,6.78Z" fill="#01654d"/><path d="M707.23,734.78c-.23-1.97-.35-2.95-.58-4.92.77-.09,1.16-.14,1.94-.23.23,1.97.35,2.95.58,4.92-.77.09-1.16.14-1.94.23Z" fill="#e8bd51"/><path d="M679.33,734.97c0,.74.41,1.23,1.27,1.36.75.11,1.34-.19,1.43-.81.07-.5-.15-.81-.71-1.05-.45-.19-.67-.29-1.11-.48-1.3-.54-1.95-1.31-1.77-2.56.21-1.43,1.56-2.14,3.11-1.91,1.68.25,2.47,1.35,2.43,2.74-.67-.1-1.01-.15-1.68-.25.04-.49-.22-1.01-.91-1.11-.61-.09-1.07.18-1.14.7-.07.49.18.72.72.95.53.24.8.36,1.34.6,1.2.53,1.71,1.34,1.54,2.47-.23,1.55-1.85,2.34-3.45,2.1-1.63-.24-2.82-1.18-2.76-2.98.67.1,1.01.15,1.68.25Z" fill="#e9e1ce"/><path d="M686.85,738.46c-.79-.12-1.18-.17-1.97-.29.69-4.7,1.03-7.04,1.72-11.74.79.12,1.18.17,1.97.29-.3,2.08-.46,3.11-.76,5.19.56-.86,1.55-1.26,2.75-1.09,1.88.28,2.73,1.81,2.44,3.75-.27,1.87-.41,2.81-.69,4.69-.79-.12-1.18-.17-1.97-.29.26-1.74.38-2.61.64-4.36.16-1.11-.22-2-1.39-2.17-1.07-.16-1.93.5-2.1,1.65-.26,1.75-.38,2.62-.64,4.37Z" fill="#e9e1ce"/><path d="M694.25,735.55c.31-2.13,2.2-3.87,4.9-3.48,2.7.39,4.01,2.6,3.69,4.73-.31,2.12-2.2,3.86-4.89,3.46-2.7-.4-4.01-2.6-3.7-4.72ZM696.18,735.83c-.19,1.27.49,2.57,2.01,2.79s2.54-.83,2.72-2.1c.19-1.27-.49-2.58-2.01-2.81-1.52-.22-2.54.84-2.73,2.11Z" fill="#e9e1ce"/><path d="M715.1,739.28c-.05,1.19.59,2.1,1.98,2.31.96.14,1.75-.18,2.22-.72.73.11,1.1.16,1.83.27-.74,1.32-2.4,2.18-4.26,1.9-2.66-.39-3.96-2.39-3.61-4.72.35-2.37,2.31-3.84,4.72-3.49,2.46.36,3.86,2.31,3.5,4.72-.04.26-.06.39-.09.64-2.51-.37-3.77-.55-6.28-.92ZM715.28,737.98c1.77.26,2.65.39,4.42.65.05-1.23-.62-2.19-1.89-2.37-1.22-.18-2.18.48-2.53,1.73Z" fill="#e9e1ce"/><path d="M722.26,743.64c.69-4.7,1.03-7.04,1.72-11.74.79.12,1.18.17,1.97.29-.69,4.7-1.03,7.04-1.72,11.74-.79-.12-1.18-.17-1.97-.29Z" fill="#e9e1ce"/><path d="M727.59,742.04c0,.74.41,1.23,1.27,1.36.75.11,1.34-.19,1.43-.81.07-.5-.15-.81-.71-1.05-.45-.19-.67-.29-1.11-.48-1.3-.54-1.95-1.31-1.77-2.56.21-1.43,1.56-2.14,3.11-1.91,1.68.25,2.48,1.35,2.43,2.74-.67-.1-1.01-.15-1.68-.25.04-.49-.22-1.01-.91-1.11-.61-.09-1.07.18-1.14.7-.07.49.18.72.72.95.53.24.8.36,1.34.6,1.2.53,1.71,1.34,1.54,2.47-.23,1.55-1.85,2.34-3.45,2.1-1.63-.24-2.82-1.18-2.77-2.98.67.1,1.01.15,1.68.25Z" fill="#e9e1ce"/><path d="M710.35,734.44c.15,2.9-.87,4.49-1.56,5.33-.87-.66-2.23-1.99-2.74-4.89-.08-.01-.17-.02-.25-.03-.63-.09-1.23-.24-1.79-.43.56,4.77,3.09,6.55,4.04,7.22.02.01.02.02.04.03.18.13.39.21.59.24.44.07.91-.09,1.23-.45.02-.02.02-.03.04-.04.77-.87,2.82-3.19,2.27-7.95-.57.4-1.19.73-1.87.98Z" fill="#e9e1ce"/><rect x="726.69" y="558.59" width="9.22" height="104.23" rx="4.61" ry="4.61" transform="translate(-141.24 228.05) rotate(-16.19)" fill="#e8bd51"/><path d="M744.54,662.44c-2.65,0-5.1-1.74-5.87-4.41l-26.48-91.24c-.94-3.24.93-6.63,4.17-7.57,3.24-.94,6.63.93,7.57,4.17l26.48,91.24c.94,3.24-.93,6.63-4.17,7.57-.57.17-1.14.24-1.7.24ZM718.06,561.97c-.29,0-.58.04-.87.12-.8.23-1.46.76-1.86,1.49-.4.73-.49,1.57-.26,2.37l26.48,91.24c.48,1.65,2.21,2.6,3.86,2.12.8-.23,1.46-.76,1.86-1.49.4-.73.49-1.57.26-2.37l-26.48-91.24c-.39-1.36-1.64-2.25-2.99-2.25Z" fill="#101727"/><ellipse cx="725.84" cy="652.5" rx="71.28" ry="13.26" fill="#01654d"/><path d="M725.84,667.26c-19.13,0-37.13-1.39-50.68-3.91-14.67-2.73-22.1-6.38-22.1-10.85s7.44-8.12,22.1-10.85c13.55-2.52,31.55-3.91,50.68-3.91s37.13,1.39,50.68,3.91c14.67,2.73,22.1,6.38,22.1,10.85s-7.44,8.12-22.1,10.85c-13.55,2.52-31.55,3.91-50.68,3.91ZM725.84,640.74c-43.24,0-69.78,6.85-69.78,11.76s26.55,11.76,69.78,11.76,69.78-6.85,69.78-11.76-26.55-11.76-69.78-11.76Z" fill="#101727"/><rect x="707.07" y="560.92" width="9.22" height="116.65" rx="4.61" ry="4.61" transform="translate(70.2 -72.46) rotate(6.13)" fill="#e8bd51"/><path d="M705.96,678.77c-.22,0-.44-.01-.66-.04h0c-1.62-.17-3.08-.97-4.11-2.24s-1.49-2.87-1.32-4.49l11.47-106.81c.17-1.62.97-3.08,2.24-4.11,1.27-1.03,2.86-1.5,4.49-1.32,1.62.17,3.08.97,4.11,2.24,1.02,1.27,1.49,2.86,1.32,4.49l-11.47,106.81c-.17,1.62-.97,3.08-2.24,4.11-1.1.88-2.43,1.35-3.82,1.35ZM717.42,562.73c-.71,0-1.39.24-1.95.69-.65.52-1.05,1.26-1.14,2.09l-11.47,106.81c-.09.83.15,1.64.67,2.29s1.26,1.05,2.09,1.14h0c.83.08,1.64-.15,2.29-.67.65-.52,1.05-1.26,1.14-2.09l11.47-106.81c.09-.83-.15-1.64-.67-2.29-.52-.65-1.26-1.05-2.09-1.14-.11-.01-.23-.02-.34-.02Z" fill="#101727"/><rect x="743.56" y="358.67" width="3" height="65.37" transform="translate(-95.75 355.12) rotate(-25.24)" fill="#101727"/><path d="M671.95,244.38l-1.68-3.63c5.14-2.37,10.72-2.45,15.3-.23l-1.75,3.6c-3.5-1.7-7.83-1.61-11.87.26Z" fill="#101727"/><polygon points="485.65 104.06 551.26 356.29 328.52 408.38 247.63 104.06 67.76 104.06 67.76 904 1230.06 904 1230.06 104.06 485.65 104.06" fill="#a99e53" opacity=".2"/><polygon points="647.57 903.82 514.47 903.51 903.62 104.06 1036.72 104.37 647.57 903.82" fill="#fff" mix-blend-mode="lighten" opacity=".2"/><polygon points="723.28 904 679.02 903.89 1068.17 104.44 1112.43 104.55 723.28 904" fill="#fff" mix-blend-mode="lighten" opacity=".2"/><polygon points="125.32 904 81.06 903.89 470.21 104.44 514.47 104.55 125.32 904" fill="#fff" mix-blend-mode="lighten" opacity=".2"/><path d="M61.94,91.42v817.16h1176.12V91.42H61.94ZM1223.06,893.58H76.94V106.42h1146.12v787.16Z" fill="#01654d" stroke="#101727" stroke-miterlimit="10" stroke-width="3"/></g></g></svg>