<?xml version="1.0" encoding="UTF-8" standalone="no"?>
<svg
   xmlns:dc="http://purl.org/dc/elements/1.1/"
   xmlns:cc="http://creativecommons.org/ns#"
   xmlns:rdf="http://www.w3.org/1999/02/22-rdf-syntax-ns#"
   xmlns:svg="http://www.w3.org/2000/svg"
   xmlns="http://www.w3.org/2000/svg"
   xmlns:sodipodi="http://sodipodi.sourceforge.net/DTD/sodipodi-0.dtd"
   xmlns:inkscape="http://www.inkscape.org/namespaces/inkscape"
   class="black db"
   width="1000"
   height="134.61539"
   viewBox="0 0 1300 166.2896"
   version="1.1"
   id="svg430"
   sodipodi:docname="A.svg"
   style="fill:currentColor"
   inkscape:version="0.92.4 (5da689c313, 2019-01-14)">
  <metadata
     id="metadata436">
    <rdf:RDF>
      <cc:Work
         rdf:about="">
        <dc:format>image/svg+xml</dc:format>
        <dc:type
           rdf:resource="http://purl.org/dc/dcmitype/StillImage" />
        <dc:title></dc:title>
      </cc:Work>
    </rdf:RDF>
  </metadata>
  <defs
     id="defs434" />
  <sodipodi:namedview
     pagecolor="#ffffff"
     bordercolor="#666666"
     borderopacity="1"
     objecttolerance="10"
     gridtolerance="10"
     guidetolerance="10"
     inkscape:pageopacity="0"
     inkscape:pageshadow="2"
     inkscape:window-width="1920"
     inkscape:window-height="1017"
     id="namedview432"
     showgrid="false"
     fit-margin-top="0"
     fit-margin-left="0"
     fit-margin-right="0"
     fit-margin-bottom="0"
     inkscape:zoom="0.68958333"
     inkscape:cx="770.60828"
     inkscape:cy="-140.76041"
     inkscape:window-x="1912"
     inkscape:window-y="-8"
     inkscape:window-maximized="1"
     inkscape:current-layer="svg430" />
  <path
     d="m 963.91667,145.05314 c -11.69167,0 -17.40834,-7.275 -17.39167,-14.80834 0,-9.85833 7.33333,-14.79166 16.58333,-16.08333 l 31.50834,-4.5 v 5.70833 c -0.008,22.58334 -15.48334,29.68334 -30.70834,29.68334 z M 970.25,42.069798 c 36.2,0 59.2333,17.975004 59.2333,53.291671 v 71.775001 h -33.29997 l 0.13334,-14.18333 c -6.66667,10.01666 -20.975,17.7 -38.68334,17.69166 -28.54166,-0.008 -45.925,-18.45 -45.91666,-38.43333 0,-22.84167 17.675,-35.558332 39.96666,-38.666668 0,0 36.60834,-4.333333 41.80834,-5.041667 0,-15.075 -14.05834,-18.491666 -28.06667,-18.491666 -14.35,0 -25.75833,5.008333 -34.58333,10.916666 l -13.05834,-22.725 C 931.475,48.519798 949.46667,42.069798 970.25,42.069798 Z M 196.83333,58.653135 c 9.08334,-12.074997 22.63334,-16.349997 36.58334,-16.349997 28.95833,0 49.61666,19.233331 49.61666,47.516664 V 167.3698 h -34.35 v -67 c 0,-17.583331 -9.20833,-27.266665 -24.875,-27.266665 -14.74166,0 -26.975,9.166667 -26.975,27.525005 v 66.75 H 162.475 V -4.3552015 h 34.35833 V 58.644802 Z M 651.5,89.811469 v 77.550001 h -34.21667 v -67 c 0,-17.583335 -9.34166,-27.266668 -24.875,-27.266668 -14.74166,0 -26.98333,9.166667 -26.98333,27.524998 v 66.75 h -34.34167 v -67 c 0,-17.599998 -9.20833,-27.274998 -24.875,-27.274998 -14.73333,0 -26.975,9.166667 -26.975,27.524998 v 66.75 h -34.35 V 45.569798 h 33.425 v 14.325004 c 9.08334,-12.941664 23.03334,-17.600004 37.51667,-17.600004 18.41667,0 33.55833,7.916671 42.10833,20.866671 9.875,-15.458331 26.58334,-20.866671 43.3,-20.866671 30,0 50.275,19.233337 50.275,47.516671 z M 805.33333,106.3948 c 0,36.58334 -26.59166,64.10834 -61.73333,64.10834 -17.63333,0 -29.875,-6.78334 -38.16667,-16.58334 v 13.44167 H 671.875 V -4.2302015 h 34.21667 V 58.269802 c 8.29166,-9.550004 20.26666,-15.966664 37.375,-15.966664 35.275,0 61.85833,27.533331 61.85833,64.108332 z m -100.23333,0 c 0,19.24167 13.3,33.56667 32.775,33.56667 20.26667,0 32.9,-14.95833 32.9,-33.55833 0,-18.608338 -12.63333,-33.558338 -32.9,-33.558338 -19.475,0 -32.775,14.333333 -32.775,33.558338 z m 455.9583,-41.091665 -24.75,19.733334 c -7.75,-7.916667 -16.05,-12.191667 -27.2333,-12.191667 -17.7667,0 -31.9833,13.325 -31.9833,33.558338 0,20.35833 14.0833,33.55833 31.85,33.55833 11.05,0 20.5333,-4.775 27.7666,-12.31667 l 24.4834,19.98334 c -11.975,14.70833 -29.8834,22.875 -51.1917,22.875 -40.675,0 -67.9167,-27.15 -67.9167,-64.1 0,-36.833338 27.2417,-64.108342 67.9167,-64.108342 21.3083,0 39.3333,8.300004 51.0583,23.000004 z m 131.9,-19.733337 -46.2,45.525004 L 1300,167.3698 h -41.7917 l -35.5333,-55.14166 -15.5333,15.33333 v 39.80833 h -34.35 V -4.2302015 h 34.35 V 90.853135 l 44.4833,-45.274997 h 41.3417 z M 388.6,154.2948 c -9.08333,12.06667 -22.63333,16.35 -36.58333,16.35 -28.95834,0 -49.61667,-19.225 -49.61667,-47.50833 V 45.578138 h 34.35 V 112.5698 c 0,17.59167 9.20833,27.275 24.875,27.275 14.74167,0 26.975,-9.175 26.975,-27.525 V 45.561468 h 34.35 V 167.36147 H 388.6 v -13.075 z M 809.86667,45.578138 h 18.69166 V 9.3781385 h 34.225 V 45.578138 H 900.85 V 74.744802 H 862.78333 V 126.2698 c 0,8.525 6.175,13.7 12.94167,13.7 7.125,0 16.39167,-4.28333 16.39167,-4.28333 l 11.06666,26.09167 c 0,0 -11.75833,8.6 -38.03333,8.6 -17.375,0 -36.59167,-12.55834 -36.59167,-36.95 V 74.728135 H 809.86667 V 45.561468 Z M 93.833333,42.244798 v 77.366672 c 0,13.33333 -3.666666,26.44167 -10.641666,38 l -7.716667,12.76667 -7.708333,-12.775 a 73.458333,73.458333 0 0 1 -10.65,-38 V 58.644802 c 9.116666,-12.108334 22.725,-16.400004 36.716666,-16.400004 z M 0,28.453138 V -4.3552015 H 150.95833 V 28.453138 Z"
     id="path428"
     inkscape:connector-curvature="0"
     style="fill-rule:evenodd;stroke-width:8.33333302" />
</svg>
