<svg width="678" height="472" viewBox="0 0 678 472" fill="none" xmlns="http://www.w3.org/2000/svg">
<path opacity="0.12" d="M485.48 177.71C480.73 178.21 475.94 179.45 471.52 180.15C468.72 180.58 465.49 180.89 463.46 178.94C461.56 177.12 461.56 174.16 461.21 171.56C460.28 164.45 455.72 157.92 449.36 154.62C442.99 151.32 435.01 151.35 428.67 154.7C422.33 158.05 417.81 164.61 416.93 171.72C416.74 173.34 416.7 174.99 416.19 176.53C415.14 179.6 412.18 180.49 409.22 180.45C399.78 180.37 391.37 175.37 381.99 178.54C378.5 179.71 375.27 181.72 372.92 184.57C372.23 185.42 367.58 195.64 368.91 195.64H509.37C510.66 195.64 506.17 185.57 505.48 184.72C503.12 181.81 499.85 179.75 496.33 178.54C492.9 177.38 489.22 177.3 485.52 177.69L485.49 177.72V177.7L485.48 177.71Z" fill="#00674B"/>
<path opacity="0.12" d="M611.769 412.04C606.849 412.04 602.119 412.64 597.559 413.78C584.309 378.59 550.319 353.59 510.509 353.59C494.989 353.59 480.349 357.38 467.469 364.15C465.019 356.04 462.109 348.12 458.659 340.49C427.969 272.32 359.419 224.82 279.869 224.82C195.119 224.82 123.079 278.59 95.6691 353.79C80.1691 354.75 65.6891 359.46 53.1491 367.14C26.2891 383.45 8.36914 412.94 8.36914 446.69C8.36914 454.91 9.44914 462.88 11.4891 470.49H90.2991H191.399H420.529H469.449H670.219C670.219 438.24 644.079 412.04 611.769 412.04Z" fill="#00674B"/>
<path opacity="0.12" d="M585.431 67.42C578.581 68.14 571.661 69.93 565.281 70.95C561.241 71.58 556.571 72.02 553.651 69.21C550.911 66.59 550.911 62.31 550.401 58.55C549.051 48.29 542.481 38.86 533.291 34.1C524.101 29.34 512.581 29.39 503.431 34.22C494.281 39.05 487.761 48.52 486.481 58.79C486.201 61.14 486.161 63.5 485.411 65.73C483.901 70.16 479.631 71.44 475.361 71.4C461.731 71.28 449.591 64.06 436.051 68.64C431.011 70.33 426.341 73.24 422.951 77.35C421.951 78.58 415.241 93.32 417.171 93.32H619.911C621.771 93.32 615.291 78.79 614.291 77.55C610.881 73.35 606.161 70.38 601.081 68.63C596.131 66.96 590.821 66.84 585.481 67.4L585.431 67.45V67.43V67.42Z" fill="#00674B"/>
<path d="M0 470.57H678" stroke="#021024" stroke-miterlimit="10"/>
<path d="M211.449 470.47C136.639 434.98 110.299 379.09 114.179 324.27C114.409 321.02 118.989 320.6 119.829 323.75C127.009 351.41 155.419 404.92 184.179 417.06C224.419 460.12 210.249 469.62 211.449 470.47Z" fill="#4D5150" stroke="#101727" stroke-linejoin="round"/>
<path d="M469.129 470.66C494.131 470.66 514.399 450.392 514.399 425.39C514.399 400.388 494.131 380.12 469.129 380.12C444.127 380.12 423.859 400.388 423.859 425.39C423.859 450.392 444.127 470.66 469.129 470.66Z" fill="#00674B" stroke="#021024" stroke-miterlimit="10"/>
<path d="M469.131 383.26L429.371 412.15L444.561 458.9H493.711L508.901 412.15L469.131 383.26Z" stroke="#EFBC33" stroke-miterlimit="10" stroke-dasharray="3 3"/>
<path d="M429.371 412.15L469.131 425.39L508.901 412.15" stroke="#EFBC33" stroke-miterlimit="10" stroke-dasharray="3 3"/>
<path d="M469.129 383.26V425.39L493.709 458.9" stroke="#EFBC33" stroke-miterlimit="10" stroke-dasharray="3 3"/>
<path d="M444.561 458.9L469.131 425.39" stroke="#EFBC33" stroke-miterlimit="10" stroke-dasharray="3 3"/>
<path d="M444.351 464.36C447.366 464.36 449.811 461.916 449.811 458.9C449.811 455.885 447.366 453.44 444.351 453.44C441.335 453.44 438.891 455.885 438.891 458.9C438.891 461.916 441.335 464.36 444.351 464.36Z" fill="#EAE1CC" stroke="#021024" stroke-miterlimit="10"/>
<path d="M493.71 464.36C496.725 464.36 499.17 461.916 499.17 458.9C499.17 455.885 496.725 453.44 493.71 453.44C490.695 453.44 488.25 455.885 488.25 458.9C488.25 461.916 490.695 464.36 493.71 464.36Z" fill="#00674B" stroke="#021024" stroke-miterlimit="10"/>
<path d="M469.13 430.54C472.145 430.54 474.59 428.096 474.59 425.08C474.59 422.065 472.145 419.62 469.13 419.62C466.114 419.62 463.67 422.065 463.67 425.08C463.67 428.096 466.114 430.54 469.13 430.54Z" fill="#EFBC33" stroke="#021024" stroke-miterlimit="10"/>
<path d="M508.899 417.62C511.915 417.62 514.359 415.176 514.359 412.16C514.359 409.145 511.915 406.7 508.899 406.7C505.884 406.7 503.439 409.145 503.439 412.16C503.439 415.176 505.884 417.62 508.899 417.62Z" fill="#80945F" stroke="#021024" stroke-miterlimit="10"/>
<path d="M429.37 417.62C432.386 417.62 434.83 415.176 434.83 412.16C434.83 409.145 432.386 406.7 429.37 406.7C426.355 406.7 423.91 409.145 423.91 412.16C423.91 415.176 426.355 417.62 429.37 417.62Z" fill="#B8AB5A" stroke="#021024" stroke-miterlimit="10"/>
<path d="M469.13 388.72C472.145 388.72 474.59 386.276 474.59 383.26C474.59 380.245 472.145 377.8 469.13 377.8C466.114 377.8 463.67 380.245 463.67 383.26C463.67 386.276 466.114 388.72 469.13 388.72Z" fill="#EAE1CC" stroke="#021024" stroke-miterlimit="10"/>
<path d="M382.019 273.31L390.859 165.82L390.269 165.87C356.959 190.2 304.309 175.97 283.409 162C281.819 168.4 279.689 174.6 276.899 180.47C257.509 221.23 178.609 303.09 178.609 378.48C178.609 380.58 178.659 382.65 178.759 384.7C181.059 434.76 210.509 469.34 211.469 470.46C211.479 470.48 211.489 470.48 211.489 470.48H370.659H408.179C404.979 438.83 357.019 436.32 357.019 436.32C377.999 412.39 390.869 384.68 393.419 362.5C395.099 347.86 390.289 333.29 377.719 325.59L382.039 273.3L382.019 273.31Z" fill="#4D5150" stroke="#101727" stroke-linejoin="round"/>
<path d="M280.51 76.0702C277.92 83.6802 274.23 91.7202 269.06 99.9402C237.84 95.9902 226.82 78.2502 219.92 56.8802C242.25 21.4402 264.62 13.8602 269.45 13.9902C272.56 13.8102 275.64 13.6102 278.25 15.0702C280.33 16.2102 282.1 18.3902 283.39 22.4002L283.53 22.9002C285.69 30.4202 289.08 50.9202 280.51 76.0702Z" fill="#4D5150" stroke="#101727" stroke-linejoin="round"/>
<path d="M459.35 56.8703C452.45 78.2403 441.43 95.9903 410.21 99.9303C405.23 91.9803 401.6 84.2003 399.02 76.8303C390.11 51.3303 393.56 30.4803 395.74 22.9003L395.88 22.4003C397.17 18.3903 398.95 16.2103 401.02 15.0703C403.63 13.6103 406.71 13.8003 409.82 13.9903C414.64 13.8603 437.02 21.4403 459.35 56.8803V56.8703Z" fill="#4D5150" stroke="#101727" stroke-linejoin="round"/>
<path d="M395.73 22.9L395.87 22.4C397.16 18.39 398.94 16.21 401.01 15.07C393.07 9.27 381.43 0.5 369.37 0.5C357.31 0.5 349.7 3.15 339.62 3.59C329.54 4.02 329.38 0.5 314.92 0.5C300.46 0.5 282.48 11.24 278.24 15.07C280.32 16.21 282.09 18.39 283.38 22.4L283.52 22.9C285.68 30.42 289.07 50.92 280.5 76.07C285.03 94.36 288.79 119.3 286.46 143.59C307.36 157.56 356.94 170.05 390.25 145.72H390.47C391.11 119.88 395.59 93.55 399.01 76.83C390.1 51.33 393.55 30.48 395.73 22.9ZM357.79 126.69C344.15 141.52 328.7 135.48 319.71 126.69V126.58C327.96 126.01 332.84 123.24 339.62 123.24C346.4 123.24 350.55 126 357.8 126.58V126.69H357.79Z" fill="#4D5150" stroke="#101727" stroke-linejoin="round"/>
<path d="M357.801 126.57V126.68C344.151 141.51 328.701 135.47 319.711 126.68V126.57C327.961 126 332.841 123.23 339.621 123.23C346.401 123.23 350.551 125.99 357.801 126.57Z" fill="#4D5150" stroke="#101727" stroke-linejoin="round"/>
<path d="M390.85 165.83L390.26 165.88C356.95 190.21 304.3 175.98 283.4 162.01C284.88 156 285.87 149.82 286.47 143.59C307.37 157.56 356.95 170.05 390.26 145.72H390.48C390.31 152.52 390.4 159.28 390.86 165.83H390.85Z" fill="#EFBC33" stroke="#021024" stroke-linejoin="round"/>
<path d="M230.879 326.88C326.209 311.76 238.779 436.34 238.779 436.34C238.779 436.34 292.459 427.15 287.179 470.5" fill="#4D5150"/>
<path d="M230.879 326.88C326.209 311.76 238.779 436.34 238.779 436.34C238.779 436.34 292.459 427.15 287.179 470.5" stroke="#101727" stroke-linejoin="round"/>
<path d="M311.719 64.9702C315.326 64.9702 318.249 62.0466 318.249 58.4402C318.249 54.8337 315.326 51.9102 311.719 51.9102C308.113 51.9102 305.189 54.8337 305.189 58.4402C305.189 62.0466 308.113 64.9702 311.719 64.9702Z" fill="#8C8C8C" stroke="#101727" stroke-linejoin="round"/>
<path d="M366.43 63.8002C370.037 63.8002 372.96 60.8767 372.96 57.2702C372.96 53.6638 370.037 50.7402 366.43 50.7402C362.824 50.7402 359.9 53.6638 359.9 57.2702C359.9 60.8767 362.824 63.8002 366.43 63.8002Z" fill="#8C8C8C" stroke="#101727" stroke-linejoin="round"/>
<path d="M379.991 103.24C375.051 108.67 369.581 126.69 360.531 126.69C359.571 126.69 358.661 126.66 357.801 126.58" fill="#4D5150"/>
<path d="M379.991 103.24C375.051 108.67 369.581 126.69 360.531 126.69C359.571 126.69 358.661 126.66 357.801 126.58" stroke="#101727" stroke-linejoin="round"/>
<path d="M319.7 126.57C318.73 126.65 317.72 126.68 316.64 126.68C306.44 126.68 306.58 100.82 296.07 95.8101" fill="#4D5150"/>
<path d="M319.7 126.57C318.73 126.65 317.72 126.68 316.64 126.68C306.44 126.68 306.58 100.82 296.07 95.8101" stroke="#101727" stroke-linejoin="round"/>
<path d="M357.19 190.18C357.19 199.78 349.39 207.55 339.79 207.54C338.92 207.54 338.07 207.47 337.22 207.35C335.99 207.17 334.8 206.86 333.66 206.43C327.09 203.96 322.42 197.6 322.43 190.16C322.43 180.56 330.24 172.79 339.83 172.8C340.43 172.8 341.04 172.83 341.63 172.89C350.39 173.8 357.2 181.19 357.19 190.19V190.18Z" fill="#EFBC33" stroke="#021024" stroke-linejoin="round"/>
<path d="M334.205 181.287L331.496 183.52L337.176 190.41L339.885 188.178L334.205 181.287Z" fill="white"/>
<path d="M341.581 186.85C344.651 191.09 344.661 194.5 344.431 196.44C342.471 196.28 339.101 195.61 335.501 191.71C335.361 191.78 335.231 191.85 335.091 191.9C334.041 192.38 332.991 192.74 331.971 193.01C337.481 199.68 343.041 199.91 345.131 200H345.221C345.621 200.02 346.011 199.94 346.351 199.78C347.091 199.45 347.641 198.75 347.761 197.9V197.8C348.091 195.72 348.931 190.2 343.451 183.53C342.981 184.68 342.361 185.8 341.571 186.85H341.581Z" fill="#01654D"/>
<path d="M314.55 37.6504C308.45 38.1704 303.7 41.1104 301.08 45.1704L314.55 37.6504Z" fill="#4D5150"/>
<path d="M314.55 37.6504C308.45 38.1704 303.7 41.1104 301.08 45.1704" stroke="#101727" stroke-linejoin="round"/>
<path d="M365.699 35.9004C371.609 37.4804 375.779 41.1904 377.659 45.6504L365.699 35.9004Z" fill="#4D5150"/>
<path d="M365.699 35.9004C371.609 37.4804 375.779 41.1904 377.659 45.6504" stroke="#101727" stroke-linejoin="round"/>
<path d="M290.711 270.85L301.971 448.65C301.971 448.65 298.751 468.35 308.001 470.36H351.471C352.601 470.36 353.531 469.49 353.611 468.37C354.051 462 354.201 442.37 339.761 439.01L336.951 272.47" fill="#4D5150"/>
<path d="M290.711 270.85L301.971 448.65C301.971 448.65 298.751 468.35 308.001 470.36H351.471C352.601 470.36 353.531 469.49 353.611 468.37C354.051 462 354.201 442.37 339.761 439.01L336.951 272.47" stroke="#101727" stroke-linejoin="round"/>
<path d="M326.311 440.2C326.311 440.2 341.141 442.97 339.171 470.35L326.311 440.2Z" fill="#4D5150"/>
<path d="M326.311 440.2C326.311 440.2 341.141 442.97 339.171 470.35" stroke="#101727" stroke-linejoin="round"/>
<path d="M390.85 165.83C390.85 165.83 420.2 271.53 421.34 283.45C421.82 288.48 424.4 293.07 428.45 296.11L463.52 322.41C467.75 325.58 470.95 329.92 472.73 334.9L482.72 362.8C482.72 362.8 492.44 375.89 493.94 383C495.44 390.11 489.83 400.2 480.85 400.58C471.87 400.95 448.69 405.44 444.57 386.37C440.46 367.3 432.54 352.93 432.54 352.93L406.85 335.86C399.48 332.21 393.9 325.76 391.31 317.96C389.14 311.42 386.8 303.88 386.06 299.62C386.06 299.62 380.99 338.5 367.53 362.44C354.07 386.38 340.1 414.18 339.35 418.67" fill="#4D5150"/>
<path d="M390.85 165.83C390.85 165.83 420.2 271.53 421.34 283.45C421.82 288.48 424.4 293.07 428.45 296.11L463.52 322.41C467.75 325.58 470.95 329.92 472.73 334.9L482.72 362.8C482.72 362.8 492.44 375.89 493.94 383C495.44 390.11 489.83 400.2 480.85 400.58C471.87 400.95 448.69 405.44 444.57 386.37C440.46 367.3 432.54 352.93 432.54 352.93L406.85 335.86C399.48 332.21 393.9 325.76 391.31 317.96C389.14 311.42 386.8 303.88 386.06 299.62C386.06 299.62 380.99 338.5 367.53 362.44C354.07 386.38 340.1 414.18 339.35 418.67" stroke="#101727" stroke-linejoin="round"/>
<path d="M478.98 378.32C478.98 378.32 484.22 390.29 480.85 400.57L478.98 378.32Z" fill="#4D5150"/>
<path d="M478.98 378.32C478.98 378.32 484.22 390.29 480.85 400.57" stroke="#101727" stroke-linejoin="round"/>
<path d="M463.65 379.44C463.65 379.44 467.58 393.28 465.33 400.57L463.65 379.44Z" fill="#4D5150"/>
<path d="M463.65 379.44C463.65 379.44 467.58 393.28 465.33 400.57" stroke="#101727" stroke-linejoin="round"/>
<path d="M354.449 105.46C354.449 109.64 351.069 113.03 346.889 113.03C342.709 113.03 342.499 108.3 339.319 108.3C336.139 108.3 335.939 113.03 331.759 113.03C327.579 113.03 324.199 109.63 324.199 105.46C324.199 101.29 327.579 97.9004 331.759 97.9004H346.889C351.069 97.9004 354.449 101.28 354.449 105.46Z" fill="#101727"/>
<path d="M100.139 392.07C89.0288 375.9 84.0988 358.45 83.5288 339.89C83.4388 337.04 87.4488 335.91 88.3388 338.62C92.4688 351.2 96.4888 360.93 105.969 370.08" stroke="#101727" stroke-linejoin="round"/>
<path d="M142.96 343.61C138.17 331.62 138.59 322.21 139.54 311.83C139.8 308.99 143.83 308.71 144.5 311.48C146.4 319.48 146.47 325.62 150.96 333.79" stroke="#101727" stroke-linejoin="round"/>
<path d="M156.939 316.36C155.699 318.72 156.049 323.32 159.349 326.69" stroke="#101727" stroke-linejoin="round"/>
<path d="M77.5703 372.811C78.5003 376.641 79.6603 379.631 83.0603 384.751" stroke="#101727" stroke-linejoin="round"/>
</svg>
