<svg width="678" height="473" viewBox="0 0 678 473" fill="none" xmlns="http://www.w3.org/2000/svg">
<mask id="mask0_2727_20044" style="mask-type:luminance" maskUnits="userSpaceOnUse" x="265" y="0" width="411" height="414">
<path d="M675.773 0H265.391V413.637H675.773V0Z" fill="white"/>
</mask>
<g mask="url(#mask0_2727_20044)">
<mask id="mask1_2727_20044" style="mask-type:luminance" maskUnits="userSpaceOnUse" x="265" y="0" width="411" height="414">
<path d="M675.773 0H265.391V413.637H675.773V0Z" fill="white"/>
</mask>
<g mask="url(#mask1_2727_20044)">
<mask id="mask2_2727_20044" style="mask-type:luminance" maskUnits="userSpaceOnUse" x="265" y="0" width="411" height="414">
<path d="M675.773 0H265.391V413.637H675.773V0Z" fill="white"/>
</mask>
<g mask="url(#mask2_2727_20044)">
<g opacity="0.12">
<mask id="mask3_2727_20044" style="mask-type:luminance" maskUnits="userSpaceOnUse" x="265" y="0" width="411" height="414">
<path d="M675.773 0H265.391V413.637H675.773V0Z" fill="white"/>
</mask>
<g mask="url(#mask3_2727_20044)">
<path d="M668.432 241.369L647.917 235.022C643.668 233.693 640.865 229.598 641.29 225.14C642.393 213.541 642.294 201.995 641.082 190.667C640.585 186.128 643.433 181.915 647.8 180.604L669.001 174.32C674.019 172.838 676.876 167.558 675.384 162.531L666.153 131.421C664.652 126.403 659.381 123.546 654.364 125.029L632.267 131.592C627.937 132.876 623.335 130.905 621.183 126.927C619.311 123.483 617.313 120.092 615.216 116.765C612.775 112.932 613.353 107.932 616.662 104.822L633.298 89.1899C637.104 85.6006 637.294 79.6064 633.714 75.7911L611.491 52.1216C607.902 48.3153 601.907 48.1254 598.092 51.7147L581.231 67.5547C577.976 70.6105 572.985 70.9993 569.333 68.4226C563.691 64.4174 557.769 60.7467 551.585 57.4106C547.616 55.2679 545.753 50.6117 547.091 46.3082L554.116 23.588C555.671 18.5883 552.869 13.2722 547.878 11.7261L516.867 2.1155C511.858 0.578516 506.551 3.36316 505.005 8.36287L497.98 31.083C496.642 35.3956 492.447 38.1893 487.981 37.7011C479.238 36.7699 470.523 36.5167 461.889 36.9145C457.404 37.1134 453.399 34.0937 452.314 29.745L446.672 7.16041C445.416 2.07933 440.262 -1.01271 435.181 0.262079L403.691 8.11876C398.61 9.39355 395.518 14.5289 396.793 19.6099L402.362 41.9504C403.456 46.3263 401.323 50.892 397.227 52.7816C390.708 55.8284 384.371 59.255 378.277 63.0793C374.507 65.4571 369.552 64.7791 366.478 61.5514L350.476 44.7983C346.868 41.0192 340.865 40.8835 337.086 44.4909L313.606 66.9218C309.827 70.5473 309.691 76.5324 313.299 80.3297L328.877 96.6307C332.023 99.9036 332.403 104.958 329.763 108.646C325.947 113.971 322.412 119.559 319.185 125.372C317.024 129.278 312.386 131.077 308.136 129.766L287.622 123.41C282.623 121.855 277.306 124.658 275.76 129.658L266.15 160.669C264.613 165.677 267.406 170.984 272.397 172.521L292.107 178.624C296.446 179.971 299.24 184.22 298.707 188.741C297.332 200.25 297.133 211.732 298.047 223.016C298.426 227.455 295.578 231.532 291.311 232.798L272.18 238.494C267.162 239.977 264.305 245.257 265.788 250.265L275.028 281.394C276.511 286.412 281.782 289.268 286.809 287.768L305.117 282.343C309.483 281.05 314.176 283.012 316.237 287.062C318.398 291.348 320.767 295.543 323.289 299.639C325.64 303.436 324.926 308.381 321.671 311.437L307.54 324.709C303.724 328.299 303.544 334.293 307.124 338.108L329.347 361.76C332.936 365.575 338.93 365.756 342.746 362.185L356.524 349.238C359.815 346.146 364.851 345.766 368.503 348.415C374.633 352.863 381.098 356.941 387.897 360.593C391.866 362.736 393.827 367.338 392.489 371.651L387.047 389.199C385.492 394.199 388.294 399.515 393.294 401.052L424.305 410.663C429.305 412.218 434.621 409.415 436.158 404.406L441.564 386.957C442.902 382.645 447.079 379.851 451.555 380.33C460.795 381.315 469.98 381.551 479.076 381.053C483.578 380.809 487.619 383.838 488.722 388.223L493.261 406.432C494.536 411.513 499.671 414.605 504.752 413.33L536.251 405.473C541.332 404.216 544.406 399.063 543.15 393.982L538.53 375.511C537.436 371.135 539.533 366.551 543.62 364.608C550.536 361.326 557.263 357.574 563.691 353.397C567.479 350.938 572.497 351.57 575.616 354.843L588.735 368.559C592.342 372.347 598.345 372.482 602.124 368.866L625.595 346.453C629.374 342.828 629.51 336.824 625.902 333.045L612.422 318.941C609.33 315.714 608.887 310.75 611.428 307.079C615.406 301.329 619.058 295.281 622.358 288.979C624.465 284.956 629.184 283.03 633.524 284.395L653.224 290.48C658.224 292.035 663.54 289.232 665.086 284.242L674.679 253.231C676.234 248.231 673.431 242.915 668.432 241.369ZM580.833 240.564C561.964 301.447 497.32 335.532 436.438 316.672C375.537 297.803 341.471 233.16 360.33 172.277C379.181 111.377 443.843 77.31 504.725 96.1696C565.617 115.02 599.692 179.682 580.833 240.564Z" fill="#01654D"/>
</g>
</g>
</g>
</g>
</g>
<path d="M0 470H678" stroke="#021024" stroke-linejoin="round"/>
<path d="M246.238 297.507C241.178 296.837 236.328 295.877 231.678 294.627C214.298 289.977 199.788 281.307 188.088 268.687C204.868 234.917 228.238 228.427 237.038 225.977C240.468 225.437 243.858 224.867 246.748 227.197C248.038 228.227 249.228 229.827 250.288 232.247L250.458 232.687C253.858 241.187 262.888 263.767 246.228 297.507H246.238Z" fill="#4D5150" stroke="#101727" stroke-miterlimit="10"/>
<path d="M358.947 238.327C357.907 240.857 356.797 243.297 355.627 245.667C347.467 244.267 339.477 242.577 333.157 240.037C317.617 233.797 316.267 223.057 307.357 216.927C319.337 216.877 337.987 220.037 358.937 238.317L358.947 238.327Z" fill="#434746" stroke="#101727" stroke-linejoin="round"/>
<path d="M530.138 469.497H95.3074C90.8974 434.167 134.387 437.567 196.517 427.707C196.517 410.157 201.167 373.117 211.817 350.047C213.487 346.437 214.997 343.197 216.377 340.247C239.287 352.967 281.517 354.837 307.777 339.337C312.397 342.277 318.547 344.087 325.227 344.087C342.977 344.087 394.077 320.027 449.297 320.027C497.277 320.027 532.417 371.027 535.577 424.557C536.467 439.707 534.808 455.057 530.138 469.507V469.497Z" fill="#4D5150" stroke="#101727" stroke-miterlimit="10"/>
<path d="M394.377 274.427C389.957 286.767 380.507 301.097 370.247 306.587C352.777 315.937 316.977 303.937 305.097 315.087C300.357 319.537 298.817 324.227 299.587 328.487C269.277 336.827 250.637 337.417 222.047 327.917C225.847 319.257 228.247 312.387 230.537 301.887C231.017 299.667 231.387 297.237 231.687 294.627C236.337 295.877 241.177 296.847 246.247 297.507C262.907 263.767 253.877 241.187 250.477 232.687L250.307 232.247C249.247 229.827 248.057 228.227 246.767 227.197C246.847 227.097 246.927 226.987 247.017 226.887C259.097 212.267 274.617 207.687 298.997 213.357C302.487 214.167 305.167 215.407 307.387 216.937C316.297 223.067 317.637 233.807 333.187 240.047C339.507 242.587 347.497 244.277 355.657 245.677C362.777 246.897 370.027 247.887 376.417 249.007C371.427 259.177 369.387 269.657 382.437 273.157C387.047 274.387 391.027 274.687 394.417 274.437L394.377 274.427Z" fill="#434746" stroke="#101727" stroke-linejoin="round"/>
<path d="M307.777 339.327C281.517 354.827 239.287 352.957 216.377 340.237C218.577 335.537 220.427 331.557 222.047 327.897C250.637 337.407 269.277 336.807 299.587 328.467C300.337 332.697 303.357 336.517 307.777 339.317V339.327Z" fill="#EFBC33" stroke="#021024" stroke-linejoin="round"/>
<path d="M394.378 274.427C390.988 274.677 387.008 274.377 382.398 273.147C369.348 269.647 371.398 259.167 376.378 248.997C385.088 250.547 392.188 252.347 395.078 255.327C398.098 258.447 397.408 265.967 394.368 274.427H394.378Z" fill="#0F1728" stroke="#021024" stroke-linejoin="round"/>
<path d="M328.477 469.497L304.217 402.677" stroke="#021024" stroke-linejoin="round"/>
<path d="M258.058 398.827L266.938 438.757C266.938 438.757 216.338 437.567 197.698 438.757C179.058 439.937 159.528 448.537 162.178 469.497" stroke="#021024" stroke-linejoin="round"/>
<path d="M489.437 365.987C463.857 345.497 399.987 338.677 398.617 383.147C397.247 427.067 429.687 437.457 429.687 437.457C429.687 437.457 361.337 434.827 366.067 469.507" stroke="#021024" stroke-linejoin="round"/>
<path d="M530.137 469.497C534.807 455.047 536.467 439.697 535.577 424.557C569.287 383.287 574.657 358.577 574.747 322.407C574.767 319.467 578.867 318.817 579.787 321.597C595.437 368.527 587.427 421.797 530.137 469.497Z" fill="#4D5150" stroke="#101727" stroke-miterlimit="10"/>
<path d="M606.958 398.517C614.298 379.767 615.168 361.177 611.428 342.477C610.858 339.607 606.588 339.407 606.328 342.327C605.128 355.867 603.368 366.527 596.018 377.887" stroke="#021024" stroke-linejoin="round"/>
<path d="M563.137 360.027C565.137 346.927 562.527 337.617 559.167 327.457C558.247 324.677 554.147 325.337 554.127 328.257C554.087 336.697 555.447 342.857 552.867 352.057" stroke="#021024" stroke-linejoin="round"/>
<path d="M299.598 328.477H299.588" stroke="#021024" stroke-linejoin="round"/>
<path d="M222.047 327.907H222.037" stroke="#021024" stroke-linejoin="round"/>
<path d="M308.627 338.817C308.347 338.987 308.067 339.157 307.777 339.327" stroke="#021024" stroke-linejoin="round"/>
<path d="M542.818 336.037C544.608 338.107 545.328 342.787 542.818 346.927" stroke="#021024" stroke-linejoin="round"/>
<path d="M625.038 374.007C624.998 378.047 624.538 381.317 622.328 387.217" stroke="#021024" stroke-linejoin="round"/>
<path d="M196.518 427.707L196.878 434.167" stroke="#021024" stroke-linejoin="round"/>
<path d="M258.716 360.197C257.366 368.737 249.346 374.547 240.816 373.197C240.046 373.077 239.296 372.887 238.556 372.667C237.486 372.327 236.476 371.887 235.526 371.347C230.036 368.227 226.766 361.927 227.816 355.307C229.166 346.767 237.196 340.957 245.716 342.307C246.246 342.387 246.786 342.517 247.306 342.647C254.966 344.687 259.986 352.217 258.706 360.217L258.716 360.197Z" fill="#EFBC33" stroke="#021024" stroke-miterlimit="10"/>
<path d="M239.546 349.066L236.824 350.671L240.908 357.597L243.63 355.991L239.546 349.066Z" fill="#EAE1CC"/>
<path d="M245.308 355.047C247.448 359.247 246.968 362.287 246.498 363.977C244.778 363.567 241.878 362.487 239.218 358.517C239.088 358.557 238.958 358.597 238.828 358.637C237.818 358.917 236.848 359.087 235.898 359.177C239.858 365.877 244.768 366.867 246.628 367.237H246.708C247.068 367.327 247.418 367.307 247.748 367.217C248.448 367.017 249.028 366.487 249.268 365.747L249.298 365.657C249.868 363.847 251.388 359.067 247.448 352.377C246.878 353.337 246.158 354.247 245.308 355.057H245.298L245.308 355.047Z" fill="#00674B"/>
<path d="M315.408 310.717C304.378 309.237 299.588 307.267 299.588 307.267L315.408 310.717Z" fill="#3E4544"/>
<path d="M315.408 310.717C304.378 309.237 299.588 307.267 299.588 307.267" stroke="#021024" stroke-linejoin="round"/>
<path d="M290.547 239.967C285.067 240.527 280.847 243.247 278.547 246.947" stroke="#021024" stroke-miterlimit="10"/>
<path d="M328.648 237.907C323.458 234.867 317.208 233.907 313.098 235.297" stroke="#021024" stroke-miterlimit="10"/>
<path d="M326.98 251.96C330.283 251.96 332.96 249.283 332.96 245.98C332.96 242.677 330.283 240 326.98 240C323.677 240 321 242.677 321 245.98C321 249.283 323.677 251.96 326.98 251.96Z" fill="#8C8C8C" stroke="#101727" stroke-miterlimit="10"/>
<path d="M296.98 263.96C300.283 263.96 302.96 261.283 302.96 257.98C302.96 254.677 300.283 252 296.98 252C293.677 252 291 254.677 291 257.98C291 261.283 293.677 263.96 296.98 263.96Z" fill="#8C8C8C" stroke="#101727" stroke-miterlimit="10"/>
</svg>
