<svg width="681" height="472" viewBox="0 0 681 472" fill="none" xmlns="http://www.w3.org/2000/svg">
<mask id="mask0_2727_16872" style="mask-type:luminance" maskUnits="userSpaceOnUse" x="399" y="68" width="201" height="66">
<path d="M599.522 68.5H399V133.965H599.522V68.5Z" fill="white"/>
</mask>
<g mask="url(#mask0_2727_16872)">
<mask id="mask1_2727_16872" style="mask-type:luminance" maskUnits="userSpaceOnUse" x="399" y="68" width="201" height="66">
<path d="M599.522 68.5H399V133.965H599.522V68.5Z" fill="white"/>
</mask>
<g mask="url(#mask1_2727_16872)">
<mask id="mask2_2727_16872" style="mask-type:luminance" maskUnits="userSpaceOnUse" x="399" y="68" width="201" height="66">
<path d="M599.522 68.5H399V133.965H599.522V68.5Z" fill="white"/>
</mask>
<g mask="url(#mask2_2727_16872)">
<g opacity="0.12">
<mask id="mask3_2727_16872" style="mask-type:luminance" maskUnits="userSpaceOnUse" x="399" y="68" width="201" height="66">
<path d="M599.522 68.5H399V133.965H599.522V68.5Z" fill="white"/>
</mask>
<g mask="url(#mask3_2727_16872)">
<path d="M565.201 106.961C558.449 107.705 551.627 109.563 545.337 110.646C541.364 111.304 536.749 111.761 533.859 108.819C531.171 106.09 531.171 101.631 530.659 97.7016C529.325 86.9873 522.854 77.1543 513.794 72.1953C504.735 67.2363 493.388 67.2788 484.368 72.3121C475.349 77.356 468.918 87.2421 467.664 97.9458C467.393 100.388 467.353 102.862 466.611 105.177C465.126 109.807 460.912 111.134 456.698 111.092C443.275 110.964 431.296 103.436 417.942 108.193C412.986 109.966 408.381 112.993 405.03 117.283C404.047 118.568 397.416 133.944 399.332 133.944H599.182C601.018 133.944 594.617 118.769 593.644 117.484C590.283 113.099 585.648 109.998 580.611 108.182C575.735 106.441 570.498 106.324 565.231 106.897L565.191 106.94L565.201 106.961Z" fill="#01654D"/>
</g>
</g>
</g>
</g>
</g>
<mask id="mask4_2727_16872" style="mask-type:luminance" maskUnits="userSpaceOnUse" x="174" y="290" width="144" height="48">
<path d="M317.781 290.345H174.324V337.174H317.781V290.345Z" fill="white"/>
</mask>
<g mask="url(#mask4_2727_16872)">
<mask id="mask5_2727_16872" style="mask-type:luminance" maskUnits="userSpaceOnUse" x="171" y="290" width="144" height="48">
<path d="M314.456 290.501H171V337.33H314.456V290.501Z" fill="white"/>
</mask>
<g mask="url(#mask5_2727_16872)">
<mask id="mask6_2727_16872" style="mask-type:luminance" maskUnits="userSpaceOnUse" x="171" y="290" width="144" height="48">
<path d="M314.456 290.501H171V337.33H314.456V290.501Z" fill="white"/>
</mask>
<g mask="url(#mask6_2727_16872)">
<g opacity="0.12">
<mask id="mask7_2727_16872" style="mask-type:luminance" maskUnits="userSpaceOnUse" x="171" y="290" width="144" height="48">
<path d="M314.456 290.501H171V337.33H314.456V290.501Z" fill="white"/>
</mask>
<g mask="url(#mask7_2727_16872)">
<path d="M289.896 318.014C285.07 318.545 280.184 319.872 275.68 320.648C272.831 321.115 269.54 321.444 267.473 319.342C265.547 317.388 265.547 314.202 265.186 311.388C264.233 303.721 259.598 296.692 253.127 293.134C246.655 289.577 238.529 289.609 232.078 293.219C225.627 296.83 221.022 303.902 220.129 311.558C219.939 313.299 219.909 315.083 219.377 316.729C218.313 320.042 215.304 320.987 212.284 320.956C202.683 320.86 194.115 315.487 184.564 318.885C181.022 320.159 177.721 322.315 175.324 325.394C174.621 326.307 169.876 337.319 171.25 337.319H314.225C315.539 337.319 310.965 326.467 310.262 325.543C307.864 322.41 304.544 320.191 300.942 318.885C297.451 317.643 293.708 317.558 289.936 317.972L289.906 318.004L289.896 318.014Z" fill="#01654D"/>
</g>
</g>
</g>
</g>
</g>
<path d="M364 224.487H117.689" stroke="#101727" stroke-miterlimit="10"/>
<path d="M317.207 224.816H588.68" stroke="#101727" stroke-miterlimit="10"/>
<path d="M403.128 166.625H280.469C273.82 166.625 268.43 172.331 268.43 179.368V269.617C268.43 276.655 273.82 282.36 280.469 282.36H403.128C409.777 282.36 415.167 276.655 415.167 269.617V179.368C415.167 172.331 409.777 166.625 403.128 166.625Z" fill="#E9BE51" stroke="#101727" stroke-miterlimit="10"/>
<path d="M336.269 264.924H333.37L332.387 262.227H325.635L324.651 264.924H321.752L327.992 249.452H330.039L336.279 264.924H336.269ZM329.006 252.829L326.467 259.859H331.554L329.016 252.829H329.006Z" fill="#101727"/>
<path d="M344.346 260.57V264.923H341.637V249.452H347.807C350.917 249.452 353.104 251.947 353.104 254.995C353.104 258.042 350.917 260.559 347.807 260.559H344.335H344.346V260.57ZM347.446 258.095C349.241 258.095 350.385 256.704 350.385 255.005C350.385 253.306 349.241 251.936 347.446 251.936H344.335V258.106H347.446V258.095Z" fill="#101727"/>
<path d="M359.143 249.452H361.851V264.923H359.143V249.452Z" fill="#101727"/>
<path d="M366.958 194.733C360.839 194.733 357.096 198.694 357.096 205.171C357.096 198.694 353.354 194.733 347.234 194.733C353.354 194.733 357.096 190.772 357.096 184.295C357.096 190.772 360.839 194.733 366.958 194.733Z" fill="#EAE2CF" stroke="#101727" stroke-miterlimit="10"/>
<path d="M348.489 215.058C338.958 215.058 333.129 221.227 333.129 231.315C333.129 221.227 327.301 215.058 317.77 215.058C327.301 215.058 333.129 208.888 333.129 198.8C333.129 208.888 338.958 215.058 348.489 215.058Z" fill="#EAE2CF" stroke="#101727" stroke-miterlimit="10"/>
<path d="M348.489 215.058C338.958 215.058 333.129 221.227 333.129 231.315C333.129 221.227 327.301 215.058 317.77 215.058C327.301 215.058 333.129 208.888 333.129 198.8C333.129 208.888 338.958 215.058 348.489 215.058Z" fill="#EAE2CF" stroke="#101727" stroke-miterlimit="10"/>
<path d="M348.489 215.058C338.958 215.058 333.129 221.227 333.129 231.315C333.129 221.227 327.301 215.058 317.77 215.058C327.301 215.058 333.129 208.888 333.129 198.8C333.129 208.888 338.958 215.058 348.489 215.058Z" fill="#EAE2CF" stroke="#101727" stroke-miterlimit="10"/>
<path d="M348.489 215.058C338.958 215.058 333.129 221.227 333.129 231.315C333.129 221.227 327.301 215.058 317.77 215.058C327.301 215.058 333.129 208.888 333.129 198.8C333.129 208.888 338.958 215.058 348.489 215.058Z" fill="#EAE2CF" stroke="#101727" stroke-miterlimit="10"/>
<path d="M103.807 43.4155H219.122C232.224 43.4155 242.849 52.0911 242.849 62.7948V386.201C242.849 396.904 232.224 405.58 219.122 405.58H103.807" stroke="#101727" stroke-miterlimit="10"/>
<path d="M562.326 405.569H454.024C444.051 405.569 435.965 397.828 435.965 388.282V60.6922C435.965 51.1459 444.051 43.4048 454.024 43.4048H562.326" stroke="#101727" stroke-miterlimit="10"/>
<path d="M114.601 323.773H0.5V470.812H114.601V323.773Z" fill="#01654D" stroke="#101727" stroke-miterlimit="10"/>
<path d="M98.4775 337.323H16.6113V457.231H98.4775V337.323Z" fill="#EAE2CF" stroke="#101727" stroke-miterlimit="10"/>
<path d="M69.3927 318.963C68.9713 312.411 63.8447 307.219 57.5442 307.219C51.2437 307.219 46.107 312.411 45.6957 318.963H25.5V344.342H89.5883V318.963H69.3827H69.3927Z" fill="#E9BE51" stroke="#101727" stroke-miterlimit="10"/>
<path d="M75.8447 449.309C83.2488 449.309 89.2483 442.948 89.2483 435.111C89.2483 427.275 83.2488 420.914 75.8447 420.914C68.4406 420.914 62.4512 427.275 62.4512 435.111C62.4512 442.948 68.4507 449.309 75.8447 449.309Z" fill="#E9BE51"/>
<path d="M28.9336 368.032H86.1596" stroke="#101727" stroke-miterlimit="10"/>
<path d="M28.9336 379.543H86.1596" stroke="#101727" stroke-miterlimit="10"/>
<path d="M28.9336 391.054H86.1596" stroke="#101727" stroke-miterlimit="10"/>
<path d="M28.9336 402.576H86.1596" stroke="#101727" stroke-miterlimit="10"/>
<path d="M28.9336 414.086H86.1596" stroke="#101727" stroke-miterlimit="10"/>
<path d="M62.041 108.705H2.00586V36.0942L32.0234 0.5L62.041 36.0942V108.705Z" fill="#EAE2CF" stroke="#101727" stroke-linejoin="round"/>
<path d="M122.078 108.705H62.043V36.0942L32.0254 0.5H92.0706L122.088 36.0942V108.705H122.078Z" fill="#01654D" stroke="#101727" stroke-linejoin="round"/>
<path d="M62.041 36.0942H122.076" stroke="#101727" stroke-linejoin="round"/>
<path d="M36.1778 27.4395H27.8809V44.7481H36.1778V27.4395Z" fill="#EAE2CF" stroke="#101727" stroke-miterlimit="10"/>
<path d="M36.1778 57.1089H27.8809V74.4175H36.1778V57.1089Z" fill="#EAE2CF" stroke="#101727" stroke-miterlimit="10"/>
<path d="M86.1798 57.1089H77.8828V74.4175H86.1798V57.1089Z" fill="#E9BE51" stroke="#101727" stroke-miterlimit="10"/>
<path d="M108.752 57.1089H100.455V74.4175H108.752V57.1089Z" fill="#E9BE51" stroke="#101727" stroke-miterlimit="10"/>
<path d="M242.848 378.099C247.232 378.099 250.794 374.329 250.794 369.678C250.794 365.027 247.232 361.257 242.848 361.257C238.464 361.257 234.902 365.027 234.902 369.678C234.902 374.329 238.454 378.099 242.848 378.099Z" fill="#E9BE51" stroke="#101727" stroke-miterlimit="10"/>
<path d="M239.656 371.281L242.796 367.958L246.057 371.419" fill="#E9BE51"/>
<path d="M239.656 371.281L242.796 367.958L246.057 371.419" stroke="#101727" stroke-miterlimit="10"/>
<path d="M239.656 309.799L242.796 306.475L246.057 309.937" stroke="#101727" stroke-miterlimit="10"/>
<path d="M183.565 233.694C187.949 233.694 191.511 229.924 191.511 225.273C191.511 220.622 187.959 216.853 183.565 216.853C179.171 216.853 175.619 220.622 175.619 225.273C175.619 229.924 179.181 233.694 183.565 233.694Z" fill="#E9BE51" stroke="#101727" stroke-miterlimit="10"/>
<path d="M182.06 221.886L185.2 225.209L181.93 228.661" fill="#E9BE51"/>
<path d="M182.06 221.886L185.2 225.209L181.93 228.661" stroke="#101727" stroke-miterlimit="10"/>
<path d="M229.314 221.886L232.454 225.209L229.184 228.661" stroke="#101727" stroke-miterlimit="10"/>
<path d="M547.939 221.886L551.079 225.209L547.809 228.661" stroke="#101727" stroke-miterlimit="10"/>
<path d="M205.225 51.8258C209.609 51.8258 213.171 48.0561 213.171 43.4051C213.171 38.754 209.609 34.9844 205.225 34.9844C200.841 34.9844 197.279 38.754 197.279 43.4051C197.279 48.0561 200.841 51.8258 205.225 51.8258Z" fill="#E9BE51" stroke="#101727" stroke-miterlimit="10"/>
<path d="M203.73 40.0176L206.87 43.3306L203.6 46.7924" fill="#E9BE51"/>
<path d="M203.73 40.0176L206.87 43.3306L203.6 46.7924" stroke="#101727" stroke-miterlimit="10"/>
<path d="M171.826 40.0176L174.966 43.3306L171.695 46.7924" stroke="#101727" stroke-miterlimit="10"/>
<path d="M435.965 93.2711C440.35 93.2711 443.911 89.5014 443.911 84.8504C443.911 80.1994 440.35 76.4297 435.965 76.4297C431.581 76.4297 428.02 80.1994 428.02 84.8504C428.02 89.5014 431.581 93.2711 435.965 93.2711Z" fill="#E9BE51" stroke="#101727" stroke-miterlimit="10"/>
<path d="M432.775 86.4429L435.916 83.1299L439.176 86.581" fill="#E9BE51"/>
<path d="M432.775 86.4429L435.916 83.1299L439.176 86.581" stroke="#101727" stroke-miterlimit="10"/>
<path d="M432.775 121.846L435.916 118.533L439.176 121.984" stroke="#101727" stroke-miterlimit="10"/>
<path d="M439.166 324.06L435.906 327.511L432.766 324.198" stroke="#101727" stroke-miterlimit="10"/>
<path d="M495.268 234.034C499.652 234.034 503.214 230.264 503.214 225.613C503.214 220.962 499.652 217.192 495.268 217.192C490.884 217.192 487.322 220.962 487.322 225.613C487.322 230.264 490.884 234.034 495.268 234.034Z" fill="#E9BE51" stroke="#101727" stroke-miterlimit="10"/>
<path d="M493.753 222.226L496.894 225.549L493.623 229" fill="#E9BE51"/>
<path d="M493.753 222.226L496.894 225.549L493.623 229" stroke="#101727" stroke-miterlimit="10"/>
<path d="M473.577 413.98C477.961 413.98 481.523 410.21 481.523 405.559C481.523 400.908 477.961 397.138 473.577 397.138C469.192 397.138 465.631 400.908 465.631 405.559C465.631 410.21 469.192 413.98 473.577 413.98Z" fill="#E9BE51" stroke="#101727" stroke-miterlimit="10"/>
<path d="M472.084 402.182L475.214 405.506L471.953 408.968" fill="#E9BE51"/>
<path d="M472.084 402.182L475.214 405.506L471.953 408.968" stroke="#101727" stroke-miterlimit="10"/>
<mask id="mask8_2727_16872" style="mask-type:luminance" maskUnits="userSpaceOnUse" x="559" y="18" width="121" height="81">
<path d="M679.475 18.6592H559.375V98.3001H679.475V18.6592Z" fill="white"/>
</mask>
<g mask="url(#mask8_2727_16872)">
<path d="M612.277 29.437V89.9748L588.449 97.5353V21.8765L612.277 29.437Z" fill="#EAE2CF"/>
<mask id="mask9_2727_16872" style="mask-type:luminance" maskUnits="userSpaceOnUse" x="559" y="18" width="121" height="81">
<path d="M679.475 18.6592H559.375V98.3001H679.475V18.6592Z" fill="white"/>
</mask>
<g mask="url(#mask9_2727_16872)">
<path d="M612.277 29.437V89.9748L588.449 97.5353V21.8765L612.277 29.437Z" stroke="#101727" stroke-width="0.95"/>
</g>
<path d="M588.45 21.8765V97.5353L559.857 84.9308V31.9643L588.45 21.8765Z" fill="#EAE2CF"/>
<mask id="mask10_2727_16872" style="mask-type:luminance" maskUnits="userSpaceOnUse" x="559" y="18" width="121" height="81">
<path d="M679.475 18.6592H559.375V98.3001H679.475V18.6592Z" fill="white"/>
</mask>
<g mask="url(#mask10_2727_16872)">
<path d="M588.45 21.8765V97.5353L559.857 84.9308V31.9643L588.45 21.8765Z" stroke="#101727" stroke-width="0.95"/>
</g>
<path d="M678.993 31.9647V87.4479L640.869 97.5358V19.3496L678.993 31.9647Z" fill="#EAE2CF"/>
<mask id="mask11_2727_16872" style="mask-type:luminance" maskUnits="userSpaceOnUse" x="559" y="18" width="121" height="81">
<path d="M679.475 18.6592H559.375V98.3001H679.475V18.6592Z" fill="white"/>
</mask>
<g mask="url(#mask11_2727_16872)">
<path d="M678.993 31.9647V87.4479L640.869 97.5358V19.3496L678.993 31.9647Z" stroke="#101727" stroke-width="0.95"/>
</g>
<path d="M640.87 19.3496V97.5358L612.277 89.9752V29.4375L640.87 19.3496Z" fill="#EAE2CF"/>
<mask id="mask12_2727_16872" style="mask-type:luminance" maskUnits="userSpaceOnUse" x="559" y="18" width="121" height="81">
<path d="M679.475 18.6592H559.375V98.3001H679.475V18.6592Z" fill="white"/>
</mask>
<g mask="url(#mask12_2727_16872)">
<path d="M640.87 19.3496V97.5358L612.277 89.9752V29.4375L640.87 19.3496Z" stroke="#101727" stroke-width="0.95"/>
</g>
</g>
<mask id="mask13_2727_16872" style="mask-type:luminance" maskUnits="userSpaceOnUse" x="635" y="0" width="39" height="61">
<path d="M673.577 0.5H635.232V60.9103H673.577V0.5Z" fill="white"/>
</mask>
<g mask="url(#mask13_2727_16872)">
<mask id="mask14_2727_16872" style="mask-type:luminance" maskUnits="userSpaceOnUse" x="635" y="0" width="39" height="61">
<path d="M673.577 0.5H635.232V60.9103H673.577V0.5Z" fill="white"/>
</mask>
<g mask="url(#mask14_2727_16872)">
<path d="M654.405 0.5C643.82 0.5 635.232 9.58968 635.232 20.7925C635.232 40.3417 654.405 60.9103 654.405 60.9103C654.405 60.9103 673.577 40.1399 673.577 20.7925C673.577 9.58968 664.989 0.5 654.405 0.5ZM654.405 30.7105C649.469 30.7105 645.476 26.4736 645.476 21.2597C645.476 16.0459 649.479 11.809 654.405 11.809C659.331 11.809 663.334 16.0459 663.334 21.2597C663.334 26.4736 659.331 30.7105 654.405 30.7105Z" fill="#01654D"/>
<path d="M654.404 30.6148C659.391 30.6148 663.434 26.3354 663.434 21.0579C663.434 15.7803 659.391 11.501 654.404 11.501C649.418 11.501 645.375 15.7803 645.375 21.0579C645.375 26.3354 649.418 30.6148 654.404 30.6148Z" fill="white"/>
</g>
</g>
<path d="M615.699 173.783C619.04 173.783 622.261 174.282 625.321 175.206V171.574C625.321 165.957 621.017 161.391 615.699 161.391C610.382 161.391 606.078 165.946 606.078 171.574V175.206C609.138 174.292 612.359 173.783 615.699 173.783Z" stroke="#101727" stroke-miterlimit="10"/>
<path d="M580.465 243.304V211.076C580.465 190.475 596.236 173.783 615.699 173.783C635.163 173.783 650.934 190.475 650.934 211.076V243.304" fill="#E9BE51"/>
<path d="M580.465 243.304V211.076C580.465 190.475 596.236 173.783 615.699 173.783C635.163 173.783 650.934 190.475 650.934 211.076V243.304" stroke="#101727" stroke-miterlimit="10"/>
<path d="M643.138 243.304H654.686C660.183 243.304 664.648 248.019 664.648 253.849C664.648 259.668 660.194 264.393 654.686 264.393H576.722C571.224 264.393 566.76 259.678 566.76 253.849C566.76 248.03 571.214 243.304 576.722 243.304H609.589" fill="#E9BE51"/>
<path d="M643.138 243.304H654.686C660.183 243.304 664.648 248.019 664.648 253.849C664.648 259.668 660.194 264.393 654.686 264.393H576.722C571.224 264.393 566.76 259.678 566.76 253.849C566.76 248.03 571.214 243.304 576.722 243.304H609.589" stroke="#101727" stroke-miterlimit="10" stroke-linecap="round"/>
<path d="M598.492 264.383C600.228 272.75 607.271 279.005 615.698 279.005C624.126 279.005 631.168 272.74 632.904 264.383H598.492Z" fill="#E9BE51" stroke="#101727" stroke-miterlimit="10"/>
<path d="M670.928 175.991C669.603 170.746 667.005 165.776 663.112 161.656C659.22 157.536 654.524 154.785 649.568 153.384" stroke="#101727" stroke-miterlimit="10" stroke-linecap="round"/>
<path d="M655.548 180.356C654.926 177.871 653.692 175.524 651.856 173.581C650.02 171.638 647.793 170.332 645.455 169.673" stroke="#101727" stroke-miterlimit="10" stroke-linecap="round"/>
<path d="M656.983 221.716C669.955 221.716 680.5 232.844 680.5 246.606C680.5 260.368 669.986 271.497 656.983 271.497C643.981 271.497 633.467 260.368 633.467 246.606C633.467 232.844 644.021 221.716 656.983 221.716Z" stroke="#101727" stroke-width="0.68" stroke-miterlimit="10"/>
<path d="M656.982 221.843C669.914 221.843 680.388 232.929 680.388 246.617C680.388 260.305 669.914 271.391 656.982 271.391C644.05 271.391 633.576 260.305 633.576 246.617C633.576 232.929 644.05 221.843 656.982 221.843Z" fill="#01654D" stroke="#101727" stroke-linejoin="round"/>
<path d="M670.166 236.529C669.383 235.701 668.139 235.701 667.387 236.529L652.719 252.097L646.559 245.534C645.776 244.706 644.492 244.738 643.71 245.577C642.927 246.405 642.957 247.764 643.75 248.592L651.334 256.62C652.117 257.448 653.361 257.448 654.113 256.62L670.206 239.588C670.988 238.791 671.059 237.474 670.316 236.646C670.246 236.604 670.206 236.572 670.176 236.529" fill="white"/>
<path d="M670.115 369.678H548.208C542.546 369.678 537.955 374.537 537.955 380.531V460.118C537.955 466.112 542.546 470.971 548.208 470.971H670.115C675.777 470.971 680.368 466.112 680.368 460.118V380.531C680.368 374.537 675.777 369.678 670.115 369.678Z" fill="#EAE2CF" stroke="#101727" stroke-linejoin="round"/>
<path d="M547.978 369.678H670.345C675.873 369.678 680.368 374.435 680.368 380.286V391.967H537.955V380.286C537.955 374.435 542.45 369.678 547.978 369.678Z" fill="#01654D" stroke="#101727" stroke-linejoin="round"/>
<path d="M553.266 385.085C555.383 385.085 557.098 383.269 557.098 381.029C557.098 378.789 555.383 376.973 553.266 376.973C551.149 376.973 549.434 378.789 549.434 381.029C549.434 383.269 551.149 385.085 553.266 385.085Z" fill="#E9BE51" stroke="#101727" stroke-miterlimit="10"/>
<path d="M568.577 385.085C570.693 385.085 572.409 383.269 572.409 381.029C572.409 378.789 570.693 376.973 568.577 376.973C566.46 376.973 564.744 378.789 564.744 381.029C564.744 383.269 566.46 385.085 568.577 385.085Z" fill="#E9BE51" stroke="#101727" stroke-miterlimit="10"/>
<path d="M583.897 385.085C586.014 385.085 587.729 383.269 587.729 381.029C587.729 378.789 586.014 376.973 583.897 376.973C581.78 376.973 580.064 378.789 580.064 381.029C580.064 383.269 581.78 385.085 583.897 385.085Z" fill="#E9BE51" stroke="#101727" stroke-miterlimit="10"/>
<path d="M580.065 458.823C594.864 458.823 606.862 446.124 606.862 430.46C606.862 414.796 594.864 402.097 580.065 402.097C565.265 402.097 553.268 414.796 553.268 430.46C553.268 446.124 565.265 458.823 580.065 458.823Z" fill="#E9BE51" stroke="#101727" stroke-miterlimit="10"/>
<path d="M580.064 430.46V402.097C594.863 402.097 606.862 414.797 606.862 430.46H580.064Z" fill="#01654D" stroke="#101727" stroke-linejoin="round"/>
<path d="M580.064 430.46L597.29 452.749C592.395 456.837 586.295 458.982 580.064 458.823V430.46Z" fill="#EAE2CF" stroke="#101727" stroke-linejoin="round"/>
<path d="M631.32 437.915H620.033V458.834H631.32V437.915Z" fill="#E9BE51" stroke="#101727" stroke-miterlimit="10"/>
<path d="M649.67 424.471H638.383V458.834H649.67V424.471Z" fill="#01654D" stroke="#101727" stroke-linejoin="round"/>
<path d="M668.021 406.536H656.734V458.823H668.021V406.536Z" fill="white" stroke="#101727" stroke-linejoin="round"/>
<path d="M62.7425 159.192H90.9643C117.26 159.192 138.609 181.81 138.609 209.674V242.231H15.0977V209.674C15.0977 181.81 36.4471 159.192 62.7425 159.192Z" fill="#E9BE51" stroke="#101727" stroke-miterlimit="10"/>
<path d="M103.806 236.147H154.3C158.915 236.147 162.657 240.118 162.657 244.992C162.657 249.866 158.915 253.838 154.3 253.838H10.5525C5.93748 253.838 2.19531 249.866 2.19531 244.992C2.19531 240.118 5.93748 236.147 10.5525 236.147H21.0265" fill="#E9BE51"/>
<path d="M103.806 236.147H154.3C158.915 236.147 162.657 240.118 162.657 244.992C162.657 249.866 158.915 253.838 154.3 253.838H10.5525C5.93748 253.838 2.19531 249.866 2.19531 244.992C2.19531 240.118 5.93748 236.147 10.5525 236.147H21.0265" stroke="#101727" stroke-miterlimit="10"/>
<path d="M83.3582 159.192C101.838 159.192 124.201 174.218 124.201 210.885H109.955C109.955 182.341 88.1036 159.192 61.166 159.192" stroke="#101727" stroke-miterlimit="10"/>
</svg>
