<svg width="580" height="526" viewBox="0 0 580 526" fill="none" xmlns="http://www.w3.org/2000/svg">
<g clip-path="url(#clip0_496_328)">
<path d="M381.132 262.995H135.617" stroke="#101727" stroke-width="2" stroke-miterlimit="10"/>
<path d="M143.369 78.7827H261.563V455.77H143.369" stroke="#101727" stroke-width="2" stroke-miterlimit="10"/>
<path d="M148.844 386.54H35.1152V525.009H148.844V386.54Z" fill="#01654D" stroke="#101727" stroke-width="2" stroke-miterlimit="10"/>
<path d="M132.776 399.304H51.1719V512.226H132.776V399.304Z" fill="#E9E1CE" stroke="#101727" stroke-width="2" stroke-miterlimit="10"/>
<path d="M103.79 382.011C103.374 375.838 98.2562 370.952 91.9797 370.952C85.7033 370.952 80.5752 375.838 80.1693 382.011H60.043V405.914H123.926V382.011H103.8H103.79Z" fill="#E8BD51" stroke="#101727" stroke-width="2" stroke-miterlimit="10"/>
<path d="M110.214 504.764C117.59 504.764 123.569 498.779 123.569 491.396C123.569 484.013 117.59 478.027 110.214 478.027C102.839 478.027 96.8594 484.013 96.8594 491.396C96.8594 498.779 102.839 504.764 110.214 504.764Z" fill="#E8BD51"/>
<path d="M63.459 428.221H120.502" stroke="#101727" stroke-width="2" stroke-miterlimit="10"/>
<path d="M63.459 439.062H120.502" stroke="#101727" stroke-width="2" stroke-miterlimit="10"/>
<path d="M63.459 449.903H120.502" stroke="#101727" stroke-width="2" stroke-miterlimit="10"/>
<path d="M63.459 460.745H120.502" stroke="#101727" stroke-width="2" stroke-miterlimit="10"/>
<path d="M63.459 471.586H120.502" stroke="#101727" stroke-width="2" stroke-miterlimit="10"/>
<path d="M69.6544 200.762H101.66C131.489 200.762 155.703 225.001 155.703 254.859V289.751H15.6113V254.859C15.6113 225.001 39.8263 200.762 69.6544 200.762Z" fill="#E8BD51" stroke="#101727" stroke-width="2" stroke-miterlimit="10"/>
<path d="M116.224 283.221H173.494C178.731 283.221 182.968 287.472 182.968 292.704C182.968 297.947 178.721 302.188 173.494 302.188H10.4643C5.22735 302.188 0.990234 297.937 0.990234 292.704C0.990234 287.462 5.23725 283.221 10.4643 283.221H22.3441" fill="#E8BD51"/>
<path d="M116.224 283.221H173.494C178.731 283.221 182.968 287.472 182.968 292.704C182.968 297.947 178.721 302.188 173.494 302.188H10.4643C5.22735 302.188 0.990234 297.937 0.990234 292.704C0.990234 287.462 5.23725 283.221 10.4643 283.221H22.3441" stroke="#101727" stroke-width="2" stroke-miterlimit="10"/>
<path d="M93.0385 200.762C113.996 200.762 139.36 216.865 139.36 256.157H123.203C123.203 225.566 98.424 200.762 67.8633 200.762" stroke="#101727" stroke-width="2" stroke-miterlimit="10"/>
<path d="M91.9794 128.451H17.127V42.9194L54.5482 0.991211L91.9794 42.9194V128.451Z" fill="#E9E1CE" stroke="#101727" stroke-width="2" stroke-linejoin="round"/>
<path d="M166.832 128.451H91.98V42.9194L54.5488 0.991211H129.411L166.832 42.9194V128.451Z" fill="#01654D" stroke="#101727" stroke-width="2" stroke-linejoin="round"/>
<path d="M91.9785 42.9194H166.831" stroke="#101727" stroke-width="2" stroke-linejoin="round"/>
<path d="M59.7262 32.7222H49.3809V53.1065H59.7262V32.7222Z" fill="#E9E1CE" stroke="#101727" stroke-width="2" stroke-miterlimit="10"/>
<path d="M59.7262 67.6641H49.3809V88.0484H59.7262V67.6641Z" fill="#E9E1CE" stroke="#101727" stroke-width="2" stroke-miterlimit="10"/>
<path d="M122.064 67.6641H111.719V88.0484H122.064V67.6641Z" fill="#E8BD51" stroke="#101727" stroke-width="2" stroke-miterlimit="10"/>
<path d="M150.218 67.6641H139.873V88.0484H150.218V67.6641Z" fill="#E8BD51" stroke="#101727" stroke-width="2" stroke-miterlimit="10"/>
<path d="M261.562 423.484C265.936 423.484 269.482 419.934 269.482 415.556C269.482 411.177 265.936 407.628 261.562 407.628C257.188 407.628 253.643 411.177 253.643 415.556C253.643 419.934 257.188 423.484 261.562 423.484Z" fill="#E8BD51" stroke="#101727" stroke-width="2" stroke-miterlimit="10"/>
<path d="M258.375 417.062L261.503 413.931L264.75 417.191" fill="#E8BD51"/>
<path d="M258.375 417.062L261.503 413.931L264.75 417.191" stroke="#101727" stroke-width="2" stroke-miterlimit="10"/>
<path d="M202.471 270.923C206.845 270.923 210.39 267.374 210.39 262.995C210.39 258.617 206.845 255.067 202.471 255.067C198.097 255.067 194.551 258.617 194.551 262.995C194.551 267.374 198.097 270.923 202.471 270.923Z" fill="#E8BD51" stroke="#101727" stroke-width="2" stroke-miterlimit="10"/>
<path d="M200.967 259.804L204.095 262.936L200.838 266.186" fill="#E8BD51"/>
<path d="M200.967 259.804L204.095 262.936L200.838 266.186" stroke="#101727" stroke-width="2" stroke-miterlimit="10"/>
<path d="M237.279 86.7106C241.653 86.7106 245.199 83.1612 245.199 78.7828C245.199 74.4044 241.653 70.855 237.279 70.855C232.905 70.855 229.359 74.4044 229.359 78.7828C229.359 83.1612 232.905 86.7106 237.279 86.7106Z" fill="#E8BD51" stroke="#101727" stroke-width="2" stroke-miterlimit="10"/>
<path d="M235.785 75.5918L238.913 78.7134L235.656 81.9737" fill="#E8BD51"/>
<path d="M235.785 75.5918L238.913 78.7134L235.656 81.9737" stroke="#101727" stroke-width="2" stroke-miterlimit="10"/>
<path d="M334.484 263.312H580" stroke="#101727" stroke-width="2" stroke-miterlimit="10"/>
<path d="M580 447.525H454.055V70.5376H580" stroke="#101727" stroke-width="2" stroke-miterlimit="10"/>
<path d="M454.055 118.679C458.429 118.679 461.974 115.13 461.974 110.752C461.974 106.373 458.429 102.824 454.055 102.824C449.681 102.824 446.135 106.373 446.135 110.752C446.135 115.13 449.681 118.679 454.055 118.679Z" fill="#E8BD51" stroke="#101727" stroke-width="2" stroke-miterlimit="10"/>
<path d="M450.867 112.248L453.996 109.126L457.243 112.377" fill="#E8BD51"/>
<path d="M450.867 112.248L453.996 109.126L457.243 112.377" stroke="#101727" stroke-width="2" stroke-miterlimit="10"/>
<path d="M513.156 271.24C517.53 271.24 521.076 267.69 521.076 263.312C521.076 258.934 517.53 255.384 513.156 255.384C508.782 255.384 505.236 258.934 505.236 263.312C505.236 267.69 508.782 271.24 513.156 271.24Z" fill="#E8BD51" stroke="#101727" stroke-width="2" stroke-miterlimit="10"/>
<path d="M511.652 260.121L514.78 263.253L511.523 266.503" fill="#E8BD51"/>
<path d="M511.652 260.121L514.78 263.253L511.523 266.503" stroke="#101727" stroke-width="2" stroke-miterlimit="10"/>
<path d="M478.34 455.452C482.714 455.452 486.26 451.903 486.26 447.524C486.26 443.146 482.714 439.597 478.34 439.597C473.966 439.597 470.42 443.146 470.42 447.524C470.42 451.903 473.966 455.452 478.34 455.452Z" fill="#E8BD51" stroke="#101727" stroke-width="2" stroke-miterlimit="10"/>
<path d="M476.845 444.333L479.964 447.465L476.717 450.725" fill="#E8BD51"/>
<path d="M476.845 444.333L479.964 447.465L476.717 450.725" stroke="#101727" stroke-width="2" stroke-miterlimit="10"/>
<path d="M381.132 0.991211H334.484V525.009H381.132V0.991211Z" fill="#E8BD51" stroke="#101727" stroke-width="2" stroke-miterlimit="10"/>
<path d="M365.046 233.86H362.155L361.175 231.323H354.443L353.463 233.86H350.572L356.789 219.293H358.829L365.046 233.86ZM357.809 222.474L355.275 229.094H360.343L357.809 222.474Z" fill="black"/>
<path d="M355.375 260.983V265.086H352.672V250.519H358.82C361.918 250.519 364.096 252.867 364.096 255.741C364.096 258.615 361.918 260.983 358.82 260.983H355.365H355.375ZM358.473 258.654C360.265 258.654 361.404 257.346 361.404 255.741C361.404 254.136 360.265 252.847 358.473 252.847H355.375V258.654H358.473Z" fill="black"/>
<path d="M356.463 281.725H359.166V296.292H356.463V281.725Z" fill="black"/>
</g>
<defs>
<clipPath id="clip0_496_328">
<rect width="580" height="526" fill="white"/>
</clipPath>
</defs>
</svg>
