<svg width="695" height="647" viewBox="0 0 695 647" fill="none" xmlns="http://www.w3.org/2000/svg">
<g clip-path="url(#clip0_312_859)">
<path d="M500.136 345.087H391.167C389.08 345.171 387.004 345.843 385.192 347.164L247.188 448.126C242.377 451.645 241.333 458.406 244.848 463.222C248.364 468.038 255.119 469.083 259.93 465.564L396.891 365.37H500.148C505.739 365.37 510.286 360.831 510.286 355.223C510.286 349.614 505.751 345.075 500.148 345.075L500.136 345.087Z" fill="#E9E1CE" stroke="#101727" stroke-width="2" stroke-linejoin="round"/>
<path d="M68.2817 404.689H17.2891V429.44H68.2817V404.689Z" fill="#E8BD51" stroke="#101727" stroke-width="2" stroke-miterlimit="10"/>
<path d="M113.276 404.689H62.2832V429.44H113.276V404.689Z" fill="#E8BD51" stroke="#101727" stroke-width="2" stroke-miterlimit="10"/>
<path d="M142.684 404.689H91.6914V429.44H142.684V404.689Z" fill="#E8BD51" stroke="#101727" stroke-width="2" stroke-miterlimit="10"/>
<path d="M193.676 404.689H142.684V429.44H193.676V404.689Z" fill="#E8BD51" stroke="#101727" stroke-width="2" stroke-miterlimit="10"/>
<path d="M238.897 404.689H187.904V429.44H238.897V404.689Z" fill="#E8BD51" stroke="#101727" stroke-width="2" stroke-miterlimit="10"/>
<path d="M81.3609 354.946H38.875V404.22H81.3609V354.946Z" fill="#E8BD51" stroke="#101727" stroke-width="2" stroke-miterlimit="10"/>
<path d="M126.366 345.087H75.373V404.233H126.366V345.087Z" fill="#E8BD51" stroke="#101727" stroke-width="2" stroke-miterlimit="10"/>
<path d="M155.762 345.087H104.77V404.233H155.762V345.087Z" fill="#E8BD51" stroke="#101727" stroke-width="2" stroke-miterlimit="10"/>
<path d="M206.754 345.087H155.762V404.233H206.754V345.087Z" fill="#E8BD51" stroke="#101727" stroke-width="2" stroke-miterlimit="10"/>
<path d="M251.975 345.087H200.982V404.233H251.975V345.087Z" fill="#E8BD51" stroke="#101727" stroke-width="2" stroke-miterlimit="10"/>
<path d="M142.684 318.918H91.6914V345.075H142.684V318.918Z" fill="#E8BD51" stroke="#101727" stroke-width="2" stroke-miterlimit="10"/>
<path d="M193.676 318.918H142.684V345.075H193.676V318.918Z" fill="#E8BD51" stroke="#101727" stroke-width="2" stroke-miterlimit="10"/>
<path d="M238.897 318.918H187.904V345.075H238.897V318.918Z" fill="#E8BD51" stroke="#101727" stroke-width="2" stroke-miterlimit="10"/>
<path d="M293.213 354.946H252.203V404.22H293.213V354.946Z" fill="#E8BD51" stroke="#101727" stroke-width="2" stroke-miterlimit="10"/>
<path d="M287.67 404.689H236.678V429.44H287.67V404.689Z" fill="#E8BD51" stroke="#101727" stroke-width="2" stroke-miterlimit="10"/>
<path d="M334.26 404.689H283.268V429.44H334.26V404.689Z" fill="#E8BD51" stroke="#101727" stroke-width="2" stroke-miterlimit="10"/>
<path d="M473.739 335.455L437.744 589.499L530.191 589.644L562.97 384.477L612.631 335.455H473.739Z" fill="#01654D"/>
<path d="M643.132 335.455L679.139 589.499L586.68 589.644L553.901 384.477L504.24 335.455H643.132Z" fill="#01654D"/>
<path d="M481.67 112.827L477.351 95.3536L475.407 67.9725L565.478 70.0621L574.285 66.5674L585.095 72.2238L587.087 80.3781L583.428 87.5356L575.281 95.4377L562.311 99.1846L563.427 100.349L564.146 104.012L580.104 140.629L588.755 141.625L606.044 143.115L623.67 150.776L635.14 159.267L642.123 172.91L646.611 189.218L646.947 211.195L644.127 241.651L640.299 257.119L649.862 335.455L608.876 335.515L581.94 413.732L576.997 422.438L568.082 425.717L560.703 425.104L557.319 422.27L552.724 421.502L547.853 420.553L543.689 417.395L538.926 416.29L532.387 413.179L526.736 403.908L526.508 399.092L538.098 399.249L544.793 377.56L518.805 379.229L520.077 374.233L530.779 369.958L538.758 368.469L550.336 334.795L473.715 335.623L472.624 343.273L413.412 343.417L414.888 339.334L430.522 336.176L471.412 186.12L478.731 168.922L493.813 156.709L505.775 151.605" fill="#E9E1CE"/>
<path d="M668.376 595.925L679.139 645.799H568.587C568.587 645.799 552.893 612.245 607.185 612.245C605.397 604.151 603.993 596.537 603.993 596.537L668.376 595.937V595.925Z" fill="#E9E1CE" stroke="#101727" stroke-width="2" stroke-miterlimit="10"/>
<path d="M519.105 595.924L514.869 645.799H404.317C404.317 645.799 388.623 612.245 442.915 612.245C446.479 602.085 446.791 595.312 446.791 595.312L519.105 595.937V595.924Z" fill="#E9E1CE" stroke="#101727" stroke-width="2" stroke-miterlimit="10"/>
<path d="M475.407 67.9727C474.423 121.474 499.715 145.06 509.242 153.935L509.734 154.391C513.645 158.042 518.961 159.279 523.832 158.066C526.112 157.502 528.283 156.409 530.167 154.776L530.575 154.427C540.413 145.949 566.522 123.432 567.626 69.8101L475.419 67.9727H475.407Z" stroke="#101727" stroke-width="2" stroke-miterlimit="10"/>
<path d="M567.617 69.8506L475.404 68.0623L475.823 46.4136C476.316 20.9467 497.373 0.671193 522.817 1.16463C548.26 1.65807 568.517 22.7348 568.024 48.2017L567.605 69.8504L567.617 69.8506Z" fill="#E8BD51"/>
<path d="M567.615 69.7619L451.112 67.4922C448.904 67.4441 447.152 65.6187 447.188 63.409C447.236 61.1993 449.06 59.446 451.267 59.482L500.952 60.4547" fill="#E8BD51"/>
<path d="M567.615 69.7619L451.112 67.4922C448.904 67.4441 447.152 65.6187 447.188 63.409C447.236 61.1993 449.06 59.446 451.267 59.482L500.952 60.4547" stroke="#101727" stroke-width="2" stroke-miterlimit="10"/>
<path d="M567.613 69.7621C577.104 63.085 589.378 72.6924 585.923 83.861C582.671 94.3451 571.549 97.3355 564.338 98.1041" stroke="#101727" stroke-width="2" stroke-miterlimit="10"/>
<path d="M511.99 76.9072C511.834 87.8117 507.19 99.0163 498.492 106.894C493.176 111.698 503.639 114.893 511.534 104.853" stroke="#101727" stroke-width="2" stroke-miterlimit="10"/>
<path d="M529.784 112.347C547.529 102.247 549.461 87.2596 550.985 69.4858L567.614 69.8221C566.499 123.444 540.402 145.961 530.564 154.439L530.156 154.788C528.272 156.421 526.1 157.514 523.821 158.078C518.961 159.279 513.634 158.042 509.723 154.403L509.231 153.947C502.8 147.942 489.17 135.237 481.299 111.11C496.141 119.108 514.474 121.042 529.772 112.347H529.784Z" fill="#101727" stroke="#101727" stroke-width="2" stroke-miterlimit="10"/>
<path d="M524.132 90.9223C526.392 90.9223 528.224 89.0888 528.224 86.8271C528.224 84.5654 526.392 82.7319 524.132 82.7319C521.873 82.7319 520.041 84.5654 520.041 86.8271C520.041 89.0888 521.873 90.9223 524.132 90.9223Z" stroke="#101727" stroke-width="2" stroke-miterlimit="10"/>
<path d="M522.896 191.236C525.156 191.236 526.988 189.402 526.988 187.141C526.988 184.879 525.156 183.045 522.896 183.045C520.636 183.045 518.805 184.879 518.805 187.141C518.805 189.402 520.636 191.236 522.896 191.236Z" stroke="#101727" stroke-width="2" stroke-miterlimit="10"/>
<path d="M522.285 209.862C524.544 209.862 526.376 208.029 526.376 205.767C526.376 203.505 524.544 201.672 522.285 201.672C520.025 201.672 518.193 203.505 518.193 205.767C518.193 208.029 520.025 209.862 522.285 209.862Z" stroke="#101727" stroke-width="2" stroke-miterlimit="10"/>
<path d="M494.388 94.0565C496.648 94.0565 498.48 92.2231 498.48 89.9614C498.48 87.6997 496.648 85.8662 494.388 85.8662C492.129 85.8662 490.297 87.6997 490.297 89.9614C490.297 92.2231 492.129 94.0565 494.388 94.0565Z" stroke="#101727" stroke-width="2" stroke-miterlimit="10"/>
<path d="M522.213 74.8898C526.64 74.5055 530.444 76.0066 532.915 78.5406" stroke="#101727" stroke-width="2" stroke-miterlimit="10"/>
<path d="M492.35 76.5229C487.911 76.7031 484.323 78.6606 482.188 81.4828" stroke="#101727" stroke-width="2" stroke-miterlimit="10"/>
<path d="M528.944 125.953C524.001 131.622 511.031 135.224 504.168 129.544" stroke="#E9E1CE" stroke-width="2" stroke-miterlimit="10"/>
<path d="M526.495 1.18896C515.229 2.4019 509.59 11.3248 509.59 11.3248" stroke="#101727" stroke-width="2" stroke-miterlimit="10"/>
<path d="M533.779 221.151C533.899 220.803 536.431 166.737 536.431 166.737" stroke="#101727" stroke-width="2" stroke-miterlimit="10"/>
<path d="M582.972 602.614H684.513L687.849 575.137H579.648L582.972 602.614Z" fill="#01654D"/>
<path d="M533.9 602.614H432.359L429.035 575.137H537.236L533.9 602.614Z" fill="#01654D"/>
<path d="M544.122 378.929H435.154C433.066 379.013 430.991 379.685 429.179 381.006L349.762 439.107C344.951 442.626 343.907 449.387 347.423 454.203C350.938 459.019 357.693 460.063 362.504 456.545L440.877 399.212H536.731" fill="#E9E1CE"/>
<path d="M544.122 378.929H435.154C433.066 379.013 430.991 379.685 429.179 381.006L349.762 439.107C344.951 442.626 343.907 449.387 347.423 454.203C350.938 459.019 357.693 460.063 362.504 456.545L440.877 399.212H536.731" stroke="#101727" stroke-width="2" stroke-linejoin="round"/>
<path d="M296.682 444.968C291.21 442.59 284.863 445.112 282.488 450.576L219.605 595.72L181.006 506.624C178.631 501.147 172.284 498.637 166.812 501.015C161.341 503.393 158.833 509.746 161.209 515.222L209.694 627.149C210.366 628.698 211.362 629.995 212.562 631.028H212.574C212.838 631.256 213.102 631.472 213.378 631.664C213.402 631.676 213.414 631.688 213.438 631.7C213.714 631.892 213.99 632.061 214.277 632.229C214.313 632.241 214.337 632.265 214.373 632.277C214.661 632.433 214.949 632.577 215.249 632.709C215.273 632.709 215.297 632.733 215.321 632.745C215.321 632.745 215.357 632.745 215.369 632.757C215.645 632.877 215.933 632.985 216.221 633.081C216.281 633.105 216.353 633.129 216.413 633.141C216.665 633.225 216.929 633.285 217.181 633.346C217.277 633.37 217.373 633.394 217.469 633.418C217.685 633.466 217.913 633.49 218.141 633.526C218.273 633.55 218.405 633.562 218.537 633.586C218.729 633.61 218.921 633.61 219.113 633.622C219.281 633.622 219.437 633.646 219.605 633.646C219.773 633.646 219.929 633.634 220.097 633.622C220.289 633.622 220.481 633.61 220.673 633.586C220.805 633.574 220.937 633.55 221.069 633.526C221.296 633.49 221.512 633.466 221.74 633.418C221.836 633.394 221.932 633.37 222.028 633.346C222.292 633.285 222.544 633.225 222.796 633.141C222.856 633.117 222.928 633.093 222.988 633.081C223.276 632.985 223.564 632.877 223.84 632.757C223.852 632.757 223.864 632.757 223.888 632.745C223.888 632.745 223.936 632.721 223.96 632.709C224.26 632.577 224.548 632.433 224.836 632.277C224.872 632.265 224.896 632.241 224.932 632.229C225.22 632.061 225.496 631.892 225.772 631.7C225.796 631.688 225.808 631.676 225.832 631.664C226.108 631.472 226.384 631.256 226.636 631.04H226.648C227.848 629.995 228.843 628.698 229.515 627.149L302.285 459.175C304.66 453.699 302.141 447.346 296.682 444.968Z" fill="#101727" stroke="#101727" stroke-width="2" stroke-miterlimit="10"/>
<path d="M130.552 496.74L130.541 496.736C125.075 494.364 118.724 496.876 116.354 502.346L77.2218 592.685C74.8521 598.155 77.3618 604.513 82.8274 606.885L82.8384 606.89C88.304 609.262 94.6558 606.75 97.0255 601.279L136.157 510.94C138.527 505.47 136.017 499.112 130.552 496.74Z" fill="#101727" stroke="#101727" stroke-width="2" stroke-miterlimit="10"/>
<path d="M147.015 602.614C147.015 587.398 121.735 560.269 121.735 560.269C121.735 560.269 112.844 560.209 104.649 560.209C81.2525 560.209 62.2832 579.196 62.2832 602.614C62.2832 626.032 81.2525 645.018 104.649 645.018C104.961 645.018 105.273 645.007 105.585 644.995V645.018H119.563L128.034 637.969C139.468 630.379 147.015 617.385 147.015 602.614Z" fill="#101727" stroke="#101727" stroke-width="2" stroke-miterlimit="10"/>
<path d="M119.575 645.018C142.973 645.018 161.941 626.033 161.941 602.614C161.941 579.194 142.973 560.209 119.575 560.209C96.1769 560.209 77.209 579.194 77.209 602.614C77.209 626.033 96.1769 645.018 119.575 645.018Z" fill="#01654D" stroke="#101727" stroke-width="2" stroke-miterlimit="10"/>
<path d="M119.576 626.092C131.51 626.092 141.185 616.408 141.185 604.463C141.185 592.518 131.51 582.834 119.576 582.834C107.641 582.834 97.9668 592.518 97.9668 604.463C97.9668 616.408 107.641 626.092 119.576 626.092Z" fill="#E9E1CE" stroke="#101727" stroke-width="2" stroke-miterlimit="10"/>
<path d="M165.144 500.91L165.133 500.905C159.667 498.533 153.315 501.045 150.946 506.516L111.814 596.854C109.444 602.325 111.954 608.682 117.419 611.054L117.43 611.059C122.896 613.431 129.248 610.919 131.617 605.448L170.749 515.11C173.119 509.639 170.609 503.282 165.144 500.91Z" fill="#E9E1CE" stroke="#101727" stroke-width="2" stroke-linejoin="round"/>
<path d="M344.795 444.968C339.324 442.59 332.977 445.112 330.601 450.576L267.718 595.72L229.12 506.624C226.744 501.147 220.397 498.637 214.926 501.015C209.454 503.393 206.947 509.746 209.322 515.222L257.807 627.149C258.479 628.698 259.475 629.995 260.675 631.028H260.687C260.951 631.256 261.215 631.472 261.491 631.664C261.515 631.676 261.527 631.688 261.551 631.7C261.827 631.892 262.103 632.061 262.391 632.229C262.427 632.241 262.451 632.265 262.487 632.277C262.775 632.433 263.063 632.577 263.363 632.709C263.387 632.709 263.411 632.733 263.435 632.745C263.435 632.745 263.471 632.745 263.483 632.757C263.759 632.877 264.047 632.985 264.334 633.081C264.394 633.105 264.466 633.129 264.526 633.141C264.778 633.225 265.042 633.285 265.294 633.346C265.39 633.37 265.486 633.394 265.582 633.418C265.798 633.466 266.026 633.49 266.254 633.526C266.386 633.55 266.518 633.562 266.65 633.586C266.842 633.61 267.034 633.61 267.226 633.622C267.394 633.622 267.55 633.646 267.718 633.646C267.886 633.646 268.042 633.634 268.21 633.622C268.402 633.622 268.594 633.61 268.786 633.586C268.918 633.574 269.05 633.55 269.182 633.526C269.41 633.49 269.626 633.466 269.854 633.418C269.95 633.394 270.046 633.37 270.142 633.346C270.406 633.285 270.658 633.225 270.91 633.141C270.97 633.117 271.042 633.093 271.101 633.081C271.389 632.985 271.677 632.877 271.953 632.757C271.965 632.757 271.977 632.757 272.001 632.745C272.001 632.745 272.049 632.721 272.073 632.709C272.373 632.577 272.661 632.433 272.949 632.277C272.985 632.265 273.009 632.241 273.045 632.229C273.333 632.061 273.609 631.892 273.885 631.7C273.909 631.688 273.921 631.676 273.945 631.664C274.221 631.472 274.497 631.256 274.749 631.04H274.761C275.961 629.995 276.957 628.698 277.629 627.149L350.398 459.175C352.774 453.699 350.254 447.346 344.795 444.968Z" fill="#E9E1CE" stroke="#101727" stroke-width="2" stroke-linejoin="round"/>
<path d="M204.462 535.097H34.4821L1.63086 429.908H171.61L204.462 535.097Z" fill="#01654D" stroke="#101727" stroke-width="2" stroke-miterlimit="10"/>
<path d="M171.611 429.908H362.732V470.415L204.463 535.097L171.611 429.908Z" fill="#E9E1CE" stroke="#101727" stroke-width="2" stroke-linejoin="round"/>
<path d="M410.232 345.087C412.5 340.367 417.107 337.208 422.327 336.812L430.533 336.188L472.971 182.805C476.475 170.147 485.69 159.855 497.88 154.992L512.446 149.179" stroke="#101727" stroke-width="2" stroke-miterlimit="10"/>
<path d="M552.917 411.51C552.029 412.555 550.985 413.491 549.797 414.284C543.018 418.776 533.888 416.902 529.412 410.117C527.205 406.778 526.533 402.863 527.241 399.212" stroke="#101727" stroke-width="2" stroke-miterlimit="10"/>
<path d="M563.92 416.218C563.032 417.263 561.988 418.199 560.8 418.992C554.657 423.051 546.594 421.91 541.795 416.614" stroke="#101727" stroke-width="2" stroke-miterlimit="10"/>
<path d="M556.119 421.19C560.955 426.149 568.765 427.134 574.753 423.171C576.264 422.174 577.56 420.877 578.556 419.364L579.348 418.175C580.848 415.93 582.072 413.504 582.995 410.97L630.413 280.969C630.413 280.969 693.128 136.041 578.496 140.929L565.922 194.851C565.922 194.851 555.723 166.713 536.418 166.713C517.113 166.713 507.322 189.891 507.322 189.891L509.746 151.785" stroke="#101727" stroke-width="2" stroke-miterlimit="10"/>
<path d="M534.848 404.833L546.546 373.945" stroke="#101727" stroke-width="2" stroke-miterlimit="10"/>
<path d="M610.557 335.455H649.863L640.036 252.903" stroke="#101727" stroke-width="2" stroke-miterlimit="10"/>
<path d="M485.089 175.264L461.549 335.455H549.964" stroke="#101727" stroke-width="2" stroke-miterlimit="10"/>
<path d="M434.83 370.138H421.523L427.247 353.866C428.134 351.356 430.498 349.674 433.162 349.674C437.493 349.674 440.517 353.95 439.077 358.033L434.818 370.138H434.83Z" fill="#E9E1CE" stroke="#101727" stroke-width="2" stroke-miterlimit="10"/>
<path d="M448.124 370.138H434.818L440.542 353.866C441.429 351.356 443.793 349.674 446.457 349.674C450.788 349.674 453.812 353.95 452.372 358.033L448.112 370.138H448.124Z" fill="#E9E1CE" stroke="#101727" stroke-width="2" stroke-miterlimit="10"/>
<path d="M461.429 370.138H448.123L453.846 353.866C454.734 351.356 457.098 349.674 459.761 349.674C464.093 349.674 467.116 353.95 465.677 358.033L461.417 370.138H461.429Z" fill="#E9E1CE" stroke="#101727" stroke-width="2" stroke-miterlimit="10"/>
<path d="M643.804 237.459C634.637 220.851 605.685 215.17 590.316 226.411L537.715 370.03L529.508 370.654C524.289 371.051 519.682 374.209 517.414 378.929" stroke="#101727" stroke-width="2" stroke-miterlimit="10"/>
<path d="M461.549 224.045C469.036 222.34 473.655 224.141 477.243 228.657" stroke="#101727" stroke-width="2" stroke-miterlimit="10"/>
<path d="M600.022 195.703L581.389 250.814" stroke="#101727" stroke-width="2" stroke-miterlimit="10"/>
<path d="M562.24 100.374L578.498 140.785L536.432 166.725L525.285 150.608L562.24 100.374Z" stroke="#101727" stroke-width="2" stroke-miterlimit="10"/>
<path d="M695 645.799H24.9082" stroke="#101727" stroke-width="2" stroke-miterlimit="10"/>
<path d="M429.035 575.137H537.236" stroke="#101727" stroke-width="2" stroke-miterlimit="10"/>
<path d="M432.357 602.614H533.899" stroke="#101727" stroke-width="2" stroke-miterlimit="10"/>
<path d="M579.648 575.137H687.849" stroke="#101727" stroke-width="2" stroke-miterlimit="10"/>
<path d="M582.973 602.614H684.514" stroke="#101727" stroke-width="2" stroke-miterlimit="10"/>
<path d="M498.301 20.8646L493.582 22.5996L497.988 34.6051L502.707 32.8701L498.301 20.8646Z" fill="#01654D"/>
<path d="M505.607 31.8484C507.742 39.0419 506.135 43.6415 504.911 46.1635C502.331 45.0226 498.12 42.5126 495.096 35.5352C494.88 35.5593 494.664 35.5833 494.448 35.6073C492.805 35.7514 491.221 35.7514 489.709 35.6073C493.992 47.2323 501.395 50.1866 504.179 51.2914L504.299 51.3395C504.839 51.5556 505.391 51.6277 505.931 51.5796C507.083 51.4716 508.15 50.799 508.726 49.7062L508.798 49.5741C510.214 46.92 513.958 39.8586 509.71 28.2456C508.534 29.5906 507.155 30.8036 505.595 31.8364L505.607 31.8484Z" fill="white"/>
</g>
<defs>
<clipPath id="clip0_312_859">
<rect width="695" height="647" fill="white"/>
</clipPath>
</defs>
</svg>
