<svg width="32" height="32" viewBox="0 0 32 32" fill="none" xmlns="http://www.w3.org/2000/svg">
<g id="Outline_Old_Icons" clip-path="url(#clip0_312_939)">
<g id="Group">
<path id="Vector" d="M24.666 5.99984V3.33317H7.33268V0.666504H0.666016V21.3332C0.666016 22.4398 1.55935 23.3332 2.66602 23.3332C3.77268 23.3332 4.66602 22.4398 4.66602 21.3332V5.99984H27.3327V11.9998" stroke="#01654D" stroke-width="2" stroke-linecap="round" stroke-linejoin="round"/>
<path id="Vector_2" d="M2.66602 23.333H11.9993" stroke="#01654D" stroke-width="2" stroke-linecap="round" stroke-linejoin="round"/>
</g>
<g id="Group_2">
<path id="Vector_3" d="M23.334 31.3335C27.7523 31.3335 31.334 27.7518 31.334 23.3335C31.334 18.9152 27.7523 15.3335 23.334 15.3335C18.9157 15.3335 15.334 18.9152 15.334 23.3335C15.334 27.7518 18.9157 31.3335 23.334 31.3335Z" stroke="#01654D" stroke-width="2" stroke-linejoin="round"/>
<path id="Vector_4" d="M19.6934 23.3335H26.9734" stroke="#01654D" stroke-width="2" stroke-linecap="round" stroke-linejoin="round"/>
<path id="Vector_5" d="M23.334 26.9734V19.6934" stroke="#01654D" stroke-width="2" stroke-linecap="round" stroke-linejoin="round"/>
</g>
</g>
<defs>
<clipPath id="clip0_312_939">
<rect width="32" height="32" fill="white"/>
</clipPath>
</defs>
</svg>
