<svg width="578" height="544" viewBox="0 0 578 544" fill="none" xmlns="http://www.w3.org/2000/svg">
<g clip-path="url(#clip0_269_2056)">
<path d="M290.991 408.33V100.497" stroke="#101727" stroke-width="2" stroke-miterlimit="10"/>
<path d="M501.194 71.8921V138.313H89.751V71.8921" stroke="#101727" stroke-width="2" stroke-miterlimit="10"/>
<path d="M541.501 11.8716H460.879V109.917H541.501V11.8716Z" fill="#01654D" stroke="#101727" stroke-width="2" stroke-miterlimit="10"/>
<path d="M530.113 20.916H472.268V100.874H530.113V20.916Z" fill="#E9E1CE" stroke="#101727" stroke-width="2" stroke-miterlimit="10"/>
<path d="M509.569 8.66738C509.277 4.29175 505.645 0.836426 501.193 0.836426C496.742 0.836426 493.11 4.30012 492.818 8.66738H478.551V25.5842H523.836V8.66738H509.569Z" fill="#E8BD51" stroke="#101727" stroke-width="2" stroke-miterlimit="10"/>
<path d="M514.114 95.5861C519.345 95.5861 523.586 91.3459 523.586 86.1153C523.586 80.8847 519.345 76.6445 514.114 76.6445C508.882 76.6445 504.642 80.8847 504.642 86.1153C504.642 91.3459 508.882 95.5861 514.114 95.5861Z" fill="#E8BD51"/>
<path d="M480.97 41.3882H521.41" stroke="#101727" stroke-width="2" stroke-miterlimit="10"/>
<path d="M480.97 49.0601H521.41" stroke="#101727" stroke-width="2" stroke-miterlimit="10"/>
<path d="M480.97 56.7407H521.41" stroke="#101727" stroke-width="2" stroke-miterlimit="10"/>
<path d="M480.97 64.4126H521.41" stroke="#101727" stroke-width="2" stroke-miterlimit="10"/>
<path d="M480.97 72.0928H521.41" stroke="#101727" stroke-width="2" stroke-miterlimit="10"/>
<path d="M279.938 28.5039H302.045C323.349 28.5039 340.645 45.7973 340.645 67.0981V91.5113H241.347V67.0981C241.347 45.7973 258.643 28.5039 279.946 28.5039H279.938Z" fill="#E8BD51" stroke="#101727" stroke-width="2" stroke-miterlimit="10"/>
<path d="M312.656 86.8931H353.247C356.954 86.8931 359.966 89.8966 359.966 93.6113C359.966 97.3176 356.962 100.33 353.247 100.33H237.682C233.975 100.33 230.963 97.326 230.963 93.6113C230.963 89.905 233.967 86.8931 237.682 86.8931H246.108" fill="#E8BD51"/>
<path d="M312.656 86.8931H353.247C356.954 86.8931 359.966 89.8966 359.966 93.6113C359.966 97.3176 356.962 100.33 353.247 100.33H237.682C233.975 100.33 230.963 97.326 230.963 93.6113C230.963 89.905 233.967 86.8931 237.682 86.8931H246.108" stroke="#101727" stroke-width="2" stroke-miterlimit="10"/>
<path d="M296.222 28.5039C311.075 28.5039 329.057 39.9073 329.057 67.7256H317.601C317.601 46.065 300.038 28.5039 278.374 28.5039" stroke="#101727" stroke-width="2" stroke-miterlimit="10"/>
<path d="M89.7513 100.497H36.6924V39.9408L63.226 10.2568L89.7513 39.9408V100.497Z" fill="#E9E1CE" stroke="#101727" stroke-width="2" stroke-linejoin="round"/>
<path d="M142.818 100.497H89.7509V39.9408L63.2256 10.2568H116.285L142.818 39.9408V100.497Z" fill="#01654D" stroke="#101727" stroke-width="2" stroke-linejoin="round"/>
<path d="M89.751 39.9409H142.818" stroke="#101727" stroke-width="2" stroke-linejoin="round"/>
<path d="M66.8911 32.7207H59.5527V47.1527H66.8911V32.7207Z" fill="#E9E1CE" stroke="#101727" stroke-width="2" stroke-miterlimit="10"/>
<path d="M66.8911 57.46H59.5527V71.892H66.8911V57.46Z" fill="#E9E1CE" stroke="#101727" stroke-width="2" stroke-miterlimit="10"/>
<path d="M111.081 57.46H103.742V71.892H111.081V57.46Z" fill="#E8BD51" stroke="#101727" stroke-width="2" stroke-miterlimit="10"/>
<path d="M131.045 57.46H123.707V71.892H131.045V57.46Z" fill="#E8BD51" stroke="#101727" stroke-width="2" stroke-miterlimit="10"/>
<path d="M123.707 145.006C127.404 145.006 130.401 142.01 130.401 138.313C130.401 134.617 127.404 131.62 123.707 131.62C120.01 131.62 117.013 134.617 117.013 138.313C117.013 142.01 120.01 145.006 123.707 145.006Z" fill="#E8BD51" stroke="#101727" stroke-width="2" stroke-miterlimit="10"/>
<path d="M122.444 135.619L125.08 138.255L122.335 141.007" fill="#E8BD51"/>
<path d="M122.444 135.619L125.08 138.255L122.335 141.007" stroke="#101727" stroke-width="2" stroke-miterlimit="10"/>
<path d="M290.992 123.304C294.689 123.304 297.686 120.307 297.686 116.611C297.686 112.914 294.689 109.917 290.992 109.917C287.295 109.917 284.298 112.914 284.298 116.611C284.298 120.307 287.295 123.304 290.992 123.304Z" fill="#E8BD51" stroke="#101727" stroke-width="2" stroke-miterlimit="10"/>
<path d="M293.687 115.339L291.042 117.983L288.298 115.23" fill="#E8BD51"/>
<path d="M293.687 115.339L291.042 117.983L288.298 115.23" stroke="#101727" stroke-width="2" stroke-miterlimit="10"/>
<path d="M501.194 131.369C504.891 131.369 507.888 128.373 507.888 124.676C507.888 120.98 504.891 117.983 501.194 117.983C497.497 117.983 494.5 120.98 494.5 124.676C494.5 128.373 497.497 131.369 501.194 131.369Z" fill="#E8BD51" stroke="#101727" stroke-width="2" stroke-miterlimit="10"/>
<path d="M503.889 123.412L501.245 126.048L498.5 123.304" fill="#E8BD51"/>
<path d="M503.889 123.412L501.245 126.048L498.5 123.304" stroke="#101727" stroke-width="2" stroke-miterlimit="10"/>
<path d="M289.092 380.044C341.261 380.044 383.553 337.758 383.553 285.595C383.553 233.433 341.261 191.147 289.092 191.147C236.922 191.147 194.63 233.433 194.63 285.595C194.63 337.758 236.922 380.044 289.092 380.044Z" fill="#01654D"/>
<path d="M289.091 370.473C335.974 370.473 373.981 332.472 373.981 285.595C373.981 238.719 335.974 200.718 289.091 200.718C242.208 200.718 204.202 238.719 204.202 285.595C204.202 332.472 242.208 370.473 289.091 370.473Z" fill="#01654D"/>
<path d="M350.752 273.799L346.828 267.742L341.314 263.901L334.084 260.329L315.91 258.204L309.082 241.078L312.747 231.632L315.818 231.867L321.064 230.411L323.809 226.621L324.687 223.132L324.595 218.748L321.608 215.979L317.583 215.962L263.277 209.353L262.633 218.974L263.277 231.097L265.804 238.041L271.52 253.201L273.118 257.451L263.152 261.283L257.328 264.495L253.805 268.813L248.651 275.389L244.735 292.23L241.145 313.489L232.259 348.645L242.802 356.76L258.098 364.968L275.143 369.619L293.208 370.841L305.467 368.9L323.733 363.612L334.268 357.873L346.334 348.787L354.978 339.124L362.132 329.126L368.709 315.112L370.985 307.072L350.761 273.807L350.752 273.799ZM336.519 326.365C336.519 326.365 334.737 314.811 334.737 314.744L341.715 326.072L336.519 326.365Z" fill="#E9E1CE"/>
<path d="M243.555 302.094C243.555 302.094 235.171 338.17 232.644 348.987" stroke="#101727" stroke-width="2" stroke-miterlimit="10"/>
<path d="M270.272 217.535C272.406 216.037 274.791 215.669 276.791 216.229" stroke="#101727" stroke-width="2" stroke-miterlimit="10"/>
<path d="M328.219 360.943H293.209" stroke="#101727" stroke-width="2" stroke-miterlimit="10"/>
<path d="M315.383 257.451L331.599 260.036C335.306 260.63 338.837 262.002 341.967 264.069C344.929 266.026 347.473 268.57 349.422 271.54L370.977 308.026" stroke="#101727" stroke-width="2" stroke-miterlimit="10"/>
<path d="M237.472 352.978L245.254 287.946C246.927 273.991 256.726 262.353 270.197 258.329L273.134 257.451H293.861" stroke="#101727" stroke-width="2" stroke-miterlimit="10"/>
<path d="M263.277 209.353C259.269 240.517 272.524 255.912 277.519 261.701L277.778 261.994C279.828 264.37 282.858 265.441 285.778 265.048C287.142 264.864 288.481 264.37 289.685 263.533L289.945 263.358C296.237 259.041 312.939 247.579 317.031 216.355L263.277 209.353Z" stroke="#101727" stroke-width="2" stroke-miterlimit="10"/>
<path d="M317.039 216.355C323.223 214.247 326.838 221.09 323.809 226.629C320.78 232.167 316.562 231.958 313.224 231.824" stroke="#101727" stroke-width="2" stroke-miterlimit="10"/>
<path d="M286.874 217.56C286.088 223.91 282.649 230.151 277.059 234.192C273.645 236.652 279.553 239.196 284.808 233.841" stroke="#101727" stroke-width="2" stroke-miterlimit="10"/>
<path d="M292.296 237.238C303.316 232.486 305.299 225.366 307.333 215.083L317.031 216.347C312.939 247.57 296.237 259.032 289.945 263.349L289.685 263.525C288.48 264.362 287.142 264.855 285.778 265.039C282.857 265.433 279.828 264.362 277.778 261.986L277.519 261.693C274.147 257.777 267.001 249.478 263.955 234.895C272.113 240.517 282.807 241.321 292.296 237.229V237.238Z" fill="#101727" stroke="#101727" stroke-width="2" stroke-miterlimit="10"/>
<path d="M283.745 285.604C285.076 285.604 286.155 284.525 286.155 283.194C286.155 281.863 285.076 280.785 283.745 280.785C282.414 280.785 281.335 281.863 281.335 283.194C281.335 284.525 282.414 285.604 283.745 285.604Z" stroke="#101727" stroke-width="2" stroke-miterlimit="10"/>
<path d="M283.377 296.53C284.708 296.53 285.787 295.452 285.787 294.121C285.787 292.79 284.708 291.711 283.377 291.711C282.046 291.711 280.967 292.79 280.967 294.121C280.967 295.452 282.046 296.53 283.377 296.53Z" stroke="#101727" stroke-width="2" stroke-miterlimit="10"/>
<path d="M274.775 225.198C276.106 225.198 277.185 224.12 277.185 222.789C277.185 221.458 276.106 220.379 274.775 220.379C273.444 220.379 272.365 221.458 272.365 222.789C272.365 224.12 273.444 225.198 274.775 225.198Z" stroke="#101727" stroke-width="2" stroke-miterlimit="10"/>
<path d="M293.233 217.56C295.844 217.619 297.978 218.74 299.25 220.38" stroke="#101727" stroke-width="2" stroke-miterlimit="10"/>
<path d="M290.832 246.633C287.577 249.62 279.77 250.892 276.122 247.135" stroke="#E9E1CE" stroke-width="2" stroke-miterlimit="10"/>
<path d="M305.827 233.724L315.383 257.451L290.657 272.678L282.582 261.241L305.827 233.724Z" stroke="#101727" stroke-width="2" stroke-miterlimit="10"/>
<path d="M288.824 303.098C288.891 302.897 290.657 272.686 290.657 272.686" stroke="#101727" stroke-width="2" stroke-miterlimit="10"/>
<path d="M315.391 257.543L307.994 289.21C307.994 289.21 301.995 272.686 290.648 272.686C279.302 272.686 273.545 286.298 273.545 286.298L275.285 259.049" stroke="#101727" stroke-width="2" stroke-miterlimit="10"/>
<path d="M278.189 239.756C269.177 237.773 264.767 233.924 262.642 224.571C263.621 233.146 265.813 238.041 265.813 238.041L278.189 239.747V239.756Z" fill="#101727" stroke="#101727" stroke-width="2" stroke-miterlimit="10"/>
<path d="M336.259 326.373L333.791 312.008" stroke="#101727" stroke-width="2" stroke-miterlimit="10"/>
<path d="M331.967 308.771C337.791 299.743 348.643 292.607 362.14 293.058" stroke="#101727" stroke-width="2" stroke-miterlimit="10"/>
<path d="M318.286 205.872C350.786 217.769 373.989 248.976 373.989 285.595C373.989 332.472 335.984 370.473 289.1 370.473C242.217 370.473 204.211 332.472 204.211 285.595C204.211 251.134 224.753 221.467 254.266 208.173" stroke="#101727" stroke-width="2" stroke-miterlimit="10"/>
<path d="M265.253 194.184C224.628 204.751 194.639 241.672 194.639 285.595C194.639 337.76 236.928 380.044 289.1 380.044C341.272 380.044 383.562 337.76 383.562 285.595C383.562 244.073 356.769 208.809 319.517 196.15L291.644 186.763L265.244 194.184H265.253Z" stroke="#101727" stroke-width="2" stroke-miterlimit="10"/>
<path d="M284.272 337.894H274.532C271.352 337.894 268.767 335.317 268.767 332.129C268.767 328.95 271.344 326.365 274.532 326.365H282.732C285.636 326.365 287.82 323.721 287.267 320.868L285.1 309.582C284.506 306.453 286.556 303.441 289.677 302.838C292.807 302.244 295.819 304.294 296.421 307.415L298.396 317.764C298.396 317.764 305.986 318.801 309.492 326.348H341.883L322.277 291.577" stroke="#101727" stroke-width="2" stroke-miterlimit="10"/>
<path d="M285.786 349.414H273.294C270.114 349.414 267.528 346.837 267.528 343.65C267.528 340.47 270.106 337.885 273.294 337.885H284.272" stroke="#101727" stroke-width="2" stroke-miterlimit="10"/>
<path d="M294.188 360.943H276.541C273.361 360.943 270.775 358.367 270.775 355.179C270.775 352 273.353 349.415 276.541 349.415H286.766" stroke="#101727" stroke-width="2" stroke-miterlimit="10"/>
<path d="M296.129 224.378C292.38 221.492 289.368 224.562 289.368 224.562C289.368 224.562 291.853 223.416 294.807 227.282" stroke="#101727" stroke-width="2" stroke-linejoin="round"/>
<path d="M317.048 216.347L263.286 209.366L264.924 196.755C266.851 181.92 280.455 171.445 295.291 173.372C310.128 175.298 320.605 188.901 318.678 203.735L317.04 216.346L317.048 216.347Z" fill="#E8BD51"/>
<path d="M317.04 216.33L249.12 207.512C247.832 207.344 246.928 206.165 247.095 204.876C247.262 203.588 248.442 202.684 249.731 202.851L278.515 206.591" fill="#E8BD51"/>
<path d="M317.04 216.33L249.12 207.512C247.832 207.344 246.928 206.165 247.095 204.876C247.262 203.588 248.442 202.684 249.731 202.851L278.515 206.591" stroke="#101727" stroke-width="2" stroke-miterlimit="10"/>
<path d="M299.041 173.812C292.439 172.908 287.962 177.209 287.962 177.209" stroke="#101727" stroke-width="2" stroke-miterlimit="10"/>
<path d="M279.671 181.535L276.488 182.217L278.223 190.299L281.405 189.617L279.671 181.535Z" fill="#01654D"/>
<path d="M276.29 190.763C277.603 195.431 280.072 197.397 281.611 198.351C282.624 196.837 284.071 194.009 283.31 189.148C283.436 189.089 283.561 189.031 283.687 188.964C284.64 188.479 285.502 187.927 286.281 187.333C287.954 195.172 284.925 199.338 283.779 200.903L283.728 200.97C283.511 201.271 283.235 201.505 282.917 201.664C282.247 202.007 281.436 202.007 280.741 201.614L280.658 201.564C278.967 200.602 274.482 198.033 272.792 190.219C273.905 190.545 275.068 190.729 276.281 190.763H276.29Z" fill="white"/>
<path d="M116.2 455.065H9.39648V543.163H116.2V455.065Z" fill="#01654D" stroke="#101727" stroke-width="2" stroke-linejoin="round"/>
<path d="M107.833 455.065H1.0293V543.163H107.833V455.065Z" fill="#E9E1CE" stroke="#101727" stroke-width="2" stroke-linejoin="round"/>
<path d="M107.833 455.065H1.0293V470.827H107.833V455.065Z" fill="#E9E1CE" stroke="#101727" stroke-width="2" stroke-linejoin="round"/>
<path d="M9.84923 466.811C11.9843 466.811 13.7151 465.081 13.7151 462.946C13.7151 460.811 11.9843 459.081 9.84923 459.081C7.71419 459.081 5.9834 460.811 5.9834 462.946C5.9834 465.081 7.71419 466.811 9.84923 466.811Z" fill="#E9E1CE" stroke="#101727" stroke-width="2" stroke-linejoin="round"/>
<path d="M22.3004 466.811C24.4354 466.811 26.1662 465.081 26.1662 462.946C26.1662 460.811 24.4354 459.081 22.3004 459.081C20.1654 459.081 18.4346 460.811 18.4346 462.946C18.4346 465.081 20.1654 466.811 22.3004 466.811Z" fill="#E9E1CE" stroke="#101727" stroke-width="2" stroke-linejoin="round"/>
<path d="M34.7428 466.811C36.8778 466.811 38.6086 465.081 38.6086 462.946C38.6086 460.811 36.8778 459.081 34.7428 459.081C32.6077 459.081 30.877 460.811 30.877 462.946C30.877 465.081 32.6077 466.811 34.7428 466.811Z" fill="#E9E1CE" stroke="#101727" stroke-width="2" stroke-linejoin="round"/>
<path d="M62.7991 481.176H11.6982V532.27H62.7991V481.176Z" fill="#E8BD51" stroke="#101727" stroke-width="2" stroke-miterlimit="10"/>
<path d="M269.855 455.065H163.051V543.163H269.855V455.065Z" fill="#01654D" stroke="#101727" stroke-width="2" stroke-linejoin="round"/>
<path d="M261.488 455.065H154.684V543.163H261.488V455.065Z" fill="#E9E1CE" stroke="#101727" stroke-width="2" stroke-linejoin="round"/>
<path d="M202.814 481.176H163.051V494.638H202.814V481.176Z" fill="#E8BD51" stroke="#101727" stroke-width="2" stroke-miterlimit="10"/>
<path d="M249.899 481.176H210.136V494.638H249.899V481.176Z" fill="#E8BD51" stroke="#101727" stroke-width="2" stroke-miterlimit="10"/>
<path d="M202.814 499.993H163.051V513.454H202.814V499.993Z" fill="#E8BD51" stroke="#101727" stroke-width="2" stroke-miterlimit="10"/>
<path d="M249.899 499.993H210.136V513.454H249.899V499.993Z" fill="#E8BD51" stroke="#101727" stroke-width="2" stroke-miterlimit="10"/>
<path d="M202.814 518.817H163.051V532.278H202.814V518.817Z" fill="#E8BD51" stroke="#101727" stroke-width="2" stroke-miterlimit="10"/>
<path d="M249.899 518.817H210.136V532.278H249.899V518.817Z" fill="#E8BD51" stroke="#101727" stroke-width="2" stroke-miterlimit="10"/>
<path d="M163.051 468.05H219.022" stroke="#101727" stroke-width="2" stroke-miterlimit="10"/>
<path d="M423.509 455.065H316.705V543.163H423.509V455.065Z" fill="#01654D" stroke="#101727" stroke-width="2" stroke-linejoin="round"/>
<path d="M415.142 455.065H308.338V543.163H415.142V455.065Z" fill="#E9E1CE" stroke="#101727" stroke-width="2" stroke-linejoin="round"/>
<path d="M403.419 469.305H320.053V528.924H403.419V469.305Z" fill="#01654D" stroke="#101727" stroke-width="2" stroke-linejoin="round"/>
<path d="M349.507 502.411H341.867V510.049H349.507V502.411Z" fill="#E9E1CE"/>
<path d="M357.146 510.049H349.507V517.688H357.146V510.049Z" fill="#E9E1CE"/>
<path d="M364.786 510.049H357.146V517.688H364.786V510.049Z" fill="#E9E1CE"/>
<path d="M372.434 510.049H364.794V517.688H372.434V510.049Z" fill="#E9E1CE"/>
<path d="M380.073 502.411H372.434V510.049H380.073V502.411Z" fill="#E9E1CE"/>
<path d="M357.146 480.541H349.507V488.179H357.146V480.541Z" fill="#E9E1CE"/>
<path d="M357.146 488.179H349.507V495.818H357.146V488.179Z" fill="#E9E1CE"/>
<path d="M372.434 480.541H364.794V488.179H372.434V480.541Z" fill="#E9E1CE"/>
<path d="M372.434 488.179H364.794V495.818H372.434V488.179Z" fill="#E9E1CE"/>
<path d="M577.155 455.065H470.351V543.163H577.155V455.065Z" fill="#01654D" stroke="#101727" stroke-width="2" stroke-linejoin="round"/>
<path d="M568.787 455.065H461.983V543.163H568.787V455.065Z" fill="#E9E1CE" stroke="#101727" stroke-width="2" stroke-linejoin="round"/>
<path d="M496.09 521.503H542.471C542.471 521.503 556.864 519.628 556.864 505.514C556.864 496.571 549.475 489.208 540.296 489.551C536.706 481.98 529.016 476.726 520.08 476.726H511.896L496.09 521.503Z" fill="#01654D" stroke="#101727" stroke-width="2" stroke-linejoin="round"/>
<path d="M547.492 505.514C547.492 496.571 540.104 489.208 530.924 489.551C527.335 481.98 519.645 476.726 510.708 476.726C498.793 476.726 489.078 486.037 488.384 497.767C480.92 496.211 473.916 501.892 473.916 509.505C473.916 521.687 486.71 521.503 486.71 521.503H533.092C533.092 521.503 547.484 519.628 547.484 505.514H547.492Z" fill="#E8BD51" stroke="#101727" stroke-width="2" stroke-miterlimit="10"/>
<path d="M54.4316 454.872V408.33H515.394V454.872" stroke="#101727" stroke-width="2" stroke-miterlimit="10"/>
<path d="M208.085 454.872V408.33H360.969V454.872" stroke="#101727" stroke-width="2" stroke-miterlimit="10"/>
<path d="M208.086 436.592C211.783 436.592 214.78 433.595 214.78 429.899C214.78 426.202 211.783 423.206 208.086 423.206C204.389 423.206 201.392 426.202 201.392 429.899C201.392 433.595 204.389 436.592 208.086 436.592Z" fill="#E8BD51" stroke="#101727" stroke-width="2" stroke-miterlimit="10"/>
<path d="M210.78 428.627L208.136 431.271L205.392 428.526" fill="#E8BD51"/>
<path d="M210.78 428.627L208.136 431.271L205.392 428.526" stroke="#101727" stroke-width="2" stroke-miterlimit="10"/>
<path d="M130.401 415.023C134.098 415.023 137.095 412.027 137.095 408.33C137.095 404.634 134.098 401.637 130.401 401.637C126.704 401.637 123.707 404.634 123.707 408.33C123.707 412.027 126.704 415.023 130.401 415.023Z" fill="#E8BD51" stroke="#101727" stroke-width="2" stroke-miterlimit="10"/>
<path d="M131.665 411.024L129.029 408.38L131.774 405.636" fill="#E8BD51"/>
<path d="M131.665 411.024L129.029 408.38L131.774 405.636" stroke="#101727" stroke-width="2" stroke-miterlimit="10"/>
<path d="M454.184 415.023C457.881 415.023 460.878 412.027 460.878 408.33C460.878 404.634 457.881 401.637 454.184 401.637C450.487 401.637 447.49 404.634 447.49 408.33C447.49 412.027 450.487 415.023 454.184 415.023Z" fill="#E8BD51" stroke="#101727" stroke-width="2" stroke-miterlimit="10"/>
<path d="M452.921 405.636L455.565 408.272L452.812 411.024" fill="#E8BD51"/>
<path d="M452.921 405.636L455.565 408.272L452.812 411.024" stroke="#101727" stroke-width="2" stroke-miterlimit="10"/>
<path d="M290.992 400.884C294.689 400.884 297.686 397.888 297.686 394.191C297.686 390.495 294.689 387.498 290.992 387.498C287.295 387.498 284.298 390.495 284.298 394.191C284.298 397.888 287.295 400.884 290.992 400.884Z" fill="#E8BD51" stroke="#101727" stroke-width="2" stroke-miterlimit="10"/>
<path d="M293.687 392.919L291.042 395.563L288.298 392.811" fill="#E8BD51"/>
<path d="M293.687 392.919L291.042 395.563L288.298 392.811" stroke="#101727" stroke-width="2" stroke-miterlimit="10"/>
<path d="M509.344 408.331H530.372" stroke="#101727" stroke-width="2" stroke-miterlimit="10"/>
<path d="M536.781 414.731C540.316 414.731 543.182 411.865 543.182 408.33C543.182 404.796 540.316 401.93 536.781 401.93C533.246 401.93 530.38 404.796 530.38 408.33C530.38 411.865 533.246 414.731 536.781 414.731Z" fill="#01654D" stroke="#101727" stroke-width="2" stroke-linejoin="round"/>
<path d="M553.767 414.731C557.303 414.731 560.169 411.865 560.169 408.33C560.169 404.796 557.303 401.93 553.767 401.93C550.232 401.93 547.366 404.796 547.366 408.33C547.366 411.865 550.232 414.731 553.767 414.731Z" fill="#01654D" stroke="#101727" stroke-width="2" stroke-linejoin="round"/>
<path d="M570.754 414.731C574.289 414.731 577.155 411.865 577.155 408.33C577.155 404.796 574.289 401.93 570.754 401.93C567.218 401.93 564.353 404.796 564.353 408.33C564.353 411.865 567.218 414.731 570.754 414.731Z" fill="#01654D" stroke="#101727" stroke-width="2" stroke-linejoin="round"/>
<path d="M68.6563 408.331H47.6201" stroke="#101727" stroke-width="2" stroke-miterlimit="10"/>
<path d="M41.2186 414.731C44.7539 414.731 47.6198 411.865 47.6198 408.33C47.6198 404.796 44.7539 401.93 41.2186 401.93C37.6833 401.93 34.8174 404.796 34.8174 408.33C34.8174 411.865 37.6833 414.731 41.2186 414.731Z" fill="#01654D" stroke="#101727" stroke-width="2" stroke-linejoin="round"/>
<path d="M24.2323 414.731C27.7676 414.731 30.6335 411.865 30.6335 408.33C30.6335 404.796 27.7676 401.93 24.2323 401.93C20.697 401.93 17.8311 404.796 17.8311 408.33C17.8311 411.865 20.697 414.731 24.2323 414.731Z" fill="#01654D" stroke="#101727" stroke-width="2" stroke-linejoin="round"/>
<path d="M7.23812 414.731C10.7734 414.731 13.6393 411.865 13.6393 408.33C13.6393 404.796 10.7734 401.93 7.23812 401.93C3.70283 401.93 0.836914 404.796 0.836914 408.33C0.836914 411.865 3.70283 414.731 7.23812 414.731Z" fill="#01654D" stroke="#101727" stroke-width="2" stroke-linejoin="round"/>
</g>
<defs>
<clipPath id="clip0_269_2056">
<rect width="578" height="544" fill="white"/>
</clipPath>
</defs>
</svg>
