<?xml version="1.0" encoding="UTF-8"?><svg id="Layer_2" xmlns="http://www.w3.org/2000/svg" viewBox="0 0 360 460"><rect x="2.06" y="4.94" width="355.88" height="450.12" rx="4" ry="4" fill="#01654d"/><path d="M277.8,173.68h-.69c.16-6.57.61-28.87-.57-39.7-4.92-45.19-37.08-64.3-73.03-72.78h0c10.24-13.68-3.51-29.56-28.42-30.13-24.91-.58-43.31,6.53-34.81,26.14h0c-32.49,7.69-49.98,35.61-59.45,48.33-11.59,15.57-11.04,38.67-7.96,69.93-1.56,37.33-5.67,98.12-4.52,110.81,1.15,12.68,10.95,57.7,46.19,82.4,31.98,22.41,51.29,23.41,60.73,23.41s33.08,0,57.63-22.61c31.66-29.16,43.67-66.59,44.82-79.27s1.62-79.19.06-116.51Z" fill="#101727"/><path d="M87.05,127.12c-1.33,5.49-3.11,12.72-2.46,17.52s2.07,22.06,2.66,25.39,2.2,9.07,2.2,9.07c0,0-1.84,1.48-1.94,2.92s-1.72,9.62-1.72,9.62l-3.37,19.78-1.56,19.96-.13,16.94,1.63,8.91,4,10.51,5.92,5.87,7.18,3.37,7.78,1.51,5.51.28,3.21-8.86,7.17-9.04,6.41-5.64,7.42-3.91,6.87-.5h5.67s8.14.94,8.14.94l7.39,2.56,4.72,1.62,3.37,1.13,4.7.39,5.84-2.34,4.54-2.59,2.55-.68,5.53.52,4.35-.37,3.28-1.62,7.42.86,9.01,2.95,5.84,4.4,3.62,4.41,3.74,5.56,3.16,7.25,1.08,2.38,6.63.23,7.57-1.1,4.72-2.96,5.62-4.21,2.78-4.55,1.61-3.21,2.46-8.38,1.08-13.62-.94-10.88-1.19-15.93-1.69-13.33-2.19-8.14v-6.49l-2.75-6.74.98-3.66s1.94-12.12,2.1-12.47,1.43-12.48,1.43-12.48l-.33-8.22-1.12-13.55-4.32-10.74-5.87-7.06-4.14-6.16-12.68-7.96-6.2-3.42-9.15-2.23-10.74-2.99-21.48-1.62-14.05.57-10.67.04-23.89.94-12.97,2.7-18.16,6.31-8.56,7.26-8.59,10.65-6.01,12.37Z" fill="#e9e1ce"/><polygon points="145.26 282.21 131.68 290.93 144.9 301.77 160.39 308.43 177.15 310.72 186.08 309.81 200.89 304.8 209.82 298.61 217.69 292.21 206.37 283.9 202.18 279.56 199.78 275.77 179.64 277.88 161.39 276.18 150.39 274.83 145.26 282.21" fill="#e9e1ce"/><polygon points="72.77 194.84 71.76 192.37 68.59 192.89 66.53 196.23 63.81 204.68 62.59 213.67 62.83 224.19 64.81 232.69 69.43 247.73 72.77 194.84" fill="#e9e1ce"/><polygon points="277.8 194.84 278.81 192.37 281.98 192.89 284.04 196.23 286.13 204.71 286.47 213.26 286.13 223.79 284.55 232.29 279.06 246.4 277.8 194.84" fill="#e9e1ce"/><polygon points="116.35 371.16 141.21 391.6 151.35 399 161.36 403.69 171.78 417.5 179.2 436.37 186.83 415.43 195.2 403.62 198.98 400.44 207.4 395.65 225.18 381.35 240.35 363.91 231.52 371.11 216.1 381.81 203.81 387.62 193.15 390.97 179.13 391.51 161.54 390.39 150.91 387.58 135.53 381.56 119.74 372.2 116.35 371.16" fill="#e9e1ce"/><circle cx="127.55" cy="197.72" r="8.33" fill="none" stroke="#101727" stroke-miterlimit="10" stroke-width="2"/><circle cx="152.74" cy="240.13" r="3" fill="#e8bd51" stroke="#101727" stroke-miterlimit="10" stroke-width="2"/><circle cx="223.02" cy="197.72" r="8.33" fill="none" stroke="#101727" stroke-miterlimit="10" stroke-width="2"/><path d="M168.61,188.68c3.31-3.53,10.23-3.86,13.21-.03" fill="none" stroke="#101727" stroke-miterlimit="10" stroke-width="2"/><path d="M176.68,198.6c1.63,10.14,15.69,32.49,25.01,39.94,7.34,5.87,2.02,15.85-7.23,13.48-7.13-1.83-11.55,5.24-18.71,5.24-7.93,0-13.71-5.67-23.28-5.91-11.39-.29-10.23-9.37-7.49-13.12" fill="none" stroke="#101727" stroke-miterlimit="10" stroke-width="2"/><path d="M262.32,177.59c-.66-4.47,9.34-34.49-1.18-56.68-17.54-37.01-61.54-34.59-85.78-34.59h-.14c-24.24,0-68.24-2.42-85.78,34.59-10.52,22.2-.52,52.22-1.18,56.68" fill="none" stroke="#101727" stroke-miterlimit="10" stroke-width="2"/><polyline points="86.34 184.62 68.96 180.73 69.83 175.05 90.64 177.93" fill="#e8bd51" stroke="#101727" stroke-miterlimit="10" stroke-width="2"/><polyline points="259.93 177.93 280.74 175.05 281.61 180.73 264.23 184.62" fill="#e8bd51" stroke="#101727" stroke-miterlimit="10" stroke-width="2"/><path d="M86.38,188.04c-3.47,12.66-9.8,60.14-1.79,75.9,6.74,13.26,20.14,15.57,28.22,14.22,6.41-19.03,19.1-28.11,35.59-27.41" fill="none" stroke="#101727" stroke-miterlimit="10" stroke-width="2"/><path d="M264.19,188.04c3.47,12.66,9.8,60.14,1.79,75.9-6.74,13.26-20.14,15.57-28.22,14.22-6.41-19.03-19.1-28.11-35.59-27.41" fill="none" stroke="#101727" stroke-miterlimit="10" stroke-width="2"/><path d="M72.88,175.47c-3.07-31.27-3.63-54.36,7.96-69.93,11.59-15.57,35.18-53.91,83.61-50.06s105.41,17.1,112.09,78.5c1.39,12.79.52,41.58.52,41.58" fill="none" stroke="#101727" stroke-miterlimit="10" stroke-width="2"/><path d="M99.19,175.07c22.64-13.51,45.71-11.4,54.13,3.09" fill="none" stroke="#101727" stroke-miterlimit="10" stroke-width="2"/><path d="M251.38,175.07c-22.64-13.51-45.71-11.4-54.13,3.09" fill="none" stroke="#101727" stroke-miterlimit="10" stroke-width="2"/><path d="M277.53,181.64c1.56,37.33,1.37,95.87.21,108.55s-13.17,50.11-44.83,79.27c-24.55,22.61-48.19,22.61-57.63,22.61s-28.75-.99-60.73-23.41c-35.24-24.7-45.04-69.71-46.19-82.4-1.15-12.68,3.12-67.31,4.68-104.64" fill="none" stroke="#101727" stroke-miterlimit="10" stroke-width="2"/><path d="M69.53,245.98c-10.64-18.72-7.07-60.07,2.98-52.74" fill="none" stroke="#101727" stroke-miterlimit="10" stroke-width="2"/><path d="M278.06,193.23c10.05-7.33,11.23,35.19.59,53.91" fill="none" stroke="#101727" stroke-miterlimit="10" stroke-width="2"/><path d="M152.74,268.24c-3,12.25-11.21,18.74-21.3,23.06,25.9,23.06,56.02,28.25,86.24.91-10.62-5.33-16.86-11.72-19.86-23.97" fill="none" stroke="#101727" stroke-linejoin="round" stroke-width="2"/><path d="M199.54,274.83c-7.94,3.27-34.08,3.93-49.15,0" fill="none" stroke="#101727" stroke-miterlimit="10" stroke-width="2"/><path d="M145.26,282.21c5.21,8.36,38.86,15.71,59.87,0" fill="none" stroke="#101727" stroke-miterlimit="10" stroke-width="2"/><path d="M175.28,455.06s1.54-26.68,22.28-54.7c14.41-4.9,43.27-33.3,47.09-43.04,11.29,38.91-12.96,69.43-26.41,75.77-2.31-14.89-20.68-32.73-20.68-32.73" fill="none" stroke="#101727" stroke-linecap="round" stroke-linejoin="round" stroke-width="2"/><path d="M179.2,436.37c-9.7-28.01-17.51-34.04-25.56-36.63-19.79-10.86-52.27-42.42-52.27-42.42,0,0-4.87,41.53,40.94,73.36,1.18-29.24,11.34-30.94,11.34-30.94" fill="none" stroke="#101727" stroke-linecap="round" stroke-linejoin="round" stroke-width="2"/><line x1="88.69" y1="341.53" x2="2.06" y2="364.73" fill="none" stroke="#101727" stroke-linecap="round" stroke-linejoin="round" stroke-width="2"/><line x1="256.57" y1="341.53" x2="357.5" y2="368.4" fill="none" stroke="#101727" stroke-linejoin="round" stroke-width="2"/><path d="M157.28,178.39l-58.09-3.32c-7.7-.44-13.86,6.32-12.71,13.95l3.14,20.81c2.19,14.48,14.63,25.19,29.28,25.19h14.62c12.9,0,24.31-8.35,28.22-20.63l6.42-20.18c2.41-7.56-2.96-15.37-10.89-15.82ZM163.41,192.69l-6.42,20.18c-3.26,10.26-12.69,17.15-23.46,17.15h-14.62c-12.27,0-22.51-8.81-24.34-20.94l-3.14-20.81c-.32-2.09.27-4.13,1.65-5.73,1.36-1.58,3.33-2.49,5.41-2.49.14,0,.28,0,.43.01l58.09,3.32c2.22.13,4.22,1.25,5.48,3.09,1.26,1.83,1.6,4.1.92,6.22Z" fill="#e8bd51" stroke="#101727" stroke-miterlimit="10" stroke-width="2"/><path d="M251.38,175.07l-58.09,3.32c-7.92.45-13.29,8.26-10.89,15.82l6.42,20.18c3.91,12.29,15.32,20.63,28.22,20.63h14.62c14.65,0,27.09-10.71,29.28-25.19l3.14-20.81c1.15-7.63-5.01-14.39-12.71-13.95ZM259.14,188.27l-3.14,20.81c-1.83,12.13-12.07,20.94-24.34,20.94h-14.62c-10.77,0-20.19-6.89-23.46-17.15l-6.42-20.18c-.67-2.12-.34-4.39.92-6.22,1.26-1.83,3.26-2.96,5.48-3.09l58.09-3.32c.14,0,.29-.01.43-.01,2.07,0,4.04.91,5.41,2.49,1.38,1.6,1.96,3.64,1.65,5.73Z" fill="#e8bd51" stroke="#101727" stroke-miterlimit="10" stroke-width="2"/><rect x="2.06" y="4.94" width="355.88" height="450.12" rx="4" ry="4" fill="none" stroke="#101727" stroke-miterlimit="10" stroke-width="2"/></svg>