<svg width="380" height="480" viewBox="0 0 380 480" fill="none" xmlns="http://www.w3.org/2000/svg">
<g clip-path="url(#clip0_364_162)">
<path d="M374.939 1.06152H5.0625C2.85336 1.06152 1.0625 2.85237 1.0625 5.06151V474.938C1.0625 477.147 2.85337 478.938 5.06251 478.938H374.939C377.148 478.938 378.939 477.147 378.939 474.938V5.06152C378.939 2.85238 377.148 1.06152 374.939 1.06152Z" fill="#01654D" stroke="#101727" stroke-width="2" stroke-miterlimit="10"/>
<path d="M195.266 49.5904L170.972 48.9746L145.467 52.8285L127.024 59.1666L109.716 70.4096L101.02 79.2214L97.9939 84.9014L93.1733 95.6348L87.2696 107.101L80.8138 124.056L78.9981 146.117L78.7539 172.361V191.981L284.224 166.182L284.426 144.843L281.379 119.883L275.889 105.508L266.471 91.1439L259.697 85.0606L261.905 78.1916L256.055 68.3394L246.913 60.7803L237.282 55.6843L221.981 52.2552L208.645 49.9513L195.266 49.5904Z" fill="#E8BD51"/>
<path d="M78.9999 189.645L79.4565 216.42L74.1474 213.151L66.8634 209.36L58.6981 212.078L53.6227 217.525L52.1255 223.364L51.7539 232.537L54.281 241.083L59.0167 265.14L64.4319 285.652L68.849 291.013H74.5722L78.9999 286.894L81.6544 297.999L85.8486 311.652L94.9164 329.626L104.313 342.196L108.72 346.931L114.836 438.33L117.119 441.249L124.254 450.135L132.207 455.677L146.966 464.51L159.665 469.352L176.06 472.653L192.603 473.216L206.725 471.071L223.215 466.687L236.307 459.255L249.463 449.371L259.189 439.763L263.181 433.573V336.983L275.742 317.65L280.659 301.64L283.759 287.117L285.819 290.058L290.714 291.416L295.163 289.325L299.198 277.615L303.53 257.581L307.883 232.961L307.129 219.404L302.012 211.271L297.297 209.997L288.834 213.151L284.789 216.941L284.226 182.511V162.721L277.356 141.754L270.752 123.111L261.472 103.873L251.438 91.4625L248.369 90.8467L231.964 89.8169L211.365 90.4433L192.305 89.8169H170.379L149.44 92.8108L130.678 97.7582L112.999 106.22L107.233 112.144L102.254 118.291L94.4386 132.071L86.7511 153.814L78.9999 189.645Z" fill="#E9E1CE"/>
<path d="M139.5 229.521C145.37 229.521 150.128 224.763 150.128 218.894C150.128 213.025 145.37 208.267 139.5 208.267C133.63 208.267 128.871 213.025 128.871 218.894C128.871 224.763 133.63 229.521 139.5 229.521Z" stroke="#101727" stroke-width="2" stroke-miterlimit="10"/>
<path d="M241.156 228.46C247.026 228.46 251.785 223.702 251.785 217.832C251.785 211.963 247.026 207.205 241.156 207.205C235.286 207.205 230.527 211.963 230.527 217.832C230.527 223.702 235.286 228.46 241.156 228.46Z" stroke="#101727" stroke-width="2" stroke-miterlimit="10"/>
<path d="M150.587 260.448H125.379C112.319 260.448 101.531 250.277 100.766 237.24L99.418 214.308C98.5897 200.145 109.845 188.212 124.031 188.212H151.935C166.121 188.212 177.376 200.156 176.548 214.308L175.199 237.24C174.435 250.266 163.636 260.448 150.587 260.448Z" stroke="#101727" stroke-width="2" stroke-miterlimit="10"/>
<path d="M263.754 256.084H238.547C225.487 256.084 214.699 245.914 213.934 232.876L212.586 209.944C211.758 195.782 223.013 183.849 237.199 183.849H265.103C279.289 183.849 290.544 195.792 289.716 209.944L288.367 232.876C287.603 245.903 276.804 256.084 263.754 256.084Z" stroke="#101727" stroke-width="2" stroke-miterlimit="10"/>
<path d="M174.699 203.362C202.221 196.737 212.553 202.768 212.553 202.768" stroke="#101727" stroke-width="2" stroke-miterlimit="10"/>
<path d="M191.029 204.541C193.673 220.869 206.924 252.507 214.569 259.121C222.225 265.746 219.135 273.984 209.568 275.3C200.001 276.628 182.492 273.241 182.492 273.241" stroke="#101727" stroke-width="2" stroke-miterlimit="10"/>
<path d="M101.02 186.938C108.601 182.224 134.817 177.394 148.705 179.507" stroke="#101727" stroke-width="2" stroke-miterlimit="10"/>
<path d="M280.753 181.767C272.991 177.362 246.595 173.593 232.812 176.268" stroke="#101727" stroke-width="2" stroke-miterlimit="10"/>
<path d="M171.758 307.681C186.474 314.943 205.184 317.289 218.881 306.503" stroke="#101727" stroke-width="2" stroke-miterlimit="10"/>
<path d="M79.0711 218.809C68.6548 200.262 47.4823 213.904 52.5047 232.961C56.2741 247.241 61.0735 291.416 71.957 291.416C78.9543 291.416 79.4428 284.335 79.4428 284.335" stroke="#101727" stroke-width="2" stroke-miterlimit="10"/>
<path d="M284.437 218.809C293.633 200.262 312.32 213.904 307.882 232.961C304.559 247.241 300.237 291.427 290.713 291.416C284.533 291.416 283.758 284.579 283.758 284.579" stroke="#101727" stroke-width="2" stroke-miterlimit="10"/>
<path d="M107.711 345.89L114.836 438.329C151.351 487.134 228.938 483.992 263.181 433.573V336.983" stroke="#101727" stroke-width="2" stroke-miterlimit="10"/>
<path d="M99.4823 210.571L79 211.749" stroke="#101727" stroke-width="2" stroke-miterlimit="10"/>
<path d="M112.128 410.96L1.0625 443.829" stroke="#101727" stroke-width="2" stroke-miterlimit="10"/>
<path d="M263.18 410.96L378.938 448.32" stroke="#101727" stroke-width="2" stroke-miterlimit="10"/>
<path d="M79 205.867C79 205.867 80.9643 125.446 117.108 104.054C153.252 82.661 216.398 91.2499 249.25 90.5174C273.629 89.9759 262.799 50.3015 201.819 50.3015C201.819 50.3015 111.035 36.5211 92.4956 97.7473C83.9586 110.997 79 126.773 79 143.707V274.727C79 331.388 124.944 377.326 181.613 377.326C238.282 377.326 284.226 331.388 284.226 274.727V143.707C284.226 120.732 275.105 99.8919 260.283 84.6039" stroke="#101727" stroke-width="2" stroke-miterlimit="10"/>
<path d="M250.555 90.4434C268.234 110.615 284.225 148.336 284.225 179.825" stroke="#101727" stroke-width="2" stroke-miterlimit="10"/>
</g>
<defs>
<clipPath id="clip0_364_162">
<rect width="380" height="480" fill="white"/>
</clipPath>
</defs>
</svg>
