<svg width="380" height="480" viewBox="0 0 380 480" fill="none" xmlns="http://www.w3.org/2000/svg">
<g clip-path="url(#clip0_364_263)">
<path d="M374.939 1.06152H5.0625C2.85336 1.06152 1.0625 2.85237 1.0625 5.06151V474.938C1.0625 477.147 2.85337 478.938 5.06251 478.938H374.939C377.148 478.938 378.939 477.147 378.939 474.938V5.06152C378.939 2.85238 377.148 1.06152 374.939 1.06152Z" fill="#01654D" stroke="#101727" stroke-width="2" stroke-miterlimit="10"/>
<path d="M1.06354 414.665C21.7794 337.769 45.4684 231.666 50.0129 185.26C56.6811 117.186 105.344 48.9639 196.373 48.9639C306.047 48.9639 309.36 139.354 309.36 139.354C309.36 139.354 311.674 158.453 315.539 184.836L326.062 251.137L332.316 281.596L336.807 299.984L344.166 323.447L350.866 337.429L357.566 352.186L368.311 377.008L379.269 400.715L378.951 478.928L0.734375 479.554L1.07415 414.654" fill="#101727"/>
<path d="M228.066 479.183L378.939 478.938V434.678L257.372 398.156L256.491 413.327L255.705 425.197L254.75 433.212L250.311 448.129L240.67 464.33L231.868 477.441L230.371 478.832L228.066 479.183Z" fill="#01654D"/>
<path d="M213.826 81.4829L209.026 86.8762L200.787 90.1036L184.998 93.8407L165.375 100.359L149.916 109.383L136.685 124.47L124.591 142.911L115.747 160.439L109.567 178.466L102.346 202.502L98.8213 222.376L95.7739 247.612L94.3086 264.238L95.5509 281.532L95.243 287.35L98.078 299.814L102.4 309.921L109.705 317.703L120.939 327.534L132.512 337.557L142.77 422.596L145.116 434.911L150.999 449.785L158.92 462.122L171.481 479.565L229.679 478.938L232.917 477.102L249.768 448.734L255.926 425.441L256.967 409.75L258.231 397.721L262.711 329.711L281.548 314.157L286.623 306.503L290.01 300.027L291.996 289.474L293.281 277.997L299.131 276.267L309.834 271.043L323.341 253.611L328.639 237.866L332.536 220.911L333.343 205.974L332.101 195.899L326.123 186.651L319.147 184.942L312.956 185.547L307.573 188.35L301.149 193.393L296.785 201.324L292.803 212.524L291.221 179.942L288.375 163.571L285.742 154.398L280.688 142.051L273.043 130.574L262.393 122.336L253.283 116.146L247.241 113.237L237.727 110.02L226.621 105.285L220.207 100.922L216.438 97.323L214.665 93.5965L213.295 90.8468L212.998 85.7933L213.826 81.4829Z" fill="#E9E1CE"/>
<path d="M228.949 217.949C234.819 217.949 239.578 213.191 239.578 207.322C239.578 201.453 234.819 196.695 228.949 196.695C223.079 196.695 218.32 201.453 218.32 207.322C218.32 213.191 223.079 217.949 228.949 217.949Z" stroke="#101727" stroke-width="2" stroke-miterlimit="10"/>
<path d="M135.836 224.213C141.706 224.213 146.464 219.455 146.464 213.586C146.464 207.716 141.706 202.958 135.836 202.958C129.966 202.958 125.207 207.716 125.207 213.586C125.207 219.455 129.966 224.213 135.836 224.213Z" stroke="#101727" stroke-width="2" stroke-miterlimit="10"/>
<path d="M304.695 266.881C307.276 266.881 309.367 264.79 309.367 262.21C309.367 259.63 307.276 257.539 304.695 257.539C302.115 257.539 300.023 259.63 300.023 262.21C300.023 264.79 302.115 266.881 304.695 266.881Z" fill="#E8BD51" stroke="#101727" stroke-width="2" stroke-miterlimit="10"/>
<path d="M169.062 198.999C177.694 217.832 177.004 240 163.423 260.405C158.72 267.476 161.809 275.661 171.419 278.517C182.897 281.936 189.374 275.948 191.721 272.805" stroke="#101727" stroke-width="2" stroke-miterlimit="10"/>
<path d="M150.587 297.086C148.92 296.895 148.113 299.082 149.515 299.995C156.449 304.528 173.671 309.369 185.436 308.934C197.54 308.488 215.389 302.702 221.909 297.733C223.173 296.767 222.27 294.75 220.699 294.994C207.33 297.107 205.207 294.272 184.703 294.272C164.2 294.272 161.004 298.254 150.577 297.086H150.587Z" stroke="#101727" stroke-width="2" stroke-miterlimit="10"/>
<path d="M178.129 316.111C184.797 316.896 189.703 316.992 193.918 316.111" stroke="#101727" stroke-width="2" stroke-miterlimit="10"/>
<path d="M292.805 207.216V282.297C292.805 296.767 286.36 310.484 275.232 319.72L228.544 358.461C207.382 376.021 176.611 375.702 155.81 357.717L111.851 319.689C101.17 310.452 95.043 297.033 95.043 282.913V250.999" stroke="#101727" stroke-width="2" stroke-miterlimit="10"/>
<path d="M292.805 213.904C292.805 213.904 298.071 180.738 322.928 185.261C344.164 189.125 330.573 277.434 292.805 277.434" stroke="#101727" stroke-width="2" stroke-miterlimit="10"/>
<path d="M209.867 180.812C223.596 176.374 234.905 176.151 243.866 177.808C255.175 179.899 265.272 190.622 265.272 190.622" stroke="#101727" stroke-width="2" stroke-miterlimit="10"/>
<path d="M141.359 182.797C126.94 182.235 111.395 187.989 105.746 190.601" stroke="#101727" stroke-width="2" stroke-miterlimit="10"/>
<path d="M95.043 252.358C97.9842 198.213 117.628 145.193 141.359 118.45C168.52 87.8526 210.005 96.484 213.827 80.3042C213.827 80.3042 206.501 99.8919 235.361 108.767C278.725 122.102 292.805 146.616 292.805 210.57" stroke="#101727" stroke-width="2" stroke-miterlimit="10"/>
<path d="M1.0625 414.665C21.7784 337.769 45.4673 231.666 50.0119 185.26C56.68 117.186 105.343 48.9639 196.372 48.9639C306.046 48.9639 309.359 139.354 309.359 139.354C309.359 139.354 311.673 158.453 315.538 184.836" stroke="#101727" stroke-width="2" stroke-miterlimit="10"/>
<path d="M325.645 246.604C331.644 279.144 338.79 310.611 346.191 327.099C355.11 346.952 367.83 374.778 378.937 398.952" stroke="#101727" stroke-width="2" stroke-miterlimit="10"/>
<path d="M230.688 479.182L243.408 460.253C250.894 449.105 255.29 436.174 256.139 422.765L261.968 330.708" stroke="#101727" stroke-width="2" stroke-miterlimit="10"/>
<path d="M131.855 336.983L142.973 424.241C144.565 436.705 149.227 448.585 156.543 458.809L170.962 478.949" stroke="#101727" stroke-width="2" stroke-miterlimit="10"/>
<path d="M242.176 478.938L250.511 466.528C257.997 455.38 262.393 442.449 263.242 429.04L265.037 400.726" stroke="#101727" stroke-width="2" stroke-miterlimit="10"/>
<path d="M257.754 398.549L378.938 434.677" stroke="#101727" stroke-width="2" stroke-miterlimit="10"/>
<path d="M131.07 287.096C128.586 288.688 127.705 294.379 129.573 296.725" stroke="#101727" stroke-width="2" stroke-miterlimit="10"/>
<path d="M247.284 293.147C248.346 290.397 245.692 285.29 242.793 284.494" stroke="#101727" stroke-width="2" stroke-miterlimit="10"/>
<path d="M374.939 1.06152H5.0625C2.85336 1.06152 1.0625 2.85237 1.0625 5.06151V474.938C1.0625 477.147 2.85337 478.938 5.06251 478.938H374.939C377.148 478.938 378.939 477.147 378.939 474.938V5.06152C378.939 2.85238 377.148 1.06152 374.939 1.06152Z" stroke="#101727" stroke-width="2" stroke-miterlimit="10"/>
</g>
<defs>
<clipPath id="clip0_364_263">
<rect width="380" height="480" fill="white"/>
</clipPath>
</defs>
</svg>
