<?xml version="1.0" encoding="UTF-8"?><svg id="Layer_2" xmlns="http://www.w3.org/2000/svg" viewBox="0 0 360 460"><path d="M357.94,8.94v349.19c-7.27-1.67-11.71-9.08-12.26-10.11-19.68-33.54-23.31-69.08-27.84-113.44-1.76-19.94-1.83-40.6-5.09-60.52-8.45-51.58-40.79-104.02-72.37-125.41-13.41-8.92-30.54-13.21-43.62-12-5.18.38-10.01,1.31-15.14.93-8.61-.41-18.58-4.52-27.55-3.48-21.42,4.41-42.92,23.16-58.65,43.11-11.86,15.52-20.89,31.41-27.68,49.11-21.52,54.33-36.5,123.87-38.29,164.01-.59,10.95.17,22.98,1.87,34.08,1.83,11.98,4.38,21.1,4.18,31l-33.44,6.61V8.94c0-2.21,1.79-4,4-4h347.88c2.21,0,4,1.79,4,4Z" fill="#01654d" stroke="#101727" stroke-linejoin="round" stroke-width="2"/><path d="M219.17,455.05h-45.53c-1.6-4.28-3.45-8.39-5.44-12.33,14.7,1.23,31.52-.3,42.78-3.11,3.15,6.26,6.33,12.31,8.19,15.44Z" fill="#587a51" stroke="#101727" stroke-linejoin="round" stroke-width="2"/><path d="M357.94,363.61v87.44c0,2.21-1.79,4-4,4h-36.37c8.97-18.41,16.38-56.54,15.94-75.68,0-3.03-.92-11.02-.45-13.5,1.44-7.64,17.7-4.64,24.5-2.26h.38Z" fill="#587a51" stroke="#101727" stroke-linejoin="round" stroke-width="2"/><path d="M210.98,439.61c-11.26,2.81-28.08,4.34-42.78,3.11h0c-2.62-5.17-5.5-10.06-8.45-14.71,14.24,2.85,32.25,1.93,45.19-.8,1.71,3.64,3.87,8.07,6.05,12.4Z" fill="#a99e53" stroke="#101727" stroke-linejoin="round" stroke-width="2"/><path d="M146.05,150.22c-1.85-.79-13.21-1.82-19.66-1.94,2.06-1.62,4.07-3.29,5.99-5.06h0c2.06.01,10.36-.13,12.52.01,0,0,1.04,3.72,1.13,6.99Z" fill="#3a3734" stroke="#101727" stroke-linejoin="round" stroke-width="2"/><path d="M357.94,358.13v5.48h-.38c-6.8-2.38-23.06-5.38-24.5,2.26-.47,2.48.45,10.47.45,13.5.44,19.14-6.97,57.27-15.94,75.68h-98.4c-1.86-3.13-5.04-9.18-8.19-15.44-2.18-4.33-4.34-8.76-6.05-12.4-1.25-2.66-2.24-4.89-2.82-6.34-7.41-19.76-.67-39.41,9.02-59.01,6.77-13.15,14.82-24.98,23.52-36.01,3.33-4.24,6.47-8.05,9.41-12.44,15.14-22.92,21.3-67.1,22.58-99.52v-.03c.16-3.97.24-7.76.26-11.32-1-21.78-7.67-47.87-21.55-62.96-6.24-6.55-13.12-11.11-20.16-17.28-8.32-7.15-17.2-15.75-25.2-23.72-2.22-2.22-4.39-4.4-6.55-6.6-7.85-7.84-12.23-13.27-22.15-6.85-17.61,11.66-18.99,35.79-32.19,51.01-2.06,2.55-4.32,4.88-6.71,7.07h0c-1.92,1.77-3.93,3.44-5.99,5.06-11.91,9.37-25.4,16.93-33.32,30.26-5.17,8.32-7.26,17.5-9.72,26.81l.4.1c.12,23.71,1.5,51.05,10.86,72.5,4.93,10.6,12.86,19.78,21.2,28.06l-.17.16c6.03,8.23,25.05,47.15,19.29,69.2-3.86,14.76,11.13,31.08,24.8,52.65h.01c2.95,4.65,5.83,9.54,8.45,14.71h0c1.99,3.94,3.84,8.05,5.44,12.33H6.06c-2.21,0-4-1.79-4-4v-18.16c10.27-16.47,16.93-28.95,25.63-47.81,2.83-6.33,5.36-13.11,6.65-19.63.76-3.52,1.11-6.82,1.16-10.04.2-9.9-2.35-19.02-4.18-31-1.7-11.1-2.46-23.13-1.87-34.08,1.79-40.14,16.77-109.68,38.29-164.01,6.79-17.7,15.82-33.59,27.68-49.11,15.73-19.95,37.23-38.7,58.65-43.11,8.97-1.04,18.94,3.07,27.55,3.48,5.13.38,9.96-.55,15.14-.93,13.08-1.21,30.21,3.08,43.62,12,31.58,21.39,63.92,73.83,72.37,125.41,3.26,19.92,3.33,40.58,5.09,60.52,4.53,44.36,8.16,79.9,27.84,113.44.55,1.03,4.99,8.44,12.26,10.11Z" fill="#3a3734" stroke="#101727" stroke-linejoin="round" stroke-width="2"/><path d="M35.5,355.41c-.05,3.22-.4,6.52-1.16,10.04-1.29,6.52-3.82,13.3-6.65,19.63-8.7,18.86-15.36,31.34-25.63,47.81v-70.87l33.44-6.61Z" fill="#587a51" stroke="#101727" stroke-linejoin="round" stroke-width="2"/><path d="M245.35,139.58c-6.24-6.55-13.12-11.11-20.16-17.28-8.32-7.15-17.2-15.75-25.2-23.72-2.22-2.22-4.39-4.4-6.55-6.6-7.85-7.84-12.23-13.27-22.15-6.85-17.61,11.66-18.99,35.79-32.19,51.01-2.06,2.55-4.32,4.88-6.71,7.07,2.06.01,10.36-.13,12.52.01,0,0,1.04,3.72,1.13,6.99-10.25-3.02-15.97-2.54-19.66-1.94-11.91,9.37-25.4,16.93-33.32,30.26-5.17,8.32-7.26,17.5-9.72,26.81h0c.12,23.71,1.9,51.15,11.26,72.6,4.93,10.6,12.86,19.78,21.2,28.06.66.66,1.32,1.31,1.99,1.96,5.06,4.82,10.61,9.18,17.19,11.63,11.58,4.18,24.86,3.98,37.16,3.86,13.63-.15,25.38-1.84,37.43-8.69,12.05-6.54,24.57-14.95,33.67-25.49,9.18-10.44,13.28-22.14,16.52-35.71,3.4-13.69,5.61-26.43,6.87-39.67v-.03c.16-3.97.24-7.76.26-11.32-1-21.78-7.67-47.87-21.55-62.96ZM121.42,173.68c0-4.31,3.49-7.8,7.8-7.8.22,0,.44.01.66.03.18,0,.35.03.53.06,3.75.57,6.62,3.8,6.62,7.71,0,4.31-3.5,7.8-7.81,7.8s-7.8-3.49-7.8-7.8ZM133.45,260.38c12.11-1.21,17.83-8.68,22.58-8.39,4.76.29,6.2,2.02,9.23,2.16,3.03.15,5.19-2.45,9.66-2.45s22.19,7,28.92,4.93c-15.9,10.33-49.39,13.74-70.39,3.75ZM209.39,181.48c-4.31,0-7.8-3.49-7.8-7.8,0-3.91,2.87-7.14,6.61-7.71.18-.03.35-.05.53-.06.22-.02.44-.03.66-.03,4.31,0,7.81,3.49,7.81,7.8s-3.5,7.8-7.81,7.8ZM188.05,149.19c.1-3.27.57-6.99.57-6.99,28.25-1.83,48.05,8.16,52.23,14.34-31.91-13.56-48.42-9.22-52.8-7.35Z" fill="#e9e1ce" stroke="#101727" stroke-linejoin="round" stroke-width="2"/><path d="M203.84,256.63c-15.9,10.33-49.39,13.74-70.39,3.75,12.11-1.21,17.83-8.68,22.58-8.39,4.76.29,6.2,2.02,9.23,2.16,3.03.15,5.19-2.45,9.66-2.45s22.19,7,28.92,4.93Z" fill="#dd8e7c" stroke="#101727" stroke-linejoin="round" stroke-width="2"/><path d="M240.85,156.54c-31.91-13.56-48.42-9.22-52.8-7.35.1-3.27.57-6.99.57-6.99,28.25-1.83,48.05,8.16,52.23,14.34Z" fill="#3a3734" stroke="#101727" stroke-linejoin="round" stroke-width="2"/><path d="M217.2,173.68c0,4.31-3.5,7.8-7.81,7.8s-7.8-3.49-7.8-7.8c0-3.91,2.87-7.14,6.61-7.71.18-.03.35-.05.53-.06.22-.02.44-.03.66-.03,4.31,0,7.81,3.49,7.81,7.8Z" fill="#e9e1ce" stroke="#101727" stroke-linejoin="round" stroke-width="2"/><path d="M137.03,173.68c0,4.31-3.5,7.8-7.81,7.8s-7.8-3.49-7.8-7.8,3.49-7.8,7.8-7.8c.22,0,.44.01.66.03.18,0,.35.03.53.06,3.75.57,6.62,3.8,6.62,7.71Z" fill="#e9e1ce" stroke="#101727" stroke-linejoin="round" stroke-width="2"/><path d="M83.35,205.34c-.64,2.41-1.3,4.83-2.04,7.24-2.93,9.42-8.35,21.52-13.5,28.78" fill="none" stroke="#101727" stroke-linejoin="round" stroke-width="2"/><path d="M266.64,213.89c-1.28,32.42-7.44,76.6-22.58,99.52-2.94,4.39-6.08,8.2-9.41,12.44-8.7,11.03-16.75,22.86-23.52,36.01-9.69,19.6-16.43,39.25-9.02,59.01.58,1.45,1.57,3.68,2.82,6.34-12.94,2.73-30.95,3.65-45.19.8h-.01c-13.67-21.57-28.66-37.89-24.8-52.65,5.76-22.05-13.26-60.97-19.29-69.2l.17-.16c.66.66,1.32,1.31,1.99,1.96,5.06,4.82,10.61,9.18,17.19,11.63,11.58,4.18,24.86,3.98,37.16,3.86,13.63-.15,25.38-1.84,37.43-8.69,12.05-6.54,24.57-14.95,33.67-25.49,9.18-10.44,13.28-22.14,16.52-35.71,3.4-13.69,5.61-26.43,6.87-39.67Z" fill="#e9e1ce" stroke="#101727" stroke-linejoin="round" stroke-width="2"/><path d="M121.42,255.22c-3.66,4.32-1.68,10.38,0,12.4" fill="none" stroke="#101727" stroke-linejoin="round" stroke-width="2"/><path d="M217.44,253.22c3.66,4.32,1.68,10.38,0,12.4" fill="none" stroke="#101727" stroke-linejoin="round" stroke-width="2"/><line x1="35.51" y1="355.41" x2="35.5" y2="355.41" fill="none" stroke="#101727" stroke-linejoin="round" stroke-width="2"/><path d="M73.71,359.95c.17,6.13-.25,20.74-9.22,36.03-9.98,17-24.52,24.58-29.98,27.1" fill="none" stroke="#736357" stroke-linejoin="round" stroke-width="2"/><path d="M95.62,357.93c.96,5.46,2.36,17.94-3.46,31.71-8.99,21.27-28.33,29.3-32.29,30.84" fill="none" stroke="#736357" stroke-linejoin="round" stroke-width="2"/><path d="M99.62,411.19c-.64,3.95-2.86,14.18-11.56,23.16-2.62,2.7-5.39,4.84-8.14,6.54" fill="none" stroke="#736357" stroke-linejoin="round" stroke-width="2"/><path d="M118.54,387.78c2.23-.56,7.3-1.61,11.71-6.36,3.06-3.28,4.61-7.28,5.29-9.36" fill="none" stroke="#101727" stroke-linejoin="round" stroke-width="2"/><path d="M285.88,333.24c1.74,5.45,5.71,20.35,0,37.67-8,24.28-28.84,34.52-32.67,36.32" fill="none" stroke="#736357" stroke-linejoin="round" stroke-width="2"/><path d="M237.26,356.16c-3.52,2.05-12.89,8.15-18.45,20.32-6.47,14.16-3.47,27.1-2.49,30.75" fill="none" stroke="#736357" stroke-linejoin="round" stroke-width="2"/><path d="M307.4,362.35c1.09,2.82,2.17,11.27-1.15,21.57-4.9,15.17-17.43,20.95-19.22,21.57" fill="none" stroke="#736357" stroke-linejoin="round" stroke-width="2"/><path d="M193.13,175.27s8.16-8.39,15.07-9.3" fill="none" stroke="#101727" stroke-linejoin="round" stroke-width="2"/><path d="M130.41,165.97c6.92.91,15.07,9.3,15.07,9.3" fill="none" stroke="#101727" stroke-linejoin="round" stroke-width="2"/><path d="M157.57,274.81c4.86,1.31,15.44,1.33,22.15-1.42" fill="none" stroke="#101727" stroke-linejoin="round" stroke-width="2"/><path d="M189.97,216.97c1.57,6.6-2.78,15.93-9.31,15.49-2.96-.48-6.12-4.57-9.11-4.5-2.87.06-5.07,3.4-7.93,3.36-2.34-.03-4.13-3.18-6.42-3.68-3.57-.75-9.15,4.51-11.51-.18-1.07-3.93,2.12-7.4,4.01-10.4,7.39-10.91,11.48-24.21,13.53-37.67" fill="none" stroke="#101727" stroke-linejoin="round" stroke-width="2"/></svg>