<svg width="783" height="658" viewBox="0 0 783 658" fill="none" xmlns="http://www.w3.org/2000/svg">
<path opacity="0.12" d="M738.62 611.85L721.87 554.48H697.58V538.94L674.22 521.9L668.76 514.56L668.58 270.51L665.74 246.06H604.78L602.33 256.85L585.71 260.77L585.84 429.52L561.62 437.11L560.28 448.15C549.73 447.68 535.43 448.18 527.15 452.82L524.26 485.36L523.5 493.87C523.3 496.09 516.94 495.42 514.17 494.98C505.31 494.04 498.83 496.27 494.16 502.04L459.21 504.68L455.56 515.19C451.55 516.32 440.27 512.39 437.65 508.1L437.08 487.68L415.16 488.2L385.01 483.98L365.86 479.45L365.62 461L353.29 460.18L353.24 433.96C352.35 433.64 347.66 432.52 347.3 433.46L344.54 440.68C327.59 440.56 310.8 439.98 294.53 445.82C288.17 463.67 294.43 481.49 288.94 480.46C286.67 480.03 279.34 478.66 281.66 479.07L281.86 450.02C281.86 448.46 284.37 445.42 283.8 443.99L280.96 436.84C281.77 435.67 283.5 433.79 283 432.82L280.14 427.28C278.49 424.09 278.58 415.57 276.51 412.63C274.44 409.7 266.95 408.45 262.84 407.93L262.15 401.13C261.84 398.08 246.93 396.69 239.12 401.23C236.34 402.85 236.16 409.59 235.64 412.79L215.91 427.54L215.47 504.2L199.97 493.08L199.79 472.94L159.37 473.02V617.49C158.16 616.93 156.8 616.59 155.2 616.59C153.6 616.59 152.32 616.91 151.14 617.44C149.43 614.67 147.26 612.21 144.69 610.22C142.77 608.73 141.63 606.45 141.63 604.02V599.85C141.63 584.55 128.95 572.2 113.52 572.75C100.98 573.2 90.8497 582.39 88.1397 594.2C86.5397 593.5 84.7397 593.07 82.6497 593.07C77.8997 593.07 74.4997 595.1 72.0297 598.32C67.5597 595.22 61.8197 593.27 55.4697 593.09C45.4497 592.81 36.6097 599.06 31.6297 605.71C22.3197 609.11 15.6797 618.05 15.6797 628.54C15.6797 638.4 21.5497 646.88 29.9897 650.69V656.34H755.35V611.87H738.6L738.62 611.85Z" fill="#01654D"/>
<path d="M370.89 590.54C424.666 590.54 468.26 546.946 468.26 493.17C468.26 439.394 424.666 395.8 370.89 395.8C317.114 395.8 273.52 439.394 273.52 493.17C273.52 546.946 317.114 590.54 370.89 590.54Z" stroke="#101727" stroke-miterlimit="10" stroke-dasharray="2 2"/>
<path d="M593.36 346.65C647.136 346.65 690.73 303.056 690.73 249.28C690.73 195.504 647.136 151.91 593.36 151.91C539.584 151.91 495.99 195.504 495.99 249.28C495.99 303.056 539.584 346.65 593.36 346.65Z" stroke="#101727" stroke-miterlimit="10" stroke-dasharray="2 2"/>
<path d="M633.58 101.84H567.13C564.661 101.84 562.66 103.841 562.66 106.31V172.76C562.66 175.229 564.661 177.23 567.13 177.23H633.58C636.049 177.23 638.05 175.229 638.05 172.76V106.31C638.05 103.841 636.049 101.84 633.58 101.84Z" fill="white"/>
<path d="M371.49 550.72V356.21C371.49 347.64 364.54 340.69 351.68 340.69L164.58 340.98" stroke="#00081C" stroke-width="0.97"/>
<path d="M113.229 60.08H90.6191V149.87H113.229V60.08Z" fill="#01654D" stroke="black" stroke-miterlimit="10"/>
<path d="M137.899 118.61L74.4395 646.35" stroke="black" stroke-miterlimit="10"/>
<path d="M86.2409 646.35H62.6309V656.33H86.2409V646.35Z" fill="#01654D" stroke="black" stroke-miterlimit="10"/>
<path d="M150.189 118.61L213.649 646.35" stroke="black" stroke-miterlimit="10"/>
<path d="M201.839 656.32H225.449V646.34H201.839V656.32Z" fill="#01654D" stroke="black" stroke-miterlimit="10"/>
<path d="M208.889 606.74H79.6992L196.949 507.48L100.459 429.97L179.139 359.31L116.269 298.43L166.109 250.95L127.409 205.8L155.859 165.77L136.899 126.89" stroke="black" stroke-linecap="square" stroke-linejoin="bevel"/>
<path d="M209.071 606.74L91.3105 507.48L187.811 429.97L109.131 359.31L171.991 298.43L122.161 250.95L160.861 205.8L132.401 165.77L151.371 126.89" stroke="black" stroke-miterlimit="10"/>
<path d="M152.541 138.12H135.551L138.011 118.61H149.831L152.541 138.12Z" fill="#01654D" stroke="black" stroke-miterlimit="10"/>
<path d="M144.04 119.74C151.109 119.74 156.84 114.009 156.84 106.94C156.84 99.8708 151.109 94.14 144.04 94.14C136.971 94.14 131.24 99.8708 131.24 106.94C131.24 114.009 136.971 119.74 144.04 119.74Z" fill="#E9BE51" stroke="black" stroke-miterlimit="10"/>
<path d="M201.851 298.78H150.721V378.8H201.851V298.78Z" fill="#01654D" stroke="black" stroke-miterlimit="10"/>
<path d="M144.039 94.13V0" stroke="black" stroke-miterlimit="10"/>
<path d="M113.23 104.97H131.24" stroke="black" stroke-miterlimit="10"/>
<path d="M174.861 149.86H197.471V60.07H174.861V149.86Z" fill="#01654D" stroke="black" stroke-miterlimit="10"/>
<path d="M174.86 104.97H156.85" stroke="black" stroke-miterlimit="10"/>
<path d="M158.381 304.4V334.93" stroke="black" stroke-miterlimit="10"/>
<path d="M164.35 304.4V334.93" stroke="black" stroke-miterlimit="10"/>
<path d="M170.311 304.4V334.93" stroke="black" stroke-miterlimit="10"/>
<path d="M176.279 304.4V334.93" stroke="black" stroke-miterlimit="10"/>
<path d="M182.25 304.4V334.93" stroke="black" stroke-miterlimit="10"/>
<path d="M194.18 304.4V334.93" stroke="black" stroke-miterlimit="10"/>
<path d="M188.211 304.4V334.93" stroke="black" stroke-miterlimit="10"/>
<path d="M158.381 339.72V370.25" stroke="black" stroke-miterlimit="10"/>
<path d="M164.35 339.72V370.25" stroke="black" stroke-miterlimit="10"/>
<path d="M170.311 339.72V370.25" stroke="black" stroke-miterlimit="10"/>
<path d="M176.279 339.72V370.25" stroke="black" stroke-miterlimit="10"/>
<path d="M182.25 339.72V370.25" stroke="black" stroke-miterlimit="10"/>
<path d="M194.18 339.72V370.25" stroke="black" stroke-miterlimit="10"/>
<path d="M188.211 339.72V370.25" stroke="black" stroke-miterlimit="10"/>
<path d="M451.33 330.02H542.38" stroke="#00081C" stroke-width="0.97"/>
<path d="M542.49 326.16V413.06C542.49 419.49 547.7 424.7 554.13 424.7H585.95" stroke="#00081C" stroke-width="0.97"/>
<path d="M451.33 114.22V381.15C451.33 389.72 444.38 396.67 435.81 396.67H375.9" stroke="#00081C" stroke-width="0.97"/>
<path d="M596.811 494.03V177.94" stroke="#00081C" stroke-width="0.97"/>
<path d="M698.899 252.37C698.899 247.05 694.579 242.73 689.259 242.73C683.939 242.73 679.619 247.05 679.619 252.37C679.619 257.69 683.939 262.01 689.259 262.01C694.579 262.01 698.899 257.69 698.899 252.37Z" fill="#A99E53" stroke="#101727"/>
<path d="M587.17 498.06C587.17 503.38 591.49 507.7 596.81 507.7C602.13 507.7 606.45 503.38 606.45 498.06C606.45 492.74 602.13 488.42 596.81 488.42C591.49 488.42 587.17 492.74 587.17 498.06H468.26H587.17Z" fill="#738452"/>
<path d="M587.17 498.06C587.17 503.38 591.49 507.7 596.81 507.7C602.13 507.7 606.45 503.38 606.45 498.06C606.45 492.74 602.13 488.42 596.81 488.42C591.49 488.42 587.17 492.74 587.17 498.06ZM587.17 498.06H468.26" stroke="#101727"/>
<path d="M361.25 396.67C361.25 391.35 365.57 387.03 370.89 387.03C376.21 387.03 380.53 391.35 380.53 396.67C380.53 401.99 376.21 406.31 370.89 406.31C365.57 406.31 361.25 401.99 361.25 396.67Z" fill="#A99E53" stroke="#101727"/>
<path d="M458.619 498.93C458.619 493.61 462.939 489.29 468.259 489.29C473.579 489.29 477.899 493.61 477.899 498.93C477.899 504.25 473.579 508.57 468.259 508.57C462.939 508.57 458.619 504.25 458.619 498.93Z" fill="#01654D" stroke="#101727"/>
<path d="M532.74 330.02C532.74 324.7 537.06 320.38 542.38 320.38C547.7 320.38 552.02 324.7 552.02 330.02C552.02 335.34 547.7 339.66 542.38 339.66C537.06 339.66 532.74 335.34 532.74 330.02Z" fill="#01654D" stroke="#101727"/>
<path d="M596.811 383.38C602.801 383.38 607.661 388.24 607.661 394.23V451.36C607.661 457.35 602.801 462.21 596.811 462.21C590.821 462.21 585.961 457.35 585.961 451.36V394.23C585.961 388.24 590.821 383.38 596.811 383.38Z" fill="#EAE2CF" stroke="#00081C"/>
<path d="M49.0505 156.26C35.9305 143.14 27.8105 125 27.8105 104.98C27.8105 84.96 35.9305 66.82 49.0505 53.7" stroke="black" stroke-miterlimit="10"/>
<path d="M68.3591 73C59.8191 81.54 55.1191 92.9 55.1191 104.97C55.1191 117.04 59.8191 128.4 68.3591 136.94" stroke="black" stroke-miterlimit="10"/>
<path d="M29.74 175.57C10.88 156.71 0.5 131.64 0.5 104.97C0.5 78.3 10.89 53.23 29.74 34.38" stroke="black" stroke-miterlimit="10"/>
<path d="M235.33 156.26C248.45 143.14 256.57 125 256.57 104.98C256.57 84.95 248.45 66.82 235.33 53.7" stroke="black" stroke-miterlimit="10"/>
<path d="M216.02 73C224.56 81.54 229.26 92.9 229.26 104.97C229.26 117.04 224.56 128.4 216.02 136.94" stroke="black" stroke-miterlimit="10"/>
<path d="M254.641 175.57C273.501 156.71 283.881 131.64 283.881 104.98C283.881 78.31 273.491 53.24 254.641 34.39" stroke="black" stroke-miterlimit="10"/>
<path d="M23.8906 656.33H782.441" stroke="black" stroke-miterlimit="10"/>
<path d="M259.08 340.41V251.61C259.08 243.04 266.03 236.09 274.6 236.09H327.14" stroke="#00081C" stroke-width="0.97"/>
<path d="M233.85 340.41C233.85 334.42 238.71 329.56 244.7 329.56H273.49C279.48 329.56 284.34 334.42 284.34 340.41C284.34 346.4 279.48 351.26 273.49 351.26H244.7C238.71 351.26 233.85 346.4 233.85 340.41Z" fill="#EAE2CF" stroke="#00081C"/>
<path d="M586.82 142.77H577.01V161.52H586.82V142.77Z" fill="#738452" stroke="#00081C" stroke-miterlimit="3"/>
<path d="M606.031 130.48H596.221V161.52H606.031V130.48Z" fill="#A99E53" stroke="#00081C" stroke-miterlimit="3"/>
<path d="M625.23 117.55H615.42V161.53H625.23V117.55Z" fill="#E9BE51" stroke="#00081C" stroke-miterlimit="3"/>
<path d="M628.561 101.84H634.011C636.241 101.84 638.041 103.65 638.041 105.87V156.79" stroke="#101727" stroke-miterlimit="10"/>
<path d="M638.05 165.26V173.19C638.05 175.42 636.24 177.22 634.02 177.22H566.7C564.47 177.22 562.67 175.41 562.67 173.19V105.87C562.67 103.64 564.48 101.84 566.7 101.84H622.12" stroke="#101727" stroke-miterlimit="10"/>
<path d="M560.341 177.23C558.111 177.23 556.311 175.42 556.311 173.2V105.88" stroke="#101727" stroke-miterlimit="10"/>
<path d="M370.94 220.75L387.35 231.61V254.6H355.02V231.61L370.94 220.75Z" fill="#E9BE51" stroke="#00081C" stroke-miterlimit="3"/>
<path d="M383.19 220.75L399.61 231.61V254.6H367.27V231.61L383.19 220.75Z" fill="#A99E53" stroke="#00081C" stroke-miterlimit="3"/>
<path d="M358.68 220.75L375.09 231.61V254.6H342.76V231.61L358.68 220.75Z" fill="#738452" stroke="#00081C" stroke-miterlimit="3"/>
<path d="M398.75 197.96H404.2C406.43 197.96 408.23 199.77 408.23 201.99V252.91" stroke="#101727" stroke-miterlimit="10"/>
<path d="M408.88 261.39V269.32C408.88 271.55 407.07 273.35 404.85 273.35H337.53C335.3 273.35 333.5 271.54 333.5 269.32V202C333.5 199.77 335.31 197.97 337.53 197.97H392.95" stroke="#101727" stroke-miterlimit="10"/>
<path d="M331.18 273.35C328.95 273.35 327.15 271.54 327.15 269.32V202" stroke="#101727" stroke-miterlimit="10"/>
<path d="M482.35 38.83H487.8C490.03 38.83 491.83 40.64 491.83 42.86V93.78" stroke="#101727" stroke-miterlimit="10"/>
<path d="M492.48 102.25V110.18C492.48 112.41 490.67 114.21 488.45 114.21H421.13C418.9 114.21 417.1 112.4 417.1 110.18V42.86C417.1 40.63 418.91 38.83 421.13 38.83H476.55" stroke="#101727" stroke-miterlimit="10"/>
<path d="M414.78 114.22C412.55 114.22 410.75 112.41 410.75 110.19V42.86" stroke="#101727" stroke-miterlimit="10"/>
<path d="M436.26 56.88H481.37" stroke="#101727" stroke-miterlimit="10"/>
<path d="M436.26 76.52H481.37" stroke="#101727" stroke-miterlimit="10"/>
<path d="M436.26 95.78H481.37" stroke="#101727" stroke-miterlimit="10"/>
<path d="M432.05 61.09C434.375 61.09 436.26 59.2051 436.26 56.88C436.26 54.5549 434.375 52.67 432.05 52.67C429.725 52.67 427.84 54.5549 427.84 56.88C427.84 59.2051 429.725 61.09 432.05 61.09Z" fill="#E9BE51" stroke="#101727" stroke-miterlimit="10"/>
<path d="M432.05 80.73C434.375 80.73 436.26 78.8451 436.26 76.52C436.26 74.1949 434.375 72.31 432.05 72.31C429.725 72.31 427.84 74.1949 427.84 76.52C427.84 78.8451 429.725 80.73 432.05 80.73Z" fill="#EAE2CF" stroke="#101727" stroke-miterlimit="10"/>
<path d="M456.999 80.73C459.324 80.73 461.209 78.8451 461.209 76.52C461.209 74.1949 459.324 72.31 456.999 72.31C454.674 72.31 452.789 74.1949 452.789 76.52C452.789 78.8451 454.674 80.73 456.999 80.73Z" fill="#A99E53" stroke="#101727" stroke-miterlimit="10"/>
<path d="M432.05 100.38C434.375 100.38 436.26 98.4951 436.26 96.17C436.26 93.8449 434.375 91.96 432.05 91.96C429.725 91.96 427.84 93.8449 427.84 96.17C427.84 98.4951 429.725 100.38 432.05 100.38Z" fill="#738452" stroke="#101727" stroke-miterlimit="10"/>
<path d="M596.811 252.37H679.621" stroke="#00081C" stroke-width="0.97"/>
<path d="M404.41 550.72H337.96C335.492 550.72 333.49 552.721 333.49 555.19V621.64C333.49 624.109 335.492 626.11 337.96 626.11H404.41C406.879 626.11 408.88 624.109 408.88 621.64V555.19C408.88 552.721 406.879 550.72 404.41 550.72Z" fill="#DFEAE5"/>
<path d="M399.391 550.72H404.841C407.071 550.72 408.871 552.53 408.871 554.75V605.67" stroke="#101727" stroke-miterlimit="10"/>
<path d="M408.88 614.14V622.07C408.88 624.3 407.07 626.1 404.85 626.1H337.53C335.3 626.1 333.5 624.29 333.5 622.07V554.75C333.5 552.52 335.31 550.72 337.53 550.72H392.95" stroke="#101727" stroke-miterlimit="10"/>
<path d="M331.18 626.11C328.95 626.11 327.15 624.3 327.15 622.08V554.76" stroke="#101727" stroke-miterlimit="10"/>
<path d="M371.179 569.02C363.229 569.02 356.789 575.46 356.789 583.41C356.789 597.27 371.179 611.86 371.179 611.86C371.179 611.86 385.569 597.14 385.569 583.41C385.569 575.46 379.129 569.02 371.179 569.02ZM371.179 590.43C367.479 590.43 364.479 587.43 364.479 583.73C364.479 580.03 367.479 577.03 371.179 577.03C374.879 577.03 377.879 580.03 377.879 583.73C377.879 587.43 374.879 590.43 371.179 590.43Z" fill="#738452" stroke="#101727" stroke-miterlimit="10"/>
<path d="M371.18 590.37C374.925 590.37 377.96 587.335 377.96 583.59C377.96 579.846 374.925 576.81 371.18 576.81C367.436 576.81 364.4 579.846 364.4 583.59C364.4 587.335 367.436 590.37 371.18 590.37Z" fill="#E9BE51" stroke="#101727" stroke-miterlimit="10"/>
<path d="M521.042 481.869L519.562 625.182L569.914 625.267L569.633 509.534L586.461 481.881H521.055L521.042 481.869Z" fill="#01654D"/>
<path d="M586.451 481.869H614.043L651.002 625.182L600.651 625.267L564.67 509.534L537.629 481.881H586.439L586.451 481.869Z" fill="#01654D"/>
<path d="M563.921 628.801L563.102 656.955H502.905C502.905 656.955 494.356 638.023 523.929 638.023C524.614 632.25 523.464 628.447 523.464 628.447L563.921 628.801Z" fill="#EAE2CF"/>
<path d="M563.921 628.801L563.102 656.955H502.905C502.905 656.955 494.356 638.023 523.929 638.023C524.687 633.363 523.464 628.447 523.464 628.447L563.921 628.801Z" stroke="#101727" stroke-miterlimit="10"/>
<path d="M604.037 628.837L609.003 656.942H669.199C669.199 656.942 677.748 638.01 648.176 638.01C647.136 632.58 646.072 628.458 646.072 628.458L604.037 628.837Z" fill="#EAE2CF" stroke="#111727" stroke-miterlimit="10"/>
<path d="M571.932 632.581H516.64L514.83 617.085H573.742L571.932 632.581Z" fill="#01654D"/>
<path d="M598.644 632.581H653.936L655.746 617.085H596.834L598.644 632.581Z" fill="#01654D"/>
<path d="M514.818 617.085H573.731" stroke="#101727" stroke-miterlimit="10"/>
<path d="M516.639 632.581H571.931" stroke="#101727" stroke-miterlimit="10"/>
<path d="M596.834 617.085H655.746" stroke="#101727" stroke-miterlimit="10"/>
<path d="M598.645 632.581H653.937" stroke="#101727" stroke-miterlimit="10"/>
<path d="M619.543 484.094H509.105L510.059 399.535C510.145 392.32 514.719 385.935 521.531 383.538L538.507 377.558H577.875L604.928 381.3L619.531 484.107L619.543 484.094Z" fill="#EAE2CF"/>
<path d="M619.544 484.094H509.191L510.06 399.535C510.145 392.32 514.719 385.935 521.532 383.538L538.507 377.558H577.876L604.929 381.3L619.531 484.107L619.544 484.094Z" stroke="#101727" stroke-miterlimit="10"/>
<path d="M580.118 383.673L569.637 357.207L573.171 357.464L577.904 356.767L581.378 354.933L583.53 352.034L583.97 348.744L582.637 345.589L578.785 343.131H576.07L573.477 343.253L526.036 330.301L524.703 333.457L523.248 340.905L522.551 348.487L522.991 355.752L532.592 371.737L549.983 377.632L569.111 386.768L580.106 383.673H580.118Z" fill="#EAE2CF"/>
<path d="M525.641 330.203C518.095 358.492 528.442 374.342 532.343 380.31L532.539 380.616C534.141 383.074 536.807 384.419 539.547 384.419C540.831 384.419 542.127 384.126 543.35 383.502L543.619 383.368C549.967 380.151 566.807 371.627 574.439 343.302L525.653 330.203H525.641Z" stroke="#101727" stroke-miterlimit="10"/>
<path d="M564.253 302.172L555.031 299.701C544.11 296.778 532.871 303.26 529.948 314.182L525.643 330.228L574.441 343.302L578.746 327.256C581.669 316.334 575.187 305.107 564.265 302.172H564.253Z" fill="#E9BE51"/>
<path d="M574.437 343.277L512.785 326.766C511.623 326.448 510.926 325.25 511.232 324.088C511.55 322.926 512.749 322.229 513.91 322.535L540.034 329.53" fill="#E9BE51"/>
<path d="M574.437 343.277L512.785 326.766C511.623 326.448 510.926 325.25 511.232 324.088C511.55 322.926 512.749 322.229 513.91 322.535L540.034 329.53" stroke="#101727" stroke-miterlimit="10"/>
<path d="M574.439 343.277C580.358 340.978 586.02 347.57 582.706 353.049C579.6 358.185 572.922 357.66 568.996 357.121" stroke="#101727" stroke-miterlimit="10"/>
<path d="M543.117 340.245C541.6 346.017 537.662 351.362 531.999 354.395C528.538 356.254 533.687 359.324 539.203 355.031" stroke="#101727" stroke-miterlimit="10"/>
<path d="M548.733 360.912C559.495 357.879 562.492 350.174 565.635 340.941L574.441 343.301C566.809 371.626 549.968 380.163 543.621 383.367L543.352 383.501C542.129 384.125 540.832 384.419 539.548 384.419C536.809 384.419 534.142 383.061 532.54 380.615L532.345 380.309C529.715 376.273 524.138 367.737 523.123 353.892C529.972 360.081 539.462 363.53 548.733 360.912Z" fill="#111727" stroke="#111727" stroke-width="2" stroke-miterlimit="10"/>
<path d="M547.25 349.772C546.015 349.772 545.012 348.769 545.012 347.534C545.012 346.298 546.015 345.296 547.25 345.296C548.485 345.296 549.488 346.298 549.488 347.534C549.488 348.769 548.485 349.772 547.25 349.772Z" stroke="#101727" stroke-miterlimit="10"/>
<path d="M558.933 404.795C557.698 404.795 556.695 403.792 556.695 402.557C556.695 401.322 557.698 400.319 558.933 400.319C560.169 400.319 561.172 401.322 561.172 402.557C561.172 403.792 560.169 404.795 558.933 404.795Z" stroke="#101727" stroke-miterlimit="10"/>
<path d="M556.644 415.289C555.409 415.289 554.406 414.286 554.406 413.051C554.406 411.816 555.409 410.813 556.644 410.813C557.88 410.813 558.883 411.816 558.883 413.051C558.883 414.286 557.88 415.289 556.644 415.289Z" stroke="#101727" stroke-miterlimit="10"/>
<path d="M531.021 347.534C529.786 347.534 528.783 346.531 528.783 345.296C528.783 344.06 529.786 343.058 531.021 343.058C532.257 343.058 533.259 344.06 533.259 345.296C533.259 346.531 532.257 347.534 531.021 347.534Z" stroke="#101727" stroke-miterlimit="10"/>
<path d="M547.803 340.941C550.2 341.32 552.034 342.616 553.013 344.292" stroke="#101727" stroke-miterlimit="10"/>
<path d="M531.708 337.883C529.323 337.394 527.159 337.956 525.654 339.192" stroke="#101727" stroke-miterlimit="10"/>
<path d="M546.493 368.031C543.117 370.392 535.755 370.599 532.844 366.686" stroke="#101727" stroke-miterlimit="10"/>
<path d="M568.97 355.434L577.873 377.546L554.832 391.733L542.736 376.739L568.97 355.434Z" stroke="#101727" stroke-miterlimit="10"/>
<path d="M549.512 418.284C549.573 418.089 554.844 391.733 554.844 391.733" stroke="#101727" stroke-miterlimit="10"/>
<path d="M577.888 377.631L571.003 407.13C571.003 407.13 565.414 391.733 554.835 391.733C544.268 391.733 536.367 402.544 536.367 402.544L540.232 383.563" stroke="#101727" stroke-miterlimit="10"/>
<path d="M542.969 306.269L540.01 306.942L541.722 314.451L544.682 313.778L542.969 306.269Z" fill="#01654D"/>
<path d="M546.468 313.424C547.19 317.888 545.869 320.517 544.952 321.924C543.496 321.043 541.173 319.221 539.901 314.818C539.766 314.818 539.644 314.818 539.509 314.818C538.519 314.781 537.565 314.659 536.672 314.451C538.335 321.728 542.53 324.064 544.108 324.945L544.169 324.981C544.475 325.153 544.805 325.238 545.123 325.25C545.82 325.275 546.517 324.957 546.945 324.345L546.994 324.272C548.046 322.792 550.834 318.866 549.183 311.602C548.376 312.311 547.459 312.935 546.444 313.424H546.468Z" fill="white"/>
<path d="M586.609 420.877C597.188 412.915 611.155 414.811 617.698 421.513L586.609 420.877Z" fill="#EAE2CF"/>
<path d="M509.839 419.299C515.123 418.076 521.274 419.434 521.274 419.434L520.993 493.377H509.105L509.839 419.311V419.299Z" fill="#EAE2CF" stroke="#111727" stroke-miterlimit="10"/>
<path d="M521.006 493.366H509.118L509.045 523.232C509.045 528.784 511.344 534.08 515.405 537.871L520.627 542.751L521.03 493.366H521.006Z" fill="#EAE2CF" stroke="#111727" stroke-miterlimit="10"/>
<path d="M520.921 502.635V517.262C520.921 519.512 519.098 521.334 516.848 521.334C514.598 521.334 512.775 519.512 512.775 517.262V502.635" fill="#EAE2CF"/>
<path d="M520.921 502.635V517.262C520.921 519.512 519.098 521.334 516.848 521.334C514.598 521.334 512.775 519.512 512.775 517.262V502.635" stroke="#111727" stroke-miterlimit="10"/>
<path d="M518.159 459.243L527.649 458.155L527.613 457.861L507.311 460.063C504.681 460.356 502.297 458.51 501.93 455.892C501.55 453.19 503.52 450.756 506.235 450.426L526.414 448.053L529.044 447.735L528.591 444.787L539.806 446.414L586.611 440.715V396.589C586.611 388.003 593.57 381.056 602.155 381.056C610.741 381.056 617.7 388.015 617.7 396.589V452.578C617.7 461.115 611.585 468.44 603.17 469.957L541.286 477.002L522.525 479.179C519.822 479.484 516.789 477.405 516.471 474.702C516.153 471.987 518.098 469.541 520.813 469.223L528.885 468.22L528.86 468.025L519.284 469.064C516.581 469.37 514.135 467.438 513.817 464.723C513.499 462.007 515.444 459.561 518.159 459.243Z" fill="#EAE2CF"/>
<path d="M518.269 458.925L527.723 457.837H527.613L507.311 460.051C504.681 460.344 502.297 458.497 501.93 455.88C501.55 453.177 503.52 450.743 506.235 450.413L526.414 448.041L529.044 447.723L539.806 446.414L586.611 440.715V396.589C586.611 388.003 593.57 381.056 602.155 381.056C610.741 381.056 617.7 388.015 617.7 396.589V452.578C617.7 461.115 611.585 468.44 603.17 469.957L541.286 477.002L522.525 479.142C519.822 479.448 516.789 477.368 516.471 474.666C516.153 471.951 518.098 469.504 520.813 469.187L528.885 468.22L528.396 468.281L518.868 469.321C516.165 469.627 514.184 467.438 513.866 464.735C513.548 462.02 515.566 459.256 518.269 458.95V458.925Z" stroke="#101727" stroke-miterlimit="10"/>
<path d="M586.609 420.877C597.188 412.915 611.155 414.811 617.698 421.513" stroke="#101727" stroke-miterlimit="10"/>
</svg>
