<svg width="678" height="470" viewBox="0 0 678 470" fill="none" xmlns="http://www.w3.org/2000/svg">
<g clip-path="url(#clip0_2680_1369)">
<path d="M0 469.51H678" stroke="#101727" stroke-miterlimit="10"/>
<path opacity="0.12" d="M656.24 469.5V428.47L656.14 427.51H648.73L648.76 424.5L648.85 411.76H639.13L622.25 411.77L612.25 411.83L612.27 427.67L606.38 427.65L604.39 427.73V434.85H600.01L599.44 403.23L579.17 395.02L559.3 402.65V315.91H538.8V345.51H520.3V370.06H509.2V361.65H503.15V353.26H495.08V381.16H483.98V370.4H470.19V402.01H452.4V325.22H434.12L432.76 180.29H420.94L420.85 165.19V160.77H413.03V127.3H409.31V160.77H400.57V180.28H386.06V216.51H374.85V313.56H350.56V263.81H322.51L286.36 241.99L247.72 263.81H226.53V284.46H214.94V264.84H204.24C205.58 246.56 192.65 234.08 177.94 234.08C163.23 234.08 149.41 246.56 151.19 264.84H140.94V284.46H128.9V374.75H122.36V382.49H111.6V386.86H90.08V404.81L75.95 390.68L49.23 417.4H23V469.47H559.32H656.25L656.24 469.5Z" fill="#01654D"/>
<path d="M336.22 422.13C374.587 422.13 405.69 391.027 405.69 352.66C405.69 314.293 374.587 283.19 336.22 283.19C297.853 283.19 266.75 314.293 266.75 352.66C266.75 391.027 297.853 422.13 336.22 422.13Z" stroke="#101727" stroke-miterlimit="10" stroke-dasharray="2 2"/>
<path d="M505.636 225.45C543.998 224.811 574.578 193.195 573.939 154.833C573.3 116.471 541.684 85.8906 503.322 86.5297C464.96 87.1687 434.379 118.785 435.019 157.147C435.658 195.509 467.274 226.089 505.636 225.45Z" stroke="#101727" stroke-miterlimit="10" stroke-dasharray="2 2"/>
<path d="M533.178 50.8008H485.768C484.006 50.8008 482.578 52.229 482.578 53.9908V101.401C482.578 103.163 484.006 104.591 485.768 104.591H533.178C534.94 104.591 536.368 103.163 536.368 101.401V53.9908C536.368 52.229 534.94 50.8008 533.178 50.8008Z" fill="white"/>
<path d="M419.127 17.0117H371.717C369.956 17.0117 368.527 18.4399 368.527 20.2017V67.6117C368.527 69.3735 369.956 70.8017 371.717 70.8017H419.127C420.889 70.8017 422.317 69.3735 422.317 67.6117V20.2017C422.317 18.4399 420.889 17.0117 419.127 17.0117Z" fill="white"/>
<path d="M348.127 131.012H300.717C298.956 131.012 297.527 132.44 297.527 134.202V181.612C297.527 183.374 298.956 184.802 300.717 184.802H348.127C349.889 184.802 351.317 183.374 351.317 181.612V134.202C351.317 132.44 349.889 131.012 348.127 131.012Z" fill="white"/>
<path d="M336.651 393.72V254.95C336.651 248.83 331.691 243.88 322.521 243.88L286.371 243.91L162.801 244.08" stroke="#101727"/>
<path d="M126.159 43.68H110.029V107.74H126.159V43.68Z" fill="#01654D" stroke="#101727" stroke-miterlimit="10"/>
<path d="M143.76 85.43L98.4805 461.94" stroke="#101727" stroke-miterlimit="10"/>
<path d="M106.901 461.94H90.0605V469.06H106.901V461.94Z" fill="#01654D" stroke="#101727" stroke-miterlimit="10"/>
<path d="M152.529 85.43L197.799 461.94" stroke="#101727" stroke-miterlimit="10"/>
<path d="M189.39 469.07H206.23V461.95H189.39V469.07Z" fill="#01654D" stroke="#101727" stroke-miterlimit="10"/>
<path d="M194.41 433.69H102.24L185.89 362.87L117.05 307.58L173.18 257.16L128.33 213.73L163.88 179.85L136.28 147.64L156.58 119.09L143.05 91.35" stroke="#101727" stroke-linecap="square" stroke-linejoin="bevel"/>
<path d="M194.53 433.69L110.52 362.87L179.37 307.58L123.24 257.16L168.08 213.73L132.53 179.85L160.14 147.64L139.84 119.09L153.37 91.35" stroke="#101727" stroke-miterlimit="10"/>
<path d="M154.2 99.35H142.08L143.84 85.43H152.27L154.2 99.35Z" fill="#01654D" stroke="#101727" stroke-miterlimit="10"/>
<path d="M148.14 86.24C153.182 86.24 157.27 82.1524 157.27 77.11C157.27 72.0676 153.182 67.98 148.14 67.98C143.097 67.98 139.01 72.0676 139.01 77.11C139.01 82.1524 143.097 86.24 148.14 86.24Z" fill="#E9BE51" stroke="#101727" stroke-miterlimit="10"/>
<path d="M189.38 213.98H152.9V271.07H189.38V213.98Z" fill="#01654D" stroke="#101727" stroke-miterlimit="10"/>
<path d="M148.141 67.98V0.820007" stroke="#101727" stroke-miterlimit="10"/>
<path d="M126.16 75.71H139.01" stroke="#101727" stroke-miterlimit="10"/>
<path d="M170.13 107.74H186.26V43.68H170.13V107.74Z" fill="#01654D" stroke="#101727" stroke-miterlimit="10"/>
<path d="M170.129 75.71H157.279" stroke="#101727" stroke-miterlimit="10"/>
<path d="M158.369 217.99V239.77" stroke="#101727" stroke-miterlimit="10"/>
<path d="M162.631 217.99V239.77" stroke="#101727" stroke-miterlimit="10"/>
<path d="M166.891 217.99V239.77" stroke="#101727" stroke-miterlimit="10"/>
<path d="M171.141 217.99V239.77" stroke="#101727" stroke-miterlimit="10"/>
<path d="M175.4 217.99V239.77" stroke="#101727" stroke-miterlimit="10"/>
<path d="M183.91 217.99V239.77" stroke="#101727" stroke-miterlimit="10"/>
<path d="M179.66 217.99V239.77" stroke="#101727" stroke-miterlimit="10"/>
<path d="M158.369 243.18V264.97" stroke="#101727" stroke-miterlimit="10"/>
<path d="M162.631 243.18V264.97" stroke="#101727" stroke-miterlimit="10"/>
<path d="M166.891 243.18V264.97" stroke="#101727" stroke-miterlimit="10"/>
<path d="M171.141 243.18V264.97" stroke="#101727" stroke-miterlimit="10"/>
<path d="M175.4 243.18V264.97" stroke="#101727" stroke-miterlimit="10"/>
<path d="M183.91 243.18V264.97" stroke="#101727" stroke-miterlimit="10"/>
<path d="M179.66 243.18V264.97" stroke="#101727" stroke-miterlimit="10"/>
<path d="M393.609 236.26H468.109" stroke="#101727"/>
<path d="M468.189 233.51V295.51C468.189 300.1 471.909 303.81 476.489 303.81H499.189" stroke="#101727"/>
<path d="M393.611 70.97V272.74C393.611 278.86 388.651 283.81 382.541 283.81H339.801" stroke="#101727"/>
<path d="M506.949 356.15V105.09" stroke="#101727"/>
<path d="M579.77 158.19C579.77 154.39 576.69 151.31 572.89 151.31C569.09 151.31 566.01 154.39 566.01 158.19C566.01 161.99 569.09 165.07 572.89 165.07C576.69 165.07 579.77 161.99 579.77 158.19Z" fill="#B7AB65"/>
<path d="M500.069 356.15C500.069 359.95 503.149 363.03 506.949 363.03C510.749 363.03 513.829 359.95 513.829 356.15C513.829 352.35 510.749 349.27 506.949 349.27C503.149 349.27 500.069 352.35 500.069 356.15H405.689H500.069Z" fill="#849465"/>
<path d="M329.35 283.81C329.35 280.01 332.43 276.93 336.23 276.93C340.03 276.93 343.11 280.01 343.11 283.81C343.11 287.61 340.03 290.69 336.23 290.69C332.43 290.69 329.35 287.61 329.35 283.81Z" fill="#B7AB65"/>
<path d="M398.811 356.77C398.811 352.97 401.891 349.89 405.691 349.89C409.491 349.89 412.571 352.97 412.571 356.77C412.571 360.57 409.491 363.65 405.691 363.65C401.891 363.65 398.811 360.57 398.811 356.77Z" fill="#01654D"/>
<path d="M461.24 236.26C461.24 232.46 464.32 229.38 468.12 229.38C471.92 229.38 475 232.46 475 236.26C475 240.06 471.92 243.14 468.12 243.14C464.32 243.14 461.24 240.06 461.24 236.26Z" fill="#01654D"/>
<path d="M506.951 274.33C511.231 274.33 514.691 277.8 514.691 282.07V322.83C514.691 327.11 511.221 330.57 506.951 330.57C502.681 330.57 499.211 327.1 499.211 322.83V282.07C499.211 277.79 502.681 274.33 506.951 274.33Z" fill="#EAE2CF" stroke="#101727" stroke-miterlimit="10"/>
<path d="M80.3709 112.3C71.0109 102.94 65.2109 90 65.2109 75.71C65.2109 61.42 71.0009 48.49 80.3709 39.12" stroke="#101727" stroke-miterlimit="10"/>
<path d="M94.1492 52.9C88.0592 58.99 84.6992 67.09 84.6992 75.71C84.6992 84.33 88.0592 92.43 94.1492 98.52" stroke="#101727" stroke-miterlimit="10"/>
<path d="M66.6002 126.07C53.1502 112.62 45.7402 94.73 45.7402 75.71C45.7402 56.69 53.1502 38.8 66.6002 25.35" stroke="#101727" stroke-miterlimit="10"/>
<path d="M213.27 112.3C222.63 102.94 228.43 90 228.43 75.71C228.43 61.42 222.64 48.49 213.27 39.12" stroke="#101727" stroke-miterlimit="10"/>
<path d="M199.49 52.9C205.58 58.99 208.94 67.09 208.94 75.71C208.94 84.33 205.58 92.43 199.49 98.52" stroke="#101727" stroke-miterlimit="10"/>
<path d="M227.051 126.07C240.501 112.62 247.911 94.73 247.911 75.71C247.911 56.68 240.501 38.8 227.051 25.35" stroke="#101727" stroke-miterlimit="10"/>
<path d="M244.529 243.68V168.99C244.529 162.87 249.489 157.92 255.599 157.92H293.079" stroke="#101727"/>
<path d="M226.529 243.68C226.529 239.4 229.999 235.94 234.269 235.94H254.809C259.089 235.94 262.549 239.41 262.549 243.68C262.549 247.95 259.079 251.42 254.809 251.42H234.269C229.989 251.42 226.529 247.95 226.529 243.68Z" fill="#EAE2CF" stroke="#101727" stroke-miterlimit="10"/>
<path d="M499.82 79.99H492.82V93.37H499.82V79.99Z" fill="#849465" stroke="#101727" stroke-miterlimit="3"/>
<path d="M513.52 71.23H506.52V93.38H513.52V71.23Z" fill="#B7AB65" stroke="#101727" stroke-miterlimit="3"/>
<path d="M527.221 62H520.221V93.37H527.221V62Z" fill="#E9BE51" stroke="#101727" stroke-miterlimit="3"/>
<path d="M529.59 50.8H533.48C535.07 50.8 536.36 52.09 536.36 53.68V90.01" stroke="#101727" stroke-miterlimit="10"/>
<path d="M536.36 96.0391V101.699C536.36 103.289 535.07 104.579 533.48 104.579H485.45C483.86 104.579 482.57 103.289 482.57 101.699V53.6691C482.57 52.0791 483.86 50.7891 485.45 50.7891H524.99" stroke="#101727" stroke-miterlimit="10"/>
<path d="M422.31 62.25V67.91C422.31 69.5 421.02 70.79 419.43 70.79H371.4C369.81 70.79 368.52 69.5 368.52 67.91V19.88C368.52 18.29 369.81 17 371.4 17H410.94" stroke="#101727" stroke-miterlimit="10"/>
<path d="M351.31 176.25V181.91C351.31 183.5 350.02 184.79 348.43 184.79H300.4C298.81 184.79 297.52 183.5 297.52 181.91V133.88C297.52 132.29 298.81 131 300.4 131H339.94" stroke="#101727" stroke-miterlimit="10"/>
<path d="M480.931 104.582C479.341 104.582 478.051 103.292 478.051 101.702V53.6719" stroke="#101727" stroke-miterlimit="10"/>
<path d="M366.88 70.7928C365.29 70.7928 364 69.5028 364 67.9128V19.8828" stroke="#101727" stroke-miterlimit="10"/>
<path d="M295.88 184.793C294.29 184.793 293 183.503 293 181.913V133.883" stroke="#101727" stroke-miterlimit="10"/>
<path d="M324.331 146.97L336.041 154.72V171.12H312.971V154.72L324.331 146.97Z" fill="#E9BE51" stroke="#101727" stroke-miterlimit="3"/>
<path d="M333.071 146.97L344.781 154.72V171.12H321.721V154.72L333.071 146.97Z" fill="#B7AB65" stroke="#101727" stroke-miterlimit="3"/>
<path d="M315.58 146.97L327.29 154.72V171.12H304.23V154.72L315.58 146.97Z" fill="#849465" stroke="#101727" stroke-miterlimit="3"/>
<path d="M344.17 130.71H348.06C349.65 130.71 350.94 132 350.94 133.59V169.92" stroke="#101727" stroke-miterlimit="10"/>
<path d="M415.74 17.18H419.63C421.22 17.18 422.51 18.47 422.51 20.06V56.39" stroke="#101727" stroke-miterlimit="10"/>
<path d="M382.859 30.06H415.039" stroke="#101727" stroke-miterlimit="10"/>
<path d="M382.859 44.07H415.039" stroke="#101727" stroke-miterlimit="10"/>
<path d="M382.859 57.81H415.039" stroke="#101727" stroke-miterlimit="10"/>
<path d="M379.859 33.06C381.516 33.06 382.859 31.7169 382.859 30.06C382.859 28.4031 381.516 27.06 379.859 27.06C378.203 27.06 376.859 28.4031 376.859 30.06C376.859 31.7169 378.203 33.06 379.859 33.06Z" fill="#E9BE51" stroke="#101727" stroke-miterlimit="10"/>
<path d="M379.859 47.07C381.516 47.07 382.859 45.7269 382.859 44.07C382.859 42.4132 381.516 41.07 379.859 41.07C378.203 41.07 376.859 42.4132 376.859 44.07C376.859 45.7269 378.203 47.07 379.859 47.07Z" fill="#EAE2CF" stroke="#101727" stroke-miterlimit="10"/>
<path d="M397.65 47.07C399.307 47.07 400.65 45.7269 400.65 44.07C400.65 42.4132 399.307 41.07 397.65 41.07C395.994 41.07 394.65 42.4132 394.65 44.07C394.65 45.7269 395.994 47.07 397.65 47.07Z" fill="#B7AB65" stroke="#101727" stroke-miterlimit="10"/>
<path d="M379.859 61.09C381.516 61.09 382.859 59.7469 382.859 58.09C382.859 56.4331 381.516 55.09 379.859 55.09C378.203 55.09 376.859 56.4331 376.859 58.09C376.859 59.7469 378.203 61.09 379.859 61.09Z" fill="#849465" stroke="#101727" stroke-miterlimit="10"/>
<path d="M506.949 158.19H566.019" stroke="#101727"/>
<path d="M360.139 393.72H312.729C310.967 393.72 309.539 395.148 309.539 396.91V444.32C309.539 446.082 310.967 447.51 312.729 447.51H360.139C361.901 447.51 363.329 446.082 363.329 444.32V396.91C363.329 395.148 361.901 393.72 360.139 393.72Z" fill="#E5ECE9"/>
<path d="M356.561 393.72H360.451C362.041 393.72 363.331 395.01 363.331 396.6V432.93" stroke="#101727" stroke-miterlimit="10"/>
<path d="M363.319 438.97V444.63C363.319 446.22 362.029 447.51 360.439 447.51H312.409C310.819 447.51 309.529 446.22 309.529 444.63V396.6C309.529 395.01 310.819 393.72 312.409 393.72H351.949" stroke="#101727" stroke-miterlimit="10"/>
<path d="M307.89 447.51C306.3 447.51 305.01 446.22 305.01 444.63V396.6" stroke="#101727" stroke-miterlimit="10"/>
<path d="M336.43 406.77C330.76 406.77 326.17 411.37 326.17 417.03C326.17 426.92 336.43 437.33 336.43 437.33C336.43 437.33 346.69 426.83 346.69 417.03C346.69 411.36 342.09 406.77 336.43 406.77ZM336.43 422.05C333.79 422.05 331.65 419.91 331.65 417.27C331.65 414.63 333.79 412.49 336.43 412.49C339.07 412.49 341.21 414.63 341.21 417.27C341.21 419.91 339.07 422.05 336.43 422.05Z" fill="#849465" stroke="#101727" stroke-miterlimit="10"/>
<path d="M336.43 422.01C339.103 422.01 341.27 419.843 341.27 417.17C341.27 414.497 339.103 412.33 336.43 412.33C333.757 412.33 331.59 414.497 331.59 417.17C331.59 419.843 333.757 422.01 336.43 422.01Z" fill="#E9BE51" stroke="#101727" stroke-miterlimit="10"/>
<path d="M545.171 367.37L544.311 450.97L573.681 451.02L573.521 383.5L583.331 367.37H545.171Z" fill="#01654D"/>
<path d="M583.32 367.37H599.42L620.98 450.97L591.61 451.02L570.62 383.5L554.84 367.37H583.31H583.32Z" fill="#01654D"/>
<path d="M570.18 453.09L569.7 469.51H534.58C534.58 469.51 529.6 458.47 546.84 458.47C547.24 455.1 546.57 452.88 546.57 452.88L570.17 453.09H570.18Z" fill="#EAE2CF"/>
<path d="M570.18 453.09L569.7 469.51H534.58C534.58 469.51 529.6 458.47 546.84 458.47C547.28 455.75 546.57 452.88 546.57 452.88L570.17 453.09H570.18Z" stroke="#101727" stroke-miterlimit="10"/>
<path d="M593.58 453.11L596.48 469.51H631.6C631.6 469.51 636.58 458.47 619.34 458.47C618.73 455.3 618.11 452.9 618.11 452.9L593.59 453.12L593.58 453.11Z" fill="#EAE2CF" stroke="#101727" stroke-miterlimit="10"/>
<path d="M574.849 455.29H542.599L541.539 446.25H575.909L574.849 455.29Z" fill="#01654D"/>
<path d="M590.441 455.29H622.691L623.751 446.25H589.381L590.441 455.29Z" fill="#01654D"/>
<path d="M541.539 446.25H575.909" stroke="#101727" stroke-miterlimit="10"/>
<path d="M542.6 455.29H574.85" stroke="#101727" stroke-miterlimit="10"/>
<path d="M589.381 446.25H623.751" stroke="#101727" stroke-miterlimit="10"/>
<path d="M590.439 455.29H622.689" stroke="#101727" stroke-miterlimit="10"/>
<path d="M602.631 368.67H538.211L538.771 319.35C538.821 315.14 541.491 311.41 545.461 310.02L555.361 306.53H578.331L594.111 308.71L602.631 368.68V368.67Z" fill="#EAE2CF"/>
<path d="M602.63 368.67H538.26L538.76 319.35C538.81 315.14 541.48 311.41 545.45 310.02L555.35 306.53H578.32L594.1 308.71L602.62 368.68L602.63 368.67Z" stroke="#101727" stroke-miterlimit="10"/>
<path d="M579.631 310.09L573.511 294.65L575.571 294.8L578.331 294.39L580.361 293.32L581.621 291.63L581.881 289.71L581.111 287.87L578.861 286.43H577.271L575.761 286.5L548.081 278.95L547.311 280.79L546.461 285.14L546.051 289.56L546.311 293.8L551.911 303.12L562.061 306.56L573.221 311.89L579.631 310.08V310.09Z" fill="#EAE2CF"/>
<path d="M547.85 278.9C543.45 295.4 549.48 304.64 551.76 308.13L551.88 308.31C552.81 309.74 554.37 310.53 555.97 310.53C556.72 310.53 557.48 310.36 558.19 310L558.34 309.92C562.04 308.05 571.86 303.07 576.32 286.54L547.86 278.9H547.85Z" stroke="#101727" stroke-miterlimit="10"/>
<path d="M570.37 262.55L564.99 261.11C558.62 259.4 552.06 263.19 550.36 269.56L547.85 278.92L576.31 286.54L578.82 277.18C580.53 270.81 576.74 264.26 570.37 262.55Z" fill="#E9BE51"/>
<path d="M576.319 286.53L540.359 276.9C539.679 276.72 539.279 276.02 539.459 275.34C539.639 274.66 540.339 274.26 541.019 274.44L556.259 278.52" fill="#E9BE51"/>
<path d="M576.319 286.53L540.359 276.9C539.679 276.72 539.279 276.02 539.459 275.34C539.639 274.66 540.339 274.26 541.019 274.44L556.259 278.52" stroke="#101727" stroke-miterlimit="10"/>
<path d="M576.321 286.53C579.771 285.19 583.081 289.03 581.141 292.23C579.331 295.23 575.441 294.92 573.141 294.61" stroke="#101727" stroke-miterlimit="10"/>
<path d="M558.05 284.76C557.17 288.13 554.87 291.24 551.57 293.01C549.55 294.09 552.55 295.88 555.77 293.38" stroke="#101727" stroke-miterlimit="10"/>
<path d="M561.321 296.82C567.601 295.05 569.341 290.56 571.181 285.17L576.321 286.55C571.871 303.08 562.051 308.05 558.341 309.93L558.191 310.01C557.481 310.37 556.721 310.54 555.971 310.54C554.371 310.54 552.811 309.75 551.881 308.32L551.761 308.14C550.221 305.79 546.971 300.8 546.381 292.73C550.371 296.34 555.911 298.35 561.321 296.83V296.82Z" fill="#101727"/>
<path d="M560.46 290.32C559.74 290.32 559.15 289.73 559.15 289.01C559.15 288.29 559.74 287.7 560.46 287.7C561.18 287.7 561.77 288.29 561.77 289.01C561.77 289.73 561.18 290.32 560.46 290.32Z" stroke="#101727" stroke-miterlimit="10"/>
<path d="M560.652 321.62C559.932 321.62 559.342 321.03 559.342 320.31C559.342 319.59 559.932 319 560.652 319C561.372 319 561.962 319.59 561.962 320.31C561.962 321.03 561.372 321.62 560.652 321.62Z" stroke="#101727" stroke-miterlimit="10"/>
<path d="M559.31 327.75C558.59 327.75 558 327.16 558 326.44C558 325.72 558.59 325.13 559.31 325.13C560.03 325.13 560.62 325.72 560.62 326.44C560.62 327.16 560.03 327.75 559.31 327.75Z" stroke="#101727" stroke-miterlimit="10"/>
<path d="M550.99 289.01C550.27 289.01 549.68 288.42 549.68 287.7C549.68 286.98 550.27 286.39 550.99 286.39C551.71 286.39 552.3 286.98 552.3 287.7C552.3 288.42 551.71 289.01 550.99 289.01Z" stroke="#101727" stroke-miterlimit="10"/>
<path d="M560.779 285.17C562.179 285.39 563.249 286.15 563.819 287.12" stroke="#101727" stroke-miterlimit="10"/>
<path d="M551.389 283.38C549.999 283.1 548.739 283.43 547.859 284.14" stroke="#101727" stroke-miterlimit="10"/>
<path d="M560.021 300.97C558.051 302.34 553.751 302.47 552.061 300.18" stroke="#EAE2CF" stroke-miterlimit="10"/>
<path d="M573.13 293.62L578.32 306.52L564.88 314.8L557.83 306.06L573.13 293.63V293.62Z" stroke="#101727" stroke-miterlimit="10"/>
<path d="M561.77 330.28C561.81 330.17 564.88 314.79 564.88 314.79" stroke="#101727" stroke-miterlimit="10"/>
<path d="M578.329 306.57L574.309 323.78C574.309 323.78 571.049 314.8 564.879 314.8C558.709 314.8 554.109 321.11 554.109 321.11L556.359 310.04" stroke="#101727" stroke-miterlimit="10"/>
<path d="M557.96 264.94L556.24 265.33L557.24 269.71L558.96 269.32L557.96 264.94Z" fill="#01654D"/>
<path d="M559.999 269.11C560.419 271.71 559.649 273.25 559.109 274.07C558.259 273.56 556.909 272.49 556.159 269.92C556.079 269.92 556.009 269.92 555.929 269.92C555.349 269.9 554.799 269.82 554.279 269.71C555.249 273.96 557.699 275.32 558.619 275.83L558.659 275.85C558.839 275.95 559.029 276 559.219 276.01C559.629 276.03 560.029 275.84 560.279 275.48L560.309 275.44C560.919 274.58 562.549 272.29 561.589 268.05C561.119 268.46 560.589 268.82 559.999 269.11Z" fill="white"/>
<path d="M583.41 331.8C589.58 327.16 597.73 328.26 601.54 332.17L583.41 331.8Z" fill="#EAE2CF"/>
<path d="M538.629 330.87C541.709 330.16 545.299 330.95 545.299 330.95L545.139 374.08H538.199L538.629 330.87Z" fill="#EAE2CF" stroke="#101727" stroke-miterlimit="10"/>
<path d="M545.14 374.08H538.2L538.16 391.5C538.16 394.74 539.5 397.83 541.87 400.04L544.91 402.88L545.14 374.07V374.08Z" fill="#EAE2CF" stroke="#101727" stroke-miterlimit="10"/>
<path d="M545.1 379.49V388.02C545.1 389.33 544.04 390.4 542.72 390.4C541.41 390.4 540.34 389.34 540.34 388.02V379.49" fill="#EAE2CF"/>
<path d="M545.1 379.49V388.02C545.1 389.33 544.04 390.4 542.72 390.4C541.41 390.4 540.34 389.34 540.34 388.02V379.49" stroke="#101727" stroke-miterlimit="10"/>
<path d="M543.479 354.17L549.019 353.53L548.999 353.36L537.159 354.64C535.629 354.81 534.229 353.73 534.019 352.21C533.799 350.63 534.949 349.21 536.529 349.02L548.299 347.64L549.839 347.45L549.569 345.73L556.119 346.68L583.419 343.36V317.62C583.419 312.61 587.479 308.56 592.489 308.56C597.499 308.56 601.559 312.62 601.559 317.62V350.28C601.559 355.26 597.989 359.53 593.089 360.42L556.989 364.53L546.049 365.8C544.469 365.98 542.699 364.77 542.519 363.19C542.339 361.61 543.469 360.18 545.049 359.99L549.759 359.4V359.29L544.159 359.89C542.579 360.07 541.149 358.94 540.969 357.36C540.789 355.78 541.919 354.35 543.499 354.16L543.479 354.17Z" fill="#EAE2CF"/>
<path d="M543.549 353.99L549.059 353.35H548.999L537.159 354.64C535.629 354.81 534.229 353.73 534.019 352.21C533.799 350.63 534.949 349.21 536.529 349.02L548.299 347.64L549.839 347.45L556.119 346.69L583.419 343.37V317.63C583.419 312.62 587.479 308.57 592.489 308.57C597.499 308.57 601.559 312.63 601.559 317.63V350.29C601.559 355.27 597.989 359.54 593.089 360.43L556.989 364.54L546.049 365.79C544.469 365.97 542.699 364.76 542.519 363.18C542.339 361.6 543.469 360.17 545.049 359.98L549.759 359.42L549.479 359.45L543.919 360.05C542.339 360.23 541.189 358.95 540.999 357.37C540.819 355.79 541.989 354.18 543.569 353.99H543.549Z" stroke="#101727" stroke-miterlimit="10"/>
<path d="M583.41 331.8C589.58 327.16 597.73 328.26 601.54 332.17" stroke="#101727" stroke-miterlimit="10"/>
<path d="M565.539 265.072C567.719 263.102 569.959 262.922 569.959 262.922" stroke="#101727"/>
</g>
<defs>
<clipPath id="clip0_2680_1369">
<rect width="678" height="470" fill="white"/>
</clipPath>
</defs>
</svg>
