<svg width="421" height="415" viewBox="0 0 421 415" fill="none" xmlns="http://www.w3.org/2000/svg">
<path d="M294.896 38.2148C324.408 53.7152 348.891 77.51 365.259 106.491" stroke="#101727" stroke-miterlimit="10"/>
<path d="M367.406 110.413L362.094 106.148L365.073 106.207L366.602 103.648L367.406 110.413Z" fill="black"/>
<path d="M61.7949 110.56C77.4082 81.0787 101.303 56.6565 130.374 40.3816" stroke="#101727" stroke-miterlimit="10"/>
<path d="M134.304 38.254L130.03 43.5483L130.099 40.5678L127.551 39.0384L134.304 38.254Z" fill="black"/>
<path d="M298.826 342.33C327.877 326.095 351.772 301.712 367.405 272.26" stroke="#101727" stroke-miterlimit="10"/>
<path d="M294.896 344.458L301.659 343.673L299.111 342.144L299.18 339.164L294.896 344.458Z" fill="black"/>
<path d="M63.9414 276.035C80.2898 305.055 104.783 328.879 134.314 344.419" stroke="#101727" stroke-miterlimit="10"/>
<path d="M61.7949 272.113L62.5986 278.878L64.1276 276.319L67.1072 276.378L61.7949 272.113Z" fill="black"/>
<path d="M299.641 168.091L299.719 168.159" stroke="#0A644B" stroke-miterlimit="10"/>
<path d="M401.749 278.525L401.475 278.809" stroke="#0A644B" stroke-miterlimit="10"/>
<path d="M90.4062 141H44.6543V208.492H90.4062V141Z" fill="#EAE2CF"/>
<mask id="mask0_2680_2647" style="mask-type:luminance" maskUnits="userSpaceOnUse" x="44" y="141" width="47" height="68">
<path d="M90.4062 141H44.6543V208.492H90.4062V141Z" fill="white"/>
</mask>
<g mask="url(#mask0_2680_2647)">
<path d="M44.6543 141V208.492H90.3964V153.706L77.7039 141H44.6543Z" fill="#EAE2CF"/>
<path d="M53.2598 186.678H81.791" stroke="#B7AB65" stroke-miterlimit="10"/>
<path d="M53.2598 182.491H81.791" stroke="#B7AB65" stroke-miterlimit="10"/>
<path d="M53.2598 191.237H81.791" stroke="#B7AB65" stroke-miterlimit="10"/>
<path d="M53.2598 195.423H81.791" stroke="#B7AB65" stroke-miterlimit="10"/>
<path d="M53.2598 199.619H81.791" stroke="#B7AB65" stroke-miterlimit="10"/>
<mask id="mask1_2680_2647" style="mask-type:luminance" maskUnits="userSpaceOnUse" x="44" y="141" width="47" height="68">
<path d="M90.4062 141H44.6543V208.492H90.4062V141Z" fill="white"/>
</mask>
<g mask="url(#mask1_2680_2647)">
<path d="M67.5196 176.128C74.0766 176.128 79.3888 170.815 79.3888 164.256C79.3888 157.697 74.0766 152.383 67.5196 152.383C60.9626 152.383 55.6504 157.697 55.6504 164.256C55.6504 170.815 60.9626 176.128 67.5196 176.128Z" fill="#00654D"/>
<path d="M63.3535 164.108L67.4406 167.363L72.8999 161.618" stroke="white" stroke-linecap="round" stroke-linejoin="round"/>
</g>
</g>
<path d="M90.4062 141H44.6543V208.492H90.4062V141Z" stroke="#101727"/>
<path fill-rule="evenodd" clip-rule="evenodd" d="M38.6274 171.453C52.6725 171.453 64.0615 182.846 64.0615 196.895C64.0615 210.944 52.6725 222.337 38.6274 222.337C24.5823 222.337 13.1934 210.944 13.1934 196.895C13.1934 182.846 24.5823 171.453 38.6274 171.453Z" fill="#E9BE51" stroke="#101727" stroke-miterlimit="10"/>
<path d="M38.6274 222.337C52.6743 222.337 64.0615 210.946 64.0615 196.895C64.0615 182.844 52.6743 171.453 38.6274 171.453C24.5806 171.453 13.1934 182.844 13.1934 196.895C13.1934 210.946 24.5806 222.337 38.6274 222.337Z" stroke="#101727" stroke-miterlimit="10"/>
<path fill-rule="evenodd" clip-rule="evenodd" d="M38.6282 178.767C48.6352 178.767 56.7506 186.885 56.7506 196.895C56.7506 206.905 48.6352 215.023 38.6282 215.023C28.6212 215.023 20.5059 206.905 20.5059 196.895C20.5059 186.885 28.6212 178.767 38.6282 178.767Z" fill="#EAE2CF" stroke="#101727" stroke-miterlimit="10"/>
<path d="M38.6282 178.767C48.6352 178.767 56.7506 186.885 56.7506 196.895C56.7506 206.905 48.6352 215.023 38.6282 215.023C28.6212 215.023 20.5059 206.905 20.5059 196.895C20.5059 186.885 28.6212 178.767 38.6282 178.767Z" stroke="#101727" stroke-miterlimit="10"/>
<path fill-rule="evenodd" clip-rule="evenodd" d="M38.6271 186.091C44.596 186.091 49.428 190.924 49.428 196.895C49.428 202.866 44.596 207.699 38.6271 207.699C32.6582 207.699 27.8262 202.866 27.8262 196.895C27.8262 190.924 32.6582 186.091 38.6271 186.091Z" fill="#E9BE51" stroke="#101727" stroke-miterlimit="10"/>
<path d="M38.6271 207.699C44.5922 207.699 49.428 202.862 49.428 196.895C49.428 190.928 44.5922 186.091 38.6271 186.091C32.6619 186.091 27.8262 190.928 27.8262 196.895C27.8262 202.862 32.6619 207.699 38.6271 207.699Z" stroke="#101727" stroke-miterlimit="10"/>
<path fill-rule="evenodd" clip-rule="evenodd" d="M38.6286 192.679C40.9613 192.679 42.8431 194.571 42.8431 196.895C42.8431 199.219 40.9515 201.111 38.6286 201.111C36.3057 201.111 34.4141 199.219 34.4141 196.895C34.4141 194.571 36.3057 192.679 38.6286 192.679Z" fill="#EAE2CF" stroke="#101727" stroke-miterlimit="10"/>
<path d="M38.6286 192.679C40.9613 192.679 42.8431 194.571 42.8431 196.895C42.8431 199.219 40.9515 201.111 38.6286 201.111C36.3057 201.111 34.4141 199.219 34.4141 196.895C34.4141 194.571 36.3057 192.679 38.6286 192.679Z" stroke="#101727" stroke-miterlimit="10"/>
<path d="M38.6287 196.042H4.77539V197.973H38.6287V196.042Z" fill="#101727"/>
<path d="M4.7746 196.042L0.765918 190.689C0.236654 189.983 0.530689 189.414 1.40299 189.414H11.3904C12.2725 189.414 13.4192 189.993 13.9485 190.689L17.9572 196.042H4.7746Z" fill="#047857" stroke="#101727" stroke-miterlimit="10"/>
<path d="M4.7746 196.042L0.765918 190.689C0.236654 189.983 0.530689 189.414 1.40299 189.414H11.3904C12.2725 189.414 13.4192 189.993 13.9485 190.689L17.9572 196.042H4.7746Z" stroke="#101727" stroke-miterlimit="10"/>
<path d="M4.7746 197.797L0.765918 203.15C0.236654 203.856 0.530689 204.425 1.40299 204.425H11.3904C12.2725 204.425 13.4192 203.846 13.9485 203.14L17.9572 197.787H4.7746V197.797Z" fill="#01654D" stroke="#101727" stroke-miterlimit="10"/>
<path d="M4.7746 197.797L0.765918 203.15C0.236654 203.856 0.530689 204.425 1.40299 204.425H11.3904C12.2725 204.425 13.4192 203.846 13.9485 203.14L17.9572 197.787H4.7746V197.797Z" stroke="#101727" stroke-miterlimit="10"/>
<path d="M3.05495 244V234.478H6.44918C7.19002 234.478 7.80377 234.612 8.29043 234.882C8.77709 235.152 9.14131 235.521 9.38309 235.989C9.62487 236.454 9.74576 236.978 9.74576 237.56C9.74576 238.146 9.62332 238.673 9.37844 239.141C9.13666 239.606 8.77089 239.975 8.28113 240.248C7.79447 240.517 7.18227 240.652 6.44453 240.652H4.11042V239.434H6.31434C6.7824 239.434 7.16212 239.353 7.4535 239.192C7.74487 239.028 7.95875 238.805 8.09514 238.523C8.23153 238.241 8.29973 237.92 8.29973 237.56C8.29973 237.201 8.23153 236.881 8.09514 236.602C7.95875 236.323 7.74332 236.105 7.44885 235.947C7.15747 235.789 6.7731 235.71 6.29574 235.71H4.49168V244H3.05495ZM11.3185 244V236.858H12.6622V237.993H12.7366C12.8668 237.608 13.0962 237.306 13.4248 237.086C13.7564 236.863 14.1315 236.751 14.55 236.751C14.6368 236.751 14.7391 236.754 14.8569 236.761C14.9777 236.767 15.0723 236.774 15.1405 236.784V238.114C15.0847 238.098 14.9855 238.081 14.8429 238.062C14.7003 238.041 14.5577 238.03 14.4151 238.03C14.0866 238.03 13.7936 238.1 13.5364 238.239C13.2822 238.376 13.0807 238.566 12.9319 238.811C12.7831 239.053 12.7087 239.329 12.7087 239.639V244H11.3185ZM16.3436 244V236.858H17.7338V244H16.3436ZM17.0457 235.756C16.8039 235.756 16.5962 235.676 16.4226 235.514C16.2521 235.35 16.1669 235.155 16.1669 234.929C16.1669 234.699 16.2521 234.504 16.4226 234.343C16.5962 234.178 16.8039 234.096 17.0457 234.096C17.2875 234.096 17.4936 234.178 17.6641 234.343C17.8377 234.504 17.9244 234.699 17.9244 234.929C17.9244 235.155 17.8377 235.35 17.6641 235.514C17.4936 235.676 17.2875 235.756 17.0457 235.756ZM22.6124 244.144C21.9429 244.144 21.3586 243.991 20.8595 243.684C20.3605 243.377 19.973 242.948 19.6971 242.396C19.4212 241.844 19.2833 241.199 19.2833 240.462C19.2833 239.721 19.4212 239.073 19.6971 238.518C19.973 237.963 20.3605 237.532 20.8595 237.225C21.3586 236.919 21.9429 236.765 22.6124 236.765C23.282 236.765 23.8663 236.919 24.3653 237.225C24.8644 237.532 25.2519 237.963 25.5277 238.518C25.8036 239.073 25.9416 239.721 25.9416 240.462C25.9416 241.199 25.8036 241.844 25.5277 242.396C25.2519 242.948 24.8644 243.377 24.3653 243.684C23.8663 243.991 23.282 244.144 22.6124 244.144ZM22.6171 242.977C23.051 242.977 23.4106 242.862 23.6958 242.633C23.981 242.404 24.1918 242.098 24.3281 241.717C24.4676 241.336 24.5374 240.916 24.5374 240.457C24.5374 240.001 24.4676 239.583 24.3281 239.202C24.1918 238.817 23.981 238.509 23.6958 238.276C23.4106 238.044 23.051 237.928 22.6171 237.928C22.18 237.928 21.8173 238.044 21.5291 238.276C21.2439 238.509 21.0316 238.817 20.8921 239.202C20.7557 239.583 20.6875 240.001 20.6875 240.457C20.6875 240.916 20.7557 241.336 20.8921 241.717C21.0316 242.098 21.2439 242.404 21.5291 242.633C21.8173 242.862 22.18 242.977 22.6171 242.977ZM27.4934 244V236.858H28.8371V237.993H28.9115C29.0417 237.608 29.2711 237.306 29.5997 237.086C29.9313 236.863 30.3064 236.751 30.7249 236.751C30.8117 236.751 30.9139 236.754 31.0317 236.761C31.1526 236.767 31.2472 236.774 31.3154 236.784V238.114C31.2596 238.098 31.1604 238.081 31.0178 238.062C30.8752 238.041 30.7326 238.03 30.59 238.03C30.2615 238.03 29.9685 238.1 29.7112 238.239C29.4571 238.376 29.2556 238.566 29.1068 238.811C28.958 239.053 28.8836 239.329 28.8836 239.639V244H27.4934ZM32.5185 244V236.858H33.9087V244H32.5185ZM33.2205 235.756C32.9788 235.756 32.7711 235.676 32.5975 235.514C32.427 235.35 32.3418 235.155 32.3418 234.929C32.3418 234.699 32.427 234.504 32.5975 234.343C32.7711 234.178 32.9788 234.096 33.2205 234.096C33.4623 234.096 33.6685 234.178 33.8389 234.343C34.0125 234.504 34.0993 234.699 34.0993 234.929C34.0993 235.155 34.0125 235.35 33.8389 235.514C33.6685 235.676 33.4623 235.756 33.2205 235.756ZM39.1128 236.858V237.974H35.2118V236.858H39.1128ZM36.2579 235.147H37.6482V241.903C37.6482 242.173 37.6885 242.376 37.769 242.512C37.8496 242.645 37.9535 242.737 38.0806 242.786C38.2108 242.833 38.3518 242.856 38.5037 242.856C38.6153 242.856 38.7129 242.848 38.7966 242.833C38.8803 242.817 38.9454 242.805 38.9919 242.796L39.243 243.944C39.1624 243.975 39.0477 244.006 38.8989 244.037C38.7501 244.071 38.5641 244.09 38.341 244.093C37.9752 244.099 37.6342 244.034 37.318 243.898C37.0019 243.761 36.7461 243.551 36.5508 243.265C36.3556 242.98 36.2579 242.622 36.2579 242.191V235.147ZM40.6507 244V236.858H42.0409V244H40.6507ZM41.3527 235.756C41.111 235.756 40.9033 235.676 40.7297 235.514C40.5592 235.35 40.474 235.155 40.474 234.929C40.474 234.699 40.5592 234.504 40.7297 234.343C40.9033 234.178 41.111 234.096 41.3527 234.096C41.5945 234.096 41.8007 234.178 41.9711 234.343C42.1447 234.504 42.2315 234.699 42.2315 234.929C42.2315 235.155 42.1447 235.35 41.9711 235.514C41.8007 235.676 41.5945 235.756 41.3527 235.756ZM43.7624 244V243.047L47.6309 238.132V238.067H43.8879V236.858H49.3652V237.872L45.6455 242.726V242.791H49.4954V244H43.7624ZM54.009 244.144C53.3054 244.144 52.6994 243.994 52.191 243.693C51.6858 243.389 51.2952 242.963 51.0193 242.414C50.7465 241.863 50.6101 241.216 50.6101 240.476C50.6101 239.744 50.7465 239.099 51.0193 238.541C51.2952 237.983 51.6796 237.548 52.1724 237.235C52.6684 236.922 53.248 236.765 53.9114 236.765C54.3143 236.765 54.7049 236.832 55.0831 236.965C55.4613 237.098 55.8007 237.308 56.1014 237.593C56.402 237.878 56.6392 238.248 56.8127 238.704C56.9863 239.157 57.0731 239.707 57.0731 240.355V240.848H51.3959V239.806H55.7108C55.7108 239.44 55.6364 239.116 55.4876 238.834C55.3388 238.549 55.1296 238.324 54.8599 238.16C54.5933 237.996 54.2802 237.914 53.9207 237.914C53.5301 237.914 53.1891 238.01 52.8978 238.202C52.6095 238.391 52.3863 238.639 52.2282 238.946C52.0732 239.25 51.9957 239.58 51.9957 239.936V240.75C51.9957 241.227 52.0794 241.633 52.2468 241.968C52.4173 242.303 52.6544 242.559 52.9582 242.735C53.262 242.909 53.6169 242.996 54.023 242.996C54.2864 242.996 54.5267 242.958 54.7437 242.884C54.9606 242.807 55.1482 242.692 55.3063 242.54C55.4644 242.388 55.5852 242.201 55.6689 241.977L56.9848 242.215C56.8794 242.602 56.6903 242.941 56.4175 243.233C56.1478 243.521 55.8084 243.746 55.3993 243.907C54.9932 244.065 54.5298 244.144 54.009 244.144ZM62.1924 244V234.478H68.0974V235.714H63.6291V238.616H67.6743V239.848H63.6291V244H62.1924ZM69.7526 244V236.858H71.1429V244H69.7526ZM70.4547 235.756C70.213 235.756 70.0053 235.676 69.8317 235.514C69.6612 235.35 69.576 235.155 69.576 234.929C69.576 234.699 69.6612 234.504 69.8317 234.343C70.0053 234.178 70.213 234.096 70.4547 234.096C70.6965 234.096 70.9027 234.178 71.0731 234.343C71.2467 234.504 71.3335 234.699 71.3335 234.929C71.3335 235.155 71.2467 235.35 71.0731 235.514C70.9027 235.676 70.6965 235.756 70.4547 235.756ZM73.0132 244V236.858H74.3569V237.993H74.4313C74.5615 237.608 74.7909 237.306 75.1195 237.086C75.4512 236.863 75.8262 236.751 76.2447 236.751C76.3315 236.751 76.4338 236.754 76.5516 236.761C76.6725 236.767 76.767 236.774 76.8352 236.784V238.114C76.7794 238.098 76.6802 238.081 76.5376 238.062C76.395 238.041 76.2524 238.03 76.1099 238.03C75.7813 238.03 75.4884 238.1 75.2311 238.239C74.9769 238.376 74.7754 238.566 74.6266 238.811C74.4778 239.053 74.4034 239.329 74.4034 239.639V244H73.0132ZM83.39 238.602L82.1299 238.825C82.0772 238.664 81.9936 238.51 81.8789 238.365C81.7673 238.219 81.6154 238.1 81.4232 238.007C81.231 237.914 80.9908 237.867 80.7025 237.867C80.3088 237.867 79.9803 237.955 79.7168 238.132C79.4533 238.306 79.3216 238.53 79.3216 238.806C79.3216 239.045 79.4099 239.237 79.5866 239.383C79.7633 239.529 80.0485 239.648 80.4421 239.741L81.5766 240.001C82.2338 240.153 82.7235 240.387 83.0459 240.703C83.3683 241.02 83.5295 241.43 83.5295 241.936C83.5295 242.363 83.4055 242.745 83.1575 243.079C82.9126 243.411 82.5701 243.671 82.1299 243.861C81.6929 244.05 81.1861 244.144 80.6095 244.144C79.8098 244.144 79.1573 243.974 78.652 243.633C78.1468 243.289 77.8368 242.8 77.7221 242.168L79.0658 241.963C79.1495 242.314 79.3216 242.579 79.5819 242.759C79.8423 242.935 80.1818 243.024 80.6002 243.024C81.0559 243.024 81.4201 242.929 81.6929 242.74C81.9657 242.548 82.102 242.314 82.102 242.038C82.102 241.815 82.0184 241.627 81.851 241.475C81.6867 241.323 81.434 241.209 81.0931 241.131L79.8842 240.866C79.2177 240.714 78.7249 240.472 78.4056 240.141C78.0894 239.809 77.9313 239.389 77.9313 238.881C77.9313 238.459 78.0491 238.09 78.2847 237.774C78.5203 237.458 78.8458 237.212 79.2611 237.035C79.6765 236.855 80.1523 236.765 80.6886 236.765C81.4604 236.765 82.0679 236.933 82.5112 237.267C82.9545 237.599 83.2474 238.044 83.39 238.602ZM88.3918 236.858V237.974H84.4908V236.858H88.3918ZM85.537 235.147H86.9272V241.903C86.9272 242.173 86.9675 242.376 87.0481 242.512C87.1287 242.645 87.2325 242.737 87.3596 242.786C87.4898 242.833 87.6308 242.856 87.7827 242.856C87.8943 242.856 87.992 242.848 88.0757 242.833C88.1593 242.817 88.2244 242.805 88.2709 242.796L88.522 243.944C88.4414 243.975 88.3267 244.006 88.1779 244.037C88.0292 244.071 87.8432 244.09 87.62 244.093C87.2542 244.099 86.9132 244.034 86.5971 243.898C86.2809 243.761 86.0252 243.551 85.8299 243.265C85.6346 242.98 85.537 242.622 85.537 242.191V235.147Z" fill="#00654D"/>
<path d="M392 207.183L380.689 195.859" stroke="#121726" stroke-miterlimit="10"/>
<path d="M348.287 174.859H340.299V189.173H348.287V174.859Z" fill="#EABF46"/>
<path d="M348.287 174.859H340.299V189.173H348.287V174.859Z" stroke="#121726" stroke-miterlimit="10"/>
<path d="M360.275 166.859H352.287V189.164H360.275V166.859Z" fill="#829265"/>
<path d="M360.275 166.859H352.287V189.164H360.275V166.859Z" stroke="#121726" stroke-miterlimit="10"/>
<path d="M373.8 154.859H364.264V188.38H373.8V154.859Z" fill="#587A51"/>
<path d="M373.8 154.859H364.264V188.38H373.8V154.859Z" stroke="#121726" stroke-miterlimit="10"/>
<path d="M389.603 177.959C392.51 160.049 380.351 143.173 362.446 140.266C344.541 137.358 327.671 149.521 324.764 167.431C321.858 185.341 334.017 202.217 351.921 205.124C369.826 208.032 386.697 195.869 389.603 177.959Z" stroke="#121726" stroke-miterlimit="10"/>
<path d="M387.383 205.614L390.676 202.32C391.539 201.457 392.95 201.457 393.813 202.32L408.72 217.232C409.583 218.095 409.583 219.507 408.72 220.369L405.427 223.664C404.565 224.536 403.153 224.536 402.291 223.664L387.383 208.751C386.521 207.889 386.521 206.477 387.383 205.614Z" fill="#06654D"/>
<path d="M387.383 205.614L390.676 202.32C391.539 201.457 392.95 201.457 393.813 202.32L408.72 217.232C409.583 218.095 409.583 219.507 408.72 220.369L405.427 223.664C404.565 224.536 403.153 224.536 402.291 223.664L387.383 208.751C386.521 207.889 386.521 206.477 387.383 205.614Z" stroke="#121726" stroke-miterlimit="10"/>
<path d="M317.842 237.574H316.392C316.336 237.264 316.232 236.991 316.08 236.756C315.928 236.52 315.742 236.32 315.522 236.156C315.302 235.992 315.056 235.868 314.783 235.784C314.513 235.7 314.227 235.659 313.923 235.659C313.374 235.659 312.883 235.797 312.449 236.072C312.018 236.348 311.677 236.753 311.426 237.286C311.178 237.819 311.054 238.47 311.054 239.239C311.054 240.014 311.178 240.668 311.426 241.201C311.677 241.734 312.02 242.137 312.453 242.41C312.887 242.683 313.376 242.819 313.918 242.819C314.219 242.819 314.504 242.779 314.774 242.698C315.046 242.614 315.293 242.492 315.513 242.331C315.733 242.17 315.919 241.973 316.071 241.74C316.226 241.505 316.333 241.235 316.392 240.931L317.842 240.936C317.765 241.404 317.615 241.835 317.391 242.228C317.171 242.619 316.888 242.957 316.54 243.242C316.196 243.524 315.803 243.743 315.359 243.898C314.916 244.053 314.433 244.13 313.909 244.13C313.084 244.13 312.35 243.935 311.705 243.544C311.06 243.151 310.552 242.588 310.18 241.857C309.811 241.125 309.627 240.252 309.627 239.239C309.627 238.222 309.812 237.349 310.184 236.621C310.556 235.89 311.065 235.328 311.71 234.938C312.354 234.544 313.087 234.347 313.909 234.347C314.414 234.347 314.885 234.42 315.322 234.566C315.762 234.709 316.158 234.919 316.508 235.198C316.858 235.474 317.148 235.812 317.377 236.212C317.607 236.609 317.762 237.063 317.842 237.574ZM322.458 244.144C321.789 244.144 321.204 243.991 320.705 243.684C320.206 243.377 319.819 242.948 319.543 242.396C319.267 241.844 319.129 241.199 319.129 240.462C319.129 239.721 319.267 239.073 319.543 238.518C319.819 237.963 320.206 237.532 320.705 237.225C321.204 236.919 321.789 236.765 322.458 236.765C323.128 236.765 323.712 236.919 324.211 237.225C324.71 237.532 325.098 237.963 325.374 238.518C325.649 239.073 325.787 239.721 325.787 240.462C325.787 241.199 325.649 241.844 325.374 242.396C325.098 242.948 324.71 243.377 324.211 243.684C323.712 243.991 323.128 244.144 322.458 244.144ZM322.463 242.977C322.897 242.977 323.256 242.862 323.542 242.633C323.827 242.404 324.038 242.098 324.174 241.717C324.314 241.336 324.383 240.916 324.383 240.457C324.383 240.001 324.314 239.583 324.174 239.202C324.038 238.817 323.827 238.509 323.542 238.276C323.256 238.044 322.897 237.928 322.463 237.928C322.026 237.928 321.663 238.044 321.375 238.276C321.09 238.509 320.877 238.817 320.738 239.202C320.602 239.583 320.533 240.001 320.533 240.457C320.533 240.916 320.602 241.336 320.738 241.717C320.877 242.098 321.09 242.404 321.375 242.633C321.663 242.862 322.026 242.977 322.463 242.977ZM327.339 244V236.858H328.674V238.021H328.762C328.911 237.627 329.154 237.32 329.492 237.1C329.83 236.877 330.234 236.765 330.706 236.765C331.183 236.765 331.583 236.877 331.905 237.1C332.231 237.323 332.471 237.63 332.626 238.021H332.7C332.871 237.639 333.142 237.336 333.514 237.109C333.886 236.88 334.329 236.765 334.844 236.765C335.492 236.765 336.02 236.968 336.429 237.374C336.842 237.78 337.048 238.393 337.048 239.211V244H335.657V239.341C335.657 238.858 335.526 238.507 335.262 238.29C334.999 238.073 334.684 237.965 334.318 237.965C333.866 237.965 333.514 238.104 333.263 238.383C333.012 238.659 332.886 239.014 332.886 239.448V244H331.501V239.253C331.501 238.865 331.38 238.554 331.138 238.318C330.896 238.083 330.582 237.965 330.194 237.965C329.931 237.965 329.687 238.035 329.464 238.174C329.244 238.31 329.066 238.501 328.929 238.746C328.796 238.991 328.729 239.274 328.729 239.597V244H327.339ZM338.911 246.678V236.858H340.269V238.016H340.385C340.466 237.867 340.582 237.695 340.734 237.5C340.886 237.305 341.096 237.134 341.366 236.988C341.636 236.84 341.992 236.765 342.435 236.765C343.012 236.765 343.527 236.911 343.979 237.202C344.432 237.494 344.787 237.914 345.044 238.462C345.304 239.011 345.434 239.671 345.434 240.443C345.434 241.215 345.306 241.877 345.049 242.428C344.791 242.977 344.438 243.4 343.988 243.698C343.539 243.992 343.026 244.139 342.449 244.139C342.015 244.139 341.66 244.067 341.385 243.921C341.112 243.775 340.898 243.605 340.743 243.409C340.588 243.214 340.469 243.041 340.385 242.889H340.301V246.678H338.911ZM340.273 240.429C340.273 240.931 340.346 241.371 340.492 241.75C340.638 242.128 340.848 242.424 341.124 242.638C341.4 242.848 341.738 242.954 342.138 242.954C342.553 242.954 342.9 242.844 343.179 242.624C343.458 242.401 343.669 242.098 343.812 241.717C343.957 241.336 344.03 240.906 344.03 240.429C344.03 239.958 343.959 239.535 343.816 239.16C343.677 238.785 343.466 238.489 343.184 238.272C342.905 238.055 342.556 237.946 342.138 237.946C341.735 237.946 341.394 238.05 341.115 238.258C340.839 238.465 340.63 238.755 340.487 239.127C340.345 239.499 340.273 239.933 340.273 240.429ZM349.07 244.158C348.618 244.158 348.209 244.074 347.843 243.907C347.477 243.737 347.187 243.49 346.973 243.168C346.763 242.845 346.657 242.45 346.657 241.982C346.657 241.579 346.735 241.247 346.89 240.987C347.045 240.727 347.254 240.521 347.517 240.369C347.781 240.217 348.075 240.102 348.401 240.025C348.726 239.947 349.058 239.888 349.396 239.848C349.824 239.798 350.171 239.758 350.437 239.727C350.704 239.693 350.898 239.639 351.019 239.564C351.14 239.49 351.2 239.369 351.2 239.202V239.169C351.2 238.763 351.085 238.448 350.856 238.225C350.63 238.002 350.292 237.89 349.842 237.89C349.374 237.89 349.005 237.994 348.736 238.202C348.469 238.407 348.285 238.634 348.182 238.885L346.876 238.588C347.031 238.154 347.257 237.804 347.555 237.537C347.855 237.267 348.201 237.072 348.592 236.951C348.982 236.827 349.393 236.765 349.824 236.765C350.109 236.765 350.411 236.799 350.73 236.867C351.053 236.933 351.353 237.053 351.632 237.23C351.914 237.407 352.145 237.659 352.325 237.988C352.505 238.314 352.595 238.737 352.595 239.257V244H351.237V243.024H351.181C351.091 243.203 350.957 243.38 350.777 243.554C350.597 243.727 350.366 243.871 350.084 243.986C349.802 244.101 349.464 244.158 349.07 244.158ZM349.373 243.042C349.757 243.042 350.086 242.966 350.358 242.814C350.634 242.662 350.843 242.464 350.986 242.219C351.132 241.971 351.205 241.706 351.205 241.424V240.503C351.155 240.553 351.059 240.6 350.916 240.643C350.777 240.683 350.617 240.719 350.437 240.75C350.258 240.778 350.082 240.804 349.912 240.829C349.742 240.851 349.599 240.869 349.484 240.885C349.215 240.919 348.968 240.976 348.745 241.057C348.525 241.137 348.348 241.254 348.215 241.406C348.085 241.554 348.02 241.753 348.02 242.001C348.02 242.345 348.147 242.605 348.401 242.782C348.655 242.955 348.979 243.042 349.373 243.042ZM354.447 244V236.858H355.79V237.993H355.865C355.995 237.608 356.224 237.306 356.553 237.086C356.885 236.863 357.26 236.751 357.678 236.751C357.765 236.751 357.867 236.754 357.985 236.761C358.106 236.767 358.2 236.774 358.269 236.784V238.114C358.213 238.098 358.114 238.081 357.971 238.062C357.828 238.041 357.686 238.03 357.543 238.03C357.215 238.03 356.922 238.1 356.664 238.239C356.41 238.376 356.209 238.566 356.06 238.811C355.911 239.053 355.837 239.329 355.837 239.639V244H354.447ZM362.294 244.144C361.59 244.144 360.984 243.994 360.476 243.693C359.971 243.389 359.58 242.963 359.304 242.414C359.031 241.863 358.895 241.216 358.895 240.476C358.895 239.744 359.031 239.099 359.304 238.541C359.58 237.983 359.964 237.548 360.457 237.235C360.953 236.922 361.533 236.765 362.196 236.765C362.599 236.765 362.99 236.832 363.368 236.965C363.746 237.098 364.086 237.308 364.386 237.593C364.687 237.878 364.924 238.248 365.098 238.704C365.271 239.157 365.358 239.707 365.358 240.355V240.848H359.681V239.806H363.996C363.996 239.44 363.921 239.116 363.773 238.834C363.624 238.549 363.415 238.324 363.145 238.16C362.878 237.996 362.565 237.914 362.206 237.914C361.815 237.914 361.474 238.01 361.183 238.202C360.894 238.391 360.671 238.639 360.513 238.946C360.358 239.25 360.281 239.58 360.281 239.936V240.75C360.281 241.227 360.364 241.633 360.532 241.968C360.702 242.303 360.939 242.559 361.243 242.735C361.547 242.909 361.902 242.996 362.308 242.996C362.571 242.996 362.812 242.958 363.029 242.884C363.246 242.807 363.433 242.692 363.591 242.54C363.749 242.388 363.87 242.201 363.954 241.977L365.27 242.215C365.164 242.602 364.975 242.941 364.702 243.233C364.433 243.521 364.093 243.746 363.684 243.907C363.278 244.065 362.815 244.144 362.294 244.144ZM370.477 234.478H372.221L375.252 241.88H375.364L378.396 234.478H380.139V244H378.772V237.109H378.684L375.876 243.986H374.741L371.933 237.105H371.844V244H370.477V234.478ZM384.195 244.158C383.742 244.158 383.333 244.074 382.967 243.907C382.602 243.737 382.312 243.49 382.098 243.168C381.887 242.845 381.782 242.45 381.782 241.982C381.782 241.579 381.859 241.247 382.014 240.987C382.169 240.727 382.378 240.521 382.642 240.369C382.905 240.217 383.2 240.102 383.525 240.025C383.851 239.947 384.182 239.888 384.52 239.848C384.948 239.798 385.295 239.758 385.562 239.727C385.828 239.693 386.022 239.639 386.143 239.564C386.264 239.49 386.324 239.369 386.324 239.202V239.169C386.324 238.763 386.21 238.448 385.98 238.225C385.754 238.002 385.416 237.89 384.967 237.89C384.499 237.89 384.13 237.994 383.86 238.202C383.594 238.407 383.409 238.634 383.307 238.885L382 238.588C382.155 238.154 382.382 237.804 382.679 237.537C382.98 237.267 383.325 237.072 383.716 236.951C384.107 236.827 384.517 236.765 384.948 236.765C385.233 236.765 385.535 236.799 385.855 236.867C386.177 236.933 386.478 237.053 386.757 237.23C387.039 237.407 387.27 237.659 387.45 237.988C387.629 238.314 387.719 238.737 387.719 239.257V244H386.362V243.024H386.306C386.216 243.203 386.081 243.38 385.901 243.554C385.721 243.727 385.491 243.871 385.208 243.986C384.926 244.101 384.589 244.158 384.195 244.158ZM384.497 243.042C384.881 243.042 385.21 242.966 385.483 242.814C385.759 242.662 385.968 242.464 386.111 242.219C386.256 241.971 386.329 241.706 386.329 241.424V240.503C386.279 240.553 386.183 240.6 386.041 240.643C385.901 240.683 385.742 240.719 385.562 240.75C385.382 240.778 385.207 240.804 385.036 240.829C384.866 240.851 384.723 240.869 384.609 240.885C384.339 240.919 384.093 240.976 383.869 241.057C383.649 241.137 383.473 241.254 383.339 241.406C383.209 241.554 383.144 241.753 383.144 242.001C383.144 242.345 383.271 242.605 383.525 242.782C383.779 242.955 384.103 243.042 384.497 243.042ZM389.571 244V236.858H390.915V237.993H390.989C391.119 237.608 391.349 237.306 391.677 237.086C392.009 236.863 392.384 236.751 392.802 236.751C392.889 236.751 392.992 236.754 393.109 236.761C393.23 236.767 393.325 236.774 393.393 236.784V238.114C393.337 238.098 393.238 238.081 393.095 238.062C392.953 238.041 392.81 238.03 392.668 238.03C392.339 238.03 392.046 238.1 391.789 238.239C391.535 238.376 391.333 238.566 391.184 238.811C391.036 239.053 390.961 239.329 390.961 239.639V244H389.571ZM395.875 241.578L395.865 239.88H396.107L398.953 236.858H400.617L397.372 240.299H397.153L395.875 241.578ZM394.596 244V234.478H395.986V244H394.596ZM399.106 244L396.549 240.606L397.507 239.634L400.813 244H399.106ZM404.668 244.144C403.965 244.144 403.359 243.994 402.85 243.693C402.345 243.389 401.954 242.963 401.679 242.414C401.406 241.863 401.269 241.216 401.269 240.476C401.269 239.744 401.406 239.099 401.679 238.541C401.954 237.983 402.339 237.548 402.832 237.235C403.328 236.922 403.907 236.765 404.571 236.765C404.974 236.765 405.364 236.832 405.742 236.965C406.121 237.098 406.46 237.308 406.761 237.593C407.061 237.878 407.298 238.248 407.472 238.704C407.646 239.157 407.732 239.707 407.732 240.355V240.848H402.055V239.806H406.37C406.37 239.44 406.296 239.116 406.147 238.834C405.998 238.549 405.789 238.324 405.519 238.16C405.253 237.996 404.94 237.914 404.58 237.914C404.189 237.914 403.848 238.01 403.557 238.202C403.269 238.391 403.046 238.639 402.888 238.946C402.733 239.25 402.655 239.58 402.655 239.936V240.75C402.655 241.227 402.739 241.633 402.906 241.968C403.077 242.303 403.314 242.559 403.617 242.735C403.921 242.909 404.276 242.996 404.682 242.996C404.946 242.996 405.186 242.958 405.403 242.884C405.62 242.807 405.807 242.692 405.966 242.54C406.124 242.388 406.245 242.201 406.328 241.977L407.644 242.215C407.539 242.602 407.35 242.941 407.077 243.233C406.807 243.521 406.468 243.746 406.059 243.907C405.652 244.065 405.189 244.144 404.668 244.144ZM412.609 236.858V237.974H408.708V236.858H412.609ZM409.754 235.147H411.144V241.903C411.144 242.173 411.184 242.376 411.265 242.512C411.346 242.645 411.449 242.737 411.576 242.786C411.707 242.833 411.848 242.856 412 242.856C412.111 242.856 412.209 242.848 412.293 242.833C412.376 242.817 412.441 242.805 412.488 242.796L412.739 243.944C412.658 243.975 412.544 244.006 412.395 244.037C412.246 244.071 412.06 244.09 411.837 244.093C411.471 244.099 411.13 244.034 410.814 243.898C410.498 243.761 410.242 243.551 410.047 243.265C409.851 242.98 409.754 242.622 409.754 242.191V235.147ZM419.383 238.602L418.123 238.825C418.07 238.664 417.987 238.51 417.872 238.365C417.76 238.219 417.609 238.1 417.416 238.007C417.224 237.914 416.984 237.867 416.696 237.867C416.302 237.867 415.973 237.955 415.71 238.132C415.447 238.306 415.315 238.53 415.315 238.806C415.315 239.045 415.403 239.237 415.58 239.383C415.757 239.529 416.042 239.648 416.435 239.741L417.57 240.001C418.227 240.153 418.717 240.387 419.039 240.703C419.362 241.02 419.523 241.43 419.523 241.936C419.523 242.363 419.399 242.745 419.151 243.079C418.906 243.411 418.563 243.671 418.123 243.861C417.686 244.05 417.179 244.144 416.603 244.144C415.803 244.144 415.151 243.974 414.645 243.633C414.14 243.289 413.83 242.8 413.715 242.168L415.059 241.963C415.143 242.314 415.315 242.579 415.575 242.759C415.836 242.935 416.175 243.024 416.593 243.024C417.049 243.024 417.413 242.929 417.686 242.74C417.959 242.548 418.095 242.314 418.095 242.038C418.095 241.815 418.012 241.627 417.844 241.475C417.68 241.323 417.427 241.209 417.086 241.131L415.877 240.866C415.211 240.714 414.718 240.472 414.399 240.141C414.083 239.809 413.925 239.389 413.925 238.881C413.925 238.459 414.042 238.09 414.278 237.774C414.514 237.458 414.839 237.212 415.254 237.035C415.67 236.855 416.146 236.765 416.682 236.765C417.454 236.765 418.061 236.933 418.504 237.267C418.948 237.599 419.241 238.044 419.383 238.602Z" fill="#00654D"/>
<ellipse cx="215.502" cy="217.5" rx="35" ry="6.5" fill="#C9E6D1"/>
<path d="M212.765 334.154V381.361L193.104 387.263V328.252L212.765 334.154Z" fill="#DDD2BA" stroke="#101727"/>
<path d="M193.103 328.252V387.263L169.502 377.429V336.115L193.103 328.252Z" fill="#EAE2CF" stroke="#101727"/>
<path d="M267.827 336.114V379.39L236.365 387.263V326.281L267.827 336.114Z" fill="#DDD2BA" stroke="#101727"/>
<path d="M236.365 326.281V387.263L212.764 381.361V334.154L236.365 326.281Z" fill="#EAE2CF" stroke="#101727"/>
<path d="M251.284 295.555C241.375 295.555 233.338 303.594 233.338 313.506C233.338 330.801 251.284 348.997 251.284 348.997C251.284 348.997 269.23 330.624 269.23 313.506C269.23 303.594 261.193 295.555 251.284 295.555ZM251.284 322.281C246.668 322.281 242.923 318.536 242.923 313.918C242.923 309.3 246.668 305.555 251.284 305.555C255.9 305.555 259.644 309.3 259.644 313.918C259.644 318.536 255.9 322.281 251.284 322.281Z" fill="#2B624C"/>
<path d="M251.285 322.202C255.95 322.202 259.733 318.418 259.733 313.751C259.733 309.084 255.95 305.3 251.285 305.3C246.619 305.3 242.836 309.084 242.836 313.751C242.836 318.418 246.619 322.202 251.285 322.202Z" fill="white"/>
<path d="M217.368 140C216.348 142.794 193.502 183.805 193.502 183.805H215.329L208.733 216.306L239.195 175.168H210.762L217.358 140H217.368Z" fill="#E9BE51" stroke="#101727" stroke-miterlimit="10"/>
<path d="M217.368 140C216.348 142.794 193.502 183.805 193.502 183.805H215.329L208.733 216.306L239.195 175.168H210.762L217.358 140H217.368Z" fill="#E9BE51" stroke="#101727" stroke-miterlimit="10"/>
<path d="M244.768 10.1865V56.6386C244.768 59.5113 242.856 61.8447 240.524 61.8447H182.756C180.423 61.8447 178.502 59.5113 178.502 56.6386V10.1865C178.502 7.31386 180.413 4.98047 182.756 4.98047H240.524C242.896 5.01969 244.768 7.31386 244.768 10.1865Z" fill="#DDD2BA" stroke="#101727"/>
<path d="M244.768 10.1865V56.6386C244.768 59.5113 242.856 61.8447 240.524 61.8447H182.756C180.423 61.8447 178.502 59.5113 178.502 56.6386V10.1865C178.502 7.31386 180.413 4.98047 182.756 4.98047H240.524C242.896 5.01969 244.768 7.31386 244.768 10.1865Z" fill="#EAE2CF" stroke="#101727"/>
<path d="M178.502 19.7947H244.768" stroke="#101727"/>
<path d="M178.502 19.7947H244.768" stroke="#101727"/>
<path d="M194.115 9.99045V0" stroke="#101727"/>
<path d="M194.115 9.99045V0" stroke="#101727"/>
<path d="M228.988 9.99045V0" stroke="#101727"/>
<path d="M228.988 9.99045V0" stroke="#101727"/>
<path d="M260.155 46.6384C260.155 64.1192 245.983 78.296 228.507 78.296C211.032 78.296 196.859 64.129 196.859 46.6384C196.859 29.1477 211.022 14.9807 228.507 14.9807C245.993 14.9807 260.155 29.1575 260.155 46.6384Z" fill="#DDD2BA" stroke="#101727"/>
<path d="M228.517 78.296C245.996 78.296 260.165 64.1224 260.165 46.6384C260.165 29.1543 245.996 14.9807 228.517 14.9807C211.038 14.9807 196.869 29.1543 196.869 46.6384C196.869 64.1224 211.038 78.296 228.517 78.296Z" fill="#01654D" stroke="#101727"/>
<path d="M252.746 46.6385C252.746 60.031 241.896 70.8744 228.518 70.8744C215.139 70.8744 204.279 60.0212 204.279 46.6385C204.279 33.2558 215.129 22.4026 228.518 22.4026C241.906 22.4026 252.746 33.2558 252.746 46.6385Z" fill="#DDD2BA" stroke="#101727"/>
<path d="M252.746 46.6385C252.746 60.031 241.896 70.8744 228.518 70.8744C215.139 70.8744 204.279 60.0212 204.279 46.6385C204.279 33.2558 215.129 22.4026 228.518 22.4026C241.906 22.4026 252.746 33.2558 252.746 46.6385Z" fill="white" stroke="#101727"/>
<path d="M228.547 47.2463H228.537C228.272 47.2463 228.066 47.0306 228.066 46.7757V27.3242C228.066 27.0595 228.282 26.8536 228.537 26.8536H228.547C228.811 26.8536 229.017 27.0693 229.017 27.3242V46.7757C229.017 47.0404 228.801 47.2463 228.547 47.2463Z" fill="#DDD2BA" stroke="#101727"/>
<path d="M228.547 26.8439C228.811 26.8439 229.017 27.0596 229.017 27.3145V46.7659C229.017 47.0307 228.801 47.2365 228.547 47.2365C228.282 47.2365 228.076 47.0209 228.076 46.7659V27.3145C228.076 27.0498 228.292 26.8439 228.547 26.8439Z" fill="#DDD2BA"/>
<path d="M228.537 26.8439H228.547M228.547 26.8439C228.811 26.8439 229.017 27.0596 229.017 27.3145V46.7659C229.017 47.0307 228.801 47.2365 228.547 47.2365C228.282 47.2365 228.076 47.0209 228.076 46.7659V27.3145C228.076 27.0498 228.292 26.8439 228.547 26.8439Z" stroke="#101727"/>
<path d="M228.959 47.0306C228.832 47.2659 228.547 47.3541 228.322 47.2267L216.796 41.0207C216.57 40.8932 216.482 40.6089 216.609 40.3834C216.737 40.1481 217.021 40.0598 217.247 40.1873L228.773 46.3933C228.998 46.5208 229.086 46.8051 228.959 47.0306Z" fill="#DDD2BA" stroke="#101727"/>
<path d="M228.959 47.0306C228.832 47.2659 228.547 47.3541 228.322 47.2267L216.796 41.0207C216.57 40.8932 216.482 40.6089 216.609 40.3834C216.737 40.1481 217.021 40.0598 217.247 40.1873L228.773 46.3933C228.998 46.5208 229.086 46.8051 228.959 47.0306Z" fill="#DDD2BA" stroke="#101727"/>
<path d="M175.271 103V93.4776H181.176V94.7144H176.708V97.6157H180.753V98.8479H176.708V103H175.271ZM184.884 103.158C184.432 103.158 184.023 103.074 183.657 102.907C183.291 102.737 183.001 102.49 182.787 102.168C182.577 101.845 182.471 101.45 182.471 100.982C182.471 100.579 182.549 100.247 182.704 99.987C182.859 99.7267 183.068 99.5205 183.331 99.3686C183.595 99.2168 183.889 99.1021 184.215 99.0246C184.54 98.9471 184.872 98.8882 185.21 98.8479C185.638 98.7983 185.985 98.758 186.251 98.727C186.518 98.6929 186.712 98.6387 186.833 98.5643C186.953 98.4899 187.014 98.369 187.014 98.2016V98.169C187.014 97.763 186.899 97.4483 186.67 97.2252C186.444 97.002 186.106 96.8904 185.656 96.8904C185.188 96.8904 184.819 96.9942 184.55 97.2019C184.283 97.4065 184.099 97.6343 183.996 97.8854L182.69 97.5878C182.845 97.1539 183.071 96.8036 183.369 96.537C183.669 96.2673 184.015 96.0721 184.405 95.9512C184.796 95.8272 185.207 95.7652 185.638 95.7652C185.923 95.7652 186.225 95.7993 186.544 95.8675C186.867 95.9326 187.167 96.0535 187.446 96.2301C187.728 96.4068 187.959 96.6595 188.139 96.988C188.319 97.3135 188.409 97.7366 188.409 98.2574V103H187.051V102.024H186.995C186.905 102.203 186.771 102.38 186.591 102.554C186.411 102.727 186.18 102.871 185.898 102.986C185.616 103.101 185.278 103.158 184.884 103.158ZM185.187 102.042C185.571 102.042 185.9 101.966 186.172 101.814C186.448 101.662 186.657 101.464 186.8 101.219C186.946 100.971 187.019 100.706 187.019 100.424V99.5035C186.969 99.5531 186.873 99.5996 186.73 99.643C186.591 99.6833 186.431 99.7189 186.251 99.7499C186.072 99.7778 185.896 99.8042 185.726 99.829C185.555 99.8507 185.413 99.8693 185.298 99.8848C185.028 99.9188 184.782 99.9762 184.559 100.057C184.339 100.137 184.162 100.254 184.029 100.406C183.899 100.554 183.834 100.753 183.834 101.001C183.834 101.345 183.961 101.605 184.215 101.782C184.469 101.955 184.793 102.042 185.187 102.042ZM195.612 97.6018L194.352 97.825C194.299 97.6638 194.216 97.5103 194.101 97.3647C193.989 97.219 193.838 97.0996 193.645 97.0066C193.453 96.9136 193.213 96.8671 192.925 96.8671C192.531 96.8671 192.202 96.9555 191.939 97.1322C191.675 97.3058 191.544 97.5305 191.544 97.8064C191.544 98.0451 191.632 98.2372 191.809 98.3829C191.985 98.5286 192.271 98.648 192.664 98.7409L193.799 99.0013C194.456 99.1532 194.946 99.3872 195.268 99.7034C195.59 100.02 195.752 100.43 195.752 100.936C195.752 101.363 195.628 101.745 195.38 102.079C195.135 102.411 194.792 102.671 194.352 102.861C193.915 103.05 193.408 103.144 192.832 103.144C192.032 103.144 191.379 102.974 190.874 102.633C190.369 102.289 190.059 101.8 189.944 101.168L191.288 100.963C191.372 101.314 191.544 101.579 191.804 101.759C192.065 101.935 192.404 102.024 192.822 102.024C193.278 102.024 193.642 101.929 193.915 101.74C194.188 101.548 194.324 101.314 194.324 101.038C194.324 100.815 194.241 100.627 194.073 100.475C193.909 100.323 193.656 100.209 193.315 100.131L192.106 99.8662C191.44 99.7143 190.947 99.4725 190.628 99.1408C190.312 98.8091 190.154 98.3891 190.154 97.8808C190.154 97.4592 190.271 97.0903 190.507 96.7742C190.742 96.458 191.068 96.2115 191.483 96.0349C191.899 95.8551 192.374 95.7652 192.911 95.7652C193.683 95.7652 194.29 95.9326 194.733 96.2673C195.177 96.599 195.47 97.0438 195.612 97.6018ZM200.614 95.8582V96.9741H196.713V95.8582H200.614ZM197.759 94.1471H199.149V100.903C199.149 101.173 199.19 101.376 199.27 101.512C199.351 101.645 199.455 101.737 199.582 101.786C199.712 101.833 199.853 101.856 200.005 101.856C200.117 101.856 200.214 101.848 200.298 101.833C200.382 101.817 200.447 101.805 200.493 101.796L200.744 102.944C200.664 102.975 200.549 103.006 200.4 103.037C200.251 103.071 200.065 103.09 199.842 103.093C199.476 103.099 199.135 103.034 198.819 102.898C198.503 102.761 198.247 102.551 198.052 102.265C197.857 101.98 197.759 101.622 197.759 101.191V94.1471ZM205.259 94.7144V93.4776H212.629V94.7144H209.658V103H208.225V94.7144H205.259ZM214.146 103V95.8582H215.536V103H214.146ZM214.848 94.7562C214.606 94.7562 214.398 94.6756 214.225 94.5144C214.054 94.3501 213.969 94.1549 213.969 93.9286C213.969 93.6992 214.054 93.5039 214.225 93.3427C214.398 93.1784 214.606 93.0963 214.848 93.0963C215.089 93.0963 215.296 93.1784 215.466 93.3427C215.64 93.5039 215.726 93.6992 215.726 93.9286C215.726 94.1549 215.64 94.3501 215.466 94.5144C215.296 94.6756 215.089 94.7562 214.848 94.7562ZM217.406 103V95.8582H218.741V97.0206H218.829C218.978 96.6269 219.221 96.32 219.559 96.1C219.897 95.8768 220.301 95.7652 220.772 95.7652C221.25 95.7652 221.65 95.8768 221.972 96.1C222.298 96.3231 222.538 96.63 222.693 97.0206H222.767C222.938 96.6393 223.209 96.3355 223.581 96.1093C223.953 95.8799 224.396 95.7652 224.911 95.7652C225.558 95.7652 226.087 95.9682 226.496 96.3743C226.908 96.7804 227.115 97.3926 227.115 98.2109V103H225.724V98.3411C225.724 97.8575 225.593 97.5072 225.329 97.2903C225.066 97.0733 224.751 96.9648 224.385 96.9648C223.933 96.9648 223.581 97.1043 223.33 97.3833C223.079 97.6591 222.953 98.0141 222.953 98.448V103H221.568V98.2527C221.568 97.8653 221.447 97.5537 221.205 97.3182C220.963 97.0826 220.648 96.9648 220.261 96.9648C219.998 96.9648 219.754 97.0345 219.531 97.174C219.311 97.3104 219.133 97.501 218.996 97.7459C218.863 97.9908 218.796 98.2744 218.796 98.5968V103H217.406ZM232.056 103.144C231.352 103.144 230.746 102.994 230.238 102.693C229.733 102.389 229.342 101.963 229.066 101.414C228.793 100.863 228.657 100.216 228.657 99.4756C228.657 98.744 228.793 98.0993 229.066 97.5413C229.342 96.9834 229.726 96.5479 230.219 96.2348C230.715 95.9217 231.295 95.7652 231.958 95.7652C232.361 95.7652 232.752 95.8318 233.13 95.9651C233.508 96.0984 233.848 96.3076 234.148 96.5928C234.449 96.878 234.686 97.2484 234.86 97.7041C235.033 98.1566 235.12 98.7068 235.12 99.3547V99.8476H229.443V98.806H233.758C233.758 98.4403 233.683 98.1163 233.535 97.8343C233.386 97.5491 233.176 97.3244 232.907 97.1601C232.64 96.9958 232.327 96.9136 231.968 96.9136C231.577 96.9136 231.236 97.0097 230.945 97.2019C230.656 97.391 230.433 97.639 230.275 97.9459C230.12 98.2496 230.043 98.5798 230.043 98.9362V99.7499C230.043 100.227 230.126 100.633 230.294 100.968C230.464 101.303 230.701 101.559 231.005 101.735C231.309 101.909 231.664 101.996 232.07 101.996C232.333 101.996 232.574 101.958 232.791 101.884C233.008 101.807 233.195 101.692 233.353 101.54C233.511 101.388 233.632 101.201 233.716 100.977L235.032 101.215C234.926 101.602 234.737 101.941 234.464 102.233C234.195 102.521 233.855 102.746 233.446 102.907C233.04 103.065 232.577 103.144 232.056 103.144ZM238.053 93.4776V103H236.663V93.4776H238.053ZM239.923 103V95.8582H241.313V103H239.923ZM240.625 94.7562C240.383 94.7562 240.176 94.6756 240.002 94.5144C239.832 94.3501 239.746 94.1549 239.746 93.9286C239.746 93.6992 239.832 93.5039 240.002 93.3427C240.176 93.1784 240.383 93.0963 240.625 93.0963C240.867 93.0963 241.073 93.1784 241.244 93.3427C241.417 93.5039 241.504 93.6992 241.504 93.9286C241.504 94.1549 241.417 94.3501 241.244 94.5144C241.073 94.6756 240.867 94.7562 240.625 94.7562ZM244.574 98.7595V103H243.184V95.8582H244.518V97.0206H244.606C244.771 96.6424 245.028 96.3386 245.378 96.1093C245.732 95.8799 246.176 95.7652 246.713 95.7652C247.199 95.7652 247.626 95.8675 247.991 96.0721C248.357 96.2735 248.641 96.5742 248.842 96.9741C249.044 97.374 249.144 97.8684 249.144 98.4573V103H247.754V98.6247C247.754 98.107 247.619 97.7025 247.35 97.4112C247.08 97.1167 246.71 96.9694 246.238 96.9694C245.916 96.9694 245.629 97.0392 245.378 97.1787C245.13 97.3182 244.933 97.5227 244.788 97.7924C244.645 98.059 244.574 98.3814 244.574 98.7595ZM254.087 103.144C253.383 103.144 252.777 102.994 252.269 102.693C251.764 102.389 251.373 101.963 251.097 101.414C250.825 100.863 250.688 100.216 250.688 99.4756C250.688 98.744 250.825 98.0993 251.097 97.5413C251.373 96.9834 251.758 96.5479 252.25 96.2348C252.746 95.9217 253.326 95.7652 253.989 95.7652C254.392 95.7652 254.783 95.8318 255.161 95.9651C255.539 96.0984 255.879 96.3076 256.179 96.5928C256.48 96.878 256.717 97.2484 256.891 97.7041C257.064 98.1566 257.151 98.7068 257.151 99.3547V99.8476H251.474V98.806H255.789C255.789 98.4403 255.714 98.1163 255.566 97.8343C255.417 97.5491 255.208 97.3244 254.938 97.1601C254.671 96.9958 254.358 96.9136 253.999 96.9136C253.608 96.9136 253.267 97.0097 252.976 97.2019C252.687 97.391 252.464 97.639 252.306 97.9459C252.151 98.2496 252.074 98.5798 252.074 98.9362V99.7499C252.074 100.227 252.157 100.633 252.325 100.968C252.495 101.303 252.732 101.559 253.036 101.735C253.34 101.909 253.695 101.996 254.101 101.996C254.364 101.996 254.605 101.958 254.822 101.884C255.039 101.807 255.226 101.692 255.384 101.54C255.542 101.388 255.663 101.201 255.747 100.977L257.063 101.215C256.957 101.602 256.768 101.941 256.496 102.233C256.226 102.521 255.886 102.746 255.477 102.907C255.071 103.065 254.608 103.144 254.087 103.144ZM264.045 97.6018L262.785 97.825C262.733 97.6638 262.649 97.5103 262.534 97.3647C262.423 97.219 262.271 97.0996 262.079 97.0066C261.886 96.9136 261.646 96.8671 261.358 96.8671C260.964 96.8671 260.636 96.9555 260.372 97.1322C260.109 97.3058 259.977 97.5305 259.977 97.8064C259.977 98.0451 260.065 98.2372 260.242 98.3829C260.419 98.5286 260.704 98.648 261.097 98.7409L262.232 99.0013C262.889 99.1532 263.379 99.3872 263.701 99.7034C264.024 100.02 264.185 100.43 264.185 100.936C264.185 101.363 264.061 101.745 263.813 102.079C263.568 102.411 263.225 102.671 262.785 102.861C262.348 103.05 261.841 103.144 261.265 103.144C260.465 103.144 259.813 102.974 259.307 102.633C258.802 102.289 258.492 101.8 258.377 101.168L259.721 100.963C259.805 101.314 259.977 101.579 260.237 101.759C260.498 101.935 260.837 102.024 261.256 102.024C261.711 102.024 262.075 101.929 262.348 101.74C262.621 101.548 262.757 101.314 262.757 101.038C262.757 100.815 262.674 100.627 262.506 100.475C262.342 100.323 262.089 100.209 261.748 100.131L260.54 99.8662C259.873 99.7143 259.38 99.4725 259.061 99.1408C258.745 98.8091 258.587 98.3891 258.587 97.8808C258.587 97.4592 258.704 97.0903 258.94 96.7742C259.176 96.458 259.501 96.2115 259.916 96.0349C260.332 95.8551 260.808 95.7652 261.344 95.7652C262.116 95.7652 262.723 95.9326 263.167 96.2673C263.61 96.599 263.903 97.0438 264.045 97.6018Z" fill="#00654D"/>
<path d="M173.973 244V234.478H179.878V235.714H175.41V238.616H179.455V239.848H175.41V244H173.973ZM183.587 244.158C183.134 244.158 182.725 244.074 182.359 243.907C181.993 243.737 181.703 243.49 181.49 243.168C181.279 242.845 181.173 242.45 181.173 241.982C181.173 241.579 181.251 241.247 181.406 240.987C181.561 240.727 181.77 240.521 182.034 240.369C182.297 240.217 182.591 240.102 182.917 240.025C183.242 239.947 183.574 239.888 183.912 239.848C184.34 239.798 184.687 239.758 184.954 239.727C185.22 239.693 185.414 239.639 185.535 239.564C185.656 239.49 185.716 239.369 185.716 239.202V239.169C185.716 238.763 185.601 238.448 185.372 238.225C185.146 238.002 184.808 237.89 184.358 237.89C183.89 237.89 183.521 237.994 183.252 238.202C182.985 238.407 182.801 238.634 182.698 238.885L181.392 238.588C181.547 238.154 181.773 237.804 182.071 237.537C182.371 237.267 182.717 237.072 183.108 236.951C183.498 236.827 183.909 236.765 184.34 236.765C184.625 236.765 184.927 236.799 185.246 236.867C185.569 236.933 185.869 237.053 186.148 237.23C186.431 237.407 186.661 237.659 186.841 237.988C187.021 238.314 187.111 238.737 187.111 239.257V244H185.753V243.024H185.697C185.608 243.203 185.473 243.38 185.293 243.554C185.113 243.727 184.882 243.871 184.6 243.986C184.318 244.101 183.98 244.158 183.587 244.158ZM183.889 243.042C184.273 243.042 184.602 242.966 184.874 242.814C185.15 242.662 185.36 242.464 185.502 242.219C185.648 241.971 185.721 241.706 185.721 241.424V240.503C185.671 240.553 185.575 240.6 185.432 240.643C185.293 240.683 185.133 240.719 184.954 240.75C184.774 240.778 184.599 240.804 184.428 240.829C184.258 240.851 184.115 240.869 184 240.885C183.731 240.919 183.484 240.976 183.261 241.057C183.041 241.137 182.864 241.254 182.731 241.406C182.601 241.554 182.536 241.753 182.536 242.001C182.536 242.345 182.663 242.605 182.917 242.782C183.171 242.955 183.495 243.042 183.889 243.042ZM194.314 238.602L193.054 238.825C193.002 238.664 192.918 238.51 192.803 238.365C192.692 238.219 192.54 238.1 192.348 238.007C192.155 237.914 191.915 237.867 191.627 237.867C191.233 237.867 190.905 237.955 190.641 238.132C190.378 238.306 190.246 238.53 190.246 238.806C190.246 239.045 190.334 239.237 190.511 239.383C190.688 239.529 190.973 239.648 191.366 239.741L192.501 240.001C193.158 240.153 193.648 240.387 193.97 240.703C194.293 241.02 194.454 241.43 194.454 241.936C194.454 242.363 194.33 242.745 194.082 243.079C193.837 243.411 193.494 243.671 193.054 243.861C192.617 244.05 192.11 244.144 191.534 244.144C190.734 244.144 190.082 243.974 189.576 243.633C189.071 243.289 188.761 242.8 188.646 242.168L189.99 241.963C190.074 242.314 190.246 242.579 190.506 242.759C190.767 242.935 191.106 243.024 191.525 243.024C191.98 243.024 192.344 242.929 192.617 242.74C192.89 242.548 193.026 242.314 193.026 242.038C193.026 241.815 192.943 241.627 192.775 241.475C192.611 241.323 192.358 241.209 192.017 241.131L190.809 240.866C190.142 240.714 189.649 240.472 189.33 240.141C189.014 239.809 188.856 239.389 188.856 238.881C188.856 238.459 188.973 238.09 189.209 237.774C189.445 237.458 189.77 237.212 190.185 237.035C190.601 236.855 191.077 236.765 191.613 236.765C192.385 236.765 192.992 236.933 193.436 237.267C193.879 237.599 194.172 238.044 194.314 238.602ZM199.316 236.858V237.974H195.415V236.858H199.316ZM196.461 235.147H197.852V241.903C197.852 242.173 197.892 242.376 197.972 242.512C198.053 242.645 198.157 242.737 198.284 242.786C198.414 242.833 198.555 242.856 198.707 242.856C198.819 242.856 198.916 242.848 199 242.833C199.084 242.817 199.149 242.805 199.195 242.796L199.446 243.944C199.366 243.975 199.251 244.006 199.102 244.037C198.954 244.071 198.768 244.09 198.544 244.093C198.179 244.099 197.838 244.034 197.521 243.898C197.205 243.761 196.95 243.551 196.754 243.265C196.559 242.98 196.461 242.622 196.461 242.191V235.147ZM205.235 244H203.71L207.137 234.478H208.797L212.224 244H210.698L208.006 236.207H207.932L205.235 244ZM205.491 240.271H210.438V241.48H205.491V240.271ZM213.487 246.678V236.858H214.845V238.016H214.961C215.042 237.867 215.158 237.695 215.31 237.5C215.462 237.305 215.672 237.134 215.942 236.988C216.212 236.84 216.568 236.765 217.011 236.765C217.588 236.765 218.103 236.911 218.555 237.202C219.008 237.494 219.363 237.914 219.62 238.462C219.88 239.011 220.011 239.671 220.011 240.443C220.011 241.215 219.882 241.877 219.625 242.428C219.367 242.977 219.014 243.4 218.564 243.698C218.115 243.992 217.602 244.139 217.025 244.139C216.591 244.139 216.237 244.067 215.961 243.921C215.688 243.775 215.474 243.605 215.319 243.409C215.164 243.214 215.045 243.041 214.961 242.889H214.877V246.678H213.487ZM214.849 240.429C214.849 240.931 214.922 241.371 215.068 241.75C215.214 242.128 215.424 242.424 215.7 242.638C215.976 242.848 216.314 242.954 216.714 242.954C217.129 242.954 217.476 242.844 217.755 242.624C218.034 242.401 218.245 242.098 218.388 241.717C218.533 241.336 218.606 240.906 218.606 240.429C218.606 239.958 218.535 239.535 218.392 239.16C218.253 238.785 218.042 238.489 217.76 238.272C217.481 238.055 217.132 237.946 216.714 237.946C216.311 237.946 215.97 238.05 215.691 238.258C215.415 238.465 215.206 238.755 215.063 239.127C214.921 239.499 214.849 239.933 214.849 240.429ZM221.568 246.678V236.858H222.926V238.016H223.042C223.123 237.867 223.239 237.695 223.391 237.5C223.543 237.305 223.753 237.134 224.023 236.988C224.293 236.84 224.649 236.765 225.093 236.765C225.669 236.765 226.184 236.911 226.636 237.202C227.089 237.494 227.444 237.914 227.701 238.462C227.961 239.011 228.092 239.671 228.092 240.443C228.092 241.215 227.963 241.877 227.706 242.428C227.448 242.977 227.095 243.4 226.646 243.698C226.196 243.992 225.683 244.139 225.106 244.139C224.673 244.139 224.318 244.067 224.042 243.921C223.769 243.775 223.555 243.605 223.4 243.409C223.245 243.214 223.126 243.041 223.042 242.889H222.958V246.678H221.568ZM222.93 240.429C222.93 240.931 223.003 241.371 223.149 241.75C223.295 242.128 223.505 242.424 223.781 242.638C224.057 242.848 224.395 242.954 224.795 242.954C225.21 242.954 225.558 242.844 225.836 242.624C226.115 242.401 226.326 242.098 226.469 241.717C226.615 241.336 226.687 240.906 226.687 240.429C226.687 239.958 226.616 239.535 226.473 239.16C226.334 238.785 226.123 238.489 225.841 238.272C225.562 238.055 225.213 237.946 224.795 237.946C224.392 237.946 224.051 238.05 223.772 238.258C223.496 238.465 223.287 238.755 223.144 239.127C223.002 239.499 222.93 239.933 222.93 240.429ZM229.649 244V236.858H230.993V237.993H231.067C231.197 237.608 231.427 237.306 231.755 237.086C232.087 236.863 232.462 236.751 232.881 236.751C232.967 236.751 233.07 236.754 233.188 236.761C233.308 236.767 233.403 236.774 233.471 236.784V238.114C233.415 238.098 233.316 238.081 233.174 238.062C233.031 238.041 232.888 238.03 232.746 238.03C232.417 238.03 232.124 238.1 231.867 238.239C231.613 238.376 231.411 238.566 231.263 238.811C231.114 239.053 231.039 239.329 231.039 239.639V244H229.649ZM237.427 244.144C236.757 244.144 236.173 243.991 235.674 243.684C235.175 243.377 234.787 242.948 234.512 242.396C234.236 241.844 234.098 241.199 234.098 240.462C234.098 239.721 234.236 239.073 234.512 238.518C234.787 237.963 235.175 237.532 235.674 237.225C236.173 236.919 236.757 236.765 237.427 236.765C238.096 236.765 238.681 236.919 239.18 237.225C239.679 237.532 240.066 237.963 240.342 238.518C240.618 239.073 240.756 239.721 240.756 240.462C240.756 241.199 240.618 241.844 240.342 242.396C240.066 242.948 239.679 243.377 239.18 243.684C238.681 243.991 238.096 244.144 237.427 244.144ZM237.431 242.977C237.865 242.977 238.225 242.862 238.51 242.633C238.795 242.404 239.006 242.098 239.143 241.717C239.282 241.336 239.352 240.916 239.352 240.457C239.352 240.001 239.282 239.583 239.143 239.202C239.006 238.817 238.795 238.509 238.51 238.276C238.225 238.044 237.865 237.928 237.431 237.928C236.994 237.928 236.632 238.044 236.343 238.276C236.058 238.509 235.846 238.817 235.706 239.202C235.57 239.583 235.502 240.001 235.502 240.457C235.502 240.916 235.57 241.336 235.706 241.717C235.846 242.098 236.058 242.404 236.343 242.633C236.632 242.862 236.994 242.977 237.431 242.977ZM248.174 236.858L245.585 244H244.097L241.502 236.858H242.995L244.803 242.354H244.878L246.682 236.858H248.174ZM251.355 244.158C250.902 244.158 250.493 244.074 250.127 243.907C249.762 243.737 249.472 243.49 249.258 243.168C249.047 242.845 248.942 242.45 248.942 241.982C248.942 241.579 249.019 241.247 249.174 240.987C249.329 240.727 249.538 240.521 249.802 240.369C250.065 240.217 250.36 240.102 250.685 240.025C251.011 239.947 251.342 239.888 251.68 239.848C252.108 239.798 252.455 239.758 252.722 239.727C252.988 239.693 253.182 239.639 253.303 239.564C253.424 239.49 253.484 239.369 253.484 239.202V239.169C253.484 238.763 253.37 238.448 253.14 238.225C252.914 238.002 252.576 237.89 252.127 237.89C251.659 237.89 251.29 237.994 251.02 238.202C250.753 238.407 250.569 238.634 250.467 238.885L249.16 238.588C249.315 238.154 249.541 237.804 249.839 237.537C250.14 237.267 250.485 237.072 250.876 236.951C251.266 236.827 251.677 236.765 252.108 236.765C252.393 236.765 252.695 236.799 253.015 236.867C253.337 236.933 253.638 237.053 253.917 237.23C254.199 237.407 254.43 237.659 254.61 237.988C254.789 238.314 254.879 238.737 254.879 239.257V244H253.522V243.024H253.466C253.376 243.203 253.241 243.38 253.061 243.554C252.881 243.727 252.65 243.871 252.368 243.986C252.086 244.101 251.748 244.158 251.355 244.158ZM251.657 243.042C252.041 243.042 252.37 242.966 252.643 242.814C252.919 242.662 253.128 242.464 253.27 242.219C253.416 241.971 253.489 241.706 253.489 241.424V240.503C253.439 240.553 253.343 240.6 253.201 240.643C253.061 240.683 252.902 240.719 252.722 240.75C252.542 240.778 252.367 240.804 252.196 240.829C252.026 240.851 251.883 240.869 251.769 240.885C251.499 240.919 251.252 240.976 251.029 241.057C250.809 241.137 250.633 241.254 250.499 241.406C250.369 241.554 250.304 241.753 250.304 242.001C250.304 242.345 250.431 242.605 250.685 242.782C250.939 242.955 251.263 243.042 251.657 243.042ZM258.121 234.478V244H256.731V234.478H258.121ZM265.343 238.602L264.083 238.825C264.03 238.664 263.947 238.51 263.832 238.365C263.72 238.219 263.569 238.1 263.376 238.007C263.184 237.914 262.944 237.867 262.656 237.867C262.262 237.867 261.933 237.955 261.67 238.132C261.406 238.306 261.275 238.53 261.275 238.806C261.275 239.045 261.363 239.237 261.54 239.383C261.716 239.529 262.002 239.648 262.395 239.741L263.53 240.001C264.187 240.153 264.677 240.387 264.999 240.703C265.321 241.02 265.483 241.43 265.483 241.936C265.483 242.363 265.359 242.745 265.111 243.079C264.866 243.411 264.523 243.671 264.083 243.861C263.646 244.05 263.139 244.144 262.563 244.144C261.763 244.144 261.11 243.974 260.605 243.633C260.1 243.289 259.79 242.8 259.675 242.168L261.019 241.963C261.103 242.314 261.275 242.579 261.535 242.759C261.796 242.935 262.135 243.024 262.553 243.024C263.009 243.024 263.373 242.929 263.646 242.74C263.919 242.548 264.055 242.314 264.055 242.038C264.055 241.815 263.972 241.627 263.804 241.475C263.64 241.323 263.387 241.209 263.046 241.131L261.837 240.866C261.171 240.714 260.678 240.472 260.359 240.141C260.043 239.809 259.885 239.389 259.885 238.881C259.885 238.459 260.002 238.09 260.238 237.774C260.473 237.458 260.799 237.212 261.214 237.035C261.63 236.855 262.105 236.765 262.642 236.765C263.414 236.765 264.021 236.933 264.464 237.267C264.908 237.599 265.201 238.044 265.343 238.602Z" fill="#00654D"/>
<path d="M164.16 412V402.478H167.554C168.295 402.478 168.909 402.612 169.395 402.882C169.882 403.152 170.246 403.521 170.488 403.989C170.73 404.454 170.851 404.978 170.851 405.56C170.851 406.146 170.728 406.673 170.483 407.141C170.242 407.606 169.876 407.975 169.386 408.248C168.899 408.517 168.287 408.652 167.549 408.652H165.215V407.434H167.419C167.887 407.434 168.267 407.353 168.558 407.192C168.85 407.028 169.064 406.805 169.2 406.523C169.336 406.241 169.405 405.92 169.405 405.56C169.405 405.201 169.336 404.881 169.2 404.602C169.064 404.323 168.848 404.105 168.554 403.947C168.262 403.789 167.878 403.71 167.401 403.71H165.597V412H164.16ZM173.814 402.478V412H172.423V402.478H173.814ZM177.762 412.158C177.31 412.158 176.901 412.074 176.535 411.907C176.169 411.737 175.879 411.49 175.665 411.168C175.455 410.845 175.349 410.45 175.349 409.982C175.349 409.579 175.427 409.247 175.582 408.987C175.737 408.727 175.946 408.521 176.209 408.369C176.473 408.217 176.767 408.102 177.093 408.025C177.418 407.947 177.75 407.888 178.088 407.848C178.516 407.798 178.863 407.758 179.129 407.727C179.396 407.693 179.59 407.639 179.71 407.564C179.831 407.49 179.892 407.369 179.892 407.202V407.169C179.892 406.763 179.777 406.448 179.548 406.225C179.321 406.002 178.984 405.89 178.534 405.89C178.066 405.89 177.697 405.994 177.428 406.202C177.161 406.407 176.976 406.634 176.874 406.885L175.568 406.588C175.723 406.154 175.949 405.804 176.247 405.537C176.547 405.267 176.893 405.072 177.283 404.951C177.674 404.827 178.085 404.765 178.516 404.765C178.801 404.765 179.103 404.799 179.422 404.867C179.745 404.933 180.045 405.053 180.324 405.23C180.606 405.407 180.837 405.659 181.017 405.988C181.197 406.314 181.287 406.737 181.287 407.257V412H179.929V411.024H179.873C179.783 411.203 179.648 411.38 179.469 411.554C179.289 411.727 179.058 411.871 178.776 411.986C178.494 412.101 178.156 412.158 177.762 412.158ZM178.065 411.042C178.449 411.042 178.777 410.966 179.05 410.814C179.326 410.662 179.535 410.464 179.678 410.219C179.824 409.971 179.896 409.706 179.896 409.424V408.503C179.847 408.553 179.751 408.6 179.608 408.643C179.469 408.683 179.309 408.719 179.129 408.75C178.949 408.778 178.774 408.804 178.604 408.829C178.433 408.851 178.291 408.869 178.176 408.885C177.906 408.919 177.66 408.976 177.437 409.057C177.217 409.137 177.04 409.254 176.907 409.406C176.777 409.554 176.711 409.753 176.711 410.001C176.711 410.345 176.839 410.605 177.093 410.782C177.347 410.955 177.671 411.042 178.065 411.042ZM184.529 407.76V412H183.138V404.858H184.473V406.021H184.561C184.725 405.642 184.983 405.339 185.333 405.109C185.686 404.88 186.131 404.765 186.667 404.765C187.154 404.765 187.58 404.867 187.946 405.072C188.312 405.274 188.596 405.574 188.797 405.974C188.998 406.374 189.099 406.868 189.099 407.457V412H187.709V407.625C187.709 407.107 187.574 406.703 187.304 406.411C187.035 406.117 186.664 405.969 186.193 405.969C185.871 405.969 185.584 406.039 185.333 406.179C185.085 406.318 184.888 406.523 184.743 406.792C184.6 407.059 184.529 407.381 184.529 407.76ZM197.623 412H194.54V402.478H197.721C198.654 402.478 199.455 402.668 200.125 403.049C200.794 403.428 201.307 403.972 201.664 404.681C202.023 405.388 202.203 406.236 202.203 407.225C202.203 408.217 202.022 409.069 201.659 409.782C201.299 410.495 200.779 411.044 200.097 411.428C199.415 411.809 198.59 412 197.623 412ZM195.977 410.745H197.544C198.269 410.745 198.872 410.608 199.353 410.335C199.833 410.06 200.193 409.661 200.432 409.14C200.67 408.617 200.79 407.978 200.79 407.225C200.79 406.478 200.67 405.844 200.432 405.323C200.196 404.802 199.844 404.407 199.376 404.137C198.908 403.868 198.327 403.733 197.632 403.733H195.977V410.745ZM206.956 412.144C206.252 412.144 205.646 411.994 205.138 411.693C204.633 411.389 204.242 410.963 203.966 410.414C203.694 409.863 203.557 409.216 203.557 408.476C203.557 407.744 203.694 407.099 203.966 406.541C204.242 405.983 204.627 405.548 205.12 405.235C205.615 404.922 206.195 404.765 206.858 404.765C207.261 404.765 207.652 404.832 208.03 404.965C208.408 405.098 208.748 405.308 209.048 405.593C209.349 405.878 209.586 406.248 209.76 406.704C209.933 407.157 210.02 407.707 210.02 408.355V408.848H204.343V407.806H208.658C208.658 407.44 208.583 407.116 208.435 406.834C208.286 406.549 208.077 406.324 207.807 406.16C207.54 405.996 207.227 405.914 206.868 405.914C206.477 405.914 206.136 406.01 205.845 406.202C205.557 406.391 205.333 406.639 205.175 406.946C205.02 407.25 204.943 407.58 204.943 407.936V408.75C204.943 409.227 205.027 409.633 205.194 409.968C205.364 410.303 205.602 410.559 205.905 410.735C206.209 410.909 206.564 410.996 206.97 410.996C207.234 410.996 207.474 410.958 207.691 410.884C207.908 410.807 208.095 410.692 208.253 410.54C208.411 410.388 208.532 410.201 208.616 409.977L209.932 410.215C209.826 410.602 209.637 410.941 209.365 411.233C209.095 411.521 208.756 411.746 208.346 411.907C207.94 412.065 207.477 412.144 206.956 412.144ZM211.563 414.678V404.858H212.92V406.016H213.037C213.117 405.867 213.233 405.695 213.385 405.5C213.537 405.305 213.748 405.134 214.018 404.988C214.287 404.84 214.644 404.765 215.087 404.765C215.664 404.765 216.178 404.911 216.631 405.202C217.083 405.494 217.438 405.914 217.696 406.462C217.956 407.011 218.086 407.671 218.086 408.443C218.086 409.215 217.958 409.877 217.7 410.428C217.443 410.977 217.09 411.4 216.64 411.698C216.191 411.992 215.678 412.139 215.101 412.139C214.667 412.139 214.312 412.067 214.036 411.921C213.764 411.775 213.55 411.605 213.395 411.409C213.24 411.214 213.12 411.041 213.037 410.889H212.953V414.678H211.563ZM212.925 408.429C212.925 408.931 212.998 409.371 213.144 409.75C213.289 410.128 213.5 410.424 213.776 410.638C214.052 410.848 214.39 410.954 214.79 410.954C215.205 410.954 215.552 410.844 215.831 410.624C216.11 410.401 216.321 410.098 216.463 409.717C216.609 409.336 216.682 408.906 216.682 408.429C216.682 407.958 216.611 407.535 216.468 407.16C216.329 406.785 216.118 406.489 215.836 406.272C215.557 406.055 215.208 405.946 214.79 405.946C214.387 405.946 214.046 406.05 213.767 406.258C213.491 406.465 213.282 406.755 213.139 407.127C212.996 407.499 212.925 407.933 212.925 408.429ZM221.034 402.478V412H219.644V402.478H221.034ZM225.913 412.144C225.243 412.144 224.659 411.991 224.16 411.684C223.661 411.377 223.273 410.948 222.997 410.396C222.721 409.844 222.583 409.199 222.583 408.462C222.583 407.721 222.721 407.073 222.997 406.518C223.273 405.963 223.661 405.532 224.16 405.225C224.659 404.919 225.243 404.765 225.913 404.765C226.582 404.765 227.166 404.919 227.666 405.225C228.165 405.532 228.552 405.963 228.828 406.518C229.104 407.073 229.242 407.721 229.242 408.462C229.242 409.199 229.104 409.844 228.828 410.396C228.552 410.948 228.165 411.377 227.666 411.684C227.166 411.991 226.582 412.144 225.913 412.144ZM225.917 410.977C226.351 410.977 226.711 410.862 226.996 410.633C227.281 410.404 227.492 410.098 227.628 409.717C227.768 409.336 227.838 408.916 227.838 408.457C227.838 408.001 227.768 407.583 227.628 407.202C227.492 406.817 227.281 406.509 226.996 406.276C226.711 406.044 226.351 405.928 225.917 405.928C225.48 405.928 225.118 406.044 224.829 406.276C224.544 406.509 224.332 406.817 224.192 407.202C224.056 407.583 223.988 408.001 223.988 408.457C223.988 408.916 224.056 409.336 224.192 409.717C224.332 410.098 224.544 410.404 224.829 410.633C225.118 410.862 225.48 410.977 225.917 410.977ZM231.429 414.678C231.222 414.678 231.033 414.661 230.862 414.627C230.692 414.596 230.565 414.562 230.481 414.525L230.816 413.386C231.07 413.454 231.296 413.483 231.494 413.474C231.693 413.465 231.868 413.39 232.02 413.251C232.175 413.111 232.311 412.883 232.429 412.567L232.601 412.093L229.988 404.858H231.476L233.285 410.401H233.359L235.168 404.858H236.66L233.717 412.953C233.581 413.325 233.407 413.64 233.196 413.897C232.985 414.157 232.734 414.353 232.443 414.483C232.152 414.613 231.814 414.678 231.429 414.678ZM237.967 412V404.858H239.301V406.021H239.39C239.538 405.627 239.782 405.32 240.12 405.1C240.457 404.877 240.862 404.765 241.333 404.765C241.81 404.765 242.21 404.877 242.533 405.1C242.858 405.323 243.098 405.63 243.253 406.021H243.328C243.498 405.639 243.77 405.336 244.141 405.109C244.513 404.88 244.957 404.765 245.471 404.765C246.119 404.765 246.648 404.968 247.057 405.374C247.469 405.78 247.675 406.393 247.675 407.211V412H246.285V407.341C246.285 406.858 246.153 406.507 245.89 406.29C245.626 406.073 245.312 405.965 244.946 405.965C244.493 405.965 244.141 406.104 243.89 406.383C243.639 406.659 243.514 407.014 243.514 407.448V412H242.128V407.253C242.128 406.865 242.007 406.554 241.766 406.318C241.524 406.083 241.209 405.965 240.822 405.965C240.558 405.965 240.315 406.035 240.092 406.174C239.872 406.31 239.693 406.501 239.557 406.746C239.424 406.991 239.357 407.274 239.357 407.597V412H237.967ZM252.617 412.144C251.913 412.144 251.307 411.994 250.799 411.693C250.293 411.389 249.903 410.963 249.627 410.414C249.354 409.863 249.218 409.216 249.218 408.476C249.218 407.744 249.354 407.099 249.627 406.541C249.903 405.983 250.287 405.548 250.78 405.235C251.276 404.922 251.856 404.765 252.519 404.765C252.922 404.765 253.312 404.832 253.691 404.965C254.069 405.098 254.408 405.308 254.709 405.593C255.01 405.878 255.247 406.248 255.42 406.704C255.594 407.157 255.681 407.707 255.681 408.355V408.848H250.003V407.806H254.318C254.318 407.44 254.244 407.116 254.095 406.834C253.946 406.549 253.737 406.324 253.467 406.16C253.201 405.996 252.888 405.914 252.528 405.914C252.138 405.914 251.797 406.01 251.505 406.202C251.217 406.391 250.994 406.639 250.836 406.946C250.681 407.25 250.603 407.58 250.603 407.936V408.75C250.603 409.227 250.687 409.633 250.854 409.968C251.025 410.303 251.262 410.559 251.566 410.735C251.87 410.909 252.224 410.996 252.631 410.996C252.894 410.996 253.134 410.958 253.351 410.884C253.568 410.807 253.756 410.692 253.914 410.54C254.072 410.388 254.193 410.201 254.276 409.977L255.592 410.215C255.487 410.602 255.298 410.941 255.025 411.233C254.755 411.521 254.416 411.746 254.007 411.907C253.601 412.065 253.137 412.144 252.617 412.144ZM258.613 407.76V412H257.223V404.858H258.558V406.021H258.646C258.81 405.642 259.068 405.339 259.418 405.109C259.771 404.88 260.216 404.765 260.752 404.765C261.239 404.765 261.665 404.867 262.031 405.072C262.397 405.274 262.68 405.574 262.882 405.974C263.083 406.374 263.184 406.868 263.184 407.457V412H261.794V407.625C261.794 407.107 261.659 406.703 261.389 406.411C261.12 406.117 260.749 405.969 260.278 405.969C259.956 405.969 259.669 406.039 259.418 406.179C259.17 406.318 258.973 406.523 258.827 406.792C258.685 407.059 258.613 407.381 258.613 407.76ZM268.382 404.858V405.974H264.481V404.858H268.382ZM265.527 403.147H266.918V409.903C266.918 410.173 266.958 410.376 267.039 410.512C267.119 410.645 267.223 410.737 267.35 410.786C267.48 410.833 267.621 410.856 267.773 410.856C267.885 410.856 267.982 410.848 268.066 410.833C268.15 410.817 268.215 410.805 268.261 410.796L268.512 411.944C268.432 411.975 268.317 412.006 268.168 412.037C268.02 412.071 267.834 412.09 267.61 412.093C267.245 412.099 266.904 412.034 266.588 411.898C266.271 411.761 266.016 411.551 265.82 411.265C265.625 410.98 265.527 410.622 265.527 410.191V403.147ZM275.157 406.602L273.897 406.825C273.844 406.664 273.76 406.51 273.646 406.365C273.534 406.219 273.382 406.1 273.19 406.007C272.998 405.914 272.758 405.867 272.469 405.867C272.076 405.867 271.747 405.955 271.484 406.132C271.22 406.306 271.088 406.53 271.088 406.806C271.088 407.045 271.177 407.237 271.353 407.383C271.53 407.529 271.815 407.648 272.209 407.741L273.343 408.001C274.001 408.153 274.49 408.387 274.813 408.703C275.135 409.02 275.296 409.43 275.296 409.936C275.296 410.363 275.172 410.745 274.924 411.079C274.679 411.411 274.337 411.671 273.897 411.861C273.46 412.05 272.953 412.144 272.376 412.144C271.577 412.144 270.924 411.974 270.419 411.633C269.914 411.289 269.604 410.8 269.489 410.168L270.833 409.963C270.916 410.314 271.088 410.579 271.349 410.759C271.609 410.935 271.949 411.024 272.367 411.024C272.823 411.024 273.187 410.929 273.46 410.74C273.732 410.548 273.869 410.314 273.869 410.038C273.869 409.815 273.785 409.627 273.618 409.475C273.453 409.323 273.201 409.209 272.86 409.131L271.651 408.866C270.985 408.714 270.492 408.472 270.172 408.141C269.856 407.809 269.698 407.389 269.698 406.881C269.698 406.459 269.816 406.09 270.052 405.774C270.287 405.458 270.613 405.212 271.028 405.035C271.443 404.855 271.919 404.765 272.455 404.765C273.227 404.765 273.835 404.933 274.278 405.267C274.721 405.599 275.014 406.044 275.157 406.602Z" fill="#00654D"/>
</svg>
