<svg width="420" height="348" viewBox="0 0 420 348" fill="none" xmlns="http://www.w3.org/2000/svg">
<g clip-path="url(#clip0_2680_3472)">
<path d="M419.753 266.327H35.6641V347.67H419.753V266.327Z" fill="#EAE2CF"/>
<path d="M95.3269 347.514L116.478 325.865H63.9024L36.5983 326.553L35.4629 347.514H95.3269Z" fill="#01654D"/>
<path d="M134.589 347.514L134.369 325.865H63.9023L77.0508 347.514H134.589Z" fill="#01654D"/>
<path d="M45.7545 325.49H31.2051V347.514H45.7545V325.49Z" fill="#01654D"/>
<path d="M287.07 67.1822L292.454 35.415L298.149 67.1822H287.07Z" stroke="#0F1728" stroke-linejoin="round"/>
<path d="M298.149 67.1822L289.67 52.2976" stroke="#0F1728" stroke-linejoin="round"/>
<path d="M287.07 67.1822L295.485 52.3984" stroke="#0F1728" stroke-linejoin="round"/>
<path d="M314.548 267.436L300.539 86.7778" stroke="#0F1728" stroke-linejoin="round"/>
<path d="M284.68 86.7778L270.68 267.436" stroke="#0F1728" stroke-linejoin="round"/>
<path d="M271.971 253.881H313.449L274.342 219.905L308.807 193.371L278.298 169.175L305.327 148.342L281.182 132.082L302.846 116.629L283.462 102.927L300.722 89.6191" stroke="#0F1728" stroke-linecap="square" stroke-linejoin="round"/>
<path d="M271.916 253.881L310.766 219.905L276.421 193.371L306.921 169.175L279.9 148.342L304.046 132.082L282.382 116.629L301.766 102.927L284.46 89.6191" stroke="#0F1728" stroke-linejoin="round"/>
<path d="M125.516 82.0393H304.851V69.0886H138.408L125.516 82.0393Z" stroke="#0F1728" stroke-linejoin="round"/>
<path d="M176.993 82.0393L164.055 69.0886L151.117 82.0393" stroke="#0F1728" stroke-linejoin="round"/>
<path d="M151.391 82.0393L138.453 69.0886L125.516 82.0393" stroke="#0F1728" stroke-linejoin="round"/>
<path d="M202.868 82.0393L189.93 69.0886L176.992 82.0393" stroke="#0F1728" stroke-linejoin="round"/>
<path d="M228.743 82.0393L215.805 69.0886L202.867 82.0393" stroke="#0F1728" stroke-linejoin="round"/>
<path d="M254.62 82.0393L241.682 69.0886L228.744 82.0393" stroke="#0F1728" stroke-linejoin="round"/>
<path d="M280.495 82.0393L267.557 69.0886L254.619 82.0393" stroke="#0F1728" stroke-linejoin="round"/>
<path d="M285.97 66.3114H304.273C304.988 66.3114 305.564 66.8888 305.564 67.6037V85.8978C305.564 86.6127 304.988 87.1901 304.273 87.1901H282.463C281.85 87.1901 281.318 86.7594 281.199 86.1544L279.68 78.6847C279.625 78.4097 279.661 78.1347 279.771 77.8781L284.798 67.0538C285.009 66.5955 285.466 66.3022 285.97 66.3022" fill="#00674B"/>
<path d="M286.273 68.163V77.8966C286.273 78.1349 286.081 78.3182 285.852 78.3182H282.217C281.905 78.3182 281.704 77.9974 281.832 77.7133L286.273 68.1538V68.163Z" fill="#E5BE34"/>
<path d="M297.279 78.3274H303.276C303.514 78.3274 303.697 78.1349 303.697 77.9057V68.5937C303.697 68.3554 303.505 68.1721 303.276 68.1721H297.279C297.041 68.1721 296.857 68.3646 296.857 68.5937V77.9057C296.857 78.144 297.05 78.3274 297.279 78.3274Z" fill="#E5BE34"/>
<path d="M288.562 78.3274H294.559C294.797 78.3274 294.98 78.1349 294.98 77.9057V68.5937C294.98 68.3554 294.788 68.1721 294.559 68.1721H288.562C288.324 68.1721 288.141 68.3646 288.141 68.5937V77.9057C288.141 78.144 288.333 78.3274 288.562 78.3274Z" fill="#E5BE34"/>
<path d="M349.836 60.2991H332.191V87.9327H349.836V60.2991Z" fill="#EAE1CC"/>
<path d="M349.836 60.2991H332.191V87.9327H349.836V60.2991Z" stroke="#0F1728" stroke-linejoin="round"/>
<path d="M334.572 62.6362H347.455" stroke="#0F1728" stroke-linejoin="round"/>
<path d="M334.572 65.1934H347.455" stroke="#0F1728" stroke-linejoin="round"/>
<path d="M334.572 67.7595H347.455" stroke="#0F1728" stroke-linejoin="round"/>
<path d="M334.572 70.3259H347.455" stroke="#0F1728" stroke-linejoin="round"/>
<path d="M334.572 72.8923H347.455" stroke="#0F1728" stroke-linejoin="round"/>
<path d="M334.572 78.0156H347.455" stroke="#0F1728" stroke-linejoin="round"/>
<path d="M334.572 75.4585H347.455" stroke="#0F1728" stroke-linejoin="round"/>
<path d="M334.572 80.582H347.455" stroke="#0F1728" stroke-linejoin="round"/>
<path d="M334.572 85.7146H347.455" stroke="#0F1728" stroke-linejoin="round"/>
<path d="M334.572 83.1482H347.455" stroke="#0F1728" stroke-linejoin="round"/>
<path d="M282.694 91.0398H301.876C302.316 91.0398 302.664 90.6823 302.664 90.2516V89.0692C302.664 88.6293 302.307 88.281 301.876 88.281H282.694C282.254 88.281 281.906 88.6385 281.906 89.0692V90.2516C281.906 90.6915 282.263 91.0398 282.694 91.0398Z" fill="#00674B"/>
<path d="M305.41 69.0794H351.348C352.025 69.0794 352.584 68.5294 352.584 67.842V67.5396C352.584 66.8613 352.034 66.3022 351.348 66.3022H303.506" fill="#00674B"/>
<path d="M292.453 35.415L341.009 60.299" stroke="#0F1728" stroke-linejoin="round"/>
<path d="M189.93 69.0886L292.453 35.415" stroke="#0F1728" stroke-linejoin="round"/>
<path d="M173.494 83.4599C173.494 85.0638 174.794 86.3653 176.397 86.3653C177.999 86.3653 179.299 85.0638 179.299 83.4599C179.299 81.8559 177.999 80.5544 176.397 80.5544C174.794 80.5544 173.494 81.8559 173.494 83.4599Z" fill="#E5BE34"/>
<path d="M176.396 86.3652V122.174" stroke="#0F1728" stroke-linejoin="round"/>
<path d="M130.607 137.527H222.207V122.385L130.607 122.385V137.527Z" fill="#DDD2BA"/>
<path d="M203.564 137.343V122.385C203.564 122.284 203.647 122.202 203.748 122.202H222.033C222.133 122.202 222.216 122.284 222.216 122.385V137.343C222.216 137.444 222.133 137.526 222.033 137.526H203.748C203.647 137.526 203.564 137.444 203.564 137.343ZM221.85 122.559H203.922V137.16H221.85V122.559Z" fill="#101727" stroke="#101727" stroke-width="0.35" stroke-miterlimit="10"/>
<path d="M203.746 137.517C203.746 137.517 203.829 137.508 203.856 137.481L222.141 122.523C222.215 122.459 222.233 122.349 222.169 122.266C222.105 122.193 221.995 122.175 221.912 122.239L203.627 137.197C203.554 137.261 203.536 137.371 203.6 137.453C203.636 137.499 203.691 137.517 203.737 137.517H203.746Z" fill="#101727" stroke="#101727" stroke-width="0.35" stroke-miterlimit="10"/>
<path d="M222.032 137.517C222.087 137.517 222.133 137.499 222.17 137.453C222.234 137.38 222.225 137.261 222.142 137.197L203.857 122.239C203.784 122.174 203.665 122.184 203.601 122.266C203.537 122.339 203.546 122.459 203.628 122.523L221.913 137.481C221.913 137.481 221.987 137.517 222.023 137.517H222.032Z" fill="#101727" stroke="#101727" stroke-width="0.35" stroke-miterlimit="10"/>
<path d="M185.279 137.343V122.385C185.279 122.284 185.362 122.202 185.462 122.202H203.748C203.848 122.202 203.931 122.284 203.931 122.385V137.343C203.931 137.444 203.848 137.526 203.748 137.526H185.462C185.362 137.526 185.279 137.444 185.279 137.343ZM203.564 122.559H185.636V137.16H203.564V122.559Z" fill="#101727" stroke="#101727" stroke-width="0.35" stroke-miterlimit="10"/>
<path d="M185.461 137.517C185.461 137.517 185.543 137.508 185.571 137.481L203.856 122.523C203.929 122.459 203.948 122.349 203.884 122.266C203.819 122.193 203.71 122.175 203.627 122.239L185.342 137.197C185.269 137.261 185.25 137.371 185.315 137.453C185.351 137.499 185.406 137.517 185.452 137.517H185.461Z" fill="#101727" stroke="#101727" stroke-width="0.35" stroke-miterlimit="10"/>
<path d="M203.747 137.517C203.802 137.517 203.848 137.499 203.884 137.453C203.949 137.38 203.939 137.261 203.857 137.197L185.572 122.239C185.499 122.174 185.38 122.184 185.315 122.266C185.251 122.339 185.261 122.459 185.343 122.523L203.628 137.481C203.628 137.481 203.701 137.517 203.738 137.517H203.747Z" fill="#101727" stroke="#101727" stroke-width="0.35" stroke-miterlimit="10"/>
<path d="M167.002 137.343V122.385C167.002 122.284 167.084 122.202 167.185 122.202H185.47C185.571 122.202 185.653 122.284 185.653 122.385V137.343C185.653 137.444 185.571 137.526 185.47 137.526H167.185C167.084 137.526 167.002 137.444 167.002 137.343ZM185.278 122.559H167.35V137.16H185.278V122.559Z" fill="#101727" stroke="#101727" stroke-width="0.35" stroke-miterlimit="10"/>
<path d="M167.176 137.517C167.176 137.517 167.258 137.508 167.286 137.481L185.571 122.523C185.644 122.459 185.663 122.349 185.598 122.266C185.534 122.193 185.424 122.175 185.342 122.239L167.057 137.197C166.984 137.261 166.965 137.371 167.029 137.453C167.066 137.499 167.121 137.517 167.167 137.517H167.176Z" fill="#101727" stroke="#101727" stroke-width="0.35" stroke-miterlimit="10"/>
<path d="M185.462 137.517C185.517 137.517 185.563 137.499 185.599 137.453C185.663 137.38 185.654 137.261 185.572 137.197L167.287 122.239C167.213 122.174 167.094 122.184 167.03 122.266C166.966 122.339 166.975 122.459 167.058 122.523L185.343 137.481C185.343 137.481 185.416 137.517 185.453 137.517H185.462Z" fill="#101727" stroke="#101727" stroke-width="0.35" stroke-miterlimit="10"/>
<path d="M148.717 137.343V122.385C148.717 122.284 148.799 122.202 148.9 122.202H167.185C167.286 122.202 167.368 122.284 167.368 122.385V137.343C167.368 137.444 167.286 137.526 167.185 137.526H148.9C148.799 137.526 148.717 137.444 148.717 137.343ZM167.002 122.559H149.074V137.16H167.002V122.559Z" fill="#101727" stroke="#101727" stroke-width="0.35" stroke-miterlimit="10"/>
<path d="M148.891 137.517C148.891 137.517 148.973 137.508 149.001 137.481L167.286 122.523C167.359 122.459 167.377 122.349 167.313 122.266C167.249 122.193 167.139 122.175 167.057 122.239L148.772 137.197C148.698 137.261 148.68 137.371 148.744 137.453C148.781 137.499 148.836 137.517 148.882 137.517H148.891Z" fill="#101727" stroke="#101727" stroke-width="0.35" stroke-miterlimit="10"/>
<path d="M167.177 137.517C167.232 137.517 167.278 137.499 167.314 137.453C167.378 137.38 167.369 137.261 167.287 137.197L149.002 122.239C148.928 122.174 148.809 122.184 148.745 122.266C148.681 122.339 148.69 122.459 148.773 122.523L167.058 137.481C167.058 137.481 167.131 137.517 167.168 137.517H167.177Z" fill="#101727" stroke="#101727" stroke-width="0.35" stroke-miterlimit="10"/>
<path d="M130.432 137.343V122.385C130.432 122.284 130.514 122.202 130.615 122.202H148.9C149.001 122.202 149.083 122.284 149.083 122.385V137.343C149.083 137.444 149.001 137.526 148.9 137.526H130.615C130.514 137.526 130.432 137.444 130.432 137.343ZM148.717 122.559H130.789V137.16H148.717V122.559Z" fill="#101727" stroke="#101727" stroke-width="0.35" stroke-miterlimit="10"/>
<path d="M130.615 137.517C130.615 137.517 130.698 137.508 130.725 137.481L149.01 122.523C149.084 122.459 149.102 122.349 149.038 122.266C148.974 122.193 148.864 122.175 148.781 122.239L130.496 137.197C130.423 137.261 130.405 137.371 130.469 137.453C130.505 137.499 130.56 137.517 130.606 137.517H130.615Z" fill="#101727" stroke="#101727" stroke-width="0.35" stroke-miterlimit="10"/>
<path d="M148.892 137.517C148.947 137.517 148.992 137.499 149.029 137.453C149.093 137.38 149.084 137.261 149.002 137.197L130.716 122.239C130.643 122.174 130.524 122.184 130.46 122.266C130.396 122.339 130.405 122.459 130.487 122.523L148.773 137.481C148.773 137.481 148.846 137.517 148.883 137.517H148.892Z" fill="#101727" stroke="#101727" stroke-width="0.35" stroke-miterlimit="10"/>
<path d="M176.543 104.421L190.937 122.303" stroke="#0F1728" stroke-linejoin="round"/>
<path d="M176.323 104.421L161.93 122.303" stroke="#0F1728" stroke-linejoin="round"/>
<path d="M341.631 225.578H294.559V266.804H341.631V225.578Z" fill="#EAE2CF" stroke="#101727" stroke-linejoin="round"/>
<path d="M294.559 225.578H257.119V266.804H294.559V225.578Z" fill="#DDD2BA" stroke="#101727" stroke-linejoin="round"/>
<path d="M327.284 236.018C330.489 236.018 333.08 238.611 333.08 241.819V266.804H321.488V241.819C321.488 238.611 324.08 236.018 327.284 236.018Z" fill="white"/>
<path d="M308.12 236.018C311.325 236.018 313.916 238.611 313.916 241.819V266.804H302.324V241.819C302.324 238.611 304.915 236.018 308.12 236.018Z" fill="white"/>
<path d="M274.616 236.018C277.821 236.018 280.412 238.611 280.412 241.819V251.415H268.82V241.819C268.82 238.611 271.412 236.018 274.616 236.018Z" fill="white"/>
<path d="M220.713 266.3H259.252V203.92L239.978 188.284L220.713 203.389V266.3Z" fill="#EAE2CF" stroke="#101727" stroke-linejoin="round"/>
<path d="M220.714 203.389H189.262V266.181H220.714V203.389Z" fill="#DDD2BA" stroke="#101727" stroke-linejoin="round"/>
<path d="M189.262 203.389H220.714L239.979 188.284H207.712L189.262 203.389Z" fill="#EAE2CF" stroke="#101727" stroke-linejoin="round"/>
<g opacity="0.12">
<path d="M220.015 99.0596C242.653 76.3991 242.653 39.6591 220.015 16.9985C197.377 -5.66204 160.673 -5.66205 138.035 16.9985C115.397 39.6591 115.397 76.3991 138.035 99.0596C160.673 121.72 197.377 121.72 220.015 99.0596Z" fill="#01654D"/>
</g>
<path opacity="0.12" d="M369.009 141.559C365.796 141.889 362.545 142.741 359.551 143.209C357.656 143.511 355.467 143.722 354.075 142.393C352.794 141.165 352.784 139.158 352.556 137.398C351.933 132.577 348.829 128.15 344.516 125.914C340.204 123.677 334.801 123.696 330.507 125.96C326.213 128.223 323.145 132.678 322.55 137.499C322.413 138.589 322.395 139.717 322.038 140.762C321.323 142.851 319.327 143.438 317.313 143.42C310.922 143.355 305.227 139.973 298.863 142.118C296.501 142.916 294.303 144.281 292.701 146.215C292.225 146.783 289.075 153.722 289.981 153.722H385.134C386.013 153.722 382.954 146.893 382.497 146.325C380.903 144.345 378.688 142.952 376.298 142.136C373.981 141.348 371.491 141.293 368.982 141.55L369.009 141.559Z" fill="#01654D"/>
<path opacity="0.12" d="M84.3564 92.781C82.7724 92.946 81.17 93.3584 79.6959 93.5967C78.7619 93.7434 77.6815 93.8442 77.0039 93.1935C76.3721 92.5886 76.3721 91.5987 76.2531 90.728C75.9418 88.3542 74.4218 86.1728 72.2975 85.0729C70.1733 83.9731 67.5088 83.9823 65.3937 85.1004C63.2786 86.2186 61.7678 88.4091 61.4748 90.783C61.4107 91.3237 61.4015 91.8737 61.2276 92.3869C60.8796 93.4134 59.8907 93.7067 58.9019 93.6976C55.7521 93.6701 52.9411 92.002 49.8097 93.056C48.6468 93.4501 47.5664 94.1192 46.7789 95.0724C46.55 95.3565 44.9934 98.766 45.4421 98.766H92.3316C92.7619 98.766 91.2603 95.4023 91.0314 95.1182C90.2439 94.1467 89.1543 93.4593 87.9732 93.056C86.8286 92.671 85.6017 92.6435 84.3656 92.7719L84.3564 92.781Z" fill="#01654D"/>
<path d="M378.74 237.511H331.695V247.63H378.74V237.511Z" fill="#849465" stroke="#101727" stroke-miterlimit="10"/>
<path d="M394.729 245.843H315.719C311.147 245.843 307.441 249.552 307.441 254.128V257.51C307.441 262.086 311.147 265.796 315.719 265.796H394.729C399.3 265.796 403.006 262.086 403.006 257.51V254.128C403.006 249.552 399.3 245.843 394.729 245.843Z" fill="#A99E53" stroke="#101727" stroke-miterlimit="10"/>
<path d="M349.524 214.02L316.323 180.786C313.741 178.201 309.556 178.201 306.974 180.786L305.057 182.704C302.476 185.288 302.476 189.478 305.057 192.062L338.259 225.296C340.84 227.881 345.026 227.881 347.608 225.296L349.524 223.378C352.106 220.794 352.106 216.604 349.524 214.02Z" fill="#A99E53" stroke="#101727" stroke-miterlimit="10"/>
<path d="M239.968 209.337H226.618C226.352 209.337 226.096 209.337 225.84 209.355C220.987 209.64 216.894 213.012 215.466 217.632C213.909 222.663 216.4 227.1 219.064 231.215C221.161 234.459 223.194 237.75 225.254 241.022C226.645 243.148 228.797 244.67 231.26 245.274L239.849 247.401L239.364 231.389L243.246 231.371C248.291 231.352 252.549 227.604 253.226 222.599C253.226 215.267 247.293 209.328 239.968 209.328V209.337Z" fill="#849465" stroke="#101727" stroke-miterlimit="10"/>
<path d="M312.009 179.412H276.437C272.786 179.412 269.826 182.375 269.826 186.03V188.742C269.826 192.397 272.786 195.36 276.437 195.36H312.009C315.66 195.36 318.62 192.397 318.62 188.742V186.03C318.62 182.375 315.66 179.412 312.009 179.412Z" fill="#849465" stroke="#101727" stroke-miterlimit="10"/>
<path d="M269.706 180.786L236.505 214.02C233.923 216.604 233.923 220.794 236.505 223.378L238.421 225.297C241.003 227.881 245.189 227.881 247.77 225.297L280.971 192.063C283.553 189.478 283.553 185.289 280.971 182.704L279.055 180.786C276.473 178.202 272.288 178.202 269.706 180.786Z" fill="#01654D" stroke="#101727" stroke-linecap="round" stroke-linejoin="round"/>
<path d="M317.559 261.103C320.472 261.103 322.833 258.739 322.833 255.824C322.833 252.908 320.472 250.544 317.559 250.544C314.646 250.544 312.285 252.908 312.285 255.824C312.285 258.739 314.646 261.103 317.559 261.103Z" fill="#01654D" stroke="#101727" stroke-miterlimit="10"/>
<path d="M391.432 261.103C394.345 261.103 396.706 258.739 396.706 255.824C396.706 252.908 394.345 250.544 391.432 250.544C388.519 250.544 386.158 252.908 386.158 255.824C386.158 258.739 388.519 261.103 391.432 261.103Z" fill="#01654D" stroke="#101727" stroke-miterlimit="10"/>
<path d="M357.709 208.97L353.708 196.661C352.838 193.985 350.348 192.17 347.537 192.17H326.431C322.842 192.17 319.939 195.085 319.939 198.668V232.351C319.939 235.944 322.851 238.849 326.431 238.849H384.015C387.605 238.849 390.507 235.935 390.507 232.351V222.801C390.507 219.208 387.595 216.303 384.015 216.303H367.818C363.221 216.303 359.138 213.342 357.718 208.961L357.709 208.97Z" fill="#01654D" stroke="#101727" stroke-linecap="round" stroke-linejoin="round"/>
<path d="M328.363 196.286H342.528C343.792 196.286 344.826 197.312 344.826 198.586V221.802C344.826 229.134 338.884 235.083 331.559 235.083H328.372C327.109 235.083 326.074 234.056 326.074 232.782V198.577C326.074 197.312 327.1 196.276 328.372 196.276L328.363 196.286Z" fill="#EAE2CF"/>
<path d="M132.07 266.254H124.488V269.92H132.07V266.254Z" fill="#00674B"/>
<path d="M175.939 266.254H168.357V269.92H175.939V266.254Z" fill="#00674B"/>
<path d="M419.753 266.327H35.6641V270.113H419.753V266.327Z" fill="#A99E53"/>
<path d="M419.744 270.351H35.6638C35.5357 270.351 35.4258 270.241 35.4258 270.113V266.327C35.4258 266.199 35.5357 266.089 35.6638 266.089H419.753C419.881 266.089 419.991 266.199 419.991 266.327V270.113C419.991 270.241 419.881 270.351 419.753 270.351H419.744ZM35.9019 269.874H419.506V266.566H35.9019V269.874Z" fill="#A99E53"/>
<path d="M162.99 227.008H160.637V265.53H162.99V227.008Z" fill="#101727"/>
<path d="M202.564 227.008H200.211V265.53H202.564V227.008Z" fill="#101727"/>
<path d="M207.784 229.767H155.428V246.218H207.784V229.767Z" fill="#01654D"/>
<mask id="mask0_2680_3472" style="mask-type:luminance" maskUnits="userSpaceOnUse" x="155" y="229" width="53" height="18">
<path d="M207.784 229.767H155.428V246.218H207.784V229.767Z" fill="white"/>
</mask>
<g mask="url(#mask0_2680_3472)">
<path d="M181.377 257.29C181.01 257.29 180.644 257.153 180.36 256.869L148.341 224.817C147.782 224.258 147.782 223.342 148.341 222.783C148.899 222.224 149.815 222.224 150.373 222.783L182.393 254.834C182.952 255.393 182.952 256.31 182.393 256.869C182.109 257.153 181.743 257.29 181.377 257.29Z" fill="#FFEEDF"/>
<path d="M168.219 257.29C167.852 257.29 167.486 257.153 167.202 256.869L135.183 224.817C134.624 224.258 134.624 223.342 135.183 222.783C135.741 222.224 136.657 222.224 137.215 222.783L169.235 254.834C169.793 255.393 169.793 256.31 169.235 256.869C168.951 257.153 168.585 257.29 168.219 257.29Z" fill="#FFEEDF"/>
<path d="M208.012 257.29C207.645 257.29 207.279 257.153 206.995 256.869L174.976 224.817C174.417 224.258 174.417 223.342 174.976 222.783C175.534 222.224 176.45 222.224 177.008 222.783L209.028 254.834C209.586 255.393 209.586 256.31 209.028 256.869C208.744 257.153 208.378 257.29 208.012 257.29Z" fill="#FFEEDF"/>
<path d="M194.853 257.29C194.487 257.29 194.121 257.153 193.837 256.869L161.817 224.817C161.259 224.258 161.259 223.342 161.817 222.783C162.376 222.224 163.292 222.224 163.85 222.783L195.87 254.834C196.428 255.393 196.428 256.31 195.87 256.869C195.586 257.153 195.22 257.29 194.853 257.29Z" fill="#FFEEDF"/>
<path d="M232.935 257.29C232.569 257.29 232.203 257.153 231.919 256.869L199.899 224.817C199.341 224.258 199.341 223.342 199.899 222.783C200.458 222.224 201.374 222.224 201.932 222.783L233.952 254.834C234.51 255.393 234.51 256.31 233.952 256.869C233.668 257.153 233.302 257.29 232.935 257.29Z" fill="#FFEEDF"/>
<path d="M219.769 257.29C219.403 257.29 219.037 257.153 218.753 256.869L186.733 224.817C186.175 224.258 186.175 223.342 186.733 222.783C187.292 222.224 188.208 222.224 188.766 222.783L220.786 254.834C221.344 255.393 221.344 256.31 220.786 256.869C220.502 257.153 220.136 257.29 219.769 257.29Z" fill="#FFEEDF"/>
</g>
<path d="M206.134 251.846H157.057V253.899H206.134V251.846Z" fill="#101727"/>
<path d="M162.992 263.715H157.059V265.768H162.992V263.715Z" fill="#EAE2CF"/>
<path d="M162.992 266.016H157.058C156.93 266.016 156.82 265.906 156.82 265.777V263.724C156.82 263.596 156.93 263.486 157.058 263.486H162.992C163.12 263.486 163.23 263.596 163.23 263.724V265.777C163.23 265.906 163.12 266.016 162.992 266.016ZM157.306 265.539H162.754V263.963H157.306V265.539Z" fill="#101727"/>
<path d="M206.209 263.715H200.275V265.768H206.209V263.715Z" fill="#EAE2CF"/>
<path d="M206.199 266.016H200.265C200.137 266.016 200.027 265.906 200.027 265.777V263.724C200.027 263.596 200.137 263.486 200.265 263.486H206.199C206.327 263.486 206.437 263.596 206.437 263.724V265.777C206.437 265.906 206.327 266.016 206.199 266.016ZM200.513 265.539H205.961V263.963H200.513V265.539Z" fill="#101727"/>
<path d="M162.99 263.715H157.057V265.768H162.99V263.715Z" fill="#101727"/>
<path d="M206.209 263.715H200.275V265.768H206.209V263.715Z" fill="#101727"/>
<path d="M46.6523 303.319H48.4836" stroke="#849465" stroke-linejoin="round"/>
<path d="M52.127 303.319H249.427C253.419 303.319 256.661 305.912 256.661 309.111C256.661 312.31 259.902 314.904 263.894 314.904H301.206C305.198 314.904 308.44 312.31 308.44 309.111V308.497C308.44 305.298 311.681 302.705 315.673 302.705H416.347" stroke="#849465" stroke-linejoin="round" stroke-dasharray="3.98 3.98"/>
<path d="M418.17 302.714H420.001" stroke="#849465" stroke-linejoin="round"/>
<path d="M48.1719 313.071H50.0031" stroke="#01654D" stroke-linejoin="round"/>
<path d="M53.6934 313.071H241.892C246.736 313.071 250.664 315.665 250.664 318.863C250.664 322.062 254.592 324.656 259.436 324.656H304.686C309.53 324.656 313.458 322.062 313.458 318.863V318.249C313.458 315.051 317.386 312.457 322.23 312.457H416.329" stroke="#01654D" stroke-linejoin="round" stroke-dasharray="4.03 4.03"/>
<path d="M418.17 312.466H420.001" stroke="#01654D" stroke-linejoin="round"/>
<path d="M280.814 282.321L270.028 301.018C268.966 302.86 270.294 305.161 272.418 305.161H293.981C296.105 305.161 297.433 302.86 296.371 301.018L285.585 282.321C284.523 280.479 281.867 280.479 280.814 282.321Z" fill="#E9BE51" stroke="#101727" stroke-miterlimit="10"/>
<mask id="mask1_2680_3472" style="mask-type:luminance" maskUnits="userSpaceOnUse" x="272" y="283" width="22" height="22">
<path d="M293.982 283.054H272.254V304.804H293.982V283.054Z" fill="white"/>
</mask>
<g mask="url(#mask1_2680_3472)">
<path d="M281.566 299.075C281.566 298.635 281.713 298.269 282.024 297.966C282.326 297.664 282.693 297.517 283.123 297.517C283.553 297.517 283.92 297.673 284.222 297.975C284.524 298.278 284.68 298.644 284.68 299.075C284.68 299.506 284.524 299.873 284.222 300.184C283.92 300.496 283.553 300.652 283.123 300.652C282.693 300.652 282.326 300.496 282.024 300.193C281.722 299.891 281.566 299.515 281.566 299.084M284.515 294.493C284.515 295.189 284.396 295.712 284.167 296.051C283.938 296.39 283.59 296.555 283.114 296.555C282.638 296.555 282.299 296.381 282.07 296.041C281.841 295.702 281.722 295.189 281.722 294.493V289.241C281.722 288.563 281.841 288.049 282.07 287.71C282.299 287.371 282.647 287.206 283.114 287.206C283.581 287.206 283.938 287.371 284.167 287.71C284.396 288.049 284.515 288.553 284.515 289.241V294.493Z" fill="white"/>
</g>
<path d="M31.0859 265.86H419.762" stroke="#101727" stroke-miterlimit="10"/>
<path d="M173.219 202.417L161.151 274.448C159.869 282.101 151.051 285.804 144.697 281.359L121.238 264.944L122.392 228.135L132.555 247.062C133.462 248.904 136.227 248.327 136.319 246.274L137.811 215.414L127.822 201.721C126.201 199.503 126.586 196.405 128.692 194.645C130.825 192.867 133.984 193.078 135.861 195.131L141.529 201.336L141.986 179.256C142.051 176.617 144.239 174.527 146.876 174.591C149.513 174.655 151.601 176.846 151.537 179.486V202.793L154.421 178.129C154.576 175.499 156.838 173.482 159.466 173.638C162.094 173.794 164.108 176.058 163.916 179.146L162.442 204.434L166.123 182.556C166.452 179.935 168.851 178.083 171.461 178.413C174.079 178.743 175.929 181.145 175.599 183.757L172.733 206.303" fill="#E9E1CE"/>
<path d="M150.731 284.007C148.461 284.007 146.217 283.311 144.276 281.964L120.818 265.548C120.607 265.402 120.497 265.173 120.506 264.916L121.66 228.108C121.669 227.778 121.907 227.485 122.228 227.411C122.557 227.329 122.887 227.485 123.052 227.778L133.215 246.704C133.545 247.364 134.149 247.493 134.607 247.401C135.065 247.309 135.569 246.952 135.605 246.237L137.079 215.643L127.236 202.161C125.387 199.631 125.826 196.084 128.234 194.077C130.679 192.042 134.268 192.29 136.42 194.636L140.852 199.484L141.273 179.247C141.31 177.772 141.914 176.397 142.976 175.38C144.038 174.362 145.457 173.821 146.913 173.858C149.953 173.931 152.361 176.461 152.297 179.504V190.145L153.707 178.056C153.79 176.626 154.44 175.279 155.548 174.298C156.646 173.317 158.066 172.832 159.54 172.914C162.68 173.097 164.887 175.801 164.686 179.201L163.999 190.896L165.418 182.437C165.601 181.007 166.343 179.706 167.506 178.798C168.669 177.891 170.115 177.497 171.58 177.689C173.036 177.872 174.336 178.615 175.243 179.779C176.14 180.943 176.543 182.391 176.351 183.857L173.485 206.404L173.329 206.386L161.911 274.558C161.27 278.398 158.743 281.597 155.145 283.109C153.735 283.705 152.242 283.998 150.768 283.998H150.75L150.731 284.007ZM121.99 264.568L145.119 280.754C147.893 282.697 151.418 283.073 154.54 281.762C157.663 280.451 159.86 277.674 160.428 274.329L172.487 202.326L174.858 183.693C174.996 182.62 174.703 181.566 174.052 180.705C173.393 179.852 172.441 179.302 171.37 179.174C169.163 178.89 167.139 180.466 166.856 182.675L163.175 204.59C163.111 204.975 162.754 205.24 162.369 205.204C161.984 205.167 161.691 204.819 161.719 204.425L163.193 179.137C163.349 176.534 161.765 174.555 159.43 174.408C158.359 174.344 157.315 174.701 156.509 175.416C155.703 176.131 155.218 177.121 155.163 178.202L152.279 202.912C152.233 203.297 151.894 203.581 151.501 203.563C151.116 203.536 150.805 203.215 150.805 202.83V179.522C150.85 177.277 149.083 175.425 146.858 175.37C145.787 175.343 144.752 175.737 143.974 176.489C143.196 177.24 142.747 178.239 142.729 179.321L142.271 201.4C142.271 201.702 142.079 201.968 141.795 202.069C141.511 202.179 141.2 202.097 140.998 201.877L135.33 195.672C133.719 193.903 131.018 193.729 129.177 195.25C127.374 196.753 127.044 199.42 128.427 201.327L138.416 215.02C138.517 215.157 138.563 215.322 138.563 215.487L137.07 246.347C137.015 247.603 136.136 248.629 134.9 248.886C133.664 249.142 132.455 248.556 131.906 247.428L123.052 230.94L121.999 264.604L121.99 264.568Z" fill="#101727"/>
<path d="M126.182 236.284L122.721 228.53L116.183 220.602L108.446 214.957L102.311 212.693L112.411 187.488L113.509 176.755L112.548 161L61.9228 168.919L56.7861 169.24L53.554 170.266L51.7776 172.988L51.5213 177.397L53.1328 181.155L55.898 184.253L61.4925 185.389L64.7063 185.398L70.1086 193.858L65.7959 196.47L61.3551 208.183L51.7593 209.677L43.8116 211.611L37.5304 214.544L32.9431 217L28.0811 220.025L22.2394 224.855L18.5036 229.905L11.9843 240.473L9.03597 246.623L6.37148 251.985L5.04382 257.411L4 263.093L4.86985 269.087L6.39895 274.953L9.76848 280.031L15.2073 286.071L21.4153 289.48L26.964 291.02L32.705 292.376L28.6305 326.316H141.738L139.925 314.438L138.46 316.967H73.414L82.0209 302.046L91.7632 303.421L106.542 306.216L110.03 305.877L112.466 302.614L112.264 300.167L111.165 298.206H113.207L116.339 297.793L118.518 295.749L119.067 291.717L117.52 290.122L115.295 289.013L117.52 286.886L119.067 284.21L118.335 280.938L113.619 278.812L102.375 277.144L96.9457 276.117L98.8869 271.809L110.525 252.617H120.523H126.557L128.81 248.318L127.711 246.953L126.695 241.179L126.182 236.284Z" fill="#E9E1CE"/>
<path d="M90.2495 224.302L60.3633 207.786L70.5909 181.417L94.8459 211.241L90.2586 224.302H90.2495ZM62.2129 207.126L89.4529 222.176L93.1978 211.535L71.067 184.323L62.2312 207.126H62.2129Z" fill="#101727"/>
<path d="M109.093 168.265C107.289 167.009 105.22 166.615 103.416 167.183L102.83 165.304C105.22 164.553 107.912 165.048 110.219 166.652L109.093 168.265Z" fill="#101727"/>
<path d="M142.165 326.688H27.3633L31.0899 291.86L32.5549 292.016L29.0114 325.213H140.416L124.832 236.987C124.164 231.176 120.071 224.934 113.597 219.829C104.862 212.928 93.5176 209.362 83.9951 210.508L83.8211 209.042C93.7191 207.85 105.485 211.535 114.513 218.674C121.289 224.027 125.583 230.626 126.288 236.776L142.174 326.688H142.165Z" fill="#101727"/>
<path d="M91.8507 219.609C91.4844 219.609 91.1182 219.591 90.7428 219.545C89.2137 219.362 87.7761 218.821 86.4759 217.932L86.2104 217.758C79.7735 213.368 62.6695 201.7 57.8716 169.117L57.7617 168.393L112.7 159.805L112.809 160.539C117.525 193.057 104.477 209.463 99.5603 215.632L99.3131 215.943C97.4543 218.28 94.7166 219.609 91.8415 219.609H91.8507ZM59.4465 169.622C64.2902 201.022 80.8082 212.277 87.0528 216.539L87.3183 216.713C88.417 217.474 89.6348 217.923 90.9259 218.079C93.6819 218.4 96.3922 217.263 98.1777 215.018L98.4249 214.706C103.186 208.721 115.785 192.883 111.473 161.474L59.4556 169.612L59.4465 169.622Z" fill="#101727"/>
<path d="M84.4444 123.254L74.3359 124.83C62.3594 126.7 54.1187 138.294 55.9317 150.741L58.5962 169.016L112.078 160.676L109.414 142.4C107.601 129.963 96.4117 121.393 84.4353 123.254H84.4444Z" fill="#E8BD51"/>
<path d="M58.6055 168.98L126.179 158.449C127.461 158.247 128.34 157.01 128.148 155.681C127.955 154.352 126.756 153.435 125.474 153.637L96.8331 158.1" fill="#E8BD51"/>
<path d="M58.7152 169.704L58.4863 168.247L126.06 157.716C126.939 157.578 127.552 156.717 127.406 155.782C127.333 155.323 127.104 154.92 126.737 154.645C126.399 154.398 125.987 154.288 125.575 154.352L96.9337 158.815L96.7048 157.358L125.346 152.895C126.142 152.775 126.948 152.968 127.607 153.454C128.294 153.958 128.734 154.709 128.862 155.562C129.109 157.285 127.955 158.907 126.28 159.164L58.7061 169.695L58.7152 169.704Z" fill="#101727"/>
<path d="M60.666 185.771C57.6444 185.771 54.1284 185.019 51.4273 180.143C49.5777 176.798 49.77 172.655 51.9126 170.08C53.5882 168.045 56.1245 167.404 58.8439 168.302L58.3861 169.704C56.2435 168.989 54.3482 169.457 53.0571 171.024C51.2991 173.15 51.1709 176.606 52.7275 179.428C55.6209 184.653 59.3475 184.424 62.6346 184.222H62.7079L62.7994 185.688H62.7262C62.0852 185.734 61.3985 185.78 60.6752 185.78L60.666 185.771Z" fill="#101727"/>
<path d="M103.187 189.226C101.236 189.226 98.6724 188.264 96.3101 185.862L97.3539 184.827C99.9177 187.43 102.701 188.09 104.194 187.613C104.569 187.494 104.835 187.292 104.862 187.109C104.89 186.935 104.716 186.577 104.139 186.156C98.4985 182.105 94.6894 175.716 93.6914 168.631L95.1473 168.421C96.0904 175.111 99.6796 181.133 104.99 184.955C106.318 185.908 106.391 186.861 106.318 187.338C106.199 188.099 105.585 188.713 104.642 189.015C104.212 189.153 103.718 189.226 103.177 189.226H103.187Z" fill="#101727"/>
<path d="M83.7304 190.133C72.6329 185.441 70.5087 178.099 68.2562 167.495L58.6055 169.007C63.3576 201.269 80.2601 212.799 86.6329 217.144L86.8985 217.327C88.1254 218.17 89.4714 218.656 90.8357 218.821C93.7565 219.169 96.7598 217.996 98.7467 215.494L98.994 215.182C102.281 211.058 109.231 202.314 111.95 187.145C103.929 193.14 93.2804 194.194 83.7212 190.152L83.7304 190.133Z" fill="#101727"/>
<path d="M91.8513 219.609C91.485 219.609 91.1188 219.591 90.7525 219.545C89.2143 219.362 87.7859 218.821 86.4857 217.932L86.2201 217.758C79.7833 213.368 62.6793 201.7 57.8814 169.117L57.7715 168.393L68.8323 166.661L68.9788 167.348C71.2587 178.118 73.4105 184.973 84.0226 189.455C93.4536 193.451 103.736 192.351 111.528 186.541L113.03 185.422L112.7 187.265C109.944 202.626 102.949 211.415 99.5884 215.631L99.3411 215.943C97.4824 218.28 94.7447 219.609 91.8696 219.609H91.8604H91.8513ZM59.4471 169.621C64.2908 201.022 80.8088 212.277 87.0534 216.539L87.3189 216.713C88.4177 217.474 89.6354 217.923 90.9265 218.079C93.6825 218.399 96.3928 217.263 98.1783 215.027L98.4255 214.715C101.575 210.755 108.003 202.681 110.896 188.777C102.894 193.974 92.7761 194.762 83.4458 190.821C72.4399 186.165 69.9494 178.878 67.6786 168.338L59.4471 169.63V169.621Z" fill="#101727"/>
<path d="M86.9168 177.577C86.7978 177.577 86.6787 177.577 86.5505 177.559C84.8292 177.357 83.5931 175.753 83.7853 173.993C83.8769 173.123 84.3072 172.334 84.9757 171.803C85.6258 171.28 86.4315 171.051 87.2556 171.152C88.9678 171.354 90.2131 172.958 90.0208 174.717C89.9292 175.588 89.4989 176.376 88.8305 176.917C88.2719 177.357 87.6035 177.595 86.9168 177.595V177.577ZM86.9076 172.591C86.5505 172.591 86.1934 172.71 85.9096 172.949C85.5433 173.242 85.3144 173.663 85.2595 174.149C85.1588 175.121 85.818 175.991 86.7337 176.092C87.1549 176.138 87.5761 176.019 87.924 175.744C88.2902 175.451 88.5192 175.029 88.5741 174.543C88.6748 173.572 88.0156 172.701 87.0999 172.6C87.0358 172.6 86.9809 172.591 86.9168 172.591H86.9076Z" fill="#101727"/>
<path d="M85.1624 238.468C84.5123 238.468 83.8714 238.257 83.3311 237.854C82.6444 237.35 82.1957 236.607 82.0492 235.764C81.9027 234.921 82.0859 234.069 82.562 233.363C83.0473 232.657 83.7615 232.181 84.5947 232.043C85.4279 231.906 86.2611 232.098 86.9479 232.602C87.6346 233.106 88.0833 233.849 88.2298 234.692C88.5319 236.443 87.3874 238.12 85.6843 238.404C85.5103 238.431 85.3272 238.45 85.1624 238.45V238.468ZM85.1166 233.482C85.025 233.482 84.9335 233.491 84.8511 233.51C84.4207 233.583 84.0453 233.83 83.7889 234.206C83.5326 234.591 83.4318 235.059 83.5143 235.526C83.5967 235.993 83.8439 236.397 84.2193 236.681C84.5855 236.947 85.0159 237.057 85.4554 236.983C86.3619 236.827 86.9662 235.92 86.7922 234.967C86.7098 234.499 86.4626 234.096 86.0872 233.812C85.7942 233.601 85.4645 233.491 85.1258 233.491L85.1166 233.482Z" fill="#101727"/>
<path d="M87.1615 250.46C86.5114 250.46 85.8705 250.249 85.3303 249.846C84.6436 249.342 84.1949 248.6 84.0484 247.756C83.7462 246.006 84.8908 244.329 86.5938 244.044C88.3061 243.751 89.9359 244.943 90.2381 246.693C90.3846 247.536 90.2014 248.389 89.7253 249.095C89.24 249.8 88.5258 250.277 87.6926 250.414C87.5186 250.442 87.3355 250.46 87.1707 250.46H87.1615ZM87.1066 245.483C87.015 245.483 86.9235 245.493 86.8411 245.511C85.9346 245.667 85.3303 246.574 85.5043 247.527C85.5867 247.995 85.8339 248.398 86.2093 248.682C86.5755 248.948 87.015 249.058 87.4454 248.985C87.8757 248.911 88.2511 248.664 88.5075 248.288C88.7639 247.903 88.8646 247.436 88.7822 246.968C88.6357 246.107 87.9124 245.502 87.1158 245.502L87.1066 245.483Z" fill="#101727"/>
<path d="M105.284 176.23C105.165 176.23 105.046 176.23 104.918 176.211C103.205 176.01 101.96 174.406 102.152 172.646C102.244 171.775 102.674 170.987 103.343 170.455C103.993 169.933 104.808 169.704 105.623 169.805C107.335 170.006 108.58 171.61 108.388 173.37C108.296 174.241 107.866 175.029 107.198 175.561C106.639 176.001 105.971 176.239 105.284 176.239V176.23ZM105.275 171.235C104.918 171.235 104.561 171.354 104.277 171.592C103.91 171.885 103.682 172.307 103.627 172.793C103.526 173.764 104.185 174.635 105.101 174.736C105.531 174.782 105.952 174.662 106.291 174.387C106.657 174.094 106.886 173.673 106.941 173.187C107.042 172.215 106.383 171.345 105.467 171.244C105.403 171.244 105.348 171.235 105.284 171.235H105.275Z" fill="#101727"/>
<path d="M81.6049 171.574L80.0117 170.419C81.5042 168.347 83.9398 167.092 86.7141 166.963L86.8057 168.934C84.6357 169.035 82.7495 169.997 81.6141 171.574H81.6049Z" fill="#101727"/>
<path d="M86.2663 128.377C86.2663 128.377 81.8805 124.29 75.7732 125.289L75.5352 123.831C82.3841 122.713 87.0813 127.122 87.2827 127.314L86.2663 128.377Z" fill="#101727"/>
<path d="M92.8314 255.877C92.8039 255.785 92.7398 255.592 89.123 223.321L90.5881 223.156C91.815 234.063 94.1499 254.85 94.2597 255.519L93.6463 255.62L92.8405 255.877H92.8314Z" fill="#101727"/>
<path d="M74.3446 240.241C74.0516 240.241 73.7769 240.066 73.6579 239.782L60.5918 207.832L61.9561 207.273L74.253 237.335C74.8115 235.74 75.773 233.376 77.2197 230.993C80.58 225.438 84.9476 222.506 89.8462 222.506C94.7448 222.506 99.6892 224.769 104.396 229.059C105.65 230.204 106.721 231.341 107.591 232.34L100.596 209.326L102.006 208.895L110.164 235.75C110.274 236.098 110.109 236.474 109.77 236.639C109.441 236.794 109.047 236.684 108.846 236.373C108.763 236.254 100.642 223.99 89.8554 223.99C79.0692 223.99 75.1045 239.535 75.0679 239.7C74.9855 240.011 74.72 240.231 74.4087 240.25H74.3537L74.3446 240.241Z" fill="#101727"/>
<path d="M93.9746 140.421L96.9962 132.456L100.018 133.693L96.9962 141.658L93.9746 140.421Z" fill="#01654D"/>
<path d="M98.8281 142.464C96.7771 147.01 94.021 148.596 92.3546 149.311C91.6038 147.588 90.6424 144.453 92.1715 139.614C92.0616 139.532 91.9426 139.449 91.8235 139.367C90.9628 138.707 90.2029 138.001 89.5345 137.259C86.6136 144.985 88.921 149.76 89.7908 151.557L89.8275 151.63C89.9923 151.978 90.2303 152.262 90.5142 152.482C91.1093 152.94 91.9151 153.087 92.6659 152.794L92.7575 152.757C94.5796 152.061 99.4141 150.2 102.344 142.501C101.2 142.648 100.018 142.639 98.819 142.464H98.8281Z" fill="white"/>
<path d="M97.8672 192.443C108.681 189.758 111.135 186.119 113.058 176.395C112.27 185.303 110.182 190.418 110.182 190.418L97.8672 192.443Z" fill="#101727"/>
<path d="M97.9864 193.176L97.6934 191.728C108.196 189.116 110.466 185.743 112.334 176.257L113.79 176.468C113.003 185.386 110.943 190.491 110.86 190.702L110.704 191.087L97.9864 193.176ZM110.906 185.349C109.679 187.475 108.022 189.098 105.604 190.427L109.633 189.767C109.871 189.107 110.366 187.604 110.897 185.358L110.906 185.349Z" fill="#101727"/>
<path d="M72.9629 316.606H135.015L172.126 252.256H110.073L72.9629 316.606Z" fill="#E9E1CE"/>
<path d="M80.6802 317H134.727C136.749 317 138.62 315.962 139.631 314.271L173.232 258.176C175.413 254.538 172.69 250 168.329 250H114.282C112.261 250 110.389 251.038 109.379 252.729L75.7677 308.824C73.5875 312.462 76.3104 317 80.6709 317H80.6802Z" fill="#101727"/>
<path d="M90.4604 275.903L100.331 276.49L117.206 280.027L117.893 281.421L118.46 284.619L117.38 286.837L115.301 288.395L118.222 290.174L118.589 292.731L118.195 295.792L116.254 297.634L113.662 297.845L109.762 297.378L111.694 299.486L112.014 302.254L111.016 304.856L107.848 306.039L100.056 305.26L83.9411 301.676L77.1562 298.826L77.9712 287.14L90.4604 275.903Z" fill="#E9E1CE"/>
<path d="M39.5694 257.838C38.1044 253.604 34.3137 249.882 28.9023 247.353C22.3555 244.292 14.7741 243.586 9.58246 245.566L9.06055 244.191C14.6001 242.083 22.6302 242.798 29.5249 246.024C35.3025 248.718 39.3588 252.751 40.9611 257.361L39.5694 257.847V257.838Z" fill="#101727"/>
<path d="M87.3923 303.069L27.3178 291.851C17.9326 290.1 10.1589 284.161 6.00189 275.546C1.84492 266.939 2.00974 257.16 6.46886 248.7L13.2995 235.731C20.7527 221.589 34.0294 211.791 49.7324 208.858L61.1504 206.723L61.4159 208.171L49.998 210.307C34.7435 213.157 21.8332 222.671 14.5905 236.419L7.7599 249.388C3.52969 257.426 3.36487 266.729 7.3204 274.904C11.2759 283.08 18.6559 288.735 27.5742 290.403L87.6487 301.621L87.3832 303.069H87.3923Z" fill="#101727"/>
<path d="M107.481 306.772C107.151 306.772 106.813 306.744 106.474 306.68L87.3828 303.078L87.6575 301.63L106.748 305.232C108.864 305.626 110.896 304.233 111.299 302.125C111.491 301.099 111.272 300.063 110.686 299.201C110.1 298.34 109.211 297.762 108.195 297.57L89.1042 293.968L89.3789 292.52L108.47 296.122C109.88 296.388 111.098 297.185 111.903 298.376C112.709 299.559 113.011 300.989 112.746 302.4C112.48 303.812 111.684 305.031 110.493 305.837C109.587 306.451 108.552 306.772 107.481 306.772Z" fill="#101727"/>
<path d="M113.983 298.578C113.653 298.578 113.323 298.551 112.985 298.487L92.9141 294.692L93.1888 293.244L113.259 297.038C115.365 297.432 117.407 296.049 117.81 293.931C118.213 291.814 116.812 289.779 114.706 289.376L94.6355 285.582L94.9101 284.134L114.981 287.928C116.391 288.194 117.609 288.991 118.414 290.183C119.22 291.374 119.522 292.795 119.257 294.206C118.771 296.782 116.519 298.578 113.983 298.578Z" fill="#101727"/>
<path d="M113.917 289.138C113.588 289.138 113.249 289.11 112.91 289.046L94.634 285.591L94.9087 284.143L113.185 287.598C114.21 287.791 115.245 287.571 116.106 286.984C116.966 286.397 117.543 285.508 117.735 284.491C118.129 282.374 116.737 280.339 114.631 279.936L95.3299 276.297L97.6007 272.402L90.358 274.033L43.4869 264.941C41.738 264.602 40.3005 263.484 39.5405 261.871C38.7805 260.258 38.8263 258.443 39.6687 256.867L45.1075 246.766L46.4077 247.463L40.9689 257.563C40.3463 258.718 40.3188 260.047 40.8773 261.238C41.4359 262.421 42.4888 263.237 43.7707 263.493L90.3397 272.53L100.586 270.23L97.6556 275.243L114.906 278.506C117.818 279.056 119.731 281.87 119.182 284.775C118.917 286.187 118.12 287.406 116.93 288.212C116.023 288.826 114.989 289.147 113.917 289.147V289.138Z" fill="#101727"/>
<path d="M93.7703 203.096C93.4865 203.096 93.2026 203.077 92.928 203.031C89.7049 202.546 87.3975 200.071 87.7821 197.505C87.8828 196.854 88.1209 196.423 88.5146 196.185C89.2013 195.772 90.0987 196.093 91.2432 196.496C92.0032 196.762 92.873 197.074 93.807 197.211C94.8966 197.376 96.0045 197.193 96.975 197.028C98.1287 196.836 99.0352 196.68 99.5663 197.202C99.8684 197.495 99.9692 197.935 99.8776 198.54C99.6945 199.787 98.7788 201.052 97.4512 201.941C96.3341 202.683 95.0339 203.077 93.7795 203.077L93.7703 203.096ZM89.2654 196.982C89.1647 196.982 89.0823 197.001 89.0182 197.037C88.8626 197.129 88.7893 197.422 88.7527 197.66C88.4505 199.686 90.3917 201.666 93.0745 202.069C94.3289 202.261 95.7298 201.922 96.9018 201.143C98.0097 200.41 98.7514 199.393 98.8979 198.421C98.9528 198.027 98.8796 197.935 98.8704 197.926C98.6964 197.752 97.7991 197.908 97.1399 198.018C96.1418 198.183 94.9057 198.394 93.6605 198.201C92.6258 198.045 91.7193 197.715 90.9136 197.431C90.2909 197.211 89.6591 196.982 89.2654 196.982Z" fill="#E9E1CE"/>
<path d="M31.0859 347.542H419.762" stroke="#101727" stroke-miterlimit="10"/>
</g>
<defs>
<clipPath id="clip0_2680_3472">
<rect width="420" height="348" fill="white"/>
</clipPath>
</defs>
</svg>
