<svg width="420" height="340" viewBox="0 0 420 340" fill="none" xmlns="http://www.w3.org/2000/svg">
<g clip-path="url(#clip0_2945_405)">
<path d="M416.52 291.44H418.35" stroke="#849465" stroke-linejoin="round"/>
<path d="M416.52 301.19H418.35" stroke="#01654D" stroke-linejoin="round"/>
<path d="M419.27 257.6H32.4102V339.53H419.27V257.6Z" fill="#EAE2CF"/>
<path d="M92.5009 339.37L113.801 317.56H60.8509L33.3509 318.25L32.2109 339.36H92.5109L92.5009 339.37Z" fill="#01654D"/>
<path d="M132.05 339.37L131.83 317.56H60.8496L74.0896 339.37H132.04H132.05Z" fill="#01654D"/>
<path d="M42.5699 317.19H27.9199V339.37H42.5699V317.19Z" fill="#01654D"/>
<path d="M285.631 57.02L291.051 25.02L296.791 57.02H285.631Z" stroke="#0F1728" stroke-linejoin="round"/>
<path d="M296.79 57.02L288.25 42.03" stroke="#0F1728" stroke-linejoin="round"/>
<path d="M285.631 57.02L294.111 42.13" stroke="#0F1728" stroke-linejoin="round"/>
<path d="M313.309 258.72L299.199 76.76" stroke="#0F1728" stroke-linejoin="round"/>
<path d="M283.219 76.76L269.119 258.72" stroke="#0F1728" stroke-linejoin="round"/>
<path d="M270.42 245.06H312.2L272.81 210.84L307.52 184.11L276.79 159.74L304.01 138.76L279.69 122.38L301.51 106.82L281.99 93.02L299.37 79.62" stroke="#0F1728" stroke-linecap="square" stroke-linejoin="round"/>
<path d="M270.369 245.06L309.499 210.84L274.909 184.11L305.629 159.74L278.409 138.76L302.729 122.38L280.909 106.82L300.429 93.02L282.999 79.62" stroke="#0F1728" stroke-linejoin="round"/>
<path d="M122.91 71.9799H303.54V58.9399H135.9L122.91 71.9799Z" stroke="#0F1728" stroke-linejoin="round"/>
<path d="M174.759 71.9799L161.729 58.9399L148.699 71.9799" stroke="#0F1728" stroke-linejoin="round"/>
<path d="M148.97 71.9799L135.94 58.9399L122.91 71.9799" stroke="#0F1728" stroke-linejoin="round"/>
<path d="M200.82 71.9799L187.79 58.9399L174.76 71.9799" stroke="#0F1728" stroke-linejoin="round"/>
<path d="M226.88 71.9799L213.85 58.9399L200.82 71.9799" stroke="#0F1728" stroke-linejoin="round"/>
<path d="M252.951 71.9799L239.921 58.9399L226.891 71.9799" stroke="#0F1728" stroke-linejoin="round"/>
<path d="M279.009 71.9799L265.979 58.9399L252.949 71.9799" stroke="#0F1728" stroke-linejoin="round"/>
<path d="M284.52 56.14H302.96C303.68 56.14 304.26 56.72 304.26 57.44V75.87C304.26 76.59 303.68 77.17 302.96 77.17H280.99C280.37 77.17 279.84 76.74 279.72 76.13L278.19 68.61C278.13 68.33 278.17 68.06 278.28 67.8L283.34 56.9C283.55 56.44 284.01 56.14 284.52 56.14Z" fill="#01654D"/>
<path d="M284.829 58.01V67.81C284.829 68.05 284.639 68.23 284.409 68.23H280.749C280.439 68.23 280.229 67.91 280.359 67.62L284.829 57.99V58.01Z" fill="#E9BE51"/>
<path d="M295.91 68.24H301.95C302.19 68.24 302.37 68.05 302.37 67.82V58.44C302.37 58.2 302.18 58.02 301.95 58.02H295.91C295.67 58.02 295.48 58.21 295.48 58.44V67.82C295.48 68.06 295.67 68.24 295.91 68.24Z" fill="#E9BE51"/>
<path d="M287.131 68.24H293.171C293.411 68.24 293.591 68.05 293.591 67.82V58.44C293.591 58.2 293.401 58.02 293.171 58.02H287.131C286.891 58.02 286.711 58.21 286.711 58.44V67.82C286.711 68.06 286.901 68.24 287.131 68.24Z" fill="#E9BE51"/>
<path d="M348.85 50.09H331.08V77.92H348.85V50.09Z" fill="#EAE2CF"/>
<path d="M348.85 50.09H331.08V77.92H348.85V50.09Z" stroke="#0F1728" stroke-linejoin="round"/>
<path d="M333.48 52.4399H346.46" stroke="#0F1728" stroke-linejoin="round"/>
<path d="M333.48 55.02H346.46" stroke="#0F1728" stroke-linejoin="round"/>
<path d="M333.48 57.6H346.46" stroke="#0F1728" stroke-linejoin="round"/>
<path d="M333.48 60.1801H346.46" stroke="#0F1728" stroke-linejoin="round"/>
<path d="M333.48 62.77H346.46" stroke="#0F1728" stroke-linejoin="round"/>
<path d="M333.48 67.9301H346.46" stroke="#0F1728" stroke-linejoin="round"/>
<path d="M333.48 65.35H346.46" stroke="#0F1728" stroke-linejoin="round"/>
<path d="M333.48 70.52H346.46" stroke="#0F1728" stroke-linejoin="round"/>
<path d="M333.48 75.6801H346.46" stroke="#0F1728" stroke-linejoin="round"/>
<path d="M333.48 73.1H346.46" stroke="#0F1728" stroke-linejoin="round"/>
<path d="M281.22 81.05H300.54C300.98 81.05 301.33 80.69 301.33 80.26V79.07C301.33 78.63 300.97 78.28 300.54 78.28H281.22C280.78 78.28 280.43 78.64 280.43 79.07V80.26C280.43 80.7 280.79 81.05 281.22 81.05Z" fill="#01654D"/>
<path d="M304.1 58.93H350.37C351.05 58.93 351.61 58.38 351.61 57.68V57.38C351.61 56.7 351.06 56.13 350.37 56.13H302.18" fill="#01654D"/>
<path d="M291.051 25.02L339.961 50.08" stroke="#0F1728" stroke-linejoin="round"/>
<path d="M187.789 58.94L291.049 25.02" stroke="#0F1728" stroke-linejoin="round"/>
<path d="M171.24 73.41C171.24 75.03 172.55 76.34 174.16 76.34C175.77 76.34 177.08 75.03 177.08 73.41C177.08 71.79 175.77 70.48 174.16 70.48C172.55 70.48 171.24 71.79 171.24 73.41Z" fill="#E9BE51"/>
<path d="M174.16 76.34V112.41" stroke="#0F1728" stroke-linejoin="round"/>
<path d="M128.039 127.87H220.299V112.62H128.039V127.87Z" fill="#DDD2BA"/>
<path d="M201.52 127.69V112.62C201.52 112.52 201.6 112.44 201.71 112.44H220.13C220.23 112.44 220.31 112.52 220.31 112.62V127.69C220.31 127.79 220.23 127.87 220.13 127.87H201.71C201.61 127.87 201.52 127.79 201.52 127.69ZM219.94 112.8H201.88V127.51H219.94V112.8Z" fill="#0F1728" stroke="#0F1728" stroke-width="0.5" stroke-miterlimit="10"/>
<path d="M201.709 127.86C201.709 127.86 201.789 127.86 201.819 127.82L220.239 112.75C220.309 112.69 220.329 112.57 220.269 112.49C220.209 112.42 220.089 112.4 220.009 112.46L201.589 127.53C201.519 127.59 201.499 127.71 201.559 127.79C201.599 127.84 201.649 127.85 201.699 127.85L201.709 127.86Z" fill="#0F1728" stroke="#0F1728" stroke-width="0.5" stroke-miterlimit="10"/>
<path d="M220.12 127.86C220.18 127.86 220.22 127.84 220.26 127.8C220.32 127.73 220.32 127.61 220.23 127.54L201.81 112.47C201.74 112.4 201.62 112.41 201.55 112.5C201.49 112.57 201.49 112.69 201.58 112.76L220 127.83C220 127.83 220.07 127.87 220.11 127.87L220.12 127.86Z" fill="#0F1728" stroke="#0F1728" stroke-width="0.5" stroke-miterlimit="10"/>
<path d="M183.109 127.69V112.62C183.109 112.52 183.189 112.44 183.289 112.44H201.709C201.809 112.44 201.889 112.52 201.889 112.62V127.69C201.889 127.79 201.809 127.87 201.709 127.87H183.289C183.189 127.87 183.109 127.79 183.109 127.69ZM201.519 112.8H183.459V127.51H201.519V112.8Z" fill="#0F1728" stroke="#0F1728" stroke-width="0.5" stroke-miterlimit="10"/>
<path d="M183.289 127.86C183.289 127.86 183.369 127.86 183.399 127.82L201.819 112.75C201.889 112.69 201.909 112.57 201.849 112.49C201.779 112.42 201.669 112.4 201.589 112.46L183.169 127.53C183.099 127.59 183.079 127.71 183.139 127.79C183.179 127.84 183.229 127.85 183.279 127.85L183.289 127.86Z" fill="#0F1728" stroke="#0F1728" stroke-width="0.5" stroke-miterlimit="10"/>
<path d="M201.71 127.86C201.77 127.86 201.81 127.84 201.85 127.8C201.92 127.73 201.91 127.61 201.82 127.54L183.4 112.47C183.33 112.4 183.21 112.41 183.14 112.5C183.08 112.57 183.09 112.69 183.17 112.76L201.59 127.83C201.59 127.83 201.66 127.87 201.7 127.87L201.71 127.86Z" fill="#0F1728" stroke="#0F1728" stroke-width="0.5" stroke-miterlimit="10"/>
<path d="M164.699 127.69V112.62C164.699 112.52 164.779 112.44 164.879 112.44H183.299C183.399 112.44 183.479 112.52 183.479 112.62V127.69C183.479 127.79 183.399 127.87 183.299 127.87H164.879C164.779 127.87 164.699 127.79 164.699 127.69ZM183.099 112.8H165.039V127.51H183.099V112.8Z" fill="#0F1728" stroke="#0F1728" stroke-width="0.5" stroke-miterlimit="10"/>
<path d="M164.869 127.86C164.869 127.86 164.949 127.86 164.979 127.82L183.399 112.75C183.469 112.69 183.489 112.57 183.429 112.49C183.369 112.42 183.249 112.4 183.169 112.46L164.749 127.53C164.679 127.59 164.659 127.71 164.719 127.79C164.759 127.84 164.809 127.85 164.859 127.85L164.869 127.86Z" fill="#0F1728" stroke="#0F1728" stroke-width="0.5" stroke-miterlimit="10"/>
<path d="M183.29 127.86C183.35 127.86 183.39 127.84 183.43 127.8C183.49 127.73 183.49 127.61 183.4 127.54L164.98 112.47C164.91 112.4 164.79 112.41 164.72 112.5C164.66 112.57 164.66 112.69 164.75 112.76L183.17 127.83C183.17 127.83 183.24 127.87 183.28 127.87L183.29 127.86Z" fill="#0F1728" stroke="#0F1728" stroke-width="0.5" stroke-miterlimit="10"/>
<path d="M146.279 127.69V112.62C146.279 112.52 146.359 112.44 146.459 112.44H164.879C164.979 112.44 165.059 112.52 165.059 112.62V127.69C165.059 127.79 164.979 127.87 164.879 127.87H146.459C146.359 127.87 146.279 127.79 146.279 127.69ZM164.699 112.8H146.639V127.51H164.699V112.8Z" fill="#0F1728" stroke="#0F1728" stroke-width="0.5" stroke-miterlimit="10"/>
<path d="M146.449 127.86C146.449 127.86 146.529 127.86 146.559 127.82L164.979 112.75C165.049 112.69 165.069 112.57 165.009 112.49C164.949 112.42 164.829 112.4 164.749 112.46L146.329 127.53C146.259 127.59 146.239 127.71 146.299 127.79C146.339 127.84 146.389 127.85 146.439 127.85L146.449 127.86Z" fill="#0F1728" stroke="#0F1728" stroke-width="0.5" stroke-miterlimit="10"/>
<path d="M164.87 127.86C164.93 127.86 164.97 127.84 165.01 127.8C165.07 127.73 165.07 127.61 164.98 127.54L146.56 112.47C146.49 112.4 146.37 112.41 146.3 112.5C146.24 112.57 146.24 112.69 146.33 112.76L164.75 127.83C164.75 127.83 164.82 127.87 164.86 127.87L164.87 127.86Z" fill="#0F1728" stroke="#0F1728" stroke-width="0.5" stroke-miterlimit="10"/>
<path d="M127.859 127.69V112.62C127.859 112.52 127.939 112.44 128.039 112.44H146.459C146.559 112.44 146.639 112.52 146.639 112.62V127.69C146.639 127.79 146.559 127.87 146.459 127.87H128.039C127.939 127.87 127.859 127.79 127.859 127.69ZM146.279 112.8H128.219V127.51H146.279V112.8Z" fill="#0F1728" stroke="#0F1728" stroke-width="0.5" stroke-miterlimit="10"/>
<path d="M128.049 127.86C128.049 127.86 128.129 127.86 128.159 127.82L146.579 112.75C146.649 112.69 146.669 112.57 146.609 112.49C146.549 112.42 146.429 112.4 146.349 112.46L127.929 127.53C127.859 127.59 127.839 127.71 127.899 127.79C127.939 127.84 127.989 127.85 128.039 127.85L128.049 127.86Z" fill="#0F1728" stroke="#0F1728" stroke-width="0.5" stroke-miterlimit="10"/>
<path d="M146.459 127.86C146.519 127.86 146.559 127.84 146.599 127.8C146.659 127.73 146.659 127.61 146.569 127.54L128.149 112.47C128.079 112.4 127.959 112.41 127.889 112.5C127.829 112.57 127.829 112.69 127.919 112.76L146.339 127.83C146.339 127.83 146.409 127.87 146.449 127.87L146.459 127.86Z" fill="#0F1728" stroke="#0F1728" stroke-width="0.5" stroke-miterlimit="10"/>
<path d="M174.311 94.53L188.811 112.54" stroke="#0F1728" stroke-linejoin="round"/>
<path d="M174.08 94.53L159.58 112.54" stroke="#0F1728" stroke-linejoin="round"/>
<path d="M340.59 216.56H293.18V258.08H340.59V216.56Z" fill="#EAE2CF" stroke="#0F1728" stroke-linejoin="round"/>
<path d="M293.171 216.56H255.461V258.08H293.171V216.56Z" fill="#DDD2BA" stroke="#0F1728" stroke-linejoin="round"/>
<path d="M326.129 227.07C329.359 227.07 331.969 229.68 331.969 232.91V258.08H320.289V232.91C320.289 229.68 322.899 227.07 326.129 227.07Z" fill="white"/>
<path d="M306.83 227.07C310.06 227.07 312.67 229.68 312.67 232.91V258.08H300.99V232.91C300.99 229.68 303.6 227.07 306.83 227.07Z" fill="white"/>
<path d="M273.09 227.07C276.32 227.07 278.93 229.68 278.93 232.91V242.58H267.25V232.91C267.25 229.68 269.86 227.07 273.09 227.07Z" fill="white"/>
<path d="M218.789 257.57H257.609V194.74L238.199 178.99L218.799 194.2V257.56L218.789 257.57Z" fill="#EAE2CF" stroke="#0F1728" stroke-linejoin="round"/>
<path d="M218.799 194.21H187.119V257.46H218.799V194.21Z" fill="#DDD2BA" stroke="#0F1728" stroke-linejoin="round"/>
<path d="M187.119 194.21H218.799L238.199 179H205.699L187.119 194.21Z" fill="#EAE2CF" stroke="#0F1728" stroke-linejoin="round"/>
<g opacity="0.12">
<path d="M207.01 72.99C223.69 56.29 223.69 29.22 207.01 12.53C190.33 -4.17 163.29 -4.17 146.61 12.53C129.93 29.23 129.93 56.3 146.61 72.99C163.29 89.69 190.33 89.69 207.01 72.99Z" fill="#01654D"/>
</g>
<path opacity="0.12" d="M368.16 131.93C364.92 132.26 361.65 133.12 358.63 133.59C356.72 133.89 354.52 134.11 353.11 132.77C351.82 131.53 351.81 129.51 351.58 127.74C350.95 122.88 347.83 118.43 343.48 116.17C339.14 113.92 333.69 113.94 329.37 116.22C325.05 118.5 321.95 122.99 321.36 127.84C321.22 128.94 321.2 130.07 320.84 131.13C320.12 133.23 318.11 133.83 316.08 133.81C309.64 133.74 303.91 130.34 297.5 132.5C295.12 133.3 292.91 134.68 291.29 136.63C290.81 137.2 287.64 144.19 288.55 144.19H384.39C385.28 144.19 382.19 137.31 381.73 136.74C380.12 134.75 377.89 133.34 375.49 132.52C373.16 131.73 370.65 131.67 368.12 131.93H368.15H368.16Z" fill="#01654D"/>
<path opacity="0.12" d="M81.4503 82.8C79.8503 82.97 78.2403 83.38 76.7603 83.62C75.8203 83.77 74.7303 83.87 74.0503 83.21C73.4103 82.6 73.4103 81.6 73.2903 80.73C72.9803 78.34 71.4503 76.14 69.3103 75.03C67.1703 73.92 64.4903 73.93 62.3603 75.06C60.2303 76.19 58.7103 78.39 58.4103 80.78C58.3503 81.32 58.3403 81.88 58.1603 82.4C57.8103 83.43 56.8103 83.73 55.8203 83.72C52.6503 83.69 49.8203 82.01 46.6603 83.07C45.4903 83.47 44.4003 84.14 43.6103 85.1C43.3803 85.39 41.8103 88.82 42.2603 88.82H89.4903C89.9203 88.82 88.4103 85.43 88.1803 85.15C87.3903 84.17 86.2903 83.48 85.1003 83.07C83.9503 82.68 82.7103 82.65 81.4703 82.78L81.4503 82.8Z" fill="#01654D"/>
<path d="M377.96 228.58H330.58V238.77H377.96V228.58Z" fill="#849465" stroke="#0F1728" stroke-miterlimit="10"/>
<path d="M394.07 236.97H314.49C309.89 236.97 306.15 240.71 306.15 245.31V248.72C306.15 253.33 309.88 257.07 314.49 257.07H394.07C398.67 257.07 402.41 253.33 402.41 248.72V245.31C402.41 240.7 398.68 236.97 394.07 236.97Z" fill="#A99E53" stroke="#0F1728" stroke-miterlimit="10"/>
<path d="M348.541 204.92L315.101 171.45C312.501 168.85 308.281 168.85 305.681 171.45L303.751 173.38C301.151 175.98 301.151 180.2 303.751 182.81L337.191 216.28C339.791 218.88 344.011 218.88 346.611 216.28L348.541 214.35C351.141 211.75 351.141 207.53 348.541 204.92Z" fill="#A99E53" stroke="#0F1728" stroke-miterlimit="10"/>
<path d="M238.189 200.2H224.739C224.469 200.2 224.209 200.2 223.959 200.22C219.069 200.51 214.949 203.9 213.509 208.56C211.939 213.63 214.449 218.1 217.129 222.24C219.239 225.51 221.289 228.82 223.359 232.12C224.759 234.26 226.929 235.79 229.409 236.4L238.059 238.54L237.569 222.41L241.479 222.39C246.559 222.37 250.849 218.6 251.529 213.55C251.529 206.17 245.549 200.18 238.179 200.18L238.189 200.2Z" fill="#849465" stroke="#0F1728" stroke-miterlimit="10"/>
<path d="M310.75 170.06H274.92C271.24 170.06 268.26 173.04 268.26 176.72V179.45C268.26 183.13 271.24 186.12 274.92 186.12H310.75C314.43 186.12 317.41 183.14 317.41 179.45V176.72C317.41 173.04 314.43 170.06 310.75 170.06Z" fill="#849465" stroke="#0F1728" stroke-miterlimit="10"/>
<path d="M268.14 171.44L234.7 204.91C232.1 207.51 232.1 211.73 234.7 214.34L236.63 216.27C239.23 218.87 243.45 218.87 246.05 216.27L279.49 182.8C282.09 180.2 282.09 175.98 279.49 173.37L277.56 171.44C274.96 168.84 270.74 168.84 268.14 171.44Z" fill="#01654D" stroke="#0F1728" stroke-linecap="round" stroke-linejoin="round"/>
<path d="M316.339 252.34C319.269 252.34 321.649 249.96 321.649 247.02C321.649 244.08 319.269 241.7 316.339 241.7C313.409 241.7 311.029 244.08 311.029 247.02C311.029 249.96 313.409 252.34 316.339 252.34Z" fill="#01654D" stroke="#0F1728" stroke-miterlimit="10"/>
<path d="M390.749 252.34C393.679 252.34 396.059 249.96 396.059 247.02C396.059 244.08 393.679 241.7 390.749 241.7C387.819 241.7 385.439 244.08 385.439 247.02C385.439 249.96 387.819 252.34 390.749 252.34Z" fill="#01654D" stroke="#0F1728" stroke-miterlimit="10"/>
<path d="M356.78 199.83L352.75 187.43C351.87 184.73 349.37 182.91 346.53 182.91H325.27C321.66 182.91 318.73 185.85 318.73 189.45V223.38C318.73 227 321.66 229.92 325.27 229.92H383.27C386.89 229.92 389.81 226.98 389.81 223.38V213.76C389.81 210.14 386.88 207.22 383.27 207.22H366.96C362.33 207.22 358.22 204.24 356.79 199.83H356.78Z" fill="#01654D" stroke="#0F1728" stroke-linecap="round" stroke-linejoin="round"/>
<path d="M327.22 187.05H341.49C342.76 187.05 343.8 188.08 343.8 189.37V212.75C343.8 220.13 337.82 226.13 330.44 226.13H327.23C325.96 226.13 324.92 225.1 324.92 223.81V189.36C324.92 188.09 325.95 187.04 327.23 187.04L327.22 187.05Z" fill="#EAE2CF"/>
<path d="M129.509 257.53H121.869V261.22H129.509V257.53Z" fill="#01654D"/>
<path d="M173.701 257.53H166.061V261.22H173.701V257.53Z" fill="#01654D"/>
<path d="M419.27 257.6H32.4102V261.41H419.27V257.6Z" fill="#A99E53"/>
<path d="M419.26 261.65H32.4099C32.2799 261.65 32.1699 261.54 32.1699 261.41V257.6C32.1699 257.47 32.2799 257.36 32.4099 257.36H419.27C419.4 257.36 419.51 257.47 419.51 257.6V261.41C419.51 261.54 419.4 261.65 419.27 261.65H419.26ZM32.6499 261.17H419.02V257.84H32.6499V261.17Z" fill="#A99E53"/>
<path d="M160.659 218H158.289V256.8H160.659V218Z" fill="#0F1728"/>
<path d="M200.511 218H198.141V256.8H200.511V218Z" fill="#0F1728"/>
<path d="M205.769 220.78H153.039V237.35H205.769V220.78Z" fill="#01654D"/>
<mask id="mask0_2945_405" style="mask-type:luminance" maskUnits="userSpaceOnUse" x="153" y="220" width="53" height="18">
<path d="M205.769 220.78H153.039V237.35H205.769V220.78Z" fill="white"/>
</mask>
<g mask="url(#mask0_2945_405)">
<path d="M179.169 248.5C178.799 248.5 178.429 248.36 178.149 248.08L145.899 215.8C145.339 215.24 145.339 214.31 145.899 213.75C146.459 213.19 147.379 213.19 147.949 213.75L180.199 246.03C180.759 246.59 180.759 247.52 180.199 248.08C179.909 248.37 179.549 248.5 179.179 248.5H179.169Z" fill="#EAE2CF"/>
<path d="M165.919 248.5C165.549 248.5 165.179 248.36 164.899 248.08L132.649 215.8C132.089 215.24 132.089 214.31 132.649 213.75C133.209 213.19 134.129 213.19 134.699 213.75L166.949 246.03C167.509 246.59 167.509 247.52 166.949 248.08C166.659 248.37 166.299 248.5 165.929 248.5H165.919Z" fill="#EAE2CF"/>
<path d="M205.999 248.5C205.629 248.5 205.259 248.36 204.979 248.08L172.729 215.8C172.169 215.24 172.169 214.31 172.729 213.75C173.289 213.19 174.209 213.19 174.779 213.75L207.029 246.03C207.589 246.59 207.589 247.52 207.029 248.08C206.739 248.37 206.379 248.5 206.009 248.5H205.999Z" fill="#EAE2CF"/>
<path d="M192.749 248.5C192.379 248.5 192.009 248.36 191.729 248.08L159.479 215.8C158.919 215.24 158.919 214.31 159.479 213.75C160.039 213.19 160.969 213.19 161.529 213.75L193.779 246.03C194.339 246.59 194.339 247.52 193.779 248.08C193.489 248.37 193.129 248.5 192.759 248.5H192.749Z" fill="#EAE2CF"/>
<path d="M231.108 248.5C230.738 248.5 230.368 248.36 230.088 248.08L197.838 215.8C197.278 215.24 197.278 214.31 197.838 213.75C198.398 213.19 199.328 213.19 199.888 213.75L232.138 246.03C232.698 246.59 232.698 247.52 232.138 248.08C231.848 248.37 231.488 248.5 231.118 248.5H231.108Z" fill="#EAE2CF"/>
<path d="M217.838 248.5C217.468 248.5 217.098 248.36 216.818 248.08L184.568 215.8C184.008 215.24 184.008 214.31 184.568 213.75C185.128 213.19 186.058 213.19 186.618 213.75L218.868 246.03C219.428 246.59 219.428 247.52 218.868 248.08C218.578 248.37 218.218 248.5 217.848 248.5H217.838Z" fill="#EAE2CF"/>
</g>
<path d="M204.11 243.01H154.68V245.08H204.11V243.01Z" fill="#0F1728"/>
<path d="M160.66 254.97H154.68V257.04H160.66V254.97Z" fill="#EAE2CF"/>
<path d="M160.659 257.29H154.679C154.549 257.29 154.439 257.18 154.439 257.05V254.98C154.439 254.85 154.549 254.74 154.679 254.74H160.659C160.789 254.74 160.899 254.85 160.899 254.98V257.05C160.899 257.18 160.789 257.29 160.659 257.29ZM154.929 256.81H160.419V255.22H154.929V256.81Z" fill="#0F1728"/>
<path d="M204.191 254.97H198.211V257.04H204.191V254.97Z" fill="#0F1728"/>
<path d="M160.66 254.97H154.68V257.04H160.66V254.97Z" fill="#0F1728"/>
<path d="M43.4805 294.86H45.3205" stroke="#849465" stroke-linejoin="round"/>
<path d="M48.9902 294.86H247.71C251.73 294.86 255 297.47 255 300.69C255 303.91 258.26 306.52 262.29 306.52H299.87C303.89 306.52 307.16 303.91 307.16 300.69V300.07C307.16 296.85 310.42 294.24 314.45 294.24H415.85" stroke="#849465" stroke-linejoin="round" stroke-dasharray="3.98 3.98"/>
<path d="M45.0098 304.68H46.8498" stroke="#01654D" stroke-linejoin="round"/>
<path d="M50.5703 304.68H240.13C245.01 304.68 248.97 307.29 248.97 310.51C248.97 313.73 252.93 316.34 257.81 316.34H303.39C308.27 316.34 312.23 313.73 312.23 310.51V309.89C312.23 306.67 316.19 304.06 321.07 304.06H415.85" stroke="#01654D" stroke-linejoin="round" stroke-dasharray="4.03 4.03"/>
<path d="M279.33 273.71L268.47 292.54C267.4 294.4 268.74 296.71 270.88 296.71H292.6C294.74 296.71 296.08 294.39 295.01 292.54L284.15 273.71C283.08 271.85 280.41 271.85 279.34 273.71H279.33Z" fill="#E9BE51" stroke="#0F1728" stroke-miterlimit="10"/>
<mask id="mask1_2945_405" style="mask-type:luminance" maskUnits="userSpaceOnUse" x="270" y="274" width="23" height="23">
<path d="M292.591 274.45H270.711V296.36H292.591V274.45Z" fill="white"/>
</mask>
<g mask="url(#mask1_2945_405)">
<path d="M280.092 290.58C280.092 290.14 280.242 289.77 280.552 289.46C280.852 289.16 281.222 289.01 281.662 289.01C282.102 289.01 282.462 289.17 282.772 289.47C283.072 289.78 283.232 290.14 283.232 290.58C283.232 291.02 283.072 291.38 282.772 291.7C282.472 292.01 282.102 292.17 281.662 292.17C281.222 292.17 280.862 292.01 280.552 291.71C280.252 291.41 280.092 291.03 280.092 290.59M283.062 285.97C283.062 286.67 282.942 287.2 282.712 287.54C282.482 287.88 282.132 288.05 281.652 288.05C281.172 288.05 280.832 287.87 280.602 287.53C280.372 287.19 280.252 286.67 280.252 285.97V280.68C280.252 280 280.372 279.48 280.602 279.14C280.832 278.8 281.182 278.63 281.652 278.63C282.122 278.63 282.482 278.8 282.712 279.14C282.942 279.48 283.062 279.99 283.062 280.68V285.97Z" fill="white"/>
</g>
<path d="M27.8008 257.13H419.281" stroke="#0F1728" stroke-miterlimit="10"/>
<path d="M164.51 231.7L160.92 253.1L158.89 265.2C158.86 265.39 158.83 265.58 158.79 265.78C157.5 273.49 148.62 277.22 142.22 272.74L118.59 256.21L119.62 223.38C119.66 222.22 121.21 221.85 121.76 222.88L129.99 238.2C130.9 240.06 133.69 239.47 133.78 237.41L135.28 206.33L125.22 192.54C123.59 190.31 123.98 187.19 126.1 185.41C128.25 183.62 131.43 183.83 133.32 185.9L139.03 192.15L139.49 169.91C139.56 167.25 141.76 165.15 144.42 165.21C147.08 165.27 149.18 167.48 149.11 170.14V193.62L152.01 168.78C152.17 166.13 154.44 164.1 157.09 164.26C159.74 164.42 161.77 166.7 161.57 169.81L160.09 195.28L163.8 173.24C164.13 170.6 166.55 168.73 169.18 169.07C171.82 169.4 173.68 171.82 173.35 174.45L164.51 231.72V231.7Z" fill="#EAE2CF" stroke="#0F1728" stroke-miterlimit="10"/>
<path d="M79.0998 293.58L88.9098 294.96L103.8 297.78L107.31 297.44L109.76 294.15L109.56 291.69L108.45 289.71H110.51L113.66 289.29L115.85 287.23L116.4 283.17L114.84 281.56L112.6 280.44L114.84 278.3L116.4 275.6L115.66 272.3L110.91 270.16L99.5898 268.48L94.1198 267.45L96.0798 263.11L107.8 243.78H123.95L126.22 239.45L125.11 238.08L124.09 232.26L123.57 227.33L120.08 219.52L113.49 211.53L105.7 205.84L98.7498 202.67L103.97 194.35C110.37 181.09 112.22 166.09 109.26 151.67L58.8498 159.47C55.2298 159.7 50.6998 159.34 48.9798 163.31C47.4498 166.83 49.0498 171.51 52.0798 173.72C54.7998 175.7 58.3898 176.06 61.6598 176.07L67.0998 184.59L62.7598 187.22L58.2898 199.02L48.6198 200.52L40.6098 202.47L34.2798 205.42L29.6598 207.89L24.7598 210.94L18.8798 215.8L15.1198 220.89L8.54977 231.53L5.57977 237.72L2.89977 243.12L1.55977 248.59L0.509766 254.31L1.38977 260.35L2.92977 266.26L6.31977 271.37L11.7998 277.45L18.0498 280.88L23.6398 282.43L29.4198 283.8L25.3198 317.98H139.24L137.16 303.13" fill="#EAE2CF"/>
<path d="M58.5586 198.84L67.8486 172.75L91.5386 201.88L87.2086 214.22L58.5586 198.84Z" fill="#EAE2CF"/>
<path d="M68.0192 173.75L90.9692 201.98L86.9192 213.51L59.1692 198.61L68.0092 173.76M67.6792 171.74L57.9492 199.08L87.4792 214.93L92.0992 201.77L67.6692 171.73L67.6792 171.74Z" fill="#0F1728"/>
<path d="M81.4293 114L71.2493 115.59C59.1893 117.47 50.8893 129.15 52.7093 141.69L55.3893 160.1L109.259 151.7L106.579 133.29C104.749 120.76 93.4793 112.13 81.4193 114.01L81.4293 114Z" fill="#E9BE51"/>
<path d="M54.9609 160.05L123.021 149.44C124.311 149.24 125.201 147.99 125.001 146.65C124.811 145.31 123.601 144.39 122.311 144.59L93.4609 149.09" fill="#E9BE51"/>
<path d="M54.9609 160.05L123.021 149.44C124.311 149.24 125.201 147.99 125.001 146.65C124.811 145.31 123.601 144.39 122.311 144.59L93.4609 149.09" stroke="#0F1728" stroke-miterlimit="10"/>
<path d="M92.3203 158.99C93.2203 165.39 96.6603 171.16 101.74 174.81C103.01 175.72 103.08 176.63 103.01 177.09C102.9 177.82 102.31 178.41 101.41 178.69C101 178.82 100.53 178.89 100.01 178.89C98.1403 178.89 95.6903 177.97 93.4303 175.67" fill="#EAE2CF"/>
<path d="M92.3203 158.99C93.2203 165.39 96.6603 171.16 101.74 174.81C103.01 175.72 103.08 176.63 103.01 177.09C102.9 177.82 102.31 178.41 101.41 178.69C101 178.82 100.53 178.89 100.01 178.89C98.1403 178.89 95.6903 177.97 93.4303 175.67" stroke="#0F1728" stroke-miterlimit="10"/>
<path d="M81.2709 181.19C70.0909 176.46 67.1209 169.42 64.8509 158.74L55.1309 160.26C59.9209 192.75 77.7809 204.02 84.2009 208.4L84.4709 208.58C85.7109 209.43 87.0609 209.92 88.4409 210.08C90.4609 210.32 92.4709 209.8 94.1609 208.69C95.5409 207.79 96.5809 206.54 97.6609 205.31C100.971 201.16 106.971 193.45 109.711 178.17C101.631 184.21 90.9109 185.27 81.2909 181.18L81.2709 181.19Z" fill="#0F1728"/>
<path d="M91.1406 130.79L94.1806 122.77L97.2206 124.02L94.1806 132.04L91.1406 130.79Z" fill="#01654D"/>
<path d="M96.0294 132.84C93.9594 137.42 91.1894 139.02 89.5094 139.74C88.7494 138 87.7894 134.85 89.3294 129.97C89.2194 129.89 89.0994 129.8 88.9794 129.72C88.1094 129.06 87.3494 128.34 86.6694 127.6C83.7294 135.38 86.0494 140.19 86.9294 142L86.9694 142.07C87.1394 142.42 87.3794 142.71 87.6594 142.93C88.2594 143.39 89.0694 143.54 89.8294 143.24L89.9194 143.2C91.7594 142.5 96.6194 140.62 99.5794 132.87C98.4294 133.02 97.2394 133.01 96.0294 132.83V132.84Z" fill="white"/>
<path d="M94.5508 183.9C105.411 183.12 108.421 176.81 110.361 167.02C110.401 175.92 106.741 186.89 106.741 186.89L94.5508 183.9Z" fill="#0F1728"/>
<path d="M69.9805 308.24H132.48L169.86 243.43H107.36L69.9805 308.24Z" fill="#EAE2CF"/>
<path d="M77.7498 308.64H132.19C134.23 308.64 136.11 307.59 137.13 305.89L170.97 249.39C173.17 245.73 170.42 241.15 166.03 241.15H111.59C109.55 241.15 107.67 242.2 106.65 243.9L72.7998 300.4C70.5998 304.06 73.3498 308.64 77.7398 308.64H77.7498Z" fill="#0F1728"/>
<path d="M87.6005 267.25L96.6005 268.26L113.951 272.03L115.231 272.81L115.801 276.03L114.711 278.26L112.621 279.83L115.561 281.62L115.931 284.2L115.531 287.28L113.571 289.14L110.961 289.35L107.031 288.88L108.981 291L109.301 293.79L107.451 296.02L105.101 297.6L97.0905 296.02L81.0205 293.2L74.3105 290.81L75.0106 278.56L87.5905 267.24L87.6005 267.25Z" fill="#EAE2CF"/>
<path d="M90.94 193.91C90.65 193.91 90.37 193.89 90.09 193.84C86.84 193.35 84.52 190.86 84.91 188.27C85.01 187.61 85.25 187.18 85.65 186.94C86.34 186.52 87.25 186.85 88.4 187.25C89.17 187.52 90.04 187.83 90.98 187.97C92.08 188.14 93.19 187.95 94.17 187.79C95.33 187.6 96.25 187.44 96.78 187.97C97.08 188.27 97.19 188.71 97.09 189.32C96.91 190.58 95.98 191.85 94.65 192.75C93.52 193.5 92.22 193.89 90.95 193.89V193.91H90.94ZM86.4 187.76C86.3 187.76 86.22 187.78 86.15 187.82C85.99 187.91 85.92 188.21 85.88 188.45C85.58 190.49 87.53 192.48 90.23 192.89C91.49 193.08 92.9 192.74 94.08 191.96C95.2 191.22 95.94 190.2 96.09 189.22C96.15 188.82 96.07 188.73 96.06 188.72C95.88 188.54 94.98 188.7 94.32 188.81C93.31 188.98 92.07 189.19 90.82 188.99C89.78 188.83 88.86 188.5 88.05 188.21C87.42 187.99 86.79 187.76 86.39 187.76H86.4Z" fill="#EAE2CF"/>
<path d="M0 339.4H419.27" stroke="#0F1728" stroke-miterlimit="10"/>
<path d="M83.2506 118.5C83.2506 118.5 80.1506 113.96 72.3906 114.95" stroke="#0F1728" stroke-miterlimit="10"/>
<path d="M84.0499 167.66C85.5024 167.66 86.6799 166.482 86.6799 165.03C86.6799 163.577 85.5024 162.4 84.0499 162.4C82.5974 162.4 81.4199 163.577 81.4199 165.03C81.4199 166.482 82.5974 167.66 84.0499 167.66Z" fill="#EAE2CF" stroke="#0F1728" stroke-miterlimit="10"/>
<path d="M102.56 166.16C104.012 166.16 105.19 164.982 105.19 163.53C105.19 162.077 104.012 160.9 102.56 160.9C101.107 160.9 99.9297 162.077 99.9297 163.53C99.9297 164.982 101.107 166.16 102.56 166.16Z" fill="#EAE2CF" stroke="#0F1728" stroke-miterlimit="10"/>
<path d="M56.0308 160.34C52.6708 158.92 48.8608 161.39 48.4308 164.89C47.7708 170.35 51.4108 174.89 56.6008 175.98C58.5708 176.39 60.5608 176.79 62.5108 177.3" stroke="#0F1728" stroke-miterlimit="10"/>
<path d="M109.27 151.69C109.27 151.69 114.51 182.02 100.43 200.53" stroke="#0F1728" stroke-miterlimit="10"/>
<path d="M77.6602 161.42C77.6602 161.42 79.1302 158.26 83.8702 158.26" stroke="#0F1728" stroke-miterlimit="10"/>
<path d="M100.41 156.35C100.41 156.35 104.21 154.95 106.66 158.1" stroke="#0F1728" stroke-miterlimit="10"/>
<path d="M99.0104 201.41L107.05 227.7C107.05 227.7 98.7604 214.13 87.0404 214.3C75.3204 214.47 70.6804 230.87 70.6804 230.87L58.2904 199.04C58.2904 199.04 31.3604 199.85 15.1304 220.92C-1.09961 241.99 1.40039 260.38 1.40039 260.38C1.40039 260.38 2.33039 267.48 7.77039 272.91C13.2104 278.34 16.8604 281.02 29.4404 283.84L25.3404 318.02H134.58L132.58 305.83" stroke="#0F1728" stroke-linecap="round" stroke-linejoin="round"/>
<path d="M82.1398 228.93C83.5923 228.93 84.7698 227.752 84.7698 226.3C84.7698 224.847 83.5923 223.67 82.1398 223.67C80.6873 223.67 79.5098 224.847 79.5098 226.3C79.5098 227.752 80.6873 228.93 82.1398 228.93Z" fill="#EAE2CF" stroke="#0F1728" stroke-miterlimit="10"/>
<path d="M84.2609 241.12C85.7134 241.12 86.8909 239.943 86.8909 238.49C86.8909 237.038 85.7134 235.86 84.2609 235.86C82.8084 235.86 81.6309 237.038 81.6309 238.49C81.6309 239.943 82.8084 241.12 84.2609 241.12Z" fill="#EAE2CF" stroke="#0F1728" stroke-miterlimit="10"/>
<path d="M87.0391 214.3L90.8091 246.82" stroke="#0F1728" stroke-miterlimit="10"/>
<path d="M6.03906 235.78C6.03906 235.78 27.0991 230.24 36.8591 248.47" stroke="#0F1728" stroke-linejoin="round"/>
<path d="M87.2402 264.93L99.6002 261.93" stroke="#0F1728" stroke-miterlimit="10"/>
<path d="M42.5694 238.16L36.5994 249.49C35.3194 251.91 36.7394 254.88 39.4194 255.42L87.2394 264.93L99.0494 262.21L93.0094 267.64L112.299 271.34C114.599 271.77 116.079 274.02 115.559 276.3C115.069 278.46 112.959 279.84 110.789 279.43L91.8994 275.89" stroke="#0F1728" stroke-linejoin="round"/>
<path d="M29.4297 283.84L103.66 297.29C106.04 297.75 108.35 296.2 108.82 293.83C109.3 291.45 107.78 288.81 105.41 288.32L86.3997 284.72" stroke="#0F1728" stroke-linejoin="round"/>
<path d="M98.9297 287.1L110.14 289.2C112.77 289.69 115.3 287.97 115.8 285.34C116.31 282.7 114.57 280.15 111.93 279.65L110.77 279.43" stroke="#0F1728" stroke-miterlimit="10"/>
<path d="M99.4707 202.78C99.4707 202.78 115.271 207.06 122.961 225.1L128.281 234.99" stroke="#0F1728" stroke-miterlimit="10"/>
</g>
<defs>
<clipPath id="clip0_2945_405">
<rect width="419.51" height="339.9" fill="white"/>
</clipPath>
</defs>
</svg>
