<svg width="34" height="36" viewBox="0 0 34 36" fill="none" xmlns="http://www.w3.org/2000/svg">
<g id="Group">
<path id="Vector" d="M17 13.8786C25.8366 13.8786 33 10.9956 33 7.43929C33 3.88297 25.8366 1 17 1C8.16344 1 1 3.88297 1 7.43929C1 10.9956 8.16344 13.8786 17 13.8786Z" stroke="#E8BD51" stroke-width="2" stroke-linecap="round" stroke-linejoin="round"/>
<path id="Vector_2" d="M33 13.8779C33 17.4356 25.8421 20.3172 17 20.3172C8.15789 20.3172 1 17.4356 1 13.8779" stroke="#E8BD51" stroke-width="2" stroke-linecap="round" stroke-linejoin="round"/>
<path id="Vector_3" d="M33 21.123C33 24.6808 25.8421 27.5623 17 27.5623C8.15789 27.5623 1 24.6808 1 21.123" stroke="#E8BD51" stroke-width="2" stroke-linecap="round" stroke-linejoin="round"/>
<path id="Vector_4" d="M1 7.43945V28.3672C1 31.9249 8.15789 34.8065 17 34.8065C25.8421 34.8065 33 31.9249 33 28.3672V7.43945" stroke="#E8BD51" stroke-width="2" stroke-linecap="round" stroke-linejoin="round"/>
</g>
</svg>
