<svg xmlns="http://www.w3.org/2000/svg" xmlns:xlink="http://www.w3.org/1999/xlink" width="1019" zoomAndPan="magnify" viewBox="0 0 764.25 776.249999" height="1035" preserveAspectRatio="xMidYMid meet" version="1.0"><defs><clipPath id="397c7e8aa3"><path d="M 51.742188 64.125 L 762.792969 64.125 L 762.792969 775.175781 L 51.742188 775.175781 Z M 51.742188 64.125 " clip-rule="nonzero"/></clipPath><clipPath id="15cf4ca1f4"><path d="M 407.328125 64.125 C 210.941406 64.125 51.742188 223.324219 51.742188 419.707031 C 51.742188 616.09375 210.941406 775.292969 407.328125 775.292969 C 603.710938 775.292969 762.910156 616.09375 762.910156 419.707031 C 762.910156 223.324219 603.710938 64.125 407.328125 64.125 Z M 407.328125 64.125 " clip-rule="nonzero"/></clipPath><clipPath id="9a64619a9d"><path d="M 301 10 L 407 10 L 407 128.128906 L 301 128.128906 Z M 301 10 " clip-rule="nonzero"/></clipPath><clipPath id="f349fca71f"><path d="M 117.375 112 L 175 112 L 175 131 L 117.375 131 Z M 117.375 112 " clip-rule="nonzero"/></clipPath><clipPath id="99237cce28"><path d="M 140 92.628906 L 206 92.628906 L 206 131 L 140 131 Z M 140 92.628906 " clip-rule="nonzero"/></clipPath><clipPath id="6bb82f59da"><path d="M 172 112 L 228.269531 112 L 228.269531 131 L 172 131 Z M 172 112 " clip-rule="nonzero"/></clipPath><clipPath id="1b06057d62"><path d="M 0 266.109375 L 117.632812 266.109375 L 117.632812 383.742188 L 0 383.742188 Z M 0 266.109375 " clip-rule="nonzero"/></clipPath><clipPath id="6eae44a725"><path d="M 23 266.109375 L 94 266.109375 L 94 383.742188 L 23 383.742188 Z M 23 266.109375 " clip-rule="nonzero"/></clipPath><clipPath id="743d37d753"><path d="M 57 266.109375 L 60 266.109375 L 60 383 L 57 383 Z M 57 266.109375 " clip-rule="nonzero"/></clipPath><clipPath id="fff2add7c2"><path d="M 10 463.074219 L 99 463.074219 L 99 571 L 10 571 Z M 10 463.074219 " clip-rule="nonzero"/></clipPath><clipPath id="993e5cb6be"><path d="M 10 463.074219 L 99 463.074219 L 99 571.71875 L 10 571.71875 Z M 10 463.074219 " clip-rule="nonzero"/></clipPath><clipPath id="e4fdc5224e"><path d="M 19 463.074219 L 107 463.074219 L 107 571 L 19 571 Z M 19 463.074219 " clip-rule="nonzero"/></clipPath><clipPath id="4f74b33533"><path d="M 18 463.074219 L 107.363281 463.074219 L 107.363281 571.71875 L 18 571.71875 Z M 18 463.074219 " clip-rule="nonzero"/></clipPath><clipPath id="3e42e47ddc"><path d="M 18 484 L 107.363281 484 L 107.363281 571.71875 L 18 571.71875 Z M 18 484 " clip-rule="nonzero"/></clipPath></defs><g clip-path="url(#397c7e8aa3)"><g clip-path="url(#15cf4ca1f4)"><path stroke-linecap="butt" transform="matrix(0.749265, 0, 0, 0.749265, 51.742085, 64.123786)" fill="none" stroke-linejoin="miter" d="M 474.580015 0.00161972 C 212.474079 0.00161972 0.000137433 212.475561 0.000137433 474.576284 C 0.000137433 736.68222 212.474079 949.156161 474.580015 949.156161 C 736.680737 949.156161 949.154679 736.68222 949.154679 474.576284 C 949.154679 212.475561 736.680737 0.00161972 474.580015 0.00161972 Z M 474.580015 0.00161972 " stroke="#eae2cf" stroke-width="4" stroke-opacity="1" stroke-miterlimit="4"/></g></g><path fill="#01654d" d="M 380.257812 12.007812 L 302.8125 32.734375 L 328.046875 126.796875 L 405.492188 106.070312 Z M 380.257812 12.007812 " fill-opacity="1" fill-rule="nonzero"/><g clip-path="url(#9a64619a9d)"><path fill="#101727" d="M 301.59375 32.03125 L 380.957031 10.792969 L 406.707031 106.773438 L 327.34375 128.011719 Z M 304.027344 33.433594 L 328.75 125.578125 L 404.273438 105.367188 L 379.550781 13.222656 Z M 304.027344 33.433594 " fill-opacity="1" fill-rule="evenodd"/></g><path fill="#e9e1ce" d="M 371.644531 23.613281 L 316.078125 38.480469 L 336.660156 115.191406 L 392.222656 100.320312 Z M 371.644531 23.613281 " fill-opacity="1" fill-rule="nonzero"/><path fill="#101727" d="M 314.859375 37.78125 L 372.34375 22.394531 L 393.4375 101.023438 L 335.953125 116.40625 Z M 317.296875 39.183594 L 337.359375 113.976562 L 391.003906 99.617188 L 370.9375 24.828125 Z M 317.296875 39.183594 " fill-opacity="1" fill-rule="evenodd"/><path fill="#e8bd51" d="M 348.761719 17.140625 C 347.351562 13.019531 342.976562 10.636719 338.699219 11.78125 C 334.421875 12.925781 331.824219 17.183594 332.667969 21.449219 L 318.964844 25.117188 L 323.320312 41.34375 L 366.820312 29.703125 L 362.464844 13.476562 Z M 348.761719 17.140625 " fill-opacity="1" fill-rule="nonzero"/><path fill="#101727" d="M 331.554688 20.71875 C 331.132812 16.269531 333.960938 12.023438 338.441406 10.824219 C 342.917969 9.625 347.492188 11.882812 349.355469 15.953125 L 363.164062 12.257812 L 368.035156 30.40625 L 322.613281 42.5625 L 317.746094 24.414062 Z M 338.953125 12.742188 C 335.1875 13.75 332.898438 17.5 333.644531 21.257812 L 333.824219 22.167969 L 320.179688 25.820312 L 324.019531 40.128906 L 365.597656 29.003906 L 361.757812 14.691406 L 348.117188 18.34375 L 347.816406 17.464844 C 346.578125 13.832031 342.71875 11.734375 338.953125 12.742188 Z M 338.953125 12.742188 " fill-opacity="1" fill-rule="evenodd"/><path fill="#e8bd51" d="M 375.496094 99.363281 C 380.519531 98.015625 383.5 92.859375 382.15625 87.839844 C 380.808594 82.824219 375.644531 79.84375 370.621094 81.1875 C 365.59375 82.535156 362.613281 87.691406 363.957031 92.710938 C 365.304688 97.726562 370.46875 100.707031 375.496094 99.363281 Z M 375.496094 99.363281 " fill-opacity="1" fill-rule="nonzero"/><path fill="#101727" d="M 368.808594 46.449219 L 329.964844 56.84375 L 329.449219 54.925781 L 368.296875 44.53125 Z M 368.808594 46.449219 " fill-opacity="1" fill-rule="evenodd"/><path fill="#101727" d="M 370.785156 53.808594 L 331.9375 64.207031 L 331.421875 62.285156 L 370.269531 51.890625 Z M 370.785156 53.808594 " fill-opacity="1" fill-rule="evenodd"/><path fill="#101727" d="M 372.761719 61.179688 L 333.914062 71.574219 L 333.398438 69.65625 L 372.246094 59.257812 Z M 372.761719 61.179688 " fill-opacity="1" fill-rule="evenodd"/><path fill="#101727" d="M 374.738281 68.539062 L 335.890625 78.933594 L 335.378906 77.015625 L 374.222656 66.621094 Z M 374.738281 68.539062 " fill-opacity="1" fill-rule="evenodd"/><path fill="#101727" d="M 376.710938 75.90625 L 337.867188 86.300781 L 337.351562 84.382812 L 376.195312 73.988281 Z M 376.710938 75.90625 " fill-opacity="1" fill-rule="evenodd"/><path fill="#01654d" d="M 173.503906 129.679688 L 219.640625 129.679688 L 219.640625 201.027344 L 173.503906 201.027344 Z M 173.503906 129.679688 " fill-opacity="1" fill-rule="nonzero"/><path fill="#101727" d="M 220.613281 201.996094 L 172.53125 201.996094 L 172.53125 128.707031 L 220.613281 128.707031 Z M 174.476562 200.054688 L 218.664062 200.054688 L 218.664062 130.652344 L 174.476562 130.652344 Z M 174.476562 200.054688 " fill-opacity="1" fill-rule="nonzero"/><path fill="#e9e1ce" d="M 126 129.679688 L 173.503906 129.679688 L 173.503906 201.027344 L 126 201.027344 Z M 126 129.679688 " fill-opacity="1" fill-rule="nonzero"/><path fill="#101727" d="M 174.476562 201.996094 L 125.023438 201.996094 L 125.023438 128.707031 L 174.476562 128.707031 Z M 126.972656 200.054688 L 172.53125 200.054688 L 172.53125 130.652344 L 126.972656 130.652344 Z M 126.972656 200.054688 " fill-opacity="1" fill-rule="nonzero"/><path fill="#01654d" d="M 166.363281 113.121094 L 118.855469 113.121094 L 126 129.679688 L 173.503906 129.679688 Z M 166.363281 113.121094 " fill-opacity="1" fill-rule="nonzero"/><g clip-path="url(#f349fca71f)"><path fill="#101727" d="M 174.984375 130.652344 L 125.363281 130.652344 L 117.375 112.148438 L 167.003906 112.148438 L 174.992188 130.652344 Z M 126.640625 128.707031 L 172.023438 128.707031 L 165.71875 114.09375 L 120.335938 114.09375 Z M 126.640625 128.707031 " fill-opacity="1" fill-rule="nonzero"/></g><path fill="#e8bd51" d="M 141.789062 93.621094 L 204.945312 93.621094 L 204.945312 129.679688 L 141.789062 129.679688 Z M 141.789062 93.621094 " fill-opacity="1" fill-rule="nonzero"/><g clip-path="url(#99237cce28)"><path fill="#101727" d="M 205.921875 130.652344 L 140.8125 130.652344 L 140.8125 92.648438 L 205.921875 92.648438 Z M 142.761719 128.707031 L 203.972656 128.707031 L 203.972656 94.59375 L 142.761719 94.59375 Z M 142.761719 128.707031 " fill-opacity="1" fill-rule="nonzero"/></g><path fill="#01654d" d="M 226.789062 113.121094 L 180.652344 113.121094 L 173.503906 129.679688 L 219.640625 129.679688 Z M 226.789062 113.121094 " fill-opacity="1" fill-rule="nonzero"/><g clip-path="url(#6bb82f59da)"><path fill="#101727" d="M 220.28125 130.652344 L 172.023438 130.652344 L 180.007812 112.148438 L 228.269531 112.148438 Z M 174.984375 128.707031 L 218.996094 128.707031 L 225.300781 114.09375 L 181.289062 114.09375 Z M 174.984375 128.707031 " fill-opacity="1" fill-rule="nonzero"/></g><path fill="#e8bd51" d="M 187.921875 165.347656 C 187.921875 166.304688 187.832031 167.25 187.644531 168.183594 C 187.457031 169.121094 187.179688 170.027344 186.816406 170.910156 C 186.449219 171.792969 186 172.628906 185.46875 173.421875 C 184.9375 174.214844 184.335938 174.949219 183.660156 175.625 C 182.984375 176.296875 182.25 176.898438 181.453125 177.429688 C 180.660156 177.960938 179.820312 178.40625 178.9375 178.773438 C 178.054688 179.136719 177.144531 179.414062 176.207031 179.601562 C 175.269531 179.785156 174.324219 179.878906 173.367188 179.878906 C 172.410156 179.878906 171.464844 179.785156 170.527344 179.601562 C 169.589844 179.414062 168.679688 179.136719 167.796875 178.773438 C 166.914062 178.40625 166.074219 177.960938 165.28125 177.429688 C 164.484375 176.898438 163.75 176.296875 163.074219 175.625 C 162.398438 174.949219 161.796875 174.214844 161.265625 173.421875 C 160.734375 172.628906 160.285156 171.792969 159.917969 170.910156 C 159.554688 170.027344 159.277344 169.121094 159.089844 168.183594 C 158.90625 167.25 158.8125 166.304688 158.8125 165.347656 C 158.8125 164.394531 158.90625 163.449219 159.089844 162.515625 C 159.277344 161.578125 159.554688 160.671875 159.917969 159.789062 C 160.285156 158.90625 160.734375 158.070312 161.265625 157.277344 C 161.796875 156.484375 162.398438 155.75 163.074219 155.074219 C 163.75 154.402344 164.484375 153.796875 165.28125 153.269531 C 166.074219 152.738281 166.914062 152.289062 167.796875 151.925781 C 168.679688 151.5625 169.589844 151.285156 170.527344 151.097656 C 171.464844 150.914062 172.410156 150.820312 173.367188 150.820312 C 174.324219 150.820312 175.269531 150.914062 176.207031 151.097656 C 177.144531 151.285156 178.054688 151.5625 178.9375 151.925781 C 179.820312 152.289062 180.660156 152.738281 181.453125 153.269531 C 182.25 153.796875 182.984375 154.402344 183.660156 155.074219 C 184.335938 155.75 184.9375 156.484375 185.46875 157.277344 C 186 158.070312 186.449219 158.90625 186.816406 159.789062 C 187.179688 160.671875 187.457031 161.578125 187.644531 162.515625 C 187.832031 163.449219 187.921875 164.394531 187.921875 165.347656 Z M 187.921875 165.347656 " fill-opacity="1" fill-rule="nonzero"/><path fill="#101727" d="M 173.367188 180.851562 C 164.804688 180.851562 157.835938 173.898438 157.835938 165.347656 C 157.835938 156.800781 164.804688 149.847656 173.367188 149.847656 C 181.929688 149.847656 188.898438 156.800781 188.898438 165.347656 C 188.898438 173.898438 181.929688 180.851562 173.367188 180.851562 Z M 173.367188 151.792969 C 165.875 151.792969 159.785156 157.871094 159.785156 165.347656 C 159.785156 172.828125 165.875 178.90625 173.367188 178.90625 C 180.859375 178.90625 186.949219 172.828125 186.949219 165.347656 C 186.949219 157.871094 180.859375 151.792969 173.367188 151.792969 Z M 173.367188 151.792969 " fill-opacity="1" fill-rule="nonzero"/><path fill="#101727" d="M 171.414062 170.714844 L 165.523438 165.660156 L 166.796875 164.183594 L 171.308594 168.070312 L 179.890625 159.503906 L 181.269531 160.882812 Z M 171.414062 170.714844 " fill-opacity="1" fill-rule="nonzero"/><path fill="#01654d" d="M 116.601562 324.921875 C 116.601562 326.8125 116.507812 328.703125 116.324219 330.585938 C 116.136719 332.46875 115.859375 334.339844 115.492188 336.195312 C 115.121094 338.050781 114.664062 339.886719 114.113281 341.695312 C 113.5625 343.507812 112.925781 345.289062 112.203125 347.035156 C 111.480469 348.785156 110.671875 350.492188 109.777344 352.164062 C 108.886719 353.832031 107.914062 355.453125 106.863281 357.027344 C 105.8125 358.601562 104.683594 360.117188 103.484375 361.582031 C 102.285156 363.042969 101.015625 364.445312 99.675781 365.785156 C 98.339844 367.121094 96.9375 368.390625 95.472656 369.59375 C 94.011719 370.792969 92.492188 371.917969 90.917969 372.96875 C 89.34375 374.023438 87.722656 374.992188 86.054688 375.886719 C 84.386719 376.777344 82.675781 377.585938 80.929688 378.3125 C 79.179688 379.035156 77.398438 379.671875 75.589844 380.222656 C 73.777344 380.769531 71.945312 381.230469 70.085938 381.597656 C 68.230469 381.96875 66.363281 382.246094 64.476562 382.429688 C 62.59375 382.617188 60.707031 382.710938 58.8125 382.710938 C 56.921875 382.710938 55.03125 382.617188 53.148438 382.429688 C 51.265625 382.246094 49.394531 381.96875 47.539062 381.597656 C 45.683594 381.230469 43.851562 380.769531 42.039062 380.222656 C 40.226562 379.671875 38.449219 379.035156 36.699219 378.3125 C 34.949219 377.585938 33.242188 376.777344 31.574219 375.886719 C 29.902344 374.992188 28.28125 374.023438 26.707031 372.96875 C 25.132812 371.917969 23.617188 370.792969 22.152344 369.59375 C 20.691406 368.390625 19.289062 367.121094 17.953125 365.785156 C 16.613281 364.445312 15.34375 363.042969 14.144531 361.582031 C 12.941406 360.117188 11.816406 358.601562 10.765625 357.027344 C 9.714844 355.453125 8.742188 353.832031 7.847656 352.164062 C 6.957031 350.492188 6.148438 348.785156 5.425781 347.035156 C 4.699219 345.289062 4.0625 343.507812 3.515625 341.695312 C 2.964844 339.886719 2.503906 338.050781 2.136719 336.195312 C 1.765625 334.339844 1.488281 332.46875 1.304688 330.585938 C 1.117188 328.703125 1.027344 326.8125 1.027344 324.921875 C 1.027344 323.027344 1.117188 321.140625 1.304688 319.257812 C 1.488281 317.375 1.765625 315.503906 2.136719 313.648438 C 2.503906 311.792969 2.964844 309.957031 3.515625 308.144531 C 4.0625 306.335938 4.699219 304.554688 5.425781 302.808594 C 6.148438 301.058594 6.957031 299.347656 7.847656 297.679688 C 8.742188 296.011719 9.714844 294.390625 10.765625 292.816406 C 11.816406 291.242188 12.941406 289.722656 14.144531 288.261719 C 15.34375 286.796875 16.613281 285.398438 17.953125 284.058594 C 19.289062 282.71875 20.691406 281.449219 22.152344 280.25 C 23.617188 279.050781 25.132812 277.921875 26.707031 276.871094 C 28.28125 275.820312 29.902344 274.847656 31.574219 273.957031 C 33.242188 273.066406 34.949219 272.257812 36.699219 271.53125 C 38.449219 270.808594 40.226562 270.171875 42.039062 269.621094 C 43.851562 269.070312 45.683594 268.613281 47.539062 268.242188 C 49.394531 267.875 51.265625 267.597656 53.148438 267.410156 C 55.03125 267.226562 56.921875 267.132812 58.8125 267.132812 C 60.707031 267.132812 62.59375 267.226562 64.476562 267.410156 C 66.363281 267.597656 68.230469 267.875 70.085938 268.242188 C 71.945312 268.613281 73.777344 269.070312 75.589844 269.621094 C 77.398438 270.171875 79.179688 270.808594 80.929688 271.53125 C 82.675781 272.257812 84.386719 273.066406 86.054688 273.957031 C 87.722656 274.847656 89.34375 275.820312 90.917969 276.871094 C 92.492188 277.921875 94.011719 279.050781 95.472656 280.25 C 96.9375 281.449219 98.339844 282.71875 99.675781 284.058594 C 101.015625 285.398438 102.285156 286.796875 103.484375 288.261719 C 104.683594 289.722656 105.8125 291.242188 106.863281 292.816406 C 107.914062 294.390625 108.886719 296.011719 109.777344 297.679688 C 110.671875 299.347656 111.480469 301.058594 112.203125 302.808594 C 112.925781 304.554688 113.5625 306.335938 114.113281 308.144531 C 114.664062 309.957031 115.121094 311.792969 115.492188 313.648438 C 115.859375 315.503906 116.136719 317.375 116.324219 319.257812 C 116.507812 321.140625 116.601562 323.027344 116.601562 324.921875 Z M 116.601562 324.921875 " fill-opacity="1" fill-rule="nonzero"/><g clip-path="url(#1b06057d62)"><path fill="#101727" d="M 58.8125 383.742188 C 26.386719 383.742188 0 357.355469 0 324.921875 C 0 292.484375 26.386719 266.109375 58.8125 266.109375 C 91.242188 266.109375 117.628906 292.492188 117.628906 324.921875 C 117.628906 357.351562 91.242188 383.734375 58.8125 383.734375 Z M 58.8125 268.160156 C 27.511719 268.160156 2.050781 293.621094 2.050781 324.921875 C 2.050781 356.222656 27.511719 381.683594 58.8125 381.683594 C 90.113281 381.683594 115.578125 356.222656 115.578125 324.921875 C 115.578125 293.621094 90.113281 268.160156 58.8125 268.160156 Z M 58.8125 268.160156 " fill-opacity="1" fill-rule="nonzero"/></g><path fill="#01654d" d="M 92.71875 324.921875 C 92.71875 326.8125 92.664062 328.703125 92.554688 330.585938 C 92.449219 332.46875 92.285156 334.339844 92.066406 336.195312 C 91.851562 338.050781 91.582031 339.886719 91.257812 341.695312 C 90.9375 343.507812 90.5625 345.289062 90.140625 347.035156 C 89.714844 348.785156 89.238281 350.492188 88.714844 352.164062 C 88.191406 353.832031 87.621094 355.453125 87.003906 357.027344 C 86.386719 358.601562 85.726562 360.117188 85.023438 361.582031 C 84.320312 363.042969 83.574219 364.445312 82.789062 365.785156 C 82.003906 367.121094 81.183594 368.390625 80.324219 369.59375 C 79.464844 370.792969 78.574219 371.917969 77.652344 372.96875 C 76.726562 374.023438 75.777344 374.992188 74.796875 375.886719 C 73.816406 376.777344 72.816406 377.585938 71.789062 378.3125 C 70.761719 379.035156 69.71875 379.671875 68.65625 380.222656 C 67.59375 380.769531 66.519531 381.230469 65.429688 381.597656 C 64.339844 381.96875 63.242188 382.246094 62.136719 382.429688 C 61.03125 382.617188 59.925781 382.710938 58.8125 382.710938 C 57.703125 382.710938 56.59375 382.617188 55.492188 382.429688 C 54.386719 382.246094 53.289062 381.96875 52.199219 381.597656 C 51.109375 381.230469 50.035156 380.769531 48.972656 380.222656 C 47.910156 379.671875 46.863281 379.035156 45.839844 378.3125 C 44.8125 377.585938 43.808594 376.777344 42.832031 375.886719 C 41.851562 374.992188 40.898438 374.023438 39.976562 372.96875 C 39.054688 371.917969 38.164062 370.792969 37.304688 369.59375 C 36.445312 368.390625 35.625 367.121094 34.839844 365.785156 C 34.054688 364.445312 33.308594 363.042969 32.605469 361.582031 C 31.898438 360.117188 31.238281 358.601562 30.621094 357.027344 C 30.003906 355.453125 29.433594 353.832031 28.910156 352.164062 C 28.386719 350.492188 27.914062 348.785156 27.488281 347.035156 C 27.0625 345.289062 26.691406 343.507812 26.367188 341.695312 C 26.046875 339.886719 25.777344 338.050781 25.558594 336.195312 C 25.34375 334.339844 25.179688 332.46875 25.070312 330.585938 C 24.960938 328.703125 24.90625 326.8125 24.90625 324.921875 C 24.90625 323.027344 24.960938 321.140625 25.070312 319.257812 C 25.179688 317.375 25.34375 315.503906 25.558594 313.648438 C 25.777344 311.792969 26.046875 309.957031 26.367188 308.144531 C 26.691406 306.335938 27.0625 304.554688 27.488281 302.808594 C 27.914062 301.058594 28.386719 299.347656 28.910156 297.679688 C 29.433594 296.011719 30.003906 294.390625 30.621094 292.816406 C 31.238281 291.242188 31.898438 289.722656 32.605469 288.261719 C 33.308594 286.796875 34.054688 285.398438 34.839844 284.058594 C 35.625 282.71875 36.445312 281.449219 37.304688 280.25 C 38.164062 279.050781 39.054688 277.921875 39.976562 276.871094 C 40.898438 275.820312 41.851562 274.847656 42.832031 273.957031 C 43.808594 273.066406 44.8125 272.257812 45.839844 271.53125 C 46.863281 270.808594 47.910156 270.171875 48.972656 269.621094 C 50.035156 269.070312 51.109375 268.613281 52.199219 268.242188 C 53.289062 267.875 54.386719 267.597656 55.492188 267.410156 C 56.59375 267.226562 57.703125 267.132812 58.8125 267.132812 C 59.925781 267.132812 61.03125 267.226562 62.136719 267.410156 C 63.242188 267.597656 64.339844 267.875 65.429688 268.242188 C 66.519531 268.613281 67.59375 269.070312 68.65625 269.621094 C 69.71875 270.171875 70.761719 270.808594 71.789062 271.53125 C 72.816406 272.257812 73.816406 273.066406 74.796875 273.957031 C 75.777344 274.847656 76.726562 275.820312 77.652344 276.871094 C 78.574219 277.921875 79.464844 279.050781 80.324219 280.25 C 81.183594 281.449219 82.003906 282.71875 82.789062 284.058594 C 83.574219 285.398438 84.320312 286.796875 85.023438 288.261719 C 85.726562 289.722656 86.386719 291.242188 87.003906 292.816406 C 87.621094 294.390625 88.191406 296.011719 88.714844 297.679688 C 89.238281 299.347656 89.714844 301.058594 90.140625 302.808594 C 90.5625 304.554688 90.9375 306.335938 91.257812 308.144531 C 91.582031 309.957031 91.851562 311.792969 92.066406 313.648438 C 92.285156 315.503906 92.449219 317.375 92.554688 319.257812 C 92.664062 321.140625 92.71875 323.027344 92.71875 324.921875 Z M 92.71875 324.921875 " fill-opacity="1" fill-rule="nonzero"/><g clip-path="url(#6eae44a725)"><path fill="#101727" d="M 58.8125 383.742188 C 39.554688 383.742188 23.882812 357.355469 23.882812 324.929688 C 23.882812 292.5 39.554688 266.109375 58.8125 266.109375 C 78.074219 266.109375 93.746094 292.492188 93.746094 324.921875 C 93.746094 357.351562 78.074219 383.734375 58.8125 383.734375 Z M 58.8125 268.160156 C 40.679688 268.160156 25.933594 293.621094 25.933594 324.921875 C 25.933594 356.222656 40.679688 381.683594 58.8125 381.683594 C 76.945312 381.683594 91.695312 356.222656 91.695312 324.921875 C 91.695312 293.621094 76.945312 268.160156 58.8125 268.160156 Z M 58.8125 268.160156 " fill-opacity="1" fill-rule="nonzero"/></g><g clip-path="url(#743d37d753)"><path fill="#101727" d="M 57.789062 266.285156 L 59.839844 266.285156 L 59.839844 382.710938 L 57.789062 382.710938 Z M 57.789062 266.285156 " fill-opacity="1" fill-rule="nonzero"/></g><path fill="#101727" d="M 0.964844 323.945312 L 116.664062 323.945312 L 116.664062 325.996094 L 0.964844 325.996094 Z M 0.964844 323.945312 " fill-opacity="1" fill-rule="nonzero"/><path fill="#101727" d="M 7.71875 296.636719 L 110.03125 296.636719 L 110.03125 298.6875 L 7.71875 298.6875 Z M 7.71875 296.636719 " fill-opacity="1" fill-rule="nonzero"/><path fill="#101727" d="M 7.71875 351.246094 L 109.738281 351.246094 L 109.738281 353.296875 L 7.71875 353.296875 Z M 7.71875 351.246094 " fill-opacity="1" fill-rule="nonzero"/><path fill="#e9e1ce" d="M 66.820312 322.007812 L 61.808594 317.195312 L 43.554688 335.53125 C 42.214844 336.914062 42.246094 339.128906 43.640625 340.460938 C 45.023438 341.789062 47.210938 341.746094 48.542969 340.375 L 66.820312 322.015625 Z M 66.820312 322.007812 " fill-opacity="1" fill-rule="nonzero"/><path fill="#101727" d="M 46.054688 342.445312 C 44.933594 342.445312 43.804688 342.027344 42.9375 341.195312 C 42.070312 340.359375 41.578125 339.230469 41.558594 338.027344 C 41.535156 336.816406 41.988281 335.675781 42.828125 334.816406 L 61.800781 315.757812 L 68.289062 321.996094 L 49.277344 341.089844 C 48.402344 341.992188 47.230469 342.445312 46.054688 342.445312 Z M 61.828125 318.632812 L 44.285156 336.25 C 43.832031 336.714844 43.585938 337.332031 43.601562 337.996094 C 43.613281 338.652344 43.882812 339.265625 44.351562 339.71875 C 45.324219 340.648438 46.871094 340.621094 47.804688 339.65625 L 65.355469 322.027344 L 61.820312 318.632812 Z M 61.828125 318.632812 " fill-opacity="1" fill-rule="nonzero"/><path fill="#e8bd51" d="M 85.753906 302.699219 L 80.851562 297.792969 L 61.808594 317.1875 L 66.820312 322.007812 Z M 85.753906 302.699219 " fill-opacity="1" fill-rule="nonzero"/><path fill="#101727" d="M 66.839844 323.453125 L 60.351562 317.214844 L 80.84375 296.335938 L 87.203125 302.6875 L 66.847656 323.453125 Z M 63.273438 317.167969 L 66.804688 320.566406 L 84.316406 302.707031 L 80.863281 299.253906 L 63.277344 317.175781 Z M 63.273438 317.167969 " fill-opacity="1" fill-rule="nonzero"/><path fill="#e9e1ce" d="M 68.125 340.484375 C 65.625 335.21875 61.71875 330.863281 57.371094 326.652344 C 52.839844 322.269531 48.140625 318.433594 42.542969 316.085938 L 37.359375 321.585938 C 31.320312 327.820312 30.625 335.820312 30.546875 339.339844 L 38.023438 346.601562 L 45.304688 353.714844 C 47.5 353.664062 56.726562 352.40625 62.765625 346.171875 L 68.132812 340.484375 Z M 68.125 340.484375 " fill-opacity="1" fill-rule="nonzero"/><path fill="#101727" d="M 44.886719 354.746094 L 29.503906 339.765625 L 29.503906 339.320312 C 29.625 334.136719 30.945312 326.726562 36.605469 320.875 L 42.269531 314.863281 L 42.925781 315.136719 C 49.160156 317.75 54.082031 322.050781 58.074219 325.914062 C 61.964844 329.679688 66.3125 334.300781 69.042969 340.039062 L 69.34375 340.675781 L 63.496094 346.867188 C 57.441406 353.132812 48.320312 354.671875 45.308594 354.730469 L 44.878906 354.730469 Z M 31.582031 338.925781 L 45.691406 352.671875 C 48.6875 352.480469 56.75 350.910156 62.019531 345.460938 L 66.886719 340.296875 C 64.285156 335.136719 60.269531 330.890625 56.652344 327.390625 C 52.941406 323.792969 48.40625 319.8125 42.789062 317.3125 L 38.097656 322.289062 C 33.042969 327.511719 31.753906 334.132812 31.582031 338.917969 Z M 31.582031 338.925781 " fill-opacity="1" fill-rule="nonzero"/><path fill="#e8bd51" d="M 79.433594 289.457031 L 94.316406 304.335938 C 94.519531 304.539062 94.699219 304.757812 94.859375 304.996094 C 95.015625 305.234375 95.152344 305.484375 95.261719 305.75 C 95.371094 306.011719 95.453125 306.285156 95.507812 306.566406 C 95.5625 306.847656 95.59375 307.128906 95.59375 307.417969 C 95.59375 307.703125 95.5625 307.984375 95.507812 308.265625 C 95.453125 308.546875 95.371094 308.820312 95.261719 309.082031 C 95.152344 309.347656 95.015625 309.597656 94.859375 309.835938 C 94.699219 310.074219 94.519531 310.292969 94.316406 310.496094 L 94.28125 310.53125 C 94.082031 310.730469 93.859375 310.914062 93.621094 311.070312 C 93.386719 311.230469 93.132812 311.363281 92.871094 311.472656 C 92.605469 311.582031 92.332031 311.664062 92.050781 311.722656 C 91.773438 311.777344 91.488281 311.804688 91.203125 311.804688 C 90.917969 311.804688 90.632812 311.777344 90.351562 311.722656 C 90.074219 311.664062 89.800781 311.582031 89.535156 311.472656 C 89.273438 311.363281 89.019531 311.230469 88.785156 311.070312 C 88.546875 310.914062 88.324219 310.730469 88.125 310.53125 L 73.242188 295.648438 C 73.039062 295.445312 72.859375 295.226562 72.699219 294.988281 C 72.542969 294.75 72.40625 294.5 72.296875 294.234375 C 72.1875 293.972656 72.105469 293.699219 72.050781 293.417969 C 71.996094 293.136719 71.964844 292.855469 71.964844 292.570312 C 71.964844 292.28125 71.996094 292 72.050781 291.71875 C 72.105469 291.4375 72.1875 291.167969 72.296875 290.902344 C 72.40625 290.636719 72.542969 290.386719 72.699219 290.148438 C 72.859375 289.910156 73.039062 289.691406 73.242188 289.488281 L 73.277344 289.457031 C 73.476562 289.253906 73.699219 289.074219 73.9375 288.914062 C 74.175781 288.753906 74.425781 288.621094 74.6875 288.511719 C 74.953125 288.402344 75.226562 288.320312 75.507812 288.261719 C 75.785156 288.207031 76.070312 288.179688 76.355469 288.179688 C 76.640625 288.179688 76.925781 288.207031 77.207031 288.261719 C 77.484375 288.320312 77.757812 288.402344 78.023438 288.511719 C 78.285156 288.621094 78.539062 288.753906 78.777344 288.914062 C 79.011719 289.074219 79.234375 289.253906 79.433594 289.457031 Z M 79.433594 289.457031 " fill-opacity="1" fill-rule="nonzero"/><path fill="#101727" d="M 91.1875 312.828125 C 89.8125 312.828125 88.441406 312.300781 87.398438 311.261719 L 72.515625 296.375 C 70.417969 294.277344 70.417969 290.863281 72.515625 288.773438 C 74.613281 286.679688 78.0625 286.640625 80.160156 288.738281 L 95.042969 303.625 C 97.144531 305.722656 97.144531 309.132812 95.042969 311.234375 C 93.972656 312.308594 92.582031 312.839844 91.195312 312.839844 Z M 88.851562 309.8125 C 90.148438 311.109375 92.261719 311.109375 93.554688 309.8125 C 94.886719 308.476562 94.886719 306.363281 93.589844 305.066406 L 78.703125 290.179688 C 77.402344 288.882812 75.296875 288.882812 74 290.179688 C 73.335938 290.84375 72.988281 291.679688 72.988281 292.566406 C 72.988281 293.457031 73.335938 294.289062 73.964844 294.917969 L 88.851562 309.804688 Z M 88.851562 309.8125 " fill-opacity="1" fill-rule="nonzero"/><path fill="#101727" d="M 25.175781 335.445312 L 26.625 333.992188 L 49.78125 357.15625 L 48.332031 358.605469 Z M 25.175781 335.445312 " fill-opacity="1" fill-rule="nonzero"/><g clip-path="url(#fff2add7c2)"><path fill="#01654d" d="M 98.148438 463.949219 L 10.84375 463.949219 L 10.84375 570.84375 L 98.148438 570.84375 Z M 98.148438 463.949219 " fill-opacity="1" fill-rule="nonzero"/></g><g clip-path="url(#993e5cb6be)"><path fill="#101727" d="M 10.042969 463.152344 L 98.949219 463.152344 L 98.949219 571.640625 L 10.042969 571.640625 Z M 11.640625 464.75 L 11.640625 570.042969 L 97.351562 570.042969 L 97.351562 464.75 Z M 11.640625 464.75 " fill-opacity="1" fill-rule="evenodd"/></g><g clip-path="url(#e4fdc5224e)"><path fill="#e8bd51" d="M 106.480469 463.949219 L 19.171875 463.949219 L 19.171875 570.84375 L 106.480469 570.84375 Z M 106.480469 463.949219 " fill-opacity="1" fill-rule="nonzero"/></g><g clip-path="url(#4f74b33533)"><path fill="#101727" d="M 18.375 463.152344 L 107.277344 463.152344 L 107.277344 571.640625 L 18.375 571.640625 Z M 19.972656 464.75 L 19.972656 570.042969 L 105.683594 570.042969 L 105.683594 464.75 Z M 19.972656 464.75 " fill-opacity="1" fill-rule="evenodd"/></g><path fill="#e9e1ce" d="M 106.480469 485.714844 L 19.171875 485.714844 L 19.171875 570.835938 L 106.480469 570.835938 Z M 106.480469 485.714844 " fill-opacity="1" fill-rule="nonzero"/><g clip-path="url(#3e42e47ddc)"><path fill="#101727" d="M 18.375 484.917969 L 107.277344 484.917969 L 107.277344 571.636719 L 18.375 571.636719 Z M 19.972656 486.515625 L 19.972656 570.039062 L 105.683594 570.039062 L 105.683594 486.515625 Z M 19.972656 486.515625 " fill-opacity="1" fill-rule="evenodd"/></g><path fill="#e8bd51" d="M 31.492188 479.988281 C 34.183594 479.988281 36.367188 477.824219 36.367188 475.152344 C 36.367188 472.480469 34.183594 470.3125 31.492188 470.3125 C 28.800781 470.3125 26.617188 472.480469 26.617188 475.152344 C 26.617188 477.824219 28.800781 479.988281 31.492188 479.988281 Z M 31.492188 479.988281 " fill-opacity="1" fill-rule="nonzero"/><path fill="#101727" d="M 31.492188 471.109375 C 29.234375 471.109375 27.414062 472.925781 27.414062 475.152344 C 27.414062 477.375 29.234375 479.191406 31.492188 479.191406 C 33.75 479.191406 35.566406 477.375 35.566406 475.152344 C 35.566406 472.925781 33.75 471.109375 31.492188 471.109375 Z M 25.820312 475.152344 C 25.820312 472.03125 28.363281 469.511719 31.492188 469.511719 C 34.617188 469.511719 37.164062 472.03125 37.164062 475.152344 C 37.164062 478.269531 34.617188 480.789062 31.492188 480.789062 C 28.363281 480.789062 25.820312 478.269531 25.820312 475.152344 Z M 25.820312 475.152344 " fill-opacity="1" fill-rule="evenodd"/><path fill="#e8bd51" d="M 44.550781 479.988281 C 47.242188 479.988281 49.425781 477.824219 49.425781 475.152344 C 49.425781 472.480469 47.242188 470.3125 44.550781 470.3125 C 41.859375 470.3125 39.675781 472.480469 39.675781 475.152344 C 39.675781 477.824219 41.859375 479.988281 44.550781 479.988281 Z M 44.550781 479.988281 " fill-opacity="1" fill-rule="nonzero"/><path fill="#101727" d="M 44.550781 471.109375 C 42.292969 471.109375 40.472656 472.925781 40.472656 475.152344 C 40.472656 477.375 42.292969 479.191406 44.550781 479.191406 C 46.808594 479.191406 48.625 477.375 48.625 475.152344 C 48.625 472.925781 46.808594 471.109375 44.550781 471.109375 Z M 38.878906 475.152344 C 38.878906 472.03125 41.421875 469.511719 44.550781 469.511719 C 47.675781 469.511719 50.222656 472.03125 50.222656 475.152344 C 50.222656 478.269531 47.675781 480.789062 44.550781 480.789062 C 41.421875 480.789062 38.878906 478.269531 38.878906 475.152344 Z M 38.878906 475.152344 " fill-opacity="1" fill-rule="evenodd"/><path fill="#e8bd51" d="M 57.609375 479.988281 C 60.300781 479.988281 62.484375 477.824219 62.484375 475.152344 C 62.484375 472.480469 60.300781 470.3125 57.609375 470.3125 C 54.917969 470.3125 52.734375 472.480469 52.734375 475.152344 C 52.734375 477.824219 54.917969 479.988281 57.609375 479.988281 Z M 57.609375 479.988281 " fill-opacity="1" fill-rule="nonzero"/><path fill="#101727" d="M 57.609375 471.109375 C 55.351562 471.109375 53.53125 472.925781 53.53125 475.152344 C 53.53125 477.375 55.351562 479.191406 57.609375 479.191406 C 59.867188 479.191406 61.683594 477.375 61.683594 475.152344 C 61.683594 472.925781 59.867188 471.109375 57.609375 471.109375 Z M 51.9375 475.152344 C 51.9375 472.03125 54.480469 469.511719 57.609375 469.511719 C 60.734375 469.511719 63.28125 472.03125 63.28125 475.152344 C 63.28125 478.269531 60.734375 480.789062 57.609375 480.789062 C 54.480469 480.789062 51.9375 478.269531 51.9375 475.152344 Z M 51.9375 475.152344 " fill-opacity="1" fill-rule="evenodd"/><path fill="#101727" d="M 37.714844 502.753906 L 29.5 494.601562 L 30.625 493.464844 L 39.980469 502.753906 L 30.453125 512.210938 L 29.332031 511.074219 Z M 37.714844 502.753906 " fill-opacity="1" fill-rule="evenodd"/><path fill="#101727" d="M 40.957031 510.84375 L 53.179688 510.84375 L 53.179688 512.441406 L 40.957031 512.441406 Z M 40.957031 510.84375 " fill-opacity="1" fill-rule="evenodd"/></svg>