<svg width="115" height="136" viewBox="0 0 115 136" fill="none" xmlns="http://www.w3.org/2000/svg">
<g id="Layer_2" clip-path="url(#clip0_232_212)">
<path id="Vector" d="M1.09588 134.905H93.1689L93.1689 1.09517H1.09588L1.09588 134.905Z" fill="#01654D" stroke="#101727" stroke-width="2" stroke-miterlimit="10"/>
<path id="Vector_2" d="M11.1935 134.905H103.267L103.267 1.09517H11.1935L11.1935 134.905Z" fill="#E9E1CE" stroke="#101727" stroke-width="2" stroke-miterlimit="10"/>
<path id="Vector_3" d="M103.814 42.1992H11.1855V134.905H103.814V42.1992Z" fill="#E9E1CE" stroke="#101727" stroke-width="2" stroke-miterlimit="10"/>
<path id="Vector_4" d="M28.8304 134.905H113.904V42.1992H21.8311L28.8304 134.905Z" fill="#E9E1CE" stroke="#101727" stroke-width="2" stroke-miterlimit="10"/>
<path id="Vector_5" d="M93.1689 42.1992H70.6804V18.2052C70.6804 14.9715 73.3106 12.3436 76.5473 12.3436L87.302 12.3436C90.5387 12.3436 93.1689 14.9715 93.1689 18.2052V42.1992Z" fill="#01654D" stroke="#101727" stroke-width="2" stroke-miterlimit="10"/>
<path id="Vector_6" d="M43.3843 42.1991H57.3538L61.5548 17.1904H59.9548C52.8093 17.1904 46.7159 22.344 45.5323 29.3809L43.377 42.1991H43.3843Z" fill="#E9E1CE" stroke="#101727" stroke-width="2" stroke-miterlimit="10"/>
<path id="Vector_7" d="M41.0173 42.1991H27.0478L22.8467 17.1904H24.3006C31.5265 17.1904 37.7002 22.4097 38.8985 29.5269L41.0246 42.1991H41.0173Z" fill="#E9E1CE" stroke="#101727" stroke-width="2" stroke-miterlimit="10"/>
<path id="Vector_8" d="M44.5755 108.735H85.3516V67.9959H44.5755L44.5755 108.735Z" fill="#E9E1CE" stroke="#101727" stroke-width="2" stroke-miterlimit="10"/>
<path id="Vector_9" d="M99.0137 108.735H58.2376L58.2376 67.9959H92.6646C96.1715 67.9959 99.0137 70.8428 99.0137 74.3393V108.735Z" fill="#E8BD51" stroke="#101727" stroke-width="2" stroke-miterlimit="10"/>
<path id="Vector_10" d="M55.9584 108.743H38.8545V119.839H47.5635V108.743" stroke="#101727" stroke-width="2" stroke-miterlimit="10"/>
<path id="Vector_11" d="M78.6292 96.9685C83.3826 96.9685 87.2359 93.1186 87.2359 88.3695C87.2359 83.6204 83.3826 79.7705 78.6292 79.7705C73.8758 79.7705 70.0225 83.6204 70.0225 88.3695C70.0225 93.1186 73.8758 96.9685 78.6292 96.9685Z" fill="#E9E1CE" stroke="#101727" stroke-width="2" stroke-miterlimit="10"/>
</g>
<defs>
<clipPath id="clip0_232_212">
<rect width="115" height="136" fill="white"/>
</clipPath>
</defs>
</svg>
